<?xml version="1.0" encoding="UTF-8" standalone="no"?>
<svg
   xmlns:dc="http://purl.org/dc/elements/1.1/"
   xmlns:cc="http://creativecommons.org/ns#"
   xmlns:rdf="http://www.w3.org/1999/02/22-rdf-syntax-ns#"
   xmlns:svg="http://www.w3.org/2000/svg"
   xmlns="http://www.w3.org/2000/svg"
   xmlns:sodipodi="http://sodipodi.sourceforge.net/DTD/sodipodi-0.dtd"
   xmlns:inkscape="http://www.inkscape.org/namespaces/inkscape"
   width="285.22119"
   height="504.5"
   version="1.1"
   id="svg312"
   sodipodi:docname="note1.svg"
   inkscape:version="0.92.2 (5c3e80d, 2017-08-06)">
  <metadata
     id="metadata318">
    <rdf:RDF>
      <cc:Work
         rdf:about="">
        <dc:format>image/svg+xml</dc:format>
        <dc:type
           rdf:resource="http://purl.org/dc/dcmitype/StillImage" />
        <dc:title></dc:title>
      </cc:Work>
    </rdf:RDF>
  </metadata>
  <defs
     id="defs316" />
  <sodipodi:namedview
     pagecolor="#ffffff"
     bordercolor="#666666"
     borderopacity="1"
     objecttolerance="10"
     gridtolerance="10"
     guidetolerance="10"
     inkscape:pageopacity="0"
     inkscape:pageshadow="2"
     inkscape:window-width="1920"
     inkscape:window-height="1016"
     id="namedview314"
     showgrid="false"
     fit-margin-top="0"
     fit-margin-left="0"
     fit-margin-right="0"
     fit-margin-bottom="0"
     inkscape:zoom="1.6313181"
     inkscape:cx="142.6106"
     inkscape:cy="252.25"
     inkscape:window-x="0"
     inkscape:window-y="27"
     inkscape:window-maximized="1"
     inkscape:current-layer="svg312" />
  <g
     id="g1175"
     transform="translate(-765.5,-106.5)">
    <g
       id="g24"
       transform="translate(765.5,106.5)">
      <g
         id="g22"
         transform="scale(1.5)">
        <path
           id="path12"
           style="fill:#ff8b2d;fill-opacity:1;stroke:#520000;stroke-width:1;stroke-linecap:round;stroke-opacity:1"
           d="m 0.5,8.5 v -4 a 4,4 90 0 1 4,-4 h 4 v 2 h 10 v -2 h 9 36.147461 4 a 4,4 90 0 1 4,4 v 4 h -4 v -3 h -4 v 10 h 4 v -3 h 4 v 4 a 4,4 90 0 1 -4,4 h -4 H 27.5 h -1 v 2 h -8 v -2 h -1 -4 a 5,5 90 0 0 -5,5 v 4 4 42 4 a 5,5 90 0 0 5,5 h 4 v 2 h 10 v -2 h 8 v 6 6 4 a 4,4 90 0 1 -4,4 h -4 -9 -1 v 2 h -8 v -2 h -1 -4 a 4,4 90 0 1 -4,-4 v -4 z"
           inkscape:connector-curvature="0" />
        <text
           id="text16"
           style="font-size:10px;font-family:sans-serif;text-anchor:start;fill:#000000">
          <tspan
             id="tspan14"
             y="15.25"
             x="5.3333335">note value</tspan>
        </text>
        <text
           id="text20"
           style="font-size:6.66666651px;font-family:sans-serif;text-anchor:end;fill:#000000">
          <tspan
             id="tspan18"
             y="11.25"
             x="61.480793" />
        </text>
      </g>
    </g>
    <g
       id="g42"
       transform="translate(861.72119,106.5)">
      <g
         id="g40"
         transform="scale(1.5)">
        <path
           id="path26"
           style="fill:#ffb2bc;fill-opacity:1;stroke:#601136;stroke-width:1;stroke-linecap:round;stroke-opacity:1"
           d="m 8.5,8.5 v -4 a 4,4 90 0 1 4,-4 h 4 10 30 4 a 4,4 90 0 1 4,4 v 4 h -4 v -3 h -4 v 10 h 4 v -3 h 4 v 17 h -4 v -3 h -4 v 10 h 4 v -3 h 4 v 4 a 4,4 90 0 1 -4,4 h -4 -30 -10 -4 a 4,4 90 0 1 -4,-4 v -4 -21 -1 h -6 v 3 h -2 v -8 h 2 v 3 h 6 z"
           inkscape:connector-curvature="0" />
        <text
           id="text30"
           style="font-size:14px;font-family:sans-serif;text-anchor:end;fill:#000000">
          <tspan
             id="tspan28"
             y="23.799999"
             x="54.333332">/</tspan>
        </text>
        <text
           id="text34"
           style="font-size:9.33333302px;font-family:sans-serif;text-anchor:end;fill:#000000">
          <tspan
             id="tspan32"
             y="10.75"
             x="54.333332" />
        </text>
        <text
           id="text38"
           style="font-size:9.33333302px;font-family:sans-serif;text-anchor:end;fill:#000000">
          <tspan
             id="tspan36"
             y="31.75"
             x="54.333332" />
        </text>
      </g>
    </g>
    <g
       id="g52"
       transform="translate(947.22119,106.5)">
      <g
         id="g50"
         transform="scale(1.5)">
        <path
           id="path44"
           style="fill:#ffb2bc;fill-opacity:1;stroke:#601136;stroke-width:1;stroke-linecap:round;stroke-opacity:1"
           d="m 8.5,0.5 h 60 v 20 h -60 v -8 -1 h -6 v 3 h -2 v -8 h 2 v 3 h 6 v -1 z"
           inkscape:connector-curvature="0" />
        <text
           id="text48"
           style="font-size:10px;font-family:sans-serif;text-anchor:start;fill:#000000">
          <tspan
             id="tspan46"
             y="13.833333"
             x="13.333333">1</tspan>
        </text>
      </g>
    </g>
    <g
       id="g62"
       transform="translate(947.22119,138)">
      <g
         id="g60"
         transform="scale(1.5)">
        <path
           id="path54"
           style="fill:#ffb2bc;fill-opacity:1;stroke:#601136;stroke-width:1;stroke-linecap:round;stroke-opacity:1"
           d="m 8.5,0.5 h 60 v 20 h -60 v -8 -1 h -6 v 3 h -2 v -8 h 2 v 3 h 6 v -1 z"
           inkscape:connector-curvature="0" />
        <text
           id="text58"
           style="font-size:10px;font-family:sans-serif;text-anchor:start;fill:#000000">
          <tspan
             id="tspan56"
             y="13.833333"
             x="13.333333">8</tspan>
        </text>
      </g>
    </g>
    <g
       id="g72"
       transform="translate(779,138)">
      <g
         id="g70"
         transform="scale(1.5)">
        <path
           id="path64"
           style="fill:#d57e6f;fill-opacity:1;stroke:#000000;stroke-width:1;stroke-linecap:round;stroke-opacity:1"
           d="m 0.5,8.5 v -4 a 4,4 90 0 1 4,-4 h 4 v 2 h 10 v -2 h 20 4 a 4,4 90 0 1 4,4 v 4 4 4 a 4,4 90 0 1 -4,4 h -4 -20 -1 v 2 h -8 v -2 h -1 -4 a 4,4 90 0 1 -4,-4 v -4 z"
           inkscape:connector-curvature="0" />
        <text
           id="text68"
           style="font-size:10px;font-family:sans-serif;text-anchor:end;fill:#000000">
          <tspan
             id="tspan66"
             y="13.5"
             x="36.333332">↓</tspan>
        </text>
      </g>
    </g>
    <g
       id="g90"
       transform="translate(779,169.5)">
      <g
         id="g88"
         transform="scale(1.5)">
        <path
           id="path74"
           style="fill:#93e042;fill-opacity:1;stroke:#004000;stroke-width:1;stroke-linecap:round;stroke-opacity:1"
           d="m 0.5,8.5 v -4 a 4,4 90 0 1 4,-4 h 4 v 2 h 10 v -2 h 30 4 a 4,4 90 0 1 4,4 v 4 h -4 v -3 h -4 v 10 h 4 v -3 h 4 v 17 h -4 v -3 h -4 v 10 h 4 v -3 h 4 v 4 a 4,4 90 0 1 -4,4 h -4 -30 -1 v 2 h -8 v -2 h -1 -4 a 4,4 90 0 1 -4,-4 v -4 -21 z"
           inkscape:connector-curvature="0" />
        <text
           id="text78"
           style="font-size:10px;font-family:sans-serif;text-anchor:end;fill:#000000">
          <tspan
             id="tspan76"
             y="24"
             x="46.333332">pitch</tspan>
        </text>
        <text
           id="text82"
           style="font-size:6.66666651px;font-family:sans-serif;text-anchor:end;fill:#000000">
          <tspan
             id="tspan80"
             y="11.25"
             x="46.333332">name</tspan>
        </text>
        <text
           id="text86"
           style="font-size:6.66666651px;font-family:sans-serif;text-anchor:end;fill:#000000">
          <tspan
             id="tspan84"
             y="32.25"
             x="46.333332">octave</tspan>
        </text>
      </g>
    </g>
    <g
       id="g100"
       transform="translate(852.5,169.5)">
      <g
         id="g98"
         transform="scale(1.5)">
        <path
           id="path92"
           style="fill:#93e042;fill-opacity:1;stroke:#004000;stroke-width:1;stroke-linecap:round;stroke-opacity:1"
           d="m 8.5,0.5 h 60 v 20 h -60 v -8 -1 h -6 v 3 h -2 v -8 h 2 v 3 h 6 v -1 z"
           inkscape:connector-curvature="0" />
        <text
           id="text96"
           style="font-size:10px;font-family:sans-serif;text-anchor:start;fill:#000000">
          <tspan
             id="tspan94"
             y="13.833333"
             x="13.333333">la</tspan>
        </text>
      </g>
    </g>
    <g
       id="g110"
       transform="translate(852.5,201)">
      <g
         id="g108"
         transform="scale(1.5)">
        <path
           id="path102"
           style="fill:#ffb2bc;fill-opacity:1;stroke:#601136;stroke-width:1;stroke-linecap:round;stroke-opacity:1"
           d="m 8.5,0.5 h 60 v 20 h -60 v -8 -1 h -6 v 3 h -2 v -8 h 2 v 3 h 6 v -1 z"
           inkscape:connector-curvature="0" />
        <text
           id="text106"
           style="font-size:10px;font-family:sans-serif;text-anchor:start;fill:#000000">
          <tspan
             id="tspan104"
             y="13.833333"
             x="13.333333">4</tspan>
        </text>
      </g>
    </g>
  </g>
  <g
     id="g1277"
     transform="translate(-767.5,-106.5)">
    <g
       id="g124"
       transform="translate(767.5,293)">
      <g
         id="g122"
         transform="scale(1.5)">
        <path
           id="path112"
           style="fill:#ff8b2d;fill-opacity:1;stroke:#520000;stroke-width:1;stroke-linecap:round;stroke-opacity:1"
           d="m 0.5,8.5 v -4 a 4,4 90 0 1 4,-4 h 4 v 2 h 10 v -2 h 9 36.147461 4 a 4,4 90 0 1 4,4 v 4 h -4 v -3 h -4 v 10 h 4 v -3 h 4 v 4 a 4,4 90 0 1 -4,4 h -4 H 27.5 h -1 v 2 h -8 v -2 h -1 -4 a 5,5 90 0 0 -5,5 v 4 4 42 4 a 5,5 90 0 0 5,5 h 4 v 2 h 10 v -2 h 8 v 6 6 4 a 4,4 90 0 1 -4,4 h -4 -9 -1 v 2 h -8 v -2 h -1 -4 a 4,4 90 0 1 -4,-4 v -4 z"
           inkscape:connector-curvature="0" />
        <text
           id="text116"
           style="font-size:10px;font-family:sans-serif;text-anchor:start;fill:#000000">
          <tspan
             id="tspan114"
             y="15.25"
             x="5.3333335">note value</tspan>
        </text>
        <text
           id="text120"
           style="font-size:6.66666651px;font-family:sans-serif;text-anchor:end;fill:#000000">
          <tspan
             id="tspan118"
             y="11.25"
             x="61.480793" />
        </text>
      </g>
    </g>
    <g
       id="g142"
       transform="translate(863.72119,293)">
      <g
         id="g140"
         transform="scale(1.5)">
        <path
           id="path126"
           style="fill:#ffb2bc;fill-opacity:1;stroke:#601136;stroke-width:1;stroke-linecap:round;stroke-opacity:1"
           d="m 8.5,8.5 v -4 a 4,4 90 0 1 4,-4 h 4 10 30 4 a 4,4 90 0 1 4,4 v 4 h -4 v -3 h -4 v 10 h 4 v -3 h 4 v 17 h -4 v -3 h -4 v 10 h 4 v -3 h 4 v 4 a 4,4 90 0 1 -4,4 h -4 -30 -10 -4 a 4,4 90 0 1 -4,-4 v -4 -21 -1 h -6 v 3 h -2 v -8 h 2 v 3 h 6 z"
           inkscape:connector-curvature="0" />
        <text
           id="text130"
           style="font-size:14px;font-family:sans-serif;text-anchor:end;fill:#000000">
          <tspan
             id="tspan128"
             y="23.799999"
             x="54.333332">/</tspan>
        </text>
        <text
           id="text134"
           style="font-size:9.33333302px;font-family:sans-serif;text-anchor:end;fill:#000000">
          <tspan
             id="tspan132"
             y="10.75"
             x="54.333332" />
        </text>
        <text
           id="text138"
           style="font-size:9.33333302px;font-family:sans-serif;text-anchor:end;fill:#000000">
          <tspan
             id="tspan136"
             y="31.75"
             x="54.333332" />
        </text>
      </g>
    </g>
    <g
       id="g152"
       transform="translate(949.22119,293)">
      <g
         id="g150"
         transform="scale(1.5)">
        <path
           id="path144"
           style="fill:#ffb2bc;fill-opacity:1;stroke:#601136;stroke-width:1;stroke-linecap:round;stroke-opacity:1"
           d="m 8.5,0.5 h 60 v 20 h -60 v -8 -1 h -6 v 3 h -2 v -8 h 2 v 3 h 6 v -1 z"
           inkscape:connector-curvature="0" />
        <text
           id="text148"
           style="font-size:10px;font-family:sans-serif;text-anchor:start;fill:#000000">
          <tspan
             id="tspan146"
             y="13.833333"
             x="13.333333">1</tspan>
        </text>
      </g>
    </g>
    <g
       id="g162"
       transform="translate(949.22119,324.5)">
      <g
         id="g160"
         transform="scale(1.5)">
        <path
           id="path154"
           style="fill:#ffb2bc;fill-opacity:1;stroke:#601136;stroke-width:1;stroke-linecap:round;stroke-opacity:1"
           d="m 8.5,0.5 h 60 v 20 h -60 v -8 -1 h -6 v 3 h -2 v -8 h 2 v 3 h 6 v -1 z"
           inkscape:connector-curvature="0" />
        <text
           id="text158"
           style="font-size:10px;font-family:sans-serif;text-anchor:start;fill:#000000">
          <tspan
             id="tspan156"
             y="13.833333"
             x="13.333333">8</tspan>
        </text>
      </g>
    </g>
    <g
       id="g172"
       transform="translate(781,324.5)">
      <g
         id="g170"
         transform="scale(1.5)">
        <path
           id="path164"
           style="fill:#d57e6f;fill-opacity:1;stroke:#000000;stroke-width:1;stroke-linecap:round;stroke-opacity:1"
           d="m 0.5,8.5 v -4 a 4,4 90 0 1 4,-4 h 4 v 2 h 10 v -2 h 20 4 a 4,4 90 0 1 4,4 v 4 4 4 a 4,4 90 0 1 -4,4 h -4 -20 -1 v 2 h -8 v -2 h -1 -4 a 4,4 90 0 1 -4,-4 v -4 z"
           inkscape:connector-curvature="0" />
        <text
           id="text168"
           style="font-size:10px;font-family:sans-serif;text-anchor:end;fill:#000000">
          <tspan
             id="tspan166"
             y="13.5"
             x="36.333332">↓</tspan>
        </text>
      </g>
    </g>
    <g
       id="g190"
       transform="translate(781,356)">
      <g
         id="g188"
         transform="scale(1.5)">
        <path
           id="path174"
           style="fill:#93e042;fill-opacity:1;stroke:#004000;stroke-width:1;stroke-linecap:round;stroke-opacity:1"
           d="m 0.5,8.5 v -4 a 4,4 90 0 1 4,-4 h 4 v 2 h 10 v -2 h 30 4 a 4,4 90 0 1 4,4 v 4 h -4 v -3 h -4 v 10 h 4 v -3 h 4 v 17 h -4 v -3 h -4 v 10 h 4 v -3 h 4 v 4 a 4,4 90 0 1 -4,4 h -4 -30 -1 v 2 h -8 v -2 h -1 -4 a 4,4 90 0 1 -4,-4 v -4 -21 z"
           inkscape:connector-curvature="0" />
        <text
           id="text178"
           style="font-size:10px;font-family:sans-serif;text-anchor:end;fill:#000000">
          <tspan
             id="tspan176"
             y="24"
             x="46.333332">pitch</tspan>
        </text>
        <text
           id="text182"
           style="font-size:6.66666651px;font-family:sans-serif;text-anchor:end;fill:#000000">
          <tspan
             id="tspan180"
             y="11.25"
             x="46.333332">name</tspan>
        </text>
        <text
           id="text186"
           style="font-size:6.66666651px;font-family:sans-serif;text-anchor:end;fill:#000000">
          <tspan
             id="tspan184"
             y="32.25"
             x="46.333332">octave</tspan>
        </text>
      </g>
    </g>
    <g
       id="g200"
       transform="translate(854.5,356)">
      <g
         id="g198"
         transform="scale(1.5)">
        <path
           id="path192"
           style="fill:#93e042;fill-opacity:1;stroke:#004000;stroke-width:1;stroke-linecap:round;stroke-opacity:1"
           d="m 8.5,0.5 h 60 v 20 h -60 v -8 -1 h -6 v 3 h -2 v -8 h 2 v 3 h 6 v -1 z"
           inkscape:connector-curvature="0" />
        <text
           id="text196"
           style="font-size:10px;font-family:sans-serif;text-anchor:start;fill:#000000">
          <tspan
             id="tspan194"
             y="13.833333"
             x="13.333333">mi</tspan>
        </text>
      </g>
    </g>
    <g
       id="g210"
       transform="translate(854.5,387.5)">
      <g
         id="g208"
         transform="scale(1.5)">
        <path
           id="path202"
           style="fill:#ffb2bc;fill-opacity:1;stroke:#601136;stroke-width:1;stroke-linecap:round;stroke-opacity:1"
           d="m 8.5,0.5 h 60 v 20 h -60 v -8 -1 h -6 v 3 h -2 v -8 h 2 v 3 h 6 v -1 z"
           inkscape:connector-curvature="0" />
        <text
           id="text206"
           style="font-size:10px;font-family:sans-serif;text-anchor:start;fill:#000000">
          <tspan
             id="tspan204"
             y="13.833333"
             x="13.333333">4</tspan>
        </text>
      </g>
    </g>
    <g
       id="g224"
       transform="translate(767.5,450.5)">
      <g
         id="g222"
         transform="scale(1.5)">
        <path
           id="path212"
           style="fill:#ff8b2d;fill-opacity:1;stroke:#520000;stroke-width:1;stroke-linecap:round;stroke-opacity:1"
           d="m 0.5,8.5 v -4 a 4,4 90 0 1 4,-4 h 4 v 2 h 10 v -2 h 9 36.147461 4 a 4,4 90 0 1 4,4 v 4 h -4 v -3 h -4 v 10 h 4 v -3 h 4 v 4 a 4,4 90 0 1 -4,4 h -4 H 27.5 h -1 v 2 h -8 v -2 h -1 -4 a 5,5 90 0 0 -5,5 v 4 4 42 4 a 5,5 90 0 0 5,5 h 4 v 2 h 10 v -2 h 8 v 6 6 4 a 4,4 90 0 1 -4,4 h -4 -9 -1 v 2 h -8 v -2 h -1 -4 a 4,4 90 0 1 -4,-4 v -4 z"
           inkscape:connector-curvature="0" />
        <text
           id="text216"
           style="font-size:10px;font-family:sans-serif;text-anchor:start;fill:#000000">
          <tspan
             id="tspan214"
             y="15.25"
             x="5.3333335">note value</tspan>
        </text>
        <text
           id="text220"
           style="font-size:6.66666651px;font-family:sans-serif;text-anchor:end;fill:#000000">
          <tspan
             id="tspan218"
             y="11.25"
             x="61.480793" />
        </text>
      </g>
    </g>
    <g
       id="g242"
       transform="translate(863.72119,450.5)">
      <g
         id="g240"
         transform="scale(1.5)">
        <path
           id="path226"
           style="fill:#ffb2bc;fill-opacity:1;stroke:#601136;stroke-width:1;stroke-linecap:round;stroke-opacity:1"
           d="m 8.5,8.5 v -4 a 4,4 90 0 1 4,-4 h 4 10 30 4 a 4,4 90 0 1 4,4 v 4 h -4 v -3 h -4 v 10 h 4 v -3 h 4 v 17 h -4 v -3 h -4 v 10 h 4 v -3 h 4 v 4 a 4,4 90 0 1 -4,4 h -4 -30 -10 -4 a 4,4 90 0 1 -4,-4 v -4 -21 -1 h -6 v 3 h -2 v -8 h 2 v 3 h 6 z"
           inkscape:connector-curvature="0" />
        <text
           id="text230"
           style="font-size:14px;font-family:sans-serif;text-anchor:end;fill:#000000">
          <tspan
             id="tspan228"
             y="23.799999"
             x="54.333332">/</tspan>
        </text>
        <text
           id="text234"
           style="font-size:9.33333302px;font-family:sans-serif;text-anchor:end;fill:#000000">
          <tspan
             id="tspan232"
             y="10.75"
             x="54.333332" />
        </text>
        <text
           id="text238"
           style="font-size:9.33333302px;font-family:sans-serif;text-anchor:end;fill:#000000">
          <tspan
             id="tspan236"
             y="31.75"
             x="54.333332" />
        </text>
      </g>
    </g>
    <g
       id="g252"
       transform="translate(949.22119,450.5)">
      <g
         id="g250"
         transform="scale(1.5)">
        <path
           id="path244"
           style="fill:#ffb2bc;fill-opacity:1;stroke:#601136;stroke-width:1;stroke-linecap:round;stroke-opacity:1"
           d="m 8.5,0.5 h 60 v 20 h -60 v -8 -1 h -6 v 3 h -2 v -8 h 2 v 3 h 6 v -1 z"
           inkscape:connector-curvature="0" />
        <text
           id="text248"
           style="font-size:10px;font-family:sans-serif;text-anchor:start;fill:#000000">
          <tspan
             id="tspan246"
             y="13.833333"
             x="13.333333">1</tspan>
        </text>
      </g>
    </g>
    <g
       id="g262"
       transform="translate(949.22119,482)">
      <g
         id="g260"
         transform="scale(1.5)">
        <path
           id="path254"
           style="fill:#ffb2bc;fill-opacity:1;stroke:#601136;stroke-width:1;stroke-linecap:round;stroke-opacity:1"
           d="m 8.5,0.5 h 60 v 20 h -60 v -8 -1 h -6 v 3 h -2 v -8 h 2 v 3 h 6 v -1 z"
           inkscape:connector-curvature="0" />
        <text
           id="text258"
           style="font-size:10px;font-family:sans-serif;text-anchor:start;fill:#000000">
          <tspan
             id="tspan256"
             y="13.833333"
             x="13.333333">8</tspan>
        </text>
      </g>
    </g>
    <g
       id="g272"
       transform="translate(781,482)">
      <g
         id="g270"
         transform="scale(1.5)">
        <path
           id="path264"
           style="fill:#d57e6f;fill-opacity:1;stroke:#000000;stroke-width:1;stroke-linecap:round;stroke-opacity:1"
           d="m 0.5,8.5 v -4 a 4,4 90 0 1 4,-4 h 4 v 2 h 10 v -2 h 20 4 a 4,4 90 0 1 4,4 v 4 4 4 a 4,4 90 0 1 -4,4 h -4 -20 -1 v 2 h -8 v -2 h -1 -4 a 4,4 90 0 1 -4,-4 v -4 z"
           inkscape:connector-curvature="0" />
        <text
           id="text268"
           style="font-size:10px;font-family:sans-serif;text-anchor:end;fill:#000000">
          <tspan
             id="tspan266"
             y="13.5"
             x="36.333332">↓</tspan>
        </text>
      </g>
    </g>
    <g
       id="g290"
       transform="translate(781,513.5)">
      <g
         id="g288"
         transform="scale(1.5)">
        <path
           id="path274"
           style="fill:#93e042;fill-opacity:1;stroke:#004000;stroke-width:1;stroke-linecap:round;stroke-opacity:1"
           d="m 0.5,8.5 v -4 a 4,4 90 0 1 4,-4 h 4 v 2 h 10 v -2 h 30 4 a 4,4 90 0 1 4,4 v 4 h -4 v -3 h -4 v 10 h 4 v -3 h 4 v 17 h -4 v -3 h -4 v 10 h 4 v -3 h 4 v 4 a 4,4 90 0 1 -4,4 h -4 -30 -1 v 2 h -8 v -2 h -1 -4 a 4,4 90 0 1 -4,-4 v -4 -21 z"
           inkscape:connector-curvature="0" />
        <text
           id="text278"
           style="font-size:10px;font-family:sans-serif;text-anchor:end;fill:#000000">
          <tspan
             id="tspan276"
             y="24"
             x="46.333332">pitch</tspan>
        </text>
        <text
           id="text282"
           style="font-size:6.66666651px;font-family:sans-serif;text-anchor:end;fill:#000000">
          <tspan
             id="tspan280"
             y="11.25"
             x="46.333332">name</tspan>
        </text>
        <text
           id="text286"
           style="font-size:6.66666651px;font-family:sans-serif;text-anchor:end;fill:#000000">
          <tspan
             id="tspan284"
             y="32.25"
             x="46.333332">octave</tspan>
        </text>
      </g>
    </g>
    <g
       id="g300"
       transform="translate(854.5,513.5)">
      <g
         id="g298"
         transform="scale(1.5)">
        <path
           id="path292"
           style="fill:#93e042;fill-opacity:1;stroke:#004000;stroke-width:1;stroke-linecap:round;stroke-opacity:1"
           d="m 8.5,0.5 h 60 v 20 h -60 v -8 -1 h -6 v 3 h -2 v -8 h 2 v 3 h 6 v -1 z"
           inkscape:connector-curvature="0" />
        <text
           id="text296"
           style="font-size:10px;font-family:sans-serif;text-anchor:start;fill:#000000">
          <tspan
             id="tspan294"
             y="13.833333"
             x="13.333333">sol</tspan>
        </text>
      </g>
    </g>
    <g
       id="g310"
       transform="translate(854.5,545)">
      <g
         id="g308"
         transform="scale(1.5)">
        <path
           id="path302"
           style="fill:#ffb2bc;fill-opacity:1;stroke:#601136;stroke-width:1;stroke-linecap:round;stroke-opacity:1"
           d="m 8.5,0.5 h 60 v 20 h -60 v -8 -1 h -6 v 3 h -2 v -8 h 2 v 3 h 6 v -1 z"
           inkscape:connector-curvature="0" />
        <text
           id="text306"
           style="font-size:10px;font-family:sans-serif;text-anchor:start;fill:#000000">
          <tspan
             id="tspan304"
             y="13.833333"
             x="13.333333">4</tspan>
        </text>
      </g>
    </g>
  </g>
</svg>
