<?xml version="1.0" encoding="UTF-8" standalone="no"?>
<svg
   xmlns:dc="http://purl.org/dc/elements/1.1/"
   xmlns:cc="http://creativecommons.org/ns#"
   xmlns:rdf="http://www.w3.org/1999/02/22-rdf-syntax-ns#"
   xmlns:svg="http://www.w3.org/2000/svg"
   xmlns="http://www.w3.org/2000/svg"
   width="103.85779mm"
   height="48.542229mm"
   viewBox="0 0 368.00003 172.00002"
   id="svg4075"
   version="1.1">
  <defs
     id="defs4077" />
  <metadata
     id="metadata4080">
    <rdf:RDF>
      <cc:Work
         rdf:about="">
        <dc:format>image/svg+xml</dc:format>
        <dc:type
           rdf:resource="http://purl.org/dc/dcmitype/StillImage" />
        <dc:title></dc:title>
      </cc:Work>
    </rdf:RDF>
  </metadata>
  <path
     d="m 19,101.00001 0,-8 c 0,-4.41828 3.58172,-8 8,-8 l 8,0 0,4 20,0 0,-4 60,0 8,0 c 4.41828,0 8,3.58172 8,8 l 0,8 -8,0 0,-6 -8,0 0,20 8,0 0,-6 8,0 0,8 c 0,4.41828 -3.58172,8 -8,8 l -8,0 -60,0 -2,0 0,4 -16,0 0,-4 -2,0 -8,0 c -4.41828,0 -8,-3.58172 -8,-8 l 0,-8 0,0 z"
     id="path3194"
     style="fill:#76C61C;fill-opacity:1;stroke:#538D38;stroke-width:2;stroke-linecap:round;stroke-opacity:1" />
  <text
     y="64.000008"
     x="18.00001"
     id="text3196"
     style="font-size:20px;font-family:Sans;text-anchor:end;fill:#000000">
    <tspan
       x="112.00001"
       y="113"
       id="tspan3198">ハーツ</tspan>
  </text>
  <g
     id="g3710"
     transform="translate(-165.83636,138.82425)">
    <path
       style="fill:#EE97A8;fill-opacity:1;stroke:#A75862;stroke-width:2;stroke-linecap:round;stroke-opacity:1"
       id="path21-6"
       d="m 298.83636,-53.824242 120,0 0,40 -120,0 0,-16 0,-2 -12,0 0,6 -4,0 0,-16 4,0 0,6 12,0 0,-2 z" />
    <text
       y="-54.824242"
       x="319.83636"
       style="font-size:20px;font-family:Sans;text-anchor:start;fill:#000000"
       id="text23-9">
      <tspan
         id="tspan25-8"
         y="-28.824242"
         x="339.83636">373</tspan>
    </text>
  </g>
  <path
     d="m 1,17.00001 0,-8 c 0,-4.41828 3.58173,-8 8.00001,-8 l 8,0 0,4 20,0 0,-4 18,0 59.99999,0 8.00002,0 c 4.41827,0 9.07158,3.71364 8,8 l 0,8 -8,0 0,-6 -8.00002,0 0,20 8.00002,0 0,-6 8,0 0,8 c 0,4.41828 -3.58173,8 -8,8 l -8.00002,0 -59.99999,0 -2,0 0,4 -16,0 0,-4 -2,0 -8,0 c -5.52285,0 -10,4.47715 -10,10 l 0,8 0,50.00001 0,7.99999 c 0,5.52285 4.64205,11.3395 10,10 l 8,0 0,4 20,0 0,-4 16,0 0,12 0,12 0,8 c 0,4.41828 -3.71364,9.07161 -8,8.00001 l -8,0 -18,0 -2,0 0,4 -16,0 0,-4 -2,0 -8,0 C 4.58173,167.00002 1,163.41829 1,159.00001 l 0,-8 z"
     id="path3035-5"
     style="fill:#F2740B;fill-opacity:1;stroke:#A86129;stroke-width:2;stroke-linecap:round;stroke-opacity:1" />
  <text
     id="text3037-3"
     style="font-size:20px;font-family:Sans;text-anchor:start;fill:#000000"
     y="-2.0000205"
     x="-1.9999794">
    <tspan
       x="6.0000205"
       y="28.499979"
       id="tspan3039-5">音価</tspan>
  </text>
  <path
     d="m 247.00002,43.00001 120.00002,0 0,40 -120.00002,0 0,-16 0,-2 -12,0 0,6 -4,0 0,-16 4,0 0,6 12,0 0,-2 z"
     id="path21-6-1-7"
     style="fill:#EE97A8;fill-opacity:1;stroke:#A75862;stroke-width:2;stroke-linecap:round;stroke-opacity:1" />
  <text
     id="text23-9-82-9"
     style="font-size:20px;font-family:Sans;text-anchor:start;fill:#000000"
     x="277.99997"
     y="41.999981">
    <tspan
       x="297.99997"
       y="67.999977"
       id="tspan25-8-5-2">8</tspan>
  </text>
  <path
     d="m 133.00002,17.00001 0,-8 a 8.0000007,8.0000006 0 0 1 8,-8 l 8,0 20,0 60,0 8,0 a 8.0000007,8.0000006 0 0 1 8,8 l 0,8 -8,0 0,-6 -8,0 0,20 8,0 0,-6 8,0 0,34 -8,0 0,-6 -8,0 0,20 8,0 0,-6 8,0 0,8 a 8.0000007,8.0000006 0 0 1 -8,8 l -8,0 -60,0 -20,0 -8,0 a 8.0000007,8.0000006 0 0 1 -8,-8 l 0,-8 0,-42 0,-2 -12,0 0,6 -4.00002,0 0,-16 4.00002,0 0,6 12,0 0,-2 z"
     id="path3798-4-4-5"
     style="fill:#EE97A8;fill-opacity:1;stroke:#A75862;stroke-width:2;stroke-linecap:round;stroke-opacity:1" />
  <text
     y="-2.0517578e-05"
     id="text3800-3-2-0"
     style="font-size:28px;font-family:sans-serif;text-anchor:end;fill:#000000"
     x="108.00005">
    <tspan
       x="218.00002"
       y="48.999981"
       id="tspan3802-6-2-5">/</tspan>
  </text>
  <g
     transform="translate(0,-42)"
     id="g5147">
    <path
       style="fill:#EE97A8;fill-opacity:1;stroke:#A75862;stroke-width:2;stroke-linecap:round;stroke-opacity:1"
       id="path21-8-2-1-0-6"
       d="m 247,43 120,0 0,40 -120,0 0,-16 0,-2 -12,0 0,6 -4,0 0,-16 4,0 0,6 12,0 0,-2 z" />
    <text
       style="font-size:20px;font-family:Sans;text-anchor:start;fill:#000000"
       id="text23-0-1-0-1-0"
       y="44"
       x="279">
      <tspan
         id="tspan25-7-0-5-2-5"
         y="70.000031"
         x="299">1</tspan>
    </text>
  </g>
  <path
     style="fill:#BE6152;fill-opacity:1;stroke:#923111;stroke-width:2;stroke-linecap:round;stroke-opacity:1"
     id="path3124"
     d="m 19.00001,59.00001 0,-8 c 0,-4.41828 3.58172,-8 8,-8 l 8,0 0,4 20,0 0,-4 59.99999,0 8.00002,0 c 4.41827,0 8,3.58172 8,8 l 0,8 0,8 0,8 c 0,4.41828 -3.71365,6.92841 -8,8 l -8.00002,0 -59.99999,0 -2,0 0,4 -16,0 0,-4 -2,0 -8,0 c -4.41828,0 -8,-3.58172 -8,-8 l 0,-8 0,0 z" />
  <text
     id="text6137"
     y="69.923119"
     x="100.82305"
     style="font-style:normal;font-weight:normal;font-size:16px;line-height:125%;font-family:sans-serif;text-align:center;letter-spacing:0px;word-spacing:0px;text-anchor:middle;fill:#000000;fill-opacity:1;stroke:none;stroke-width:1px;stroke-linecap:butt;stroke-linejoin:miter;stroke-opacity:1"
     xml:space="preserve"><tspan
       style="font-size:22.5px"
       y="69.923119"
       x="100.82305"
       id="tspan6139">↓</tspan></text>
</svg>
