<?xml version="1.0" encoding="UTF-8" standalone="no"?>
<svg
   xmlns:dc="http://purl.org/dc/elements/1.1/"
   xmlns:cc="http://creativecommons.org/ns#"
   xmlns:rdf="http://www.w3.org/1999/02/22-rdf-syntax-ns#"
   xmlns:svg="http://www.w3.org/2000/svg"
   xmlns="http://www.w3.org/2000/svg"
   xmlns:sodipodi="http://sodipodi.sourceforge.net/DTD/sodipodi-0.dtd"
   xmlns:inkscape="http://www.inkscape.org/namespaces/inkscape"
   width="909.90088"
   height="497.34308"
   version="1.1"
   id="svg4346"
   sodipodi:docname="voices3.svg"
   inkscape:version="0.92.2 (5c3e80d, 2017-08-06)">
  <metadata
     id="metadata4352">
    <rdf:RDF>
      <cc:Work
         rdf:about="">
        <dc:format>image/svg+xml</dc:format>
        <dc:type
           rdf:resource="http://purl.org/dc/dcmitype/StillImage" />
        <dc:title></dc:title>
      </cc:Work>
    </rdf:RDF>
  </metadata>
  <defs
     id="defs4350" />
  <sodipodi:namedview
     pagecolor="#ffffff"
     bordercolor="#666666"
     borderopacity="1"
     objecttolerance="10"
     gridtolerance="10"
     guidetolerance="10"
     inkscape:pageopacity="0"
     inkscape:pageshadow="2"
     inkscape:window-width="695"
     inkscape:window-height="480"
     id="namedview4348"
     showgrid="false"
     inkscape:zoom="0.2079063"
     inkscape:cx="577"
     inkscape:cy="244.92154"
     inkscape:window-x="0"
     inkscape:window-y="282"
     inkscape:window-maximized="0"
     inkscape:current-layer="svg4346" />
  <g
     transform="translate(0.33333,0.42153745)"
     id="g3938">
    <g
       transform="scale(1.5)"
       id="g3936">
      <path
         d="m 0.5,14.5 v -4 a 4,4 90 0 1 4,-4 h 4 l 5,-6 5,6 h 9 30 4 a 4,4 90 0 1 4,4 v 4 4 4 a 4,4 90 0 1 -4,4 h -4 -30 -1 v 2 h -8 v -2 h -1 -4 a 5,5 90 0 0 -5,5 v 4 4 42 4 a 5,5 90 0 0 5,5 h 4 v 2 h 10 v -2 h 8 v 6 6 4 a 4,4 90 0 1 -4,4 h -4 -9 l -5,6 -5,-6 h -4 a 4,4 90 0 1 -4,-4 v -4 z"
         style="fill:#ffe05c;fill-opacity:1;stroke:#644300;stroke-width:1;stroke-linecap:round;stroke-opacity:1"
         id="path3930"
         inkscape:connector-curvature="0" />
      <text
         style="font-size:10px;font-family:sans-serif;text-anchor:start;fill:#000000"
         id="text3934">
        <tspan
           x="5.3333335"
           y="21.5"
           id="tspan3932">スタート</tspan>
      </text>
    </g>
  </g>
  <g
     transform="translate(0,258.42154)"
     id="g3948">
    <g
       transform="scale(1.5)"
       id="g3946">
      <path
         d="m 0.5,14.5 v -4 a 4,4 90 0 1 4,-4 h 4 l 5,-6 5,6 h 9 30 4 a 4,4 90 0 1 4,4 v 4 4 4 a 4,4 90 0 1 -4,4 h -4 -30 -1 v 2 h -8 v -2 h -1 -4 a 5,5 90 0 0 -5,5 v 4 4 84 4 a 5,5 90 0 0 5,5 h 4 v 2 h 10 v -2 h 8 v 6 6 4 a 4,4 90 0 1 -4,4 h -4 -9 l -5,6 -5,-6 h -4 a 4,4 90 0 1 -4,-4 v -4 z"
         style="fill:#ffe05c;fill-opacity:1;stroke:#644300;stroke-width:1;stroke-linecap:round;stroke-opacity:1"
         id="path3940"
         inkscape:connector-curvature="0" />
      <text
         style="font-size:10px;font-family:sans-serif;text-anchor:start;fill:#000000"
         id="text3944">
        <tspan
           x="5.3333335"
           y="21.5"
           id="tspan3942">スタート</tspan>
      </text>
    </g>
  </g>
  <g
     transform="translate(458,256.42154)"
     id="g3958">
    <g
       transform="scale(1.5)"
       id="g3956">
      <path
         d="m 0.5,14.5 v -4 a 4,4 90 0 1 4,-4 h 4 l 5,-6 5,6 h 9 30 4 a 4,4 90 0 1 4,4 v 4 4 4 a 4,4 90 0 1 -4,4 h -4 -30 -1 v 2 h -8 v -2 h -1 -4 a 5,5 90 0 0 -5,5 v 4 4 84 4 a 5,5 90 0 0 5,5 h 4 v 2 h 10 v -2 h 8 v 6 6 4 a 4,4 90 0 1 -4,4 h -4 -9 l -5,6 -5,-6 h -4 a 4,4 90 0 1 -4,-4 v -4 z"
         style="fill:#ffe05c;fill-opacity:1;stroke:#644300;stroke-width:1;stroke-linecap:round;stroke-opacity:1"
         id="path3950"
         inkscape:connector-curvature="0" />
      <text
         style="font-size:10px;font-family:sans-serif;text-anchor:start;fill:#000000"
         id="text3954">
        <tspan
           x="5.3333335"
           y="21.5"
           id="tspan3952">スタート</tspan>
      </text>
    </g>
  </g>
  <g
     transform="translate(459,3.4215375)"
     id="g3968">
    <g
       transform="scale(1.5)"
       id="g3966">
      <path
         d="m 0.5,14.5 v -4 a 4,4 90 0 1 4,-4 h 4 l 5,-6 5,6 h 9 30 4 a 4,4 90 0 1 4,4 v 4 4 4 a 4,4 90 0 1 -4,4 h -4 -30 -1 v 2 h -8 v -2 h -1 -4 a 5,5 90 0 0 -5,5 v 4 4 84 4 a 5,5 90 0 0 5,5 h 4 v 2 h 10 v -2 h 8 v 6 6 4 a 4,4 90 0 1 -4,4 h -4 -9 l -5,6 -5,-6 h -4 a 4,4 90 0 1 -4,-4 v -4 z"
         style="fill:#ffe05c;fill-opacity:1;stroke:#644300;stroke-width:1;stroke-linecap:round;stroke-opacity:1"
         id="path3960"
         inkscape:connector-curvature="0" />
      <text
         style="font-size:10px;font-family:sans-serif;text-anchor:start;fill:#000000"
         id="text3964">
        <tspan
           x="5.3333335"
           y="21.5"
           id="tspan3962">スタート</tspan>
      </text>
    </g>
  </g>
  <g
     transform="translate(13.83333,40.921537)"
     id="g3982">
    <g
       transform="scale(1.5)"
       id="g3980">
      <path
         d="m 0.5,8.5 v -4 a 4,4 90 0 1 4,-4 h 4 v 2 h 10 v -2 h 9 20 4 a 4,4 90 0 1 4,4 v 4 h -4 v -3 h -4 v 10 h 4 v -3 h 4 v 4 a 4,4 90 0 1 -4,4 h -4 -20 -1 v 2 h -8 v -2 h -1 -4 a 5,5 90 0 0 -5,5 v 4 4 4 a 5,5 90 0 0 5,5 h 4 v 2 h 10 v -2 h 8 v 6 6 4 a 4,4 90 0 1 -4,4 h -4 -9 -1 v 2 h -8 v -2 h -1 -4 a 4,4 90 0 1 -4,-4 v -4 z"
         style="fill:#e9a066;fill-opacity:1;stroke:#3f0a00;stroke-width:1;stroke-linecap:round;stroke-opacity:1"
         id="path3970"
         inkscape:connector-curvature="0" />
      <text
         style="font-size:10px;font-family:sans-serif;text-anchor:start;fill:#000000"
         id="text3974">
        <tspan
           x="5.3333335"
           y="15.25"
           id="tspan3972">回繰り返す</tspan>
      </text>
      <text
         style="font-size:6.66666651px;font-family:sans-serif;text-anchor:end;fill:#000000"
         id="text3978">
        <tspan
           x="45.333332"
           y="11.25"
           id="tspan3976" />
      </text>
    </g>
  </g>
  <g
     transform="translate(85.83333,40.921537)"
     id="g3992">
    <g
       transform="scale(1.5)"
       id="g3990">
      <path
         d="m 8.5,0.5 h 60 v 20 h -60 v -8 -1 h -6 v 3 h -2 v -8 h 2 v 3 h 6 v -1 z"
         style="fill:#ffb2bc;fill-opacity:1;stroke:#601136;stroke-width:1;stroke-linecap:round;stroke-opacity:1"
         id="path3984"
         inkscape:connector-curvature="0" />
      <text
         style="font-size:10px;font-family:sans-serif;text-anchor:start;fill:#000000"
         id="text3988">
        <tspan
           x="13.333333"
           y="13.833333"
           id="tspan3986">4</tspan>
      </text>
    </g>
  </g>
  <g
     transform="translate(27.33333,72.421537)"
     id="g4002">
    <g
       transform="scale(1.5)"
       id="g4000">
      <path
         d="m 0.5,8.5 v -4 a 4,4 90 0 1 4,-4 h 4 v 2 h 10 v -2 h 40 4 a 4,4 90 0 1 4,4 v 4 4 4 a 4,4 90 0 1 -4,4 h -4 -40 -1 v 2 h -8 v -2 h -1 -4 a 4,4 90 0 1 -4,-4 v -4 z"
         style="fill:#ffe05c;fill-opacity:1;stroke:#644300;stroke-width:1;stroke-linecap:round;stroke-opacity:1"
         id="path3994"
         inkscape:connector-curvature="0" />
      <text
         style="font-size:10px;font-family:sans-serif;text-anchor:end;fill:#000000"
         id="text3998">
        <tspan
           x="56.333332"
           y="13.5"
           id="tspan3996">動作</tspan>
      </text>
    </g>
  </g>
  <g
     transform="translate(499.5,106.92154)"
     id="g4012">
    <g
       transform="scale(1.5)"
       id="g4010">
      <path
         d="m 0.5,8.5 v -4 a 4,4 90 0 1 4,-4 h 4 v 2 h 10 v -2 h 40 4 a 4,4 90 0 1 4,4 v 4 4 4 a 4,4 90 0 1 -4,4 h -4 -40 -1 v 2 h -8 v -2 h -1 -4 a 4,4 90 0 1 -4,-4 v -4 z"
         style="fill:#ffe05c;fill-opacity:1;stroke:#644300;stroke-width:1;stroke-linecap:round;stroke-opacity:1"
         id="path4004"
         inkscape:connector-curvature="0" />
      <text
         style="font-size:10px;font-family:sans-serif;text-anchor:end;fill:#000000"
         id="text4008">
        <tspan
           x="56.333332"
           y="13.5"
           id="tspan4006">動作</tspan>
      </text>
    </g>
  </g>
  <g
     transform="translate(40.5,361.92154)"
     id="g4022">
    <g
       transform="scale(1.5)"
       id="g4020">
      <path
         d="m 0.5,8.5 v -4 a 4,4 90 0 1 4,-4 h 4 v 2 h 10 v -2 h 40 4 a 4,4 90 0 1 4,4 v 4 4 4 a 4,4 90 0 1 -4,4 h -4 -40 -1 v 2 h -8 v -2 h -1 -4 a 4,4 90 0 1 -4,-4 v -4 z"
         style="fill:#ffe05c;fill-opacity:1;stroke:#644300;stroke-width:1;stroke-linecap:round;stroke-opacity:1"
         id="path4014"
         inkscape:connector-curvature="0" />
      <text
         style="font-size:10px;font-family:sans-serif;text-anchor:end;fill:#000000"
         id="text4018">
        <tspan
           x="56.333332"
           y="13.5"
           id="tspan4016">動作</tspan>
      </text>
    </g>
  </g>
  <g
     transform="translate(498.5,359.92154)"
     id="g4032">
    <g
       transform="scale(1.5)"
       id="g4030">
      <path
         d="m 0.5,8.5 v -4 a 4,4 90 0 1 4,-4 h 4 v 2 h 10 v -2 h 40 4 a 4,4 90 0 1 4,4 v 4 4 4 a 4,4 90 0 1 -4,4 h -4 -40 -1 v 2 h -8 v -2 h -1 -4 a 4,4 90 0 1 -4,-4 v -4 z"
         style="fill:#ffe05c;fill-opacity:1;stroke:#644300;stroke-width:1;stroke-linecap:round;stroke-opacity:1"
         id="path4024"
         inkscape:connector-curvature="0" />
      <text
         style="font-size:10px;font-family:sans-serif;text-anchor:end;fill:#000000"
         id="text4028">
        <tspan
           x="56.333332"
           y="13.5"
           id="tspan4026">動作</tspan>
      </text>
    </g>
  </g>
  <g
     transform="translate(27,330.42154)"
     id="g4046">
    <g
       transform="scale(1.5)"
       id="g4044">
      <path
         d="m 0.5,8.5 v -4 a 4,4 90 0 1 4,-4 h 4 v 2 h 10 v -2 h 9 20 4 a 4,4 90 0 1 4,4 v 4 h -4 v -3 h -4 v 10 h 4 v -3 h 4 v 4 a 4,4 90 0 1 -4,4 h -4 -20 -1 v 2 h -8 v -2 h -1 -4 a 5,5 90 0 0 -5,5 v 4 4 4 a 5,5 90 0 0 5,5 h 4 v 2 h 10 v -2 h 8 v 6 6 4 a 4,4 90 0 1 -4,4 h -4 -9 -1 v 2 h -8 v -2 h -1 -4 a 4,4 90 0 1 -4,-4 v -4 z"
         style="fill:#e9a066;fill-opacity:1;stroke:#3f0a00;stroke-width:1;stroke-linecap:round;stroke-opacity:1"
         id="path4034"
         inkscape:connector-curvature="0" />
      <text
         style="font-size:10px;font-family:sans-serif;text-anchor:start;fill:#000000"
         id="text4038">
        <tspan
           x="5.3333335"
           y="15.25"
           id="tspan4036">回繰り返す</tspan>
      </text>
      <text
         style="font-size:6.66666651px;font-family:sans-serif;text-anchor:end;fill:#000000"
         id="text4042">
        <tspan
           x="45.333332"
           y="11.25"
           id="tspan4040" />
      </text>
    </g>
  </g>
  <g
     transform="translate(99,330.42154)"
     id="g4056">
    <g
       transform="scale(1.5)"
       id="g4054">
      <path
         d="m 8.5,0.5 h 60 v 20 h -60 v -8 -1 h -6 v 3 h -2 v -8 h 2 v 3 h 6 v -1 z"
         style="fill:#ffb2bc;fill-opacity:1;stroke:#601136;stroke-width:1;stroke-linecap:round;stroke-opacity:1"
         id="path4048"
         inkscape:connector-curvature="0" />
      <text
         style="font-size:10px;font-family:sans-serif;text-anchor:start;fill:#000000"
         id="text4052">
        <tspan
           x="13.333333"
           y="13.833333"
           id="tspan4050">4</tspan>
      </text>
    </g>
  </g>
  <g
     transform="translate(486,75.421537)"
     id="g4070">
    <g
       transform="scale(1.5)"
       id="g4068">
      <path
         d="m 0.5,8.5 v -4 a 4,4 90 0 1 4,-4 h 4 v 2 h 10 v -2 h 9 20 4 a 4,4 90 0 1 4,4 v 4 h -4 v -3 h -4 v 10 h 4 v -3 h 4 v 4 a 4,4 90 0 1 -4,4 h -4 -20 -1 v 2 h -8 v -2 h -1 -4 a 5,5 90 0 0 -5,5 v 4 4 4 a 5,5 90 0 0 5,5 h 4 v 2 h 10 v -2 h 8 v 6 6 4 a 4,4 90 0 1 -4,4 h -4 -9 -1 v 2 h -8 v -2 h -1 -4 a 4,4 90 0 1 -4,-4 v -4 z"
         style="fill:#e9a066;fill-opacity:1;stroke:#3f0a00;stroke-width:1;stroke-linecap:round;stroke-opacity:1"
         id="path4058"
         inkscape:connector-curvature="0" />
      <text
         style="font-size:10px;font-family:sans-serif;text-anchor:start;fill:#000000"
         id="text4062">
        <tspan
           x="5.3333335"
           y="15.25"
           id="tspan4060">回繰り返す</tspan>
      </text>
      <text
         style="font-size:6.66666651px;font-family:sans-serif;text-anchor:end;fill:#000000"
         id="text4066">
        <tspan
           x="45.333332"
           y="11.25"
           id="tspan4064" />
      </text>
    </g>
  </g>
  <g
     transform="translate(558,75.421537)"
     id="g4080">
    <g
       transform="scale(1.5)"
       id="g4078">
      <path
         d="m 8.5,0.5 h 60 v 20 h -60 v -8 -1 h -6 v 3 h -2 v -8 h 2 v 3 h 6 v -1 z"
         style="fill:#ffb2bc;fill-opacity:1;stroke:#601136;stroke-width:1;stroke-linecap:round;stroke-opacity:1"
         id="path4072"
         inkscape:connector-curvature="0" />
      <text
         style="font-size:10px;font-family:sans-serif;text-anchor:start;fill:#000000"
         id="text4076">
        <tspan
           x="13.333333"
           y="13.833333"
           id="tspan4074">4</tspan>
      </text>
    </g>
  </g>
  <g
     transform="translate(485,328.42154)"
     id="g4094">
    <g
       transform="scale(1.5)"
       id="g4092">
      <path
         d="m 0.5,8.5 v -4 a 4,4 90 0 1 4,-4 h 4 v 2 h 10 v -2 h 9 20 4 a 4,4 90 0 1 4,4 v 4 h -4 v -3 h -4 v 10 h 4 v -3 h 4 v 4 a 4,4 90 0 1 -4,4 h -4 -20 -1 v 2 h -8 v -2 h -1 -4 a 5,5 90 0 0 -5,5 v 4 4 4 a 5,5 90 0 0 5,5 h 4 v 2 h 10 v -2 h 8 v 6 6 4 a 4,4 90 0 1 -4,4 h -4 -9 -1 v 2 h -8 v -2 h -1 -4 a 4,4 90 0 1 -4,-4 v -4 z"
         style="fill:#e9a066;fill-opacity:1;stroke:#3f0a00;stroke-width:1;stroke-linecap:round;stroke-opacity:1"
         id="path4082"
         inkscape:connector-curvature="0" />
      <text
         style="font-size:10px;font-family:sans-serif;text-anchor:start;fill:#000000"
         id="text4086">
        <tspan
           x="5.3333335"
           y="15.25"
           id="tspan4084">回繰り返す</tspan>
      </text>
      <text
         style="font-size:6.66666651px;font-family:sans-serif;text-anchor:end;fill:#000000"
         id="text4090">
        <tspan
           x="45.333332"
           y="11.25"
           id="tspan4088" />
      </text>
    </g>
  </g>
  <g
     transform="translate(557,328.42154)"
     id="g4104">
    <g
       transform="scale(1.5)"
       id="g4102">
      <path
         d="m 8.5,0.5 h 60 v 20 h -60 v -8 -1 h -6 v 3 h -2 v -8 h 2 v 3 h 6 v -1 z"
         style="fill:#ffb2bc;fill-opacity:1;stroke:#601136;stroke-width:1;stroke-linecap:round;stroke-opacity:1"
         id="path4096"
         inkscape:connector-curvature="0" />
      <text
         style="font-size:10px;font-family:sans-serif;text-anchor:start;fill:#000000"
         id="text4100">
        <tspan
           x="13.333333"
           y="13.833333"
           id="tspan4098">4</tspan>
      </text>
    </g>
  </g>
  <g
     transform="translate(472.5,43.921537)"
     id="g4118">
    <g
       transform="scale(1.5)"
       id="g4116">
      <path
         d="m 0.5,8.5 v -4 a 4,4 90 0 1 4,-4 h 4 v 2 h 10 v -2 h 9 80.60059 4 a 4,4 90 0 1 4,4 v 4 h -4 v -3 h -4 v 10 h 4 v -3 h 4 v 4 a 4,4 90 0 1 -4,4 h -4 H 27.5 h -1 v 2 h -8 v -2 h -1 -4 a 5,5 90 0 0 -5,5 v 4 4 42 4 a 5,5 90 0 0 5,5 h 4 v 2 h 10 v -2 h 8 v 6 6 4 a 4,4 90 0 1 -4,4 h -4 -9 -1 v 2 h -8 v -2 h -1 -4 a 4,4 90 0 1 -4,-4 v -4 z"
         style="fill:#93e042;fill-opacity:1;stroke:#004000;stroke-width:1;stroke-linecap:round;stroke-opacity:1"
         id="path4106"
         inkscape:connector-curvature="0" />
      <text
         style="font-size:10px;font-family:sans-serif;text-anchor:start;fill:#000000"
         id="text4110">
        <tspan
           x="5.3333335"
           y="15.25"
           id="tspan4108">半音で移調</tspan>
      </text>
      <text
         style="font-size:6.66666651px;font-family:sans-serif;text-anchor:end;fill:#000000"
         id="text4114">
        <tspan
           x="105.93392"
           y="11.25"
           id="tspan4112" />
      </text>
    </g>
  </g>
  <g
     transform="translate(635.40088,43.921537)"
     id="g4136">
    <g
       transform="scale(1.5)"
       id="g4134">
      <path
         d="m 8.5,8.5 v -4 a 4,4 90 0 1 4,-4 h 4 10 30 4 a 4,4 90 0 1 4,4 v 4 h -4 v -3 h -4 v 10 h 4 v -3 h 4 v 17 h -4 v -3 h -4 v 10 h 4 v -3 h 4 v 4 a 4,4 90 0 1 -4,4 h -4 -30 -10 -4 a 4,4 90 0 1 -4,-4 v -4 -21 -1 h -6 v 3 h -2 v -8 h 2 v 3 h 6 z"
         style="fill:#ffb2bc;fill-opacity:1;stroke:#601136;stroke-width:1;stroke-linecap:round;stroke-opacity:1"
         id="path4120"
         inkscape:connector-curvature="0" />
      <text
         style="font-size:14px;font-family:sans-serif;text-anchor:end;fill:#000000"
         id="text4124">
        <tspan
           x="54.333332"
           y="23.799999"
           id="tspan4122">+</tspan>
      </text>
      <text
         style="font-size:9.33333302px;font-family:sans-serif;text-anchor:end;fill:#000000"
         id="text4128">
        <tspan
           x="54.333332"
           y="10.75"
           id="tspan4126" />
      </text>
      <text
         style="font-size:9.33333302px;font-family:sans-serif;text-anchor:end;fill:#000000"
         id="text4132">
        <tspan
           x="54.333332"
           y="31.75"
           id="tspan4130" />
      </text>
    </g>
  </g>
  <g
     transform="translate(720.90088,43.921537)"
     id="g4146">
    <g
       transform="scale(1.5)"
       id="g4144">
      <path
         d="m 8.5,0.5 h 60 v 20 h -60 v -8 -1 h -6 v 3 h -2 v -8 h 2 v 3 h 6 v -1 z"
         style="fill:#ffb2bc;fill-opacity:1;stroke:#601136;stroke-width:1;stroke-linecap:round;stroke-opacity:1"
         id="path4138"
         inkscape:connector-curvature="0" />
      <text
         style="font-size:10px;font-family:sans-serif;text-anchor:start;fill:#000000"
         id="text4142">
        <tspan
           x="13.333333"
           y="13.833333"
           id="tspan4140">0</tspan>
      </text>
    </g>
  </g>
  <g
     transform="translate(720.90088,75.421537)"
     id="g4164">
    <g
       transform="scale(1.5)"
       id="g4162">
      <path
         d="m 8.5,8.5 v -4 a 4,4 90 0 1 4,-4 h 4 10 30 4 a 4,4 90 0 1 4,4 v 4 h -4 v -3 h -4 v 10 h 4 v -3 h 4 v 17 h -4 v -3 h -4 v 10 h 4 v -3 h 4 v 4 a 4,4 90 0 1 -4,4 h -4 -30 -10 -4 a 4,4 90 0 1 -4,-4 v -4 -21 -1 h -6 v 3 h -2 v -8 h 2 v 3 h 6 z"
         style="fill:#ffb2bc;fill-opacity:1;stroke:#601136;stroke-width:1;stroke-linecap:round;stroke-opacity:1"
         id="path4148"
         inkscape:connector-curvature="0" />
      <text
         style="font-size:14px;font-family:sans-serif;text-anchor:end;fill:#000000"
         id="text4152">
        <tspan
           x="54.333332"
           y="23.799999"
           id="tspan4150">×</tspan>
      </text>
      <text
         style="font-size:9.33333302px;font-family:sans-serif;text-anchor:end;fill:#000000"
         id="text4156">
        <tspan
           x="54.333332"
           y="10.75"
           id="tspan4154" />
      </text>
      <text
         style="font-size:9.33333302px;font-family:sans-serif;text-anchor:end;fill:#000000"
         id="text4160">
        <tspan
           x="54.333332"
           y="31.75"
           id="tspan4158" />
      </text>
    </g>
  </g>
  <g
     transform="translate(806.40088,75.421537)"
     id="g4174">
    <g
       transform="scale(1.5)"
       id="g4172">
      <path
         d="m 8.5,0.5 h 60 v 20 h -60 v -8 -1 h -6 v 3 h -2 v -8 h 2 v 3 h 6 v -1 z"
         style="fill:#ffb2bc;fill-opacity:1;stroke:#601136;stroke-width:1;stroke-linecap:round;stroke-opacity:1"
         id="path4166"
         inkscape:connector-curvature="0" />
      <text
         style="font-size:10px;font-family:sans-serif;text-anchor:start;fill:#000000"
         id="text4170">
        <tspan
           x="13.333333"
           y="13.833333"
           id="tspan4168">-1</tspan>
      </text>
    </g>
  </g>
  <g
     transform="translate(806.40088,106.92154)"
     id="g4184">
    <g
       transform="scale(1.5)"
       id="g4182">
      <path
         d="m 8.5,0.5 h 60 v 20 h -60 v -8 -1 h -6 v 3 h -2 v -8 h 2 v 3 h 6 v -1 z"
         style="fill:#ffb2bc;fill-opacity:1;stroke:#601136;stroke-width:1;stroke-linecap:round;stroke-opacity:1"
         id="path4176"
         inkscape:connector-curvature="0" />
      <text
         style="font-size:10px;font-family:sans-serif;text-anchor:start;fill:#000000"
         id="text4180">
        <tspan
           x="13.333333"
           y="13.833333"
           id="tspan4178">12</tspan>
      </text>
    </g>
  </g>
  <g
     transform="translate(471.5,296.92154)"
     id="g4198">
    <g
       transform="scale(1.5)"
       id="g4196">
      <path
         d="m 0.5,8.5 v -4 a 4,4 90 0 1 4,-4 h 4 v 2 h 10 v -2 h 9 80.60059 4 a 4,4 90 0 1 4,4 v 4 h -4 v -3 h -4 v 10 h 4 v -3 h 4 v 4 a 4,4 90 0 1 -4,4 h -4 H 27.5 h -1 v 2 h -8 v -2 h -1 -4 a 5,5 90 0 0 -5,5 v 4 4 42 4 a 5,5 90 0 0 5,5 h 4 v 2 h 10 v -2 h 8 v 6 6 4 a 4,4 90 0 1 -4,4 h -4 -9 -1 v 2 h -8 v -2 h -1 -4 a 4,4 90 0 1 -4,-4 v -4 z"
         style="fill:#93e042;fill-opacity:1;stroke:#004000;stroke-width:1;stroke-linecap:round;stroke-opacity:1"
         id="path4186"
         inkscape:connector-curvature="0" />
      <text
         style="font-size:10px;font-family:sans-serif;text-anchor:start;fill:#000000"
         id="text4190">
        <tspan
           x="5.3333335"
           y="15.25"
           id="tspan4188">半音で移調</tspan>
      </text>
      <text
         style="font-size:6.66666651px;font-family:sans-serif;text-anchor:end;fill:#000000"
         id="text4194">
        <tspan
           x="105.93392"
           y="11.25"
           id="tspan4192" />
      </text>
    </g>
  </g>
  <g
     transform="translate(634.40088,296.92154)"
     id="g4216">
    <g
       transform="scale(1.5)"
       id="g4214">
      <path
         d="m 8.5,8.5 v -4 a 4,4 90 0 1 4,-4 h 4 10 30 4 a 4,4 90 0 1 4,4 v 4 h -4 v -3 h -4 v 10 h 4 v -3 h 4 v 17 h -4 v -3 h -4 v 10 h 4 v -3 h 4 v 4 a 4,4 90 0 1 -4,4 h -4 -30 -10 -4 a 4,4 90 0 1 -4,-4 v -4 -21 -1 h -6 v 3 h -2 v -8 h 2 v 3 h 6 z"
         style="fill:#ffb2bc;fill-opacity:1;stroke:#601136;stroke-width:1;stroke-linecap:round;stroke-opacity:1"
         id="path4200"
         inkscape:connector-curvature="0" />
      <text
         style="font-size:14px;font-family:sans-serif;text-anchor:end;fill:#000000"
         id="text4204">
        <tspan
           x="54.333332"
           y="23.799999"
           id="tspan4202">+</tspan>
      </text>
      <text
         style="font-size:9.33333302px;font-family:sans-serif;text-anchor:end;fill:#000000"
         id="text4208">
        <tspan
           x="54.333332"
           y="10.75"
           id="tspan4206" />
      </text>
      <text
         style="font-size:9.33333302px;font-family:sans-serif;text-anchor:end;fill:#000000"
         id="text4212">
        <tspan
           x="54.333332"
           y="31.75"
           id="tspan4210" />
      </text>
    </g>
  </g>
  <g
     transform="translate(719.90088,296.92154)"
     id="g4226">
    <g
       transform="scale(1.5)"
       id="g4224">
      <path
         d="m 8.5,0.5 h 60 v 20 h -60 v -8 -1 h -6 v 3 h -2 v -8 h 2 v 3 h 6 v -1 z"
         style="fill:#ffb2bc;fill-opacity:1;stroke:#601136;stroke-width:1;stroke-linecap:round;stroke-opacity:1"
         id="path4218"
         inkscape:connector-curvature="0" />
      <text
         style="font-size:10px;font-family:sans-serif;text-anchor:start;fill:#000000"
         id="text4222">
        <tspan
           x="13.333333"
           y="13.833333"
           id="tspan4220">0</tspan>
      </text>
    </g>
  </g>
  <g
     transform="translate(719.90088,328.42154)"
     id="g4244">
    <g
       transform="scale(1.5)"
       id="g4242">
      <path
         d="m 8.5,8.5 v -4 a 4,4 90 0 1 4,-4 h 4 10 30 4 a 4,4 90 0 1 4,4 v 4 h -4 v -3 h -4 v 10 h 4 v -3 h 4 v 17 h -4 v -3 h -4 v 10 h 4 v -3 h 4 v 4 a 4,4 90 0 1 -4,4 h -4 -30 -10 -4 a 4,4 90 0 1 -4,-4 v -4 -21 -1 h -6 v 3 h -2 v -8 h 2 v 3 h 6 z"
         style="fill:#ffb2bc;fill-opacity:1;stroke:#601136;stroke-width:1;stroke-linecap:round;stroke-opacity:1"
         id="path4228"
         inkscape:connector-curvature="0" />
      <text
         style="font-size:14px;font-family:sans-serif;text-anchor:end;fill:#000000"
         id="text4232">
        <tspan
           x="54.333332"
           y="23.799999"
           id="tspan4230">×</tspan>
      </text>
      <text
         style="font-size:9.33333302px;font-family:sans-serif;text-anchor:end;fill:#000000"
         id="text4236">
        <tspan
           x="54.333332"
           y="10.75"
           id="tspan4234" />
      </text>
      <text
         style="font-size:9.33333302px;font-family:sans-serif;text-anchor:end;fill:#000000"
         id="text4240">
        <tspan
           x="54.333332"
           y="31.75"
           id="tspan4238" />
      </text>
    </g>
  </g>
  <g
     transform="translate(805.40088,328.42154)"
     id="g4254">
    <g
       transform="scale(1.5)"
       id="g4252">
      <path
         d="m 8.5,0.5 h 60 v 20 h -60 v -8 -1 h -6 v 3 h -2 v -8 h 2 v 3 h 6 v -1 z"
         style="fill:#ffb2bc;fill-opacity:1;stroke:#601136;stroke-width:1;stroke-linecap:round;stroke-opacity:1"
         id="path4246"
         inkscape:connector-curvature="0" />
      <text
         style="font-size:10px;font-family:sans-serif;text-anchor:start;fill:#000000"
         id="text4250">
        <tspan
           x="13.333333"
           y="13.833333"
           id="tspan4248">-2</tspan>
      </text>
    </g>
  </g>
  <g
     transform="translate(805.40088,359.92154)"
     id="g4264">
    <g
       transform="scale(1.5)"
       id="g4262">
      <path
         d="m 8.5,0.5 h 60 v 20 h -60 v -8 -1 h -6 v 3 h -2 v -8 h 2 v 3 h 6 v -1 z"
         style="fill:#ffb2bc;fill-opacity:1;stroke:#601136;stroke-width:1;stroke-linecap:round;stroke-opacity:1"
         id="path4256"
         inkscape:connector-curvature="0" />
      <text
         style="font-size:10px;font-family:sans-serif;text-anchor:start;fill:#000000"
         id="text4260">
        <tspan
           x="13.333333"
           y="13.833333"
           id="tspan4258">12</tspan>
      </text>
    </g>
  </g>
  <g
     transform="translate(13.5,298.92154)"
     id="g4278">
    <g
       transform="scale(1.5)"
       id="g4276">
      <path
         d="m 0.5,8.5 v -4 a 4,4 90 0 1 4,-4 h 4 v 2 h 10 v -2 h 9 80.60059 4 a 4,4 90 0 1 4,4 v 4 h -4 v -3 h -4 v 10 h 4 v -3 h 4 v 4 a 4,4 90 0 1 -4,4 h -4 H 27.5 h -1 v 2 h -8 v -2 h -1 -4 a 5,5 90 0 0 -5,5 v 4 4 42 4 a 5,5 90 0 0 5,5 h 4 v 2 h 10 v -2 h 8 v 6 6 4 a 4,4 90 0 1 -4,4 h -4 -9 -1 v 2 h -8 v -2 h -1 -4 a 4,4 90 0 1 -4,-4 v -4 z"
         style="fill:#93e042;fill-opacity:1;stroke:#004000;stroke-width:1;stroke-linecap:round;stroke-opacity:1"
         id="path4266"
         inkscape:connector-curvature="0" />
      <text
         style="font-size:10px;font-family:sans-serif;text-anchor:start;fill:#000000"
         id="text4270">
        <tspan
           x="5.3333335"
           y="15.25"
           id="tspan4268">半音で移調</tspan>
      </text>
      <text
         style="font-size:6.66666651px;font-family:sans-serif;text-anchor:end;fill:#000000"
         id="text4274">
        <tspan
           x="105.93392"
           y="11.25"
           id="tspan4272" />
      </text>
    </g>
  </g>
  <g
     transform="translate(176.40088,298.92154)"
     id="g4296">
    <g
       transform="scale(1.5)"
       id="g4294">
      <path
         d="m 8.5,8.5 v -4 a 4,4 90 0 1 4,-4 h 4 10 30 4 a 4,4 90 0 1 4,4 v 4 h -4 v -3 h -4 v 10 h 4 v -3 h 4 v 17 h -4 v -3 h -4 v 10 h 4 v -3 h 4 v 4 a 4,4 90 0 1 -4,4 h -4 -30 -10 -4 a 4,4 90 0 1 -4,-4 v -4 -21 -1 h -6 v 3 h -2 v -8 h 2 v 3 h 6 z"
         style="fill:#ffb2bc;fill-opacity:1;stroke:#601136;stroke-width:1;stroke-linecap:round;stroke-opacity:1"
         id="path4280"
         inkscape:connector-curvature="0" />
      <text
         style="font-size:14px;font-family:sans-serif;text-anchor:end;fill:#000000"
         id="text4284">
        <tspan
           x="54.333332"
           y="23.799999"
           id="tspan4282">+</tspan>
      </text>
      <text
         style="font-size:9.33333302px;font-family:sans-serif;text-anchor:end;fill:#000000"
         id="text4288">
        <tspan
           x="54.333332"
           y="10.75"
           id="tspan4286" />
      </text>
      <text
         style="font-size:9.33333302px;font-family:sans-serif;text-anchor:end;fill:#000000"
         id="text4292">
        <tspan
           x="54.333332"
           y="31.75"
           id="tspan4290" />
      </text>
    </g>
  </g>
  <g
     transform="translate(261.90088,298.92154)"
     id="g4306">
    <g
       transform="scale(1.5)"
       id="g4304">
      <path
         d="m 8.5,0.5 h 60 v 20 h -60 v -8 -1 h -6 v 3 h -2 v -8 h 2 v 3 h 6 v -1 z"
         style="fill:#ffb2bc;fill-opacity:1;stroke:#601136;stroke-width:1;stroke-linecap:round;stroke-opacity:1"
         id="path4298"
         inkscape:connector-curvature="0" />
      <text
         style="font-size:10px;font-family:sans-serif;text-anchor:start;fill:#000000"
         id="text4302">
        <tspan
           x="13.333333"
           y="13.833333"
           id="tspan4300">0</tspan>
      </text>
    </g>
  </g>
  <g
     transform="translate(261.90088,330.42154)"
     id="g4324">
    <g
       transform="scale(1.5)"
       id="g4322">
      <path
         d="m 8.5,8.5 v -4 a 4,4 90 0 1 4,-4 h 4 10 30 4 a 4,4 90 0 1 4,4 v 4 h -4 v -3 h -4 v 10 h 4 v -3 h 4 v 17 h -4 v -3 h -4 v 10 h 4 v -3 h 4 v 4 a 4,4 90 0 1 -4,4 h -4 -30 -10 -4 a 4,4 90 0 1 -4,-4 v -4 -21 -1 h -6 v 3 h -2 v -8 h 2 v 3 h 6 z"
         style="fill:#ffb2bc;fill-opacity:1;stroke:#601136;stroke-width:1;stroke-linecap:round;stroke-opacity:1"
         id="path4308"
         inkscape:connector-curvature="0" />
      <text
         style="font-size:14px;font-family:sans-serif;text-anchor:end;fill:#000000"
         id="text4312">
        <tspan
           x="54.333332"
           y="23.799999"
           id="tspan4310">×</tspan>
      </text>
      <text
         style="font-size:9.33333302px;font-family:sans-serif;text-anchor:end;fill:#000000"
         id="text4316">
        <tspan
           x="54.333332"
           y="10.75"
           id="tspan4314" />
      </text>
      <text
         style="font-size:9.33333302px;font-family:sans-serif;text-anchor:end;fill:#000000"
         id="text4320">
        <tspan
           x="54.333332"
           y="31.75"
           id="tspan4318" />
      </text>
    </g>
  </g>
  <g
     transform="translate(347.40088,330.42154)"
     id="g4334">
    <g
       transform="scale(1.5)"
       id="g4332">
      <path
         d="m 8.5,0.5 h 60 v 20 h -60 v -8 -1 h -6 v 3 h -2 v -8 h 2 v 3 h 6 v -1 z"
         style="fill:#ffb2bc;fill-opacity:1;stroke:#601136;stroke-width:1;stroke-linecap:round;stroke-opacity:1"
         id="path4326"
         inkscape:connector-curvature="0" />
      <text
         style="font-size:10px;font-family:sans-serif;text-anchor:start;fill:#000000"
         id="text4330">
        <tspan
           x="13.333333"
           y="13.833333"
           id="tspan4328">1</tspan>
      </text>
    </g>
  </g>
  <g
     transform="translate(347.40088,361.92154)"
     id="g4344">
    <g
       transform="scale(1.5)"
       id="g4342">
      <path
         d="m 8.5,0.5 h 60 v 20 h -60 v -8 -1 h -6 v 3 h -2 v -8 h 2 v 3 h 6 v -1 z"
         style="fill:#ffb2bc;fill-opacity:1;stroke:#601136;stroke-width:1;stroke-linecap:round;stroke-opacity:1"
         id="path4336"
         inkscape:connector-curvature="0" />
      <text
         style="font-size:10px;font-family:sans-serif;text-anchor:start;fill:#000000"
         id="text4340">
        <tspan
           x="13.333333"
           y="13.833333"
           id="tspan4338">12</tspan>
      </text>
    </g>
  </g>
</svg>
