<?xml version="1.0" encoding="UTF-8" standalone="no"?>
<svg
   xmlns:dc="http://purl.org/dc/elements/1.1/"
   xmlns:cc="http://creativecommons.org/ns#"
   xmlns:rdf="http://www.w3.org/1999/02/22-rdf-syntax-ns#"
   xmlns:svg="http://www.w3.org/2000/svg"
   xmlns="http://www.w3.org/2000/svg"
   xmlns:sodipodi="http://sodipodi.sourceforge.net/DTD/sodipodi-0.dtd"
   xmlns:inkscape="http://www.inkscape.org/namespaces/inkscape"
   width="912.80176"
   height="775.34308"
   version="1.1"
   id="svg7458"
   sodipodi:docname="voices4.svg"
   inkscape:version="0.92.2 (5c3e80d, 2017-08-06)">
  <metadata
     id="metadata7464">
    <rdf:RDF>
      <cc:Work
         rdf:about="">
        <dc:format>image/svg+xml</dc:format>
        <dc:type
           rdf:resource="http://purl.org/dc/dcmitype/StillImage" />
        <dc:title></dc:title>
      </cc:Work>
    </rdf:RDF>
  </metadata>
  <defs
     id="defs7462" />
  <sodipodi:namedview
     pagecolor="#ffffff"
     bordercolor="#666666"
     borderopacity="1"
     objecttolerance="10"
     gridtolerance="10"
     guidetolerance="10"
     inkscape:pageopacity="0"
     inkscape:pageshadow="2"
     inkscape:window-width="1366"
     inkscape:window-height="705"
     id="namedview7460"
     showgrid="false"
     inkscape:zoom="0.83162518"
     inkscape:cx="585.06643"
     inkscape:cy="341.07936"
     inkscape:window-x="-8"
     inkscape:window-y="274"
     inkscape:window-maximized="1"
     inkscape:current-layer="svg7458" />
  <g
     transform="translate(0.33333,223.42154)"
     id="g6822">
    <g
       transform="scale(1.5)"
       id="g6820">
      <path
         d="m 0.5,14.5 v -4 a 4,4 90 0 1 4,-4 h 4 l 5,-6 5,6 h 9 30 4 a 4,4 90 0 1 4,4 v 4 4 4 a 4,4 90 0 1 -4,4 h -4 -30 -1 v 2 h -8 v -2 h -1 -4 a 5,5 90 0 0 -5,5 v 4 4 42 4 a 5,5 90 0 0 5,5 h 4 v 2 h 10 v -2 h 8 v 6 6 4 a 4,4 90 0 1 -4,4 h -4 -9 l -5,6 -5,-6 h -4 a 4,4 90 0 1 -4,-4 v -4 z"
         style="fill:#ffe05c;fill-opacity:1;stroke:#644300;stroke-width:1;stroke-linecap:round;stroke-opacity:1"
         id="path6814"
         inkscape:connector-curvature="0" />
      <text
         style="font-size:10px;font-family:sans-serif;text-anchor:start;fill:#000000"
         id="text6818">
        <tspan
           x="5.3333335"
           y="21.5"
           id="tspan6816">スタート</tspan>
      </text>
    </g>
  </g>
  <g
     transform="translate(17.5,42.921537)"
     id="g6836">
    <g
       transform="scale(1.5)"
       id="g6834">
      <path
         d="m 0.5,8.5 v -4 a 4,4 90 0 1 4,-4 h 4 v 2 h 10 v -2 h 9 36.147461 4 a 4,4 90 0 1 4,4 v 4 h -4 v -3 h -4 v 10 h 4 v -3 h 4 v 4 a 4,4 90 0 1 -4,4 h -4 H 27.5 h -1 v 2 h -8 v -2 h -1 -4 a 5,5 90 0 0 -5,5 v 4 4 21 4 a 5,5 90 0 0 5,5 h 4 v 2 h 10 v -2 h 8 v 6 6 4 a 4,4 90 0 1 -4,4 h -4 -9 -1 v 2 h -8 v -2 h -1 -4 a 4,4 90 0 1 -4,-4 v -4 z"
         style="fill:#ff8b2d;fill-opacity:1;stroke:#520000;stroke-width:1;stroke-linecap:round;stroke-opacity:1"
         id="path6824"
         inkscape:connector-curvature="0" />
      <text
         style="font-size:10px;font-family:sans-serif;text-anchor:start;fill:#000000"
         id="text6828">
        <tspan
           x="5.3333335"
           y="15.25"
           id="tspan6826">音価</tspan>
      </text>
      <text
         style="font-size:6.66666651px;font-family:sans-serif;text-anchor:end;fill:#000000"
         id="text6832">
        <tspan
           x="61.480793"
           y="11.25"
           id="tspan6830" />
      </text>
    </g>
  </g>
  <g
     transform="translate(113.72119,42.921537)"
     id="g6854">
    <g
       transform="scale(1.5)"
       id="g6852">
      <path
         d="m 8.5,8.5 v -4 a 4,4 90 0 1 4,-4 h 4 10 30 4 a 4,4 90 0 1 4,4 v 4 h -4 v -3 h -4 v 10 h 4 v -3 h 4 v 17 h -4 v -3 h -4 v 10 h 4 v -3 h 4 v 4 a 4,4 90 0 1 -4,4 h -4 -30 -10 -4 a 4,4 90 0 1 -4,-4 v -4 -21 -1 h -6 v 3 h -2 v -8 h 2 v 3 h 6 z"
         style="fill:#ffb2bc;fill-opacity:1;stroke:#601136;stroke-width:1;stroke-linecap:round;stroke-opacity:1"
         id="path6838"
         inkscape:connector-curvature="0" />
      <text
         style="font-size:14px;font-family:sans-serif;text-anchor:end;fill:#000000"
         id="text6842">
        <tspan
           x="54.333332"
           y="23.799999"
           id="tspan6840">/</tspan>
      </text>
      <text
         style="font-size:9.33333302px;font-family:sans-serif;text-anchor:end;fill:#000000"
         id="text6846">
        <tspan
           x="54.333332"
           y="10.75"
           id="tspan6844" />
      </text>
      <text
         style="font-size:9.33333302px;font-family:sans-serif;text-anchor:end;fill:#000000"
         id="text6850">
        <tspan
           x="54.333332"
           y="31.75"
           id="tspan6848" />
      </text>
    </g>
  </g>
  <g
     transform="translate(199.22119,42.921537)"
     id="g6864">
    <g
       transform="scale(1.5)"
       id="g6862">
      <path
         d="m 8.5,0.5 h 60 v 20 h -60 v -8 -1 h -6 v 3 h -2 v -8 h 2 v 3 h 6 v -1 z"
         style="fill:#ffb2bc;fill-opacity:1;stroke:#601136;stroke-width:1;stroke-linecap:round;stroke-opacity:1"
         id="path6856"
         inkscape:connector-curvature="0" />
      <text
         style="font-size:10px;font-family:sans-serif;text-anchor:start;fill:#000000"
         id="text6860">
        <tspan
           x="13.333333"
           y="13.833333"
           id="tspan6858">1</tspan>
      </text>
    </g>
  </g>
  <g
     transform="translate(199.22119,74.421537)"
     id="g6874">
    <g
       transform="scale(1.5)"
       id="g6872">
      <path
         d="m 8.5,0.5 h 60 v 20 h -60 v -8 -1 h -6 v 3 h -2 v -8 h 2 v 3 h 6 v -1 z"
         style="fill:#ffb2bc;fill-opacity:1;stroke:#601136;stroke-width:1;stroke-linecap:round;stroke-opacity:1"
         id="path6866"
         inkscape:connector-curvature="0" />
      <text
         style="font-size:10px;font-family:sans-serif;text-anchor:start;fill:#000000"
         id="text6870">
        <tspan
           x="13.333333"
           y="13.833333"
           id="tspan6868">1</tspan>
      </text>
    </g>
  </g>
  <g
     transform="translate(31,74.421537)"
     id="g6884">
    <g
       transform="scale(1.5)"
       id="g6882">
      <path
         d="m 0.5,8.5 v -4 a 4,4 90 0 1 4,-4 h 4 v 2 h 10 v -2 h 20 4 a 4,4 90 0 1 4,4 v 4 4 4 a 4,4 90 0 1 -4,4 h -4 -20 -1 v 2 h -8 v -2 h -1 -4 a 4,4 90 0 1 -4,-4 v -4 z"
         style="fill:#d57e6f;fill-opacity:1;stroke:#000000;stroke-width:1;stroke-linecap:round;stroke-opacity:1"
         id="path6876"
         inkscape:connector-curvature="0" />
      <text
         style="font-size:10px;font-family:sans-serif;text-anchor:end;fill:#000000"
         id="text6880">
        <tspan
           x="36.333332"
           y="13.5"
           id="tspan6878">↓</tspan>
      </text>
    </g>
  </g>
  <g
     transform="translate(31,105.92154)"
     id="g6894">
    <g
       transform="scale(1.5)"
       id="g6892">
      <path
         d="m 0.5,8.5 v -4 a 4,4 90 0 1 4,-4 h 4 v 2 h 10 v -2 h 31.12793 4 a 4,4 90 0 1 4,4 v 4 4 4 a 4,4 90 0 1 -4,4 h -4 H 18.5 h -1 v 2 h -8 v -2 h -1 -4 a 4,4 90 0 1 -4,-4 v -4 z"
         style="fill:#ff8b2d;fill-opacity:1;stroke:#520000;stroke-width:1;stroke-linecap:round;stroke-opacity:1"
         id="path6886"
         inkscape:connector-curvature="0" />
      <text
         style="font-size:10px;font-family:sans-serif;text-anchor:end;fill:#000000"
         id="text6890">
        <tspan
           x="47.461262"
           y="13.5"
           id="tspan6888">休符</tspan>
      </text>
    </g>
  </g>
  <g
     transform="translate(4,2.4215375)"
     id="g6908">
    <g
       transform="scale(1.5)"
       id="g6906">
      <path
         d="m 0.5,14.5 v -4 a 4,4 90 0 1 4,-4 h 4 l 5,-6 5,6 h 9 35 4 a 4,4 90 0 1 4,4 v 4 h -4 v -3 h -4 v 10 h 4 v -3 h 4 v 4 a 4,4 90 0 1 -4,4 h -4 -35 -1 v 2 h -8 v -2 h -1 -4 a 5,5 90 0 0 -5,5 v 4 4 63 4 a 5,5 90 0 0 5,5 h 4 v 2 h 10 v -2 h 8 v 6 6 4 a 4,4 90 0 1 -4,4 h -4 -9 l -5,6 -5,-6 h -4 a 4,4 90 0 1 -4,-4 v -4 z"
         style="fill:#ffe05c;fill-opacity:1;stroke:#644300;stroke-width:1;stroke-linecap:round;stroke-opacity:1"
         id="path6896"
         inkscape:connector-curvature="0" />
      <text
         style="font-size:10px;font-family:sans-serif;text-anchor:start;fill:#000000"
         id="text6900">
        <tspan
           x="5.3333335"
           y="21.5"
           id="tspan6898">動作</tspan>
      </text>
      <text
         style="font-size:6.66666651px;font-family:sans-serif;text-anchor:end;fill:#000000"
         id="text6904">
        <tspan
           x="60.333332"
           y="5.25"
           id="tspan6902" />
      </text>
    </g>
  </g>
  <g
     transform="translate(98.5,11.421537)"
     id="g6918">
    <g
       transform="scale(1.5)"
       id="g6916">
      <path
         d="m 8.5,0.5 h 60 v 20 h -60 v -8 -1 h -6 v 3 h -2 v -8 h 2 v 3 h 6 v -1 z"
         style="fill:#76dbd7;fill-opacity:1;stroke:#003b41;stroke-width:1;stroke-linecap:round;stroke-opacity:1"
         id="path6910"
         inkscape:connector-curvature="0" />
      <text
         style="font-size:10px;font-family:sans-serif;text-anchor:start;fill:#000000"
         id="text6914">
        <tspan
           x="13.333333"
           y="13.833333"
           id="tspan6912">ディレイエフェクタ</tspan>
      </text>
    </g>
  </g>
  <g
     transform="translate(13.83333,263.92154)"
     id="g6932">
    <g
       transform="scale(1.5)"
       id="g6930">
      <path
         d="m 0.5,8.5 v -4 a 4,4 90 0 1 4,-4 h 4 v 2 h 10 v -2 h 9 20 4 a 4,4 90 0 1 4,4 v 4 h -4 v -3 h -4 v 10 h 4 v -3 h 4 v 4 a 4,4 90 0 1 -4,4 h -4 -20 -1 v 2 h -8 v -2 h -1 -4 a 5,5 90 0 0 -5,5 v 4 4 4 a 5,5 90 0 0 5,5 h 4 v 2 h 10 v -2 h 8 v 6 6 4 a 4,4 90 0 1 -4,4 h -4 -9 -1 v 2 h -8 v -2 h -1 -4 a 4,4 90 0 1 -4,-4 v -4 z"
         style="fill:#e9a066;fill-opacity:1;stroke:#3f0a00;stroke-width:1;stroke-linecap:round;stroke-opacity:1"
         id="path6920"
         inkscape:connector-curvature="0" />
      <text
         style="font-size:10px;font-family:sans-serif;text-anchor:start;fill:#000000"
         id="text6924">
        <tspan
           x="5.3333335"
           y="15.25"
           id="tspan6922">回繰り返す</tspan>
      </text>
      <text
         style="font-size:6.66666651px;font-family:sans-serif;text-anchor:end;fill:#000000"
         id="text6928">
        <tspan
           x="45.333332"
           y="11.25"
           id="tspan6926" />
      </text>
    </g>
  </g>
  <g
     transform="translate(85.83333,263.92154)"
     id="g6942">
    <g
       transform="scale(1.5)"
       id="g6940">
      <path
         d="m 8.5,0.5 h 60 v 20 h -60 v -8 -1 h -6 v 3 h -2 v -8 h 2 v 3 h 6 v -1 z"
         style="fill:#ffb2bc;fill-opacity:1;stroke:#601136;stroke-width:1;stroke-linecap:round;stroke-opacity:1"
         id="path6934"
         inkscape:connector-curvature="0" />
      <text
         style="font-size:10px;font-family:sans-serif;text-anchor:start;fill:#000000"
         id="text6938">
        <tspan
           x="13.333333"
           y="13.833333"
           id="tspan6936">4</tspan>
      </text>
    </g>
  </g>
  <g
     transform="translate(27.33333,295.42154)"
     id="g6952">
    <g
       transform="scale(1.5)"
       id="g6950">
      <path
         d="m 0.5,8.5 v -4 a 4,4 90 0 1 4,-4 h 4 v 2 h 10 v -2 h 40 4 a 4,4 90 0 1 4,4 v 4 4 4 a 4,4 90 0 1 -4,4 h -4 -40 -1 v 2 h -8 v -2 h -1 -4 a 4,4 90 0 1 -4,-4 v -4 z"
         style="fill:#ffe05c;fill-opacity:1;stroke:#644300;stroke-width:1;stroke-linecap:round;stroke-opacity:1"
         id="path6944"
         inkscape:connector-curvature="0" />
      <text
         style="font-size:10px;font-family:sans-serif;text-anchor:end;fill:#000000"
         id="text6948">
        <tspan
           x="56.333332"
           y="13.5"
           id="tspan6946">動作</tspan>
      </text>
    </g>
  </g>
  <g
     transform="translate(327,0.42153745)"
     id="g6962">
    <g
       transform="scale(1.5)"
       id="g6960">
      <path
         d="m 0.5,14.5 v -4 a 4,4 90 0 1 4,-4 h 4 l 5,-6 5,6 h 9 30 4 a 4,4 90 0 1 4,4 v 4 4 4 a 4,4 90 0 1 -4,4 h -4 -30 -1 v 2 h -8 v -2 h -1 -4 a 5,5 90 0 0 -5,5 v 4 4 168 4 a 5,5 90 0 0 5,5 h 4 v 2 h 10 v -2 h 8 v 6 6 4 a 4,4 90 0 1 -4,4 h -4 -9 l -5,6 -5,-6 h -4 a 4,4 90 0 1 -4,-4 v -4 z"
         style="fill:#ffe05c;fill-opacity:1;stroke:#644300;stroke-width:1;stroke-linecap:round;stroke-opacity:1"
         id="path6954"
         inkscape:connector-curvature="0" />
      <text
         style="font-size:10px;font-family:sans-serif;text-anchor:start;fill:#000000"
         id="text6958">
        <tspan
           x="5.3333335"
           y="21.5"
           id="tspan6956">スタート</tspan>
      </text>
    </g>
  </g>
  <g
     transform="translate(340.5,40.921537)"
     id="g6976">
    <g
       transform="scale(1.5)"
       id="g6974">
      <path
         d="m 0.5,8.5 v -4 a 4,4 90 0 1 4,-4 h 4 v 2 h 10 v -2 h 9 20 4 a 4,4 90 0 1 4,4 v 4 h -4 v -3 h -4 v 10 h 4 v -3 h 4 v 4 a 4,4 90 0 1 -4,4 h -4 -20 -1 v 2 h -8 v -2 h -1 -4 a 5,5 90 0 0 -5,5 v 4 4 4 a 5,5 90 0 0 5,5 h 4 v 2 h 10 v -2 h 8 v 6 6 4 a 4,4 90 0 1 -4,4 h -4 -9 -1 v 2 h -8 v -2 h -1 -4 a 4,4 90 0 1 -4,-4 v -4 z"
         style="fill:#e9a066;fill-opacity:1;stroke:#3f0a00;stroke-width:1;stroke-linecap:round;stroke-opacity:1"
         id="path6964"
         inkscape:connector-curvature="0" />
      <text
         style="font-size:10px;font-family:sans-serif;text-anchor:start;fill:#000000"
         id="text6968">
        <tspan
           x="5.3333335"
           y="15.25"
           id="tspan6966">回繰り返す</tspan>
      </text>
      <text
         style="font-size:6.66666651px;font-family:sans-serif;text-anchor:end;fill:#000000"
         id="text6972">
        <tspan
           x="45.333332"
           y="11.25"
           id="tspan6970" />
      </text>
    </g>
  </g>
  <g
     transform="translate(412.5,40.921537)"
     id="g6986">
    <g
       transform="scale(1.5)"
       id="g6984">
      <path
         d="m 8.5,0.5 h 60 v 20 h -60 v -8 -1 h -6 v 3 h -2 v -8 h 2 v 3 h 6 v -1 z"
         style="fill:#ffb2bc;fill-opacity:1;stroke:#601136;stroke-width:1;stroke-linecap:round;stroke-opacity:1"
         id="path6978"
         inkscape:connector-curvature="0" />
      <text
         style="font-size:10px;font-family:sans-serif;text-anchor:start;fill:#000000"
         id="text6982">
        <tspan
           x="13.333333"
           y="13.833333"
           id="tspan6980">2</tspan>
      </text>
    </g>
  </g>
  <g
     transform="translate(354,72.421537)"
     id="g6996">
    <g
       transform="scale(1.5)"
       id="g6994">
      <path
         d="m 0.5,8.5 v -4 a 4,4 90 0 1 4,-4 h 4 v 2 h 10 v -2 h 40 4 a 4,4 90 0 1 4,4 v 4 4 4 a 4,4 90 0 1 -4,4 h -4 -40 -1 v 2 h -8 v -2 h -1 -4 a 4,4 90 0 1 -4,-4 v -4 z"
         style="fill:#ffe05c;fill-opacity:1;stroke:#644300;stroke-width:1;stroke-linecap:round;stroke-opacity:1"
         id="path6988"
         inkscape:connector-curvature="0" />
      <text
         style="font-size:10px;font-family:sans-serif;text-anchor:end;fill:#000000"
         id="text6992">
        <tspan
           x="56.333332"
           y="13.5"
           id="tspan6990">ディレイエフェクタ</tspan>
      </text>
    </g>
  </g>
  <g
     transform="translate(340.5,135.42154)"
     id="g7010">
    <g
       transform="scale(1.5)"
       id="g7008">
      <path
         d="m 0.5,8.5 v -4 a 4,4 90 0 1 4,-4 h 4 v 2 h 10 v -2 h 9 80.60059 4 a 4,4 90 0 1 4,4 v 4 h -4 v -3 h -4 v 10 h 4 v -3 h 4 v 4 a 4,4 90 0 1 -4,4 h -4 H 27.5 h -1 v 2 h -8 v -2 h -1 -4 a 5,5 90 0 0 -5,5 v 4 4 63 4 a 5,5 90 0 0 5,5 h 4 v 2 h 10 v -2 h 8 v 6 6 4 a 4,4 90 0 1 -4,4 h -4 -9 -1 v 2 h -8 v -2 h -1 -4 a 4,4 90 0 1 -4,-4 v -4 z"
         style="fill:#93e042;fill-opacity:1;stroke:#004000;stroke-width:1;stroke-linecap:round;stroke-opacity:1"
         id="path6998"
         inkscape:connector-curvature="0" />
      <text
         style="font-size:10px;font-family:sans-serif;text-anchor:start;fill:#000000"
         id="text7002">
        <tspan
           x="5.3333335"
           y="15.25"
           id="tspan7000">半音で移調</tspan>
      </text>
      <text
         style="font-size:6.66666651px;font-family:sans-serif;text-anchor:end;fill:#000000"
         id="text7006">
        <tspan
           x="105.93392"
           y="11.25"
           id="tspan7004" />
      </text>
    </g>
  </g>
  <g
     transform="translate(503.40088,135.42154)"
     id="g7028">
    <g
       transform="scale(1.5)"
       id="g7026">
      <path
         d="m 8.5,8.5 v -4 a 4,4 90 0 1 4,-4 h 4 10 30 4 a 4,4 90 0 1 4,4 v 4 h -4 v -3 h -4 v 10 h 4 v -3 h 4 v 17 h -4 v -3 h -4 v 10 h 4 v -3 h 4 v 4 a 4,4 90 0 1 -4,4 h -4 -30 -10 -4 a 4,4 90 0 1 -4,-4 v -4 -21 -1 h -6 v 3 h -2 v -8 h 2 v 3 h 6 z"
         style="fill:#ffb2bc;fill-opacity:1;stroke:#601136;stroke-width:1;stroke-linecap:round;stroke-opacity:1"
         id="path7012"
         inkscape:connector-curvature="0" />
      <text
         style="font-size:14px;font-family:sans-serif;text-anchor:end;fill:#000000"
         id="text7016">
        <tspan
           x="54.333332"
           y="23.799999"
           id="tspan7014">+</tspan>
      </text>
      <text
         style="font-size:9.33333302px;font-family:sans-serif;text-anchor:end;fill:#000000"
         id="text7020">
        <tspan
           x="54.333332"
           y="10.75"
           id="tspan7018" />
      </text>
      <text
         style="font-size:9.33333302px;font-family:sans-serif;text-anchor:end;fill:#000000"
         id="text7024">
        <tspan
           x="54.333332"
           y="31.75"
           id="tspan7022" />
      </text>
    </g>
  </g>
  <g
     transform="translate(588.90088,135.42154)"
     id="g7038">
    <g
       transform="scale(1.5)"
       id="g7036">
      <path
         d="m 8.5,0.5 h 60 v 20 h -60 v -8 -1 h -6 v 3 h -2 v -8 h 2 v 3 h 6 v -1 z"
         style="fill:#ffb2bc;fill-opacity:1;stroke:#601136;stroke-width:1;stroke-linecap:round;stroke-opacity:1"
         id="path7030"
         inkscape:connector-curvature="0" />
      <text
         style="font-size:10px;font-family:sans-serif;text-anchor:start;fill:#000000"
         id="text7034">
        <tspan
           x="13.333333"
           y="13.833333"
           id="tspan7032">0</tspan>
      </text>
    </g>
  </g>
  <g
     transform="translate(588.90088,166.92154)"
     id="g7056">
    <g
       transform="scale(1.5)"
       id="g7054">
      <path
         d="m 8.5,8.5 v -4 a 4,4 90 0 1 4,-4 h 4 10 30 4 a 4,4 90 0 1 4,4 v 4 h -4 v -3 h -4 v 10 h 4 v -3 h 4 v 17 h -4 v -3 h -4 v 10 h 4 v -3 h 4 v 4 a 4,4 90 0 1 -4,4 h -4 -30 -10 -4 a 4,4 90 0 1 -4,-4 v -4 -21 -1 h -6 v 3 h -2 v -8 h 2 v 3 h 6 z"
         style="fill:#ffb2bc;fill-opacity:1;stroke:#601136;stroke-width:1;stroke-linecap:round;stroke-opacity:1"
         id="path7040"
         inkscape:connector-curvature="0" />
      <text
         style="font-size:14px;font-family:sans-serif;text-anchor:end;fill:#000000"
         id="text7044">
        <tspan
           x="54.333332"
           y="23.799999"
           id="tspan7042">×</tspan>
      </text>
      <text
         style="font-size:9.33333302px;font-family:sans-serif;text-anchor:end;fill:#000000"
         id="text7048">
        <tspan
           x="54.333332"
           y="10.75"
           id="tspan7046" />
      </text>
      <text
         style="font-size:9.33333302px;font-family:sans-serif;text-anchor:end;fill:#000000"
         id="text7052">
        <tspan
           x="54.333332"
           y="31.75"
           id="tspan7050" />
      </text>
    </g>
  </g>
  <g
     transform="translate(674.40088,166.92154)"
     id="g7066">
    <g
       transform="scale(1.5)"
       id="g7064">
      <path
         d="m 8.5,0.5 h 60 v 20 h -60 v -8 -1 h -6 v 3 h -2 v -8 h 2 v 3 h 6 v -1 z"
         style="fill:#ffb2bc;fill-opacity:1;stroke:#601136;stroke-width:1;stroke-linecap:round;stroke-opacity:1"
         id="path7058"
         inkscape:connector-curvature="0" />
      <text
         style="font-size:10px;font-family:sans-serif;text-anchor:start;fill:#000000"
         id="text7062">
        <tspan
           x="13.333333"
           y="13.833333"
           id="tspan7060">-1</tspan>
      </text>
    </g>
  </g>
  <g
     transform="translate(674.40088,198.42154)"
     id="g7076">
    <g
       transform="scale(1.5)"
       id="g7074">
      <path
         d="m 8.5,0.5 h 60 v 20 h -60 v -8 -1 h -6 v 3 h -2 v -8 h 2 v 3 h 6 v -1 z"
         style="fill:#ffb2bc;fill-opacity:1;stroke:#601136;stroke-width:1;stroke-linecap:round;stroke-opacity:1"
         id="path7068"
         inkscape:connector-curvature="0" />
      <text
         style="font-size:10px;font-family:sans-serif;text-anchor:start;fill:#000000"
         id="text7072">
        <tspan
           x="13.333333"
           y="13.833333"
           id="tspan7070">12</tspan>
      </text>
    </g>
  </g>
  <g
     transform="translate(354,166.92154)"
     id="g7086">
    <g
       transform="scale(1.5)"
       id="g7084">
      <path
         d="m 0.5,8.5 v -4 a 4,4 90 0 1 4,-4 h 4 v 2 h 10 v -2 h 20 4 a 4,4 90 0 1 4,4 v 4 4 4 a 4,4 90 0 1 -4,4 h -4 -20 -1 v 2 h -8 v -2 h -1 -4 a 4,4 90 0 1 -4,-4 v -4 z"
         style="fill:#d57e6f;fill-opacity:1;stroke:#000000;stroke-width:1;stroke-linecap:round;stroke-opacity:1"
         id="path7078"
         inkscape:connector-curvature="0" />
      <text
         style="font-size:10px;font-family:sans-serif;text-anchor:end;fill:#000000"
         id="text7082">
        <tspan
           x="36.333332"
           y="13.5"
           id="tspan7080">↓</tspan>
      </text>
    </g>
  </g>
  <g
     transform="translate(354,198.42154)"
     id="g7100">
    <g
       transform="scale(1.5)"
       id="g7098">
      <path
         d="m 0.5,8.5 v -4 a 4,4 90 0 1 4,-4 h 4 v 2 h 10 v -2 h 9 20 4 a 4,4 90 0 1 4,4 v 4 h -4 v -3 h -4 v 10 h 4 v -3 h 4 v 4 a 4,4 90 0 1 -4,4 h -4 -20 -1 v 2 h -8 v -2 h -1 -4 a 5,5 90 0 0 -5,5 v 4 4 4 a 5,5 90 0 0 5,5 h 4 v 2 h 10 v -2 h 8 v 6 6 4 a 4,4 90 0 1 -4,4 h -4 -9 -1 v 2 h -8 v -2 h -1 -4 a 4,4 90 0 1 -4,-4 v -4 z"
         style="fill:#e9a066;fill-opacity:1;stroke:#3f0a00;stroke-width:1;stroke-linecap:round;stroke-opacity:1"
         id="path7088"
         inkscape:connector-curvature="0" />
      <text
         style="font-size:10px;font-family:sans-serif;text-anchor:start;fill:#000000"
         id="text7092">
        <tspan
           x="5.3333335"
           y="15.25"
           id="tspan7090">回繰り返す</tspan>
      </text>
      <text
         style="font-size:6.66666651px;font-family:sans-serif;text-anchor:end;fill:#000000"
         id="text7096">
        <tspan
           x="45.333332"
           y="11.25"
           id="tspan7094" />
      </text>
    </g>
  </g>
  <g
     transform="translate(426,198.42154)"
     id="g7110">
    <g
       transform="scale(1.5)"
       id="g7108">
      <path
         d="m 8.5,0.5 h 60 v 20 h -60 v -8 -1 h -6 v 3 h -2 v -8 h 2 v 3 h 6 v -1 z"
         style="fill:#ffb2bc;fill-opacity:1;stroke:#601136;stroke-width:1;stroke-linecap:round;stroke-opacity:1"
         id="path7102"
         inkscape:connector-curvature="0" />
      <text
         style="font-size:10px;font-family:sans-serif;text-anchor:start;fill:#000000"
         id="text7106">
        <tspan
           x="13.333333"
           y="13.833333"
           id="tspan7104">4</tspan>
      </text>
    </g>
  </g>
  <g
     transform="translate(367.5,229.92154)"
     id="g7120">
    <g
       transform="scale(1.5)"
       id="g7118">
      <path
         d="m 0.5,8.5 v -4 a 4,4 90 0 1 4,-4 h 4 v 2 h 10 v -2 h 40 4 a 4,4 90 0 1 4,4 v 4 4 4 a 4,4 90 0 1 -4,4 h -4 -40 -1 v 2 h -8 v -2 h -1 -4 a 4,4 90 0 1 -4,-4 v -4 z"
         style="fill:#ffe05c;fill-opacity:1;stroke:#644300;stroke-width:1;stroke-linecap:round;stroke-opacity:1"
         id="path7112"
         inkscape:connector-curvature="0" />
      <text
         style="font-size:10px;font-family:sans-serif;text-anchor:end;fill:#000000"
         id="text7116">
        <tspan
           x="56.333332"
           y="13.5"
           id="tspan7114">動作</tspan>
      </text>
    </g>
  </g>
  <g
     transform="translate(0,410.42154)"
     id="g7130">
    <g
       transform="scale(1.5)"
       id="g7128">
      <path
         d="m 0.5,14.5 v -4 a 4,4 90 0 1 4,-4 h 4 l 5,-6 5,6 h 9 30 4 a 4,4 90 0 1 4,4 v 4 4 4 a 4,4 90 0 1 -4,4 h -4 -30 -1 v 2 h -8 v -2 h -1 -4 a 5,5 90 0 0 -5,5 v 4 4 168 4 a 5,5 90 0 0 5,5 h 4 v 2 h 10 v -2 h 8 v 6 6 4 a 4,4 90 0 1 -4,4 h -4 -9 l -5,6 -5,-6 h -4 a 4,4 90 0 1 -4,-4 v -4 z"
         style="fill:#ffe05c;fill-opacity:1;stroke:#644300;stroke-width:1;stroke-linecap:round;stroke-opacity:1"
         id="path7122"
         inkscape:connector-curvature="0" />
      <text
         style="font-size:10px;font-family:sans-serif;text-anchor:start;fill:#000000"
         id="text7126">
        <tspan
           x="5.3333335"
           y="21.5"
           id="tspan7124">スタート</tspan>
      </text>
    </g>
  </g>
  <g
     transform="translate(467.73035,391.62208)"
     id="g7140">
    <g
       transform="scale(1.5)"
       id="g7138">
      <path
         d="m 0.5,14.5 v -4 a 4,4 90 0 1 4,-4 h 4 l 5,-6 5,6 h 9 30 4 a 4,4 90 0 1 4,4 v 4 4 4 a 4,4 90 0 1 -4,4 h -4 -30 -1 v 2 h -8 v -2 h -1 -4 a 5,5 90 0 0 -5,5 v 4 4 168 4 a 5,5 90 0 0 5,5 h 4 v 2 h 10 v -2 h 8 v 6 6 4 a 4,4 90 0 1 -4,4 h -4 -9 l -5,6 -5,-6 h -4 a 4,4 90 0 1 -4,-4 v -4 z"
         style="fill:#ffe05c;fill-opacity:1;stroke:#644300;stroke-width:1;stroke-linecap:round;stroke-opacity:1"
         id="path7132"
         inkscape:connector-curvature="0" />
      <text
         style="font-size:10px;font-family:sans-serif;text-anchor:start;fill:#000000"
         id="text7136">
        <tspan
           x="5.3333335"
           y="21.5"
           id="tspan7134">スタート</tspan>
      </text>
    </g>
  </g>
  <g
     transform="translate(13.5,450.92154)"
     id="g7154">
    <g
       transform="scale(1.5)"
       id="g7152">
      <path
         d="m 0.5,8.5 v -4 a 4,4 90 0 1 4,-4 h 4 v 2 h 10 v -2 h 9 20 4 a 4,4 90 0 1 4,4 v 4 h -4 v -3 h -4 v 10 h 4 v -3 h 4 v 4 a 4,4 90 0 1 -4,4 h -4 -20 -1 v 2 h -8 v -2 h -1 -4 a 5,5 90 0 0 -5,5 v 4 4 4 a 5,5 90 0 0 5,5 h 4 v 2 h 10 v -2 h 8 v 6 6 4 a 4,4 90 0 1 -4,4 h -4 -9 -1 v 2 h -8 v -2 h -1 -4 a 4,4 90 0 1 -4,-4 v -4 z"
         style="fill:#e9a066;fill-opacity:1;stroke:#3f0a00;stroke-width:1;stroke-linecap:round;stroke-opacity:1"
         id="path7142"
         inkscape:connector-curvature="0" />
      <text
         style="font-size:10px;font-family:sans-serif;text-anchor:start;fill:#000000"
         id="text7146">
        <tspan
           x="5.3333335"
           y="15.25"
           id="tspan7144">回繰り返す</tspan>
      </text>
      <text
         style="font-size:6.66666651px;font-family:sans-serif;text-anchor:end;fill:#000000"
         id="text7150">
        <tspan
           x="45.333332"
           y="11.25"
           id="tspan7148" />
      </text>
    </g>
  </g>
  <g
     transform="translate(85.5,450.92154)"
     id="g7164">
    <g
       transform="scale(1.5)"
       id="g7162">
      <path
         d="m 8.5,0.5 h 60 v 20 h -60 v -8 -1 h -6 v 3 h -2 v -8 h 2 v 3 h 6 v -1 z"
         style="fill:#ffb2bc;fill-opacity:1;stroke:#601136;stroke-width:1;stroke-linecap:round;stroke-opacity:1"
         id="path7156"
         inkscape:connector-curvature="0" />
      <text
         style="font-size:10px;font-family:sans-serif;text-anchor:start;fill:#000000"
         id="text7160">
        <tspan
           x="13.333333"
           y="13.833333"
           id="tspan7158">4</tspan>
      </text>
    </g>
  </g>
  <g
     transform="translate(27,482.42154)"
     id="g7174">
    <g
       transform="scale(1.5)"
       id="g7172">
      <path
         d="m 0.5,8.5 v -4 a 4,4 90 0 1 4,-4 h 4 v 2 h 10 v -2 h 40 4 a 4,4 90 0 1 4,4 v 4 4 4 a 4,4 90 0 1 -4,4 h -4 -40 -1 v 2 h -8 v -2 h -1 -4 a 4,4 90 0 1 -4,-4 v -4 z"
         style="fill:#ffe05c;fill-opacity:1;stroke:#644300;stroke-width:1;stroke-linecap:round;stroke-opacity:1"
         id="path7166"
         inkscape:connector-curvature="0" />
      <text
         style="font-size:10px;font-family:sans-serif;text-anchor:end;fill:#000000"
         id="text7170">
        <tspan
           x="56.333332"
           y="13.5"
           id="tspan7168">ディレイエフェクタ</tspan>
      </text>
    </g>
  </g>
  <g
     transform="translate(13.5,545.42154)"
     id="g7188">
    <g
       transform="scale(1.5)"
       id="g7186">
      <path
         d="m 0.5,8.5 v -4 a 4,4 90 0 1 4,-4 h 4 v 2 h 10 v -2 h 9 80.60059 4 a 4,4 90 0 1 4,4 v 4 h -4 v -3 h -4 v 10 h 4 v -3 h 4 v 4 a 4,4 90 0 1 -4,4 h -4 H 27.5 h -1 v 2 h -8 v -2 h -1 -4 a 5,5 90 0 0 -5,5 v 4 4 63 4 a 5,5 90 0 0 5,5 h 4 v 2 h 10 v -2 h 8 v 6 6 4 a 4,4 90 0 1 -4,4 h -4 -9 -1 v 2 h -8 v -2 h -1 -4 a 4,4 90 0 1 -4,-4 v -4 z"
         style="fill:#93e042;fill-opacity:1;stroke:#004000;stroke-width:1;stroke-linecap:round;stroke-opacity:1"
         id="path7176"
         inkscape:connector-curvature="0" />
      <text
         style="font-size:10px;font-family:sans-serif;text-anchor:start;fill:#000000"
         id="text7180">
        <tspan
           x="5.3333335"
           y="15.25"
           id="tspan7178">半音で移調</tspan>
      </text>
      <text
         style="font-size:6.66666651px;font-family:sans-serif;text-anchor:end;fill:#000000"
         id="text7184">
        <tspan
           x="105.93392"
           y="11.25"
           id="tspan7182" />
      </text>
    </g>
  </g>
  <g
     transform="translate(176.40088,545.42154)"
     id="g7206">
    <g
       transform="scale(1.5)"
       id="g7204">
      <path
         d="m 8.5,8.5 v -4 a 4,4 90 0 1 4,-4 h 4 10 30 4 a 4,4 90 0 1 4,4 v 4 h -4 v -3 h -4 v 10 h 4 v -3 h 4 v 17 h -4 v -3 h -4 v 10 h 4 v -3 h 4 v 4 a 4,4 90 0 1 -4,4 h -4 -30 -10 -4 a 4,4 90 0 1 -4,-4 v -4 -21 -1 h -6 v 3 h -2 v -8 h 2 v 3 h 6 z"
         style="fill:#ffb2bc;fill-opacity:1;stroke:#601136;stroke-width:1;stroke-linecap:round;stroke-opacity:1"
         id="path7190"
         inkscape:connector-curvature="0" />
      <text
         style="font-size:14px;font-family:sans-serif;text-anchor:end;fill:#000000"
         id="text7194">
        <tspan
           x="54.333332"
           y="23.799999"
           id="tspan7192">+</tspan>
      </text>
      <text
         style="font-size:9.33333302px;font-family:sans-serif;text-anchor:end;fill:#000000"
         id="text7198">
        <tspan
           x="54.333332"
           y="10.75"
           id="tspan7196" />
      </text>
      <text
         style="font-size:9.33333302px;font-family:sans-serif;text-anchor:end;fill:#000000"
         id="text7202">
        <tspan
           x="54.333332"
           y="31.75"
           id="tspan7200" />
      </text>
    </g>
  </g>
  <g
     transform="translate(261.90088,545.42154)"
     id="g7216">
    <g
       transform="scale(1.5)"
       id="g7214">
      <path
         d="m 8.5,0.5 h 60 v 20 h -60 v -8 -1 h -6 v 3 h -2 v -8 h 2 v 3 h 6 v -1 z"
         style="fill:#ffb2bc;fill-opacity:1;stroke:#601136;stroke-width:1;stroke-linecap:round;stroke-opacity:1"
         id="path7208"
         inkscape:connector-curvature="0" />
      <text
         style="font-size:10px;font-family:sans-serif;text-anchor:start;fill:#000000"
         id="text7212">
        <tspan
           x="13.333333"
           y="13.833333"
           id="tspan7210">0</tspan>
      </text>
    </g>
  </g>
  <g
     transform="translate(261.90088,576.92154)"
     id="g7234">
    <g
       transform="scale(1.5)"
       id="g7232">
      <path
         d="m 8.5,8.5 v -4 a 4,4 90 0 1 4,-4 h 4 10 30 4 a 4,4 90 0 1 4,4 v 4 h -4 v -3 h -4 v 10 h 4 v -3 h 4 v 17 h -4 v -3 h -4 v 10 h 4 v -3 h 4 v 4 a 4,4 90 0 1 -4,4 h -4 -30 -10 -4 a 4,4 90 0 1 -4,-4 v -4 -21 -1 h -6 v 3 h -2 v -8 h 2 v 3 h 6 z"
         style="fill:#ffb2bc;fill-opacity:1;stroke:#601136;stroke-width:1;stroke-linecap:round;stroke-opacity:1"
         id="path7218"
         inkscape:connector-curvature="0" />
      <text
         style="font-size:14px;font-family:sans-serif;text-anchor:end;fill:#000000"
         id="text7222">
        <tspan
           x="54.333332"
           y="23.799999"
           id="tspan7220">×</tspan>
      </text>
      <text
         style="font-size:9.33333302px;font-family:sans-serif;text-anchor:end;fill:#000000"
         id="text7226">
        <tspan
           x="54.333332"
           y="10.75"
           id="tspan7224" />
      </text>
      <text
         style="font-size:9.33333302px;font-family:sans-serif;text-anchor:end;fill:#000000"
         id="text7230">
        <tspan
           x="54.333332"
           y="31.75"
           id="tspan7228" />
      </text>
    </g>
  </g>
  <g
     transform="translate(347.40088,576.92154)"
     id="g7244">
    <g
       transform="scale(1.5)"
       id="g7242">
      <path
         d="m 8.5,0.5 h 60 v 20 h -60 v -8 -1 h -6 v 3 h -2 v -8 h 2 v 3 h 6 v -1 z"
         style="fill:#ffb2bc;fill-opacity:1;stroke:#601136;stroke-width:1;stroke-linecap:round;stroke-opacity:1"
         id="path7236"
         inkscape:connector-curvature="0" />
      <text
         style="font-size:10px;font-family:sans-serif;text-anchor:start;fill:#000000"
         id="text7240">
        <tspan
           x="13.333333"
           y="13.833333"
           id="tspan7238">1</tspan>
      </text>
    </g>
  </g>
  <g
     transform="translate(347.40088,608.42154)"
     id="g7254">
    <g
       transform="scale(1.5)"
       id="g7252">
      <path
         d="m 8.5,0.5 h 60 v 20 h -60 v -8 -1 h -6 v 3 h -2 v -8 h 2 v 3 h 6 v -1 z"
         style="fill:#ffb2bc;fill-opacity:1;stroke:#601136;stroke-width:1;stroke-linecap:round;stroke-opacity:1"
         id="path7246"
         inkscape:connector-curvature="0" />
      <text
         style="font-size:10px;font-family:sans-serif;text-anchor:start;fill:#000000"
         id="text7250">
        <tspan
           x="13.333333"
           y="13.833333"
           id="tspan7248">12</tspan>
      </text>
    </g>
  </g>
  <g
     transform="translate(27,576.92154)"
     id="g7264">
    <g
       transform="scale(1.5)"
       id="g7262">
      <path
         d="m 0.5,8.5 v -4 a 4,4 90 0 1 4,-4 h 4 v 2 h 10 v -2 h 20 4 a 4,4 90 0 1 4,4 v 4 4 4 a 4,4 90 0 1 -4,4 h -4 -20 -1 v 2 h -8 v -2 h -1 -4 a 4,4 90 0 1 -4,-4 v -4 z"
         style="fill:#d57e6f;fill-opacity:1;stroke:#000000;stroke-width:1;stroke-linecap:round;stroke-opacity:1"
         id="path7256"
         inkscape:connector-curvature="0" />
      <text
         style="font-size:10px;font-family:sans-serif;text-anchor:end;fill:#000000"
         id="text7260">
        <tspan
           x="36.333332"
           y="13.5"
           id="tspan7258">↓</tspan>
      </text>
    </g>
  </g>
  <g
     transform="translate(27,608.42154)"
     id="g7278">
    <g
       transform="scale(1.5)"
       id="g7276">
      <path
         d="m 0.5,8.5 v -4 a 4,4 90 0 1 4,-4 h 4 v 2 h 10 v -2 h 9 20 4 a 4,4 90 0 1 4,4 v 4 h -4 v -3 h -4 v 10 h 4 v -3 h 4 v 4 a 4,4 90 0 1 -4,4 h -4 -20 -1 v 2 h -8 v -2 h -1 -4 a 5,5 90 0 0 -5,5 v 4 4 4 a 5,5 90 0 0 5,5 h 4 v 2 h 10 v -2 h 8 v 6 6 4 a 4,4 90 0 1 -4,4 h -4 -9 -1 v 2 h -8 v -2 h -1 -4 a 4,4 90 0 1 -4,-4 v -4 z"
         style="fill:#e9a066;fill-opacity:1;stroke:#3f0a00;stroke-width:1;stroke-linecap:round;stroke-opacity:1"
         id="path7266"
         inkscape:connector-curvature="0" />
      <text
         style="font-size:10px;font-family:sans-serif;text-anchor:start;fill:#000000"
         id="text7270">
        <tspan
           x="5.3333335"
           y="15.25"
           id="tspan7268">回繰り返す</tspan>
      </text>
      <text
         style="font-size:6.66666651px;font-family:sans-serif;text-anchor:end;fill:#000000"
         id="text7274">
        <tspan
           x="45.333332"
           y="11.25"
           id="tspan7272" />
      </text>
    </g>
  </g>
  <g
     transform="translate(99,608.42154)"
     id="g7288">
    <g
       transform="scale(1.5)"
       id="g7286">
      <path
         d="m 8.5,0.5 h 60 v 20 h -60 v -8 -1 h -6 v 3 h -2 v -8 h 2 v 3 h 6 v -1 z"
         style="fill:#ffb2bc;fill-opacity:1;stroke:#601136;stroke-width:1;stroke-linecap:round;stroke-opacity:1"
         id="path7280"
         inkscape:connector-curvature="0" />
      <text
         style="font-size:10px;font-family:sans-serif;text-anchor:start;fill:#000000"
         id="text7284">
        <tspan
           x="13.333333"
           y="13.833333"
           id="tspan7282">4</tspan>
      </text>
    </g>
  </g>
  <g
     transform="translate(40.5,639.92154)"
     id="g7298">
    <g
       transform="scale(1.5)"
       id="g7296">
      <path
         d="m 0.5,8.5 v -4 a 4,4 90 0 1 4,-4 h 4 v 2 h 10 v -2 h 40 4 a 4,4 90 0 1 4,4 v 4 4 4 a 4,4 90 0 1 -4,4 h -4 -40 -1 v 2 h -8 v -2 h -1 -4 a 4,4 90 0 1 -4,-4 v -4 z"
         style="fill:#ffe05c;fill-opacity:1;stroke:#644300;stroke-width:1;stroke-linecap:round;stroke-opacity:1"
         id="path7290"
         inkscape:connector-curvature="0" />
      <text
         style="font-size:10px;font-family:sans-serif;text-anchor:end;fill:#000000"
         id="text7294">
        <tspan
           x="56.333332"
           y="13.5"
           id="tspan7292">動作</tspan>
      </text>
    </g>
  </g>
  <g
     transform="translate(479.73035,430.62208)"
     id="g7312">
    <g
       transform="scale(1.5)"
       id="g7310">
      <path
         d="m 0.5,8.5 v -4 a 4,4 90 0 1 4,-4 h 4 v 2 h 10 v -2 h 9 20 4 a 4,4 90 0 1 4,4 v 4 h -4 v -3 h -4 v 10 h 4 v -3 h 4 v 4 a 4,4 90 0 1 -4,4 h -4 -20 -1 v 2 h -8 v -2 h -1 -4 a 5,5 90 0 0 -5,5 v 4 4 4 a 5,5 90 0 0 5,5 h 4 v 2 h 10 v -2 h 8 v 6 6 4 a 4,4 90 0 1 -4,4 h -4 -9 -1 v 2 h -8 v -2 h -1 -4 a 4,4 90 0 1 -4,-4 v -4 z"
         style="fill:#e9a066;fill-opacity:1;stroke:#3f0a00;stroke-width:1;stroke-linecap:round;stroke-opacity:1"
         id="path7300"
         inkscape:connector-curvature="0" />
      <text
         style="font-size:10px;font-family:sans-serif;text-anchor:start;fill:#000000"
         id="text7304">
        <tspan
           x="5.3333335"
           y="15.25"
           id="tspan7302">回繰り返す</tspan>
      </text>
      <text
         style="font-size:6.66666651px;font-family:sans-serif;text-anchor:end;fill:#000000"
         id="text7308">
        <tspan
           x="45.333332"
           y="11.25"
           id="tspan7306" />
      </text>
    </g>
  </g>
  <g
     transform="translate(550.23035,432.12208)"
     id="g7322">
    <g
       transform="scale(1.5)"
       id="g7320">
      <path
         d="m 8.5,0.5 h 60 v 20 h -60 v -8 -1 h -6 v 3 h -2 v -8 h 2 v 3 h 6 v -1 z"
         style="fill:#ffb2bc;fill-opacity:1;stroke:#601136;stroke-width:1;stroke-linecap:round;stroke-opacity:1"
         id="path7314"
         inkscape:connector-curvature="0" />
      <text
         style="font-size:10px;font-family:sans-serif;text-anchor:start;fill:#000000"
         id="text7318">
        <tspan
           x="13.333333"
           y="13.833333"
           id="tspan7316">6</tspan>
      </text>
    </g>
  </g>
  <g
     transform="translate(491.73035,460.62208)"
     id="g7332">
    <g
       transform="scale(1.5)"
       id="g7330">
      <path
         d="m 0.5,8.5 v -4 a 4,4 90 0 1 4,-4 h 4 v 2 h 10 v -2 h 40 4 a 4,4 90 0 1 4,4 v 4 4 4 a 4,4 90 0 1 -4,4 h -4 -40 -1 v 2 h -8 v -2 h -1 -4 a 4,4 90 0 1 -4,-4 v -4 z"
         style="fill:#ffe05c;fill-opacity:1;stroke:#644300;stroke-width:1;stroke-linecap:round;stroke-opacity:1"
         id="path7324"
         inkscape:connector-curvature="0" />
      <text
         style="font-size:10px;font-family:sans-serif;text-anchor:end;fill:#000000"
         id="text7328">
        <tspan
           x="56.333332"
           y="13.5"
           id="tspan7326">ディレイエフェクタ</tspan>
      </text>
    </g>
  </g>
  <g
     transform="translate(478.23035,523.62208)"
     id="g7346">
    <g
       transform="scale(1.5)"
       id="g7344">
      <path
         d="m 0.5,8.5 v -4 a 4,4 90 0 1 4,-4 h 4 v 2 h 10 v -2 h 9 80.60059 4 a 4,4 90 0 1 4,4 v 4 h -4 v -3 h -4 v 10 h 4 v -3 h 4 v 4 a 4,4 90 0 1 -4,4 h -4 H 27.5 h -1 v 2 h -8 v -2 h -1 -4 a 5,5 90 0 0 -5,5 v 4 4 63 4 a 5,5 90 0 0 5,5 h 4 v 2 h 10 v -2 h 8 v 6 6 4 a 4,4 90 0 1 -4,4 h -4 -9 -1 v 2 h -8 v -2 h -1 -4 a 4,4 90 0 1 -4,-4 v -4 z"
         style="fill:#93e042;fill-opacity:1;stroke:#004000;stroke-width:1;stroke-linecap:round;stroke-opacity:1"
         id="path7334"
         inkscape:connector-curvature="0" />
      <text
         style="font-size:10px;font-family:sans-serif;text-anchor:start;fill:#000000"
         id="text7338">
        <tspan
           x="5.3333335"
           y="15.25"
           id="tspan7336">半音で移調</tspan>
      </text>
      <text
         style="font-size:6.66666651px;font-family:sans-serif;text-anchor:end;fill:#000000"
         id="text7342">
        <tspan
           x="105.93392"
           y="11.25"
           id="tspan7340" />
      </text>
    </g>
  </g>
  <g
     transform="translate(641.30176,530.92154)"
     id="g7364">
    <g
       transform="scale(1.5)"
       id="g7362">
      <path
         d="m 8.5,8.5 v -4 a 4,4 90 0 1 4,-4 h 4 10 30 4 a 4,4 90 0 1 4,4 v 4 h -4 v -3 h -4 v 10 h 4 v -3 h 4 v 17 h -4 v -3 h -4 v 10 h 4 v -3 h 4 v 4 a 4,4 90 0 1 -4,4 h -4 -30 -10 -4 a 4,4 90 0 1 -4,-4 v -4 -21 -1 h -6 v 3 h -2 v -8 h 2 v 3 h 6 z"
         style="fill:#ffb2bc;fill-opacity:1;stroke:#601136;stroke-width:1;stroke-linecap:round;stroke-opacity:1"
         id="path7348"
         inkscape:connector-curvature="0" />
      <text
         style="font-size:14px;font-family:sans-serif;text-anchor:end;fill:#000000"
         id="text7352">
        <tspan
           x="54.333332"
           y="23.799999"
           id="tspan7350">+</tspan>
      </text>
      <text
         style="font-size:9.33333302px;font-family:sans-serif;text-anchor:end;fill:#000000"
         id="text7356">
        <tspan
           x="54.333332"
           y="10.75"
           id="tspan7354" />
      </text>
      <text
         style="font-size:9.33333302px;font-family:sans-serif;text-anchor:end;fill:#000000"
         id="text7360">
        <tspan
           x="54.333332"
           y="31.75"
           id="tspan7358" />
      </text>
    </g>
  </g>
  <g
     transform="translate(725.30176,529.42154)"
     id="g7374">
    <g
       transform="scale(1.5)"
       id="g7372">
      <path
         d="m 8.5,0.5 h 60 v 20 h -60 v -8 -1 h -6 v 3 h -2 v -8 h 2 v 3 h 6 v -1 z"
         style="fill:#ffb2bc;fill-opacity:1;stroke:#601136;stroke-width:1;stroke-linecap:round;stroke-opacity:1"
         id="path7366"
         inkscape:connector-curvature="0" />
      <text
         style="font-size:10px;font-family:sans-serif;text-anchor:start;fill:#000000"
         id="text7370">
        <tspan
           x="13.333333"
           y="13.833333"
           id="tspan7368">0</tspan>
      </text>
    </g>
  </g>
  <g
     transform="translate(725.30176,560.92154)"
     id="g7392">
    <g
       transform="scale(1.5)"
       id="g7390">
      <path
         d="m 8.5,8.5 v -4 a 4,4 90 0 1 4,-4 h 4 10 30 4 a 4,4 90 0 1 4,4 v 4 h -4 v -3 h -4 v 10 h 4 v -3 h 4 v 17 h -4 v -3 h -4 v 10 h 4 v -3 h 4 v 4 a 4,4 90 0 1 -4,4 h -4 -30 -10 -4 a 4,4 90 0 1 -4,-4 v -4 -21 -1 h -6 v 3 h -2 v -8 h 2 v 3 h 6 z"
         style="fill:#ffb2bc;fill-opacity:1;stroke:#601136;stroke-width:1;stroke-linecap:round;stroke-opacity:1"
         id="path7376"
         inkscape:connector-curvature="0" />
      <text
         style="font-size:14px;font-family:sans-serif;text-anchor:end;fill:#000000"
         id="text7380">
        <tspan
           x="54.333332"
           y="23.799999"
           id="tspan7378">×</tspan>
      </text>
      <text
         style="font-size:9.33333302px;font-family:sans-serif;text-anchor:end;fill:#000000"
         id="text7384">
        <tspan
           x="54.333332"
           y="10.75"
           id="tspan7382" />
      </text>
      <text
         style="font-size:9.33333302px;font-family:sans-serif;text-anchor:end;fill:#000000"
         id="text7388">
        <tspan
           x="54.333332"
           y="31.75"
           id="tspan7386" />
      </text>
    </g>
  </g>
  <g
     transform="translate(809.30176,562.42154)"
     id="g7402">
    <g
       transform="scale(1.5)"
       id="g7400">
      <path
         d="m 8.5,0.5 h 60 v 20 h -60 v -8 -1 h -6 v 3 h -2 v -8 h 2 v 3 h 6 v -1 z"
         style="fill:#ffb2bc;fill-opacity:1;stroke:#601136;stroke-width:1;stroke-linecap:round;stroke-opacity:1"
         id="path7394"
         inkscape:connector-curvature="0" />
      <text
         style="font-size:10px;font-family:sans-serif;text-anchor:start;fill:#000000"
         id="text7398">
        <tspan
           x="13.333333"
           y="13.833333"
           id="tspan7396">-2</tspan>
      </text>
    </g>
  </g>
  <g
     transform="translate(809.30176,592.42154)"
     id="g7412">
    <g
       transform="scale(1.5)"
       id="g7410">
      <path
         d="m 8.5,0.5 h 60 v 20 h -60 v -8 -1 h -6 v 3 h -2 v -8 h 2 v 3 h 6 v -1 z"
         style="fill:#ffb2bc;fill-opacity:1;stroke:#601136;stroke-width:1;stroke-linecap:round;stroke-opacity:1"
         id="path7404"
         inkscape:connector-curvature="0" />
      <text
         style="font-size:10px;font-family:sans-serif;text-anchor:start;fill:#000000"
         id="text7408">
        <tspan
           x="13.333333"
           y="13.833333"
           id="tspan7406">12</tspan>
      </text>
    </g>
  </g>
  <g
     transform="translate(490.40088,563.92154)"
     id="g7422">
    <g
       transform="scale(1.5)"
       id="g7420">
      <path
         d="m 0.5,8.5 v -4 a 4,4 90 0 1 4,-4 h 4 v 2 h 10 v -2 h 20 4 a 4,4 90 0 1 4,4 v 4 4 4 a 4,4 90 0 1 -4,4 h -4 -20 -1 v 2 h -8 v -2 h -1 -4 a 4,4 90 0 1 -4,-4 v -4 z"
         style="fill:#d57e6f;fill-opacity:1;stroke:#000000;stroke-width:1;stroke-linecap:round;stroke-opacity:1"
         id="path7414"
         inkscape:connector-curvature="0" />
      <text
         style="font-size:10px;font-family:sans-serif;text-anchor:end;fill:#000000"
         id="text7418">
        <tspan
           x="36.333332"
           y="13.5"
           id="tspan7416">↓</tspan>
      </text>
    </g>
  </g>
  <g
     transform="translate(488.90088,593.92154)"
     id="g7436">
    <g
       transform="scale(1.5)"
       id="g7434">
      <path
         d="m 0.5,8.5 v -4 a 4,4 90 0 1 4,-4 h 4 v 2 h 10 v -2 h 9 20 4 a 4,4 90 0 1 4,4 v 4 h -4 v -3 h -4 v 10 h 4 v -3 h 4 v 4 a 4,4 90 0 1 -4,4 h -4 -20 -1 v 2 h -8 v -2 h -1 -4 a 5,5 90 0 0 -5,5 v 4 4 4 a 5,5 90 0 0 5,5 h 4 v 2 h 10 v -2 h 8 v 6 6 4 a 4,4 90 0 1 -4,4 h -4 -9 -1 v 2 h -8 v -2 h -1 -4 a 4,4 90 0 1 -4,-4 v -4 z"
         style="fill:#e9a066;fill-opacity:1;stroke:#3f0a00;stroke-width:1;stroke-linecap:round;stroke-opacity:1"
         id="path7424"
         inkscape:connector-curvature="0" />
      <text
         style="font-size:10px;font-family:sans-serif;text-anchor:start;fill:#000000"
         id="text7428">
        <tspan
           x="5.3333335"
           y="15.25"
           id="tspan7426">回繰り返す</tspan>
      </text>
      <text
         style="font-size:6.66666651px;font-family:sans-serif;text-anchor:end;fill:#000000"
         id="text7432">
        <tspan
           x="45.333332"
           y="11.25"
           id="tspan7430" />
      </text>
    </g>
  </g>
  <g
     transform="translate(559.40088,595.42154)"
     id="g7446">
    <g
       transform="scale(1.5)"
       id="g7444">
      <path
         d="m 8.5,0.5 h 60 v 20 h -60 v -8 -1 h -6 v 3 h -2 v -8 h 2 v 3 h 6 v -1 z"
         style="fill:#ffb2bc;fill-opacity:1;stroke:#601136;stroke-width:1;stroke-linecap:round;stroke-opacity:1"
         id="path7438"
         inkscape:connector-curvature="0" />
      <text
         style="font-size:10px;font-family:sans-serif;text-anchor:start;fill:#000000"
         id="text7442">
        <tspan
           x="13.333333"
           y="13.833333"
           id="tspan7440">4</tspan>
      </text>
    </g>
  </g>
  <g
     transform="translate(500.90088,626.92154)"
     id="g7456">
    <g
       transform="scale(1.5)"
       id="g7454">
      <path
         d="m 0.5,8.5 v -4 a 4,4 90 0 1 4,-4 h 4 v 2 h 10 v -2 h 40 4 a 4,4 90 0 1 4,4 v 4 4 4 a 4,4 90 0 1 -4,4 h -4 -40 -1 v 2 h -8 v -2 h -1 -4 a 4,4 90 0 1 -4,-4 v -4 z"
         style="fill:#ffe05c;fill-opacity:1;stroke:#644300;stroke-width:1;stroke-linecap:round;stroke-opacity:1"
         id="path7448"
         inkscape:connector-curvature="0" />
      <text
         style="font-size:10px;font-family:sans-serif;text-anchor:end;fill:#000000"
         id="text7452">
        <tspan
           x="56.333332"
           y="13.5"
           id="tspan7450">動作</tspan>
      </text>
    </g>
  </g>
</svg>
