<?xml version="1.0" encoding="UTF-8" standalone="no"?>
<svg
   xmlns:dc="http://purl.org/dc/elements/1.1/"
   xmlns:cc="http://creativecommons.org/ns#"
   xmlns:rdf="http://www.w3.org/1999/02/22-rdf-syntax-ns#"
   xmlns:svg="http://www.w3.org/2000/svg"
   xmlns="http://www.w3.org/2000/svg"
   xmlns:sodipodi="http://sodipodi.sourceforge.net/DTD/sodipodi-0.dtd"
   xmlns:inkscape="http://www.inkscape.org/namespaces/inkscape"
   width="768"
   height="584"
   version="1.1"
   id="svg10429"
   sodipodi:docname="drum4.svg"
   inkscape:version="0.92.3 (2405546, 2018-03-11)">
  <metadata
     id="metadata10435">
    <rdf:RDF>
      <cc:Work
         rdf:about="">
        <dc:format>image/svg+xml</dc:format>
        <dc:type
           rdf:resource="http://purl.org/dc/dcmitype/StillImage" />
      </cc:Work>
    </rdf:RDF>
  </metadata>
  <defs
     id="defs10433" />
  <sodipodi:namedview
     pagecolor="#ffffff"
     bordercolor="#666666"
     borderopacity="1"
     objecttolerance="10"
     gridtolerance="10"
     guidetolerance="10"
     inkscape:pageopacity="0"
     inkscape:pageshadow="2"
     inkscape:window-width="1920"
     inkscape:window-height="1001"
     id="namedview10431"
     showgrid="false"
     inkscape:zoom="9.1439564"
     inkscape:cx="130.03657"
     inkscape:cy="544.01632"
     inkscape:window-x="-9"
     inkscape:window-y="-9"
     inkscape:window-maximized="1"
     inkscape:current-layer="svg_1" />
  <rect
     id="backgroundrect"
     width="100%"
     height="100%"
     x="0"
     y="0"
     fill="none"
     stroke="none" />
  <g
     class="currentLayer"
     style=""
     id="g10427">
    <title
       id="title10069">Layer 1</title>
    <g
       id="svg_1"
       class="">
      <g
         id="svg_2">
        <g
           transform="translate(335,-72) scale(1.5) "
           id="svg_3">
          <path
             d="m-222.8333282470703,62 L-222.8333282470703,58 A4,4 90 0 1 -218.8333282470703,54 L-214.8333282470703,54 L-209.8333282470703,48 L-204.8333282470703,54 L-195.8333282470703,54 L-135.8333282470703,54 L-131.8333282470703,54 A4,4 90 0 1 -127.83332824707031,58 L-127.83332824707031,62 L-127.83332824707031,66 L-127.83332824707031,70 A4,4 90 0 1 -131.8333282470703,74 L-135.8333282470703,74 L-195.8333282470703,74 L-196.8333282470703,74 L-196.8333282470703,76 L-204.8333282470703,76 L-204.8333282470703,74 L-205.8333282470703,74 L-209.8333282470703,74 A5,5 90 0 0 -214.8333282470703,79 L-214.8333282470703,83 L-214.8333282470703,87 L-214.8333282470703,276 L-214.8333282470703,280 A5,5 90 0 0 -209.8333282470703,285 L-205.8333282470703,285 L-205.8333282470703,287 L-195.8333282470703,287 L-195.8333282470703,285 L-187.8333282470703,285 L-187.8333282470703,291 L-187.8333282470703,297 L-187.8333282470703,301 A4,4 90 0 1 -191.8333282470703,305 L-195.8333282470703,305 L-204.8333282470703,305 L-209.8333282470703,311 L-214.8333282470703,305 L-218.8333282470703,305 A4,4 90 0 1 -222.8333282470703,301 L-222.8333282470703,297 z"
             style="fill:#DAA926;fill-opacity:1;stroke:#DAAF30;stroke-width:1;stroke-linecap:round;stroke-opacity:1;"
             id="svg_4" />
          <text
             style="font-size:10px;fill:#282828;font-family:sans-serif;text-anchor:start"
             id="svg_5"
             y="47.5"
             x="-223.3333282470703">
            <tspan
               x="-203.3333282470703"
               y="69.5"
               id="svg_6">start</tspan>
          </text>
        </g>
      </g>
    </g>
    <g
       id="svg_15"
       class="">
      <g
         id="svg_16">
        <g
           transform="translate(782,-31) scale(1.5) "
           id="svg_17">
          <path
             d="m-222.8333282470703,56 L-222.8333282470703,52 A4,4 90 0 1 -218.8333282470703,48 L-214.8333282470703,48 L-214.8333282470703,50 L-204.8333282470703,50 L-204.8333282470703,48 L-195.8333282470703,48 L-135.8333282470703,48 L-131.8333282470703,48 A4,4 90 0 1 -127.83332824707031,52 L-127.83332824707031,56 L-131.8333282470703,56 L-131.8333282470703,53 L-135.8333282470703,53 L-135.8333282470703,63 L-131.8333282470703,63 L-131.8333282470703,60 L-127.83332824707031,60 L-127.83332824707031,64 A4,4 90 0 1 -131.8333282470703,68 L-135.8333282470703,68 L-195.8333282470703,68 L-196.8333282470703,68 L-196.8333282470703,70 L-204.8333282470703,70 L-204.8333282470703,68 L-205.8333282470703,68 L-209.8333282470703,68 A5,5 90 0 0 -214.8333282470703,73 L-214.8333282470703,77 L-214.8333282470703,81 L-214.8333282470703,102 L-214.8333282470703,106 A5,5 90 0 0 -209.8333282470703,111 L-205.8333282470703,111 L-205.8333282470703,113 L-195.8333282470703,113 L-195.8333282470703,111 L-187.8333282470703,111 L-187.8333282470703,117 L-187.8333282470703,123 L-187.8333282470703,127 A4,4 90 0 1 -191.8333282470703,131 L-195.8333282470703,131 L-204.8333282470703,131 L-205.8333282470703,131 L-205.8333282470703,133 L-213.8333282470703,133 L-213.8333282470703,131 L-214.8333282470703,131 L-218.8333282470703,131 A4,4 90 0 1 -222.8333282470703,127 L-222.8333282470703,123 z"
             style="fill:#FF8B2D;fill-opacity:1;stroke:#E86B0E;stroke-width:1;stroke-linecap:round;stroke-opacity:1;"
             id="svg_18" />
          <text
             style="font-size:10px;fill:#282828;font-family:sans-serif;text-anchor:start"
             id="svg_19"
             y="47.5"
             x="-223.3333282470703">
            <tspan
               x="-203.3333282470703"
               y="62.5"
               id="svg_20">note</tspan>
          </text>
          <text
             style="font-size:6.666666666666667px;fill:#282828;font-family:sans-serif;text-anchor:end"
             id="svg_21"
             y="47.5"
             x="-223.3333282470703">
            <tspan
               x="-138.3333282470703"
               y="59.5"
               id="svg_22">value</tspan>
          </text>
        </g>
      </g>
    </g>
    <g
       id="svg_30"
       class="">
      <g
         transform="translate(914,-31) scale(1.5) "
         id="svg_31">
        <path
           d="m-214.8333282470703,56 L-214.8333282470703,52 A4,4 90 0 1 -210.8333282470703,48 L-206.8333282470703,48 L-196.8333282470703,48 L-166.8333282470703,48 L-162.8333282470703,48 A4,4 90 0 1 -158.8333282470703,52 L-158.8333282470703,56 L-162.8333282470703,56 L-162.8333282470703,53 L-166.8333282470703,53 L-166.8333282470703,63 L-162.8333282470703,63 L-162.8333282470703,60 L-158.8333282470703,60 L-158.8333282470703,77 L-162.8333282470703,77 L-162.8333282470703,74 L-166.8333282470703,74 L-166.8333282470703,84 L-162.8333282470703,84 L-162.8333282470703,81 L-158.8333282470703,81 L-158.8333282470703,85 A4,4 90 0 1 -162.8333282470703,89 L-166.8333282470703,89 L-196.8333282470703,89 L-206.8333282470703,89 L-210.8333282470703,89 A4,4 90 0 1 -214.8333282470703,85 L-214.8333282470703,81 L-214.8333282470703,60 L-214.8333282470703,59 L-220.8333282470703,59 L-220.8333282470703,62 L-222.8333282470703,62 L-222.8333282470703,54 L-220.8333282470703,54 L-220.8333282470703,57 L-214.8333282470703,57 L-214.8333282470703,56 z"
           style="fill:#FF5293;fill-opacity:1;stroke:#FF2C76;stroke-width:1;stroke-linecap:round;stroke-opacity:1;"
           id="svg_32" />
        <text
           style="font-size:9px;fill:#282828;font-family:sans-serif;text-anchor:end"
           id="svg_33"
           y="47.5"
           x="-223.3333282470703">
          <tspan
             x="-169.3333282470703"
             y="70.5"
             id="svg_34">/</tspan>
        </text>
        <text
           style="font-size:6px;fill:#282828;font-family:sans-serif;text-anchor:end"
           id="svg_35"
           y="47.5"
           x="-223.3333282470703" />
        <text
           style="font-size:6px;fill:#282828;font-family:sans-serif;text-anchor:end"
           id="svg_37"
           y="47.5"
           x="-223.3333282470703" />
      </g>
    </g>
    <g
       id="svg_39"
       class="">
      <g
         transform="translate(1000,-31) scale(1.5) "
         id="svg_40">
        <path
           d="m-214.8333282470703,48 L-154.8333282470703,48 L-154.8333282470703,68 L-214.8333282470703,68 L-214.8333282470703,60 L-214.8333282470703,59 L-220.8333282470703,59 L-220.8333282470703,62 L-222.8333282470703,62 L-222.8333282470703,54 L-220.8333282470703,54 L-220.8333282470703,57 L-214.8333282470703,57 L-214.8333282470703,56 z"
           style="fill:#FF5293;fill-opacity:1;stroke:#FF2C76;stroke-width:1;stroke-linecap:round;stroke-opacity:1;"
           id="svg_41" />
        <text
           style="font-size:10px;fill:#282828;font-family:sans-serif;text-anchor:start"
           id="svg_42"
           y="47.5"
           x="-223.3333282470703">
          <tspan
             x="-210.3333282470703"
             y="61.5"
             id="svg_43">1</tspan>
        </text>
      </g>
    </g>
    <g
       id="svg_44"
       class="">
      <g
         transform="translate(1000,1) scale(1.5) "
         id="svg_45">
        <path
           d="m-214.8333282470703,48 L-154.8333282470703,48 L-154.8333282470703,68 L-214.8333282470703,68 L-214.8333282470703,60 L-214.8333282470703,59 L-220.8333282470703,59 L-220.8333282470703,62 L-222.8333282470703,62 L-222.8333282470703,54 L-220.8333282470703,54 L-220.8333282470703,57 L-214.8333282470703,57 L-214.8333282470703,56 z"
           style="fill:#FF5293;fill-opacity:1;stroke:#FF2C76;stroke-width:1;stroke-linecap:round;stroke-opacity:1;"
           id="svg_46" />
        <text
           style="font-size:10px;fill:#282828;font-family:sans-serif;text-anchor:start"
           id="svg_47"
           y="47.5"
           x="-223.3333282470703">
          <tspan
             x="-210.3333282470703"
             y="61.5"
             id="svg_48">4</tspan>
        </text>
      </g>
    </g>
    <g
       id="svg_49"
       class="">
      <g
         transform="translate(796,1) scale(1.5) "
         id="svg_50">
        <path
           d="m-222.8333282470703,56 L-222.8333282470703,52 A4,4 90 0 1 -218.8333282470703,48 L-214.8333282470703,48 L-214.8333282470703,50 L-204.8333282470703,50 L-204.8333282470703,48 L-184.8333282470703,48 L-180.8333282470703,48 A4,4 90 0 1 -176.8333282470703,52 L-176.8333282470703,56 L-176.8333282470703,60 L-176.8333282470703,64 A4,4 90 0 1 -180.8333282470703,68 L-184.8333282470703,68 L-204.8333282470703,68 L-205.8333282470703,68 L-205.8333282470703,70 L-213.8333282470703,70 L-213.8333282470703,68 L-214.8333282470703,68 L-218.8333282470703,68 A4,4 90 0 1 -222.8333282470703,64 L-222.8333282470703,60 z"
           style="fill:#B0B0B0;fill-opacity:1;stroke:#A0A0A0;stroke-width:1;stroke-linecap:round;stroke-opacity:1;"
           id="svg_51" />
        <text
           style="font-size:10px;fill:#282828;font-family:sans-serif;text-anchor:end"
           id="svg_52"
           y="47.5"
           x="-223.3333282470703">
          <tspan
             x="-187.3333282470703"
             y="61.5"
             id="svg_53">↓</tspan>
        </text>
      </g>
    </g>
    <g
       id="svg_54"
       class="">
      <g
         id="svg_55">
        <g
           transform="translate(782,221) scale(1.5) "
           id="svg_56">
          <path
             d="m-222.8333282470703,56 L-222.8333282470703,52 A4,4 90 0 1 -218.8333282470703,48 L-214.8333282470703,48 L-214.8333282470703,50 L-204.8333282470703,50 L-204.8333282470703,48 L-195.8333282470703,48 L-135.8333282470703,48 L-131.8333282470703,48 A4,4 90 0 1 -127.83332824707031,52 L-127.83332824707031,56 L-131.8333282470703,56 L-131.8333282470703,53 L-135.8333282470703,53 L-135.8333282470703,63 L-131.8333282470703,63 L-131.8333282470703,60 L-127.83332824707031,60 L-127.83332824707031,64 A4,4 90 0 1 -131.8333282470703,68 L-135.8333282470703,68 L-195.8333282470703,68 L-196.8333282470703,68 L-196.8333282470703,70 L-204.8333282470703,70 L-204.8333282470703,68 L-205.8333282470703,68 L-209.8333282470703,68 A5,5 90 0 0 -214.8333282470703,73 L-214.8333282470703,77 L-214.8333282470703,81 L-214.8333282470703,102 L-214.8333282470703,106 A5,5 90 0 0 -209.8333282470703,111 L-205.8333282470703,111 L-205.8333282470703,113 L-195.8333282470703,113 L-195.8333282470703,111 L-187.8333282470703,111 L-187.8333282470703,117 L-187.8333282470703,123 L-187.8333282470703,127 A4,4 90 0 1 -191.8333282470703,131 L-195.8333282470703,131 L-204.8333282470703,131 L-205.8333282470703,131 L-205.8333282470703,133 L-213.8333282470703,133 L-213.8333282470703,131 L-214.8333282470703,131 L-218.8333282470703,131 A4,4 90 0 1 -222.8333282470703,127 L-222.8333282470703,123 z"
             style="fill:#FF8B2D;fill-opacity:1;stroke:#E86B0E;stroke-width:1;stroke-linecap:round;stroke-opacity:1;"
             id="svg_57" />
          <text
             style="font-size:10px;fill:#282828;font-family:sans-serif;text-anchor:start"
             id="svg_58"
             y="47.5"
             x="-223.3333282470703">
            <tspan
               x="-203.3333282470703"
               y="62.5"
               id="svg_59">note</tspan>
          </text>
          <text
             style="font-size:6.666666666666667px;fill:#282828;font-family:sans-serif;text-anchor:end"
             id="svg_60"
             y="47.5"
             x="-223.3333282470703">
            <tspan
               x="-138.3333282470703"
               y="59.5"
               id="svg_61">value</tspan>
          </text>
        </g>
      </g>
    </g>
    <g
       id="svg_69"
       class="">
      <g
         transform="translate(914,221) scale(1.5) "
         id="svg_70">
        <path
           d="m-214.8333282470703,56 L-214.8333282470703,52 A4,4 90 0 1 -210.8333282470703,48 L-206.8333282470703,48 L-196.8333282470703,48 L-166.8333282470703,48 L-162.8333282470703,48 A4,4 90 0 1 -158.8333282470703,52 L-158.8333282470703,56 L-162.8333282470703,56 L-162.8333282470703,53 L-166.8333282470703,53 L-166.8333282470703,63 L-162.8333282470703,63 L-162.8333282470703,60 L-158.8333282470703,60 L-158.8333282470703,77 L-162.8333282470703,77 L-162.8333282470703,74 L-166.8333282470703,74 L-166.8333282470703,84 L-162.8333282470703,84 L-162.8333282470703,81 L-158.8333282470703,81 L-158.8333282470703,85 A4,4 90 0 1 -162.8333282470703,89 L-166.8333282470703,89 L-196.8333282470703,89 L-206.8333282470703,89 L-210.8333282470703,89 A4,4 90 0 1 -214.8333282470703,85 L-214.8333282470703,81 L-214.8333282470703,60 L-214.8333282470703,59 L-220.8333282470703,59 L-220.8333282470703,62 L-222.8333282470703,62 L-222.8333282470703,54 L-220.8333282470703,54 L-220.8333282470703,57 L-214.8333282470703,57 L-214.8333282470703,56 z"
           style="fill:#FF5293;fill-opacity:1;stroke:#FF2C76;stroke-width:1;stroke-linecap:round;stroke-opacity:1;"
           id="svg_71" />
        <text
           style="font-size:9px;fill:#282828;font-family:sans-serif;text-anchor:end"
           id="svg_72"
           y="47.5"
           x="-223.3333282470703">
          <tspan
             x="-169.3333282470703"
             y="70.5"
             id="svg_73">/</tspan>
        </text>
        <text
           style="font-size:6px;fill:#282828;font-family:sans-serif;text-anchor:end"
           id="svg_74"
           y="47.5"
           x="-223.3333282470703" />
        <text
           style="font-size:6px;fill:#282828;font-family:sans-serif;text-anchor:end"
           id="svg_76"
           y="47.5"
           x="-223.3333282470703" />
      </g>
    </g>
    <g
       id="svg_78"
       class="">
      <g
         transform="translate(1000,221) scale(1.5) "
         id="svg_79">
        <path
           d="m-214.8333282470703,48 L-154.8333282470703,48 L-154.8333282470703,68 L-214.8333282470703,68 L-214.8333282470703,60 L-214.8333282470703,59 L-220.8333282470703,59 L-220.8333282470703,62 L-222.8333282470703,62 L-222.8333282470703,54 L-220.8333282470703,54 L-220.8333282470703,57 L-214.8333282470703,57 L-214.8333282470703,56 z"
           style="fill:#FF5293;fill-opacity:1;stroke:#FF2C76;stroke-width:1;stroke-linecap:round;stroke-opacity:1;"
           id="svg_80" />
        <text
           style="font-size:10px;fill:#282828;font-family:sans-serif;text-anchor:start"
           id="svg_81"
           y="47.5"
           x="-223.3333282470703">
          <tspan
             x="-210.3333282470703"
             y="61.5"
             id="svg_82">1</tspan>
        </text>
      </g>
    </g>
    <g
       id="svg_83"
       class="">
      <g
         transform="translate(1000,253) scale(1.5) "
         id="svg_84">
        <path
           d="m-214.8333282470703,48 L-154.8333282470703,48 L-154.8333282470703,68 L-214.8333282470703,68 L-214.8333282470703,60 L-214.8333282470703,59 L-220.8333282470703,59 L-220.8333282470703,62 L-222.8333282470703,62 L-222.8333282470703,54 L-220.8333282470703,54 L-220.8333282470703,57 L-214.8333282470703,57 L-214.8333282470703,56 z"
           style="fill:#FF5293;fill-opacity:1;stroke:#FF2C76;stroke-width:1;stroke-linecap:round;stroke-opacity:1;"
           id="svg_85" />
        <text
           style="font-size:10px;fill:#282828;font-family:sans-serif;text-anchor:start"
           id="svg_86"
           y="47.5"
           x="-223.3333282470703">
          <tspan
             x="-210.3333282470703"
             y="61.5"
             id="svg_87">4</tspan>
        </text>
      </g>
    </g>
    <g
       id="svg_88"
       class="">
      <g
         transform="translate(796,253) scale(1.5) "
         id="svg_89">
        <path
           d="m-222.8333282470703,56 L-222.8333282470703,52 A4,4 90 0 1 -218.8333282470703,48 L-214.8333282470703,48 L-214.8333282470703,50 L-204.8333282470703,50 L-204.8333282470703,48 L-184.8333282470703,48 L-180.8333282470703,48 A4,4 90 0 1 -176.8333282470703,52 L-176.8333282470703,56 L-176.8333282470703,60 L-176.8333282470703,64 A4,4 90 0 1 -180.8333282470703,68 L-184.8333282470703,68 L-204.8333282470703,68 L-205.8333282470703,68 L-205.8333282470703,70 L-213.8333282470703,70 L-213.8333282470703,68 L-214.8333282470703,68 L-218.8333282470703,68 A4,4 90 0 1 -222.8333282470703,64 L-222.8333282470703,60 z"
           style="fill:#B0B0B0;fill-opacity:1;stroke:#A0A0A0;stroke-width:1;stroke-linecap:round;stroke-opacity:1;"
           id="svg_90" />
        <text
           style="font-size:10px;fill:#282828;font-family:sans-serif;text-anchor:end"
           id="svg_91"
           y="47.5"
           x="-223.3333282470703">
          <tspan
             x="-187.3333282470703"
             y="61.5"
             id="svg_92">↓</tspan>
        </text>
      </g>
    </g>
    <g
       id="svg_93"
       class="">
      <g
         id="svg_94">
        <g
           transform="translate(782,95) scale(1.5) "
           id="svg_95">
          <path
             d="m-222.8333282470703,56 L-222.8333282470703,52 A4,4 90 0 1 -218.8333282470703,48 L-214.8333282470703,48 L-214.8333282470703,50 L-204.8333282470703,50 L-204.8333282470703,48 L-195.8333282470703,48 L-135.8333282470703,48 L-131.8333282470703,48 A4,4 90 0 1 -127.83332824707031,52 L-127.83332824707031,56 L-131.8333282470703,56 L-131.8333282470703,53 L-135.8333282470703,53 L-135.8333282470703,63 L-131.8333282470703,63 L-131.8333282470703,60 L-127.83332824707031,60 L-127.83332824707031,64 A4,4 90 0 1 -131.8333282470703,68 L-135.8333282470703,68 L-195.8333282470703,68 L-196.8333282470703,68 L-196.8333282470703,70 L-204.8333282470703,70 L-204.8333282470703,68 L-205.8333282470703,68 L-209.8333282470703,68 A5,5 90 0 0 -214.8333282470703,73 L-214.8333282470703,77 L-214.8333282470703,81 L-214.8333282470703,102 L-214.8333282470703,106 A5,5 90 0 0 -209.8333282470703,111 L-205.8333282470703,111 L-205.8333282470703,113 L-195.8333282470703,113 L-195.8333282470703,111 L-187.8333282470703,111 L-187.8333282470703,117 L-187.8333282470703,123 L-187.8333282470703,127 A4,4 90 0 1 -191.8333282470703,131 L-195.8333282470703,131 L-204.8333282470703,131 L-205.8333282470703,131 L-205.8333282470703,133 L-213.8333282470703,133 L-213.8333282470703,131 L-214.8333282470703,131 L-218.8333282470703,131 A4,4 90 0 1 -222.8333282470703,127 L-222.8333282470703,123 z"
             style="fill:#FF8B2D;fill-opacity:1;stroke:#E86B0E;stroke-width:1;stroke-linecap:round;stroke-opacity:1;"
             id="svg_96" />
          <text
             style="font-size:10px;fill:#282828;font-family:sans-serif;text-anchor:start"
             id="svg_97"
             y="47.5"
             x="-223.3333282470703">
            <tspan
               x="-203.3333282470703"
               y="62.5"
               id="svg_98">note</tspan>
          </text>
          <text
             style="font-size:6.666666666666667px;fill:#282828;font-family:sans-serif;text-anchor:end"
             id="svg_99"
             y="47.5"
             x="-223.3333282470703">
            <tspan
               x="-138.3333282470703"
               y="59.5"
               id="svg_100">value</tspan>
          </text>
        </g>
      </g>
    </g>
    <g
       id="svg_108"
       class="">
      <g
         transform="translate(914,95) scale(1.5) "
         id="svg_109">
        <path
           d="m-214.8333282470703,56 L-214.8333282470703,52 A4,4 90 0 1 -210.8333282470703,48 L-206.8333282470703,48 L-196.8333282470703,48 L-166.8333282470703,48 L-162.8333282470703,48 A4,4 90 0 1 -158.8333282470703,52 L-158.8333282470703,56 L-162.8333282470703,56 L-162.8333282470703,53 L-166.8333282470703,53 L-166.8333282470703,63 L-162.8333282470703,63 L-162.8333282470703,60 L-158.8333282470703,60 L-158.8333282470703,77 L-162.8333282470703,77 L-162.8333282470703,74 L-166.8333282470703,74 L-166.8333282470703,84 L-162.8333282470703,84 L-162.8333282470703,81 L-158.8333282470703,81 L-158.8333282470703,85 A4,4 90 0 1 -162.8333282470703,89 L-166.8333282470703,89 L-196.8333282470703,89 L-206.8333282470703,89 L-210.8333282470703,89 A4,4 90 0 1 -214.8333282470703,85 L-214.8333282470703,81 L-214.8333282470703,60 L-214.8333282470703,59 L-220.8333282470703,59 L-220.8333282470703,62 L-222.8333282470703,62 L-222.8333282470703,54 L-220.8333282470703,54 L-220.8333282470703,57 L-214.8333282470703,57 L-214.8333282470703,56 z"
           style="fill:#FF5293;fill-opacity:1;stroke:#FF2C76;stroke-width:1;stroke-linecap:round;stroke-opacity:1;"
           id="svg_110" />
        <text
           style="font-size:9px;fill:#282828;font-family:sans-serif;text-anchor:end"
           id="svg_111"
           y="47.5"
           x="-223.3333282470703">
          <tspan
             x="-169.3333282470703"
             y="70.5"
             id="svg_112">/</tspan>
        </text>
        <text
           style="font-size:6px;fill:#282828;font-family:sans-serif;text-anchor:end"
           id="svg_113"
           y="47.5"
           x="-223.3333282470703" />
        <text
           style="font-size:6px;fill:#282828;font-family:sans-serif;text-anchor:end"
           id="svg_115"
           y="47.5"
           x="-223.3333282470703" />
      </g>
    </g>
    <g
       id="svg_117"
       class="">
      <g
         transform="translate(1000,95) scale(1.5) "
         id="svg_118">
        <path
           d="m-214.8333282470703,48 L-154.8333282470703,48 L-154.8333282470703,68 L-214.8333282470703,68 L-214.8333282470703,60 L-214.8333282470703,59 L-220.8333282470703,59 L-220.8333282470703,62 L-222.8333282470703,62 L-222.8333282470703,54 L-220.8333282470703,54 L-220.8333282470703,57 L-214.8333282470703,57 L-214.8333282470703,56 z"
           style="fill:#FF5293;fill-opacity:1;stroke:#FF2C76;stroke-width:1;stroke-linecap:round;stroke-opacity:1;"
           id="svg_119" />
        <text
           style="font-size:10px;fill:#282828;font-family:sans-serif;text-anchor:start"
           id="svg_120"
           y="47.5"
           x="-223.3333282470703">
          <tspan
             x="-210.3333282470703"
             y="61.5"
             id="svg_121">1</tspan>
        </text>
      </g>
    </g>
    <g
       id="svg_122"
       class="">
      <g
         transform="translate(1000,127) scale(1.5) "
         id="svg_123">
        <path
           d="m-214.8333282470703,48 L-154.8333282470703,48 L-154.8333282470703,68 L-214.8333282470703,68 L-214.8333282470703,60 L-214.8333282470703,59 L-220.8333282470703,59 L-220.8333282470703,62 L-222.8333282470703,62 L-222.8333282470703,54 L-220.8333282470703,54 L-220.8333282470703,57 L-214.8333282470703,57 L-214.8333282470703,56 z"
           style="fill:#FF5293;fill-opacity:1;stroke:#FF2C76;stroke-width:1;stroke-linecap:round;stroke-opacity:1;"
           id="svg_124" />
        <text
           style="font-size:10px;fill:#282828;font-family:sans-serif;text-anchor:start"
           id="svg_125"
           y="47.5"
           x="-223.3333282470703">
          <tspan
             x="-210.3333282470703"
             y="61.5"
             id="svg_126">4</tspan>
        </text>
      </g>
    </g>
    <g
       id="svg_127"
       class="">
      <g
         transform="translate(796,127) scale(1.5) "
         id="svg_128">
        <path
           d="m-222.8333282470703,56 L-222.8333282470703,52 A4,4 90 0 1 -218.8333282470703,48 L-214.8333282470703,48 L-214.8333282470703,50 L-204.8333282470703,50 L-204.8333282470703,48 L-184.8333282470703,48 L-180.8333282470703,48 A4,4 90 0 1 -176.8333282470703,52 L-176.8333282470703,56 L-176.8333282470703,60 L-176.8333282470703,64 A4,4 90 0 1 -180.8333282470703,68 L-184.8333282470703,68 L-204.8333282470703,68 L-205.8333282470703,68 L-205.8333282470703,70 L-213.8333282470703,70 L-213.8333282470703,68 L-214.8333282470703,68 L-218.8333282470703,68 A4,4 90 0 1 -222.8333282470703,64 L-222.8333282470703,60 z"
           style="fill:#B0B0B0;fill-opacity:1;stroke:#A0A0A0;stroke-width:1;stroke-linecap:round;stroke-opacity:1;"
           id="svg_129" />
        <text
           style="font-size:10px;fill:#282828;font-family:sans-serif;text-anchor:end"
           id="svg_130"
           y="47.5"
           x="-223.3333282470703">
          <tspan
             x="-187.3333282470703"
             y="61.5"
             id="svg_131">↓</tspan>
        </text>
      </g>
    </g>
    <g
       id="svg_132"
       class="">
      <g
         transform="translate(363,64) scale(1.5) "
         id="svg_133">
        <path
           d="m-222.8333282470703,56 L-222.8333282470703,52 A4,4 90 0 1 -218.8333282470703,48 L-214.8333282470703,48 L-214.8333282470703,50 L-204.8333282470703,50 L-204.8333282470703,48 L-195.8333282470703,48 L-123.01106262207031,48 L-119.01106262207031,48 A4,4 90 0 1 -115.01106262207031,52 L-115.01106262207031,56 L-119.01106262207031,56 L-119.01106262207031,53 L-123.01106262207031,53 L-123.01106262207031,63 L-119.01106262207031,63 L-119.01106262207031,60 L-115.01106262207031,60 L-115.01106262207031,64 A4,4 90 0 1 -119.01106262207031,68 L-123.01106262207031,68 L-195.8333282470703,68 L-196.8333282470703,68 L-196.8333282470703,70 L-204.8333282470703,70 L-204.8333282470703,68 L-205.8333282470703,68 L-209.8333282470703,68 A5,5 90 0 0 -214.8333282470703,73 L-214.8333282470703,77 L-214.8333282470703,81 L-214.8333282470703,102 L-214.8333282470703,106 A5,5 90 0 0 -209.8333282470703,111 L-205.8333282470703,111 L-205.8333282470703,113 L-195.8333282470703,113 L-195.8333282470703,111 L-187.8333282470703,111 L-187.8333282470703,117 L-187.8333282470703,123 L-187.8333282470703,127 A4,4 90 0 1 -191.8333282470703,131 L-195.8333282470703,131 L-204.8333282470703,131 L-205.8333282470703,131 L-205.8333282470703,133 L-213.8333282470703,133 L-213.8333282470703,131 L-214.8333282470703,131 L-218.8333282470703,131 A4,4 90 0 1 -222.8333282470703,127 L-222.8333282470703,123 z"
           style="fill:#FF8B2D;fill-opacity:1;stroke:#E86B0E;stroke-width:1;stroke-linecap:round;stroke-opacity:1;"
           id="svg_134" />
        <text
           style="font-size:10px;fill:#282828;font-family:sans-serif;text-anchor:start"
           id="svg_135"
           y="47.5"
           x="-223.3333282470703">
          <tspan
             x="-218.3333282470703"
             y="62.5"
             id="svg_136">multiply note value</tspan>
        </text>
        <text
           style="font-size:6.666666666666667px;fill:#282828;font-family:sans-serif;text-anchor:end"
           id="svg_137"
           y="47.5"
           x="-223.3333282470703" />
      </g>
    </g>
    <g
       id="svg_139"
       class="">
      <g
         transform="translate(514,64) scale(1.5) "
         id="svg_140">
        <path
           d="m-214.8333282470703,56 L-214.8333282470703,52 A4,4 90 0 1 -210.8333282470703,48 L-206.8333282470703,48 L-196.8333282470703,48 L-166.8333282470703,48 L-162.8333282470703,48 A4,4 90 0 1 -158.8333282470703,52 L-158.8333282470703,56 L-162.8333282470703,56 L-162.8333282470703,53 L-166.8333282470703,53 L-166.8333282470703,63 L-162.8333282470703,63 L-162.8333282470703,60 L-158.8333282470703,60 L-158.8333282470703,77 L-162.8333282470703,77 L-162.8333282470703,74 L-166.8333282470703,74 L-166.8333282470703,84 L-162.8333282470703,84 L-162.8333282470703,81 L-158.8333282470703,81 L-158.8333282470703,85 A4,4 90 0 1 -162.8333282470703,89 L-166.8333282470703,89 L-196.8333282470703,89 L-206.8333282470703,89 L-210.8333282470703,89 A4,4 90 0 1 -214.8333282470703,85 L-214.8333282470703,81 L-214.8333282470703,60 L-214.8333282470703,59 L-220.8333282470703,59 L-220.8333282470703,62 L-222.8333282470703,62 L-222.8333282470703,54 L-220.8333282470703,54 L-220.8333282470703,57 L-214.8333282470703,57 L-214.8333282470703,56 z"
           style="fill:#FF5293;fill-opacity:1;stroke:#FF2C76;stroke-width:1;stroke-linecap:round;stroke-opacity:1;"
           id="svg_141" />
        <text
           style="font-size:9px;fill:#282828;font-family:sans-serif;text-anchor:end"
           id="svg_142"
           y="47.5"
           x="-223.3333282470703">
          <tspan
             x="-169.3333282470703"
             y="70.5"
             id="svg_143">/</tspan>
        </text>
        <text
           style="font-size:6px;fill:#282828;font-family:sans-serif;text-anchor:end"
           id="svg_144"
           y="47.5"
           x="-223.3333282470703" />
        <text
           style="font-size:6px;fill:#282828;font-family:sans-serif;text-anchor:end"
           id="svg_146"
           y="47.5"
           x="-223.3333282470703" />
      </g>
    </g>
    <g
       id="svg_148"
       class="">
      <g
         transform="translate(600,64) scale(1.5) "
         id="svg_149">
        <path
           d="m-214.8333282470703,48 L-154.8333282470703,48 L-154.8333282470703,68 L-214.8333282470703,68 L-214.8333282470703,60 L-214.8333282470703,59 L-220.8333282470703,59 L-220.8333282470703,62 L-222.8333282470703,62 L-222.8333282470703,54 L-220.8333282470703,54 L-220.8333282470703,57 L-214.8333282470703,57 L-214.8333282470703,56 z"
           style="fill:#FF5293;fill-opacity:1;stroke:#FF2C76;stroke-width:1;stroke-linecap:round;stroke-opacity:1;"
           id="svg_150" />
        <text
           style="font-size:10px;fill:#282828;font-family:sans-serif;text-anchor:start"
           id="svg_151"
           y="47.5"
           x="-223.3333282470703">
          <tspan
             x="-210.3333282470703"
             y="61.5"
             id="svg_152">1</tspan>
        </text>
      </g>
    </g>
    <g
       id="svg_153"
       class="">
      <g
         transform="translate(377,96) scale(1.5) "
         id="svg_154">
        <path
           d="m-222.8333282470703,56 L-222.8333282470703,52 A4,4 90 0 1 -218.8333282470703,48 L-214.8333282470703,48 L-214.8333282470703,50 L-204.8333282470703,50 L-204.8333282470703,48 L-184.8333282470703,48 L-180.8333282470703,48 A4,4 90 0 1 -176.8333282470703,52 L-176.8333282470703,56 L-176.8333282470703,60 L-176.8333282470703,64 A4,4 90 0 1 -180.8333282470703,68 L-184.8333282470703,68 L-204.8333282470703,68 L-205.8333282470703,68 L-205.8333282470703,70 L-213.8333282470703,70 L-213.8333282470703,68 L-214.8333282470703,68 L-218.8333282470703,68 A4,4 90 0 1 -222.8333282470703,64 L-222.8333282470703,60 z"
           style="fill:#B0B0B0;fill-opacity:1;stroke:#A0A0A0;stroke-width:1;stroke-linecap:round;stroke-opacity:1;"
           id="svg_155" />
        <text
           style="font-size:10px;fill:#282828;font-family:sans-serif;text-anchor:end"
           id="svg_156"
           y="47.5"
           x="-223.3333282470703">
          <tspan
             x="-187.3333282470703"
             y="61.5"
             id="svg_157">↓</tspan>
        </text>
      </g>
    </g>
    <g
       id="svg_158"
       class="">
      <g
         transform="translate(349,-31) scale(1.5) "
         id="svg_159">
        <path
           d="m-222.8333282470703,56 L-222.8333282470703,52 A4,4 90 0 1 -218.8333282470703,48 L-214.8333282470703,48 L-214.8333282470703,50 L-204.8333282470703,50 L-204.8333282470703,48 L-172.0403594970703,48 L-168.0403594970703,48 A4,4 90 0 1 -164.0403594970703,52 L-164.0403594970703,56 L-168.0403594970703,56 L-168.0403594970703,53 L-172.0403594970703,53 L-172.0403594970703,63 L-168.0403594970703,63 L-168.0403594970703,60 L-164.0403594970703,60 L-164.0403594970703,77 L-168.0403594970703,77 L-168.0403594970703,74 L-172.0403594970703,74 L-172.0403594970703,84 L-168.0403594970703,84 L-168.0403594970703,81 L-164.0403594970703,81 L-164.0403594970703,85 A4,4 90 0 1 -168.0403594970703,89 L-172.0403594970703,89 L-204.8333282470703,89 L-205.8333282470703,89 L-205.8333282470703,91 L-213.8333282470703,91 L-213.8333282470703,89 L-214.8333282470703,89 L-218.8333282470703,89 A4,4 90 0 1 -222.8333282470703,85 L-222.8333282470703,81 L-222.8333282470703,60 L-222.8333282470703,56 z"
           style="fill:#DAA926;fill-opacity:1;stroke:#DAAF30;stroke-width:1;stroke-linecap:round;stroke-opacity:1;"
           id="svg_160" />
        <text
           style="font-size:10px;fill:#282828;font-family:sans-serif;text-anchor:end"
           id="svg_161"
           y="47.5"
           x="-223.3333282470703">
          <tspan
             x="-174.3333282470703"
             y="71.5"
             id="svg_162">store in</tspan>
        </text>
        <text
           style="font-size:6.666666666666667px;fill:#282828;font-family:sans-serif;text-anchor:end"
           id="svg_163"
           y="47.5"
           x="-223.3333282470703">
          <tspan
             x="-174.3333282470703"
             y="59.5"
             id="svg_164">name</tspan>
        </text>
        <text
           style="font-size:6.666666666666667px;fill:#282828;font-family:sans-serif;text-anchor:end"
           id="svg_165"
           y="47.5"
           x="-223.3333282470703">
          <tspan
             x="-174.3333282470703"
             y="80.5"
             id="svg_166">value</tspan>
        </text>
      </g>
    </g>
    <g
       id="svg_167"
       class="">
      <g
         transform="translate(427,-31) scale(1.5) "
         id="svg_168">
        <path
           d="m-214.8333282470703,48 L-124.83332824707031,48 L-124.83332824707031,68 L-214.8333282470703,68 L-214.8333282470703,60 L-214.8333282470703,59 L-220.8333282470703,59 L-220.8333282470703,62 L-222.8333282470703,62 L-222.8333282470703,54 L-220.8333282470703,54 L-220.8333282470703,57 L-214.8333282470703,57 L-214.8333282470703,56 z"
           style="fill:#FF5942;fill-opacity:1;stroke:#EA4326;stroke-width:1;stroke-linecap:round;stroke-opacity:1;"
           id="svg_169" />
        <text
           style="font-size:10px;fill:#282828;font-family:sans-serif;text-anchor:start"
           id="svg_170"
           y="47.5"
           x="-223.3333282470703">
          <tspan
             x="-210.3333282470703"
             y="61.5"
             id="svg_171">box</tspan>
        </text>
      </g>
    </g>
    <g
       id="svg_172"
       class="">
      <g
         transform="translate(427,1) scale(1.5) "
         id="svg_173">
        <path
           d="m-214.8333282470703,48 L-154.8333282470703,48 L-154.8333282470703,68 L-214.8333282470703,68 L-214.8333282470703,60 L-214.8333282470703,59 L-220.8333282470703,59 L-220.8333282470703,62 L-222.8333282470703,62 L-222.8333282470703,54 L-220.8333282470703,54 L-220.8333282470703,57 L-214.8333282470703,57 L-214.8333282470703,56 z"
           style="fill:#FF5293;fill-opacity:1;stroke:#FF2C76;stroke-width:1;stroke-linecap:round;stroke-opacity:1;"
           id="svg_174" />
        <text
           style="font-size:10px;fill:#282828;font-family:sans-serif;text-anchor:start"
           id="svg_175"
           y="47.5"
           x="-223.3333282470703">
          <tspan
             x="-210.3333282470703"
             y="61.5"
             id="svg_176">1</tspan>
        </text>
      </g>
    </g>
    <g
       id="svg_177"
       class="">
      <g
         transform="translate(349,32) scale(1.5) "
         id="svg_178">
        <path
           d="m-222.8333282470703,56 L-222.8333282470703,52 A4,4 90 0 1 -218.8333282470703,48 L-214.8333282470703,48 L-214.8333282470703,50 L-204.8333282470703,50 L-204.8333282470703,48 L-195.8333282470703,48 L-175.8333282470703,48 L-171.8333282470703,48 A4,4 90 0 1 -167.8333282470703,52 L-167.8333282470703,56 L-171.8333282470703,56 L-171.8333282470703,53 L-175.8333282470703,53 L-175.8333282470703,63 L-171.8333282470703,63 L-171.8333282470703,60 L-167.8333282470703,60 L-167.8333282470703,64 A4,4 90 0 1 -171.8333282470703,68 L-175.8333282470703,68 L-195.8333282470703,68 L-196.8333282470703,68 L-196.8333282470703,70 L-204.8333282470703,70 L-204.8333282470703,68 L-205.8333282470703,68 L-209.8333282470703,68 A5,5 90 0 0 -214.8333282470703,73 L-214.8333282470703,77 L-214.8333282470703,81 L-214.8333282470703,186 L-214.8333282470703,190 A5,5 90 0 0 -209.8333282470703,195 L-205.8333282470703,195 L-205.8333282470703,197 L-195.8333282470703,197 L-195.8333282470703,195 L-187.8333282470703,195 L-187.8333282470703,201 L-187.8333282470703,207 L-187.8333282470703,211 A4,4 90 0 1 -191.8333282470703,215 L-195.8333282470703,215 L-204.8333282470703,215 L-205.8333282470703,215 L-205.8333282470703,217 L-213.8333282470703,217 L-213.8333282470703,215 L-214.8333282470703,215 L-218.8333282470703,215 A4,4 90 0 1 -222.8333282470703,211 L-222.8333282470703,207 z"
           style="fill:#D68136;fill-opacity:1;stroke:#B7651A;stroke-width:1;stroke-linecap:round;stroke-opacity:1;"
           id="svg_179" />
        <text
           style="font-size:10px;fill:#282828;font-family:sans-serif;text-anchor:start"
           id="svg_180"
           y="47.5"
           x="-223.3333282470703">
          <tspan
             x="-218.3333282470703"
             y="62.5"
             id="svg_181">repeat</tspan>
        </text>
        <text
           style="font-size:6.666666666666667px;fill:#282828;font-family:sans-serif;text-anchor:end"
           id="svg_182"
           y="47.5"
           x="-223.3333282470703" />
      </g>
    </g>
    <g
       id="svg_184"
       class="">
      <g
         transform="translate(421,32) scale(1.5) "
         id="svg_185">
        <path
           d="m-214.8333282470703,48 L-154.8333282470703,48 L-154.8333282470703,68 L-214.8333282470703,68 L-214.8333282470703,60 L-214.8333282470703,59 L-220.8333282470703,59 L-220.8333282470703,62 L-222.8333282470703,62 L-222.8333282470703,54 L-220.8333282470703,54 L-220.8333282470703,57 L-214.8333282470703,57 L-214.8333282470703,56 z"
           style="fill:#FF5293;fill-opacity:1;stroke:#FF2C76;stroke-width:1;stroke-linecap:round;stroke-opacity:1;"
           id="svg_186" />
        <text
           style="font-size:10px;fill:#282828;font-family:sans-serif;text-anchor:start"
           id="svg_187"
           y="47.5"
           x="-223.3333282470703">
          <tspan
             x="-210.3333282470703"
             y="61.5"
             id="svg_188">4</tspan>
        </text>
      </g>
    </g>
    <g
       id="svg_189"
       class="">
      <g
         transform="translate(600,96) scale(1.5) "
         id="svg_190">
        <path
           d="m-214.8333282470703,48 L-124.83332824707031,48 L-124.83332824707031,68 L-214.8333282470703,68 L-214.8333282470703,60 L-214.8333282470703,59 L-220.8333282470703,59 L-220.8333282470703,62 L-222.8333282470703,62 L-222.8333282470703,54 L-220.8333282470703,54 L-220.8333282470703,57 L-214.8333282470703,57 L-214.8333282470703,56 z"
           style="fill:#DAA926;fill-opacity:1;stroke:#DAAF30;stroke-width:1;stroke-linecap:round;stroke-opacity:1;"
           id="svg_191" />
        <text
           style="font-size:10px;fill:#282828;font-family:sans-serif;text-anchor:start"
           id="svg_192"
           y="47.5"
           x="-223.3333282470703">
          <tspan
             x="-210.3333282470703"
             y="61.5"
             id="svg_193">box</tspan>
        </text>
      </g>
    </g>
    <g
       id="svg_194"
       class="">
      <g
         id="svg_195">
        <g
           transform="translate(768,-72) scale(1.5) "
           id="svg_196">
          <path
             d="m-222.8333282470703,62 L-222.8333282470703,58 A4,4 90 0 1 -218.8333282470703,54 L-214.8333282470703,54 L-209.8333282470703,48 L-204.8333282470703,54 L-195.8333282470703,54 L-143.8333282470703,54 L-139.8333282470703,54 A4,4 90 0 1 -135.8333282470703,58 L-135.8333282470703,62 L-139.8333282470703,62 L-139.8333282470703,59 L-143.8333282470703,59 L-143.8333282470703,69 L-139.8333282470703,69 L-139.8333282470703,66 L-135.8333282470703,66 L-135.8333282470703,70 A4,4 90 0 1 -139.8333282470703,74 L-143.8333282470703,74 L-195.8333282470703,74 L-196.8333282470703,74 L-196.8333282470703,76 L-204.8333282470703,76 L-204.8333282470703,74 L-205.8333282470703,74 L-209.8333282470703,74 A5,5 90 0 0 -214.8333282470703,79 L-214.8333282470703,83 L-214.8333282470703,87 L-214.8333282470703,402 L-214.8333282470703,406 A5,5 90 0 0 -209.8333282470703,411 L-205.8333282470703,411 L-205.8333282470703,413 L-195.8333282470703,413 L-195.8333282470703,411 L-187.8333282470703,411 L-187.8333282470703,417 L-187.8333282470703,423 L-187.8333282470703,427 A4,4 90 0 1 -191.8333282470703,431 L-195.8333282470703,431 L-204.8333282470703,431 L-209.8333282470703,437 L-214.8333282470703,431 L-218.8333282470703,431 A4,4 90 0 1 -222.8333282470703,427 L-222.8333282470703,423 z"
             style="fill:#DAA926;fill-opacity:1;stroke:#DAAF30;stroke-width:1;stroke-linecap:round;stroke-opacity:1;"
             id="svg_197" />
          <text
             style="font-size:10px;fill:#282828;font-family:sans-serif;text-anchor:start"
             id="svg_198"
             y="47.5"
             x="-223.3333282470703">
            <tspan
               x="-203.3333282470703"
               y="69.5"
               id="svg_199">action</tspan>
          </text>
          <text
             style="font-size:6.666666666666667px;fill:#282828;font-family:sans-serif;text-anchor:end"
             id="svg_200"
             y="47.5"
             x="-223.3333282470703" />
        </g>
      </g>
    </g>
    <g
       id="svg_209"
       class="">
      <g
         transform="translate(888,-63) scale(1.5) "
         id="svg_210">
        <path
           d="m-214.8333282470703,48 L-124.83332824707031,48 L-124.83332824707031,68 L-214.8333282470703,68 L-214.8333282470703,60 L-214.8333282470703,59 L-220.8333282470703,59 L-220.8333282470703,62 L-222.8333282470703,62 L-222.8333282470703,54 L-220.8333282470703,54 L-220.8333282470703,57 L-214.8333282470703,57 L-214.8333282470703,56 z"
           style="fill:#FF5942;fill-opacity:1;stroke:#EA4326;stroke-width:1;stroke-linecap:round;stroke-opacity:1;"
           id="svg_211" />
        <text
           style="font-size:10px;fill:#282828;font-family:sans-serif;text-anchor:start"
           id="svg_212"
           y="47.5"
           x="-223.3333282470703">
          <tspan
             x="-210.3333282470703"
             y="61.5"
             id="svg_213">action</tspan>
        </text>
      </g>
    </g>
    <g
       id="svg_214"
       class="">
      <g
         transform="translate(377,128) scale(1.5) "
         id="svg_215">
        <path
           d="m-222.8333282470703,56 L-222.8333282470703,52 A4,4 90 0 1 -218.8333282470703,48 L-214.8333282470703,48 L-214.8333282470703,50 L-204.8333282470703,50 L-204.8333282470703,48 L-134.8333282470703,48 L-130.8333282470703,48 A4,4 90 0 1 -126.83332824707031,52 L-126.83332824707031,56 L-126.83332824707031,60 L-126.83332824707031,64 A4,4 90 0 1 -130.8333282470703,68 L-134.8333282470703,68 L-204.8333282470703,68 L-205.8333282470703,68 L-205.8333282470703,70 L-213.8333282470703,70 L-213.8333282470703,68 L-214.8333282470703,68 L-218.8333282470703,68 A4,4 90 0 1 -222.8333282470703,64 L-222.8333282470703,60 z"
           style="fill:#DAA926;fill-opacity:1;stroke:#DAAF30;stroke-width:1;stroke-linecap:round;stroke-opacity:1;"
           id="svg_216" />
        <text
           style="font-size:10px;fill:#282828;font-family:sans-serif;text-anchor:end"
           id="svg_217"
           y="47.5"
           x="-223.3333282470703">
          <tspan
             x="-137.3333282470703"
             y="61.5"
             id="svg_218">action</tspan>
        </text>
      </g>
    </g>
    <g
       id="svg_219"
       class="">
      <g
         transform="translate(555,190) scale(1.5) "
         id="svg_220">
        <path
           d="m-214.8333282470703,48 L-124.83332824707031,48 L-124.83332824707031,68 L-214.8333282470703,68 L-214.8333282470703,60 L-214.8333282470703,59 L-220.8333282470703,59 L-220.8333282470703,62 L-222.8333282470703,62 L-222.8333282470703,54 L-220.8333282470703,54 L-220.8333282470703,57 L-214.8333282470703,57 L-214.8333282470703,56 z"
           style="fill:#FF5942;fill-opacity:1;stroke:#EA4326;stroke-width:1;stroke-linecap:round;stroke-opacity:1;"
           id="svg_221" />
        <text
           style="font-size:10px;fill:#282828;font-family:sans-serif;text-anchor:start"
           id="svg_222"
           y="47.5"
           x="-223.3333282470703">
          <tspan
             x="-210.3333282470703"
             y="61.5"
             id="svg_223">box</tspan>
        </text>
      </g>
    </g>
    <g
       id="svg_224"
       class="">
      <g
         transform="translate(363,190) scale(1.5) "
         id="svg_225">
        <path
           d="m-222.8333282470703,56 L-222.8333282470703,52 A4,4 90 0 1 -218.8333282470703,48 L-214.8333282470703,48 L-214.8333282470703,50 L-204.8333282470703,50 L-204.8333282470703,48 L-153.1389923095703,48 L-149.1389923095703,48 A4,4 90 0 1 -145.1389923095703,52 L-145.1389923095703,56 L-149.1389923095703,56 L-149.1389923095703,53 L-153.1389923095703,53 L-153.1389923095703,63 L-149.1389923095703,63 L-149.1389923095703,60 L-145.1389923095703,60 L-145.1389923095703,64 A4,4 90 0 1 -149.1389923095703,68 L-153.1389923095703,68 L-204.8333282470703,68 L-205.8333282470703,68 L-205.8333282470703,70 L-213.8333282470703,70 L-213.8333282470703,68 L-214.8333282470703,68 L-218.8333282470703,68 A4,4 90 0 1 -222.8333282470703,64 L-222.8333282470703,60 L-222.8333282470703,56 z"
           style="fill:#DAA926;fill-opacity:1;stroke:#DAAF30;stroke-width:1;stroke-linecap:round;stroke-opacity:1;"
           id="svg_226" />
        <text
           style="font-size:10px;fill:#282828;font-family:sans-serif;text-anchor:end"
           id="svg_227"
           y="47.5"
           x="-223.3333282470703">
          <tspan
             x="-155.3333282470703"
             y="61.5"
             id="svg_228">store in box</tspan>
        </text>
        <text
           style="font-size:6.666666666666667px;fill:#282828;font-family:sans-serif;text-anchor:end"
           id="svg_229"
           y="47.5"
           x="-223.3333282470703" />
      </g>
    </g>
    <g
       id="svg_231"
       class="">
      <g
         transform="translate(469,190) scale(1.5) "
         id="svg_232">
        <path
           d="m-214.8333282470703,56 L-214.8333282470703,52 A4,4 90 0 1 -210.8333282470703,48 L-206.8333282470703,48 L-196.8333282470703,48 L-166.8333282470703,48 L-162.8333282470703,48 A4,4 90 0 1 -158.8333282470703,52 L-158.8333282470703,56 L-162.8333282470703,56 L-162.8333282470703,53 L-166.8333282470703,53 L-166.8333282470703,63 L-162.8333282470703,63 L-162.8333282470703,60 L-158.8333282470703,60 L-158.8333282470703,77 L-162.8333282470703,77 L-162.8333282470703,74 L-166.8333282470703,74 L-166.8333282470703,84 L-162.8333282470703,84 L-162.8333282470703,81 L-158.8333282470703,81 L-158.8333282470703,85 A4,4 90 0 1 -162.8333282470703,89 L-166.8333282470703,89 L-196.8333282470703,89 L-206.8333282470703,89 L-210.8333282470703,89 A4,4 90 0 1 -214.8333282470703,85 L-214.8333282470703,81 L-214.8333282470703,60 L-214.8333282470703,59 L-220.8333282470703,59 L-220.8333282470703,62 L-222.8333282470703,62 L-222.8333282470703,54 L-220.8333282470703,54 L-220.8333282470703,57 L-214.8333282470703,57 L-214.8333282470703,56 z"
           style="fill:#FF5293;fill-opacity:1;stroke:#FF2C76;stroke-width:1;stroke-linecap:round;stroke-opacity:1;"
           id="svg_233" />
        <text
           style="font-size:14px;fill:#282828;font-family:sans-serif;text-anchor:end"
           id="svg_234"
           y="47.5"
           x="-223.3333282470703">
          <tspan
             x="-169.3333282470703"
             y="71.5"
             id="svg_235">×</tspan>
        </text>
        <text
           style="font-size:9.333333333333334px;fill:#282828;font-family:sans-serif;text-anchor:end"
           id="svg_236"
           y="47.5"
           x="-223.3333282470703" />
        <text
           style="font-size:9.333333333333334px;fill:#282828;font-family:sans-serif;text-anchor:end"
           id="svg_238"
           y="47.5"
           x="-223.3333282470703" />
      </g>
    </g>
    <g
       id="svg_240"
       class="">
      <g
         transform="translate(555,222) scale(1.5) "
         id="svg_241">
        <path
           d="m-214.8333282470703,48 L-154.8333282470703,48 L-154.8333282470703,68 L-214.8333282470703,68 L-214.8333282470703,60 L-214.8333282470703,59 L-220.8333282470703,59 L-220.8333282470703,62 L-222.8333282470703,62 L-222.8333282470703,54 L-220.8333282470703,54 L-220.8333282470703,57 L-214.8333282470703,57 L-214.8333282470703,56 z"
           style="fill:#FF5293;fill-opacity:1;stroke:#FF2C76;stroke-width:1;stroke-linecap:round;stroke-opacity:1;"
           id="svg_242" />
        <text
           style="font-size:10px;fill:#282828;font-family:sans-serif;text-anchor:start"
           id="svg_243"
           y="47.5"
           x="-223.3333282470703">
          <tspan
             x="-210.3333282470703"
             y="61.5"
             id="svg_244">2</tspan>
        </text>
      </g>
    </g>
    <g
       id="svg_245"
       class="">
      <g
         transform="translate(363,222) scale(1.5) "
         id="svg_246">
        <path
           d="m-222.8333282470703,56 L-222.8333282470703,52 A4,4 90 0 1 -218.8333282470703,48 L-214.8333282470703,48 L-214.8333282470703,50 L-204.8333282470703,50 L-204.8333282470703,48 L-184.8333282470703,48 L-180.8333282470703,48 A4,4 90 0 1 -176.8333282470703,52 L-176.8333282470703,56 L-176.8333282470703,60 L-176.8333282470703,64 A4,4 90 0 1 -180.8333282470703,68 L-184.8333282470703,68 L-204.8333282470703,68 L-205.8333282470703,68 L-205.8333282470703,70 L-213.8333282470703,70 L-213.8333282470703,68 L-214.8333282470703,68 L-218.8333282470703,68 A4,4 90 0 1 -222.8333282470703,64 L-222.8333282470703,60 z"
           style="fill:#B0B0B0;fill-opacity:1;stroke:#A0A0A0;stroke-width:1;stroke-linecap:round;stroke-opacity:1;"
           id="svg_247" />
        <text
           style="font-size:10px;fill:#282828;font-family:sans-serif;text-anchor:end"
           id="svg_248"
           y="47.5"
           x="-223.3333282470703">
          <tspan
             x="-187.3333282470703"
             y="61.5"
             id="svg_249">↓</tspan>
        </text>
      </g>
    </g>
    <g
       id="svg_250"
       class="">
      <g
         id="svg_251">
        <g
           transform="translate(782,347) scale(1.5) "
           id="svg_252">
          <path
             d="m-222.8333282470703,56 L-222.8333282470703,52 A4,4 90 0 1 -218.8333282470703,48 L-214.8333282470703,48 L-214.8333282470703,50 L-204.8333282470703,50 L-204.8333282470703,48 L-195.8333282470703,48 L-135.8333282470703,48 L-131.8333282470703,48 A4,4 90 0 1 -127.83332824707031,52 L-127.83332824707031,56 L-131.8333282470703,56 L-131.8333282470703,53 L-135.8333282470703,53 L-135.8333282470703,63 L-131.8333282470703,63 L-131.8333282470703,60 L-127.83332824707031,60 L-127.83332824707031,64 A4,4 90 0 1 -131.8333282470703,68 L-135.8333282470703,68 L-195.8333282470703,68 L-196.8333282470703,68 L-196.8333282470703,70 L-204.8333282470703,70 L-204.8333282470703,68 L-205.8333282470703,68 L-209.8333282470703,68 A5,5 90 0 0 -214.8333282470703,73 L-214.8333282470703,77 L-214.8333282470703,81 L-214.8333282470703,102 L-214.8333282470703,106 A5,5 90 0 0 -209.8333282470703,111 L-205.8333282470703,111 L-205.8333282470703,113 L-195.8333282470703,113 L-195.8333282470703,111 L-187.8333282470703,111 L-187.8333282470703,117 L-187.8333282470703,123 L-187.8333282470703,127 A4,4 90 0 1 -191.8333282470703,131 L-195.8333282470703,131 L-204.8333282470703,131 L-205.8333282470703,131 L-205.8333282470703,133 L-213.8333282470703,133 L-213.8333282470703,131 L-214.8333282470703,131 L-218.8333282470703,131 A4,4 90 0 1 -222.8333282470703,127 L-222.8333282470703,123 z"
             style="fill:#FF8B2D;fill-opacity:1;stroke:#E86B0E;stroke-width:1;stroke-linecap:round;stroke-opacity:1;"
             id="svg_253" />
          <text
             style="font-size:10px;fill:#282828;font-family:sans-serif;text-anchor:start"
             id="svg_254"
             y="47.5"
             x="-223.3333282470703">
            <tspan
               x="-203.3333282470703"
               y="62.5"
               id="svg_255">note</tspan>
          </text>
          <text
             style="font-size:6.666666666666667px;fill:#282828;font-family:sans-serif;text-anchor:end"
             id="svg_256"
             y="47.5"
             x="-223.3333282470703">
            <tspan
               x="-138.3333282470703"
               y="59.5"
               id="svg_257">value</tspan>
          </text>
        </g>
      </g>
    </g>
    <g
       id="svg_265"
       class="">
      <g
         transform="translate(914,347) scale(1.5) "
         id="svg_266">
        <path
           d="m-214.8333282470703,56 L-214.8333282470703,52 A4,4 90 0 1 -210.8333282470703,48 L-206.8333282470703,48 L-196.8333282470703,48 L-166.8333282470703,48 L-162.8333282470703,48 A4,4 90 0 1 -158.8333282470703,52 L-158.8333282470703,56 L-162.8333282470703,56 L-162.8333282470703,53 L-166.8333282470703,53 L-166.8333282470703,63 L-162.8333282470703,63 L-162.8333282470703,60 L-158.8333282470703,60 L-158.8333282470703,77 L-162.8333282470703,77 L-162.8333282470703,74 L-166.8333282470703,74 L-166.8333282470703,84 L-162.8333282470703,84 L-162.8333282470703,81 L-158.8333282470703,81 L-158.8333282470703,85 A4,4 90 0 1 -162.8333282470703,89 L-166.8333282470703,89 L-196.8333282470703,89 L-206.8333282470703,89 L-210.8333282470703,89 A4,4 90 0 1 -214.8333282470703,85 L-214.8333282470703,81 L-214.8333282470703,60 L-214.8333282470703,59 L-220.8333282470703,59 L-220.8333282470703,62 L-222.8333282470703,62 L-222.8333282470703,54 L-220.8333282470703,54 L-220.8333282470703,57 L-214.8333282470703,57 L-214.8333282470703,56 z"
           style="fill:#FF5293;fill-opacity:1;stroke:#FF2C76;stroke-width:1;stroke-linecap:round;stroke-opacity:1;"
           id="svg_267" />
        <text
           style="font-size:9px;fill:#282828;font-family:sans-serif;text-anchor:end"
           id="svg_268"
           y="47.5"
           x="-223.3333282470703">
          <tspan
             x="-169.3333282470703"
             y="70.5"
             id="svg_269">/</tspan>
        </text>
        <text
           style="font-size:6px;fill:#282828;font-family:sans-serif;text-anchor:end"
           id="svg_270"
           y="47.5"
           x="-223.3333282470703" />
        <text
           style="font-size:6px;fill:#282828;font-family:sans-serif;text-anchor:end"
           id="svg_272"
           y="47.5"
           x="-223.3333282470703" />
      </g>
    </g>
    <g
       id="svg_274"
       class="">
      <g
         transform="translate(1000,347) scale(1.5) "
         id="svg_275">
        <path
           d="m-214.8333282470703,48 L-154.8333282470703,48 L-154.8333282470703,68 L-214.8333282470703,68 L-214.8333282470703,60 L-214.8333282470703,59 L-220.8333282470703,59 L-220.8333282470703,62 L-222.8333282470703,62 L-222.8333282470703,54 L-220.8333282470703,54 L-220.8333282470703,57 L-214.8333282470703,57 L-214.8333282470703,56 z"
           style="fill:#FF5293;fill-opacity:1;stroke:#FF2C76;stroke-width:1;stroke-linecap:round;stroke-opacity:1;"
           id="svg_276" />
        <text
           style="font-size:10px;fill:#282828;font-family:sans-serif;text-anchor:start"
           id="svg_277"
           y="47.5"
           x="-223.3333282470703">
          <tspan
             x="-210.3333282470703"
             y="61.5"
             id="svg_278">1</tspan>
        </text>
      </g>
    </g>
    <g
       id="svg_279"
       class="">
      <g
         transform="translate(1000,379) scale(1.5) "
         id="svg_280">
        <path
           d="m-214.8333282470703,48 L-154.8333282470703,48 L-154.8333282470703,68 L-214.8333282470703,68 L-214.8333282470703,60 L-214.8333282470703,59 L-220.8333282470703,59 L-220.8333282470703,62 L-222.8333282470703,62 L-222.8333282470703,54 L-220.8333282470703,54 L-220.8333282470703,57 L-214.8333282470703,57 L-214.8333282470703,56 z"
           style="fill:#FF5293;fill-opacity:1;stroke:#FF2C76;stroke-width:1;stroke-linecap:round;stroke-opacity:1;"
           id="svg_281" />
        <text
           style="font-size:10px;fill:#282828;font-family:sans-serif;text-anchor:start"
           id="svg_282"
           y="47.5"
           x="-223.3333282470703">
          <tspan
             x="-210.3333282470703"
             y="61.5"
             id="svg_283">4</tspan>
        </text>
      </g>
    </g>
    <g
       id="svg_284"
       class="">
      <g
         transform="translate(796,379) scale(1.5) "
         id="svg_285">
        <path
           d="m-222.8333282470703,56 L-222.8333282470703,52 A4,4 90 0 1 -218.8333282470703,48 L-214.8333282470703,48 L-214.8333282470703,50 L-204.8333282470703,50 L-204.8333282470703,48 L-184.8333282470703,48 L-180.8333282470703,48 A4,4 90 0 1 -176.8333282470703,52 L-176.8333282470703,56 L-176.8333282470703,60 L-176.8333282470703,64 A4,4 90 0 1 -180.8333282470703,68 L-184.8333282470703,68 L-204.8333282470703,68 L-205.8333282470703,68 L-205.8333282470703,70 L-213.8333282470703,70 L-213.8333282470703,68 L-214.8333282470703,68 L-218.8333282470703,68 A4,4 90 0 1 -222.8333282470703,64 L-222.8333282470703,60 z"
           style="fill:#B0B0B0;fill-opacity:1;stroke:#A0A0A0;stroke-width:1;stroke-linecap:round;stroke-opacity:1;"
           id="svg_286" />
        <text
           style="font-size:10px;fill:#282828;font-family:sans-serif;text-anchor:end"
           id="svg_287"
           y="47.5"
           x="-223.3333282470703">
          <tspan
             x="-187.3333282470703"
             y="61.5"
             id="svg_288">↓</tspan>
        </text>
      </g>
    </g>
    <g
       id="svg_289"
       class="">
      <g
         transform="translate(796,33) scale(1.5) "
         id="svg_290">
        <path
           d="m-222.8333282470703,56 L-222.8333282470703,52 A4,4 90 0 1 -218.8333282470703,48 L-214.8333282470703,48 L-214.8333282470703,50 L-204.8333282470703,50 L-204.8333282470703,48 L-174.8333282470703,48 L-170.8333282470703,48 A4,4 90 0 1 -166.8333282470703,52 L-166.8333282470703,56 L-170.8333282470703,56 L-170.8333282470703,53 L-174.8333282470703,53 L-174.8333282470703,63 L-170.8333282470703,63 L-170.8333282470703,60 L-166.8333282470703,60 L-166.8333282470703,64 A4,4 90 0 1 -170.8333282470703,68 L-174.8333282470703,68 L-204.8333282470703,68 L-205.8333282470703,68 L-205.8333282470703,70 L-213.8333282470703,70 L-213.8333282470703,68 L-214.8333282470703,68 L-218.8333282470703,68 A4,4 90 0 1 -222.8333282470703,64 L-222.8333282470703,60 L-222.8333282470703,56 z"
           style="fill:#25C3C0;fill-opacity:1;stroke:#1DBCBD;stroke-width:1;stroke-linecap:round;stroke-opacity:1;"
           id="svg_291" />
        <text
           style="font-size:10px;fill:#282828;font-family:sans-serif;text-anchor:end"
           id="svg_292"
           y="47.5"
           x="-223.3333282470703">
          <tspan
             x="-177.3333282470703"
             y="61.5"
             id="svg_293">drum</tspan>
        </text>
        <text
           style="font-size:6.666666666666667px;fill:#282828;font-family:sans-serif;text-anchor:end"
           id="svg_294"
           y="47.5"
           x="-223.3333282470703" />
      </g>
    </g>
    <g
       id="svg_296"
       class="">
      <g
         transform="translate(870,33) scale(1.5) "
         id="svg_297">
        <path
           d="m-214.8333282470703,48 L-104.83332824707031,48 L-104.83332824707031,68 L-214.8333282470703,68 L-214.8333282470703,60 L-214.8333282470703,59 L-220.8333282470703,59 L-220.8333282470703,62 L-222.8333282470703,62 L-222.8333282470703,54 L-220.8333282470703,54 L-220.8333282470703,57 L-214.8333282470703,57 L-214.8333282470703,56 z"
           style="fill:#25C3C0;fill-opacity:1;stroke:#1DBCBD;stroke-width:1;stroke-linecap:round;stroke-opacity:1;"
           id="svg_298" />
        <text
           style="font-size:10px;fill:#282828;font-family:sans-serif;text-anchor:start"
           id="svg_299"
           y="47.5"
           x="-223.3333282470703">
          <tspan
             x="-210.3333282470703"
             y="61.5"
             id="svg_300">snare drum</tspan>
        </text>
      </g>
    </g>
    <g
       id="svg_301"
       class="">
      <g
         transform="translate(796,159) scale(1.5) "
         id="svg_302">
        <path
           d="m-222.8333282470703,56 L-222.8333282470703,52 A4,4 90 0 1 -218.8333282470703,48 L-214.8333282470703,48 L-214.8333282470703,50 L-204.8333282470703,50 L-204.8333282470703,48 L-174.8333282470703,48 L-170.8333282470703,48 A4,4 90 0 1 -166.8333282470703,52 L-166.8333282470703,56 L-170.8333282470703,56 L-170.8333282470703,53 L-174.8333282470703,53 L-174.8333282470703,63 L-170.8333282470703,63 L-170.8333282470703,60 L-166.8333282470703,60 L-166.8333282470703,64 A4,4 90 0 1 -170.8333282470703,68 L-174.8333282470703,68 L-204.8333282470703,68 L-205.8333282470703,68 L-205.8333282470703,70 L-213.8333282470703,70 L-213.8333282470703,68 L-214.8333282470703,68 L-218.8333282470703,68 A4,4 90 0 1 -222.8333282470703,64 L-222.8333282470703,60 L-222.8333282470703,56 z"
           style="fill:#25C3C0;fill-opacity:1;stroke:#1DBCBD;stroke-width:1;stroke-linecap:round;stroke-opacity:1;"
           id="svg_303" />
        <text
           style="font-size:10px;fill:#282828;font-family:sans-serif;text-anchor:end"
           id="svg_304"
           y="47.5"
           x="-223.3333282470703">
          <tspan
             x="-177.3333282470703"
             y="61.5"
             id="svg_305">drum</tspan>
        </text>
        <text
           style="font-size:6.666666666666667px;fill:#282828;font-family:sans-serif;text-anchor:end"
           id="svg_306"
           y="47.5"
           x="-223.3333282470703" />
      </g>
    </g>
    <g
       id="svg_308"
       class="">
      <g
         transform="translate(870,159) scale(1.5) "
         id="svg_309">
        <path
           d="m-214.8333282470703,48 L-104.83332824707031,48 L-104.83332824707031,68 L-214.8333282470703,68 L-214.8333282470703,60 L-214.8333282470703,59 L-220.8333282470703,59 L-220.8333282470703,62 L-222.8333282470703,62 L-222.8333282470703,54 L-220.8333282470703,54 L-220.8333282470703,57 L-214.8333282470703,57 L-214.8333282470703,56 z"
           style="fill:#25C3C0;fill-opacity:1;stroke:#1DBCBD;stroke-width:1;stroke-linecap:round;stroke-opacity:1;"
           id="svg_310" />
        <text
           style="font-size:10px;fill:#282828;font-family:sans-serif;text-anchor:start"
           id="svg_311"
           y="47.5"
           x="-223.3333282470703">
          <tspan
             x="-210.3333282470703"
             y="61.5"
             id="svg_312">kick drum</tspan>
        </text>
      </g>
    </g>
    <g
       id="svg_313"
       class="">
      <g
         transform="translate(796,285) scale(1.5) "
         id="svg_314">
        <path
           d="m-222.8333282470703,56 L-222.8333282470703,52 A4,4 90 0 1 -218.8333282470703,48 L-214.8333282470703,48 L-214.8333282470703,50 L-204.8333282470703,50 L-204.8333282470703,48 L-174.8333282470703,48 L-170.8333282470703,48 A4,4 90 0 1 -166.8333282470703,52 L-166.8333282470703,56 L-170.8333282470703,56 L-170.8333282470703,53 L-174.8333282470703,53 L-174.8333282470703,63 L-170.8333282470703,63 L-170.8333282470703,60 L-166.8333282470703,60 L-166.8333282470703,64 A4,4 90 0 1 -170.8333282470703,68 L-174.8333282470703,68 L-204.8333282470703,68 L-205.8333282470703,68 L-205.8333282470703,70 L-213.8333282470703,70 L-213.8333282470703,68 L-214.8333282470703,68 L-218.8333282470703,68 A4,4 90 0 1 -222.8333282470703,64 L-222.8333282470703,60 L-222.8333282470703,56 z"
           style="fill:#25C3C0;fill-opacity:1;stroke:#1DBCBD;stroke-width:1;stroke-linecap:round;stroke-opacity:1;"
           id="svg_315" />
        <text
           style="font-size:10px;fill:#282828;font-family:sans-serif;text-anchor:end"
           id="svg_316"
           y="47.5"
           x="-223.3333282470703">
          <tspan
             x="-177.3333282470703"
             y="61.5"
             id="svg_317">drum</tspan>
        </text>
        <text
           style="font-size:6.666666666666667px;fill:#282828;font-family:sans-serif;text-anchor:end"
           id="svg_318"
           y="47.5"
           x="-223.3333282470703" />
      </g>
    </g>
    <g
       id="svg_320"
       class="">
      <g
         transform="translate(870,285) scale(1.5) "
         id="svg_321">
        <path
           d="m-214.8333282470703,48 L-104.83332824707031,48 L-104.83332824707031,68 L-214.8333282470703,68 L-214.8333282470703,60 L-214.8333282470703,59 L-220.8333282470703,59 L-220.8333282470703,62 L-222.8333282470703,62 L-222.8333282470703,54 L-220.8333282470703,54 L-220.8333282470703,57 L-214.8333282470703,57 L-214.8333282470703,56 z"
           style="fill:#25C3C0;fill-opacity:1;stroke:#1DBCBD;stroke-width:1;stroke-linecap:round;stroke-opacity:1;"
           id="svg_322" />
        <text
           style="font-size:10px;fill:#282828;font-family:sans-serif;text-anchor:start"
           id="svg_323"
           y="47.5"
           x="-223.3333282470703">
          <tspan
             x="-210.3333282470703"
             y="61.5"
             id="svg_324">kick drum</tspan>
        </text>
      </g>
    </g>
    <g
       id="svg_325"
       class="">
      <g
         transform="translate(796,411) scale(1.5) "
         id="svg_326">
        <path
           d="m-222.8333282470703,56 L-222.8333282470703,52 A4,4 90 0 1 -218.8333282470703,48 L-214.8333282470703,48 L-214.8333282470703,50 L-204.8333282470703,50 L-204.8333282470703,48 L-174.8333282470703,48 L-170.8333282470703,48 A4,4 90 0 1 -166.8333282470703,52 L-166.8333282470703,56 L-170.8333282470703,56 L-170.8333282470703,53 L-174.8333282470703,53 L-174.8333282470703,63 L-170.8333282470703,63 L-170.8333282470703,60 L-166.8333282470703,60 L-166.8333282470703,64 A4,4 90 0 1 -170.8333282470703,68 L-174.8333282470703,68 L-204.8333282470703,68 L-205.8333282470703,68 L-205.8333282470703,70 L-213.8333282470703,70 L-213.8333282470703,68 L-214.8333282470703,68 L-218.8333282470703,68 A4,4 90 0 1 -222.8333282470703,64 L-222.8333282470703,60 L-222.8333282470703,56 z"
           style="fill:#25C3C0;fill-opacity:1;stroke:#1DBCBD;stroke-width:1;stroke-linecap:round;stroke-opacity:1;"
           id="svg_327" />
        <text
           style="font-size:10px;fill:#282828;font-family:sans-serif;text-anchor:end"
           id="svg_328"
           y="47.5"
           x="-223.3333282470703">
          <tspan
             x="-177.3333282470703"
             y="61.5"
             id="svg_329">drum</tspan>
        </text>
        <text
           style="font-size:6.666666666666667px;fill:#282828;font-family:sans-serif;text-anchor:end"
           id="svg_330"
           y="47.5"
           x="-223.3333282470703" />
      </g>
    </g>
    <g
       id="svg_332"
       class="">
      <g
         transform="translate(870,411) scale(1.5) "
         id="svg_333">
        <path
           d="m-214.8333282470703,48 L-104.83332824707031,48 L-104.83332824707031,68 L-214.8333282470703,68 L-214.8333282470703,60 L-214.8333282470703,59 L-220.8333282470703,59 L-220.8333282470703,62 L-222.8333282470703,62 L-222.8333282470703,54 L-220.8333282470703,54 L-220.8333282470703,57 L-214.8333282470703,57 L-214.8333282470703,56 z"
           style="fill:#25C3C0;fill-opacity:1;stroke:#1DBCBD;stroke-width:1;stroke-linecap:round;stroke-opacity:1;"
           id="svg_334" />
        <text
           style="font-size:10px;fill:#282828;font-family:sans-serif;text-anchor:start"
           id="svg_335"
           y="47.5"
           x="-223.3333282470703">
          <tspan
             x="-210.3333282470703"
             y="61.5"
             id="svg_336">triangle bell</tspan>
        </text>
      </g>
    </g>
  </g>
</svg>
