<?xml version="1.0" encoding="UTF-8" standalone="no"?>
<svg
   xmlns:dc="http://purl.org/dc/elements/1.1/"
   xmlns:cc="http://creativecommons.org/ns#"
   xmlns:rdf="http://www.w3.org/1999/02/22-rdf-syntax-ns#"
   xmlns:svg="http://www.w3.org/2000/svg"
   xmlns="http://www.w3.org/2000/svg"
   width="79.168938mm"
   height="34.131248mm"
   viewBox="0 0 280.51988 120.93749"
   id="svg5587"
   version="1.1">
  <defs
     id="defs5589" />
  <metadata
     id="metadata5592">
    <rdf:RDF>
      <cc:Work
         rdf:about="">
        <dc:format>image/svg+xml</dc:format>
        <dc:type
           rdf:resource="http://purl.org/dc/dcmitype/StillImage" />
        <dc:title></dc:title>
      </cc:Work>
    </rdf:RDF>
  </metadata>
  <text
     id="text3057"
     style="font-size:13.33333302px;font-family:Sans;text-anchor:end;fill:#000000"
     x="-598.56976"
     y="163.37566">
    <tspan
       x="-504.56973"
       y="185.87569"
       id="tspan3059" />
  </text>
  <flowRoot
     xml:space="preserve"
     id="flowRoot13151"
     style="font-style:normal;font-weight:normal;font-size:16px;line-height:125%;font-family:sans-serif;text-align:center;letter-spacing:0px;word-spacing:0px;text-anchor:middle;fill:#000000;fill-opacity:1;stroke:none;stroke-width:1px;stroke-linecap:butt;stroke-linejoin:miter;stroke-opacity:1"
     transform="translate(-401.23843,156.46875)"><flowRegion
       id="flowRegion13153"><rect
         id="rect13155"
         width="341.50607"
         height="75.890244"
         x="-46.463413"
         y="28.554882" /></flowRegion><flowPara
       id="flowPara13157" /></flowRoot>  <g
     id="g1539"
     transform="scale(0.93750001)">
    <g
       transform="scale(1.5)"
       id="g1537">
      <path
         d="m 0.5,8.5 v -4 c 0,-2.209139 1.790861,-4 4,-4 h 4 v 2 h 10 v -2 h 9 45.480794 4 c 2.209139,0 4,1.790861 4,4 v 4 h -4 v -3 h -4 v 10 h 4 v -3 h 4 v 4 c 0,2.209139 -1.790861,4 -4,4 h -4 H 27.5 h -1 v 2 h -8 v -2 h -1 -4 c -2.761424,0 -5,2.238576 -5,5 v 4 4 21 4 c 0,2.761424 2.238576,5 5,5 h 4 v 2 h 10 v -2 h 8 v 6 6 4 c 0,2.209139 -1.790861,4 -4,4 h -4 -9 -1 v 2 h -8 v -2 h -1 -4 c -2.209139,0 -4,-1.790861 -4,-4 v -4 z"
         style="fill:#fe994f;fill-opacity:1;stroke:#e8680e;stroke-width:1;stroke-linecap:round;stroke-opacity:1"
         id="path1527" />
      <text
         style="font-size:10px;font-family:sans-serif;text-anchor:start;fill:#000000"
         id="text1531">
        <tspan
           x="5.3333335"
           y="15.25"
           id="tspan1529">valor de nota</tspan>
      </text>
      <text
         style="font-size:6.66666651px;font-family:sans-serif;text-anchor:end;fill:#000000"
         id="text1535">
        <tspan
           x="61.480793"
           y="11.25"
           id="tspan1533" />
      </text>
    </g>
  </g>
  <g
     transform="matrix(0.93750001,0,0,0.93750001,103.33237,0)"
     id="g1557">
    <g
       transform="scale(1.5)"
       id="g1555">
      <path
         d="m 8.5,8.5 v -4 a 4,4 90 0 1 4,-4 h 4 10 30 4 a 4,4 90 0 1 4,4 v 4 h -4 v -3 h -4 v 10 h 4 v -3 h 4 v 17 h -4 v -3 h -4 v 10 h 4 v -3 h 4 v 4 a 4,4 90 0 1 -4,4 h -4 -30 -10 -4 a 4,4 90 0 1 -4,-4 v -4 -21 -1 h -6 v 3 h -2 v -8 h 2 v 3 h 6 z"
         style="fill:#ff6ea1;fill-opacity:1;stroke:#ff2c76;stroke-width:1;stroke-linecap:round;stroke-opacity:1"
         id="path1541" />
      <text
         style="font-size:14px;font-family:sans-serif;text-anchor:end;fill:#000000"
         id="text1545">
        <tspan
           x="54.333332"
           y="23.799999"
           id="tspan1543">/</tspan>
      </text>
      <text
         style="font-size:9.33333302px;font-family:sans-serif;text-anchor:end;fill:#000000"
         id="text1549">
        <tspan
           x="54.333332"
           y="10.75"
           id="tspan1547" />
      </text>
      <text
         style="font-size:9.33333302px;font-family:sans-serif;text-anchor:end;fill:#000000"
         id="text1553">
        <tspan
           x="54.333332"
           y="31.75"
           id="tspan1551" />
      </text>
    </g>
  </g>
  <g
     transform="matrix(0.93750001,0,0,0.93750001,183.48862,0)"
     id="g1567">
    <g
       transform="scale(1.5)"
       id="g1565">
      <path
         d="m 8.5,0.5 h 60 v 20 h -60 v -8 -1 h -6 v 3 h -2 v -8 h 2 v 3 h 6 v -1 z"
         style="fill:#ff6ea1;fill-opacity:1;stroke:#ff2c76;stroke-width:1;stroke-linecap:round;stroke-opacity:1"
         id="path1559" />
      <text
         style="font-size:10px;font-family:sans-serif;text-anchor:start;fill:#000000"
         id="text1563">
        <tspan
           x="13.333333"
           y="13.833333"
           id="tspan1561">1</tspan>
      </text>
    </g>
  </g>
  <g
     transform="matrix(0.93750001,0,0,0.93750001,183.48862,29.53125)"
     id="g1577">
    <g
       transform="scale(1.5)"
       id="g1575">
      <path
         d="m 8.5,0.5 h 60 v 20 h -60 v -8 -1 h -6 v 3 h -2 v -8 h 2 v 3 h 6 v -1 z"
         style="fill:#ff6ea1;fill-opacity:1;stroke:#ff2c76;stroke-width:1;stroke-linecap:round;stroke-opacity:1"
         id="path1569" />
      <text
         style="font-size:10px;font-family:sans-serif;text-anchor:start;fill:#000000"
         id="text1573">
        <tspan
           x="13.333333"
           y="13.833333"
           id="tspan1571">4</tspan>
      </text>
    </g>
  </g>
  <g
     transform="matrix(0.93750001,0,0,0.93750001,12.65625,29.53125)"
     id="g1587">
    <g
       transform="scale(1.5)"
       id="g1585">
      <path
         d="m 0.5,8.5 v -4 a 4,4 90 0 1 4,-4 h 4 v 2 h 10 v -2 h 20 4 a 4,4 90 0 1 4,4 v 4 4 4 a 4,4 90 0 1 -4,4 h -4 -20 -1 v 2 h -8 v -2 h -1 -4 a 4,4 90 0 1 -4,-4 v -4 z"
         style="fill:#c4c4c4;fill-opacity:1;stroke:#000000;stroke-width:1;stroke-linecap:round;stroke-opacity:1"
         id="path1579" />
      <text
         style="font-size:10px;font-family:sans-serif;text-anchor:end;fill:#000000"
         id="text1583">
        <tspan
           x="36.333332"
           y="13.5"
           id="tspan1581">↓</tspan>
      </text>
    </g>
  </g>
  <g
     transform="matrix(0.93750001,0,0,0.93750001,12.65625,59.062501)"
     id="g1601">
    <g
       transform="scale(1.5)"
       id="g1599">
      <path
         d="m 0.5,8.5 v -4 a 4,4 90 0 1 4,-4 h 4 v 2 h 10 v -2 h 30 4 a 4,4 90 0 1 4,4 v 4 h -4 v -3 h -4 v 10 h 4 v -3 h 4 v 4 a 4,4 90 0 1 -4,4 h -4 -30 -1 v 2 h -8 v -2 h -1 -4 a 4,4 90 0 1 -4,-4 v -4 z"
         style="fill:#3edcdd;fill-opacity:1;stroke:#000000;stroke-width:1;stroke-linecap:round;stroke-opacity:1"
         id="path1589" />
      <text
         style="font-size:10px;font-family:sans-serif;text-anchor:end;fill:#000000"
         id="text1593">
        <tspan
           x="46.333332"
           y="13.5"
           id="tspan1591">bateria</tspan>
      </text>
      <text
         style="font-size:6.66666651px;font-family:sans-serif;text-anchor:end;fill:#000000"
         id="text1597">
        <tspan
           x="46.333332"
           y="11.25"
           id="tspan1595" />
      </text>
    </g>
  </g>
  <g
     transform="matrix(0.93750001,0,0,0.93750001,81.5625,59.062501)"
     id="g1611">
    <g
       transform="scale(1.5)"
       id="g1609">
      <path
         d="m 8.5,0.5 h 60 v 20 h -60 v -8 -1 h -6 v 3 h -2 v -8 h 2 v 3 h 6 v -1 z"
         style="fill:#3edcdd;fill-opacity:1;stroke:#000000;stroke-width:1;stroke-linecap:round;stroke-opacity:1"
         id="path1603" />
      <text
         style="font-size:10px;font-family:sans-serif;text-anchor:start;fill:#000000"
         id="text1607">
        <tspan
           x="13.333333"
           y="13.833333"
           id="tspan1605">bumbo</tspan>
      </text>
    </g>
  </g>
</svg>
