<?xml version="1.0" encoding="UTF-8" standalone="no"?>
<svg
   xmlns:dc="http://purl.org/dc/elements/1.1/"
   xmlns:cc="http://creativecommons.org/ns#"
   xmlns:rdf="http://www.w3.org/1999/02/22-rdf-syntax-ns#"
   xmlns:svg="http://www.w3.org/2000/svg"
   xmlns="http://www.w3.org/2000/svg"
   version="1.1"
   id="svg4075"
   viewBox="0 0 643.98865 431.10287"
   height="431.10287"
   width="643.98865">
  <defs
     id="defs4077" />
  <metadata
     id="metadata4080">
    <rdf:RDF>
      <cc:Work
         rdf:about="">
        <dc:format>image/svg+xml</dc:format>
        <dc:type
           rdf:resource="http://purl.org/dc/dcmitype/StillImage" />
        <dc:title></dc:title>
      </cc:Work>
    </rdf:RDF>
  </metadata>
  <text
     x="-115.71424"
     y="-127.32195"
     id="text3033"
     style="font-size:13.33333302px;font-family:Sans;text-anchor:end;fill:#000000">
    <tspan
       x="-13.71424"
       y="-104.82195"
       id="tspan3035" />
  </text>
  <text
     x="-97.714241"
     y="-62.358391"
     id="text3107"
     style="font-size:13.33333302px;font-family:Sans;text-anchor:end;fill:#000000">
    <tspan
       x="-3.7142401"
       y="-39.858391"
       id="tspan3109" />
  </text>
  <text
     x="-115.71424"
     y="-43.321953"
     id="text3033-0"
     style="font-size:13.33333302px;font-family:Sans;text-anchor:end;fill:#000000">
    <tspan
       x="-13.71424"
       y="-20.821947"
       id="tspan3035-1" />
  </text>
  <text
     x="-115.71424"
     y="40.677986"
     id="text3033-1"
     style="font-size:13.33333302px;font-family:Sans;text-anchor:end;fill:#000000">
    <tspan
       x="-13.71424"
       y="63.177986"
       id="tspan3035-8" />
  </text>
  <text
     x="-115.71424"
     y="124.67799"
     id="text3033-0-9"
     style="font-size:13.33333302px;font-family:Sans;text-anchor:end;fill:#000000">
    <tspan
       x="-13.71424"
       y="147.17799"
       id="tspan3035-1-5" />
  </text>
  <text
     y="576.20374"
     x="-89.714272"
     id="text27-9"
     style="font-size:13.33333302px;font-family:Sans;text-anchor:end;fill:#000000">
    <tspan
       x="4.2857294"
       y="598.70367"
       id="tspan29-8" />
  </text>
  <g
     transform="matrix(0.9375,0,0,0.9375,324.625,0.39519136)"
     id="g1438">
    <g
       transform="scale(1.5)"
       id="g1436">
      <path
         d="m 0.5,14.5 v -4 a 4,4 90 0 1 4,-4 h 4 l 5,-6 5,6 h 9 30 4 a 4,4 90 0 1 4,4 v 4 4 4 a 4,4 90 0 1 -4,4 h -4 -30 -1 v 2 h -8 v -2 h -1 -4 a 5,5 90 0 0 -5,5 v 4 4 231 4 a 5,5 90 0 0 5,5 h 4 v 2 h 10 v -2 h 8 v 6 6 4 a 4,4 90 0 1 -4,4 h -4 -9 l -5,6 -5,-6 h -4 a 4,4 90 0 1 -4,-4 v -4 z"
         style="fill:#ffbf00;fill-opacity:1;stroke:#daaf30;stroke-width:1;stroke-linecap:round;stroke-opacity:1"
         id="path1430" />
      <text
         style="font-size:10px;font-family:sans-serif;text-anchor:start;fill:#000000"
         id="text1434">
        <tspan
           x="5.3333335"
           y="21.5"
           id="tspan1432">iniciar</tspan>
      </text>
    </g>
  </g>
  <g
     transform="matrix(0.9375,0,0,0.9375,337.28125,38.363941)"
     id="g1448">
    <g
       transform="scale(1.5)"
       id="g1446">
      <path
         d="m 0.5,8.5 v -4 c 0,-2.209139 1.790861,-4 4,-4 h 4 v 2 h 10 v -2 h 9 38.145269 4 c 2.209139,0 4.740083,1.9185168 4,4 v 4 4 4 c 0,2.209139 -1.790861,4 -4,4 h -4 H 27.5 h -1 v 2 h -8 v -2 h -1 -4 c -2.761424,0 -5,2.238576 -5,5 v 4 4 189 4 c 0,2.76142 2.238576,5 5,5 h 4 v 2 h 10 v -2 h 8 v 6 6 4 c 0,2.20914 -1.790861,4 -4,4 h -4 -9 -1 v 2 h -8 v -2 h -1 -4 c -2.209139,0 -4,-1.79086 -4,-4 v -4 z"
         style="fill:#e9a066;fill-opacity:1;stroke:#b7651a;stroke-width:1;stroke-linecap:round;stroke-opacity:1"
         id="path1440" />
      <text
         style="font-size:10px;font-family:sans-serif;text-anchor:start;fill:#000000"
         id="text1444">
        <tspan
           x="5.3333335"
           y="15.25"
           id="tspan1442">para sempre</tspan>
      </text>
    </g>
  </g>
  <g
     transform="matrix(0.9375,0,0,0.9375,349.9375,67.895191)"
     id="g1462">
    <g
       transform="scale(1.5)"
       id="g1460">
      <path
         d="m 0.5,8.5 v -4 c 0,-2.209139 1.790861,-4 4,-4 h 4 v 2 h 10 v -2 h 9 46.103017 4 c 2.209139,0 4,1.790861 4,4 v 4 h -4 v -3 h -4 v 10 h 4 v -3 h 4 v 4 c 0,2.209139 -1.790861,4 -4,4 h -4 H 27.5 h -1 v 2 h -8 v -2 h -1 -4 c -2.761424,0 -5,2.238576 -5,5 v 4 4 21 4 c 0,2.761424 2.238576,5 5,5 h 4 v 2 h 10 v -2 h 8 v 6 6 4 c 0,2.209139 -1.790861,4 -4,4 h -4 -9 -1 v 2 h -8 v -2 h -1 -4 c -2.209139,0 -4,-1.790861 -4,-4 v -4 z"
         style="fill:#fe994f;fill-opacity:1;stroke:#e8680e;stroke-width:1;stroke-linecap:round;stroke-opacity:1"
         id="path1450" />
      <text
         style="font-size:10px;font-family:sans-serif;text-anchor:start;fill:#000000"
         id="text1454">
        <tspan
           x="5.3333335"
           y="15.25"
           id="tspan1452">valor de nota</tspan>
      </text>
      <text
         style="font-size:6.66666651px;font-family:sans-serif;text-anchor:end;fill:#000000"
         id="text1458">
        <tspan
           x="61.480793"
           y="11.25"
           id="tspan1456" />
      </text>
    </g>
  </g>
  <g
     transform="matrix(0.9375,0,0,0.9375,454.14487,67.895191)"
     id="g1480">
    <g
       transform="scale(1.5)"
       id="g1478">
      <path
         d="m 8.5,8.5 v -4 a 4,4 90 0 1 4,-4 h 4 10 30 4 a 4,4 90 0 1 4,4 v 4 h -4 v -3 h -4 v 10 h 4 v -3 h 4 v 17 h -4 v -3 h -4 v 10 h 4 v -3 h 4 v 4 a 4,4 90 0 1 -4,4 h -4 -30 -10 -4 a 4,4 90 0 1 -4,-4 v -4 -21 -1 h -6 v 3 h -2 v -8 h 2 v 3 h 6 z"
         style="fill:#ff6ea1;fill-opacity:1;stroke:#ff2c76;stroke-width:1;stroke-linecap:round;stroke-opacity:1"
         id="path1464" />
      <text
         style="font-size:14px;font-family:sans-serif;text-anchor:end;fill:#000000"
         id="text1468">
        <tspan
           x="54.333332"
           y="23.799999"
           id="tspan1466">/</tspan>
      </text>
      <text
         style="font-size:9.33333302px;font-family:sans-serif;text-anchor:end;fill:#000000"
         id="text1472">
        <tspan
           x="54.333332"
           y="10.75"
           id="tspan1470" />
      </text>
      <text
         style="font-size:9.33333302px;font-family:sans-serif;text-anchor:end;fill:#000000"
         id="text1476">
        <tspan
           x="54.333332"
           y="31.75"
           id="tspan1474" />
      </text>
    </g>
  </g>
  <g
     transform="matrix(0.9375,0,0,0.9375,534.30112,67.895191)"
     id="g1490">
    <g
       transform="scale(1.5)"
       id="g1488">
      <path
         d="m 8.5,0.5 h 60 v 20 h -60 v -8 -1 h -6 v 3 h -2 v -8 h 2 v 3 h 6 v -1 z"
         style="fill:#ff6ea1;fill-opacity:1;stroke:#ff2c76;stroke-width:1;stroke-linecap:round;stroke-opacity:1"
         id="path1482" />
      <text
         style="font-size:10px;font-family:sans-serif;text-anchor:start;fill:#000000"
         id="text1486">
        <tspan
           x="13.333333"
           y="13.833333"
           id="tspan1484">1</tspan>
      </text>
    </g>
  </g>
  <g
     transform="matrix(0.9375,0,0,0.9375,534.30112,97.426441)"
     id="g1500">
    <g
       transform="scale(1.5)"
       id="g1498">
      <path
         d="m 8.5,0.5 h 60 v 20 h -60 v -8 -1 h -6 v 3 h -2 v -8 h 2 v 3 h 6 v -1 z"
         style="fill:#ff6ea1;fill-opacity:1;stroke:#ff2c76;stroke-width:1;stroke-linecap:round;stroke-opacity:1"
         id="path1492" />
      <text
         style="font-size:10px;font-family:sans-serif;text-anchor:start;fill:#000000"
         id="text1496">
        <tspan
           x="13.333333"
           y="13.833333"
           id="tspan1494">2</tspan>
      </text>
    </g>
  </g>
  <g
     transform="matrix(0.9375,0,0,0.9375,362.59375,97.426441)"
     id="g1510">
    <g
       transform="scale(1.5)"
       id="g1508">
      <path
         d="m 0.5,8.5 v -4 a 4,4 90 0 1 4,-4 h 4 v 2 h 10 v -2 h 20 4 a 4,4 90 0 1 4,4 v 4 4 4 a 4,4 90 0 1 -4,4 h -4 -20 -1 v 2 h -8 v -2 h -1 -4 a 4,4 90 0 1 -4,-4 v -4 z"
         style="fill:#c4c4c4;fill-opacity:1;stroke:#000000;stroke-width:1;stroke-linecap:round;stroke-opacity:1"
         id="path1502" />
      <text
         style="font-size:10px;font-family:sans-serif;text-anchor:end;fill:#000000"
         id="text1506">
        <tspan
           x="36.333332"
           y="13.5"
           id="tspan1504">↓</tspan>
      </text>
    </g>
  </g>
  <g
     transform="matrix(0.9375,0,0,0.9375,362.59375,126.95769)"
     id="g1524">
    <g
       transform="scale(1.5)"
       id="g1522">
      <path
         d="m 0.5,8.5 v -4 a 4,4 90 0 1 4,-4 h 4 v 2 h 10 v -2 h 30 4 a 4,4 90 0 1 4,4 v 4 h -4 v -3 h -4 v 10 h 4 v -3 h 4 v 4 a 4,4 90 0 1 -4,4 h -4 -30 -1 v 2 h -8 v -2 h -1 -4 a 4,4 90 0 1 -4,-4 v -4 z"
         style="fill:#3edcdd;fill-opacity:1;stroke:#000000;stroke-width:1;stroke-linecap:round;stroke-opacity:1"
         id="path1512" />
      <text
         style="font-size:10px;font-family:sans-serif;text-anchor:end;fill:#000000"
         id="text1516">
        <tspan
           x="46.333332"
           y="13.5"
           id="tspan1514">bateria</tspan>
      </text>
      <text
         style="font-size:6.66666651px;font-family:sans-serif;text-anchor:end;fill:#000000"
         id="text1520">
        <tspan
           x="46.333332"
           y="11.25"
           id="tspan1518" />
      </text>
    </g>
  </g>
  <g
     transform="matrix(0.9375,0,0,0.9375,431.5,126.95769)"
     id="g1534">
    <g
       transform="scale(1.5)"
       id="g1532">
      <path
         d="m 8.5,0.5 h 60 v 20 h -60 v -8 -1 h -6 v 3 h -2 v -8 h 2 v 3 h 6 v -1 z"
         style="fill:#3edcdd;fill-opacity:1;stroke:#000000;stroke-width:1;stroke-linecap:round;stroke-opacity:1"
         id="path1526" />
      <text
         style="font-size:10px;font-family:sans-serif;text-anchor:start;fill:#000000"
         id="text1530">
        <tspan
           x="13.333333"
           y="13.833333"
           id="tspan1528">tarola</tspan>
      </text>
    </g>
  </g>
  <g
     transform="matrix(0.9375,0,0,0.9375,349.9375,186.02019)"
     id="g1548">
    <g
       transform="scale(1.5)"
       id="g1546">
      <path
         d="m 0.5,8.5 v -4 a 4,4 90 0 1 4,-4 h 4 v 2 h 10 v -2 h 9 20 4 a 4,4 90 0 1 4,4 v 4 h -4 v -3 h -4 v 10 h 4 v -3 h 4 v 4 a 4,4 90 0 1 -4,4 h -4 -20 -1 v 2 h -8 v -2 h -1 -4 a 5,5 90 0 0 -5,5 v 4 4 63 4 a 5,5 90 0 0 5,5 h 4 v 2 h 10 v -2 h 8 v 6 6 4 a 4,4 90 0 1 -4,4 h -4 -9 -1 v 2 h -8 v -2 h -1 -4 a 4,4 90 0 1 -4,-4 v -4 z"
         style="fill:#e9a066;fill-opacity:1;stroke:#b7651a;stroke-width:1;stroke-linecap:round;stroke-opacity:1"
         id="path1536" />
      <text
         style="font-size:10px;font-family:sans-serif;text-anchor:start;fill:#000000"
         id="text1540">
        <tspan
           x="5.3333335"
           y="15.25"
           id="tspan1538">repetir</tspan>
      </text>
      <text
         style="font-size:6.66666651px;font-family:sans-serif;text-anchor:end;fill:#000000"
         id="text1544">
        <tspan
           x="45.333332"
           y="11.25"
           id="tspan1542" />
      </text>
    </g>
  </g>
  <g
     transform="matrix(0.9375,0,0,0.9375,417.4375,186.02019)"
     id="g1558">
    <g
       transform="scale(1.5)"
       id="g1556">
      <path
         d="m 8.5,0.5 h 60 v 20 h -60 v -8 -1 h -6 v 3 h -2 v -8 h 2 v 3 h 6 v -1 z"
         style="fill:#ff6ea1;fill-opacity:1;stroke:#ff2c76;stroke-width:1;stroke-linecap:round;stroke-opacity:1"
         id="path1550" />
      <text
         style="font-size:10px;font-family:sans-serif;text-anchor:start;fill:#000000"
         id="text1554">
        <tspan
           x="13.333333"
           y="13.833333"
           id="tspan1552">2</tspan>
      </text>
    </g>
  </g>
  <g
     transform="matrix(0.9375,0,0,0.9375,362.59375,215.55144)"
     id="g1572">
    <g
       transform="scale(1.5)"
       id="g1570">
      <path
         d="m 0.5,8.5 v -4 c 0,-2.209139 1.790861,-4 4,-4 h 4 v 2 h 10 v -2 h 9 46.103017 4 c 2.209139,0 4.740082,1.9185168 4,4 v 4 h -4 v -3 h -4 v 10 h 4 v -3 h 4 v 4 c 0,2.209139 -1.790861,4 -4,4 h -4 H 27.5 h -1 v 2 h -8 v -2 h -1 -4 c -2.761424,0 -5,2.238576 -5,5 v 4 4 21 4 c 0,2.761424 2.238576,5 5,5 h 4 v 2 h 10 v -2 h 8 v 6 6 4 c 0,2.209139 -1.790861,4 -4,4 h -4 -9 -1 v 2 h -8 v -2 h -1 -4 c -2.209139,0 -4,-1.790861 -4,-4 v -4 z"
         style="fill:#fe994f;fill-opacity:1;stroke:#e8680e;stroke-width:1;stroke-linecap:round;stroke-opacity:1"
         id="path1560" />
      <text
         style="font-size:10px;font-family:sans-serif;text-anchor:start;fill:#000000"
         id="text1564">
        <tspan
           x="5.3333335"
           y="15.25"
           id="tspan1562">valor de nota</tspan>
      </text>
      <text
         style="font-size:6.66666651px;font-family:sans-serif;text-anchor:end;fill:#000000"
         id="text1568">
        <tspan
           x="61.480793"
           y="11.25"
           id="tspan1566" />
      </text>
    </g>
  </g>
  <g
     transform="matrix(0.9375,0,0,0.9375,466.80112,215.55144)"
     id="g1590">
    <g
       transform="scale(1.5)"
       id="g1588">
      <path
         d="m 8.5,8.5 v -4 a 4,4 90 0 1 4,-4 h 4 10 30 4 a 4,4 90 0 1 4,4 v 4 h -4 v -3 h -4 v 10 h 4 v -3 h 4 v 17 h -4 v -3 h -4 v 10 h 4 v -3 h 4 v 4 a 4,4 90 0 1 -4,4 h -4 -30 -10 -4 a 4,4 90 0 1 -4,-4 v -4 -21 -1 h -6 v 3 h -2 v -8 h 2 v 3 h 6 z"
         style="fill:#ff6ea1;fill-opacity:1;stroke:#ff2c76;stroke-width:1;stroke-linecap:round;stroke-opacity:1"
         id="path1574" />
      <text
         style="font-size:14px;font-family:sans-serif;text-anchor:end;fill:#000000"
         id="text1578">
        <tspan
           x="54.333332"
           y="23.799999"
           id="tspan1576">/</tspan>
      </text>
      <text
         style="font-size:9.33333302px;font-family:sans-serif;text-anchor:end;fill:#000000"
         id="text1582">
        <tspan
           x="54.333332"
           y="10.75"
           id="tspan1580" />
      </text>
      <text
         style="font-size:9.33333302px;font-family:sans-serif;text-anchor:end;fill:#000000"
         id="text1586">
        <tspan
           x="54.333332"
           y="31.75"
           id="tspan1584" />
      </text>
    </g>
  </g>
  <g
     transform="matrix(0.9375,0,0,0.9375,546.95737,215.55144)"
     id="g1600">
    <g
       transform="scale(1.5)"
       id="g1598">
      <path
         d="m 8.5,0.5 h 60 v 20 h -60 v -8 -1 h -6 v 3 h -2 v -8 h 2 v 3 h 6 v -1 z"
         style="fill:#ff6ea1;fill-opacity:1;stroke:#ff2c76;stroke-width:1;stroke-linecap:round;stroke-opacity:1"
         id="path1592" />
      <text
         style="font-size:10px;font-family:sans-serif;text-anchor:start;fill:#000000"
         id="text1596">
        <tspan
           x="13.333333"
           y="13.833333"
           id="tspan1594">1</tspan>
      </text>
    </g>
  </g>
  <g
     transform="matrix(0.9375,0,0,0.9375,546.95737,245.08269)"
     id="g1610">
    <g
       transform="scale(1.5)"
       id="g1608">
      <path
         d="m 8.5,0.5 h 60 v 20 h -60 v -8 -1 h -6 v 3 h -2 v -8 h 2 v 3 h 6 v -1 z"
         style="fill:#ff6ea1;fill-opacity:1;stroke:#ff2c76;stroke-width:1;stroke-linecap:round;stroke-opacity:1"
         id="path1602" />
      <text
         style="font-size:10px;font-family:sans-serif;text-anchor:start;fill:#000000"
         id="text1606">
        <tspan
           x="13.333333"
           y="13.833333"
           id="tspan1604">4</tspan>
      </text>
    </g>
  </g>
  <g
     transform="matrix(0.9375,0,0,0.9375,375.25,245.08269)"
     id="g1620">
    <g
       transform="scale(1.5)"
       id="g1618">
      <path
         d="m 0.5,8.5 v -4 a 4,4 90 0 1 4,-4 h 4 v 2 h 10 v -2 h 20 4 a 4,4 90 0 1 4,4 v 4 4 4 a 4,4 90 0 1 -4,4 h -4 -20 -1 v 2 h -8 v -2 h -1 -4 a 4,4 90 0 1 -4,-4 v -4 z"
         style="fill:#c4c4c4;fill-opacity:1;stroke:#000000;stroke-width:1;stroke-linecap:round;stroke-opacity:1"
         id="path1612" />
      <text
         style="font-size:10px;font-family:sans-serif;text-anchor:end;fill:#000000"
         id="text1616">
        <tspan
           x="36.333332"
           y="13.5"
           id="tspan1614">↓</tspan>
      </text>
    </g>
  </g>
  <g
     transform="matrix(0.9375,0,0,0.9375,375.25,274.61394)"
     id="g1634">
    <g
       transform="scale(1.5)"
       id="g1632">
      <path
         d="m 0.5,8.5 v -4 a 4,4 90 0 1 4,-4 h 4 v 2 h 10 v -2 h 30 4 a 4,4 90 0 1 4,4 v 4 h -4 v -3 h -4 v 10 h 4 v -3 h 4 v 4 a 4,4 90 0 1 -4,4 h -4 -30 -1 v 2 h -8 v -2 h -1 -4 a 4,4 90 0 1 -4,-4 v -4 z"
         style="fill:#3edcdd;fill-opacity:1;stroke:#000000;stroke-width:1;stroke-linecap:round;stroke-opacity:1"
         id="path1622" />
      <text
         style="font-size:10px;font-family:sans-serif;text-anchor:end;fill:#000000"
         id="text1626">
        <tspan
           x="46.333332"
           y="13.5"
           id="tspan1624">bateria</tspan>
      </text>
      <text
         style="font-size:6.66666651px;font-family:sans-serif;text-anchor:end;fill:#000000"
         id="text1630">
        <tspan
           x="46.333332"
           y="11.25"
           id="tspan1628" />
      </text>
    </g>
  </g>
  <g
     transform="matrix(0.9375,0,0,0.9375,444.15625,274.61394)"
     id="g1644">
    <g
       transform="scale(1.5)"
       id="g1642">
      <path
         d="m 8.5,0.5 h 60 v 20 h -60 v -8 -1 h -6 v 3 h -2 v -8 h 2 v 3 h 6 v -1 z"
         style="fill:#3edcdd;fill-opacity:1;stroke:#000000;stroke-width:1;stroke-linecap:round;stroke-opacity:1"
         id="path1636" />
      <text
         style="font-size:10px;font-family:sans-serif;text-anchor:start;fill:#000000"
         id="text1640">
        <tspan
           x="13.333333"
           y="13.833333"
           id="tspan1638">tarola</tspan>
      </text>
    </g>
  </g>
  <g
     transform="matrix(0.9375,0,0,0.9375,0,0.39519136)"
     id="g1654">
    <g
       transform="scale(1.5)"
       id="g1652">
      <path
         d="m 0.5,14.5 v -4 a 4,4 90 0 1 4,-4 h 4 l 5,-6 5,6 h 9 30 4 a 4,4 90 0 1 4,4 v 4 4 4 a 4,4 90 0 1 -4,4 h -4 -30 -1 v 2 h -8 v -2 h -1 -4 a 5,5 90 0 0 -5,5 v 4 4 147 4 a 5,5 90 0 0 5,5 h 4 v 2 h 10 v -2 h 8 v 6 6 4 a 4,4 90 0 1 -4,4 h -4 -9 l -5,6 -5,-6 h -4 a 4,4 90 0 1 -4,-4 v -4 z"
         style="fill:#ffbf00;fill-opacity:1;stroke:#daaf30;stroke-width:1;stroke-linecap:round;stroke-opacity:1"
         id="path1646" />
      <text
         style="font-size:10px;font-family:sans-serif;text-anchor:start;fill:#000000"
         id="text1650">
        <tspan
           x="5.3333335"
           y="21.5"
           id="tspan1648">iniciar</tspan>
      </text>
    </g>
  </g>
  <g
     transform="matrix(0.9375,0,0,0.9375,12.65625,38.363941)"
     id="g1664">
    <g
       transform="scale(1.5)"
       id="g1662">
      <path
         d="m 0.5,8.5 v -4 c 0,-2.209139 1.790861,-4 4,-4 h 4 v 2 h 10 v -2 h 9 36.723047 4 c 2.209139,0 4.740083,1.9185168 4,4 v 4 4 4 c 0,2.209139 -1.790861,4 -4,4 h -4 H 27.5 h -1 v 2 h -8 v -2 h -1 -4 c -2.761424,0 -5,2.238576 -5,5 v 4 4 105 4 c 0,2.76142 2.238576,5 5,5 h 4 v 2 h 10 v -2 h 8 v 6 6 4 c 0,2.20914 -1.790861,4 -4,4 h -4 -9 -1 v 2 h -8 v -2 h -1 -4 c -2.209139,0 -4,-1.79086 -4,-4 v -4 z"
         style="fill:#e9a066;fill-opacity:1;stroke:#b7651a;stroke-width:1;stroke-linecap:round;stroke-opacity:1"
         id="path1656" />
      <text
         style="font-size:10px;font-family:sans-serif;text-anchor:start;fill:#000000"
         id="text1660">
        <tspan
           x="5.3333335"
           y="15.25"
           id="tspan1658">para sempre</tspan>
      </text>
    </g>
  </g>
  <g
     transform="matrix(0.9375,0,0,0.9375,25.3125,67.895191)"
     id="g1678">
    <g
       transform="scale(1.5)"
       id="g1676">
      <path
         d="m 0.5,8.5 v -4 a 4,4 90 0 1 4,-4 h 4 v 2 h 10 v -2 h 9 20 4 a 4,4 90 0 1 4,4 v 4 h -4 v -3 h -4 v 10 h 4 v -3 h 4 v 4 a 4,4 90 0 1 -4,4 h -4 -20 -1 v 2 h -8 v -2 h -1 -4 a 5,5 90 0 0 -5,5 v 4 4 63 4 a 5,5 90 0 0 5,5 h 4 v 2 h 10 v -2 h 8 v 6 6 4 a 4,4 90 0 1 -4,4 h -4 -9 -1 v 2 h -8 v -2 h -1 -4 a 4,4 90 0 1 -4,-4 v -4 z"
         style="fill:#e9a066;fill-opacity:1;stroke:#b7651a;stroke-width:1;stroke-linecap:round;stroke-opacity:1"
         id="path1666" />
      <text
         style="font-size:10px;font-family:sans-serif;text-anchor:start;fill:#000000"
         id="text1670">
        <tspan
           x="5.3333335"
           y="15.25"
           id="tspan1668">repetir</tspan>
      </text>
      <text
         style="font-size:6.66666651px;font-family:sans-serif;text-anchor:end;fill:#000000"
         id="text1674">
        <tspan
           x="45.333332"
           y="11.25"
           id="tspan1672" />
      </text>
    </g>
  </g>
  <g
     transform="matrix(0.9375,0,0,0.9375,92.8125,67.895191)"
     id="g1688">
    <g
       transform="scale(1.5)"
       id="g1686">
      <path
         d="m 8.5,0.5 h 60 v 20 h -60 v -8 -1 h -6 v 3 h -2 v -8 h 2 v 3 h 6 v -1 z"
         style="fill:#ff6ea1;fill-opacity:1;stroke:#ff2c76;stroke-width:1;stroke-linecap:round;stroke-opacity:1"
         id="path1680" />
      <text
         style="font-size:10px;font-family:sans-serif;text-anchor:start;fill:#000000"
         id="text1684">
        <tspan
           x="13.333333"
           y="13.833333"
           id="tspan1682">3</tspan>
      </text>
    </g>
  </g>
  <g
     transform="matrix(0.9375,0,0,0.9375,37.96875,97.426441)"
     id="g1702">
    <g
       transform="scale(1.5)"
       id="g1700">
      <path
         d="m 0.5,8.5 v -4 c 0,-2.209139 1.790861,-4 4,-4 h 4 v 2 h 10 v -2 h 9 46.103017 4 c 2.209139,0 4,1.790861 4,4 v 4 h -4 v -3 h -4 v 10 h 4 v -3 h 4 v 4 c 0,2.209139 -1.790861,4 -4,4 h -4 H 27.5 h -1 v 2 h -8 v -2 h -1 -4 c -2.761424,0 -5,2.238576 -5,5 v 4 4 21 4 c 0,2.761424 2.238576,5 5,5 h 4 v 2 h 10 v -2 h 8 v 6 6 4 c 0,2.209139 -1.790861,4 -4,4 h -4 -9 -1 v 2 h -8 v -2 h -1 -4 c -2.209139,0 -4,-1.790861 -4,-4 v -4 z"
         style="fill:#fe994f;fill-opacity:1;stroke:#e8680e;stroke-width:1;stroke-linecap:round;stroke-opacity:1"
         id="path1690" />
      <text
         style="font-size:10px;font-family:sans-serif;text-anchor:start;fill:#000000"
         id="text1694">
        <tspan
           x="5.3333335"
           y="15.25"
           id="tspan1692">valor de nota</tspan>
      </text>
      <text
         style="font-size:6.66666651px;font-family:sans-serif;text-anchor:end;fill:#000000"
         id="text1698">
        <tspan
           x="61.480793"
           y="11.25"
           id="tspan1696" />
      </text>
    </g>
  </g>
  <g
     transform="matrix(0.9375,0,0,0.9375,142.17612,97.426441)"
     id="g1720">
    <g
       transform="scale(1.5)"
       id="g1718">
      <path
         d="m 8.5,8.5 v -4 a 4,4 90 0 1 4,-4 h 4 10 30 4 a 4,4 90 0 1 4,4 v 4 h -4 v -3 h -4 v 10 h 4 v -3 h 4 v 17 h -4 v -3 h -4 v 10 h 4 v -3 h 4 v 4 a 4,4 90 0 1 -4,4 h -4 -30 -10 -4 a 4,4 90 0 1 -4,-4 v -4 -21 -1 h -6 v 3 h -2 v -8 h 2 v 3 h 6 z"
         style="fill:#ff6ea1;fill-opacity:1;stroke:#ff2c76;stroke-width:1;stroke-linecap:round;stroke-opacity:1"
         id="path1704" />
      <text
         style="font-size:14px;font-family:sans-serif;text-anchor:end;fill:#000000"
         id="text1708">
        <tspan
           x="54.333332"
           y="23.799999"
           id="tspan1706">/</tspan>
      </text>
      <text
         style="font-size:9.33333302px;font-family:sans-serif;text-anchor:end;fill:#000000"
         id="text1712">
        <tspan
           x="54.333332"
           y="10.75"
           id="tspan1710" />
      </text>
      <text
         style="font-size:9.33333302px;font-family:sans-serif;text-anchor:end;fill:#000000"
         id="text1716">
        <tspan
           x="54.333332"
           y="31.75"
           id="tspan1714" />
      </text>
    </g>
  </g>
  <g
     transform="matrix(0.9375,0,0,0.9375,222.33237,97.426441)"
     id="g1730">
    <g
       transform="scale(1.5)"
       id="g1728">
      <path
         d="m 8.5,0.5 h 60 v 20 h -60 v -8 -1 h -6 v 3 h -2 v -8 h 2 v 3 h 6 v -1 z"
         style="fill:#ff6ea1;fill-opacity:1;stroke:#ff2c76;stroke-width:1;stroke-linecap:round;stroke-opacity:1"
         id="path1722" />
      <text
         style="font-size:10px;font-family:sans-serif;text-anchor:start;fill:#000000"
         id="text1726">
        <tspan
           x="13.333333"
           y="13.833333"
           id="tspan1724">1</tspan>
      </text>
    </g>
  </g>
  <g
     transform="matrix(0.9375,0,0,0.9375,222.33237,126.95769)"
     id="g1740">
    <g
       transform="scale(1.5)"
       id="g1738">
      <path
         d="m 8.5,0.5 h 60 v 20 h -60 v -8 -1 h -6 v 3 h -2 v -8 h 2 v 3 h 6 v -1 z"
         style="fill:#ff6ea1;fill-opacity:1;stroke:#ff2c76;stroke-width:1;stroke-linecap:round;stroke-opacity:1"
         id="path1732" />
      <text
         style="font-size:10px;font-family:sans-serif;text-anchor:start;fill:#000000"
         id="text1736">
        <tspan
           x="13.333333"
           y="13.833333"
           id="tspan1734">3</tspan>
      </text>
    </g>
  </g>
  <g
     transform="matrix(0.9375,0,0,0.9375,50.625,126.95769)"
     id="g1750">
    <g
       transform="scale(1.5)"
       id="g1748">
      <path
         d="m 0.5,8.5 v -4 a 4,4 90 0 1 4,-4 h 4 v 2 h 10 v -2 h 20 4 a 4,4 90 0 1 4,4 v 4 4 4 a 4,4 90 0 1 -4,4 h -4 -20 -1 v 2 h -8 v -2 h -1 -4 a 4,4 90 0 1 -4,-4 v -4 z"
         style="fill:#c4c4c4;fill-opacity:1;stroke:#000000;stroke-width:1;stroke-linecap:round;stroke-opacity:1"
         id="path1742" />
      <text
         style="font-size:10px;font-family:sans-serif;text-anchor:end;fill:#000000"
         id="text1746">
        <tspan
           x="36.333332"
           y="13.5"
           id="tspan1744">↓</tspan>
      </text>
    </g>
  </g>
  <g
     transform="matrix(0.9375,0,0,0.9375,50.625,156.48894)"
     id="g1764">
    <g
       transform="scale(1.5)"
       id="g1762">
      <path
         d="m 0.5,8.5 v -4 a 4,4 90 0 1 4,-4 h 4 v 2 h 10 v -2 h 30 4 a 4,4 90 0 1 4,4 v 4 h -4 v -3 h -4 v 10 h 4 v -3 h 4 v 4 a 4,4 90 0 1 -4,4 h -4 -30 -1 v 2 h -8 v -2 h -1 -4 a 4,4 90 0 1 -4,-4 v -4 z"
         style="fill:#3edcdd;fill-opacity:1;stroke:#000000;stroke-width:1;stroke-linecap:round;stroke-opacity:1"
         id="path1752" />
      <text
         style="font-size:10px;font-family:sans-serif;text-anchor:end;fill:#000000"
         id="text1756">
        <tspan
           x="46.333332"
           y="13.5"
           id="tspan1754">bateria</tspan>
      </text>
      <text
         style="font-size:6.66666651px;font-family:sans-serif;text-anchor:end;fill:#000000"
         id="text1760">
        <tspan
           x="46.333332"
           y="11.25"
           id="tspan1758" />
      </text>
    </g>
  </g>
  <g
     transform="matrix(0.9375,0,0,0.9375,119.53125,156.48894)"
     id="g1774">
    <g
       transform="scale(1.5)"
       id="g1772">
      <path
         d="m 8.5,0.5 h 60 v 20 h -60 v -8 -1 h -6 v 3 h -2 v -8 h 2 v 3 h 6 v -1 z"
         style="fill:#3edcdd;fill-opacity:1;stroke:#000000;stroke-width:1;stroke-linecap:round;stroke-opacity:1"
         id="path1766" />
      <text
         style="font-size:10px;font-family:sans-serif;text-anchor:start;fill:#000000"
         id="text1770">
        <tspan
           x="13.333333"
           y="13.833333"
           id="tspan1768">bumbo</tspan>
      </text>
    </g>
  </g>
</svg>
