<?xml version="1.0" encoding="UTF-8" standalone="no"?>
<svg
   xmlns:dc="http://purl.org/dc/elements/1.1/"
   xmlns:cc="http://creativecommons.org/ns#"
   xmlns:rdf="http://www.w3.org/1999/02/22-rdf-syntax-ns#"
   xmlns:svg="http://www.w3.org/2000/svg"
   xmlns="http://www.w3.org/2000/svg"
   width="320.75"
   height="273.75"
   viewBox="0 0 320.75 273.75"
   id="svg4075"
   version="1.1">
  <defs
     id="defs4077" />
  <metadata
     id="metadata4080">
    <rdf:RDF>
      <cc:Work
         rdf:about="">
        <dc:format>image/svg+xml</dc:format>
        <dc:type
           rdf:resource="http://purl.org/dc/dcmitype/StillImage" />
        <dc:title></dc:title>
      </cc:Work>
    </rdf:RDF>
  </metadata>
  <text
     style="font-size:13.33333302px;font-family:Sans;text-anchor:end;fill:#000000"
     id="text3033"
     y="61.303913"
     x="959.10999">
    <tspan
       id="tspan3035"
       y="83.803909"
       x="1061.11" />
  </text>
  <text
     style="font-size:13.33333302px;font-family:Sans;text-anchor:end;fill:#000000"
     id="text3107"
     y="126.2675"
     x="977.10999">
    <tspan
       id="tspan3109"
       y="148.7675"
       x="1071.11" />
  </text>
  <text
     style="font-size:13.33333302px;font-family:Sans;text-anchor:end;fill:#000000"
     id="text3033-0"
     y="145.30391"
     x="959.10999">
    <tspan
       id="tspan3035-1"
       y="167.80391"
       x="1061.11" />
  </text>
  <text
     style="font-size:13.33333302px;font-family:Sans;text-anchor:end;fill:#000000"
     id="text3033-1"
     y="229.30389"
     x="959.10999">
    <tspan
       id="tspan3035-8"
       y="251.80389"
       x="1061.11" />
  </text>
  <text
     style="font-size:13.33333302px;font-family:Sans;text-anchor:end;fill:#000000"
     id="text3033-0-9"
     y="313.30389"
     x="959.10999">
    <tspan
       id="tspan3035-1-5"
       y="335.80389"
       x="1061.11" />
  </text>
  <text
     style="font-size:13.33333302px;font-family:Sans;text-anchor:end;fill:#000000"
     id="text3033-5"
     y="-255.35854"
     x="-330.66666">
    <tspan
       id="tspan3035-7"
       y="-232.85854"
       x="-228.66666" />
  </text>
  <text
     style="font-size:13.33333302px;font-family:Sans;text-anchor:end;fill:#000000"
     id="text3107-6"
     y="-190.39493"
     x="-312.66666">
    <tspan
       id="tspan3109-4"
       y="-167.89493"
       x="-218.66666" />
  </text>
  <text
     style="font-size:13.33333302px;font-family:Sans;text-anchor:end;fill:#000000"
     id="text3033-0-0"
     y="-171.35852"
     x="-330.66666">
    <tspan
       id="tspan3035-1-3"
       y="-148.85852"
       x="-228.66666" />
  </text>
  <text
     style="font-size:13.33333302px;font-family:Sans;text-anchor:end;fill:#000000"
     id="text3033-1-1"
     y="-87.358528"
     x="-330.66666">
    <tspan
       id="tspan3035-8-5"
       y="-64.858551"
       x="-228.66666" />
  </text>
  <text
     style="font-size:13.33333302px;font-family:Sans;text-anchor:end;fill:#000000"
     id="text3033-0-9-4"
     y="-3.3585408"
     x="-330.66666">
    <tspan
       id="tspan3035-1-5-6"
       y="19.141466"
       x="-228.66666" />
  </text>
  <text
     x="1294.2261"
     y="-1.9422201"
     id="text3033-32"
     style="font-size:13.33333302px;font-family:Sans;text-anchor:end;fill:#000000">
    <tspan
       x="1396.2261"
       y="20.557787"
       id="tspan3035-41" />
  </text>
  <text
     x="1312.2261"
     y="63.021381"
     id="text3107-63"
     style="font-size:13.33333302px;font-family:Sans;text-anchor:end;fill:#000000">
    <tspan
       x="1406.2261"
       y="85.521378"
       id="tspan3109-18" />
  </text>
  <text
     x="1294.2261"
     y="82.057785"
     id="text3033-0-1"
     style="font-size:13.33333302px;font-family:Sans;text-anchor:end;fill:#000000">
    <tspan
       x="1396.2261"
       y="104.55779"
       id="tspan3035-1-50" />
  </text>
  <text
     x="1294.2261"
     y="166.05775"
     id="text3033-1-8"
     style="font-size:13.33333302px;font-family:Sans;text-anchor:end;fill:#000000">
    <tspan
       x="1396.2261"
       y="188.55774"
       id="tspan3035-8-83" />
  </text>
  <text
     x="1294.2261"
     y="250.05774"
     id="text3033-0-9-3"
     style="font-size:13.33333302px;font-family:Sans;text-anchor:end;fill:#000000">
    <tspan
       x="1396.2261"
       y="272.55774"
       id="tspan3035-1-5-50" />
  </text>
  <text
     x="719.67053"
     y="-22.512804"
     id="text3033-19"
     style="font-size:13.33333302px;font-family:Sans;text-anchor:end;fill:#000000">
    <tspan
       x="821.67053"
       y="-0.012784348"
       id="tspan3035-6" />
  </text>
  <text
     x="719.67053"
     y="61.487202"
     id="text3033-0-93"
     style="font-size:13.33333302px;font-family:Sans;text-anchor:end;fill:#000000">
    <tspan
       x="821.67053"
       y="83.987198"
       id="tspan3035-1-3-3" />
  </text>
  <text
     x="719.67053"
     y="145.48717"
     id="text3033-1-6"
     style="font-size:13.33333302px;font-family:Sans;text-anchor:end;fill:#000000">
    <tspan
       x="821.67053"
       y="167.98717"
       id="tspan3035-8-9" />
  </text>
  <text
     x="719.67053"
     y="229.48718"
     id="text3033-0-9-1"
     style="font-size:13.33333302px;font-family:Sans;text-anchor:end;fill:#000000">
    <tspan
       x="821.67053"
       y="251.98718"
       id="tspan3035-1-5-0" />
  </text>
  <text
     x="943.77258"
     y="-48.939541"
     id="text3033-7"
     style="font-size:13.33333302px;font-family:Sans;text-anchor:end;fill:#000000">
    <tspan
       x="1045.7726"
       y="-26.439539"
       id="tspan3035-4" />
  </text>
  <text
     x="961.77258"
     y="16.024065"
     id="text3107-1"
     style="font-size:13.33333302px;font-family:Sans;text-anchor:end;fill:#000000">
    <tspan
       x="1055.7726"
       y="38.524067"
       id="tspan3109-0" />
  </text>
  <text
     x="943.77258"
     y="35.06049"
     id="text3033-0-8"
     style="font-size:13.33333302px;font-family:Sans;text-anchor:end;fill:#000000">
    <tspan
       x="1045.7726"
       y="57.560474"
       id="tspan3035-1-6" />
  </text>
  <text
     x="943.77258"
     y="119.06047"
     id="text3033-1-1-9"
     style="font-size:13.33333302px;font-family:Sans;text-anchor:end;fill:#000000">
    <tspan
       x="1045.7726"
       y="141.56044"
       id="tspan3035-8-8" />
  </text>
  <text
     x="943.77258"
     y="203.06046"
     id="text3033-0-9-9"
     style="font-size:13.33333302px;font-family:Sans;text-anchor:end;fill:#000000">
    <tspan
       x="1045.7726"
       y="225.56046"
       id="tspan3035-1-5-3" />
  </text>
  <text
     x="1835.5338"
     y="-120.92481"
     id="text3033-3"
     style="font-size:13.33333302px;font-family:Sans;text-anchor:end;fill:#000000">
    <tspan
       x="1937.5337"
       y="-98.424812"
       id="tspan3035-0" />
  </text>
  <text
     x="1835.5338"
     y="-36.924812"
     id="text3033-0-2"
     style="font-size:13.33333302px;font-family:Sans;text-anchor:end;fill:#000000">
    <tspan
       x="1937.5337"
       y="-14.424813"
       id="tspan3035-1-66" />
  </text>
  <text
     x="1835.5338"
     y="47.075207"
     id="text3033-1-2"
     style="font-size:13.33333302px;font-family:Sans;text-anchor:end;fill:#000000">
    <tspan
       x="1937.5337"
       y="69.57518"
       id="tspan3035-8-3" />
  </text>
  <text
     x="1835.5338"
     y="131.07518"
     id="text3033-0-9-93"
     style="font-size:13.33333302px;font-family:Sans;text-anchor:end;fill:#000000">
    <tspan
       x="1937.5337"
       y="153.57518"
       id="tspan3035-1-5-2" />
  </text>
  <text
     x="1930.2261"
     y="247.18854"
     id="text3033-37"
     style="font-size:13.33333302px;font-family:Sans;text-anchor:end;fill:#000000">
    <tspan
       x="2032.2261"
       y="269.68854"
       id="tspan3035-17" />
  </text>
  <text
     x="1948.2261"
     y="312.15213"
     id="text3107-2"
     style="font-size:13.33333302px;font-family:Sans;text-anchor:end;fill:#000000">
    <tspan
       x="2042.2261"
       y="334.65213"
       id="tspan3109-1" />
  </text>
  <text
     x="1930.2261"
     y="331.18854"
     id="text3033-0-6"
     style="font-size:13.33333302px;font-family:Sans;text-anchor:end;fill:#000000">
    <tspan
       x="2032.2261"
       y="353.68854"
       id="tspan3035-1-33" />
  </text>
  <text
     x="1930.2261"
     y="415.1886"
     id="text3033-1-4"
     style="font-size:13.33333302px;font-family:Sans;text-anchor:end;fill:#000000">
    <tspan
       x="2032.2261"
       y="437.68857"
       id="tspan3035-8-1" />
  </text>
  <text
     x="1930.2261"
     y="499.18857"
     id="text3033-0-9-2"
     style="font-size:13.33333302px;font-family:Sans;text-anchor:end;fill:#000000">
    <tspan
       x="2032.2261"
       y="521.6886"
       id="tspan3035-1-5-5" />
  </text>
  <flowRoot
     xml:space="preserve"
     id="flowRoot4622"
     style="font-style:normal;font-weight:normal;font-size:16px;line-height:125%;font-family:sans-serif;text-align:center;letter-spacing:0px;word-spacing:0px;text-anchor:middle;fill:#000000;fill-opacity:1;stroke:none;stroke-width:1px;stroke-linecap:butt;stroke-linejoin:miter;stroke-opacity:1"
     transform="translate(868.22609,-118.33301)"><flowRegion
       id="flowRegion4624"><rect
         id="rect4626"
         width="320.46744"
         height="182.71428"
         x="673.45996"
         y="575.88477" /></flowRegion><flowPara
       id="flowPara4628" /></flowRoot>  <text
     x="2238.7556"
     y="422.61639"
     id="text3033-05"
     style="font-size:13.33333302px;font-family:Sans;text-anchor:end;fill:#000000">
    <tspan
       x="2340.7556"
       y="445.11636"
       id="tspan3035-9" />
  </text>
  <text
     x="2256.7556"
     y="487.57999"
     id="text3107-5"
     style="font-size:13.33333302px;font-family:Sans;text-anchor:end;fill:#000000">
    <tspan
       x="2350.7556"
       y="510.07999"
       id="tspan3109-3" />
  </text>
  <text
     x="2238.7556"
     y="506.61636"
     id="text3033-0-5"
     style="font-size:13.33333302px;font-family:Sans;text-anchor:end;fill:#000000">
    <tspan
       x="2340.7556"
       y="529.11639"
       id="tspan3035-1-8" />
  </text>
  <text
     x="2238.7556"
     y="590.61639"
     id="text3033-1-46"
     style="font-size:13.33333302px;font-family:Sans;text-anchor:end;fill:#000000">
    <tspan
       x="2340.7556"
       y="613.11639"
       id="tspan3035-8-2" />
  </text>
  <text
     x="2238.7556"
     y="674.61639"
     id="text3033-0-9-934"
     style="font-size:13.33333302px;font-family:Sans;text-anchor:end;fill:#000000">
    <tspan
       x="2340.7556"
       y="697.11639"
       id="tspan3035-1-5-7" />
  </text>
  <text
     x="1005.4833"
     y="37.951275"
     id="text3033-56"
     style="font-size:13.33333302px;font-family:Sans;text-anchor:end;fill:#000000">
    <tspan
       x="1107.4833"
       y="60.451283"
       id="tspan3035-5" />
  </text>
  <text
     x="853.37421"
     y="-355.13403"
     id="text3033-13"
     style="font-size:13.33333302px;font-family:Sans;text-anchor:end;fill:#000000">
    <tspan
       x="955.37421"
       y="-332.63403"
       id="tspan3035-11" />
  </text>
  <text
     x="871.37421"
     y="-290.17047"
     id="text3107-633"
     style="font-size:13.33333302px;font-family:Sans;text-anchor:end;fill:#000000">
    <tspan
       x="965.37421"
       y="-267.67047"
       id="tspan3109-2" />
  </text>
  <text
     x="853.37421"
     y="-271.13403"
     id="text3033-0-66"
     style="font-size:13.33333302px;font-family:Sans;text-anchor:end;fill:#000000">
    <tspan
       x="955.37421"
       y="-248.63405"
       id="tspan3035-1-9" />
  </text>
  <text
     x="853.37421"
     y="-187.13411"
     id="text3033-1-5"
     style="font-size:13.33333302px;font-family:Sans;text-anchor:end;fill:#000000">
    <tspan
       x="955.37421"
       y="-164.63411"
       id="tspan3035-8-13" />
  </text>
  <text
     x="853.37421"
     y="-103.13412"
     id="text3033-0-9-7"
     style="font-size:13.33333302px;font-family:Sans;text-anchor:end;fill:#000000">
    <tspan
       x="955.37421"
       y="-80.634117"
       id="tspan3035-1-5-26" />
  </text>
  <g
     id="g1016"
     transform="scale(0.93749996)">
    <g
       transform="scale(1.5)"
       id="g1014">
      <path
         d="m 0.5,8.5 v -4 c 0,-2.209139 1.790861,-4 4,-4 h 4 v 2 h 10 v -2 h 9 46.103017 4 c 2.209139,0 4.740083,1.9185168 4,4 v 4 h -4 v -3 h -4 v 10 h 4 v -3 h 4 v 4 c 0,2.209139 -1.790861,4 -4,4 h -4 H 27.5 h -1 v 2 h -8 v -2 h -1 -4 c -2.761424,0 -5,2.238576 -5,5 v 4 4 63 4 c 0,2.76142 2.238576,5 5,5 h 4 v 2 h 10 v -2 h 8 v 6 6 4 c 0,2.20914 -1.790861,4 -4,4 h -4 -9 -1 v 2 h -8 v -2 h -1 -4 c -2.209139,0 -4,-1.79086 -4,-4 v -4 z"
         style="fill:#fe994f;fill-opacity:1;stroke:#e8680e;stroke-width:1;stroke-linecap:round;stroke-opacity:1"
         id="path1004" />
      <text
         style="font-size:10px;font-family:sans-serif;text-anchor:start;fill:#000000"
         id="text1008">
        <tspan
           x="5.3333335"
           y="15.25"
           id="tspan1006">valor de nota</tspan>
      </text>
      <text
         style="font-size:6.66666651px;font-family:sans-serif;text-anchor:end;fill:#000000"
         id="text1012">
        <tspan
           x="61.480793"
           y="11.25"
           id="tspan1010" />
      </text>
    </g>
  </g>
  <g
     transform="matrix(0.93749996,0,0,0.93749996,104.20736,0)"
     id="g1034">
    <g
       transform="scale(1.5)"
       id="g1032">
      <path
         d="m 8.5,8.5 v -4 a 4,4 90 0 1 4,-4 h 4 10 30 4 a 4,4 90 0 1 4,4 v 4 h -4 v -3 h -4 v 10 h 4 v -3 h 4 v 17 h -4 v -3 h -4 v 10 h 4 v -3 h 4 v 4 a 4,4 90 0 1 -4,4 h -4 -30 -10 -4 a 4,4 90 0 1 -4,-4 v -4 -21 -1 h -6 v 3 h -2 v -8 h 2 v 3 h 6 z"
         style="fill:#ff6ea1;fill-opacity:1;stroke:#ff2c76;stroke-width:1;stroke-linecap:round;stroke-opacity:1"
         id="path1018" />
      <text
         style="font-size:14px;font-family:sans-serif;text-anchor:end;fill:#000000"
         id="text1022">
        <tspan
           x="54.333332"
           y="23.799999"
           id="tspan1020">/</tspan>
      </text>
      <text
         style="font-size:9.33333302px;font-family:sans-serif;text-anchor:end;fill:#000000"
         id="text1026">
        <tspan
           x="54.333332"
           y="10.75"
           id="tspan1024" />
      </text>
      <text
         style="font-size:9.33333302px;font-family:sans-serif;text-anchor:end;fill:#000000"
         id="text1030">
        <tspan
           x="54.333332"
           y="31.75"
           id="tspan1028" />
      </text>
    </g>
  </g>
  <g
     transform="matrix(0.93749996,0,0,0.93749996,184.36361,0)"
     id="g1044">
    <g
       transform="scale(1.5)"
       id="g1042">
      <path
         d="m 8.5,0.5 h 60 v 20 h -60 v -8 -1 h -6 v 3 h -2 v -8 h 2 v 3 h 6 v -1 z"
         style="fill:#ff6ea1;fill-opacity:1;stroke:#ff2c76;stroke-width:1;stroke-linecap:round;stroke-opacity:1"
         id="path1036" />
      <text
         style="font-size:10px;font-family:sans-serif;text-anchor:start;fill:#000000"
         id="text1040">
        <tspan
           x="13.333333"
           y="13.833333"
           id="tspan1038">1</tspan>
      </text>
    </g>
  </g>
  <g
     transform="matrix(0.93749996,0,0,0.93749996,184.36361,29.531249)"
     id="g1054">
    <g
       transform="scale(1.5)"
       id="g1052">
      <path
         d="m 8.5,0.5 h 60 v 20 h -60 v -8 -1 h -6 v 3 h -2 v -8 h 2 v 3 h 6 v -1 z"
         style="fill:#ff6ea1;fill-opacity:1;stroke:#ff2c76;stroke-width:1;stroke-linecap:round;stroke-opacity:1"
         id="path1046" />
      <text
         style="font-size:10px;font-family:sans-serif;text-anchor:start;fill:#000000"
         id="text1050">
        <tspan
           x="13.333333"
           y="13.833333"
           id="tspan1048">4</tspan>
      </text>
    </g>
  </g>
  <g
     transform="matrix(0.93749996,0,0,0.93749996,12.65625,29.531249)"
     id="g1064">
    <g
       transform="scale(1.5)"
       id="g1062">
      <path
         d="m 0.5,8.5 v -4 a 4,4 90 0 1 4,-4 h 4 v 2 h 10 v -2 h 20 4 a 4,4 90 0 1 4,4 v 4 4 4 a 4,4 90 0 1 -4,4 h -4 -20 -1 v 2 h -8 v -2 h -1 -4 a 4,4 90 0 1 -4,-4 v -4 z"
         style="fill:#c4c4c4;fill-opacity:1;stroke:#000000;stroke-width:1;stroke-linecap:round;stroke-opacity:1"
         id="path1056" />
      <text
         style="font-size:10px;font-family:sans-serif;text-anchor:end;fill:#000000"
         id="text1060">
        <tspan
           x="36.333332"
           y="13.5"
           id="tspan1058">↓</tspan>
      </text>
    </g>
  </g>
  <g
     transform="matrix(0.93749996,0,0,0.93749996,74.65625,59.062502)"
     id="g1082">
    <g
       transform="scale(1.5)"
       id="g1080">
      <path
         d="m -43.588891,8.5 v -4 c 0,-2.209139 1.790861,-4 4,-4 h 4 v 2 h 10 v -2 H 48.5 h 4 c 2.209139,0 4,1.790861 4,4 v 4 h -4 v -3 h -4 v 10 h 4 v -3 h 4 v 21 17 h -4 v -3 h -4 v 10 h 4 v -3 h 4 v 4 c 0,2.209139 -1.790861,4 -4,4 h -4 -74.088891 -1 v 2 h -8 v -2 h -1 -4 c -2.209139,0 -4,-1.790861 -4,-4 v -4 -21 -21 z"
         style="fill:#7cd622;fill-opacity:1;stroke:#57ad02;stroke-width:1;stroke-linecap:round;stroke-opacity:1"
         id="path1066" />
      <text
         style="font-size:10px;font-family:sans-serif;text-anchor:end;fill:#000000"
         id="text1070">
        <tspan
           x="46.333332"
           y="34.5"
           id="tspan1068">determinar o tom</tspan>
      </text>
      <text
         style="font-size:6.66666651px;font-family:sans-serif;text-anchor:end;fill:#000000"
         id="text1074">
        <tspan
           x="46.333332"
           y="11.25"
           id="tspan1072">nome</tspan>
      </text>
      <text
         style="font-size:6.66666651px;font-family:sans-serif;text-anchor:end;fill:#000000"
         id="text1078">
        <tspan
           x="46.333332"
           y="53.25"
           id="tspan1076">oitava</tspan>
      </text>
    </g>
  </g>
  <g
     transform="matrix(0.93749996,0,0,0.93749996,143.56249,118.125)"
     id="g1092">
    <g
       transform="scale(1.5)"
       id="g1090">
      <path
         d="m 8.5,0.5 h 60 v 20 h -60 v -8 -1 h -6 v 3 h -2 v -8 h 2 v 3 h 6 v -1 z"
         style="fill:#ff6ea1;fill-opacity:1;stroke:#ff2c76;stroke-width:1;stroke-linecap:round;stroke-opacity:1"
         id="path1084" />
      <text
         style="font-size:10px;font-family:sans-serif;text-anchor:start;fill:#000000"
         id="text1088">
        <tspan
           x="13.333333"
           y="13.833333"
           id="tspan1086">4</tspan>
      </text>
    </g>
  </g>
  <g
     transform="matrix(0.93749996,0,0,0.93749996,143.56249,59.062502)"
     id="g1134">
    <g
       transform="scale(1.5)"
       id="g1132">
      <path
         d="m 8.5,8.5 v -4 a 4,4 90 0 1 4,-4 h 4 10 30 4 a 4,4 90 0 1 4,4 v 4 h -4 v -3 h -4 v 10 h 4 v -3 h 4 v 17 h -4 v -3 h -4 v 10 h 4 v -3 h 4 v 4 a 4,4 90 0 1 -4,4 h -4 -30 -10 -4 a 4,4 90 0 1 -4,-4 v -4 -21 -1 h -6 v 3 h -2 v -8 h 2 v 3 h 6 z"
         style="fill:#ff6ea1;fill-opacity:1;stroke:#ff2c76;stroke-width:1;stroke-linecap:round;stroke-opacity:1"
         id="path1118" />
      <text
         style="font-size:10px;font-family:sans-serif;text-anchor:end;fill:#000000"
         id="text1122">
        <tspan
           x="54.333332"
           y="23"
           id="tspan1120">um de</tspan>
      </text>
      <text
         style="font-size:6.66666651px;font-family:sans-serif;text-anchor:end;fill:#000000"
         id="text1126">
        <tspan
           x="54.333332"
           y="11.25"
           id="tspan1124">isso</tspan>
      </text>
      <text
         style="font-size:6.66666651px;font-family:sans-serif;text-anchor:end;fill:#000000"
         id="text1130">
        <tspan
           x="54.333332"
           y="32.25"
           id="tspan1128">aquilo</tspan>
      </text>
    </g>
  </g>
  <g
     transform="matrix(0.93749996,0,0,0.93749996,223.71874,59.062502)"
     id="g1144">
    <g
       transform="scale(1.5)"
       id="g1142">
      <path
         d="m 8.5,0.5 h 60 v 20 h -60 v -8 -1 h -6 v 3 h -2 v -8 h 2 v 3 h 6 v -1 z"
         style="fill:#7cd622;fill-opacity:1;stroke:#57ad02;stroke-width:1;stroke-linecap:round;stroke-opacity:1"
         id="path1136" />
      <text
         style="font-size:10px;font-family:sans-serif;text-anchor:start;fill:#000000"
         id="text1140">
        <tspan
           x="13.333333"
           y="13.833333"
           id="tspan1138">fazer</tspan>
      </text>
    </g>
  </g>
  <g
     transform="matrix(0.93749996,0,0,0.93749996,223.71874,88.593752)"
     id="g1154">
    <g
       transform="scale(1.5)"
       id="g1152">
      <path
         d="m 8.5,0.5 h 60 v 20 h -60 v -8 -1 h -6 v 3 h -2 v -8 h 2 v 3 h 6 v -1 z"
         style="fill:#7cd622;fill-opacity:1;stroke:#57ad02;stroke-width:1;stroke-linecap:round;stroke-opacity:1"
         id="path1146" />
      <text
         style="font-size:10px;font-family:sans-serif;text-anchor:start;fill:#000000"
         id="text1150">
        <tspan
           x="13.333333"
           y="13.833333"
           id="tspan1148">re</tspan>
      </text>
    </g>
  </g>
  <g
     id="g2134"
     transform="translate(674.69586,-44.7524)">
    <g
       id="g1106"
       transform="matrix(0.93749996,0,0,0.93749996,-674.69586,259.43989)">
      <g
         id="g1104"
         transform="scale(1.5)">
        <path
           id="path1094"
           style="fill:#ffbf00;fill-opacity:1;stroke:#daaf30;stroke-width:1;stroke-linecap:round;stroke-opacity:1"
           d="m 0.5,8.5 v -4 a 4,4 90 0 1 4,-4 h 4 v 2 h 10 v -2 h 30 4 a 4,4 90 0 1 4,4 v 4 h -4 v -3 h -4 v 10 h 4 v -3 h 4 v 4 a 4,4 90 0 1 -4,4 h -4 -30 -1 v 2 h -8 v -2 h -1 -4 a 4,4 90 0 1 -4,-4 v -4 z" />
        <text
           id="text1098"
           style="font-size:10px;font-family:sans-serif;text-anchor:end;fill:#000000">
          <tspan
             id="tspan1096"
             y="13.5"
             x="46.333332">fazer</tspan>
        </text>
        <text
           id="text1102"
           style="font-size:6.66666651px;font-family:sans-serif;text-anchor:end;fill:#000000">
          <tspan
             id="tspan1100"
             y="11.25"
             x="46.333332" />
        </text>
      </g>
    </g>
    <g
       id="g1116"
       transform="matrix(0.93749996,0,0,0.93749996,-525.63337,288.97114)">
      <g
         id="g1114"
         transform="scale(1.5)">
        <path
           id="path1108"
           style="fill:#ff6648;fill-opacity:1;stroke:#ea4326;stroke-width:1;stroke-linecap:round;stroke-opacity:1"
           d="m 8.5,0.5 h 60 v 20 h -60 v -8 -1 h -6 v 3 h -2 v -8 h 2 v 3 h 6 v -1 z" />
        <text
           id="text1112"
           style="font-size:10px;font-family:sans-serif;text-anchor:start;fill:#000000">
          <tspan
             id="tspan1110"
             y="13.833333"
             x="13.333333">chunk2</tspan>
        </text>
      </g>
    </g>
    <g
       id="g1172"
       transform="matrix(0.93749996,0,0,0.93749996,-605.78962,259.43989)">
      <g
         id="g1170"
         transform="scale(1.5)">
        <path
           id="path1156"
           style="fill:#ff6ea1;fill-opacity:1;stroke:#ff2c76;stroke-width:1;stroke-linecap:round;stroke-opacity:1"
           d="m 8.5,8.5 v -4 a 4,4 90 0 1 4,-4 h 4 10 30 4 a 4,4 90 0 1 4,4 v 4 h -4 v -3 h -4 v 10 h 4 v -3 h 4 v 17 h -4 v -3 h -4 v 10 h 4 v -3 h 4 v 4 a 4,4 90 0 1 -4,4 h -4 -30 -10 -4 a 4,4 90 0 1 -4,-4 v -4 -21 -1 h -6 v 3 h -2 v -8 h 2 v 3 h 6 z" />
        <text
           id="text1160"
           style="font-size:10px;font-family:sans-serif;text-anchor:end;fill:#000000">
          <tspan
             id="tspan1158"
             y="23"
             x="54.333332">um de</tspan>
        </text>
        <text
           id="text1164"
           style="font-size:6.66666651px;font-family:sans-serif;text-anchor:end;fill:#000000">
          <tspan
             id="tspan1162"
             y="11.25"
             x="54.333332">isso</tspan>
        </text>
        <text
           id="text1168"
           style="font-size:6.66666651px;font-family:sans-serif;text-anchor:end;fill:#000000">
          <tspan
             id="tspan1166"
             y="32.25"
             x="54.333332">aquilo</tspan>
        </text>
      </g>
    </g>
    <g
       id="g1182"
       transform="matrix(0.93749996,0,0,0.93749996,-525.63337,259.43989)">
      <g
         id="g1180"
         transform="scale(1.5)">
        <path
           id="path1174"
           style="fill:#ff6648;fill-opacity:1;stroke:#ea4326;stroke-width:1;stroke-linecap:round;stroke-opacity:1"
           d="m 8.5,0.5 h 60 v 20 h -60 v -8 -1 h -6 v 3 h -2 v -8 h 2 v 3 h 6 v -1 z" />
        <text
           id="text1178"
           style="font-size:10px;font-family:sans-serif;text-anchor:start;fill:#000000">
          <tspan
             id="tspan1176"
             y="13.833333"
             x="13.333333">chunk1</tspan>
        </text>
      </g>
    </g>
  </g>
</svg>
