<?xml version="1.0" encoding="UTF-8" standalone="no"?>
<svg
   xmlns:dc="http://purl.org/dc/elements/1.1/"
   xmlns:cc="http://creativecommons.org/ns#"
   xmlns:rdf="http://www.w3.org/1999/02/22-rdf-syntax-ns#"
   xmlns:svg="http://www.w3.org/2000/svg"
   xmlns="http://www.w3.org/2000/svg"
   id="svg312"
   version="1.1"
   height="504.5"
   width="299.22119">
  <metadata
     id="metadata318">
    <rdf:RDF>
      <cc:Work
         rdf:about="">
        <dc:format>image/svg+xml</dc:format>
        <dc:type
           rdf:resource="http://purl.org/dc/dcmitype/StillImage" />
        <dc:title></dc:title>
      </cc:Work>
    </rdf:RDF>
  </metadata>
  <defs
     id="defs316" />
  <g
     id="g24">
    <g
       id="g22"
       transform="scale(1.5)">
      <path
         id="path12"
         style="fill:#fe994f;fill-opacity:1;stroke:#e8680e;stroke-width:1;stroke-linecap:round;stroke-opacity:1"
         d="m 0.5,8.5 v -4 c 0,-2.209139 1.790861,-4 4,-4 h 4 v 2 h 10 v -2 h 9 45.480794 4 c 2.209139,0 4,1.790861 4,4 v 4 h -4 v -3 h -4 v 10 h 4 v -3 h 4 v 4 c 0,2.209139 -1.790861,4 -4,4 h -4 H 27.5 h -1 v 2 h -8 v -2 h -1 -4 c -2.761424,0 -5,2.238576 -5,5 v 4 4 42 4 c 0,2.761424 2.238576,5 5,5 h 4 v 2 h 10 v -2 h 8 v 6 6 4 c 0,2.20914 -1.790861,4 -4,4 h -4 -9 -1 v 2 h -8 v -2 h -1 -4 c -2.209139,0 -4,-1.79086 -4,-4 v -4 z" />
      <text
         id="text16"
         style="font-size:10px;font-family:sans-serif;text-anchor:start;fill:#000000">
        <tspan
           id="tspan14"
           y="15.25"
           x="5.3333335">valor de nota</tspan>
      </text>
      <text
         id="text20"
         style="font-size:6.66666651px;font-family:sans-serif;text-anchor:end;fill:#000000">
        <tspan
           id="tspan18"
           y="11.25"
           x="61.480793" />
      </text>
    </g>
  </g>
  <g
     id="g42"
     transform="translate(110.22119)">
    <g
       id="g40"
       transform="scale(1.5)">
      <path
         id="path26"
         style="fill:#ff6ea1;fill-opacity:1;stroke:#ff2c76;stroke-width:1;stroke-linecap:round;stroke-opacity:1"
         d="m 8.5,8.5 v -4 a 4,4 90 0 1 4,-4 h 4 10 30 4 a 4,4 90 0 1 4,4 v 4 h -4 v -3 h -4 v 10 h 4 v -3 h 4 v 17 h -4 v -3 h -4 v 10 h 4 v -3 h 4 v 4 a 4,4 90 0 1 -4,4 h -4 -30 -10 -4 a 4,4 90 0 1 -4,-4 v -4 -21 -1 h -6 v 3 h -2 v -8 h 2 v 3 h 6 z" />
      <text
         id="text30"
         style="font-size:14px;font-family:sans-serif;text-anchor:end;fill:#000000">
        <tspan
           id="tspan28"
           y="23.799999"
           x="54.333332">/</tspan>
      </text>
      <text
         id="text34"
         style="font-size:9.33333302px;font-family:sans-serif;text-anchor:end;fill:#000000">
        <tspan
           id="tspan32"
           y="10.75"
           x="54.333332" />
      </text>
      <text
         id="text38"
         style="font-size:9.33333302px;font-family:sans-serif;text-anchor:end;fill:#000000">
        <tspan
           id="tspan36"
           y="31.75"
           x="54.333332" />
      </text>
    </g>
  </g>
  <g
     id="g52"
     transform="translate(195.72119)">
    <g
       id="g50"
       transform="scale(1.5)">
      <path
         id="path44"
         style="fill:#ff6ea1;fill-opacity:1;stroke:#ff2c76;stroke-width:1;stroke-linecap:round;stroke-opacity:1"
         d="m 8.5,0.5 h 60 v 20 h -60 v -8 -1 h -6 v 3 h -2 v -8 h 2 v 3 h 6 v -1 z" />
      <text
         id="text48"
         style="font-size:10px;font-family:sans-serif;text-anchor:start;fill:#000000">
        <tspan
           id="tspan46"
           y="13.833333"
           x="13.333333">1</tspan>
      </text>
    </g>
  </g>
  <g
     id="g62"
     transform="translate(195.72119,31.5)">
    <g
       id="g60"
       transform="scale(1.5)">
      <path
         id="path54"
         style="fill:#ff6ea1;fill-opacity:1;stroke:#ff2c76;stroke-width:1;stroke-linecap:round;stroke-opacity:1"
         d="m 8.5,0.5 h 60 v 20 h -60 v -8 -1 h -6 v 3 h -2 v -8 h 2 v 3 h 6 v -1 z" />
      <text
         id="text58"
         style="font-size:10px;font-family:sans-serif;text-anchor:start;fill:#000000">
        <tspan
           id="tspan56"
           y="13.833333"
           x="13.333333">8</tspan>
      </text>
    </g>
  </g>
  <g
     id="g72"
     transform="translate(13.5,31.5)">
    <g
       id="g70"
       transform="scale(1.5)">
      <path
         id="path64"
         style="fill:#c4c4c4;fill-opacity:1;stroke:#000000;stroke-width:1;stroke-linecap:round;stroke-opacity:1"
         d="m 0.5,8.5 v -4 a 4,4 90 0 1 4,-4 h 4 v 2 h 10 v -2 h 20 4 a 4,4 90 0 1 4,4 v 4 4 4 a 4,4 90 0 1 -4,4 h -4 -20 -1 v 2 h -8 v -2 h -1 -4 a 4,4 90 0 1 -4,-4 v -4 z" />
      <text
         id="text68"
         style="font-size:10px;font-family:sans-serif;text-anchor:end;fill:#000000">
        <tspan
           id="tspan66"
           y="13.5"
           x="36.333332">↓</tspan>
      </text>
    </g>
  </g>
  <g
     id="g90"
     transform="translate(79.5,63)">
    <g
       id="g88"
       transform="scale(1.5)">
      <path
         id="path74"
         style="fill:#7cd622;fill-opacity:1;stroke:#57ad02;stroke-width:1;stroke-linecap:round;stroke-opacity:1"
         d="m -43.5,8.5 v -4 c 0,-2.209139 1.790861,-4 4,-4 h 4 v 2 h 10 v -2 h 74 4 c 2.209139,0 4,1.790861 4,4 v 4 h -4 v -3 h -4 v 10 h 4 v -3 h 4 v 17 h -4 v -3 h -4 v 10 h 4 v -3 h 4 v 4 c 0,2.209139 -1.790861,4 -4,4 h -4 -74 -1 v 2 h -8 v -2 h -1 -4 c -2.209139,0 -4.698591,-1.904227 -4,-4 v -4 -21 z" />
      <text
         id="text78"
         style="font-size:10px;font-family:sans-serif;text-anchor:end;fill:#000000">
        <tspan
           id="tspan76"
           y="24"
           x="46.333332">determinar o tom</tspan>
      </text>
      <text
         id="text82"
         style="font-size:6.66666651px;font-family:sans-serif;text-anchor:end;fill:#000000">
        <tspan
           id="tspan80"
           y="11.25"
           x="46.333332">nome</tspan>
      </text>
      <text
         id="text86"
         style="font-size:6.66666651px;font-family:sans-serif;text-anchor:end;fill:#000000">
        <tspan
           id="tspan84"
           y="32.25"
           x="46.333332">oitava</tspan>
      </text>
    </g>
  </g>
  <g
     id="g100"
     transform="translate(153,63)">
    <g
       id="g98"
       transform="scale(1.5)">
      <path
         id="path92"
         style="fill:#7cd622;fill-opacity:1;stroke:#57ad02;stroke-width:1;stroke-linecap:round;stroke-opacity:1"
         d="m 8.5,0.5 h 60 v 20 h -60 v -8 -1 h -6 v 3 h -2 v -8 h 2 v 3 h 6 v -1 z" />
      <text
         id="text96"
         style="font-size:10px;font-family:sans-serif;text-anchor:start;fill:#000000">
        <tspan
           id="tspan94"
           y="13.833333"
           x="13.333333">la</tspan>
      </text>
    </g>
  </g>
  <g
     id="g110"
     transform="translate(153,94.5)">
    <g
       id="g108"
       transform="scale(1.5)">
      <path
         id="path102"
         style="fill:#ff6ea1;fill-opacity:1;stroke:#ff2c76;stroke-width:1;stroke-linecap:round;stroke-opacity:1"
         d="m 8.5,0.5 h 60 v 20 h -60 v -8 -1 h -6 v 3 h -2 v -8 h 2 v 3 h 6 v -1 z" />
      <text
         id="text106"
         style="font-size:10px;font-family:sans-serif;text-anchor:start;fill:#000000">
        <tspan
           id="tspan104"
           y="13.833333"
           x="13.333333">4</tspan>
      </text>
    </g>
  </g>
  <g
     id="g124"
     transform="translate(0,186.5)">
    <g
       id="g122"
       transform="scale(1.5)">
      <path
         id="path112"
         style="fill:#fe994f;fill-opacity:1;stroke:#e8680e;stroke-width:1;stroke-linecap:round;stroke-opacity:1"
         d="m 0.5,8.5 v -4 c 0,-2.209139 1.790861,-4 4,-4 h 4 v 2 h 10 v -2 h 9 45.480794 4 c 2.209139,0 4.698591,1.9042267 4,4 v 4 h -4 v -3 h -4 v 10 h 4 v -3 h 4 v 4 c 0,2.209139 -1.790861,4 -4,4 h -4 H 27.5 h -1 v 2 h -8 v -2 h -1 -4 c -2.761424,0 -5,2.238576 -5,5 v 4 4 42 4 c 0,2.761424 2.238576,5 5,5 h 4 v 2 h 10 v -2 h 8 v 6 6 4 c 0,2.20914 -1.790861,4 -4,4 h -4 -9 -1 v 2 h -8 v -2 h -1 -4 c -2.209139,0 -4,-1.79086 -4,-4 v -4 z" />
      <text
         id="text116"
         style="font-size:10px;font-family:sans-serif;text-anchor:start;fill:#000000">
        <tspan
           id="tspan114"
           y="15.25"
           x="5.3333335">valor de nota</tspan>
      </text>
      <text
         id="text120"
         style="font-size:6.66666651px;font-family:sans-serif;text-anchor:end;fill:#000000">
        <tspan
           id="tspan118"
           y="11.25"
           x="61.480793" />
      </text>
    </g>
  </g>
  <g
     id="g142"
     transform="translate(110.22119,186.5)">
    <g
       id="g140"
       transform="scale(1.5)">
      <path
         id="path126"
         style="fill:#ff6ea1;fill-opacity:1;stroke:#ff2c76;stroke-width:1;stroke-linecap:round;stroke-opacity:1"
         d="m 8.5,8.5 v -4 a 4,4 90 0 1 4,-4 h 4 10 30 4 a 4,4 90 0 1 4,4 v 4 h -4 v -3 h -4 v 10 h 4 v -3 h 4 v 17 h -4 v -3 h -4 v 10 h 4 v -3 h 4 v 4 a 4,4 90 0 1 -4,4 h -4 -30 -10 -4 a 4,4 90 0 1 -4,-4 v -4 -21 -1 h -6 v 3 h -2 v -8 h 2 v 3 h 6 z" />
      <text
         id="text130"
         style="font-size:14px;font-family:sans-serif;text-anchor:end;fill:#000000">
        <tspan
           id="tspan128"
           y="23.799999"
           x="54.333332">/</tspan>
      </text>
      <text
         id="text134"
         style="font-size:9.33333302px;font-family:sans-serif;text-anchor:end;fill:#000000">
        <tspan
           id="tspan132"
           y="10.75"
           x="54.333332" />
      </text>
      <text
         id="text138"
         style="font-size:9.33333302px;font-family:sans-serif;text-anchor:end;fill:#000000">
        <tspan
           id="tspan136"
           y="31.75"
           x="54.333332" />
      </text>
    </g>
  </g>
  <g
     id="g152"
     transform="translate(195.72119,186.5)">
    <g
       id="g150"
       transform="scale(1.5)">
      <path
         id="path144"
         style="fill:#ff6ea1;fill-opacity:1;stroke:#ff2c76;stroke-width:1;stroke-linecap:round;stroke-opacity:1"
         d="m 8.5,0.5 h 60 v 20 h -60 v -8 -1 h -6 v 3 h -2 v -8 h 2 v 3 h 6 v -1 z" />
      <text
         id="text148"
         style="font-size:10px;font-family:sans-serif;text-anchor:start;fill:#000000">
        <tspan
           id="tspan146"
           y="13.833333"
           x="13.333333">1</tspan>
      </text>
    </g>
  </g>
  <g
     id="g162"
     transform="translate(195.72119,218)">
    <g
       id="g160"
       transform="scale(1.5)">
      <path
         id="path154"
         style="fill:#ff6ea1;fill-opacity:1;stroke:#ff2c76;stroke-width:1;stroke-linecap:round;stroke-opacity:1"
         d="m 8.5,0.5 h 60 v 20 h -60 v -8 -1 h -6 v 3 h -2 v -8 h 2 v 3 h 6 v -1 z" />
      <text
         id="text158"
         style="font-size:10px;font-family:sans-serif;text-anchor:start;fill:#000000">
        <tspan
           id="tspan156"
           y="13.833333"
           x="13.333333">8</tspan>
      </text>
    </g>
  </g>
  <g
     id="g172"
     transform="translate(13.5,218)">
    <g
       id="g170"
       transform="scale(1.5)">
      <path
         id="path164"
         style="fill:#c4c4c4;fill-opacity:1;stroke:#000000;stroke-width:1;stroke-linecap:round;stroke-opacity:1"
         d="m 0.5,8.5 v -4 a 4,4 90 0 1 4,-4 h 4 v 2 h 10 v -2 h 20 4 a 4,4 90 0 1 4,4 v 4 4 4 a 4,4 90 0 1 -4,4 h -4 -20 -1 v 2 h -8 v -2 h -1 -4 a 4,4 90 0 1 -4,-4 v -4 z" />
      <text
         id="text168"
         style="font-size:10px;font-family:sans-serif;text-anchor:end;fill:#000000">
        <tspan
           id="tspan166"
           y="13.5"
           x="36.333332">↓</tspan>
      </text>
    </g>
  </g>
  <g
     id="g190"
     transform="translate(79.5,249.5)">
    <g
       id="g188"
       transform="scale(1.5)">
      <path
         id="path174"
         style="fill:#7cd622;fill-opacity:1;stroke:#57ad02;stroke-width:1;stroke-linecap:round;stroke-opacity:1"
         d="m -43.5,8.5 v -4 c 0,-2.209139 1.790861,-4 4,-4 h 4 v 2 h 10 v -2 h 74 4 c 2.209139,0 4,1.790861 4,4 v 4 h -4 v -3 h -4 v 10 h 4 v -3 h 4 v 17 h -4 v -3 h -4 v 10 h 4 v -3 h 4 v 4 c 0,2.209139 -1.790861,4 -4,4 h -4 -74 -1 v 2 h -8 v -2 h -1 -4 c -2.209139,0 -4,-1.790861 -4,-4 v -4 -21 z" />
      <text
         id="text178"
         style="font-size:10px;font-family:sans-serif;text-anchor:end;fill:#000000">
        <tspan
           id="tspan176"
           y="24"
           x="46.333332">determinar o tom</tspan>
      </text>
      <text
         id="text182"
         style="font-size:6.66666651px;font-family:sans-serif;text-anchor:end;fill:#000000">
        <tspan
           id="tspan180"
           y="11.25"
           x="46.333332">nome</tspan>
      </text>
      <text
         id="text186"
         style="font-size:6.66666651px;font-family:sans-serif;text-anchor:end;fill:#000000">
        <tspan
           id="tspan184"
           y="32.25"
           x="46.333332">oitava</tspan>
      </text>
    </g>
  </g>
  <g
     id="g200"
     transform="translate(153,249.5)">
    <g
       id="g198"
       transform="scale(1.5)">
      <path
         id="path192"
         style="fill:#7cd622;fill-opacity:1;stroke:#57ad02;stroke-width:1;stroke-linecap:round;stroke-opacity:1"
         d="m 8.5,0.5 h 60 v 20 h -60 v -8 -1 h -6 v 3 h -2 v -8 h 2 v 3 h 6 v -1 z" />
      <text
         id="text196"
         style="font-size:10px;font-family:sans-serif;text-anchor:start;fill:#000000">
        <tspan
           id="tspan194"
           y="13.833333"
           x="13.333333">mi</tspan>
      </text>
    </g>
  </g>
  <g
     id="g210"
     transform="translate(153,281)">
    <g
       id="g208"
       transform="scale(1.5)">
      <path
         id="path202"
         style="fill:#ff6ea1;fill-opacity:1;stroke:#ff2c76;stroke-width:1;stroke-linecap:round;stroke-opacity:1"
         d="m 8.5,0.5 h 60 v 20 h -60 v -8 -1 h -6 v 3 h -2 v -8 h 2 v 3 h 6 v -1 z" />
      <text
         id="text206"
         style="font-size:10px;font-family:sans-serif;text-anchor:start;fill:#000000">
        <tspan
           id="tspan204"
           y="13.833333"
           x="13.333333">4</tspan>
      </text>
    </g>
  </g>
  <g
     id="g224"
     transform="translate(0,344)">
    <g
       id="g222"
       transform="scale(1.5)">
      <path
         id="path212"
         style="fill:#fe994f;fill-opacity:1;stroke:#e8680e;stroke-width:1;stroke-linecap:round;stroke-opacity:1"
         d="m 0.5,8.5 v -4 c 0,-2.209139 1.790861,-4 4,-4 h 4 v 2 h 10 v -2 h 9 45.480794 4 c 2.209139,0 4,1.790861 4,4 v 4 h -4 v -3 h -4 v 10 h 4 v -3 h 4 v 4 c 0,2.209139 -1.790861,4 -4,4 h -4 H 27.5 h -1 v 2 h -8 v -2 h -1 -4 c -2.761424,0 -5,2.238576 -5,5 v 4 4 42 4 c 0,2.761424 2.238576,5 5,5 h 4 v 2 h 10 v -2 h 8 v 6 6 4 c 0,2.20914 -1.790861,4 -4,4 h -4 -9 -1 v 2 h -8 v -2 h -1 -4 c -2.209139,0 -4,-1.79086 -4,-4 v -4 z" />
      <text
         id="text216"
         style="font-size:10px;font-family:sans-serif;text-anchor:start;fill:#000000">
        <tspan
           id="tspan214"
           y="15.25"
           x="5.3333335">valor de nota</tspan>
      </text>
      <text
         id="text220"
         style="font-size:6.66666651px;font-family:sans-serif;text-anchor:end;fill:#000000">
        <tspan
           id="tspan218"
           y="11.25"
           x="61.480793" />
      </text>
    </g>
  </g>
  <g
     id="g242"
     transform="translate(110.22119,344)">
    <g
       id="g240"
       transform="scale(1.5)">
      <path
         id="path226"
         style="fill:#ff6ea1;fill-opacity:1;stroke:#ff2c76;stroke-width:1;stroke-linecap:round;stroke-opacity:1"
         d="m 8.5,8.5 v -4 a 4,4 90 0 1 4,-4 h 4 10 30 4 a 4,4 90 0 1 4,4 v 4 h -4 v -3 h -4 v 10 h 4 v -3 h 4 v 17 h -4 v -3 h -4 v 10 h 4 v -3 h 4 v 4 a 4,4 90 0 1 -4,4 h -4 -30 -10 -4 a 4,4 90 0 1 -4,-4 v -4 -21 -1 h -6 v 3 h -2 v -8 h 2 v 3 h 6 z" />
      <text
         id="text230"
         style="font-size:14px;font-family:sans-serif;text-anchor:end;fill:#000000">
        <tspan
           id="tspan228"
           y="23.799999"
           x="54.333332">/</tspan>
      </text>
      <text
         id="text234"
         style="font-size:9.33333302px;font-family:sans-serif;text-anchor:end;fill:#000000">
        <tspan
           id="tspan232"
           y="10.75"
           x="54.333332" />
      </text>
      <text
         id="text238"
         style="font-size:9.33333302px;font-family:sans-serif;text-anchor:end;fill:#000000">
        <tspan
           id="tspan236"
           y="31.75"
           x="54.333332" />
      </text>
    </g>
  </g>
  <g
     id="g252"
     transform="translate(195.72119,344)">
    <g
       id="g250"
       transform="scale(1.5)">
      <path
         id="path244"
         style="fill:#ff6ea1;fill-opacity:1;stroke:#ff2c76;stroke-width:1;stroke-linecap:round;stroke-opacity:1"
         d="m 8.5,0.5 h 60 v 20 h -60 v -8 -1 h -6 v 3 h -2 v -8 h 2 v 3 h 6 v -1 z" />
      <text
         id="text248"
         style="font-size:10px;font-family:sans-serif;text-anchor:start;fill:#000000">
        <tspan
           id="tspan246"
           y="13.833333"
           x="13.333333">1</tspan>
      </text>
    </g>
  </g>
  <g
     id="g262"
     transform="translate(195.72119,375.5)">
    <g
       id="g260"
       transform="scale(1.5)">
      <path
         id="path254"
         style="fill:#ff6ea1;fill-opacity:1;stroke:#ff2c76;stroke-width:1;stroke-linecap:round;stroke-opacity:1"
         d="m 8.5,0.5 h 60 v 20 h -60 v -8 -1 h -6 v 3 h -2 v -8 h 2 v 3 h 6 v -1 z" />
      <text
         id="text258"
         style="font-size:10px;font-family:sans-serif;text-anchor:start;fill:#000000">
        <tspan
           id="tspan256"
           y="13.833333"
           x="13.333333">8</tspan>
      </text>
    </g>
  </g>
  <g
     id="g272"
     transform="translate(13.5,375.5)">
    <g
       id="g270"
       transform="scale(1.5)">
      <path
         id="path264"
         style="fill:#c4c4c4;fill-opacity:1;stroke:#000000;stroke-width:1;stroke-linecap:round;stroke-opacity:1"
         d="m 0.5,8.5 v -4 a 4,4 90 0 1 4,-4 h 4 v 2 h 10 v -2 h 20 4 a 4,4 90 0 1 4,4 v 4 4 4 a 4,4 90 0 1 -4,4 h -4 -20 -1 v 2 h -8 v -2 h -1 -4 a 4,4 90 0 1 -4,-4 v -4 z" />
      <text
         id="text268"
         style="font-size:10px;font-family:sans-serif;text-anchor:end;fill:#000000">
        <tspan
           id="tspan266"
           y="13.5"
           x="36.333332">↓</tspan>
      </text>
    </g>
  </g>
  <g
     id="g290"
     transform="translate(79.5,407)">
    <g
       id="g288"
       transform="scale(1.5)">
      <path
         id="path274"
         style="fill:#7cd622;fill-opacity:1;stroke:#57ad02;stroke-width:1;stroke-linecap:round;stroke-opacity:1"
         d="m -43.5,8.5 v -4 c 0,-2.209139 1.790861,-4 4,-4 h 4 v 2 h 10 v -2 h 74 4 c 2.209139,0 4,1.790861 4,4 v 4 h -4 v -3 h -4 v 10 h 4 v -3 h 4 v 17 h -4 v -3 h -4 v 10 h 4 v -3 h 4 v 4 c 0,2.209139 -1.790861,4 -4,4 h -4 -74 -1 v 2 h -8 v -2 h -1 -4 c -2.209139,0 -4,-1.790861 -4,-4 v -4 -21 z" />
      <text
         id="text278"
         style="font-size:10px;font-family:sans-serif;text-anchor:end;fill:#000000">
        <tspan
           id="tspan276"
           y="24"
           x="46.333332">determinar o tom</tspan>
      </text>
      <text
         id="text282"
         style="font-size:6.66666651px;font-family:sans-serif;text-anchor:end;fill:#000000">
        <tspan
           id="tspan280"
           y="11.25"
           x="46.333332">nome</tspan>
      </text>
      <text
         id="text286"
         style="font-size:6.66666651px;font-family:sans-serif;text-anchor:end;fill:#000000">
        <tspan
           id="tspan284"
           y="32.25"
           x="46.333332">oitava</tspan>
      </text>
    </g>
  </g>
  <g
     id="g300"
     transform="translate(153,407)">
    <g
       id="g298"
       transform="scale(1.5)">
      <path
         id="path292"
         style="fill:#7cd622;fill-opacity:1;stroke:#57ad02;stroke-width:1;stroke-linecap:round;stroke-opacity:1"
         d="m 8.5,0.5 h 60 v 20 h -60 v -8 -1 h -6 v 3 h -2 v -8 h 2 v 3 h 6 v -1 z" />
      <text
         id="text296"
         style="font-size:10px;font-family:sans-serif;text-anchor:start;fill:#000000">
        <tspan
           id="tspan294"
           y="13.833333"
           x="13.333333">sol</tspan>
      </text>
    </g>
  </g>
  <g
     id="g310"
     transform="translate(153,438.5)">
    <g
       id="g308"
       transform="scale(1.5)">
      <path
         id="path302"
         style="fill:#ff6ea1;fill-opacity:1;stroke:#ff2c76;stroke-width:1;stroke-linecap:round;stroke-opacity:1"
         d="m 8.5,0.5 h 60 v 20 h -60 v -8 -1 h -6 v 3 h -2 v -8 h 2 v 3 h 6 v -1 z" />
      <text
         id="text306"
         style="font-size:10px;font-family:sans-serif;text-anchor:start;fill:#000000">
        <tspan
           id="tspan304"
           y="13.833333"
           x="13.333333">4</tspan>
      </text>
    </g>
  </g>
</svg>
