<?xml version="1.0" encoding="UTF-8" standalone="no"?>
<svg
   xmlns:dc="http://purl.org/dc/elements/1.1/"
   xmlns:cc="http://creativecommons.org/ns#"
   xmlns:rdf="http://www.w3.org/1999/02/22-rdf-syntax-ns#"
   xmlns:svg="http://www.w3.org/2000/svg"
   xmlns="http://www.w3.org/2000/svg"
   version="1.1"
   id="svg5587"
   viewBox="0 0 290.25839 312.97787"
   height="312.97787"
   width="290.25839">
  <defs
     id="defs5589" />
  <metadata
     id="metadata5592">
    <rdf:RDF>
      <cc:Work
         rdf:about="">
        <dc:format>image/svg+xml</dc:format>
        <dc:type
           rdf:resource="http://purl.org/dc/dcmitype/StillImage" />
        <dc:title></dc:title>
      </cc:Work>
    </rdf:RDF>
  </metadata>
  <text
     x="430.52792"
     y="-755.24323"
     id="text3033"
     style="font-size:13.33333302px;font-family:Sans;text-anchor:end;fill:#000000">
    <tspan
       x="532.52795"
       y="-732.74323"
       id="tspan3035" />
  </text>
  <text
     x="448.52792"
     y="-690.27966"
     id="text3107"
     style="font-size:13.33333302px;font-family:Sans;text-anchor:end;fill:#000000">
    <tspan
       x="542.52795"
       y="-667.77966"
       id="tspan3109" />
  </text>
  <text
     x="430.52792"
     y="-671.24323"
     id="text3033-0"
     style="font-size:13.33333302px;font-family:Sans;text-anchor:end;fill:#000000">
    <tspan
       x="532.52795"
       y="-648.74323"
       id="tspan3035-1" />
  </text>
  <text
     x="430.52792"
     y="-587.24329"
     id="text3033-1"
     style="font-size:13.33333302px;font-family:Sans;text-anchor:end;fill:#000000">
    <tspan
       x="532.52795"
       y="-564.74329"
       id="tspan3035-8" />
  </text>
  <text
     x="430.52792"
     y="-503.24329"
     id="text3033-0-9"
     style="font-size:13.33333302px;font-family:Sans;text-anchor:end;fill:#000000">
    <tspan
       x="532.52795"
       y="-480.74329"
       id="tspan3035-1-5" />
  </text>
  <text
     x="-144.02765"
     y="-775.81384"
     id="text3033-19"
     style="font-size:13.33333302px;font-family:Sans;text-anchor:end;fill:#000000">
    <tspan
       x="-42.027645"
       y="-753.31384"
       id="tspan3035-6" />
  </text>
  <text
     x="-144.02765"
     y="-691.81384"
     id="text3033-0-93"
     style="font-size:13.33333302px;font-family:Sans;text-anchor:end;fill:#000000">
    <tspan
       x="-42.027645"
       y="-669.31384"
       id="tspan3035-1-3" />
  </text>
  <text
     x="-144.02765"
     y="-607.81384"
     id="text3033-1-6"
     style="font-size:13.33333302px;font-family:Sans;text-anchor:end;fill:#000000">
    <tspan
       x="-42.027645"
       y="-585.31384"
       id="tspan3035-8-9" />
  </text>
  <text
     x="-144.02765"
     y="-523.81384"
     id="text3033-0-9-1"
     style="font-size:13.33333302px;font-family:Sans;text-anchor:end;fill:#000000">
    <tspan
       x="-42.027645"
       y="-501.31384"
       id="tspan3035-1-5-0" />
  </text>
  <text
     x="80.074379"
     y="-802.24054"
     id="text3033-7"
     style="font-size:13.33333302px;font-family:Sans;text-anchor:end;fill:#000000">
    <tspan
       x="182.07437"
       y="-779.74054"
       id="tspan3035-4" />
  </text>
  <text
     x="98.074379"
     y="-737.27698"
     id="text3107-1"
     style="font-size:13.33333302px;font-family:Sans;text-anchor:end;fill:#000000">
    <tspan
       x="192.07437"
       y="-714.77698"
       id="tspan3109-0" />
  </text>
  <text
     x="80.074379"
     y="-718.24054"
     id="text3033-0-8"
     style="font-size:13.33333302px;font-family:Sans;text-anchor:end;fill:#000000">
    <tspan
       x="182.07437"
       y="-695.74054"
       id="tspan3035-1-6" />
  </text>
  <text
     x="80.074379"
     y="-634.24054"
     id="text3033-1-1"
     style="font-size:13.33333302px;font-family:Sans;text-anchor:end;fill:#000000">
    <tspan
       x="182.07437"
       y="-611.7406"
       id="tspan3035-8-8" />
  </text>
  <text
     x="80.074379"
     y="-550.2406"
     id="text3033-0-9-9"
     style="font-size:13.33333302px;font-family:Sans;text-anchor:end;fill:#000000">
    <tspan
       x="182.07437"
       y="-527.7406"
       id="tspan3035-1-5-3" />
  </text>
  <text
     x="971.83563"
     y="-874.22583"
     id="text3033-3"
     style="font-size:13.33333302px;font-family:Sans;text-anchor:end;fill:#000000">
    <tspan
       x="1073.8354"
       y="-851.72583"
       id="tspan3035-0" />
  </text>
  <text
     x="971.83563"
     y="-790.22583"
     id="text3033-0-2"
     style="font-size:13.33333302px;font-family:Sans;text-anchor:end;fill:#000000">
    <tspan
       x="1073.8354"
       y="-767.72583"
       id="tspan3035-1-66" />
  </text>
  <text
     x="971.83563"
     y="-706.22583"
     id="text3033-1-2"
     style="font-size:13.33333302px;font-family:Sans;text-anchor:end;fill:#000000">
    <tspan
       x="1073.8354"
       y="-683.72583"
       id="tspan3035-8-3" />
  </text>
  <text
     x="971.83563"
     y="-622.22583"
     id="text3033-0-9-93"
     style="font-size:13.33333302px;font-family:Sans;text-anchor:end;fill:#000000">
    <tspan
       x="1073.8354"
       y="-599.72583"
       id="tspan3035-1-5-2" />
  </text>
  <text
     x="1066.5278"
     y="-506.11249"
     id="text3033-37"
     style="font-size:13.33333302px;font-family:Sans;text-anchor:end;fill:#000000">
    <tspan
       x="1168.5278"
       y="-483.61249"
       id="tspan3035-17" />
  </text>
  <text
     x="1084.5278"
     y="-441.1489"
     id="text3107-2"
     style="font-size:13.33333302px;font-family:Sans;text-anchor:end;fill:#000000">
    <tspan
       x="1178.5278"
       y="-418.6489"
       id="tspan3109-1" />
  </text>
  <text
     x="1066.5278"
     y="-422.11249"
     id="text3033-0-6"
     style="font-size:13.33333302px;font-family:Sans;text-anchor:end;fill:#000000">
    <tspan
       x="1168.5278"
       y="-399.61249"
       id="tspan3035-1-33" />
  </text>
  <text
     x="1066.5278"
     y="-338.11246"
     id="text3033-1-4"
     style="font-size:13.33333302px;font-family:Sans;text-anchor:end;fill:#000000">
    <tspan
       x="1168.5278"
       y="-315.61246"
       id="tspan3035-8-1" />
  </text>
  <text
     x="1066.5278"
     y="-254.11247"
     id="text3033-0-9-2"
     style="font-size:13.33333302px;font-family:Sans;text-anchor:end;fill:#000000">
    <tspan
       x="1168.5278"
       y="-231.61247"
       id="tspan3035-1-5-5" />
  </text>
  <text
     y="-648.50995"
     x="62.527927"
     style="font-size:18.66666603px;font-family:sans-serif;text-anchor:end;fill:#000000"
     id="text3120">
    <tspan
       id="tspan3122"
       y="-627.00995"
       x="172.52792" />
  </text>
  <text
     y="-648.50995"
     x="62.527927"
     style="font-size:18.66666603px;font-family:sans-serif;text-anchor:end;fill:#000000"
     id="text3124">
    <tspan
       id="tspan3126"
       y="-585.00995"
       x="172.52792" />
  </text>
  <flowRoot
     xml:space="preserve"
     id="flowRoot4622"
     style="font-style:normal;font-weight:normal;font-size:16px;line-height:125%;font-family:sans-serif;text-align:center;letter-spacing:0px;word-spacing:0px;text-anchor:middle;fill:#000000;fill-opacity:1;stroke:none;stroke-width:1px;stroke-linecap:butt;stroke-linejoin:miter;stroke-opacity:1"
     transform="translate(4.5278938,-871.63404)"><flowRegion
       id="flowRegion4624"><rect
         id="rect4626"
         width="320.46744"
         height="182.71428"
         x="673.45996"
         y="575.88477" /></flowRegion><flowPara
       id="flowPara4628" /></flowRoot>  <text
     x="1375.0573"
     y="-330.68466"
     id="text3033-05"
     style="font-size:13.33333302px;font-family:Sans;text-anchor:end;fill:#000000">
    <tspan
       x="1477.0573"
       y="-308.18466"
       id="tspan3035-9" />
  </text>
  <text
     x="1393.0573"
     y="-265.72104"
     id="text3107-5"
     style="font-size:13.33333302px;font-family:Sans;text-anchor:end;fill:#000000">
    <tspan
       x="1487.0573"
       y="-243.22105"
       id="tspan3109-3" />
  </text>
  <text
     x="1375.0573"
     y="-246.68468"
     id="text3033-0-5"
     style="font-size:13.33333302px;font-family:Sans;text-anchor:end;fill:#000000">
    <tspan
       x="1477.0573"
       y="-224.18468"
       id="tspan3035-1-8" />
  </text>
  <text
     x="1375.0573"
     y="-162.68468"
     id="text3033-1-46"
     style="font-size:13.33333302px;font-family:Sans;text-anchor:end;fill:#000000">
    <tspan
       x="1477.0573"
       y="-140.18468"
       id="tspan3035-8-2" />
  </text>
  <text
     x="1375.0573"
     y="-78.684677"
     id="text3033-0-9-934"
     style="font-size:13.33333302px;font-family:Sans;text-anchor:end;fill:#000000">
    <tspan
       x="1477.0573"
       y="-56.184673"
       id="tspan3035-1-5-7" />
  </text>
  <text
     style="font-size:18.66666603px;font-family:sans-serif;text-anchor:end;fill:#000000"
     id="text3804-3-3-6"
     x="588.52789"
     y="-134.50993">
    <tspan
       id="tspan3806-1-5-4"
       y="-113.00993"
       x="698.52789" />
  </text>
  <text
     style="font-size:18.66666603px;font-family:sans-serif;text-anchor:end;fill:#000000"
     id="text3808-5-4-3"
     x="588.52789"
     y="-134.50993">
    <tspan
       id="tspan3810-0-3-9"
       y="-71.009933"
       x="698.52789" />
  </text>
  <text
     style="font-size:13.33333302px;font-family:Sans;text-anchor:end;fill:#000000"
     id="text27-0-0-1-5-7"
     x="702.52789"
     y="-145.24828">
    <tspan
       id="tspan29-8-9-4-8-9"
       y="-122.74828"
       x="832.52789" />
  </text>
  <g
     transform="matrix(0.93749999,0,0,0.93749999,0,0.39519136)"
     id="g972">
    <g
       transform="scale(1.5)"
       id="g970">
      <path
         d="m 0.5,14.5 v -4 c 0,-2.209139 1.790861,-4 4,-4 h 4 l 5,-6 5,6 h 9 54.722505 4 c 2.209139,0 4,1.790861 4,4 v 4 4 4 c 0,2.209139 -1.790861,4 -4,4 h -4 H 27.5 h -1 v 2 h -8 v -2 h -1 -4 c -2.761424,0 -5,2.238576 -5,5 v 4 4 147 4 c 0,2.76142 2.238576,5 5,5 h 4 v 2 h 10 v -2 h 8 v 6 6 4 c 0,2.20914 -1.790861,4 -4,4 h -4 -9 l -5,6 -5,-6 h -4 c -2.209139,0 -4,-1.79086 -4,-4 v -4 z"
         style="fill:#92a9ff;fill-opacity:1;stroke:#5370dc;stroke-width:1;stroke-linecap:round;stroke-opacity:1"
         id="path964" />
      <text
         style="font-size:10px;font-family:sans-serif;text-anchor:start;fill:#000000"
         id="text968">
        <tspan
           x="5.3333335"
           y="21.5"
           id="tspan966">criador de ritmo</tspan>
      </text>
    </g>
  </g>
  <g
     transform="matrix(0.93749999,0,0,0.93749999,12.65625,38.363941)"
     id="g986">
    <g
       transform="scale(1.5)"
       id="g984">
      <path
         d="m 0.5,8.5 v -4 c 0,-2.209139 1.790861,-4 4,-4 h 4 v 2 h 10 v -2 h 9 51.656923 4 c 2.209139,0 4.740083,1.9185168 4,4 v 4 h -4 v -3 h -4 v 10 h 4 v -3 h 4 v 4 c 0,2.209139 -1.790861,4 -4,4 h -4 H 27.5 h -1 v 2 h -8 v -2 h -1 -4 c -2.761424,0 -5,2.238576 -5,5 v 4 4 21 4 c 0,2.761424 2.238576,5 5,5 h 4 v 2 h 10 v -2 h 8 v 6 6 4 c 0,2.209139 -1.790861,4 -4,4 h -4 -9 -1 v 2 h -8 v -2 h -1 -4 c -2.209139,0 -4,-1.790861 -4,-4 v -4 z"
         style="fill:#3edcdd;fill-opacity:1;stroke:#000000;stroke-width:1;stroke-linecap:round;stroke-opacity:1"
         id="path974" />
      <text
         style="font-size:10px;font-family:sans-serif;text-anchor:start;fill:#000000"
         id="text978">
        <tspan
           x="5.3333335"
           y="15.25"
           id="tspan976">definir bateria</tspan>
      </text>
      <text
         style="font-size:6.66666651px;font-family:sans-serif;text-anchor:end;fill:#000000"
         id="text982">
        <tspan
           x="54.234699"
           y="11.25"
           id="tspan980" />
      </text>
    </g>
  </g>
  <g
     transform="matrix(0.93749999,0,0,0.93749999,124.6738,38.363941)"
     id="g996">
    <g
       transform="scale(1.5)"
       id="g994">
      <path
         d="m 8.5,0.5 h 60 v 20 h -60 v -8 -1 h -6 v 3 h -2 v -8 h 2 v 3 h 6 v -1 z"
         style="fill:#3edcdd;fill-opacity:1;stroke:#000000;stroke-width:1;stroke-linecap:round;stroke-opacity:1"
         id="path988" />
      <text
         style="font-size:10px;font-family:sans-serif;text-anchor:start;fill:#000000"
         id="text992">
        <tspan
           x="13.333333"
           y="13.833333"
           id="tspan990">tarola</tspan>
      </text>
    </g>
  </g>
  <g
     transform="matrix(0.93749999,0,0,0.93749999,29.3125,67.89519)"
     id="g1014">
    <g
       transform="scale(1.5)"
       id="g1012">
      <path
         d="m -2.3444445,8.5 v -4 c 0,-2.209139 1.79086103,-4 4,-4 h 4 v 2 H 15.655556 v -2 h 43.405967 4 c 2.209139,0 4,1.790861 4,4 v 4 h -4 v -3 h -4 v 10 h 4 v -3 h 4 v 17 h -4 v -3 h -4 v 10 h 4 v -3 h 4 v 4 c 0,2.209139 -1.790861,4 -4,4 h -4 -43.405967 -1 v 2 H 6.6555555 v -2 h -1 -4 c -2.20913897,0 -4,-1.790861 -4,-4 v -4 -21 z"
         style="fill:#92a9ff;fill-opacity:1;stroke:#5370dc;stroke-width:1;stroke-linecap:round;stroke-opacity:1"
         id="path998" />
      <text
         style="font-size:10px;font-family:sans-serif;text-anchor:end;fill:#000000"
         id="text1002">
        <tspan
           x="56.894855"
           y="24"
           id="tspan1000">Ritmo</tspan>
      </text>
      <text
         style="font-size:6.66666651px;font-family:sans-serif;text-anchor:end;fill:#000000"
         id="text1006">
        <tspan
           x="56.894855"
           y="11.25"
           id="tspan1004">número de notas</tspan>
      </text>
      <text
         style="font-size:6.66666651px;font-family:sans-serif;text-anchor:end;fill:#000000"
         id="text1010">
        <tspan
           x="56.894855"
           y="32.25"
           id="tspan1008">valor de nota</tspan>
      </text>
    </g>
  </g>
  <g
     transform="matrix(0.93749999,0,0,0.93749999,113.0709,67.89519)"
     id="g1024">
    <g
       transform="scale(1.5)"
       id="g1022">
      <path
         d="m 8.5,0.5 h 60 v 20 h -60 v -8 -1 h -6 v 3 h -2 v -8 h 2 v 3 h 6 v -1 z"
         style="fill:#ff6ea1;fill-opacity:1;stroke:#ff2c76;stroke-width:1;stroke-linecap:round;stroke-opacity:1"
         id="path1016" />
      <text
         style="font-size:10px;font-family:sans-serif;text-anchor:start;fill:#000000"
         id="text1020">
        <tspan
           x="13.333333"
           y="13.833333"
           id="tspan1018">1</tspan>
      </text>
    </g>
  </g>
  <g
     transform="matrix(0.93749999,0,0,0.93749999,113.0709,97.42644)"
     id="g1042">
    <g
       transform="scale(1.5)"
       id="g1040">
      <path
         d="m 8.5,8.5 v -4 a 4,4 90 0 1 4,-4 h 4 10 30 4 a 4,4 90 0 1 4,4 v 4 h -4 v -3 h -4 v 10 h 4 v -3 h 4 v 17 h -4 v -3 h -4 v 10 h 4 v -3 h 4 v 4 a 4,4 90 0 1 -4,4 h -4 -30 -10 -4 a 4,4 90 0 1 -4,-4 v -4 -21 -1 h -6 v 3 h -2 v -8 h 2 v 3 h 6 z"
         style="fill:#ff6ea1;fill-opacity:1;stroke:#ff2c76;stroke-width:1;stroke-linecap:round;stroke-opacity:1"
         id="path1026" />
      <text
         style="font-size:14px;font-family:sans-serif;text-anchor:end;fill:#000000"
         id="text1030">
        <tspan
           x="54.333332"
           y="23.799999"
           id="tspan1028">/</tspan>
      </text>
      <text
         style="font-size:9.33333302px;font-family:sans-serif;text-anchor:end;fill:#000000"
         id="text1034">
        <tspan
           x="54.333332"
           y="10.75"
           id="tspan1032" />
      </text>
      <text
         style="font-size:9.33333302px;font-family:sans-serif;text-anchor:end;fill:#000000"
         id="text1038">
        <tspan
           x="54.333332"
           y="31.75"
           id="tspan1036" />
      </text>
    </g>
  </g>
  <g
     transform="matrix(0.93749999,0,0,0.93749999,193.22715,97.42644)"
     id="g1052">
    <g
       transform="scale(1.5)"
       id="g1050">
      <path
         d="m 8.5,0.5 h 60 v 20 h -60 v -8 -1 h -6 v 3 h -2 v -8 h 2 v 3 h 6 v -1 z"
         style="fill:#ff6ea1;fill-opacity:1;stroke:#ff2c76;stroke-width:1;stroke-linecap:round;stroke-opacity:1"
         id="path1044" />
      <text
         style="font-size:10px;font-family:sans-serif;text-anchor:start;fill:#000000"
         id="text1048">
        <tspan
           x="13.333333"
           y="13.833333"
           id="tspan1046">1</tspan>
      </text>
    </g>
  </g>
  <g
     transform="matrix(0.93749999,0,0,0.93749999,193.22715,126.95769)"
     id="g1062">
    <g
       transform="scale(1.5)"
       id="g1060">
      <path
         d="m 8.5,0.5 h 60 v 20 h -60 v -8 -1 h -6 v 3 h -2 v -8 h 2 v 3 h 6 v -1 z"
         style="fill:#ff6ea1;fill-opacity:1;stroke:#ff2c76;stroke-width:1;stroke-linecap:round;stroke-opacity:1"
         id="path1054" />
      <text
         style="font-size:10px;font-family:sans-serif;text-anchor:start;fill:#000000"
         id="text1058">
        <tspan
           x="13.333333"
           y="13.833333"
           id="tspan1056">1</tspan>
      </text>
    </g>
  </g>
  <g
     transform="matrix(0.93749999,0,0,0.93749999,12.65625,156.48894)"
     id="g1076">
    <g
       transform="scale(1.5)"
       id="g1074">
      <path
         d="m 0.5,8.5 v -4 c 0,-2.209139 1.790861,-4 4,-4 h 4 v 2 h 10 v -2 h 9 51.656923 4 c 2.209139,0 4.740083,1.9185168 4,4 v 4 h -4 v -3 h -4 v 10 h 4 v -3 h 4 v 4 c 0,2.209139 -1.790861,4 -4,4 h -4 H 27.5 h -1 v 2 h -8 v -2 h -1 -4 c -2.761424,0 -5,2.238576 -5,5 v 4 4 21 4 c 0,2.761424 2.238576,5 5,5 h 4 v 2 h 10 v -2 h 8 v 6 6 4 c 0,2.209139 -1.790861,4 -4,4 h -4 -9 -1 v 2 h -8 v -2 h -1 -4 c -2.209139,0 -4,-1.790861 -4,-4 v -4 z"
         style="fill:#3edcdd;fill-opacity:1;stroke:#000000;stroke-width:1;stroke-linecap:round;stroke-opacity:1"
         id="path1064" />
      <text
         style="font-size:10px;font-family:sans-serif;text-anchor:start;fill:#000000"
         id="text1068">
        <tspan
           x="5.3333335"
           y="15.25"
           id="tspan1066">definir bateria</tspan>
      </text>
      <text
         style="font-size:6.66666651px;font-family:sans-serif;text-anchor:end;fill:#000000"
         id="text1072">
        <tspan
           x="54.234699"
           y="11.25"
           id="tspan1070" />
      </text>
    </g>
  </g>
  <g
     transform="matrix(0.93749999,0,0,0.93749999,124.6738,156.48894)"
     id="g1086">
    <g
       transform="scale(1.5)"
       id="g1084">
      <path
         d="m 8.5,0.5 h 60 v 20 h -60 v -8 -1 h -6 v 3 h -2 v -8 h 2 v 3 h 6 v -1 z"
         style="fill:#3edcdd;fill-opacity:1;stroke:#000000;stroke-width:1;stroke-linecap:round;stroke-opacity:1"
         id="path1078" />
      <text
         style="font-size:10px;font-family:sans-serif;text-anchor:start;fill:#000000"
         id="text1082">
        <tspan
           x="13.333333"
           y="13.833333"
           id="tspan1080">bumbo</tspan>
      </text>
    </g>
  </g>
  <g
     transform="matrix(0.93749999,0,0,0.93749999,29.3125,186.02019)"
     id="g1104">
    <g
       transform="scale(1.5)"
       id="g1102">
      <path
         d="m -2.3444445,8.5 v -4 c 0,-2.209139 1.79086103,-4 4,-4 h 4 v 2 H 15.655556 v -2 h 43.405967 4 c 2.209139,0 4,1.790861 4,4 v 4 h -4 v -3 h -4 v 10 h 4 v -3 h 4 v 17 h -4 v -3 h -4 v 10 h 4 v -3 h 4 v 4 c 0,2.209139 -1.790861,4 -4,4 h -4 -43.405967 -1 v 2 H 6.6555555 v -2 h -1 -4 c -2.20913897,0 -4.7400829,-1.918517 -4,-4 v -4 -21 z"
         style="fill:#92a9ff;fill-opacity:1;stroke:#5370dc;stroke-width:1;stroke-linecap:round;stroke-opacity:1"
         id="path1088" />
      <text
         style="font-size:10px;font-family:sans-serif;text-anchor:end;fill:#000000"
         id="text1092">
        <tspan
           x="56.894855"
           y="24"
           id="tspan1090">Ritmo</tspan>
      </text>
      <text
         style="font-size:6.66666651px;font-family:sans-serif;text-anchor:end;fill:#000000"
         id="text1096">
        <tspan
           x="56.894855"
           y="11.25"
           id="tspan1094">número de notas</tspan>
      </text>
      <text
         style="font-size:6.66666651px;font-family:sans-serif;text-anchor:end;fill:#000000"
         id="text1100">
        <tspan
           x="56.894855"
           y="32.25"
           id="tspan1098">valor de nota</tspan>
      </text>
    </g>
  </g>
  <g
     transform="matrix(0.93749999,0,0,0.93749999,113.0709,186.02019)"
     id="g1114">
    <g
       transform="scale(1.5)"
       id="g1112">
      <path
         d="m 8.5,0.5 h 60 v 20 h -60 v -8 -1 h -6 v 3 h -2 v -8 h 2 v 3 h 6 v -1 z"
         style="fill:#ff6ea1;fill-opacity:1;stroke:#ff2c76;stroke-width:1;stroke-linecap:round;stroke-opacity:1"
         id="path1106" />
      <text
         style="font-size:10px;font-family:sans-serif;text-anchor:start;fill:#000000"
         id="text1110">
        <tspan
           x="13.333333"
           y="13.833333"
           id="tspan1108">1</tspan>
      </text>
    </g>
  </g>
  <g
     transform="matrix(0.93749999,0,0,0.93749999,113.0709,215.55144)"
     id="g1132">
    <g
       transform="scale(1.5)"
       id="g1130">
      <path
         d="m 8.5,8.5 v -4 a 4,4 90 0 1 4,-4 h 4 10 30 4 a 4,4 90 0 1 4,4 v 4 h -4 v -3 h -4 v 10 h 4 v -3 h 4 v 17 h -4 v -3 h -4 v 10 h 4 v -3 h 4 v 4 a 4,4 90 0 1 -4,4 h -4 -30 -10 -4 a 4,4 90 0 1 -4,-4 v -4 -21 -1 h -6 v 3 h -2 v -8 h 2 v 3 h 6 z"
         style="fill:#ff6ea1;fill-opacity:1;stroke:#ff2c76;stroke-width:1;stroke-linecap:round;stroke-opacity:1"
         id="path1116" />
      <text
         style="font-size:14px;font-family:sans-serif;text-anchor:end;fill:#000000"
         id="text1120">
        <tspan
           x="54.333332"
           y="23.799999"
           id="tspan1118">/</tspan>
      </text>
      <text
         style="font-size:9.33333302px;font-family:sans-serif;text-anchor:end;fill:#000000"
         id="text1124">
        <tspan
           x="54.333332"
           y="10.75"
           id="tspan1122" />
      </text>
      <text
         style="font-size:9.33333302px;font-family:sans-serif;text-anchor:end;fill:#000000"
         id="text1128">
        <tspan
           x="54.333332"
           y="31.75"
           id="tspan1126" />
      </text>
    </g>
  </g>
  <g
     transform="matrix(0.93749999,0,0,0.93749999,193.22715,215.55144)"
     id="g1142">
    <g
       transform="scale(1.5)"
       id="g1140">
      <path
         d="m 8.5,0.5 h 60 v 20 h -60 v -8 -1 h -6 v 3 h -2 v -8 h 2 v 3 h 6 v -1 z"
         style="fill:#ff6ea1;fill-opacity:1;stroke:#ff2c76;stroke-width:1;stroke-linecap:round;stroke-opacity:1"
         id="path1134" />
      <text
         style="font-size:10px;font-family:sans-serif;text-anchor:start;fill:#000000"
         id="text1138">
        <tspan
           x="13.333333"
           y="13.833333"
           id="tspan1136">1</tspan>
      </text>
    </g>
  </g>
  <g
     transform="matrix(0.93749999,0,0,0.93749999,193.22715,245.08269)"
     id="g1152">
    <g
       transform="scale(1.5)"
       id="g1150">
      <path
         d="m 8.5,0.5 h 60 v 20 h -60 v -8 -1 h -6 v 3 h -2 v -8 h 2 v 3 h 6 v -1 z"
         style="fill:#ff6ea1;fill-opacity:1;stroke:#ff2c76;stroke-width:1;stroke-linecap:round;stroke-opacity:1"
         id="path1144" />
      <text
         style="font-size:10px;font-family:sans-serif;text-anchor:start;fill:#000000"
         id="text1148">
        <tspan
           x="13.333333"
           y="13.833333"
           id="tspan1146">1</tspan>
      </text>
    </g>
  </g>
</svg>
