<?xml version="1.0" encoding="UTF-8" standalone="no"?>
<svg
   xmlns:dc="http://purl.org/dc/elements/1.1/"
   xmlns:cc="http://creativecommons.org/ns#"
   xmlns:rdf="http://www.w3.org/1999/02/22-rdf-syntax-ns#"
   xmlns:svg="http://www.w3.org/2000/svg"
   xmlns="http://www.w3.org/2000/svg"
   id="svg7569"
   version="1.1"
   height="443"
   width="556">
  <metadata
     id="metadata7575">
    <rdf:RDF>
      <cc:Work
         rdf:about="">
        <dc:format>image/svg+xml</dc:format>
        <dc:type
           rdf:resource="http://purl.org/dc/dcmitype/StillImage" />
        <dc:title></dc:title>
      </cc:Work>
    </rdf:RDF>
  </metadata>
  <defs
     id="defs7573" />
  <rect
     class=""
     style=""
     stroke="none"
     fill="none"
     y="0"
     x="0"
     height="100%"
     width="100%"
     id="backgroundrect" />
  <g
     id="svg_15"
     class="">
    <g
       id="svg_16">
      <g
         transform="matrix(1.5,0,0,1.5,357,200)"
         id="svg_17">
        <path
           d="m -228.16667,-61.333336 v -4 a 4,4 90 0 1 4,-4 h 4 v 2 h 10 v -2 h 9 60 4 a 4,4 90 0 1 4,4 v 4 h -4 v -3 h -4 v 10 h 4 v -3 h 4 v 4 a 4,4 90 0 1 -4,4 h -4 -60 -1 v 2 h -8 v -2 h -1 -4 a 5,5 90 0 0 -5,5 v 4 4 42.0000001 4 a 5,5 90 0 0 5,4.9999999 h 4 v 2 h 10 v -2 h 8 v 6 6 4 a 4,4 90 0 1 -4,4 h -4 -9 -1 v 2 h -8 v -2 h -1 -4 a 4,4 90 0 1 -4,-4 v -4 z"
           style="fill:#ff8b2d;fill-opacity:1;stroke:#e86b0e;stroke-width:1;stroke-linecap:round;stroke-opacity:1"
           id="svg_18" />
        <text
           style="font-size:10px;font-family:sans-serif;text-anchor:start;fill:#282828"
           id="svg_19"
           y="-69.833336"
           x="-228.66667">
          <tspan
             x="-208.66667"
             y="-54.833336"
             id="svg_20">nota</tspan>
        </text>
        <text
           style="font-size:6.66666651px;font-family:sans-serif;text-anchor:end;fill:#282828"
           id="svg_21"
           y="-69.833336"
           x="-228.66667">
          <tspan
             x="-143.66667"
             y="-57.833336"
             id="svg_22">valor</tspan>
        </text>
      </g>
    </g>
    <g
       transform="matrix(0.5,0,0,0.5,357,204)"
       id="svg_23">
      <g
         style="isolation:isolate"
         id="svg_24">
        <g
           id="レイヤー_2"
           data-name="レイヤー 2">
          <g
             id="Icon">
            <rect
               width="42"
               height="42"
               rx="5"
               ry="5"
               style="opacity:0.4;mix-blend-mode:multiply;fill:#292929"
               id="svg_25"
               y="-209.5"
               x="-686" />
            <path
               d="m -655.44,-179.7 -4.17,-4.16 h 2.26 a 1.035,1.035 0 1 0 0,-2.07 h -4.71 a 1.08,1.08 0 0 0 -1.11,1 v 0 c 0,0 0,0 0,0.06 v 4.64 0 a 1.04,1.04 0 1 0 2.08,0 v -2.19 l 4.19,4.19 a 1,1 0 0 0 1.46,0 1,1 0 0 0 0,-1.47 z"
               style="fill:#ffffff"
               id="svg_26" />
            <path
               d="m -666.83,-184.9 a 1.08,1.08 0 0 0 -1.11,-1 h -4.71 a 1.035,1.035 0 1 0 0,2.07 h 2.25 l -4.16,4.13 a 1.039447,1.039447 0 0 0 1.47,1.47 l 4.18,-4.19 v 2.26 a 1.04,1.04 0 1 0 2.08,0 v -4.64 c 0,0 0,0 0,-0.06 a 0.08,0.08 0 0 1 0,-0.04 z"
               style="fill:#ffffff"
               id="svg_27" />
            <path
               d="m -662.06,-189 h 4.7 a 1.04,1.04 0 1 0 0,-2.08 h -2.25 l 4.17,-4.16 a 1,1 0 0 0 0,-1.47 1,1 0 0 0 -1.46,0 l -4.19,4.21 v -2.28 a 1.04,1.04 0 1 0 -2.08,0 v 4.64 a 0.43000001,0.43000001 0 0 0 0,0.05 v 0.05 a 1.09,1.09 0 0 0 1.11,1.04 z"
               style="fill:#ffffff"
               id="svg_28" />
            <path
               d="m -667.87,-195.88 a 1.08,1.08 0 0 0 -1,1.09 v 2.29 l -4.18,-4.19 a 1,1 0 0 0 -1.47,0 1,1 0 0 0 0,1.46 l 4.16,4.17 h -2.29 a 1.04,1.04 0 1 0 0,2.08 h 4.71 a 1.09,1.09 0 0 0 1.11,-1 c 0,0 0,0 0,-0.06 v -4.75 a 1.0700001,1.0700001 0 0 0 -1.04,-1.09 z"
               style="fill:#ffffff"
               id="svg_29" />
          </g>
        </g>
      </g>
    </g>
  </g>
  <g
     id="svg_30"
     class="">
    <g
       transform="matrix(1.5,0,0,1.5,489,200)"
       id="svg_31">
      <path
         d="m -220.16667,-61.333336 v -4 a 4,4 90 0 1 4,-4 h 4 10 30 4 a 4,4 90 0 1 4,4 v 4 h -4 v -3 h -4 v 10 h 4 v -3 h 4 v 17 h -4 v -3 h -4 v 10 h 4 v -3 h 4 v 4 a 4,4 90 0 1 -4,4 h -4 -30 -10 -4 a 4,4 90 0 1 -4,-4 v -4 -21 -1 h -6 v 3 h -2 v -8 h 2 v 3 h 6 z"
         style="fill:#ff5293;fill-opacity:1;stroke:#ff2c76;stroke-width:1;stroke-linecap:round;stroke-opacity:1"
         id="svg_32" />
      <text
         style="font-size:9px;font-family:sans-serif;text-anchor:end;fill:#282828"
         id="svg_33"
         y="-69.833336"
         x="-228.66667">
        <tspan
           x="-174.66667"
           y="-46.833336"
           id="svg_34">➗</tspan>
      </text>
      <text
         style="font-size:6px;font-family:sans-serif;text-anchor:end;fill:#282828"
         id="svg_35"
         y="-69.833336"
         x="-228.66667" />
      <text
         style="font-size:6px;font-family:sans-serif;text-anchor:end;fill:#282828"
         id="svg_37"
         y="-69.833336"
         x="-228.66667" />
    </g>
  </g>
  <g
     id="svg_39"
     class="">
    <g
       transform="matrix(1.5,0,0,1.5,575,200)"
       id="svg_40">
      <path
         d="m -220.16667,-69.333336 h 60 v 20 h -60 v -8 -1 h -6 v 3 h -2 v -8 h 2 v 3 h 6 v -1 z"
         style="fill:#ff5293;fill-opacity:1;stroke:#ff2c76;stroke-width:1;stroke-linecap:round;stroke-opacity:1"
         id="svg_41" />
      <text
         style="font-size:10px;font-family:sans-serif;text-anchor:start;fill:#282828"
         id="svg_42"
         y="-69.833336"
         x="-228.66667">
        <tspan
           x="-215.66667"
           y="-55.833336"
           id="svg_43">1</tspan>
      </text>
    </g>
  </g>
  <g
     id="svg_44"
     class="">
    <g
       transform="matrix(1.5,0,0,1.5,575,232)"
       id="svg_45">
      <path
         d="m -220.16667,-69.333336 h 60 v 20 h -60 v -8 -1 h -6 v 3 h -2 v -8 h 2 v 3 h 6 v -1 z"
         style="fill:#ff5293;fill-opacity:1;stroke:#ff2c76;stroke-width:1;stroke-linecap:round;stroke-opacity:1"
         id="svg_46" />
      <text
         style="font-size:10px;font-family:sans-serif;text-anchor:start;fill:#282828"
         id="svg_47"
         y="-69.833336"
         x="-228.66667">
        <tspan
           x="-215.66667"
           y="-55.833336"
           id="svg_48">4</tspan>
      </text>
    </g>
  </g>
  <g
     id="svg_49"
     class="">
    <g
       transform="matrix(1.5,0,0,1.5,371,232)"
       id="svg_50">
      <path
         d="m -228.16667,-61.333336 v -4 a 4,4 90 0 1 4,-4 h 4 v 2 h 10 v -2 h 20 4 a 4,4 90 0 1 4,4 v 4 4 4 a 4,4 90 0 1 -4,4 h -4 -20 -1 v 2 h -8 v -2 h -1 -4 a 4,4 90 0 1 -4,-4 v -4 z"
         style="fill:#b0b0b0;fill-opacity:1;stroke:#a0a0a0;stroke-width:1;stroke-linecap:round;stroke-opacity:1"
         id="svg_51" />
      <text
         style="font-size:10px;font-family:sans-serif;text-anchor:end;fill:#282828"
         id="svg_52"
         y="-69.833336"
         x="-228.66667">
        <tspan
           x="-192.66667"
           y="-55.833336"
           id="svg_53">↓</tspan>
      </text>
    </g>
  </g>
  <g
     transform="translate(64)"
     id="svg_54"
     class="">
    <g
       transform="matrix(1.5,0,0,1.5,371,264)"
       id="svg_55">
      <path
         d="m -270.83334,-61.333336 v -4 c 0,-2.209139 1.79086,-4 4,-4 h 4 v 2 h 10 v -2 h 72.66667 4 c 2.20914,0 4,1.790861 4,4 v 4 h -4 v -3 h -4 v 10 h 4 v -3 h 4 v 17 h -4 v -3 h -4 v 10 h 4 v -3 h 4 v 4 c 0,2.209139 -1.79086,4 -4,4 h -4 -72.66667 -1 v 2 h -8 v -2 h -1 -4 c -2.20914,0 -4.69859,-1.904227 -4,-4 v -4 -21 z"
         style="fill:#77c428;fill-opacity:1;stroke:#57ad02;stroke-width:1;stroke-linecap:round;stroke-opacity:1"
         id="svg_56" />
      <text
         style="font-size:10px;font-family:sans-serif;text-anchor:end;fill:#282828"
         id="svg_57"
         y="-69.833336"
         x="-228.66667">
        <tspan
           x="-182.66667"
           y="-45.833336"
           id="svg_58">determinar o tom</tspan>
      </text>
      <text
         style="font-size:6.66666651px;font-family:sans-serif;text-anchor:end;fill:#282828"
         id="svg_59"
         y="-69.833336"
         x="-228.66667">
        <tspan
           x="-182.66667"
           y="-57.833336"
           id="svg_60">nome</tspan>
      </text>
      <text
         style="font-size:6.66666651px;font-family:sans-serif;text-anchor:end;fill:#282828"
         id="svg_61"
         y="-69.833336"
         x="-228.66667">
        <tspan
           x="-182.66667"
           y="-36.833336"
           id="svg_62">oitava</tspan>
      </text>
    </g>
  </g>
  <g
     transform="translate(64)"
     id="svg_63"
     class="">
    <g
       transform="matrix(1.5,0,0,1.5,445,264)"
       id="svg_64">
      <path
         d="m -220.16667,-69.333336 h 60 v 20 h -60 v -8 -1 h -6 v 3 h -2 v -8 h 2 v 3 h 6 v -1 z"
         style="fill:#77c428;fill-opacity:1;stroke:#57ad02;stroke-width:1;stroke-linecap:round;stroke-opacity:1"
         id="svg_65" />
      <text
         style="font-size:10px;font-family:sans-serif;text-anchor:start;fill:#282828"
         id="svg_66"
         y="-69.833336"
         x="-228.66667">
        <tspan
           x="-215.66667"
           y="-55.833336"
           id="svg_67">re</tspan>
      </text>
    </g>
  </g>
  <g
     transform="translate(64)"
     id="svg_68"
     class="">
    <g
       transform="matrix(1.5,0,0,1.5,445,296)"
       id="svg_69">
      <path
         d="m -220.16667,-69.333336 h 60 v 20 h -60 v -8 -1 h -6 v 3 h -2 v -8 h 2 v 3 h 6 v -1 z"
         style="fill:#ff5293;fill-opacity:1;stroke:#ff2c76;stroke-width:1;stroke-linecap:round;stroke-opacity:1"
         id="svg_70" />
      <text
         style="font-size:10px;font-family:sans-serif;text-anchor:start;fill:#282828"
         id="svg_71"
         y="-69.833336"
         x="-228.66667">
        <tspan
           x="-215.66667"
           y="-55.833336"
           id="svg_72">5</tspan>
      </text>
    </g>
  </g>
  <g
     id="svg_73"
     class="">
    <g
       id="svg_74">
      <g
         transform="matrix(1.5,0,0,1.5,357,358)"
         id="svg_75">
        <path
           d="m -228.16667,-61.333336 v -4 a 4,4 90 0 1 4,-4 h 4 v 2 h 10 v -2 h 9 60 4 a 4,4 90 0 1 4,4 v 4 h -4 v -3 h -4 v 10 h 4 v -3 h 4 v 4 a 4,4 90 0 1 -4,4 h -4 -60 -1 v 2 h -8 v -2 h -1 -4 a 5,5 90 0 0 -5,5 v 4 4 42.0000001 4 a 5,5 90 0 0 5,4.9999999 h 4 v 2 h 10 v -2 h 8 v 6 6 4 a 4,4 90 0 1 -4,4 h -4 -9 -1 v 2 h -8 v -2 h -1 -4 a 4,4 90 0 1 -4,-4 v -4 z"
           style="fill:#ff8b2d;fill-opacity:1;stroke:#e86b0e;stroke-width:1;stroke-linecap:round;stroke-opacity:1"
           id="svg_76" />
        <text
           style="font-size:10px;font-family:sans-serif;text-anchor:start;fill:#282828"
           id="svg_77"
           y="-69.833336"
           x="-228.66667">
          <tspan
             x="-208.66667"
             y="-54.833336"
             id="svg_78">nota</tspan>
        </text>
        <text
           style="font-size:6.66666651px;font-family:sans-serif;text-anchor:end;fill:#282828"
           id="svg_79"
           y="-69.833336"
           x="-228.66667">
          <tspan
             x="-143.66667"
             y="-57.833336"
             id="svg_80">valor</tspan>
        </text>
      </g>
    </g>
    <g
       transform="matrix(0.5,0,0,0.5,357,362)"
       id="svg_81">
      <g
         style="isolation:isolate"
         id="svg_82">
        <g
           id="g7464"
           data-name="レイヤー 2">
          <g
             id="g7462">
            <rect
               width="42"
               height="42"
               rx="5"
               ry="5"
               style="opacity:0.4;mix-blend-mode:multiply;fill:#292929"
               id="svg_83"
               y="-209.5"
               x="-686" />
            <path
               d="m -655.44,-179.7 -4.17,-4.16 h 2.26 a 1.035,1.035 0 1 0 0,-2.07 h -4.71 a 1.08,1.08 0 0 0 -1.11,1 v 0 c 0,0 0,0 0,0.06 v 4.64 0 a 1.04,1.04 0 1 0 2.08,0 v -2.19 l 4.19,4.19 a 1,1 0 0 0 1.46,0 1,1 0 0 0 0,-1.47 z"
               style="fill:#ffffff"
               id="svg_84" />
            <path
               d="m -666.83,-184.9 a 1.08,1.08 0 0 0 -1.11,-1 h -4.71 a 1.035,1.035 0 1 0 0,2.07 h 2.25 l -4.16,4.13 a 1.039447,1.039447 0 0 0 1.47,1.47 l 4.18,-4.19 v 2.26 a 1.04,1.04 0 1 0 2.08,0 v -4.64 c 0,0 0,0 0,-0.06 a 0.08,0.08 0 0 1 0,-0.04 z"
               style="fill:#ffffff"
               id="svg_85" />
            <path
               d="m -662.06,-189 h 4.7 a 1.04,1.04 0 1 0 0,-2.08 h -2.25 l 4.17,-4.16 a 1,1 0 0 0 0,-1.47 1,1 0 0 0 -1.46,0 l -4.19,4.21 v -2.28 a 1.04,1.04 0 1 0 -2.08,0 v 4.64 a 0.43000001,0.43000001 0 0 0 0,0.05 v 0.05 a 1.09,1.09 0 0 0 1.11,1.04 z"
               style="fill:#ffffff"
               id="svg_86" />
            <path
               d="m -667.87,-195.88 a 1.08,1.08 0 0 0 -1,1.09 v 2.29 l -4.18,-4.19 a 1,1 0 0 0 -1.47,0 1,1 0 0 0 0,1.46 l 4.16,4.17 h -2.29 a 1.04,1.04 0 1 0 0,2.08 h 4.71 a 1.09,1.09 0 0 0 1.11,-1 c 0,0 0,0 0,-0.06 v -4.75 a 1.0700001,1.0700001 0 0 0 -1.04,-1.09 z"
               style="fill:#ffffff"
               id="svg_87" />
          </g>
        </g>
      </g>
    </g>
  </g>
  <g
     id="svg_88"
     class="">
    <g
       transform="matrix(1.5,0,0,1.5,489,358)"
       id="svg_89">
      <path
         d="m -220.16667,-61.333336 v -4 a 4,4 90 0 1 4,-4 h 4 10 30 4 a 4,4 90 0 1 4,4 v 4 h -4 v -3 h -4 v 10 h 4 v -3 h 4 v 17 h -4 v -3 h -4 v 10 h 4 v -3 h 4 v 4 a 4,4 90 0 1 -4,4 h -4 -30 -10 -4 a 4,4 90 0 1 -4,-4 v -4 -21 -1 h -6 v 3 h -2 v -8 h 2 v 3 h 6 z"
         style="fill:#ff5293;fill-opacity:1;stroke:#ff2c76;stroke-width:1;stroke-linecap:round;stroke-opacity:1"
         id="svg_90" />
      <text
         style="font-size:9px;font-family:sans-serif;text-anchor:end;fill:#282828"
         id="svg_91"
         y="-69.833336"
         x="-228.66667">
        <tspan
           x="-174.66667"
           y="-46.833336"
           id="svg_92">➗</tspan>
      </text>
      <text
         style="font-size:6px;font-family:sans-serif;text-anchor:end;fill:#282828"
         id="svg_93"
         y="-69.833336"
         x="-228.66667" />
      <text
         style="font-size:6px;font-family:sans-serif;text-anchor:end;fill:#282828"
         id="svg_95"
         y="-69.833336"
         x="-228.66667" />
    </g>
  </g>
  <g
     id="svg_97"
     class="">
    <g
       transform="matrix(1.5,0,0,1.5,575,358)"
       id="svg_98">
      <path
         d="m -220.16667,-69.333336 h 60 v 20 h -60 v -8 -1 h -6 v 3 h -2 v -8 h 2 v 3 h 6 v -1 z"
         style="fill:#ff5293;fill-opacity:1;stroke:#ff2c76;stroke-width:1;stroke-linecap:round;stroke-opacity:1"
         id="svg_99" />
      <text
         style="font-size:10px;font-family:sans-serif;text-anchor:start;fill:#282828"
         id="svg_100"
         y="-69.833336"
         x="-228.66667">
        <tspan
           x="-215.66667"
           y="-55.833336"
           id="svg_101">1</tspan>
      </text>
    </g>
  </g>
  <g
     id="svg_102"
     class="">
    <g
       transform="matrix(1.5,0,0,1.5,575,390)"
       id="svg_103">
      <path
         d="m -220.16667,-69.333336 h 60 v 20 h -60 v -8 -1 h -6 v 3 h -2 v -8 h 2 v 3 h 6 v -1 z"
         style="fill:#ff5293;fill-opacity:1;stroke:#ff2c76;stroke-width:1;stroke-linecap:round;stroke-opacity:1"
         id="svg_104" />
      <text
         style="font-size:10px;font-family:sans-serif;text-anchor:start;fill:#282828"
         id="svg_105"
         y="-69.833336"
         x="-228.66667">
        <tspan
           x="-215.66667"
           y="-55.833336"
           id="svg_106">4</tspan>
      </text>
    </g>
  </g>
  <g
     id="svg_107"
     class="">
    <g
       transform="matrix(1.5,0,0,1.5,371,390)"
       id="svg_108">
      <path
         d="m -228.16667,-61.333336 v -4 a 4,4 90 0 1 4,-4 h 4 v 2 h 10 v -2 h 20 4 a 4,4 90 0 1 4,4 v 4 4 4 a 4,4 90 0 1 -4,4 h -4 -20 -1 v 2 h -8 v -2 h -1 -4 a 4,4 90 0 1 -4,-4 v -4 z"
         style="fill:#b0b0b0;fill-opacity:1;stroke:#a0a0a0;stroke-width:1;stroke-linecap:round;stroke-opacity:1"
         id="svg_109" />
      <text
         style="font-size:10px;font-family:sans-serif;text-anchor:end;fill:#282828"
         id="svg_110"
         y="-69.833336"
         x="-228.66667">
        <tspan
           x="-192.66667"
           y="-55.833336"
           id="svg_111">↓</tspan>
      </text>
    </g>
  </g>
  <g
     transform="translate(64)"
     id="svg_112"
     class="">
    <g
       transform="matrix(1.5,0,0,1.5,371,422)"
       id="svg_113">
      <path
         d="m -270.83334,-61.333336 v -4 c 0,-2.209139 1.79086,-4 4,-4 h 4 v 2 h 10 v -2 h 72.66667 4 c 2.20914,0 4,1.790861 4,4 v 4 h -4 v -3 h -4 v 10 h 4 v -3 h 4 v 17 h -4 v -3 h -4 v 10 h 4 v -3 h 4 v 4 c 0,2.209139 -1.79086,4 -4,4 h -4 -72.66667 -1 v 2 h -8 v -2 h -1 -4 c -2.20914,0 -4.69859,-1.904227 -4,-4 v -4 -21 z"
         style="fill:#77c428;fill-opacity:1;stroke:#57ad02;stroke-width:1;stroke-linecap:round;stroke-opacity:1"
         id="svg_114" />
      <text
         style="font-size:10px;font-family:sans-serif;text-anchor:end;fill:#282828"
         id="svg_115"
         y="-69.833336"
         x="-228.66667">
        <tspan
           x="-182.66667"
           y="-45.833336"
           id="svg_116">determinar o tom</tspan>
      </text>
      <text
         style="font-size:6.66666651px;font-family:sans-serif;text-anchor:end;fill:#282828"
         id="svg_117"
         y="-69.833336"
         x="-228.66667">
        <tspan
           x="-182.66667"
           y="-57.833336"
           id="svg_118">nome</tspan>
      </text>
      <text
         style="font-size:6.66666651px;font-family:sans-serif;text-anchor:end;fill:#282828"
         id="svg_119"
         y="-69.833336"
         x="-228.66667">
        <tspan
           x="-182.66667"
           y="-36.833336"
           id="svg_120">oitava</tspan>
      </text>
    </g>
  </g>
  <g
     transform="translate(64)"
     id="svg_121"
     class="">
    <g
       transform="matrix(1.5,0,0,1.5,445,422)"
       id="svg_122">
      <path
         d="m -220.16667,-69.333336 h 60 v 20 h -60 v -8 -1 h -6 v 3 h -2 v -8 h 2 v 3 h 6 v -1 z"
         style="fill:#77c428;fill-opacity:1;stroke:#57ad02;stroke-width:1;stroke-linecap:round;stroke-opacity:1"
         id="svg_123" />
      <text
         style="font-size:10px;font-family:sans-serif;text-anchor:start;fill:#282828"
         id="svg_124"
         y="-69.833336"
         x="-228.66667">
        <tspan
           x="-215.66667"
           y="-55.833336"
           id="svg_125">mi</tspan>
      </text>
    </g>
  </g>
  <g
     transform="translate(64)"
     id="svg_126"
     class="">
    <g
       transform="matrix(1.5,0,0,1.5,445,454)"
       id="svg_127">
      <path
         d="m -220.16667,-69.333336 h 60 v 20 h -60 v -8 -1 h -6 v 3 h -2 v -8 h 2 v 3 h 6 v -1 z"
         style="fill:#ff5293;fill-opacity:1;stroke:#ff2c76;stroke-width:1;stroke-linecap:round;stroke-opacity:1"
         id="svg_128" />
      <text
         style="font-size:10px;font-family:sans-serif;text-anchor:start;fill:#282828"
         id="svg_129"
         y="-69.833336"
         x="-228.66667">
        <tspan
           x="-215.66667"
           y="-55.833336"
           id="svg_130">5</tspan>
      </text>
    </g>
  </g>
  <g
     id="svg_131"
     class="">
    <g
       id="svg_132">
      <g
         transform="matrix(1.5,0,0,1.5,343,104)"
         id="svg_133">
        <path
           d="m -228.16667,-61.333336 v -4 a 4,4 90 0 1 4,-4 h 4 v 2 h 10 v -2 h 9 118.999998 4 a 4,4 90 0 1 4,4 v 4 h -4 v -3 h -4 v 10 h 4 v -3 h 4 v 4 a 4,4 90 0 1 -4,4 h -4 -118.999998 -1 v 2 h -8 v -2 h -1 -4 a 5,5 90 0 0 -5,5 v 4 4 230.999996 4 a 5,5 90 0 0 5,5 h 4 v 2 h 10 v -2 h 8 v 6 6 4 a 4,4 90 0 1 -4,4 h -4 -9 -1 v 2 h -8 v -2 h -1 -4 a 4,4 90 0 1 -4,-4 v -4 z"
           style="fill:#77c428;fill-opacity:1;stroke:#57ad02;stroke-width:1;stroke-linecap:round;stroke-opacity:1"
           id="svg_134" />
        <text
           style="font-size:10px;font-family:sans-serif;text-anchor:start;fill:#282828"
           id="svg_135"
           y="-69.833336"
           x="-228.66667">
          <tspan
             x="-208.66667"
             y="-54.833336"
             id="svg_136">intervalo escalar (+/–)</tspan>
        </text>
        <text
           style="font-size:6.66666651px;font-family:sans-serif;text-anchor:end;fill:#282828"
           id="svg_137"
           y="-69.833336"
           x="-228.66667" />
      </g>
    </g>
    <g
       transform="matrix(0.5,0,0,0.5,343,108)"
       id="svg_139">
      <g
         style="isolation:isolate"
         id="svg_140">
        <g
           id="g7523"
           data-name="レイヤー 2">
          <g
             id="g7521">
            <rect
               width="42"
               height="42"
               rx="5"
               ry="5"
               style="opacity:0.4;mix-blend-mode:multiply;fill:#292929"
               id="svg_141"
               y="-209.5"
               x="-686" />
            <path
               d="m -655.44,-179.7 -4.17,-4.16 h 2.26 a 1.035,1.035 0 1 0 0,-2.07 h -4.71 a 1.08,1.08 0 0 0 -1.11,1 v 0 c 0,0 0,0 0,0.06 v 4.64 0 a 1.04,1.04 0 1 0 2.08,0 v -2.19 l 4.19,4.19 a 1,1 0 0 0 1.46,0 1,1 0 0 0 0,-1.47 z"
               style="fill:#ffffff"
               id="svg_142" />
            <path
               d="m -666.83,-184.9 a 1.08,1.08 0 0 0 -1.11,-1 h -4.71 a 1.035,1.035 0 1 0 0,2.07 h 2.25 l -4.16,4.13 a 1.039447,1.039447 0 0 0 1.47,1.47 l 4.18,-4.19 v 2.26 a 1.04,1.04 0 1 0 2.08,0 v -4.64 c 0,0 0,0 0,-0.06 a 0.08,0.08 0 0 1 0,-0.04 z"
               style="fill:#ffffff"
               id="svg_143" />
            <path
               d="m -662.06,-189 h 4.7 a 1.04,1.04 0 1 0 0,-2.08 h -2.25 l 4.17,-4.16 a 1,1 0 0 0 0,-1.47 1,1 0 0 0 -1.46,0 l -4.19,4.21 v -2.28 a 1.04,1.04 0 1 0 -2.08,0 v 4.64 a 0.43000001,0.43000001 0 0 0 0,0.05 v 0.05 a 1.09,1.09 0 0 0 1.11,1.04 z"
               style="fill:#ffffff"
               id="svg_144" />
            <path
               d="m -667.87,-195.88 a 1.08,1.08 0 0 0 -1,1.09 v 2.29 l -4.18,-4.19 a 1,1 0 0 0 -1.47,0 1,1 0 0 0 0,1.46 l 4.16,4.17 h -2.29 a 1.04,1.04 0 1 0 0,2.08 h 4.71 a 1.09,1.09 0 0 0 1.11,-1 c 0,0 0,0 0,-0.06 v -4.75 a 1.0700001,1.0700001 0 0 0 -1.04,-1.09 z"
               style="fill:#ffffff"
               id="svg_145" />
          </g>
        </g>
      </g>
    </g>
  </g>
  <g
     id="svg_146"
     class="">
    <g
       transform="matrix(1.5,0,0,1.5,564,104)"
       id="svg_147">
      <path
         d="m -220.16667,-61.333336 v -4 a 4,4 90 0 1 4,-4 h 4 10 30 4 a 4,4 90 0 1 4,4 v 4 h -4 v -3 h -4 v 10 h 4 v -3 h 4 v 17 h -4 v -3 h -4 v 10 h 4 v -3 h 4 v 4 a 4,4 90 0 1 -4,4 h -4 -30 -10 -4 a 4,4 90 0 1 -4,-4 v -4 -21 -1 h -6 v 3 h -2 v -8 h 2 v 3 h 6 z"
         style="fill:#ff5293;fill-opacity:1;stroke:#ff2c76;stroke-width:1;stroke-linecap:round;stroke-opacity:1"
         id="svg_148" />
      <text
         style="font-size:14px;font-family:sans-serif;text-anchor:end;fill:#282828"
         id="svg_149"
         y="-69.833336"
         x="-228.66667">
        <tspan
           x="-174.66667"
           y="-45.833336"
           id="svg_150">+</tspan>
      </text>
      <text
         style="font-size:9.33333302px;font-family:sans-serif;text-anchor:end;fill:#282828"
         id="svg_151"
         y="-69.833336"
         x="-228.66667" />
      <text
         style="font-size:9.33333302px;font-family:sans-serif;text-anchor:end;fill:#282828"
         id="svg_153"
         y="-69.833336"
         x="-228.66667" />
    </g>
  </g>
  <g
     id="svg_155"
     class="">
    <g
       transform="matrix(1.5,0,0,1.5,650,136)"
       id="svg_156">
      <path
         d="m -220.16667,-61.333336 v -4 a 4,4 90 0 1 4,-4 h 4 10 30 4 a 4,4 90 0 1 4,4 v 4 h -4 v -3 h -4 v 10 h 4 v -3 h 4 v 17 h -4 v -3 h -4 v 10 h 4 v -3 h 4 v 4 a 4,4 90 0 1 -4,4 h -4 -30 -10 -4 a 4,4 90 0 1 -4,-4 v -4 -21 -1 h -6 v 3 h -2 v -8 h 2 v 3 h 6 z"
         style="fill:#ff5293;fill-opacity:1;stroke:#ff2c76;stroke-width:1;stroke-linecap:round;stroke-opacity:1"
         id="svg_157" />
      <text
         style="font-size:14px;font-family:sans-serif;text-anchor:end;fill:#282828"
         id="svg_158"
         y="-69.833336"
         x="-228.66667">
        <tspan
           x="-174.66667"
           y="-45.833336"
           id="svg_159">×</tspan>
      </text>
      <text
         style="font-size:9.33333302px;font-family:sans-serif;text-anchor:end;fill:#282828"
         id="svg_160"
         y="-69.833336"
         x="-228.66667" />
      <text
         style="font-size:9.33333302px;font-family:sans-serif;text-anchor:end;fill:#282828"
         id="svg_162"
         y="-69.833336"
         x="-228.66667" />
    </g>
  </g>
  <g
     id="svg_164"
     class="">
    <g
       transform="matrix(1.5,0,0,1.5,736,136)"
       id="svg_165">
      <path
         d="m -220.16667,-69.333336 h 60 v 20 h -60 v -8 -1 h -6 v 3 h -2 v -8 h 2 v 3 h 6 v -1 z"
         style="fill:#ff5293;fill-opacity:1;stroke:#ff2c76;stroke-width:1;stroke-linecap:round;stroke-opacity:1"
         id="svg_166" />
      <text
         style="font-size:10px;font-family:sans-serif;text-anchor:start;fill:#282828"
         id="svg_167"
         y="-69.833336"
         x="-228.66667">
        <tspan
           x="-215.66667"
           y="-55.833336"
           id="svg_168">0</tspan>
      </text>
    </g>
  </g>
  <g
     id="svg_169"
     class="">
    <g
       transform="matrix(1.5,0,0,1.5,650,104)"
       id="svg_170">
      <path
         d="m -220.16667,-69.333336 h 60 v 20 h -60 v -8 -1 h -6 v 3 h -2 v -8 h 2 v 3 h 6 v -1 z"
         style="fill:#ff5293;fill-opacity:1;stroke:#ff2c76;stroke-width:1;stroke-linecap:round;stroke-opacity:1"
         id="svg_171" />
      <text
         style="font-size:10px;font-family:sans-serif;text-anchor:start;fill:#282828"
         id="svg_172"
         y="-69.833336"
         x="-228.66667">
        <tspan
           x="-215.66667"
           y="-55.833336"
           id="svg_173">4</tspan>
      </text>
    </g>
  </g>
  <g
     id="svg_174"
     class="">
    <g
       transform="matrix(1.5,0,0,1.5,736,168)"
       id="svg_175">
      <path
         d="m -220.16667,-69.333336 h 100 v 20 h -100 v -8 -1 h -6 v 3 h -2 v -8 h 2 v 3 h 6 v -1 z"
         style="fill:#77c428;fill-opacity:1;stroke:#57ad02;stroke-width:1;stroke-linecap:round;stroke-opacity:1"
         id="svg_176" />
      <text
         style="font-size:10px;font-family:sans-serif;text-anchor:start;fill:#282828"
         id="svg_177"
         y="-69.833336"
         x="-228.66667">
        <tspan
           x="-215.66667"
           y="-55.833336"
           id="svg_178">duração do modo</tspan>
      </text>
    </g>
  </g>
  <g
     id="svg_179"
     class="">
    <g
       transform="matrix(1.5,0,0,1.5,357,136)"
       id="svg_180">
      <path
         d="m -228.16667,-61.333336 v -4 a 4,4 90 0 1 4,-4 h 4 v 2 h 10 v -2 h 20 4 a 4,4 90 0 1 4,4 v 4 4 4 a 4,4 90 0 1 -4,4 h -4 -20 -1 v 2 h -8 v -2 h -1 -4 a 4,4 90 0 1 -4,-4 v -4 z"
         style="fill:#b0b0b0;fill-opacity:1;stroke:#a0a0a0;stroke-width:1;stroke-linecap:round;stroke-opacity:1"
         id="svg_181" />
      <text
         style="font-size:10px;font-family:sans-serif;text-anchor:end;fill:#282828"
         id="svg_182"
         y="-69.833336"
         x="-228.66667">
        <tspan
           x="-192.66667"
           y="-55.833336"
           id="svg_183">↓</tspan>
      </text>
    </g>
  </g>
  <g
     id="svg_184"
     class="">
    <g
       transform="matrix(1.5,0,0,1.5,357,168)"
       id="svg_185">
      <path
         d="m -228.16667,-61.333336 v -4 a 4,4 90 0 1 4,-4 h 4 v 2 h 10 v -2 h 20 4 a 4,4 90 0 1 4,4 v 4 4 4 a 4,4 90 0 1 -4,4 h -4 -20 -1 v 2 h -8 v -2 h -1 -4 a 4,4 90 0 1 -4,-4 v -4 z"
         style="fill:#b0b0b0;fill-opacity:1;stroke:#a0a0a0;stroke-width:1;stroke-linecap:round;stroke-opacity:1"
         id="svg_186" />
      <text
         style="font-size:10px;font-family:sans-serif;text-anchor:end;fill:#282828"
         id="svg_187"
         y="-69.833336"
         x="-228.66667">
        <tspan
           x="-192.66667"
           y="-55.833336"
           id="svg_188">↓</tspan>
      </text>
    </g>
  </g>
</svg>
