<?xml version="1.0" encoding="UTF-8" standalone="no"?>
<svg
   xmlns:dc="http://purl.org/dc/elements/1.1/"
   xmlns:cc="http://creativecommons.org/ns#"
   xmlns:rdf="http://www.w3.org/1999/02/22-rdf-syntax-ns#"
   xmlns:svg="http://www.w3.org/2000/svg"
   xmlns="http://www.w3.org/2000/svg"
   id="svg4346"
   version="1.1"
   height="497.34308"
   width="991.90088">
  <metadata
     id="metadata4352">
    <rdf:RDF>
      <cc:Work
         rdf:about="">
        <dc:format>image/svg+xml</dc:format>
        <dc:type
           rdf:resource="http://purl.org/dc/dcmitype/StillImage" />
        <dc:title></dc:title>
      </cc:Work>
    </rdf:RDF>
  </metadata>
  <defs
     id="defs4350" />
  <g
     id="g3938"
     transform="translate(0.33333,0.42153745)">
    <g
       id="g3936"
       transform="scale(1.5)">
      <path
         id="path3930"
         style="fill:#ffbf00;fill-opacity:1;stroke:#daaf30;stroke-width:1;stroke-linecap:round;stroke-opacity:1"
         d="m 0.5,14.5 v -4 a 4,4 90 0 1 4,-4 h 4 l 5,-6 5,6 h 9 30 4 a 4,4 90 0 1 4,4 v 4 4 4 a 4,4 90 0 1 -4,4 h -4 -30 -1 v 2 h -8 v -2 h -1 -4 a 5,5 90 0 0 -5,5 v 4 4 42 4 a 5,5 90 0 0 5,5 h 4 v 2 h 10 v -2 h 8 v 6 6 4 a 4,4 90 0 1 -4,4 h -4 -9 l -5,6 -5,-6 h -4 a 4,4 90 0 1 -4,-4 v -4 z" />
      <text
         id="text3934"
         style="font-size:10px;font-family:sans-serif;text-anchor:start;fill:#000000">
        <tspan
           id="tspan3932"
           y="21.5"
           x="5.3333335">iniciar</tspan>
      </text>
    </g>
  </g>
  <g
     id="g3948"
     transform="translate(0,258.42154)">
    <g
       id="g3946"
       transform="scale(1.5)">
      <path
         id="path3940"
         style="fill:#ffbf00;fill-opacity:1;stroke:#daaf30;stroke-width:1;stroke-linecap:round;stroke-opacity:1"
         d="m 0.5,14.5 v -4 a 4,4 90 0 1 4,-4 h 4 l 5,-6 5,6 h 9 30 4 a 4,4 90 0 1 4,4 v 4 4 4 a 4,4 90 0 1 -4,4 h -4 -30 -1 v 2 h -8 v -2 h -1 -4 a 5,5 90 0 0 -5,5 v 4 4 84 4 a 5,5 90 0 0 5,5 h 4 v 2 h 10 v -2 h 8 v 6 6 4 a 4,4 90 0 1 -4,4 h -4 -9 l -5,6 -5,-6 h -4 a 4,4 90 0 1 -4,-4 v -4 z" />
      <text
         id="text3944"
         style="font-size:10px;font-family:sans-serif;text-anchor:start;fill:#000000">
        <tspan
           id="tspan3942"
           y="21.5"
           x="5.3333335">iniciar</tspan>
      </text>
    </g>
  </g>
  <g
     id="g3958"
     transform="translate(498,256.42154)">
    <g
       id="g3956"
       transform="scale(1.5)">
      <path
         id="path3950"
         style="fill:#ffbf00;fill-opacity:1;stroke:#daaf30;stroke-width:1;stroke-linecap:round;stroke-opacity:1"
         d="m 0.5,14.5 v -4 a 4,4 90 0 1 4,-4 h 4 l 5,-6 5,6 h 9 30 4 a 4,4 90 0 1 4,4 v 4 4 4 a 4,4 90 0 1 -4,4 h -4 -30 -1 v 2 h -8 v -2 h -1 -4 a 5,5 90 0 0 -5,5 v 4 4 84 4 a 5,5 90 0 0 5,5 h 4 v 2 h 10 v -2 h 8 v 6 6 4 a 4,4 90 0 1 -4,4 h -4 -9 l -5,6 -5,-6 h -4 a 4,4 90 0 1 -4,-4 v -4 z" />
      <text
         id="text3954"
         style="font-size:10px;font-family:sans-serif;text-anchor:start;fill:#000000">
        <tspan
           id="tspan3952"
           y="21.5"
           x="5.3333335">iniciar</tspan>
      </text>
    </g>
  </g>
  <g
     id="g3968"
     transform="translate(499,3.4215375)">
    <g
       id="g3966"
       transform="scale(1.5)">
      <path
         id="path3960"
         style="fill:#ffbf00;fill-opacity:1;stroke:#daaf30;stroke-width:1;stroke-linecap:round;stroke-opacity:1"
         d="m 0.5,14.5 v -4 a 4,4 90 0 1 4,-4 h 4 l 5,-6 5,6 h 9 30 4 a 4,4 90 0 1 4,4 v 4 4 4 a 4,4 90 0 1 -4,4 h -4 -30 -1 v 2 h -8 v -2 h -1 -4 a 5,5 90 0 0 -5,5 v 4 4 84 4 a 5,5 90 0 0 5,5 h 4 v 2 h 10 v -2 h 8 v 6 6 4 a 4,4 90 0 1 -4,4 h -4 -9 l -5,6 -5,-6 h -4 a 4,4 90 0 1 -4,-4 v -4 z" />
      <text
         id="text3964"
         style="font-size:10px;font-family:sans-serif;text-anchor:start;fill:#000000">
        <tspan
           id="tspan3962"
           y="21.5"
           x="5.3333335">iniciar</tspan>
      </text>
    </g>
  </g>
  <g
     id="g3982"
     transform="translate(13.83333,40.921537)">
    <g
       id="g3980"
       transform="scale(1.5)">
      <path
         id="path3970"
         style="fill:#e9a066;fill-opacity:1;stroke:#b7651a;stroke-width:1;stroke-linecap:round;stroke-opacity:1"
         d="m 0.5,8.5 v -4 a 4,4 90 0 1 4,-4 h 4 v 2 h 10 v -2 h 9 20 4 a 4,4 90 0 1 4,4 v 4 h -4 v -3 h -4 v 10 h 4 v -3 h 4 v 4 a 4,4 90 0 1 -4,4 h -4 -20 -1 v 2 h -8 v -2 h -1 -4 a 5,5 90 0 0 -5,5 v 4 4 4 a 5,5 90 0 0 5,5 h 4 v 2 h 10 v -2 h 8 v 6 6 4 a 4,4 90 0 1 -4,4 h -4 -9 -1 v 2 h -8 v -2 h -1 -4 a 4,4 90 0 1 -4,-4 v -4 z" />
      <text
         id="text3974"
         style="font-size:10px;font-family:sans-serif;text-anchor:start;fill:#000000">
        <tspan
           id="tspan3972"
           y="15.25"
           x="5.3333335">repetir</tspan>
      </text>
      <text
         id="text3978"
         style="font-size:6.66666651px;font-family:sans-serif;text-anchor:end;fill:#000000">
        <tspan
           id="tspan3976"
           y="11.25"
           x="45.333332" />
      </text>
    </g>
  </g>
  <g
     id="g3992"
     transform="translate(85.83333,40.921537)">
    <g
       id="g3990"
       transform="scale(1.5)">
      <path
         id="path3984"
         style="fill:#ff6ea1;fill-opacity:1;stroke:#ff2c76;stroke-width:1;stroke-linecap:round;stroke-opacity:1"
         d="m 8.5,0.5 h 60 v 20 h -60 v -8 -1 h -6 v 3 h -2 v -8 h 2 v 3 h 6 v -1 z" />
      <text
         id="text3988"
         style="font-size:10px;font-family:sans-serif;text-anchor:start;fill:#000000">
        <tspan
           id="tspan3986"
           y="13.833333"
           x="13.333333">4</tspan>
      </text>
    </g>
  </g>
  <g
     id="g4002"
     transform="translate(27.33333,72.421537)">
    <g
       id="g4000"
       transform="scale(1.5)">
      <path
         id="path3994"
         style="fill:#ffbf00;fill-opacity:1;stroke:#daaf30;stroke-width:1;stroke-linecap:round;stroke-opacity:1"
         d="m 0.5,8.5 v -4 a 4,4 90 0 1 4,-4 h 4 v 2 h 10 v -2 h 40 4 a 4,4 90 0 1 4,4 v 4 4 4 a 4,4 90 0 1 -4,4 h -4 -40 -1 v 2 h -8 v -2 h -1 -4 a 4,4 90 0 1 -4,-4 v -4 z" />
      <text
         id="text3998"
         style="font-size:10px;font-family:sans-serif;text-anchor:end;fill:#000000">
        <tspan
           id="tspan3996"
           y="13.5"
           x="56.333332">ação</tspan>
      </text>
    </g>
  </g>
  <g
     id="g4012"
     transform="translate(539.5,106.92154)">
    <g
       id="g4010"
       transform="scale(1.5)">
      <path
         id="path4004"
         style="fill:#ffbf00;fill-opacity:1;stroke:#daaf30;stroke-width:1;stroke-linecap:round;stroke-opacity:1"
         d="m 0.5,8.5 v -4 a 4,4 90 0 1 4,-4 h 4 v 2 h 10 v -2 h 40 4 a 4,4 90 0 1 4,4 v 4 4 4 a 4,4 90 0 1 -4,4 h -4 -40 -1 v 2 h -8 v -2 h -1 -4 a 4,4 90 0 1 -4,-4 v -4 z" />
      <text
         id="text4008"
         style="font-size:10px;font-family:sans-serif;text-anchor:end;fill:#000000">
        <tspan
           id="tspan4006"
           y="13.5"
           x="56.333332">ação</tspan>
      </text>
    </g>
  </g>
  <g
     id="g4022"
     transform="translate(40.5,361.92154)">
    <g
       id="g4020"
       transform="scale(1.5)">
      <path
         id="path4014"
         style="fill:#ffbf00;fill-opacity:1;stroke:#daaf30;stroke-width:1;stroke-linecap:round;stroke-opacity:1"
         d="m 0.5,8.5 v -4 a 4,4 90 0 1 4,-4 h 4 v 2 h 10 v -2 h 40 4 a 4,4 90 0 1 4,4 v 4 4 4 a 4,4 90 0 1 -4,4 h -4 -40 -1 v 2 h -8 v -2 h -1 -4 a 4,4 90 0 1 -4,-4 v -4 z" />
      <text
         id="text4018"
         style="font-size:10px;font-family:sans-serif;text-anchor:end;fill:#000000">
        <tspan
           id="tspan4016"
           y="13.5"
           x="56.333332">ação</tspan>
      </text>
    </g>
  </g>
  <g
     id="g4032"
     transform="translate(538.5,359.92154)">
    <g
       id="g4030"
       transform="scale(1.5)">
      <path
         id="path4024"
         style="fill:#ffbf00;fill-opacity:1;stroke:#daaf30;stroke-width:1;stroke-linecap:round;stroke-opacity:1"
         d="m 0.5,8.5 v -4 a 4,4 90 0 1 4,-4 h 4 v 2 h 10 v -2 h 40 4 a 4,4 90 0 1 4,4 v 4 4 4 a 4,4 90 0 1 -4,4 h -4 -40 -1 v 2 h -8 v -2 h -1 -4 a 4,4 90 0 1 -4,-4 v -4 z" />
      <text
         id="text4028"
         style="font-size:10px;font-family:sans-serif;text-anchor:end;fill:#000000">
        <tspan
           id="tspan4026"
           y="13.5"
           x="56.333332">ação</tspan>
      </text>
    </g>
  </g>
  <g
     id="g4046"
     transform="translate(27,330.42154)">
    <g
       id="g4044"
       transform="scale(1.5)">
      <path
         id="path4034"
         style="fill:#e9a066;fill-opacity:1;stroke:#b7651a;stroke-width:1;stroke-linecap:round;stroke-opacity:1"
         d="m 0.5,8.5 v -4 a 4,4 90 0 1 4,-4 h 4 v 2 h 10 v -2 h 9 20 4 a 4,4 90 0 1 4,4 v 4 h -4 v -3 h -4 v 10 h 4 v -3 h 4 v 4 a 4,4 90 0 1 -4,4 h -4 -20 -1 v 2 h -8 v -2 h -1 -4 a 5,5 90 0 0 -5,5 v 4 4 4 a 5,5 90 0 0 5,5 h 4 v 2 h 10 v -2 h 8 v 6 6 4 a 4,4 90 0 1 -4,4 h -4 -9 -1 v 2 h -8 v -2 h -1 -4 a 4,4 90 0 1 -4,-4 v -4 z" />
      <text
         id="text4038"
         style="font-size:10px;font-family:sans-serif;text-anchor:start;fill:#000000">
        <tspan
           id="tspan4036"
           y="15.25"
           x="5.3333335">repetir</tspan>
      </text>
      <text
         id="text4042"
         style="font-size:6.66666651px;font-family:sans-serif;text-anchor:end;fill:#000000">
        <tspan
           id="tspan4040"
           y="11.25"
           x="45.333332" />
      </text>
    </g>
  </g>
  <g
     id="g4056"
     transform="translate(99,330.42154)">
    <g
       id="g4054"
       transform="scale(1.5)">
      <path
         id="path4048"
         style="fill:#ff6ea1;fill-opacity:1;stroke:#ff2c76;stroke-width:1;stroke-linecap:round;stroke-opacity:1"
         d="m 8.5,0.5 h 60 v 20 h -60 v -8 -1 h -6 v 3 h -2 v -8 h 2 v 3 h 6 v -1 z" />
      <text
         id="text4052"
         style="font-size:10px;font-family:sans-serif;text-anchor:start;fill:#000000">
        <tspan
           id="tspan4050"
           y="13.833333"
           x="13.333333">4</tspan>
      </text>
    </g>
  </g>
  <g
     id="g4070"
     transform="translate(526,75.421537)">
    <g
       id="g4068"
       transform="scale(1.5)">
      <path
         id="path4058"
         style="fill:#e9a066;fill-opacity:1;stroke:#b7651a;stroke-width:1;stroke-linecap:round;stroke-opacity:1"
         d="m 0.5,8.5 v -4 a 4,4 90 0 1 4,-4 h 4 v 2 h 10 v -2 h 9 20 4 a 4,4 90 0 1 4,4 v 4 h -4 v -3 h -4 v 10 h 4 v -3 h 4 v 4 a 4,4 90 0 1 -4,4 h -4 -20 -1 v 2 h -8 v -2 h -1 -4 a 5,5 90 0 0 -5,5 v 4 4 4 a 5,5 90 0 0 5,5 h 4 v 2 h 10 v -2 h 8 v 6 6 4 a 4,4 90 0 1 -4,4 h -4 -9 -1 v 2 h -8 v -2 h -1 -4 a 4,4 90 0 1 -4,-4 v -4 z" />
      <text
         id="text4062"
         style="font-size:10px;font-family:sans-serif;text-anchor:start;fill:#000000">
        <tspan
           id="tspan4060"
           y="15.25"
           x="5.3333335">repetir</tspan>
      </text>
      <text
         id="text4066"
         style="font-size:6.66666651px;font-family:sans-serif;text-anchor:end;fill:#000000">
        <tspan
           id="tspan4064"
           y="11.25"
           x="45.333332" />
      </text>
    </g>
  </g>
  <g
     id="g4080"
     transform="translate(598,75.421537)">
    <g
       id="g4078"
       transform="scale(1.5)">
      <path
         id="path4072"
         style="fill:#ff6ea1;fill-opacity:1;stroke:#ff2c76;stroke-width:1;stroke-linecap:round;stroke-opacity:1"
         d="m 8.5,0.5 h 60 v 20 h -60 v -8 -1 h -6 v 3 h -2 v -8 h 2 v 3 h 6 v -1 z" />
      <text
         id="text4076"
         style="font-size:10px;font-family:sans-serif;text-anchor:start;fill:#000000">
        <tspan
           id="tspan4074"
           y="13.833333"
           x="13.333333">4</tspan>
      </text>
    </g>
  </g>
  <g
     id="g4094"
     transform="translate(525,328.42154)">
    <g
       id="g4092"
       transform="scale(1.5)">
      <path
         id="path4082"
         style="fill:#e9a066;fill-opacity:1;stroke:#b7651a;stroke-width:1;stroke-linecap:round;stroke-opacity:1"
         d="m 0.5,8.5 v -4 a 4,4 90 0 1 4,-4 h 4 v 2 h 10 v -2 h 9 20 4 a 4,4 90 0 1 4,4 v 4 h -4 v -3 h -4 v 10 h 4 v -3 h 4 v 4 a 4,4 90 0 1 -4,4 h -4 -20 -1 v 2 h -8 v -2 h -1 -4 a 5,5 90 0 0 -5,5 v 4 4 4 a 5,5 90 0 0 5,5 h 4 v 2 h 10 v -2 h 8 v 6 6 4 a 4,4 90 0 1 -4,4 h -4 -9 -1 v 2 h -8 v -2 h -1 -4 a 4,4 90 0 1 -4,-4 v -4 z" />
      <text
         id="text4086"
         style="font-size:10px;font-family:sans-serif;text-anchor:start;fill:#000000">
        <tspan
           id="tspan4084"
           y="15.25"
           x="5.3333335">repetir</tspan>
      </text>
      <text
         id="text4090"
         style="font-size:6.66666651px;font-family:sans-serif;text-anchor:end;fill:#000000">
        <tspan
           id="tspan4088"
           y="11.25"
           x="45.333332" />
      </text>
    </g>
  </g>
  <g
     id="g4104"
     transform="translate(597,328.42154)">
    <g
       id="g4102"
       transform="scale(1.5)">
      <path
         id="path4096"
         style="fill:#ff6ea1;fill-opacity:1;stroke:#ff2c76;stroke-width:1;stroke-linecap:round;stroke-opacity:1"
         d="m 8.5,0.5 h 60 v 20 h -60 v -8 -1 h -6 v 3 h -2 v -8 h 2 v 3 h 6 v -1 z" />
      <text
         id="text4100"
         style="font-size:10px;font-family:sans-serif;text-anchor:start;fill:#000000">
        <tspan
           id="tspan4098"
           y="13.833333"
           x="13.333333">4</tspan>
      </text>
    </g>
  </g>
  <g
     id="g4118"
     transform="translate(512.5,43.921537)">
    <g
       id="g4116"
       transform="scale(1.5)">
      <path
         id="path4106"
         style="fill:#7cd622;fill-opacity:1;stroke:#57ad02;stroke-width:1;stroke-linecap:round;stroke-opacity:1"
         d="m 0.5,8.5 v -4 c 0,-2.209139 1.790861,-4 4,-4 h 4 v 2 h 10 v -2 h 9 108.60059 4 c 2.20914,0 3.30141,1.904227 4,4 v 4 h -4 v -3 h -4 v 10 h 4 v -3 h 4 v 4 c 0,2.209139 -1.79086,4 -4,4 h -4 H 27.5 h -1 v 2 h -8 v -2 h -1 -4 c -2.761424,0 -5,2.238576 -5,5 v 4 4 42 4 c 0,2.761424 2.238576,5 5,5 h 4 v 2 h 10 v -2 h 8 v 6 6 4 c 0,2.20914 -1.790861,4 -4,4 h -4 -9 -1 v 2 h -8 v -2 h -1 -4 c -2.209139,0 -4,-1.79086 -4,-4 v -4 z" />
      <text
         id="text4110"
         style="font-size:10px;font-family:sans-serif;text-anchor:start;fill:#000000">
        <tspan
           id="tspan4108"
           y="15.25"
           x="5.3333335">transposição de semi-tom</tspan>
      </text>
      <text
         id="text4114"
         style="font-size:6.66666651px;font-family:sans-serif;text-anchor:end;fill:#000000">
        <tspan
           id="tspan4112"
           y="11.25"
           x="105.93392" />
      </text>
    </g>
  </g>
  <g
     id="g4136"
     transform="translate(717.40088,43.921537)">
    <g
       id="g4134"
       transform="scale(1.5)">
      <path
         id="path4120"
         style="fill:#ff6ea1;fill-opacity:1;stroke:#ff2c76;stroke-width:1;stroke-linecap:round;stroke-opacity:1"
         d="m 8.5,8.5 v -4 a 4,4 90 0 1 4,-4 h 4 10 30 4 a 4,4 90 0 1 4,4 v 4 h -4 v -3 h -4 v 10 h 4 v -3 h 4 v 17 h -4 v -3 h -4 v 10 h 4 v -3 h 4 v 4 a 4,4 90 0 1 -4,4 h -4 -30 -10 -4 a 4,4 90 0 1 -4,-4 v -4 -21 -1 h -6 v 3 h -2 v -8 h 2 v 3 h 6 z" />
      <text
         id="text4124"
         style="font-size:14px;font-family:sans-serif;text-anchor:end;fill:#000000">
        <tspan
           id="tspan4122"
           y="23.799999"
           x="54.333332">+</tspan>
      </text>
      <text
         id="text4128"
         style="font-size:9.33333302px;font-family:sans-serif;text-anchor:end;fill:#000000">
        <tspan
           id="tspan4126"
           y="10.75"
           x="54.333332" />
      </text>
      <text
         id="text4132"
         style="font-size:9.33333302px;font-family:sans-serif;text-anchor:end;fill:#000000">
        <tspan
           id="tspan4130"
           y="31.75"
           x="54.333332" />
      </text>
    </g>
  </g>
  <g
     id="g4146"
     transform="translate(802.90088,43.921537)">
    <g
       id="g4144"
       transform="scale(1.5)">
      <path
         id="path4138"
         style="fill:#ff6ea1;fill-opacity:1;stroke:#ff2c76;stroke-width:1;stroke-linecap:round;stroke-opacity:1"
         d="m 8.5,0.5 h 60 v 20 h -60 v -8 -1 h -6 v 3 h -2 v -8 h 2 v 3 h 6 v -1 z" />
      <text
         id="text4142"
         style="font-size:10px;font-family:sans-serif;text-anchor:start;fill:#000000">
        <tspan
           id="tspan4140"
           y="13.833333"
           x="13.333333">0</tspan>
      </text>
    </g>
  </g>
  <g
     id="g4164"
     transform="translate(802.90088,75.421537)">
    <g
       id="g4162"
       transform="scale(1.5)">
      <path
         id="path4148"
         style="fill:#ff6ea1;fill-opacity:1;stroke:#ff2c76;stroke-width:1;stroke-linecap:round;stroke-opacity:1"
         d="m 8.5,8.5 v -4 a 4,4 90 0 1 4,-4 h 4 10 30 4 a 4,4 90 0 1 4,4 v 4 h -4 v -3 h -4 v 10 h 4 v -3 h 4 v 17 h -4 v -3 h -4 v 10 h 4 v -3 h 4 v 4 a 4,4 90 0 1 -4,4 h -4 -30 -10 -4 a 4,4 90 0 1 -4,-4 v -4 -21 -1 h -6 v 3 h -2 v -8 h 2 v 3 h 6 z" />
      <text
         id="text4152"
         style="font-size:14px;font-family:sans-serif;text-anchor:end;fill:#000000">
        <tspan
           id="tspan4150"
           y="23.799999"
           x="54.333332">×</tspan>
      </text>
      <text
         id="text4156"
         style="font-size:9.33333302px;font-family:sans-serif;text-anchor:end;fill:#000000">
        <tspan
           id="tspan4154"
           y="10.75"
           x="54.333332" />
      </text>
      <text
         id="text4160"
         style="font-size:9.33333302px;font-family:sans-serif;text-anchor:end;fill:#000000">
        <tspan
           id="tspan4158"
           y="31.75"
           x="54.333332" />
      </text>
    </g>
  </g>
  <g
     id="g4174"
     transform="translate(888.40088,75.421537)">
    <g
       id="g4172"
       transform="scale(1.5)">
      <path
         id="path4166"
         style="fill:#ff6ea1;fill-opacity:1;stroke:#ff2c76;stroke-width:1;stroke-linecap:round;stroke-opacity:1"
         d="m 8.5,0.5 h 60 v 20 h -60 v -8 -1 h -6 v 3 h -2 v -8 h 2 v 3 h 6 v -1 z" />
      <text
         id="text4170"
         style="font-size:10px;font-family:sans-serif;text-anchor:start;fill:#000000">
        <tspan
           id="tspan4168"
           y="13.833333"
           x="13.333333">-1</tspan>
      </text>
    </g>
  </g>
  <g
     id="g4184"
     transform="translate(888.40088,106.92154)">
    <g
       id="g4182"
       transform="scale(1.5)">
      <path
         id="path4176"
         style="fill:#ff6ea1;fill-opacity:1;stroke:#ff2c76;stroke-width:1;stroke-linecap:round;stroke-opacity:1"
         d="m 8.5,0.5 h 60 v 20 h -60 v -8 -1 h -6 v 3 h -2 v -8 h 2 v 3 h 6 v -1 z" />
      <text
         id="text4180"
         style="font-size:10px;font-family:sans-serif;text-anchor:start;fill:#000000">
        <tspan
           id="tspan4178"
           y="13.833333"
           x="13.333333">12</tspan>
      </text>
    </g>
  </g>
  <g
     id="g4198"
     transform="translate(511.5,296.92154)">
    <g
       id="g4196"
       transform="scale(1.5)">
      <path
         id="path4186"
         style="fill:#7cd622;fill-opacity:1;stroke:#57ad02;stroke-width:1;stroke-linecap:round;stroke-opacity:1"
         d="m 0.5,8.5 v -4 c 0,-2.209139 1.790861,-4 4,-4 h 4 v 2 h 10 v -2 h 9 108.60059 4 c 2.20914,0 4.69859,1.9042267 4,4 v 4 h -4 v -3 h -4 v 10 h 4 v -3 h 4 v 4 c 0,2.209139 -1.79086,4 -4,4 h -4 H 27.5 h -1 v 2 h -8 v -2 h -1 -4 c -2.761424,0 -5,2.238576 -5,5 v 4 4 42 4 c 0,2.761424 2.238576,5 5,5 h 4 v 2 h 10 v -2 h 8 v 6 6 4 c 0,2.20914 -1.790861,4 -4,4 h -4 -9 -1 v 2 h -8 v -2 h -1 -4 c -2.209139,0 -4,-1.79086 -4,-4 v -4 z" />
      <text
         id="text4190"
         style="font-size:10px;font-family:sans-serif;text-anchor:start;fill:#000000">
        <tspan
           id="tspan4188"
           y="15.25"
           x="5.3333335">transposição de semi-tom</tspan>
      </text>
      <text
         id="text4194"
         style="font-size:6.66666651px;font-family:sans-serif;text-anchor:end;fill:#000000">
        <tspan
           id="tspan4192"
           y="11.25"
           x="105.93392" />
      </text>
    </g>
  </g>
  <g
     id="g4216"
     transform="translate(716.40088,296.92154)">
    <g
       id="g4214"
       transform="scale(1.5)">
      <path
         id="path4200"
         style="fill:#ff6ea1;fill-opacity:1;stroke:#ff2c76;stroke-width:1;stroke-linecap:round;stroke-opacity:1"
         d="m 8.5,8.5 v -4 a 4,4 90 0 1 4,-4 h 4 10 30 4 a 4,4 90 0 1 4,4 v 4 h -4 v -3 h -4 v 10 h 4 v -3 h 4 v 17 h -4 v -3 h -4 v 10 h 4 v -3 h 4 v 4 a 4,4 90 0 1 -4,4 h -4 -30 -10 -4 a 4,4 90 0 1 -4,-4 v -4 -21 -1 h -6 v 3 h -2 v -8 h 2 v 3 h 6 z" />
      <text
         id="text4204"
         style="font-size:14px;font-family:sans-serif;text-anchor:end;fill:#000000">
        <tspan
           id="tspan4202"
           y="23.799999"
           x="54.333332">+</tspan>
      </text>
      <text
         id="text4208"
         style="font-size:9.33333302px;font-family:sans-serif;text-anchor:end;fill:#000000">
        <tspan
           id="tspan4206"
           y="10.75"
           x="54.333332" />
      </text>
      <text
         id="text4212"
         style="font-size:9.33333302px;font-family:sans-serif;text-anchor:end;fill:#000000">
        <tspan
           id="tspan4210"
           y="31.75"
           x="54.333332" />
      </text>
    </g>
  </g>
  <g
     id="g4226"
     transform="translate(801.90088,296.92154)">
    <g
       id="g4224"
       transform="scale(1.5)">
      <path
         id="path4218"
         style="fill:#ff6ea1;fill-opacity:1;stroke:#ff2c76;stroke-width:1;stroke-linecap:round;stroke-opacity:1"
         d="m 8.5,0.5 h 60 v 20 h -60 v -8 -1 h -6 v 3 h -2 v -8 h 2 v 3 h 6 v -1 z" />
      <text
         id="text4222"
         style="font-size:10px;font-family:sans-serif;text-anchor:start;fill:#000000">
        <tspan
           id="tspan4220"
           y="13.833333"
           x="13.333333">0</tspan>
      </text>
    </g>
  </g>
  <g
     id="g4244"
     transform="translate(801.90088,328.42154)">
    <g
       id="g4242"
       transform="scale(1.5)">
      <path
         id="path4228"
         style="fill:#ff6ea1;fill-opacity:1;stroke:#ff2c76;stroke-width:1;stroke-linecap:round;stroke-opacity:1"
         d="m 8.5,8.5 v -4 a 4,4 90 0 1 4,-4 h 4 10 30 4 a 4,4 90 0 1 4,4 v 4 h -4 v -3 h -4 v 10 h 4 v -3 h 4 v 17 h -4 v -3 h -4 v 10 h 4 v -3 h 4 v 4 a 4,4 90 0 1 -4,4 h -4 -30 -10 -4 a 4,4 90 0 1 -4,-4 v -4 -21 -1 h -6 v 3 h -2 v -8 h 2 v 3 h 6 z" />
      <text
         id="text4232"
         style="font-size:14px;font-family:sans-serif;text-anchor:end;fill:#000000">
        <tspan
           id="tspan4230"
           y="23.799999"
           x="54.333332">×</tspan>
      </text>
      <text
         id="text4236"
         style="font-size:9.33333302px;font-family:sans-serif;text-anchor:end;fill:#000000">
        <tspan
           id="tspan4234"
           y="10.75"
           x="54.333332" />
      </text>
      <text
         id="text4240"
         style="font-size:9.33333302px;font-family:sans-serif;text-anchor:end;fill:#000000">
        <tspan
           id="tspan4238"
           y="31.75"
           x="54.333332" />
      </text>
    </g>
  </g>
  <g
     id="g4254"
     transform="translate(887.40088,328.42154)">
    <g
       id="g4252"
       transform="scale(1.5)">
      <path
         id="path4246"
         style="fill:#ff6ea1;fill-opacity:1;stroke:#ff2c76;stroke-width:1;stroke-linecap:round;stroke-opacity:1"
         d="m 8.5,0.5 h 60 v 20 h -60 v -8 -1 h -6 v 3 h -2 v -8 h 2 v 3 h 6 v -1 z" />
      <text
         id="text4250"
         style="font-size:10px;font-family:sans-serif;text-anchor:start;fill:#000000">
        <tspan
           id="tspan4248"
           y="13.833333"
           x="13.333333">-2</tspan>
      </text>
    </g>
  </g>
  <g
     id="g4264"
     transform="translate(887.40088,359.92154)">
    <g
       id="g4262"
       transform="scale(1.5)">
      <path
         id="path4256"
         style="fill:#ff6ea1;fill-opacity:1;stroke:#ff2c76;stroke-width:1;stroke-linecap:round;stroke-opacity:1"
         d="m 8.5,0.5 h 60 v 20 h -60 v -8 -1 h -6 v 3 h -2 v -8 h 2 v 3 h 6 v -1 z" />
      <text
         id="text4260"
         style="font-size:10px;font-family:sans-serif;text-anchor:start;fill:#000000">
        <tspan
           id="tspan4258"
           y="13.833333"
           x="13.333333">12</tspan>
      </text>
    </g>
  </g>
  <g
     id="g4278"
     transform="translate(13.5,298.92154)">
    <g
       id="g4276"
       transform="scale(1.5)">
      <path
         id="path4266"
         style="fill:#7cd622;fill-opacity:1;stroke:#57ad02;stroke-width:1;stroke-linecap:round;stroke-opacity:1"
         d="m 0.5,8.5 v -4 c 0,-2.209139 1.790861,-4 4,-4 h 4 v 2 h 10 v -2 h 9 108.60059 4 c 2.20914,0 4,1.790861 4,4 v 4 h -4 v -3 h -4 v 10 h 4 v -3 h 4 v 4 c 0,2.209139 -1.79086,4 -4,4 h -4 H 27.5 h -1 v 2 h -8 v -2 h -1 -4 c -2.761424,0 -5,2.238576 -5,5 v 4 4 42 4 c 0,2.761424 2.238576,5 5,5 h 4 v 2 h 10 v -2 h 8 v 6 6 4 c 0,2.20914 -1.790861,4 -4,4 h -4 -9 -1 v 2 h -8 v -2 h -1 -4 c -2.209139,0 -4,-1.79086 -4,-4 v -4 z" />
      <text
         id="text4270"
         style="font-size:10px;font-family:sans-serif;text-anchor:start;fill:#000000">
        <tspan
           id="tspan4268"
           y="15.25"
           x="5.3333335">transposição de semi-tom</tspan>
      </text>
      <text
         id="text4274"
         style="font-size:6.66666651px;font-family:sans-serif;text-anchor:end;fill:#000000">
        <tspan
           id="tspan4272"
           y="11.25"
           x="105.93392" />
      </text>
    </g>
  </g>
  <g
     id="g4296"
     transform="translate(218.40088,298.92154)">
    <g
       id="g4294"
       transform="scale(1.5)">
      <path
         id="path4280"
         style="fill:#ff6ea1;fill-opacity:1;stroke:#ff2c76;stroke-width:1;stroke-linecap:round;stroke-opacity:1"
         d="m 8.5,8.5 v -4 a 4,4 90 0 1 4,-4 h 4 10 30 4 a 4,4 90 0 1 4,4 v 4 h -4 v -3 h -4 v 10 h 4 v -3 h 4 v 17 h -4 v -3 h -4 v 10 h 4 v -3 h 4 v 4 a 4,4 90 0 1 -4,4 h -4 -30 -10 -4 a 4,4 90 0 1 -4,-4 v -4 -21 -1 h -6 v 3 h -2 v -8 h 2 v 3 h 6 z" />
      <text
         id="text4284"
         style="font-size:14px;font-family:sans-serif;text-anchor:end;fill:#000000">
        <tspan
           id="tspan4282"
           y="23.799999"
           x="54.333332">+</tspan>
      </text>
      <text
         id="text4288"
         style="font-size:9.33333302px;font-family:sans-serif;text-anchor:end;fill:#000000">
        <tspan
           id="tspan4286"
           y="10.75"
           x="54.333332" />
      </text>
      <text
         id="text4292"
         style="font-size:9.33333302px;font-family:sans-serif;text-anchor:end;fill:#000000">
        <tspan
           id="tspan4290"
           y="31.75"
           x="54.333332" />
      </text>
    </g>
  </g>
  <g
     id="g4306"
     transform="translate(303.90088,298.92154)">
    <g
       id="g4304"
       transform="scale(1.5)">
      <path
         id="path4298"
         style="fill:#ff6ea1;fill-opacity:1;stroke:#ff2c76;stroke-width:1;stroke-linecap:round;stroke-opacity:1"
         d="m 8.5,0.5 h 60 v 20 h -60 v -8 -1 h -6 v 3 h -2 v -8 h 2 v 3 h 6 v -1 z" />
      <text
         id="text4302"
         style="font-size:10px;font-family:sans-serif;text-anchor:start;fill:#000000">
        <tspan
           id="tspan4300"
           y="13.833333"
           x="13.333333">0</tspan>
      </text>
    </g>
  </g>
  <g
     id="g4324"
     transform="translate(303.90088,330.42154)">
    <g
       id="g4322"
       transform="scale(1.5)">
      <path
         id="path4308"
         style="fill:#ff6ea1;fill-opacity:1;stroke:#ff2c76;stroke-width:1;stroke-linecap:round;stroke-opacity:1"
         d="m 8.5,8.5 v -4 a 4,4 90 0 1 4,-4 h 4 10 30 4 a 4,4 90 0 1 4,4 v 4 h -4 v -3 h -4 v 10 h 4 v -3 h 4 v 17 h -4 v -3 h -4 v 10 h 4 v -3 h 4 v 4 a 4,4 90 0 1 -4,4 h -4 -30 -10 -4 a 4,4 90 0 1 -4,-4 v -4 -21 -1 h -6 v 3 h -2 v -8 h 2 v 3 h 6 z" />
      <text
         id="text4312"
         style="font-size:14px;font-family:sans-serif;text-anchor:end;fill:#000000">
        <tspan
           id="tspan4310"
           y="23.799999"
           x="54.333332">×</tspan>
      </text>
      <text
         id="text4316"
         style="font-size:9.33333302px;font-family:sans-serif;text-anchor:end;fill:#000000">
        <tspan
           id="tspan4314"
           y="10.75"
           x="54.333332" />
      </text>
      <text
         id="text4320"
         style="font-size:9.33333302px;font-family:sans-serif;text-anchor:end;fill:#000000">
        <tspan
           id="tspan4318"
           y="31.75"
           x="54.333332" />
      </text>
    </g>
  </g>
  <g
     id="g4334"
     transform="translate(389.40088,330.42154)">
    <g
       id="g4332"
       transform="scale(1.5)">
      <path
         id="path4326"
         style="fill:#ff6ea1;fill-opacity:1;stroke:#ff2c76;stroke-width:1;stroke-linecap:round;stroke-opacity:1"
         d="m 8.5,0.5 h 60 v 20 h -60 v -8 -1 h -6 v 3 h -2 v -8 h 2 v 3 h 6 v -1 z" />
      <text
         id="text4330"
         style="font-size:10px;font-family:sans-serif;text-anchor:start;fill:#000000">
        <tspan
           id="tspan4328"
           y="13.833333"
           x="13.333333">1</tspan>
      </text>
    </g>
  </g>
  <g
     id="g4344"
     transform="translate(389.40088,361.92154)">
    <g
       id="g4342"
       transform="scale(1.5)">
      <path
         id="path4336"
         style="fill:#ff6ea1;fill-opacity:1;stroke:#ff2c76;stroke-width:1;stroke-linecap:round;stroke-opacity:1"
         d="m 8.5,0.5 h 60 v 20 h -60 v -8 -1 h -6 v 3 h -2 v -8 h 2 v 3 h 6 v -1 z" />
      <text
         id="text4340"
         style="font-size:10px;font-family:sans-serif;text-anchor:start;fill:#000000">
        <tspan
           id="tspan4338"
           y="13.833333"
           x="13.333333">12</tspan>
      </text>
    </g>
  </g>
</svg>
