<?xml version="1.0" encoding="UTF-8" standalone="no"?>
<svg
   width="349.5"
   height="601.5"
   version="1.1"
   id="svg408"
   xmlns="http://www.w3.org/2000/svg"
   xmlns:svg="http://www.w3.org/2000/svg">
  <defs
     id="defs412" />
  <g
     transform="translate(0, 0)"
     id="g14">
    <g
       transform="scale(1.5, 1.5)"
       id="g12">
      <path
         d="m0.5 8.5 L 0.5 4.5 A 4 4 90 0 1 4.5 0.5 L 8.5 0.5 L 8.5 2.5 L 18.5 2.5 L 18.5 0.5 L 27.5 0.5 L 68.5 0.5 L 72.5 0.5 A 4 4 90 0 1 76.5 4.5 L 76.5 8.5 L 72.5 8.5 L 72.5 5.5 L 68.5 5.5 L 68.5 15.5 L 72.5 15.5 L 72.5 12.5 L 76.5 12.5 L 76.5 16.5 A 4 4 90 0 1 72.5 20.5 L 68.5 20.5 L 27.5 20.5 L 26.5 20.5 L 26.5 22.5 L 18.5 22.5 L 18.5 20.5 L 17.5 20.5 L 13.5 20.5 A 5 5 90 0 0 8.5 25.5 L 8.5 29.5 L 8.5 33.5 L 8.5 369.5 L 8.5 373.5 A 5 5 90 0 0 13.5 378.5 L 17.5 378.5 L 17.5 380.5 L 27.5 380.5 L 27.5 378.5 L 35.5 378.5 L 35.5 384.5 L 35.5 390.5 L 35.5 394.5 A 4 4 90 0 1 31.5 398.5 L 27.5 398.5 L 18.5 398.5 L 17.5 398.5 L 17.5 400.5 L 9.5 400.5 L 9.5 398.5 L 8.5 398.5 L 4.5 398.5 A 4 4 90 0 1 0.5 394.5 L 0.5 390.5 z"
         style="fill:#3EDCDD;fill-opacity:1;stroke:#1DBCBD;stroke-width:1;stroke-linecap:round;stroke-opacity:1;"
         id="path2" />
      <text
         style="font-size:10px;fill:#282828;font-family:sans-serif;text-anchor:start"
         id="text6"><tspan
           x="5"
           y="15"
           id="tspan4">crescendo</tspan></text>
      <text
         style="font-size:6.666666666666667px;fill:#282828;font-family:sans-serif;text-anchor:end"
         id="text10"><tspan
           x="66"
           y="12"
           id="tspan8" /></text>
    </g>
  </g>
  <g
     transform="translate(14, 32)"
     id="g28">
    <g
       transform="scale(1.5, 1.5)"
       id="g26">
      <path
         d="m 0.5,8.5 v -4 c 0,-2.209139 1.790861,-4 4,-4 h 4 v 2 h 10 v -2 h 9 54.333333 4 c 2.209139,0 4,1.790861 4,4 v 4 h -4 v -3 h -4 v 10 h 4 v -3 h 4 v 4 c 0,2.209139 -1.790861,4 -4,4 h -4 H 27.5 h -1 v 2 h -8 v -2 h -1 -4 c -2.761424,0 -5,2.238576 -5,5 v 4 4 294 4 c 0,2.76142 2.238576,5 5,5 h 4 v 2 h 10 v -2 h 8 v 6 6 4 c 0,2.20914 -1.790861,4 -4,4 h -4 -9 -1 v 2 h -8 v -2 h -1 -4 c -2.209139,0 -4,-1.79086 -4,-4 v -4 z"
         style="fill:#3edcdd;fill-opacity:1;stroke:#1dbcbd;stroke-width:1;stroke-linecap:round;stroke-opacity:1"
         id="path16" />
      <text
         style="font-size:10px;font-family:sans-serif;text-anchor:start;fill:#282828"
         id="text20"><tspan
           x="5"
           y="15"
           id="tspan18">set instrument</tspan></text>
      <text
         style="font-size:6.666666666666667px;fill:#282828;font-family:sans-serif;text-anchor:end"
         id="text24"><tspan
           x="66"
           y="12"
           id="tspan22" /></text>
    </g>
  </g>
  <g
     transform="translate(138,32)"
     id="g38">
    <g
       transform="scale(1.5)"
       id="g36">
      <path
         d="m 8.5,0.5 h 110 v 20 H 8.5 v -8 -1 h -6 v 3 h -2 v -8 h 2 v 3 h 6 v -1 z"
         style="fill:#3edcdd;fill-opacity:1;stroke:#1dbcbd;stroke-width:1;stroke-linecap:round;stroke-opacity:1"
         id="path30" />
      <text
         style="font-size:10px;font-family:sans-serif;text-anchor:start;fill:#282828"
         id="text34"><tspan
           x="13"
           y="14"
           id="tspan32">guitar</tspan></text>
    </g>
  </g>
  <g
     id="g70">
    <g
       transform="translate(28, 64)"
       id="g52">
      <g
         transform="scale(1.5, 1.5)"
         id="g50">
        <path
           d="m0.5 8.5 L 0.5 4.5 A 4 4 90 0 1 4.5 0.5 L 8.5 0.5 L 8.5 2.5 L 18.5 2.5 L 18.5 0.5 L 27.5 0.5 L 87.5 0.5 L 91.5 0.5 A 4 4 90 0 1 95.5 4.5 L 95.5 8.5 L 91.5 8.5 L 91.5 5.5 L 87.5 5.5 L 87.5 15.5 L 91.5 15.5 L 91.5 12.5 L 95.5 12.5 L 95.5 16.5 A 4 4 90 0 1 91.5 20.5 L 87.5 20.5 L 27.5 20.5 L 26.5 20.5 L 26.5 22.5 L 18.5 22.5 L 18.5 20.5 L 17.5 20.5 L 13.5 20.5 A 5 5 90 0 0 8.5 25.5 L 8.5 29.5 L 8.5 33.5 L 8.5 75.5 L 8.5 79.5 A 5 5 90 0 0 13.5 84.5 L 17.5 84.5 L 17.5 86.5 L 27.5 86.5 L 27.5 84.5 L 35.5 84.5 L 35.5 90.5 L 35.5 96.5 L 35.5 100.5 A 4 4 90 0 1 31.5 104.5 L 27.5 104.5 L 18.5 104.5 L 17.5 104.5 L 17.5 106.5 L 9.5 106.5 L 9.5 104.5 L 8.5 104.5 L 4.5 104.5 A 4 4 90 0 1 0.5 100.5 L 0.5 96.5 z"
           style="fill:#FE994F;fill-opacity:1;stroke:#E86B0E;stroke-width:1;stroke-linecap:round;stroke-opacity:1;"
           id="path40" />
        <text
           style="font-size:10px;fill:#282828;font-family:sans-serif;text-anchor:start"
           id="text44"><tspan
             x="20"
             y="15"
             id="tspan42">note</tspan></text>
        <text
           style="font-size:6.666666666666667px;fill:#282828;font-family:sans-serif;text-anchor:end"
           id="text48"><tspan
             x="85"
             y="12"
             id="tspan46">value</tspan></text>
      </g>
    </g>
    <g
       transform="translate(28, 68) scale(0.5 0.5)"
       id="g68">
      <g
         style="isolation:isolate"
         id="g66">
        <g
           id="レイヤー_2"
           data-name="レイヤー 2">
          <g
             id="Icon">
            <rect
               width="42"
               height="42"
               rx="5"
               ry="5"
               style="fill:#292929;opacity:0.4;mix-blend-mode:multiply"
               id="rect54" />
            <path
               d="M30.56,29.8l-4.17-4.16h2.26a1,1,0,1,0,0-2.07H23.94a1.08,1.08,0,0,0-1.11,1v0s0,0,0,.06v4.64h0a1,1,0,1,0,2.08,0V27.08l4.19,4.19a1,1,0,0,0,1.46,0A1,1,0,0,0,30.56,29.8Z"
               style="fill:#fff"
               id="path56" />
            <path
               d="M19.17,24.6a1.08,1.08,0,0,0-1.11-1H13.35a1,1,0,1,0,0,2.07H15.6L11.44,29.8a1,1,0,0,0,1.47,1.47l4.18-4.19v2.26a1,1,0,1,0,2.08,0V24.7s0,0,0-.06A.08.08,0,0,1,19.17,24.6Z"
               style="fill:#fff"
               id="path58" />
            <path
               d="M23.94,20.5h4.7a1,1,0,1,0,0-2.08H26.39l4.17-4.16a1,1,0,0,0,0-1.47,1,1,0,0,0-1.46,0L24.91,17V14.72a1,1,0,1,0-2.08,0v4.64a.43.43,0,0,0,0,.05v.05A1.09,1.09,0,0,0,23.94,20.5Z"
               style="fill:#fff"
               id="path60" />
            <path
               d="M18.13,13.62a1.08,1.08,0,0,0-1,1.09V17l-4.18-4.19a1,1,0,0,0-1.47,0,1,1,0,0,0,0,1.46l4.16,4.17H13.35a1,1,0,1,0,0,2.08h4.71a1.09,1.09,0,0,0,1.11-1,.08.08,0,0,1,0,0s0,0,0-.06V14.71A1.07,1.07,0,0,0,18.13,13.62Z"
               style="fill:#fff"
               id="path62" />
          </g>
        </g>
      </g>
    </g>
  </g>
  <g
     transform="translate(160, 64)"
     id="g88">
    <g
       transform="scale(1.5, 1.5)"
       id="g86">
      <path
         d="m8.5 8.5 L 8.5 4.5 A 4 4 90 0 1 12.5 0.5 L 16.5 0.5 L 26.5 0.5 L 56.5 0.5 L 60.5 0.5 A 4 4 90 0 1 64.5 4.5 L 64.5 8.5 L 60.5 8.5 L 60.5 5.5 L 56.5 5.5 L 56.5 15.5 L 60.5 15.5 L 60.5 12.5 L 64.5 12.5 L 64.5 29.5 L 60.5 29.5 L 60.5 26.5 L 56.5 26.5 L 56.5 36.5 L 60.5 36.5 L 60.5 33.5 L 64.5 33.5 L 64.5 37.5 A 4 4 90 0 1 60.5 41.5 L 56.5 41.5 L 26.5 41.5 L 16.5 41.5 L 12.5 41.5 A 4 4 90 0 1 8.5 37.5 L 8.5 33.5 L 8.5 12.5 L 8.5 11.5 L 2.5 11.5 L 2.5 14.5 L 0.5 14.5 L 0.5 6.5 L 2.5 6.5 L 2.5 9.5 L 8.5 9.5 L 8.5 8.5 z"
         style="fill:#FF6EA1;fill-opacity:1;stroke:#FF2C76;stroke-width:1;stroke-linecap:round;stroke-opacity:1;"
         id="path72" />
      <text
         style="font-size:9px;fill:#282828;font-family:sans-serif;text-anchor:end"
         id="text76"><tspan
           x="54"
           y="23"
           id="tspan74">/</tspan></text>
      <text
         style="font-size:6px;fill:#282828;font-family:sans-serif;text-anchor:end"
         id="text80"><tspan
           x="54"
           y="12"
           id="tspan78" /></text>
      <text
         style="font-size:6px;fill:#282828;font-family:sans-serif;text-anchor:end"
         id="text84"><tspan
           x="54"
           y="33"
           id="tspan82" /></text>
    </g>
  </g>
  <g
     transform="translate(246, 64)"
     id="g98">
    <g
       transform="scale(1.5, 1.5)"
       id="g96">
      <path
         d="m8.5 0.5 L 68.5 0.5 L 68.5 20.5 L 8.5 20.5 L 8.5 12.5 L 8.5 11.5 L 2.5 11.5 L 2.5 14.5 L 0.5 14.5 L 0.5 6.5 L 2.5 6.5 L 2.5 9.5 L 8.5 9.5 L 8.5 8.5 z"
         style="fill:#FF6EA1;fill-opacity:1;stroke:#FF2C76;stroke-width:1;stroke-linecap:round;stroke-opacity:1;"
         id="path90" />
      <text
         style="font-size:10px;fill:#282828;font-family:sans-serif;text-anchor:start"
         id="text94"><tspan
           x="13"
           y="14"
           id="tspan92">1</tspan></text>
    </g>
  </g>
  <g
     transform="translate(246, 96)"
     id="g108">
    <g
       transform="scale(1.5, 1.5)"
       id="g106">
      <path
         d="m8.5 0.5 L 68.5 0.5 L 68.5 20.5 L 8.5 20.5 L 8.5 12.5 L 8.5 11.5 L 2.5 11.5 L 2.5 14.5 L 0.5 14.5 L 0.5 6.5 L 2.5 6.5 L 2.5 9.5 L 8.5 9.5 L 8.5 8.5 z"
         style="fill:#FF6EA1;fill-opacity:1;stroke:#FF2C76;stroke-width:1;stroke-linecap:round;stroke-opacity:1;"
         id="path100" />
      <text
         style="font-size:10px;fill:#282828;font-family:sans-serif;text-anchor:start"
         id="text104"><tspan
           x="13"
           y="14"
           id="tspan102">4</tspan></text>
    </g>
  </g>
  <g
     transform="translate(42, 96)"
     id="g118">
    <g
       transform="scale(1.5, 1.5)"
       id="g116">
      <path
         d="m0.5 8.5 L 0.5 4.5 A 4 4 90 0 1 4.5 0.5 L 8.5 0.5 L 8.5 2.5 L 18.5 2.5 L 18.5 0.5 L 38.5 0.5 L 42.5 0.5 A 4 4 90 0 1 46.5 4.5 L 46.5 8.5 L 46.5 12.5 L 46.5 16.5 A 4 4 90 0 1 42.5 20.5 L 38.5 20.5 L 18.5 20.5 L 17.5 20.5 L 17.5 22.5 L 9.5 22.5 L 9.5 20.5 L 8.5 20.5 L 4.5 20.5 A 4 4 90 0 1 0.5 16.5 L 0.5 12.5 z"
         style="fill:#C4C4C4;fill-opacity:1;stroke:#A0A0A0;stroke-width:1;stroke-linecap:round;stroke-opacity:1;"
         id="path110" />
      <text
         style="font-size:10px;fill:#282828;font-family:sans-serif;text-anchor:end"
         id="text114"><tspan
           x="36"
           y="14"
           id="tspan112">↓</tspan></text>
    </g>
  </g>
  <g
     transform="translate(42, 128)"
     id="g136">
    <g
       transform="scale(1.5, 1.5)"
       id="g134">
      <path
         d="m0.5 8.5 L 0.5 4.5 A 4 4 90 0 1 4.5 0.5 L 8.5 0.5 L 8.5 2.5 L 18.5 2.5 L 18.5 0.5 L 48.5 0.5 L 52.5 0.5 A 4 4 90 0 1 56.5 4.5 L 56.5 8.5 L 52.5 8.5 L 52.5 5.5 L 48.5 5.5 L 48.5 15.5 L 52.5 15.5 L 52.5 12.5 L 56.5 12.5 L 56.5 29.5 L 52.5 29.5 L 52.5 26.5 L 48.5 26.5 L 48.5 36.5 L 52.5 36.5 L 52.5 33.5 L 56.5 33.5 L 56.5 37.5 A 4 4 90 0 1 52.5 41.5 L 48.5 41.5 L 18.5 41.5 L 17.5 41.5 L 17.5 43.5 L 9.5 43.5 L 9.5 41.5 L 8.5 41.5 L 4.5 41.5 A 4 4 90 0 1 0.5 37.5 L 0.5 33.5 L 0.5 12.5 L 0.5 8.5 z"
         style="fill:#7CD622;fill-opacity:1;stroke:#57AD02;stroke-width:1;stroke-linecap:round;stroke-opacity:1;"
         id="path120" />
      <text
         style="font-size:10px;fill:#282828;font-family:sans-serif;text-anchor:end"
         id="text124"><tspan
           x="46"
           y="24"
           id="tspan122">pitch</tspan></text>
      <text
         style="font-size:6.666666666666667px;fill:#282828;font-family:sans-serif;text-anchor:end"
         id="text128"><tspan
           x="46"
           y="12"
           id="tspan126">name</tspan></text>
      <text
         style="font-size:6.666666666666667px;fill:#282828;font-family:sans-serif;text-anchor:end"
         id="text132"><tspan
           x="46"
           y="33"
           id="tspan130">octave</tspan></text>
    </g>
  </g>
  <g
     transform="translate(116, 128)"
     id="g146">
    <g
       transform="scale(1.5, 1.5)"
       id="g144">
      <path
         d="m8.5 0.5 L 68.5 0.5 L 68.5 20.5 L 8.5 20.5 L 8.5 12.5 L 8.5 11.5 L 2.5 11.5 L 2.5 14.5 L 0.5 14.5 L 0.5 6.5 L 2.5 6.5 L 2.5 9.5 L 8.5 9.5 L 8.5 8.5 z"
         style="fill:#7CD622;fill-opacity:1;stroke:#57AD02;stroke-width:1;stroke-linecap:round;stroke-opacity:1;"
         id="path138" />
      <text
         style="font-size:10px;fill:#282828;font-family:sans-serif;text-anchor:start"
         id="text142"><tspan
           x="13"
           y="14"
           id="tspan140">sol</tspan></text>
    </g>
  </g>
  <g
     transform="translate(116, 160)"
     id="g156">
    <g
       transform="scale(1.5, 1.5)"
       id="g154">
      <path
         d="m8.5 0.5 L 68.5 0.5 L 68.5 20.5 L 8.5 20.5 L 8.5 12.5 L 8.5 11.5 L 2.5 11.5 L 2.5 14.5 L 0.5 14.5 L 0.5 6.5 L 2.5 6.5 L 2.5 9.5 L 8.5 9.5 L 8.5 8.5 z"
         style="fill:#FF6EA1;fill-opacity:1;stroke:#FF2C76;stroke-width:1;stroke-linecap:round;stroke-opacity:1;"
         id="path148" />
      <text
         style="font-size:10px;fill:#282828;font-family:sans-serif;text-anchor:start"
         id="text152"><tspan
           x="13"
           y="14"
           id="tspan150">4</tspan></text>
    </g>
  </g>
  <g
     id="g190">
    <g
       transform="translate(28, 222)"
       id="g170">
      <g
         transform="scale(1.5, 1.5)"
         id="g168">
        <path
           d="m0.5 8.5 L 0.5 4.5 A 4 4 90 0 1 4.5 0.5 L 8.5 0.5 L 8.5 2.5 L 18.5 2.5 L 18.5 0.5 L 27.5 0.5 L 87.5 0.5 L 91.5 0.5 A 4 4 90 0 1 95.5 4.5 L 95.5 8.5 L 91.5 8.5 L 91.5 5.5 L 87.5 5.5 L 87.5 15.5 L 91.5 15.5 L 91.5 12.5 L 95.5 12.5 L 95.5 16.5 A 4 4 90 0 1 91.5 20.5 L 87.5 20.5 L 27.5 20.5 L 26.5 20.5 L 26.5 22.5 L 18.5 22.5 L 18.5 20.5 L 17.5 20.5 L 13.5 20.5 A 5 5 90 0 0 8.5 25.5 L 8.5 29.5 L 8.5 33.5 L 8.5 75.5 L 8.5 79.5 A 5 5 90 0 0 13.5 84.5 L 17.5 84.5 L 17.5 86.5 L 27.5 86.5 L 27.5 84.5 L 35.5 84.5 L 35.5 90.5 L 35.5 96.5 L 35.5 100.5 A 4 4 90 0 1 31.5 104.5 L 27.5 104.5 L 18.5 104.5 L 17.5 104.5 L 17.5 106.5 L 9.5 106.5 L 9.5 104.5 L 8.5 104.5 L 4.5 104.5 A 4 4 90 0 1 0.5 100.5 L 0.5 96.5 z"
           style="fill:#FE994F;fill-opacity:1;stroke:#E86B0E;stroke-width:1;stroke-linecap:round;stroke-opacity:1;"
           id="path158" />
        <text
           style="font-size:10px;fill:#282828;font-family:sans-serif;text-anchor:start"
           id="text162"><tspan
             x="20"
             y="15"
             id="tspan160">note</tspan></text>
        <text
           style="font-size:6.666666666666667px;fill:#282828;font-family:sans-serif;text-anchor:end"
           id="text166"><tspan
             x="85"
             y="12"
             id="tspan164">value</tspan></text>
      </g>
    </g>
    <g
       transform="translate(28, 226) scale(0.5 0.5)"
       id="g188">
      <g
         style="isolation:isolate"
         id="g186">
        <g
           id="g184"
           data-name="レイヤー 2">
          <g
             id="g182">
            <rect
               width="42"
               height="42"
               rx="5"
               ry="5"
               style="fill:#292929;opacity:0.4;mix-blend-mode:multiply"
               id="rect172" />
            <path
               d="M30.56,29.8l-4.17-4.16h2.26a1,1,0,1,0,0-2.07H23.94a1.08,1.08,0,0,0-1.11,1v0s0,0,0,.06v4.64h0a1,1,0,1,0,2.08,0V27.08l4.19,4.19a1,1,0,0,0,1.46,0A1,1,0,0,0,30.56,29.8Z"
               style="fill:#fff"
               id="path174" />
            <path
               d="M19.17,24.6a1.08,1.08,0,0,0-1.11-1H13.35a1,1,0,1,0,0,2.07H15.6L11.44,29.8a1,1,0,0,0,1.47,1.47l4.18-4.19v2.26a1,1,0,1,0,2.08,0V24.7s0,0,0-.06A.08.08,0,0,1,19.17,24.6Z"
               style="fill:#fff"
               id="path176" />
            <path
               d="M23.94,20.5h4.7a1,1,0,1,0,0-2.08H26.39l4.17-4.16a1,1,0,0,0,0-1.47,1,1,0,0,0-1.46,0L24.91,17V14.72a1,1,0,1,0-2.08,0v4.64a.43.43,0,0,0,0,.05v.05A1.09,1.09,0,0,0,23.94,20.5Z"
               style="fill:#fff"
               id="path178" />
            <path
               d="M18.13,13.62a1.08,1.08,0,0,0-1,1.09V17l-4.18-4.19a1,1,0,0,0-1.47,0,1,1,0,0,0,0,1.46l4.16,4.17H13.35a1,1,0,1,0,0,2.08h4.71a1.09,1.09,0,0,0,1.11-1,.08.08,0,0,1,0,0s0,0,0-.06V14.71A1.07,1.07,0,0,0,18.13,13.62Z"
               style="fill:#fff"
               id="path180" />
          </g>
        </g>
      </g>
    </g>
  </g>
  <g
     transform="translate(160, 222)"
     id="g208">
    <g
       transform="scale(1.5, 1.5)"
       id="g206">
      <path
         d="m8.5 8.5 L 8.5 4.5 A 4 4 90 0 1 12.5 0.5 L 16.5 0.5 L 26.5 0.5 L 56.5 0.5 L 60.5 0.5 A 4 4 90 0 1 64.5 4.5 L 64.5 8.5 L 60.5 8.5 L 60.5 5.5 L 56.5 5.5 L 56.5 15.5 L 60.5 15.5 L 60.5 12.5 L 64.5 12.5 L 64.5 29.5 L 60.5 29.5 L 60.5 26.5 L 56.5 26.5 L 56.5 36.5 L 60.5 36.5 L 60.5 33.5 L 64.5 33.5 L 64.5 37.5 A 4 4 90 0 1 60.5 41.5 L 56.5 41.5 L 26.5 41.5 L 16.5 41.5 L 12.5 41.5 A 4 4 90 0 1 8.5 37.5 L 8.5 33.5 L 8.5 12.5 L 8.5 11.5 L 2.5 11.5 L 2.5 14.5 L 0.5 14.5 L 0.5 6.5 L 2.5 6.5 L 2.5 9.5 L 8.5 9.5 L 8.5 8.5 z"
         style="fill:#FF6EA1;fill-opacity:1;stroke:#FF2C76;stroke-width:1;stroke-linecap:round;stroke-opacity:1;"
         id="path192" />
      <text
         style="font-size:9px;fill:#282828;font-family:sans-serif;text-anchor:end"
         id="text196"><tspan
           x="54"
           y="23"
           id="tspan194">/</tspan></text>
      <text
         style="font-size:6px;fill:#282828;font-family:sans-serif;text-anchor:end"
         id="text200"><tspan
           x="54"
           y="12"
           id="tspan198" /></text>
      <text
         style="font-size:6px;fill:#282828;font-family:sans-serif;text-anchor:end"
         id="text204"><tspan
           x="54"
           y="33"
           id="tspan202" /></text>
    </g>
  </g>
  <g
     transform="translate(246, 222)"
     id="g218">
    <g
       transform="scale(1.5, 1.5)"
       id="g216">
      <path
         d="m8.5 0.5 L 68.5 0.5 L 68.5 20.5 L 8.5 20.5 L 8.5 12.5 L 8.5 11.5 L 2.5 11.5 L 2.5 14.5 L 0.5 14.5 L 0.5 6.5 L 2.5 6.5 L 2.5 9.5 L 8.5 9.5 L 8.5 8.5 z"
         style="fill:#FF6EA1;fill-opacity:1;stroke:#FF2C76;stroke-width:1;stroke-linecap:round;stroke-opacity:1;"
         id="path210" />
      <text
         style="font-size:10px;fill:#282828;font-family:sans-serif;text-anchor:start"
         id="text214"><tspan
           x="13"
           y="14"
           id="tspan212">1</tspan></text>
    </g>
  </g>
  <g
     transform="translate(246, 254)"
     id="g228">
    <g
       transform="scale(1.5, 1.5)"
       id="g226">
      <path
         d="m8.5 0.5 L 68.5 0.5 L 68.5 20.5 L 8.5 20.5 L 8.5 12.5 L 8.5 11.5 L 2.5 11.5 L 2.5 14.5 L 0.5 14.5 L 0.5 6.5 L 2.5 6.5 L 2.5 9.5 L 8.5 9.5 L 8.5 8.5 z"
         style="fill:#FF6EA1;fill-opacity:1;stroke:#FF2C76;stroke-width:1;stroke-linecap:round;stroke-opacity:1;"
         id="path220" />
      <text
         style="font-size:10px;fill:#282828;font-family:sans-serif;text-anchor:start"
         id="text224"><tspan
           x="13"
           y="14"
           id="tspan222">4</tspan></text>
    </g>
  </g>
  <g
     transform="translate(42, 254)"
     id="g238">
    <g
       transform="scale(1.5, 1.5)"
       id="g236">
      <path
         d="m0.5 8.5 L 0.5 4.5 A 4 4 90 0 1 4.5 0.5 L 8.5 0.5 L 8.5 2.5 L 18.5 2.5 L 18.5 0.5 L 38.5 0.5 L 42.5 0.5 A 4 4 90 0 1 46.5 4.5 L 46.5 8.5 L 46.5 12.5 L 46.5 16.5 A 4 4 90 0 1 42.5 20.5 L 38.5 20.5 L 18.5 20.5 L 17.5 20.5 L 17.5 22.5 L 9.5 22.5 L 9.5 20.5 L 8.5 20.5 L 4.5 20.5 A 4 4 90 0 1 0.5 16.5 L 0.5 12.5 z"
         style="fill:#C4C4C4;fill-opacity:1;stroke:#A0A0A0;stroke-width:1;stroke-linecap:round;stroke-opacity:1;"
         id="path230" />
      <text
         style="font-size:10px;fill:#282828;font-family:sans-serif;text-anchor:end"
         id="text234"><tspan
           x="36"
           y="14"
           id="tspan232">↓</tspan></text>
    </g>
  </g>
  <g
     transform="translate(42, 286)"
     id="g256">
    <g
       transform="scale(1.5, 1.5)"
       id="g254">
      <path
         d="m0.5 8.5 L 0.5 4.5 A 4 4 90 0 1 4.5 0.5 L 8.5 0.5 L 8.5 2.5 L 18.5 2.5 L 18.5 0.5 L 48.5 0.5 L 52.5 0.5 A 4 4 90 0 1 56.5 4.5 L 56.5 8.5 L 52.5 8.5 L 52.5 5.5 L 48.5 5.5 L 48.5 15.5 L 52.5 15.5 L 52.5 12.5 L 56.5 12.5 L 56.5 29.5 L 52.5 29.5 L 52.5 26.5 L 48.5 26.5 L 48.5 36.5 L 52.5 36.5 L 52.5 33.5 L 56.5 33.5 L 56.5 37.5 A 4 4 90 0 1 52.5 41.5 L 48.5 41.5 L 18.5 41.5 L 17.5 41.5 L 17.5 43.5 L 9.5 43.5 L 9.5 41.5 L 8.5 41.5 L 4.5 41.5 A 4 4 90 0 1 0.5 37.5 L 0.5 33.5 L 0.5 12.5 L 0.5 8.5 z"
         style="fill:#7CD622;fill-opacity:1;stroke:#57AD02;stroke-width:1;stroke-linecap:round;stroke-opacity:1;"
         id="path240" />
      <text
         style="font-size:10px;fill:#282828;font-family:sans-serif;text-anchor:end"
         id="text244"><tspan
           x="46"
           y="24"
           id="tspan242">pitch</tspan></text>
      <text
         style="font-size:6.666666666666667px;fill:#282828;font-family:sans-serif;text-anchor:end"
         id="text248"><tspan
           x="46"
           y="12"
           id="tspan246">name</tspan></text>
      <text
         style="font-size:6.666666666666667px;fill:#282828;font-family:sans-serif;text-anchor:end"
         id="text252"><tspan
           x="46"
           y="33"
           id="tspan250">octave</tspan></text>
    </g>
  </g>
  <g
     transform="translate(116, 286)"
     id="g266">
    <g
       transform="scale(1.5, 1.5)"
       id="g264">
      <path
         d="m8.5 0.5 L 68.5 0.5 L 68.5 20.5 L 8.5 20.5 L 8.5 12.5 L 8.5 11.5 L 2.5 11.5 L 2.5 14.5 L 0.5 14.5 L 0.5 6.5 L 2.5 6.5 L 2.5 9.5 L 8.5 9.5 L 8.5 8.5 z"
         style="fill:#7CD622;fill-opacity:1;stroke:#57AD02;stroke-width:1;stroke-linecap:round;stroke-opacity:1;"
         id="path258" />
      <text
         style="font-size:10px;fill:#282828;font-family:sans-serif;text-anchor:start"
         id="text262"><tspan
           x="13"
           y="14"
           id="tspan260">mi</tspan></text>
    </g>
  </g>
  <g
     transform="translate(116, 318)"
     id="g276">
    <g
       transform="scale(1.5, 1.5)"
       id="g274">
      <path
         d="m8.5 0.5 L 68.5 0.5 L 68.5 20.5 L 8.5 20.5 L 8.5 12.5 L 8.5 11.5 L 2.5 11.5 L 2.5 14.5 L 0.5 14.5 L 0.5 6.5 L 2.5 6.5 L 2.5 9.5 L 8.5 9.5 L 8.5 8.5 z"
         style="fill:#FF6EA1;fill-opacity:1;stroke:#FF2C76;stroke-width:1;stroke-linecap:round;stroke-opacity:1;"
         id="path268" />
      <text
         style="font-size:10px;fill:#282828;font-family:sans-serif;text-anchor:start"
         id="text272"><tspan
           x="13"
           y="14"
           id="tspan270">4</tspan></text>
    </g>
  </g>
  <g
     id="g310">
    <g
       transform="translate(28, 380)"
       id="g290">
      <g
         transform="scale(1.5, 1.5)"
         id="g288">
        <path
           d="m0.5 8.5 L 0.5 4.5 A 4 4 90 0 1 4.5 0.5 L 8.5 0.5 L 8.5 2.5 L 18.5 2.5 L 18.5 0.5 L 27.5 0.5 L 87.5 0.5 L 91.5 0.5 A 4 4 90 0 1 95.5 4.5 L 95.5 8.5 L 91.5 8.5 L 91.5 5.5 L 87.5 5.5 L 87.5 15.5 L 91.5 15.5 L 91.5 12.5 L 95.5 12.5 L 95.5 16.5 A 4 4 90 0 1 91.5 20.5 L 87.5 20.5 L 27.5 20.5 L 26.5 20.5 L 26.5 22.5 L 18.5 22.5 L 18.5 20.5 L 17.5 20.5 L 13.5 20.5 A 5 5 90 0 0 8.5 25.5 L 8.5 29.5 L 8.5 33.5 L 8.5 75.5 L 8.5 79.5 A 5 5 90 0 0 13.5 84.5 L 17.5 84.5 L 17.5 86.5 L 27.5 86.5 L 27.5 84.5 L 35.5 84.5 L 35.5 90.5 L 35.5 96.5 L 35.5 100.5 A 4 4 90 0 1 31.5 104.5 L 27.5 104.5 L 18.5 104.5 L 17.5 104.5 L 17.5 106.5 L 9.5 106.5 L 9.5 104.5 L 8.5 104.5 L 4.5 104.5 A 4 4 90 0 1 0.5 100.5 L 0.5 96.5 z"
           style="fill:#FE994F;fill-opacity:1;stroke:#E86B0E;stroke-width:1;stroke-linecap:round;stroke-opacity:1;"
           id="path278" />
        <text
           style="font-size:10px;fill:#282828;font-family:sans-serif;text-anchor:start"
           id="text282"><tspan
             x="20"
             y="15"
             id="tspan280">note</tspan></text>
        <text
           style="font-size:6.666666666666667px;fill:#282828;font-family:sans-serif;text-anchor:end"
           id="text286"><tspan
             x="85"
             y="12"
             id="tspan284">value</tspan></text>
      </g>
    </g>
    <g
       transform="translate(28, 384) scale(0.5 0.5)"
       id="g308">
      <g
         style="isolation:isolate"
         id="g306">
        <g
           id="g304"
           data-name="レイヤー 2">
          <g
             id="g302">
            <rect
               width="42"
               height="42"
               rx="5"
               ry="5"
               style="fill:#292929;opacity:0.4;mix-blend-mode:multiply"
               id="rect292" />
            <path
               d="M30.56,29.8l-4.17-4.16h2.26a1,1,0,1,0,0-2.07H23.94a1.08,1.08,0,0,0-1.11,1v0s0,0,0,.06v4.64h0a1,1,0,1,0,2.08,0V27.08l4.19,4.19a1,1,0,0,0,1.46,0A1,1,0,0,0,30.56,29.8Z"
               style="fill:#fff"
               id="path294" />
            <path
               d="M19.17,24.6a1.08,1.08,0,0,0-1.11-1H13.35a1,1,0,1,0,0,2.07H15.6L11.44,29.8a1,1,0,0,0,1.47,1.47l4.18-4.19v2.26a1,1,0,1,0,2.08,0V24.7s0,0,0-.06A.08.08,0,0,1,19.17,24.6Z"
               style="fill:#fff"
               id="path296" />
            <path
               d="M23.94,20.5h4.7a1,1,0,1,0,0-2.08H26.39l4.17-4.16a1,1,0,0,0,0-1.47,1,1,0,0,0-1.46,0L24.91,17V14.72a1,1,0,1,0-2.08,0v4.64a.43.43,0,0,0,0,.05v.05A1.09,1.09,0,0,0,23.94,20.5Z"
               style="fill:#fff"
               id="path298" />
            <path
               d="M18.13,13.62a1.08,1.08,0,0,0-1,1.09V17l-4.18-4.19a1,1,0,0,0-1.47,0,1,1,0,0,0,0,1.46l4.16,4.17H13.35a1,1,0,1,0,0,2.08h4.71a1.09,1.09,0,0,0,1.11-1,.08.08,0,0,1,0,0s0,0,0-.06V14.71A1.07,1.07,0,0,0,18.13,13.62Z"
               style="fill:#fff"
               id="path300" />
          </g>
        </g>
      </g>
    </g>
  </g>
  <g
     transform="translate(160, 380)"
     id="g328">
    <g
       transform="scale(1.5, 1.5)"
       id="g326">
      <path
         d="m8.5 8.5 L 8.5 4.5 A 4 4 90 0 1 12.5 0.5 L 16.5 0.5 L 26.5 0.5 L 56.5 0.5 L 60.5 0.5 A 4 4 90 0 1 64.5 4.5 L 64.5 8.5 L 60.5 8.5 L 60.5 5.5 L 56.5 5.5 L 56.5 15.5 L 60.5 15.5 L 60.5 12.5 L 64.5 12.5 L 64.5 29.5 L 60.5 29.5 L 60.5 26.5 L 56.5 26.5 L 56.5 36.5 L 60.5 36.5 L 60.5 33.5 L 64.5 33.5 L 64.5 37.5 A 4 4 90 0 1 60.5 41.5 L 56.5 41.5 L 26.5 41.5 L 16.5 41.5 L 12.5 41.5 A 4 4 90 0 1 8.5 37.5 L 8.5 33.5 L 8.5 12.5 L 8.5 11.5 L 2.5 11.5 L 2.5 14.5 L 0.5 14.5 L 0.5 6.5 L 2.5 6.5 L 2.5 9.5 L 8.5 9.5 L 8.5 8.5 z"
         style="fill:#FF6EA1;fill-opacity:1;stroke:#FF2C76;stroke-width:1;stroke-linecap:round;stroke-opacity:1;"
         id="path312" />
      <text
         style="font-size:9px;fill:#282828;font-family:sans-serif;text-anchor:end"
         id="text316"><tspan
           x="54"
           y="23"
           id="tspan314">/</tspan></text>
      <text
         style="font-size:6px;fill:#282828;font-family:sans-serif;text-anchor:end"
         id="text320"><tspan
           x="54"
           y="12"
           id="tspan318" /></text>
      <text
         style="font-size:6px;fill:#282828;font-family:sans-serif;text-anchor:end"
         id="text324"><tspan
           x="54"
           y="33"
           id="tspan322" /></text>
    </g>
  </g>
  <g
     transform="translate(246, 380)"
     id="g338">
    <g
       transform="scale(1.5, 1.5)"
       id="g336">
      <path
         d="m8.5 0.5 L 68.5 0.5 L 68.5 20.5 L 8.5 20.5 L 8.5 12.5 L 8.5 11.5 L 2.5 11.5 L 2.5 14.5 L 0.5 14.5 L 0.5 6.5 L 2.5 6.5 L 2.5 9.5 L 8.5 9.5 L 8.5 8.5 z"
         style="fill:#FF6EA1;fill-opacity:1;stroke:#FF2C76;stroke-width:1;stroke-linecap:round;stroke-opacity:1;"
         id="path330" />
      <text
         style="font-size:10px;fill:#282828;font-family:sans-serif;text-anchor:start"
         id="text334"><tspan
           x="13"
           y="14"
           id="tspan332">1</tspan></text>
    </g>
  </g>
  <g
     transform="translate(246, 412)"
     id="g348">
    <g
       transform="scale(1.5, 1.5)"
       id="g346">
      <path
         d="m8.5 0.5 L 68.5 0.5 L 68.5 20.5 L 8.5 20.5 L 8.5 12.5 L 8.5 11.5 L 2.5 11.5 L 2.5 14.5 L 0.5 14.5 L 0.5 6.5 L 2.5 6.5 L 2.5 9.5 L 8.5 9.5 L 8.5 8.5 z"
         style="fill:#FF6EA1;fill-opacity:1;stroke:#FF2C76;stroke-width:1;stroke-linecap:round;stroke-opacity:1;"
         id="path340" />
      <text
         style="font-size:10px;fill:#282828;font-family:sans-serif;text-anchor:start"
         id="text344"><tspan
           x="13"
           y="14"
           id="tspan342">2</tspan></text>
    </g>
  </g>
  <g
     transform="translate(42, 412)"
     id="g358">
    <g
       transform="scale(1.5, 1.5)"
       id="g356">
      <path
         d="m0.5 8.5 L 0.5 4.5 A 4 4 90 0 1 4.5 0.5 L 8.5 0.5 L 8.5 2.5 L 18.5 2.5 L 18.5 0.5 L 38.5 0.5 L 42.5 0.5 A 4 4 90 0 1 46.5 4.5 L 46.5 8.5 L 46.5 12.5 L 46.5 16.5 A 4 4 90 0 1 42.5 20.5 L 38.5 20.5 L 18.5 20.5 L 17.5 20.5 L 17.5 22.5 L 9.5 22.5 L 9.5 20.5 L 8.5 20.5 L 4.5 20.5 A 4 4 90 0 1 0.5 16.5 L 0.5 12.5 z"
         style="fill:#C4C4C4;fill-opacity:1;stroke:#A0A0A0;stroke-width:1;stroke-linecap:round;stroke-opacity:1;"
         id="path350" />
      <text
         style="font-size:10px;fill:#282828;font-family:sans-serif;text-anchor:end"
         id="text354"><tspan
           x="36"
           y="14"
           id="tspan352">↓</tspan></text>
    </g>
  </g>
  <g
     transform="translate(42, 444)"
     id="g376">
    <g
       transform="scale(1.5, 1.5)"
       id="g374">
      <path
         d="m0.5 8.5 L 0.5 4.5 A 4 4 90 0 1 4.5 0.5 L 8.5 0.5 L 8.5 2.5 L 18.5 2.5 L 18.5 0.5 L 48.5 0.5 L 52.5 0.5 A 4 4 90 0 1 56.5 4.5 L 56.5 8.5 L 52.5 8.5 L 52.5 5.5 L 48.5 5.5 L 48.5 15.5 L 52.5 15.5 L 52.5 12.5 L 56.5 12.5 L 56.5 29.5 L 52.5 29.5 L 52.5 26.5 L 48.5 26.5 L 48.5 36.5 L 52.5 36.5 L 52.5 33.5 L 56.5 33.5 L 56.5 37.5 A 4 4 90 0 1 52.5 41.5 L 48.5 41.5 L 18.5 41.5 L 17.5 41.5 L 17.5 43.5 L 9.5 43.5 L 9.5 41.5 L 8.5 41.5 L 4.5 41.5 A 4 4 90 0 1 0.5 37.5 L 0.5 33.5 L 0.5 12.5 L 0.5 8.5 z"
         style="fill:#7CD622;fill-opacity:1;stroke:#57AD02;stroke-width:1;stroke-linecap:round;stroke-opacity:1;"
         id="path360" />
      <text
         style="font-size:10px;fill:#282828;font-family:sans-serif;text-anchor:end"
         id="text364"><tspan
           x="46"
           y="24"
           id="tspan362">pitch</tspan></text>
      <text
         style="font-size:6.666666666666667px;fill:#282828;font-family:sans-serif;text-anchor:end"
         id="text368"><tspan
           x="46"
           y="12"
           id="tspan366">name</tspan></text>
      <text
         style="font-size:6.666666666666667px;fill:#282828;font-family:sans-serif;text-anchor:end"
         id="text372"><tspan
           x="46"
           y="33"
           id="tspan370">octave</tspan></text>
    </g>
  </g>
  <g
     transform="translate(116, 444)"
     id="g386">
    <g
       transform="scale(1.5, 1.5)"
       id="g384">
      <path
         d="m8.5 0.5 L 68.5 0.5 L 68.5 20.5 L 8.5 20.5 L 8.5 12.5 L 8.5 11.5 L 2.5 11.5 L 2.5 14.5 L 0.5 14.5 L 0.5 6.5 L 2.5 6.5 L 2.5 9.5 L 8.5 9.5 L 8.5 8.5 z"
         style="fill:#7CD622;fill-opacity:1;stroke:#57AD02;stroke-width:1;stroke-linecap:round;stroke-opacity:1;"
         id="path378" />
      <text
         style="font-size:10px;fill:#282828;font-family:sans-serif;text-anchor:start"
         id="text382"><tspan
           x="13"
           y="14"
           id="tspan380">sol</tspan></text>
    </g>
  </g>
  <g
     transform="translate(116, 476)"
     id="g396">
    <g
       transform="scale(1.5, 1.5)"
       id="g394">
      <path
         d="m8.5 0.5 L 68.5 0.5 L 68.5 20.5 L 8.5 20.5 L 8.5 12.5 L 8.5 11.5 L 2.5 11.5 L 2.5 14.5 L 0.5 14.5 L 0.5 6.5 L 2.5 6.5 L 2.5 9.5 L 8.5 9.5 L 8.5 8.5 z"
         style="fill:#FF6EA1;fill-opacity:1;stroke:#FF2C76;stroke-width:1;stroke-linecap:round;stroke-opacity:1;"
         id="path388" />
      <text
         style="font-size:10px;fill:#282828;font-family:sans-serif;text-anchor:start"
         id="text392"><tspan
           x="13"
           y="14"
           id="tspan390">4</tspan></text>
    </g>
  </g>
  <g
     transform="translate(104, 0)"
     id="g406">
    <g
       transform="scale(1.5, 1.5)"
       id="g404">
      <path
         d="m8.5 0.5 L 68.5 0.5 L 68.5 20.5 L 8.5 20.5 L 8.5 12.5 L 8.5 11.5 L 2.5 11.5 L 2.5 14.5 L 0.5 14.5 L 0.5 6.5 L 2.5 6.5 L 2.5 9.5 L 8.5 9.5 L 8.5 8.5 z"
         style="fill:#FF6EA1;fill-opacity:1;stroke:#FF2C76;stroke-width:1;stroke-linecap:round;stroke-opacity:1;"
         id="path398" />
      <text
         style="font-size:10px;fill:#282828;font-family:sans-serif;text-anchor:start"
         id="text402"><tspan
           x="13"
           y="14"
           id="tspan400">5</tspan></text>
    </g>
  </g>
</svg>
