<?xml version="1.0" encoding="UTF-8" standalone="no"?>
<svg
   xmlns:dc="http://purl.org/dc/elements/1.1/"
   xmlns:cc="http://creativecommons.org/ns#"
   xmlns:rdf="http://www.w3.org/1999/02/22-rdf-syntax-ns#"
   xmlns:svg="http://www.w3.org/2000/svg"
   xmlns="http://www.w3.org/2000/svg"
   width="62.838543mm"
   height="25.796875mm"
   viewBox="0 0 62.838543 25.796875"
   version="1.1"
   id="svg1999">
  <defs
     id="defs1993" />
  <metadata
     id="metadata1996">
    <rdf:RDF>
      <cc:Work
         rdf:about="">
        <dc:format>image/svg+xml</dc:format>
        <dc:type
           rdf:resource="http://purl.org/dc/dcmitype/StillImage" />
        <dc:title></dc:title>
      </cc:Work>
    </rdf:RDF>
  </metadata>
  <g
     id="layer1"
     transform="translate(274.07999,129.3151)">
    <g
       id="g300"
       transform="matrix(0.26458333,0,0,0.26458333,-274.07999,-129.3151)">
      <g
         transform="scale(1.5)"
         id="g298">
        <path
           d="m 0.5,8.5 v -4 a 4,4 90 0 1 4,-4 h 4 v 2 h 10 v -2 h 40.024414 4 a 4,4 90 0 1 4,4 v 4 h -4 v -3 h -4 v 10 h 4 v -3 h 4 v 17 h -4 v -3 h -4 v 10 h 4 v -3 h 4 v 17 h -4 v -3 h -4 v 10 h 4 v -3 h 4 v 4 a 4,4 90 0 1 -4,4 h -4 H 18.5 h -1 v 2 h -8 v -2 h -1 -4 a 4,4 90 0 1 -4,-4 v -4 -42 z"
           style="fill:#d98a43;fill-opacity:1;stroke:#b7651a;stroke-width:1;stroke-linecap:round;stroke-opacity:1"
           id="path280" />
        <text
           style="font-size:10px;font-family:sans-serif;text-anchor:end;fill:#282828"
           id="text284"><tspan
             x="56"
             y="21"
             id="tspan282">set value</tspan></text>
        <text
           style="font-size:6.66667px;font-family:sans-serif;text-anchor:end;fill:#282828"
           id="text288"><tspan
             x="56"
             y="12"
             id="tspan286">name</tspan></text>
        <text
           style="font-size:6.66667px;font-family:sans-serif;text-anchor:end;fill:#282828"
           id="text292"><tspan
             x="56"
             y="33"
             id="tspan290">key</tspan></text>
        <text
           style="font-size:6.66667px;font-family:sans-serif;text-anchor:end;fill:#282828"
           id="text296"><tspan
             x="56"
             y="54"
             id="tspan294">value</tspan></text>
      </g>
    </g>
    <g
       transform="matrix(0.26458333,0,0,0.26458333,-250.53207,-129.3151)"
       id="g310">
      <g
         transform="scale(1.5)"
         id="g308">
        <path
           d="m 8.5,0.5 h 90 v 20 h -90 v -8 -1 h -6 v 3 h -2 v -8 h 2 v 3 h 6 v -1 z"
           style="fill:#ff664b;fill-opacity:1;stroke:#ea4326;stroke-width:1;stroke-linecap:round;stroke-opacity:1"
           id="path302" />
        <text
           style="font-size:10px;font-family:sans-serif;text-anchor:start;fill:#282828"
           id="text306"><tspan
             x="13"
             y="14"
             id="tspan304">My Dictionary</tspan></text>
      </g>
    </g>
    <g
       transform="matrix(0.26458333,0,0,0.26458333,-250.53207,-120.84844)"
       id="g320">
      <g
         transform="scale(1.5)"
         id="g318">
        <path
           d="m 8.5,0.5 h 90 v 20 h -90 v -8 -1 h -6 v 3 h -2 v -8 h 2 v 3 h 6 v -1 z"
           style="fill:#ff664b;fill-opacity:1;stroke:#ea4326;stroke-width:1;stroke-linecap:round;stroke-opacity:1"
           id="path312" />
        <text
           style="font-size:10px;font-family:sans-serif;text-anchor:start;fill:#282828"
           id="text316"><tspan
             x="13"
             y="14"
             id="tspan314">key</tspan></text>
      </g>
    </g>
    <g
       transform="matrix(0.26458333,0,0,0.26458333,-250.53207,-112.64635)"
       id="g330">
      <g
         transform="scale(1.5)"
         id="g328">
        <path
           d="m 8.5,0.5 h 60 v 20 h -60 v -8 -1 h -6 v 3 h -2 v -8 h 2 v 3 h 6 v -1 z"
           style="fill:#ff6ea1;fill-opacity:1;stroke:#ff2c76;stroke-width:1;stroke-linecap:round;stroke-opacity:1"
           id="path322" />
        <text
           style="font-size:10px;font-family:sans-serif;text-anchor:start;fill:#282828"
           id="text326"><tspan
             x="13"
             y="14"
             id="tspan324">0</tspan></text>
      </g>
    </g>
  </g>
</svg>
