<?xml version="1.0" encoding="UTF-8" standalone="no"?>
<svg
   xmlns:dc="http://purl.org/dc/elements/1.1/"
   xmlns:cc="http://creativecommons.org/ns#"
   xmlns:rdf="http://www.w3.org/1999/02/22-rdf-syntax-ns#"
   xmlns:svg="http://www.w3.org/2000/svg"
   xmlns="http://www.w3.org/2000/svg"
   width="189.5"
   height="34.5"
   version="1.1"
   id="svg26">
  <metadata
     id="metadata32">
    <rdf:RDF>
      <cc:Work
         rdf:about="">
        <dc:format>image/svg+xml</dc:format>
        <dc:type
           rdf:resource="http://purl.org/dc/dcmitype/StillImage" />
        <dc:title></dc:title>
      </cc:Work>
    </rdf:RDF>
  </metadata>
  <defs
     id="defs30" />
  <g
     id="g1780"
     transform="translate(-776,53)">
    <g
       transform="translate(862,-53)"
       id="g1131">
      <g
         transform="scale(1.5)"
         id="g1129">
        <path
           d="m 8.5,0.5 h 60 v 20 h -60 v -8 -1 h -6 v 3 h -2 v -8 h 2 v 3 h 6 v -1 z"
           style="fill:#d98a43;fill-opacity:1;stroke:#b7651a;stroke-width:1;stroke-linecap:round;stroke-opacity:1"
           id="path1123" />
        <text
           style="font-size:10px;font-family:sans-serif;text-anchor:start;fill:#282828"
           id="text1127"><tspan
             x="13"
             y="14"
             id="tspan1125">heap</tspan></text>
      </g>
    </g>
    <g
       transform="translate(776,-53)"
       id="g1197">
      <g
         transform="scale(1.5)"
         id="g1195">
        <path
           d="m 0.5,8.5 v -4 a 4,4 90 0 1 4,-4 h 4 v 2 h 10 v -2 h 38.364258 4 a 4,4 90 0 1 4,4 v 4 h -4 v -3 h -4 v 10 h 4 v -3 h 4 v 4 a 4,4 90 0 1 -4,4 h -4 H 18.5 h -1 v 2 h -8 v -2 h -1 -4 a 4,4 90 0 1 -4,-4 v -4 z"
           style="fill:#c4c4c4;fill-opacity:1;stroke:#a0a0a0;stroke-width:1;stroke-linecap:round;stroke-opacity:1"
           id="path1185" />
        <text
           style="font-size:10px;font-family:sans-serif;text-anchor:end;fill:#282828"
           id="text1189"><tspan
             x="55"
             y="14"
             id="tspan1187">set heap</tspan></text>
        <text
           style="font-size:6.66667px;font-family:sans-serif;text-anchor:end;fill:#282828"
           id="text1193"><tspan
             x="55"
             y="12"
             id="tspan1191" /></text>
      </g>
    </g>
  </g>
</svg>
