<?xml version="1.0" encoding="UTF-8" standalone="no"?>
<svg
   id="svg305"
   version="1.1"
   height="34.5"
   width="223.5"
   xmlns="http://www.w3.org/2000/svg"
   xmlns:svg="http://www.w3.org/2000/svg"
   xmlns:rdf="http://www.w3.org/1999/02/22-rdf-syntax-ns#"
   xmlns:cc="http://creativecommons.org/ns#"
   xmlns:dc="http://purl.org/dc/elements/1.1/">
  <metadata
     id="metadata311">
    <rdf:RDF>
      <cc:Work
         rdf:about="">
        <dc:format>image/svg+xml</dc:format>
        <dc:type
           rdf:resource="http://purl.org/dc/dcmitype/StillImage" />
      </cc:Work>
    </rdf:RDF>
  </metadata>
  <defs
     id="defs309" />
  <path
     id="svg_3"
     style="fill:#c4c4c4;fill-opacity:1;stroke:#a0a0a0;stroke-width:1.5;stroke-linecap:round;stroke-opacity:1"
     d="m 0.75,12.75 v -6 c 0,-3.31371 2.68629,-6 6,-6 h 6 v 3 h 15 v -3 h 83.87159 6 c 3.31371,0 6,2.68629 6,6 v 6 h -6 v -4.5 h -6 v 15 h 6 v -4.5 h 6 v 6 c 0,3.31371 -2.68629,6 -6,6 h -6 H 27.75 26.25 v 3 h -12 v -3 h -1.5 -6 c -3.31371,0 -6,-2.68629 -6,-6 v -6 z" />
  <text
     x="8.0000067"
     y="0"
     id="svg_4"
     style="font-size:15px;font-family:sans-serif;text-anchor:end;fill:#282828;stroke-width:1.5"><tspan
       id="svg_5"
       y="21"
       x="108.5"
       style="stroke-width:1.5">グリッドを表示</tspan></text>
  <text
     x="6.7844239e-06"
     y="-58"
     id="svg_6"
     style="font-size:10px;font-family:sans-serif;text-anchor:end;fill:#282828;stroke-width:1.5" />
  <g
     id="svg_9"
     transform="matrix(1.5,0,0,1.5,382.49181,0)">
    <path
       id="svg_10"
       style="fill:#c4c4c4;fill-opacity:1;stroke:#a0a0a0;stroke-width:1;stroke-linecap:round;stroke-opacity:1"
       d="m -171.82787,0.5 h 65.33333 v 20 h -65.33333 v -8 -1 h -6 v 3 h -2 v -8 h 2 v 3 h 6 v -1 z" />
    <text
       x="-180.32787"
       y="0"
       id="svg_11"
       style="font-size:10px;font-family:sans-serif;text-anchor:start;fill:#282828"><tspan
         id="svg_12"
         y="14"
         x="-167.32787">トレブル記号</tspan></text>
  </g>
</svg>
