<?xml version="1.0" encoding="UTF-8" standalone="no"?>
<svg
   xmlns:dc="http://purl.org/dc/elements/1.1/"
   xmlns:cc="http://creativecommons.org/ns#"
   xmlns:rdf="http://www.w3.org/1999/02/22-rdf-syntax-ns#"
   xmlns:svg="http://www.w3.org/2000/svg"
   xmlns="http://www.w3.org/2000/svg"
   id="svg8"
   version="1.1"
   viewBox="0 0 14.552083 14.552084"
   height="55"
   width="55">
  <defs
     id="defs2" />
  <metadata
     id="metadata5">
    <rdf:RDF>
      <cc:Work
         rdf:about="">
        <dc:format>image/svg+xml</dc:format>
        <dc:type
           rdf:resource="http://purl.org/dc/dcmitype/StillImage" />
        <dc:title></dc:title>
      </cc:Work>
    </rdf:RDF>
  </metadata>
  <g
     transform="matrix(0.9232668,0,0,0.9232668,0.55831397,0.55831397)"
     id="g829">
    <g
       transform="translate(0,-0.33680672)"
       id="g850">
      <g
         transform="translate(8.3613782e-5,-285.62292)"
         id="layer1">
        <path
           id="path880"
           d="m 6.7718415,294.26878 c -0.328439,-0.11706 -0.716572,-0.50413 -0.846394,-0.84407 -0.337565,-0.88391 0.346971,-1.93389 1.263808,-1.9385 0.280071,-0.001 0.343438,-0.0389 1.1193029,-0.66159 1.319949,-1.05942 1.422969,-1.13082 1.631742,-1.13082 0.2536446,0 0.5659786,0.30645 0.5654006,0.55474 -4.83e-4,0.22293 -0.03732,0.27689 -1.0069486,1.47664 -0.72751,0.90017 -0.783616,0.98909 -0.784919,1.24396 -0.0049,0.9564 -1.0127099,1.63086 -1.9419919,1.29964 z m 4.8426305,-0.83056 c -0.38077,-0.16563 -0.46938,-0.65621 -0.172205,-0.95339 0.152218,-0.15222 0.215299,-0.16863 0.648407,-0.16863 h 0.479787 l -0.04103,-0.34912 c -0.105572,-0.89826 -0.823373,-2.2425 -1.556174,-2.91427 -0.788314,-0.72267 -1.9375396,-1.30202 -2.7537036,-1.3882 l -0.3357909,-0.0354 v 0.49357 c 0,0.46025 -0.01262,0.5062 -0.186961,0.68054 -0.127319,0.12732 -0.251083,0.18696 -0.387967,0.18696 -0.450568,0 -0.640317,-0.28092 -0.640317,-0.94798 v -0.44264 l -0.30381,0.0563 c -0.83444,0.15462 -1.791271,0.5801 -2.377579,1.05726 -0.01487,0.0121 0.09681,0.12802 0.248173,0.25758 0.151369,0.12957 0.316062,0.33334 0.365984,0.45282 0.175117,0.41912 -0.121421,0.84588 -0.587766,0.84588 -0.11321,0 -0.278957,-0.10597 -0.515201,-0.3294 -0.327236,-0.30949 -0.35529,-0.32308 -0.46398,-0.22472 -0.337478,0.30542 -0.903047,1.59799 -1.005089,2.29706 l -0.04435,0.30381 h 0.483397 c 0.417697,0 0.507591,0.0208 0.661401,0.15312 0.238154,0.20485 0.249559,0.595 0.0244,0.83467 -0.152048,0.16185 -0.163746,0.16351 -1.15376,0.16351 -0.916294,0 -1.01182402,-0.0109 -1.13935802,-0.12969 -0.191658,-0.17856 -0.228859,-0.377 -0.180157,-0.96098 0.06428,-0.77076 0.32023602,-1.68255 0.67238202,-2.3952 0.919214,-1.86024 2.604424,-3.15973 4.643733,-3.58084 0.67386,-0.13915 1.944574,-0.13906 2.6183739,1.8e-4 2.0050136,0.41435 3.7134666,1.7409 4.6115106,3.58066 0.417099,0.85449 0.61177,1.58008 0.653539,2.43593 0.03608,0.73924 -0.01291,0.88703 -0.339223,1.02338 -0.292185,0.12208 -1.644148,0.12018 -1.926663,-0.003 z"
           style="fill:#000000;stroke-width:0.06396056" />
      </g>
      <g
         id="g842">
        <rect
           rx="1.4683429"
           ry="1.6458886"
           y="9.4717064"
           x="0.32300687"
           height="4.8690867"
           width="13.90607"
           id="rect818"
           style="fill:#ffffff;fill-opacity:1;stroke:#000000;stroke-width:0.42258015;stroke-linecap:round;stroke-miterlimit:4;stroke-dasharray:none;stroke-opacity:1" />
        <text
           id="text816"
           y="12.843117"
           x="1.1719873"
           style="font-style:normal;font-weight:normal;font-size:3.76955581px;line-height:6.36112547px;font-family:sans-serif;letter-spacing:0px;word-spacing:0px;fill:#000000;fill-opacity:1;stroke:none;stroke-width:0.23559724px;stroke-linecap:butt;stroke-linejoin:miter;stroke-opacity:1"
           xml:space="preserve"><tspan
             style="font-size:2.5130372px;stroke-width:0.23559724px"
             y="12.843117"
             x="1.1719873"
             id="tspan814">advanced</tspan></text>
      </g>
    </g>
  </g>
</svg>
