<?xml version="1.0" encoding="UTF-8" standalone="no"?>
<svg
   xmlns:osb="http://www.openswatchbook.org/uri/2009/osb"
   xmlns:dc="http://purl.org/dc/elements/1.1/"
   xmlns:cc="http://creativecommons.org/ns#"
   xmlns:rdf="http://www.w3.org/1999/02/22-rdf-syntax-ns#"
   xmlns:svg="http://www.w3.org/2000/svg"
   xmlns="http://www.w3.org/2000/svg"
   xmlns:xlink="http://www.w3.org/1999/xlink"
   xmlns:sodipodi="http://sodipodi.sourceforge.net/DTD/sodipodi-0.dtd"
   xmlns:inkscape="http://www.inkscape.org/namespaces/inkscape"
   enable-background="new 0 0 55.125 55"
   height="55px"
   version="1.1"
   viewBox="0 0 55.125 55"
   width="55.125px"
   x="0px"
   xml:space="preserve"
   y="0px"
   id="svg2"
   inkscape:version="0.91 r13725"
   sodipodi:docname="cancel.svg"><metadata
     id="metadata11"><rdf:RDF><cc:Work
         rdf:about=""><dc:format>image/svg+xml</dc:format><dc:type
           rdf:resource="http://purl.org/dc/dcmitype/StillImage" /><dc:title /></cc:Work></rdf:RDF></metadata><defs
     id="defs9"><linearGradient
       id="linearGradient4140"
       osb:paint="solid"><stop
         style="stop-color:#ffffff;stop-opacity:1;"
         offset="0"
         id="stop4142" /></linearGradient><inkscape:perspective
       sodipodi:type="inkscape:persp3d"
       inkscape:vp_x="0 : 27.5 : 1"
       inkscape:vp_y="0 : 1000 : 0"
       inkscape:vp_z="55.125 : 27.5 : 1"
       inkscape:persp3d-origin="27.5625 : 18.333333 : 1"
       id="perspective4141" /><linearGradient
       inkscape:collect="always"
       xlink:href="#linearGradient4140"
       id="linearGradient4144"
       x1="2.1721277"
       y1="42.311029"
       x2="7.3857987"
       y2="42.311029"
       gradientUnits="userSpaceOnUse"
       gradientTransform="translate(7.003653,1.4831265)" /></defs><sodipodi:namedview
     pagecolor="#ffffff"
     bordercolor="#666666"
     borderopacity="1"
     objecttolerance="10"
     gridtolerance="10"
     guidetolerance="10"
     inkscape:pageopacity="0"
     inkscape:pageshadow="2"
     inkscape:window-width="1440"
     inkscape:window-height="838"
     id="namedview7"
     showgrid="false"
     inkscape:zoom="12.136524"
     inkscape:cx="23.557795"
     inkscape:cy="26.097509"
     inkscape:window-x="-8"
     inkscape:window-y="-8"
     inkscape:window-maximized="1"
     inkscape:current-layer="svg2" /><g
     display="block"
     id="dialog-cancel"
     style="display:block;fill:#fb0f0f;fill-opacity:1"
     transform="translate(-0.11652542,-2.5826271)"><path
       d="m 27.76299,12.468633 c -12.43,0 -22.5000002,10.075999 -22.5000002,22.496999 0,12.432 10.0700002,22.503 22.5000002,22.503 12.431,0 22.5,-10.071 22.5,-22.503 0,-12.421 -10.07,-22.496999 -22.5,-22.496999 z m 10.199,28.158999 c 1.254,1.256 1.257,3.291 0,4.545 -0.628,0.629 -1.451,0.943 -2.274,0.943 -0.822,0 -1.644,-0.314 -2.27,-0.94 l -5.76,-5.761 -5.76,5.761 c -0.627,0.626 -1.449,0.94 -2.271,0.94 -0.823,0 -1.647,-0.314 -2.275,-0.943 -1.254,-1.254 -1.254,-3.289 0.004,-4.545 l 5.758,-5.758 -5.758,-5.758 c -1.258,-1.254 -1.258,-3.292 -0.004,-4.546 1.255,-1.254 3.292,-1.259 4.546,0 l 5.76,5.759 5.76,-5.759 c 1.252,-1.259 3.288,-1.254 4.544,0 1.257,1.254 1.254,3.292 0,4.546 l -5.758,5.758 5.758,5.758 z"
       display="inline"
       id="path5"
       inkscape:connector-curvature="0"
       style="display:inline;fill:#fb0f0f;fill-opacity:1" /></g><path
     style="fill:none;fill-rule:evenodd;stroke:#faff86;stroke-width:0.5;stroke-linecap:butt;stroke-linejoin:miter;stroke-miterlimit:4;stroke-dasharray:none;stroke-opacity:1"
     d="m 25.892916,11.165372 c 1.663629,-14.6295153 12.980246,-13.8779314 3.131046,-0.08239"
     id="path4165"
     inkscape:connector-curvature="0"
     sodipodi:nodetypes="cc" /><path
     style="opacity:1;fill:#fddf00;fill-opacity:1;stroke:#ffe100;stroke-width:2.28913784;stroke-miterlimit:4;stroke-dasharray:none;stroke-opacity:0.99607843"
     id="path4163"
     sodipodi:type="arc"
     sodipodi:cx="27.811413"
     sodipodi:cy="10.441932"
     sodipodi:rx="5.989006"
     sodipodi:ry="1.2669317"
     sodipodi:start="5.7605455"
     sodipodi:end="5.7086147"
     d="m 33.000913,9.8095184 a 5.989006,1.2669317 0 0 1 -2.132852,1.7219126 5.989006,1.2669317 0 0 1 -8.166784,-0.428797 5.989006,1.2669317 0 0 1 1.920805,-1.7330466 5.989006,1.2669317 0 0 1 8.216657,0.3837994 l -5.027326,0.6885452 z" /><path
     style="fill:none;fill-rule:evenodd;stroke:#fcf85a;stroke-width:0.5;stroke-linecap:butt;stroke-linejoin:miter;stroke-miterlimit:4;stroke-dasharray:none;stroke-opacity:1"
     d="M 26.488592,9.774506 C 26.206336,8.32511 26.655508,7.1463567 26.655508,7.1463567"
     id="path4186"
     inkscape:connector-curvature="0"
     sodipodi:nodetypes="cc" /><path
     style="fill:none;fill-rule:evenodd;stroke:url(#linearGradient4144);stroke-width:2;stroke-linecap:round;stroke-linejoin:miter;stroke-miterlimit:4;stroke-dasharray:none;stroke-opacity:1"
     d="m 9.3107386,40.992694 c 0.9155474,2.581565 3.3127394,5.451659 5.0261514,6.921257"
     id="path4138"
     inkscape:connector-curvature="0"
     sodipodi:nodetypes="cc" /><path
     style="fill:#fddf00;fill-opacity:1;fill-rule:nonzero;stroke:#ffffff;stroke-width:1.68031144;stroke-linecap:round;stroke-linejoin:round;stroke-miterlimit:4;stroke-dasharray:none;stroke-opacity:1"
     id="path4146"
     sodipodi:type="arc"
     sodipodi:cx="16.520329"
     sodipodi:cy="49.685314"
     sodipodi:rx="0.44822744"
     sodipodi:ry="0.28866646"
     sodipodi:start="5.7605465"
     sodipodi:end="5.7086229"
     d="m 16.90872,49.541221 a 0.44822744,0.28866646 0 0 1 -0.159628,0.392333 0.44822744,0.28866646 0 0 1 -0.611216,-0.0977 0.44822744,0.28866646 0 0 1 0.14376,-0.394869 0.44822744,0.28866646 0 0 1 0.614948,0.08745 l -0.376255,0.156881 z" /><path
     style="fill:none;fill-rule:evenodd;stroke:#e70d0d;stroke-width:1px;stroke-linecap:round;stroke-linejoin:miter;stroke-opacity:1"
     d="m 39.96202,14.049229 c 21.612272,16.383189 0.784385,37.40655 0.576772,36.089412"
     id="path4148"
     inkscape:connector-curvature="0"
     sodipodi:nodetypes="cc" /><path
     style="fill:none;fill-rule:evenodd;stroke:#dc0d0d;stroke-width:1px;stroke-linecap:round;stroke-linejoin:miter;stroke-opacity:1"
     d="m 38.256553,13.145035 c 24.056498,19.237253 0.284171,40.271831 -0.247187,38.643686"
     id="path4148-7"
     inkscape:connector-curvature="0"
     sodipodi:nodetypes="cc" /></svg>
