<?xml version="1.0" encoding="UTF-8" standalone="no"?>
<svg
   xmlns:dc="http://purl.org/dc/elements/1.1/"
   xmlns:cc="http://creativecommons.org/ns#"
   xmlns:rdf="http://www.w3.org/1999/02/22-rdf-syntax-ns#"
   xmlns:svg="http://www.w3.org/2000/svg"
   xmlns="http://www.w3.org/2000/svg"
   version="1.1"
   id="svg2"
   viewBox="0 0 55.000001 55.000001"
   height="55"
   width="55">
  <defs
     id="defs4" />
  <metadata
     id="metadata7">
    <rdf:RDF>
      <cc:Work
         rdf:about="">
        <dc:format>image/svg+xml</dc:format>
        <dc:type
           rdf:resource="http://purl.org/dc/dcmitype/StillImage" />
        <dc:title></dc:title>
      </cc:Work>
    </rdf:RDF>
  </metadata>
  <g
     transform="translate(0,-997.36214)"
     id="layer1">
    <path
       d="m 49.448666,1044.8778 -23.934848,0 24.341914,-25.3937 c 1.758,-1.8337 1.758,-4.817 0,-6.6507 l -8.609138,-8.9794 c -0.684872,-0.7143 -1.536622,-1.1313 -2.425027,-1.2888 0.0014,5e-4 -3.938982,0.2168 -7.744365,0.6681 -1.169588,0.1378 -2.145773,0.8291 -2.826304,1.5384 l -23.9893493,25.0239 c -1.7580001,1.8338 -1.7580001,4.8155 0,6.6492 l 8.6086553,8.9799 c 0.84548,0.8833 1.976002,1.3703 3.17694,1.3703 0.09357,0 5.811289,-0.1177 5.870612,-0.1207 0.288418,-0.028 0.980525,-0.1102 0.980525,-0.1102 l 26.549903,0 c 0.445649,0 0.808343,-0.3783 0.808343,-0.8431 9.55e-4,-0.4649 -0.361729,-0.8432 -0.807861,-0.8432 z m -25.631595,-0.8929 c -1.0548,1.0987 -2.769875,1.0987 -3.826122,0 l -8.608654,-8.9784 c -1.055283,-1.1023 -1.055283,-2.8922 0,-3.9914 l 12.262112,-12.7897 12.397157,13.0065 -12.224493,12.753 z m 10.604914,-39.4084 2.433709,-0.2078 -13.248425,13.8195 -2.029538,-0.2139 12.844254,-13.3978 z m -28.8847401,30.5401 c -1.0557652,-1.1007 -1.0557652,-2.8906 0,-3.9929 l 12.9513251,-13.5091 2.87984,0.3225 -11.261812,11.7469 c -1.758,1.8337 -1.758,4.8189 0,6.6506 l 8.182781,8.5352 c -0.130705,0.01 -0.248388,0.01 -0.374268,0.01 l -2.217155,0 c -0.586964,-0.079 -1.131004,-0.3426 -1.553021,-0.7843 l -8.6076901,-8.9764 z"
       id="path3338" />
    <path
       id="path3347"
       d="m 21.010067,1044.4827 c -0.976425,-0.4123 -10.021102,-9.9649 -10.204125,-10.7772 -0.329838,-1.4639 0.0227,-1.9505 5.731156,-7.9119 3.056077,-3.1914 5.906035,-6.1556 6.333241,-6.5872 l 0.776737,-0.7847 6.004154,6.2755 c 3.302285,3.4515 6.033698,6.3506 6.069803,6.4424 0.07206,0.1833 -12.073769,12.96 -12.551812,13.2038 -0.674622,0.344 -1.541772,0.4 -2.159154,0.1393 z"
       style="fill:#ffffff" />
    <path
       id="path3349"
       d="m 14.205121,1043.8401 c -1.552332,-1.3947 -8.6467172,-8.8649 -8.9892965,-9.4654 -0.1611061,-0.2824 -0.2967663,-0.8986 -0.3014667,-1.3694 -0.010629,-1.0645 0.059343,-1.1473 7.7028322,-9.1035 6.228519,-6.4834 6.037249,-6.3372 7.767897,-5.9399 0.618283,0.1418 0.39463,0.4104 -5.017511,6.0256 -3.115552,3.2325 -5.873386,6.3005 -6.12852,6.8176 -0.558032,1.1312 -0.615811,3.0942 -0.124792,4.2397 0.295068,0.6884 2.092248,2.6644 8.063953,8.8664 l 0.848834,0.8817 -1.380786,0 c -1.2787,0 -1.459181,-0.071 -2.441144,-0.9528 z"
       style="fill:#ffffff" />
    <path
       id="path3351"
       d="m 23.019618,1016.641 c 0.735447,-0.7434 3.643604,-3.7584 6.462573,-6.7 4.780182,-4.988 5.181797,-5.3483 5.962746,-5.3483 0.635562,0 0.790871,0.076 0.644483,0.3156 -0.106074,0.1735 -2.953804,3.1885 -6.328288,6.7 -6.063643,6.3098 -6.146792,6.3845 -7.107057,6.3845 l -0.971632,0 1.337175,-1.3518 z"
       style="fill:#ffffff" />
  </g>
</svg>
