<?xml version="1.0" encoding="UTF-8" standalone="no"?>
<svg
   xmlns:dc="http://purl.org/dc/elements/1.1/"
   xmlns:cc="http://creativecommons.org/ns#"
   xmlns:rdf="http://www.w3.org/1999/02/22-rdf-syntax-ns#"
   xmlns:svg="http://www.w3.org/2000/svg"
   xmlns="http://www.w3.org/2000/svg"
   xmlns:xlink="http://www.w3.org/1999/xlink"
   xmlns:sodipodi="http://sodipodi.sourceforge.net/DTD/sodipodi-0.dtd"
   xmlns:inkscape="http://www.inkscape.org/namespaces/inkscape"
   width="24"
   height="24"
   viewBox="0 0 24 24"
   id="svg2"
   version="1.1"
   inkscape:version="0.91 r13725"
   sodipodi:docname="delete.svg">
  <metadata
     id="metadata12">
    <rdf:RDF>
      <cc:Work
         rdf:about="">
        <dc:format>image/svg+xml</dc:format>
        <dc:type
           rdf:resource="http://purl.org/dc/dcmitype/StillImage" />
      </cc:Work>
    </rdf:RDF>
  </metadata>
  <defs
     id="defs10">
    <linearGradient
       inkscape:collect="always"
       id="linearGradient4199">
      <stop
         style="stop-color:#73ffbc;stop-opacity:1"
         offset="0"
         id="stop4201" />
      <stop
         style="stop-color:#ffe3b8;stop-opacity:0"
         offset="1"
         id="stop4203" />
    </linearGradient>
    <linearGradient
       inkscape:collect="always"
       xlink:href="#linearGradient4199"
       id="linearGradient4205"
       x1="11.43524"
       y1="5.6991177"
       x2="11.431876"
       y2="22.202271"
       gradientUnits="userSpaceOnUse" />
  </defs>
  <sodipodi:namedview
     pagecolor="#ffffff"
     bordercolor="#666666"
     borderopacity="1"
     objecttolerance="10"
     gridtolerance="10"
     guidetolerance="10"
     inkscape:pageopacity="0"
     inkscape:pageshadow="2"
     inkscape:window-width="1440"
     inkscape:window-height="838"
     id="namedview8"
     showgrid="false"
     inkscape:zoom="27.812867"
     inkscape:cx="14.77892"
     inkscape:cy="12.257666"
     inkscape:window-x="-8"
     inkscape:window-y="-8"
     inkscape:window-maximized="1"
     inkscape:current-layer="svg2" />
  <path
     d="M0 0h24v24h-24z"
     fill="none"
     id="path6" />
  <rect
     style="fill:url(#linearGradient4205);fill-opacity:1;stroke:#ffdce1;stroke-width:0.5;stroke-miterlimit:4;stroke-dasharray:none;stroke-opacity:1"
     id="rect4188"
     width="17.6537"
     height="16.467199"
     x="3.1999578"
     y="5.8069816" />
  <path
     style="fill:#00f064;fill-opacity:1;fill-rule:evenodd;stroke:none;stroke-width:1px;stroke-linecap:butt;stroke-linejoin:miter;stroke-opacity:1"
     d="m 17.505386,18.827112 -1.707842,-3.433662 1.438183,-0.66516 c 0.835945,1.411218 1.63464,2.898194 2.346037,4.05388 l -5.402177,0.170785 0,-2.265139 -3.415684,3.056139 3.432089,2.309926 -0.01798,-1.644765 4.585783,-0.161795 c 0.76059,-0.184163 0.756051,-1.213407 0.791001,-1.465151"
     id="path4142"
     inkscape:connector-curvature="0"
     sodipodi:nodetypes="ccccccccccc" />
  <path
     style="fill:#00f064;fill-opacity:1;fill-rule:evenodd;stroke:none;stroke-width:1px;stroke-linecap:butt;stroke-linejoin:miter;stroke-opacity:1"
     d="m 6.6807349,18.921522 3.8306731,0.180835 -0.119556,1.580036 c -1.6396686,0.04274 -3.3273589,0.01604 -4.6831919,0.07446 l 2.4820396,-4.801267 1.9782973,1.103264 -1.0054795,-4.471677 -3.6890551,1.872396 1.4452412,0.7854 -2.0922563,4.083877 c -0.2096129,0.753973 0.6915058,1.251315 0.8943479,1.404454"
     id="path4142-3"
     inkscape:connector-curvature="0"
     sodipodi:nodetypes="ccccccccccc" />
  <path
     style="fill:#00f064;fill-opacity:1;fill-rule:evenodd;stroke:none;stroke-width:1px;stroke-linecap:butt;stroke-linejoin:miter;stroke-opacity:1"
     d="M 12.113114,9.3146615 10.106513,12.582735 8.7802275,11.715686 C 9.5338953,10.258866 10.371548,8.7934827 10.974534,7.5777099 l 3.007951,4.4905361 -1.92084,1.200512 4.401903,1.276765 0.139831,-4.134663 -1.385233,0.886964 -2.567643,-3.8029978 c -0.559279,-0.5473757 -1.429674,0.00197 -1.661676,0.1057526"
     id="path4142-6"
     inkscape:connector-curvature="0"
     sodipodi:nodetypes="ccccccccccc" />
  <path
     style="fill:none;fill-rule:evenodd;stroke:#91adab;stroke-width:1.03488839px;stroke-linecap:butt;stroke-linejoin:miter;stroke-opacity:1"
     d="m 2.5527754,4.8721622 18.9840196,0"
     id="path4233"
     inkscape:connector-curvature="0" />
  <path
     style="fill:none;fill-rule:evenodd;stroke:#91adab;stroke-width:1px;stroke-linecap:butt;stroke-linejoin:miter;stroke-opacity:1"
     d="m 7.0470981,4.9081168 1.7837506,-1.0309398 6.7734403,0 1.851692,1.0690752"
     id="path4235"
     inkscape:connector-curvature="0"
     sodipodi:nodetypes="cccc" />
  <path
     style="fill:none;fill-rule:evenodd;stroke:#91abad;stroke-width:0.69999999;stroke-linecap:butt;stroke-linejoin:miter;stroke-miterlimit:4;stroke-dasharray:none;stroke-opacity:1"
     d="m 10.642556,3.9732977 0,-1.294365 3.379731,0 0,1.2224558"
     id="path4237"
     inkscape:connector-curvature="0" />
</svg>
