<?xml version="1.0" encoding="UTF-8" standalone="no"?>
<svg
   xmlns:dc="http://purl.org/dc/elements/1.1/"
   xmlns:cc="http://creativecommons.org/ns#"
   xmlns:rdf="http://www.w3.org/1999/02/22-rdf-syntax-ns#"
   xmlns:svg="http://www.w3.org/2000/svg"
   xmlns="http://www.w3.org/2000/svg"
   version="1.1"
   id="svg2999"
   height="55"
   width="55">
  <defs
     id="defs3001">
    <filter
       height="1.5993279"
       y="-0.29966396"
       width="1.445532"
       x="-0.222766"
       id="filter4208">
      <feGaussianBlur
         id="feGaussianBlur4210"
         stdDeviation="1.1911198" />
    </filter>
  </defs>
  <metadata
     id="metadata3004">
    <rdf:RDF>
      <cc:Work
         rdf:about="">
        <dc:format>image/svg+xml</dc:format>
        <dc:type
           rdf:resource="http://purl.org/dc/dcmitype/StillImage" />
        <dc:title></dc:title>
      </cc:Work>
    </rdf:RDF>
  </metadata>
  <g
     transform="translate(0,-997.36218)"
     id="layer1">
    <rect
       ry="8.7061663"
       y="999.86218"
       x="2.5"
       height="50"
       width="50"
       id="rect4703"
       style="fill:#92b5c8;fill-opacity:1;stroke:none;stroke-width:1.5;stroke-linecap:round;stroke-linejoin:round;stroke-miterlimit:4;stroke-dasharray:none;stroke-opacity:1" />
    <path
       id="path4093"
       d="m 18.485743,1012.263 c -0.315109,0 -0.634575,0.033 -0.953578,0.094 -4.976348,0.539 -7.266141,5.3811 -5.782648,9.0743 1.074195,2.6361 5.274519,4.3986 7.995623,4.0396 -1.846796,0.8988 -2.388183,4.2818 -2.31028,7.2894 -1.387626,-0.099 -3.183236,-0.4062 -5.949456,-1.2038 3.092728,-1.8546 -1.8227899,-4.9392 -3.5057289,-2.8468 -0.9584395,0.4384 -1.1079378,3.2685 2.6883729,3.6447 1.793546,0.8729 4.48394,2.139 6.953081,2.719 0.126418,0.8989 0.303989,1.6612 0.50598,2.1629 0.926914,2.0994 0.945742,2.6166 3.402866,2.7913 3.20143,0.2884 7.474073,-4.2283 8.971445,-6.8641 1.138514,-2.0259 1.408303,-3.376 1.729235,-5.424 3.53203,0.7197 7.670101,0.4307 9.052067,-1.2567 2.530549,-2.4165 2.716041,-5.2342 1.818201,-8.5322 -2.37073,-4.8525 -9.783853,-4.3678 -12.393774,-0.9536 -1.258815,2.1081 -1.338848,6.2647 0.04726,7.7899 -3.202399,-2.7488 -5.930474,-2.0737 -7.614747,-1.2816 1.266804,-1.2947 2.074959,-5.2628 1.740354,-6.2998 -0.584026,-2.9641 -3.348208,-4.979 -6.394275,-4.943 z"
       style="fill:none;stroke:#000000;stroke-width:0.97628337;stroke-linecap:butt;stroke-linejoin:miter;stroke-miterlimit:4;stroke-dasharray:none;stroke-opacity:1" />
    <path
       id="path3039"
       d="m 29.29069,1028.6855 c -0.338003,1.9536 -2.381398,1.3961 -3.30437,0.2542"
       style="fill:none;stroke:#000000;stroke-width:0.97628337;stroke-linecap:butt;stroke-linejoin:miter;stroke-miterlimit:4;stroke-dasharray:none;stroke-opacity:1" />
    <path
       id="path3041"
       d="m 22.173585,1027.9229 c -1.576239,1.5118 -2.361377,0.8451 -2.541824,0"
       style="fill:none;stroke:#000000;stroke-width:0.97628337;stroke-linecap:butt;stroke-linejoin:miter;stroke-miterlimit:4;stroke-dasharray:none;stroke-opacity:1" />
    <path
       id="path3057"
       d="m 44.308608,1011.9333 c -0.06471,0.01 -0.145765,0.088 -0.244648,0.2585 0,6.7455 1.19324,11.5015 2.101769,14.5206 0.495104,1.4781 0.942928,2.408 1.217693,2.8941 0.05935,0.142 0.490917,0.8541 0.494863,0.8841 -1.463756,-3.4764 -2.728132,-8.7224 -2.888544,-12.4967 -0.505472,-2.4366 -0.228142,-6.0971 -0.681133,-6.0606 z m 5.571363,16.2387 c -0.246454,0 -0.503646,0.034 -0.756193,0.1112 -0.37993,0.1152 -1.248819,0.5535 -1.515166,0.7645 l -0.161251,0.1279 0.252996,0.6256 c 0.279926,0.6885 0.300109,0.7737 0.164023,0.7284 -0.05055,-0.017 -0.229703,-0.2882 -0.397556,-0.6034 l -0.305812,-0.5727 -0.400337,0.3142 c -0.433436,0.3392 -2.293957,2.1841 -2.293602,2.2741 9.3e-5,0.03 0.2929,0.3554 0.650552,0.7229 0.918362,0.9434 1.346504,1.8432 1.351134,2.8384 0.0013,0.2144 0.01722,0.3892 0.03335,0.3892 0.03374,0 2.010829,-1.0463 2.432609,-1.2871 0.155044,-0.089 0.283217,-0.2003 0.283573,-0.2502 3.56e-4,-0.05 -0.0857,-0.284 -0.191828,-0.5199 -0.420217,-0.9342 -0.466126,-1.0582 -0.405899,-1.0954 0.04838,-0.03 0.65889,0.7375 1.056442,1.3261 0.157824,0.2337 2.028731,-1.4655 2.360322,-2.1435 0.255733,-0.5228 0.287402,-1.2042 0.08063,-1.7542 -0.172089,-0.4577 -0.84274,-1.4103 -1.17043,-1.6625 -0.276381,-0.2127 -0.656808,-0.3283 -1.067566,-0.3336 z m -1.239932,4.6066 c 0.665625,1.2356 0.909865,2.3414 1.509604,3.7782 1.115949,-0.9073 -0.866784,-2.6802 -1.509604,-3.7782 z"
       style="fill:none;stroke:#000000;stroke-width:0.48814169;stroke-linecap:butt;stroke-linejoin:miter;stroke-miterlimit:4;stroke-dasharray:none;stroke-opacity:1" />
    <path
       id="path3061"
       d="m 12.490149,1047.3358 c -1.606146,-2.8141 1.711461,-6.7529 -3.1852042,-5.9731 -2.8318535,2.0044 -0.8810619,6.0232 0.2834815,7.7636 2.7488547,-2.4328 2.9017227,-1.7905 2.9017227,-1.7905 z"
       style="fill:none;stroke:#000000;stroke-width:0.97628337;stroke-linecap:butt;stroke-linejoin:miter;stroke-miterlimit:4;stroke-dasharray:none;stroke-opacity:1" />
    <path
       id="path3198"
       d="m 23.906035,1034.4968 c 4.911709,-2.1136 10.726458,-2.5034 15.737112,-2.5982"
       style="fill:none;stroke:#000000;stroke-width:0.48814169;stroke-linecap:butt;stroke-linejoin:miter;stroke-miterlimit:4;stroke-dasharray:none;stroke-opacity:1" />
    <path
       id="path3200"
       d="m 24.351424,1035.0906 c 4.370698,-1.3534 13.968255,-1.1958 16.479437,1.9301"
       style="fill:none;stroke:#000000;stroke-width:0.48814169;stroke-linecap:butt;stroke-linejoin:miter;stroke-miterlimit:4;stroke-dasharray:none;stroke-opacity:1" />
    <path
       id="path3202"
       d="m 18.561355,1035.6102 c -2.809951,-1.4621 -7.327046,-3.1767 -9.947044,-1.1877"
       style="fill:none;stroke:#000000;stroke-width:0.48814169;stroke-linecap:butt;stroke-linejoin:miter;stroke-miterlimit:4;stroke-dasharray:none;stroke-opacity:1" />
    <path
       id="path3204"
       d="m 18.932512,1036.0556 c -2.125907,-1.1104 -6.79386,-1.7995 -8.610872,-0.3711"
       style="fill:none;stroke:#000000;stroke-width:0.48814169;stroke-linecap:butt;stroke-linejoin:miter;stroke-miterlimit:4;stroke-dasharray:none;stroke-opacity:1" />
    <path
       id="path3238"
       d="m 21.892759,1035.8443 c -0.701291,-0.13 -1.650916,-0.3026 -1.634301,1.0146 -0.32923,1.4923 1.13268,1.8821 2.273556,1.0361 0.870155,-0.5065 1.000494,-1.8144 -0.639255,-2.0507 z"
       style="fill:none;stroke:#000000;stroke-width:0.97628337;stroke-linecap:butt;stroke-linejoin:miter;stroke-miterlimit:4;stroke-dasharray:none;stroke-opacity:1" />
    <path
       id="path4099"
       d="m 21.038809,1039.9023 c -1.503776,-0.2116 -1.890171,-0.5348 -2.588726,-2.1659 -0.305014,-0.7121 -0.686353,-1.9623 -0.619074,-2.0297 0.01452,-0.015 0.243017,0.071 0.507777,0.1892 0.501741,0.2246 0.666962,0.2633 0.666962,0.1562 0,-0.035 -0.273446,-0.1789 -0.607662,-0.3198 -0.334216,-0.141 -0.621726,-0.2984 -0.638914,-0.35 -0.01836,-0.055 0.124244,-0.015 0.345383,0.097 0.386935,0.1961 0.530096,0.2326 0.529953,0.1351 -1.77e-4,-0.088 -1.289715,-0.7167 -2.226867,-1.086 -0.469515,-0.185 -1.254514,-0.4523 -1.744445,-0.5941 -0.84269,-0.2437 -2.274108,-0.8296 -3.418086,-1.399 -0.309135,-0.1539 -0.734236,-0.2919 -1.059773,-0.3442 -0.6946577,-0.1115 -1.3408874,-0.375 -1.8351243,-0.7481 -0.7187244,-0.5426 -1.0556943,-1.579 -0.7173576,-2.2063 0.1488753,-0.276 0.6878682,-0.7644 1.0481717,-0.9499 0.8543409,-0.4397 2.4060872,-0.039 3.1959502,0.8252 0.407739,0.4461 0.558892,0.8098 0.496454,1.1946 -0.05671,0.3495 -0.363809,0.7787 -0.730938,1.0217 -0.167334,0.1107 -0.271012,0.2261 -0.235234,0.2618 0.203154,0.2029 4.265513,1.0799 5.649907,1.2197 l 0.46395,0.047 0,-0.8124 c 0,-2.9883 0.782351,-5.5131 1.945322,-6.2781 0.191272,-0.1258 0.349588,-0.2538 0.351812,-0.2844 0.0021,-0.031 -0.307408,-0.056 -0.688074,-0.056 -1.719279,0 -3.659769,-0.6141 -5.192025,-1.6431 -0.76069,-0.5108 -1.622718,-1.4336 -1.936073,-2.0724 -0.800525,-1.6321 -0.791095,-3.6524 0.02519,-5.3942 0.921024,-1.9655 2.59575,-3.2696 4.825429,-3.7576 0.950123,-0.208 2.55154,-0.2183 3.303654,-0.021 0.670588,0.1757 1.765935,0.6899 2.273695,1.0673 1.189037,0.8838 2.054227,2.1821 2.33416,3.5027 0.141599,0.6679 0.131782,1.095 -0.04981,2.1666 -0.253494,1.496 -0.909348,3.2805 -1.435498,3.9058 -0.190404,0.2263 -0.244625,0.3904 -0.128966,0.3904 0.03377,0 0.273931,-0.086 0.533648,-0.1919 2.1669,-0.8805 4.436435,-0.5105 6.460212,1.0532 0.677712,0.5236 0.853352,0.5366 0.483856,0.036 -0.873395,-1.1838 -1.043198,-4.0373 -0.367767,-6.1802 0.295558,-0.9378 0.483893,-1.2472 1.12539,-1.8492 2.366297,-2.2204 6.570457,-2.6237 9.399543,-0.9017 0.577566,0.3516 1.641473,1.415 1.9627,1.9618 0.473933,0.8067 0.796971,2.5869 0.73145,4.0309 -0.08555,1.8853 -0.700398,3.2613 -2.111123,4.7247 -0.668568,0.6936 -1.219885,1.0396 -2.09684,1.316 -1.604429,0.5058 -4.125324,0.5799 -6.411076,0.1885 -0.361969,-0.062 -0.668546,-0.1022 -0.681284,-0.09 -0.01273,0.013 -0.07774,0.3401 -0.144446,0.7275 -0.217211,1.2614 -0.54106,2.4352 -0.905428,3.2817 l -0.357291,0.83 -0.705201,0.1255 c -1.121973,0.1999 -2.704095,0.5789 -3.739486,0.896 -1.2507,0.3831 -2.519467,0.885 -2.439471,0.965 0.03498,0.035 0.493727,-0.099 1.024104,-0.2988 1.503471,-0.5666 3.685329,-1.1461 5.479538,-1.4554 l 0.287569,-0.05 -0.173203,0.2835 c -0.09526,0.1559 -0.314792,0.5037 -0.487846,0.773 l -0.314643,0.4896 -0.876082,0.045 c -1.763983,0.091 -4.682506,0.6179 -4.489899,0.8105 0.03942,0.04 0.31097,0 0.664165,-0.086 1.127905,-0.288 4.02406,-0.6729 4.421073,-0.5876 0.335237,0.072 -2.223617,2.7806 -3.611069,3.8224 -1.779632,1.3362 -3.305443,1.8672 -4.772207,1.6608 l 0,0 z m 0.871198,-1.5992 c 0.866782,-0.3032 1.387167,-0.9192 1.303502,-1.543 -0.07678,-0.5724 -0.679684,-0.9366 -1.751182,-1.0578 -0.934223,-0.1057 -1.265884,0.243 -1.2912,1.358 -0.0174,0.766 0.09201,0.9971 0.575956,1.217 0.368082,0.1672 0.735677,0.1753 1.162924,0.026 z m 6.656756,-8.3788 c 0.36173,-0.1882 0.708818,-0.6747 0.767989,-1.0764 0.04675,-0.3176 -0.125192,-0.242 -0.215191,0.095 -0.305445,1.142 -1.620345,1.2474 -2.761558,0.2213 -0.227685,-0.2047 -0.382215,-0.2962 -0.413822,-0.2451 -0.110782,0.1793 0.730072,0.8172 1.320109,1.0016 0.419808,0.131 1.054465,0.1331 1.302473,0 l 0,0 z m -7.302797,-1.229 c 0.389708,-0.1887 0.994284,-0.7064 0.917071,-0.7854 -0.02957,-0.03 -0.199254,0.064 -0.377046,0.2099 -0.928434,0.7608 -1.664613,0.7781 -1.971805,0.046 -0.144431,-0.3441 -0.329209,-0.4045 -0.235284,-0.077 0.221854,0.7737 0.849636,1.0019 1.667064,0.6062 z"
       style="fill:#00ccff;stroke-width:2;stroke-miterlimit:4;stroke-dasharray:none" />
    <path
       transform="matrix(0.48814168,0,0,0.48814168,4.1861008,538.60034)"
       id="path4114"
       d="m 78.489449,1021.7961 c -0.919899,-0.3765 -1.276641,-1.3896 -1.287999,-3.658 -0.01098,-2.1796 -0.07182,-2.433 -0.585324,-2.433 -0.286848,0 -0.686997,0.2982 -1.479402,1.1025 -0.597411,0.6063 -1.267884,1.2636 -1.489941,1.4605 -0.222057,0.197 -0.40374,0.4829 -0.40374,0.6357 0,0.2521 -0.06606,0.2413 -0.722349,-0.1177 -0.397269,-0.2174 -0.751536,-0.4185 -0.787248,-0.4471 -0.08253,-0.067 0.124083,-0.2217 2.345976,-1.7692 3.360051,-2.3401 6.598782,-4.2055 7.307541,-4.2088 0.440145,0 1.107477,0.7629 2.073303,2.3768 0.720333,1.2036 0.855288,1.5563 1.007613,2.6335 0.217044,1.5346 0.04599,2.0511 -0.910404,2.7486 -1.793691,1.3083 -4.101795,2.0718 -5.068026,1.6762 z"
       style="opacity:1;fill:#bc5fd3;fill-opacity:1;stroke-width:2;stroke-miterlimit:4;stroke-dasharray:none;marker-start:none;filter:url(#filter4208)" />
    <path
       id="path4118"
       d="m 9.3448363,1048.5556 c -0.9755842,-1.6215 -1.4345453,-3.1281 -1.3731884,-4.5077 0.030072,-0.676 0.06057,-0.8077 0.3047009,-1.3152 0.1932474,-0.4019 0.3883629,-0.6711 0.6782426,-0.936 0.3979634,-0.3637 0.4199517,-0.3731 0.9952242,-0.424 1.1129624,-0.098 1.7313174,0.1588 1.9863484,0.8266 0.117656,0.3081 0.122966,0.4702 0.05523,1.6866 -0.08355,1.5006 -0.0284,2.3681 0.186529,2.9338 0.12666,0.3333 0.129965,0.3792 0.02733,0.3792 -0.261287,0 -1.278648,0.6803 -2.3306137,1.5585 l -0.2718163,0.2269 -0.2579849,-0.4287 z"
       style="fill:#00ccff;fill-opacity:1;stroke-width:2;stroke-miterlimit:4;stroke-dasharray:none" />
    <path
       id="path4152"
       d="m 46.545699,1035.4322 c 0,-0.8759 -0.396221,-1.712 -1.304047,-2.7516 l -0.633563,-0.7255 0.153312,-0.2153 c 0.1723,-0.2419 1.86194,-1.8711 2.168085,-2.0905 l 0.198212,-0.142 0.240145,0.4277 c 0.289627,0.5158 0.430132,0.6875 0.562647,0.6875 0.149024,0 0.123455,-0.1594 -0.126518,-0.7887 -0.124492,-0.3134 -0.211395,-0.6087 -0.193119,-0.6564 0.01832,-0.047 0.395728,-0.2671 0.838768,-0.4876 0.757717,-0.3771 0.83858,-0.401 1.362276,-0.402 0.746096,0 1.070984,0.172 1.561972,0.8342 0.606689,0.8182 0.777719,1.2267 0.76808,1.8345 -0.0101,0.6372 -0.175836,1.0158 -0.710014,1.6214 -0.414748,0.4704 -1.507773,1.3874 -1.64602,1.3811 -0.04695,-0 -0.302499,-0.2923 -0.567875,-0.6447 -0.26538,-0.3524 -0.528401,-0.6555 -0.584499,-0.6734 -0.157929,-0.051 -0.06949,0.3778 0.213817,1.0356 0.134363,0.312 0.224694,0.6182 0.200737,0.6807 -0.0322,0.084 -1.951897,1.1635 -2.444726,1.3749 -0.03172,0.014 -0.05767,-0.1213 -0.05767,-0.2999 z"
       style="fill:#00ccff;fill-opacity:1;stroke-width:2;stroke-miterlimit:4;stroke-dasharray:none" />
    <path
       id="path3043"
       d="m 26.366291,1039.6152 c -0.962443,0.5303 -2.114726,1.7497 -2.699494,2.7912 1.501383,0.6072 4.128784,5.0494 3.564111,1.3874 -0.03699,-1.2632 0.105023,-4.2658 -0.864617,-4.1786 z m -5.36563,0.8452 c -0.635237,0.01 -0.777415,2.2447 -0.573275,3.1156 0.181941,2.9275 1.312754,-0.1787 2.477657,-1.1696 -0.720753,-0.4698 -1.324106,-1.8954 -1.904382,-1.946 z"
       style="fill:#ff00cc;fill-opacity:1;stroke:#000000;stroke-width:0.48814169;stroke-linecap:butt;stroke-linejoin:miter;stroke-miterlimit:4;stroke-dasharray:none;stroke-opacity:1" />
    <g
       id="g4641">
      <path
         style="fill:none;fill-rule:evenodd;stroke:#000000;stroke-width:0.52214926px;stroke-linecap:butt;stroke-linejoin:miter;stroke-opacity:1"
         d="m 3.0836592,1013.536 c 8.7331158,5.3697 14.7216908,5.3597 21.3855328,1.5739 4.826237,-2.6561 4.981063,-10.7913 8.256772,-13.2684 2.880754,-2.17837 7.393533,-2.16458 14.661289,1.3155"
         id="path4231" />
      <path
         style="fill:none;fill-rule:evenodd;stroke:#000000;stroke-width:0.52214926px;stroke-linecap:butt;stroke-linejoin:miter;stroke-opacity:1"
         d="m 2.9719374,1015.9162 c 8.7331156,5.3697 14.7216906,5.3597 21.3855326,1.5739 4.826237,-2.6561 4.981064,-10.7913 8.256772,-13.2684 2.880748,-2.1784 7.393526,-2.1646 14.661285,1.3155"
         id="path4231-6" />
      <path
         style="fill:none;fill-rule:evenodd;stroke:#000000;stroke-width:0.52214926px;stroke-linecap:butt;stroke-linejoin:miter;stroke-opacity:1"
         d="m 2.8601951,1018.2964 c 8.7331159,5.3698 14.7216909,5.3597 21.3855329,1.5739 4.826237,-2.6561 4.981063,-10.7912 8.256772,-13.2683 2.880748,-2.1784 7.393549,-2.1647 14.661307,1.3154"
         id="path4231-0" />
      <path
         style="fill:none;fill-rule:evenodd;stroke:#000000;stroke-width:0.52214926px;stroke-linecap:butt;stroke-linejoin:miter;stroke-opacity:1"
         d="m 2.7484704,1020.6766 c 8.7331156,5.3698 14.7216906,5.3597 21.3855326,1.5739 4.826237,-2.6561 4.981064,-10.7912 8.256772,-13.2683 2.880769,-2.1785 7.393548,-2.1647 14.661305,1.3154"
         id="path4231-3" />
      <path
         style="fill:none;fill-rule:evenodd;stroke:#000000;stroke-width:0.52214926px;stroke-linecap:butt;stroke-linejoin:miter;stroke-opacity:1"
         d="m 2.636751,1023.0568 c 8.733116,5.3698 14.721691,5.3597 21.385533,1.5739 4.826237,-2.6561 4.981063,-10.7912 8.256771,-13.2683 2.880748,-2.1784 7.393528,-2.1646 14.661285,1.3154"
         id="path4231-62" />
    </g>
    <g
       id="g4648">
      <g
         style="font-style:normal;font-weight:normal;font-size:16px;line-height:125%;font-family:sans-serif;text-align:center;letter-spacing:0px;word-spacing:0px;text-anchor:middle;fill:#000000;fill-opacity:1;stroke:none;stroke-width:1px;stroke-linecap:butt;stroke-linejoin:miter;stroke-opacity:1"
         id="text4268"
         transform="matrix(0.52183557,-0.01809674,0.01809674,0.52183557,15.566008,456.24792)">
        <path
           d="m 1.7801964,1054.7278 q 0,-0.832 0.816,-1.472 0.816,-0.656 1.728,-0.656 0.528,0 0.944,0.272 l 0,-9.472 0.352,0 0,10.352 q 0,0.896 -0.784,1.488 -0.784,0.592 -1.728,0.592 -0.528,0 -0.928,-0.304 -0.4,-0.32 -0.4,-0.8 z m 0.736,0.48 q 0.848,0 1.712,-0.72 0.88,-0.72 0.88,-1.072 0,-0.224 -0.192,-0.224 -0.592,0 -1.632,0.688 -1.024,0.672 -1.024,1.12 0,0.208 0.256,0.208 z"
           id="path4273" />
      </g>
      <g
         style="font-style:normal;font-weight:normal;font-size:16px;line-height:125%;font-family:sans-serif;text-align:center;letter-spacing:0px;word-spacing:0px;text-anchor:middle;fill:#000000;fill-opacity:1;stroke:none;stroke-width:1px;stroke-linecap:butt;stroke-linejoin:miter;stroke-opacity:1"
         id="text4275"
         transform="matrix(0.51139142,0.1054451,-0.1054451,0.51139142,70.216185,466.32337)">
        <path
           d="m 91.436384,1057.5645 q 0,-0.832 0.816,-1.472 0.816,-0.656 1.728,-0.656 0.528,0 0.944,0.272 l 0,-9.472 0.336,0 q 0.144,0.928 0.528,1.664 0.384,0.736 0.816,1.216 0.448,0.464 0.864,0.928 0.416,0.448 0.688,1.072 0.288,0.608 0.288,1.376 0,1.36 -1.136,3.184 l -0.368,0 q 0.08,-0.176 0.256,-0.56 0.192,-0.384 0.256,-0.528 0.064,-0.144 0.176,-0.432 0.112,-0.288 0.144,-0.464 0.048,-0.192 0.08,-0.448 0.048,-0.256 0.048,-0.512 0,-1.072 -0.8,-2 -0.784,-0.928 -1.824,-0.992 l 0,6.848 q 0,0.896 -0.784,1.488 -0.784,0.592 -1.728,0.592 -0.528,0 -0.928,-0.304 -0.4,-0.32 -0.4,-0.8 z"
           id="path4280" />
      </g>
      <g
         style="font-style:normal;font-weight:normal;font-size:16px;line-height:125%;font-family:sans-serif;text-align:center;letter-spacing:0px;word-spacing:0px;text-anchor:middle;fill:#000000;fill-opacity:1;stroke:none;stroke-width:1px;stroke-linecap:butt;stroke-linejoin:miter;stroke-opacity:1"
         id="text4282"
         transform="matrix(0.51999432,0.04738937,-0.04738937,0.51999432,3.1197165,480.73642)">
        <path
           d="m 102.6003,1032.8969 q 0,-0.832 0.816,-1.472 0.816,-0.656 1.728,-0.656 0.528,0 0.944,0.272 l 0,-9.472 0.352,0 0,10.352 q 0,0.896 -0.784,1.488 -0.784,0.592 -1.728,0.592 -0.528,0 -0.928,-0.304 -0.4,-0.32 -0.4,-0.8 z"
           id="path4287" />
      </g>
      <g
         style="font-style:normal;font-weight:normal;font-size:16px;line-height:125%;font-family:sans-serif;text-align:center;letter-spacing:0px;word-spacing:0px;text-anchor:middle;fill:#000000;fill-opacity:1;stroke:none;stroke-width:1px;stroke-linecap:butt;stroke-linejoin:miter;stroke-opacity:1"
         id="text4282-7"
         transform="matrix(0.52143097,0.02737867,-0.02737867,0.52143097,-12.142049,480.16345)">
        <path
           d="m 102.6003,1032.8969 q 0,-0.832 0.816,-1.472 0.816,-0.656 1.728,-0.656 0.528,0 0.944,0.272 l 0,-9.472 0.352,0 0,10.352 q 0,0.896 -0.784,1.488 -0.784,0.592 -1.728,0.592 -0.528,0 -0.928,-0.304 -0.4,-0.32 -0.4,-0.8 z"
           id="path4287-0" />
      </g>
      <g
         style="font-style:normal;font-weight:normal;font-size:16px;line-height:125%;font-family:sans-serif;text-align:center;letter-spacing:0px;word-spacing:0px;text-anchor:middle;fill:#000000;fill-opacity:1;stroke:none;stroke-width:1px;stroke-linecap:butt;stroke-linejoin:miter;stroke-opacity:1"
         id="text4282-5"
         transform="matrix(0.5211307,-0.03259822,0.03259822,0.5211307,-69.508741,484.01491)">
        <path
           d="m 102.6003,1032.8969 q 0,-0.832 0.816,-1.472 0.816,-0.656 1.728,-0.656 0.528,0 0.944,0.272 l 0,-9.472 0.352,0 0,10.352 q 0,0.896 -0.784,1.488 -0.784,0.592 -1.728,0.592 -0.528,0 -0.928,-0.304 -0.4,-0.32 -0.4,-0.8 z"
           id="path4287-4" />
      </g>
      <g
         style="font-style:normal;font-weight:normal;font-size:16px;line-height:125%;font-family:sans-serif;text-align:center;letter-spacing:0px;word-spacing:0px;text-anchor:middle;fill:#000000;fill-opacity:1;stroke:none;stroke-width:1px;stroke-linecap:butt;stroke-linejoin:miter;stroke-opacity:1"
         id="text4275-9"
         transform="matrix(0.49941315,-0.15240196,0.15240196,0.49941315,-174.38367,495.87806)">
        <path
           d="m 91.436384,1057.5645 q 0,-0.832 0.816,-1.472 0.816,-0.656 1.728,-0.656 0.528,0 0.944,0.272 l 0,-9.472 0.336,0 q 0.144,0.928 0.528,1.664 0.384,0.736 0.816,1.216 0.448,0.464 0.864,0.928 0.416,0.448 0.688,1.072 0.288,0.608 0.288,1.376 0,1.36 -1.136,3.184 l -0.368,0 q 0.08,-0.176 0.256,-0.56 0.192,-0.384 0.256,-0.528 0.064,-0.144 0.176,-0.432 0.112,-0.288 0.144,-0.464 0.048,-0.192 0.08,-0.448 0.048,-0.256 0.048,-0.512 0,-1.072 -0.8,-2 -0.784,-0.928 -1.824,-0.992 l 0,6.848 q 0,0.896 -0.784,1.488 -0.784,0.592 -1.728,0.592 -0.528,0 -0.928,-0.304 -0.4,-0.32 -0.4,-0.8 z"
           id="path4280-7" />
      </g>
      <g
         style="font-style:normal;font-weight:normal;font-size:16px;line-height:125%;font-family:sans-serif;text-align:center;letter-spacing:0px;word-spacing:0px;text-anchor:middle;fill:#000000;fill-opacity:1;stroke:none;stroke-width:1px;stroke-linecap:butt;stroke-linejoin:miter;stroke-opacity:1"
         id="text4268-0"
         transform="matrix(0.48645327,0.18974474,-0.18974474,0.48645327,240.04776,495.88602)">
        <path
           d="m 2.0740623,1055.1357 q -0.2509246,-0.7932 0.3340611,-1.6495 0.5801603,-0.8716 1.4496949,-1.1466 0.5034147,-0.1593 0.9820776,-0.025 l -2.8566801,-9.031 0.3356098,-0.1061 3.1220812,9.87 q 0.2702265,0.8542 -0.2987257,1.6551 -0.5689521,0.8009 -1.4689967,1.0856 -0.5034148,0.1592 -0.9764736,-0.01 -0.4778843,-0.1844 -0.6226485,-0.6421 z m 0.8464939,0.2357 q 0.8085146,-0.2557 1.415138,-1.2028 0.6218783,-0.9519 0.5157179,-1.2875 -0.067557,-0.2136 -0.2506166,-0.1556 -0.5644347,0.1785 -1.3485139,1.1481 -0.7736497,0.9496 -0.6385364,1.3767 0.062731,0.1983 0.306811,0.1211 z"
           id="path4273-6" />
      </g>
    </g>
  </g>
</svg>
