<?xml version="1.0" encoding="UTF-8" standalone="no"?>
<!-- Created with Inkscape (http://www.inkscape.org/) -->

<svg
   xmlns:dc="http://purl.org/dc/elements/1.1/"
   xmlns:cc="http://creativecommons.org/ns#"
   xmlns:rdf="http://www.w3.org/1999/02/22-rdf-syntax-ns#"
   xmlns:svg="http://www.w3.org/2000/svg"
   xmlns="http://www.w3.org/2000/svg"
   xmlns:sodipodi="http://sodipodi.sourceforge.net/DTD/sodipodi-0.dtd"
   xmlns:inkscape="http://www.inkscape.org/namespaces/inkscape"
   width="55"
   height="55"
   viewBox="0 0 55.000001 55.000001"
   id="svg2"
   version="1.1"
   inkscape:version="0.91 r13725"
   sodipodi:docname="fast-button-1.svg">
  <defs
     id="defs4">
    <style
       id="style4474"
       type="text/css" />
  </defs>
  <sodipodi:namedview
     id="base"
     pagecolor="#ffffff"
     bordercolor="#666666"
     borderopacity="1.0"
     inkscape:pageopacity="0.0"
     inkscape:pageshadow="2"
     inkscape:zoom="7.9195959"
     inkscape:cx="10.365801"
     inkscape:cy="20.792233"
     inkscape:document-units="px"
     inkscape:current-layer="layer1"
     showgrid="false"
     units="px"
     inkscape:window-width="1366"
     inkscape:window-height="744"
     inkscape:window-x="0"
     inkscape:window-y="24"
     inkscape:window-maximized="1" />
  <metadata
     id="metadata7">
    <rdf:RDF>
      <cc:Work
         rdf:about="">
        <dc:format>image/svg+xml</dc:format>
        <dc:type
           rdf:resource="http://purl.org/dc/dcmitype/StillImage" />
        <dc:title></dc:title>
      </cc:Work>
    </rdf:RDF>
  </metadata>
  <g
     inkscape:label="Layer 1"
     inkscape:groupmode="layer"
     id="layer1"
     transform="translate(0,-997.36214)">
    <path
       style="display:none;fill:#000000"
       inkscape:connector-curvature="0"
       display="none"
       d="m -56.74286,116.81928 -1.7,1.7 c -6.4,-6.5 -33.7,-34.299997 -36.9,-37.399997 -3.6,-3.6 -3.1,-11 -7.4,-15.4 -1,-1 -2.6,-1 -3.6,0 l -4,4 -4,4 c -1,1 -1,2.6 0,3.6 4.4,4.4 11.8,3.8 15.4,7.4 3.2,3.2 30.9,30.499997 37.4,36.899997 l -1.7,1.7 c -2.9,2.9 -1.7,6.4 1.2,9.3 l 16.4,16.4 0.9,-0.9 -13.9,-16.6 c -1.6,-2.1 -1.9,-3.4 -1.3,-4.3 l 18.8,17.3 1,-1 -17,-19.1 0.7,-0.7 0.7,-0.7 19.2,17 1,-1 -17.3,-18.9 c 0.9,-0.6 2.2,-0.3 4.3,1.3 l 16.6,13.9 0.9,-0.9 -16.4,-16.4 c -2.9,-2.9 -6.4,-4.1 -9.3,-1.2 z m -53.9,-39.599997 3.9,-3.9 3.9,-3.9 c 4.4,4.4 0.4,8.2 0.4,8.2 0,0 -3.9,3.9 -8.2,-0.4 z"
       id="path4138" />
    <g
       style="display:none"
       display="none"
       id="g4140"
       transform="translate(-123.14286,57.319283)">
      <polygon
         style="display:inline;fill:#000000"
         display="inline"
         points="70.8,53.9 69.8,59.9 64,53.2 71.3,65.2 71.1,54.2 80,62.1 74.7,49.7 75.6,55.9 71.1,53.2 71.1,51.7 70.9,53.1 67.7,51.1 "
         id="polygon4142" />
      <path
         style="display:inline;fill:#000000"
         inkscape:connector-curvature="0"
         display="inline"
         d="m 87.7,69.9 5.9,1.2 -0.1,-1.1 c 0,-0.4 -0.7,-9.6 -7.3,-17.4 l 3,1 -0.7,-1.8 C 88.4,51.5 85.1,43.6 83.1,40.6 81.7,38.5 80.5,36.9 79.6,35.8 l 2.5,0.7 -1.5,-2.1 C 80,33.6 67.9,17.1 50.1,17.1 32.3,17.1 20.2,33.6 19.7,34.3 l -1.5,2.1 2.5,-0.7 c -0.9,1.1 -2.1,2.7 -3.5,4.8 -2,3 -5.3,10.8 -5.4,11.2 l -0.7,1.8 3,-1 c -6.6,7.9 -7.3,17 -7.3,17.4 l -0.1,1.2 5.9,-1.2 -1.4,1.8 12.2,0.8 -0.9,2.1 13.6,-0.9 -0.8,3 6.8,-3.1 13,2.1 3.1,-2.1 6.6,3 -0.8,-3 13.6,0.9 -0.9,-2.1 12.2,-0.8 -1.2,-1.7 z m -13.4,1 1.3,2.3 -13.8,-1.5 1.7,3 -5.2,-3 -3.1,3 -13.2,-2.9 -4.4,2.3 1.1,-2.4 -13.8,1.5 1.3,-2.3 -12.6,-0.1 3.4,-3.6 -8.1,1.7 c 0.5,-3.1 2.3,-11.4 9,-17.6 l 2.9,-2.8 -6.4,2.1 c 1.1,-2.5 3.1,-7 4.5,-9 3.4,-5 5.4,-6.8 5.4,-6.8 l 2.7,-2.5 -4,0.9 c 3.9,-4.5 14,-14.3 27.1,-14.3 13.1,0 23.2,9.9 27.1,14.3 l -3.8,-1.1 2.7,2.5 c 0,0 2,1.9 5.4,6.8 1.4,2 3.4,6.5 4.5,9 l -6.4,-2.1 2.9,2.8 c 6.7,6.3 8.5,14.6 9,17.6 l -8.1,-1.7 2.8,3.6 -11.9,0.3 z"
         id="path4144" />
      <polygon
         style="display:inline;fill:#000000"
         display="inline"
         points="29.4,34.5 26.6,42.5 35,33.9 29.1,38.2 "
         id="polygon4146" />
      <polygon
         style="display:inline;fill:#000000"
         display="inline"
         points="61.6,28.5 54.1,26.7 66,32.3 61.1,25 "
         id="polygon4148" />
      <polygon
         style="display:inline;fill:#000000"
         display="inline"
         points="45.5,46.3 43.4,40 43.6,51.7 49.6,41.9 55.4,48.6 55.4,40 53.6,44.3 49.8,41.6 50.5,40.5 49.7,41.5 48.3,40.5 49.4,41.7 "
         id="polygon4150" />
      <polygon
         style="display:inline;fill:#000000"
         display="inline"
         points="27.8,65.3 39.6,54.3 30.8,60.2 30.8,52.8 "
         id="polygon4152" />
    </g>
    <g
       style="display:none"
       display="none"
       id="g4154"
       transform="translate(-123.14286,57.319283)">
      <polygon
         style="display:inline;fill:#000000"
         display="inline"
         points="71.3,54.2 80.3,62.1 75,49.6 75.9,55.9 71.3,53.1 71.1,53 67.8,51.1 71,53.8 "
         id="polygon4156" />
      <path
         style="display:inline;fill:#000000"
         inkscape:connector-curvature="0"
         display="inline"
         d="m 88,69.9 5.9,1.2 -0.1,-1.2 c 0,-0.4 -0.7,-9.6 -7.3,-17.5 l 3,1 -0.7,-1.8 C 88.7,51.3 85.4,43.4 83.4,40.4 82,38.3 80.8,36.7 79.8,35.6 l 2.5,0.7 -1.5,-2.1 C 80.3,33.5 68.2,16.9 50.3,16.9 c -17.9,0 -30,16.6 -30.5,17.3 l -1.5,2.1 2.5,-0.7 c -0.9,1.1 -2.1,2.7 -3.6,4.8 -2,3 -5.3,10.9 -5.4,11.2 l -0.7,1.8 3,-1 C 7.5,60.3 6.8,69.5 6.8,69.9 l -0.1,1.2 5.9,-1.2 -1.4,1.8 12.2,0.8 -0.9,2.1 13.7,-0.9 -0.8,3 6.8,-3.1 13.2,1.9 3,-1.8 6.6,3 -0.8,-3 L 78,74.6 77.1,72.5 89.3,71.7 88,69.9 Z m -13.5,1 1.3,2.3 -13.9,-1.5 1.7,3 -5.3,-3.1 -3.2,2.6 L 42,71.8 37.5,74.2 38.6,71.8 24.7,73.3 26,71 14,70.9 16.8,67.3 8.6,69 c 0.5,-3.1 2.3,-11.4 9,-17.7 l 2.9,-2.8 -6.5,2.1 c 1.1,-2.5 3.1,-7.1 4.5,-9.1 3.4,-5 5.4,-6.9 5.4,-6.9 l 2.8,-2.5 -3.7,1 c 3.9,-4.5 14.1,-14.4 27.2,-14.4 13.1,0 23.3,9.9 27.2,14.4 l -3.7,-1.1 2.7,2.5 c 0,0 2,1.9 5.4,6.9 1.4,2 3.4,6.5 4.5,9.1 l -6.5,-2.1 2.9,2.8 c 6.7,6.3 8.6,14.6 9,17.7 l -8.2,-1.7 2.8,3.6 -11.8,0.1 z"
         id="path4158" />
      <polygon
         style="display:inline;fill:#000000"
         display="inline"
         points="29.5,34.3 26.7,42.4 35.1,33.8 29.2,38 "
         id="polygon4160" />
      <polygon
         style="display:inline;fill:#000000"
         display="inline"
         points="61.3,24.8 61.8,28.4 54.3,26.5 66.2,32.2 "
         id="polygon4162" />
      <polygon
         style="display:inline;fill:#000000"
         display="inline"
         points="48.4,40.4 49.5,41.6 45.6,46.2 43.5,39.8 43.7,51.6 49.7,41.8 55.6,48.5 55.6,39.8 53.8,44.2 50,41.5 50.6,40.4 49.8,41.3 "
         id="polygon4164" />
      <polygon
         style="display:inline;fill:#000000"
         display="inline"
         points="27.9,65.3 39.7,54.2 30.9,60.2 30.9,52.8 "
         id="polygon4166" />
      <polygon
         style="display:inline;fill:#000000"
         display="inline"
         points="50.5,66.6 50.7,66.7 50.8,66.6 "
         id="polygon4168" />
      <polygon
         style="display:inline;fill:#000000"
         display="inline"
         points="54.4,69 54.4,68.8 54.2,68.8 54.2,68.9 "
         id="polygon4170" />
      <path
         style="display:inline;fill:#000000"
         inkscape:connector-curvature="0"
         display="inline"
         d="M 74.7,40 C 75,39.6 74.8,39 74.4,38.8 L 72.7,37.7 71,36.6 c -0.4,-0.3 -1,-0.1 -1.2,0.3 -1.2,1.9 -0.4,4.4 -1.4,5.9 -0.9,1.4 -8.1,13.1 -9.9,15.9 l -0.7,-0.5 c -1.2,-0.8 -2.4,-0.1 -3.1,1.2 l -0.7,1.2 0,1.3 0.5,-0.1 0.9,-1.2 c 0.6,-0.7 1,-0.9 1.4,-0.8 l -1,1.7 0.3,0.9 0.6,-0.1 1.3,-1.8 0.3,0.2 0.3,0.2 -1,1.8 0.4,1.6 1.8,-2.6 c 0.3,0.3 0.3,0.7 -0.1,1.6 l -0.1,0.2 1.3,0 0,-0.1 c 0.8,-1.2 0.9,-2.6 -0.3,-3.3 L 59.9,59.6 C 61.7,56.9 69.1,45.2 70,43.8 71,42.3 73.6,41.9 74.7,40 Z m -4.6,-1.8 1.7,1 1.7,1 c -1.2,1.9 -2.8,0.8 -2.8,0.8 0,0 -1.7,-1 -0.6,-2.8 z"
         id="path4172" />
    </g>
    <g
       style="display:none"
       display="none"
       id="g4200"
       transform="translate(-123.14286,57.319283)">
      <path
         style="display:inline"
         inkscape:connector-curvature="0"
         display="inline"
         d="m 51.2,45.1 c 0,-0.7 -3.3,-28.1 -4.3,-29.2 -1,-1.1 -7.1,-0.1 -8.5,0.4 -3.8,1.4 -7.3,4.3 -7.3,5.6 0,1.3 17.9,23.2 18.3,23.4 1.4,1.3 1.8,0.5 1.8,-0.2 z"
         id="path4202" />
      <path
         style="display:inline"
         inkscape:connector-curvature="0"
         display="inline"
         d="M 48.8,46.4 C 48.4,46 29.4,24.4 28.1,23.8 c -1.3,-0.6 -3,0.6 -5.6,3.8 -2.5,3.1 -3.7,5.7 -3,7.2 0.7,1.5 27.5,12.3 28.1,12.6 0.7,0.3 1.6,-0.6 1.2,-1 z"
         id="path4204" />
      <path
         style="display:inline"
         inkscape:connector-curvature="0"
         display="inline"
         d="M 46.9,48.4 C 46.2,48.2 18.3,38.2 18.3,38.2 c -1.7,0.4 -2.6,2.5 -3.1,7.4 -0.5,4.1 -0.2,6.4 0.8,6.7 1,0.3 29.6,-1.8 30.7,-2 1,-0.3 0.8,-1.7 0.2,-1.9 z"
         id="path4206" />
      <path
         style="display:inline"
         inkscape:connector-curvature="0"
         display="inline"
         d="M 54,45 C 54.3,44.6 65.6,21.1 65.2,19.2 64.7,17.3 61.8,15.9 57.8,15 56.9,14.8 56,14.7 55,14.7 c -2.9,0 -3.9,-0.9 -4.6,0.6 -0.7,1.5 1.7,29.2 1.8,29.5 0.1,0.5 0.8,1.8 1.8,0.2 z"
         id="path4208" />
      <path
         style="display:inline"
         inkscape:connector-curvature="0"
         display="inline"
         d="m 57.5,49.6 c 1.1,0.1 25.1,1.9 26.2,0.9 1.1,-1 1.7,-5.2 0.8,-9.2 C 83.6,37.4 81.8,34 80.3,34 78.7,34 57.8,46.9 57,47.7 c -0.9,0.8 -0.6,1.9 0.5,1.9 z"
         id="path4210" />
      <path
         style="display:inline"
         inkscape:connector-curvature="0"
         display="inline"
         d="m 46.5,51.4 c -1,0.1 -28.3,3.3 -29.2,4.3 -0.9,1 -0.5,5.5 1.2,9.1 1.8,3.7 5.1,5.7 6.4,5.7 1.3,0 21.9,-16.7 22.6,-17.3 0.6,-0.5 0,-1.9 -1,-1.8 z"
         id="path4212" />
      <path
         style="display:inline"
         inkscape:connector-curvature="0"
         display="inline"
         d="m 56.5,46.8 c 0,0 21.9,-12.9 22.7,-14.2 0.7,-1.3 -1.3,-5.3 -4.2,-8.2 -2.9,-2.8 -6,-4.5 -6.9,-4 C 67.2,20.7 56.8,41 55.3,45.7 55,47 56,46.9 56.5,46.8 Z"
         id="path4214" />
      <path
         style="display:inline"
         inkscape:connector-curvature="0"
         display="inline"
         d="m 48.2,54 c -0.6,0.5 -22.1,18 -22.1,19.4 0,1.4 1.9,3.8 5.3,5.9 3.2,2 3.6,3.5 6.7,2.6 3.1,-0.9 11.8,-26.5 12,-27.4 0.3,-0.8 -1.3,-1 -1.9,-0.5 z"
         id="path4216" />
      <path
         style="display:inline"
         inkscape:connector-curvature="0"
         display="inline"
         d="m 58.7,50.8 c -3.8,-0.3 -2.6,2.4 -1.6,3.2 1,0.8 18.9,13.8 20.3,13.9 1.5,0.1 3.2,-0.2 4.7,-4 1.5,-3.9 2.8,-9.2 1.4,-10.2 -1.3,-1.1 -21,-2.6 -24.8,-2.9 z"
         id="path4218" />
      <path
         style="display:inline"
         inkscape:connector-curvature="0"
         display="inline"
         d="M 50.2,5 C 25.6,5 5.5,25 5.5,49.7 c 0,24.6 20,44.7 44.7,44.7 24.6,0 44.7,-20 44.7,-44.7 C 94.9,25 74.8,5 50.2,5 Z m 0,87 C 29.7,92 8.9,73 8.9,49.7 8.9,26.3 27.8,8.4 51.2,8.4 74.6,8.4 92.5,26.3 92.5,49.7 92.5,73 70.7,92 50.2,92 Z"
         id="path4220" />
      <path
         style="display:inline"
         inkscape:connector-curvature="0"
         display="inline"
         d="m 54.1,55.4 c 0.3,1.4 5.5,25.1 6.8,26.1 1.3,1 4.8,-0.2 8,-2.2 3.5,-2.2 5.5,-4.2 5.5,-6.4 0,-2.2 -17.1,-17.5 -18.2,-18.4 -1,-1 -2.4,-0.4 -2.1,0.9 z"
         id="path4222" />
      <path
         style="display:inline"
         inkscape:connector-curvature="0"
         display="inline"
         d="m 53.1,56 c -0.4,-1.5 -1.9,-1.5 -2.2,-0.7 -0.3,0.8 -7.8,24.4 -7.8,26.5 0,2.1 3,2.8 7,2.8 4.1,0 7.5,-1.8 7.5,-3.1 C 57.6,80.2 56,68.8 56,68.8 56,68.8 53.5,57.6 53.1,56 Z"
         id="path4224" />
    </g>
    <g
       id="g4203"
       transform="matrix(0.59430752,0,0,0.55137159,-26.566911,952.34173)">
      <g
         id="g4187"
         transform="matrix(-0.52939637,0,0,0.54277366,147.52469,70.950987)">
        <path
           id="path4189"
           d="m 185.4,144.732 c -1.746,-1.939 -4.35,-0.52 -4.35,-0.52 0.475,-4.462 0.776,-9.86 -1.924,-13.688 -1.532,-2.169 -3.435,-2.485 -4.798,-2.354 2.44,13.155 -0.69,25.753 -3.165,31.322 -1.826,4.11 -4.122,7.674 -6.802,10.645 18.773,-1.212 24.243,-21.844 21.039,-25.405 z"
           inkscape:connector-curvature="0"
           style="fill:#000000" />
        <path
           id="path4191"
           d="M 153.311,101.806 C 136.05,90.4 122.698,93.708 109.785,96.908 l -7.531,1.751 C 85.811,101.994 80.747,93.991 80.539,93.649 L 80.19,93.072 80.362,92.42 c 2.393,-9.005 -1.585,-15.309 -2.627,-16.757 0.832,-0.589 1.674,-1.232 2.521,-1.924 3.279,-2.676 6.633,-6.105 9.751,-10.118 9.605,-12.364 13.339,-25.536 8.334,-29.422 -4.999,-3.886 -16.843,2.985 -26.448,15.347 -3.915,5.041 -6.835,10.205 -8.604,14.83 -0.406,1.064 -0.77,2.105 -1.05,3.103 -6.363,-0.565 -12.101,1.063 -13.86,1.634 -9.015,2.923 -16.79,17.979 -16.914,18.215 -5.292,8.969 -6.073,12.025 -4.191,16.353 1.821,4.184 8.882,4.451 8.905,4.452 l 13.166,0 0.124,1.451 c 2.421,28.441 28.466,40.505 28.729,40.623 l 1.126,0.509 -0.216,1.214 c -0.023,0.135 -0.613,3.359 -3.404,10.54 -1.488,3.824 -3.151,4.384 -5.74,4.979 -1.13,0.259 -2.536,0.582 -4.384,1.436 -4.335,2 -5.444,5.688 -5.727,7.753 2.814,-0.007 17.762,-0.043 17.762,-0.043 5.752,0 8.126,-4.349 8.224,-4.535 l 0.032,-0.062 10.467,-16.512 1.395,1.616 c 6.875,7.961 13.606,10.082 13.673,10.101 l 4.579,1.396 -4.5,1.614 c -3.89,1.395 -4.888,4.77 -5.141,6.728 5.605,0.077 24.554,0.329 35.141,0.329 11.639,0 21.4,-6.948 26.784,-19.064 4.144,-9.33 10.294,-39.715 -14.958,-56.4 z"
           inkscape:connector-curvature="0"
           style="fill:#000000" />
      </g>
    </g>
    <g
       transform="matrix(0.24675324,0,0,0.25324675,17.009261,1023.1074)"
       style="display:inline;fill:#ffffff"
       id="g5"
       display="inline">
      <g
         id="g7"
         style="fill:#ffffff">
        <g
           id="g9"
           style="fill:#ffffff">
          <g
             id="g11"
             style="fill:#ffffff">
            <path
               inkscape:connector-curvature="0"
               style="fill:#ffffff"
               id="path13"
               d="m 26.766833,0.676 c -12.46,0.019 -25.6689997,14.895667 -25.6909997,27.358667 0.022,12.462 14.7934997,26.400166 27.2534997,26.421166 C 40.794333,54.434833 54.524167,40.081 54.543167,27.619 54.524167,15.155 39.231833,0.695 26.766833,0.676 Z M 21.551,37.977 l 0,-20.31 17.961,10.155 z" />
          </g>
        </g>
        <path
           inkscape:connector-curvature="0"
           style="fill:#ffffff"
           id="path15"
           d="M 27.498,0 C 12.311,0 0,12.313 0,27.5 0,42.688 12.311,55 27.498,55 42.686,55 55,42.688 55,27.5 55,12.313 42.686,0 27.498,0 Z M 27.496,52.646 C 13.67,52.646 2.463,41.437 2.461,27.613 2.463,13.787 13.67,2.577 27.496,2.574 41.322,2.577 52.531,13.787 52.535,27.612 52.531,41.437 41.322,52.646 27.496,52.646 Z" />
      </g>
    </g>
  </g>
</svg>
