<?xml version="1.0" encoding="UTF-8" standalone="no"?>
<!-- Created with Inkscape (http://www.inkscape.org/) -->

<svg
   xmlns:dc="http://purl.org/dc/elements/1.1/"
   xmlns:cc="http://creativecommons.org/ns#"
   xmlns:rdf="http://www.w3.org/1999/02/22-rdf-syntax-ns#"
   xmlns:svg="http://www.w3.org/2000/svg"
   xmlns="http://www.w3.org/2000/svg"
   version="1.0"
   width="55"
   height="55"
   id="svg2"><metadata
   id="metadata11">
  <rdf:RDF>
    <cc:Work
       rdf:about="">
      <dc:format>image/svg+xml</dc:format>
      <dc:type
         rdf:resource="http://purl.org/dc/dcmitype/StillImage" />
      <dc:title></dc:title>
    </cc:Work>
  </rdf:RDF>
</metadata>
<defs
   id="defs5" />



`  <path
   d="m 31.775304,29.841237 c 0,5.115899 -4.800486,9.263154 -10.722186,9.263154 -5.9217,0 -10.722186,-4.147255 -10.722186,-9.263154 0,-5.115899 4.800486,-9.263155 10.722186,-9.263155 5.9217,0 10.722186,4.147256 10.722186,9.263155 l 0,0 z"
   id="path3173"
   style="fill:#decd87;fill-opacity:1;stroke:none" />
<path
   d="m 35.25367,25.624148 c 3.472045,1.460329 4.425547,7.069179 2.129707,12.527718 -2.29584,5.458539 -6.971634,8.699729 -10.443679,7.239401 C 23.467653,43.930939 22.51415,38.322089 24.80999,32.863549 27.10583,27.40501 31.781625,24.16382 35.25367,25.624148 l 0,0 z"
   id="path3177"
   style="fill:#decd87;fill-opacity:1;stroke:none" />
<path
   d="m 34.55813,18.216351 c -0.870421,1.378542 -4.568961,0.606319 -8.260921,-1.724808 -3.69196,-2.331128 -5.979269,-5.338409 -5.108848,-6.7169512 0.870421,-1.3785421 4.568961,-0.6063192 8.260921,1.7248082 3.69196,2.331127 5.979269,5.338409 5.108848,6.716951 l 0,0 z"
   id="path3179"
   style="fill:#decd87;fill-opacity:1;stroke:none" />
<path
   d="m 12.645321,32.900414 c 0,0 0.724308,-4.493477 1.845036,-5.893334 0.937414,-1.170893 2.831282,-2.089789 4.232729,-2.28517 1.1214,-0.156338 2.681328,0.276975 3.690071,0.841905 1.172864,0.656844 2.555161,2.015409 3.255945,3.247347 1.104289,1.941279 1.414096,5.121035 1.953568,7.336598 0.427909,1.757393 0.319543,4.434897 1.302377,5.893333 0.811962,1.20488 2.57307,2.250462 3.907135,2.525718 2.010229,0.414768 4.687759,-1.336776 6.728954,-1.202724 0.946485,0.06216 2.553919,0.05931 3.038883,0.962179 0.307078,0.571691 -0.019,1.684262 -0.434127,2.164892 -1.561887,1.808348 -5.044651,1.745846 -7.271611,2.164902 -1.738148,0.327068 -4.24188,1.254975 -5.860703,0.48109 -2.465309,-1.178563 -3.500843,-5.904626 -5.643638,-7.697418 -0.395795,-0.331146 -1.028587,-0.6432 -1.519441,-0.721632 -1.363056,-0.217797 -3.19141,0.787128 -4.558324,0.601361 -1.002357,-0.136224 -2.311487,-0.695076 -3.147411,-1.322992 -1.316208,-0.98869 -2.959135,-2.708297 -3.581543,-4.329797 -0.6129374,-1.596837 -0.431196,-4.041714 -0.325596,-5.773061 0.05598,-0.917811 0.209415,-2.164278 0.542659,-3.006802 0.53335,-1.348444 1.554892,-3.066731 2.604758,-3.968979 1.466791,-1.260554 3.906999,-2.302054 5.752169,-2.525714 1.835778,-0.222524 4.306537,0.503272 6.077765,1.082448 1.705879,0.557809 3.651853,2.516042 5.426575,2.645987 1.048734,0.07679 2.708931,-0.172057 3.364477,-1.08245 0.345837,-0.48028 0.386053,-1.512682 0.108529,-2.044625 -0.619486,-1.18741 -2.503062,-1.656165 -3.690072,-2.044626 -1.131064,-0.370152 -2.757994,-0.187159 -3.907133,-0.481089 -0.943264,-0.241269 -2.175085,-0.718414 -3.038883,-1.202721 -1.402077,-0.7861 -3.329055,-1.91548 -4.341261,-3.247346 -0.919998,-1.210539 -2.607072,-3.40363 -1.953568,-4.8108834 0.07597,-0.16359 0.378658,-0.091663 0.542658,-0.1202724 0.841797,-0.1468476 2.416165,0.46967 2.82182,-0.360816 0.381233,-0.7804845 -1.668569,-1.9312261 -1.193847,-2.6459868 0.958234,-1.4427506 3.74551,0.5470496 5.318044,0.9621768 1.262167,0.3331948 2.954161,0.8218178 4.124198,1.4432663 1.905543,1.0121006 4.305118,2.7449165 5.860701,4.3297945 1.347602,1.372979 2.236186,4.234907 3.798604,5.291973 0.708502,0.479342 1.940723,0.26483 2.713287,0.601361 0.462548,0.201484 0.994565,0.661404 1.41091,0.962175 0.960864,0.694136 2.362448,1.478651 3.147414,2.405442 0.649644,0.76702 0,0.120272 1.627972,3.006803 1.627973,2.88653 1.688939,0.366435 2.062099,2.525714 0,0 -0.36369,1.701078 -0.75972,2.28517 -0.461599,0.680796 -1.344935,1.37798 -2.062099,1.683809 -0.305387,0.13023 -0.767802,0.207934 -1.085315,0.120272 -0.455651,-0.1258 -0.847875,-0.831373 -1.302378,-0.962176 -0.790369,-0.227462 -1.897791,0.287254 -2.713287,0.240544 -0.892862,-0.05114 -2.168813,-0.08231 -2.930352,-0.60136 -0.732189,-0.499052 -1.340723,-1.680111 -1.736504,-2.525715 -0.298699,-0.638184 -0.01001,-2.394693 -0.651189,-2.28517 -0.03217,0.0055 0,0.120273 0,0.120273 m 2.930351,4.931156 c 0,0 -0.758329,3.382436 -1.085316,4.831503 -0.291792,1.293097 -0.428838,3.122607 -0.976783,4.309176 -0.736874,1.595694 -3.473009,4.570343 -3.473009,4.570343 M 32.94071,36.027489 c 0,0 -0.857501,2.276201 -1.41091,3.127074 -0.592319,0.910698 -2.00003,1.608842 -2.387693,2.645986 -0.01246,0.03333 0,0.120272 0,0.120272 m -4.341261,1.924355 c 0,0 -2.810636,0.102229 -4.015665,0.120268 -0.781354,0.01171 -2.079051,-0.640693 -2.604758,0 -0.462075,0.563145 -0.14528,1.879106 0.217067,2.525714 0.424238,0.757054 1.509599,1.304962 2.279162,1.563536 0.904139,0.303785 2.205122,0.19632 3.147411,0.120277 1.089193,-0.0879 3.581539,-0.721634 3.581539,-0.721634 M 10.474689,28.330074 c 0,0 -2.4004836,-3.155331 -3.6900726,-2.766259 -0.7307161,0.220459 -0.9316257,1.70394 -1.0853139,2.525715 -0.1851296,0.989894 -0.2125754,2.421387 0.1085333,3.367619 0.3991607,1.17623 1.4449573,2.548952 2.3876904,3.247346 0.5652008,0.41871 1.4979763,0.612229 2.1706318,0.721633 0.03221,0.0053 0.10853,0 0.10853,0 M 35.545469,17.986673 c 0,0 -3.440642,-4.656185 -5.318044,-6.133876 C 28.825801,10.749586 26.678762,9.6989096 25.017912,9.2068106 23.659527,8.8043292 20.351059,8.7257222 20.351059,8.7257222 M 41.94883,24.72191 c 0.311481,0.319646 1.21444,0.296762 1.410909,-0.120271 0.297197,-0.630844 -0.589174,-1.592808 -1.085315,-2.044627 -0.533034,-0.485413 -1.644907,-1.337011 -2.17063,-0.841904 -0.428294,0.403352 -0.223163,1.909898 0.325593,2.044626 0.388031,0.09526 0.368006,-1.128247 0.759722,-1.202722 0.276053,-0.05248 0.631558,0.325377 0.759721,0.601361 0.193681,0.417075 -0.310565,1.244834 0,1.563537 z m -0.108528,-0.120271 c 0,0 0,0 0,0 z"
   id="path2384"
   style="fill:#decd87;fill-opacity:1;fill-rule:evenodd;stroke:#000000;stroke-width:1.12500012px;stroke-linecap:round;stroke-linejoin:miter;stroke-opacity:1" />
<path
   d="m 20.931244,11.60921 c 0,0 4.454014,0.221203 6.379037,1.210345 1.701054,0.874059 4.151583,3.960106 4.151583,3.960106 0,0 -3.982794,-0.320022 -5.743124,-1.167013 -1.874564,-0.901956 -4.787496,-4.003438 -4.787496,-4.003438 z"
   id="path2987"
   style="fill:#ffd5d5;stroke:#ffd5d5;stroke-width:1px;stroke-linecap:butt;stroke-linejoin:miter;stroke-opacity:1" />
<path
   d="M 9.7798508,34.702741 C 9.0189389,34.551573 8.365148,34.158382 7.8145249,33.662085 7.1944515,33.10319 6.6798004,32.375322 6.4198293,31.582057 6.02577,30.37964 6.0118783,29.030729 6.2577075,27.789497 c 0.1629443,-0.822733 0.6289427,-1.702919 0.6289427,-1.702919 0,0 0.8488559,-0.123658 2.9543965,2.286045 0,0 -0.1726004,1.865957 -0.1871125,2.801886 -0.018245,1.176685 0.022834,1.771652 0.1259166,3.528232 z"
   id="path3757"
   style="fill:#ffffff;stroke:none" />
</svg>
