<?xml version="1.0" encoding="UTF-8" standalone="no"?>
<svg
   xmlns:dc="http://purl.org/dc/elements/1.1/"
   xmlns:cc="http://creativecommons.org/ns#"
   xmlns:rdf="http://www.w3.org/1999/02/22-rdf-syntax-ns#"
   xmlns:svg="http://www.w3.org/2000/svg"
   xmlns="http://www.w3.org/2000/svg"
   id="svg4"
   version="1.1"
   height="55"
   width="55">
  <metadata
     id="metadata10">
    <rdf:RDF>
      <cc:Work
         rdf:about="">
        <dc:format>image/svg+xml</dc:format>
        <dc:type
           rdf:resource="http://purl.org/dc/dcmitype/StillImage" />
        <dc:title></dc:title>
      </cc:Work>
    </rdf:RDF>
  </metadata>
  <defs
     id="defs8">
    <marker
       style="overflow:visible"
       id="Arrow1Mend"
       refX="0"
       refY="0"
       orient="auto">
      <path
         transform="matrix(-0.4,0,0,-0.4,-4,0)"
         style="fill:#000000;fill-opacity:1;fill-rule:evenodd;stroke:#000000;stroke-width:1.00000003pt;stroke-opacity:1"
         d="M 0,0 5,-5 -12.5,0 5,5 Z"
         id="path4498" />
    </marker>
    <marker
       style="overflow:visible"
       id="Arrow1Mstart"
       refX="0"
       refY="0"
       orient="auto">
      <path
         transform="matrix(0.4,0,0,0.4,4,0)"
         style="fill:#000000;fill-opacity:1;fill-rule:evenodd;stroke:#000000;stroke-width:1.00000003pt;stroke-opacity:1"
         d="M 0,0 5,-5 -12.5,0 5,5 Z"
         id="path4495" />
    </marker>
    <marker
       style="overflow:visible"
       id="Arrow1Mstart-3"
       refX="0"
       refY="0"
       orient="auto">
      <path
         transform="matrix(0.4,0,0,0.4,4,0)"
         style="fill:#000000;fill-opacity:1;fill-rule:evenodd;stroke:#000000;stroke-width:1.00000003pt;stroke-opacity:1"
         d="M 0,0 5,-5 -12.5,0 5,5 Z"
         id="path4495-6" />
    </marker>
    <marker
       style="overflow:visible"
       id="Arrow1Mend-7"
       refX="0"
       refY="0"
       orient="auto">
      <path
         transform="matrix(-0.4,0,0,-0.4,-4,0)"
         style="fill:#000000;fill-opacity:1;fill-rule:evenodd;stroke:#000000;stroke-width:1.00000003pt;stroke-opacity:1"
         d="M 0,0 5,-5 -12.5,0 5,5 Z"
         id="path4498-5" />
    </marker>
  </defs>
  <g
     transform="matrix(1.1282051,0,0,1.1282051,-3.5256408,-3.5256402)"
     id="g4520">
    <path
       d="m 10.036677,18.75 c 0.95484,-1.440868 3.637101,-1.40644 5.000001,0 v 15.625 c 0.833334,1.666666 1.666666,1.666666 2.5,0 v -30 c 1.666666,-1.6666667 3.333334,-1.6666667 5,0 v 22.5 c 0.833334,1.666666 1.666666,1.666666 2.5,0 v -22.5 c 1.666666,-1.6666667 3.333334,-1.6666667 5,0 v 22.5 c 0.833334,1.666666 1.666666,1.666666 2.5,0 v -22.5 c 1.666666,-1.6666667 3.333334,-1.6666667 5,0 v 22.5 c 0.833334,1.666666 1.666666,1.666666 2.5,0 v -16.25 c 1.666666,-1.666666 3.333334,-1.666666 5,0 v 31.25 c 0,5.833334 -2.5,9.166666 -7.5,10 h -20 c -5,0 -7.500001,-3.333334 -7.500001,-10 0,0 -0.1650466,-21.562626 0,-23.125 z"
       style="fill:#ffffff;stroke:none;stroke-width:1.25;stroke-opacity:1"
       id="path2" />
    <path
       style="fill:none;stroke:#000000;stroke-width:1.34122396px;stroke-linecap:butt;stroke-linejoin:miter;stroke-opacity:1;marker-start:url(#Arrow1Mstart);marker-end:url(#Arrow1Mend)"
       d="M 13.127387,32.5 H 41.872612"
       id="path4487" />
    <path
       style="fill:none;stroke:#000000;stroke-width:1.34122396px;stroke-linecap:butt;stroke-linejoin:miter;stroke-opacity:1;marker-start:url(#Arrow1Mstart-3);marker-end:url(#Arrow1Mend-7)"
       d="M 27.5,18.127388 V 46.872613"
       id="path4487-3" />
  </g>
</svg>
