<?xml version="1.0" encoding="UTF-8" standalone="no"?>
<!-- Created with Inkscape (http://www.inkscape.org/) -->

<svg
   xmlns:dc="http://purl.org/dc/elements/1.1/"
   xmlns:cc="http://creativecommons.org/ns#"
   xmlns:rdf="http://www.w3.org/1999/02/22-rdf-syntax-ns#"
   xmlns:svg="http://www.w3.org/2000/svg"
   xmlns="http://www.w3.org/2000/svg"
   version="1.0"
   width="55"
   height="55"
   id="svg2">
  <metadata
     id="metadata9">
    <rdf:RDF>
      <cc:Work
         rdf:about="">
        <dc:format>image/svg+xml</dc:format>
        <dc:type
           rdf:resource="http://purl.org/dc/dcmitype/StillImage" />
        <dc:title></dc:title>
      </cc:Work>
    </rdf:RDF>
  </metadata>
  <defs
     id="defs6" />
  <path
     d="m 6.03211,25.848624 0,-6.605504 a 6.6055046,6.6055046 0 0 1 6.605505,-6.605505 l 6.605504,0 0,3.302753 16.513762,0 0,-3.302753 6.605504,0 a 6.6055046,6.6055046 0 0 1 6.605505,6.605505 l 0,6.605504 0,6.605505 a 6.6055046,6.6055046 0 0 1 -6.605505,6.605505 l -6.605504,0 -1.651376,0 0,3.302752 -13.21101,0 0,-3.302752 -1.651376,0 -6.605504,0 A 6.6055046,6.6055046 0 0 1 6.03211,32.454129 l 0,-6.605505 z"
     id="path2882"
     style="fill:#404040;fill-opacity:1;stroke:#ffffff;stroke-width:2.06422019;stroke-linecap:square;stroke-miterlimit:4;stroke-opacity:1;stroke-dasharray:none" />
  <path
     d="M 4.4354839,42.564516 50.564516,12.435484"
     id="path2988"
     style="fill:#ff0000;stroke:#ffffff;stroke-width:5.87096786;stroke-linecap:round;stroke-linejoin:miter;stroke-miterlimit:4;stroke-opacity:1;stroke-dasharray:none" />
</svg>
