<?xml version="1.0" encoding="UTF-8" standalone="no"?>
<svg
   xmlns:dc="http://purl.org/dc/elements/1.1/"
   xmlns:cc="http://creativecommons.org/ns#"
   xmlns:rdf="http://www.w3.org/1999/02/22-rdf-syntax-ns#"
   xmlns:svg="http://www.w3.org/2000/svg"
   xmlns="http://www.w3.org/2000/svg"
   id="svg2"
   height="55"
   width="55"
   version="1.0">
  <metadata
     id="metadata9">
    <rdf:RDF>
      <cc:Work
         rdf:about="">
        <dc:format>image/svg+xml</dc:format>
        <dc:type
           rdf:resource="http://purl.org/dc/dcmitype/StillImage" />
        <dc:title></dc:title>
      </cc:Work>
    </rdf:RDF>
  </metadata>
  <defs
     id="defs6" />
  <path
     id="path2882"
     d="M 10.986328 10.986328 C 6.9328616 10.986328 3.6464842 14.272705 3.6464844 18.326172 L 3.6464844 25.666016 L 3.6464844 33.003906 C 3.6464842 37.057372 6.9328616 40.34375 10.986328 40.34375 L 13.880859 40.34375 L 15.716797 40.34375 L 15.716797 44.013672 L 30.394531 44.013672 L 30.394531 40.34375 L 32.230469 40.34375 L 44.013672 40.34375 C 48.067139 40.34375 51.353516 37.057372 51.353516 33.003906 L 51.353516 25.666016 L 51.353516 18.326172 C 51.353516 14.272705 48.067139 10.986328 44.013672 10.986328 L 32.230469 10.986328 L 32.230469 14.65625 L 13.880859 14.65625 L 13.880859 10.986328 L 10.986328 10.986328 z M 15.585938 21.423828 C 21.35983 21.423828 26.169922 27.181641 26.169922 27.181641 C 26.169922 27.181641 21.360452 32.966008 15.585938 32.962891 C 9.8120463 32.958485 5 27.173828 5 27.173828 C 5 27.173828 9.8114221 21.419464 15.585938 21.423828 z M 15.619141 21.939453 A 5.128747 5.1287465 0 0 0 10.490234 27.068359 A 5.128747 5.1287465 0 0 0 15.619141 32.197266 A 5.128747 5.1287465 0 0 0 20.746094 27.068359 A 5.128747 5.1287465 0 0 0 15.619141 21.939453 z M 15.585938 23.144531 C 17.821917 23.144531 19.634766 24.961743 19.634766 27.193359 C 19.634766 29.428092 17.821295 31.244141 15.585938 31.244141 C 13.353075 31.244141 11.539062 29.428092 11.539062 27.193359 C 11.539063 24.961743 13.353075 23.144531 15.585938 23.144531 z M 31.523438 25.169922 C 32.791964 26.091309 37.05762 28.986494 39.419922 28.988281 C 41.781969 28.988281 46.181548 26.356207 47.572266 25.267578 C 48.069234 25.747344 48.121152 25.789588 48.1875 25.845703 C 48.187707 25.845455 48.201172 25.830078 48.201172 25.830078 C 48.201172 25.830078 48.292509 25.934516 48.1875 25.845703 C 48.147423 25.893751 44.241388 30.563084 39.541016 30.560547 C 34.816923 30.556947 30.878906 25.824219 30.878906 25.824219 C 30.878906 25.824219 30.163028 26.484371 31.523438 25.169922 z M 15.585938 25.357422 A 1.8369206 1.8369206 0 0 0 13.748047 27.195312 A 1.8369206 1.8369206 0 0 0 15.585938 29.03125 A 1.8369206 1.8369206 0 0 0 17.421875 27.195312 A 1.8369206 1.8369206 0 0 0 15.585938 25.357422 z M 34.791016 29.232422 L 33.419922 31.427734 L 34.791016 29.232422 z M 43.921875 29.355469 L 45.292969 31.550781 L 43.921875 29.355469 z "
     style="fill:#ffffff;fill-opacity:1;stroke:none;stroke-width:2.29357791;stroke-linecap:square;stroke-miterlimit:4;stroke-dasharray:none;stroke-opacity:1" />
</svg>
