<svg width="13" height="13" version="1.1" viewBox="0 0 3.4396 3.4396" xmlns="http://www.w3.org/2000/svg"><g transform="translate(0 -293.56)" fill="#fff" stroke-width=".17707"><path d="m3.3835 296.68-0.72651-0.74861h0.39374a0.18033 0.18626 0 1 0 0-0.37252h-0.82059a0.18816 0.19435 0 0 0-0.19338 0.17995v0.0109 0.835a0.18119 0.18715 0 1 0 0.36238 0v-0.39411l0.72999 0.75402a0.17422 0.17996 0 0 0 0.25437 0 0.17422 0.17996 0 0 0 0-0.26454z" style="isolation:isolate"/><path d="m1.3991 295.74a0.18816 0.19435 0 0 0-0.19339-0.17995h-0.82058a0.18032 0.18625 0 1 0 0 0.3725h0.392l-0.72477 0.74322a0.1811 0.18706 0 0 0 0.25611 0.26453l0.72825-0.75401v0.4067a0.18119 0.18715 0 1 0 0.36238 0v-0.835-0.0109a0.013938 0.014397 0 0 1 0-7e-3z" style="isolation:isolate"/><path d="m2.2301 295h0.81885a0.18119 0.18716 0 1 0 0-0.3743h-0.392l0.72651-0.74862a0.17422 0.17996 0 0 0 0-0.26454 0.17422 0.17996 0 0 0-0.25437 0l-0.72999 0.75762v-0.4103a0.18119 0.18715 0 1 0-0.36238 0v0.835a0.074916 0.077381 0 0 0 0 9e-3v9e-3a0.1899 0.19615 0 0 0 0.19338 0.18715z" style="isolation:isolate"/><path d="m1.2179 293.77a0.18816 0.19435 0 0 0-0.17423 0.19614v0.41211l-0.72825-0.75402a0.17422 0.17996 0 0 0-0.2561 0 0.17422 0.17996 0 0 0 0 0.26274l0.72476 0.75042h-0.39897a0.18119 0.18716 0 1 0 0 0.37431h0.82058a0.1899 0.19615 0 0 0 0.19339-0.17996v-0.0109-0.85479a0.18642 0.19255 0 0 0-0.18119-0.19611z" style="isolation:isolate"/></g></svg>
