<?xml version="1.0" encoding="UTF-8" standalone="no"?>
<svg
   xmlns:dc="http://purl.org/dc/elements/1.1/"
   xmlns:cc="http://creativecommons.org/ns#"
   xmlns:rdf="http://www.w3.org/1999/02/22-rdf-syntax-ns#"
   xmlns:svg="http://www.w3.org/2000/svg"
   xmlns="http://www.w3.org/2000/svg"
   id="svg4267"
   y="0px"
   xml:space="preserve"
   x="0px"
   width="55px"
   viewBox="0 0 55 55"
   version="1.1"
   height="55px"
   enable-background="new 0 0 55 55"><metadata
     id="metadata4284"><rdf:RDF><cc:Work
         rdf:about=""><dc:format>image/svg+xml</dc:format><dc:type
           rdf:resource="http://purl.org/dc/dcmitype/StillImage" /><dc:title></dc:title></cc:Work></rdf:RDF></metadata><defs
     id="defs4282" /><g
     id="g4907"><polyline
       points="    31.046,28.818 23.233,22.229 31.046,15.639   "
       id="polyline4272"
       style="fill:none;stroke:#000000;stroke-width:3.5;stroke-linecap:round;stroke-linejoin:round"
       transform="matrix(-1.0705874,0,0,1.0705874,50.940618,-1.9326118)" /><path
       d="m 24.067661,21.865476 -8.058811,0 c -5.024267,0 -9.1353223,4.112126 -9.1353223,9.136392 0,5.025338 4.1110553,9.136393 9.1353223,9.136393 l 12.058812,0"
       id="path4274"
       style="fill:none;stroke:#000000;stroke-width:3.74705601;stroke-linecap:round" /><g
       id="g4276"
       transform="matrix(-1.0705874,0,0,1.0705874,56.940618,-1.9326118)"><path
         d="m 26.969267,39.361 -10.203267,0 c -4.693,0 -8.533,-3.84 -8.533,-8.534 0,-4.693 3.84,-8.533 8.533,-8.533 l 6.1534,0"
         id="path4278"
         style="fill:none;stroke:#000000;stroke-width:3.5;stroke-linecap:round" /></g><polyline
       transform="matrix(1.0705874,0,0,1.0705874,4.9700045,-1.9326118)"
       style="display:inline;fill:none;stroke:#000000;stroke-width:3.5;stroke-linecap:round;stroke-linejoin:round"
       id="polyline4272-3"
       points="    31.046,28.818 23.233,22.229 31.046,15.639   " /></g></svg>