<?xml version="1.0" encoding="UTF-8" standalone="no"?>
<svg
   width="55"
   height="55"
   viewBox="0 0 55 55"
   fill="none"
   version="1.1"
   xmlns="http://www.w3.org/2000/svg">
  <g>
    <!-- Note symbol -->
    <path
       d="M 25,10 V 35 C 25,38 22,40 19,40 16,40 13,38 13,35 13,32 16,30 19,30 20.5,30 22,30.5 23,31.5 V 15 L 35,12 V 30 C 35,33 32,35 29,35 26,35 23,33 23,30 23,27 26,25 29,25 30.5,25 32,25.5 33,26.5 V 10 Z"
       fill="#000000" />
    <!-- Cent symbol -->
    <text
       x="38"
       y="22"
       font-family="Arial"
       font-size="14"
       font-weight="bold"
       fill="#000000">¢</text>
    <!-- Slider line -->
    <line
       x1="15"
       y1="45"
       x2="40"
       y2="45"
       stroke="#000000"
       stroke-width="2" />
    <!-- Slider thumb -->
    <circle
       cx="27.5"
       cy="45"
       r="4"
       fill="#000000" />
    <!-- Plus sign -->
    <text
       x="40"
       y="48"
       font-family="Arial"
       font-size="10"
       font-weight="bold"
       fill="#000000">+</text>
    <!-- Minus sign -->
    <text
       x="12"
       y="48"
       font-family="Arial"
       font-size="12"
       font-weight="bold"
       fill="#000000">-</text>
  </g>
</svg> 