<?xml version="1.0" encoding="UTF-8" standalone="no"?>
<svg
   xmlns:dc="http://purl.org/dc/elements/1.1/"
   xmlns:cc="http://creativecommons.org/ns#"
   xmlns:rdf="http://www.w3.org/1999/02/22-rdf-syntax-ns#"
   xmlns:svg="http://www.w3.org/2000/svg"
   xmlns="http://www.w3.org/2000/svg"
   id="svg8"
   version="1.1"
   viewBox="0 0 14.552083 14.552083"
   height="55"
   width="55">
  <defs
     id="defs2" />
  <metadata
     id="metadata5">
    <rdf:RDF>
      <cc:Work
         rdf:about="">
        <dc:format>image/svg+xml</dc:format>
        <dc:type
           rdf:resource="http://purl.org/dc/dcmitype/StillImage" />
        <dc:title></dc:title>
      </cc:Work>
    </rdf:RDF>
  </metadata>
  <g
     transform="translate(-224.05668,-92.55687)"
     id="layer1">
    <path
       id="path881"
       d="m 226.24175,106.79388 c -0.20228,-0.0699 -0.32246,-0.17272 -0.40927,-0.35015 -0.0585,-0.11961 -0.0754,-0.19281 -0.0742,-0.32205 9.5e-4,-0.10185 0.25429,-1.44731 0.64781,-3.44031 0.35545,-1.80017 0.90544,-4.591848 1.22219,-6.20372 0.31675,-1.611873 0.5947,-2.980893 0.61767,-3.042266 0.0624,-0.166725 0.18743,-0.32141 0.35082,-0.433942 0.25607,-0.176361 0.28837,-0.179604 1.79164,-0.179967 1.31374,-3.17e-4 1.35305,0.0013 1.531,0.05963 0.24,0.07879 0.46514,0.281181 0.56453,0.507501 0.05,0.113775 0.1955,0.800409 0.51683,2.438543 0.246,1.254098 0.45382,2.279698 0.46183,2.279113 0.0132,-9.51e-4 0.98975,-1.747064 1.00861,-1.803438 0.004,-0.0132 -0.0471,-0.05629 -0.11441,-0.09575 -0.15576,-0.09129 -0.23599,-0.193387 -0.23599,-0.300335 0,-0.1096 0.62382,-1.920034 0.69102,-2.005468 0.0283,-0.03596 0.0982,-0.0794 0.15541,-0.09654 0.11719,-0.03511 0.18095,-0.01239 0.53875,0.191917 l 0.19373,0.110629 0.12829,-0.230387 c 0.0706,-0.126713 0.16067,-0.255862 0.20026,-0.286999 0.13123,-0.103226 0.36806,-0.0554 0.4459,0.09005 0.0579,0.108206 0.0218,0.28281 -0.104,0.503002 -0.0621,0.108754 -0.11267,0.207356 -0.11228,0.219116 3.1e-4,0.01176 0.12671,0.08978 0.28074,0.17337 0.23243,0.126148 0.28879,0.169675 0.33151,0.256029 0.0434,0.08774 0.0466,0.119709 0.0205,0.204075 -0.0359,0.115971 -1.21996,1.579517 -1.33835,1.654245 -0.10509,0.06633 -0.2046,0.06002 -0.36923,-0.0234 -0.12766,-0.06469 -0.14413,-0.06728 -0.17341,-0.02723 -0.0923,0.126164 -1.35447,2.424914 -1.35447,2.46676 0,0.027 0.30197,1.583382 0.67104,3.458632 0.36907,1.87524 0.67104,3.47147 0.67104,3.54717 0,0.22165 -0.0521,0.34853 -0.20729,0.50465 -0.24535,0.24685 0.11425,0.22835 -4.41966,0.22733 -3.75517,-7.9e-4 -3.99528,-0.004 -4.12858,-0.0498 z m 8.12294,-0.61717 c 0.0242,-0.0292 -0.0348,-0.37362 -0.25649,-1.49694 -0.15838,-0.80247 -0.2912,-1.46168 -0.29516,-1.46492 -0.004,-0.003 -0.10416,-0.0272 -0.22266,-0.0532 -0.40092,-0.0879 -0.65638,-0.21945 -1.38937,-0.71536 -0.47791,-0.32333 -0.642,-0.41641 -0.91574,-0.51945 -0.50845,-0.19138 -1.18217,-0.20503 -1.71111,-0.0347 -0.28339,0.0913 -0.52496,0.22458 -1.09054,0.60182 -0.70801,0.47224 -1.02666,0.62618 -1.4346,0.69305 -0.0618,0.0101 -0.10661,0.0348 -0.11518,0.0636 -0.008,0.0258 -0.13933,0.6848 -0.2925,1.46437 -0.22648,1.15274 -0.27211,1.42507 -0.24437,1.45849 0.03,0.0362 0.50595,0.0411 3.98518,0.0411 3.33179,0 3.95601,-0.006 3.98254,-0.0379 z m -6.93198,-3.77088 c 0.12526,-0.0589 0.35944,-0.19596 0.5204,-0.30458 0.16096,-0.10862 0.38744,-0.26111 0.50328,-0.33887 0.42538,-0.28554 0.89744,-0.48736 1.3095,-0.55984 0.0979,-0.0172 0.20576,-0.0369 0.23966,-0.0437 0.0598,-0.012 0.0616,-0.0221 0.0616,-0.34051 v -0.32815 h -0.26108 c -0.30479,0 -0.42806,-0.0404 -0.49031,-0.16082 -0.0545,-0.10529 -0.0545,-0.20302 0,-0.30832 0.0623,-0.120387 0.18552,-0.160818 0.49031,-0.160818 h 0.26108 v -0.917547 -0.917549 h -0.26291 c -0.30009,0 -0.42769,-0.04327 -0.49151,-0.16667 -0.0515,-0.09967 -0.0505,-0.198868 0.003,-0.30247 0.0623,-0.120388 0.18552,-0.160819 0.49031,-0.160819 h 0.26108 V 96.480679 95.56616 l -0.29443,-0.0107 c -0.22027,-0.008 -0.31235,-0.02267 -0.36554,-0.05819 -0.19408,-0.12962 -0.1679,-0.439383 0.0447,-0.528191 0.0584,-0.0244 0.19056,-0.03893 0.35424,-0.03893 h 0.26108 v -0.302645 c 0,-0.419515 0.0741,-0.546429 0.31897,-0.546429 0.0908,0 0.13203,0.01698 0.19557,0.08052 0.0973,0.0973 0.11542,0.177633 0.11542,0.511776 v 0.256777 h 0.26291 c 0.31358,0 0.4234,0.04091 0.49074,0.182811 0.0575,0.12125 0.0361,0.252476 -0.0563,0.344869 -0.0831,0.08314 -0.1707,0.102278 -0.46799,0.102278 h -0.22939 v 0.91755 0.917547 h 0.26291 c 0.31358,0 0.4234,0.04091 0.49074,0.182811 0.0575,0.121251 0.0361,0.252477 -0.0563,0.34487 -0.0831,0.08314 -0.1707,0.102278 -0.46799,0.102278 h -0.22939 v 0.917549 0.917547 h 0.26291 c 0.31358,0 0.4234,0.04091 0.49074,0.182812 0.0575,0.12125 0.0361,0.25248 -0.0563,0.34487 -0.0831,0.0831 -0.1707,0.10228 -0.46799,0.10228 h -0.22939 v 0.32815 c 0,0.31857 0.002,0.3285 0.0616,0.3399 0.37574,0.0716 0.55327,0.11418 0.7034,0.16867 0.0979,0.0355 0.17991,0.0621 0.18237,0.059 0.0626,-0.0781 1.32593,-2.395742 1.32593,-2.432592 0,-0.109752 -1.01556,-5.218428 -1.05436,-5.303857 -0.0223,-0.04906 -0.0807,-0.113724 -0.12988,-0.143693 -0.086,-0.05242 -0.14004,-0.05449 -1.42366,-0.05459 l -1.33428,-1.03e-4 -0.0955,0.08386 c -0.0525,0.04612 -0.10207,0.104665 -0.11009,0.1301 -0.0209,0.06619 -1.74096,8.809925 -1.74096,8.849855 0,0.0444 0.0723,0.022 0.35099,-0.1091 z m 6.2417,0.077 c -0.008,-0.0339 -0.1231,-0.61875 -0.25629,-1.29967 -0.13319,-0.68092 -0.25071,-1.2294 -0.26116,-1.218834 -0.0205,0.0207 -0.92487,1.641934 -0.94493,1.693874 -0.0114,0.0295 0.67029,0.51291 0.96078,0.68132 0.12175,0.0706 0.4348,0.20002 0.4922,0.20351 0.0129,7.9e-4 0.0172,-0.0263 0.009,-0.0602 z m 2.087,-6.989843 c 0.19631,-0.240298 0.35428,-0.439203 0.35104,-0.442012 -0.003,-0.0028 -0.20542,-0.116135 -0.44929,-0.251834 l -0.44339,-0.246724 -0.0307,0.08617 c -0.0169,0.04739 -0.10302,0.295696 -0.19135,0.551789 -0.0883,0.256092 -0.16851,0.485853 -0.17816,0.51058 -0.0137,0.03508 0.0385,0.07544 0.23759,0.183629 0.2401,0.130493 0.25786,0.135916 0.30125,0.09199 0.0254,-0.02567 0.20673,-0.243286 0.40304,-0.483582 z"
       style="fill:#000000;stroke-width:0.0273895" />
  </g>
</svg>
