<?xml version="1.0" encoding="UTF-8" standalone="no"?>
<!-- Created with Inkscape (http://www.inkscape.org/) -->

<svg
   xmlns:dc="http://purl.org/dc/elements/1.1/"
   xmlns:cc="http://creativecommons.org/ns#"
   xmlns:rdf="http://www.w3.org/1999/02/22-rdf-syntax-ns#"
   xmlns:svg="http://www.w3.org/2000/svg"
   xmlns="http://www.w3.org/2000/svg"
   xmlns:xlink="http://www.w3.org/1999/xlink"
   xmlns:sodipodi="http://sodipodi.sourceforge.net/DTD/sodipodi-0.dtd"
   xmlns:inkscape="http://www.inkscape.org/namespaces/inkscape"
   version="1.0"
   width="55"
   height="55"
   id="svg2"
   inkscape:version="0.91 r13725"
   sodipodi:docname="palette.svg">
  <sodipodi:namedview
     pagecolor="#ffffff"
     bordercolor="#666666"
     borderopacity="1"
     objecttolerance="10"
     gridtolerance="10"
     guidetolerance="10"
     inkscape:pageopacity="0"
     inkscape:pageshadow="2"
     inkscape:window-width="1366"
     inkscape:window-height="746"
     id="namedview10"
     showgrid="false"
     inkscape:zoom="12.136524"
     inkscape:cx="32.024537"
     inkscape:cy="28.880005"
     inkscape:window-x="-8"
     inkscape:window-y="-8"
     inkscape:window-maximized="1"
     inkscape:current-layer="svg2" />
  <metadata
     id="metadata11">
    <rdf:RDF>
      <cc:Work
         rdf:about="">
        <dc:format>image/svg+xml</dc:format>
        <dc:type
           rdf:resource="http://purl.org/dc/dcmitype/StillImage" />
        <dc:title />
      </cc:Work>
    </rdf:RDF>
  </metadata>
  <defs
     id="defs5">
    <linearGradient
       inkscape:collect="always"
       id="linearGradient5769">
      <stop
         style="stop-color:#d85941;stop-opacity:1"
         offset="0"
         id="stop5771" />
      <stop
         style="stop-color:#c76c5f;stop-opacity:1"
         offset="1"
         id="stop5773" />
    </linearGradient>
    <linearGradient
       inkscape:collect="always"
       id="linearGradient5651">
      <stop
         style="stop-color:#a661c7;stop-opacity:1"
         offset="0"
         id="stop5653" />
      <stop
         style="stop-color:#9300ff;stop-opacity:1"
         offset="1"
         id="stop5655" />
    </linearGradient>
    <linearGradient
       inkscape:collect="always"
       id="linearGradient5643">
      <stop
         style="stop-color:#000097;stop-opacity:1"
         offset="0"
         id="stop5645" />
      <stop
         style="stop-color:#7d0097;stop-opacity:1"
         offset="1"
         id="stop5647" />
    </linearGradient>
    <linearGradient
       inkscape:collect="always"
       id="linearGradient5627">
      <stop
         style="stop-color:#00ff00;stop-opacity:1;"
         offset="0"
         id="stop5629" />
      <stop
         style="stop-color:#00ff97;stop-opacity:0"
         offset="1"
         id="stop5631" />
    </linearGradient>
    <linearGradient
       inkscape:collect="always"
       id="linearGradient5619">
      <stop
         style="stop-color:#ffff00;stop-opacity:1;"
         offset="0"
         id="stop5621" />
      <stop
         style="stop-color:#b5d000;stop-opacity:1"
         offset="1"
         id="stop5623" />
    </linearGradient>
    <linearGradient
       inkscape:collect="always"
       id="linearGradient5611">
      <stop
         style="stop-color:#ffb100;stop-opacity:1;"
         offset="0"
         id="stop5613" />
      <stop
         style="stop-color:#f8ee00;stop-opacity:1"
         offset="1"
         id="stop5615" />
    </linearGradient>
    <linearGradient
       inkscape:collect="always"
       id="linearGradient5603">
      <stop
         style="stop-color:#ff0000;stop-opacity:1;"
         offset="0"
         id="stop5605" />
      <stop
         style="stop-color:#ff8850;stop-opacity:1"
         offset="1"
         id="stop5607" />
    </linearGradient>
    <linearGradient
       id="linearGradient3689">
      <stop
         id="stop3691"
         style="stop-color:#ffffff;stop-opacity:1"
         offset="0" />
      <stop
         id="stop3693"
         style="stop-color:#ffff00;stop-opacity:1"
         offset="1" />
    </linearGradient>
    <linearGradient
       x1="0"
       y1="19"
       x2="54"
       y2="19"
       id="linearGradient3695"
       xlink:href="#linearGradient3689"
       gradientUnits="userSpaceOnUse"
       gradientTransform="translate(0.5,8.5)" />
    <linearGradient
       inkscape:collect="always"
       xlink:href="#linearGradient5603"
       id="linearGradient5609"
       x1="36.932697"
       y1="30.613232"
       x2="30.2159"
       y2="31.52928"
       gradientUnits="userSpaceOnUse"
       gradientTransform="matrix(1.1408451,0,0,1.2592593,3.7600393,-5.4673102)" />
    <linearGradient
       inkscape:collect="always"
       xlink:href="#linearGradient5611"
       id="linearGradient5617"
       x1="30.954649"
       y1="22.035295"
       x2="28.44746"
       y2="27.112152"
       gradientUnits="userSpaceOnUse"
       gradientTransform="matrix(1.084507,0,0,1.4444445,2.8896597,-7.8920202)" />
    <linearGradient
       inkscape:collect="always"
       xlink:href="#linearGradient5627"
       id="linearGradient5633"
       x1="10.340689"
       y1="19.981735"
       x2="16.932362"
       y2="24.595907"
       gradientUnits="userSpaceOnUse"
       gradientTransform="matrix(1.2535212,0,0,1.3703704,0.9655407,-5.0874534)" />
    <linearGradient
       inkscape:collect="always"
       xlink:href="#linearGradient5643"
       id="linearGradient5649"
       x1="9.1871448"
       y1="30.281225"
       x2="15.037255"
       y2="30.281225"
       gradientUnits="userSpaceOnUse"
       gradientTransform="matrix(1.3943662,0,0,1.4814815,0.54570382,-13.541831)" />
    <linearGradient
       inkscape:collect="always"
       xlink:href="#linearGradient5651"
       id="linearGradient5657"
       x1="19.735096"
       y1="42.182064"
       x2="25.776331"
       y2="37.843739"
       gradientUnits="userSpaceOnUse"
       gradientTransform="matrix(1.3661972,0,0,1.7037037,-6.864392,-22.599881)" />
    <linearGradient
       inkscape:collect="always"
       xlink:href="#linearGradient5619"
       id="linearGradient5661"
       x1="26.160704"
       y1="13.225268"
       x2="25.913515"
       y2="22.618402"
       gradientUnits="userSpaceOnUse"
       gradientTransform="matrix(0.96774194,0,0,1.1184211,0.95286888,2.355245)" />
    <linearGradient
       inkscape:collect="always"
       xlink:href="#linearGradient5769"
       id="linearGradient5775"
       x1="41.15741"
       y1="124.59522"
       x2="283.69049"
       y2="124.59522"
       gradientUnits="userSpaceOnUse"
       gradientTransform="matrix(0.13283468,0,0,0.12481668,-11.15245,-16.004014)" />
    <linearGradient
       inkscape:collect="always"
       xlink:href="#linearGradient5769"
       id="linearGradient8384"
       x1="27.136059"
       y1="-16.386185"
       x2="31.873825"
       y2="-16.386185"
       gradientUnits="userSpaceOnUse"
       gradientTransform="matrix(1.9091139,0,0,2.0400868,-28.688302,29.062133)" />
  </defs>
  <path
     style="fill:#ffdd73;fill-opacity:1;fill-rule:evenodd;stroke:#ffd570;stroke-width:0.68900001;stroke-linecap:butt;stroke-linejoin:miter;stroke-miterlimit:4;stroke-dasharray:none;stroke-opacity:1"
     d="m 40.445016,38.835939 c 3.89429,4.347633 15.729755,20.33476 11.941361,-0.263574 C 47.707369,23.7086 46.50019,21.363202 35.186889,15.640309 -3.0698772,3.5729324 -7.785756,52.188165 29.172874,53.983981 43.864512,55.617113 32.533957,30.628553 41.327693,39.776663"
     id="path4745"
     inkscape:connector-curvature="0"
     sodipodi:nodetypes="ccccc" />
  <ellipse
     style="fill:url(#linearGradient5609);fill-opacity:1;fill-rule:evenodd;stroke:none;stroke-width:1px;stroke-linecap:butt;stroke-linejoin:miter;stroke-opacity:1"
     id="path4747"
     cx="43.381447"
     cy="33.494663"
     rx="3.3370347"
     ry="2.8014612" />
  <ellipse
     style="fill:url(#linearGradient5657);fill-opacity:1;fill-rule:evenodd;stroke:none;stroke-width:1px;stroke-linecap:butt;stroke-linejoin:miter;stroke-opacity:1"
     id="path4747-2"
     cx="22.741272"
     cy="46.678013"
     rx="3.996202"
     ry="3.7902122" />
  <ellipse
     style="fill:url(#linearGradient5649);fill-opacity:1;fill-rule:evenodd;stroke:none;stroke-width:1px;stroke-linecap:butt;stroke-linejoin:miter;stroke-opacity:1"
     id="path4747-8"
     cx="17.434546"
     cy="31.319242"
     rx="4.078598"
     ry="3.2958367"
     transform="matrix(0.98548682,0.16975197,-0.16975197,0.98548682,0,0)" />
  <ellipse
     style="fill:url(#linearGradient5633);fill-opacity:1;fill-rule:evenodd;stroke:none;stroke-width:1px;stroke-linecap:butt;stroke-linejoin:miter;stroke-opacity:1"
     id="path4747-5"
     cx="16.561579"
     cy="24.10153"
     rx="3.6666183"
     ry="3.0486488" />
  <ellipse
     style="fill:url(#linearGradient5661);fill-opacity:1;fill-rule:evenodd;stroke:none;stroke-width:1px;stroke-linecap:butt;stroke-linejoin:miter;stroke-opacity:1"
     id="path4747-4"
     cx="25.83112"
     cy="20.187725"
     rx="3.7078164"
     ry="3.5018265" />
  <ellipse
     style="fill:url(#linearGradient5617);fill-opacity:1;fill-rule:evenodd;stroke:none;stroke-width:1px;stroke-linecap:butt;stroke-linejoin:miter;stroke-opacity:1"
     id="path4747-6"
     cx="35.595036"
     cy="26.32622"
     rx="3.1722429"
     ry="3.2134407" />
  <g
     id="g5680"
     transform="matrix(0.12876679,-0.03262158,0.03065252,0.12099432,-6.3521712,3.1168764)"
     style="fill:#ab2b00;fill-opacity:1">
    <path
       style="fill:#ab2b00;fill-opacity:1"
       d="m 273.57609,216.3983 c 5.69406,-11.16129 8.30312,-30.83028 6.18996,-46.66438 -2.724,-20.41108 -10.94256,-37.7085 -24.11685,-50.75817 -9.15521,-9.06862 -12.28909,-10.21294 -18.83036,-6.87583 -7.47248,3.81218 -17.26611,20.53869 -21.40885,36.56414 l -2.20536,8.53103 -10.00408,5.0152 C 182.7449,172.465 158.41389,175.9044 126.19646,173.09548 83.198231,169.34663 35.312141,151.98852 17.814078,133.80823 l -3.382383,-3.51426 3.382383,-2.11587 c 5.98402,-3.74332 21.204687,-10.75203 27.382383,-12.60885 3.3,-0.99188 6.14202,-1.89371 6.31559,-2.00408 0.17358,-0.11037 -1.0417,-2.60865 -2.70062,-5.55174 C 33.53881,80.918242 47.087361,52.733768 81.405591,40.209163 103.01973,32.320978 120.75171,29.692787 152.19646,29.716711 c 22.36797,0.01702 24.88401,0.206168 37,2.781574 32.35214,6.876857 56.85824,18.65189 73.10733,35.127631 43.65395,57.152204 19.21142,67.368304 17.52464,71.874784 l 2.05503,4.08083 c 53.64428,82.86773 1.87984,27.40183 -8.30737,72.81677 z"
       id="path5692"
       inkscape:connector-curvature="0"
       sodipodi:nodetypes="csssscssscsscsssscccc" />
    <path
       style="fill:#ab2b00;fill-opacity:1"
       d="m 271.44018,220.58503 2.09629,-4.10908 c 5.73392,-11.23941 8.349,-30.86103 6.22958,-46.74203 -2.724,-20.41108 -10.94256,-37.7085 -24.11685,-50.75817 -9.15521,-9.06862 -12.28909,-10.21294 -18.83036,-6.87583 -7.30704,3.72777 -16.9662,19.99277 -21.14385,35.60395 -1.32533,4.95258 -2.951,8.67358 -4.30413,9.85179 -6.94799,6.04983 -29.0655,13.43451 -46.64817,15.57507 -29.99984,3.65227 -73.101069,-2.79842 -107.038899,-16.01983 -9.33299,-3.63592 -25.656233,-11.50775 -26.98733,-13.01455 -0.275,-0.3113 -2.525,-1.95584 -5,-3.65453 -2.475,-1.69869 -5.998185,-4.65223 -7.8293,-6.56343 l -3.3293,-3.47489 5.887185,-3.57627 c 6.914295,-4.20022 20.680969,-10.2356 26.945325,-11.81298 2.42376,-0.61031 4.27617,-1.39473 4.11646,-1.74316 -0.1597,-0.34842 -1.55447,-3.16186 -3.09948,-6.25208 -14.060918,-28.123645 -1.09447,-54.36025 33.01824,-66.809847 21.614139,-7.888185 39.346119,-10.516376 70.790869,-10.492452 22.36797,0.01702 24.88401,0.206168 37,2.781574 45.50951,9.673623 74.98812,28.681197 88.38272,56.988486 2.12772,4.496571 6.27046,15.469839 9.20611,24.385049 10.91694,43.3045 -12.76192,-19.144375 -0.25401,21.40443 -6.63954,3.86034 -6.6608,3.88688 -5.52465,6.89687 0.62729,1.6619 2.10685,4.23351 3.28791,5.71469 16.32632,86.47844 12.71557,49.36004 -12.85436,72.69722 z"
       id="path5690"
       inkscape:connector-curvature="0"
       sodipodi:nodetypes="cssssssssssscsscsssssccscc" />
    <path
       style="fill:#ab2b00;fill-opacity:1"
       d="m 294.19646,233.75817 c -5.34013,-1.696 -13.03602,-5.70702 -18.2625,-9.51822 l -4.26251,-3.10826 1.99548,-3.91147 c 4.85593,-9.5184 6.50262,-18.59968 6.44761,-35.55787 -0.0626,-19.30195 -1.73788,-26.73448 -9.5386,-42.31881 -3.9456,-7.88255 -6.93875,-12.20425 -12.67752,-18.30461 -4.13186,-4.39218 -8.77025,-8.63621 -10.30755,-9.43118 -8.83055,-4.56645 -17.04897,1.79052 -25.92699,20.0546 -2.67351,5.5 -5.65066,13.15 -6.6159,17 -0.96524,3.85 -2.18786,7.58485 -2.71693,8.29968 -1.83812,2.48349 -18.09452,9.46381 -28.58373,12.27354 -15.3314,4.10679 -26.96761,5.28195 -45.05086,4.54974 -46.599379,-1.88687 -95.805539,-17.65362 -118.656216,-38.0201 -5.243747,-4.67367 -5.460799,-5.04764 -3.706836,-6.38661 3.836317,-2.92862 23.105846,-11.89484 29.496703,-13.72497 l 6.63364,-1.89965 -2.487,-3.93966 c -5.74581,-9.10197 -8.316315,-22.274065 -6.28771,-32.220295 5.9327,-29.08786 40.85379,-45.711443 101.007419,-48.082842 54.64852,-2.154374 106.74543,18.447287 127.38762,50.375286 2.40942,3.726737 5.61951,9.700885 7.13353,13.275885 3.06937,7.247616 12.49375,34.843956 12.45225,36.462516 -0.0146,0.57061 -2.71963,2.95248 -6.0111,5.29303 l -5.98451,4.25554 1.55505,3.74446 c 0.85527,2.05945 2.3877,4.58439 3.4054,5.61098 1.76437,1.77977 2.14576,1.79154 8.20606,0.25323 3.49564,-0.88731 6.47075,-1.26959 6.61138,-0.8495 20.5502,45.84161 -6.84025,50.64971 -5.25568,85.82556 z"
       id="path5688"
       inkscape:connector-curvature="0"
       sodipodi:nodetypes="cscssssssssssssscssssscscssscc" />
    <path
       style="fill:url(#linearGradient5775);fill-opacity:1"
       d="m 9.609375,-12.3125 c -0.8353447,-0.01613 -1.6814215,0.0028 -2.5332031,0.05859 -3.9290001,0.257536 -6.33835507,0.771155 -8.6953125,1.855468 -3.5012233,1.6107304 -4.7117336,4.6177371 -3.0859375,7.6621099 l 0.5078125,0.953125 -0.7851563,0.2050781 c -0.9042042,0.2362181 -2.1795916,0.76299553 -3.3925781,1.40039062 -0.833395,0.43792931 -0.8427316,0.44555756 -0.6035156,0.69921876 0.4084248,0.43308766 2.0491971,1.52657162 3.0996094,2.06640622 1.2043071,0.618926 3.5937786,1.4924869 5.31249995,1.9414063 C 5.8916478,6.2160994 11.999516,6.0689778 15.976562,4.1308594 c 0.965516,-0.4705202 0.492922,-1.7427542 0.526914,-1.9956303 2.100271,0.9062686 6.751136,6.6839097 9.024563,9.0401549 -0.800603,1.004558 -0.511306,-0.600969 2.466102,1.978913 3.125509,0.342004 1.000851,-14.1691436 -2.660039,-13.32166709 -0.504736,0.16733179762 1.608682,2.99496969 1.351445,2.73768269 -0.149909,-0.1499398 -0.369234,-0.4866693 -0.486328,-0.75 -0.23906,-0.5376154 -0.254192,-0.5148254 0.753906,-1.140625 0.267831,-0.16626206 0.520648,-0.35433721 0.5625,-0.41796875 C 27.644493,0.06579151 26.294027,-3.6170647 25.601562,-4.9570312 25.073223,-5.9794046 24.736155,-6.4304199 23.861328,-7.2988281 20.777908,-10.359629 15.456788,-12.19961 9.609375,-12.3125 Z m 6.195313,12.12109375 c -10.5364587,36.79427125 -5.268229,18.39713525 0,0 z"
       transform="matrix(7.5281545,0,0,8.0117497,83.957367,128.22015)"
       id="path5686"
       inkscape:connector-curvature="0"
       sodipodi:nodetypes="ssscccsssssccccssssssscc" />
    <path
       style="fill:#ab2b00;fill-opacity:1"
       d="m 278.49879,225.6031 c -6.07898,-3.93247 -6.74947,-4.67101 -5.81902,-6.40957 1.00552,-1.87883 1.3185,-1.79249 7.13834,1.96905 10.87455,-17.17271 5.92734,-17.09678 15.95534,-65.43852 -2.81125,-4.7058 -3.16869,-5.89079 -2,-6.63046 3.28552,-2.07942 4.47139,3.79707 7.23141,8.60556 -21.13698,65.09493 -9.97272,42.45307 -22.50607,67.90394 z M 131.19646,173.07182 C 88.639971,170.88951 37.491054,153.18389 19.328485,134.3478 l -3.867975,-4.01141 4.367975,-2.75763 c 5.958048,-3.76149 16.912792,-8.67136 25.563806,-11.45761 l 7.18102,-2.3128 -2.40614,-4.10576 C 37.976684,88.901093 42.323775,65.266472 60.848521,51.629326 77.130991,39.642856 101.2634,32.742083 136.19646,30.083233 c 55.94695,-4.258274 110.99245,15.28472 134.04546,47.590627 5.78274,8.103785 9.25688,15.860368 16.0384,35.80834 l 5.50061,16.18015 -2.7717,2.22053 c -1.52444,1.2213 11.42291,27.24586 11.07883,26.84956 -0.34407,-0.39629 -17.43762,-33.04509 -20.29262,-41.57009 -2.85501,-8.525 -7.22057,-19.693941 -9.70124,-24.819875 C 249.27739,49.327745 177.82611,27.270922 106.02884,41.69593 66.376311,49.66264 47.680191,66.369146 50.822371,91.027404 c 0.90751,7.121678 6.64579,18.496366 12.31617,24.413666 13.72898,14.32683 33.78299,20.42518 74.557919,22.6728 51.57991,2.84322 61.7428,3.82573 73.25,7.08149 4.40295,1.24574 5.53005,4.63057 1.17821,3.53833 -9.32846,-2.3413 -26.07953,-3.63823 -58.42821,-4.52375 -48.39392,-1.32475 -60.837819,-3.16187 -78.566709,-11.59902 -6.49825,-3.09251 -10.85059,-6.03348 -15.36388,-10.3817 -3.46345,-3.33677 -6.71089,-6.06687 -7.21654,-6.06687 -2.19841,0 -27.84378,13.97202 -27.849606,15.17292 -0.0018,0.37011 2.584236,2.30378 5.746736,4.29704 18.42991,11.61602 49.44404,22.14148 81.346699,27.60714 17.6509,3.02401 48.38579,3.74906 63.68139,1.50226 11.54428,-1.69576 25.88038,-5.83399 33.26895,-9.60336 4.47218,-2.28154 5.35916,-2.19812 4.35837,0.40991 -0.82284,2.14429 -18.13013,10.42113 -24.23922,11.59188 -2.5664,0.49183 -6.27363,1.57062 -8.23827,2.3973 -7.26352,3.05636 -28.76616,4.59392 -49.42792,3.53438 z m 154.91519,-18.33088 c -7.04421,-3.06705 -13.07971,-16.81049 -11.00776,-25.06578 1.04333,-4.15695 2.25209,-2.86749 3.50331,3.73719 1.60785,8.48723 5.34113,15.73809 9.59153,18.6289 5.53734,3.7661 4.23406,5.45191 -2.08708,2.69969 z"
       id="path5684"
       inkscape:connector-curvature="0"
       sodipodi:nodetypes="csccsccsscsscssssscsssssssssssssscsssssssssssss" />
    <path
       style="fill:#ab2b00;fill-opacity:1"
       d="m 297.19646,233.21067 c -2.2,-0.0507 -6.025,-1.00841 -8.5,-2.12816 -6.52984,-2.95427 -66.42767,-61.30203 -75.1004,-82.52586 -1.99135,-7.52817 63.12953,67.37687 63.12953,67.37687 39.92267,33.4464 25.24344,-52.14135 18.70928,-61.52361 l -14.42424,-36.89867 14.74575,31.13792 c 0.77924,1.6455 2.26203,-2.40153 2.36811,-2.21169 9.71108,14.11693 24.01703,90.61835 -0.92803,86.7732 z m -181.5,-61.67827 c -14.91895,-2.02364 -31.397839,-5.87106 -46.804429,-10.9277 -13.76574,-4.51809 -31.168577,-12.20782 -34.683658,-15.32554 -1.106552,-0.98147 -4.036912,-2.94731 -6.511912,-4.36854 -2.475,-1.42123 -6.212375,-4.35295 -8.305277,-6.51493 l -3.805277,-3.93088 2.33083,-1.52722 c 5.148205,-3.37323 19.175385,-9.92167 26.505234,-12.37368 4.27597,-1.43042 7.9207,-2.73965 8.0994,-2.9094 0.1787,-0.16975 -0.80335,-2.03743 -2.18234,-4.1504 -7.4132,-11.358954 -8.767869,-28.794922 -3.19361,-41.105108 7.63742,-16.866475 30.74096,-29.645911 63.551039,-35.152468 58.08958,-9.74925 115.62876,2.481711 147.79173,31.415723 12.32286,11.085719 19.18472,23.191988 27.66168,48.803043 l 5.36103,16.19705 10.7132,37.17111 c 0.43544,1.51084 -15.30342,-33.70558 -15.64049,-33.69335 -0.33706,0.0122 -2.96437,-6.84026 -5.83846,-15.22776 C 273.49738,96.761044 267.23798,84.159978 260.03772,76.225291 235.63062,49.32868 186.94561,33.775463 137.88102,37.200344 101.58233,39.734121 75.916241,47.322302 61.989471,59.637685 c -16.33161,14.441969 -15.97107,38.015808 0.85632,55.990255 6.59323,7.04265 13.61309,11.5274 23.36242,14.92543 15.308509,5.33562 28.464049,7.06135 69.488249,9.11538 38.32905,1.91909 51.97755,5.66425 53.22784,9.41512 0.33722,1.01165 3.88941,0.30895 2.51382,-0.2428 -6.10924,-2.4505 -18.15848,-3.75234 -51.24166,-4.69372 -52.27271,-1.48742 -68.458899,-3.77569 -85.318679,-12.06162 -5.55419,-2.72968 -10.59657,-6.23717 -15.17315,-10.55448 l -6.85447,-6.46616 -9.32685,4.68121 c -5.129768,2.57467 -11.740233,6.22351 -14.689924,8.10854 l -5.363074,3.42733 3.363074,2.49575 c 10.28607,7.63334 32.423064,17.12304 53.363074,22.87572 51.267119,14.08422 99.269319,13.61947 128.950679,-1.24848 4.862,-2.43547 4.92469,-2.44079 3.5,-0.29736 -1.60171,2.40974 -2.90635,3.19568 -14.17692,8.54045 -4.95205,2.34837 -8.44759,3.43501 -9.73523,3.02633 -1.19986,-0.38082 -4.33081,0.37985 -7.77377,1.88865 -3.17062,1.38946 -9.28482,2.99268 -13.58712,3.5627 -10.86392,1.43941 -39.07922,1.11535 -51.67764,-0.59353 z m 166.50525,-20.70323 c -4.85023,-5.06198 -6.76792,-10.73721 -6.30864,-18.66988 l 0.31825,-5.49694 1.29665,4.5 c 0.71316,2.475 1.96779,6.88969 2.78807,9.81042 1.11089,3.9555 2.67361,6.44316 6.12482,9.75 -53.67643,-55.676353 -23.34377,-28.3206 -4.21915,0.1064 z"
       id="path5682"
       inkscape:connector-curvature="0"
       sodipodi:nodetypes="csccccsccssssscsssssssscscsssssssscssscsscssssssssscscsscc" />
  </g>
  <g
     id="g8292"
     transform="matrix(-0.04913268,0.14147109,-0.1393392,-0.05546828,53.23036,1.0201642)"
     style="fill:#ffff95;fill-opacity:1;stroke:none;stroke-opacity:1">
    <path
       style="fill:#ffff91;fill-opacity:1;stroke:#ffd570;stroke-width:3.62191486;stroke-miterlimit:4;stroke-dasharray:none;stroke-opacity:1"
       d="m 111.01825,100.73723 c -2.15663,-1.608019 -4.51598,-2.923671 -5.243,-2.923671 -0.82596,0 -1.32186,-1.225105 -1.32186,-3.265602 0,-4.411761 -3.13814,-9.976673 -6.090121,-10.799697 C 86.545542,80.453428 83.474777,79.03975 73.296959,72.208565 67.138086,68.074829 60.828744,64.43863 59.276199,64.128121 55.659941,63.404869 55.610861,61.823265 59.203391,61.781879 l 2.75,-0.03168 -2.992755,-2.21832 C 54.301512,56.078396 35.453391,37.266238 35.453391,36.069486 c 0,-1.462987 -7.571346,-7.63223 -19.259788,-15.693156 C 2.150141,10.691266 0.86946126,7.0866947 11.843682,8.1331429 35.963716,10.433112 66.931563,24.543754 84.154168,41.08175 c 6.98143,6.703912 15.78127,19.01232 17.913532,25.055807 1.49897,4.248523 1.89372,15.243989 0.57651,16.058071 -0.44506,0.275057 -2.738363,-1.969999 -5.096243,-4.989014 C 90.162265,67.75001 80.765115,57.543386 73.729001,51.335872 c -5.324552,-4.697512 -4.332011,-3.412558 4.6346,6 6.275616,6.587728 14.095222,15.231452 17.376901,19.208275 3.28168,3.976823 6.316358,7.014482 6.743728,6.750354 1.0719,-0.662475 13.70549,19.116059 12.79318,20.028379 -0.18592,0.18591 -2.10254,-0.97763 -4.25916,-2.58565 z m 0.81597,-2.173671 c -3.24049,-5.494597 -8.64172,-13.75 -8.99615,-13.75 -0.23982,0 0.25052,1.327653 1.08964,2.95034 0.83912,1.622687 1.5359,4.210187 1.54839,5.75 0.0173,2.129442 0.7953,3.201771 3.25,4.479373 4.01398,2.089168 4.00267,2.087088 3.10812,0.570287 z"
       id="path8302"
       inkscape:connector-curvature="0" />
    <path
       style="fill:#ffff95;fill-opacity:1;stroke:#ffd570;stroke-opacity:1"
       d="m 110.32583,100.06356 c -1.24387,-1.586057 -1.2085,-1.621427 0.37756,-0.377556 0.9625,0.754846 1.75,1.542346 1.75,1.749996 0,0.82304 -0.82119,0.29331 -2.12756,-1.37244 z m -5.71455,-6.250001 c 0,-1.375 0.22698,-1.9375 0.50439,-1.25 0.27741,0.6875 0.27741,1.8125 0,2.5 -0.27741,0.6875 -0.50439,0.125 -0.50439,-1.25 z m -3.11235,-7.914916 C 100.85118,84.68832 98.572027,83.575807 95.304723,82.875096 87.806533,81.267022 83.083851,78.938413 72.070523,71.419027 66.679315,67.738163 60.959966,64.464874 59.360859,64.145053 55.676583,63.408197 55.571003,61.823724 59.203391,61.781879 l 2.75,-0.03168 -3,-2.209367 C 57.303391,58.32568 51.372306,52.602436 45.773203,46.822512 40.1741,41.042588 33.966478,34.634023 31.978489,32.581256 29.990499,30.528489 24.221584,25.954492 19.158677,22.416817 7.7224066,14.425796 3.5736377,10.293313 5.2771593,8.5897911 6.8222058,7.0447445 24.23829,9.8422348 35.953391,13.517217 c 9.41933,2.954807 25.149974,10.634718 35,17.087469 12.442964,8.151383 27.534084,25.38542 31.114089,35.53225 1.3949,3.953543 1.91751,14.811692 0.76822,15.960979 -0.33973,0.339729 -3.088989,-2.622771 -6.109469,-6.583334 -14.8586,-19.483133 -40.760372,-41.559826 -63.52284,-54.14202 -9.910604,-5.47819 -8.222423,-3.684089 2.623804,2.788428 14.110523,8.420495 24.950725,16.792482 36.964001,28.547633 14.850768,14.531674 32.615354,35.104937 30.312384,35.104937 -0.3189,0 -1.041,-0.861712 -1.60465,-1.914916 z"
       id="path8300"
       inkscape:connector-curvature="0" />
    <path
       style="fill:#ffff95;fill-opacity:1;stroke:none;stroke-opacity:1"
       d="M 89.656026,83.51405 C 83.271672,81.756298 80.625777,80.336207 69.812759,72.863871 64.92611,69.486952 59.694153,66.47037 58.18619,66.160357 54.711906,65.446097 54.606005,63.938715 58.028244,63.91216 l 2.590901,-0.0201 -2.835512,-2.1068 C 55.270869,59.918259 43.062943,47.58845 32.953372,36.707091 30.985877,34.589394 25.340392,30.00328 20.407849,26.515727 9.2510699,18.627331 5.1947599,14.574857 7.1870689,13.30745 c 1.8990949,-1.20811 2.2855209,-1.177888 13.5623141,1.06067 18.064854,3.586058 31.334294,9.105378 47.584976,19.792598 12.677137,8.337087 26.563849,24.047233 30.097764,34.04984 1.420244,4.01993 1.864467,14.917057 0.6079,14.912194 -0.418805,-0.0016 -2.016281,-1.773302 -3.549948,-3.937069 C 81.14648,58.949133 52.253779,34.315593 29.017132,22.511719 c -9.450122,-4.800524 -12.837533,-5.405192 -4.935441,-0.881 11.907755,6.817559 23.568923,14.249309 29.797611,18.990241 9.799832,7.45909 27.654683,25.593674 41.598509,42.250235 2.138421,2.554444 1.412476,2.634605 -5.821785,0.642855 z"
       id="path8298"
       inkscape:connector-curvature="0" />
    <path
       style="fill:#ffff95;fill-opacity:1;stroke:none;stroke-opacity:1"
       d="M 92.683541,82.263163 C 85.910103,80.439586 82.676887,78.75615 73.251591,72.145542 c -4.23599,-2.970991 -9.86099,-6.37693 -12.5,-7.568754 -4.783139,-2.160151 -4.78893,-2.168679 -1.844838,-2.716833 l 2.953362,-0.549881 -2.953362,-1.91499 C 55.701957,57.317061 39.780462,41.242221 35.940051,36.207182 c -1.303518,-1.709 -5.527624,-5.51535 -9.386904,-8.458556 -3.859279,-2.943207 -6.844949,-5.523207 -6.634822,-5.733335 0.210128,-0.210127 2.965387,1.568388 6.122798,3.952257 5.463485,4.124971 6.022334,4.318086 11.571019,3.998464 5.578587,-0.321344 6.121897,-0.129313 12.58576,4.448385 3.715519,2.631325 8.946813,6.610088 11.625099,8.841695 l 4.869609,4.057467 -6.652277,0.582667 c -8.672647,0.75963 -9.87514,1.956075 -6.030349,6.000017 6.234141,6.557055 11.998844,7.314003 16.477094,2.163563 l 2.308708,-2.655248 8.824347,9.307202 c 4.85339,5.11896 8.574794,9.710986 8.269785,10.2045 -0.733222,1.186378 -6.096018,1.14214 -10.376897,-0.0856 -1.884942,-0.540595 -3.597608,-0.812458 -3.805925,-0.604141 -0.965326,0.965326 10.847441,5.656519 15.084118,5.990341 4.396796,0.34644 8.662177,2.686238 8.662177,4.751687 0,1.061048 -0.340415,1.025579 -6.76985,-0.705384 z m 6.412743,-4.651344 c -2.784919,-4.021593 -2.816502,-4.210987 -1.25,-7.495975 0.883909,-1.853576 1.607107,-4.029872 1.607107,-4.836212 0,-2.257154 -2.775912,-1.739009 -5.118711,0.955447 l -2.105484,2.421519 -5.930875,-6.671519 c -4.717802,-5.306959 -5.564149,-6.734126 -4.137903,-6.97761 4.602534,-0.78573 7.292973,-2.503634 7.292973,-4.656723 0,-2.602919 -12.296722,-14.935616 -14.25017,-14.291861 -0.728524,0.240084 -1.375903,2.568877 -1.55209,5.583277 -0.166242,2.844268 -0.776201,5.171397 -1.355464,5.171397 -0.579263,0 -6.239167,-3.934278 -12.577565,-8.74284 l -11.524359,-8.74284 4.307304,-0.735312 c 8.614831,-1.470663 6.836956,-4.423907 -5.889738,-9.783499 -7.73324,-3.256699 -26.003266,-8.483494 -26.815287,-7.671473 -0.262149,0.262149 1.241016,1.029518 3.340367,1.705265 5.308552,1.708737 9.317002,4.160563 9.317002,5.698878 0,0.851317 -2.387756,0.09451 -6.949066,-2.202529 -3.875466,-1.951654 -7.209117,-3.078721 -7.537014,-2.548174 -0.323371,0.523226 1.791209,2.188169 4.699066,3.699875 l 5.287014,2.748555 -5,0.637424 C 17.50593,21.571359 15.2046,20.534845 8.7033911,14.458722 2.6433555,8.7949262 4.689187,7.5604502 16.953391,9.4805868 43.968097,13.710126 69.77269,26.847944 87.168469,45.228988 c 11.134543,11.765182 15.516211,19.88034 16.108791,29.834571 0.221,3.7125 0.0135,6.732922 -0.46102,6.712049 -0.47457,-0.02087 -2.14855,-1.894578 -3.719956,-4.163789 z m 2.341796,-8.04826 c -0.0124,-1.819438 -0.20082,-1.962959 -0.98469,-0.75 -1.252921,1.938759 -1.252921,3 0,3 0.55,0 0.99311,-1.0125 0.98469,-2.25 z"
       id="path8296"
       inkscape:connector-curvature="0" />
    <path
       style="fill:#ffff95;fill-opacity:1;stroke:none;stroke-opacity:1"
       d="m 91.953391,81.766863 c -1.393899,-0.631524 -0.787797,-0.721547 2,-0.297055 2.2,0.334989 4.1875,0.774374 4.416667,0.976411 0.85918,0.757467 -4.496957,0.190393 -6.416667,-0.679356 z m -5.5,-1.953304 c -0.825,-0.533156 -1.05,-0.969374 -0.5,-0.969374 0.55,0 1.675,0.436218 2.5,0.969374 0.825,0.533156 1.05,0.969374 0.5,0.969374 -0.55,0 -1.675,-0.436218 -2.5,-0.969374 z m 16.231999,-3 c 0,-1.925 0.2058,-2.7125 0.45733,-1.75 0.25152,0.9625 0.25152,2.5375 0,3.5 -0.25153,0.9625 -0.45733,0.175 -0.45733,-1.75 z M 79.894521,76.258393 c -1.864025,-1.493392 -1.851756,-1.511856 0.30887,-0.464816 1.2375,0.599692 2.25,1.299517 2.25,1.555166 0,0.76522 -0.518608,0.544238 -2.55887,-1.09035 z m 17.054164,-3.194834 c 0.390099,-0.9625 1.157266,-2.9875 1.704814,-4.5 1.104323,-3.050485 2.288891,-3.524025 3.156911,-1.261996 0.32833,0.855598 0.0595,1.386851 -0.63254,1.25 -0.66195,-0.130902 -1.638808,1.224496 -2.170805,3.011996 -0.531997,1.7875 -1.372354,3.25 -1.867459,3.25 -0.495106,0 -0.58102,-0.7875 -0.190921,-1.75 z M 68.595589,68.794661 c -5.929487,-3.896077 -6.555676,-4.797131 -1.335262,-1.921372 2.368815,1.304903 4.786416,2.950289 5.372445,3.656411 1.468455,1.76938 0.970617,1.555427 -4.037183,-1.735039 z m 23.43983,-1.981102 c 0.982816,-3.836512 3.54901,-9 4.472896,-9 0.454873,0 1.105157,0.45 1.445076,1 0.339919,0.55 0.150101,1 -0.421816,1 -0.571918,0 -2.186617,2.1375 -3.588221,4.75 -1.401604,2.6125 -2.260175,3.625 -1.907935,2.25 z M 59.012261,63.281756 c -1.886936,-1.427207 -1.876537,-1.468197 0.372445,-1.468197 2.046027,0 2.154862,-0.195006 0.94113,-1.686285 -1.147306,-1.409662 -0.825685,-1.368652 1.960602,0.25 l 3.333047,1.936285 -2.757372,0.333244 c -2.081999,0.251621 -2.408507,0.554038 -1.333047,1.234687 0.783379,0.495794 0.974325,0.894023 0.424325,0.884953 -0.55,-0.0091 -1.873508,-0.677179 -2.94113,-1.484687 z m 40.005423,-1.175069 c -0.542685,-1.425198 -0.427821,-1.540062 0.559795,-0.559795 0.683421,0.678334 0.990671,1.485241 0.682781,1.793128 -0.307884,0.307888 -0.867045,-0.247112 -1.242576,-1.233333 z M 56.325836,57.063559 c -1.243871,-1.586056 -1.208501,-1.621426 0.377555,-0.377555 0.9625,0.754844 1.75,1.542344 1.75,1.75 0,0.823034 -0.821186,0.293303 -2.127555,-1.372445 z m 37.124467,-3.5 c -1.472254,-2.011104 -1.713729,-2.709553 -0.633462,-1.832244 1.639779,1.3317 4.119205,5.082244 3.359792,5.082244 -0.190919,0 -1.417767,-1.4625 -2.72633,-3.25 z m -41.591924,0 -1.904988,-2.25 2.25,1.904988 c 2.114445,1.790218 2.705241,2.595012 1.904988,2.595012 -0.189757,0 -1.202257,-1.0125 -2.25,-2.25 z m -5.390468,-6.23502 c -3.825036,-3.946435 -3.628616,-5.085132 0.596792,-3.459746 1.588778,0.611155 4.688688,1.511969 6.888688,2.001809 3.429912,0.763686 3.151257,0.818405 -1.955175,0.383938 l -5.955175,-0.506681 2.379489,2.53285 c 1.308719,1.393068 2.164323,2.53285 1.901342,2.53285 -0.262981,0 -1.998164,-1.568259 -3.855961,-3.48502 z m 42.390468,0.23502 -1.904988,-2.25 2.25,1.904988 c 2.114445,1.790218 2.705241,2.595012 1.904988,2.595012 -0.189757,0 -1.202257,-1.0125 -2.25,-2.25 z m -55.480674,-14.5 -2.424314,-2.75 2.75,2.424314 c 2.570289,2.265887 3.208588,3.075686 2.424314,3.075686 -0.179127,0 -1.416627,-1.2375 -2.75,-2.75 z m -27.0518693,-21 c -1.2438706,-1.586055 -1.2085002,-1.621426 0.3775554,-0.377555 0.9625,0.754844 1.75,1.542344 1.75,1.75 0,0.823034 -0.8211856,0.293303 -2.1275554,-1.372445 z M 13.265891,9.1304453 c 0.721875,-0.2888706 1.584375,-0.2533443 1.916667,0.078947 0.332291,0.3322917 -0.258334,0.5686404 -1.3125,0.5252193 -1.164943,-0.047984 -1.4019,-0.28494 -0.604167,-0.6041663 z"
       id="path8294"
       inkscape:connector-curvature="0" />
  </g>
  <path
     style="fill:#ffff82;fill-opacity:1;stroke:#ffd570;stroke-width:0.1;stroke-miterlimit:4;stroke-dasharray:none;stroke-opacity:1"
     d="m 51.922881,1.0715741 c -0.371263,-0.034696 -1.006024,0.3073187 -2.200992,1.1413687 -1.779928,1.2423342 -2.793175,1.8387464 -3.019312,1.7782576 -0.09549,-0.025539 -1.197327,0.4351414 -2.4487,1.0240271 -1.867489,0.878826 -2.292787,1.026003 -2.372259,0.823793 -0.130188,-0.331248 -0.434435,-0.242719 -0.681194,0.196823 -0.111076,0.197851 -0.842031,0.81145 -1.624304,1.363955 -1.593274,1.125301 -2.142818,1.65016 -2.670161,2.5549098 -0.306514,0.5258747 -0.450769,0.6316507 -0.9469,0.6885197 -0.32196,0.0369 -0.806858,0.0071 -1.077802,-0.06533 -0.386258,-0.103312 -0.547485,-0.06621 -0.747367,0.170306 -0.140206,0.165925 -0.438041,0.412561 -0.661599,0.548376 -0.188472,0.114508 -0.347288,0.228025 -0.400588,0.283129 -0.03477,-0.0036 -0.06035,-0.0045 -0.06225,0.0021 -0.0016,0.0057 0.01493,0.0164 0.03817,0.02905 -0.0065,0.03021 0.01922,0.03843 0.0656,0.03065 0.171882,0.07197 0.519855,0.174107 0.732183,0.143283 0.176524,-0.02562 0.526667,-0.130721 0.789376,-0.219922 -0.03521,0.04847 0.04086,0.0524 0.266631,0.01674 0.182058,-0.02882 1.008805,-0.239237 1.457412,-0.367522 0.248042,-0.02201 0.702082,0.05867 1.281734,0.228933 1.317616,0.387022 2.063687,0.370262 3.83485,-0.08331 2.483998,-0.636125 4.598098,-1.8341525 6.852228,-3.8836225 1.321912,-1.201893 2.014494,-2.080824 3.064836,-3.8908702 0.522491,-0.9004021 0.800392,-1.435746 0.89724,-1.7867573 0.07532,-0.2730106 0.04162,-0.4351637 -0.07225,-0.5710543 -0.07609,-0.090793 -0.170826,-0.144305 -0.29458,-0.1558709 z m -0.04587,0.2532597 c 0.07175,0.00824 0.09033,0.072078 0.109881,0.1969107 0.0062,0.039821 -0.0079,0.1124236 -0.04013,0.2102778 -0.225523,0.684978 -1.30476,2.629529 -2.006751,3.5640102 -0.742047,0.987803 -2.010415,2.281584 -2.12916,2.172769 -0.05158,-0.04727 -0.117046,-0.0044 -0.145443,0.09522 -0.110368,0.387169 -2.483379,2.056095 -3.785255,2.6616895 -0.753383,0.350452 -1.950501,0.780896 -2.661091,0.957217 -1.268248,0.314697 -1.698547,0.341648 -1.629878,0.10076 0.01898,-0.06661 -0.198089,-0.259106 -0.483123,-0.426791 -0.500047,-0.294174 -0.505877,-0.310316 -0.17135,-0.483206 0.236469,-0.122217 0.38542,-0.123216 0.469398,-0.0021 0.06771,0.09766 0.229219,0.205829 0.358561,0.240427 0.182572,0.04883 0.18238,0.0073 -0.0016,-0.187701 -0.219994,-0.233202 -0.175173,-0.273262 0.623111,-0.5503767 0.876353,-0.3042178 2.815293,-1.3099468 2.624119,-1.3610838 -0.05791,-0.01548 -0.903257,0.315925 -1.878236,0.736429 -0.974978,0.420504 -2.235802,0.9161815 -2.801927,1.1009635 l -1.029411,0.335884 1.04805,-0.40111 c 0.576383,-0.220762 1.933222,-0.7913565 3.01548,-1.2673255 1.116777,-0.49115 1.975716,-0.787046 1.986395,-0.684533 0.02552,0.244954 3.340625,-1.70298 3.426817,-2.013591 0.01702,-0.06117 -0.202459,0.0168 -0.487801,0.173605 l -0.519228,0.285035 0.461895,-0.336424 c 0.254421,-0.185425 0.515857,-0.289254 0.580502,-0.230015 0.132937,0.121818 0.615946,-0.25292 0.51451,-0.39921 -0.0012,-0.0018 -0.0016,-0.0036 -0.0026,-0.0056 0.347211,-0.248412 2.388779,-1.7251711 2.577679,-1.9016197 0.173471,-0.1620372 0.261742,-0.2489055 0.273255,-0.2990337 0.01152,-0.050139 -0.05467,-0.063367 -0.187788,-0.077081 -0.156743,-0.016122 -0.291257,-0.026872 -0.300059,-0.023272 -0.0067,0.00264 -1.472906,1.1902262 -2.212773,1.8616494 -0.211836,0.122342 -0.545632,0.337388 -0.996606,0.646491 -0.632042,0.43321 -1.527075,1.003371 -1.987533,1.266653 -0.460458,0.263284 -0.844781,0.573369 -0.855168,0.689273 -0.01039,0.115903 -0.09685,0.176943 -0.191661,0.1349 -0.171547,-0.07607 -1.461738,0.403104 -4.271977,1.5886108 -0.810865,0.3420657 -1.642593,0.6484217 -1.848727,0.6809837 -0.20613,0.03255 -0.363318,0.04475 -0.348727,0.0265 0.01459,-0.01826 0.154444,-0.241165 0.310421,-0.4951177 0.39513,-0.6433568 1.302432,-1.5956868 1.418587,-1.4892488 0.053,0.04856 0.116437,0.01717 0.142037,-0.06963 0.02568,-0.08686 0.58804,-0.540393 1.249378,-1.007624 0.66134,-0.467232 1.220542,-0.913567 1.242851,-0.991826 0.02825,-0.09912 0.08896,-0.08451 0.199485,0.04739 0.111985,0.133644 0.264437,0.158134 0.517615,0.08452 0.197304,-0.05737 0.292129,-0.124528 0.211236,-0.148962 -0.0809,-0.02443 0.109121,-0.138997 0.422322,-0.255235 0.313199,-0.116238 0.45198,-0.200443 0.308145,-0.187103 -0.143834,0.01334 0.160459,-0.136128 0.676073,-0.332915 0.515615,-0.196787 1.127156,-0.465569 1.358374,-0.596255 0.231218,-0.130685 0.668752,-0.3308499 0.973186,-0.4454466 1.350363,-0.5083149 2.283246,-1.0023247 3.57219,-1.8921622 0.760438,-0.5249775 1.604246,-1.047933 1.876197,-1.161684 0.229858,-0.096145 0.354471,-0.1431385 0.426225,-0.1349287 z m -6.157218,5.5114907 c 0.0027,7.15e-4 0.0034,0.0029 0.0026,0.0056 -0.01137,0.04058 -0.394489,0.300325 -0.893599,0.603952 -0.532385,0.323869 -0.992935,0.58234 -1.02351,0.574162 -0.03057,-0.0082 -0.05146,-0.02983 -0.04565,-0.04774 0.0238,-0.07352 1.889664,-1.154781 1.96017,-1.135922 z M 38.409864,10.69236 c 0.203035,0.03136 0.397237,0.135052 0.654252,0.321452 0.222714,0.161516 0.327129,0.281606 0.311912,0.35817 -0.01524,0.07656 -0.149024,0.109501 -0.401072,0.09557 -0.212881,-0.01177 -0.70167,-0.125806 -1.086028,-0.252884 l -0.699536,-0.23061 0.515255,-0.18037 c 0.290837,-0.101838 0.502184,-0.14271 0.705217,-0.111328 z m -1.200541,0.009 c -0.0091,0.0315 -0.300484,0.18587 -0.648624,0.342819 -0.149346,0.06732 -0.900022,0.25395 -0.863322,0.26841 l -0.32577,0.05352 c 1.366466,-0.339176 -0.168634,0.04739 -0.347105,0.05588 -0.202886,0.0097 -0.23602,-0.02476 -0.114666,-0.119415 0.133961,-0.104489 0.09241,-0.121287 -0.191188,-0.07648 -0.242308,0.03828 -0.377363,0.0058 -0.405222,-0.09769 -0.02293,-0.08516 -0.04321,-0.07434 -0.04527,0.02418 -0.0021,0.09852 0.125939,0.193063 0.283959,0.210712 0.148111,0.01648 0.205712,0.05588 0.171071,0.111292 -0.253004,0.05455 -0.647687,0.150802 -0.840326,0.178767 -0.178941,0.02598 -0.450912,-0.01806 -0.646189,-0.04955 0.203669,-0.0812 0.52212,-0.268154 0.707908,-0.439092 0.266388,-0.245089 0.419943,-0.268202 0.868034,-0.129247 0.559073,0.173363 0.597357,0.05648 0.07427,-0.225525 -0.161837,-0.08726 -0.03288,-0.06237 0.285906,0.05476 0.318796,0.117085 0.558526,0.158045 0.533244,0.0918 -0.02528,-0.06624 0.306357,-0.163619 0.736917,-0.216488 0.430561,-0.05287 0.775333,-0.07012 0.766352,-0.03862 z"
     id="path4700"
     inkscape:connector-curvature="0" />
  <ellipse
     style="fill:url(#linearGradient8384);fill-opacity:1;stroke:none;stroke-width:0.69999999;stroke-linecap:round;stroke-miterlimit:4;stroke-dasharray:none;stroke-opacity:1"
     id="path8361"
     cx="27.639994"
     cy="-4.367105"
     rx="4.5224667"
     ry="3.3618963"
     transform="matrix(0.89687335,0.44228745,-0.92715849,0.37466936,0,0)" />
  <path
     style="fill:none;fill-opacity:1;fill-rule:evenodd;stroke:#ab3e12;stroke-width:0.69999999;stroke-linecap:round;stroke-linejoin:miter;stroke-miterlimit:4;stroke-dasharray:none;stroke-opacity:1"
     d="m 33.01879,9.4573108 c 0.414807,1.2234052 0.989241,2.6278912 2.801462,2.8838592"
     id="path8349"
     inkscape:connector-curvature="0"
     sodipodi:nodetypes="cc" />
</svg>
