<?xml version="1.0" encoding="UTF-8" standalone="no"?>
<!-- Created with Inkscape (http://www.inkscape.org/) -->

<svg
   xmlns:dc="http://purl.org/dc/elements/1.1/"
   xmlns:cc="http://creativecommons.org/ns#"
   xmlns:rdf="http://www.w3.org/1999/02/22-rdf-syntax-ns#"
   xmlns:svg="http://www.w3.org/2000/svg"
   xmlns="http://www.w3.org/2000/svg"
   xmlns:xlink="http://www.w3.org/1999/xlink"
   version="1.0"
   width="55"
   height="55"
   id="svg2">
  <metadata
     id="metadata11">
    <rdf:RDF>
      <cc:Work
         rdf:about="">
        <dc:format>image/svg+xml</dc:format>
        <dc:type
           rdf:resource="http://purl.org/dc/dcmitype/StillImage" />
        <dc:title></dc:title>
      </cc:Work>
    </rdf:RDF>
  </metadata>
  <defs
     id="defs5">
    <linearGradient
       id="linearGradient3689">
      <stop
         id="stop3691"
         style="stop-color:#ffffff;stop-opacity:1"
         offset="0" />
      <stop
         id="stop3693"
         style="stop-color:#ffff00;stop-opacity:1"
         offset="1" />
    </linearGradient>
    <linearGradient
       x1="0"
       y1="19"
       x2="54"
       y2="19"
       id="linearGradient3695"
       xlink:href="#linearGradient3689"
       gradientUnits="userSpaceOnUse"
       gradientTransform="translate(0.5,8.5)" />
  </defs>
  <path
     d="m 5.8333331,25.833333 0,-6.666667 A 6.6666667,6.6666667 0 0 1 12.5,12.5 l 6.666667,0 0,3.333333 16.666666,0 0,-3.333333 6.666667,0 a 6.6666667,6.6666667 0 0 1 6.666667,6.666666 l 0,6.666667 0,6.666667 A 6.6666667,6.6666667 0 0 1 42.5,39.166666 l -6.666667,0 -1.666666,0 0,3.333334 -13.333334,0 0,-3.333334 -1.666666,0 -6.666667,0 A 6.6666667,6.6666667 0 0 1 5.8333331,32.5 l 0,-6.666667 z"
     id="path2882"
     style="fill:#ffc000;fill-opacity:1;stroke:#a08000;stroke-width:1.66666663;stroke-linecap:square;stroke-opacity:1" />
</svg>
