<?xml version="1.0" encoding="UTF-8" standalone="no"?>
<svg
   xmlns:sketch="http://www.bohemiancoding.com/sketch/ns"
   xmlns:osb="http://www.openswatchbook.org/uri/2009/osb"
   xmlns:dc="http://purl.org/dc/elements/1.1/"
   xmlns:cc="http://creativecommons.org/ns#"
   xmlns:rdf="http://www.w3.org/1999/02/22-rdf-syntax-ns#"
   xmlns:svg="http://www.w3.org/2000/svg"
   xmlns="http://www.w3.org/2000/svg"
   xmlns:sodipodi="http://sodipodi.sourceforge.net/DTD/sodipodi-0.dtd"
   xmlns:inkscape="http://www.inkscape.org/namespaces/inkscape"
   version="1.1"
   id="svg2"
   viewBox="0 0 55.000001 55.000001"
   height="55"
   width="55"
   inkscape:version="0.91 r13725"
   sodipodi:docname="Show.svg">
  <sodipodi:namedview
     pagecolor="#ffffff"
     bordercolor="#666666"
     borderopacity="1"
     objecttolerance="10"
     gridtolerance="10"
     guidetolerance="10"
     inkscape:pageopacity="0"
     inkscape:pageshadow="2"
     inkscape:window-width="1366"
     inkscape:window-height="744"
     id="namedview8"
     showgrid="false"
     inkscape:zoom="5.6568543"
     inkscape:cx="-0.62984554"
     inkscape:cy="32.293553"
     inkscape:window-x="0"
     inkscape:window-y="24"
     inkscape:window-maximized="1"
     inkscape:current-layer="g4221" />
  <defs
     id="defs4">
    <linearGradient
       id="linearGradient4196"
       osb:paint="solid">
      <stop
         style="stop-color:#000000;stop-opacity:1;"
         offset="0"
         id="stop4198" />
    </linearGradient>
  </defs>
  <metadata
     id="metadata7">
    <rdf:RDF>
      <cc:Work
         rdf:about="">
        <dc:format>image/svg+xml</dc:format>
        <dc:type
           rdf:resource="http://purl.org/dc/dcmitype/StillImage" />
        <dc:title />
      </cc:Work>
    </rdf:RDF>
  </metadata>
  <g
     id="g4147"
     transform="matrix(0.49190994,0,0,0.46760972,4.4399582,5.178537)">
    <g
       id="g4221"
       transform="matrix(2.0328924,0,0,2.1385355,-144.47801,-20.346664)">
      <g
         id="g4203"
         sketch:type="MSPage"
         style="fill:none;fill-rule:evenodd;stroke:none;stroke-width:1"
         transform="matrix(0.78961074,0,0,0.7967913,70.178035,16.609098)">
        <g
           id="g4205"
           transform="translate(0,1)"
           sketch:type="MSLayerGroup"
           style="fill:#000000">
          <path
             id="path4207"
             sketch:type="MSShapeGroup"
             d="m 40.026,3.011 c -2.958,-0.902 -6.105,-1.46 -9.369,-1.46 -14.446,0 -26.606,10.9 -30.202,14.471 -0.622,0.618 -0.621,1.62 0.001,2.237 2.127,2.113 7.25,6.787 14.068,10.255 L 40.026,3.011"
             inkscape:connector-curvature="0" />
          <path
             id="path4209"
             sketch:type="MSShapeGroup"
             d="M 60.859,16.023 C 58.674,13.855 53.329,8.989 46.237,5.498 L 46.30704,5.48845 C 44.104173,4.6122564 42.375443,3.5598634 39.639999,2.8815864 L 14.215433,28.287527 c 1.271198,0.844283 2.542395,1.510987 3.813593,2.135409 L 20.669,31.066 c 3.138,1.018 6.494,1.664 9.988,1.664 14.446,0 26.605,-10.898 30.202,-14.471 0.623,-0.618 0.623,-1.618 0,-2.236 z m -19.75,3.379 c -0.851,4.075 -4.116,7.34 -8.191,8.191 -2.786,0.581 -5.414,0.049 -7.577,-1.199 l 4.57,-4.57 c 0.243,0.039 0.491,0.067 0.746,0.067 2.624,0 4.75,-2.127 4.75,-4.75 0,-0.255 -0.027,-0.503 -0.066,-0.746 l 4.57,-4.571 c 1.247,2.164 1.78,4.791 1.198,7.578 z"
             inkscape:connector-curvature="0"
             sodipodi:nodetypes="cccccccscccccccsscc" />
        </g>
      </g>
      <path
         style="fill:#ffffff;fill-opacity:1;stroke:none;stroke-width:0.1875;stroke-miterlimit:4;stroke-dasharray:none;stroke-opacity:1"
         d="m 96.512053,23.679574 c 0.825172,0.169713 2.349711,0.767969 2.350241,0.922287 -3.42e-4,0.04303 -0.770539,0.847402 -1.712635,1.787351 l -1.712905,1.708997 -0.763955,0.06568 c -1.458943,0.125425 -2.52282,0.841977 -3.160191,2.128481 -0.297572,0.600632 -0.377682,0.926175 -0.375624,1.526412 l 0.0026,0.762954 -1.714471,1.722962 c -0.942966,0.94763 -1.748253,1.723079 -1.789533,1.723221 -0.167449,5.76e-4 -0.76177,-1.550708 -0.935374,-2.44147 -0.37502,-1.924285 -0.145975,-3.592227 0.742655,-5.408162 1.007835,-2.059553 2.923777,-3.671787 5.166732,-4.347732 0.962085,-0.289938 2.868217,-0.363683 3.902446,-0.15098 z"
         id="path4271"
         inkscape:connector-curvature="0" />
      <path
         style="fill:#ffffff;fill-opacity:1;fill-rule:evenodd;stroke:none;stroke-width:1px;stroke-linecap:butt;stroke-linejoin:miter;stroke-opacity:1"
         d="m 87.534056,35.957043 c 2.176101,2.992603 3.439493,2.563355 2.938912,2.673748 l 3.557631,-3.822796 c -1.499142,-0.01935 -2.478059,-0.864906 -2.916815,-2.298098 z"
         id="path4281"
         inkscape:connector-curvature="0"
         sodipodi:nodetypes="ccccc" />
      <path
         style="fill:#ffffff;fill-opacity:1;fill-rule:evenodd;stroke:none;stroke-width:1px;stroke-linecap:butt;stroke-linejoin:miter;stroke-opacity:1"
         d="m 101.77733,26.996876 c -2.349603,-2.943881 -3.677627,-2.486874 -2.997172,-2.608279 l -3.560835,3.723552 c 1.499201,-0.01372 2.408141,1.053109 2.878398,2.476276 z"
         id="path4281-2"
         inkscape:connector-curvature="0"
         sodipodi:nodetypes="ccccc" />
      <path
         style="fill:#ffffff;fill-opacity:1;stroke:none;stroke-width:1.5;stroke-miterlimit:4;stroke-dasharray:none;stroke-opacity:1"
         d="m 25.694383,34.883433 c -3.603259,-1.011832 -5.668058,-3.689479 -5.674613,-7.358878 -0.0072,-4.012796 3.138744,-7.602567 7.129923,-8.135888 3.577754,-0.478078 7.309735,1.494937 8.434093,4.458916 0.568193,1.497842 0.605855,3.967801 0.08476,5.558701 -0.740244,2.259959 -2.757983,4.370784 -4.986957,5.217026 -1.342516,0.509692 -3.666754,0.63092 -4.987207,0.260123 z m 3.477161,-4.602643 c 1.864682,-0.778923 2.834497,-2.964628 2.09778,-4.727839 -0.320514,-0.767099 -1.382169,-1.671579 -2.125804,-1.811086 -2.254516,-0.42295 -4.690212,1.497867 -4.702548,3.708482 -0.0026,0.465601 -0.13544,0.845238 -0.40163,1.147783 -0.343916,0.390888 -0.347958,0.410323 -0.02986,0.143601 0.357847,-0.300051 0.379557,-0.290367 0.795495,0.354818 0.827616,1.283764 2.828952,1.826539 4.366567,1.184241 z"
         id="path4143"
         inkscape:connector-curvature="0"
         transform="translate(66.630212,4.3357609)" />
      <path
         style="fill:#ffffff;fill-opacity:1;stroke:none;stroke-width:1.5;stroke-miterlimit:4;stroke-dasharray:none;stroke-opacity:1"
         d="m 25.731411,34.89291 c -1.576555,-0.444301 -2.58503,-1.01668 -3.641957,-2.067062 -3.740412,-3.717251 -2.235465,-10.49018 2.852377,-12.836964 2.956902,-1.36388 6.859252,-0.631111 9.222046,1.731683 1.458895,1.458894 1.838656,2.502911 1.831141,5.034066 -0.0047,1.584321 -0.07902,2.132016 -0.401194,2.956549 -0.85239,2.181535 -2.782781,4.103035 -4.948477,4.925688 -1.288474,0.489434 -3.649274,0.612443 -4.913936,0.25604 z m 3.568554,-4.667263 c 2.067908,-0.939431 2.866703,-3.651621 1.557991,-5.289934 -0.781804,-0.978703 -1.539547,-1.316466 -2.677445,-1.193465 -2.133852,0.230657 -3.743421,1.850299 -3.743421,3.766847 0,0.372586 -0.09944,0.784559 -0.220971,0.915495 -0.125701,0.135426 -0.135002,0.190027 -0.02157,0.126644 0.112353,-0.06278 0.406847,0.202052 0.674605,0.606662 0.856458,1.294196 2.866243,1.77852 4.430814,1.067751 z"
         id="path4145"
         inkscape:connector-curvature="0"
         transform="translate(66.630212,4.3357609)" />
      <path
         style="fill:#ffffff;fill-opacity:1;stroke:none;stroke-width:1.5;stroke-miterlimit:4;stroke-dasharray:none;stroke-opacity:1"
         d="m 25.710909,34.887663 c -2.468144,-0.694165 -4.423226,-2.322925 -5.180193,-4.315568 -0.579098,-1.524422 -0.654117,-3.731549 -0.179898,-5.292812 0.739613,-2.435015 2.750274,-4.613844 5.089616,-5.515303 1.560284,-0.601252 4.135795,-0.575349 5.760195,0.05793 2.271992,0.885748 3.838442,2.362441 4.490565,4.233256 0.481884,1.382429 0.43066,4.291197 -0.0996,5.656014 -0.845953,2.177356 -2.779127,4.102495 -4.946244,4.925688 -1.297923,0.493023 -3.648413,0.612487 -4.934438,0.250793 z m 4.011986,-4.918488 c 2.117784,-1.401484 2.372697,-4.256947 0.505263,-5.659816 -0.761495,-0.572057 -1.47738,-0.704907 -2.534928,-0.47042 -1.831645,0.406127 -3.039245,1.706468 -3.241055,3.489964 -0.100161,0.885174 -0.06054,1.101362 0.306208,1.670913 0.735513,1.142224 1.666409,1.571513 3.242448,1.495276 0.735426,-0.03557 1.191647,-0.174904 1.722064,-0.525917 z"
         id="path4147"
         inkscape:connector-curvature="0"
         transform="translate(66.630212,4.3357609)" />
      <path
         style="fill:#ffffff;fill-opacity:1;stroke:none;stroke-width:1.5;stroke-miterlimit:4;stroke-dasharray:none;stroke-opacity:1"
         d="m 25.674526,34.910182 c -2.414742,-0.704598 -4.3952,-2.365978 -5.131259,-4.304543 -0.592141,-1.559525 -0.671282,-3.749902 -0.192449,-5.326356 0.739613,-2.435015 2.750274,-4.613844 5.089616,-5.515303 1.560284,-0.601252 4.135795,-0.575349 5.760195,0.05793 2.233572,0.87077 3.692161,2.19512 4.407521,4.001879 0.567147,1.432424 0.562232,4.441067 -0.0096,5.887391 -0.865752,2.189661 -2.78821,4.101908 -4.953185,4.926876 -1.235779,0.470896 -3.807172,0.611665 -4.970821,0.272124 z m 3.24986,-4.572256 c 1.399983,-0.418305 2.583771,-2.072521 2.583771,-3.610539 0,-0.682288 -0.680016,-1.989371 -1.251118,-2.404819 -1.058859,-0.770267 -2.874112,-0.69136 -4.140571,0.179985 -0.875009,0.602021 -1.679658,2.099174 -1.678718,3.123468 0.0019,2.061307 2.205761,3.393414 4.486636,2.711905 z"
         id="path4149"
         inkscape:connector-curvature="0"
         transform="translate(66.630212,4.3357609)" />
    </g>
  </g>
</svg>
