<?xml version="1.0" encoding="UTF-8" standalone="no"?>
<!-- Created with Inkscape (http://www.inkscape.org/) -->

<svg
   xmlns:dc="http://purl.org/dc/elements/1.1/"
   xmlns:cc="http://creativecommons.org/ns#"
   xmlns:rdf="http://www.w3.org/1999/02/22-rdf-syntax-ns#"
   xmlns:svg="http://www.w3.org/2000/svg"
   xmlns="http://www.w3.org/2000/svg"
   version="1.1"
   width="55"
   height="55"
   id="svg2">
  <metadata
     id="metadata16">
    <rdf:RDF>
      <cc:Work
         rdf:about="">
        <dc:format>image/svg+xml</dc:format>
        <dc:type
           rdf:resource="http://purl.org/dc/dcmitype/StillImage" />
        <dc:title></dc:title>
      </cc:Work>
    </rdf:RDF>
  </metadata>
  <defs
     id="defs14" />
  <g
     transform="matrix(0.55046197,0,0,0.55046197,60.961377,11.567073)"
     id="g3773"
     style="stroke-width:1.81665587;stroke-miterlimit:4;stroke-dasharray:none">
    <path
       d="m -100.75424,65.254237 c 0,0 5.915279,-5.154157 9.555087,-6.292373 3.114887,-0.974066 6.527464,-0.372133 9.788136,-0.233051 7.130553,0.304148 14.20129,3.210253 21.283898,2.330509 7.073931,-0.878666 15.543041,-1.928744 20.042373,-7.457628 3.571369,-4.388581 2.431373,-11.123086 2.563559,-16.779661 0.03467,-1.483738 -0.500337,-2.944218 -0.466102,-4.427966 0.08338,-3.613622 1.646422,-7.105785 1.631356,-10.720338 -0.01837,-4.406068 -1.552482,-8.678574 -2.097457,-13.0508476 -0.434082,-3.4825974 -3.059327,-7.69582558 -0.932204,-10.4872879 1.052825,-1.3816413 3.739701,-1.9774049 5.127119,-0.932204 0.623567,0.4697595 0.609904,1.6467754 0.233051,2.33050896 -0.251546,0.45638594 -1.093602,1.12190449 -1.398305,0.699152 -0.192711,-0.267372 0.420537,-0.87521706 0.699152,-0.699152 1.024291,0.64727996 -1.293609,2.21549374 -1.218175,3.42481324 0.120766,1.9360504 0.702133,5.5113583 2.61648,5.198068 3.252568,-0.5322955 -0.07564,-6.8402493 1.398306,-9.7881352 0.589577,-1.1791545 1.529362,-2.4331691 2.79661,-2.796611 0.996266,-0.2857253 2.497798,-0.190401 3.029661,0.699153 0.454529,0.7602106 0.09371,2.1687392 -0.699152,2.563559 -0.374478,0.18647751 -0.99388,-0.847727 -1.165255,-0.466101 -0.07116,0.1584615 0.390301,0.076756 0.466102,0.23305 1.003898,2.06994222 -2.668065,0.66031964 -1.398305,6.758475 0.158357,0.7605246 0.854437,1.3097162 1.398305,1.8644068 2.208534,2.2524807 6.929751,2.716184 7.457627,5.8262707 0.432704,2.549365 -2.982262,4.241574 -4.194915,6.525424 -0.554895,1.045061 -1.186779,2.098531 -1.398305,3.262712 -0.611675,3.36649 0.388397,6.833511 0.466101,10.254237 0.07586,3.339534 0.329155,6.697047 0,10.021186 -0.429349,4.336008 -0.601799,8.927192 -2.563559,12.817797 -2.030399,4.026731 -5.075345,7.965026 -9.088983,10.021186 -7.37555,3.778445 -16.416982,2.900727 -24.70339,2.796611 -9.044135,-0.113637 -17.848273,-3.191008 -26.877119,-3.728814 -4.110679,-0.244854 -12.351697,0.233051 -12.351697,0.233051 z"
       id="path2995"
       style="fill:#ff9955;stroke:#000000;stroke-width:1.81665587;stroke-linecap:butt;stroke-linejoin:miter;stroke-miterlimit:4;stroke-opacity:1;stroke-dasharray:none" />
    <path
       d="m -49.201938,59.040821 c 0,0 11.09999,-2.134912 11.561478,-12.813637 0.3231,-7.476435 1.174826,-12.330218 0.666922,-12.489237 -0.47598,-0.149024 -4.140353,-3.86181 -4.509513,-4.606592 C -48.907039,14.153404 -50.890679,12.66098 -58.961864,8.8559322 -65.427921,5.8076003 -73.577811,6.2625657 -80.402542,8.3898307 -86.351428,10.244095 -92.237084,14.066241 -95.550848,19.34322 c -3.525141,5.613587 -4.646192,13.048218 -3.495762,19.576272 0.779297,4.422078 3.725516,8.341463 6.758474,11.652542 3.464746,3.782462 7.682728,7.345402 12.584746,8.855932 9.652203,2.974273 22.980785,6.497375 30.296611,-0.466102 6.089794,-5.796495 5.698432,-17.811242 1.631355,-25.169492 -2.571758,-4.652885 -8.766074,-8.369439 -14.025424,-7.59322 -3.572763,0.527299 -8.060109,4.104754 -7.631356,7.690678 0.842223,7.044018 8.790936,10.392331 14.411018,9.322034 1.312923,-0.250035 2.099708,-1.946271 2.330508,-3.262711 0.298386,-1.701936 -0.371049,-3.60215 -1.398305,-4.991526 -1.111533,-1.503362 -2.858066,-3.195623 -4.720339,-3.029661 -1.478285,0.131742 -3.40333,1.552194 -3.262712,3.029661 0.138874,1.459138 2.291941,2.619934 3.728814,2.330509 1.584664,-0.319194 2.79661,-3.961865 2.79661,-3.961865"
       id="path2997"
       style="fill:#cd87de;stroke:#000000;stroke-width:1.81665587;stroke-linecap:butt;stroke-linejoin:miter;stroke-miterlimit:4;stroke-opacity:1;stroke-dasharray:none" />
    <path
       d="m -26.800847,13.283898 a 2.2139831,2.0974576 0 1 1 -4.427966,0 2.2139831,2.0974576 0 1 1 4.427966,0 z"
       id="path2999"
       style="fill:#ffffff;fill-opacity:1;fill-rule:nonzero;stroke:#000000;stroke-width:1.81665587;stroke-linecap:round;stroke-linejoin:round;stroke-miterlimit:4;stroke-opacity:1;stroke-dasharray:none;stroke-dashoffset:0" />
    <path
       d="m -28.199153,18.877119 c 3.874053,0.888297 5.36017,-1.398305 5.36017,-1.398305"
       id="path3001"
       style="fill:none;stroke:#000000;stroke-width:1.81665587;stroke-linecap:round;stroke-linejoin:miter;stroke-miterlimit:4;stroke-opacity:1;stroke-dasharray:none" />
    <path
       d="m -29.272247,13.132242 a 0.56292784,0.63329381 0 1 1 -1.125855,0 0.56292784,0.63329381 0 1 1 1.125855,0 z"
       id="path3003"
       style="fill:#ffff00;fill-opacity:1;fill-rule:nonzero;stroke:#000000;stroke-width:1.81665587;stroke-linecap:round;stroke-linejoin:round;stroke-miterlimit:4;stroke-opacity:1;stroke-dasharray:none;stroke-dashoffset:0" />
  </g>
</svg>
