<?xml version="1.0" standalone="no"?>
<!DOCTYPE svg PUBLIC "-//W3C//DTD SVG 20010904//EN" "http://www.w3.org/TR/2001/REC-SVG-20010904/DTD/svg10.dtd">
<svg xmlns="http://www.w3.org/2000/svg" version="1.0" width="1214.000000pt" height="1074.000000pt" viewBox="0 0 1214.000000 1074.000000" preserveAspectRatio="xMidYMid meet">
<metadata>
Created by potrace 1.16, written by Peter Selinger 2001-2019
<meta name="Producer" content="Online-Convert"/></metadata>
<g transform="translate(0.000000,1074.000000) scale(0.100000,-0.100000)" fill="#000000" stroke="none">
<path d="M1460 10550 c0 -5 -18 -10 -40 -10 -22 0 -40 -4 -40 -10 0 -5 -13 -10 -30 -10 -16 0 -30 -4 -30 -10 0 -5 -9 -10 -20 -10 -11 0 -20 -4 -20 -10 0 -5 -8 -10 -18 -10 -10 0 -24 -9 -32 -20 -8 -11 -20 -20 -27 -20 -17 0 -163 -146 -163 -163 0 -7 -9 -19 -20 -27 -11 -8 -20 -22 -20 -32 0 -10 -4 -18 -10 -18 -5 0 -10 -9 -10 -20 0 -11 -4 -20 -10 -20 -5 0 -10 -13 -10 -30 0 -16 -4 -30 -10 -30 -5 0 -10 -18 -10 -40 0 -22 -4 -40 -10 -40 -7 0 -10 -1363 -10 -4070 0 -2707 3 -4070 10 -4070 6 0 10 -18 10 -40 0 -22 5 -40 10 -40 6 0 10 -9 10 -20 0 -11 5 -20 10 -20 6 0 10 -13 10 -28 0 -16 8 -34 20 -42 11 -8 20 -22 20 -32 0 -10 5 -18 10 -18 6 0 10 -7 10 -15 0 -19 144 -165 163 -165 7 0 19 -9 27 -20 8 -11 22 -20 32 -20 10 0 18 -4 18 -10 0 -5 9 -10 20 -10 11 0 20 -4 20 -10 0 -5 9 -10 20 -10 11 0 20 -4 20 -10 0 -5 14 -10 30 -10 17 0 30 -4 30 -10 0 -7 670 -10 1990 -10 l1990 0 0 140 0 140 -100 0 c-60 0 -100 4 -100 10 0 6 -13 10 -30 10 -16 0 -30 5 -30 10 0 6 -9 10 -20 10 -11 0 -20 5 -20 10 0 6 -9 10 -20 10 -11 0 -20 5 -20 10 0 6 -7 10 -16 10 -8 0 -42 27 -74 60 l-59 60 -645 0 -646 0 0 2020 0 2020 130 0 c80 0 130 4 130 10 0 6 14 10 30 10 17 0 30 5 30 10 0 6 13 10 28 10 16 0 34 8 42 20 8 11 20 20 27 20 19 0 143 126 143 145 0 8 5 15 10 15 6 0 10 9 10 20 0 11 5 20 10 20 6 0 10 9 10 20 0 11 5 20 10 20 7 0 10 653 10 1940 l0 1940 590 0 590 0 0 -1829 c0 -1454 -3 -1831 -12 -1835 -10 -5 -10 -7 0 -12 6 -3 12 -18 12 -34 0 -16 -6 -31 -12 -34 -10 -5 -10 -7 0 -12 7 -3 12 -25 12 -55 0 -27 5 -49 10 -49 6 0 10 -13 10 -30 0 -16 5 -30 10 -30 6 0 10 -9 10 -20 0 -11 5 -20 10 -20 6 0 10 -7 10 -15 0 -19 124 -145 143 -145 7 0 19 -9 27 -20 8 -12 26 -20 42 -20 15 0 28 -4 28 -10 0 -5 14 -10 30 -10 17 0 30 -4 30 -10 0 -6 47 -10 120 -10 l120 0 0 -680 0 -680 50 0 c28 0 50 5 50 10 0 6 47 10 120 10 73 0 120 -4 120 -10 0 -5 23 -10 50 -10 l50 0 0 620 c0 407 -3 620 -10 620 -16 0 -12 89 4 106 11 10 43 14 130 14 71 0 116 4 116 10 0 6 14 10 30 10 17 0 30 5 30 10 0 6 9 10 20 10 11 0 20 5 20 10 0 6 8 10 18 10 10 0 24 9 32 20 8 11 20 20 27 20 19 0 103 86 103 105 0 8 5 15 10 15 6 0 10 9 10 20 0 11 5 20 10 20 6 0 10 9 10 20 0 11 5 20 10 20 6 0 10 23 10 50 0 28 5 50 10 50 7 0 10 640 10 1900 l0 1900 570 0 570 0 0 -1920 c0 -1273 3 -1920 10 -1920 6 0 10 -18 10 -40 0 -22 5 -40 10 -40 6 0 10 -9 10 -20 0 -11 5 -20 10 -20 6 0 10 -7 10 -16 0 -9 14 -29 30 -44 16 -15 30 -35 30 -44 0 -9 7 -16 16 -16 9 0 29 -13 44 -30 15 -16 35 -30 44 -30 9 0 16 -4 16 -10 0 -5 9 -10 20 -10 11 0 20 -4 20 -10 0 -5 18 -10 40 -10 22 0 40 -4 40 -10 0 -6 45 -10 116 -10 87 0 119 -4 130 -14 12 -13 14 -295 14 -2020 l0 -2006 -620 0 c-407 0 -620 -3 -620 -10 0 -5 -8 -10 -18 -10 -10 0 -24 -9 -32 -20 -8 -11 -21 -20 -30 -20 -9 0 -22 -9 -30 -20 -8 -11 -22 -20 -32 -20 -10 0 -18 -4 -18 -10 0 -5 -9 -10 -20 -10 -11 0 -20 -4 -20 -10 0 -5 -9 -10 -20 -10 -11 0 -20 -4 -20 -10 0 -5 -9 -10 -20 -10 -11 0 -20 -4 -20 -10 0 -5 -18 -10 -40 -10 -22 0 -40 -4 -40 -10 0 -6 -30 -10 -70 -10 l-70 0 0 -140 0 -140 1790 0 c1187 0 1790 3 1790 10 0 6 18 10 40 10 22 0 40 5 40 10 0 6 14 10 30 10 17 0 30 5 30 10 0 6 9 10 20 10 11 0 20 5 20 10 0 6 8 10 18 10 10 0 24 9 32 20 8 11 20 20 27 20 17 0 183 166 183 183 0 7 9 19 20 27 11 8 20 22 20 32 0 10 5 18 10 18 6 0 10 14 10 30 0 17 5 30 10 30 6 0 10 14 10 30 0 17 5 30 10 30 6 0 10 23 10 50 0 28 5 50 10 50 7 0 10 1347 10 4020 0 2673 -3 4020 -10 4020 -5 0 -10 18 -10 40 0 22 -4 40 -10 40 -5 0 -10 14 -10 30 0 17 -4 30 -10 30 -5 0 -10 14 -10 30 0 17 -4 30 -10 30 -5 0 -10 8 -10 18 0 10 -9 24 -20 32 -11 8 -20 20 -20 27 0 17 -166 183 -183 183 -7 0 -19 9 -27 20 -8 11 -22 20 -32 20 -10 0 -18 5 -18 10 0 6 -9 10 -20 10 -11 0 -20 5 -20 10 0 6 -13 10 -30 10 -16 0 -30 5 -30 10 0 6 -27 10 -60 10 -33 0 -60 4 -60 10 0 7 -1533 10 -4580 10 -3047 0 -4580 -3 -4580 -10z m1100 -2400 c0 -1267 3 -1910 10 -1910 6 0 10 -13 10 -30 0 -16 5 -30 10 -30 6 0 10 -13 10 -30 0 -16 5 -30 10 -30 6 0 10 -8 10 -18 0 -10 9 -24 20 -32 11 -8 20 -20 20 -28 0 -17 65 -82 82 -82 8 0 20 -9 28 -20 8 -11 22 -20 32 -20 10 0 18 -4 18 -10 0 -5 14 -10 30 -10 17 0 30 -4 30 -10 0 -5 14 -10 30 -10 17 0 30 -4 30 -10 0 -6 47 -10 120 -10 l120 0 0 -110 c0 -67 4 -110 10 -110 6 0 10 -93 10 -260 0 -167 -4 -260 -10 -260 -5 0 -10 -9 -10 -20 0 -11 5 -20 10 -20 6 0 10 -9 10 -20 0 -11 -4 -20 -10 -20 -7 0 -10 -543 -10 -1610 l0 -1610 -810 0 c-533 0 -810 3 -810 10 0 6 -9 10 -20 10 -11 0 -20 5 -20 10 0 6 -7 10 -15 10 -20 0 -65 45 -65 65 0 8 -4 15 -10 15 -5 0 -10 9 -10 20 0 11 -4 20 -10 20 -7 0 -10 1327 -10 3960 0 2633 3 3960 10 3960 6 0 10 9 10 20 0 11 5 20 10 20 6 0 10 7 10 15 0 20 45 65 65 65 8 0 15 5 15 10 0 6 14 10 30 10 17 0 30 5 30 10 0 7 170 10 490 10 l490 0 0 -1910z m8000 1900 c0 -5 9 -10 20 -10 11 0 20 -4 20 -10 0 -5 7 -10 15 -10 20 0 85 -65 85 -85 0 -8 5 -15 10 -15 7 0 10 -1333 10 -3980 0 -2647 -3 -3980 -10 -3980 -5 0 -10 -7 -10 -15 0 -26 -86 -105 -115 -105 -14 0 -25 -4 -25 -10 0 -7 -227 -10 -660 -10 l-660 0 0 2020 0 2020 130 0 c80 0 130 4 130 10 0 6 14 10 30 10 17 0 30 5 30 10 0 6 12 10 26 10 16 0 37 12 54 30 15 17 33 30 39 30 16 0 61 46 61 62 0 8 9 20 20 28 11 8 20 22 20 32 0 10 5 18 10 18 6 0 10 9 10 20 0 11 5 20 10 20 6 0 10 18 10 40 0 22 5 40 10 40 7 0 10 647 10 1920 l0 1920 360 0 c233 0 360 -4 360 -10z"/>
<path d="M6180 4050 c0 -5 -13 -10 -30 -10 -16 0 -30 -4 -30 -10 0 -5 -7 -10 -15 -10 -17 0 -125 -104 -125 -120 0 -6 -40 -51 -90 -100 -49 -49 -90 -94 -90 -100 0 -6 -36 -46 -80 -90 -44 -44 -80 -84 -80 -90 0 -6 -31 -42 -70 -80 -38 -38 -70 -74 -70 -80 0 -6 -36 -46 -80 -90 -44 -44 -80 -84 -80 -90 0 -6 -36 -46 -80 -90 -44 -44 -80 -84 -80 -90 0 -6 -40 -51 -90 -100 -49 -49 -90 -94 -90 -100 0 -7 -18 -29 -40 -50 -22 -21 -40 -46 -40 -54 0 -9 -4 -16 -10 -16 -5 0 -10 -9 -10 -20 0 -11 -4 -20 -10 -20 -6 0 -10 -40 -10 -100 0 -60 4 -100 10 -100 6 0 10 -13 10 -30 0 -16 5 -30 10 -30 6 0 10 -7 10 -15 0 -20 105 -125 125 -125 8 0 15 -4 15 -10 0 -5 9 -10 20 -10 11 0 20 -4 20 -10 0 -6 49 -10 128 -10 116 0 129 2 142 20 8 11 20 20 27 20 16 0 103 85 103 100 0 6 50 60 110 120 61 60 110 114 110 120 0 6 41 51 90 100 50 49 90 96 90 105 0 8 5 15 10 15 7 0 10 -420 10 -1240 0 -820 3 -1240 10 -1240 6 0 10 -9 10 -20 0 -11 5 -20 10 -20 6 0 10 -9 10 -20 0 -11 5 -20 10 -20 6 0 10 -7 10 -15 0 -20 85 -105 105 -105 8 0 15 -4 15 -10 0 -5 14 -10 30 -10 17 0 30 -4 30 -10 0 -6 33 -10 80 -10 47 0 80 4 80 10 0 6 14 10 30 10 17 0 30 5 30 10 0 6 7 10 15 10 20 0 125 105 125 125 0 8 5 15 10 15 6 0 10 14 10 30 0 17 5 30 10 30 7 0 10 420 10 1240 0 820 3 1240 10 1240 6 0 10 -7 10 -15 0 -9 63 -78 140 -155 77 -77 140 -144 140 -150 0 -16 248 -260 265 -260 8 0 15 -4 15 -10 0 -5 18 -10 40 -10 22 0 40 -4 40 -10 0 -5 9 -10 20 -10 11 0 20 5 20 10 0 6 30 10 70 10 40 0 70 4 70 10 0 6 8 10 18 10 10 0 24 9 32 20 8 11 20 20 28 20 17 0 62 45 62 62 0 8 9 20 20 28 12 8 20 26 20 42 0 15 5 28 10 28 6 0 10 18 10 40 0 22 5 40 10 40 6 0 10 27 10 60 0 33 -4 60 -10 60 -5 0 -10 13 -10 28 0 16 -8 34 -20 42 -11 8 -20 20 -20 28 0 7 -27 40 -60 72 -33 32 -60 64 -60 70 0 6 -36 46 -80 90 -44 44 -80 84 -80 90 0 6 -40 51 -90 100 -49 49 -90 94 -90 100 0 6 -36 46 -80 90 -44 44 -80 84 -80 90 0 6 -31 42 -70 80 -38 38 -70 74 -70 80 0 6 -36 46 -80 90 -44 44 -80 84 -80 90 0 6 -40 51 -90 100 -49 49 -90 96 -90 105 0 8 -8 15 -18 15 -10 0 -24 9 -32 20 -8 11 -22 20 -32 20 -10 0 -18 5 -18 10 0 6 -13 10 -30 10 -16 0 -30 5 -30 10 0 6 -27 10 -60 10 -33 0 -60 -4 -60 -10z"/>
</g>
</svg> 
