<?xml version="1.0" encoding="UTF-8" standalone="no"?>
<svg
   width="360.25"
   height="270.84308"
   version="1.1"
   id="svg11950"
   xmlns="http://www.w3.org/2000/svg"
   xmlns:svg="http://www.w3.org/2000/svg">
  <defs
     id="defs11954" />
  <g
     id="g11526"
     transform="translate(-1420,-480.57846)">
    <g
       transform="translate(1420,481)"
       id="g11506">
      <g
         transform="scale(1.5)"
         id="g11504">
        <path
           d="m 0.5,14.5 v -4 a 4,4 90 0 1 4,-4 h 4 l 5,-6 5,6 h 9 60.783333 4 a 4,4 90 0 1 4,4 v 4 h -4 v -3 h -4 v 10 h 4 v -3 h 4 v 4 a 4,4 90 0 1 -4,4 h -4 H 27.5 h -1 v 2 h -8 v -2 h -1 -4 a 5,5 90 0 0 -5,5 v 4 4 105 4 a 5,5 90 0 0 5,5 h 4 v 2 h 10 v -2 h 8 v 6 6 4 a 4,4 90 0 1 -4,4 h -4 -9 l -5,6 -5,-6 h -4 a 4,4 90 0 1 -4,-4 v -4 z"
           style="fill:#f3c800;fill-opacity:1;stroke:#daaf30;stroke-width:1;stroke-linecap:round;stroke-opacity:1"
           id="path11494" />
        <text
           style="font-size:10px;font-family:sans-serif;text-anchor:start;fill:#282828"
           id="text11498"><tspan
             x="20"
             y="22"
             id="tspan11496">action</tspan></text>
        <text
           style="font-size:6.66667px;font-family:sans-serif;text-anchor:end;fill:#282828"
           id="text11502"><tspan
             x="86"
             y="6"
             id="tspan11500" /></text>
      </g>
    </g>
    <g
       transform="matrix(0.5,0,0,0.5,1420,493)"
       id="g11524">
      <g
         style="isolation:isolate"
         id="g11522">
        <g
           id="g11520"
           data-name="レイヤー 2">
          <g
             id="g11518">
            <rect
               width="42"
               height="42"
               rx="5"
               ry="5"
               style="opacity:0.4;mix-blend-mode:multiply;fill:#292929"
               id="rect11508"
               x="0"
               y="0" />
            <path
               d="m 30.56,29.8 -4.17,-4.16 h 2.26 a 1.035,1.035 0 1 0 0,-2.07 h -4.71 a 1.08,1.08 0 0 0 -1.11,1 v 0 c 0,0 0,0 0,0.06 v 4.64 0 a 1.04,1.04 0 1 0 2.08,0 v -2.19 l 4.19,4.19 a 1,1 0 0 0 1.46,0 1,1 0 0 0 0,-1.47 z"
               style="fill:#ffffff"
               id="path11510" />
            <path
               d="m 19.17,24.6 a 1.08,1.08 0 0 0 -1.11,-1 h -4.71 a 1.035,1.035 0 1 0 0,2.07 h 2.25 l -4.16,4.13 a 1.039447,1.039447 0 0 0 1.47,1.47 l 4.18,-4.19 v 2.26 a 1.04,1.04 0 1 0 2.08,0 V 24.7 c 0,0 0,0 0,-0.06 a 0.08,0.08 0 0 1 0,-0.04 z"
               style="fill:#ffffff"
               id="path11512" />
            <path
               d="m 23.94,20.5 h 4.7 a 1.04,1.04 0 1 0 0,-2.08 h -2.25 l 4.17,-4.16 a 1,1 0 0 0 0,-1.47 1,1 0 0 0 -1.46,0 L 24.91,17 v -2.28 a 1.04,1.04 0 1 0 -2.08,0 v 4.64 a 0.43,0.43 0 0 0 0,0.05 v 0.05 a 1.09,1.09 0 0 0 1.11,1.04 z"
               style="fill:#ffffff"
               id="path11514" />
            <path
               d="m 18.13,13.62 a 1.08,1.08 0 0 0 -1,1.09 V 17 l -4.18,-4.19 a 1,1 0 0 0 -1.47,0 1,1 0 0 0 0,1.46 l 4.16,4.17 h -2.29 a 1.04,1.04 0 1 0 0,2.08 h 4.71 a 1.09,1.09 0 0 0 1.11,-1 c 0,0 0,0 0,-0.06 v -4.75 a 1.07,1.07 0 0 0 -1.04,-1.09 z"
               style="fill:#ffffff"
               id="path11516" />
          </g>
        </g>
      </g>
    </g>
  </g>
  <g
     transform="translate(133,9.421535)"
     id="g11536">
    <g
       transform="scale(1.5)"
       id="g11534">
      <path
         d="m 8.5,0.5 h 90 v 20 h -90 v -8 -1 h -6 v 3 h -2 v -8 h 2 v 3 h 6 v -1 z"
         style="fill:#ff664b;fill-opacity:1;stroke:#ea4326;stroke-width:1;stroke-linecap:round;stroke-opacity:1"
         id="path11528" />
      <text
         style="font-size:10px;font-family:sans-serif;text-anchor:start;fill:#282828"
         id="text11532"><tspan
           x="13"
           y="14"
           id="tspan11530">action</tspan></text>
    </g>
  </g>
  <g
     transform="translate(14,41.421534)"
     id="g11550">
    <g
       transform="scale(1.5)"
       id="g11548">
      <path
         d="m 0.5,8.5 v -4 a 4,4 90 0 1 4,-4 h 4 v 2 h 10 v -2 h 38.349998 4 a 4,4 90 0 1 4,4 v 4 h -4 v -3 h -4 v 10 h 4 v -3 h 4 v 4 a 4,4 90 0 1 -4,4 h -4 H 18.5 h -1 v 2 h -8 v -2 h -1 -4 a 4,4 90 0 1 -4,-4 v -4 z"
         style="fill:#92a9ff;fill-opacity:1;stroke:#5370dc;stroke-width:1;stroke-linecap:round;stroke-opacity:1"
         id="path11538" />
      <text
         style="font-size:10px;font-family:sans-serif;text-anchor:end;fill:#282828"
         id="text11542"><tspan
           x="55"
           y="14"
           id="tspan11540">forward</tspan></text>
      <text
         style="font-size:6.66667px;font-family:sans-serif;text-anchor:end;fill:#282828"
         id="text11546"><tspan
           x="55"
           y="12"
           id="tspan11544" /></text>
    </g>
  </g>
  <g
     transform="translate(100,41.421534)"
     id="g11568">
    <g
       transform="scale(1.5)"
       id="g11566">
      <path
         d="m 8.5,8.5 v -4 a 4,4 90 0 1 4,-4 h 4 10 30 4 a 4,4 90 0 1 4,4 v 4 h -4 v -3 h -4 v 10 h 4 v -3 h 4 v 17 h -4 v -3 h -4 v 10 h 4 v -3 h 4 v 4 a 4,4 90 0 1 -4,4 h -4 -30 -10 -4 a 4,4 90 0 1 -4,-4 v -4 -21 -1 h -6 v 3 h -2 v -8 h 2 v 3 h 6 z"
         style="fill:#ff6ea1;fill-opacity:1;stroke:#ff2c76;stroke-width:1;stroke-linecap:round;stroke-opacity:1"
         id="path11552" />
      <text
         style="font-size:14px;font-family:sans-serif;text-anchor:end;fill:#282828"
         id="text11556"><tspan
           x="54"
           y="24"
           id="tspan11554">×</tspan></text>
      <text
         style="font-size:9.33333px;font-family:sans-serif;text-anchor:end;fill:#282828"
         id="text11560"><tspan
           x="54"
           y="12"
           id="tspan11558" /></text>
      <text
         style="font-size:9.33333px;font-family:sans-serif;text-anchor:end;fill:#282828"
         id="text11564"><tspan
           x="54"
           y="33"
           id="tspan11562" /></text>
    </g>
  </g>
  <g
     transform="translate(186,41.421534)"
     id="g11578">
    <g
       transform="scale(1.5)"
       id="g11576">
      <path
         d="m 8.5,0.5 h 69.016666 v 20 H 8.5 v -8 -1 h -6 v 3 h -2 v -8 h 2 v 3 h 6 v -1 z"
         style="fill:#ff6ea1;fill-opacity:1;stroke:#ff2c76;stroke-width:1;stroke-linecap:round;stroke-opacity:1"
         id="path11570" />
      <text
         style="font-size:10px;font-family:sans-serif;text-anchor:start;fill:#282828"
         id="text11574"><tspan
           x="13"
           y="14"
           id="tspan11572">10</tspan></text>
    </g>
  </g>
  <g
     transform="translate(186,73.421534)"
     id="g11588">
    <g
       transform="scale(1.5)"
       id="g11586">
      <path
         d="m 8.5,0.5 h 107.16666 v 20 H 8.5 v -8 -1 h -6 v 3 h -2 v -8 h 2 v 3 h 6 v -1 z"
         style="fill:#7cd622;fill-opacity:1;stroke:#57ad02;stroke-width:1;stroke-linecap:round;stroke-opacity:1"
         id="path11580" />
      <text
         style="font-size:10px;font-family:sans-serif;text-anchor:start;fill:#282828"
         id="text11584"><tspan
           x="13"
           y="14"
           id="tspan11582">change in pitch</tspan></text>
    </g>
  </g>
  <g
     transform="translate(14,73.421534)"
     id="g11598">
    <g
       transform="scale(1.5)"
       id="g11596">
      <path
         d="m 0.5,8.5 v -4 a 4,4 90 0 1 4,-4 h 4 v 2 h 10 v -2 h 20 4 a 4,4 90 0 1 4,4 v 4 4 4 a 4,4 90 0 1 -4,4 h -4 -20 -1 v 2 h -8 v -2 h -1 -4 a 4,4 90 0 1 -4,-4 v -4 z"
         style="fill:#c4c4c4;fill-opacity:1;stroke:#a0a0a0;stroke-width:1;stroke-linecap:round;stroke-opacity:1"
         id="path11590" />
      <text
         style="font-size:10px;font-family:sans-serif;text-anchor:end;fill:#282828"
         id="text11594"><tspan
           x="36"
           y="14"
           id="tspan11592">↓</tspan></text>
    </g>
  </g>
  <g
     transform="translate(14,105.42154)"
     id="g11612">
    <g
       transform="scale(1.5)"
       id="g11610">
      <path
         d="m 0.5,8.5 v -4 a 4,4 90 0 1 4,-4 h 4 v 2 h 10 v -2 h 30 4 a 4,4 90 0 1 4,4 v 4 h -4 v -3 h -4 v 10 h 4 v -3 h 4 v 4 a 4,4 90 0 1 -4,4 h -4 -30 -1 v 2 h -8 v -2 h -1 -4 a 4,4 90 0 1 -4,-4 v -4 z"
         style="fill:#92a9ff;fill-opacity:1;stroke:#5370dc;stroke-width:1;stroke-linecap:round;stroke-opacity:1"
         id="path11600" />
      <text
         style="font-size:10px;font-family:sans-serif;text-anchor:end;fill:#282828"
         id="text11604"><tspan
           x="46"
           y="14"
           id="tspan11602">right</tspan></text>
      <text
         style="font-size:6.66667px;font-family:sans-serif;text-anchor:end;fill:#282828"
         id="text11608"><tspan
           x="46"
           y="12"
           id="tspan11606" /></text>
    </g>
  </g>
  <g
     transform="translate(88,105.42154)"
     id="g11622">
    <g
       transform="scale(1.5)"
       id="g11620">
      <path
         d="m 8.5,0.5 h 69.016666 v 20 H 8.5 v -8 -1 h -6 v 3 h -2 v -8 h 2 v 3 h 6 v -1 z"
         style="fill:#ff6ea1;fill-opacity:1;stroke:#ff2c76;stroke-width:1;stroke-linecap:round;stroke-opacity:1"
         id="path11614" />
      <text
         style="font-size:10px;font-family:sans-serif;text-anchor:start;fill:#282828"
         id="text11618"><tspan
           x="13"
           y="14"
           id="tspan11616">90</tspan></text>
    </g>
  </g>
  <g
     transform="translate(14,137.42154)"
     id="g11636">
    <g
       transform="scale(1.5)"
       id="g11634">
      <path
         d="m 0.5,8.5 v -4 a 4,4 90 0 1 4,-4 h 4 v 2 h 10 v -2 h 38.349998 4 a 4,4 90 0 1 4,4 v 4 h -4 v -3 h -4 v 10 h 4 v -3 h 4 v 4 a 4,4 90 0 1 -4,4 h -4 H 18.5 h -1 v 2 h -8 v -2 h -1 -4 a 4,4 90 0 1 -4,-4 v -4 z"
         style="fill:#92a9ff;fill-opacity:1;stroke:#5370dc;stroke-width:1;stroke-linecap:round;stroke-opacity:1"
         id="path11624" />
      <text
         style="font-size:10px;font-family:sans-serif;text-anchor:end;fill:#282828"
         id="text11628"><tspan
           x="55"
           y="14"
           id="tspan11626">forward</tspan></text>
      <text
         style="font-size:6.66667px;font-family:sans-serif;text-anchor:end;fill:#282828"
         id="text11632"><tspan
           x="55"
           y="12"
           id="tspan11630" /></text>
    </g>
  </g>
  <g
     transform="translate(100,137.42154)"
     id="g11654">
    <g
       transform="scale(1.5)"
       id="g11652">
      <path
         d="m 8.5,8.5 v -4 a 4,4 90 0 1 4,-4 h 4 10 30 4 a 4,4 90 0 1 4,4 v 4 h -4 v -3 h -4 v 10 h 4 v -3 h 4 v 17 h -4 v -3 h -4 v 10 h 4 v -3 h 4 v 4 a 4,4 90 0 1 -4,4 h -4 -30 -10 -4 a 4,4 90 0 1 -4,-4 v -4 -21 -1 h -6 v 3 h -2 v -8 h 2 v 3 h 6 z"
         style="fill:#ff6ea1;fill-opacity:1;stroke:#ff2c76;stroke-width:1;stroke-linecap:round;stroke-opacity:1"
         id="path11638" />
      <text
         style="font-size:14px;font-family:sans-serif;text-anchor:end;fill:#282828"
         id="text11642"><tspan
           x="54"
           y="24"
           id="tspan11640">×</tspan></text>
      <text
         style="font-size:9.33333px;font-family:sans-serif;text-anchor:end;fill:#282828"
         id="text11646"><tspan
           x="54"
           y="12"
           id="tspan11644" /></text>
      <text
         style="font-size:9.33333px;font-family:sans-serif;text-anchor:end;fill:#282828"
         id="text11650"><tspan
           x="54"
           y="33"
           id="tspan11648" /></text>
    </g>
  </g>
  <g
     transform="translate(186,137.42154)"
     id="g11664">
    <g
       transform="scale(1.5)"
       id="g11662">
      <path
         d="m 8.5,0.5 h 83.016666 v 20 H 8.5 v -8 -1 h -6 v 3 h -2 v -8 h 2 v 3 h 6 v -1 z"
         style="fill:#ff8700;fill-opacity:1;stroke:#e86b0e;stroke-width:1;stroke-linecap:round;stroke-opacity:1"
         id="path11656" />
      <text
         style="font-size:10px;font-family:sans-serif;text-anchor:start;fill:#282828"
         id="text11660"><tspan
           x="13"
           y="14"
           id="tspan11658">note value</tspan></text>
    </g>
  </g>
  <g
     transform="translate(186,169.42154)"
     id="g11674">
    <g
       transform="scale(1.5)"
       id="g11672">
      <path
         d="m 8.5,0.5 h 69.016666 v 20 H 8.5 v -8 -1 h -6 v 3 h -2 v -8 h 2 v 3 h 6 v -1 z"
         style="fill:#ff6ea1;fill-opacity:1;stroke:#ff2c76;stroke-width:1;stroke-linecap:round;stroke-opacity:1"
         id="path11666" />
      <text
         style="font-size:10px;font-family:sans-serif;text-anchor:start;fill:#282828"
         id="text11670"><tspan
           x="13"
           y="14"
           id="tspan11668">40</tspan></text>
    </g>
  </g>
  <g
     transform="translate(14,169.42154)"
     id="g11684">
    <g
       transform="scale(1.5)"
       id="g11682">
      <path
         d="m 0.5,8.5 v -4 a 4,4 90 0 1 4,-4 h 4 v 2 h 10 v -2 h 20 4 a 4,4 90 0 1 4,4 v 4 4 4 a 4,4 90 0 1 -4,4 h -4 -20 -1 v 2 h -8 v -2 h -1 -4 a 4,4 90 0 1 -4,-4 v -4 z"
         style="fill:#c4c4c4;fill-opacity:1;stroke:#a0a0a0;stroke-width:1;stroke-linecap:round;stroke-opacity:1"
         id="path11676" />
      <text
         style="font-size:10px;font-family:sans-serif;text-anchor:end;fill:#282828"
         id="text11680"><tspan
           x="36"
           y="14"
           id="tspan11678">↓</tspan></text>
    </g>
  </g>
  <g
     transform="translate(14,201.42154)"
     id="g11698">
    <g
       transform="scale(1.5)"
       id="g11696">
      <path
         d="m 0.5,8.5 v -4 a 4,4 90 0 1 4,-4 h 4 v 2 h 10 v -2 h 30 4 a 4,4 90 0 1 4,4 v 4 h -4 v -3 h -4 v 10 h 4 v -3 h 4 v 4 a 4,4 90 0 1 -4,4 h -4 -30 -1 v 2 h -8 v -2 h -1 -4 a 4,4 90 0 1 -4,-4 v -4 z"
         style="fill:#92a9ff;fill-opacity:1;stroke:#5370dc;stroke-width:1;stroke-linecap:round;stroke-opacity:1"
         id="path11686" />
      <text
         style="font-size:10px;font-family:sans-serif;text-anchor:end;fill:#282828"
         id="text11690"><tspan
           x="46"
           y="14"
           id="tspan11688">left</tspan></text>
      <text
         style="font-size:6.66667px;font-family:sans-serif;text-anchor:end;fill:#282828"
         id="text11694"><tspan
           x="46"
           y="12"
           id="tspan11692" /></text>
    </g>
  </g>
  <g
     transform="translate(88,201.42154)"
     id="g11708">
    <g
       transform="scale(1.5)"
       id="g11706">
      <path
         d="m 8.5,0.5 h 69.016666 v 20 H 8.5 v -8 -1 h -6 v 3 h -2 v -8 h 2 v 3 h 6 v -1 z"
         style="fill:#ff6ea1;fill-opacity:1;stroke:#ff2c76;stroke-width:1;stroke-linecap:round;stroke-opacity:1"
         id="path11700" />
      <text
         style="font-size:10px;font-family:sans-serif;text-anchor:start;fill:#282828"
         id="text11704"><tspan
           x="13"
           y="14"
           id="tspan11702">90</tspan></text>
    </g>
  </g>
</svg>
