<?xml version="1.0" encoding="UTF-8" standalone="no"?>
<svg
   xmlns:dc="http://purl.org/dc/elements/1.1/"
   xmlns:cc="http://creativecommons.org/ns#"
   xmlns:rdf="http://www.w3.org/1999/02/22-rdf-syntax-ns#"
   xmlns:svg="http://www.w3.org/2000/svg"
   xmlns="http://www.w3.org/2000/svg"
   version="1.1"
   id="svg4075"
   viewBox="0 0 202.35205 176.34308"
   height="176.34308"
   width="202.35205">
  <defs
     id="defs4077" />
  <metadata
     id="metadata4080">
    <rdf:RDF>
      <cc:Work
         rdf:about="">
        <dc:format>image/svg+xml</dc:format>
        <dc:type
           rdf:resource="http://purl.org/dc/dcmitype/StillImage" />
        <dc:title></dc:title>
      </cc:Work>
    </rdf:RDF>
  </metadata>
  <path
     d="m 0.75,22.171537 v -6 a 6,6 0 0 1 6,-6 h 6 l 7.5,-8.9999996 7.5,8.9999996 h 13.5 45 6 a 6,6 0 0 1 6,6 v 6 6 6 a 6,6 0 0 1 -6,6 h -6 -45 -1.5 v 3 h -12 v -3 h -1.5 -6 a 7.5,7.5 0 0 0 -7.5,7.5 v 6 6 63.000003 6 a 7.5,7.5 0 0 0 7.5,7.5 h 6 v 3 h 15 v -3 h 12 v 9 9 6 a 6,6 0 0 1 -6,6 h -6 -13.5 l -7.5,9 -7.5,-9 h -6 a 6,6 0 0 1 -6,-6 v -6 z"
     style="fill:#ffbf00;fill-opacity:1;stroke:#daaf30;stroke-width:1.5;stroke-linecap:round;stroke-opacity:1"
     id="path943" />
  <text
     y="0.42153746"
     style="font-size:15px;font-family:sans-serif;text-anchor:start;fill:#000000;stroke-width:1.5"
     id="text947">
    <tspan
       style="stroke-width:1.5"
       x="8"
       y="32.671539"
       id="tspan945">start</tspan>
  </text>
  <path
     d="m 14.25,53.671537 v -6 a 6,6 0 0 1 6,-6 h 6 v 3 h 15 v -3 h 13.5 43.352051 5.999999 a 6,6 0 0 1 6,6 v 6 h -6 v -4.5 h -6 v 15 h 6 v -4.5 h 6 v 6 a 6,6 0 0 1 -6,6 h -6 H 54.75 53.25 v 3 h -12 v -3 h -1.5 -6 a 7.5,7.5 0 0 0 -7.5,7.5 v 6 6 6 a 7.5,7.5 0 0 0 7.5,7.500003 h 6 v 3 h 15 v -3 h 12 v 9 9 6 a 6,6 0 0 1 -6,6 h -6 -13.5 -1.5 v 3 h -12 v -3 h -1.5 -6 a 6,6 0 0 1 -6,-6 v -6 z"
     style="fill:#3edcdd;fill-opacity:1;stroke:#1dbcbd;stroke-width:1.5;stroke-linecap:round;stroke-opacity:1"
     id="path953" />
  <text
     y="40.921535"
     x="13.5"
     style="font-size:15px;font-family:sans-serif;text-anchor:start;fill:#000000;stroke-width:1.5"
     id="text957">
    <tspan
       style="stroke-width:1.5"
       x="21.5"
       y="63.796535"
       id="tspan955">set drum</tspan>
  </text>
  <text
     y="40.921535"
     x="13.5"
     style="font-size:10px;font-family:sans-serif;text-anchor:end;fill:#000000;stroke-width:1.5"
     id="text961">
    <tspan
       style="stroke-width:1.5"
       x="94.852051"
       y="57.796535"
       id="tspan959" />
  </text>
  <path
     d="m 111.60205,41.671537 h 90 v 30 h -90 v -12 -1.5 h -9 v 4.5 h -3 v -12 h 3 v 4.5 h 9 v -1.5 z"
     style="fill:#3edcdd;fill-opacity:1;stroke:#1dbcbd;stroke-width:1.5;stroke-linecap:round;stroke-opacity:1"
     id="path967" />
  <text
     y="40.921535"
     x="98.852051"
     style="font-size:15px;font-family:sans-serif;text-anchor:start;fill:#000000;stroke-width:1.5"
     id="text971">
    <tspan
       style="stroke-width:1.5"
       x="118.85205"
       y="61.671535"
       id="tspan969">kick drum</tspan>
  </text>
  <path
     d="m 27.75,85.171537 v -6 a 6,6 0 0 1 6,-6 h 6 v 3 h 15 v -3 h 60 6 a 6,6 0 0 1 6,6 v 6 6 6 a 6,6 0 0 1 -6,6.000003 h -6 -60 -1.5 v 3 h -12 v -3 h -1.5 -6 a 6,6 0 0 1 -6,-6.000003 v -6 z"
     style="fill:#ffbf00;fill-opacity:1;stroke:#daaf30;stroke-width:1.5;stroke-linecap:round;stroke-opacity:1"
     id="path1001" />
  <text
     y="72.421539"
     x="27"
     style="font-size:15px;font-family:sans-serif;text-anchor:end;fill:#000000;stroke-width:1.5"
     id="text1005">
    <tspan
       style="stroke-width:1.5"
       x="111.5"
       y="92.671539"
       id="tspan1003">chunk</tspan>
  </text>
</svg>
