<?xml version="1.0" encoding="UTF-8" standalone="no"?>
<svg
   xmlns:dc="http://purl.org/dc/elements/1.1/"
   xmlns:cc="http://creativecommons.org/ns#"
   xmlns:rdf="http://www.w3.org/1999/02/22-rdf-syntax-ns#"
   xmlns:svg="http://www.w3.org/2000/svg"
   xmlns="http://www.w3.org/2000/svg"
   id="svg44"
   version="1.1"
   height="362.66666"
   width="1322.6666">
  <metadata
     id="metadata50">
    <rdf:RDF>
      <cc:Work
         rdf:about="">
        <dc:format>image/svg+xml</dc:format>
        <dc:type
           rdf:resource="http://purl.org/dc/dcmitype/StillImage" />
        <dc:title></dc:title>
      </cc:Work>
    </rdf:RDF>
  </metadata>
  <defs
     id="defs48" />
  <g
     transform="translate(-293.33333,-268.33333)"
     id="g2" />
  <path
     id="path4"
     style="fill:none;stroke:#ff007e;stroke-width:39.99999905pt;stroke-linecap:round;stroke-opacity:1"
     d="m 26.666666,186.66667 a 160,160 0 0 1 3.07436,-31.21445 160,160 0 0 1 9.10491,-30.0149 160,160 0 0 1 14.78559,-27.661894 160,160 0 0 1 19.89806,-24.24584 160,160 0 0 1 24.24584,-19.89806 160,160 0 0 1 27.661894,-14.78559 160,160 0 0 1 30.0149,-9.10491 160,160 0 0 1 31.21445,-3.07436" />
  <path
     id="path6"
     style="fill:none;stroke:#ffe400;stroke-width:8.00000024pt;stroke-linecap:round;stroke-opacity:1"
     d="m 186.66667,26.666666 a 160,160 0 0 1 31.21445,3.07436 160,160 0 0 1 30.0149,9.10491 160,160 0 0 1 27.66189,14.78559 160,160 0 0 1 24.24584,19.89806 160,160 0 0 1 19.89806,24.24584 160,160 0 0 1 14.78559,27.661894 160,160 0 0 1 9.10491,30.0149 160,160 0 0 1 3.07436,31.21445" />
  <path
     id="path8"
     style="fill:none;stroke:#00c286;stroke-width:24pt;stroke-linecap:round;stroke-opacity:1"
     d="m 346.66667,186.66667 a 160,160 0 0 1 -3.07436,31.21445 160,160 0 0 1 -9.10491,30.0149 160,160 0 0 1 -14.78559,27.66189 160,160 0 0 1 -19.89806,24.24584 160,160 0 0 1 -24.24584,19.89806 160,160 0 0 1 -27.66189,14.78559 160,160 0 0 1 -30.0149,9.10491 160,160 0 0 1 -31.21445,3.07436 160,160 0 0 1 -31.21445,-3.07436 160,160 0 0 1 -30.0149,-9.10491" />
  <path
     id="path10"
     style="fill:none;stroke:#00c286;stroke-width:24pt;stroke-linecap:round;stroke-opacity:1"
     d="m 125.43732,334.4874 a 160,160 0 0 1 -27.661894,-14.78559 160,160 0 0 1 -24.24584,-19.89806 160,160 0 0 1 -19.89806,-24.24584 160,160 0 0 1 -14.78559,-27.66189 160,160 0 0 1 -9.10491,-30.0149 160,160 0 0 1 -3.07436,-31.21445" />
  <path
     id="path12"
     style="fill:none;stroke:#ff007e;stroke-width:39.99999905pt;stroke-linecap:round;stroke-opacity:1"
     d="m 346.66667,186.66667 a 160,160 0 0 1 3.07436,-31.21445 160,160 0 0 1 9.10491,-30.0149 160,160 0 0 1 14.78559,-27.661894 160,160 0 0 1 19.89806,-24.24584 160,160 0 0 1 24.24584,-19.89806 160,160 0 0 1 27.66189,-14.78559 160,160 0 0 1 30.0149,-9.10491 160,160 0 0 1 31.21445,-3.07436" />
  <path
     id="path14"
     style="fill:none;stroke:#ffe400;stroke-width:8.00000024pt;stroke-linecap:round;stroke-opacity:1"
     d="m 506.66667,26.666666 a 160,160 0 0 1 31.21445,3.07436 160,160 0 0 1 30.0149,9.10491 160,160 0 0 1 27.66189,14.78559 160,160 0 0 1 24.24584,19.89806 160,160 0 0 1 19.89806,24.24584 160,160 0 0 1 14.78559,27.661894 160,160 0 0 1 9.10491,30.0149 160,160 0 0 1 3.07436,31.21445" />
  <path
     id="path16"
     style="fill:none;stroke:#00c286;stroke-width:24pt;stroke-linecap:round;stroke-opacity:1"
     d="m 666.66667,186.66667 a 160,160 0 0 1 -3.07436,31.21445 160,160 0 0 1 -9.10491,30.0149 160,160 0 0 1 -14.78559,27.66189 160,160 0 0 1 -19.89806,24.24584 160,160 0 0 1 -24.24584,19.89806 160,160 0 0 1 -27.66189,14.78559 160,160 0 0 1 -30.0149,9.10491 160,160 0 0 1 -31.21445,3.07436 160,160 0 0 1 -31.21445,-3.07436 160,160 0 0 1 -30.0149,-9.10491" />
  <path
     id="path18"
     style="fill:none;stroke:#00c286;stroke-width:24pt;stroke-linecap:round;stroke-opacity:1"
     d="m 445.43732,334.4874 a 160,160 0 0 1 -27.66189,-14.78559 160,160 0 0 1 -24.24584,-19.89806 160,160 0 0 1 -19.89806,-24.24584 160,160 0 0 1 -14.78559,-27.66189 160,160 0 0 1 -9.10491,-30.0149 160,160 0 0 1 -3.07436,-31.21445" />
  <path
     id="path20"
     style="fill:none;stroke:#ff007e;stroke-width:39.99999905pt;stroke-linecap:round;stroke-opacity:1"
     d="m 666.66667,186.66667 a 160,160 0 0 1 3.07436,-31.21445 160,160 0 0 1 9.10491,-30.0149 160,160 0 0 1 14.78559,-27.661894 160,160 0 0 1 19.89804,-24.24584" />
  <path
     id="path22"
     style="fill:none;stroke:#fd6600;stroke-width:8.00000024pt;stroke-linecap:round;stroke-opacity:1"
     d="m 713.52957,73.529586 a 160,160 0 0 1 24.2459,-19.89806 160,160 0 0 1 27.6619,-14.78559 160,160 0 0 1 30.0148,-9.10491 160,160 0 0 1 31.2145,-3.07436" />
  <path
     id="path24"
     style="fill:none;stroke:#ffe400;stroke-width:8.00000024pt;stroke-linecap:round;stroke-opacity:1"
     d="m 826.66667,26.666666 a 160,160 0 0 1 31.2145,3.07436 160,160 0 0 1 30.0148,9.10491 160,160 0 0 1 27.6619,14.78559 160,160 0 0 1 24.2459,19.89806" />
  <path
     id="path26"
     style="fill:none;stroke:#4eeb00;stroke-width:8.00000024pt;stroke-linecap:round;stroke-opacity:1"
     d="m 939.80377,73.529586 a 160,160 0 0 1 19.898,24.24584 160,160 0 0 1 14.7856,27.661894 160,160 0 0 1 9.1049,30.0149 160,160 0 0 1 3.0744,31.21445" />
  <path
     id="path28"
     style="fill:none;stroke:#00c286;stroke-width:24pt;stroke-linecap:round;stroke-opacity:1"
     d="m 986.66667,186.66667 a 160,160 0 0 1 -3.0744,31.21445 160,160 0 0 1 -9.1049,30.0149 160,160 0 0 1 -14.7856,27.66189 160,160 0 0 1 -19.898,24.24584" />
  <path
     id="path30"
     style="fill:none;stroke:#00b9f1;stroke-width:8.00000024pt;stroke-linecap:round;stroke-opacity:1"
     d="m 939.80377,299.80375 a 160,160 0 0 1 -24.2459,19.89806 160,160 0 0 1 -27.6619,14.78559 160,160 0 0 1 -30.0148,9.10491 160,160 0 0 1 -31.2145,3.07436" />
  <path
     id="path32"
     style="fill:none;stroke:#005dff;stroke-width:8.00000024pt;stroke-linecap:round;stroke-opacity:1"
     d="m 826.66667,346.66667 a 160,160 0 0 1 -31.2145,-3.07436 160,160 0 0 1 -30.0148,-9.10491 160,160 0 0 1 -27.6619,-14.78559 160,160 0 0 1 -24.2459,-19.89806" />
  <path
     id="path34"
     style="fill:none;stroke:#ff00ff;stroke-width:8.00000024pt;stroke-linecap:round;stroke-opacity:1"
     d="m 713.52957,299.80375 a 160,160 0 0 1 -19.89804,-24.24584 160,160 0 0 1 -14.78559,-27.66189 160,160 0 0 1 -9.10491,-30.0149 160,160 0 0 1 -3.07436,-31.21445" />
  <path
     id="path36"
     style="fill:none;stroke:#ff007e;stroke-width:39.99999905pt;stroke-linecap:round;stroke-opacity:1"
     d="m 986.66667,186.66667 a 160,160 0 0 1 3.0744,-31.21445 160,160 0 0 1 9.1049,-30.0149 160,160 0 0 1 14.78563,-27.661894 160,160 0 0 1 19.898,-24.24584 160,160 0 0 1 24.2459,-19.89806 160,160 0 0 1 27.6619,-14.78559 160,160 0 0 1 30.0148,-9.10491 160,160 0 0 1 31.2145,-3.07436" />
  <path
     id="path38"
     style="fill:none;stroke:#ffe400;stroke-width:8.00000024pt;stroke-linecap:round;stroke-opacity:1"
     d="m 1146.6667,26.666666 a 160,160 0 0 1 31.2145,3.07436 160,160 0 0 1 30.0148,9.10491 160,160 0 0 1 27.6619,14.78559 160,160 0 0 1 24.2459,19.89806 160,160 0 0 1 19.898,24.24584 160,160 0 0 1 14.7856,27.661894 160,160 0 0 1 9.1049,30.0149 160,160 0 0 1 3.0744,31.21445" />
  <path
     id="path40"
     style="fill:none;stroke:#00c286;stroke-width:24pt;stroke-linecap:round;stroke-opacity:1"
     d="m 1306.6667,186.66667 a 160,160 0 0 1 -3.0744,31.21445 160,160 0 0 1 -9.1049,30.0149 160,160 0 0 1 -14.7856,27.66189 160,160 0 0 1 -19.898,24.24584 160,160 0 0 1 -24.2459,19.89806 160,160 0 0 1 -27.6619,14.78559 160,160 0 0 1 -30.0148,9.10491 160,160 0 0 1 -31.2145,3.07436 160,160 0 0 1 -31.2145,-3.07436 160,160 0 0 1 -30.0148,-9.10491" />
  <path
     id="path42"
     style="fill:none;stroke:#00c286;stroke-width:24pt;stroke-linecap:round;stroke-opacity:1"
     d="m 1085.4374,334.4874 a 160,160 0 0 1 -27.6619,-14.78559 160,160 0 0 1 -24.2459,-19.89806 160,160 0 0 1 -19.898,-24.24584 160,160 0 0 1 -14.78563,-27.66189 160,160 0 0 1 -9.1049,-30.0149 160,160 0 0 1 -3.0744,-31.21445" />
</svg>
