<?xml version="1.0" encoding="UTF-8" standalone="no"?>
<svg
   xmlns:dc="http://purl.org/dc/elements/1.1/"
   xmlns:cc="http://creativecommons.org/ns#"
   xmlns:rdf="http://www.w3.org/1999/02/22-rdf-syntax-ns#"
   xmlns:svg="http://www.w3.org/2000/svg"
   xmlns="http://www.w3.org/2000/svg"
   id="svg2310"
   version="1.1"
   viewBox="0 0 79.242706 46.657436"
   height="46.657436mm"
   width="79.242706mm">
  <defs
     id="defs2304" />
  <metadata
     id="metadata2307">
    <rdf:RDF>
      <cc:Work
         rdf:about="">
        <dc:format>image/svg+xml</dc:format>
        <dc:type
           rdf:resource="http://purl.org/dc/dcmitype/StillImage" />
        <dc:title></dc:title>
      </cc:Work>
    </rdf:RDF>
  </metadata>
  <g
     transform="translate(239.94873,-6.8200905)"
     id="layer1">
    <g
       id="g1548"
       transform="matrix(0.26458333,0,0,0.26458333,-239.94873,6.9316223)">
      <g
         id="g1546"
         transform="scale(1.5)">
        <path
           id="path1540"
           style="fill:#7cd622;fill-opacity:1;stroke:#57ad02;stroke-width:1;stroke-linecap:round;stroke-opacity:1"
           d="m 0.5,14.5 v -4 a 4,4 90 0 1 4,-4 h 4 l 5,-6 5,6 h 9 40 4 a 4,4 90 0 1 4,4 v 4 4 4 a 4,4 90 0 1 -4,4 h -4 -40 -1 v 2 h -8 v -2 h -1 -4 a 5,5 90 0 0 -5,5 v 4 4 42 4 a 5,5 90 0 0 5,5 h 4 v 2 h 10 v -2 h 8 v 6 6 4 a 4,4 90 0 1 -4,4 h -4 -9 l -5,6 -5,-6 h -4 a 4,4 90 0 1 -4,-4 v -4 z" />
        <text
           id="text1544"
           style="font-size:10px;font-family:sans-serif;text-anchor:start;fill:#282828">
          <tspan
             id="tspan1542"
             y="22"
             x="20">meter</tspan>
        </text>
      </g>
    </g>
    <g
       id="g1566"
       transform="matrix(0.26458333,0,0,0.26458333,-236.24457,17.779539)">
      <g
         id="g1564"
         transform="scale(1.5)">
        <path
           id="path1550"
           style="fill:#fe994f;fill-opacity:1;stroke:#e86b0e;stroke-width:1;stroke-linecap:round;stroke-opacity:1"
           d="m 0.5,8.5 v -4 a 4,4 90 0 1 4,-4 h 4 v 2 h 10 v -2 h 45 4 a 4,4 90 0 1 4,4 v 4 h -4 v -3 h -4 v 10 h 4 v -3 h 4 v 17 h -4 v -3 h -4 v 10 h 4 v -3 h 4 v 4 a 4,4 90 0 1 -4,4 h -4 -45 -1 v 2 h -8 v -2 h -1 -4 a 4,4 90 0 1 -4,-4 v -4 -21 z" />
        <text
           id="text1554"
           style="font-size:10px;font-family:sans-serif;text-anchor:end;fill:#282828">
          <tspan
             id="tspan1552"
             y="24"
             x="61">meter</tspan>
        </text>
        <text
           id="text1558"
           style="font-size:6.66666651px;font-family:sans-serif;text-anchor:end;fill:#282828">
          <tspan
             id="tspan1556"
             y="12"
             x="61">number of beats</tspan>
        </text>
        <text
           id="text1562"
           style="font-size:6.66666651px;font-family:sans-serif;text-anchor:end;fill:#282828">
          <tspan
             id="tspan1560"
             y="33"
             x="61">note value</tspan>
        </text>
      </g>
    </g>
    <g
       id="g1576"
       transform="matrix(0.26458333,0,0,0.26458333,-210.84457,17.779539)">
      <g
         id="g1574"
         transform="scale(1.5)">
        <path
           id="path1568"
           style="fill:#ff6ea1;fill-opacity:1;stroke:#ff2c76;stroke-width:1;stroke-linecap:round;stroke-opacity:1"
           d="m 8.5,0.5 h 60 v 20 h -60 v -8 -1 h -6 v 3 h -2 v -8 h 2 v 3 h 6 v -1 z" />
        <text
           id="text1572"
           style="font-size:10px;font-family:sans-serif;text-anchor:start;fill:#282828">
          <tspan
             id="tspan1570"
             y="14"
             x="13">4</tspan>
        </text>
      </g>
    </g>
    <g
       id="g1594"
       transform="matrix(0.26458333,0,0,0.26458333,-210.84457,26.246206)">
      <g
         id="g1592"
         transform="scale(1.5)">
        <path
           id="path1578"
           style="fill:#ff6ea1;fill-opacity:1;stroke:#ff2c76;stroke-width:1;stroke-linecap:round;stroke-opacity:1"
           d="m 8.5,8.5 v -4 a 4,4 90 0 1 4,-4 h 4 10 30 4 a 4,4 90 0 1 4,4 v 4 h -4 v -3 h -4 v 10 h 4 v -3 h 4 v 17 h -4 v -3 h -4 v 10 h 4 v -3 h 4 v 4 a 4,4 90 0 1 -4,4 h -4 -30 -10 -4 a 4,4 90 0 1 -4,-4 v -4 -21 -1 h -6 v 3 h -2 v -8 h 2 v 3 h 6 z" />
        <text
           id="text1582"
           style="font-size:9px;font-family:sans-serif;text-anchor:end;fill:#282828">
          <tspan
             id="tspan1580"
             y="23"
             x="54">/</tspan>
        </text>
        <text
           id="text1586"
           style="font-size:6px;font-family:sans-serif;text-anchor:end;fill:#282828">
          <tspan
             id="tspan1584"
             y="12"
             x="54" />
        </text>
        <text
           id="text1590"
           style="font-size:6px;font-family:sans-serif;text-anchor:end;fill:#282828">
          <tspan
             id="tspan1588"
             y="33"
             x="54" />
        </text>
      </g>
    </g>
    <g
       id="g1604"
       transform="matrix(0.26458333,0,0,0.26458333,-188.0904,26.246206)">
      <g
         id="g1602"
         transform="scale(1.5)">
        <path
           id="path1596"
           style="fill:#ff6ea1;fill-opacity:1;stroke:#ff2c76;stroke-width:1;stroke-linecap:round;stroke-opacity:1"
           d="m 8.5,0.5 h 60 v 20 h -60 v -8 -1 h -6 v 3 h -2 v -8 h 2 v 3 h 6 v -1 z" />
        <text
           id="text1600"
           style="font-size:10px;font-family:sans-serif;text-anchor:start;fill:#282828">
          <tspan
             id="tspan1598"
             y="14"
             x="13">1</tspan>
        </text>
      </g>
    </g>
    <g
       id="g1614"
       transform="matrix(0.26458333,0,0,0.26458333,-188.0904,34.712873)">
      <g
         id="g1612"
         transform="scale(1.5)">
        <path
           id="path1606"
           style="fill:#ff6ea1;fill-opacity:1;stroke:#ff2c76;stroke-width:1;stroke-linecap:round;stroke-opacity:1"
           d="m 8.5,0.5 h 60 v 20 h -60 v -8 -1 h -6 v 3 h -2 v -8 h 2 v 3 h 6 v -1 z" />
        <text
           id="text1610"
           style="font-size:10px;font-family:sans-serif;text-anchor:start;fill:#282828">
          <tspan
             id="tspan1608"
             y="14"
             x="13">4</tspan>
        </text>
      </g>
    </g>
    <g
       id="g1624"
       transform="matrix(0.26458333,0,0,0.26458333,-236.24457,34.44829)">
      <g
         id="g1622"
         transform="scale(1.5)">
        <path
           id="path1616"
           style="fill:#c4c4c4;fill-opacity:1;stroke:#a0a0a0;stroke-width:1;stroke-linecap:round;stroke-opacity:1"
           d="m 0.5,8.5 v -4 a 4,4 90 0 1 4,-4 h 4 v 2 h 10 v -2 h 20 4 a 4,4 90 0 1 4,4 v 4 4 4 a 4,4 90 0 1 -4,4 h -4 -20 -1 v 2 h -8 v -2 h -1 -4 a 4,4 90 0 1 -4,-4 v -4 z" />
        <text
           id="text1620"
           style="font-size:10px;font-family:sans-serif;text-anchor:end;fill:#282828">
          <tspan
             id="tspan1618"
             y="14"
             x="36">↓</tspan>
        </text>
      </g>
    </g>
  </g>
</svg>
