<?xml version="1.0" encoding="UTF-8" standalone="no"?>
<svg
   xmlns:dc="http://purl.org/dc/elements/1.1/"
   xmlns:cc="http://creativecommons.org/ns#"
   xmlns:rdf="http://www.w3.org/1999/02/22-rdf-syntax-ns#"
   xmlns:svg="http://www.w3.org/2000/svg"
   xmlns="http://www.w3.org/2000/svg"
   width="267.39487"
   height="120.93749"
   viewBox="0 0 267.39487 120.93749"
   id="svg4075"
   version="1.1">
  <defs
     id="defs4077" />
  <metadata
     id="metadata4080">
    <rdf:RDF>
      <cc:Work
         rdf:about="">
        <dc:format>image/svg+xml</dc:format>
        <dc:type
           rdf:resource="http://purl.org/dc/dcmitype/StillImage" />
        <dc:title></dc:title>
      </cc:Work>
    </rdf:RDF>
  </metadata>
  <g
     id="g943"
     transform="scale(0.93749997)">
    <g
       transform="scale(1.5)"
       id="g941">
      <path
         d="m 0.5,8.5 v -4 a 4,4 90 0 1 4,-4 h 4 v 2 h 10 v -2 h 9 36.147461 4 a 4,4 90 0 1 4,4 v 4 h -4 v -3 h -4 v 10 h 4 v -3 h 4 v 4 a 4,4 90 0 1 -4,4 h -4 H 27.5 h -1 v 2 h -8 v -2 h -1 -4 a 5,5 90 0 0 -5,5 v 4 4 21 4 a 5,5 90 0 0 5,5 h 4 v 2 h 10 v -2 h 8 v 6 6 4 a 4,4 90 0 1 -4,4 h -4 -9 -1 v 2 h -8 v -2 h -1 -4 a 4,4 90 0 1 -4,-4 v -4 z"
         style="fill:#fe994f;fill-opacity:1;stroke:#e8680e;stroke-width:1;stroke-linecap:round;stroke-opacity:1"
         id="path931" />
      <text
         style="font-size:10px;font-family:sans-serif;text-anchor:start;fill:#000000"
         id="text935">
        <tspan
           x="5.3333335"
           y="15.25"
           id="tspan933">note value</tspan>
      </text>
      <text
         style="font-size:6.66666651px;font-family:sans-serif;text-anchor:end;fill:#000000"
         id="text939">
        <tspan
           x="61.480793"
           y="11.25"
           id="tspan937" />
      </text>
    </g>
  </g>
  <g
     transform="matrix(0.93749997,0,0,0.93749997,90.20736,0)"
     id="g961">
    <g
       transform="scale(1.5)"
       id="g959">
      <path
         d="m 8.5,8.5 v -4 a 4,4 90 0 1 4,-4 h 4 10 30 4 a 4,4 90 0 1 4,4 v 4 h -4 v -3 h -4 v 10 h 4 v -3 h 4 v 17 h -4 v -3 h -4 v 10 h 4 v -3 h 4 v 4 a 4,4 90 0 1 -4,4 h -4 -30 -10 -4 a 4,4 90 0 1 -4,-4 v -4 -21 -1 h -6 v 3 h -2 v -8 h 2 v 3 h 6 z"
         style="fill:#ff6ea1;fill-opacity:1;stroke:#ff2c76;stroke-width:1;stroke-linecap:round;stroke-opacity:1"
         id="path945" />
      <text
         style="font-size:14px;font-family:sans-serif;text-anchor:end;fill:#000000"
         id="text949">
        <tspan
           x="54.333332"
           y="23.799999"
           id="tspan947">/</tspan>
      </text>
      <text
         style="font-size:9.33333302px;font-family:sans-serif;text-anchor:end;fill:#000000"
         id="text953">
        <tspan
           x="54.333332"
           y="10.75"
           id="tspan951" />
      </text>
      <text
         style="font-size:9.33333302px;font-family:sans-serif;text-anchor:end;fill:#000000"
         id="text957">
        <tspan
           x="54.333332"
           y="31.75"
           id="tspan955" />
      </text>
    </g>
  </g>
  <g
     transform="matrix(0.93749997,0,0,0.93749997,170.36361,0)"
     id="g971">
    <g
       transform="scale(1.5)"
       id="g969">
      <path
         d="m 8.5,0.5 h 60 v 20 h -60 v -8 -1 h -6 v 3 h -2 v -8 h 2 v 3 h 6 v -1 z"
         style="fill:#ff6ea1;fill-opacity:1;stroke:#ff2c76;stroke-width:1;stroke-linecap:round;stroke-opacity:1"
         id="path963" />
      <text
         style="font-size:10px;font-family:sans-serif;text-anchor:start;fill:#000000"
         id="text967">
        <tspan
           x="13.333333"
           y="13.833333"
           id="tspan965">1</tspan>
      </text>
    </g>
  </g>
  <g
     transform="matrix(0.93749997,0,0,0.93749997,170.36361,29.531249)"
     id="g981">
    <g
       transform="scale(1.5)"
       id="g979">
      <path
         d="m 8.5,0.5 h 60 v 20 h -60 v -8 -1 h -6 v 3 h -2 v -8 h 2 v 3 h 6 v -1 z"
         style="fill:#ff6ea1;fill-opacity:1;stroke:#ff2c76;stroke-width:1;stroke-linecap:round;stroke-opacity:1"
         id="path973" />
      <text
         style="font-size:10px;font-family:sans-serif;text-anchor:start;fill:#000000"
         id="text977">
        <tspan
           x="13.333333"
           y="13.833333"
           id="tspan975">8</tspan>
      </text>
    </g>
  </g>
  <path
     d="m 13.359375,41.484374 v -5.625 a 5.625,5.625 0 0 1 5.625,-5.625 h 5.625 v 2.8125 h 14.0625 v -2.8125 h 28.125 5.625 a 5.625,5.625 0 0 1 5.625,5.625 v 5.625 5.625 5.625 a 5.625,5.625 0 0 1 -5.625,5.625 h -5.625 -28.125 -1.40625 v 2.8125 h -11.25 v -2.8125 h -1.40625 -5.625 a 5.625,5.625 0 0 1 -5.625,-5.625 v -5.625 z"
     style="fill:#c4c4c4;fill-opacity:1;stroke:#a0a0a0;stroke-width:1.40625;stroke-linecap:round;stroke-opacity:1"
     id="path983" />
  <text
     y="29.531248"
     x="12.65625"
     style="font-size:14.0625px;font-family:sans-serif;text-anchor:end;fill:#000000;stroke-width:1.40625"
     id="text987">
    <tspan
       style="stroke-width:1.40625"
       x="63.75"
       y="48.515625"
       id="tspan985">↓</tspan>
  </text>
  <g
     transform="matrix(0.93749997,0,0,0.93749997,12.65625,59.062493)"
     id="g1005">
    <g
       transform="scale(1.5)"
       id="g1003">
      <path
         d="m 0.5,8.5 v -4 a 4,4 90 0 1 4,-4 h 4 v 2 h 10 v -2 h 30 4 a 4,4 90 0 1 4,4 v 4 h -4 v -3 h -4 v 10 h 4 v -3 h 4 v 4 a 4,4 90 0 1 -4,4 h -4 -30 -1 v 2 h -8 v -2 h -1 -4 a 4,4 90 0 1 -4,-4 v -4 z"
         style="fill:#7cd622;fill-opacity:1;stroke:#57ad02;stroke-width:1;stroke-linecap:round;stroke-opacity:1"
         id="path993" />
      <text
         style="font-size:10px;font-family:sans-serif;text-anchor:end;fill:#000000"
         id="text997">
        <tspan
           x="46.333332"
           y="13.5"
           id="tspan995">hertz</tspan>
      </text>
      <text
         style="font-size:6.66666651px;font-family:sans-serif;text-anchor:end;fill:#000000"
         id="text1001">
        <tspan
           x="46.333332"
           y="11.25"
           id="tspan999" />
      </text>
    </g>
  </g>
  <g
     transform="matrix(0.93749997,0,0,0.93749997,81.5625,59.062493)"
     id="g1015">
    <g
       transform="scale(1.5)"
       id="g1013">
      <path
         d="m 8.5,0.5 h 60 v 20 h -60 v -8 -1 h -6 v 3 h -2 v -8 h 2 v 3 h 6 v -1 z"
         style="fill:#ff6ea1;fill-opacity:1;stroke:#ff2c76;stroke-width:1;stroke-linecap:round;stroke-opacity:1"
         id="path1007" />
      <text
         style="font-size:10px;font-family:sans-serif;text-anchor:start;fill:#000000"
         id="text1011">
        <tspan
           x="13.333333"
           y="13.833333"
           id="tspan1009">880</tspan>
      </text>
    </g>
  </g>
</svg>
