<?xml version="1.0" encoding="UTF-8" standalone="no"?>
<svg
   width="911.88391"
   height="289.65717"
   version="1.1"
   id="svg64"
   sodipodi:docname="transform1.svg"
   inkscape:version="1.4 (86a8ad7, 2024-10-11)"
   xmlns:inkscape="http://www.inkscape.org/namespaces/inkscape"
   xmlns:sodipodi="http://sodipodi.sourceforge.net/DTD/sodipodi-0.dtd"
   xmlns="http://www.w3.org/2000/svg"
   xmlns:svg="http://www.w3.org/2000/svg">
  <defs
     id="defs64" />
  <sodipodi:namedview
     id="namedview64"
     pagecolor="#ffffff"
     bordercolor="#999999"
     borderopacity="1"
     inkscape:showpageshadow="2"
     inkscape:pageopacity="0"
     inkscape:pagecheckerboard="0"
     inkscape:deskcolor="#d1d1d1"
     inkscape:zoom="2.0641572"
     inkscape:cx="698.59022"
     inkscape:cy="100.52529"
     inkscape:window-width="1920"
     inkscape:window-height="1001"
     inkscape:window-x="-9"
     inkscape:window-y="-9"
     inkscape:window-maximized="1"
     inkscape:current-layer="svg64" />
  <g
     transform="translate(14.150499,64.157131)"
     id="g3">
    <g
       transform="scale(1.5)"
       id="g2">
      <path
         d="m 0.5,8.5 v -4 a 4,4 90 0 1 4,-4 h 4 v 2 h 10 v -2 h 9 93.93555 4 a 4,4 90 0 1 4,4 v 4 h -4 v -3 h -4 v 10 h 4 v -3 h 4 v 4 a 4,4 90 0 1 -4,4 h -4 H 27.5 h -1 v 2 h -8 v -2 h -1 -4 a 5,5 90 0 0 -5,5 v 4 4 21 4 a 5,5 90 0 0 5,5 h 4 v 2 h 10 v -2 h 8 v 6 6 4 a 4,4 90 0 1 -4,4 h -4 -9 -1 v 2 h -8 v -2 h -1 -4 a 4,4 90 0 1 -4,-4 v -4 z"
         style="fill:#7cd622;fill-opacity:1;stroke:#57ad02;stroke-width:1;stroke-linecap:round;stroke-opacity:1"
         id="path1" />
      <text
         style="font-size:10px;font-family:sans-serif;text-anchor:start;fill:#282828"
         id="text1"><tspan
           x="5"
           y="15"
           id="tspan1">accidental override</tspan></text>
      <text
         style="font-size:6.66667px;font-family:sans-serif;text-anchor:end;fill:#282828"
         id="text2"><tspan
           x="119"
           y="12"
           id="tspan2" /></text>
    </g>
  </g>
  <g
     id="g10"
     transform="translate(-302.8495,-228.84286)">
    <g
       transform="translate(303,229)"
       id="g5">
      <g
         transform="scale(1.5)"
         id="g4">
        <path
           d="m 0.5,8.5 v -4 a 4,4 90 0 1 4,-4 h 4 v 2 h 10 v -2 h 9 40 4 a 4,4 90 0 1 4,4 v 4 h -4 v -3 h -4 v 10 h 4 v -3 h 4 v 4 a 4,4 90 0 1 -4,4 h -4 -40 -1 v 2 h -8 v -2 h -1 -4 a 5,5 90 0 0 -5,5 v 4 4 84 4 a 5,5 90 0 0 5,5 h 4 v 2 h 10 v -2 h 8 v 6 6 4 a 4,4 90 0 1 -4,4 h -4 -9 -1 v 2 h -8 v -2 h -1 -4 a 4,4 90 0 1 -4,-4 v -4 z"
           style="fill:#ff8700;fill-opacity:1;stroke:#e86b0e;stroke-width:1;stroke-linecap:round;stroke-opacity:1"
           id="path3" />
        <text
           style="font-size:10px;font-family:sans-serif;text-anchor:start;fill:#282828"
           id="text3"><tspan
             x="20"
             y="15"
             id="tspan3">note</tspan></text>
        <text
           style="font-size:6.66667px;font-family:sans-serif;text-anchor:end;fill:#282828"
           id="text4"><tspan
             x="65"
             y="12"
             id="tspan4">value</tspan></text>
      </g>
    </g>
    <g
       transform="matrix(0.5,0,0,0.5,303,233)"
       id="g9">
      <g
         style="isolation:isolate"
         id="g8">
        <g
           id="レイヤー_2"
           data-name="レイヤー 2">
          <g
             id="Icon">
            <rect
               width="42"
               height="42"
               rx="5"
               ry="5"
               style="opacity:0.4;mix-blend-mode:multiply;fill:#292929"
               id="rect5"
               x="0"
               y="0" />
            <path
               d="m 30.56,29.8 -4.17,-4.16 h 2.26 a 1.035,1.035 0 1 0 0,-2.07 h -4.71 a 1.08,1.08 0 0 0 -1.11,1 v 0 c 0,0 0,0 0,0.06 v 4.64 0 a 1.04,1.04 0 1 0 2.08,0 v -2.19 l 4.19,4.19 a 1,1 0 0 0 1.46,0 1,1 0 0 0 0,-1.47 z"
               style="fill:#ffffff"
               id="path5" />
            <path
               d="m 19.17,24.6 a 1.08,1.08 0 0 0 -1.11,-1 h -4.71 a 1.035,1.035 0 1 0 0,2.07 h 2.25 l -4.16,4.13 a 1.039447,1.039447 0 0 0 1.47,1.47 l 4.18,-4.19 v 2.26 a 1.04,1.04 0 1 0 2.08,0 V 24.7 c 0,0 0,0 0,-0.06 a 0.08,0.08 0 0 1 0,-0.04 z"
               style="fill:#ffffff"
               id="path6" />
            <path
               d="m 23.94,20.5 h 4.7 a 1.04,1.04 0 1 0 0,-2.08 h -2.25 l 4.17,-4.16 a 1,1 0 0 0 0,-1.47 1,1 0 0 0 -1.46,0 L 24.91,17 v -2.28 a 1.04,1.04 0 1 0 -2.08,0 v 4.64 a 0.43,0.43 0 0 0 0,0.05 v 0.05 a 1.09,1.09 0 0 0 1.11,1.04 z"
               style="fill:#ffffff"
               id="path7" />
            <path
               d="m 18.13,13.62 a 1.08,1.08 0 0 0 -1,1.09 V 17 l -4.18,-4.19 a 1,1 0 0 0 -1.47,0 1,1 0 0 0 0,1.46 l 4.16,4.17 h -2.29 a 1.04,1.04 0 1 0 0,2.08 h 4.71 a 1.09,1.09 0 0 0 1.11,-1 c 0,0 0,0 0,-0.06 v -4.75 a 1.07,1.07 0 0 0 -1.04,-1.09 z"
               style="fill:#ffffff"
               id="path8" />
          </g>
        </g>
      </g>
    </g>
  </g>
  <g
     transform="translate(102.1505,0.15713075)"
     id="g13">
    <g
       transform="scale(1.5)"
       id="g12">
      <path
         d="m 8.5,8.5 v -4 a 4,4 90 0 1 4,-4 h 4 10 30 4 a 4,4 90 0 1 4,4 v 4 h -4 v -3 h -4 v 10 h 4 v -3 h 4 v 17 h -4 v -3 h -4 v 10 h 4 v -3 h 4 v 4 a 4,4 90 0 1 -4,4 h -4 -30 -10 -4 a 4,4 90 0 1 -4,-4 v -4 -21 -1 h -6 v 3 h -2 v -8 h 2 v 3 h 6 z"
         style="fill:#ff6ea1;fill-opacity:1;stroke:#ff2c76;stroke-width:1;stroke-linecap:round;stroke-opacity:1"
         id="path10" />
      <text
         style="font-size:9px;font-family:sans-serif;text-anchor:end;fill:#282828"
         id="text10"><tspan
           x="54"
           y="23"
           id="tspan10">/</tspan></text>
      <text
         style="font-size:6px;font-family:sans-serif;text-anchor:end;fill:#282828"
         id="text11"><tspan
           x="54"
           y="12"
           id="tspan11" /></text>
      <text
         style="font-size:6px;font-family:sans-serif;text-anchor:end;fill:#282828"
         id="text12"><tspan
           x="54"
           y="33"
           id="tspan12" /></text>
    </g>
  </g>
  <g
     transform="translate(188.1505,0.15713075)"
     id="g15">
    <g
       transform="scale(1.5)"
       id="g14">
      <path
         d="m 8.5,0.5 h 63.90625 v 20 H 8.5 v -8 -1 h -6 v 3 h -2 v -8 h 2 v 3 h 6 v -1 z"
         style="fill:#ff6ea1;fill-opacity:1;stroke:#ff2c76;stroke-width:1;stroke-linecap:round;stroke-opacity:1"
         id="path13" />
      <text
         style="font-size:10px;font-family:sans-serif;text-anchor:start;fill:#282828"
         id="text13"><tspan
           x="13"
           y="14"
           id="tspan13">1</tspan></text>
    </g>
  </g>
  <g
     transform="translate(188.1505,32.157131)"
     id="g17">
    <g
       transform="scale(1.5)"
       id="g16">
      <path
         d="m 8.5,0.5 h 63.90625 v 20 H 8.5 v -8 -1 h -6 v 3 h -2 v -8 h 2 v 3 h 6 v -1 z"
         style="fill:#ff6ea1;fill-opacity:1;stroke:#ff2c76;stroke-width:1;stroke-linecap:round;stroke-opacity:1"
         id="path15" />
      <text
         style="font-size:10px;font-family:sans-serif;text-anchor:start;fill:#282828"
         id="text15"><tspan
           x="13"
           y="14"
           id="tspan15">4</tspan></text>
    </g>
  </g>
  <g
     transform="translate(14.150499,32.157131)"
     id="g19">
    <g
       transform="scale(1.5)"
       id="g18">
      <path
         d="m 0.5,8.5 v -4 a 4,4 90 0 1 4,-4 h 4 v 2 h 10 v -2 h 20 4 a 4,4 90 0 1 4,4 v 4 4 4 a 4,4 90 0 1 -4,4 h -4 -20 -1 v 2 h -8 v -2 h -1 -4 a 4,4 90 0 1 -4,-4 v -4 z"
         style="fill:#c4c4c4;fill-opacity:1;stroke:#a0a0a0;stroke-width:1;stroke-linecap:round;stroke-opacity:1"
         id="path17" />
      <text
         style="font-size:10px;font-family:sans-serif;text-anchor:end;fill:#282828"
         id="text17"><tspan
           x="36"
           y="14"
           id="tspan17">↓</tspan></text>
    </g>
  </g>
  <g
     transform="translate(28.150499,96.157131)"
     id="g22">
    <g
       transform="scale(1.5)"
       id="g21">
      <path
         d="m 0.5,8.5 v -4 a 4,4 90 0 1 4,-4 h 4 v 2 h 10 v -2 h 30 4 a 4,4 90 0 1 4,4 v 4 h -4 v -3 h -4 v 10 h 4 v -3 h 4 v 17 h -4 v -3 h -4 v 10 h 4 v -3 h 4 v 4 a 4,4 90 0 1 -4,4 h -4 -30 -1 v 2 h -8 v -2 h -1 -4 a 4,4 90 0 1 -4,-4 v -4 -21 z"
         style="fill:#7cd622;fill-opacity:1;stroke:#57ad02;stroke-width:1;stroke-linecap:round;stroke-opacity:1"
         id="path19" />
      <text
         style="font-size:10px;font-family:sans-serif;text-anchor:end;fill:#282828"
         id="text19"><tspan
           x="46"
           y="24"
           id="tspan19">pitch</tspan></text>
      <text
         style="font-size:6.66667px;font-family:sans-serif;text-anchor:end;fill:#282828"
         id="text20"><tspan
           x="46"
           y="12"
           id="tspan20">name</tspan></text>
      <text
         style="font-size:6.66667px;font-family:sans-serif;text-anchor:end;fill:#282828"
         id="text21"><tspan
           x="46"
           y="33"
           id="tspan21">octave</tspan></text>
    </g>
  </g>
  <g
     transform="translate(102.1505,96.157131)"
     id="g24">
    <g
       transform="scale(1.5)"
       id="g23">
      <path
         d="m 8.5,0.5 h 62.246094 v 20 H 8.5 v -8 -1 h -6 v 3 h -2 v -8 h 2 v 3 h 6 v -1 z"
         style="fill:#7cd622;fill-opacity:1;stroke:#57ad02;stroke-width:1;stroke-linecap:round;stroke-opacity:1"
         id="path22" />
      <text
         style="font-size:10px;font-family:sans-serif;text-anchor:start;fill:#282828"
         id="text22"><tspan
           x="13"
           y="14"
           id="tspan22">re</tspan></text>
    </g>
  </g>
  <g
     transform="translate(102.1505,128.15714)"
     id="g26">
    <g
       transform="scale(1.5)"
       id="g25">
      <path
         d="m 8.5,0.5 h 63.90625 v 20 H 8.5 v -8 -1 h -6 v 3 h -2 v -8 h 2 v 3 h 6 v -1 z"
         style="fill:#ff6ea1;fill-opacity:1;stroke:#ff2c76;stroke-width:1;stroke-linecap:round;stroke-opacity:1"
         id="path24" />
      <text
         style="font-size:10px;font-family:sans-serif;text-anchor:start;fill:#282828"
         id="text24"><tspan
           x="13"
           y="14"
           id="tspan24">5</tspan></text>
    </g>
  </g>
  <g
     transform="translate(197.1505,64.157131)"
     id="g28">
    <g
       transform="scale(1.5)"
       id="g27">
      <path
         d="m 8.5,0.5 h 162.82227 v 20 H 8.5 v -8 -1 h -6 v 3 h -2 v -8 h 2 v 3 h 6 v -1 z"
         style="fill:#7cd622;fill-opacity:1;stroke:#57ad02;stroke-width:1;stroke-linecap:round;stroke-opacity:1"
         id="path26" />
      <text
         style="font-size:10px;font-family:sans-serif;text-anchor:start;fill:#282828"
         id="text26"><tspan
           x="13"
           y="14"
           id="tspan26">flat ♭</tspan></text>
    </g>
  </g>
  <g
     transform="translate(471.1505,3.1571308)"
     id="g30">
    <g
       transform="scale(1.5)"
       id="g29">
      <path
         d="m 0.5,8.5 v -4 a 4,4 90 0 1 4,-4 h 4 v 2 h 10 v -2 h 9 93.93555 4 a 4,4 90 0 1 4,4 v 4 h -4 v -3 h -4 v 10 h 4 v -3 h 4 v 4 a 4,4 90 0 1 -4,4 h -4 H 27.5 h -1 v 2 h -8 v -2 h -1 -4 a 5,5 90 0 0 -5,5 v 4 4 126 4 a 5,5 90 0 0 5,5 h 4 v 2 h 10 v -2 h 8 v 6 6 4 a 4,4 90 0 1 -4,4 h -4 -9 -1 v 2 h -8 v -2 h -1 -4 a 4,4 90 0 1 -4,-4 v -4 z"
         style="fill:#7cd622;fill-opacity:1;stroke:#57ad02;stroke-width:1;stroke-linecap:round;stroke-opacity:1"
         id="path28" />
      <text
         style="font-size:10px;font-family:sans-serif;text-anchor:start;fill:#282828"
         id="text28"><tspan
           x="5"
           y="15"
           id="tspan28">accidental override</tspan></text>
      <text
         style="font-size:6.66667px;font-family:sans-serif;text-anchor:end;fill:#282828"
         id="text29"><tspan
           x="119"
           y="12"
           id="tspan29" /></text>
    </g>
  </g>
  <g
     id="g39"
     transform="translate(-302.8495,-228.84286)">
    <g
       transform="translate(788,264)"
       id="g32">
      <g
         transform="scale(1.5)"
         id="g31">
        <path
           d="m 0.5,8.5 v -4 a 4,4 90 0 1 4,-4 h 4 v 2 h 10 v -2 h 9 40 4 a 4,4 90 0 1 4,4 v 4 h -4 v -3 h -4 v 10 h 4 v -3 h 4 v 4 a 4,4 90 0 1 -4,4 h -4 -40 -1 v 2 h -8 v -2 h -1 -4 a 5,5 90 0 0 -5,5 v 4 4 84 4 a 5,5 90 0 0 5,5 h 4 v 2 h 10 v -2 h 8 v 6 6 4 a 4,4 90 0 1 -4,4 h -4 -9 -1 v 2 h -8 v -2 h -1 -4 a 4,4 90 0 1 -4,-4 v -4 z"
           style="fill:#ff8700;fill-opacity:1;stroke:#e86b0e;stroke-width:1;stroke-linecap:round;stroke-opacity:1"
           id="path30" />
        <text
           style="font-size:10px;font-family:sans-serif;text-anchor:start;fill:#282828"
           id="text30"><tspan
             x="20"
             y="15"
             id="tspan30">note</tspan></text>
        <text
           style="font-size:6.66667px;font-family:sans-serif;text-anchor:end;fill:#282828"
           id="text31"><tspan
             x="65"
             y="12"
             id="tspan31">value</tspan></text>
      </g>
    </g>
    <g
       transform="matrix(0.5,0,0,0.5,788,268)"
       id="g38">
      <g
         style="isolation:isolate"
         id="g37">
        <g
           id="g36"
           data-name="レイヤー 2">
          <g
             id="g35">
            <rect
               width="42"
               height="42"
               rx="5"
               ry="5"
               style="opacity:0.4;mix-blend-mode:multiply;fill:#292929"
               id="rect32"
               x="0"
               y="0" />
            <path
               d="m 30.56,29.8 -4.17,-4.16 h 2.26 a 1.035,1.035 0 1 0 0,-2.07 h -4.71 a 1.08,1.08 0 0 0 -1.11,1 v 0 c 0,0 0,0 0,0.06 v 4.64 0 a 1.04,1.04 0 1 0 2.08,0 v -2.19 l 4.19,4.19 a 1,1 0 0 0 1.46,0 1,1 0 0 0 0,-1.47 z"
               style="fill:#ffffff"
               id="path32" />
            <path
               d="m 19.17,24.6 a 1.08,1.08 0 0 0 -1.11,-1 h -4.71 a 1.035,1.035 0 1 0 0,2.07 h 2.25 l -4.16,4.13 a 1.039447,1.039447 0 0 0 1.47,1.47 l 4.18,-4.19 v 2.26 a 1.04,1.04 0 1 0 2.08,0 V 24.7 c 0,0 0,0 0,-0.06 a 0.08,0.08 0 0 1 0,-0.04 z"
               style="fill:#ffffff"
               id="path33" />
            <path
               d="m 23.94,20.5 h 4.7 a 1.04,1.04 0 1 0 0,-2.08 h -2.25 l 4.17,-4.16 a 1,1 0 0 0 0,-1.47 1,1 0 0 0 -1.46,0 L 24.91,17 v -2.28 a 1.04,1.04 0 1 0 -2.08,0 v 4.64 a 0.43,0.43 0 0 0 0,0.05 v 0.05 a 1.09,1.09 0 0 0 1.11,1.04 z"
               style="fill:#ffffff"
               id="path34" />
            <path
               d="m 18.13,13.62 a 1.08,1.08 0 0 0 -1,1.09 V 17 l -4.18,-4.19 a 1,1 0 0 0 -1.47,0 1,1 0 0 0 0,1.46 l 4.16,4.17 h -2.29 a 1.04,1.04 0 1 0 0,2.08 h 4.71 a 1.09,1.09 0 0 0 1.11,-1 c 0,0 0,0 0,-0.06 v -4.75 a 1.07,1.07 0 0 0 -1.04,-1.09 z"
               style="fill:#ffffff"
               id="path35" />
          </g>
        </g>
      </g>
    </g>
  </g>
  <g
     transform="translate(587.1505,35.157131)"
     id="g42">
    <g
       transform="scale(1.5)"
       id="g41">
      <path
         d="m 8.5,8.5 v -4 a 4,4 90 0 1 4,-4 h 4 10 30 4 a 4,4 90 0 1 4,4 v 4 h -4 v -3 h -4 v 10 h 4 v -3 h 4 v 17 h -4 v -3 h -4 v 10 h 4 v -3 h 4 v 4 a 4,4 90 0 1 -4,4 h -4 -30 -10 -4 a 4,4 90 0 1 -4,-4 v -4 -21 -1 h -6 v 3 h -2 v -8 h 2 v 3 h 6 z"
         style="fill:#ff6ea1;fill-opacity:1;stroke:#ff2c76;stroke-width:1;stroke-linecap:round;stroke-opacity:1"
         id="path39" />
      <text
         style="font-size:9px;font-family:sans-serif;text-anchor:end;fill:#282828"
         id="text39"><tspan
           x="54"
           y="23"
           id="tspan39">/</tspan></text>
      <text
         style="font-size:6px;font-family:sans-serif;text-anchor:end;fill:#282828"
         id="text40"><tspan
           x="54"
           y="12"
           id="tspan40" /></text>
      <text
         style="font-size:6px;font-family:sans-serif;text-anchor:end;fill:#282828"
         id="text41"><tspan
           x="54"
           y="33"
           id="tspan41" /></text>
    </g>
  </g>
  <g
     transform="translate(673.1505,35.157131)"
     id="g44">
    <g
       transform="scale(1.5)"
       id="g43">
      <path
         d="m 8.5,0.5 h 63.90625 v 20 H 8.5 v -8 -1 h -6 v 3 h -2 v -8 h 2 v 3 h 6 v -1 z"
         style="fill:#ff6ea1;fill-opacity:1;stroke:#ff2c76;stroke-width:1;stroke-linecap:round;stroke-opacity:1"
         id="path42" />
      <text
         style="font-size:10px;font-family:sans-serif;text-anchor:start;fill:#282828"
         id="text42"><tspan
           x="13"
           y="14"
           id="tspan42">1</tspan></text>
    </g>
  </g>
  <g
     transform="translate(673.1505,67.157131)"
     id="g46">
    <g
       transform="scale(1.5)"
       id="g45">
      <path
         d="m 8.5,0.5 h 63.90625 v 20 H 8.5 v -8 -1 h -6 v 3 h -2 v -8 h 2 v 3 h 6 v -1 z"
         style="fill:#ff6ea1;fill-opacity:1;stroke:#ff2c76;stroke-width:1;stroke-linecap:round;stroke-opacity:1"
         id="path44" />
      <text
         style="font-size:10px;font-family:sans-serif;text-anchor:start;fill:#282828"
         id="text44"><tspan
           x="13"
           y="14"
           id="tspan44">4</tspan></text>
    </g>
  </g>
  <g
     transform="translate(499.1505,67.157131)"
     id="g48">
    <g
       transform="scale(1.5)"
       id="g47">
      <path
         d="m 0.5,8.5 v -4 a 4,4 90 0 1 4,-4 h 4 v 2 h 10 v -2 h 20 4 a 4,4 90 0 1 4,4 v 4 4 4 a 4,4 90 0 1 -4,4 h -4 -20 -1 v 2 h -8 v -2 h -1 -4 a 4,4 90 0 1 -4,-4 v -4 z"
         style="fill:#c4c4c4;fill-opacity:1;stroke:#a0a0a0;stroke-width:1;stroke-linecap:round;stroke-opacity:1"
         id="path46" />
      <text
         style="font-size:10px;font-family:sans-serif;text-anchor:end;fill:#282828"
         id="text46"><tspan
           x="36"
           y="14"
           id="tspan46">↓</tspan></text>
    </g>
  </g>
  <g
     transform="translate(499.1505,99.157136)"
     id="g51">
    <g
       transform="scale(1.5)"
       id="g50">
      <path
         d="m 0.5,8.5 v -4 a 4,4 90 0 1 4,-4 h 4 v 2 h 10 v -2 h 30 4 a 4,4 90 0 1 4,4 v 4 h -4 v -3 h -4 v 10 h 4 v -3 h 4 v 17 h -4 v -3 h -4 v 10 h 4 v -3 h 4 v 4 a 4,4 90 0 1 -4,4 h -4 -30 -1 v 2 h -8 v -2 h -1 -4 a 4,4 90 0 1 -4,-4 v -4 -21 z"
         style="fill:#7cd622;fill-opacity:1;stroke:#57ad02;stroke-width:1;stroke-linecap:round;stroke-opacity:1"
         id="path48" />
      <text
         style="font-size:10px;font-family:sans-serif;text-anchor:end;fill:#282828"
         id="text48"><tspan
           x="46"
           y="24"
           id="tspan48">pitch</tspan></text>
      <text
         style="font-size:6.66667px;font-family:sans-serif;text-anchor:end;fill:#282828"
         id="text49"><tspan
           x="46"
           y="12"
           id="tspan49">name</tspan></text>
      <text
         style="font-size:6.66667px;font-family:sans-serif;text-anchor:end;fill:#282828"
         id="text50"><tspan
           x="46"
           y="33"
           id="tspan50">octave</tspan></text>
    </g>
  </g>
  <g
     transform="translate(573.1505,99.157136)"
     id="g53">
    <g
       transform="scale(1.5)"
       id="g52">
      <path
         d="m 8.5,0.5 h 62.246094 v 20 H 8.5 v -8 -1 h -6 v 3 h -2 v -8 h 2 v 3 h 6 v -1 z"
         style="fill:#7cd622;fill-opacity:1;stroke:#57ad02;stroke-width:1;stroke-linecap:round;stroke-opacity:1"
         id="path51" />
      <text
         style="font-size:10px;font-family:sans-serif;text-anchor:start;fill:#282828"
         id="text51"><tspan
           x="13"
           y="14"
           id="tspan51">re</tspan></text>
    </g>
  </g>
  <g
     transform="translate(573.1505,131.15714)"
     id="g55">
    <g
       transform="scale(1.5)"
       id="g54">
      <path
         d="m 8.5,0.5 h 63.90625 v 20 H 8.5 v -8 -1 h -6 v 3 h -2 v -8 h 2 v 3 h 6 v -1 z"
         style="fill:#ff6ea1;fill-opacity:1;stroke:#ff2c76;stroke-width:1;stroke-linecap:round;stroke-opacity:1"
         id="path53" />
      <text
         style="font-size:10px;font-family:sans-serif;text-anchor:start;fill:#282828"
         id="text53"><tspan
           x="13"
           y="14"
           id="tspan53">5</tspan></text>
    </g>
  </g>
  <g
     transform="translate(654.1505,3.1571308)"
     id="g57">
    <g
       transform="scale(1.5)"
       id="g56">
      <path
         d="m 8.5,0.5 h 162.82227 v 20 H 8.5 v -8 -1 h -6 v 3 h -2 v -8 h 2 v 3 h 6 v -1 z"
         style="fill:#7cd622;fill-opacity:1;stroke:#57ad02;stroke-width:1;stroke-linecap:round;stroke-opacity:1"
         id="path55" />
      <text
         style="font-size:10px;font-family:sans-serif;text-anchor:start;fill:#282828"
         id="text55"><tspan
           x="13"
           y="14"
           id="tspan55">sharp ♯</tspan></text>
    </g>
  </g>
  <g
     transform="translate(499.1505,162.15714)"
     id="g60">
    <g
       transform="scale(1.5)"
       id="g59">
      <path
         d="m 0.5,8.5 v -4 a 4,4 90 0 1 4,-4 h 4 v 2 h 10 v -2 h 30 4 a 4,4 90 0 1 4,4 v 4 h -4 v -3 h -4 v 10 h 4 v -3 h 4 v 17 h -4 v -3 h -4 v 10 h 4 v -3 h 4 v 4 a 4,4 90 0 1 -4,4 h -4 -30 -1 v 2 h -8 v -2 h -1 -4 a 4,4 90 0 1 -4,-4 v -4 -21 z"
         style="fill:#7cd622;fill-opacity:1;stroke:#57ad02;stroke-width:1;stroke-linecap:round;stroke-opacity:1"
         id="path57" />
      <text
         style="font-size:10px;font-family:sans-serif;text-anchor:end;fill:#282828"
         id="text57"><tspan
           x="46"
           y="24"
           id="tspan57">pitch</tspan></text>
      <text
         style="font-size:6.66667px;font-family:sans-serif;text-anchor:end;fill:#282828"
         id="text58"><tspan
           x="46"
           y="12"
           id="tspan58">name</tspan></text>
      <text
         style="font-size:6.66667px;font-family:sans-serif;text-anchor:end;fill:#282828"
         id="text59"><tspan
           x="46"
           y="33"
           id="tspan59">octave</tspan></text>
    </g>
  </g>
  <g
     transform="translate(573.1505,162.15714)"
     id="g62">
    <g
       transform="scale(1.5)"
       id="g61">
      <path
         d="m 8.5,0.5 h 62.246094 v 20 H 8.5 v -8 -1 h -6 v 3 h -2 v -8 h 2 v 3 h 6 v -1 z"
         style="fill:#7cd622;fill-opacity:1;stroke:#57ad02;stroke-width:1;stroke-linecap:round;stroke-opacity:1"
         id="path60" />
      <text
         style="font-size:10px;font-family:sans-serif;text-anchor:start;fill:#282828"
         id="text60"><tspan
           x="13"
           y="14"
           id="tspan60">re</tspan></text>
    </g>
  </g>
  <g
     transform="translate(573.1505,194.15714)"
     id="g64">
    <g
       transform="scale(1.5)"
       id="g63">
      <path
         d="m 8.5,0.5 h 63.90625 v 20 H 8.5 v -8 -1 h -6 v 3 h -2 v -8 h 2 v 3 h 6 v -1 z"
         style="fill:#ff6ea1;fill-opacity:1;stroke:#ff2c76;stroke-width:1;stroke-linecap:round;stroke-opacity:1"
         id="path62" />
      <text
         style="font-size:10px;font-family:sans-serif;text-anchor:start;fill:#282828"
         id="text62"><tspan
           x="13"
           y="14"
           id="tspan62">5</tspan></text>
    </g>
  </g>
</svg>
