<?xml version="1.0" encoding="UTF-8" standalone="no"?>
<svg
   xmlns:dc="http://purl.org/dc/elements/1.1/"
   xmlns:cc="http://creativecommons.org/ns#"
   xmlns:rdf="http://www.w3.org/1999/02/22-rdf-syntax-ns#"
   xmlns:svg="http://www.w3.org/2000/svg"
   xmlns="http://www.w3.org/2000/svg"
   xmlns:sodipodi="http://sodipodi.sourceforge.net/DTD/sodipodi-0.dtd"
   xmlns:inkscape="http://www.inkscape.org/namespaces/inkscape"
   width="720"
   height="554"
   version="1.1"
   id="svg8659"
   sodipodi:docname="transform5.svg"
   inkscape:version="0.92.3 (2405546, 2018-03-11)">
  <metadata
     id="metadata8665">
    <rdf:RDF>
      <cc:Work
         rdf:about="">
        <dc:format>image/svg+xml</dc:format>
        <dc:type
           rdf:resource="http://purl.org/dc/dcmitype/StillImage" />
      </cc:Work>
    </rdf:RDF>
  </metadata>
  <defs
     id="defs8663" />
  <sodipodi:namedview
     pagecolor="#ffffff"
     bordercolor="#666666"
     borderopacity="1"
     objecttolerance="10"
     gridtolerance="10"
     guidetolerance="10"
     inkscape:pageopacity="0"
     inkscape:pageshadow="2"
     inkscape:window-width="1920"
     inkscape:window-height="1001"
     id="namedview8661"
     showgrid="false"
     inkscape:zoom="1.2048895"
     inkscape:cx="318.87178"
     inkscape:cy="366.14898"
     inkscape:window-x="-9"
     inkscape:window-y="-9"
     inkscape:window-maximized="1"
     inkscape:current-layer="svg_189" />
  <rect
     id="backgroundrect"
     width="100%"
     height="100%"
     x="0"
     y="0"
     fill="none"
     stroke="none"
     class=""
     style="" />
  <g
     class="currentLayer"
     style=""
     id="g8657">
    <title
       id="title8361">Layer 1</title>
    <g
       id="svg_15"
       class="">
      <g
         id="svg_16">
        <g
           transform="translate(867,15) scale(1.5) "
           id="svg_17">
          <path
             d="m-312,-2 L-312,-6 A4,4 90 0 1 -308,-10 L-304,-10 L-304,-8 L-294,-8 L-294,-10 L-285,-10 L-225,-10 L-221,-10 A4,4 90 0 1 -217,-6 L-217,-2 L-221,-2 L-221,-5 L-225,-5 L-225,5 L-221,5 L-221,2 L-217,2 L-217,6 A4,4 90 0 1 -221,10 L-225,10 L-285,10 L-286,10 L-286,12 L-294,12 L-294,10 L-295,10 L-299,10 A5,5 90 0 0 -304,15 L-304,19 L-304,23 L-304,65 L-304,69 A5,5 90 0 0 -299,74 L-295,74 L-295,76 L-285,76 L-285,74 L-277,74 L-277,80 L-277,86 L-277,90 A4,4 90 0 1 -281,94 L-285,94 L-294,94 L-295,94 L-295,96 L-303,96 L-303,94 L-304,94 L-308,94 A4,4 90 0 1 -312,90 L-312,86 z"
             style="fill:#FF8B2D;fill-opacity:1;stroke:#E86B0E;stroke-width:1;stroke-linecap:round;stroke-opacity:1;"
             id="svg_18" />
          <text
             style="font-size:10px;fill:#282828;font-family:sans-serif;text-anchor:start"
             id="svg_19"
             y="-10.5"
             x="-312.5">
            <tspan
               x="-292.5"
               y="4.5"
               id="svg_20">note</tspan>
          </text>
          <text
             style="font-size:6.666666666666667px;fill:#282828;font-family:sans-serif;text-anchor:end"
             id="svg_21"
             y="-10.5"
             x="-312.5">
            <tspan
               x="-227.5"
               y="1.5"
               id="svg_22">value</tspan>
          </text>
        </g>
      </g>
    </g>
    <g
       id="svg_30"
       class="">
      <g
         transform="translate(999,15) scale(1.5) "
         id="svg_31">
        <path
           d="m-304,-2 L-304,-6 A4,4 90 0 1 -300,-10 L-296,-10 L-286,-10 L-256,-10 L-252,-10 A4,4 90 0 1 -248,-6 L-248,-2 L-252,-2 L-252,-5 L-256,-5 L-256,5 L-252,5 L-252,2 L-248,2 L-248,19 L-252,19 L-252,16 L-256,16 L-256,26 L-252,26 L-252,23 L-248,23 L-248,27 A4,4 90 0 1 -252,31 L-256,31 L-286,31 L-296,31 L-300,31 A4,4 90 0 1 -304,27 L-304,23 L-304,2 L-304,1 L-310,1 L-310,4 L-312,4 L-312,-4 L-310,-4 L-310,-1 L-304,-1 L-304,-2 z"
           style="fill:#FF5293;fill-opacity:1;stroke:#FF2C76;stroke-width:1;stroke-linecap:round;stroke-opacity:1;"
           id="svg_32" />
        <text
           style="font-size:9px;fill:#282828;font-family:sans-serif;text-anchor:end"
           id="svg_33"
           y="-10.5"
           x="-312.5">
          <tspan
             x="-258.5"
             y="12.5"
             id="svg_34">/</tspan>
        </text>
        <text
           style="font-size:6px;fill:#282828;font-family:sans-serif;text-anchor:end"
           id="svg_35"
           y="-10.5"
           x="-312.5" />
        <text
           style="font-size:6px;fill:#282828;font-family:sans-serif;text-anchor:end"
           id="svg_37"
           y="-10.5"
           x="-312.5" />
      </g>
    </g>
    <g
       id="svg_39"
       class="">
      <g
         transform="translate(1085,15) scale(1.5) "
         id="svg_40">
        <path
           d="m-304,-10 L-244,-10 L-244,10 L-304,10 L-304,2 L-304,1 L-310,1 L-310,4 L-312,4 L-312,-4 L-310,-4 L-310,-1 L-304,-1 L-304,-2 z"
           style="fill:#FF5293;fill-opacity:1;stroke:#FF2C76;stroke-width:1;stroke-linecap:round;stroke-opacity:1;"
           id="svg_41" />
        <text
           style="font-size:10px;fill:#282828;font-family:sans-serif;text-anchor:start"
           id="svg_42"
           y="-10.5"
           x="-312.5">
          <tspan
             x="-299.5"
             y="3.5"
             id="svg_43">1</tspan>
        </text>
      </g>
    </g>
    <g
       id="svg_44"
       class="">
      <g
         transform="translate(1085,47) scale(1.5) "
         id="svg_45">
        <path
           d="m-304,-10 L-244,-10 L-244,10 L-304,10 L-304,2 L-304,1 L-310,1 L-310,4 L-312,4 L-312,-4 L-310,-4 L-310,-1 L-304,-1 L-304,-2 z"
           style="fill:#FF5293;fill-opacity:1;stroke:#FF2C76;stroke-width:1;stroke-linecap:round;stroke-opacity:1;"
           id="svg_46" />
        <text
           style="font-size:10px;fill:#282828;font-family:sans-serif;text-anchor:start"
           id="svg_47"
           y="-10.5"
           x="-312.5">
          <tspan
             x="-299.5"
             y="3.5"
             id="svg_48">16</tspan>
        </text>
      </g>
    </g>
    <g
       id="svg_49"
       class="">
      <g
         transform="translate(881,47) scale(1.5) "
         id="svg_50">
        <path
           d="m-312,-2 L-312,-6 A4,4 90 0 1 -308,-10 L-304,-10 L-304,-8 L-294,-8 L-294,-10 L-274,-10 L-270,-10 A4,4 90 0 1 -266,-6 L-266,-2 L-266,2 L-266,6 A4,4 90 0 1 -270,10 L-274,10 L-294,10 L-295,10 L-295,12 L-303,12 L-303,10 L-304,10 L-308,10 A4,4 90 0 1 -312,6 L-312,2 z"
           style="fill:#B0B0B0;fill-opacity:1;stroke:#A0A0A0;stroke-width:1;stroke-linecap:round;stroke-opacity:1;"
           id="svg_51" />
        <text
           style="font-size:10px;fill:#282828;font-family:sans-serif;text-anchor:end"
           id="svg_52"
           y="-10.5"
           x="-312.5">
          <tspan
             x="-276.5"
             y="3.5"
             id="svg_53">↓</tspan>
        </text>
      </g>
    </g>
    <g
       id="svg_54"
       class="">
      <g
         transform="translate(881,79) scale(1.5) "
         id="svg_55">
        <path
           d="m-312,-2 L-312,-6 A4,4 90 0 1 -308,-10 L-304,-10 L-304,-8 L-294,-8 L-294,-10 L-264,-10 L-260,-10 A4,4 90 0 1 -256,-6 L-256,-2 L-260,-2 L-260,-5 L-264,-5 L-264,5 L-260,5 L-260,2 L-256,2 L-256,19 L-260,19 L-260,16 L-264,16 L-264,26 L-260,26 L-260,23 L-256,23 L-256,27 A4,4 90 0 1 -260,31 L-264,31 L-294,31 L-295,31 L-295,33 L-303,33 L-303,31 L-304,31 L-308,31 A4,4 90 0 1 -312,27 L-312,23 L-312,2 L-312,-2 z"
           style="fill:#77C428;fill-opacity:1;stroke:#57AD02;stroke-width:1;stroke-linecap:round;stroke-opacity:1;"
           id="svg_56" />
        <text
           style="font-size:10px;fill:#282828;font-family:sans-serif;text-anchor:end"
           id="svg_57"
           y="-10.5"
           x="-312.5">
          <tspan
             x="-266.5"
             y="13.5"
             id="svg_58">pitch</tspan>
        </text>
        <text
           style="font-size:6.666666666666667px;fill:#282828;font-family:sans-serif;text-anchor:end"
           id="svg_59"
           y="-10.5"
           x="-312.5">
          <tspan
             x="-266.5"
             y="1.5"
             id="svg_60">name</tspan>
        </text>
        <text
           style="font-size:6.666666666666667px;fill:#282828;font-family:sans-serif;text-anchor:end"
           id="svg_61"
           y="-10.5"
           x="-312.5">
          <tspan
             x="-266.5"
             y="22.5"
             id="svg_62">octave</tspan>
        </text>
      </g>
    </g>
    <g
       id="svg_63"
       class="">
      <g
         transform="translate(955,79) scale(1.5) "
         id="svg_64">
        <path
           d="m-304,-10 L-244,-10 L-244,10 L-304,10 L-304,2 L-304,1 L-310,1 L-310,4 L-312,4 L-312,-4 L-310,-4 L-310,-1 L-304,-1 L-304,-2 z"
           style="fill:#77C428;fill-opacity:1;stroke:#57AD02;stroke-width:1;stroke-linecap:round;stroke-opacity:1;"
           id="svg_65" />
        <text
           style="font-size:10px;fill:#282828;font-family:sans-serif;text-anchor:start"
           id="svg_66"
           y="-10.5"
           x="-312.5">
          <tspan
             x="-299.5"
             y="3.5"
             id="svg_67">sol</tspan>
        </text>
      </g>
    </g>
    <g
       id="svg_68"
       class="">
      <g
         transform="translate(955,111) scale(1.5) "
         id="svg_69">
        <path
           d="m-304,-10 L-244,-10 L-244,10 L-304,10 L-304,2 L-304,1 L-310,1 L-310,4 L-312,4 L-312,-4 L-310,-4 L-310,-1 L-304,-1 L-304,-2 z"
           style="fill:#FF5293;fill-opacity:1;stroke:#FF2C76;stroke-width:1;stroke-linecap:round;stroke-opacity:1;"
           id="svg_70" />
        <text
           style="font-size:10px;fill:#282828;font-family:sans-serif;text-anchor:start"
           id="svg_71"
           y="-10.5"
           x="-312.5">
          <tspan
             x="-299.5"
             y="3.5"
             id="svg_72">4</tspan>
        </text>
      </g>
    </g>
    <g
       id="svg_73"
       class="">
      <g
         id="svg_74">
        <g
           transform="translate(482,379) scale(1.5) "
           id="svg_75">
          <path
             d="m-312,-2 L-312,-6 A4,4 90 0 1 -308,-10 L-304,-10 L-304,-8 L-294,-8 L-294,-10 L-285,-10 L-225,-10 L-221,-10 A4,4 90 0 1 -217,-6 L-217,-2 L-221,-2 L-221,-5 L-225,-5 L-225,5 L-221,5 L-221,2 L-217,2 L-217,6 A4,4 90 0 1 -221,10 L-225,10 L-285,10 L-286,10 L-286,12 L-294,12 L-294,10 L-295,10 L-299,10 A5,5 90 0 0 -304,15 L-304,19 L-304,23 L-304,65 L-304,69 A5,5 90 0 0 -299,74 L-295,74 L-295,76 L-285,76 L-285,74 L-277,74 L-277,80 L-277,86 L-277,90 A4,4 90 0 1 -281,94 L-285,94 L-294,94 L-295,94 L-295,96 L-303,96 L-303,94 L-304,94 L-308,94 A4,4 90 0 1 -312,90 L-312,86 z"
             style="fill:#FF8B2D;fill-opacity:1;stroke:#E86B0E;stroke-width:1;stroke-linecap:round;stroke-opacity:1;"
             id="svg_76" />
          <text
             style="font-size:10px;fill:#282828;font-family:sans-serif;text-anchor:start"
             id="svg_77"
             y="-10.5"
             x="-312.5">
            <tspan
               x="-292.5"
               y="4.5"
               id="svg_78">note</tspan>
          </text>
          <text
             style="font-size:6.666666666666667px;fill:#282828;font-family:sans-serif;text-anchor:end"
             id="svg_79"
             y="-10.5"
             x="-312.5">
            <tspan
               x="-227.5"
               y="1.5"
               id="svg_80">value</tspan>
          </text>
        </g>
      </g>
    </g>
    <g
       id="svg_88"
       class="">
      <g
         transform="translate(614,379) scale(1.5) "
         id="svg_89">
        <path
           d="m-304,-2 L-304,-6 A4,4 90 0 1 -300,-10 L-296,-10 L-286,-10 L-256,-10 L-252,-10 A4,4 90 0 1 -248,-6 L-248,-2 L-252,-2 L-252,-5 L-256,-5 L-256,5 L-252,5 L-252,2 L-248,2 L-248,19 L-252,19 L-252,16 L-256,16 L-256,26 L-252,26 L-252,23 L-248,23 L-248,27 A4,4 90 0 1 -252,31 L-256,31 L-286,31 L-296,31 L-300,31 A4,4 90 0 1 -304,27 L-304,23 L-304,2 L-304,1 L-310,1 L-310,4 L-312,4 L-312,-4 L-310,-4 L-310,-1 L-304,-1 L-304,-2 z"
           style="fill:#FF5293;fill-opacity:1;stroke:#FF2C76;stroke-width:1;stroke-linecap:round;stroke-opacity:1;"
           id="svg_90" />
        <text
           style="font-size:9px;fill:#282828;font-family:sans-serif;text-anchor:end"
           id="svg_91"
           y="-10.5"
           x="-312.5">
          <tspan
             x="-258.5"
             y="12.5"
             id="svg_92">/</tspan>
        </text>
        <text
           style="font-size:6px;fill:#282828;font-family:sans-serif;text-anchor:end"
           id="svg_93"
           y="-10.5"
           x="-312.5" />
        <text
           style="font-size:6px;fill:#282828;font-family:sans-serif;text-anchor:end"
           id="svg_95"
           y="-10.5"
           x="-312.5" />
      </g>
    </g>
    <g
       id="svg_97"
       class="">
      <g
         transform="translate(700,379) scale(1.5) "
         id="svg_98">
        <path
           d="m-304,-10 L-244,-10 L-244,10 L-304,10 L-304,2 L-304,1 L-310,1 L-310,4 L-312,4 L-312,-4 L-310,-4 L-310,-1 L-304,-1 L-304,-2 z"
           style="fill:#FF5293;fill-opacity:1;stroke:#FF2C76;stroke-width:1;stroke-linecap:round;stroke-opacity:1;"
           id="svg_99" />
        <text
           style="font-size:10px;fill:#282828;font-family:sans-serif;text-anchor:start"
           id="svg_100"
           y="-10.5"
           x="-312.5">
          <tspan
             x="-299.5"
             y="3.5"
             id="svg_101">1</tspan>
        </text>
      </g>
    </g>
    <g
       id="svg_102"
       class="">
      <g
         transform="translate(700,411) scale(1.5) "
         id="svg_103">
        <path
           d="m-304,-10 L-244,-10 L-244,10 L-304,10 L-304,2 L-304,1 L-310,1 L-310,4 L-312,4 L-312,-4 L-310,-4 L-310,-1 L-304,-1 L-304,-2 z"
           style="fill:#FF5293;fill-opacity:1;stroke:#FF2C76;stroke-width:1;stroke-linecap:round;stroke-opacity:1;"
           id="svg_104" />
        <text
           style="font-size:10px;fill:#282828;font-family:sans-serif;text-anchor:start"
           id="svg_105"
           y="-10.5"
           x="-312.5">
          <tspan
             x="-299.5"
             y="3.5"
             id="svg_106">8</tspan>
        </text>
      </g>
    </g>
    <g
       id="svg_107"
       class="">
      <g
         transform="translate(496,411) scale(1.5) "
         id="svg_108">
        <path
           d="m-312,-2 L-312,-6 A4,4 90 0 1 -308,-10 L-304,-10 L-304,-8 L-294,-8 L-294,-10 L-274,-10 L-270,-10 A4,4 90 0 1 -266,-6 L-266,-2 L-266,2 L-266,6 A4,4 90 0 1 -270,10 L-274,10 L-294,10 L-295,10 L-295,12 L-303,12 L-303,10 L-304,10 L-308,10 A4,4 90 0 1 -312,6 L-312,2 z"
           style="fill:#B0B0B0;fill-opacity:1;stroke:#A0A0A0;stroke-width:1;stroke-linecap:round;stroke-opacity:1;"
           id="svg_109" />
        <text
           style="font-size:10px;fill:#282828;font-family:sans-serif;text-anchor:end"
           id="svg_110"
           y="-10.5"
           x="-312.5">
          <tspan
             x="-276.5"
             y="3.5"
             id="svg_111">↓</tspan>
        </text>
      </g>
    </g>
    <g
       id="svg_112"
       class="">
      <g
         transform="translate(496,443) scale(1.5) "
         id="svg_113">
        <path
           d="m-312,-2 L-312,-6 A4,4 90 0 1 -308,-10 L-304,-10 L-304,-8 L-294,-8 L-294,-10 L-264,-10 L-260,-10 A4,4 90 0 1 -256,-6 L-256,-2 L-260,-2 L-260,-5 L-264,-5 L-264,5 L-260,5 L-260,2 L-256,2 L-256,19 L-260,19 L-260,16 L-264,16 L-264,26 L-260,26 L-260,23 L-256,23 L-256,27 A4,4 90 0 1 -260,31 L-264,31 L-294,31 L-295,31 L-295,33 L-303,33 L-303,31 L-304,31 L-308,31 A4,4 90 0 1 -312,27 L-312,23 L-312,2 L-312,-2 z"
           style="fill:#77C428;fill-opacity:1;stroke:#57AD02;stroke-width:1;stroke-linecap:round;stroke-opacity:1;"
           id="svg_114" />
        <text
           style="font-size:10px;fill:#282828;font-family:sans-serif;text-anchor:end"
           id="svg_115"
           y="-10.5"
           x="-312.5">
          <tspan
             x="-266.5"
             y="13.5"
             id="svg_116">pitch</tspan>
        </text>
        <text
           style="font-size:6.666666666666667px;fill:#282828;font-family:sans-serif;text-anchor:end"
           id="svg_117"
           y="-10.5"
           x="-312.5">
          <tspan
             x="-266.5"
             y="1.5"
             id="svg_118">name</tspan>
        </text>
        <text
           style="font-size:6.666666666666667px;fill:#282828;font-family:sans-serif;text-anchor:end"
           id="svg_119"
           y="-10.5"
           x="-312.5">
          <tspan
             x="-266.5"
             y="22.5"
             id="svg_120">octave</tspan>
        </text>
      </g>
    </g>
    <g
       id="svg_121"
       class="">
      <g
         transform="translate(570,443) scale(1.5) "
         id="svg_122">
        <path
           d="m-304,-10 L-244,-10 L-244,10 L-304,10 L-304,2 L-304,1 L-310,1 L-310,4 L-312,4 L-312,-4 L-310,-4 L-310,-1 L-304,-1 L-304,-2 z"
           style="fill:#77C428;fill-opacity:1;stroke:#57AD02;stroke-width:1;stroke-linecap:round;stroke-opacity:1;"
           id="svg_123" />
        <text
           style="font-size:10px;fill:#282828;font-family:sans-serif;text-anchor:start"
           id="svg_124"
           y="-10.5"
           x="-312.5">
          <tspan
             x="-299.5"
             y="3.5"
             id="svg_125">sol</tspan>
        </text>
      </g>
    </g>
    <g
       id="svg_126"
       class="">
      <g
         transform="translate(570,475) scale(1.5) "
         id="svg_127">
        <path
           d="m-304,-10 L-244,-10 L-244,10 L-304,10 L-304,2 L-304,1 L-310,1 L-310,4 L-312,4 L-312,-4 L-310,-4 L-310,-1 L-304,-1 L-304,-2 z"
           style="fill:#FF5293;fill-opacity:1;stroke:#FF2C76;stroke-width:1;stroke-linecap:round;stroke-opacity:1;"
           id="svg_128" />
        <text
           style="font-size:10px;fill:#282828;font-family:sans-serif;text-anchor:start"
           id="svg_129"
           y="-10.5"
           x="-312.5">
          <tspan
             x="-299.5"
             y="3.5"
             id="svg_130">4</tspan>
        </text>
      </g>
    </g>
    <g
       id="svg_131"
       class="">
      <g
         id="svg_132">
        <g
           transform="translate(482,79) scale(1.5) "
           id="svg_133">
          <path
             d="m-312,-2 L-312,-6 A4,4 90 0 1 -308,-10 L-304,-10 L-304,-8 L-294,-8 L-294,-10 L-285,-10 L-225,-10 L-221,-10 A4,4 90 0 1 -217,-6 L-217,-2 L-221,-2 L-221,-5 L-225,-5 L-225,5 L-221,5 L-221,2 L-217,2 L-217,6 A4,4 90 0 1 -221,10 L-225,10 L-285,10 L-286,10 L-286,12 L-294,12 L-294,10 L-295,10 L-299,10 A5,5 90 0 0 -304,15 L-304,19 L-304,23 L-304,65 L-304,69 A5,5 90 0 0 -299,74 L-295,74 L-295,76 L-285,76 L-285,74 L-277,74 L-277,80 L-277,86 L-277,90 A4,4 90 0 1 -281,94 L-285,94 L-294,94 L-295,94 L-295,96 L-303,96 L-303,94 L-304,94 L-308,94 A4,4 90 0 1 -312,90 L-312,86 z"
             style="fill:#FF8B2D;fill-opacity:1;stroke:#E86B0E;stroke-width:1;stroke-linecap:round;stroke-opacity:1;"
             id="svg_134" />
          <text
             style="font-size:10px;fill:#282828;font-family:sans-serif;text-anchor:start"
             id="svg_135"
             y="-10.5"
             x="-312.5">
            <tspan
               x="-292.5"
               y="4.5"
               id="svg_136">note</tspan>
          </text>
          <text
             style="font-size:6.666666666666667px;fill:#282828;font-family:sans-serif;text-anchor:end"
             id="svg_137"
             y="-10.5"
             x="-312.5">
            <tspan
               x="-227.5"
               y="1.5"
               id="svg_138">value</tspan>
          </text>
        </g>
      </g>
    </g>
    <g
       id="svg_146"
       class="">
      <g
         transform="translate(614,79) scale(1.5) "
         id="svg_147">
        <path
           d="m-304,-2 L-304,-6 A4,4 90 0 1 -300,-10 L-296,-10 L-286,-10 L-256,-10 L-252,-10 A4,4 90 0 1 -248,-6 L-248,-2 L-252,-2 L-252,-5 L-256,-5 L-256,5 L-252,5 L-252,2 L-248,2 L-248,19 L-252,19 L-252,16 L-256,16 L-256,26 L-252,26 L-252,23 L-248,23 L-248,27 A4,4 90 0 1 -252,31 L-256,31 L-286,31 L-296,31 L-300,31 A4,4 90 0 1 -304,27 L-304,23 L-304,2 L-304,1 L-310,1 L-310,4 L-312,4 L-312,-4 L-310,-4 L-310,-1 L-304,-1 L-304,-2 z"
           style="fill:#FF5293;fill-opacity:1;stroke:#FF2C76;stroke-width:1;stroke-linecap:round;stroke-opacity:1;"
           id="svg_148" />
        <text
           style="font-size:9px;fill:#282828;font-family:sans-serif;text-anchor:end"
           id="svg_149"
           y="-10.5"
           x="-312.5">
          <tspan
             x="-258.5"
             y="12.5"
             id="svg_150">/</tspan>
        </text>
        <text
           style="font-size:6px;fill:#282828;font-family:sans-serif;text-anchor:end"
           id="svg_151"
           y="-10.5"
           x="-312.5" />
        <text
           style="font-size:6px;fill:#282828;font-family:sans-serif;text-anchor:end"
           id="svg_153"
           y="-10.5"
           x="-312.5" />
      </g>
    </g>
    <g
       id="svg_155"
       class="">
      <g
         transform="translate(700,79) scale(1.5) "
         id="svg_156">
        <path
           d="m-304,-10 L-244,-10 L-244,10 L-304,10 L-304,2 L-304,1 L-310,1 L-310,4 L-312,4 L-312,-4 L-310,-4 L-310,-1 L-304,-1 L-304,-2 z"
           style="fill:#FF5293;fill-opacity:1;stroke:#FF2C76;stroke-width:1;stroke-linecap:round;stroke-opacity:1;"
           id="svg_157" />
        <text
           style="font-size:10px;fill:#282828;font-family:sans-serif;text-anchor:start"
           id="svg_158"
           y="-10.5"
           x="-312.5">
          <tspan
             x="-299.5"
             y="3.5"
             id="svg_159">1</tspan>
        </text>
      </g>
    </g>
    <g
       id="svg_160"
       class="">
      <g
         transform="translate(496,111) scale(1.5) "
         id="svg_161">
        <path
           d="m-312,-2 L-312,-6 A4,4 90 0 1 -308,-10 L-304,-10 L-304,-8 L-294,-8 L-294,-10 L-274,-10 L-270,-10 A4,4 90 0 1 -266,-6 L-266,-2 L-266,2 L-266,6 A4,4 90 0 1 -270,10 L-274,10 L-294,10 L-295,10 L-295,12 L-303,12 L-303,10 L-304,10 L-308,10 A4,4 90 0 1 -312,6 L-312,2 z"
           style="fill:#B0B0B0;fill-opacity:1;stroke:#A0A0A0;stroke-width:1;stroke-linecap:round;stroke-opacity:1;"
           id="svg_162" />
        <text
           style="font-size:10px;fill:#282828;font-family:sans-serif;text-anchor:end"
           id="svg_163"
           y="-10.5"
           x="-312.5">
          <tspan
             x="-276.5"
             y="3.5"
             id="svg_164">↓</tspan>
        </text>
      </g>
    </g>
    <g
       id="svg_165"
       class="">
      <g
         transform="translate(496,143) scale(1.5) "
         id="svg_166">
        <path
           d="m-312,-2 L-312,-6 A4,4 90 0 1 -308,-10 L-304,-10 L-304,-8 L-294,-8 L-294,-10 L-264,-10 L-260,-10 A4,4 90 0 1 -256,-6 L-256,-2 L-260,-2 L-260,-5 L-264,-5 L-264,5 L-260,5 L-260,2 L-256,2 L-256,19 L-260,19 L-260,16 L-264,16 L-264,26 L-260,26 L-260,23 L-256,23 L-256,27 A4,4 90 0 1 -260,31 L-264,31 L-294,31 L-295,31 L-295,33 L-303,33 L-303,31 L-304,31 L-308,31 A4,4 90 0 1 -312,27 L-312,23 L-312,2 L-312,-2 z"
           style="fill:#77C428;fill-opacity:1;stroke:#57AD02;stroke-width:1;stroke-linecap:round;stroke-opacity:1;"
           id="svg_167" />
        <text
           style="font-size:10px;fill:#282828;font-family:sans-serif;text-anchor:end"
           id="svg_168"
           y="-10.5"
           x="-312.5">
          <tspan
             x="-266.5"
             y="13.5"
             id="svg_169">pitch</tspan>
        </text>
        <text
           style="font-size:6.666666666666667px;fill:#282828;font-family:sans-serif;text-anchor:end"
           id="svg_170"
           y="-10.5"
           x="-312.5">
          <tspan
             x="-266.5"
             y="1.5"
             id="svg_171">name</tspan>
        </text>
        <text
           style="font-size:6.666666666666667px;fill:#282828;font-family:sans-serif;text-anchor:end"
           id="svg_172"
           y="-10.5"
           x="-312.5">
          <tspan
             x="-266.5"
             y="22.5"
             id="svg_173">octave</tspan>
        </text>
      </g>
    </g>
    <g
       id="svg_174"
       class="">
      <g
         transform="translate(570,143) scale(1.5) "
         id="svg_175">
        <path
           d="m-304,-10 L-244,-10 L-244,10 L-304,10 L-304,2 L-304,1 L-310,1 L-310,4 L-312,4 L-312,-4 L-310,-4 L-310,-1 L-304,-1 L-304,-2 z"
           style="fill:#77C428;fill-opacity:1;stroke:#57AD02;stroke-width:1;stroke-linecap:round;stroke-opacity:1;"
           id="svg_176" />
        <text
           style="font-size:10px;fill:#282828;font-family:sans-serif;text-anchor:start"
           id="svg_177"
           y="-10.5"
           x="-312.5">
          <tspan
             x="-299.5"
             y="3.5"
             id="svg_178">sol</tspan>
        </text>
      </g>
    </g>
    <g
       id="svg_179"
       class="">
      <g
         transform="translate(570,175) scale(1.5) "
         id="svg_180">
        <path
           d="m-304,-10 L-244,-10 L-244,10 L-304,10 L-304,2 L-304,1 L-310,1 L-310,4 L-312,4 L-312,-4 L-310,-4 L-310,-1 L-304,-1 L-304,-2 z"
           style="fill:#FF5293;fill-opacity:1;stroke:#FF2C76;stroke-width:1;stroke-linecap:round;stroke-opacity:1;"
           id="svg_181" />
        <text
           style="font-size:10px;fill:#282828;font-family:sans-serif;text-anchor:start"
           id="svg_182"
           y="-10.5"
           x="-312.5">
          <tspan
             x="-299.5"
             y="3.5"
             id="svg_183">4</tspan>
        </text>
      </g>
    </g>
    <g
       id="svg_184"
       class="">
      <g
         transform="translate(700,111) scale(1.5) "
         id="svg_185">
        <path
           d="m-304,-10 L-244,-10 L-244,10 L-304,10 L-304,2 L-304,1 L-310,1 L-310,4 L-312,4 L-312,-4 L-310,-4 L-310,-1 L-304,-1 L-304,-2 z"
           style="fill:#FF5293;fill-opacity:1;stroke:#FF2C76;stroke-width:1;stroke-linecap:round;stroke-opacity:1;"
           id="svg_186" />
        <text
           style="font-size:10px;fill:#282828;font-family:sans-serif;text-anchor:start"
           id="svg_187"
           y="-10.5"
           x="-312.5">
          <tspan
             x="-299.5"
             y="3.5"
             id="svg_188">8</tspan>
        </text>
      </g>
    </g>
    <g
       id="svg_189"
       class="">
      <g
         id="svg_190">
        <g
           transform="translate(868,315) scale(1.5) "
           id="svg_191">
          <path
             d="m-312,-2 L-312,-6 A4,4 90 0 1 -308,-10 L-304,-10 L-304,-8 L-294,-8 L-294,-10 L-285,-10 L-225,-10 L-221,-10 A4,4 90 0 1 -217,-6 L-217,-2 L-221,-2 L-221,-5 L-225,-5 L-225,5 L-221,5 L-221,2 L-217,2 L-217,6 A4,4 90 0 1 -221,10 L-225,10 L-285,10 L-286,10 L-286,12 L-294,12 L-294,10 L-295,10 L-299,10 A5,5 90 0 0 -304,15 L-304,19 L-304,23 L-304,65 L-304,69 A5,5 90 0 0 -299,74 L-295,74 L-295,76 L-285,76 L-285,74 L-277,74 L-277,80 L-277,86 L-277,90 A4,4 90 0 1 -281,94 L-285,94 L-294,94 L-295,94 L-295,96 L-303,96 L-303,94 L-304,94 L-308,94 A4,4 90 0 1 -312,90 L-312,86 z"
             style="fill:#FF8B2D;fill-opacity:1;stroke:#E86B0E;stroke-width:1;stroke-linecap:round;stroke-opacity:1;"
             id="svg_192" />
          <text
             style="font-size:10px;fill:#282828;font-family:sans-serif;text-anchor:start"
             id="svg_193"
             y="-10.5"
             x="-312.5">
            <tspan
               x="-292.5"
               y="4.5"
               id="svg_194">note</tspan>
          </text>
          <text
             style="font-size:6.666666666666667px;fill:#282828;font-family:sans-serif;text-anchor:end"
             id="svg_195"
             y="-10.5"
             x="-312.5">
            <tspan
               x="-227.5"
               y="1.5"
               id="svg_196">value</tspan>
          </text>
        </g>
      </g>
    </g>
    <g
       id="svg_204"
       class="">
      <g
         transform="translate(1000,315) scale(1.5) "
         id="svg_205">
        <path
           d="m-304,-2 L-304,-6 A4,4 90 0 1 -300,-10 L-296,-10 L-286,-10 L-256,-10 L-252,-10 A4,4 90 0 1 -248,-6 L-248,-2 L-252,-2 L-252,-5 L-256,-5 L-256,5 L-252,5 L-252,2 L-248,2 L-248,19 L-252,19 L-252,16 L-256,16 L-256,26 L-252,26 L-252,23 L-248,23 L-248,27 A4,4 90 0 1 -252,31 L-256,31 L-286,31 L-296,31 L-300,31 A4,4 90 0 1 -304,27 L-304,23 L-304,2 L-304,1 L-310,1 L-310,4 L-312,4 L-312,-4 L-310,-4 L-310,-1 L-304,-1 L-304,-2 z"
           style="fill:#FF5293;fill-opacity:1;stroke:#FF2C76;stroke-width:1;stroke-linecap:round;stroke-opacity:1;"
           id="svg_206" />
        <text
           style="font-size:9px;fill:#282828;font-family:sans-serif;text-anchor:end"
           id="svg_207"
           y="-10.5"
           x="-312.5">
          <tspan
             x="-258.5"
             y="12.5"
             id="svg_208">/</tspan>
        </text>
        <text
           style="font-size:6px;fill:#282828;font-family:sans-serif;text-anchor:end"
           id="svg_209"
           y="-10.5"
           x="-312.5" />
        <text
           style="font-size:6px;fill:#282828;font-family:sans-serif;text-anchor:end"
           id="svg_211"
           y="-10.5"
           x="-312.5" />
      </g>
    </g>
    <g
       id="svg_213"
       class="">
      <g
         transform="translate(1086,315) scale(1.5) "
         id="svg_214">
        <path
           d="m-304,-10 L-244,-10 L-244,10 L-304,10 L-304,2 L-304,1 L-310,1 L-310,4 L-312,4 L-312,-4 L-310,-4 L-310,-1 L-304,-1 L-304,-2 z"
           style="fill:#FF5293;fill-opacity:1;stroke:#FF2C76;stroke-width:1;stroke-linecap:round;stroke-opacity:1;"
           id="svg_215" />
        <text
           style="font-size:10px;fill:#282828;font-family:sans-serif;text-anchor:start"
           id="svg_216"
           y="-10.5"
           x="-312.5">
          <tspan
             x="-299.5"
             y="3.5"
             id="svg_217">1</tspan>
        </text>
      </g>
    </g>
    <g
       id="svg_218"
       class="">
      <g
         transform="translate(1086,347) scale(1.5) "
         id="svg_219">
        <path
           d="m-304,-10 L-244,-10 L-244,10 L-304,10 L-304,2 L-304,1 L-310,1 L-310,4 L-312,4 L-312,-4 L-310,-4 L-310,-1 L-304,-1 L-304,-2 z"
           style="fill:#FF5293;fill-opacity:1;stroke:#FF2C76;stroke-width:1;stroke-linecap:round;stroke-opacity:1;"
           id="svg_220" />
        <text
           style="font-size:10px;fill:#282828;font-family:sans-serif;text-anchor:start"
           id="svg_221"
           y="-10.5"
           x="-312.5">
          <tspan
             x="-299.5"
             y="3.5"
             id="svg_222">4</tspan>
        </text>
      </g>
    </g>
    <g
       id="svg_223"
       class="">
      <g
         transform="translate(882,347) scale(1.5) "
         id="svg_224">
        <path
           d="m-312,-2 L-312,-6 A4,4 90 0 1 -308,-10 L-304,-10 L-304,-8 L-294,-8 L-294,-10 L-274,-10 L-270,-10 A4,4 90 0 1 -266,-6 L-266,-2 L-266,2 L-266,6 A4,4 90 0 1 -270,10 L-274,10 L-294,10 L-295,10 L-295,12 L-303,12 L-303,10 L-304,10 L-308,10 A4,4 90 0 1 -312,6 L-312,2 z"
           style="fill:#B0B0B0;fill-opacity:1;stroke:#A0A0A0;stroke-width:1;stroke-linecap:round;stroke-opacity:1;"
           id="svg_225" />
        <text
           style="font-size:10px;fill:#282828;font-family:sans-serif;text-anchor:end"
           id="svg_226"
           y="-10.5"
           x="-312.5">
          <tspan
             x="-276.5"
             y="3.5"
             id="svg_227">↓</tspan>
        </text>
      </g>
    </g>
    <g
       id="svg_228"
       class="">
      <g
         transform="translate(882,379) scale(1.5) "
         id="svg_229">
        <path
           d="m-312,-2 L-312,-6 A4,4 90 0 1 -308,-10 L-304,-10 L-304,-8 L-294,-8 L-294,-10 L-264,-10 L-260,-10 A4,4 90 0 1 -256,-6 L-256,-2 L-260,-2 L-260,-5 L-264,-5 L-264,5 L-260,5 L-260,2 L-256,2 L-256,19 L-260,19 L-260,16 L-264,16 L-264,26 L-260,26 L-260,23 L-256,23 L-256,27 A4,4 90 0 1 -260,31 L-264,31 L-294,31 L-295,31 L-295,33 L-303,33 L-303,31 L-304,31 L-308,31 A4,4 90 0 1 -312,27 L-312,23 L-312,2 L-312,-2 z"
           style="fill:#77C428;fill-opacity:1;stroke:#57AD02;stroke-width:1;stroke-linecap:round;stroke-opacity:1;"
           id="svg_230" />
        <text
           style="font-size:10px;fill:#282828;font-family:sans-serif;text-anchor:end"
           id="svg_231"
           y="-10.5"
           x="-312.5">
          <tspan
             x="-266.5"
             y="13.5"
             id="svg_232">pitch</tspan>
        </text>
        <text
           style="font-size:6.666666666666667px;fill:#282828;font-family:sans-serif;text-anchor:end"
           id="svg_233"
           y="-10.5"
           x="-312.5">
          <tspan
             x="-266.5"
             y="1.5"
             id="svg_234">name</tspan>
        </text>
        <text
           style="font-size:6.666666666666667px;fill:#282828;font-family:sans-serif;text-anchor:end"
           id="svg_235"
           y="-10.5"
           x="-312.5">
          <tspan
             x="-266.5"
             y="22.5"
             id="svg_236">octave</tspan>
        </text>
      </g>
    </g>
    <g
       id="svg_237"
       class="">
      <g
         transform="translate(956,379) scale(1.5) "
         id="svg_238">
        <path
           d="m-304,-10 L-244,-10 L-244,10 L-304,10 L-304,2 L-304,1 L-310,1 L-310,4 L-312,4 L-312,-4 L-310,-4 L-310,-1 L-304,-1 L-304,-2 z"
           style="fill:#77C428;fill-opacity:1;stroke:#57AD02;stroke-width:1;stroke-linecap:round;stroke-opacity:1;"
           id="svg_239" />
        <text
           style="font-size:10px;fill:#282828;font-family:sans-serif;text-anchor:start"
           id="svg_240"
           y="-10.5"
           x="-312.5">
          <tspan
             x="-299.5"
             y="3.5"
             id="svg_241">sol</tspan>
        </text>
      </g>
    </g>
    <g
       id="svg_242"
       class="">
      <g
         transform="translate(956,411) scale(1.5) "
         id="svg_243">
        <path
           d="m-304,-10 L-244,-10 L-244,10 L-304,10 L-304,2 L-304,1 L-310,1 L-310,4 L-312,4 L-312,-4 L-310,-4 L-310,-1 L-304,-1 L-304,-2 z"
           style="fill:#FF5293;fill-opacity:1;stroke:#FF2C76;stroke-width:1;stroke-linecap:round;stroke-opacity:1;"
           id="svg_244" />
        <text
           style="font-size:10px;fill:#282828;font-family:sans-serif;text-anchor:start"
           id="svg_245"
           y="-10.5"
           x="-312.5">
          <tspan
             x="-299.5"
             y="3.5"
             id="svg_246">4</tspan>
        </text>
      </g>
    </g>
    <g
       id="svg_247"
       class="">
      <g
         transform="translate(468,15) scale(1.5) "
         id="svg_248">
        <path
           d="m-312,-2 L-312,-6 A4,4 90 0 1 -308,-10 L-304,-10 L-304,-8 L-294,-8 L-294,-10 L-285,-10 L-212.177734375,-10 L-208.177734375,-10 A4,4 90 0 1 -204.177734375,-6 L-204.177734375,-2 L-208.177734375,-2 L-208.177734375,-5 L-212.177734375,-5 L-212.177734375,5 L-208.177734375,5 L-208.177734375,2 L-204.177734375,2 L-204.177734375,6 A4,4 90 0 1 -208.177734375,10 L-212.177734375,10 L-285,10 L-286,10 L-286,12 L-294,12 L-294,10 L-295,10 L-299,10 A5,5 90 0 0 -304,15 L-304,19 L-304,23 L-304,128 L-304,132 A5,5 90 0 0 -299,137 L-295,137 L-295,139 L-285,139 L-285,137 L-277,137 L-277,143 L-277,149 L-277,153 A4,4 90 0 1 -281,157 L-285,157 L-294,157 L-295,157 L-295,159 L-303,159 L-303,157 L-304,157 L-308,157 A4,4 90 0 1 -312,153 L-312,149 z"
           style="fill:#FF8B2D;fill-opacity:1;stroke:#E86B0E;stroke-width:1;stroke-linecap:round;stroke-opacity:1;"
           id="svg_249" />
        <text
           style="font-size:10px;fill:#282828;font-family:sans-serif;text-anchor:start"
           id="svg_250"
           y="-10.5"
           x="-312.5">
          <tspan
             x="-307.5"
             y="4.5"
             id="svg_251">multiply note value</tspan>
        </text>
        <text
           style="font-size:6.666666666666667px;fill:#282828;font-family:sans-serif;text-anchor:end"
           id="svg_252"
           y="-10.5"
           x="-312.5" />
      </g>
    </g>
    <g
       id="svg_254"
       class="">
      <g
         transform="translate(619,15) scale(1.5) "
         id="svg_255">
        <path
           d="m-304,-2 L-304,-6 A4,4 90 0 1 -300,-10 L-296,-10 L-286,-10 L-256,-10 L-252,-10 A4,4 90 0 1 -248,-6 L-248,-2 L-252,-2 L-252,-5 L-256,-5 L-256,5 L-252,5 L-252,2 L-248,2 L-248,19 L-252,19 L-252,16 L-256,16 L-256,26 L-252,26 L-252,23 L-248,23 L-248,27 A4,4 90 0 1 -252,31 L-256,31 L-286,31 L-296,31 L-300,31 A4,4 90 0 1 -304,27 L-304,23 L-304,2 L-304,1 L-310,1 L-310,4 L-312,4 L-312,-4 L-310,-4 L-310,-1 L-304,-1 L-304,-2 z"
           style="fill:#FF5293;fill-opacity:1;stroke:#FF2C76;stroke-width:1;stroke-linecap:round;stroke-opacity:1;"
           id="svg_256" />
        <text
           style="font-size:9px;fill:#282828;font-family:sans-serif;text-anchor:end"
           id="svg_257"
           y="-10.5"
           x="-312.5">
          <tspan
             x="-258.5"
             y="12.5"
             id="svg_258">/</tspan>
        </text>
        <text
           style="font-size:6px;fill:#282828;font-family:sans-serif;text-anchor:end"
           id="svg_259"
           y="-10.5"
           x="-312.5" />
        <text
           style="font-size:6px;fill:#282828;font-family:sans-serif;text-anchor:end"
           id="svg_261"
           y="-10.5"
           x="-312.5" />
      </g>
    </g>
    <g
       id="svg_263"
       class="">
      <g
         transform="translate(705,15) scale(1.5) "
         id="svg_264">
        <path
           d="m-304,-10 L-244,-10 L-244,10 L-304,10 L-304,2 L-304,1 L-310,1 L-310,4 L-312,4 L-312,-4 L-310,-4 L-310,-1 L-304,-1 L-304,-2 z"
           style="fill:#FF5293;fill-opacity:1;stroke:#FF2C76;stroke-width:1;stroke-linecap:round;stroke-opacity:1;"
           id="svg_265" />
        <text
           style="font-size:10px;fill:#282828;font-family:sans-serif;text-anchor:start"
           id="svg_266"
           y="-10.5"
           x="-312.5">
          <tspan
             x="-299.5"
             y="3.5"
             id="svg_267">1</tspan>
        </text>
      </g>
    </g>
    <g
       id="svg_268"
       class="">
      <g
         transform="translate(705,47) scale(1.5) "
         id="svg_269">
        <path
           d="m-304,-10 L-244,-10 L-244,10 L-304,10 L-304,2 L-304,1 L-310,1 L-310,4 L-312,4 L-312,-4 L-310,-4 L-310,-1 L-304,-1 L-304,-2 z"
           style="fill:#FF5293;fill-opacity:1;stroke:#FF2C76;stroke-width:1;stroke-linecap:round;stroke-opacity:1;"
           id="svg_270" />
        <text
           style="font-size:10px;fill:#282828;font-family:sans-serif;text-anchor:start"
           id="svg_271"
           y="-10.5"
           x="-312.5">
          <tspan
             x="-299.5"
             y="3.5"
             id="svg_272">2</tspan>
        </text>
      </g>
    </g>
    <g
       id="svg_273"
       class="">
      <g
         transform="translate(482,47) scale(1.5) "
         id="svg_274">
        <path
           d="m-312,-2 L-312,-6 A4,4 90 0 1 -308,-10 L-304,-10 L-304,-8 L-294,-8 L-294,-10 L-274,-10 L-270,-10 A4,4 90 0 1 -266,-6 L-266,-2 L-266,2 L-266,6 A4,4 90 0 1 -270,10 L-274,10 L-294,10 L-295,10 L-295,12 L-303,12 L-303,10 L-304,10 L-308,10 A4,4 90 0 1 -312,6 L-312,2 z"
           style="fill:#B0B0B0;fill-opacity:1;stroke:#A0A0A0;stroke-width:1;stroke-linecap:round;stroke-opacity:1;"
           id="svg_275" />
        <text
           style="font-size:10px;fill:#282828;font-family:sans-serif;text-anchor:end"
           id="svg_276"
           y="-10.5"
           x="-312.5">
          <tspan
             x="-276.5"
             y="3.5"
             id="svg_277">↓</tspan>
        </text>
      </g>
    </g>
    <g
       id="svg_278"
       class="">
      <g
         transform="translate(468,315) scale(1.5) "
         id="svg_279">
        <path
           d="m-312,-2 L-312,-6 A4,4 90 0 1 -308,-10 L-304,-10 L-304,-8 L-294,-8 L-294,-10 L-285,-10 L-212.177734375,-10 L-208.177734375,-10 A4,4 90 0 1 -204.177734375,-6 L-204.177734375,-2 L-208.177734375,-2 L-208.177734375,-5 L-212.177734375,-5 L-212.177734375,5 L-208.177734375,5 L-208.177734375,2 L-204.177734375,2 L-204.177734375,6 A4,4 90 0 1 -208.177734375,10 L-212.177734375,10 L-285,10 L-286,10 L-286,12 L-294,12 L-294,10 L-295,10 L-299,10 A5,5 90 0 0 -304,15 L-304,19 L-304,23 L-304,128 L-304,132 A5,5 90 0 0 -299,137 L-295,137 L-295,139 L-285,139 L-285,137 L-277,137 L-277,143 L-277,149 L-277,153 A4,4 90 0 1 -281,157 L-285,157 L-294,157 L-295,157 L-295,159 L-303,159 L-303,157 L-304,157 L-308,157 A4,4 90 0 1 -312,153 L-312,149 z"
           style="fill:#FF8B2D;fill-opacity:1;stroke:#E86B0E;stroke-width:1;stroke-linecap:round;stroke-opacity:1;"
           id="svg_280" />
        <text
           style="font-size:10px;fill:#282828;font-family:sans-serif;text-anchor:start"
           id="svg_281"
           y="-10.5"
           x="-312.5">
          <tspan
             x="-307.5"
             y="4.5"
             id="svg_282">multiply note value</tspan>
        </text>
        <text
           style="font-size:6.666666666666667px;fill:#282828;font-family:sans-serif;text-anchor:end"
           id="svg_283"
           y="-10.5"
           x="-312.5" />
      </g>
    </g>
    <g
       id="svg_285"
       class="">
      <g
         transform="translate(619,315) scale(1.5) "
         id="svg_286">
        <path
           d="m-304,-2 L-304,-6 A4,4 90 0 1 -300,-10 L-296,-10 L-286,-10 L-256,-10 L-252,-10 A4,4 90 0 1 -248,-6 L-248,-2 L-252,-2 L-252,-5 L-256,-5 L-256,5 L-252,5 L-252,2 L-248,2 L-248,19 L-252,19 L-252,16 L-256,16 L-256,26 L-252,26 L-252,23 L-248,23 L-248,27 A4,4 90 0 1 -252,31 L-256,31 L-286,31 L-296,31 L-300,31 A4,4 90 0 1 -304,27 L-304,23 L-304,2 L-304,1 L-310,1 L-310,4 L-312,4 L-312,-4 L-310,-4 L-310,-1 L-304,-1 L-304,-2 z"
           style="fill:#FF5293;fill-opacity:1;stroke:#FF2C76;stroke-width:1;stroke-linecap:round;stroke-opacity:1;"
           id="svg_287" />
        <text
           style="font-size:9px;fill:#282828;font-family:sans-serif;text-anchor:end"
           id="svg_288"
           y="-10.5"
           x="-312.5">
          <tspan
             x="-258.5"
             y="12.5"
             id="svg_289">/</tspan>
        </text>
        <text
           style="font-size:6px;fill:#282828;font-family:sans-serif;text-anchor:end"
           id="svg_290"
           y="-10.5"
           x="-312.5" />
        <text
           style="font-size:6px;fill:#282828;font-family:sans-serif;text-anchor:end"
           id="svg_292"
           y="-10.5"
           x="-312.5" />
      </g>
    </g>
    <g
       id="svg_294"
       class="">
      <g
         transform="translate(705,315) scale(1.5) "
         id="svg_295">
        <path
           d="m-304,-10 L-244,-10 L-244,10 L-304,10 L-304,2 L-304,1 L-310,1 L-310,4 L-312,4 L-312,-4 L-310,-4 L-310,-1 L-304,-1 L-304,-2 z"
           style="fill:#FF5293;fill-opacity:1;stroke:#FF2C76;stroke-width:1;stroke-linecap:round;stroke-opacity:1;"
           id="svg_296" />
        <text
           style="font-size:10px;fill:#282828;font-family:sans-serif;text-anchor:start"
           id="svg_297"
           y="-10.5"
           x="-312.5">
          <tspan
             x="-299.5"
             y="3.5"
             id="svg_298">2</tspan>
        </text>
      </g>
    </g>
    <g
       id="svg_299"
       class="">
      <g
         transform="translate(705,347) scale(1.5) "
         id="svg_300">
        <path
           d="m-304,-10 L-244,-10 L-244,10 L-304,10 L-304,2 L-304,1 L-310,1 L-310,4 L-312,4 L-312,-4 L-310,-4 L-310,-1 L-304,-1 L-304,-2 z"
           style="fill:#FF5293;fill-opacity:1;stroke:#FF2C76;stroke-width:1;stroke-linecap:round;stroke-opacity:1;"
           id="svg_301" />
        <text
           style="font-size:10px;fill:#282828;font-family:sans-serif;text-anchor:start"
           id="svg_302"
           y="-10.5"
           x="-312.5">
          <tspan
             x="-299.5"
             y="3.5"
             id="svg_303">1</tspan>
        </text>
      </g>
    </g>
    <g
       id="svg_304"
       class="">
      <g
         transform="translate(482,347) scale(1.5) "
         id="svg_305">
        <path
           d="m-312,-2 L-312,-6 A4,4 90 0 1 -308,-10 L-304,-10 L-304,-8 L-294,-8 L-294,-10 L-274,-10 L-270,-10 A4,4 90 0 1 -266,-6 L-266,-2 L-266,2 L-266,6 A4,4 90 0 1 -270,10 L-274,10 L-294,10 L-295,10 L-295,12 L-303,12 L-303,10 L-304,10 L-308,10 A4,4 90 0 1 -312,6 L-312,2 z"
           style="fill:#B0B0B0;fill-opacity:1;stroke:#A0A0A0;stroke-width:1;stroke-linecap:round;stroke-opacity:1;"
           id="svg_306" />
        <text
           style="font-size:10px;fill:#282828;font-family:sans-serif;text-anchor:end"
           id="svg_307"
           y="-10.5"
           x="-312.5">
          <tspan
             x="-276.5"
             y="3.5"
             id="svg_308">↓</tspan>
        </text>
      </g>
    </g>
  </g>
</svg>
