<?xml version="1.0" encoding="UTF-8" standalone="no"?>
<svg
   xmlns:dc="http://purl.org/dc/elements/1.1/"
   xmlns:cc="http://creativecommons.org/ns#"
   xmlns:rdf="http://www.w3.org/1999/02/22-rdf-syntax-ns#"
   xmlns:svg="http://www.w3.org/2000/svg"
   xmlns="http://www.w3.org/2000/svg"
   version="1.0"
   width="810"
   height="1200"
   id="svg1894">
  <metadata
     id="metadata22">
    <rdf:RDF>
      <cc:Work
         rdf:about="">
        <dc:format>image/svg+xml</dc:format>
        <dc:type
           rdf:resource="http://purl.org/dc/dcmitype/StillImage" />
      </cc:Work>
    </rdf:RDF>
  </metadata>
  <defs
     id="defs1896">
    <style
       type="text/css"
       id="style6" />
    <style
       type="text/css"
       id="style2282" />
  </defs>
  <g
     id="layer1"
     style="display:inline">
    <g
       transform="translate(19.223193,196.55764)"
       id="g1934">
      <path
         d="M 4.2160405,395.78396 L 795.78395,395.78396"
         style="fill:none;fill-rule:evenodd;stroke:#131516;stroke-width:8.43207264"
         id="path11" />
      <path
         d="M 4.2160405,635.78396 L 795.78395,635.78396"
         style="fill:none;fill-rule:evenodd;stroke:#131516;stroke-width:8.43207264"
         id="path13" />
      <path
         d="M 4.2160405,515.78396 L 795.78395,515.78396"
         style="fill:none;fill-rule:evenodd;stroke:#131516;stroke-width:8.43207264"
         id="path15" />
      <path
         d="M 4.2160405,275.78396 L 795.78395,275.78396"
         style="fill:none;fill-rule:evenodd;stroke:#131516;stroke-width:8.43207264"
         id="path17" />
      <path
         d="M 4.2160405,155.78396 L 795.78395,155.78396"
         style="fill:none;fill-rule:evenodd;stroke:#131516;stroke-width:8.43207264"
         id="path19" />
    </g>
  </g>
  <g
     id="layer2"
     style="display:inline">
    <path
       id="path2432"
       style="fill:#131516;stroke:#131516;stroke-width:0.60001558"
       d="M 103.85139,948.14124 L 103.85139,487.72297 L 103.85139,477.54026 L 157.14449,477.54026 L 157.14449,937.95853 L 157.14449,948.14124 L 103.85139,948.14124 z M 183.99139,948.14124 L 183.99139,487.72297 L 183.99139,477.54026 L 201.02114,477.54026 L 201.02114,708.14872 C 209.43584,703.75618 218.05089,694.77143 226.46559,680.5955 C 235.08064,666.61923 242.29324,651.84432 247.90304,636.0711 C 253.51284,620.29788 256.51809,608.71754 256.91879,601.13042 C 259.52334,617.90195 263.73069,631.27923 269.34049,641.46194 C 275.15064,651.44499 281.36149,658.63279 288.57409,663.02533 C 295.78669,667.21821 302.79894,669.41448 310.01154,669.41448 C 327.84269,669.41448 339.06229,661.42804 343.87069,645.2555 C 348.67909,629.08296 351.08329,609.31652 351.08329,585.95619 C 351.08329,575.37415 350.88294,565.79042 350.28189,557.40466 C 349.68084,549.0189 348.47874,540.43348 346.27489,531.84805 C 344.27139,523.26263 340.86544,515.47585 336.05704,508.68738 C 331.04829,501.8989 324.63709,497.10704 316.62309,494.71111 C 309.41049,492.7145 302.19789,491.71619 295.18564,491.71619 C 288.77444,491.71619 283.36499,492.91416 279.15764,495.11043 C 274.74994,497.3067 272.34574,500.70094 271.94504,504.69416 C 272.94679,508.28806 275.35099,512.48094 279.55834,517.47246 C 283.76569,522.26433 286.57059,526.05789 288.17339,528.45382 C 289.77619,530.84975 290.57759,534.24399 290.57759,538.83619 C 290.57759,547.02229 287.77269,553.81076 282.16289,559.40127 C 276.55309,564.99178 269.14014,567.9867 259.72369,567.9867 C 250.50759,567.9867 242.89429,564.59246 237.28449,558.00365 C 231.67469,551.21517 228.66944,543.22873 228.26874,534.24399 C 229.07014,522.06467 233.47784,511.48263 241.29149,502.69755 C 249.30549,494.11213 259.12264,487.52331 270.94329,483.13077 C 282.76394,478.73823 294.58459,476.54196 306.60559,476.54196 C 320.22939,476.54196 333.25214,478.93789 345.67384,483.72975 C 358.29589,488.52162 369.51549,495.70941 379.13229,504.89382 C 388.94944,514.27789 396.76309,525.65856 402.37289,539.23551 C 407.98269,552.6128 410.78759,567.9867 410.78759,584.95788 C 410.78759,608.51788 406.37989,628.08466 397.76484,643.45855 C 388.94944,659.03211 377.72984,670.61245 364.10604,677.80024 C 350.28189,684.98804 335.65634,688.98126 320.22939,689.38058 C 304.20139,688.38228 290.77794,684.78838 280.15939,678.59889 L 258.92229,712.94058 L 280.15939,747.08261 C 294.78494,741.09278 309.21014,738.09787 323.23464,738.09787 C 341.06579,738.09787 356.49274,743.28905 369.91619,753.2721 C 383.13929,763.45481 393.35714,776.43278 400.36939,792.60532 C 407.18129,808.77786 410.78759,825.34972 410.78759,842.52057 C 410.78759,861.2887 406.58024,878.85887 398.16554,895.03141 C 389.75084,911.20395 377.93019,923.98226 362.70359,933.76565 C 347.27664,943.34937 329.84619,948.14124 310.01154,948.14124 C 286.97129,947.14293 267.73769,941.75209 252.31074,931.76904 C 236.88379,921.98565 229.27049,907.21073 229.27049,887.84362 C 230.07189,878.45955 233.47784,871.27175 239.48834,865.88091 C 245.49884,860.2904 251.91004,857.49515 258.92229,856.89616 C 267.33699,856.89616 274.95029,859.89108 281.56184,865.88091 C 288.17339,871.67108 291.57934,879.05853 291.57934,887.84362 C 291.57934,891.23785 290.77794,894.43243 289.17514,897.42735 C 287.57234,900.2226 285.36849,903.61684 282.16289,907.61006 C 278.95729,911.40362 276.75344,914.19887 275.55134,915.99582 C 274.34924,917.99243 273.34749,920.1887 272.94679,922.98395 C 272.94679,926.57785 275.15064,929.57277 279.75869,931.9687 C 284.16639,934.36463 289.97654,935.76226 296.98879,936.36124 C 319.02729,935.36294 333.65284,925.97887 341.06579,908.60836 C 348.27839,890.83853 351.88469,869.07548 351.88469,842.52057 C 351.88469,819.55955 349.28014,799.39379 344.07104,782.22295 C 338.86194,764.85244 327.64234,756.26702 310.01154,756.26702 C 294.38424,756.26702 282.36324,762.85583 273.94854,776.43278 C 265.53384,789.81007 260.12439,805.58328 257.72019,823.75244 C 255.11564,808.37854 251.10864,793.60363 245.29849,779.42769 C 239.48834,765.0521 232.87679,752.47346 225.06314,741.69176 C 217.65019,731.10973 209.43584,722.52431 201.02114,716.53448 L 201.02114,948.14124 L 183.99139,948.14124 z" />
  </g>
  <g
     id="layer3"
     style="display:inline">
    <path
       style="fill:#ffffff;fill-opacity:1;stroke:none;stroke-width:0.5;stroke-miterlimit:4;stroke-dasharray:none;stroke-dashoffset:0;stroke-opacity:1"
       id="path3276"
       d="M 765.51996,471.37259 A 108.83295,108.83295 0 1 1 547.85406,471.37259 A 108.83295,108.83295 0 1 1 765.51996,471.37259 z"
       transform="matrix(0.8480015,0,0,0.8480015,42.632065,311.64796)" />
    <text
       xml:space="preserve"
       style="font-style:normal;font-variant:normal;font-weight:normal;font-stretch:normal;line-height:0%;font-family:sans-serif;-inkscape-font-specification:Sans;text-align:start;writing-mode:lr-tb;text-anchor:start;fill:#000000;fill-opacity:1;stroke:none;stroke-width:1px;stroke-linecap:butt;stroke-linejoin:miter;stroke-opacity:1"
       x="511.35129"
       y="763.79059"
       id="text3278"><tspan
         id="tspan3280"
         x="511.35129"
         y="763.79059"
         style="font-size:144px;line-height:1;font-family:sans-serif">C4</tspan></text>
  </g>
</svg>
