<?xml version="1.0" encoding="UTF-8" standalone="no"?>
<svg
   width="265.5"
   height="97.5"
   version="1.1"
   id="svg26"
   xmlns="http://www.w3.org/2000/svg"
   xmlns:svg="http://www.w3.org/2000/svg">
  <defs
     id="defs30" />
  <g
     id="g14">
    <g
       transform="scale(1.5)"
       id="g12">
      <path
         d="m 0.5,8.5 v -4 a 4,4 90 0 1 4,-4 h 4 v 2 h 10 v -2 h 9 80 4 a 4,4 90 0 1 4,4 v 4 h -4 v -3 h -4 v 10 h 4 v -3 h 4 v 4 a 4,4 90 0 1 -4,4 h -4 -80 -1 v 2 h -8 v -2 h -1 -4 a 5,5 90 0 0 -5,5 v 4 4 4 a 5,5 90 0 0 5,5 h 4 v 2 h 10 v -2 h 8 v 6 6 4 a 4,4 90 0 1 -4,4 h -4 -9 -1 v 2 h -8 v -2 h -1 -4 a 4,4 90 0 1 -4,-4 v -4 z"
         style="fill:#3edcdd;fill-opacity:1;stroke:#1dbcbd;stroke-width:1;stroke-linecap:round;stroke-opacity:1"
         id="path2" />
      <text
         style="font-size:10px;font-family:sans-serif;text-anchor:start;fill:#282828"
         id="text6"><tspan
           x="5"
           y="15"
           id="tspan4">相対音量を設定</tspan></text>
      <text
         style="font-size:6.66667px;font-family:sans-serif;text-anchor:end;fill:#282828"
         id="text10"><tspan
           x="105"
           y="12"
           id="tspan8" /></text>
    </g>
  </g>
  <g
     transform="translate(162)"
     id="g24">
    <g
       transform="scale(1.5)"
       id="g22">
      <path
         d="m 8.5,0.5 h 60 v 20 h -60 v -8 -1 h -6 v 3 h -2 v -8 h 2 v 3 h 6 v -1 z"
         style="fill:#ff6ea1;fill-opacity:1;stroke:#ff2c76;stroke-width:1;stroke-linecap:round;stroke-opacity:1"
         id="path16" />
      <text
         style="font-size:10px;font-family:sans-serif;text-anchor:start;fill:#282828"
         id="text20"><tspan
           x="13"
           y="14"
           id="tspan18">25</tspan></text>
    </g>
  </g>
</svg>
