<?xml version="1.0" encoding="UTF-8" standalone="no"?>
<svg
   xmlns:dc="http://purl.org/dc/elements/1.1/"
   xmlns:cc="http://creativecommons.org/ns#"
   xmlns:rdf="http://www.w3.org/1999/02/22-rdf-syntax-ns#"
   xmlns:svg="http://www.w3.org/2000/svg"
   xmlns="http://www.w3.org/2000/svg"
   id="svg11666"
   version="1.1"
   viewBox="0 0 88.503118 142.47812"
   height="142.47812mm"
   width="88.50312mm">
  <defs
     id="defs11660" />
  <metadata
     id="metadata11663">
    <rdf:RDF>
      <cc:Work
         rdf:about="">
        <dc:format>image/svg+xml</dc:format>
        <dc:type
           rdf:resource="http://purl.org/dc/dcmitype/StillImage" />
        <dc:title></dc:title>
      </cc:Work>
    </rdf:RDF>
  </metadata>
  <path
     d="m 0.19844024,3.3734347 v -1.5875 c -10e-9,-0.87675203 0.71074793,-1.58749999 1.58749996,-1.58750001 h 1.5875 v 0.79375 h 3.96875 v -0.79375 h 3.5718748 27.223274 1.5875 c 0.876752,0 1.864753,0.75573999 1.5875,1.58750001 v 1.5875 h -1.5875 v -1.190625 h -1.5875 v 3.96875 h 1.5875 v -1.190625 h 1.5875 v 1.5875 c 0,0.876752 -0.710748,1.5875 -1.5875,1.5875 h -1.5875 -27.223274 -0.396875 v 0.79375 H 7.3421902 v -0.79375 h -0.396875 -1.5875 c -1.0959402,0 -1.9843752,0.8884351 -1.984375,1.9843753 v 1.5875 1.5875 116.68125 1.5875 c 2.8e-6,1.09594 0.8884369,1.98437 1.984375,1.98437 h 1.5875 v 0.79375 h 3.9687498 v -0.79375 h 3.175 v 2.38125 2.38125 1.5875 c 0,0.87675 -0.710748,1.5875 -1.5875,1.5875 h -1.5875 -3.5718748 -0.396875 v 0.79375 h -3.175 v -0.79375 h -0.396875 -1.5875 c -0.87675202,0 -1.58749996,-0.71075 -1.58749996,-1.5875 v -1.5875 z"
     style="fill:#25c3c0;fill-opacity:1;stroke:#1dbcbd;stroke-width:0.39687499;stroke-linecap:round;stroke-opacity:1"
     id="path2820" />
  <text
     style="font-size:3.96875px;font-family:sans-serif;text-anchor:start;fill:#282828;stroke-width:0.39687499"
     id="text2824"
     x="2.7399999e-06"
     y="-2.806295e-06">
    <tspan
       x="1.9843777"
       y="5.9531221"
       id="tspan2822"
       style="stroke-width:0.39687499">デクレシェンド</tspan>
  </text>
  <text
     style="font-size:2.64583325px;font-family:sans-serif;text-anchor:end;fill:#282828;stroke-width:0.39687499"
     id="text2828"
     x="2.7399999e-06"
     y="-2.806295e-06">
    <tspan
       x="28.971878"
       y="4.7624974"
       id="tspan2826"
       style="stroke-width:0.39687499" />
  </text>
  <path
     d="m 41.709215,0.19843469 h 23.8125 V 8.1359347 h -23.8125 v -3.175 -0.396875 h -2.38125 v 1.190625 h -0.79375 v -3.175 h 0.79375 v 1.190625 h 2.38125 v -0.396875 z"
     style="fill:#ff5293;fill-opacity:1;stroke:#ff2c76;stroke-width:0.39687499;stroke-linecap:round;stroke-opacity:1"
     id="path2834" />
  <text
     style="font-size:3.96875px;font-family:sans-serif;text-anchor:start;fill:#282828;stroke-width:0.39687499"
     id="text2838"
     x="38.335781"
     y="-2.806295e-06">
    <tspan
       x="43.495155"
       y="5.5562472"
       id="tspan2836"
       style="stroke-width:0.39687499">5</tspan>
  </text>
  <g
     transform="matrix(0.396875,0,0,0.396875,3.5718777,8.3343721)"
     id="g3214">
    <path
       d="m 0.5,8.5 v -4 a 4,4 90 0 1 4,-4 h 4 v 2 h 10 v -2 h 9 60 4 a 4,4 90 0 1 4,4 v 4 h -4 v -3 h -4 v 10 h 4 v -3 h 4 v 4 a 4,4 90 0 1 -4,4 h -4 -60 -1 v 2 h -8 v -2 h -1 -4 a 5,5 90 0 0 -5,5 v 4 4 42 4 a 5,5 90 0 0 5,5 h 4 v 2 h 10 v -2 h 8 v 6 6 4 a 4,4 90 0 1 -4,4 h -4 -9 -1 v 2 h -8 v -2 h -1 -4 a 4,4 90 0 1 -4,-4 v -4 z"
       style="fill:#ff8b2d;fill-opacity:1;stroke:#e86b0e;stroke-width:1;stroke-linecap:round;stroke-opacity:1"
       id="path3204" />
    <text
       style="font-size:10px;font-family:sans-serif;text-anchor:start;fill:#282828"
       id="text3208">
      <tspan
         x="20"
         y="15"
         id="tspan3206">音符</tspan>
    </text>
    <text
       style="font-size:6.66666651px;font-family:sans-serif;text-anchor:end;fill:#282828"
       id="text3212">
      <tspan
         x="85"
         y="12"
         id="tspan3210">長さ</tspan>
    </text>
  </g>
  <g
     style="isolation:isolate"
     id="g3232"
     transform="matrix(0.13229166,0,0,0.13229166,3.5718777,9.3927054)">
    <g
       id="g3230"
       data-name="レイヤー 2">
      <g
         id="g3228">
        <rect
           width="42"
           height="42"
           rx="5"
           ry="5"
           style="opacity:0.4;mix-blend-mode:multiply;fill:#292929"
           id="rect3218"
           x="0"
           y="0" />
        <path
           d="m 30.56,29.8 -4.17,-4.16 h 2.26 a 1.035,1.035 0 1 0 0,-2.07 h -4.71 a 1.08,1.08 0 0 0 -1.11,1 v 0 c 0,0 0,0 0,0.06 v 4.64 0 a 1.04,1.04 0 1 0 2.08,0 v -2.19 l 4.19,4.19 a 1,1 0 0 0 1.46,0 1,1 0 0 0 0,-1.47 z"
           style="fill:#ffffff"
           id="path3220" />
        <path
           d="m 19.17,24.6 a 1.08,1.08 0 0 0 -1.11,-1 h -4.71 a 1.035,1.035 0 1 0 0,2.07 h 2.25 l -4.16,4.13 a 1.039447,1.039447 0 0 0 1.47,1.47 l 4.18,-4.19 v 2.26 a 1.04,1.04 0 1 0 2.08,0 V 24.7 c 0,0 0,0 0,-0.06 a 0.08,0.08 0 0 1 0,-0.04 z"
           style="fill:#ffffff"
           id="path3222" />
        <path
           d="m 23.94,20.5 h 4.7 a 1.04,1.04 0 1 0 0,-2.08 h -2.25 l 4.17,-4.16 a 1,1 0 0 0 0,-1.47 1,1 0 0 0 -1.46,0 L 24.91,17 v -2.28 a 1.04,1.04 0 1 0 -2.08,0 v 4.64 a 0.43,0.43 0 0 0 0,0.05 v 0.05 a 1.09,1.09 0 0 0 1.11,1.04 z"
           style="fill:#ffffff"
           id="path3224" />
        <path
           d="m 18.13,13.62 a 1.08,1.08 0 0 0 -1,1.09 V 17 l -4.18,-4.19 a 1,1 0 0 0 -1.47,0 1,1 0 0 0 0,1.46 l 4.16,4.17 h -2.29 a 1.04,1.04 0 1 0 0,2.08 h 4.71 a 1.09,1.09 0 0 0 1.11,-1 c 0,0 0,0 0,-0.06 v -4.75 a 1.07,1.07 0 0 0 -1.04,-1.09 z"
           style="fill:#ffffff"
           id="path3226" />
      </g>
    </g>
  </g>
  <path
     d="m 41.870314,11.70781 v -1.5875 a 1.5875,1.5875 0 0 1 1.5875,-1.5875004 h 1.5875 3.96875 11.90625 1.5875 a 1.5875,1.5875 0 0 1 1.5875,1.5875004 v 1.5875 h -1.5875 v -1.190625 h -1.5875 v 3.96875 h 1.5875 V 13.29531 h 1.5875 v 6.746875 h -1.5875 V 18.85156 h -1.5875 v 3.96875 h 1.5875 v -1.190625 h 1.5875 v 1.5875 a 1.5875,1.5875 0 0 1 -1.5875,1.5875 h -1.5875 -11.90625 -3.96875 -1.5875 a 1.5875,1.5875 0 0 1 -1.5875,-1.5875 v -1.5875 -8.334375 -0.396875 h -2.38125 v 1.190625 h -0.79375 v -3.175 h 0.79375 v 1.190625 h 2.38125 z"
     style="fill:#ff5293;fill-opacity:1;stroke:#ff2c76;stroke-width:0.39687499;stroke-linecap:round;stroke-opacity:1"
     id="path3238" />
  <text
     style="font-size:3.5718751px;font-family:sans-serif;text-anchor:end;fill:#282828;stroke-width:0.39687499"
     id="text3242"
     x="38.496876"
     y="8.3343725">
    <tspan
       x="59.928127"
       y="17.462498"
       id="tspan3240"
       style="stroke-width:0.39687499">➗</tspan>
  </text>
  <text
     style="font-size:2.3812499px;font-family:sans-serif;text-anchor:end;fill:#282828;stroke-width:0.39687499"
     id="text3246"
     x="38.496876"
     y="8.3343725">
    <tspan
       x="59.928127"
       y="13.096872"
       id="tspan3244"
       style="stroke-width:0.39687499" />
  </text>
  <text
     style="font-size:2.3812499px;font-family:sans-serif;text-anchor:end;fill:#282828;stroke-width:0.39687499"
     id="text3250"
     x="38.496876"
     y="8.3343725">
    <tspan
       x="59.928127"
       y="21.431248"
       id="tspan3248"
       style="stroke-width:0.39687499" />
  </text>
  <path
     d="m 64.492189,8.5328096 h 23.8125 V 16.47031 h -23.8125 v -3.175 -0.396875 h -2.38125 v 1.190625 h -0.79375 v -3.175 h 0.79375 v 1.190625 h 2.38125 V 11.70781 Z"
     style="fill:#ff5293;fill-opacity:1;stroke:#ff2c76;stroke-width:0.39687499;stroke-linecap:round;stroke-opacity:1"
     id="path3256" />
  <text
     style="font-size:3.96875px;font-family:sans-serif;text-anchor:start;fill:#282828;stroke-width:0.39687499"
     id="text3260"
     x="61.118752"
     y="8.3343725">
    <tspan
       x="66.27813"
       y="13.890622"
       id="tspan3258"
       style="stroke-width:0.39687499">1</tspan>
  </text>
  <path
     d="m 64.492189,16.867184 h 23.8125 v 7.9375 h -23.8125 v -3.175 -0.396875 h -2.38125 v 1.190625 h -0.79375 v -3.175 h 0.79375 v 1.190625 h 2.38125 v -0.396875 z"
     style="fill:#ff5293;fill-opacity:1;stroke:#ff2c76;stroke-width:0.39687499;stroke-linecap:round;stroke-opacity:1"
     id="path3266" />
  <text
     style="font-size:3.96875px;font-family:sans-serif;text-anchor:start;fill:#282828;stroke-width:0.39687499"
     id="text3270"
     x="61.118752"
     y="16.668747">
    <tspan
       x="66.27813"
       y="22.224997"
       id="tspan3268"
       style="stroke-width:0.39687499">4</tspan>
  </text>
  <path
     d="m 7.3421902,20.042184 v -1.5875 a 1.5875,1.5875 0 0 1 1.5875,-1.5875 H 10.51719 v 0.79375 h 3.96875 v -0.79375 h 7.9375 1.5875 a 1.5875,1.5875 0 0 1 1.5875,1.5875 v 1.5875 1.5875 1.5875 a 1.5875,1.5875 0 0 1 -1.5875,1.5875 h -1.5875 -7.9375 -0.396875 v 0.79375 h -3.175 v -0.79375 H 10.51719 8.9296902 a 1.5875,1.5875 0 0 1 -1.5875,-1.5875 v -1.5875 z"
     style="fill:#b0b0b0;fill-opacity:1;stroke:#a0a0a0;stroke-width:0.39687499;stroke-linecap:round;stroke-opacity:1"
     id="path3276" />
  <text
     style="font-size:3.96875px;font-family:sans-serif;text-anchor:end;fill:#282828;stroke-width:0.39687499"
     id="text3280"
     x="7.1437526"
     y="16.668747">
    <tspan
       x="21.431253"
       y="22.224997"
       id="tspan3278"
       style="stroke-width:0.39687499">↓</tspan>
  </text>
  <g
     transform="translate(5.6444449,0)"
     id="g4889">
    <path
       id="path3286"
       style="fill:#77c428;fill-opacity:1;stroke:#57ad02;stroke-width:0.39687499;stroke-linecap:round;stroke-opacity:1"
       d="m 1.6977453,28.376559 0,-1.5875 c 0,-0.876752 0.7107484,-1.587499 1.5875,-1.587499 l 1.5874998,0 0,0.793749 3.96875,0 0,-0.793749 17.5506949,0 1.5875,0 c 0.876752,0 1.587499,0.710747 1.5875,1.587499 l 0,1.5875 -1.5875,0 0,-1.190624 -1.5875,0 0,3.96875 1.5875,0 0,-1.190626 1.5875,0 0,6.746875 -1.5875,0 0,-1.190625 -1.5875,0 0,3.96875 1.5875,0 0,-1.190625 1.5875,0 0,1.587501 c -1e-6,0.876752 -0.710748,1.587499 -1.5875,1.587499 l -1.5875,0 -17.5506949,0 -0.396875,0 0,0.79375 -3.175,0 0,-0.79375 -0.396875,0 -1.5874998,0 c -0.8767516,0 -2.43150577,-1.350122 -1.5875,-1.587499 l 0,-1.587501 0,-8.334375 z" />
    <text
       y="25.003122"
       x="7.1437526"
       id="text3290"
       style="font-size:3.96875px;font-family:sans-serif;text-anchor:end;fill:#282828;stroke-width:0.39687499">
      <tspan
         style="stroke-width:0.39687499"
         id="tspan3288"
         y="34.528122"
         x="25.400003">音の高さ</tspan>
    </text>
    <text
       y="25.003122"
       x="7.1437526"
       id="text3294"
       style="font-size:2.64583325px;font-family:sans-serif;text-anchor:end;fill:#282828;stroke-width:0.39687499">
      <tspan
         style="stroke-width:0.39687499"
         id="tspan3292"
         y="29.765621"
         x="25.400003">名前</tspan>
    </text>
    <text
       y="25.003122"
       x="7.1437526"
       id="text3298"
       style="font-size:2.64583325px;font-family:sans-serif;text-anchor:end;fill:#282828;stroke-width:0.39687499">
      <tspan
         style="stroke-width:0.39687499"
         id="tspan3296"
         y="38.099998"
         x="25.400003">オクターヴの高さ</tspan>
    </text>
    <path
       id="path3304"
       style="fill:#77c428;fill-opacity:1;stroke:#57ad02;stroke-width:0.39687499;stroke-linecap:round;stroke-opacity:1"
       d="m 29.964064,25.20156 23.8125,0 0,7.9375 -23.8125,0 0,-3.175001 0,-0.396875 -2.381249,0 0,1.190625 -0.79375,0 0,-3.175 0.79375,0 0,1.190625 2.381249,0 0,-0.396875 z" />
    <text
       y="25.003122"
       x="26.590628"
       id="text3308"
       style="font-size:3.96875px;font-family:sans-serif;text-anchor:start;fill:#282828;stroke-width:0.39687499">
      <tspan
         style="stroke-width:0.39687499"
         id="tspan3306"
         y="30.559372"
         x="31.750002">ソ</tspan>
    </text>
    <path
       id="path3314"
       style="fill:#ff5293;fill-opacity:1;stroke:#ff2c76;stroke-width:0.39687499;stroke-linecap:round;stroke-opacity:1"
       d="m 29.964064,33.535934 23.8125,0 0,7.9375 -23.8125,0 0,-3.175 0,-0.396875 -2.381249,0 0,1.190626 -0.79375,0 0,-3.175001 0.79375,0 0,1.190626 2.381249,0 0,-0.396876 z" />
    <text
       y="33.337498"
       x="26.590628"
       id="text3318"
       style="font-size:3.96875px;font-family:sans-serif;text-anchor:start;fill:#282828;stroke-width:0.39687499">
      <tspan
         style="stroke-width:0.39687499"
         id="tspan3316"
         y="38.893745"
         x="31.750002">4</tspan>
    </text>
  </g>
  <g
     transform="matrix(0.396875,0,0,0.396875,3.5718777,50.006247)"
     id="g3334">
    <path
       d="m 0.5,8.5 v -4 a 4,4 90 0 1 4,-4 h 4 v 2 h 10 v -2 h 9 60 4 a 4,4 90 0 1 4,4 v 4 h -4 v -3 h -4 v 10 h 4 v -3 h 4 v 4 a 4,4 90 0 1 -4,4 h -4 -60 -1 v 2 h -8 v -2 h -1 -4 a 5,5 90 0 0 -5,5 v 4 4 42 4 a 5,5 90 0 0 5,5 h 4 v 2 h 10 v -2 h 8 v 6 6 4 a 4,4 90 0 1 -4,4 h -4 -9 -1 v 2 h -8 v -2 h -1 -4 a 4,4 90 0 1 -4,-4 v -4 z"
       style="fill:#ff8b2d;fill-opacity:1;stroke:#e86b0e;stroke-width:1;stroke-linecap:round;stroke-opacity:1"
       id="path3324" />
    <text
       style="font-size:10px;font-family:sans-serif;text-anchor:start;fill:#282828"
       id="text3328">
      <tspan
         x="20"
         y="15"
         id="tspan3326">音符</tspan>
    </text>
    <text
       style="font-size:6.66666651px;font-family:sans-serif;text-anchor:end;fill:#282828"
       id="text3332">
      <tspan
         x="85"
         y="12"
         id="tspan3330">長さ</tspan>
    </text>
  </g>
  <g
     style="isolation:isolate"
     id="g3352"
     transform="matrix(0.13229166,0,0,0.13229166,3.5718777,51.06458)">
    <g
       id="g3350"
       data-name="レイヤー 2">
      <g
         id="g3348">
        <rect
           width="42"
           height="42"
           rx="5"
           ry="5"
           style="opacity:0.4;mix-blend-mode:multiply;fill:#292929"
           id="rect3338"
           x="0"
           y="0" />
        <path
           d="m 30.56,29.8 -4.17,-4.16 h 2.26 a 1.035,1.035 0 1 0 0,-2.07 h -4.71 a 1.08,1.08 0 0 0 -1.11,1 v 0 c 0,0 0,0 0,0.06 v 4.64 0 a 1.04,1.04 0 1 0 2.08,0 v -2.19 l 4.19,4.19 a 1,1 0 0 0 1.46,0 1,1 0 0 0 0,-1.47 z"
           style="fill:#ffffff"
           id="path3340" />
        <path
           d="m 19.17,24.6 a 1.08,1.08 0 0 0 -1.11,-1 h -4.71 a 1.035,1.035 0 1 0 0,2.07 h 2.25 l -4.16,4.13 a 1.039447,1.039447 0 0 0 1.47,1.47 l 4.18,-4.19 v 2.26 a 1.04,1.04 0 1 0 2.08,0 V 24.7 c 0,0 0,0 0,-0.06 a 0.08,0.08 0 0 1 0,-0.04 z"
           style="fill:#ffffff"
           id="path3342" />
        <path
           d="m 23.94,20.5 h 4.7 a 1.04,1.04 0 1 0 0,-2.08 h -2.25 l 4.17,-4.16 a 1,1 0 0 0 0,-1.47 1,1 0 0 0 -1.46,0 L 24.91,17 v -2.28 a 1.04,1.04 0 1 0 -2.08,0 v 4.64 a 0.43,0.43 0 0 0 0,0.05 v 0.05 a 1.09,1.09 0 0 0 1.11,1.04 z"
           style="fill:#ffffff"
           id="path3344" />
        <path
           d="m 18.13,13.62 a 1.08,1.08 0 0 0 -1,1.09 V 17 l -4.18,-4.19 a 1,1 0 0 0 -1.47,0 1,1 0 0 0 0,1.46 l 4.16,4.17 h -2.29 a 1.04,1.04 0 1 0 0,2.08 h 4.71 a 1.09,1.09 0 0 0 1.11,-1 c 0,0 0,0 0,-0.06 v -4.75 a 1.07,1.07 0 0 0 -1.04,-1.09 z"
           style="fill:#ffffff"
           id="path3346" />
      </g>
    </g>
  </g>
  <path
     d="m 41.870314,53.379685 v -1.5875 a 1.5875,1.5875 0 0 1 1.5875,-1.587501 h 1.5875 3.96875 11.90625 1.5875 a 1.5875,1.5875 0 0 1 1.5875,1.587501 v 1.5875 h -1.5875 v -1.190626 h -1.5875 v 3.96875 h 1.5875 v -1.190624 h 1.5875 v 6.746875 h -1.5875 v -1.190626 h -1.5875 v 3.968751 h 1.5875 V 63.30156 h 1.5875 v 1.5875 a 1.5875,1.5875 0 0 1 -1.5875,1.5875 h -1.5875 -11.90625 -3.96875 -1.5875 a 1.5875,1.5875 0 0 1 -1.5875,-1.5875 v -1.5875 -8.334375 -0.396876 h -2.38125 v 1.190626 h -0.79375 v -3.175001 h 0.79375 v 1.190626 h 2.38125 z"
     style="fill:#ff5293;fill-opacity:1;stroke:#ff2c76;stroke-width:0.39687499;stroke-linecap:round;stroke-opacity:1"
     id="path3358" />
  <text
     style="font-size:3.5718751px;font-family:sans-serif;text-anchor:end;fill:#282828;stroke-width:0.39687499"
     id="text3362"
     x="38.496876"
     y="50.006248">
    <tspan
       x="59.928127"
       y="59.134373"
       id="tspan3360"
       style="stroke-width:0.39687499">➗</tspan>
  </text>
  <text
     style="font-size:2.3812499px;font-family:sans-serif;text-anchor:end;fill:#282828;stroke-width:0.39687499"
     id="text3366"
     x="38.496876"
     y="50.006248">
    <tspan
       x="59.928127"
       y="54.768745"
       id="tspan3364"
       style="stroke-width:0.39687499" />
  </text>
  <text
     style="font-size:2.3812499px;font-family:sans-serif;text-anchor:end;fill:#282828;stroke-width:0.39687499"
     id="text3370"
     x="38.496876"
     y="50.006248">
    <tspan
       x="59.928127"
       y="63.103123"
       id="tspan3368"
       style="stroke-width:0.39687499" />
  </text>
  <path
     d="m 64.492189,50.204684 h 23.8125 v 7.9375 h -23.8125 v -3.174999 -0.396876 h -2.38125 v 1.190626 h -0.79375 v -3.175001 h 0.79375 v 1.190626 h 2.38125 v -0.396875 z"
     style="fill:#ff5293;fill-opacity:1;stroke:#ff2c76;stroke-width:0.39687499;stroke-linecap:round;stroke-opacity:1"
     id="path3376" />
  <text
     style="font-size:3.96875px;font-family:sans-serif;text-anchor:start;fill:#282828;stroke-width:0.39687499"
     id="text3380"
     x="61.118752"
     y="50.006248">
    <tspan
       x="66.27813"
       y="55.562496"
       id="tspan3378"
       style="stroke-width:0.39687499">1</tspan>
  </text>
  <path
     d="m 64.492189,58.539058 h 23.8125 v 7.9375 h -23.8125 v -3.175 -0.396875 h -2.38125 v 1.190626 h -0.79375 v -3.175001 h 0.79375 v 1.190626 h 2.38125 v -0.396876 z"
     style="fill:#ff5293;fill-opacity:1;stroke:#ff2c76;stroke-width:0.39687499;stroke-linecap:round;stroke-opacity:1"
     id="path3386" />
  <text
     style="font-size:3.96875px;font-family:sans-serif;text-anchor:start;fill:#282828;stroke-width:0.39687499"
     id="text3390"
     x="61.118752"
     y="58.340622">
    <tspan
       x="66.27813"
       y="63.89687"
       id="tspan3388"
       style="stroke-width:0.39687499">4</tspan>
  </text>
  <path
     d="m 7.3421902,61.714058 v -1.587499 a 1.5875,1.5875 0 0 1 1.5875,-1.587501 H 10.51719 v 0.79375 h 3.96875 v -0.79375 h 7.9375 1.5875 a 1.5875,1.5875 0 0 1 1.5875,1.587501 v 1.587499 1.5875 1.587501 a 1.5875,1.5875 0 0 1 -1.5875,1.587499 h -1.5875 -7.9375 -0.396875 v 0.79375 h -3.175 v -0.79375 H 10.51719 8.9296902 a 1.5875,1.5875 0 0 1 -1.5875,-1.587499 v -1.587501 z"
     style="fill:#b0b0b0;fill-opacity:1;stroke:#a0a0a0;stroke-width:0.39687499;stroke-linecap:round;stroke-opacity:1"
     id="path3396" />
  <text
     style="font-size:3.96875px;font-family:sans-serif;text-anchor:end;fill:#282828;stroke-width:0.39687499"
     id="text3400"
     x="7.1437526"
     y="58.340622">
    <tspan
       x="21.431253"
       y="63.89687"
       id="tspan3398"
       style="stroke-width:0.39687499">↓</tspan>
  </text>
  <g
     transform="translate(5.6444449,0)"
     id="g4904">
    <path
       id="path3406"
       style="fill:#77c428;fill-opacity:1;stroke:#57ad02;stroke-width:0.39687499;stroke-linecap:round;stroke-opacity:1"
       d="m 1.6977453,70.048433 0,-1.5875 c 0,-0.876752 0.710748,-1.5875 1.5875,-1.5875 l 1.5874998,0 0,0.79375 3.96875,0 0,-0.79375 17.5506949,0 1.5875,0 c 0.876752,0 1.5875,0.710748 1.5875,1.5875 l 0,1.5875 -1.5875,0 0,-1.190625 -1.5875,0 0,3.96875 1.5875,0 0,-1.190625 1.5875,0 0,6.746875 -1.5875,0 0,-1.190625 -1.5875,0 0,3.96875 1.5875,0 0,-1.190625 1.5875,0 0,1.5875 c 0,0.876752 -0.710748,1.5875 -1.5875,1.5875 l -1.5875,0 -17.5506949,0 -0.396875,0 0,0.79375 -3.175,0 0,-0.79375 -0.396875,0 -1.5874998,0 c -0.876752,0 -1.5875,-0.710748 -1.5875,-1.5875 l 0,-1.5875 0,-8.334375 z" />
    <text
       y="66.674995"
       x="7.1437526"
       id="text3410"
       style="font-size:3.96875px;font-family:sans-serif;text-anchor:end;fill:#282828;stroke-width:0.39687499">
      <tspan
         style="stroke-width:0.39687499"
         id="tspan3408"
         y="76.199997"
         x="25.400003">音の高さ</tspan>
    </text>
    <text
       y="66.674995"
       x="7.1437526"
       id="text3414"
       style="font-size:2.64583325px;font-family:sans-serif;text-anchor:end;fill:#282828;stroke-width:0.39687499">
      <tspan
         style="stroke-width:0.39687499"
         id="tspan3412"
         y="71.437492"
         x="25.400003">名前</tspan>
    </text>
    <text
       y="66.674995"
       x="7.1437526"
       id="text3418"
       style="font-size:2.64583325px;font-family:sans-serif;text-anchor:end;fill:#282828;stroke-width:0.39687499">
      <tspan
         style="stroke-width:0.39687499"
         id="tspan3416"
         y="79.771873"
         x="25.400003">オクターヴの高さ</tspan>
    </text>
    <path
       id="path3424"
       style="fill:#77c428;fill-opacity:1;stroke:#57ad02;stroke-width:0.39687499;stroke-linecap:round;stroke-opacity:1"
       d="m 29.964064,66.873433 23.8125,0 0,7.9375 -23.8125,0 0,-3.175 0,-0.396875 -2.381249,0 0,1.190625 -0.79375,0 0,-3.175 0.79375,0 0,1.190625 2.381249,0 0,-0.396875 z" />
    <text
       y="66.674995"
       x="26.590628"
       id="text3428"
       style="font-size:3.96875px;font-family:sans-serif;text-anchor:start;fill:#282828;stroke-width:0.39687499">
      <tspan
         style="stroke-width:0.39687499"
         id="tspan3426"
         y="72.231247"
         x="31.750002">ソ</tspan>
    </text>
    <path
       id="path3434"
       style="fill:#ff5293;fill-opacity:1;stroke:#ff2c76;stroke-width:0.39687499;stroke-linecap:round;stroke-opacity:1"
       d="m 29.964064,75.207808 23.8125,0 0,7.9375 -23.8125,0 0,-3.174999 0,-0.396875 -2.381249,0 0,1.190625 -0.79375,0 0,-3.175 0.79375,0 0,1.190625 2.381249,0 0,-0.396876 z" />
    <text
       y="75.009369"
       x="26.590628"
       id="text3438"
       style="font-size:3.96875px;font-family:sans-serif;text-anchor:start;fill:#282828;stroke-width:0.39687499">
      <tspan
         style="stroke-width:0.39687499"
         id="tspan3436"
         y="80.56562"
         x="31.750002">4</tspan>
    </text>
  </g>
  <g
     transform="matrix(0.396875,0,0,0.396875,3.5718777,91.678121)"
     id="g3454">
    <path
       d="m 0.5,8.5 v -4 a 4,4 90 0 1 4,-4 h 4 v 2 h 10 v -2 h 9 60 4 a 4,4 90 0 1 4,4 v 4 h -4 v -3 h -4 v 10 h 4 v -3 h 4 v 4 a 4,4 90 0 1 -4,4 h -4 -60 -1 v 2 h -8 v -2 h -1 -4 a 5,5 90 0 0 -5,5 v 4 4 42 4 a 5,5 90 0 0 5,5 h 4 v 2 h 10 v -2 h 8 v 6 6 4 a 4,4 90 0 1 -4,4 h -4 -9 -1 v 2 h -8 v -2 h -1 -4 a 4,4 90 0 1 -4,-4 v -4 z"
       style="fill:#ff8b2d;fill-opacity:1;stroke:#e86b0e;stroke-width:1;stroke-linecap:round;stroke-opacity:1"
       id="path3444" />
    <text
       style="font-size:10px;font-family:sans-serif;text-anchor:start;fill:#282828"
       id="text3448">
      <tspan
         x="20"
         y="15"
         id="tspan3446">音符</tspan>
    </text>
    <text
       style="font-size:6.66666651px;font-family:sans-serif;text-anchor:end;fill:#282828"
       id="text3452">
      <tspan
         x="85"
         y="12"
         id="tspan3450">長さ</tspan>
    </text>
  </g>
  <g
     style="isolation:isolate"
     id="g3472"
     transform="matrix(0.13229166,0,0,0.13229166,3.5718777,92.736454)">
    <g
       id="g3470"
       data-name="レイヤー 2">
      <g
         id="g3468">
        <rect
           width="42"
           height="42"
           rx="5"
           ry="5"
           style="opacity:0.4;mix-blend-mode:multiply;fill:#292929"
           id="rect3458"
           x="0"
           y="0" />
        <path
           d="m 30.56,29.8 -4.17,-4.16 h 2.26 a 1.035,1.035 0 1 0 0,-2.07 h -4.71 a 1.08,1.08 0 0 0 -1.11,1 v 0 c 0,0 0,0 0,0.06 v 4.64 0 a 1.04,1.04 0 1 0 2.08,0 v -2.19 l 4.19,4.19 a 1,1 0 0 0 1.46,0 1,1 0 0 0 0,-1.47 z"
           style="fill:#ffffff"
           id="path3460" />
        <path
           d="m 19.17,24.6 a 1.08,1.08 0 0 0 -1.11,-1 h -4.71 a 1.035,1.035 0 1 0 0,2.07 h 2.25 l -4.16,4.13 a 1.039447,1.039447 0 0 0 1.47,1.47 l 4.18,-4.19 v 2.26 a 1.04,1.04 0 1 0 2.08,0 V 24.7 c 0,0 0,0 0,-0.06 a 0.08,0.08 0 0 1 0,-0.04 z"
           style="fill:#ffffff"
           id="path3462" />
        <path
           d="m 23.94,20.5 h 4.7 a 1.04,1.04 0 1 0 0,-2.08 h -2.25 l 4.17,-4.16 a 1,1 0 0 0 0,-1.47 1,1 0 0 0 -1.46,0 L 24.91,17 v -2.28 a 1.04,1.04 0 1 0 -2.08,0 v 4.64 a 0.43,0.43 0 0 0 0,0.05 v 0.05 a 1.09,1.09 0 0 0 1.11,1.04 z"
           style="fill:#ffffff"
           id="path3464" />
        <path
           d="m 18.13,13.62 a 1.08,1.08 0 0 0 -1,1.09 V 17 l -4.18,-4.19 a 1,1 0 0 0 -1.47,0 1,1 0 0 0 0,1.46 l 4.16,4.17 h -2.29 a 1.04,1.04 0 1 0 0,2.08 h 4.71 a 1.09,1.09 0 0 0 1.11,-1 c 0,0 0,0 0,-0.06 v -4.75 a 1.07,1.07 0 0 0 -1.04,-1.09 z"
           style="fill:#ffffff"
           id="path3466" />
      </g>
    </g>
  </g>
  <path
     d="m 41.870314,95.051558 v -1.587499 a 1.5875,1.5875 0 0 1 1.5875,-1.5875 h 1.5875 3.96875 11.90625 1.5875 a 1.5875,1.5875 0 0 1 1.5875,1.5875 v 1.587499 h -1.5875 v -1.190624 h -1.5875 v 3.96875 h 1.5875 v -1.190625 h 1.5875 v 6.746871 h -1.5875 v -1.19062 h -1.5875 v 3.96875 h 1.5875 v -1.19063 h 1.5875 v 1.5875 a 1.5875,1.5875 0 0 1 -1.5875,1.5875 h -1.5875 -11.90625 -3.96875 -1.5875 a 1.5875,1.5875 0 0 1 -1.5875,-1.5875 v -1.5875 -8.334371 -0.396875 h -2.38125 v 1.190625 h -0.79375 v -3.175 h 0.79375 v 1.190625 h 2.38125 z"
     style="fill:#ff5293;fill-opacity:1;stroke:#ff2c76;stroke-width:0.39687499;stroke-linecap:round;stroke-opacity:1"
     id="path3478" />
  <text
     style="font-size:3.5718751px;font-family:sans-serif;text-anchor:end;fill:#282828;stroke-width:0.39687499"
     id="text3482"
     x="38.496876"
     y="91.678123">
    <tspan
       x="59.928127"
       y="100.80624"
       id="tspan3480"
       style="stroke-width:0.39687499">➗</tspan>
  </text>
  <text
     style="font-size:2.3812499px;font-family:sans-serif;text-anchor:end;fill:#282828;stroke-width:0.39687499"
     id="text3486"
     x="38.496876"
     y="91.678123">
    <tspan
       x="59.928127"
       y="96.44062"
       id="tspan3484"
       style="stroke-width:0.39687499" />
  </text>
  <text
     style="font-size:2.3812499px;font-family:sans-serif;text-anchor:end;fill:#282828;stroke-width:0.39687499"
     id="text3490"
     x="38.496876"
     y="91.678123">
    <tspan
       x="59.928127"
       y="104.77499"
       id="tspan3488"
       style="stroke-width:0.39687499" />
  </text>
  <path
     d="m 64.492189,91.876559 h 23.8125 v 7.9375 h -23.8125 v -3.175 -0.396875 h -2.38125 v 1.190625 h -0.79375 v -3.175 h 0.79375 v 1.190625 h 2.38125 v -0.396876 z"
     style="fill:#ff5293;fill-opacity:1;stroke:#ff2c76;stroke-width:0.39687499;stroke-linecap:round;stroke-opacity:1"
     id="path3496" />
  <text
     style="font-size:3.96875px;font-family:sans-serif;text-anchor:start;fill:#282828;stroke-width:0.39687499"
     id="text3500"
     x="61.118752"
     y="91.678123">
    <tspan
       x="66.27813"
       y="97.234367"
       id="tspan3498"
       style="stroke-width:0.39687499">1</tspan>
  </text>
  <path
     d="m 64.492189,100.21094 h 23.8125 v 7.9375 h -23.8125 v -3.175 -0.39688 h -2.38125 v 1.19063 h -0.79375 v -3.175 h 0.79375 v 1.19062 h 2.38125 v -0.39687 z"
     style="fill:#ff5293;fill-opacity:1;stroke:#ff2c76;stroke-width:0.39687499;stroke-linecap:round;stroke-opacity:1"
     id="path3506" />
  <text
     style="font-size:3.96875px;font-family:sans-serif;text-anchor:start;fill:#282828;stroke-width:0.39687499"
     id="text3510"
     x="61.118752"
     y="100.0125">
    <tspan
       x="66.27813"
       y="105.56875"
       id="tspan3508"
       style="stroke-width:0.39687499">4</tspan>
  </text>
  <path
     d="m 7.3421902,103.38594 v -1.5875 a 1.5875,1.5875 0 0 1 1.5875,-1.5875 H 10.51719 v 0.79375 h 3.96875 v -0.79375 h 7.9375 1.5875 a 1.5875,1.5875 0 0 1 1.5875,1.5875 v 1.5875 1.5875 1.5875 a 1.5875,1.5875 0 0 1 -1.5875,1.5875 h -1.5875 -7.9375 -0.396875 v 0.79375 h -3.175 v -0.79375 H 10.51719 8.9296902 a 1.5875,1.5875 0 0 1 -1.5875,-1.5875 v -1.5875 z"
     style="fill:#b0b0b0;fill-opacity:1;stroke:#a0a0a0;stroke-width:0.39687499;stroke-linecap:round;stroke-opacity:1"
     id="path3516" />
  <text
     style="font-size:3.96875px;font-family:sans-serif;text-anchor:end;fill:#282828;stroke-width:0.39687499"
     id="text3520"
     x="7.1437526"
     y="100.0125">
    <tspan
       x="21.431253"
       y="105.56875"
       id="tspan3518"
       style="stroke-width:0.39687499">↓</tspan>
  </text>
  <g
     transform="translate(5.6444449,0)"
     id="g4919">
    <path
       id="path3526"
       style="fill:#77c428;fill-opacity:1;stroke:#57ad02;stroke-width:0.39687499;stroke-linecap:round;stroke-opacity:1"
       d="m 1.6977453,111.72031 0,-1.5875 c 0,-0.87675 0.710748,-1.5875 1.5875,-1.5875 l 1.5874998,0 0,0.79375 3.96875,0 0,-0.79375 17.5506949,0 1.5875,0 c 0.876752,0 1.5875,0.71075 1.5875,1.5875 l 0,1.5875 -1.5875,0 0,-1.19063 -1.5875,0 0,3.96875 1.5875,0 0,-1.19062 1.5875,0 0,6.74687 -1.5875,0 0,-1.19062 -1.5875,0 0,3.96875 1.5875,0 0,-1.19063 1.5875,0 0,1.5875 c 0,0.87675 -0.710748,1.5875 -1.5875,1.5875 l -1.5875,0 -17.5506949,0 -0.396875,0 0,0.79375 -3.175,0 0,-0.79375 -0.396875,0 -1.5874998,0 c -0.876752,0 -1.5875,-0.71075 -1.5875,-1.5875 l 0,-1.5875 0,-8.33437 z" />
    <text
       y="108.34687"
       x="7.1437526"
       id="text3530"
       style="font-size:3.96875px;font-family:sans-serif;text-anchor:end;fill:#282828;stroke-width:0.39687499">
      <tspan
         style="stroke-width:0.39687499"
         id="tspan3528"
         y="117.87187"
         x="25.400003">音の高さ</tspan>
    </text>
    <text
       y="108.34687"
       x="7.1437526"
       id="text3534"
       style="font-size:2.64583325px;font-family:sans-serif;text-anchor:end;fill:#282828;stroke-width:0.39687499">
      <tspan
         style="stroke-width:0.39687499"
         id="tspan3532"
         y="113.10937"
         x="25.400003">名前</tspan>
    </text>
    <text
       y="108.34687"
       x="7.1437526"
       id="text3538"
       style="font-size:2.64583325px;font-family:sans-serif;text-anchor:end;fill:#282828;stroke-width:0.39687499">
      <tspan
         style="stroke-width:0.39687499"
         id="tspan3536"
         y="121.44375"
         x="25.400003">オクターヴの高さ</tspan>
    </text>
    <path
       id="path3544"
       style="fill:#77c428;fill-opacity:1;stroke:#57ad02;stroke-width:0.39687499;stroke-linecap:round;stroke-opacity:1"
       d="m 29.964064,108.54531 23.8125,0 0,7.9375 -23.8125,0 0,-3.175 0,-0.39688 -2.381249,0 0,1.19063 -0.79375,0 0,-3.175 0.79375,0 0,1.19062 2.381249,0 0,-0.39687 z" />
    <text
       y="108.34687"
       x="26.590628"
       id="text3548"
       style="font-size:3.96875px;font-family:sans-serif;text-anchor:start;fill:#282828;stroke-width:0.39687499">
      <tspan
         style="stroke-width:0.39687499"
         id="tspan3546"
         y="113.90312"
         x="31.750002">ソ</tspan>
    </text>
    <path
       id="path3554"
       style="fill:#ff5293;fill-opacity:1;stroke:#ff2c76;stroke-width:0.39687499;stroke-linecap:round;stroke-opacity:1"
       d="m 29.964064,116.87969 23.8125,0 0,7.9375 -23.8125,0 0,-3.175 0,-0.39688 -2.381249,0 0,1.19063 -0.79375,0 0,-3.175 0.79375,0 0,1.19062 2.381249,0 0,-0.39687 z" />
    <text
       y="116.68125"
       x="26.590628"
       id="text3558"
       style="font-size:3.96875px;font-family:sans-serif;text-anchor:start;fill:#282828;stroke-width:0.39687499">
      <tspan
         style="stroke-width:0.39687499"
         id="tspan3556"
         y="122.2375"
         x="31.750002">4</tspan>
    </text>
  </g>
</svg>
