<?xml version="1.0" encoding="UTF-8" standalone="no"?>
<svg
   xmlns:dc="http://purl.org/dc/elements/1.1/"
   xmlns:cc="http://creativecommons.org/ns#"
   xmlns:rdf="http://www.w3.org/1999/02/22-rdf-syntax-ns#"
   xmlns:svg="http://www.w3.org/2000/svg"
   xmlns="http://www.w3.org/2000/svg"
   id="svg3045"
   version="1.1"
   viewBox="0 0 88.767708 59.134373"
   height="59.134373mm"
   width="88.767708mm">
  <defs
     id="defs3039" />
  <metadata
     id="metadata3042">
    <rdf:RDF>
      <cc:Work
         rdf:about="">
        <dc:format>image/svg+xml</dc:format>
        <dc:type
           rdf:resource="http://purl.org/dc/dcmitype/StillImage" />
        <dc:title></dc:title>
      </cc:Work>
    </rdf:RDF>
  </metadata>
  <path
     d="m 0.1984375,3.3734375 0,-1.5875 c 0,-0.87675204 0.71074796,-1.5875 1.5875,-1.5875 l 1.5875,0 0,0.79375 3.96875,0 0,-0.79375 3.5718755,0 17.779362,0 1.5875,0 c 0.876753,0 2.431507,1.3501233 1.5875,1.5875 l 0,1.5875 -1.5875,0 0,-1.190625 -1.5875,0 0,3.96875 1.5875,0 0,-1.190625 1.5875,0 0,1.5875 c 0,0.876752 -0.710747,1.5875 -1.5875,1.5875 l -1.5875,0 -17.779362,0 -0.396876,0 0,0.79375 -3.1749995,0 0,-0.79375 -0.396875,0 -1.5875,0 c -1.0959399,0 -1.9843747,0.8884346 -1.984375,1.9843745 l 0,1.5875 0,1.587501 0,33.337499 0,1.5875 c 0,1.09594 0.8884349,1.984375 1.984375,1.984375 l 1.5875,0 0,0.79375 3.9687505,0 0,-0.79375 3.174999,0 0,2.38125 0,2.38125 0,1.5875 c 0,0.876752 -0.710748,1.5875 -1.5875,1.5875 l -1.587499,0 -3.5718755,0 -0.396875,0 0,0.79375 -3.175,0 0,-0.79375 -0.396875,0 -1.5875,0 c -0.87675204,0 -1.5875,-0.710748 -1.5875,-1.5875 l 0,-1.5875 z"
     style="fill:#3edcdd;fill-opacity:1;stroke:#1dbcbd;stroke-width:0.39687499;stroke-linecap:round;stroke-opacity:1"
     id="path1506" />
  <text
     style="font-size:3.96875px;font-family:sans-serif;text-anchor:start;fill:#282828;stroke-width:0.39687499"
     id="text1510">
    <tspan
       x="1.984375"
       y="5.953125"
       id="tspan1508"
       style="stroke-width:0.39687499">ディストーション</tspan>
  </text>
  <text
     style="font-size:2.64583325px;font-family:sans-serif;text-anchor:end;fill:#282828;stroke-width:0.39687499"
     id="text1514">
    <tspan
       x="22.225"
       y="4.7624998"
       id="tspan1512"
       style="stroke-width:0.39687499" />
  </text>
  <g
     transform="translate(5.6444445,0)"
     id="g4206">
    <path
       id="path1520"
       style="fill:#ff6ea1;fill-opacity:1;stroke:#ff2c76;stroke-width:0.39687499;stroke-linecap:round;stroke-opacity:1"
       d="m 26.656767,0.1984375 23.8125,0 0,7.9375 -23.8125,0 0,-3.175 0,-0.396875 -2.38125,0 0,1.190625 -0.79375,0 0,-3.175 0.79375,0 0,1.190625 2.38125,0 0,-0.396875 z" />
    <text
       x="23.283331"
       id="text1524"
       style="font-size:3.96875px;font-family:sans-serif;text-anchor:start;fill:#282828;stroke-width:0.39687499">
      <tspan
         style="stroke-width:0.39687499"
         id="tspan1522"
         y="5.5562501"
         x="28.442705">40</tspan>
    </text>
  </g>
  <g
     transform="matrix(0.396875,0,0,0.396875,3.7041611,8.4666609)"
     id="g2020">
    <path
       d="m 0.5,8.5 v -4 a 4,4 90 0 1 4,-4 h 4 v 2 h 10 v -2 h 9 60 4 a 4,4 90 0 1 4,4 v 4 h -4 v -3 h -4 v 10 h 4 v -3 h 4 v 4 a 4,4 90 0 1 -4,4 h -4 -60 -1 v 2 h -8 v -2 h -1 -4 a 5,5 90 0 0 -5,5 v 4 4 42 4 a 5,5 90 0 0 5,5 h 4 v 2 h 10 v -2 h 8 v 6 6 4 a 4,4 90 0 1 -4,4 h -4 -9 -1 v 2 h -8 v -2 h -1 -4 a 4,4 90 0 1 -4,-4 v -4 z"
       style="fill:#fe994f;fill-opacity:1;stroke:#e86b0e;stroke-width:1;stroke-linecap:round;stroke-opacity:1"
       id="path2010" />
    <text
       style="font-size:10px;font-family:sans-serif;text-anchor:start;fill:#282828"
       id="text2014">
      <tspan
         x="20"
         y="15"
         id="tspan2012">音符</tspan>
    </text>
    <text
       style="font-size:6.66666651px;font-family:sans-serif;text-anchor:end;fill:#282828"
       id="text2018">
      <tspan
         x="85"
         y="12"
         id="tspan2016">長さ</tspan>
    </text>
  </g>
  <g
     style="isolation:isolate"
     id="g2038"
     transform="matrix(0.13229166,0,0,0.13229166,3.7041611,9.5249942)">
    <g
       id="g2036"
       data-name="レイヤー 2">
      <g
         id="g2034">
        <rect
           y="0"
           x="0"
           width="42"
           height="42"
           rx="5"
           ry="5"
           style="opacity:0.4;mix-blend-mode:multiply;fill:#292929"
           id="rect2024" />
        <path
           d="m 30.56,29.8 -4.17,-4.16 h 2.26 a 1.035,1.035 0 1 0 0,-2.07 h -4.71 a 1.08,1.08 0 0 0 -1.11,1 v 0 c 0,0 0,0 0,0.06 v 4.64 0 a 1.04,1.04 0 1 0 2.08,0 v -2.19 l 4.19,4.19 a 1,1 0 0 0 1.46,0 1,1 0 0 0 0,-1.47 z"
           style="fill:#ffffff"
           id="path2026" />
        <path
           d="m 19.17,24.6 a 1.08,1.08 0 0 0 -1.11,-1 h -4.71 a 1.035,1.035 0 1 0 0,2.07 h 2.25 l -4.16,4.13 a 1.039447,1.039447 0 0 0 1.47,1.47 l 4.18,-4.19 v 2.26 a 1.04,1.04 0 1 0 2.08,0 V 24.7 c 0,0 0,0 0,-0.06 a 0.08,0.08 0 0 1 0,-0.04 z"
           style="fill:#ffffff"
           id="path2028" />
        <path
           d="m 23.94,20.5 h 4.7 a 1.04,1.04 0 1 0 0,-2.08 h -2.25 l 4.17,-4.16 a 1,1 0 0 0 0,-1.47 1,1 0 0 0 -1.46,0 L 24.91,17 v -2.28 a 1.04,1.04 0 1 0 -2.08,0 v 4.64 a 0.43,0.43 0 0 0 0,0.05 v 0.05 a 1.09,1.09 0 0 0 1.11,1.04 z"
           style="fill:#ffffff"
           id="path2030" />
        <path
           d="m 18.13,13.62 a 1.08,1.08 0 0 0 -1,1.09 V 17 l -4.18,-4.19 a 1,1 0 0 0 -1.47,0 1,1 0 0 0 0,1.46 l 4.16,4.17 h -2.29 a 1.04,1.04 0 1 0 0,2.08 h 4.71 a 1.09,1.09 0 0 0 1.11,-1 c 0,0 0,0 0,-0.06 v -4.75 a 1.07,1.07 0 0 0 -1.04,-1.09 z"
           style="fill:#ffffff"
           id="path2032" />
      </g>
    </g>
  </g>
  <path
     d="m 42.002608,11.840108 v -1.5875 a 1.5875,1.5875 0 0 1 1.5875,-1.5875005 h 1.587499 3.96875 11.90625 1.5875 a 1.5875,1.5875 0 0 1 1.587501,1.5875005 v 1.5875 h -1.587501 v -1.190625 h -1.5875 v 3.96875 h 1.5875 v -1.190625 h 1.587501 v 6.746874 h -1.587501 v -1.190625 h -1.5875 v 3.96875 h 1.5875 v -1.190624 h 1.587501 v 1.587499 a 1.5875,1.5875 0 0 1 -1.587501,1.5875 h -1.5875 -11.90625 -3.96875 -1.587499 a 1.5875,1.5875 0 0 1 -1.5875,-1.5875 v -1.587499 -8.334375 -0.396876 h -2.38125 v 1.190626 h -0.793751 v -3.175 h 0.793751 v 1.190625 h 2.38125 z"
     style="fill:#ff6ea1;fill-opacity:1;stroke:#ff2c76;stroke-width:0.39687499;stroke-linecap:round;stroke-opacity:1"
     id="path2044" />
  <text
     style="font-size:3.5718751px;font-family:sans-serif;text-anchor:end;fill:#282828;stroke-width:0.39687499"
     id="text2048"
     x="38.629169"
     y="8.46667">
    <tspan
       x="60.060421"
       y="17.594795"
       id="tspan2046"
       style="stroke-width:0.39687499">➗</tspan>
  </text>
  <text
     style="font-size:2.3812499px;font-family:sans-serif;text-anchor:end;fill:#282828;stroke-width:0.39687499"
     id="text2052"
     x="38.629169"
     y="8.46667">
    <tspan
       x="60.060421"
       y="13.22917"
       id="tspan2050"
       style="stroke-width:0.39687499" />
  </text>
  <text
     style="font-size:2.3812499px;font-family:sans-serif;text-anchor:end;fill:#282828;stroke-width:0.39687499"
     id="text2056"
     x="38.629169"
     y="8.46667">
    <tspan
       x="60.060421"
       y="21.563545"
       id="tspan2054"
       style="stroke-width:0.39687499" />
  </text>
  <path
     d="m 64.756767,8.6651075 h 23.8125 v 7.9374995 h -23.8125 v -3.174999 -0.396876 h -2.38125 v 1.190626 h -0.79375 v -3.175 h 0.79375 v 1.190625 h 2.38125 v -0.396875 z"
     style="fill:#ff6ea1;fill-opacity:1;stroke:#ff2c76;stroke-width:0.39687499;stroke-linecap:round;stroke-opacity:1"
     id="path2062" />
  <text
     style="font-size:3.96875px;font-family:sans-serif;text-anchor:start;fill:#282828;stroke-width:0.39687499"
     id="text2066"
     x="61.383331"
     y="8.46667">
    <tspan
       x="66.542702"
       y="14.02292"
       id="tspan2064"
       style="stroke-width:0.39687499">1</tspan>
  </text>
  <path
     d="m 64.756767,17.131768 h 23.8125 v 7.9375 h -23.8125 v -3.175 -0.396876 h -2.38125 v 1.190625 h -0.79375 v -3.175 h 0.79375 v 1.190625 h 2.38125 v -0.396875 z"
     style="fill:#ff6ea1;fill-opacity:1;stroke:#ff2c76;stroke-width:0.39687499;stroke-linecap:round;stroke-opacity:1"
     id="path2072" />
  <text
     style="font-size:3.96875px;font-family:sans-serif;text-anchor:start;fill:#282828;stroke-width:0.39687499"
     id="text2076"
     x="61.383331"
     y="16.933331">
    <tspan
       x="66.542702"
       y="22.48958"
       id="tspan2074"
       style="stroke-width:0.39687499">4</tspan>
  </text>
  <path
     d="m 7.6067675,20.306767 v -1.5875 a 1.5875,1.5875 0 0 1 1.5875,-1.587499 h 1.5875005 v 0.79375 h 3.96875 v -0.79375 h 7.937499 1.5875 a 1.5875,1.5875 0 0 1 1.5875,1.587499 v 1.5875 1.587501 1.587499 a 1.5875,1.5875 0 0 1 -1.5875,1.587501 h -1.5875 -7.937499 -0.396876 v 0.79375 h -3.174999 v -0.79375 H 10.781768 9.1942675 a 1.5875,1.5875 0 0 1 -1.5875,-1.587501 v -1.587499 z"
     style="fill:#c4c4c4;fill-opacity:1;stroke:#a0a0a0;stroke-width:0.39687499;stroke-linecap:round;stroke-opacity:1"
     id="path2082" />
  <text
     style="font-size:3.96875px;font-family:sans-serif;text-anchor:end;fill:#282828;stroke-width:0.39687499"
     id="text2086"
     x="7.40833"
     y="16.933331">
    <tspan
       x="21.695829"
       y="22.48958"
       id="tspan2084"
       style="stroke-width:0.39687499">↓</tspan>
  </text>
  <path
     d="m 7.6067675,28.773437 v -1.5875 c 0,-0.876752 0.710748,-1.5875 1.5875,-1.5875 h 1.5875005 v 0.79375 h 3.96875 v -0.79375 h 18.256249 1.5875 c 0.876752,0 1.5875,0.710748 1.5875,1.5875 v 1.5875 h -1.5875 v -1.190625 h -1.5875 v 3.96875 h 1.5875 v -1.190625 h 1.5875 v 6.746875 h -1.5875 v -1.190625 h -1.5875 v 3.96875 h 1.5875 v -1.190625 h 1.5875 v 1.5875 c 0,0.876752 -0.710748,1.5875 -1.5875,1.5875 h -1.5875 -18.256249 -0.396876 v 0.79375 h -3.174999 v -0.79375 H 10.781768 9.1942675 c -0.876752,0 -1.5875,-0.710748 -1.5875,-1.5875 v -1.5875 -8.334375 z"
     style="fill:#7cd622;fill-opacity:1;stroke:#57ad02;stroke-width:0.39687499;stroke-linecap:round;stroke-opacity:1"
     id="path2092" />
  <text
     style="font-size:3.96875px;font-family:sans-serif;text-anchor:end;fill:#282828;stroke-width:0.39687499"
     id="text2096"
     x="13.758326"
     y="25.4">
    <tspan
       x="32.014584"
       y="34.924999"
       id="tspan2094"
       style="stroke-width:0.39687499">音の高さ</tspan>
  </text>
  <text
     style="font-size:2.64583325px;font-family:sans-serif;text-anchor:end;fill:#282828;stroke-width:0.39687499"
     id="text2100"
     x="13.758326"
     y="25.4">
    <tspan
       x="32.014584"
       y="30.1625"
       id="tspan2098"
       style="stroke-width:0.39687499">名前</tspan>
  </text>
  <text
     style="font-size:2.64583325px;font-family:sans-serif;text-anchor:end;fill:#282828;stroke-width:0.39687499"
     id="text2104"
     x="13.758326"
     y="25.4">
    <tspan
       x="32.014584"
       y="38.496876"
       id="tspan2102"
       style="stroke-width:0.39687499">オクターヴの高さ</tspan>
  </text>
  <path
     d="m 36.710941,25.598437 h 23.8125 v 7.9375 h -23.8125 v -3.175 -0.396875 h -2.38125 v 1.190625 h -0.793749 v -3.175 h 0.793749 v 1.190625 h 2.38125 v -0.396875 z"
     style="fill:#7cd622;fill-opacity:1;stroke:#57ad02;stroke-width:0.39687499;stroke-linecap:round;stroke-opacity:1"
     id="path2110" />
  <text
     style="font-size:3.96875px;font-family:sans-serif;text-anchor:start;fill:#282828;stroke-width:0.39687499"
     id="text2114"
     x="33.337505"
     y="25.4">
    <tspan
       x="38.49688"
       y="30.956249"
       id="tspan2112"
       style="stroke-width:0.39687499">ソ</tspan>
  </text>
  <path
     d="m 36.710941,34.065107 h 23.8125 v 7.9375 h -23.8125 v -3.175 -0.396875 h -2.38125 v 1.190626 h -0.793749 v -3.175001 h 0.793749 v 1.190626 h 2.38125 v -0.396876 z"
     style="fill:#ff6ea1;fill-opacity:1;stroke:#ff2c76;stroke-width:0.39687499;stroke-linecap:round;stroke-opacity:1"
     id="path2120" />
  <text
     style="font-size:3.96875px;font-family:sans-serif;text-anchor:start;fill:#282828;stroke-width:0.39687499"
     id="text2124"
     x="33.337505"
     y="33.866669">
    <tspan
       x="38.49688"
       y="39.42292"
       id="tspan2122"
       style="stroke-width:0.39687499">4</tspan>
  </text>
</svg>
