<?xml version="1.0" encoding="UTF-8" standalone="no"?>
<svg
   xmlns:dc="http://purl.org/dc/elements/1.1/"
   xmlns:cc="http://creativecommons.org/ns#"
   xmlns:rdf="http://www.w3.org/1999/02/22-rdf-syntax-ns#"
   xmlns:svg="http://www.w3.org/2000/svg"
   xmlns="http://www.w3.org/2000/svg"
   id="svg132"
   version="1.1"
   height="192"
   width="258.5">
  <metadata
     id="metadata138">
    <rdf:RDF>
      <cc:Work
         rdf:about="">
        <dc:format>image/svg+xml</dc:format>
        <dc:type
           rdf:resource="http://purl.org/dc/dcmitype/StillImage" />
        <dc:title></dc:title>
      </cc:Work>
    </rdf:RDF>
  </metadata>
  <defs
     id="defs136" />
  <g
     id="g58">
    <g
       id="g56"
       transform="scale(1.5)">
      <path
         id="path50"
         style="fill:#92a9ff;fill-opacity:1;stroke:#5370dc;stroke-width:1;stroke-linecap:round;stroke-opacity:1"
         d="m 0.5,8.5 v -4 c 0,-2.209139 1.790861,-4 4,-4 h 4 v 2 h 10 v -2 h 9 23.333333 4 c 2.209139,0 4,1.790861 4,4 v 4 4 4 c 0,2.209139 -1.790861,4 -4,4 h -4 H 27.5 h -1 v 2 h -8 v -2 h -1 -4 c -2.761424,0 -5,2.238576 -5,5 v 4 4 63 4 c 0,2.76142 2.238576,5 5,5 h 4 v 2 h 10 v -2 h 8 v 6 6 4 c 0,2.20914 -1.790861,4 -4,4 h -4 -9 -1 v 2 h -8 v -2 h -1 -4 c -2.209139,0 -4,-1.79086 -4,-4 v -4 z" />
      <text
         id="text54"
         style="font-size:10px;font-family:sans-serif;text-anchor:start;fill:#282828">
        <tspan
           id="tspan52"
           y="15"
           x="5">ぬりつぶす</tspan>
      </text>
    </g>
  </g>
  <path
     id="path60"
     style="fill:#92a9ff;fill-opacity:1;stroke:#5370dc;stroke-width:1.5;stroke-linecap:round;stroke-opacity:1"
     d="m 28.75,76.75 v -6 c 0,-3.313709 2.686291,-6 6,-6 h 6 v 3 h 15 v -3 h 66.01709 6 c 3.31371,0 7.04789,2.85634 6,6 v 6 h -6 v -4.5 h -6 v 15 h 6 v -4.5 h 6 v 6 c 0,3.313709 -2.68629,6 -6,6 h -6 H 55.75 54.25 v 3 h -12 v -3 h -1.5 -6 c -3.313709,0 -6,-2.686291 -6,-6 v -6 z" />
  <text
     id="text64"
     style="font-size:15px;font-family:sans-serif;text-anchor:end;fill:#282828;stroke-width:1.5"
     x="40"
     y="64">
    <tspan
       id="tspan62"
       y="85"
       x="115"
       style="stroke-width:1.5">前へ進む</tspan>
  </text>
  <text
     id="text68"
     style="font-size:10px;font-family:sans-serif;text-anchor:end;fill:#282828;stroke-width:1.5"
     x="28"
     y="64">
    <tspan
       id="tspan66"
       y="82"
       x="103"
       style="stroke-width:1.5" />
  </text>
  <g
     id="g82"
     transform="translate(123,64)">
    <g
       id="g80"
       transform="scale(1.5)">
      <path
         id="path74"
         style="fill:#ff6ea1;fill-opacity:1;stroke:#ff2c76;stroke-width:1;stroke-linecap:round;stroke-opacity:1"
         d="m 8.5,0.5 h 60 v 20 h -60 v -8 -1 h -6 v 3 h -2 v -8 h 2 v 3 h 6 v -1 z" />
      <text
         id="text78"
         style="font-size:10px;font-family:sans-serif;text-anchor:start;fill:#282828">
        <tspan
           id="tspan76"
           y="14"
           x="13">100</tspan>
      </text>
    </g>
  </g>
  <path
     id="path84"
     style="fill:#92a9ff;fill-opacity:1;stroke:#5370dc;stroke-width:1.5;stroke-linecap:round;stroke-opacity:1"
     d="m 28.75,108.75 v -6 c 0,-3.313709 2.686291,-6 6,-6 h 6 v 3 h 15 v -3 h 109 6 c 3.31371,0 7.04789,2.85634 6,6 v 6 h -6 v -4.5 h -6 v 15 h 6 v -4.5 h 6 v 6 c 0,3.31371 -2.68629,6 -6,6 h -6 -109 -1.5 v 3 h -12 v -3 h -1.5 -6 c -3.313709,0 -6,-2.68629 -6,-6 v -6 z" />
  <text
     id="text88"
     style="font-size:15px;font-family:sans-serif;text-anchor:end;fill:#282828;stroke-width:1.5"
     x="92"
     y="96">
    <tspan
       id="tspan86"
       y="117"
       x="161"
       style="stroke-width:1.5">ざひょうち（右）</tspan>
  </text>
  <text
     id="text92"
     style="font-size:10px;font-family:sans-serif;text-anchor:end;fill:#282828;stroke-width:1.5"
     x="28"
     y="96">
    <tspan
       id="tspan90"
       y="114"
       x="97"
       style="stroke-width:1.5" />
  </text>
  <g
     id="g106"
     transform="translate(166,96)">
    <g
       id="g104"
       transform="scale(1.5)">
      <path
         id="path98"
         style="fill:#ff6ea1;fill-opacity:1;stroke:#ff2c76;stroke-width:1;stroke-linecap:round;stroke-opacity:1"
         d="m 8.5,0.5 h 60 v 20 h -60 v -8 -1 h -6 v 3 h -2 v -8 h 2 v 3 h 6 v -1 z" />
      <text
         id="text102"
         style="font-size:10px;font-family:sans-serif;text-anchor:start;fill:#282828">
        <tspan
           id="tspan100"
           y="14"
           x="13">90</tspan>
      </text>
    </g>
  </g>
  <g
     id="g120"
     transform="translate(14,32)">
    <g
       id="g118"
       transform="scale(1.5)">
      <path
         id="path108"
         style="fill:#d98a43;fill-opacity:1;stroke:#b7651a;stroke-width:1;stroke-linecap:round;stroke-opacity:1"
         d="m 0.5,8.5 v -4 c 0,-2.209139 1.790861,-4 4,-4 h 4 v 2 h 10 v -2 h 9 41.333333 4 c 2.209139,0 4,1.790861 4,4 v 4 h -4 v -3 h -4 v 10 h 4 v -3 h 4 v 4 c 0,2.209139 -1.790861,4 -4,4 h -4 H 27.5 h -1 v 2 h -8 v -2 h -1 -4 c -2.761424,0 -5,2.238576 -5,5 v 4 4 21 4 c 0,2.761424 2.238576,5 5,5 h 4 v 2 h 10 v -2 h 8 v 6 6 4 c 0,2.209139 -1.790861,4 -4,4 h -4 -9 -1 v 2 h -8 v -2 h -1 -4 c -2.209139,0 -4,-1.790861 -4,-4 v -4 z" />
      <text
         id="text112"
         style="font-size:10px;font-family:sans-serif;text-anchor:start;fill:#282828">
        <tspan
           id="tspan110"
           y="15"
           x="5">～回くり返す</tspan>
      </text>
      <text
         id="text116"
         style="font-size:6.66666651px;font-family:sans-serif;text-anchor:end;fill:#282828">
        <tspan
           id="tspan114"
           y="12"
           x="45" />
      </text>
    </g>
  </g>
  <g
     id="g130"
     transform="translate(118,32)">
    <g
       id="g128"
       transform="scale(1.5)">
      <path
         id="path122"
         style="fill:#ff6ea1;fill-opacity:1;stroke:#ff2c76;stroke-width:1;stroke-linecap:round;stroke-opacity:1"
         d="m 8.5,0.5 h 60 v 20 h -60 v -8 -1 h -6 v 3 h -2 v -8 h 2 v 3 h 6 v -1 z" />
      <text
         id="text126"
         style="font-size:10px;font-family:sans-serif;text-anchor:start;fill:#282828">
        <tspan
           id="tspan124"
           y="14"
           x="13">4</tspan>
      </text>
    </g>
  </g>
</svg>
