<?xml version="1.0" encoding="UTF-8" standalone="no"?>
<svg
   xmlns:dc="http://purl.org/dc/elements/1.1/"
   xmlns:cc="http://creativecommons.org/ns#"
   xmlns:rdf="http://www.w3.org/1999/02/22-rdf-syntax-ns#"
   xmlns:svg="http://www.w3.org/2000/svg"
   xmlns="http://www.w3.org/2000/svg"
   id="svg3074"
   version="1.1"
   viewBox="0 0 153.59064 95.605354"
   height="95.605354mm"
   width="153.59064mm">
  <defs
     id="defs3068" />
  <metadata
     id="metadata3071">
    <rdf:RDF>
      <cc:Work
         rdf:about="">
        <dc:format>image/svg+xml</dc:format>
        <dc:type
           rdf:resource="http://purl.org/dc/dcmitype/StillImage" />
        <dc:title></dc:title>
      </cc:Work>
    </rdf:RDF>
  </metadata>
  <g
     transform="matrix(0.26458333,0,0,0.26458333,-329.67083,-62.59472)"
     id="g986">
    <g
       transform="translate(1246,237)"
       id="g928">
      <g
         transform="scale(1.5)"
         id="g926">
        <path
           d="m 0.5,14.5 v -4 a 4,4 90 0 1 4,-4 h 4 l 5,-6 5,6 h 9 60 4 a 4,4 90 0 1 4,4 v 4 4 4 a 4,4 90 0 1 -4,4 h -4 -60 -1 v 2 h -8 v -2 h -1 -4 a 5,5 90 0 0 -5,5 v 4 4 42 4 a 5,5 90 0 0 5,5 h 4 v 2 h 10 v -2 h 8 v 6 6 4 a 4,4 90 0 1 -4,4 h -4 -9 l -5,6 -5,-6 h -4 a 4,4 90 0 1 -4,-4 v -4 z"
           style="fill:#ffbf00;fill-opacity:1;stroke:#daaf30;stroke-width:1;stroke-linecap:round;stroke-opacity:1"
           id="path920" />
        <text
           style="font-size:10px;font-family:sans-serif;text-anchor:start;fill:#282828"
           id="text924">
          <tspan
             x="20"
             y="22"
             id="tspan922">スタート</tspan>
        </text>
      </g>
    </g>
    <g
       transform="matrix(0.5,0,0,0.5,1246,249)"
       id="g946">
      <g
         style="isolation:isolate"
         id="g944">
        <g
           id="g942"
           data-name="レイヤー 2">
          <g
             id="g940">
            <rect
               y="0"
               x="0"
               width="42"
               height="42"
               rx="5"
               ry="5"
               style="opacity:0.4;mix-blend-mode:multiply;fill:#292929"
               id="rect930" />
            <path
               d="m 30.56,29.8 -4.17,-4.16 h 2.26 a 1.035,1.035 0 1 0 0,-2.07 h -4.71 a 1.08,1.08 0 0 0 -1.11,1 v 0 c 0,0 0,0 0,0.06 v 4.64 0 a 1.04,1.04 0 1 0 2.08,0 v -2.19 l 4.19,4.19 a 1,1 0 0 0 1.46,0 1,1 0 0 0 0,-1.47 z"
               style="fill:#ffffff"
               id="path932" />
            <path
               d="m 19.17,24.6 a 1.08,1.08 0 0 0 -1.11,-1 h -4.71 a 1.035,1.035 0 1 0 0,2.07 h 2.25 l -4.16,4.13 a 1.039447,1.039447 0 0 0 1.47,1.47 l 4.18,-4.19 v 2.26 a 1.04,1.04 0 1 0 2.08,0 V 24.7 c 0,0 0,0 0,-0.06 a 0.08,0.08 0 0 1 0,-0.04 z"
               style="fill:#ffffff"
               id="path934" />
            <path
               d="m 23.94,20.5 h 4.7 a 1.04,1.04 0 1 0 0,-2.08 h -2.25 l 4.17,-4.16 a 1,1 0 0 0 0,-1.47 1,1 0 0 0 -1.46,0 L 24.91,17 v -2.28 a 1.04,1.04 0 1 0 -2.08,0 v 4.64 a 0.43,0.43 0 0 0 0,0.05 v 0.05 a 1.09,1.09 0 0 0 1.11,1.04 z"
               style="fill:#ffffff"
               id="path936" />
            <path
               d="m 18.13,13.62 a 1.08,1.08 0 0 0 -1,1.09 V 17 l -4.18,-4.19 a 1,1 0 0 0 -1.47,0 1,1 0 0 0 0,1.46 l 4.16,4.17 h -2.29 a 1.04,1.04 0 1 0 0,2.08 h 4.71 a 1.09,1.09 0 0 0 1.11,-1 c 0,0 0,0 0,-0.06 v -4.75 a 1.07,1.07 0 0 0 -1.04,-1.09 z"
               style="fill:#ffffff"
               id="path938" />
          </g>
        </g>
      </g>
    </g>
    <g
       transform="matrix(0.4,0,0,0.4,1356,249)"
       id="g984">
      <g
         transform="translate(-3.1884835,0.12548216)"
         style="fill:#ffc000;stroke:#fb5f00;stroke-width:1.99999976;stroke-miterlimit:4;stroke-dasharray:none"
         id="g982">
        <path
           style="fill:#ffc000;stroke:none;stroke-width:1px;stroke-linecap:butt;stroke-linejoin:miter;stroke-opacity:1"
           id="path948"
           d="m 31.188483,5.8745178 c 0,0 -1.254644,-1 -2,-1 -1.490712,0 -2.945907,0.9459074 -4,2 -1.581139,1.5811389 -1.692548,4.1860072 -3,6.0000002 -0.826905,1.14727 -1.85273,2.173095 -3,3 -1.813992,1.307452 -4.41886,1.418861 -5.999999,3 -1.054093,1.054093 -2,2.509288 -2,4 0,1.490712 1.176934,3.540162 2,4 2.595129,1.449868 0.836609,0.648512 2,2 0,0 -1.040434,3.300808 -1,5 0.06539,2.747959 1.999999,7 1.999999,8 0,1 3.621931,4.46873 6,6 2.394526,1.541867 5.323775,2.059095 8.164792,2.258437 3.065644,0.215103 5.976447,-0.356365 8.670416,-1.835208 1.652944,-0.907377 3.020234,-1.924716 4.164792,-3.423229 1.631246,-2.13571 3.310226,-4.40261 4,-7 0.42778,-1.610833 0.203639,-3.345821 0,-5 -0.167925,-1.364071 -1.27205,-2.652826 -1,-4 0.329909,-1.633688 2.319717,-2.47849 3,-4 0.693755,-1.551642 1.687609,-3.445625 1,-5 -0.786311,-1.777496 -3.357594,-1.960634 -5,-3 -1.015577,-0.642689 -2.106041,-1.196706 -3,-2 -1.93647,-1.740075 -3.442391,-3.913943 -5,-6.0000002 -0.71906,-0.9630146 -1.044881,-2.2704844 -2,-3 -0.837694,-0.6398275 -1.974105,-1.2421808 -3,-1 -0.458794,0.1083066 -1,1 -1,1" />
        <path
           d="m 46.209786,28.156906 c 0,0 1.463947,5.738921 1.001084,8.583832 -0.503422,3.094194 -1.733796,6.320068 -4.004337,8.583833 -2.061998,2.055845 -3.20724,2.828474 -6.006505,3.815036 -1.290398,0.454783 -4.973515,0.953759 -6.514048,0.953759 -1.540535,0 -5.223651,-0.498977 -6.514049,-0.95376 -2.799265,-0.986562 -3.944507,-1.759191 -6.006506,-3.815036 -2.270541,-2.263765 -3.500915,-5.489639 -4.004337,-8.583833 -0.462863,-2.844911 1.001084,-8.583832 1.001084,-8.583832 M 28.176267,22.43435 c 0,0 -4.122174,4.705629 -7.007589,5.722555 -1.877805,0.661806 -4.201946,0.826315 -6.006506,0 -1.925806,-0.881834 -3.58357,-2.772978 -4.004337,-4.768796 -0.478397,-2.26917 0.558956,-4.123549 2.470477,-5.529022 2.067374,-1.520067 4.598363,-1.662883 6.539282,-3.054811 2.515152,-1.803739 2.912345,-5.389772 5.005421,-7.6300732 1.420632,-1.520559 5.512965,-3.8150366 5.512965,-3.8150366 0,0 4.092331,2.2944775 5.512964,3.8150365 2.093073,2.2403013 2.490269,5.8263353 5.005421,7.6300743 1.940919,1.391928 4.538808,1.465531 6.606183,2.927334 1.937249,1.369793 2.881973,3.387329 2.403575,5.656499 -0.420767,1.995818 -2.078532,3.886962 -4.004337,4.768796 -1.80456,0.826315 -4.1287,0.661806 -6.006505,0 -2.885416,-1.016926 -7.00759,-5.722555 -7.00759,-5.722555"
           id="path950"
           style="fill:none;stroke:#fb5f00;stroke-width:1.95427048;stroke-linecap:round;stroke-linejoin:miter;stroke-miterlimit:4;stroke-dasharray:none;stroke-opacity:1" />
        <g
           id="g964"
           transform="matrix(1.0010843,0,0,0.95375917,57.401951,5.3863652)"
           style="fill:none;stroke:#fb5f00;stroke-opacity:1">
          <g
             id="g956"
             transform="translate(0,-1)"
             style="fill:none;stroke:#fb5f00;stroke-opacity:1">
            <path
               d="M -30.228157,8.514322 C -33.422908,9.40349 -38.624018,5.874516 -40.102591,4.585664"
               id="path952"
               style="fill:none;fill-rule:evenodd;stroke:#fb5f00;stroke-width:1.93205309;stroke-linecap:butt;stroke-linejoin:miter;stroke-miterlimit:4;stroke-dasharray:none;stroke-opacity:1" />
            <path
               d="M -29.760199,5.904536 C -33.101366,5.473905 -35.931474,3.7361852 -37.633646,2.3416285"
               id="path954"
               style="fill:none;fill-rule:evenodd;stroke:#fb5f00;stroke-width:1.93205309;stroke-linecap:butt;stroke-linejoin:miter;stroke-miterlimit:4;stroke-dasharray:none;stroke-opacity:1" />
          </g>
          <g
             id="g962"
             style="fill:none;stroke:#fb5f00;stroke-opacity:1">
            <path
               d="m -23.145912,7.514322 c 3.194751,0.889168 8.395861,-2.639806 9.874434,-3.928658"
               id="path958"
               style="fill:none;fill-rule:evenodd;stroke:#fb5f00;stroke-width:1.93205309;stroke-linecap:butt;stroke-linejoin:miter;stroke-miterlimit:4;stroke-dasharray:none;stroke-opacity:1" />
            <path
               d="m -23.61387,4.904536 c 3.341167,-0.430631 6.171275,-2.168351 7.873447,-3.5629075"
               id="path960"
               style="fill:none;fill-rule:evenodd;stroke:#fb5f00;stroke-width:1.93205309;stroke-linecap:butt;stroke-linejoin:miter;stroke-miterlimit:4;stroke-dasharray:none;stroke-opacity:1" />
          </g>
        </g>
        <g
           id="g970"
           transform="matrix(1.0010843,0,0,0.95375917,57.930597,3.4788469)"
           style="fill:#ffffff;fill-opacity:0.94117647;stroke:#fb5f00;stroke-opacity:1">
          <ellipse
             cx="-30.836912"
             cy="14.612609"
             id="ellipse966"
             rx="1.8846371"
             ry="2.0666313"
             style="fill:#ffffff;fill-opacity:0.94117647;fill-rule:evenodd;stroke:#fb5f00;stroke-width:1.99999976;stroke-linecap:butt;stroke-linejoin:miter;stroke-miterlimit:4;stroke-dasharray:none;stroke-opacity:1" />
          <ellipse
             cx="-23.593306"
             cy="14.699166"
             id="ellipse968"
             rx="1.8846371"
             ry="2.0666313"
             style="fill:#ffffff;fill-opacity:0.94117647;fill-rule:evenodd;stroke:#fb5f00;stroke-width:1.99999976;stroke-linecap:butt;stroke-linejoin:miter;stroke-miterlimit:4;stroke-dasharray:none;stroke-opacity:1" />
        </g>
        <g
           id="g976"
           transform="matrix(1.0010843,0,0,0.95375917,58.02711,3.4788469)"
           style="fill:none;stroke:#fb5f00;stroke-opacity:1">
          <path
             d="m -37.186516,14.624518 c -14.340024,2.75008 -4.810404,15.671871 4.375,5.25"
             id="path972"
             style="fill:none;fill-rule:evenodd;stroke:#fb5f00;stroke-width:1px;stroke-linecap:butt;stroke-linejoin:miter;stroke-miterlimit:4;stroke-dasharray:none;stroke-opacity:1" />
          <path
             d="m -17.436517,14.624518 c 14.3400245,2.75008 4.810404,15.671872 -4.375,5.25"
             id="path974"
             style="fill:none;fill-rule:evenodd;stroke:#fb5f00;stroke-width:1px;stroke-linecap:butt;stroke-linejoin:miter;stroke-miterlimit:4;stroke-dasharray:none;stroke-opacity:1" />
        </g>
        <path
           d="m 33.12784,3.3591671 c -1.384692,1.3140551 -1.985761,2.3793068 -2.459835,2.3793068 -0.662709,0 -1.27278,-1.0652517 -2.459836,-2.3793068 -0.97292,-1.0770097 1.101306,-2.37930771 2.459836,-2.37930771 1.358531,0 3.532987,1.36090081 2.459835,2.37930771 z"
           id="path978"
           style="fill:#fb5f00;fill-opacity:1;fill-rule:evenodd;stroke:#fb5f00;stroke-width:2.16383076;stroke-linecap:butt;stroke-linejoin:miter;stroke-miterlimit:4;stroke-dasharray:none;stroke-opacity:1" />
        <path
           style="fill:none;stroke:#fb5f00;stroke-width:1.95427048;stroke-linecap:round;stroke-linejoin:miter;stroke-miterlimit:4;stroke-dasharray:none;stroke-opacity:1"
           id="path980"
           d="m 31.302308,50.085622 c 0,0 0.723125,3.123831 5.500191,3.669996 4.777067,0.546166 11.784656,-3.778776 14.78791,-9.501331 3.003254,-5.722555 2.402683,-11.490783 3.003253,-18.121425" />
      </g>
    </g>
  </g>
  <g
     transform="matrix(0.26458333,0,0,0.26458333,3.70417,10.959447)"
     id="g1136">
    <g
       transform="scale(1.5)"
       id="g1134">
      <path
         d="m 0.5,8.5 v -4 c 0,-2.209139 1.790861,-4 4,-4 h 4 v 2 h 10 v -2 h 9 67.2347 4 c 2.20914,0 4,1.790861 4,4 v 4 h -4 v -3 h -4 v 10 h 4 v -3 h 4 v 4 c 0,2.209139 -1.79086,4 -4,4 h -4 -67.2347 -1 v 2 h -8 v -2 h -1 -4 c -2.761424,0 -5,2.238576 -5,5 v 4 4 4 c 0,2.761424 2.238576,5 5,5 h 4 v 2 h 10 v -2 h 8 v 6 6 4 c 0,2.209139 -1.790861,4 -4,4 h -4 -9 -1 v 2 h -8 v -2 h -1 -4 c -2.209139,0 -4,-1.790861 -4,-4 v -4 z"
         style="fill:#3edcdd;fill-opacity:1;stroke:#1dbcbd;stroke-width:1;stroke-linecap:round;stroke-opacity:1"
         id="path1124" />
      <text
         style="font-size:10px;font-family:sans-serif;text-anchor:start;fill:#282828"
         id="text1128">
        <tspan
           x="5"
           y="15"
           id="tspan1126">音色をせってい</tspan>
      </text>
      <text
         style="font-size:6.66666651px;font-family:sans-serif;text-anchor:end;fill:#282828"
         id="text1132">
        <tspan
           x="59"
           y="12"
           id="tspan1130" />
      </text>
    </g>
  </g>
  <path
     d="m 44.913024,11.157885 h 30.427083 v 7.9375 H 44.913024 v -3.175 -0.396876 h -2.38125 v 1.190625 h -0.79375 v -3.174999 h 0.79375 v 1.190625 h 2.38125 v -0.396875 z"
     style="fill:#3edcdd;fill-opacity:1;stroke:#1dbcbd;stroke-width:0.39687499;stroke-linecap:round;stroke-opacity:1"
     id="path1138" />
  <text
     style="font-size:3.96875px;font-family:sans-serif;text-anchor:start;fill:#282828;stroke-width:0.39687499"
     id="text1142"
     x="44.185432"
     y="10.959447">
    <tspan
       x="49.34481"
       y="16.515697"
       id="tspan1140"
       style="stroke-width:0.39687499">コントラバス</tspan>
  </text>
  <g
     transform="matrix(0.26458333,0,0,0.26458333,-330.99374,-61.80097)"
     id="g918">
    <g
       transform="translate(1546,234)"
       id="g860">
      <g
         transform="scale(1.5)"
         id="g858">
        <path
           d="m 0.5,14.5 v -4 a 4,4 90 0 1 4,-4 h 4 l 5,-6 5,6 h 9 60 4 a 4,4 90 0 1 4,4 v 4 4 4 a 4,4 90 0 1 -4,4 h -4 -60 -1 v 2 h -8 v -2 h -1 -4 a 5,5 90 0 0 -5,5 v 4 4 42 4 a 5,5 90 0 0 5,5 h 4 v 2 h 10 v -2 h 8 v 6 6 4 a 4,4 90 0 1 -4,4 h -4 -9 l -5,6 -5,-6 h -4 a 4,4 90 0 1 -4,-4 v -4 z"
           style="fill:#ffbf00;fill-opacity:1;stroke:#daaf30;stroke-width:1;stroke-linecap:round;stroke-opacity:1"
           id="path852" />
        <text
           style="font-size:10px;font-family:sans-serif;text-anchor:start;fill:#282828"
           id="text856">
          <tspan
             x="20"
             y="22"
             id="tspan854">スタート</tspan>
        </text>
      </g>
    </g>
    <g
       transform="matrix(0.5,0,0,0.5,1546,246)"
       id="g878">
      <g
         style="isolation:isolate"
         id="g876">
        <g
           id="g874"
           data-name="レイヤー 2">
          <g
             id="g872">
            <rect
               y="0"
               x="0"
               width="42"
               height="42"
               rx="5"
               ry="5"
               style="opacity:0.4;mix-blend-mode:multiply;fill:#292929"
               id="rect862" />
            <path
               d="m 30.56,29.8 -4.17,-4.16 h 2.26 a 1.035,1.035 0 1 0 0,-2.07 h -4.71 a 1.08,1.08 0 0 0 -1.11,1 v 0 c 0,0 0,0 0,0.06 v 4.64 0 a 1.04,1.04 0 1 0 2.08,0 v -2.19 l 4.19,4.19 a 1,1 0 0 0 1.46,0 1,1 0 0 0 0,-1.47 z"
               style="fill:#ffffff"
               id="path864" />
            <path
               d="m 19.17,24.6 a 1.08,1.08 0 0 0 -1.11,-1 h -4.71 a 1.035,1.035 0 1 0 0,2.07 h 2.25 l -4.16,4.13 a 1.039447,1.039447 0 0 0 1.47,1.47 l 4.18,-4.19 v 2.26 a 1.04,1.04 0 1 0 2.08,0 V 24.7 c 0,0 0,0 0,-0.06 a 0.08,0.08 0 0 1 0,-0.04 z"
               style="fill:#ffffff"
               id="path866" />
            <path
               d="m 23.94,20.5 h 4.7 a 1.04,1.04 0 1 0 0,-2.08 h -2.25 l 4.17,-4.16 a 1,1 0 0 0 0,-1.47 1,1 0 0 0 -1.46,0 L 24.91,17 v -2.28 a 1.04,1.04 0 1 0 -2.08,0 v 4.64 a 0.43,0.43 0 0 0 0,0.05 v 0.05 a 1.09,1.09 0 0 0 1.11,1.04 z"
               style="fill:#ffffff"
               id="path868" />
            <path
               d="m 18.13,13.62 a 1.08,1.08 0 0 0 -1,1.09 V 17 l -4.18,-4.19 a 1,1 0 0 0 -1.47,0 1,1 0 0 0 0,1.46 l 4.16,4.17 h -2.29 a 1.04,1.04 0 1 0 0,2.08 h 4.71 a 1.09,1.09 0 0 0 1.11,-1 c 0,0 0,0 0,-0.06 v -4.75 a 1.07,1.07 0 0 0 -1.04,-1.09 z"
               style="fill:#ffffff"
               id="path870" />
          </g>
        </g>
      </g>
    </g>
    <g
       transform="matrix(0.4,0,0,0.4,1656,246)"
       id="g916">
      <g
         transform="translate(-3.1884835,0.12548216)"
         style="fill:#ffa300;stroke:#a34600;stroke-width:1.99999976;stroke-miterlimit:4;stroke-dasharray:none"
         id="g914">
        <path
           style="fill:#ffa300;stroke:none;stroke-width:1px;stroke-linecap:butt;stroke-linejoin:miter;stroke-opacity:1"
           id="path880"
           d="m 31.188483,5.8745178 c 0,0 -1.254644,-1 -2,-1 -1.490712,0 -2.945907,0.9459074 -4,2 -1.581139,1.5811389 -1.692548,4.1860072 -3,6.0000002 -0.826905,1.14727 -1.85273,2.173095 -3,3 -1.813992,1.307452 -4.41886,1.418861 -5.999999,3 -1.054093,1.054093 -2,2.509288 -2,4 0,1.490712 1.176934,3.540162 2,4 2.595129,1.449868 0.836609,0.648512 2,2 0,0 -1.040434,3.300808 -1,5 0.06539,2.747959 1.999999,7 1.999999,8 0,1 3.621931,4.46873 6,6 2.394526,1.541867 5.323775,2.059095 8.164792,2.258437 3.065644,0.215103 5.976447,-0.356365 8.670416,-1.835208 1.652944,-0.907377 3.020234,-1.924716 4.164792,-3.423229 1.631246,-2.13571 3.310226,-4.40261 4,-7 0.42778,-1.610833 0.203639,-3.345821 0,-5 -0.167925,-1.364071 -1.27205,-2.652826 -1,-4 0.329909,-1.633688 2.319717,-2.47849 3,-4 0.693755,-1.551642 1.687609,-3.445625 1,-5 -0.786311,-1.777496 -3.357594,-1.960634 -5,-3 -1.015577,-0.642689 -2.106041,-1.196706 -3,-2 -1.93647,-1.740075 -3.442391,-3.913943 -5,-6.0000002 -0.71906,-0.9630146 -1.044881,-2.2704844 -2,-3 -0.837694,-0.6398275 -1.974105,-1.2421808 -3,-1 -0.458794,0.1083066 -1,1 -1,1" />
        <path
           d="m 46.209786,28.156906 c 0,0 1.463947,5.738921 1.001084,8.583832 -0.503422,3.094194 -1.733796,6.320068 -4.004337,8.583833 -2.061998,2.055845 -3.20724,2.828474 -6.006505,3.815036 -1.290398,0.454783 -4.973515,0.953759 -6.514048,0.953759 -1.540535,0 -5.223651,-0.498977 -6.514049,-0.95376 -2.799265,-0.986562 -3.944507,-1.759191 -6.006506,-3.815036 -2.270541,-2.263765 -3.500915,-5.489639 -4.004337,-8.583833 -0.462863,-2.844911 1.001084,-8.583832 1.001084,-8.583832 M 28.176267,22.43435 c 0,0 -4.122174,4.705629 -7.007589,5.722555 -1.877805,0.661806 -4.201946,0.826315 -6.006506,0 -1.925806,-0.881834 -3.58357,-2.772978 -4.004337,-4.768796 -0.478397,-2.26917 0.558956,-4.123549 2.470477,-5.529022 2.067374,-1.520067 4.598363,-1.662883 6.539282,-3.054811 2.515152,-1.803739 2.912345,-5.389772 5.005421,-7.6300732 1.420632,-1.520559 5.512965,-3.8150366 5.512965,-3.8150366 0,0 4.092331,2.2944775 5.512964,3.8150365 2.093073,2.2403013 2.490269,5.8263353 5.005421,7.6300743 1.940919,1.391928 4.538808,1.465531 6.606183,2.927334 1.937249,1.369793 2.881973,3.387329 2.403575,5.656499 -0.420767,1.995818 -2.078532,3.886962 -4.004337,4.768796 -1.80456,0.826315 -4.1287,0.661806 -6.006505,0 -2.885416,-1.016926 -7.00759,-5.722555 -7.00759,-5.722555"
           id="path882"
           style="fill:none;stroke:#a34600;stroke-width:1.95427048;stroke-linecap:round;stroke-linejoin:miter;stroke-miterlimit:4;stroke-dasharray:none;stroke-opacity:1" />
        <g
           id="g896"
           transform="matrix(1.0010843,0,0,0.95375917,57.401951,5.3863652)"
           style="fill:none;stroke:#a34600;stroke-opacity:1">
          <g
             id="g888"
             transform="translate(0,-1)"
             style="fill:none;stroke:#a34600;stroke-opacity:1">
            <path
               d="M -30.228157,8.514322 C -33.422908,9.40349 -38.624018,5.874516 -40.102591,4.585664"
               id="path884"
               style="fill:none;fill-rule:evenodd;stroke:#a34600;stroke-width:1.93205309;stroke-linecap:butt;stroke-linejoin:miter;stroke-miterlimit:4;stroke-dasharray:none;stroke-opacity:1" />
            <path
               d="M -29.760199,5.904536 C -33.101366,5.473905 -35.931474,3.7361852 -37.633646,2.3416285"
               id="path886"
               style="fill:none;fill-rule:evenodd;stroke:#a34600;stroke-width:1.93205309;stroke-linecap:butt;stroke-linejoin:miter;stroke-miterlimit:4;stroke-dasharray:none;stroke-opacity:1" />
          </g>
          <g
             id="g894"
             style="fill:none;stroke:#a34600;stroke-opacity:1">
            <path
               d="m -23.145912,7.514322 c 3.194751,0.889168 8.395861,-2.639806 9.874434,-3.928658"
               id="path890"
               style="fill:none;fill-rule:evenodd;stroke:#a34600;stroke-width:1.93205309;stroke-linecap:butt;stroke-linejoin:miter;stroke-miterlimit:4;stroke-dasharray:none;stroke-opacity:1" />
            <path
               d="m -23.61387,4.904536 c 3.341167,-0.430631 6.171275,-2.168351 7.873447,-3.5629075"
               id="path892"
               style="fill:none;fill-rule:evenodd;stroke:#a34600;stroke-width:1.93205309;stroke-linecap:butt;stroke-linejoin:miter;stroke-miterlimit:4;stroke-dasharray:none;stroke-opacity:1" />
          </g>
        </g>
        <g
           id="g902"
           transform="matrix(1.0010843,0,0,0.95375917,57.930597,3.4788469)"
           style="fill:#ffffff;fill-opacity:0.94117647;stroke:#a34600;stroke-opacity:1">
          <ellipse
             cx="-30.836912"
             cy="14.612609"
             id="ellipse898"
             rx="1.8846371"
             ry="2.0666313"
             style="fill:#ffffff;fill-opacity:0.94117647;fill-rule:evenodd;stroke:#a34600;stroke-width:1.99999976;stroke-linecap:butt;stroke-linejoin:miter;stroke-miterlimit:4;stroke-dasharray:none;stroke-opacity:1" />
          <ellipse
             cx="-23.593306"
             cy="14.699166"
             id="ellipse900"
             rx="1.8846371"
             ry="2.0666313"
             style="fill:#ffffff;fill-opacity:0.94117647;fill-rule:evenodd;stroke:#a34600;stroke-width:1.99999976;stroke-linecap:butt;stroke-linejoin:miter;stroke-miterlimit:4;stroke-dasharray:none;stroke-opacity:1" />
        </g>
        <g
           id="g908"
           transform="matrix(1.0010843,0,0,0.95375917,58.02711,3.4788469)"
           style="fill:none;stroke:#a34600;stroke-opacity:1">
          <path
             d="m -37.186516,14.624518 c -14.340024,2.75008 -4.810404,15.671871 4.375,5.25"
             id="path904"
             style="fill:none;fill-rule:evenodd;stroke:#a34600;stroke-width:1px;stroke-linecap:butt;stroke-linejoin:miter;stroke-miterlimit:4;stroke-dasharray:none;stroke-opacity:1" />
          <path
             d="m -17.436517,14.624518 c 14.3400245,2.75008 4.810404,15.671872 -4.375,5.25"
             id="path906"
             style="fill:none;fill-rule:evenodd;stroke:#a34600;stroke-width:1px;stroke-linecap:butt;stroke-linejoin:miter;stroke-miterlimit:4;stroke-dasharray:none;stroke-opacity:1" />
        </g>
        <path
           d="m 33.12784,3.3591671 c -1.384692,1.3140551 -1.985761,2.3793068 -2.459835,2.3793068 -0.662709,0 -1.27278,-1.0652517 -2.459836,-2.3793068 -0.97292,-1.0770097 1.101306,-2.37930771 2.459836,-2.37930771 1.358531,0 3.532987,1.36090081 2.459835,2.37930771 z"
           id="path910"
           style="fill:#a34600;fill-opacity:1;fill-rule:evenodd;stroke:#a34600;stroke-width:2.16383076;stroke-linecap:butt;stroke-linejoin:miter;stroke-miterlimit:4;stroke-dasharray:none;stroke-opacity:1" />
        <path
           style="fill:none;stroke:#a34600;stroke-width:1.95427048;stroke-linecap:round;stroke-linejoin:miter;stroke-miterlimit:4;stroke-dasharray:none;stroke-opacity:1"
           id="path912"
           d="m 31.302308,50.085622 c 0,0 0.723125,3.123831 5.500191,3.669996 4.777067,0.546166 11.784656,-3.778776 14.78791,-9.501331 3.003254,-5.722555 2.402683,-11.490783 3.003253,-18.121425" />
      </g>
    </g>
  </g>
  <g
     transform="matrix(0.26458333,0,0,0.26458333,81.75626,10.95945)"
     id="g1160">
    <g
       transform="scale(1.5)"
       id="g1158">
      <path
         d="m 0.5,8.5 v -4 c 0,-2.209139 1.790861,-4 4,-4 h 4 v 2 h 10 v -2 h 9 67.2347 4 c 2.20914,0 4.69859,1.9042267 4,4 v 4 h -4 v -3 h -4 v 10 h 4 v -3 h 4 v 4 c 0,2.209139 -1.79086,4 -4,4 h -4 -67.2347 -1 v 2 h -8 v -2 h -1 -4 c -2.761424,0 -5,2.238576 -5,5 v 4 4 4 c 0,2.761424 2.238576,5 5,5 h 4 v 2 h 10 v -2 h 8 v 6 6 4 c 0,2.209139 -1.790861,4 -4,4 h -4 -9 -1 v 2 h -8 v -2 h -1 -4 c -2.209139,0 -4,-1.790861 -4,-4 v -4 z"
         style="fill:#3edcdd;fill-opacity:1;stroke:#1dbcbd;stroke-width:1;stroke-linecap:round;stroke-opacity:1"
         id="path1148" />
      <text
         style="font-size:10px;font-family:sans-serif;text-anchor:start;fill:#282828"
         id="text1152">
        <tspan
           x="5"
           y="15"
           id="tspan1150">音色をせってい</tspan>
      </text>
      <text
         style="font-size:6.66666651px;font-family:sans-serif;text-anchor:end;fill:#282828"
         id="text1156">
        <tspan
           x="59"
           y="12"
           id="tspan1154" />
      </text>
    </g>
  </g>
  <path
     d="m 122.96512,11.157888 h 30.42708 v 7.937499 h -30.42708 v -3.174999 -0.396876 h -2.38125 v 1.190625 h -0.79375 v -3.174999 h 0.79375 v 1.190625 h 2.38125 v -0.396875 z"
     style="fill:#3edcdd;fill-opacity:1;stroke:#1dbcbd;stroke-width:0.39687499;stroke-linecap:round;stroke-opacity:1"
     id="path1162" />
  <text
     style="font-size:3.96875px;font-family:sans-serif;text-anchor:start;fill:#282828;stroke-width:0.39687499"
     id="text1166"
     x="130.70415"
     y="10.95945">
    <tspan
       x="135.86346"
       y="16.515699"
       id="tspan1164"
       style="stroke-width:0.39687499">チェロ</tspan>
  </text>
  <g
     transform="matrix(0.26458333,0,0,0.26458333,-330.99375,-63.65306)"
     id="g1054">
    <g
       transform="translate(1251,426)"
       id="g996">
      <g
         transform="scale(1.5)"
         id="g994">
        <path
           d="m 0.5,14.5 v -4 a 4,4 90 0 1 4,-4 h 4 l 5,-6 5,6 h 9 60 4 a 4,4 90 0 1 4,4 v 4 4 4 a 4,4 90 0 1 -4,4 h -4 -60 -1 v 2 h -8 v -2 h -1 -4 a 5,5 90 0 0 -5,5 v 4 4 42 4 a 5,5 90 0 0 5,5 h 4 v 2 h 10 v -2 h 8 v 6 6 4 a 4,4 90 0 1 -4,4 h -4 -9 l -5,6 -5,-6 h -4 a 4,4 90 0 1 -4,-4 v -4 z"
           style="fill:#ffbf00;fill-opacity:1;stroke:#daaf30;stroke-width:1;stroke-linecap:round;stroke-opacity:1"
           id="path988" />
        <text
           style="font-size:10px;font-family:sans-serif;text-anchor:start;fill:#282828"
           id="text992">
          <tspan
             x="20"
             y="22"
             id="tspan990">スタート</tspan>
        </text>
      </g>
    </g>
    <g
       transform="matrix(0.5,0,0,0.5,1251,438)"
       id="g1014">
      <g
         style="isolation:isolate"
         id="g1012">
        <g
           id="g1010"
           data-name="レイヤー 2">
          <g
             id="g1008">
            <rect
               y="0"
               x="0"
               width="42"
               height="42"
               rx="5"
               ry="5"
               style="opacity:0.4;mix-blend-mode:multiply;fill:#292929"
               id="rect998" />
            <path
               d="m 30.56,29.8 -4.17,-4.16 h 2.26 a 1.035,1.035 0 1 0 0,-2.07 h -4.71 a 1.08,1.08 0 0 0 -1.11,1 v 0 c 0,0 0,0 0,0.06 v 4.64 0 a 1.04,1.04 0 1 0 2.08,0 v -2.19 l 4.19,4.19 a 1,1 0 0 0 1.46,0 1,1 0 0 0 0,-1.47 z"
               style="fill:#ffffff"
               id="path1000" />
            <path
               d="m 19.17,24.6 a 1.08,1.08 0 0 0 -1.11,-1 h -4.71 a 1.035,1.035 0 1 0 0,2.07 h 2.25 l -4.16,4.13 a 1.039447,1.039447 0 0 0 1.47,1.47 l 4.18,-4.19 v 2.26 a 1.04,1.04 0 1 0 2.08,0 V 24.7 c 0,0 0,0 0,-0.06 a 0.08,0.08 0 0 1 0,-0.04 z"
               style="fill:#ffffff"
               id="path1002" />
            <path
               d="m 23.94,20.5 h 4.7 a 1.04,1.04 0 1 0 0,-2.08 h -2.25 l 4.17,-4.16 a 1,1 0 0 0 0,-1.47 1,1 0 0 0 -1.46,0 L 24.91,17 v -2.28 a 1.04,1.04 0 1 0 -2.08,0 v 4.64 a 0.43,0.43 0 0 0 0,0.05 v 0.05 a 1.09,1.09 0 0 0 1.11,1.04 z"
               style="fill:#ffffff"
               id="path1004" />
            <path
               d="m 18.13,13.62 a 1.08,1.08 0 0 0 -1,1.09 V 17 l -4.18,-4.19 a 1,1 0 0 0 -1.47,0 1,1 0 0 0 0,1.46 l 4.16,4.17 h -2.29 a 1.04,1.04 0 1 0 0,2.08 h 4.71 a 1.09,1.09 0 0 0 1.11,-1 c 0,0 0,0 0,-0.06 v -4.75 a 1.07,1.07 0 0 0 -1.04,-1.09 z"
               style="fill:#ffffff"
               id="path1006" />
          </g>
        </g>
      </g>
    </g>
    <g
       transform="matrix(0.4,0,0,0.4,1361,438)"
       id="g1052">
      <g
         transform="translate(-3.1884835,0.12548216)"
         style="fill:#037700;stroke:#6cc600;stroke-width:1.99999976;stroke-miterlimit:4;stroke-dasharray:none"
         id="g1050">
        <path
           style="fill:#037700;stroke:none;stroke-width:1px;stroke-linecap:butt;stroke-linejoin:miter;stroke-opacity:1"
           id="path1016"
           d="m 31.188483,5.8745178 c 0,0 -1.254644,-1 -2,-1 -1.490712,0 -2.945907,0.9459074 -4,2 -1.581139,1.5811389 -1.692548,4.1860072 -3,6.0000002 -0.826905,1.14727 -1.85273,2.173095 -3,3 -1.813992,1.307452 -4.41886,1.418861 -5.999999,3 -1.054093,1.054093 -2,2.509288 -2,4 0,1.490712 1.176934,3.540162 2,4 2.595129,1.449868 0.836609,0.648512 2,2 0,0 -1.040434,3.300808 -1,5 0.06539,2.747959 1.999999,7 1.999999,8 0,1 3.621931,4.46873 6,6 2.394526,1.541867 5.323775,2.059095 8.164792,2.258437 3.065644,0.215103 5.976447,-0.356365 8.670416,-1.835208 1.652944,-0.907377 3.020234,-1.924716 4.164792,-3.423229 1.631246,-2.13571 3.310226,-4.40261 4,-7 0.42778,-1.610833 0.203639,-3.345821 0,-5 -0.167925,-1.364071 -1.27205,-2.652826 -1,-4 0.329909,-1.633688 2.319717,-2.47849 3,-4 0.693755,-1.551642 1.687609,-3.445625 1,-5 -0.786311,-1.777496 -3.357594,-1.960634 -5,-3 -1.015577,-0.642689 -2.106041,-1.196706 -3,-2 -1.93647,-1.740075 -3.442391,-3.913943 -5,-6.0000002 -0.71906,-0.9630146 -1.044881,-2.2704844 -2,-3 -0.837694,-0.6398275 -1.974105,-1.2421808 -3,-1 -0.458794,0.1083066 -1,1 -1,1" />
        <path
           d="m 46.209786,28.156906 c 0,0 1.463947,5.738921 1.001084,8.583832 -0.503422,3.094194 -1.733796,6.320068 -4.004337,8.583833 -2.061998,2.055845 -3.20724,2.828474 -6.006505,3.815036 -1.290398,0.454783 -4.973515,0.953759 -6.514048,0.953759 -1.540535,0 -5.223651,-0.498977 -6.514049,-0.95376 -2.799265,-0.986562 -3.944507,-1.759191 -6.006506,-3.815036 -2.270541,-2.263765 -3.500915,-5.489639 -4.004337,-8.583833 -0.462863,-2.844911 1.001084,-8.583832 1.001084,-8.583832 M 28.176267,22.43435 c 0,0 -4.122174,4.705629 -7.007589,5.722555 -1.877805,0.661806 -4.201946,0.826315 -6.006506,0 -1.925806,-0.881834 -3.58357,-2.772978 -4.004337,-4.768796 -0.478397,-2.26917 0.558956,-4.123549 2.470477,-5.529022 2.067374,-1.520067 4.598363,-1.662883 6.539282,-3.054811 2.515152,-1.803739 2.912345,-5.389772 5.005421,-7.6300732 1.420632,-1.520559 5.512965,-3.8150366 5.512965,-3.8150366 0,0 4.092331,2.2944775 5.512964,3.8150365 2.093073,2.2403013 2.490269,5.8263353 5.005421,7.6300743 1.940919,1.391928 4.538808,1.465531 6.606183,2.927334 1.937249,1.369793 2.881973,3.387329 2.403575,5.656499 -0.420767,1.995818 -2.078532,3.886962 -4.004337,4.768796 -1.80456,0.826315 -4.1287,0.661806 -6.006505,0 -2.885416,-1.016926 -7.00759,-5.722555 -7.00759,-5.722555"
           id="path1018"
           style="fill:none;stroke:#6cc600;stroke-width:1.95427048;stroke-linecap:round;stroke-linejoin:miter;stroke-miterlimit:4;stroke-dasharray:none;stroke-opacity:1" />
        <g
           id="g1032"
           transform="matrix(1.0010843,0,0,0.95375917,57.401951,5.3863652)"
           style="fill:none;stroke:#6cc600;stroke-opacity:1">
          <g
             id="g1024"
             transform="translate(0,-1)"
             style="fill:none;stroke:#6cc600;stroke-opacity:1">
            <path
               d="M -30.228157,8.514322 C -33.422908,9.40349 -38.624018,5.874516 -40.102591,4.585664"
               id="path1020"
               style="fill:none;fill-rule:evenodd;stroke:#6cc600;stroke-width:1.93205309;stroke-linecap:butt;stroke-linejoin:miter;stroke-miterlimit:4;stroke-dasharray:none;stroke-opacity:1" />
            <path
               d="M -29.760199,5.904536 C -33.101366,5.473905 -35.931474,3.7361852 -37.633646,2.3416285"
               id="path1022"
               style="fill:none;fill-rule:evenodd;stroke:#6cc600;stroke-width:1.93205309;stroke-linecap:butt;stroke-linejoin:miter;stroke-miterlimit:4;stroke-dasharray:none;stroke-opacity:1" />
          </g>
          <g
             id="g1030"
             style="fill:none;stroke:#6cc600;stroke-opacity:1">
            <path
               d="m -23.145912,7.514322 c 3.194751,0.889168 8.395861,-2.639806 9.874434,-3.928658"
               id="path1026"
               style="fill:none;fill-rule:evenodd;stroke:#6cc600;stroke-width:1.93205309;stroke-linecap:butt;stroke-linejoin:miter;stroke-miterlimit:4;stroke-dasharray:none;stroke-opacity:1" />
            <path
               d="m -23.61387,4.904536 c 3.341167,-0.430631 6.171275,-2.168351 7.873447,-3.5629075"
               id="path1028"
               style="fill:none;fill-rule:evenodd;stroke:#6cc600;stroke-width:1.93205309;stroke-linecap:butt;stroke-linejoin:miter;stroke-miterlimit:4;stroke-dasharray:none;stroke-opacity:1" />
          </g>
        </g>
        <g
           id="g1038"
           transform="matrix(1.0010843,0,0,0.95375917,57.930597,3.4788469)"
           style="fill:#ffffff;fill-opacity:0.94117647;stroke:#6cc600;stroke-opacity:1">
          <ellipse
             cx="-30.836912"
             cy="14.612609"
             id="ellipse1034"
             rx="1.8846371"
             ry="2.0666313"
             style="fill:#ffffff;fill-opacity:0.94117647;fill-rule:evenodd;stroke:#6cc600;stroke-width:1.99999976;stroke-linecap:butt;stroke-linejoin:miter;stroke-miterlimit:4;stroke-dasharray:none;stroke-opacity:1" />
          <ellipse
             cx="-23.593306"
             cy="14.699166"
             id="ellipse1036"
             rx="1.8846371"
             ry="2.0666313"
             style="fill:#ffffff;fill-opacity:0.94117647;fill-rule:evenodd;stroke:#6cc600;stroke-width:1.99999976;stroke-linecap:butt;stroke-linejoin:miter;stroke-miterlimit:4;stroke-dasharray:none;stroke-opacity:1" />
        </g>
        <g
           id="g1044"
           transform="matrix(1.0010843,0,0,0.95375917,58.02711,3.4788469)"
           style="fill:none;stroke:#6cc600;stroke-opacity:1">
          <path
             d="m -37.186516,14.624518 c -14.340024,2.75008 -4.810404,15.671871 4.375,5.25"
             id="path1040"
             style="fill:none;fill-rule:evenodd;stroke:#6cc600;stroke-width:1px;stroke-linecap:butt;stroke-linejoin:miter;stroke-miterlimit:4;stroke-dasharray:none;stroke-opacity:1" />
          <path
             d="m -17.436517,14.624518 c 14.3400245,2.75008 4.810404,15.671872 -4.375,5.25"
             id="path1042"
             style="fill:none;fill-rule:evenodd;stroke:#6cc600;stroke-width:1px;stroke-linecap:butt;stroke-linejoin:miter;stroke-miterlimit:4;stroke-dasharray:none;stroke-opacity:1" />
        </g>
        <path
           d="m 33.12784,3.3591671 c -1.384692,1.3140551 -1.985761,2.3793068 -2.459835,2.3793068 -0.662709,0 -1.27278,-1.0652517 -2.459836,-2.3793068 -0.97292,-1.0770097 1.101306,-2.37930771 2.459836,-2.37930771 1.358531,0 3.532987,1.36090081 2.459835,2.37930771 z"
           id="path1046"
           style="fill:#6cc600;fill-opacity:1;fill-rule:evenodd;stroke:#6cc600;stroke-width:2.16383076;stroke-linecap:butt;stroke-linejoin:miter;stroke-miterlimit:4;stroke-dasharray:none;stroke-opacity:1" />
        <path
           style="fill:none;stroke:#6cc600;stroke-width:1.95427048;stroke-linecap:round;stroke-linejoin:miter;stroke-miterlimit:4;stroke-dasharray:none;stroke-opacity:1"
           id="path1048"
           d="m 31.302308,50.085622 c 0,0 0.723125,3.123831 5.500191,3.669996 4.777067,0.546166 11.784656,-3.778776 14.78791,-9.501331 3.003254,-5.722555 2.402683,-11.490783 3.003253,-18.121425" />
      </g>
    </g>
  </g>
  <g
     transform="matrix(0.26458333,0,0,0.26458333,3.70416,59.907358)"
     id="g1184">
    <g
       transform="scale(1.5)"
       id="g1182">
      <path
         d="m 0.5,8.5 v -4 c 0,-2.209139 1.790861,-4 4,-4 h 4 v 2 h 10 v -2 h 9 67.2347 4 c 2.20914,0 4,1.790861 4,4 v 4 h -4 v -3 h -4 v 10 h 4 v -3 h 4 v 4 c 0,2.209139 -1.79086,4 -4,4 h -4 -67.2347 -1 v 2 h -8 v -2 h -1 -4 c -2.761424,0 -5,2.238576 -5,5 v 4 4 4 c 0,2.761424 2.238576,5 5,5 h 4 v 2 h 10 v -2 h 8 v 6 6 4 c 0,2.209139 -1.790861,4 -4,4 h -4 -9 -1 v 2 h -8 v -2 h -1 -4 c -2.209139,0 -4,-1.790861 -4,-4 v -4 z"
         style="fill:#3edcdd;fill-opacity:1;stroke:#1dbcbd;stroke-width:1;stroke-linecap:round;stroke-opacity:1"
         id="path1172" />
      <text
         style="font-size:10px;font-family:sans-serif;text-anchor:start;fill:#282828"
         id="text1176">
        <tspan
           x="5"
           y="15"
           id="tspan1174">音色をせってい</tspan>
      </text>
      <text
         style="font-size:6.66666651px;font-family:sans-serif;text-anchor:end;fill:#282828"
         id="text1180">
        <tspan
           x="59"
           y="12"
           id="tspan1178" />
      </text>
    </g>
  </g>
  <path
     d="m 44.913013,60.105795 h 30.427084 v 7.9375 H 44.913013 v -3.174999 -0.396875 h -2.38125 v 1.190625 h -0.793749 v -3.175001 h 0.793749 v 1.190626 h 2.38125 v -0.396875 z"
     style="fill:#3edcdd;fill-opacity:1;stroke:#1dbcbd;stroke-width:0.39687499;stroke-linecap:round;stroke-opacity:1"
     id="path1186" />
  <text
     style="font-size:3.96875px;font-family:sans-serif;text-anchor:start;fill:#282828;stroke-width:0.39687499"
     id="text1190"
     x="47.360428"
     y="59.907356">
    <tspan
       x="52.519802"
       y="65.463608"
       id="tspan1188"
       style="stroke-width:0.39687499">バイオリン</tspan>
  </text>
  <g
     transform="matrix(0.26458333,0,0,0.26458333,-331.52291,-62.33014)"
     id="g1122">
    <g
       transform="translate(1548,421)"
       id="g1064">
      <g
         transform="scale(1.5)"
         id="g1062">
        <path
           d="m 0.5,14.5 v -4 a 4,4 90 0 1 4,-4 h 4 l 5,-6 5,6 h 9 60 4 a 4,4 90 0 1 4,4 v 4 4 4 a 4,4 90 0 1 -4,4 h -4 -60 -1 v 2 h -8 v -2 h -1 -4 a 5,5 90 0 0 -5,5 v 4 4 42 4 a 5,5 90 0 0 5,5 h 4 v 2 h 10 v -2 h 8 v 6 6 4 a 4,4 90 0 1 -4,4 h -4 -9 l -5,6 -5,-6 h -4 a 4,4 90 0 1 -4,-4 v -4 z"
           style="fill:#ffbf00;fill-opacity:1;stroke:#daaf30;stroke-width:1;stroke-linecap:round;stroke-opacity:1"
           id="path1056" />
        <text
           style="font-size:10px;font-family:sans-serif;text-anchor:start;fill:#282828"
           id="text1060">
          <tspan
             x="20"
             y="22"
             id="tspan1058">スタート</tspan>
        </text>
      </g>
    </g>
    <g
       transform="matrix(0.5,0,0,0.5,1548,433)"
       id="g1082">
      <g
         style="isolation:isolate"
         id="g1080">
        <g
           id="g1078"
           data-name="レイヤー 2">
          <g
             id="g1076">
            <rect
               y="0"
               x="0"
               width="42"
               height="42"
               rx="5"
               ry="5"
               style="opacity:0.4;mix-blend-mode:multiply;fill:#292929"
               id="rect1066" />
            <path
               d="m 30.56,29.8 -4.17,-4.16 h 2.26 a 1.035,1.035 0 1 0 0,-2.07 h -4.71 a 1.08,1.08 0 0 0 -1.11,1 v 0 c 0,0 0,0 0,0.06 v 4.64 0 a 1.04,1.04 0 1 0 2.08,0 v -2.19 l 4.19,4.19 a 1,1 0 0 0 1.46,0 1,1 0 0 0 0,-1.47 z"
               style="fill:#ffffff"
               id="path1068" />
            <path
               d="m 19.17,24.6 a 1.08,1.08 0 0 0 -1.11,-1 h -4.71 a 1.035,1.035 0 1 0 0,2.07 h 2.25 l -4.16,4.13 a 1.039447,1.039447 0 0 0 1.47,1.47 l 4.18,-4.19 v 2.26 a 1.04,1.04 0 1 0 2.08,0 V 24.7 c 0,0 0,0 0,-0.06 a 0.08,0.08 0 0 1 0,-0.04 z"
               style="fill:#ffffff"
               id="path1070" />
            <path
               d="m 23.94,20.5 h 4.7 a 1.04,1.04 0 1 0 0,-2.08 h -2.25 l 4.17,-4.16 a 1,1 0 0 0 0,-1.47 1,1 0 0 0 -1.46,0 L 24.91,17 v -2.28 a 1.04,1.04 0 1 0 -2.08,0 v 4.64 a 0.43,0.43 0 0 0 0,0.05 v 0.05 a 1.09,1.09 0 0 0 1.11,1.04 z"
               style="fill:#ffffff"
               id="path1072" />
            <path
               d="m 18.13,13.62 a 1.08,1.08 0 0 0 -1,1.09 V 17 l -4.18,-4.19 a 1,1 0 0 0 -1.47,0 1,1 0 0 0 0,1.46 l 4.16,4.17 h -2.29 a 1.04,1.04 0 1 0 0,2.08 h 4.71 a 1.09,1.09 0 0 0 1.11,-1 c 0,0 0,0 0,-0.06 v -4.75 a 1.07,1.07 0 0 0 -1.04,-1.09 z"
               style="fill:#ffffff"
               id="path1074" />
          </g>
        </g>
      </g>
    </g>
    <g
       transform="matrix(0.4,0,0,0.4,1658,433)"
       id="g1120">
      <g
         transform="translate(-3.1884835,0.12548216)"
         style="fill:#00fa8c;stroke:#00843c;stroke-width:1.99999976;stroke-miterlimit:4;stroke-dasharray:none"
         id="g1118">
        <path
           style="fill:#00fa8c;stroke:none;stroke-width:1px;stroke-linecap:butt;stroke-linejoin:miter;stroke-opacity:1"
           id="path1084"
           d="m 31.188483,5.8745178 c 0,0 -1.254644,-1 -2,-1 -1.490712,0 -2.945907,0.9459074 -4,2 -1.581139,1.5811389 -1.692548,4.1860072 -3,6.0000002 -0.826905,1.14727 -1.85273,2.173095 -3,3 -1.813992,1.307452 -4.41886,1.418861 -5.999999,3 -1.054093,1.054093 -2,2.509288 -2,4 0,1.490712 1.176934,3.540162 2,4 2.595129,1.449868 0.836609,0.648512 2,2 0,0 -1.040434,3.300808 -1,5 0.06539,2.747959 1.999999,7 1.999999,8 0,1 3.621931,4.46873 6,6 2.394526,1.541867 5.323775,2.059095 8.164792,2.258437 3.065644,0.215103 5.976447,-0.356365 8.670416,-1.835208 1.652944,-0.907377 3.020234,-1.924716 4.164792,-3.423229 1.631246,-2.13571 3.310226,-4.40261 4,-7 0.42778,-1.610833 0.203639,-3.345821 0,-5 -0.167925,-1.364071 -1.27205,-2.652826 -1,-4 0.329909,-1.633688 2.319717,-2.47849 3,-4 0.693755,-1.551642 1.687609,-3.445625 1,-5 -0.786311,-1.777496 -3.357594,-1.960634 -5,-3 -1.015577,-0.642689 -2.106041,-1.196706 -3,-2 -1.93647,-1.740075 -3.442391,-3.913943 -5,-6.0000002 -0.71906,-0.9630146 -1.044881,-2.2704844 -2,-3 -0.837694,-0.6398275 -1.974105,-1.2421808 -3,-1 -0.458794,0.1083066 -1,1 -1,1" />
        <path
           d="m 46.209786,28.156906 c 0,0 1.463947,5.738921 1.001084,8.583832 -0.503422,3.094194 -1.733796,6.320068 -4.004337,8.583833 -2.061998,2.055845 -3.20724,2.828474 -6.006505,3.815036 -1.290398,0.454783 -4.973515,0.953759 -6.514048,0.953759 -1.540535,0 -5.223651,-0.498977 -6.514049,-0.95376 -2.799265,-0.986562 -3.944507,-1.759191 -6.006506,-3.815036 -2.270541,-2.263765 -3.500915,-5.489639 -4.004337,-8.583833 -0.462863,-2.844911 1.001084,-8.583832 1.001084,-8.583832 M 28.176267,22.43435 c 0,0 -4.122174,4.705629 -7.007589,5.722555 -1.877805,0.661806 -4.201946,0.826315 -6.006506,0 -1.925806,-0.881834 -3.58357,-2.772978 -4.004337,-4.768796 -0.478397,-2.26917 0.558956,-4.123549 2.470477,-5.529022 2.067374,-1.520067 4.598363,-1.662883 6.539282,-3.054811 2.515152,-1.803739 2.912345,-5.389772 5.005421,-7.6300732 1.420632,-1.520559 5.512965,-3.8150366 5.512965,-3.8150366 0,0 4.092331,2.2944775 5.512964,3.8150365 2.093073,2.2403013 2.490269,5.8263353 5.005421,7.6300743 1.940919,1.391928 4.538808,1.465531 6.606183,2.927334 1.937249,1.369793 2.881973,3.387329 2.403575,5.656499 -0.420767,1.995818 -2.078532,3.886962 -4.004337,4.768796 -1.80456,0.826315 -4.1287,0.661806 -6.006505,0 -2.885416,-1.016926 -7.00759,-5.722555 -7.00759,-5.722555"
           id="path1086"
           style="fill:none;stroke:#00843c;stroke-width:1.95427048;stroke-linecap:round;stroke-linejoin:miter;stroke-miterlimit:4;stroke-dasharray:none;stroke-opacity:1" />
        <g
           id="g1100"
           transform="matrix(1.0010843,0,0,0.95375917,57.401951,5.3863652)"
           style="fill:none;stroke:#00843c;stroke-opacity:1">
          <g
             id="g1092"
             transform="translate(0,-1)"
             style="fill:none;stroke:#00843c;stroke-opacity:1">
            <path
               d="M -30.228157,8.514322 C -33.422908,9.40349 -38.624018,5.874516 -40.102591,4.585664"
               id="path1088"
               style="fill:none;fill-rule:evenodd;stroke:#00843c;stroke-width:1.93205309;stroke-linecap:butt;stroke-linejoin:miter;stroke-miterlimit:4;stroke-dasharray:none;stroke-opacity:1" />
            <path
               d="M -29.760199,5.904536 C -33.101366,5.473905 -35.931474,3.7361852 -37.633646,2.3416285"
               id="path1090"
               style="fill:none;fill-rule:evenodd;stroke:#00843c;stroke-width:1.93205309;stroke-linecap:butt;stroke-linejoin:miter;stroke-miterlimit:4;stroke-dasharray:none;stroke-opacity:1" />
          </g>
          <g
             id="g1098"
             style="fill:none;stroke:#00843c;stroke-opacity:1">
            <path
               d="m -23.145912,7.514322 c 3.194751,0.889168 8.395861,-2.639806 9.874434,-3.928658"
               id="path1094"
               style="fill:none;fill-rule:evenodd;stroke:#00843c;stroke-width:1.93205309;stroke-linecap:butt;stroke-linejoin:miter;stroke-miterlimit:4;stroke-dasharray:none;stroke-opacity:1" />
            <path
               d="m -23.61387,4.904536 c 3.341167,-0.430631 6.171275,-2.168351 7.873447,-3.5629075"
               id="path1096"
               style="fill:none;fill-rule:evenodd;stroke:#00843c;stroke-width:1.93205309;stroke-linecap:butt;stroke-linejoin:miter;stroke-miterlimit:4;stroke-dasharray:none;stroke-opacity:1" />
          </g>
        </g>
        <g
           id="g1106"
           transform="matrix(1.0010843,0,0,0.95375917,57.930597,3.4788469)"
           style="fill:#ffffff;fill-opacity:0.94117647;stroke:#00843c;stroke-opacity:1">
          <ellipse
             cx="-30.836912"
             cy="14.612609"
             id="ellipse1102"
             rx="1.8846371"
             ry="2.0666313"
             style="fill:#ffffff;fill-opacity:0.94117647;fill-rule:evenodd;stroke:#00843c;stroke-width:1.99999976;stroke-linecap:butt;stroke-linejoin:miter;stroke-miterlimit:4;stroke-dasharray:none;stroke-opacity:1" />
          <ellipse
             cx="-23.593306"
             cy="14.699166"
             id="ellipse1104"
             rx="1.8846371"
             ry="2.0666313"
             style="fill:#ffffff;fill-opacity:0.94117647;fill-rule:evenodd;stroke:#00843c;stroke-width:1.99999976;stroke-linecap:butt;stroke-linejoin:miter;stroke-miterlimit:4;stroke-dasharray:none;stroke-opacity:1" />
        </g>
        <g
           id="g1112"
           transform="matrix(1.0010843,0,0,0.95375917,58.02711,3.4788469)"
           style="fill:none;stroke:#00843c;stroke-opacity:1">
          <path
             d="m -37.186516,14.624518 c -14.340024,2.75008 -4.810404,15.671871 4.375,5.25"
             id="path1108"
             style="fill:none;fill-rule:evenodd;stroke:#00843c;stroke-width:1px;stroke-linecap:butt;stroke-linejoin:miter;stroke-miterlimit:4;stroke-dasharray:none;stroke-opacity:1" />
          <path
             d="m -17.436517,14.624518 c 14.3400245,2.75008 4.810404,15.671872 -4.375,5.25"
             id="path1110"
             style="fill:none;fill-rule:evenodd;stroke:#00843c;stroke-width:1px;stroke-linecap:butt;stroke-linejoin:miter;stroke-miterlimit:4;stroke-dasharray:none;stroke-opacity:1" />
        </g>
        <path
           d="m 33.12784,3.3591671 c -1.384692,1.3140551 -1.985761,2.3793068 -2.459835,2.3793068 -0.662709,0 -1.27278,-1.0652517 -2.459836,-2.3793068 -0.97292,-1.0770097 1.101306,-2.37930771 2.459836,-2.37930771 1.358531,0 3.532987,1.36090081 2.459835,2.37930771 z"
           id="path1114"
           style="fill:#00843c;fill-opacity:1;fill-rule:evenodd;stroke:#00843c;stroke-width:2.16383076;stroke-linecap:butt;stroke-linejoin:miter;stroke-miterlimit:4;stroke-dasharray:none;stroke-opacity:1" />
        <path
           style="fill:none;stroke:#00843c;stroke-width:1.95427048;stroke-linecap:round;stroke-linejoin:miter;stroke-miterlimit:4;stroke-dasharray:none;stroke-opacity:1"
           id="path1116"
           d="m 31.302308,50.085622 c 0,0 0.723125,3.123831 5.500191,3.669996 4.777067,0.546166 11.784656,-3.778776 14.78791,-9.501331 3.003254,-5.722555 2.402683,-11.490783 3.003253,-18.121425" />
      </g>
    </g>
  </g>
  <g
     transform="matrix(0.26458333,0,0,0.26458333,81.75625,59.907361)"
     id="g1208">
    <g
       transform="scale(1.5)"
       id="g1206">
      <path
         d="m 0.5,8.5 v -4 c 0,-2.209139 1.790861,-4 4,-4 h 4 v 2 h 10 v -2 h 9 68.568034 3.999996 c 2.20914,0 4,1.790861 4,4 v 4 h -4 v -3 h -3.999996 v 10 h 3.999996 v -3 h 4 v 4 c 0,2.209139 -1.79086,4 -4,4 H 96.068034 27.5 h -1 v 2 h -8 v -2 h -1 -4 c -2.761424,0 -5,2.238576 -5,5 v 4 4 4 c 0,2.761424 2.238576,5 5,5 h 4 v 2 h 10 v -2 h 8 v 6 6 4 c 0,2.209139 -1.790861,4 -4,4 h -4 -9 -1 v 2 h -8 v -2 h -1 -4 c -2.209139,0 -4,-1.790861 -4,-4 v -4 z"
         style="fill:#3edcdd;fill-opacity:1;stroke:#1dbcbd;stroke-width:1;stroke-linecap:round;stroke-opacity:1"
         id="path1196" />
      <text
         style="font-size:10px;font-family:sans-serif;text-anchor:start;fill:#282828"
         id="text1200">
        <tspan
           x="5"
           y="15"
           id="tspan1198">音色をせってい</tspan>
      </text>
      <text
         style="font-size:6.66666651px;font-family:sans-serif;text-anchor:end;fill:#282828"
         id="text1204">
        <tspan
           x="59"
           y="12"
           id="tspan1202" />
      </text>
    </g>
  </g>
  <path
     d="m 123.49427,60.105798 h 29.89792 v 7.937501 h -29.89792 v -3.175 -0.396876 h -2.38125 v 1.190625 h -0.79375 v -3.175 h 0.79375 v 1.190626 h 2.38125 v -0.396875 z"
     style="fill:#3edcdd;fill-opacity:1;stroke:#1dbcbd;stroke-width:0.39687499;stroke-linecap:round;stroke-opacity:1"
     id="path1210" />
  <text
     style="font-size:3.96875px;font-family:sans-serif;text-anchor:start;fill:#282828;stroke-width:0.39687499"
     id="text1214"
     x="131.23323"
     y="59.90736">
    <tspan
       x="136.39259"
       y="65.463608"
       id="tspan1212"
       style="stroke-width:0.39687499">ピアノ</tspan>
  </text>
</svg>
