<?xml version="1.0" encoding="UTF-8" standalone="no"?>
<svg
   xmlns:dc="http://purl.org/dc/elements/1.1/"
   xmlns:cc="http://creativecommons.org/ns#"
   xmlns:rdf="http://www.w3.org/1999/02/22-rdf-syntax-ns#"
   xmlns:svg="http://www.w3.org/2000/svg"
   xmlns="http://www.w3.org/2000/svg"
   width="124.20058mm"
   height="129.12811mm"
   viewBox="0 0 124.20057 129.12812"
   version="1.1"
   id="svg11666">
  <defs
     id="defs11660" />
  <metadata
     id="metadata11663">
    <rdf:RDF>
      <cc:Work
         rdf:about="">
        <dc:format>image/svg+xml</dc:format>
        <dc:type
           rdf:resource="http://purl.org/dc/dcmitype/StillImage" />
        <dc:title></dc:title>
      </cc:Work>
    </rdf:RDF>
  </metadata>
  <g
     transform="matrix(0.26458333,0,0,0.26458333,-225.42501,-12.932363)"
     id="g466">
    <g
       id="g446"
       transform="translate(852,109)">
      <g
         id="g444"
         transform="scale(1.5,1.5)">
        <path
           id="path434"
           style="fill:#daa926;fill-opacity:1;stroke:#daaf30;stroke-width:1;stroke-linecap:round;stroke-opacity:1"
           d="m 0.5,14.5 0,-4 a 4,4 90 0 1 4,-4 l 4,0 5,-6 5,6 9,0 52,0 4,0 a 4,4 90 0 1 4,4 l 0,4 -4,0 0,-3 -4,0 0,10 4,0 0,-3 4,0 0,4 a 4,4 90 0 1 -4,4 l -4,0 -52,0 -1,0 0,2 -8,0 0,-2 -1,0 -4,0 a 5,5 90 0 0 -5,5 l 0,4 0,4 0,210 0,4 a 5,5 90 0 0 5,5 l 4,0 0,2 10,0 0,-2 8,0 0,6 0,6 0,4 a 4,4 90 0 1 -4,4 l -4,0 -9,0 -5,6 -5,-6 -4,0 a 4,4 90 0 1 -4,-4 l 0,-4 z" />
        <text
           id="text438"
           style="font-size:10px;font-family:sans-serif;text-anchor:start;fill:#282828">
          <tspan
             id="tspan436"
             y="22"
             x="20">アクション</tspan>
        </text>
        <text
           id="text442"
           style="font-size:6.66666651px;font-family:sans-serif;text-anchor:end;fill:#282828">
          <tspan
             id="tspan440"
             y="6"
             x="77" />
        </text>
      </g>
    </g>
    <g
       id="g464"
       transform="matrix(0.5,0,0,0.5,852,121)">
      <g
         id="g462"
         style="isolation:isolate">
        <g
           data-name="レイヤー 2"
           id="g460">
          <g
             id="g458">
            <rect
               id="rect448"
               style="opacity:0.4;mix-blend-mode:multiply;fill:#292929"
               ry="5"
               rx="5"
               height="42"
               width="42"
               x="0"
               y="0" />
            <path
               id="path450"
               style="fill:#ffffff"
               d="m 30.56,29.8 -4.17,-4.16 2.26,0 a 1.035,1.035 0 1 0 0,-2.07 l -4.71,0 a 1.08,1.08 0 0 0 -1.11,1 l 0,0 c 0,0 0,0 0,0.06 l 0,4.64 0,0 a 1.04,1.04 0 1 0 2.08,0 l 0,-2.19 4.19,4.19 a 1,1 0 0 0 1.46,0 1,1 0 0 0 0,-1.47 z" />
            <path
               id="path452"
               style="fill:#ffffff"
               d="m 19.17,24.6 a 1.08,1.08 0 0 0 -1.11,-1 l -4.71,0 a 1.035,1.035 0 1 0 0,2.07 l 2.25,0 -4.16,4.13 a 1.039447,1.039447 0 0 0 1.47,1.47 l 4.18,-4.19 0,2.26 a 1.04,1.04 0 1 0 2.08,0 l 0,-4.64 c 0,0 0,0 0,-0.06 a 0.08,0.08 0 0 1 0,-0.04 z" />
            <path
               id="path454"
               style="fill:#ffffff"
               d="m 23.94,20.5 4.7,0 a 1.04,1.04 0 1 0 0,-2.08 l -2.25,0 4.17,-4.16 a 1,1 0 0 0 0,-1.47 1,1 0 0 0 -1.46,0 l -4.19,4.21 0,-2.28 a 1.04,1.04 0 1 0 -2.08,0 l 0,4.64 a 0.43,0.43 0 0 0 0,0.05 l 0,0.05 a 1.09,1.09 0 0 0 1.11,1.04 z" />
            <path
               id="path456"
               style="fill:#ffffff"
               d="m 18.13,13.62 a 1.08,1.08 0 0 0 -1,1.09 l 0,2.29 -4.18,-4.19 a 1,1 0 0 0 -1.47,0 1,1 0 0 0 0,1.46 l 4.16,4.17 -2.29,0 a 1.04,1.04 0 1 0 0,2.08 l 4.71,0 a 1.09,1.09 0 0 0 1.11,-1 c 0,0 0,0 0,-0.06 l 0,-4.75 a 1.07,1.07 0 0 0 -1.04,-1.09 z" />
          </g>
        </g>
      </g>
    </g>
  </g>
  <g
     id="g476"
     transform="matrix(0.26458333,0,0,0.26458333,31.749987,18.28847)">
    <g
       id="g474"
       transform="scale(1.5,1.5)">
      <path
         id="path468"
         style="fill:#ff5942;fill-opacity:1;stroke-width:1;stroke-linecap:round;stroke-opacity:1"
         d="m 8.5,0.5 90,0 0,20 -90,0 0,-8 0,-1 -6,0 0,3 -2,0 0,-8 2,0 0,3 6,0 0,-1 z" />
      <text
         id="text472"
         style="font-size:10px;font-family:sans-serif;text-anchor:start;fill:#282828">
        <tspan
           id="tspan470"
           y="14"
           x="13">アクション</tspan>
      </text>
    </g>
  </g>
  <g
     id="g494"
     transform="matrix(0.26458333,0,0,0.26458333,3.571862,26.622845)">
    <g
       id="g492"
       transform="scale(1.5,1.5)">
      <path
         id="path478"
         style="fill:#d68136;fill-opacity:1;stroke:#b7651a;stroke-width:1;stroke-linecap:round;stroke-opacity:1"
         d="m 0.5,8.5 0,-4 a 4,4 90 0 1 4,-4 l 4,0 0,2 10,0 0,-2 9,0 15,0 4,0 a 4,4 90 0 1 4,4 l 0,4 0,9 a 8,8 90 0 0 -8,8 8,8 90 0 0 8,8 l 0,4 a 4,4 90 0 1 -4,4 l -4,0 -15,0 -1,0 0,2 -8,0 0,-2 -1,0 -4,0 a 5,5 90 0 0 -5,5 l 0,4 0,4 0,4 a 5,5 90 0 0 5,5 l 4,0 0,2 10,0 0,-2 8,0 15,0 0,12 0,4 a 4,4 90 0 1 -4,4 l -4,0 -15,0 -1,0 0,2 -8,0 0,-2 -1,0 -4,0 a 5,5 90 0 0 -5,5 l 0,4 0,4 0,4 a 5,5 90 0 0 5,5 l 4,0 0,2 10,0 0,-2 8,0 0,6 0,6 0,4 a 4,4 90 0 1 -4,4 l -4,0 -9,0 -1,0 0,2 -8,0 0,-2 -1,0 -4,0 a 4,4 90 0 1 -4,-4 l 0,-4 z" />
      <text
         id="text482"
         style="font-size:10px;font-family:sans-serif;text-anchor:start;fill:#282828">
        <tspan
           id="tspan480"
           y="19"
           x="5">もし</tspan>
      </text>
      <text
         id="text486"
         style="font-size:6.66666651px;font-family:sans-serif;text-anchor:end;fill:#282828">
        <tspan
           id="tspan484"
           y="38"
           x="46">ならば</tspan>
      </text>
      <text
         id="text490"
         style="font-size:6.66666651px;font-family:sans-serif;text-anchor:end;fill:#282828">
        <tspan
           id="tspan488"
           y="80"
           x="46">でなければ</tspan>
      </text>
    </g>
  </g>
  <g
     id="g506"
     transform="matrix(0.26458333,0,0,0.26458333,20.637487,26.622845)">
    <g
       id="g504"
       transform="scale(1.5,1.5)">
      <g
         id="g498"
         transform="translate(0,-16)">
        <path
           id="path496"
           style="fill:#c96df3;fill-opacity:1;stroke:#b653d3;stroke-width:1;stroke-linecap:round;stroke-opacity:1"
           d="m 0.5,41.5 a 7,7 90 0 1 7,-7 l 1,0 0,-10 a 8,8 90 0 1 8,-8 l 34,0 0,8 -4,0 0,-3 -4,0 0,10 4,0 0,-3 4,0 0,17 -4,0 0,-3 -4,0 0,10 4,0 0,-3 4,0 0,8 -30,0 -12,0 0,-8 0,-1 -1,0 a 7,7 90 0 1 -7,-7 z" />
      </g>
      <text
         id="text502"
         style="font-size:14px;font-family:sans-serif;text-anchor:end;fill:#282828">
        <tspan
           id="tspan500"
           y="26"
           x="38">=</tspan>
      </text>
    </g>
  </g>
  <g
     id="g516"
     transform="matrix(0.26458333,0,0,0.26458333,37.703112,26.622845)">
    <g
       id="g514"
       transform="scale(1.5,1.5)">
      <path
         id="path508"
         style="fill:#ff8b2d;fill-opacity:1;stroke:#e86b0e;stroke-width:1;stroke-linecap:round;stroke-opacity:1"
         d="m 8.5,0.5 86.704102,0 0,20 -86.704102,0 0,-8 0,-1 -6,0 0,3 -2,0 0,-8 2,0 0,3 6,0 0,-1 z" />
      <text
         id="text512"
         style="font-size:10px;font-family:sans-serif;text-anchor:start;fill:#282828">
        <tspan
           id="tspan510"
           y="14"
           x="13">拍の数</tspan>
      </text>
    </g>
  </g>
  <g
     id="g526"
     transform="matrix(0.26458333,0,0,0.26458333,37.703112,34.95722)">
    <g
       id="g524"
       transform="scale(1.5,1.5)">
      <path
         id="path518"
         style="fill:#ff5293;fill-opacity:1;stroke:#ff2c76;stroke-width:1;stroke-linecap:round;stroke-opacity:1"
         d="m 8.5,0.5 60,0 0,20 -60,0 0,-8 0,-1 -6,0 0,3 -2,0 0,-8 2,0 0,3 6,0 0,-1 z" />
      <text
         id="text522"
         style="font-size:10px;font-family:sans-serif;text-anchor:start;fill:#282828">
        <tspan
           id="tspan520"
           y="14"
           x="13">1</tspan>
      </text>
    </g>
  </g>
  <g
     id="g540"
     transform="matrix(0.26458333,0,0,0.26458333,7.143737,43.291595)">
    <g
       id="g538"
       transform="scale(1.5,1.5)">
      <path
         id="path528"
         style="fill:#728ff9;fill-opacity:1;stroke:#5370dc;stroke-width:1;stroke-linecap:round;stroke-opacity:1"
         d="m 0.5,8.5 0,-4 a 4,4 90 0 1 4,-4 l 4,0 0,2 10,0 0,-2 37.792969,0 4,0 a 4,4 90 0 1 4,4 l 0,4 -4,0 0,-3 -4,0 0,10 4,0 0,-3 4,0 0,4 a 4,4 90 0 1 -4,4 l -4,0 -37.792969,0 -1,0 0,2 -8,0 0,-2 -1,0 -4,0 a 4,4 90 0 1 -4,-4 l 0,-4 z" />
      <text
         id="text532"
         style="font-size:10px;font-family:sans-serif;text-anchor:end;fill:#282828">
        <tspan
           id="tspan530"
           y="14"
           x="54">色をせってい</tspan>
      </text>
      <text
         id="text536"
         style="font-size:6.66666651px;font-family:sans-serif;text-anchor:end;fill:#282828">
        <tspan
           id="tspan534"
           y="12"
           x="54" />
      </text>
    </g>
  </g>
  <g
     id="g554"
     transform="matrix(0.26458333,0,0,0.26458333,40.972335,43.291595)">
    <g
       id="g552"
       transform="scale(1.5,1.5)">
      <path
         id="path542"
         style="fill:#ff8b2d;fill-opacity:1;stroke:#e86b0e;stroke-width:1;stroke-linecap:round;stroke-opacity:1"
         d="m -19.944447,8.5 0,-4 c 0,-2.209139 1.790861,-4 4,-4 l 4,0 10.0000001,0 85.1534309,0 4,0 c 2.209139,0 4,1.790861 4,4 l 0,4 -4,0 0,-3 -4,0 0,10 4,0 0,-3 4,0 0,4 c 0,2.209139 -1.790861,4 -4,4 l -4,0 -85.1534309,0 -10.0000001,0 -4,0 c -2.209139,0 -6.12663,-3.401885 -4,-4 l 0,-4 0,-1 -6,0 0,3 -2,0 0,-8 2,0 0,3 6,0 z" />
      <text
         id="text546"
         style="font-size:10px;font-family:sans-serif;text-anchor:end;fill:#282828">
        <tspan
           id="tspan544"
           y="13"
           x="81">全体の拍の数</tspan>
      </text>
      <text
         id="text550"
         style="font-size:6.66666651px;font-family:sans-serif;text-anchor:end;fill:#282828">
        <tspan
           id="tspan548"
           y="12"
           x="81" />
      </text>
    </g>
  </g>
  <g
     id="g572"
     transform="matrix(0.26458333,0,0,0.26458333,74.194331,43.291595)">
    <g
       id="g570"
       transform="scale(1.5,1.5)">
      <path
         id="path556"
         style="fill:#ff5293;fill-opacity:1;stroke:#ff2c76;stroke-width:1;stroke-linecap:round;stroke-opacity:1"
         d="m 8.5,8.5 0,-4 a 4,4 90 0 1 4,-4 l 4,0 10,0 30,0 4,0 a 4,4 90 0 1 4,4 l 0,4 -4,0 0,-3 -4,0 0,10 4,0 0,-3 4,0 0,17 -4,0 0,-3 -4,0 0,10 4,0 0,-3 4,0 0,4 a 4,4 90 0 1 -4,4 l -4,0 -30,0 -10,0 -4,0 a 4,4 90 0 1 -4,-4 l 0,-4 0,-21 0,-1 -6,0 0,3 -2,0 0,-8 2,0 0,3 6,0 z" />
      <text
         id="text560"
         style="font-size:9px;font-family:sans-serif;text-anchor:end;fill:#282828">
        <tspan
           id="tspan558"
           y="23"
           x="54">➗</tspan>
      </text>
      <text
         id="text564"
         style="font-size:6px;font-family:sans-serif;text-anchor:end;fill:#282828">
        <tspan
           id="tspan562"
           y="12"
           x="54" />
      </text>
      <text
         id="text568"
         style="font-size:6px;font-family:sans-serif;text-anchor:end;fill:#282828">
        <tspan
           id="tspan566"
           y="33"
           x="54" />
      </text>
    </g>
  </g>
  <g
     id="g582"
     transform="matrix(0.26458333,0,0,0.26458333,96.816206,43.291595)">
    <g
       id="g580"
       transform="scale(1.5,1.5)">
      <path
         id="path574"
         style="fill:#ff5293;fill-opacity:1;stroke:#ff2c76;stroke-width:1;stroke-linecap:round;stroke-opacity:1"
         d="m 8.5,0.5 60,0 0,20 -60,0 0,-8 0,-1 -6,0 0,3 -2,0 0,-8 2,0 0,3 6,0 0,-1 z" />
      <text
         id="text578"
         style="font-size:10px;font-family:sans-serif;text-anchor:start;fill:#282828">
        <tspan
           id="tspan576"
           y="14"
           x="13">1</tspan>
      </text>
    </g>
  </g>
  <g
     id="g592"
     transform="matrix(0.26458333,0,0,0.26458333,96.816206,51.62597)">
    <g
       id="g590"
       transform="scale(1.5,1.5)">
      <path
         id="path584"
         style="fill:#ff5293;fill-opacity:1;stroke:#ff2c76;stroke-width:1;stroke-linecap:round;stroke-opacity:1"
         d="m 8.5,0.5 60,0 0,20 -60,0 0,-8 0,-1 -6,0 0,3 -2,0 0,-8 2,0 0,3 6,0 0,-1 z" />
      <text
         id="text588"
         style="font-size:10px;font-family:sans-serif;text-anchor:start;fill:#282828">
        <tspan
           id="tspan586"
           y="14"
           x="13">4</tspan>
      </text>
    </g>
  </g>
  <g
     id="g606"
     transform="matrix(0.26458333,0,0,0.26458333,18.432625,59.960344)">
    <g
       id="g604"
       transform="scale(1.5,1.5)">
      <path
         id="path594"
         style="fill:#728ff9;fill-opacity:1;stroke:#5370dc;stroke-width:1;stroke-linecap:round;stroke-opacity:1"
         d="m -27.944445,8.5 0,-4 c 0,-2.209139 1.790861,-4 4,-4 l 4,0 0,2 10,0 0,-2 71.808703,0 4,0 c 2.209139,0 4,1.790861 4,4 l 0,4 -4,0 0,-3 -4,0 0,10 4,0 0,-3 4,0 0,4 c 0,2.209139 -1.790861,4 -4,4 l -4,0 -71.808703,0 -1,0 0,2 -8,0 0,-2 -1,0 -4,0 c -2.209139,0 -6.12663,-3.401885 -4,-4 l 0,-4 z" />
      <text
         id="text598"
         style="font-size:10px;font-family:sans-serif;text-anchor:end;fill:#282828">
        <tspan
           id="tspan596"
           y="14"
           x="60">色のこさをせってい</tspan>
      </text>
      <text
         id="text602"
         style="font-size:6.66666651px;font-family:sans-serif;text-anchor:end;fill:#282828">
        <tspan
           id="tspan600"
           y="12"
           x="60" />
      </text>
    </g>
  </g>
  <g
     id="g616"
     transform="matrix(0.26458333,0,0,0.26458333,43.18344,59.960344)">
    <g
       id="g614"
       transform="scale(1.5,1.5)">
      <path
         id="path608"
         style="fill:#ff5293;fill-opacity:1;stroke:#ff2c76;stroke-width:1;stroke-linecap:round;stroke-opacity:1"
         d="m 8.5,0.5 60,0 0,20 -60,0 0,-8 0,-1 -6,0 0,3 -2,0 0,-8 2,0 0,3 6,0 0,-1 z" />
      <text
         id="text612"
         style="font-size:10px;font-family:sans-serif;text-anchor:start;fill:#282828">
        <tspan
           id="tspan610"
           y="14"
           x="13">0</tspan>
      </text>
    </g>
  </g>
  <g
     id="g630"
     transform="matrix(0.26458333,0,0,0.26458333,3.571862,76.629094)">
    <g
       id="g628"
       transform="scale(1.5,1.5)">
      <path
         id="path618"
         style="fill:#728ff9;fill-opacity:1;stroke:#5370dc;stroke-width:1;stroke-linecap:round;stroke-opacity:1"
         d="m 0.5,8.5 0,-4 a 4,4 90 0 1 4,-4 l 4,0 0,2 10,0 0,-2 33.344727,0 4,0 a 4,4 90 0 1 4,4 l 0,4 -4,0 0,-3 -4,0 0,10 4,0 0,-3 4,0 0,4 a 4,4 90 0 1 -4,4 l -4,0 -33.344727,0 -1,0 0,2 -8,0 0,-2 -1,0 -4,0 a 4,4 90 0 1 -4,-4 l 0,-4 z" />
      <text
         id="text622"
         style="font-size:10px;font-family:sans-serif;text-anchor:end;fill:#282828">
        <tspan
           id="tspan620"
           y="14"
           x="50">前へ進む</tspan>
      </text>
      <text
         id="text626"
         style="font-size:6.66666651px;font-family:sans-serif;text-anchor:end;fill:#282828">
        <tspan
           id="tspan624"
           y="12"
           x="50" />
      </text>
    </g>
  </g>
  <g
     id="g648"
     transform="matrix(0.26458333,0,0,0.26458333,24.346175,76.629094)">
    <g
       id="g646"
       transform="scale(1.5,1.5)">
      <path
         id="path632"
         style="fill:#ff5293;fill-opacity:1;stroke:#ff2c76;stroke-width:1;stroke-linecap:round;stroke-opacity:1"
         d="m 8.5,8.5 0,-4 a 4,4 90 0 1 4,-4 l 4,0 10,0 30,0 4,0 a 4,4 90 0 1 4,4 l 0,4 -4,0 0,-3 -4,0 0,10 4,0 0,-3 4,0 0,17 -4,0 0,-3 -4,0 0,10 4,0 0,-3 4,0 0,4 a 4,4 90 0 1 -4,4 l -4,0 -30,0 -10,0 -4,0 a 4,4 90 0 1 -4,-4 l 0,-4 0,-21 0,-1 -6,0 0,3 -2,0 0,-8 2,0 0,3 6,0 z" />
      <text
         id="text636"
         style="font-size:14px;font-family:sans-serif;text-anchor:end;fill:#282828">
        <tspan
           id="tspan634"
           y="24"
           x="54">×</tspan>
      </text>
      <text
         id="text640"
         style="font-size:9.33333302px;font-family:sans-serif;text-anchor:end;fill:#282828">
        <tspan
           id="tspan638"
           y="12"
           x="54" />
      </text>
      <text
         id="text644"
         style="font-size:9.33333302px;font-family:sans-serif;text-anchor:end;fill:#282828">
        <tspan
           id="tspan642"
           y="33"
           x="54" />
      </text>
    </g>
  </g>
  <g
     id="g658"
     transform="matrix(0.26458333,0,0,0.26458333,46.968053,76.629094)">
    <g
       id="g656"
       transform="scale(1.5,1.5)">
      <path
         id="path650"
         style="fill:#77c428;fill-opacity:1;stroke:#57ad02;stroke-width:1;stroke-linecap:round;stroke-opacity:1"
         d="m 8.5,0.5 107.27051,0 0,20 -107.27051,0 0,-8 0,-1 -6,0 0,3 -2,0 0,-8 2,0 0,3 6,0 0,-1 z" />
      <text
         id="text654"
         style="font-size:10px;font-family:sans-serif;text-anchor:start;fill:#282828">
        <tspan
           id="tspan652"
           y="14"
           x="13">音程の違い</tspan>
      </text>
    </g>
  </g>
  <g
     id="g668"
     transform="matrix(0.26458333,0,0,0.26458333,46.968053,84.963469)">
    <g
       id="g666"
       transform="scale(1.5,1.5)">
      <path
         id="path660"
         style="fill:#ff5293;fill-opacity:1;stroke:#ff2c76;stroke-width:1;stroke-linecap:round;stroke-opacity:1"
         d="m 8.5,0.5 60,0 0,20 -60,0 0,-8 0,-1 -6,0 0,3 -2,0 0,-8 2,0 0,3 6,0 0,-1 z" />
      <text
         id="text664"
         style="font-size:10px;font-family:sans-serif;text-anchor:start;fill:#282828">
        <tspan
           id="tspan662"
           y="14"
           x="13">10</tspan>
      </text>
    </g>
  </g>
  <g
     id="g678"
     transform="matrix(0.26458333,0,0,0.26458333,3.571862,84.963469)">
    <g
       id="g676"
       transform="scale(1.5,1.5)">
      <path
         id="path670"
         style="fill:#b0b0b0;fill-opacity:1;stroke:#a0a0a0;stroke-width:1;stroke-linecap:round;stroke-opacity:1"
         d="m 0.5,8.5 0,-4 a 4,4 90 0 1 4,-4 l 4,0 0,2 10,0 0,-2 20,0 4,0 a 4,4 90 0 1 4,4 l 0,4 0,4 0,4 a 4,4 90 0 1 -4,4 l -4,0 -20,0 -1,0 0,2 -8,0 0,-2 -1,0 -4,0 a 4,4 90 0 1 -4,-4 l 0,-4 z" />
      <text
         id="text674"
         style="font-size:10px;font-family:sans-serif;text-anchor:end;fill:#282828">
        <tspan
           id="tspan672"
           y="14"
           x="36">↓</tspan>
      </text>
    </g>
  </g>
  <path
     id="path680"
     style="fill:#728ff9;fill-opacity:1;stroke:#5370dc;stroke-width:0.39687499;stroke-linecap:round;stroke-opacity:1"
     d="m 3.7702995,96.671281 0,-1.5875 c 0,-0.876752 0.710748,-1.5875 1.5875,-1.5875 l 1.5875,0 0,0.79375 3.9687505,0 0,-0.79375 19.976903,0 1.5875,0 c 0.876752,0 2.431506,1.350124 1.5875,1.5875 l 0,1.5875 -1.5875,0 0,-1.190625 -1.5875,0 0,3.96875 1.5875,0 0,-1.190625 1.5875,0 0,8.334379 0,6.74687 -1.5875,0 0,-1.19062 -1.5875,0 0,3.96875 1.5875,0 0,-1.19063 1.5875,0 0,1.5875 c 0,0.87675 -0.710748,1.5875 -1.5875,1.5875 l -1.5875,0 -19.976903,0 -0.396875,0 0,0.79375 -3.1750005,0 0,-0.79375 -0.396875,0 -1.5875,0 c -0.876752,0 -1.5875,-0.71075 -1.5875,-1.5875 l 0,-1.5875 0,-8.33437 0,-8.334379 z" />
  <text
     y="93.297844"
     x="9.2163067"
     id="text684"
     style="font-size:3.96875px;font-family:sans-serif;text-anchor:end;fill:#282828">
    <tspan
       id="tspan682"
       y="107.18847"
       x="29.853807">カンバスを動かす</tspan>
  </text>
  <text
     y="93.297844"
     x="9.2163067"
     id="text688"
     style="font-size:2.64583325px;font-family:sans-serif;text-anchor:end;fill:#282828">
    <tspan
       id="tspan686"
       y="98.060341"
       x="29.853807">よこいどう</tspan>
  </text>
  <text
     y="93.297844"
     x="9.2163067"
     id="text692"
     style="font-size:2.64583325px;font-family:sans-serif;text-anchor:end;fill:#282828">
    <tspan
       id="tspan690"
       y="114.7291"
       x="29.853807">たていどう</tspan>
  </text>
  <g
     id="g714"
     transform="matrix(0.26458333,0,0,0.26458333,31.08939,93.297844)">
    <g
       id="g712"
       transform="scale(1.5,1.5)">
      <path
         id="path698"
         style="fill:#ff5293;fill-opacity:1;stroke:#ff2c76;stroke-width:1;stroke-linecap:round;stroke-opacity:1"
         d="m 8.5,8.5 0,-4 a 4,4 90 0 1 4,-4 l 4,0 10,0 30,0 4,0 a 4,4 90 0 1 4,4 l 0,4 -4,0 0,-3 -4,0 0,10 4,0 0,-3 4,0 0,17 -4,0 0,-3 -4,0 0,10 4,0 0,-3 4,0 0,4 a 4,4 90 0 1 -4,4 l -4,0 -30,0 -10,0 -4,0 a 4,4 90 0 1 -4,-4 l 0,-4 0,-21 0,-1 -6,0 0,3 -2,0 0,-8 2,0 0,3 6,0 z" />
      <text
         id="text702"
         style="font-size:14px;font-family:sans-serif;text-anchor:end;fill:#282828">
        <tspan
           id="tspan700"
           y="24"
           x="54">×</tspan>
      </text>
      <text
         id="text706"
         style="font-size:9.33333302px;font-family:sans-serif;text-anchor:end;fill:#282828">
        <tspan
           id="tspan704"
           y="12"
           x="54" />
      </text>
      <text
         id="text710"
         style="font-size:9.33333302px;font-family:sans-serif;text-anchor:end;fill:#282828">
        <tspan
           id="tspan708"
           y="33"
           x="54" />
      </text>
    </g>
  </g>
  <g
     id="g724"
     transform="matrix(0.26458333,0,0,0.26458333,53.711259,93.297844)">
    <g
       id="g722"
       transform="scale(1.5,1.5)">
      <path
         id="path716"
         style="fill:#ff8b2d;fill-opacity:1;stroke:#e86b0e;stroke-width:1;stroke-linecap:round;stroke-opacity:1"
         d="m 8.5,0.5 86.147461,0 0,20 -86.147461,0 0,-8 0,-1 -6,0 0,3 -2,0 0,-8 2,0 0,3 6,0 0,-1 z" />
      <text
         id="text720"
         style="font-size:10px;font-family:sans-serif;text-anchor:start;fill:#282828">
        <tspan
           id="tspan718"
           y="14"
           x="13">音の長さ</tspan>
      </text>
    </g>
  </g>
  <g
     id="g734"
     transform="matrix(0.26458333,0,0,0.26458333,53.711259,101.63222)">
    <g
       id="g732"
       transform="scale(1.5,1.5)">
      <path
         id="path726"
         style="fill:#ff5293;fill-opacity:1;stroke:#ff2c76;stroke-width:1;stroke-linecap:round;stroke-opacity:1"
         d="m 8.5,0.5 60,0 0,20 -60,0 0,-8 0,-1 -6,0 0,3 -2,0 0,-8 2,0 0,3 6,0 0,-1 z" />
      <text
         id="text730"
         style="font-size:10px;font-family:sans-serif;text-anchor:start;fill:#282828">
        <tspan
           id="tspan728"
           y="14"
           x="13">-25</tspan>
      </text>
    </g>
  </g>
  <g
     id="g744"
     transform="matrix(0.26458333,0,0,0.26458333,31.08939,109.96659)">
    <g
       id="g742"
       transform="scale(1.5,1.5)">
      <path
         id="path736"
         style="fill:#ff5293;fill-opacity:1;stroke:#ff2c76;stroke-width:1;stroke-linecap:round;stroke-opacity:1"
         d="m 8.5,0.5 60,0 0,20 -60,0 0,-8 0,-1 -6,0 0,3 -2,0 0,-8 2,0 0,3 6,0 0,-1 z" />
      <text
         id="text740"
         style="font-size:10px;font-family:sans-serif;text-anchor:start;fill:#282828">
        <tspan
           id="tspan738"
           y="14"
           x="13">0</tspan>
      </text>
    </g>
  </g>
  <g
     id="g10916"
     transform="matrix(0.26458333,0,0,0.26458333,-229.92292,-19.314583)">
    <g
       transform="translate(869,73)"
       id="g1108">
      <g
         transform="scale(1.5,1.5)"
         id="g1106">
        <path
           d="m 0.5,8.5 0,-4 a 4,4 90 0 1 4,-4 l 4,0 0,2 10,0 0,-2 74.49707,0 4,0 a 4,4 90 0 1 4,4 l 0,4 -4,0 0,-3 -4,0 0,10 4,0 0,-3 4,0 0,4 a 4,4 90 0 1 -4,4 l -4,0 -74.49707,0 -1,0 0,2 -8,0 0,-2 -1,0 -4,0 a 4,4 90 0 1 -4,-4 l 0,-4 z"
           style="fill:#ff8b2d;fill-opacity:1;stroke:#e86b0e;stroke-width:1;stroke-linecap:round;stroke-opacity:1"
           id="path1096" />
        <text
           style="font-size:10px;font-family:sans-serif;text-anchor:end;fill:#282828"
           id="text1100">
          <tspan
             x="91"
             y="14"
             id="tspan1098">全ての音符に～する</tspan>
        </text>
        <text
           style="font-size:6.66666651px;font-family:sans-serif;text-anchor:end;fill:#282828"
           id="text1104">
          <tspan
             x="91"
             y="12"
             id="tspan1102" />
        </text>
      </g>
    </g>
    <g
       transform="translate(1009.2456,73)"
       id="g1118">
      <g
         transform="scale(1.5,1.5)"
         id="g1116">
        <path
           d="m 8.5,0.5 90,0 0,20 -90,0 0,-8 0,-1 -6,0 0,3 -2,0 0,-8 2,0 0,3 6,0 0,-1 z"
           style="fill:#ff5942;fill-opacity:1;stroke-width:1;stroke-linecap:round;stroke-opacity:1"
           id="path1110" />
        <text
           style="font-size:10px;font-family:sans-serif;text-anchor:start;fill:#282828"
           id="text1114">
          <tspan
             x="13"
             y="14"
             id="tspan1112">アクション</tspan>
        </text>
      </g>
    </g>
  </g>
</svg>
