<?xml version="1.0" encoding="UTF-8" standalone="no"?>
<svg
   xmlns:dc="http://purl.org/dc/elements/1.1/"
   xmlns:cc="http://creativecommons.org/ns#"
   xmlns:rdf="http://www.w3.org/1999/02/22-rdf-syntax-ns#"
   xmlns:svg="http://www.w3.org/2000/svg"
   xmlns="http://www.w3.org/2000/svg"
   width="64.139267mm"
   height="34.263546mm"
   viewBox="0 0 64.139267 34.263546"
   version="1.1"
   id="svg6234">
  <defs
     id="defs6228" />
  <metadata
     id="metadata6231">
    <rdf:RDF>
      <cc:Work
         rdf:about="">
        <dc:format>image/svg+xml</dc:format>
        <dc:type
           rdf:resource="http://purl.org/dc/dcmitype/StillImage" />
        <dc:title></dc:title>
      </cc:Work>
    </rdf:RDF>
  </metadata>
  <g
     transform="matrix(0.26458333,0,0,0.26458333,5.8868381,0)"
     id="g802">
    <g
       id="g800"
       transform="scale(1.5,1.5)">
      <path
         id="path794"
         style="fill:#92a9ff;fill-opacity:1;stroke:#5370dc;stroke-width:1;stroke-linecap:round;stroke-opacity:1"
         d="m -13.722222,8.5 0,-4 c 0,-2.209139 1.790861,-4 3.9999995,-4 l 4,0 0,2 10,0 0,-2 44.8081595,0 4,0 c 2.209139,0 4,1.790861 4,4 l 0,4 0,4 0,4 c 0,2.209139 -1.790861,4 -4,4 l -4,0 -44.8081595,0 -1,0 0,2 -8,0 0,-2 -1,0 -4,0 c -2.2091385,0 -6.1266295,-3.401885 -3.9999995,-4 l 0,-4 z" />
      <text
         id="text798"
         style="font-size:10px;font-family:sans-serif;text-anchor:end;fill:#282828">
        <tspan
           id="tspan796"
           y="14"
           x="47">ペンを上げる</tspan>
      </text>
    </g>
  </g>
  <g
     id="g812"
     transform="matrix(0.26458333,0,0,0.26458333,0.24239415,25.135421)">
    <g
       id="g810"
       transform="scale(1.5,1.5)">
      <path
         id="path804"
         style="fill:#92a9ff;fill-opacity:1;stroke:#5370dc;stroke-width:1;stroke-linecap:round;stroke-opacity:1"
         d="m 0.5,8.5 0,-4 a 4,4 90 0 1 4,-4 l 4,0 0,2 10,0 0,-2 43.369141,0 4,0 a 4,4 90 0 1 4,4 l 0,4 0,4 0,4 a 4,4 90 0 1 -4,4 l -4,0 -43.369141,0 -1,0 0,2 -8,0 0,-2 -1,0 -4,0 a 4,4 90 0 1 -4,-4 l 0,-4 z" />
      <text
         id="text808"
         style="font-size:10px;font-family:sans-serif;text-anchor:end;fill:#282828">
        <tspan
           id="tspan806"
           y="14"
           x="60">ペンを下ろす</tspan>
      </text>
    </g>
  </g>
  <g
     id="g830"
     transform="matrix(0.26458333,0,0,0.26458333,17.175727,8.466666)">
    <g
       id="g828"
       transform="scale(1.5,1.5)">
      <path
         id="path814"
         style="fill:#92a9ff;fill-opacity:1;stroke:#5370dc;stroke-width:1;stroke-linecap:round;stroke-opacity:1"
         d="m -42.166667,8.5 0,-4 c 0,-2.209139 1.790861,-4 4,-4 l 4,0 0,2 10,0 0,-2 72.666667,0 4,0 c 2.209139,0 4,1.790861 4,4 l 0,4 -4,0 0,-3 -4,0 0,10 4,0 0,-3 4,0 0,17 -4,0 0,-3 -4,0 0,10 4,0 0,-3 4,0 0,4 c 0,2.209139 -1.790861,4 -4,4 l -4,0 -72.666667,0 -1,0 0,2 -8,0 0,-2 -1,0 -4,0 c -2.209139,0 -6.12663,-3.401885 -4,-4 l 0,-4 0,-21 z" />
      <text
         id="text818"
         style="font-size:10px;font-family:sans-serif;text-anchor:end;fill:#282828">
        <tspan
           id="tspan816"
           y="24"
           x="46">指定ざひょうにいどう</tspan>
      </text>
      <text
         id="text822"
         style="font-size:6.66666651px;font-family:sans-serif;text-anchor:end;fill:#282828">
        <tspan
           id="tspan820"
           y="12"
           x="46">xざひょう （ネズミ）</tspan>
      </text>
      <text
         id="text826"
         style="font-size:6.66666651px;font-family:sans-serif;text-anchor:end;fill:#282828">
        <tspan
           id="tspan824"
           y="33"
           x="46">yざひょう （ネズミ）</tspan>
      </text>
    </g>
  </g>
  <g
     id="g840"
     transform="matrix(0.26458333,0,0,0.26458333,36.754894,8.466666)">
    <g
       id="g838"
       transform="scale(1.5,1.5)">
      <path
         id="path832"
         style="fill:#ff6ea1;fill-opacity:1;stroke:#ff2c76;stroke-width:1;stroke-linecap:round;stroke-opacity:1"
         d="m 8.5,0.5 60,0 0,20 -60,0 0,-8 0,-1 -6,0 0,3 -2,0 0,-8 2,0 0,3 6,0 0,-1 z" />
      <text
         id="text836"
         style="font-size:10px;font-family:sans-serif;text-anchor:start;fill:#282828">
        <tspan
           id="tspan834"
           y="14"
           x="13">0</tspan>
      </text>
    </g>
  </g>
  <g
     id="g850"
     transform="matrix(0.26458333,0,0,0.26458333,36.754894,16.933333)">
    <g
       id="g848"
       transform="scale(1.5,1.5)">
      <path
         id="path842"
         style="fill:#ff6ea1;fill-opacity:1;stroke:#ff2c76;stroke-width:1;stroke-linecap:round;stroke-opacity:1"
         d="m 8.5,0.5 60,0 0,20 -60,0 0,-8 0,-1 -6,0 0,3 -2,0 0,-8 2,0 0,3 6,0 0,-1 z" />
      <text
         id="text846"
         style="font-size:10px;font-family:sans-serif;text-anchor:start;fill:#282828">
        <tspan
           id="tspan844"
           y="14"
           x="13">0</tspan>
      </text>
    </g>
  </g>
</svg>
