<?xml version="1.0" encoding="UTF-8" standalone="no"?>
<svg
   xmlns:dc="http://purl.org/dc/elements/1.1/"
   xmlns:cc="http://creativecommons.org/ns#"
   xmlns:rdf="http://www.w3.org/1999/02/22-rdf-syntax-ns#"
   xmlns:svg="http://www.w3.org/2000/svg"
   xmlns="http://www.w3.org/2000/svg"
   id="svg3168"
   version="1.1"
   style=""
   height="226.66666650772095"
   width="330">
  <metadata
     id="metadata3174">
    <rdf:RDF>
      <cc:Work
         rdf:about="">
        <dc:format>image/svg+xml</dc:format>
        <dc:type
           rdf:resource="http://purl.org/dc/dcmitype/StillImage" />
        <dc:title></dc:title>
      </cc:Work>
    </rdf:RDF>
  </metadata>
  <defs
     id="defs3172" />
  <rect
     class=""
     style=""
     stroke="none"
     fill="none"
     y="0"
     x="0"
     height="100%"
     width="100%"
     id="backgroundrect" />
  <path
     id="svg_17"
     style="fill:#77c428;fill-opacity:1;stroke:#57ad02;stroke-width:1.5;stroke-linecap:round;stroke-opacity:1"
     d="m 19.416655,80.083325 v -6 c 0,-3.313708 2.686292,-6 6,-6 h 6 v 3 h 15 v -3 h 68.999995 6 c 3.31371,0 7.04789,2.856342 6,6 v 6 h -6 v -4.5 h -6 v 15 h 6 v -4.5 h 6 v 25.500005 h -6 v -4.5 h -6 v 14.99999 h 6 v -4.49999 h 6 v 5.99999 c 0,3.31371 -2.68629,6 -6,6 h -6 -68.999995 -1.5 v 3 h -12 v -3 h -1.5 -6 c -3.313708,0 -6,-2.68629 -6,-6 v -5.99999 -31.500005 z" />
  <text
     x="44.666656"
     y="67.333328"
     id="svg_18"
     style="font-size:15px;font-family:sans-serif;text-anchor:end;fill:#282828;stroke-width:1.5">
    <tspan
       style="stroke-width:1.5"
       id="svg_19"
       y="103.33333"
       x="113.66666">音の高さ</tspan>
  </text>
  <text
     x="44.666656"
     y="67.333328"
     id="svg_20"
     style="font-size:10px;font-family:sans-serif;text-anchor:end;fill:#282828;stroke-width:1.5">
    <tspan
       style="stroke-width:1.5"
       id="svg_21"
       y="85.333328"
       x="113.66666">名前</tspan>
  </text>
  <text
     x="44.666656"
     y="67.333328"
     id="svg_22"
     style="font-size:10px;font-family:sans-serif;text-anchor:end;fill:#282828;stroke-width:1.5">
    <tspan
       style="stroke-width:1.5"
       id="svg_23"
       y="116.83333"
       x="113.66666">オクターヴの高さ</tspan>
  </text>
  <path
     id="svg_26"
     style="fill:#77c428;fill-opacity:1;stroke:#57ad02;stroke-width:1.5;stroke-linecap:round;stroke-opacity:1"
     d="m 129.41665,68.083325 h 90 v 30 h -90 v -12 -1.5 h -8.99999 v 4.5 h -3 v -12 h 3 v 4.5 h 8.99999 v -1.5 z" />
  <text
     x="116.66666"
     y="67.333328"
     id="svg_27"
     style="font-size:15px;font-family:sans-serif;text-anchor:start;fill:#282828;stroke-width:1.5">
    <tspan
       style="stroke-width:1.5"
       id="svg_28"
       y="88.333328"
       x="136.16666">la</tspan>
  </text>
  <path
     id="svg_31"
     style="fill:#ff5293;fill-opacity:1;stroke:#ff2c76;stroke-width:1.5;stroke-linecap:round;stroke-opacity:1"
     d="m 129.41665,100.08333 h 90 v 29.99999 h -90 v -11.99999 -1.5 h -8.99999 v 4.5 h -3 v -12 h 3 v 4.5 h 8.99999 v -1.5 z" />
  <text
     x="116.66666"
     y="99.333328"
     id="svg_32"
     style="font-size:15px;font-family:sans-serif;text-anchor:start;fill:#282828;stroke-width:1.5">
    <tspan
       style="stroke-width:1.5"
       id="svg_33"
       y="120.33333"
       x="136.16666">4</tspan>
  </text>
  <path
     d="m 5.416655,16.083325 v -6 a 6,6 0 0 1 6,-6 h 6 v 3 h 15 v -3 h 13.5 89.999995 6 a 6,6 0 0 1 6,6 v 6 h -6 v -4.5 h -6 v 15 h 6 v -4.5 h 6 v 6 a 6,6 0 0 1 -6,6 h -6 -89.999995 -1.5 v 3 h -12 v -3 h -1.5 -6 a 7.5,7.5 0 0 0 -7.5,7.5 v 6 6 125.999995 6 a 7.5,7.5 0 0 0 7.5,7.5 h 6 v 3 h 15 v -3 h 12 v 9 9 6 a 6,6 0 0 1 -6,6 h -6 -13.5 -1.5 v 3 h -12 v -3 h -1.5 -6 a 6,6 0 0 1 -6,-6 v -6 z"
     style="fill:#ff8b2d;fill-opacity:1;stroke:#e86b0e;stroke-width:1.5;stroke-linecap:round;stroke-opacity:1"
     id="svg_37" />
  <text
     style="font-size:15px;font-family:sans-serif;text-anchor:start;fill:#282828;stroke-width:1.5"
     id="svg_38"
     y="3.3333244"
     x="4.6666565">
    <tspan
       style="stroke-width:1.5"
       x="34.666656"
       y="25.833324"
       id="svg_39">音符</tspan>
  </text>
  <text
     style="font-size:10px;font-family:sans-serif;text-anchor:end;fill:#282828;stroke-width:1.5"
     id="svg_40"
     y="3.3333244"
     x="4.6666565">
    <tspan
       style="stroke-width:1.5"
       x="132.16666"
       y="21.333324"
       id="svg_41">長さ</tspan>
  </text>
  <g
     transform="matrix(0.5,0,0,0.5,410,158)"
     id="レイヤー_2"
     data-name="レイヤー 2"
     style="isolation:isolate">
    <g
       id="Icon">
      <rect
         width="42"
         height="42"
         rx="5"
         ry="5"
         style="opacity:0.4;mix-blend-mode:multiply;fill:#292929"
         id="svg_44"
         y="-301.33334"
         x="-810.66669" />
      <path
         d="m -780.10671,-271.53336 -4.17,-4.16 h 2.26 a 1.035,1.035 0 1 0 0,-2.07 h -4.70999 a 1.08,1.08 0 0 0 -1.11,1 v 0 c 0,0 0,0 0,0.06 v 4.64 0 a 1.04,1.04 0 1 0 2.08,0 v -2.19 l 4.19,4.19 a 1,1 0 0 0 1.46,0 1,1 0 0 0 -10e-6,-1.47 z"
         style="fill:#ffffff"
         id="svg_45" />
      <path
         d="m -791.49672,-276.73334 a 1.08,1.08 0 0 0 -1.11,-1 h -4.71001 a 1.035,1.035 0 1 0 0,2.07 h 2.25 l -4.15997,4.12998 a 1.039447,1.039447 0 0 0 1.47,1.47 l 4.18,-4.19 v 2.26 a 1.04,1.04 0 1 0 2.07999,0 v -4.63997 c 0,0 0,0 0,-0.06 a 0.08,0.08 0 0 1 -10e-6,-0.04 z"
         style="fill:#ffffff"
         id="svg_46" />
      <path
         d="m -786.7267,-280.83334 h 4.69999 a 1.04,1.04 0 1 0 0,-2.08 h -2.24998 l 4.17,-4.16 a 1,1 0 0 0 0,-1.47 1,1 0 0 0 -1.46,0 l -4.19004,4.21 v -2.28 a 1.04,1.04 0 1 0 -2.08,0 v 4.64 a 0.43000001,0.43000001 0 0 0 0,0.05 v 0.05 a 1.09,1.09 0 0 0 1.11003,1.04 z"
         style="fill:#ffffff"
         id="svg_47" />
      <path
         d="m -792.5367,-287.71335 a 1.08,1.08 0 0 0 -1,1.09 v 2.29001 l -4.18,-4.19 a 1,1 0 0 0 -1.47,0 1,1 0 0 0 0,1.46 l 4.16,4.17 h -2.29003 a 1.04,1.04 0 1 0 0,2.08 h 4.71 a 1.09,1.09 0 0 0 1.11,-1 c 0,0 0,0 0,-0.06 v -4.75001 a 1.0700001,1.0700001 0 0 0 -1.03997,-1.09 z"
         style="fill:#ffffff"
         id="svg_48" />
    </g>
  </g>
  <path
     id="svg_51"
     style="fill:#ff5293;fill-opacity:1;stroke:#ff2c76;stroke-width:1.5;stroke-linecap:round;stroke-opacity:1"
     d="m 149.41665,16.083325 v -6 a 6,6 0 0 1 6,-6 h 6 15 45 6 a 6,6 0 0 1 6,6 v 6 h -6 v -4.5 h -6 v 15 h 6 v -4.5 h 6 v 25.5 h -6 v -4.5 h -6 v 14.999994 h 6 v -4.499994 h 6 v 5.999994 a 6,6 0 0 1 -6,6 h -6 -45 -15 -6 a 6,6 0 0 1 -6,-6 v -5.999994 -31.5 -1.5 h -9 v 4.5 h -3 v -12 h 3 v 4.5 h 9 z" />
  <text
     x="136.66666"
     y="3.3333244"
     id="svg_52"
     style="font-size:13.5px;font-family:sans-serif;text-anchor:end;fill:#282828;stroke-width:1.5">
    <tspan
       style="stroke-width:1.5"
       id="svg_53"
       y="37.833324"
       x="217.66666">➗</tspan>
  </text>
  <text
     x="136.66666"
     y="3.3333244"
     id="svg_54"
     style="font-size:9px;font-family:sans-serif;text-anchor:end;fill:#282828;stroke-width:1.5" />
  <text
     x="136.66666"
     y="3.3333244"
     id="svg_56"
     style="font-size:9px;font-family:sans-serif;text-anchor:end;fill:#282828;stroke-width:1.5" />
  <path
     id="svg_60"
     style="fill:#ff5293;fill-opacity:1;stroke:#ff2c76;stroke-width:1.5;stroke-linecap:round;stroke-opacity:1"
     d="m 235.41665,4.083325 h 90 v 30 h -90 v -12 -1.5 h -9 v 4.5 h -3 v -12 h 3 v 4.5 h 9 v -1.5 z" />
  <text
     x="222.66666"
     y="3.3333244"
     id="svg_61"
     style="font-size:15px;font-family:sans-serif;text-anchor:start;fill:#282828;stroke-width:1.5">
    <tspan
       style="stroke-width:1.5"
       id="svg_62"
       y="24.333324"
       x="242.16666">1</tspan>
  </text>
  <path
     id="svg_65"
     style="fill:#ff5293;fill-opacity:1;stroke:#ff2c76;stroke-width:1.5;stroke-linecap:round;stroke-opacity:1"
     d="m 235.41665,36.083325 h 90 v 30 h -90 v -12 -1.5 h -9 v 4.5 h -3 v -12 h 3 v 4.5 h 9 v -1.5 z" />
  <text
     x="222.66666"
     y="35.333324"
     id="svg_66"
     style="font-size:15px;font-family:sans-serif;text-anchor:start;fill:#282828;stroke-width:1.5">
    <tspan
       style="stroke-width:1.5"
       id="svg_67"
       y="56.333324"
       x="242.16666">4</tspan>
  </text>
  <path
     id="svg_70"
     style="fill:#b0b0b0;fill-opacity:1;stroke:#a0a0a0;stroke-width:1.5;stroke-linecap:round;stroke-opacity:1"
     d="m 19.416655,48.083325 v -6 a 6,6 0 0 1 6,-6 h 6 v 3 h 15 v -3 h 30 6 a 6,6 0 0 1 6,6 v 6 6 6 a 6,6 0 0 1 -6,6 h -6 -30 -1.5 v 3 h -12 v -3 h -1.5 -6 a 6,6 0 0 1 -6,-6 v -6 z" />
  <text
     x="18.666656"
     y="35.333324"
     id="svg_71"
     style="font-size:15px;font-family:sans-serif;text-anchor:end;fill:#282828;stroke-width:1.5">
    <tspan
       style="stroke-width:1.5"
       id="svg_72"
       y="56.333324"
       x="72.666656">↓</tspan>
  </text>
  <path
     id="svg_75"
     style="fill:#77c428;fill-opacity:1;stroke:#57ad02;stroke-width:1.5;stroke-linecap:round;stroke-opacity:1"
     d="m 19.416655,143.08332 v -6 c 0,-3.31371 2.686292,-6 6,-6 h 6 v 3 h 15 v -3 h 68.999995 6 c 3.31371,0 7.04789,2.85634 6,6 v 6 h -6 v -4.5 h -6 v 15 h 6 v -4.5 h 6 v 25.5 h -6 v -4.5 h -6 v 15 h 6 v -4.5 h 6 v 6 c 0,3.31371 -2.68629,6 -6,6 h -6 -68.999995 -1.5 v 3 h -12 v -3 h -1.5 -6 c -3.313708,0 -6,-2.68629 -6,-6 v -6 -31.5 z" />
  <text
     x="44.666656"
     y="130.33333"
     id="svg_76"
     style="font-size:15px;font-family:sans-serif;text-anchor:end;fill:#282828;stroke-width:1.5">
    <tspan
       style="stroke-width:1.5"
       id="svg_77"
       y="166.33333"
       x="113.66666">音の高さ</tspan>
  </text>
  <text
     x="44.666656"
     y="130.33333"
     id="svg_78"
     style="font-size:10px;font-family:sans-serif;text-anchor:end;fill:#282828;stroke-width:1.5">
    <tspan
       style="stroke-width:1.5"
       id="svg_79"
       y="148.33333"
       x="113.66666">名前</tspan>
  </text>
  <text
     x="44.666656"
     y="130.33333"
     id="svg_80"
     style="font-size:10px;font-family:sans-serif;text-anchor:end;fill:#282828;stroke-width:1.5">
    <tspan
       style="stroke-width:1.5"
       id="svg_81"
       y="179.83333"
       x="113.66666">オクターヴの高さ</tspan>
  </text>
  <path
     id="svg_84"
     style="fill:#77c428;fill-opacity:1;stroke:#57ad02;stroke-width:1.5;stroke-linecap:round;stroke-opacity:1"
     d="m 129.41665,131.08332 h 90 v 30 h -90 v -12 -1.5 h -8.99999 v 4.5 h -3 v -12 h 3 v 4.5 h 8.99999 v -1.5 z" />
  <text
     x="116.66666"
     y="130.33333"
     id="svg_85"
     style="font-size:15px;font-family:sans-serif;text-anchor:start;fill:#282828;stroke-width:1.5">
    <tspan
       style="stroke-width:1.5"
       id="svg_86"
       y="151.33333"
       x="136.16666">sol</tspan>
  </text>
  <path
     id="svg_89"
     style="fill:#ff5293;fill-opacity:1;stroke:#ff2c76;stroke-width:1.5;stroke-linecap:round;stroke-opacity:1"
     d="m 129.41665,163.08332 h 90 v 30 h -90 v -12 -1.5 h -8.99999 v 4.5 h -3 v -12 h 3 v 4.5 h 8.99999 v -1.5 z" />
  <text
     x="116.66666"
     y="162.33333"
     id="svg_90"
     style="font-size:15px;font-family:sans-serif;text-anchor:start;fill:#282828;stroke-width:1.5">
    <tspan
       style="stroke-width:1.5"
       id="svg_91"
       y="183.33333"
       x="136.16666">4</tspan>
  </text>
</svg>
