<?xml version="1.0" encoding="UTF-8" standalone="no"?>
<svg
   xmlns:dc="http://purl.org/dc/elements/1.1/"
   xmlns:cc="http://creativecommons.org/ns#"
   xmlns:rdf="http://www.w3.org/1999/02/22-rdf-syntax-ns#"
   xmlns:svg="http://www.w3.org/2000/svg"
   xmlns="http://www.w3.org/2000/svg"
   width="73.554169mm"
   height="9.1281252mm"
   viewBox="0 0 73.554168 9.1281252"
   version="1.1"
   id="svg1870">
  <defs
     id="defs1864" />
  <metadata
     id="metadata1867">
    <rdf:RDF>
      <cc:Work
         rdf:about="">
        <dc:format>image/svg+xml</dc:format>
        <dc:type
           rdf:resource="http://purl.org/dc/dcmitype/StillImage" />
        <dc:title></dc:title>
      </cc:Work>
    </rdf:RDF>
  </metadata>
  <g
     id="layer1"
     transform="translate(-142.1966,-192.21369)">
    <path
       d="m 142.39504,195.58713 v -1.5875 a 1.5875,1.5875 0 0 1 1.5875,-1.5875 h 1.5875 v 0.79375 h 3.96875 v -0.79375 h 11.90625 1.5875 a 1.5875,1.5875 0 0 1 1.5875,1.5875 v 1.5875 h -1.5875 v -1.19063 h -1.5875 v 3.96875 h 1.5875 v -1.19062 h 1.5875 v 1.5875 a 1.5875,1.5875 0 0 1 -1.5875,1.5875 h -1.5875 -11.90625 -0.39688 v 0.79375 h -3.175 v -0.79375 h -0.39687 -1.5875 a 1.5875,1.5875 0 0 1 -1.5875,-1.5875 v -1.5875 z"
       style="fill:#b0b0b0;fill-opacity:1;stroke:#a0a0a0;stroke-width:0.39687499;stroke-linecap:round;stroke-opacity:1"
       id="path564" />
    <text
       style="font-size:3.96875px;font-family:sans-serif;text-anchor:end;fill:#282828;stroke-width:0.39687499"
       id="text568"
       x="142.19659"
       y="192.21368">
      <tspan
         x="160.45285"
         y="197.76994"
         id="tspan566"
         style="stroke-width:0.39687499">表示</tspan>
    </text>
    <text
       style="font-size:2.64583325px;font-family:sans-serif;text-anchor:end;fill:#282828;stroke-width:0.39687499"
       id="text572"
       x="142.19659"
       y="192.21368">
      <tspan
         x="160.45285"
         y="196.9762"
         id="tspan570"
         style="stroke-width:0.39687499" />
    </text>
    <path
       d="m 165.01691,192.41213 h 35.71875 v 7.9375 h -35.71875 v -3.175 -0.39688 h -2.38125 v 1.19063 h -0.79375 v -3.175 h 0.79375 v 1.19062 h 2.38125 v -0.39687 z"
       style="fill:#ff5942;fill-opacity:1;stroke:#ea4326;stroke-width:0.39687499;stroke-linecap:round;stroke-opacity:1"
       id="path578" />
    <text
       style="font-size:3.96875px;font-family:sans-serif;text-anchor:start;fill:#282828;stroke-width:0.39687499"
       id="text582"
       x="161.64346"
       y="192.21368">
      <tspan
         x="166.80284"
         y="197.76994"
         id="tspan580"
         style="stroke-width:0.39687499">Hello World</tspan>
    </text>
    <path
       id="path3775"
       style="fill:#ff5942;fill-opacity:1;stroke:#ea4326;stroke-width:0.39687499;stroke-linecap:round;stroke-opacity:1"
       d="m 142.39504,195.58713 v -1.5875 a 1.5875,1.5875 0 0 1 1.5875,-1.5875 h 1.5875 v 0.79375 h 3.96875 v -0.79375 h 11.90625 1.5875 a 1.5875,1.5875 0 0 1 1.5875,1.5875 v 1.5875 h -1.5875 v -1.19063 h -1.5875 v 3.96875 h 1.5875 v -1.19062 h 1.5875 v 1.5875 a 1.5875,1.5875 0 0 1 -1.5875,1.5875 h -1.5875 -11.90625 -0.39688 v 0.79375 h -3.175 v -0.79375 h -0.39687 -1.5875 a 1.5875,1.5875 0 0 1 -1.5875,-1.5875 v -1.5875 z" />
    <text
       id="text3779"
       style="font-size:3.96875px;font-family:sans-serif;text-anchor:end;fill:#282828;stroke-width:0.39687499"
       x="142.19659"
       y="192.21368">
      <tspan
         id="tspan3777"
         y="197.76994"
         x="160.45285"
         style="stroke-width:0.39687499">結果を表示</tspan>
    </text>
    <text
       id="text3783"
       style="font-size:2.64583325px;font-family:sans-serif;text-anchor:end;fill:#282828;stroke-width:0.39687499"
       x="142.19659"
       y="192.21368">
      <tspan
         id="tspan3781"
         y="196.9762"
         x="160.45285"
         style="stroke-width:0.39687499" />
    </text>
    <path
       id="path3789"
       style="fill:#ff5942;fill-opacity:1;stroke:#ea4326;stroke-width:0.39687499;stroke-linecap:round;stroke-opacity:1"
       d="m 165.01691,192.41213 h 50.53542 v 7.9375 h -50.53542 v -3.175 -0.39688 h -2.38125 v 1.19063 h -0.79375 v -3.175 h 0.79375 v 1.19062 h 2.38125 v -0.39687 z" />
    <text
       id="text3793"
       style="font-size:3.96875px;font-family:sans-serif;text-anchor:start;fill:#282828;stroke-width:0.39687499"
       x="161.64346"
       y="192.21368">
      <tspan
         id="tspan3791"
         y="197.76994"
         x="166.80284"
         style="stroke-width:0.39687499">ミュージック・ブロックス</tspan>
    </text>
  </g>
</svg>
