<?xml version="1.0" encoding="UTF-8" standalone="no"?>
<svg
   width="440.5"
   height="176.34308"
   version="1.1"
   id="svg88"
   sodipodi:docname="sampler_block.svg"
   inkscape:version="1.2.2 (b0a8486541, 2022-12-01)"
   xmlns:inkscape="http://www.inkscape.org/namespaces/inkscape"
   xmlns:sodipodi="http://sodipodi.sourceforge.net/DTD/sodipodi-0.dtd"
   xmlns="http://www.w3.org/2000/svg"
   xmlns:svg="http://www.w3.org/2000/svg">
  <defs
     id="defs92" />
  <sodipodi:namedview
     id="namedview90"
     pagecolor="#ffffff"
     bordercolor="#666666"
     borderopacity="1.0"
     inkscape:showpageshadow="2"
     inkscape:pageopacity="0.0"
     inkscape:pagecheckerboard="0"
     inkscape:deskcolor="#d1d1d1"
     showgrid="false"
     inkscape:zoom="1.2917658"
     inkscape:cx="-202.04901"
     inkscape:cy="3.0965365"
     inkscape:window-width="2560"
     inkscape:window-height="1371"
     inkscape:window-x="0"
     inkscape:window-y="32"
     inkscape:window-maximized="1"
     inkscape:current-layer="svg88" />
  <g
     transform="translate(0,0.42153745)"
     id="g10">
    <g
       transform="scale(1.5)"
       id="g8">
      <path
         d="m 0.5,14.5 v -4 a 4,4 90 0 1 4,-4 h 4 l 5,-6 5,6 h 9 80 4 a 4,4 90 0 1 4,4 v 4 4 4 a 4,4 90 0 1 -4,4 h -4 -80 -1 v 2 h -8 v -2 h -1 -4 a 5,5 90 0 0 -5,5 v 4 4 42 4 a 5,5 90 0 0 5,5 h 4 v 2 h 10 v -2 h 8 v 6 6 4 a 4,4 90 0 1 -4,4 h -4 -9 l -5,6 -5,-6 h -4 a 4,4 90 0 1 -4,-4 v -4 z"
         style="fill:#7cd622;fill-opacity:1;stroke:#57ad02;stroke-width:1;stroke-linecap:round;stroke-opacity:1"
         id="path2" />
      <text
         style="font-size:10px;font-family:sans-serif;text-anchor:start;fill:#282828"
         id="text6"><tspan
           x="20"
           y="22"
           id="tspan4">サンプラー</tspan></text>
    </g>
  </g>
  <g
     transform="translate(14,41.421537)"
     id="g24">
    <g
       transform="scale(1.5)"
       id="g22">
      <path
         d="m 0.5,8.5 v -4 a 4,4 90 0 1 4,-4 h 4 v 2 h 10 v -2 h 9 80 4 a 4,4 90 0 1 4,4 v 4 h -4 v -3 h -4 v 10 h 4 v -3 h 4 v 4 a 4,4 90 0 1 -4,4 h -4 -80 -1 v 2 h -8 v -2 h -1 -4 a 5,5 90 0 0 -5,5 v 4 4 4 a 5,5 90 0 0 5,5 h 4 v 2 h 10 v -2 h 8 v 6 6 4 a 4,4 90 0 1 -4,4 h -4 -9 -1 v 2 h -8 v -2 h -1 -4 a 4,4 90 0 1 -4,-4 v -4 z"
         style="fill:#3edcdd;fill-opacity:1;stroke:#1dbcbd;stroke-width:1;stroke-linecap:round;stroke-opacity:1"
         id="path12" />
      <text
         style="font-size:10px;font-family:sans-serif;text-anchor:start;fill:#282828"
         id="text16"><tspan
           x="5"
           y="15"
           id="tspan14">音色をせってい</tspan></text>
      <text
         style="font-size:6.66667px;font-family:sans-serif;text-anchor:end;fill:#282828"
         id="text20"><tspan
           x="105"
           y="12"
           id="tspan18" /></text>
    </g>
  </g>
  <g
     transform="translate(176,41.421537)"
     id="g46">
    <g
       transform="scale(1.5)"
       id="g44">
      <path
         d="m 8.5,8.5 v -4 a 4,4 90 0 1 4,-4 h 4 10 60 4 a 4,4 90 0 1 4,4 v 4 h -4 v -3 h -4 v 10 h 4 v -3 h 4 v 17 h -4 v -3 h -4 v 10 h 4 v -3 h 4 v 17 h -4 v -3 h -4 v 10 h 4 v -3 h 4 v 4 a 4,4 90 0 1 -4,4 h -4 -60 -10 -4 a 4,4 90 0 1 -4,-4 v -4 -42 -1 h -6 v 3 h -2 v -8 h 2 v 3 h 6 z"
         style="fill:#3edcdd;fill-opacity:1;stroke:#1dbcbd;stroke-width:1;stroke-linecap:round;stroke-opacity:1"
         id="path26" />
      <text
         style="font-size:10px;font-family:sans-serif;text-anchor:end;fill:#282828"
         id="text30"><tspan
           x="84"
           y="20"
           id="tspan28">音色サンプル</tspan></text>
      <text
         style="font-size:6.66667px;font-family:sans-serif;text-anchor:end;fill:#282828"
         id="text34"><tspan
           x="84"
           y="12"
           id="tspan32">ファイル</tspan></text>
      <text
         style="font-size:6.66667px;font-family:sans-serif;text-anchor:end;fill:#282828"
         id="text38"><tspan
           x="84"
           y="33"
           id="tspan36">名前</tspan></text>
      <text
         style="font-size:6.66667px;font-family:sans-serif;text-anchor:end;fill:#282828"
         id="text42"><tspan
           x="84"
           y="54"
           id="tspan40">オクターヴの高さ</tspan></text>
    </g>
  </g>
  <g
     transform="translate(307,41.421537)"
     id="g56">
    <g
       transform="scale(1.5)"
       id="g54">
      <path
         d="m 8.5,0.5 h 80 v 20 h -80 v -8 -1 h -6 v 3 h -2 v -8 h 2 v 3 h 6 v -1 z"
         style="fill:#3edcdd;fill-opacity:1;stroke:#1dbcbd;stroke-width:1;stroke-linecap:round;stroke-opacity:1"
         id="path48" />
      <text
         style="font-size:10px;font-family:sans-serif;text-anchor:start;fill:#282828"
         id="text52"><tspan
           x="13"
           y="14"
           id="tspan50" /></text>
    </g>
  </g>
  <g
     transform="translate(307,73.421537)"
     id="g66">
    <g
       transform="scale(1.5)"
       id="g64">
      <path
         d="m 8.5,0.5 h 62.246094 v 20 H 8.5 v -8 -1 h -6 v 3 h -2 v -8 h 2 v 3 h 6 v -1 z"
         style="fill:#7cd622;fill-opacity:1;stroke:#57ad02;stroke-width:1;stroke-linecap:round;stroke-opacity:1"
         id="path58" />
      <text
         style="font-size:10px;font-family:sans-serif;text-anchor:start;fill:#282828"
         id="text62"><tspan
           x="13"
           y="14"
           id="tspan60">アクション</tspan></text>
    </g>
  </g>
  <g
     transform="translate(307,104.42154)"
     id="g76">
    <g
       transform="scale(1.5)"
       id="g74">
      <path
         d="m 8.5,0.5 h 60 v 20 h -60 v -8 -1 h -6 v 3 h -2 v -8 h 2 v 3 h 6 v -1 z"
         style="fill:#ff6ea1;fill-opacity:1;stroke:#ff2c76;stroke-width:1;stroke-linecap:round;stroke-opacity:1"
         id="path68" />
      <text
         style="font-size:10px;font-family:sans-serif;text-anchor:start;fill:#282828"
         id="text72"><tspan
           x="13"
           y="14"
           id="tspan70">4</tspan></text>
    </g>
  </g>
  <g
     transform="translate(28,73.421537)"
     id="g86">
    <g
       transform="scale(1.5)"
       id="g84">
      <path
         d="m 0.5,8.5 v -4 a 4,4 90 0 1 4,-4 h 4 v 2 h 10 v -2 h 20 4 a 4,4 90 0 1 4,4 v 4 4 4 a 4,4 90 0 1 -4,4 h -4 -20 -1 v 2 h -8 v -2 h -1 -4 a 4,4 90 0 1 -4,-4 v -4 z"
         style="fill:#c4c4c4;fill-opacity:1;stroke:#a0a0a0;stroke-width:1;stroke-linecap:round;stroke-opacity:1"
         id="path78" />
      <text
         style="font-size:10px;font-family:sans-serif;text-anchor:end;fill:#282828"
         id="text82"><tspan
           x="36"
           y="14"
           id="tspan80">↓</tspan></text>
    </g>
  </g>
</svg>
