<?xml version="1.0" encoding="UTF-8" standalone="no"?>
<svg
   xmlns:dc="http://purl.org/dc/elements/1.1/"
   xmlns:cc="http://creativecommons.org/ns#"
   xmlns:rdf="http://www.w3.org/1999/02/22-rdf-syntax-ns#"
   xmlns:svg="http://www.w3.org/2000/svg"
   xmlns="http://www.w3.org/2000/svg"
   id="svg1430"
   version="1.1"
   viewBox="0 0 78.043252 9.1281254"
   height="9.1281252mm"
   width="78.043251mm">
  <defs
     id="defs1424" />
  <metadata
     id="metadata1427">
    <rdf:RDF>
      <cc:Work
         rdf:about="">
        <dc:format>image/svg+xml</dc:format>
        <dc:type
           rdf:resource="http://purl.org/dc/dcmitype/StillImage" />
        <dc:title></dc:title>
      </cc:Work>
    </rdf:RDF>
  </metadata>
  <g
     transform="translate(-55.599667,-207.9203)"
     id="layer1">
    <g
       transform="matrix(0.26458333,0,0,0.26458333,70.275221,207.9203)"
       id="g100">
      <g
         id="g98"
         transform="scale(1.5,1.5)">
        <path
           id="path88"
           style="fill:#93e042;fill-opacity:1;stroke:#004000;stroke-width:1;stroke-linecap:round;stroke-opacity:1"
           d="m -36.477781,8.5 0,-4 c 0,-2.209139 1.790861,-4 4,-4 l 4,0 0,2 10,0 0,-2 108.950437,0 4,0 c 2.209139,0 4,1.790861 4,4 l 0,4 -4,0 0,-3 -4,0 0,10 4,0 0,-3 4,0 0,4 c 0,2.209139 -1.790861,4 -4,4 l -4,0 -108.950437,0 -1,0 0,2 -8,0 0,-2 -1,0 -4,0 c -2.209139,0 -4,-1.790861 -4,-4 l 0,-4 z" />
        <text
           id="text92"
           style="font-size:10px;font-family:sans-serif;text-anchor:end;fill:#000000">
          <tspan
             id="tspan90"
             y="14"
             x="88">音階内を上る／下りる (+/–)</tspan>
        </text>
        <text
           id="text96"
           style="font-size:6.66666651px;font-family:sans-serif;text-anchor:end;fill:#000000">
          <tspan
             id="tspan94"
             y="12"
             x="88" />
        </text>
      </g>
    </g>
    <g
       id="g110"
       transform="matrix(0.26458333,0,0,0.26458333,106.25855,207.9203)">
      <g
         id="g108"
         transform="scale(1.5,1.5)">
        <path
           id="path102"
           style="fill:#ffb2bc;fill-opacity:1;stroke:#601136;stroke-width:1;stroke-linecap:round;stroke-opacity:1"
           d="m 8.5,0.5 60,0 0,20 -60,0 0,-8 0,-1 -6,0 0,3 -2,0 0,-8 2,0 0,3 6,0 0,-1 z" />
        <text
           id="text106"
           style="font-size:10px;font-family:sans-serif;text-anchor:start;fill:#000000">
          <tspan
             id="tspan104"
             y="14"
             x="13">1</tspan>
        </text>
      </g>
    </g>
  </g>
</svg>
