<?xml version="1.0" encoding="UTF-8" standalone="no"?>
<svg
   xmlns:dc="http://purl.org/dc/elements/1.1/"
   xmlns:cc="http://creativecommons.org/ns#"
   xmlns:rdf="http://www.w3.org/1999/02/22-rdf-syntax-ns#"
   xmlns:svg="http://www.w3.org/2000/svg"
   xmlns="http://www.w3.org/2000/svg"
   width="143.40945mm"
   height="75.803123mm"
   viewBox="0 0 143.40945 75.803123"
   version="1.1"
   id="svg11666">
  <defs
     id="defs11660" />
  <metadata
     id="metadata11663">
    <rdf:RDF>
      <cc:Work
         rdf:about="">
        <dc:format>image/svg+xml</dc:format>
        <dc:type
           rdf:resource="http://purl.org/dc/dcmitype/StillImage" />
        <dc:title></dc:title>
      </cc:Work>
    </rdf:RDF>
  </metadata>
  <g
     id="layer1"
     transform="translate(393.51416,-42.612719)">
    <g
       id="g10652"
       transform="matrix(0.26458333,0,0,0.26458333,-822.9329,-30.41228)">
      <g
         id="g106">
        <g
           id="g86"
           transform="translate(1636.5,370.5)">
          <g
             id="g84"
             transform="scale(1.5)">
            <path
               id="path74"
               style="fill:#ff8b2d;fill-opacity:1;stroke:#e86b0e;stroke-width:1;stroke-linecap:round;stroke-opacity:1"
               d="m 0.5,8.5 v -4 a 4,4 90 0 1 4,-4 h 4 v 2 h 10 v -2 h 9 60 4 a 4,4 90 0 1 4,4 v 4 h -4 v -3 h -4 v 10 h 4 v -3 h 4 v 4 a 4,4 90 0 1 -4,4 h -4 -60 -1 v 2 h -8 v -2 h -1 -4 a 5,5 90 0 0 -5,5 v 4 4 42 4 a 5,5 90 0 0 5,5 h 4 v 2 h 10 v -2 h 8 v 6 6 4 a 4,4 90 0 1 -4,4 h -4 -9 -1 v 2 h -8 v -2 h -1 -4 a 4,4 90 0 1 -4,-4 v -4 z" />
            <text
               id="text78"
               style="font-size:10px;font-family:sans-serif;text-anchor:start;fill:#282828">
              <tspan
                 id="tspan76"
                 y="15"
                 x="20">音符</tspan>
            </text>
            <text
               id="text82"
               style="font-size:6.66666651px;font-family:sans-serif;text-anchor:end;fill:#282828">
              <tspan
                 id="tspan80"
                 y="12"
                 x="85">長さ</tspan>
            </text>
          </g>
        </g>
        <g
           id="g104"
           transform="matrix(0.5,0,0,0.5,1636.5,374.5)">
          <g
             id="g102"
             style="isolation:isolate">
            <g
               data-name="レイヤー 2"
               id="g100">
              <g
                 id="g98">
                <rect
                   id="rect88"
                   style="opacity:0.4;mix-blend-mode:multiply;fill:#292929"
                   ry="5"
                   rx="5"
                   height="42"
                   width="42"
                   x="0"
                   y="0" />
                <path
                   id="path90"
                   style="fill:#ffffff"
                   d="m 30.56,29.8 -4.17,-4.16 h 2.26 a 1.035,1.035 0 1 0 0,-2.07 h -4.71 a 1.08,1.08 0 0 0 -1.11,1 v 0 c 0,0 0,0 0,0.06 v 4.64 0 a 1.04,1.04 0 1 0 2.08,0 v -2.19 l 4.19,4.19 a 1,1 0 0 0 1.46,0 1,1 0 0 0 0,-1.47 z" />
                <path
                   id="path92"
                   style="fill:#ffffff"
                   d="m 19.17,24.6 a 1.08,1.08 0 0 0 -1.11,-1 h -4.71 a 1.035,1.035 0 1 0 0,2.07 h 2.25 l -4.16,4.13 a 1.039447,1.039447 0 0 0 1.47,1.47 l 4.18,-4.19 v 2.26 a 1.04,1.04 0 1 0 2.08,0 V 24.7 c 0,0 0,0 0,-0.06 a 0.08,0.08 0 0 1 0,-0.04 z" />
                <path
                   id="path94"
                   style="fill:#ffffff"
                   d="m 23.94,20.5 h 4.7 a 1.04,1.04 0 1 0 0,-2.08 h -2.25 l 4.17,-4.16 a 1,1 0 0 0 0,-1.47 1,1 0 0 0 -1.46,0 L 24.91,17 v -2.28 a 1.04,1.04 0 1 0 -2.08,0 v 4.64 a 0.43,0.43 0 0 0 0,0.05 v 0.05 a 1.09,1.09 0 0 0 1.11,1.04 z" />
                <path
                   id="path96"
                   style="fill:#ffffff"
                   d="m 18.13,13.62 a 1.08,1.08 0 0 0 -1,1.09 V 17 l -4.18,-4.19 a 1,1 0 0 0 -1.47,0 1,1 0 0 0 0,1.46 l 4.16,4.17 h -2.29 a 1.04,1.04 0 1 0 0,2.08 h 4.71 a 1.09,1.09 0 0 0 1.11,-1 c 0,0 0,0 0,-0.06 v -4.75 a 1.07,1.07 0 0 0 -1.04,-1.09 z" />
              </g>
            </g>
          </g>
        </g>
      </g>
      <g
         id="g124"
         transform="translate(1768.5,370.5)">
        <g
           id="g122"
           transform="scale(1.5)">
          <path
             id="path108"
             style="fill:#ff5293;fill-opacity:1;stroke:#ff2c76;stroke-width:1;stroke-linecap:round;stroke-opacity:1"
             d="m 8.5,8.5 v -4 a 4,4 90 0 1 4,-4 h 4 10 30 4 a 4,4 90 0 1 4,4 v 4 h -4 v -3 h -4 v 10 h 4 v -3 h 4 v 17 h -4 v -3 h -4 v 10 h 4 v -3 h 4 v 4 a 4,4 90 0 1 -4,4 h -4 -30 -10 -4 a 4,4 90 0 1 -4,-4 v -4 -21 -1 h -6 v 3 h -2 v -8 h 2 v 3 h 6 z" />
          <text
             id="text112"
             style="font-size:9px;font-family:sans-serif;text-anchor:end;fill:#282828">
            <tspan
               id="tspan110"
               y="23"
               x="54">➗</tspan>
          </text>
          <text
             id="text116"
             style="font-size:6px;font-family:sans-serif;text-anchor:end;fill:#282828">
            <tspan
               id="tspan114"
               y="12"
               x="54" />
          </text>
          <text
             id="text120"
             style="font-size:6px;font-family:sans-serif;text-anchor:end;fill:#282828">
            <tspan
               id="tspan118"
               y="33"
               x="54" />
          </text>
        </g>
      </g>
      <g
         id="g134"
         transform="translate(1854,370.5)">
        <g
           id="g132"
           transform="scale(1.5)">
          <path
             id="path126"
             style="fill:#ff5293;fill-opacity:1;stroke:#ff2c76;stroke-width:1;stroke-linecap:round;stroke-opacity:1"
             d="m 8.5,0.5 h 60 v 20 h -60 v -8 -1 h -6 v 3 h -2 v -8 h 2 v 3 h 6 v -1 z" />
          <text
             id="text130"
             style="font-size:10px;font-family:sans-serif;text-anchor:start;fill:#282828">
            <tspan
               id="tspan128"
               y="14"
               x="13">1</tspan>
          </text>
        </g>
      </g>
      <g
         id="g144"
         transform="translate(1854,402)">
        <g
           id="g142"
           transform="scale(1.5)">
          <path
             id="path136"
             style="fill:#ff5293;fill-opacity:1;stroke:#ff2c76;stroke-width:1;stroke-linecap:round;stroke-opacity:1"
             d="m 8.5,0.5 h 60 v 20 h -60 v -8 -1 h -6 v 3 h -2 v -8 h 2 v 3 h 6 v -1 z" />
          <text
             id="text140"
             style="font-size:10px;font-family:sans-serif;text-anchor:start;fill:#282828">
            <tspan
               id="tspan138"
               y="14"
               x="13">4</tspan>
          </text>
        </g>
      </g>
      <g
         id="g154"
         transform="translate(1650,402)">
        <g
           id="g152"
           transform="scale(1.5)">
          <path
             id="path146"
             style="fill:#b0b0b0;fill-opacity:1;stroke:#a0a0a0;stroke-width:1;stroke-linecap:round;stroke-opacity:1"
             d="m 0.5,8.5 v -4 a 4,4 90 0 1 4,-4 h 4 v 2 h 10 v -2 h 20 4 a 4,4 90 0 1 4,4 v 4 4 4 a 4,4 90 0 1 -4,4 h -4 -20 -1 v 2 h -8 v -2 h -1 -4 a 4,4 90 0 1 -4,-4 v -4 z" />
          <text
             id="text150"
             style="font-size:10px;font-family:sans-serif;text-anchor:end;fill:#282828">
            <tspan
               id="tspan148"
               y="14"
               x="36">↓</tspan>
          </text>
        </g>
      </g>
      <g
         id="g172"
         transform="translate(1650,433.5)">
        <g
           id="g170"
           transform="scale(1.5)">
          <path
             id="path156"
             style="fill:#77c428;fill-opacity:1;stroke:#57ad02;stroke-width:1;stroke-linecap:round;stroke-opacity:1"
             d="m 0.5,8.5 v -4 a 4,4 90 0 1 4,-4 h 4 v 2 h 10 v -2 h 30 4 a 4,4 90 0 1 4,4 v 4 h -4 v -3 h -4 v 10 h 4 v -3 h 4 v 17 h -4 v -3 h -4 v 10 h 4 v -3 h 4 v 4 a 4,4 90 0 1 -4,4 h -4 -30 -1 v 2 h -8 v -2 h -1 -4 a 4,4 90 0 1 -4,-4 v -4 -21 z" />
          <text
             id="text160"
             style="font-size:10px;font-family:sans-serif;text-anchor:end;fill:#282828">
            <tspan
               id="tspan158"
               y="24"
               x="46">音の高さ</tspan>
          </text>
          <text
             id="text164"
             style="font-size:6.66666651px;font-family:sans-serif;text-anchor:end;fill:#282828">
            <tspan
               id="tspan162"
               y="12"
               x="46">名前</tspan>
          </text>
          <text
             id="text168"
             style="font-size:6.66666651px;font-family:sans-serif;text-anchor:end;fill:#282828">
            <tspan
               id="tspan166"
               y="33"
               x="46">オクターヴの高さ</tspan>
          </text>
        </g>
      </g>
      <g
         id="g182"
         transform="translate(1723.5,433.5)">
        <g
           id="g180"
           transform="scale(1.5)">
          <path
             id="path174"
             style="fill:#77c428;fill-opacity:1;stroke:#57ad02;stroke-width:1;stroke-linecap:round;stroke-opacity:1"
             d="m 8.5,0.5 h 60 v 20 h -60 v -8 -1 h -6 v 3 h -2 v -8 h 2 v 3 h 6 v -1 z" />
          <text
             id="text178"
             style="font-size:10px;font-family:sans-serif;text-anchor:start;fill:#282828">
            <tspan
               id="tspan176"
               y="14"
               x="13">ソ</tspan>
          </text>
        </g>
      </g>
      <g
         id="g192"
         transform="translate(1723.5,465)">
        <g
           id="g190"
           transform="scale(1.5)">
          <path
             id="path184"
             style="fill:#ff5293;fill-opacity:1;stroke:#ff2c76;stroke-width:1;stroke-linecap:round;stroke-opacity:1"
             d="m 8.5,0.5 h 60 v 20 h -60 v -8 -1 h -6 v 3 h -2 v -8 h 2 v 3 h 6 v -1 z" />
          <text
             id="text188"
             style="font-size:10px;font-family:sans-serif;text-anchor:start;fill:#282828">
            <tspan
               id="tspan186"
               y="14"
               x="13">4</tspan>
          </text>
        </g>
      </g>
      <g
         id="g1742">
        <g
           id="g1722"
           transform="translate(1623,276)">
          <g
             id="g1720"
             transform="scale(1.5)">
            <path
               id="path1710"
               style="fill:#77c428;fill-opacity:1;stroke:#57ad02;stroke-width:1;stroke-linecap:round;stroke-opacity:1"
               d="m 0.5,8.5 v -4 a 4,4 90 0 1 4,-4 h 4 v 2 h 10 v -2 h 9 115.30762 4 a 4,4 90 0 1 4,4 v 4 h -4 v -3 h -4 v 10 h 4 v -3 h 4 v 4 a 4,4 90 0 1 -4,4 h -4 H 27.5 h -1 v 2 h -8 v -2 h -1 -4 a 5,5 90 0 0 -5,5 v 4 4 126 4 a 5,5 90 0 0 5,5 h 4 v 2 h 10 v -2 h 8 v 6 6 4 a 4,4 90 0 1 -4,4 h -4 -9 -1 v 2 h -8 v -2 h -1 -4 a 4,4 90 0 1 -4,-4 v -4 z" />
            <text
               id="text1714"
               style="font-size:10px;font-family:sans-serif;text-anchor:start;fill:#282828">
              <tspan
                 id="tspan1712"
                 y="15"
                 x="20">音階の上下 (+/–)</tspan>
            </text>
            <text
               id="text1718"
               style="font-size:6.66666651px;font-family:sans-serif;text-anchor:end;fill:#282828">
              <tspan
                 id="tspan1716"
                 y="12"
                 x="141" />
            </text>
          </g>
        </g>
        <g
           id="g1740"
           transform="matrix(0.5,0,0,0.5,1623,280)">
          <g
             id="g1738"
             style="isolation:isolate">
            <g
               data-name="レイヤー 2"
               id="g1736">
              <g
                 id="g1734">
                <rect
                   id="rect1724"
                   style="opacity:0.4;mix-blend-mode:multiply;fill:#292929"
                   ry="5"
                   rx="5"
                   height="42"
                   width="42"
                   x="0"
                   y="0" />
                <path
                   id="path1726"
                   style="fill:#ffffff"
                   d="m 30.56,29.8 -4.17,-4.16 h 2.26 a 1.035,1.035 0 1 0 0,-2.07 h -4.71 a 1.08,1.08 0 0 0 -1.11,1 v 0 c 0,0 0,0 0,0.06 v 4.64 0 a 1.04,1.04 0 1 0 2.08,0 v -2.19 l 4.19,4.19 a 1,1 0 0 0 1.46,0 1,1 0 0 0 0,-1.47 z" />
                <path
                   id="path1728"
                   style="fill:#ffffff"
                   d="m 19.17,24.6 a 1.08,1.08 0 0 0 -1.11,-1 h -4.71 a 1.035,1.035 0 1 0 0,2.07 h 2.25 l -4.16,4.13 a 1.039447,1.039447 0 0 0 1.47,1.47 l 4.18,-4.19 v 2.26 a 1.04,1.04 0 1 0 2.08,0 V 24.7 c 0,0 0,0 0,-0.06 a 0.08,0.08 0 0 1 0,-0.04 z" />
                <path
                   id="path1730"
                   style="fill:#ffffff"
                   d="m 23.94,20.5 h 4.7 a 1.04,1.04 0 1 0 0,-2.08 h -2.25 l 4.17,-4.16 a 1,1 0 0 0 0,-1.47 1,1 0 0 0 -1.46,0 L 24.91,17 v -2.28 a 1.04,1.04 0 1 0 -2.08,0 v 4.64 a 0.43,0.43 0 0 0 0,0.05 v 0.05 a 1.09,1.09 0 0 0 1.11,1.04 z" />
                <path
                   id="path1732"
                   style="fill:#ffffff"
                   d="m 18.13,13.62 a 1.08,1.08 0 0 0 -1,1.09 V 17 l -4.18,-4.19 a 1,1 0 0 0 -1.47,0 1,1 0 0 0 0,1.46 l 4.16,4.17 h -2.29 a 1.04,1.04 0 1 0 0,2.08 h 4.71 a 1.09,1.09 0 0 0 1.11,-1 c 0,0 0,0 0,-0.06 v -4.75 a 1.07,1.07 0 0 0 -1.04,-1.09 z" />
              </g>
            </g>
          </g>
        </g>
      </g>
      <g
         id="g1760"
         transform="translate(1837.9614,276)">
        <g
           id="g1758"
           transform="scale(1.5)">
          <path
             id="path1744"
             style="fill:#ff5293;fill-opacity:1;stroke:#ff2c76;stroke-width:1;stroke-linecap:round;stroke-opacity:1"
             d="m 8.5,8.5 v -4 a 4,4 90 0 1 4,-4 h 4 10 30 4 a 4,4 90 0 1 4,4 v 4 h -4 v -3 h -4 v 10 h 4 v -3 h 4 v 17 h -4 v -3 h -4 v 10 h 4 v -3 h 4 v 4 a 4,4 90 0 1 -4,4 h -4 -30 -10 -4 a 4,4 90 0 1 -4,-4 v -4 -21 -1 h -6 v 3 h -2 v -8 h 2 v 3 h 6 z" />
          <text
             id="text1748"
             style="font-size:14px;font-family:sans-serif;text-anchor:end;fill:#282828">
            <tspan
               id="tspan1746"
               y="24"
               x="54">+</tspan>
          </text>
          <text
             id="text1752"
             style="font-size:9.33333302px;font-family:sans-serif;text-anchor:end;fill:#282828">
            <tspan
               id="tspan1750"
               y="12"
               x="54" />
          </text>
          <text
             id="text1756"
             style="font-size:9.33333302px;font-family:sans-serif;text-anchor:end;fill:#282828">
            <tspan
               id="tspan1754"
               y="33"
               x="54" />
          </text>
        </g>
      </g>
      <g
         id="g1770"
         transform="translate(1923.4614,276)">
        <g
           id="g1768"
           transform="scale(1.5)">
          <path
             id="path1762"
             style="fill:#ff5293;fill-opacity:1;stroke:#ff2c76;stroke-width:1;stroke-linecap:round;stroke-opacity:1"
             d="m 8.5,0.5 h 60 v 20 h -60 v -8 -1 h -6 v 3 h -2 v -8 h 2 v 3 h 6 v -1 z" />
          <text
             id="text1766"
             style="font-size:10px;font-family:sans-serif;text-anchor:start;fill:#282828">
            <tspan
               id="tspan1764"
               y="14"
               x="13">2</tspan>
          </text>
        </g>
      </g>
      <g
         id="g1788"
         transform="translate(1923.4614,307.5)">
        <g
           id="g1786"
           transform="scale(1.5)">
          <path
             id="path1772"
             style="fill:#ff5293;fill-opacity:1;stroke:#ff2c76;stroke-width:1;stroke-linecap:round;stroke-opacity:1"
             d="m 8.5,8.5 v -4 a 4,4 90 0 1 4,-4 h 4 10 30 4 a 4,4 90 0 1 4,4 v 4 h -4 v -3 h -4 v 10 h 4 v -3 h 4 v 17 h -4 v -3 h -4 v 10 h 4 v -3 h 4 v 4 a 4,4 90 0 1 -4,4 h -4 -30 -10 -4 a 4,4 90 0 1 -4,-4 v -4 -21 -1 h -6 v 3 h -2 v -8 h 2 v 3 h 6 z" />
          <text
             id="text1776"
             style="font-size:14px;font-family:sans-serif;text-anchor:end;fill:#282828">
            <tspan
               id="tspan1774"
               y="24"
               x="54">×</tspan>
          </text>
          <text
             id="text1780"
             style="font-size:9.33333302px;font-family:sans-serif;text-anchor:end;fill:#282828">
            <tspan
               id="tspan1778"
               y="12"
               x="54" />
          </text>
          <text
             id="text1784"
             style="font-size:9.33333302px;font-family:sans-serif;text-anchor:end;fill:#282828">
            <tspan
               id="tspan1782"
               y="33"
               x="54" />
          </text>
        </g>
      </g>
      <g
         id="g1798"
         transform="translate(2008.9614,307.5)">
        <g
           id="g1796"
           transform="scale(1.5)">
          <path
             id="path1790"
             style="fill:#ff5293;fill-opacity:1;stroke:#ff2c76;stroke-width:1;stroke-linecap:round;stroke-opacity:1"
             d="m 8.5,0.5 h 60 v 20 h -60 v -8 -1 h -6 v 3 h -2 v -8 h 2 v 3 h 6 v -1 z" />
          <text
             id="text1794"
             style="font-size:10px;font-family:sans-serif;text-anchor:start;fill:#282828">
            <tspan
               id="tspan1792"
               y="14"
               x="13">0</tspan>
          </text>
        </g>
      </g>
      <g
         id="g1808"
         transform="translate(2008.9614,339)">
        <g
           id="g1806"
           transform="scale(1.5)">
          <path
             id="path1800"
             style="fill:#77c428;fill-opacity:1;stroke:#57ad02;stroke-width:1;stroke-linecap:round;stroke-opacity:1"
             d="m 8.5,0.5 h 95.03906 v 20 H 8.5 v -8 -1 h -6 v 3 h -2 v -8 h 2 v 3 h 6 v -1 z" />
          <text
             id="text1804"
             style="font-size:10px;font-family:sans-serif;text-anchor:start;fill:#282828">
            <tspan
               id="tspan1802"
               y="14"
               x="13">音階の音数</tspan>
          </text>
        </g>
      </g>
      <g
         id="g1818"
         transform="translate(1636.5,307.5)">
        <g
           id="g1816"
           transform="scale(1.5)">
          <path
             id="path1810"
             style="fill:#b0b0b0;fill-opacity:1;stroke:#a0a0a0;stroke-width:1;stroke-linecap:round;stroke-opacity:1"
             d="m 0.5,8.5 v -4 a 4,4 90 0 1 4,-4 h 4 v 2 h 10 v -2 h 20 4 a 4,4 90 0 1 4,4 v 4 4 4 a 4,4 90 0 1 -4,4 h -4 -20 -1 v 2 h -8 v -2 h -1 -4 a 4,4 90 0 1 -4,-4 v -4 z" />
          <text
             id="text1814"
             style="font-size:10px;font-family:sans-serif;text-anchor:end;fill:#282828">
            <tspan
               id="tspan1812"
               y="14"
               x="36">↓</tspan>
          </text>
        </g>
      </g>
      <g
         id="g1828"
         transform="translate(1636.5,339)">
        <g
           id="g1826"
           transform="scale(1.5)">
          <path
             id="path1820"
             style="fill:#b0b0b0;fill-opacity:1;stroke:#a0a0a0;stroke-width:1;stroke-linecap:round;stroke-opacity:1"
             d="m 0.5,8.5 v -4 a 4,4 90 0 1 4,-4 h 4 v 2 h 10 v -2 h 20 4 a 4,4 90 0 1 4,4 v 4 4 4 a 4,4 90 0 1 -4,4 h -4 -20 -1 v 2 h -8 v -2 h -1 -4 a 4,4 90 0 1 -4,-4 v -4 z" />
          <text
             id="text1824"
             style="font-size:10px;font-family:sans-serif;text-anchor:end;fill:#282828">
            <tspan
               id="tspan1822"
               y="14"
               x="36">↓</tspan>
          </text>
        </g>
      </g>
    </g>
  </g>
</svg>
