<svg xmlns="http://www.w3.org/2000/svg" width="467.5" height="527.5"><g><g transform="translate(0, 100)"><g transform="scale(1.5, 1.5)"><path d="m0.5 14.5 L 0.5 10.5 A 4 4 90 0 1 4.5 6.5 L 8.5 6.5 L 13.5 0.5 L 18.5 6.5 L 27.5 6.5 L 105.5 6.5 L 109.5 6.5 A 4 4 90 0 1 113.5 10.5 L 113.5 14.5 L 109.5 14.5 L 109.5 11.5 L 105.5 11.5 L 105.5 21.5 L 109.5 21.5 L 109.5 18.5 L 113.5 18.5 L 113.5 22.5 A 4 4 90 0 1 109.5 26.5 L 105.5 26.5 L 27.5 26.5 L 26.5 26.5 L 26.5 28.5 L 18.5 28.5 L 18.5 26.5 L 17.5 26.5 L 13.5 26.5 A 5 5 90 0 0 8.5 31.5 L 8.5 35.5 L 8.5 39.5 L 8.5 249.5 L 8.5 253.5 A 5 5 90 0 0 13.5 258.5 L 17.5 258.5 L 17.5 260.5 L 27.5 260.5 L 27.5 258.5 L 35.5 258.5 L 35.5 264.5 L 35.5 270.5 L 35.5 274.5 A 4 4 90 0 1 31.5 278.5 L 27.5 278.5 L 18.5 278.5 L 13.5 284.5 L 8.5 278.5 L 4.5 278.5 A 4 4 90 0 1 0.5 274.5 L 0.5 270.5 z" style="fill:#FFBF00;fill-opacity:1;stroke:#DAAF30;stroke-width:1;stroke-linecap:round;stroke-opacity:1;" /><text style="font-size:10px;fill:#282828;font-family:sans-serif;text-anchor:start"><tspan x="20" y="22">アクション</tspan></text><text style="font-size:6.666666666666667px;fill:#282828;font-family:sans-serif;text-anchor:end"><tspan x="103" y="6"></tspan></text></g></g><g transform="translate(0, 112) scale(0.5 0.5)"><g style="isolation:isolate"><g id="レイヤー_2" data-name="レイヤー 2"><g id="Icon"><rect width="42" height="42" rx="5" ry="5" style="fill:#292929;opacity:0.4;mix-blend-mode:multiply"/><path d="M30.56,29.8l-4.17-4.16h2.26a1,1,0,1,0,0-2.07H23.94a1.08,1.08,0,0,0-1.11,1v0s0,0,0,.06v4.64h0a1,1,0,1,0,2.08,0V27.08l4.19,4.19a1,1,0,0,0,1.46,0A1,1,0,0,0,30.56,29.8Z" style="fill:#fff"/><path d="M19.17,24.6a1.08,1.08,0,0,0-1.11-1H13.35a1,1,0,1,0,0,2.07H15.6L11.44,29.8a1,1,0,0,0,1.47,1.47l4.18-4.19v2.26a1,1,0,1,0,2.08,0V24.7s0,0,0-.06A.08.08,0,0,1,19.17,24.6Z" style="fill:#fff"/><path d="M23.94,20.5h4.7a1,1,0,1,0,0-2.08H26.39l4.17-4.16a1,1,0,0,0,0-1.47,1,1,0,0,0-1.46,0L24.91,17V14.72a1,1,0,1,0-2.08,0v4.64a.43.43,0,0,0,0,.05v.05A1.09,1.09,0,0,0,23.94,20.5Z" style="fill:#fff"/><path d="M18.13,13.62a1.08,1.08,0,0,0-1,1.09V17l-4.18-4.19a1,1,0,0,0-1.47,0,1,1,0,0,0,0,1.46l4.16,4.17H13.35a1,1,0,1,0,0,2.08h4.71a1.09,1.09,0,0,0,1.11-1,.08.08,0,0,1,0,0s0,0,0-.06V14.71A1.07,1.07,0,0,0,18.13,13.62Z" style="fill:#fff"/></g></g></g></g></g><g transform="translate(159, 109)"><g transform="scale(1.5, 1.5)"><path d="m8.5 0.5 L 98.5 0.5 L 98.5 20.5 L 8.5 20.5 L 8.5 12.5 L 8.5 11.5 L 2.5 11.5 L 2.5 14.5 L 0.5 14.5 L 0.5 6.5 L 2.5 6.5 L 2.5 9.5 L 8.5 9.5 L 8.5 8.5 z" style="fill:#FF664B;fill-opacity:1;stroke:#EA4326;stroke-width:1;stroke-linecap:round;stroke-opacity:1;" /><text style="font-size:10px;fill:#282828;font-family:sans-serif;text-anchor:start"><tspan x="13" y="14">アクション</tspan></text></g></g><g transform="translate(14, 141)"><g transform="scale(1.5, 1.5)"><path d="m0.5 8.5 L 0.5 4.5 A 4 4 90 0 1 4.5 0.5 L 8.5 0.5 L 8.5 2.5 L 18.5 2.5 L 18.5 0.5 L 27.5 0.5 L 42.5 0.5 L 46.5 0.5 A 4 4 90 0 1 50.5 4.5 L 50.5 8.5 L 50.5 17.5 A 8 8 90 0 0 42.5 25.5 A 8 8 90 0 0 50.5 33.5 L 50.5 37.5 A 4 4 90 0 1 46.5 41.5 L 42.5 41.5 L 27.5 41.5 L 26.5 41.5 L 26.5 43.5 L 18.5 43.5 L 18.5 41.5 L 17.5 41.5 L 13.5 41.5 A 5 5 90 0 0 8.5 46.5 L 8.5 50.5 L 8.5 54.5 L 8.5 58.5 A 5 5 90 0 0 13.5 63.5 L 17.5 63.5 L 17.5 65.5 L 27.5 65.5 L 27.5 63.5 L 35.5 63.5 L 50.5 63.5 L 50.5 75.5 L 50.5 79.5 A 4 4 90 0 1 46.5 83.5 L 42.5 83.5 L 27.5 83.5 L 26.5 83.5 L 26.5 85.5 L 18.5 85.5 L 18.5 83.5 L 17.5 83.5 L 13.5 83.5 A 5 5 90 0 0 8.5 88.5 L 8.5 92.5 L 8.5 96.5 L 8.5 100.5 A 5 5 90 0 0 13.5 105.5 L 17.5 105.5 L 17.5 107.5 L 27.5 107.5 L 27.5 105.5 L 35.5 105.5 L 35.5 111.5 L 35.5 117.5 L 35.5 121.5 A 4 4 90 0 1 31.5 125.5 L 27.5 125.5 L 18.5 125.5 L 17.5 125.5 L 17.5 127.5 L 9.5 127.5 L 9.5 125.5 L 8.5 125.5 L 4.5 125.5 A 4 4 90 0 1 0.5 121.5 L 0.5 117.5 z" style="fill:#D98A43;fill-opacity:1;stroke:#B7651A;stroke-width:1;stroke-linecap:round;stroke-opacity:1;" /><text style="font-size:10px;fill:#282828;font-family:sans-serif;text-anchor:start"><tspan x="5" y="19">もし</tspan></text><text style="font-size:6.666666666666667px;fill:#282828;font-family:sans-serif;text-anchor:end"><tspan x="46" y="38">ならば</tspan></text><text style="font-size:6.666666666666667px;fill:#282828;font-family:sans-serif;text-anchor:end"><tspan x="46" y="80">でなければ</tspan></text></g></g><g transform="translate(79, 141)"><g transform="scale(1.5, 1.5)"><g transform="matrix(1,0,0,1,0,-16)"> <path d="m0.5 41.5 A 7 7 90 0 1 7.5 34.5 L 8.5 34.5 L 8.5 24.5 A 8 8 90 0 1 16.5 16.5 L 50.5 16.5 L 50.5 24.5 L 46.5 24.5 L 46.5 21.5 L 42.5 21.5 L 42.5 31.5 L 46.5 31.5 L 46.5 28.5 L 50.5 28.5 L 50.5 45.5 L 46.5 45.5 L 46.5 42.5 L 42.5 42.5 L 42.5 52.5 L 46.5 52.5 L 46.5 49.5 L 50.5 49.5 L 50.5 57.5 L 20.5 57.5 L 8.5 57.5 L 8.5 49.5 L 8.5 48.5 L 7.5 48.5 A 7 7 90 0 1 0.5 41.5 z" style="fill:#D97DF5;fill-opacity:1;stroke:#B653D3;stroke-width:1;stroke-linecap:round;stroke-opacity:1;" /></g><text style="font-size:14px;fill:#282828;font-family:sans-serif;text-anchor:end"><tspan x="38" y="26">=</tspan></text></g></g><g transform="translate(28, 204)"><g transform="scale(1.5, 1.5)"><path d="m0.5 8.5 L 0.5 4.5 A 4 4 90 0 1 4.5 0.5 L 8.5 0.5 L 8.5 2.5 L 18.5 2.5 L 18.5 0.5 L 78.5 0.5 L 82.5 0.5 A 4 4 90 0 1 86.5 4.5 L 86.5 8.5 L 82.5 8.5 L 82.5 5.5 L 78.5 5.5 L 78.5 15.5 L 82.5 15.5 L 82.5 12.5 L 86.5 12.5 L 86.5 16.5 A 4 4 90 0 1 82.5 20.5 L 78.5 20.5 L 18.5 20.5 L 17.5 20.5 L 17.5 22.5 L 9.5 22.5 L 9.5 20.5 L 8.5 20.5 L 4.5 20.5 A 4 4 90 0 1 0.5 16.5 L 0.5 12.5 L 0.5 8.5 z" style="fill:#92A9FF;fill-opacity:1;stroke:#5370DC;stroke-width:1;stroke-linecap:round;stroke-opacity:1;" /><text style="font-size:10px;fill:#282828;font-family:sans-serif;text-anchor:end"><tspan x="76" y="14">色をせってい</tspan></text><text style="font-size:6.666666666666667px;fill:#282828;font-family:sans-serif;text-anchor:end"><tspan x="76" y="12"></tspan></text></g></g><g transform="translate(192, 267)"><g transform="scale(1.5, 1.5)"><path d="m8.5 0.5 L 68.5 0.5 L 68.5 20.5 L 8.5 20.5 L 8.5 12.5 L 8.5 11.5 L 2.5 11.5 L 2.5 14.5 L 0.5 14.5 L 0.5 6.5 L 2.5 6.5 L 2.5 9.5 L 8.5 9.5 L 8.5 8.5 z" style="fill:#FF6EA1;fill-opacity:1;stroke:#FF2C76;stroke-width:1;stroke-linecap:round;stroke-opacity:1;" /><text style="font-size:10px;fill:#282828;font-family:sans-serif;text-anchor:start"><tspan x="13" y="14">0</tspan></text></g></g><g transform="translate(28, 267)"><g transform="scale(1.5, 1.5)"><path d="m0.5 8.5 L 0.5 4.5 A 4 4 90 0 1 4.5 0.5 L 8.5 0.5 L 8.5 2.5 L 18.5 2.5 L 18.5 0.5 L 108.5 0.5 L 112.5 0.5 A 4 4 90 0 1 116.5 4.5 L 116.5 8.5 L 112.5 8.5 L 112.5 5.5 L 108.5 5.5 L 108.5 15.5 L 112.5 15.5 L 112.5 12.5 L 116.5 12.5 L 116.5 16.5 A 4 4 90 0 1 112.5 20.5 L 108.5 20.5 L 18.5 20.5 L 17.5 20.5 L 17.5 22.5 L 9.5 22.5 L 9.5 20.5 L 8.5 20.5 L 4.5 20.5 A 4 4 90 0 1 0.5 16.5 L 0.5 12.5 L 0.5 8.5 z" style="fill:#92A9FF;fill-opacity:1;stroke:#5370DC;stroke-width:1;stroke-linecap:round;stroke-opacity:1;" /><text style="font-size:10px;fill:#282828;font-family:sans-serif;text-anchor:end"><tspan x="106" y="14">色のこさをせってい</tspan></text><text style="font-size:6.666666666666667px;fill:#282828;font-family:sans-serif;text-anchor:end"><tspan x="106" y="12"></tspan></text></g></g><g transform="translate(147, 204)"><g transform="scale(1.5, 1.5)"><path d="m8.5 8.5 L 8.5 4.5 A 4 4 90 0 1 12.5 0.5 L 16.5 0.5 L 26.5 0.5 L 86.5 0.5 L 90.5 0.5 A 4 4 90 0 1 94.5 4.5 L 94.5 8.5 L 90.5 8.5 L 90.5 5.5 L 86.5 5.5 L 86.5 15.5 L 90.5 15.5 L 90.5 12.5 L 94.5 12.5 L 94.5 16.5 A 4 4 90 0 1 90.5 20.5 L 86.5 20.5 L 26.5 20.5 L 16.5 20.5 L 12.5 20.5 A 4 4 90 0 1 8.5 16.5 L 8.5 12.5 L 8.5 11.5 L 2.5 11.5 L 2.5 14.5 L 0.5 14.5 L 0.5 6.5 L 2.5 6.5 L 2.5 9.5 L 8.5 9.5 L 8.5 8.5 z" style="fill:#FE994F;fill-opacity:1;stroke:#E86B0E;stroke-width:1;stroke-linecap:round;stroke-opacity:1;" /><text style="font-size:10px;fill:#282828;font-family:sans-serif;text-anchor:end"><tspan x="84" y="13">全体の拍の数</tspan></text><text style="font-size:6.666666666666667px;fill:#282828;font-family:sans-serif;text-anchor:end"><tspan x="84" y="12"></tspan></text></g></g><g transform="translate(278, 204)"><g transform="scale(1.5, 1.5)"><path d="m8.5 8.5 L 8.5 4.5 A 4 4 90 0 1 12.5 0.5 L 16.5 0.5 L 26.5 0.5 L 56.5 0.5 L 60.5 0.5 A 4 4 90 0 1 64.5 4.5 L 64.5 8.5 L 60.5 8.5 L 60.5 5.5 L 56.5 5.5 L 56.5 15.5 L 60.5 15.5 L 60.5 12.5 L 64.5 12.5 L 64.5 29.5 L 60.5 29.5 L 60.5 26.5 L 56.5 26.5 L 56.5 36.5 L 60.5 36.5 L 60.5 33.5 L 64.5 33.5 L 64.5 37.5 A 4 4 90 0 1 60.5 41.5 L 56.5 41.5 L 26.5 41.5 L 16.5 41.5 L 12.5 41.5 A 4 4 90 0 1 8.5 37.5 L 8.5 33.5 L 8.5 12.5 L 8.5 11.5 L 2.5 11.5 L 2.5 14.5 L 0.5 14.5 L 0.5 6.5 L 2.5 6.5 L 2.5 9.5 L 8.5 9.5 L 8.5 8.5 z" style="fill:#FF6EA1;fill-opacity:1;stroke:#FF2C76;stroke-width:1;stroke-linecap:round;stroke-opacity:1;" /><text style="font-size:9px;fill:#282828;font-family:sans-serif;text-anchor:end"><tspan x="54" y="23">➗</tspan></text><text style="font-size:6px;fill:#282828;font-family:sans-serif;text-anchor:end"><tspan x="54" y="12"></tspan></text><text style="font-size:6px;fill:#282828;font-family:sans-serif;text-anchor:end"><tspan x="54" y="33"></tspan></text></g></g><g transform="translate(364, 204)"><g transform="scale(1.5, 1.5)"><path d="m8.5 0.5 L 68.5 0.5 L 68.5 20.5 L 8.5 20.5 L 8.5 12.5 L 8.5 11.5 L 2.5 11.5 L 2.5 14.5 L 0.5 14.5 L 0.5 6.5 L 2.5 6.5 L 2.5 9.5 L 8.5 9.5 L 8.5 8.5 z" style="fill:#FF6EA1;fill-opacity:1;stroke:#FF2C76;stroke-width:1;stroke-linecap:round;stroke-opacity:1;" /><text style="font-size:10px;fill:#282828;font-family:sans-serif;text-anchor:start"><tspan x="13" y="14">1</tspan></text></g></g><g transform="translate(364, 236)"><g transform="scale(1.5, 1.5)"><path d="m8.5 0.5 L 68.5 0.5 L 68.5 20.5 L 8.5 20.5 L 8.5 12.5 L 8.5 11.5 L 2.5 11.5 L 2.5 14.5 L 0.5 14.5 L 0.5 6.5 L 2.5 6.5 L 2.5 9.5 L 8.5 9.5 L 8.5 8.5 z" style="fill:#FF6EA1;fill-opacity:1;stroke:#FF2C76;stroke-width:1;stroke-linecap:round;stroke-opacity:1;" /><text style="font-size:10px;fill:#282828;font-family:sans-serif;text-anchor:start"><tspan x="13" y="14">4</tspan></text></g></g><g transform="translate(144, 173)"><g transform="scale(1.5, 1.5)"><path d="m8.5 0.5 L 68.5 0.5 L 68.5 20.5 L 8.5 20.5 L 8.5 12.5 L 8.5 11.5 L 2.5 11.5 L 2.5 14.5 L 0.5 14.5 L 0.5 6.5 L 2.5 6.5 L 2.5 9.5 L 8.5 9.5 L 8.5 8.5 z" style="fill:#FF6EA1;fill-opacity:1;stroke:#FF2C76;stroke-width:1;stroke-linecap:round;stroke-opacity:1;" /><text style="font-size:10px;fill:#282828;font-family:sans-serif;text-anchor:start"><tspan x="13" y="14">1</tspan></text></g></g><g transform="translate(144, 141)"><g transform="scale(1.5, 1.5)"><path d="m8.5 0.5 L 88.5 0.5 L 88.5 20.5 L 8.5 20.5 L 8.5 12.5 L 8.5 11.5 L 2.5 11.5 L 2.5 14.5 L 0.5 14.5 L 0.5 6.5 L 2.5 6.5 L 2.5 9.5 L 8.5 9.5 L 8.5 8.5 z" style="fill:#FE994F;fill-opacity:1;stroke:#E86B0E;stroke-width:1;stroke-linecap:round;stroke-opacity:1;" /><text style="font-size:10px;fill:#282828;font-family:sans-serif;text-anchor:start"><tspan x="13" y="14">拍の位置</tspan></text></g></g><g transform="translate(249, 394)"><g transform="scale(1.5, 1.5)"><path d="m8.5 0.5 L 88.5 0.5 L 88.5 20.5 L 8.5 20.5 L 8.5 12.5 L 8.5 11.5 L 2.5 11.5 L 2.5 14.5 L 0.5 14.5 L 0.5 6.5 L 2.5 6.5 L 2.5 9.5 L 8.5 9.5 L 8.5 8.5 z" style="fill:#FE994F;fill-opacity:1;stroke:#E86B0E;stroke-width:1;stroke-linecap:round;stroke-opacity:1;" /><text style="font-size:10px;fill:#282828;font-family:sans-serif;text-anchor:start"><tspan x="13" y="14">音の長さ</tspan></text></g></g><g transform="translate(189, 330)"><g transform="scale(1.5, 1.5)"><path d="m8.5 0.5 L 98.5 0.5 L 98.5 20.5 L 8.5 20.5 L 8.5 12.5 L 8.5 11.5 L 2.5 11.5 L 2.5 14.5 L 0.5 14.5 L 0.5 6.5 L 2.5 6.5 L 2.5 9.5 L 8.5 9.5 L 8.5 8.5 z" style="fill:#7CD622;fill-opacity:1;stroke:#57AD02;stroke-width:1;stroke-linecap:round;stroke-opacity:1;" /><text style="font-size:10px;fill:#282828;font-family:sans-serif;text-anchor:start"><tspan x="13" y="14">音程の違い</tspan></text></g></g><g transform="translate(14, 330)"><g transform="scale(1.5, 1.5)"><path d="m0.5 8.5 L 0.5 4.5 A 4 4 90 0 1 4.5 0.5 L 8.5 0.5 L 8.5 2.5 L 18.5 2.5 L 18.5 0.5 L 58.5 0.5 L 62.5 0.5 A 4 4 90 0 1 66.5 4.5 L 66.5 8.5 L 62.5 8.5 L 62.5 5.5 L 58.5 5.5 L 58.5 15.5 L 62.5 15.5 L 62.5 12.5 L 66.5 12.5 L 66.5 16.5 A 4 4 90 0 1 62.5 20.5 L 58.5 20.5 L 18.5 20.5 L 17.5 20.5 L 17.5 22.5 L 9.5 22.5 L 9.5 20.5 L 8.5 20.5 L 4.5 20.5 A 4 4 90 0 1 0.5 16.5 L 0.5 12.5 L 0.5 8.5 z" style="fill:#92A9FF;fill-opacity:1;stroke:#5370DC;stroke-width:1;stroke-linecap:round;stroke-opacity:1;" /><text style="font-size:10px;fill:#282828;font-family:sans-serif;text-anchor:end"><tspan x="56" y="14">前へ進む</tspan></text><text style="font-size:6.666666666666667px;fill:#282828;font-family:sans-serif;text-anchor:end"><tspan x="56" y="12"></tspan></text></g></g><g transform="translate(14, 394)"><g transform="scale(1.5, 1.5)"><path d="m0.5 8.5 L 0.5 4.5 A 4 4 90 0 1 4.5 0.5 L 8.5 0.5 L 8.5 2.5 L 18.5 2.5 L 18.5 0.5 L 98.5 0.5 L 102.5 0.5 A 4 4 90 0 1 106.5 4.5 L 106.5 8.5 L 102.5 8.5 L 102.5 5.5 L 98.5 5.5 L 98.5 15.5 L 102.5 15.5 L 102.5 12.5 L 106.5 12.5 L 106.5 33.5 L 106.5 50.5 L 102.5 50.5 L 102.5 47.5 L 98.5 47.5 L 98.5 57.5 L 102.5 57.5 L 102.5 54.5 L 106.5 54.5 L 106.5 58.5 A 4 4 90 0 1 102.5 62.5 L 98.5 62.5 L 18.5 62.5 L 17.5 62.5 L 17.5 64.5 L 9.5 64.5 L 9.5 62.5 L 8.5 62.5 L 4.5 62.5 A 4 4 90 0 1 0.5 58.5 L 0.5 54.5 L 0.5 33.5 L 0.5 12.5 L 0.5 8.5 z" style="fill:#92A9FF;fill-opacity:1;stroke:#5370DC;stroke-width:1;stroke-linecap:round;stroke-opacity:1;" /><text style="font-size:10px;fill:#282828;font-family:sans-serif;text-anchor:end"><tspan x="96" y="35">カンバスを動かす</tspan></text><text style="font-size:6.666666666666667px;fill:#282828;font-family:sans-serif;text-anchor:end"><tspan x="96" y="12">よこいどう</tspan></text><text style="font-size:6.666666666666667px;fill:#282828;font-family:sans-serif;text-anchor:end"><tspan x="96" y="54">たていどう</tspan></text></g></g><g transform="translate(163, 457)"><g transform="scale(1.5, 1.5)"><path d="m8.5 0.5 L 68.5 0.5 L 68.5 20.5 L 8.5 20.5 L 8.5 12.5 L 8.5 11.5 L 2.5 11.5 L 2.5 14.5 L 0.5 14.5 L 0.5 6.5 L 2.5 6.5 L 2.5 9.5 L 8.5 9.5 L 8.5 8.5 z" style="fill:#FF6EA1;fill-opacity:1;stroke:#FF2C76;stroke-width:1;stroke-linecap:round;stroke-opacity:1;" /><text style="font-size:10px;fill:#282828;font-family:sans-serif;text-anchor:start"><tspan x="13" y="14">0</tspan></text></g></g><g transform="translate(103, 330)"><g transform="scale(1.5, 1.5)"><path d="m8.5 8.5 L 8.5 4.5 A 4 4 90 0 1 12.5 0.5 L 16.5 0.5 L 26.5 0.5 L 56.5 0.5 L 60.5 0.5 A 4 4 90 0 1 64.5 4.5 L 64.5 8.5 L 60.5 8.5 L 60.5 5.5 L 56.5 5.5 L 56.5 15.5 L 60.5 15.5 L 60.5 12.5 L 64.5 12.5 L 64.5 29.5 L 60.5 29.5 L 60.5 26.5 L 56.5 26.5 L 56.5 36.5 L 60.5 36.5 L 60.5 33.5 L 64.5 33.5 L 64.5 37.5 A 4 4 90 0 1 60.5 41.5 L 56.5 41.5 L 26.5 41.5 L 16.5 41.5 L 12.5 41.5 A 4 4 90 0 1 8.5 37.5 L 8.5 33.5 L 8.5 12.5 L 8.5 11.5 L 2.5 11.5 L 2.5 14.5 L 0.5 14.5 L 0.5 6.5 L 2.5 6.5 L 2.5 9.5 L 8.5 9.5 L 8.5 8.5 z" style="fill:#FF6EA1;fill-opacity:1;stroke:#FF2C76;stroke-width:1;stroke-linecap:round;stroke-opacity:1;" /><text style="font-size:14px;fill:#282828;font-family:sans-serif;text-anchor:end"><tspan x="54" y="24">×</tspan></text><text style="font-size:9.333333333333334px;fill:#282828;font-family:sans-serif;text-anchor:end"><tspan x="54" y="12"></tspan></text><text style="font-size:9.333333333333334px;fill:#282828;font-family:sans-serif;text-anchor:end"><tspan x="54" y="33"></tspan></text></g></g><g transform="translate(189, 362)"><g transform="scale(1.5, 1.5)"><path d="m8.5 0.5 L 68.5 0.5 L 68.5 20.5 L 8.5 20.5 L 8.5 12.5 L 8.5 11.5 L 2.5 11.5 L 2.5 14.5 L 0.5 14.5 L 0.5 6.5 L 2.5 6.5 L 2.5 9.5 L 8.5 9.5 L 8.5 8.5 z" style="fill:#FF6EA1;fill-opacity:1;stroke:#FF2C76;stroke-width:1;stroke-linecap:round;stroke-opacity:1;" /><text style="font-size:10px;fill:#282828;font-family:sans-serif;text-anchor:start"><tspan x="13" y="14">10</tspan></text></g></g><g transform="translate(14, 362)"><g transform="scale(1.5, 1.5)"><path d="m0.5 8.5 L 0.5 4.5 A 4 4 90 0 1 4.5 0.5 L 8.5 0.5 L 8.5 2.5 L 18.5 2.5 L 18.5 0.5 L 38.5 0.5 L 42.5 0.5 A 4 4 90 0 1 46.5 4.5 L 46.5 8.5 L 46.5 12.5 L 46.5 16.5 A 4 4 90 0 1 42.5 20.5 L 38.5 20.5 L 18.5 20.5 L 17.5 20.5 L 17.5 22.5 L 9.5 22.5 L 9.5 20.5 L 8.5 20.5 L 4.5 20.5 A 4 4 90 0 1 0.5 16.5 L 0.5 12.5 z" style="fill:#C4C4C4;fill-opacity:1;stroke:#A0A0A0;stroke-width:1;stroke-linecap:round;stroke-opacity:1;" /><text style="font-size:10px;fill:#282828;font-family:sans-serif;text-anchor:end"><tspan x="36" y="14">↓</tspan></text></g></g><g transform="translate(163, 394)"><g transform="scale(1.5, 1.5)"><path d="m8.5 8.5 L 8.5 4.5 A 4 4 90 0 1 12.5 0.5 L 16.5 0.5 L 26.5 0.5 L 56.5 0.5 L 60.5 0.5 A 4 4 90 0 1 64.5 4.5 L 64.5 8.5 L 60.5 8.5 L 60.5 5.5 L 56.5 5.5 L 56.5 15.5 L 60.5 15.5 L 60.5 12.5 L 64.5 12.5 L 64.5 29.5 L 60.5 29.5 L 60.5 26.5 L 56.5 26.5 L 56.5 36.5 L 60.5 36.5 L 60.5 33.5 L 64.5 33.5 L 64.5 37.5 A 4 4 90 0 1 60.5 41.5 L 56.5 41.5 L 26.5 41.5 L 16.5 41.5 L 12.5 41.5 A 4 4 90 0 1 8.5 37.5 L 8.5 33.5 L 8.5 12.5 L 8.5 11.5 L 2.5 11.5 L 2.5 14.5 L 0.5 14.5 L 0.5 6.5 L 2.5 6.5 L 2.5 9.5 L 8.5 9.5 L 8.5 8.5 z" style="fill:#FF6EA1;fill-opacity:1;stroke:#FF2C76;stroke-width:1;stroke-linecap:round;stroke-opacity:1;" /><text style="font-size:14px;fill:#282828;font-family:sans-serif;text-anchor:end"><tspan x="54" y="24">×</tspan></text><text style="font-size:9.333333333333334px;fill:#282828;font-family:sans-serif;text-anchor:end"><tspan x="54" y="12"></tspan></text><text style="font-size:9.333333333333334px;fill:#282828;font-family:sans-serif;text-anchor:end"><tspan x="54" y="33"></tspan></text></g></g><g transform="translate(249, 426)"><g transform="scale(1.5, 1.5)"><path d="m8.5 0.5 L 68.5 0.5 L 68.5 20.5 L 8.5 20.5 L 8.5 12.5 L 8.5 11.5 L 2.5 11.5 L 2.5 14.5 L 0.5 14.5 L 0.5 6.5 L 2.5 6.5 L 2.5 9.5 L 8.5 9.5 L 8.5 8.5 z" style="fill:#FF6EA1;fill-opacity:1;stroke:#FF2C76;stroke-width:1;stroke-linecap:round;stroke-opacity:1;" /><text style="font-size:10px;fill:#282828;font-family:sans-serif;text-anchor:start"><tspan x="13" y="14">25</tspan></text></g></g><g transform="translate(0, 0)"><g transform="scale(1.5, 1.5)"><path d="m0.5 8.5 L 0.5 4.5 A 4 4 90 0 1 4.5 0.5 L 8.5 0.5 L 8.5 2.5 L 18.5 2.5 L 18.5 0.5 L 148.5 0.5 L 152.5 0.5 A 4 4 90 0 1 156.5 4.5 L 156.5 8.5 L 152.5 8.5 L 152.5 5.5 L 148.5 5.5 L 148.5 15.5 L 152.5 15.5 L 152.5 12.5 L 156.5 12.5 L 156.5 16.5 A 4 4 90 0 1 152.5 20.5 L 148.5 20.5 L 18.5 20.5 L 17.5 20.5 L 17.5 22.5 L 9.5 22.5 L 9.5 20.5 L 8.5 20.5 L 4.5 20.5 A 4 4 90 0 1 0.5 16.5 L 0.5 12.5 L 0.5 8.5 z" style="fill:#FE994F;fill-opacity:1;stroke:#E86B0E;stroke-width:1;stroke-linecap:round;stroke-opacity:1;" /><text style="font-size:10px;fill:#282828;font-family:sans-serif;text-anchor:end"><tspan x="146" y="14">全ての音符にアクション実行</tspan></text><text style="font-size:6.666666666666667px;fill:#282828;font-family:sans-serif;text-anchor:end"><tspan x="146" y="12"></tspan></text></g></g><g transform="translate(224, 0)"><g transform="scale(1.5, 1.5)"><path d="m8.5 0.5 L 98.5 0.5 L 98.5 20.5 L 8.5 20.5 L 8.5 12.5 L 8.5 11.5 L 2.5 11.5 L 2.5 14.5 L 0.5 14.5 L 0.5 6.5 L 2.5 6.5 L 2.5 9.5 L 8.5 9.5 L 8.5 8.5 z" style="fill:#FF664B;fill-opacity:1;stroke:#EA4326;stroke-width:1;stroke-linecap:round;stroke-opacity:1;" /><text style="font-size:10px;fill:#282828;font-family:sans-serif;text-anchor:start"><tspan x="13" y="14">アクション</tspan></text></g></g></svg>