<?xml version="1.0" encoding="UTF-8" standalone="no"?>
<svg
   xmlns:dc="http://purl.org/dc/elements/1.1/"
   xmlns:cc="http://creativecommons.org/ns#"
   xmlns:rdf="http://www.w3.org/1999/02/22-rdf-syntax-ns#"
   xmlns:svg="http://www.w3.org/2000/svg"
   xmlns="http://www.w3.org/2000/svg"
   id="svg1710"
   version="1.1"
   viewBox="0 0 105.17187 50.799999"
   height="50.799999mm"
   width="105.17188mm">
  <defs
     id="defs1704" />
  <metadata
     id="metadata1707">
    <rdf:RDF>
      <cc:Work
         rdf:about="">
        <dc:format>image/svg+xml</dc:format>
        <dc:type
           rdf:resource="http://purl.org/dc/dcmitype/StillImage" />
        <dc:title></dc:title>
      </cc:Work>
    </rdf:RDF>
  </metadata>
  <g
     transform="translate(83.192357,-336.34333)"
     id="layer1">
    <g
       id="g4827"
       transform="matrix(0.26458333,0,0,0.26458333,-48.002774,361.74333)">
      <g
         id="g4825"
         transform="scale(1.5)">
        <path
           id="path4811"
           style="fill:#ff6ea1;fill-opacity:1;stroke:#ff2c76;stroke-width:1;stroke-linecap:round;stroke-opacity:1"
           d="m 8.5,8.5 v -4 a 4,4 90 0 1 4,-4 h 4 10 30 4 a 4,4 90 0 1 4,4 v 4 h -4 v -3 h -4 v 10 h 4 v -3 h 4 v 17 h -4 v -3 h -4 v 10 h 4 v -3 h 4 v 4 a 4,4 90 0 1 -4,4 h -4 -30 -10 -4 a 4,4 90 0 1 -4,-4 v -4 -21 -1 h -6 v 3 h -2 v -8 h 2 v 3 h 6 z" />
        <text
           id="text4815"
           style="font-size:14px;font-family:sans-serif;text-anchor:end;fill:#282828">
          <tspan
             id="tspan4813"
             y="24"
             x="54">–</tspan>
        </text>
        <text
           id="text4819"
           style="font-size:9.33333302px;font-family:sans-serif;text-anchor:end;fill:#282828">
          <tspan
             id="tspan4817"
             y="12"
             x="54" />
        </text>
        <text
           id="text4823"
           style="font-size:9.33333302px;font-family:sans-serif;text-anchor:end;fill:#282828">
          <tspan
             id="tspan4821"
             y="33"
             x="54" />
        </text>
      </g>
    </g>
    <g
       id="g4837"
       transform="matrix(0.26458333,0,0,0.26458333,-25.248607,370.21)">
      <g
         id="g4835"
         transform="scale(1.5)">
        <path
           id="path4829"
           style="fill:#ff6ea1;fill-opacity:1;stroke:#ff2c76;stroke-width:1;stroke-linecap:round;stroke-opacity:1"
           d="m 8.5,0.5 h 60 v 20 h -60 v -8 -1 h -6 v 3 h -2 v -8 h 2 v 3 h 6 v -1 z" />
        <text
           id="text4833"
           style="font-size:10px;font-family:sans-serif;text-anchor:start;fill:#282828">
          <tspan
             id="tspan4831"
             y="14"
             x="13">45</tspan>
        </text>
      </g>
    </g>
    <g
       transform="matrix(0.26458333,0,0,0.26458333,-83.192357,336.34333)"
       id="g4851">
      <g
         id="g4849"
         transform="scale(1.5)">
        <path
           id="path4839"
           style="fill:#d98a43;fill-opacity:1;stroke:#b7651a;stroke-width:1;stroke-linecap:round;stroke-opacity:1"
           d="m 0.5,8.5 v -4 a 4,4 90 0 1 4,-4 h 4 v 2 h 10 v -2 h 9 50 4 a 4,4 90 0 1 4,4 v 4 h -4 v -3 h -4 v 10 h 4 v -3 h 4 v 4 a 4,4 90 0 1 -4,4 h -4 -50 -1 v 2 h -8 v -2 h -1 -4 a 5,5 90 0 0 -5,5 v 4 4 63 4 a 5,5 90 0 0 5,5 h 4 v 2 h 10 v -2 h 8 v 6 6 4 a 4,4 90 0 1 -4,4 h -4 -9 -1 v 2 h -8 v -2 h -1 -4 a 4,4 90 0 1 -4,-4 v -4 z" />
        <text
           id="text4843"
           style="font-size:10px;font-family:sans-serif;text-anchor:start;fill:#282828">
          <tspan
             id="tspan4841"
             y="15"
             x="5">～回くり返す</tspan>
        </text>
        <text
           id="text4847"
           style="font-size:6.66666651px;font-family:sans-serif;text-anchor:end;fill:#282828">
          <tspan
             id="tspan4845"
             y="12"
             x="75" />
        </text>
      </g>
    </g>
    <g
       id="g4861"
       transform="matrix(0.26458333,0,0,0.26458333,-52.236107,336.34333)">
      <g
         id="g4859"
         transform="scale(1.5)">
        <path
           id="path4853"
           style="fill:#ff6ea1;fill-opacity:1;stroke:#ff2c76;stroke-width:1;stroke-linecap:round;stroke-opacity:1"
           d="m 8.5,0.5 h 60 v 20 h -60 v -8 -1 h -6 v 3 h -2 v -8 h 2 v 3 h 6 v -1 z" />
        <text
           id="text4857"
           style="font-size:10px;font-family:sans-serif;text-anchor:start;fill:#282828">
          <tspan
             id="tspan4855"
             y="14"
             x="13">8</tspan>
        </text>
      </g>
    </g>
    <g
       id="g4875"
       transform="matrix(0.26458333,0,0,0.26458333,-79.48819,361.74333)">
      <g
         id="g4873"
         transform="scale(1.5)">
        <path
           id="path4863"
           style="fill:#92a9ff;fill-opacity:1;stroke:#5370dc;stroke-width:1;stroke-linecap:round;stroke-opacity:1"
           d="m 0.5,8.5 v -4 a 4,4 90 0 1 4,-4 h 4 v 2 h 10 v -2 h 60 4 a 4,4 90 0 1 4,4 v 4 h -4 v -3 h -4 v 10 h 4 v -3 h 4 v 4 a 4,4 90 0 1 -4,4 h -4 -60 -1 v 2 h -8 v -2 h -1 -4 a 4,4 90 0 1 -4,-4 v -4 z" />
        <text
           id="text4867"
           style="font-size:10px;font-family:sans-serif;text-anchor:end;fill:#282828">
          <tspan
             id="tspan4865"
             y="14"
             x="76">向きを変える</tspan>
        </text>
        <text
           id="text4871"
           style="font-size:6.66666651px;font-family:sans-serif;text-anchor:end;fill:#282828">
          <tspan
             id="tspan4869"
             y="12"
             x="76" />
        </text>
      </g>
    </g>
    <g
       id="g4885"
       transform="matrix(0.26458333,0,0,0.26458333,-25.248607,361.74333)">
      <g
         id="g4883"
         transform="scale(1.5)">
        <path
           id="path4877"
           style="fill:#92a9ff;fill-opacity:1;stroke:#5370dc;stroke-width:1;stroke-linecap:round;stroke-opacity:1"
           d="m 8.5,0.5 h 110 v 20 H 8.5 v -8 -1 h -6 v 3 h -2 v -8 h 2 v 3 h 6 v -1 z" />
        <text
           id="text4881"
           style="font-size:10px;font-family:sans-serif;text-anchor:start;fill:#282828">
          <tspan
             id="tspan4879"
             y="14"
             x="13">向き（ネズミ）</tspan>
        </text>
      </g>
    </g>
    <g
       id="g4895"
       transform="matrix(0.26458333,0,0,0.26458333,-79.48819,370.21)">
      <g
         id="g4893"
         transform="scale(1.5)">
        <path
           id="path4887"
           style="fill:#c4c4c4;fill-opacity:1;stroke:#a0a0a0;stroke-width:1;stroke-linecap:round;stroke-opacity:1"
           d="m 0.5,8.5 v -4 a 4,4 90 0 1 4,-4 h 4 v 2 h 10 v -2 h 20 4 a 4,4 90 0 1 4,4 v 4 4 4 a 4,4 90 0 1 -4,4 h -4 -20 -1 v 2 h -8 v -2 h -1 -4 a 4,4 90 0 1 -4,-4 v -4 z" />
        <text
           id="text4891"
           style="font-size:10px;font-family:sans-serif;text-anchor:end;fill:#282828">
          <tspan
             id="tspan4889"
             y="14"
             x="36">↓</tspan>
        </text>
      </g>
    </g>
    <g
       id="g4909"
       transform="matrix(0.26458333,0,0,0.26458333,-79.48819,344.81)">
      <g
         id="g4907"
         transform="scale(1.5)">
        <path
           id="path4897"
           style="fill:#92a9ff;fill-opacity:1;stroke:#5370dc;stroke-width:1;stroke-linecap:round;stroke-opacity:1"
           d="m 0.5,8.5 v -4 a 4,4 90 0 1 4,-4 h 4 v 2 h 10 v -2 h 40 4 a 4,4 90 0 1 4,4 v 4 h -4 v -3 h -4 v 10 h 4 v -3 h 4 v 4 a 4,4 90 0 1 -4,4 h -4 -40 -1 v 2 h -8 v -2 h -1 -4 a 4,4 90 0 1 -4,-4 v -4 z" />
        <text
           id="text4901"
           style="font-size:10px;font-family:sans-serif;text-anchor:end;fill:#282828">
          <tspan
             id="tspan4899"
             y="14"
             x="56">前へ進む</tspan>
        </text>
        <text
           id="text4905"
           style="font-size:6.66666651px;font-family:sans-serif;text-anchor:end;fill:#282828">
          <tspan
             id="tspan4903"
             y="12"
             x="56" />
        </text>
      </g>
    </g>
    <g
       id="g4919"
       transform="matrix(0.26458333,0,0,0.26458333,-55.940274,344.81)">
      <g
         id="g4917"
         transform="scale(1.5)">
        <path
           id="path4911"
           style="fill:#ff6ea1;fill-opacity:1;stroke:#ff2c76;stroke-width:1;stroke-linecap:round;stroke-opacity:1"
           d="m 8.5,0.5 h 60 v 20 h -60 v -8 -1 h -6 v 3 h -2 v -8 h 2 v 3 h 6 v -1 z" />
        <text
           id="text4915"
           style="font-size:10px;font-family:sans-serif;text-anchor:start;fill:#282828">
          <tspan
             id="tspan4913"
             y="14"
             x="13">100</tspan>
        </text>
      </g>
    </g>
    <g
       id="g4933"
       transform="matrix(0.26458333,0,0,0.26458333,-79.48819,353.27666)">
      <g
         id="g4931"
         transform="scale(1.5)">
        <path
           id="path4921"
           style="fill:#92a9ff;fill-opacity:1;stroke:#5370dc;stroke-width:1;stroke-linecap:round;stroke-opacity:1"
           d="m 0.5,8.5 v -4 a 4,4 90 0 1 4,-4 h 4 v 2 h 10 v -2 h 50 4 a 4,4 90 0 1 4,4 v 4 h -4 v -3 h -4 v 10 h 4 v -3 h 4 v 4 a 4,4 90 0 1 -4,4 h -4 -50 -1 v 2 h -8 v -2 h -1 -4 a 4,4 90 0 1 -4,-4 v -4 z" />
        <text
           id="text4925"
           style="font-size:10px;font-family:sans-serif;text-anchor:end;fill:#282828">
          <tspan
             id="tspan4923"
             y="14"
             x="66">後ろへ進む</tspan>
        </text>
        <text
           id="text4929"
           style="font-size:6.66666651px;font-family:sans-serif;text-anchor:end;fill:#282828">
          <tspan
             id="tspan4927"
             y="12"
             x="66" />
        </text>
      </g>
    </g>
    <g
       id="g4943"
       transform="matrix(0.26458333,0,0,0.26458333,-51.971524,353.27666)">
      <g
         id="g4941"
         transform="scale(1.5)">
        <path
           id="path4935"
           style="fill:#ff6ea1;fill-opacity:1;stroke:#ff2c76;stroke-width:1;stroke-linecap:round;stroke-opacity:1"
           d="m 8.5,0.5 h 60 v 20 h -60 v -8 -1 h -6 v 3 h -2 v -8 h 2 v 3 h 6 v -1 z" />
        <text
           id="text4939"
           style="font-size:10px;font-family:sans-serif;text-anchor:start;fill:#282828">
          <tspan
             id="tspan4937"
             y="14"
             x="13">100</tspan>
        </text>
      </g>
    </g>
  </g>
</svg>
