<?xml version="1.0" encoding="UTF-8" standalone="no"?>
<svg
   xmlns:dc="http://purl.org/dc/elements/1.1/"
   xmlns:cc="http://creativecommons.org/ns#"
   xmlns:rdf="http://www.w3.org/1999/02/22-rdf-syntax-ns#"
   xmlns:svg="http://www.w3.org/2000/svg"
   xmlns="http://www.w3.org/2000/svg"
   width="67.392822mm"
   height="38.232296mm"
   viewBox="0 0 67.392822 38.232297"
   version="1.1"
   id="svg1870">
  <defs
     id="defs1864" />
  <metadata
     id="metadata1867">
    <rdf:RDF>
      <cc:Work
         rdf:about="">
        <dc:format>image/svg+xml</dc:format>
        <dc:type
           rdf:resource="http://purl.org/dc/dcmitype/StillImage" />
        <dc:title></dc:title>
      </cc:Work>
    </rdf:RDF>
  </metadata>
  <text
     y="32.014584"
     x="34.798836"
     id="text572"
     style="font-size:2.64583325px;font-family:sans-serif;text-anchor:end;fill:#282828;stroke-width:0.39687499">
    <tspan
       style="stroke-width:0.39687499"
       id="tspan570"
       y="36.777096"
       x="53.055092" />
  </text>
  <text
     y="32.014584"
     x="34.798836"
     style="font-size:2.64583325px;font-family:sans-serif;text-anchor:end;fill:#282828;stroke-width:0.39687499"
     id="text3783">
    <tspan
       style="stroke-width:0.39687499"
       x="53.055092"
       y="36.777096"
       id="tspan3781" />
  </text>
  <g
     transform="scale(0.26458333,0.26458333)"
     id="g474">
    <g
       id="g472"
       transform="scale(1.5,1.5)">
      <path
         id="path462"
         style="fill:#728ff9;fill-opacity:1;stroke:#5370dc;stroke-width:1;stroke-linecap:round;stroke-opacity:1"
         d="m 0.5,8.5 0,-4 a 4,4 90 0 1 4,-4 l 4,0 0,2 10,0 0,-2 37.792969,0 4,0 a 4,4 90 0 1 4,4 l 0,4 -4,0 0,-3 -4,0 0,10 4,0 0,-3 4,0 0,4 a 4,4 90 0 1 -4,4 l -4,0 -37.792969,0 -1,0 0,2 -8,0 0,-2 -1,0 -4,0 a 4,4 90 0 1 -4,-4 l 0,-4 z" />
      <text
         id="text466"
         style="font-size:10px;font-family:sans-serif;text-anchor:end;fill:#282828">
        <tspan
           id="tspan464"
           y="14"
           x="54">色をせってい</tspan>
      </text>
      <text
         id="text470"
         style="font-size:6.66666651px;font-family:sans-serif;text-anchor:end;fill:#282828">
        <tspan
           id="tspan468"
           y="12"
           x="54" />
      </text>
    </g>
  </g>
  <g
     id="g484"
     transform="matrix(0.26458333,0,0,0.26458333,22.5397,0)">
    <g
       id="g482"
       transform="scale(1.5,1.5)">
      <path
         id="path476"
         style="fill:#ff5293;fill-opacity:1;stroke:#ff2c76;stroke-width:1;stroke-linecap:round;stroke-opacity:1"
         d="m 8.5,0.5 60,0 0,20 -60,0 0,-8 0,-1 -6,0 0,3 -2,0 0,-8 2,0 0,3 6,0 0,-1 z" />
      <text
         id="text480"
         style="font-size:10px;font-family:sans-serif;text-anchor:start;fill:#282828">
        <tspan
           id="tspan478"
           y="14"
           x="13">0</tspan>
      </text>
    </g>
  </g>
  <g
     id="g498"
     transform="matrix(0.26458333,0,0,0.26458333,11.288889,8.33438)">
    <g
       id="g496"
       transform="scale(1.5,1.5)">
      <path
         id="path486"
         style="fill:#728ff9;fill-opacity:1;stroke:#5370dc;stroke-width:1;stroke-linecap:round;stroke-opacity:1"
         d="m -27.944445,8.5 0,-4 c 0,-2.209139 1.790861,-4 4,-4 l 4,0 0,2 10,0 0,-2 71.808703,0 4,0 c 2.209139,0 4,1.790861 4,4 l 0,4 -4,0 0,-3 -4,0 0,10 4,0 0,-3 4,0 0,4 c 0,2.209139 -1.790861,4 -4,4 l -4,0 -71.808703,0 -1,0 0,2 -8,0 0,-2 -1,0 -4,0 c -2.209139,0 -6.12663,-3.401885 -4,-4 l 0,-4 z" />
      <text
         id="text490"
         style="font-size:10px;font-family:sans-serif;text-anchor:end;fill:#282828">
        <tspan
           id="tspan488"
           y="14"
           x="60">色のこさをせってい</tspan>
      </text>
      <text
         id="text494"
         style="font-size:6.66666651px;font-family:sans-serif;text-anchor:end;fill:#282828">
        <tspan
           id="tspan492"
           y="12"
           x="60" />
      </text>
    </g>
  </g>
  <g
     id="g508"
     transform="matrix(0.26458333,0,0,0.26458333,36.039698,8.33438)">
    <g
       id="g506"
       transform="scale(1.5,1.5)">
      <path
         id="path500"
         style="fill:#ff5293;fill-opacity:1;stroke:#ff2c76;stroke-width:1;stroke-linecap:round;stroke-opacity:1"
         d="m 8.5,0.5 60,0 0,20 -60,0 0,-8 0,-1 -6,0 0,3 -2,0 0,-8 2,0 0,3 6,0 0,-1 z" />
      <text
         id="text504"
         style="font-size:10px;font-family:sans-serif;text-anchor:start;fill:#282828">
        <tspan
           id="tspan502"
           y="14"
           x="13">50</tspan>
      </text>
    </g>
  </g>
  <g
     id="g522"
     transform="matrix(0.26458333,0,0,0.26458333,11.288889,16.66875)">
    <g
       id="g520"
       transform="scale(1.5,1.5)">
      <path
         id="path510"
         style="fill:#728ff9;fill-opacity:1;stroke:#5370dc;stroke-width:1;stroke-linecap:round;stroke-opacity:1"
         d="m -27.944445,8.5 0,-4 c 0,-2.209139 1.790861,-4 4,-4 l 4,0 0,2 10,0 0,-2 81.808703,0 4,0 c 2.209139,0 4,1.790861 4,4 l 0,4 -4,0 0,-3 -4,0 0,10 4,0 0,-3 4,0 0,4 c 0,2.209139 -1.790861,4 -4,4 l -4,0 -81.808703,0 -1,0 0,2 -8,0 0,-2 -1,0 -4,0 c -2.209139,0 -4,-1.790861 -4,-4 l 0,-4 z" />
      <text
         id="text514"
         style="font-size:10px;font-family:sans-serif;text-anchor:end;fill:#282828">
        <tspan
           id="tspan512"
           y="14"
           x="70">太さをせってい</tspan>
      </text>
      <text
         id="text518"
         style="font-size:6.66666651px;font-family:sans-serif;text-anchor:end;fill:#282828">
        <tspan
           id="tspan516"
           y="12"
           x="70" />
      </text>
    </g>
  </g>
  <g
     id="g532"
     transform="matrix(0.26458333,0,0,0.26458333,40.008448,16.66875)">
    <g
       id="g530"
       transform="scale(1.5,1.5)">
      <path
         id="path524"
         style="fill:#ff5293;fill-opacity:1;stroke:#ff2c76;stroke-width:1;stroke-linecap:round;stroke-opacity:1"
         d="m 8.5,0.5 60,0 0,20 -60,0 0,-8 0,-1 -6,0 0,3 -2,0 0,-8 2,0 0,3 6,0 0,-1 z" />
      <text
         id="text528"
         style="font-size:10px;font-family:sans-serif;text-anchor:start;fill:#282828">
        <tspan
           id="tspan526"
           y="14"
           x="13">5</tspan>
      </text>
    </g>
  </g>
  <g
     id="g562"
     transform="matrix(0.26458333,0,0,0.26458333,22.225,29.89792)">
    <g
       id="g560"
       transform="scale(1.5,1.5)">
      <path
         id="path554"
         style="fill:#728ff9;fill-opacity:1;stroke:#5370dc;stroke-width:1;stroke-linecap:round;stroke-opacity:1"
         d="m 8.5,0.5 70,0 0,20 -70,0 0,-8 0,-1 -6,0 0,3 -2,0 0,-8 2,0 0,3 6,0 0,-1 z" />
      <text
         id="text558"
         style="font-size:10px;font-family:sans-serif;text-anchor:start;fill:#282828">
        <tspan
           id="tspan556"
           y="14"
           x="13">いろ</tspan>
      </text>
    </g>
  </g>
</svg>
