<?xml version="1.0" encoding="UTF-8" standalone="no"?>
<svg
   xmlns:dc="http://purl.org/dc/elements/1.1/"
   xmlns:cc="http://creativecommons.org/ns#"
   xmlns:rdf="http://www.w3.org/1999/02/22-rdf-syntax-ns#"
   xmlns:svg="http://www.w3.org/2000/svg"
   xmlns="http://www.w3.org/2000/svg"
   id="svg11666"
   version="1.1"
   viewBox="0 0 88.503118 109.14063"
   height="109.14062mm"
   width="88.50312mm">
  <defs
     id="defs11660" />
  <metadata
     id="metadata11663">
    <rdf:RDF>
      <cc:Work
         rdf:about="">
        <dc:format>image/svg+xml</dc:format>
        <dc:type
           rdf:resource="http://purl.org/dc/dcmitype/StillImage" />
        <dc:title></dc:title>
      </cc:Work>
    </rdf:RDF>
  </metadata>
  <g
     id="g226"
     transform="matrix(0.26458333,0,0,0.26458333,-146.31458,-129.38125)">
    <g
       transform="translate(553,552)"
       id="g206">
      <g
         transform="scale(1.5,1.5)"
         id="g204">
        <path
           d="m 0.5,8.5 0,-4 a 4,4 90 0 1 4,-4 l 4,0 0,2 10,0 0,-2 9,0 60,0 4,0 a 4,4 90 0 1 4,4 l 0,4 -4,0 0,-3 -4,0 0,10 4,0 0,-3 4,0 0,4 a 4,4 90 0 1 -4,4 l -4,0 -60,0 -1,0 0,2 -8,0 0,-2 -1,0 -4,0 a 5,5 90 0 0 -5,5 l 0,4 0,4 0,42 0,4 a 5,5 90 0 0 5,5 l 4,0 0,2 10,0 0,-2 8,0 0,6 0,6 0,4 a 4,4 90 0 1 -4,4 l -4,0 -9,0 -1,0 0,2 -8,0 0,-2 -1,0 -4,0 a 4,4 90 0 1 -4,-4 l 0,-4 z"
           style="fill:#ff8b2d;fill-opacity:1;stroke:#e86b0e;stroke-width:1;stroke-linecap:round;stroke-opacity:1"
           id="path194" />
        <text
           style="font-size:10px;font-family:sans-serif;text-anchor:start;fill:#282828"
           id="text198">
          <tspan
             x="20"
             y="15"
             id="tspan196">音符</tspan>
        </text>
        <text
           style="font-size:6.66666651px;font-family:sans-serif;text-anchor:end;fill:#282828"
           id="text202">
          <tspan
             x="85"
             y="12"
             id="tspan200">長さ</tspan>
        </text>
      </g>
    </g>
    <g
       transform="matrix(0.5,0,0,0.5,553,556)"
       id="g224">
      <g
         style="isolation:isolate"
         id="g222">
        <g
           id="g220"
           data-name="レイヤー 2">
          <g
             id="g218">
            <rect
               width="42"
               height="42"
               rx="5"
               ry="5"
               style="opacity:0.4;mix-blend-mode:multiply;fill:#292929"
               id="rect208"
               x="0"
               y="0" />
            <path
               d="m 30.56,29.8 -4.17,-4.16 2.26,0 a 1.035,1.035 0 1 0 0,-2.07 l -4.71,0 a 1.08,1.08 0 0 0 -1.11,1 l 0,0 c 0,0 0,0 0,0.06 l 0,4.64 0,0 a 1.04,1.04 0 1 0 2.08,0 l 0,-2.19 4.19,4.19 a 1,1 0 0 0 1.46,0 1,1 0 0 0 0,-1.47 z"
               style="fill:#ffffff"
               id="path210" />
            <path
               d="m 19.17,24.6 a 1.08,1.08 0 0 0 -1.11,-1 l -4.71,0 a 1.035,1.035 0 1 0 0,2.07 l 2.25,0 -4.16,4.13 a 1.039447,1.039447 0 0 0 1.47,1.47 l 4.18,-4.19 0,2.26 a 1.04,1.04 0 1 0 2.08,0 l 0,-4.64 c 0,0 0,0 0,-0.06 a 0.08,0.08 0 0 1 0,-0.04 z"
               style="fill:#ffffff"
               id="path212" />
            <path
               d="m 23.94,20.5 4.7,0 a 1.04,1.04 0 1 0 0,-2.08 l -2.25,0 4.17,-4.16 a 1,1 0 0 0 0,-1.47 1,1 0 0 0 -1.46,0 l -4.19,4.21 0,-2.28 a 1.04,1.04 0 1 0 -2.08,0 l 0,4.64 a 0.43,0.43 0 0 0 0,0.05 l 0,0.05 a 1.09,1.09 0 0 0 1.11,1.04 z"
               style="fill:#ffffff"
               id="path214" />
            <path
               d="m 18.13,13.62 a 1.08,1.08 0 0 0 -1,1.09 l 0,2.29 -4.18,-4.19 a 1,1 0 0 0 -1.47,0 1,1 0 0 0 0,1.46 l 4.16,4.17 -2.29,0 a 1.04,1.04 0 1 0 0,2.08 l 4.71,0 a 1.09,1.09 0 0 0 1.11,-1 c 0,0 0,0 0,-0.06 l 0,-4.75 a 1.07,1.07 0 0 0 -1.04,-1.09 z"
               style="fill:#ffffff"
               id="path216" />
          </g>
        </g>
      </g>
    </g>
  </g>
  <g
     transform="matrix(0.26458333,0,0,0.26458333,34.925001,16.668748)"
     id="g244">
    <g
       transform="scale(1.5,1.5)"
       id="g242">
      <path
         d="m 8.5,8.5 0,-4 a 4,4 90 0 1 4,-4 l 4,0 10,0 30,0 4,0 a 4,4 90 0 1 4,4 l 0,4 -4,0 0,-3 -4,0 0,10 4,0 0,-3 4,0 0,17 -4,0 0,-3 -4,0 0,10 4,0 0,-3 4,0 0,4 a 4,4 90 0 1 -4,4 l -4,0 -30,0 -10,0 -4,0 a 4,4 90 0 1 -4,-4 l 0,-4 0,-21 0,-1 -6,0 0,3 -2,0 0,-8 2,0 0,3 6,0 z"
         style="fill:#ff5293;fill-opacity:1;stroke:#ff2c76;stroke-width:1;stroke-linecap:round;stroke-opacity:1"
         id="path228" />
      <text
         style="font-size:9px;font-family:sans-serif;text-anchor:end;fill:#282828"
         id="text232">
        <tspan
           x="54"
           y="23"
           id="tspan230">➗</tspan>
      </text>
      <text
         style="font-size:6px;font-family:sans-serif;text-anchor:end;fill:#282828"
         id="text236">
        <tspan
           x="54"
           y="12"
           id="tspan234" />
      </text>
      <text
         style="font-size:6px;font-family:sans-serif;text-anchor:end;fill:#282828"
         id="text240">
        <tspan
           x="54"
           y="33"
           id="tspan238" />
      </text>
    </g>
  </g>
  <g
     transform="matrix(0.26458333,0,0,0.26458333,57.546876,16.668748)"
     id="g254">
    <g
       transform="scale(1.5,1.5)"
       id="g252">
      <path
         d="m 8.5,0.5 60,0 0,20 -60,0 0,-8 0,-1 -6,0 0,3 -2,0 0,-8 2,0 0,3 6,0 0,-1 z"
         style="fill:#ff5293;fill-opacity:1;stroke:#ff2c76;stroke-width:1;stroke-linecap:round;stroke-opacity:1"
         id="path246" />
      <text
         style="font-size:10px;font-family:sans-serif;text-anchor:start;fill:#282828"
         id="text250">
        <tspan
           x="13"
           y="14"
           id="tspan248">1</tspan>
      </text>
    </g>
  </g>
  <g
     transform="matrix(0.26458333,0,0,0.26458333,57.546876,25.003123)"
     id="g264">
    <g
       transform="scale(1.5,1.5)"
       id="g262">
      <path
         d="m 8.5,0.5 60,0 0,20 -60,0 0,-8 0,-1 -6,0 0,3 -2,0 0,-8 2,0 0,3 6,0 0,-1 z"
         style="fill:#ff5293;fill-opacity:1;stroke:#ff2c76;stroke-width:1;stroke-linecap:round;stroke-opacity:1"
         id="path256" />
      <text
         style="font-size:10px;font-family:sans-serif;text-anchor:start;fill:#282828"
         id="text260">
        <tspan
           x="13"
           y="14"
           id="tspan258">4</tspan>
      </text>
    </g>
  </g>
  <g
     transform="matrix(0.26458333,0,0,0.26458333,3.5718764,25.003123)"
     id="g274">
    <g
       transform="scale(1.5,1.5)"
       id="g272">
      <path
         d="m 0.5,8.5 0,-4 a 4,4 90 0 1 4,-4 l 4,0 0,2 10,0 0,-2 20,0 4,0 a 4,4 90 0 1 4,4 l 0,4 0,4 0,4 a 4,4 90 0 1 -4,4 l -4,0 -20,0 -1,0 0,2 -8,0 0,-2 -1,0 -4,0 a 4,4 90 0 1 -4,-4 l 0,-4 z"
         style="fill:#b0b0b0;fill-opacity:1;stroke:#a0a0a0;stroke-width:1;stroke-linecap:round;stroke-opacity:1"
         id="path266" />
      <text
         style="font-size:10px;font-family:sans-serif;text-anchor:end;fill:#282828"
         id="text270">
        <tspan
           x="36"
           y="14"
           id="tspan268">↓</tspan>
      </text>
    </g>
  </g>
  <g
     transform="matrix(0.26458333,0,0,0.26458333,8.8635434,33.337498)"
     id="g292">
    <g
       transform="scale(1.5)"
       id="g290">
      <path
         d="m -12.833334,8.5 v -4 c 0,-2.209139 1.790861,-4 3.9999996,-4 h 4 v 2 h 10 v -2 H 48.5 h 4 c 2.209139,0 4,1.790861 4,4 v 4 h -4 v -3 h -4 v 10 h 4 v -3 h 4 v 17 h -4 v -3 h -4 v 10 h 4 v -3 h 4 v 4 c 0,2.209139 -1.790861,4 -4,4 h -4 -43.3333344 -1 v 2 h -8 v -2 h -1 -4 c -2.2091386,0 -4.6985916,-1.904227 -3.9999996,-4 v -4 -21 z"
         style="fill:#77c428;fill-opacity:1;stroke:#57ad02;stroke-width:1;stroke-linecap:round;stroke-opacity:1"
         id="path276" />
      <text
         style="font-size:10px;font-family:sans-serif;text-anchor:end;fill:#282828"
         id="text280">
        <tspan
           x="46"
           y="24"
           id="tspan278">音の高さ</tspan>
      </text>
      <text
         style="font-size:6.66666651px;font-family:sans-serif;text-anchor:end;fill:#282828"
         id="text284">
        <tspan
           x="46"
           y="12"
           id="tspan282">名前</tspan>
      </text>
      <text
         style="font-size:6.66666651px;font-family:sans-serif;text-anchor:end;fill:#282828"
         id="text288">
        <tspan
           x="46"
           y="33"
           id="tspan286">オクターヴの高さ</tspan>
      </text>
    </g>
  </g>
  <g
     transform="matrix(0.26458333,0,0,0.26458333,28.310421,33.337498)"
     id="g302">
    <g
       transform="scale(1.5)"
       id="g300">
      <path
         d="m 8.5,0.5 h 60 v 20 h -60 v -8 -1 h -6 v 3 h -2 v -8 h 2 v 3 h 6 v -1 z"
         style="fill:#77c428;fill-opacity:1;stroke:#57ad02;stroke-width:1;stroke-linecap:round;stroke-opacity:1"
         id="path294" />
      <text
         style="font-size:10px;font-family:sans-serif;text-anchor:start;fill:#282828"
         id="text298">
        <tspan
           x="13"
           y="14"
           id="tspan296">ド</tspan>
      </text>
    </g>
  </g>
  <g
     transform="matrix(0.26458333,0,0,0.26458333,28.310421,41.671873)"
     id="g312">
    <g
       transform="scale(1.5)"
       id="g310">
      <path
         d="m 8.5,0.5 h 60 v 20 h -60 v -8 -1 h -6 v 3 h -2 v -8 h 2 v 3 h 6 v -1 z"
         style="fill:#ff5293;fill-opacity:1;stroke:#ff2c76;stroke-width:1;stroke-linecap:round;stroke-opacity:1"
         id="path304" />
      <text
         style="font-size:10px;font-family:sans-serif;text-anchor:start;fill:#282828"
         id="text308">
        <tspan
           x="13"
           y="14"
           id="tspan306">4</tspan>
      </text>
    </g>
  </g>
  <g
     transform="matrix(0.26458333,0,0,0.26458333,24.077087,83.343747)"
     id="g1170">
    <g
       transform="scale(1.5,1.5)"
       id="g1168">
      <path
         d="m -42.166673,8.5 0,-4 c 0,-2.209139 1.790861,-4 4,-4 l 4,0 0,2 10,0 0,-2 114.639329,0 4,0 c 2.209139,0 4,1.790861 4,4 l 0,4 -4,0 0,-3 -4,0 0,10 4,0 0,-3 4,0 0,4 c 0,2.209139 -1.790861,4 -4,4 l -4,0 -114.639329,0 -1,0 0,2 -8,0 0,-2 -1,0 -4,0 c -2.209139,0 -6.12663,-3.401885 -4,-4 l 0,-4 z"
         style="fill:#77c428;fill-opacity:1;stroke:#57ad02;stroke-width:1;stroke-linecap:round;stroke-opacity:1"
         id="path1158" />
      <text
         style="font-size:10px;font-family:sans-serif;text-anchor:end;fill:#282828"
         id="text1162">
        <tspan
           x="88"
           y="14"
           id="tspan1160">音階内を上る／下りる(+/–)</tspan>
      </text>
      <text
         style="font-size:6.66666651px;font-family:sans-serif;text-anchor:end;fill:#282828"
         id="text1166">
        <tspan
           x="88"
           y="12"
           id="tspan1164" />
      </text>
    </g>
  </g>
  <g
     transform="matrix(0.26458333,0,0,0.26458333,60.181858,83.343747)"
     id="g1180">
    <g
       transform="scale(1.5,1.5)"
       id="g1178">
      <path
         d="m 8.5,0.5 60,0 0,20 -60,0 0,-8 0,-1 -6,0 0,3 -2,0 0,-8 2,0 0,3 6,0 0,-1 z"
         style="fill:#ff5293;fill-opacity:1;stroke:#ff2c76;stroke-width:1;stroke-linecap:round;stroke-opacity:1"
         id="path1172" />
      <text
         style="font-size:10px;font-family:sans-serif;text-anchor:start;fill:#282828"
         id="text1176">
        <tspan
           x="13"
           y="14"
           id="tspan1174">1</tspan>
      </text>
    </g>
  </g>
  <g
     id="g1344"
     transform="matrix(0.26458333,0,0,0.26458333,-146.31458,-129.38125)">
    <g
       transform="translate(566.5,741)"
       id="g1324">
      <g
         transform="scale(1.5,1.5)"
         id="g1322">
        <path
           d="m 0.5,8.5 0,-4 a 4,4 90 0 1 4,-4 l 4,0 0,2 10,0 0,-2 9,0 60,0 4,0 a 4,4 90 0 1 4,4 l 0,4 -4,0 0,-3 -4,0 0,10 4,0 0,-3 4,0 0,4 a 4,4 90 0 1 -4,4 l -4,0 -60,0 -1,0 0,2 -8,0 0,-2 -1,0 -4,0 a 5,5 90 0 0 -5,5 l 0,4 0,4 0,21 0,4 a 5,5 90 0 0 5,5 l 4,0 0,2 10,0 0,-2 8,0 0,6 0,6 0,4 a 4,4 90 0 1 -4,4 l -4,0 -9,0 -1,0 0,2 -8,0 0,-2 -1,0 -4,0 a 4,4 90 0 1 -4,-4 l 0,-4 z"
           style="fill:#ff8b2d;fill-opacity:1;stroke:#e86b0e;stroke-width:1;stroke-linecap:round;stroke-opacity:1"
           id="path1312" />
        <text
           style="font-size:10px;font-family:sans-serif;text-anchor:start;fill:#282828"
           id="text1316">
          <tspan
             x="20"
             y="15"
             id="tspan1314">音符</tspan>
        </text>
        <text
           style="font-size:6.66666651px;font-family:sans-serif;text-anchor:end;fill:#282828"
           id="text1320">
          <tspan
             x="85"
             y="12"
             id="tspan1318">長さ</tspan>
        </text>
      </g>
    </g>
    <g
       transform="matrix(0.5,0,0,0.5,566.5,745)"
       id="g1342">
      <g
         style="isolation:isolate"
         id="g1340">
        <g
           id="g1338"
           data-name="レイヤー 2">
          <g
             id="g1336">
            <rect
               width="42"
               height="42"
               rx="5"
               ry="5"
               style="opacity:0.4;mix-blend-mode:multiply;fill:#292929"
               id="rect1326"
               x="0"
               y="0" />
            <path
               d="m 30.56,29.8 -4.17,-4.16 2.26,0 a 1.035,1.035 0 1 0 0,-2.07 l -4.71,0 a 1.08,1.08 0 0 0 -1.11,1 l 0,0 c 0,0 0,0 0,0.06 l 0,4.64 0,0 a 1.04,1.04 0 1 0 2.08,0 l 0,-2.19 4.19,4.19 a 1,1 0 0 0 1.46,0 1,1 0 0 0 0,-1.47 z"
               style="fill:#ffffff"
               id="path1328" />
            <path
               d="m 19.17,24.6 a 1.08,1.08 0 0 0 -1.11,-1 l -4.71,0 a 1.035,1.035 0 1 0 0,2.07 l 2.25,0 -4.16,4.13 a 1.039447,1.039447 0 0 0 1.47,1.47 l 4.18,-4.19 0,2.26 a 1.04,1.04 0 1 0 2.08,0 l 0,-4.64 c 0,0 0,0 0,-0.06 a 0.08,0.08 0 0 1 0,-0.04 z"
               style="fill:#ffffff"
               id="path1330" />
            <path
               d="m 23.94,20.5 4.7,0 a 1.04,1.04 0 1 0 0,-2.08 l -2.25,0 4.17,-4.16 a 1,1 0 0 0 0,-1.47 1,1 0 0 0 -1.46,0 l -4.19,4.21 0,-2.28 a 1.04,1.04 0 1 0 -2.08,0 l 0,4.64 a 0.43,0.43 0 0 0 0,0.05 l 0,0.05 a 1.09,1.09 0 0 0 1.11,1.04 z"
               style="fill:#ffffff"
               id="path1332" />
            <path
               d="m 18.13,13.62 a 1.08,1.08 0 0 0 -1,1.09 l 0,2.29 -4.18,-4.19 a 1,1 0 0 0 -1.47,0 1,1 0 0 0 0,1.46 l 4.16,4.17 -2.29,0 a 1.04,1.04 0 1 0 0,2.08 l 4.71,0 a 1.09,1.09 0 0 0 1.11,-1 c 0,0 0,0 0,-0.06 l 0,-4.75 a 1.07,1.07 0 0 0 -1.04,-1.09 z"
               style="fill:#ffffff"
               id="path1334" />
          </g>
        </g>
      </g>
    </g>
  </g>
  <g
     transform="matrix(0.26458333,0,0,0.26458333,38.496876,66.674998)"
     id="g1362">
    <g
       transform="scale(1.5,1.5)"
       id="g1360">
      <path
         d="m 8.5,8.5 0,-4 a 4,4 90 0 1 4,-4 l 4,0 10,0 30,0 4,0 a 4,4 90 0 1 4,4 l 0,4 -4,0 0,-3 -4,0 0,10 4,0 0,-3 4,0 0,17 -4,0 0,-3 -4,0 0,10 4,0 0,-3 4,0 0,4 a 4,4 90 0 1 -4,4 l -4,0 -30,0 -10,0 -4,0 a 4,4 90 0 1 -4,-4 l 0,-4 0,-21 0,-1 -6,0 0,3 -2,0 0,-8 2,0 0,3 6,0 z"
         style="fill:#ff5293;fill-opacity:1;stroke:#ff2c76;stroke-width:1;stroke-linecap:round;stroke-opacity:1"
         id="path1346" />
      <text
         style="font-size:9px;font-family:sans-serif;text-anchor:end;fill:#282828"
         id="text1350">
        <tspan
           x="54"
           y="23"
           id="tspan1348">➗</tspan>
      </text>
      <text
         style="font-size:6px;font-family:sans-serif;text-anchor:end;fill:#282828"
         id="text1354">
        <tspan
           x="54"
           y="12"
           id="tspan1352" />
      </text>
      <text
         style="font-size:6px;font-family:sans-serif;text-anchor:end;fill:#282828"
         id="text1358">
        <tspan
           x="54"
           y="33"
           id="tspan1356" />
      </text>
    </g>
  </g>
  <g
     transform="matrix(0.26458333,0,0,0.26458333,61.118751,66.674998)"
     id="g1372">
    <g
       transform="scale(1.5,1.5)"
       id="g1370">
      <path
         d="m 8.5,0.5 60,0 0,20 -60,0 0,-8 0,-1 -6,0 0,3 -2,0 0,-8 2,0 0,3 6,0 0,-1 z"
         style="fill:#ff5293;fill-opacity:1;stroke:#ff2c76;stroke-width:1;stroke-linecap:round;stroke-opacity:1"
         id="path1364" />
      <text
         style="font-size:10px;font-family:sans-serif;text-anchor:start;fill:#282828"
         id="text1368">
        <tspan
           x="13"
           y="14"
           id="tspan1366">1</tspan>
      </text>
    </g>
  </g>
  <g
     transform="matrix(0.26458333,0,0,0.26458333,61.118751,75.009372)"
     id="g1382">
    <g
       transform="scale(1.5,1.5)"
       id="g1380">
      <path
         d="m 8.5,0.5 60,0 0,20 -60,0 0,-8 0,-1 -6,0 0,3 -2,0 0,-8 2,0 0,3 6,0 0,-1 z"
         style="fill:#ff5293;fill-opacity:1;stroke:#ff2c76;stroke-width:1;stroke-linecap:round;stroke-opacity:1"
         id="path1374" />
      <text
         style="font-size:10px;font-family:sans-serif;text-anchor:start;fill:#282828"
         id="text1378">
        <tspan
           x="13"
           y="14"
           id="tspan1376">4</tspan>
      </text>
    </g>
  </g>
  <g
     transform="matrix(0.26458333,0,0,0.26458333,7.1437514,75.009372)"
     id="g1392">
    <g
       transform="scale(1.5,1.5)"
       id="g1390">
      <path
         d="m 0.5,8.5 0,-4 a 4,4 90 0 1 4,-4 l 4,0 0,2 10,0 0,-2 20,0 4,0 a 4,4 90 0 1 4,4 l 0,4 0,4 0,4 a 4,4 90 0 1 -4,4 l -4,0 -20,0 -1,0 0,2 -8,0 0,-2 -1,0 -4,0 a 4,4 90 0 1 -4,-4 l 0,-4 z"
         style="fill:#b0b0b0;fill-opacity:1;stroke:#a0a0a0;stroke-width:1;stroke-linecap:round;stroke-opacity:1"
         id="path1384" />
      <text
         style="font-size:10px;font-family:sans-serif;text-anchor:end;fill:#282828"
         id="text1388">
        <tspan
           x="36"
           y="14"
           id="tspan1386">↓</tspan>
      </text>
    </g>
  </g>
  <g
     transform="matrix(0.26458333,0,0,0.26458333,2.1166683,-1.63e-6)"
     id="g1664">
    <g
       transform="scale(1.5)"
       id="g1662">
      <path
         d="m -4.8333338,8.5 v -4 c 0,-2.209139 1.790861,-4 4.00000005,-4 H 3.1666662 v 2 h 9.9999998 v -2 h 37.013021 4 c 2.209139,0 4,1.790861 4,4 v 4 h -4 v -3 h -4 v 10 h 4 v -3 h 4 v 17 h -4 v -3 h -4 v 10 h 4 v -3 h 4 v 4 c 0,2.209139 -1.790861,4 -4,4 h -4 -37.013021 -1 v 2 H 4.1666662 v -2 h -1 -3.99999995 c -2.20913905,0 -4.69859115,-1.904227 -4.00000005,-4 v -4 -21 z"
         style="fill:#77c428;fill-opacity:1;stroke:#57ad02;stroke-width:1;stroke-linecap:round;stroke-opacity:1"
         id="path1648" />
      <text
         style="font-size:10px;font-family:sans-serif;text-anchor:end;fill:#282828"
         id="text1652">
        <tspan
           x="48"
           y="24"
           id="tspan1650">調の設定</tspan>
      </text>
      <text
         style="font-size:6.66666651px;font-family:sans-serif;text-anchor:end;fill:#282828"
         id="text1656">
        <tspan
           x="48"
           y="12"
           id="tspan1654">調</tspan>
      </text>
      <text
         style="font-size:6.66666651px;font-family:sans-serif;text-anchor:end;fill:#282828"
         id="text1660">
        <tspan
           x="48"
           y="33"
           id="tspan1658">モード（音階）</tspan>
      </text>
    </g>
  </g>
  <g
     transform="matrix(0.26458333,0,0,0.26458333,22.23017,-1.63e-6)"
     id="g1674">
    <g
       transform="scale(1.5)"
       id="g1672">
      <path
         d="m 8.5,0.5 h 60 v 20 h -60 v -8 -1 h -6 v 3 h -2 v -8 h 2 v 3 h 6 v -1 z"
         style="fill:#77c428;fill-opacity:1;stroke:#57ad02;stroke-width:1;stroke-linecap:round;stroke-opacity:1"
         id="path1666" />
      <text
         style="font-size:10px;font-family:sans-serif;text-anchor:start;fill:#282828"
         id="text1670">
        <tspan
           x="13"
           y="14"
           id="tspan1668">C</tspan>
      </text>
    </g>
  </g>
  <g
     transform="matrix(0.26458333,0,0,0.26458333,22.23017,8.3343733)"
     id="g1684">
    <g
       transform="scale(1.5)"
       id="g1682">
      <path
         d="m 8.5,0.5 h 110 v 20 H 8.5 v -8 -1 h -6 v 3 h -2 v -8 h 2 v 3 h 6 v -1 z"
         style="fill:#77c428;fill-opacity:1;stroke:#57ad02;stroke-width:1;stroke-linecap:round;stroke-opacity:1"
         id="path1676" />
      <text
         style="font-size:10px;font-family:sans-serif;text-anchor:start;fill:#282828"
         id="text1680">
        <tspan
           x="13"
           y="14"
           id="tspan1678">メジャー</tspan>
      </text>
    </g>
  </g>
  <g
     transform="matrix(0.26458333,0,0,0.26458333,26.811114,58.340623)"
     id="g1694">
    <g
       transform="scale(1.5)"
       id="g1692">
      <path
         d="m 8.5,0.5 h 95.03906 v 20 H 8.5 v -8 -1 h -6 v 3 h -2 v -8 h 2 v 3 h 6 v -1 z"
         style="fill:#77c428;fill-opacity:1;stroke:#57ad02;stroke-width:1;stroke-linecap:round;stroke-opacity:1"
         id="path1686" />
      <text
         style="font-size:10px;font-family:sans-serif;text-anchor:start;fill:#282828"
         id="text1690">
        <tspan
           x="13"
           y="14"
           id="tspan1688">音階の音数</tspan>
      </text>
    </g>
  </g>
  <g
     transform="matrix(0.26458333,0,0,0.26458333,1.49e-6,58.340623)"
     id="g1708">
    <g
       transform="scale(1.5,1.5)"
       id="g1706">
      <path
         d="m 0.5,8.5 v -4 c 0,-2.209139 1.790861,-4 4,-4 h 4 v 2 h 10 v -2 h 9 39.555558 4 c 2.209139,0 6.12663,3.4018855 4,4 v 4 h -4 v -3 h -4 v 10 h 4 v -3 h 4 v 4 c 0,2.209139 -1.790861,4 -4,4 h -4 H 27.5 h -1 v 2 h -8 v -2 h -1 -4 c -2.761424,0 -5,2.238576 -5,5 v 4 4 63 4 c 0,2.76142 2.238576,5 5,5 h 4 v 2 h 10 v -2 h 8 v 6 6 4 c 0,2.20914 -1.790861,4 -4,4 h -4 -9 -1 v 2 h -8 v -2 h -1 -4 c -2.209139,0 -4,-1.79086 -4,-4 v -4 z"
         style="fill:#d68136;fill-opacity:1;stroke:#b7651a;stroke-width:1;stroke-linecap:round;stroke-opacity:1"
         id="path1696" />
      <text
         style="font-size:10px;font-family:sans-serif;text-anchor:start;fill:#282828"
         id="text1700">
        <tspan
           x="5"
           y="15"
           id="tspan1698">～回繰り返す</tspan>
      </text>
      <text
         style="font-size:6.66666651px;font-family:sans-serif;text-anchor:end;fill:#282828"
         id="text1704">
        <tspan
           x="45"
           y="12"
           id="tspan1702" />
      </text>
    </g>
  </g>
</svg>
