<?xml version="1.0" encoding="UTF-8" standalone="no"?>
<!-- Created with Inkscape (http://www.inkscape.org/) -->

<svg
   xmlns:dc="http://purl.org/dc/elements/1.1/"
   xmlns:cc="http://creativecommons.org/ns#"
   xmlns:rdf="http://www.w3.org/1999/02/22-rdf-syntax-ns#"
   xmlns:svg="http://www.w3.org/2000/svg"
   xmlns="http://www.w3.org/2000/svg"
   xmlns:sodipodi="http://sodipodi.sourceforge.net/DTD/sodipodi-0.dtd"
   xmlns:inkscape="http://www.inkscape.org/namespaces/inkscape"
   width="67.336456mm"
   height="17.4625mm"
   viewBox="0 0 67.336457 17.4625"
   version="1.1"
   id="svg1430"
   inkscape:version="0.91 r13725"
   sodipodi:docname="setkey2.svg">
  <defs
     id="defs1424" />
  <sodipodi:namedview
     id="base"
     pagecolor="#ffffff"
     bordercolor="#666666"
     borderopacity="1.0"
     inkscape:pageopacity="0.0"
     inkscape:pageshadow="2"
     inkscape:zoom="4.8199085"
     inkscape:cx="68.880976"
     inkscape:cy="30.937499"
     inkscape:document-units="mm"
     inkscape:current-layer="layer1"
     showgrid="false"
     fit-margin-top="0"
     fit-margin-left="0"
     fit-margin-right="0"
     fit-margin-bottom="0"
     inkscape:window-width="1278"
     inkscape:window-height="773"
     inkscape:window-x="0"
     inkscape:window-y="1"
     inkscape:window-maximized="1" />
  <metadata
     id="metadata1427">
    <rdf:RDF>
      <cc:Work
         rdf:about="">
        <dc:format>image/svg+xml</dc:format>
        <dc:type
           rdf:resource="http://purl.org/dc/dcmitype/StillImage" />
        <dc:title />
      </cc:Work>
    </rdf:RDF>
  </metadata>
  <g
     inkscape:label="Layer 1"
     inkscape:groupmode="layer"
     id="layer1"
     transform="translate(208.16736,-202.04276)">
    <g
       id="g3505"
       transform="matrix(0.26458333,0,0,0.26458333,-208.16736,202.04276)">
      <g
         transform="scale(1.5)"
         id="g3503">
        <path
           inkscape:connector-curvature="0"
           d="m 0.5,8.5 v -4 a 4,4 90 0 1 4,-4 h 4 v 2 h 10 v -2 h 31.679687 4 a 4,4 90 0 1 4,4 v 4 h -4 v -3 h -4 v 10 h 4 v -3 h 4 v 17 h -4 v -3 h -4 v 10 h 4 v -3 h 4 v 4 a 4,4 90 0 1 -4,4 h -4 H 18.5 h -1 v 2 h -8 v -2 h -1 -4 a 4,4 90 0 1 -4,-4 v -4 -21 z"
           style="fill:#93e042;fill-opacity:1;stroke:#004000;stroke-width:1;stroke-linecap:round;stroke-opacity:1"
           id="path3489" />
        <text
           style="font-size:10px;font-family:sans-serif;text-anchor:end;fill:#000000"
           id="text3493">
          <tspan
             x="48"
             y="24"
             id="tspan3491">調の設定</tspan>
        </text>
        <text
           style="font-size:6.66666651px;font-family:sans-serif;text-anchor:end;fill:#000000"
           id="text3497">
          <tspan
             x="48"
             y="12"
             id="tspan3495">調</tspan>
        </text>
        <text
           style="font-size:6.66666651px;font-family:sans-serif;text-anchor:end;fill:#000000"
           id="text3501">
          <tspan
             x="48"
             y="33"
             id="tspan3499">モード（音階)</tspan>
        </text>
      </g>
    </g>
    <g
       transform="matrix(0.26458333,0,0,0.26458333,-188.05903,202.04276)"
       id="g3515">
      <g
         transform="scale(1.5)"
         id="g3513">
        <path
           inkscape:connector-curvature="0"
           d="m 8.5,0.5 h 60 v 20 h -60 v -8 -1 h -6 v 3 h -2 v -8 h 2 v 3 h 6 v -1 z"
           style="fill:#93e042;fill-opacity:1;stroke:#004000;stroke-width:1;stroke-linecap:round;stroke-opacity:1"
           id="path3507" />
        <text
           style="font-size:10px;font-family:sans-serif;text-anchor:start;fill:#000000"
           id="text3511">
          <tspan
             x="13"
             y="14"
             id="tspan3509">C</tspan>
        </text>
      </g>
    </g>
    <g
       transform="matrix(0.26458333,0,0,0.26458333,-188.05903,210.50943)"
       id="g3525">
      <g
         transform="scale(1.5)"
         id="g3523">
        <path
           inkscape:connector-curvature="0"
           d="m 8.5,0.5 h 110 v 20 H 8.5 v -8 -1 h -6 v 3 h -2 v -8 h 2 v 3 h 6 v -1 z"
           style="fill:#93e042;fill-opacity:1;stroke:#004000;stroke-width:1;stroke-linecap:round;stroke-opacity:1"
           id="path3517" />
        <text
           style="font-size:10px;font-family:sans-serif;text-anchor:start;fill:#000000"
           id="text3521">
          <tspan
             x="13"
             y="14"
             id="tspan3519">メジャー</tspan>
        </text>
      </g>
    </g>
  </g>
</svg>
