<?xml version="1.0" encoding="UTF-8" standalone="no"?>
<svg
   xmlns:dc="http://purl.org/dc/elements/1.1/"
   xmlns:cc="http://creativecommons.org/ns#"
   xmlns:rdf="http://www.w3.org/1999/02/22-rdf-syntax-ns#"
   xmlns:svg="http://www.w3.org/2000/svg"
   xmlns="http://www.w3.org/2000/svg"
   width="365.5"
   height="786.34308"
   version="1.1"
   id="svg1815">
  <metadata
     id="metadata1821">
    <rdf:RDF>
      <cc:Work
         rdf:about="">
        <dc:format>image/svg+xml</dc:format>
        <dc:type
           rdf:resource="http://purl.org/dc/dcmitype/StillImage" />
        <dc:title></dc:title>
      </cc:Work>
    </rdf:RDF>
  </metadata>
  <defs
     id="defs1819" />
  <rect
     style="fill:none;stroke:none"
     id="backgroundrect"
     width="323"
     height="784"
     x="0"
     y="1.1715275" />
  <g
     transform="matrix(1.5,0,0,1.5,239,170.17153)"
     id="svg_17">
    <path
       d="m -158.83333,-98.666664 0,-3.999996 a 4,4 90 0 1 4,-4 l 4,0 5,-6 5,6 9,0 69.000002,0 4,0 a 4,4 90 0 1 4,4 l 0,3.999996 0,4 0,4 a 4,4 90 0 1 -4,4 l -4,0 -69.000002,0 -1,0 0,2 -8,0 0,-2 -1,0 -4,0 a 5,5 90 0 0 -5,5 l 0,4 0,4 0,147 0,4 a 5,5 90 0 0 5,5 l 4,0 0,2 10,0 0,-2 8,0 0,6 0,6 0,4 a 4,4 90 0 1 -4,4.000004 l -4,0 -9,0 -5,6 -5,-6 -4,0 a 4,4 90 0 1 -4,-4.000004 l 0,-4 z"
       style="fill:#77c428;fill-opacity:1;stroke:#57ad02;stroke-width:1;stroke-linecap:round;stroke-opacity:1"
       id="svg_18" />
    <text
       style="font-size:10px;font-family:sans-serif;text-anchor:start;fill:#282828"
       id="svg_19"
       y="-113.16666"
       x="-159.33333">
      <tspan
         x="-139.33333"
         y="-91.166664"
         id="svg_20">フレーズメーカー</tspan>
    </text>
  </g>
  <g
     style="isolation:isolate"
     id="svg_22"
     transform="matrix(0.5,0,0,0.5,239,182.17153)">
    <g
       id="レイヤー_2"
       data-name="レイヤー 2">
      <g
         id="Icon">
        <rect
           width="42"
           height="42"
           rx="5"
           ry="5"
           style="opacity:0.4;mix-blend-mode:multiply;fill:#292929"
           id="svg_23"
           y="-339.5"
           x="-478" />
        <path
           d="m -447.44,-309.7 -4.17,-4.16 2.26,0 a 1.035,1.035 0 1 0 0,-2.07 l -4.71,0 a 1.08,1.08 0 0 0 -1.11,1 l 0,0 c 0,0 0,0 0,0.06 l 0,4.64 0,0 a 1.04,1.04 0 1 0 2.08,0 l 0,-2.19 4.19,4.19 a 1,1 0 0 0 1.46,0 1,1 0 0 0 0,-1.47 z"
           style="fill:#ffffff"
           id="svg_24" />
        <path
           d="m -458.83,-314.9 a 1.08,1.08 0 0 0 -1.11,-1 l -4.71,0 a 1.035,1.035 0 1 0 0,2.07 l 2.25,0 -4.16,4.13 a 1.039447,1.039447 0 0 0 1.47,1.47 l 4.18,-4.19 0,2.26 a 1.04,1.04 0 1 0 2.08,0 l 0,-4.64 c 0,0 0,0 0,-0.06 a 0.08,0.08 0 0 1 0,-0.04 z"
           style="fill:#ffffff"
           id="svg_25" />
        <path
           d="m -454.06,-319 4.7,0 a 1.04,1.04 0 1 0 0,-2.08 l -2.25,0 4.17,-4.16 a 1,1 0 0 0 0,-1.47 1,1 0 0 0 -1.46,0 l -4.19,4.21 0,-2.28 a 1.04,1.04 0 1 0 -2.08,0 l 0,4.64 a 0.43000001,0.43000001 0 0 0 0,0.05 l 0,0.05 a 1.09,1.09 0 0 0 1.11,1.04 z"
           style="fill:#ffffff"
           id="svg_26" />
        <path
           d="m -459.87,-325.88 a 1.08,1.08 0 0 0 -1,1.09 l 0,2.29 -4.18,-4.19 a 1,1 0 0 0 -1.47,0 1,1 0 0 0 0,1.46 l 4.16,4.17 -2.29,0 a 1.04,1.04 0 1 0 0,2.08 l 4.71,0 a 1.09,1.09 0 0 0 1.11,-1 c 0,0 0,0 0,-0.06 l 0,-4.75 a 1.0700001,1.0700001 0 0 0 -1.04,-1.09 z"
           style="fill:#ffffff"
           id="svg_27" />
      </g>
    </g>
  </g>
  <path
     d="m 14.750005,54.171537 0,-6 c 0,-3.313708 2.686292,-6 6,-6 l 6,0 0,3 15,0 0,-3 69.000005,0 6,0 c 3.3137,0 6,2.686292 6,6 l 0,6 -6,0 0,-4.5 -6,0 0,14.999994 6,0 0,-4.499994 6,0 0,25.499994 -6,0 0,-4.5 -6,0 0,15 6,0 0,-4.5 6,0 0,6 c 0,3.313709 -2.6863,5.999999 -6,5.999999 l -6,0 -69.000005,0 -1.5,0 0,3 -12,0 0,-3 -1.5,0 -6,0 c -3.313707,0 -5.999998,-2.68629 -6,-5.999999 l 0,-6 0,-31.499994 z"
     style="fill:#77c428;fill-opacity:1;stroke:#57ad02;stroke-width:1.5;stroke-linecap:round;stroke-opacity:1"
     id="svg_30" />
  <text
     style="font-size:15px;font-family:sans-serif;text-anchor:end;fill:#282828;stroke-width:1.5"
     id="svg_31"
     y="41.421543"
     x="38.000008">
    <tspan
       x="107.00001"
       y="77.421524"
       id="svg_32"
       style="stroke-width:1.5">音の高さ</tspan>
  </text>
  <text
     style="font-size:10px;font-family:sans-serif;text-anchor:end;fill:#282828;stroke-width:1.5"
     id="svg_33"
     y="41.421543"
     x="38.000008">
    <tspan
       x="107.00001"
       y="59.421543"
       id="svg_34"
       style="stroke-width:1.5">名前</tspan>
  </text>
  <text
     style="font-size:10px;font-family:sans-serif;text-anchor:end;fill:#282828;stroke-width:1.5"
     id="svg_35"
     y="41.421543"
     x="38.000008">
    <tspan
       x="107.00001"
       y="90.921524"
       id="svg_36"
       style="stroke-width:1.5">オクターヴの高さ</tspan>
  </text>
  <path
     d="m 124.75001,42.171537 90,0 0,29.999994 -90,0 0,-11.999994 0,-1.5 -9,0 0,4.499994 -3,0 0,-11.999994 3,0 0,4.5 9,0 0,-1.5 z"
     style="fill:#77c428;fill-opacity:1;stroke:#57ad02;stroke-width:1.5;stroke-linecap:round;stroke-opacity:1"
     id="svg_39" />
  <text
     style="font-size:15px;font-family:sans-serif;text-anchor:start;fill:#282828;stroke-width:1.5"
     id="svg_40"
     y="41.421543"
     x="112.00001">
    <tspan
       x="131.5"
       y="62.421532"
       id="svg_41"
       style="stroke-width:1.5">ソ</tspan>
  </text>
  <path
     d="m 124.75001,74.171537 90,0 0,29.999993 -90,0 0,-11.999993 0,-1.5 -9,0 0,4.499994 -3,0 0,-11.999994 3,0 0,4.5 9,0 0,-1.5 z"
     style="fill:#ff5293;fill-opacity:1;stroke:#ff2c76;stroke-width:1.5;stroke-linecap:round;stroke-opacity:1"
     id="svg_44" />
  <text
     style="font-size:15px;font-family:sans-serif;text-anchor:start;fill:#282828;stroke-width:1.5"
     id="svg_45"
     y="73.421539"
     x="112.00001">
    <tspan
       x="131.5"
       y="94.421524"
       id="svg_46"
       style="stroke-width:1.5">4</tspan>
  </text>
  <path
     d="m 14.750005,117.17154 0,-6 c 0,-3.31371 2.686292,-6 6,-6 l 6,0 0,3 15,0 0,-3 69.000005,0 6,0 c 3.3137,0 6,2.68629 6,6 l 0,6 -6,0 0,-4.5 -6,0 0,14.99999 6,0 0,-4.49999 6,0 0,25.49999 -6,0 0,-4.5 -6,0 0,15 6,0 0,-4.5 6,0 0,6 c 0,3.31371 -2.6863,6 -6,6 l -6,0 -69.000005,0 -1.5,0 0,3 -12,0 0,-3 -1.5,0 -6,0 c -3.313708,0 -6,-2.68629 -6,-6 l 0,-6 0,-31.49999 z"
     style="fill:#77c428;fill-opacity:1;stroke:#57ad02;stroke-width:1.5;stroke-linecap:round;stroke-opacity:1"
     id="svg_49" />
  <text
     style="font-size:15px;font-family:sans-serif;text-anchor:end;fill:#282828;stroke-width:1.5"
     id="svg_50"
     y="104.42155"
     x="38.000008">
    <tspan
       x="107.00001"
       y="140.42152"
       id="svg_51"
       style="stroke-width:1.5">音の高さ</tspan>
  </text>
  <text
     style="font-size:10px;font-family:sans-serif;text-anchor:end;fill:#282828;stroke-width:1.5"
     id="svg_52"
     y="104.42155"
     x="38.000008">
    <tspan
       x="107.00001"
       y="122.42155"
       id="svg_53"
       style="stroke-width:1.5">名前</tspan>
  </text>
  <text
     style="font-size:10px;font-family:sans-serif;text-anchor:end;fill:#282828;stroke-width:1.5"
     id="svg_54"
     y="104.42155"
     x="38.000008">
    <tspan
       x="107.00001"
       y="153.92152"
       id="svg_55"
       style="stroke-width:1.5">オクターヴの高さ</tspan>
  </text>
  <path
     d="m 124.75001,105.17154 90,0 0,29.99999 -90,0 0,-11.99999 0,-1.5 -9,0 0,4.49999 -3,0 0,-11.99999 3,0 0,4.5 9,0 0,-1.5 z"
     style="fill:#77c428;fill-opacity:1;stroke:#57ad02;stroke-width:1.5;stroke-linecap:round;stroke-opacity:1"
     id="svg_58" />
  <text
     style="font-size:15px;font-family:sans-serif;text-anchor:start;fill:#282828;stroke-width:1.5"
     id="svg_59"
     y="104.42155"
     x="112.00001">
    <tspan
       x="131.5"
       y="125.42152"
       id="svg_60"
       style="stroke-width:1.5">ミ</tspan>
  </text>
  <path
     d="m 124.75001,137.17154 90,0 0,29.99999 -90,0 0,-11.99999 0,-1.5 -9,0 0,4.49999 -3,0 0,-11.99999 3,0 0,4.5 9,0 0,-1.5 z"
     style="fill:#ff5293;fill-opacity:1;stroke:#ff2c76;stroke-width:1.5;stroke-linecap:round;stroke-opacity:1"
     id="svg_63" />
  <text
     style="font-size:15px;font-family:sans-serif;text-anchor:start;fill:#282828;stroke-width:1.5"
     id="svg_64"
     y="136.42154"
     x="112.00001">
    <tspan
       x="131.5"
       y="157.42152"
       id="svg_65"
       style="stroke-width:1.5">4</tspan>
  </text>
  <path
     d="m 14.750005,180.17154 0,-6 c 0,-3.31371 2.686292,-6 6,-6 l 6,0 0,3 15,0 0,-3 69.000005,0 6,0 c 3.3137,0 7.04788,2.85634 6,6 l 0,6 -6,0 0,-4.5 -6,0 0,14.99999 6,0 0,-4.49999 6,0 0,25.49999 -6,0 0,-4.5 -6,0 0,15 6,0 0,-4.5 6,0 0,6 c 0,3.31371 -2.6863,6 -6,6 l -6,0 -69.000005,0 -1.5,0 0,3 -12,0 0,-3 -1.5,0 -6,0 c -3.313708,0 -6,-2.68629 -6,-6 l 0,-6 0,-31.49999 z"
     style="fill:#77c428;fill-opacity:1;stroke:#57ad02;stroke-width:1.5;stroke-linecap:round;stroke-opacity:1"
     id="svg_68" />
  <text
     style="font-size:15px;font-family:sans-serif;text-anchor:end;fill:#282828;stroke-width:1.5"
     id="svg_69"
     y="167.42154"
     x="38.000008">
    <tspan
       x="107.00001"
       y="203.42152"
       id="svg_70"
       style="stroke-width:1.5">音の高さ</tspan>
  </text>
  <text
     style="font-size:10px;font-family:sans-serif;text-anchor:end;fill:#282828;stroke-width:1.5"
     id="svg_71"
     y="167.42154"
     x="38.000008">
    <tspan
       x="107.00001"
       y="185.42154"
       id="svg_72"
       style="stroke-width:1.5">名前</tspan>
  </text>
  <text
     style="font-size:10px;font-family:sans-serif;text-anchor:end;fill:#282828;stroke-width:1.5"
     id="svg_73"
     y="167.42154"
     x="38.000008">
    <tspan
       x="107.00001"
       y="216.92152"
       id="svg_74"
       style="stroke-width:1.5">オクターヴの高さ</tspan>
  </text>
  <path
     d="m 124.75001,168.17154 90,0 0,29.99999 -90,0 0,-11.99999 0,-1.5 -9,0 0,4.49999 -3,0 0,-11.99999 3,0 0,4.5 9,0 0,-1.5 z"
     style="fill:#77c428;fill-opacity:1;stroke:#57ad02;stroke-width:1.5;stroke-linecap:round;stroke-opacity:1"
     id="svg_77" />
  <text
     style="font-size:15px;font-family:sans-serif;text-anchor:start;fill:#282828;stroke-width:1.5"
     id="svg_78"
     y="167.42154"
     x="112.00001">
    <tspan
       x="131.5"
       y="188.42152"
       id="svg_79"
       style="stroke-width:1.5">レ</tspan>
  </text>
  <path
     d="m 124.75001,200.17154 90,0 0,29.99999 -90,0 0,-11.99999 0,-1.5 -9,0 0,4.49999 -3,0 0,-11.99999 3,0 0,4.5 9,0 0,-1.5 z"
     style="fill:#ff5293;fill-opacity:1;stroke:#ff2c76;stroke-width:1.5;stroke-linecap:round;stroke-opacity:1"
     id="svg_82" />
  <text
     style="font-size:15px;font-family:sans-serif;text-anchor:start;fill:#282828;stroke-width:1.5"
     id="svg_83"
     y="199.42154"
     x="112.00001">
    <tspan
       x="131.5"
       y="220.42152"
       id="svg_84"
       style="stroke-width:1.5">4</tspan>
  </text>
  <path
     d="m 14.750005,243.17154 0,-6 a 6,6 0 0 1 6,-6 l 6,0 0,3 15,0 0,-3 91.500005,0 6,0 a 6,6 0 0 1 6,6 l 0,6 -6,0 0,-4.5 -6,0 0,14.99999 6,0 0,-4.49999 6,0 0,25.49999 -6,0 0,-4.5 -6,0 0,15 6,0 0,-4.5 6,0 0,6 a 6,6 0 0 1 -6,6 l -6,0 -91.500005,0 -1.5,0 0,3 -12,0 0,-3 -1.5,0 -6,0 a 6,6 0 0 1 -6,-6 l 0,-6 0,-31.49999 z"
     style="fill:#ff8b2d;fill-opacity:1;stroke:#e86b0e;stroke-width:1.5;stroke-linecap:round;stroke-opacity:1"
     id="svg_87" />
  <text
     style="font-size:15px;font-family:sans-serif;text-anchor:end;fill:#282828;stroke-width:1.5"
     id="svg_88"
     y="230.42154"
     x="14.000008">
    <tspan
       x="129.5"
       y="266.42154"
       id="svg_89"
       style="stroke-width:1.5">連符（わり算）</tspan>
  </text>
  <text
     style="font-size:10px;font-family:sans-serif;text-anchor:end;fill:#282828;stroke-width:1.5"
     id="svg_90"
     y="230.42154"
     x="14.000008">
    <tspan
       x="129.5"
       y="248.42154"
       id="svg_91"
       style="stroke-width:1.5">音符の数</tspan>
  </text>
  <text
     style="font-size:10px;font-family:sans-serif;text-anchor:end;fill:#282828;stroke-width:1.5"
     id="svg_92"
     y="230.42154"
     x="14.000008">
    <tspan
       x="129.5"
       y="279.92154"
       id="svg_93"
       style="stroke-width:1.5">音の長さ</tspan>
  </text>
  <path
     d="m 146.75001,231.17154 90,0 0,29.99999 -90,0 0,-11.99999 0,-1.5 -9,0 0,4.49999 -3,0 0,-11.99999 3,0 0,4.5 9,0 0,-1.5 z"
     style="fill:#ff5293;fill-opacity:1;stroke:#ff2c76;stroke-width:1.5;stroke-linecap:round;stroke-opacity:1"
     id="svg_96" />
  <text
     style="font-size:15px;font-family:sans-serif;text-anchor:start;fill:#282828;stroke-width:1.5"
     id="svg_97"
     y="230.42154"
     x="134">
    <tspan
       x="153.5"
       y="251.42152"
       id="svg_98"
       style="stroke-width:1.5">3</tspan>
  </text>
  <path
     d="m 146.75001,275.17154 0,-6 a 6,6 0 0 1 6,-6 l 6,0 15,0 45,0 6,0 a 6,6 0 0 1 6,6 l 0,6 -6,0 0,-4.5 -6,0 0,14.99999 6,0 0,-4.49999 6,0 0,25.49999 -6,0 0,-4.5 -6,0 0,15 6,0 0,-4.5 6,0 0,6 a 6,6 0 0 1 -6,6 l -6,0 -45,0 -15,0 -6,0 a 6,6 0 0 1 -6,-6 l 0,-6 0,-31.49999 0,-1.5 -9,0 0,4.49999 -3,0 0,-11.99999 3,0 0,4.5 9,0 z"
     style="fill:#ff5293;fill-opacity:1;stroke:#ff2c76;stroke-width:1.5;stroke-linecap:round;stroke-opacity:1"
     id="svg_101" />
  <text
     style="font-size:13.5px;font-family:sans-serif;text-anchor:end;fill:#282828;stroke-width:1.5"
     id="svg_102"
     y="262.42154"
     x="134">
    <tspan
       x="215"
       y="296.92154"
       id="svg_103"
       style="stroke-width:1.5">➗</tspan>
  </text>
  <text
     style="font-size:9px;font-family:sans-serif;text-anchor:end;fill:#282828;stroke-width:1.5"
     id="svg_104"
     y="262.42154"
     x="134" />
  <text
     style="font-size:9px;font-family:sans-serif;text-anchor:end;fill:#282828;stroke-width:1.5"
     id="svg_106"
     y="262.42154"
     x="134" />
  <path
     d="m 232.75001,263.17154 90,0 0,29.99999 -90,0 0,-11.99999 0,-1.5 -9,0 0,4.49999 -3,0 0,-11.99999 3,0 0,4.5 9,0 0,-1.5 z"
     style="fill:#ff5293;fill-opacity:1;stroke:#ff2c76;stroke-width:1.5;stroke-linecap:round;stroke-opacity:1"
     id="svg_110" />
  <text
     style="font-size:15px;font-family:sans-serif;text-anchor:start;fill:#282828;stroke-width:1.5"
     id="svg_111"
     y="262.42154"
     x="220">
    <tspan
       x="239.5"
       y="283.42154"
       id="svg_112"
       style="stroke-width:1.5">1</tspan>
  </text>
  <path
     d="m 232.75001,295.17154 90,0 0,29.99999 -90,0 0,-11.99999 0,-1.5 -9,0 0,4.49999 -3,0 0,-11.99999 3,0 0,4.5 9,0 0,-1.5 z"
     style="fill:#ff5293;fill-opacity:1;stroke:#ff2c76;stroke-width:1.5;stroke-linecap:round;stroke-opacity:1"
     id="svg_115" />
  <text
     style="font-size:15px;font-family:sans-serif;text-anchor:start;fill:#282828;stroke-width:1.5"
     id="svg_116"
     y="294.42154"
     x="220">
    <tspan
       x="239.5"
       y="315.42154"
       id="svg_117"
       style="stroke-width:1.5">4</tspan>
  </text>
  <g
     transform="matrix(1.5,0,0,1.5,239,528.17153)"
     id="svg_120">
    <path
       d="m -158.83333,-98.666664 0,-3.999996 a 4,4 90 0 1 4,-4 l 4,0 5,-6 5,6 9,0 69.000002,0 4,0 a 4,4 90 0 1 4,4 l 0,3.999996 0,4 0,4 a 4,4 90 0 1 -4,4 l -4,0 -69.000002,0 -1,0 0,2 -8,0 0,-2 -1,0 -4,0 a 5,5 90 0 0 -5,5 l 0,4 0,4 0,210.000004 0,4 a 5,5 90 0 0 5,5 l 4,0 0,2 10,0 0,-2 8,0 0,6 0,6 0,4 a 4,4 90 0 1 -4,4 l -4,0 -9,0 -5,6 -5,-6 -4,0 a 4,4 90 0 1 -4,-4 l 0,-4 z"
       style="fill:#77c428;fill-opacity:1;stroke:#57ad02;stroke-width:1;stroke-linecap:round;stroke-opacity:1"
       id="svg_121" />
    <text
       style="font-size:10px;font-family:sans-serif;text-anchor:start;fill:#282828"
       id="svg_122"
       y="-113.16666"
       x="-159.33333">
      <tspan
         x="-139.33333"
         y="-91.166664"
         id="svg_123">フレーズメーカー</tspan>
    </text>
  </g>
  <g
     style="isolation:isolate"
     id="svg_125"
     transform="matrix(0.5,0,0,0.5,239,540.17153)">
    <g
       id="g1689"
       data-name="レイヤー 2">
      <g
         id="g1687">
        <rect
           width="42"
           height="42"
           rx="5"
           ry="5"
           style="opacity:0.4;mix-blend-mode:multiply;fill:#292929"
           id="svg_126"
           y="-339.5"
           x="-478" />
        <path
           d="m -447.44,-309.7 -4.17,-4.16 2.26,0 a 1.035,1.035 0 1 0 0,-2.07 l -4.71,0 a 1.08,1.08 0 0 0 -1.11,1 l 0,0 c 0,0 0,0 0,0.06 l 0,4.64 0,0 a 1.04,1.04 0 1 0 2.08,0 l 0,-2.19 4.19,4.19 a 1,1 0 0 0 1.46,0 1,1 0 0 0 0,-1.47 z"
           style="fill:#ffffff"
           id="svg_127" />
        <path
           d="m -458.83,-314.9 a 1.08,1.08 0 0 0 -1.11,-1 l -4.71,0 a 1.035,1.035 0 1 0 0,2.07 l 2.25,0 -4.16,4.13 a 1.039447,1.039447 0 0 0 1.47,1.47 l 4.18,-4.19 0,2.26 a 1.04,1.04 0 1 0 2.08,0 l 0,-4.64 c 0,0 0,0 0,-0.06 a 0.08,0.08 0 0 1 0,-0.04 z"
           style="fill:#ffffff"
           id="svg_128" />
        <path
           d="m -454.06,-319 4.7,0 a 1.04,1.04 0 1 0 0,-2.08 l -2.25,0 4.17,-4.16 a 1,1 0 0 0 0,-1.47 1,1 0 0 0 -1.46,0 l -4.19,4.21 0,-2.28 a 1.04,1.04 0 1 0 -2.08,0 l 0,4.64 a 0.43000001,0.43000001 0 0 0 0,0.05 l 0,0.05 a 1.09,1.09 0 0 0 1.11,1.04 z"
           style="fill:#ffffff"
           id="svg_129" />
        <path
           d="m -459.87,-325.88 a 1.08,1.08 0 0 0 -1,1.09 l 0,2.29 -4.18,-4.19 a 1,1 0 0 0 -1.47,0 1,1 0 0 0 0,1.46 l 4.16,4.17 -2.29,0 a 1.04,1.04 0 1 0 0,2.08 l 4.71,0 a 1.09,1.09 0 0 0 1.11,-1 c 0,0 0,0 0,-0.06 l 0,-4.75 a 1.0700001,1.0700001 0 0 0 -1.04,-1.09 z"
           style="fill:#ffffff"
           id="svg_130" />
      </g>
    </g>
  </g>
  <path
     d="m 14.750005,412.17154 0,-6 c 0,-3.31371 2.686292,-6 6,-6 l 6,0 0,3 15,0 0,-3 69.000005,0 6,0 c 3.3137,0 7.04788,2.85634 6,6 l 0,6 -6,0 0,-4.5 -6,0 0,14.99999 6,0 0,-4.49999 6,0 0,25.49999 -6,0 0,-4.5 -6,0 0,15 6,0 0,-4.5 6,0 0,6 c 0,3.31371 -2.6863,6 -6,6 l -6,0 -69.000005,0 -1.5,0 0,3 -12,0 0,-3 -1.5,0 -6,0 c -3.313708,0 -6,-2.68629 -6,-6 l 0,-6 0,-31.49999 z"
     style="fill:#77c428;fill-opacity:1;stroke:#57ad02;stroke-width:1.5;stroke-linecap:round;stroke-opacity:1"
     id="svg_133" />
  <text
     style="font-size:15px;font-family:sans-serif;text-anchor:end;fill:#282828;stroke-width:1.5"
     id="svg_134"
     y="399.42154"
     x="38.000008">
    <tspan
       x="107.00001"
       y="435.42154"
       id="svg_135"
       style="stroke-width:1.5">音の高さ</tspan>
  </text>
  <text
     style="font-size:10px;font-family:sans-serif;text-anchor:end;fill:#282828;stroke-width:1.5"
     id="svg_136"
     y="399.42154"
     x="38.000008">
    <tspan
       x="107.00001"
       y="417.42154"
       id="svg_137"
       style="stroke-width:1.5">名前</tspan>
  </text>
  <text
     style="font-size:10px;font-family:sans-serif;text-anchor:end;fill:#282828;stroke-width:1.5"
     id="svg_138"
     y="399.42154"
     x="38.000008">
    <tspan
       x="107.00001"
       y="448.92154"
       id="svg_139"
       style="stroke-width:1.5">オクターヴの高さ</tspan>
  </text>
  <path
     d="m 124.75001,400.17154 90,0 0,29.99999 -90,0 0,-11.99999 0,-1.5 -9,0 0,4.49999 -3,0 0,-11.99999 3,0 0,4.5 9,0 0,-1.5 z"
     style="fill:#77c428;fill-opacity:1;stroke:#57ad02;stroke-width:1.5;stroke-linecap:round;stroke-opacity:1"
     id="svg_142" />
  <text
     style="font-size:15px;font-family:sans-serif;text-anchor:start;fill:#282828;stroke-width:1.5"
     id="svg_143"
     y="399.42154"
     x="112.00001">
    <tspan
       x="131.5"
       y="420.42154"
       id="svg_144"
       style="stroke-width:1.5">ソ</tspan>
  </text>
  <path
     d="m 124.75001,432.17154 90,0 0,29.99999 -90,0 0,-11.99999 0,-1.5 -9,0 0,4.49999 -3,0 0,-11.99999 3,0 0,4.5 9,0 0,-1.5 z"
     style="fill:#ff5293;fill-opacity:1;stroke:#ff2c76;stroke-width:1.5;stroke-linecap:round;stroke-opacity:1"
     id="svg_147" />
  <text
     style="font-size:15px;font-family:sans-serif;text-anchor:start;fill:#282828;stroke-width:1.5"
     id="svg_148"
     y="431.42154"
     x="112.00001">
    <tspan
       x="131.5"
       y="452.42154"
       id="svg_149"
       style="stroke-width:1.5">4</tspan>
  </text>
  <path
     d="m 14.750005,475.17154 0,-6 c 0,-3.31371 2.686292,-6 6,-6 l 6,0 0,3 15,0 0,-3 69.000005,0 6,0 c 3.3137,0 7.04789,2.85634 6,6 l 0,6 -6,0 0,-4.5 -6,0 0,14.99999 6,0 0,-4.49999 6,0 0,25.49999 -6,0 0,-4.5 -6,0 0,15 6,0 0,-4.5 6,0 0,6 c 0,3.31371 -2.6863,6 -6,6 l -6,0 -69.000005,0 -1.5,0 0,3 -12,0 0,-3 -1.5,0 -6,0 c -3.313708,0 -6,-2.68629 -6,-6 l 0,-6 0,-31.49999 z"
     style="fill:#77c428;fill-opacity:1;stroke:#57ad02;stroke-width:1.5;stroke-linecap:round;stroke-opacity:1"
     id="svg_152" />
  <text
     style="font-size:15px;font-family:sans-serif;text-anchor:end;fill:#282828;stroke-width:1.5"
     id="svg_153"
     y="462.42154"
     x="38.000008">
    <tspan
       x="107.00001"
       y="498.42154"
       id="svg_154"
       style="stroke-width:1.5">音の高さ</tspan>
  </text>
  <text
     style="font-size:10px;font-family:sans-serif;text-anchor:end;fill:#282828;stroke-width:1.5"
     id="svg_155"
     y="462.42154"
     x="38.000008">
    <tspan
       x="107.00001"
       y="480.42154"
       id="svg_156"
       style="stroke-width:1.5">名前</tspan>
  </text>
  <text
     style="font-size:10px;font-family:sans-serif;text-anchor:end;fill:#282828;stroke-width:1.5"
     id="svg_157"
     y="462.42154"
     x="38.000008">
    <tspan
       x="107.00001"
       y="511.92154"
       id="svg_158"
       style="stroke-width:1.5">オクターヴの高さ</tspan>
  </text>
  <path
     d="m 124.75001,463.17154 90,0 0,29.99999 -90,0 0,-11.99999 0,-1.5 -9,0 0,4.49999 -3,0 0,-11.99999 3,0 0,4.5 9,0 0,-1.5 z"
     style="fill:#77c428;fill-opacity:1;stroke:#57ad02;stroke-width:1.5;stroke-linecap:round;stroke-opacity:1"
     id="svg_161" />
  <text
     style="font-size:15px;font-family:sans-serif;text-anchor:start;fill:#282828;stroke-width:1.5"
     id="svg_162"
     y="462.42154"
     x="112.00001">
    <tspan
       x="131.5"
       y="483.42154"
       id="svg_163"
       style="stroke-width:1.5">ミ</tspan>
  </text>
  <path
     d="m 124.75001,495.17154 90,0 0,29.99999 -90,0 0,-11.99999 0,-1.5 -9,0 0,4.49999 -3,0 0,-11.99999 3,0 0,4.5 9,0 0,-1.5 z"
     style="fill:#ff5293;fill-opacity:1;stroke:#ff2c76;stroke-width:1.5;stroke-linecap:round;stroke-opacity:1"
     id="svg_166" />
  <text
     style="font-size:15px;font-family:sans-serif;text-anchor:start;fill:#282828;stroke-width:1.5"
     id="svg_167"
     y="494.42154"
     x="112.00001">
    <tspan
       x="131.5"
       y="515.42151"
       id="svg_168"
       style="stroke-width:1.5">4</tspan>
  </text>
  <path
     d="m 14.750005,538.17154 0,-6 c 0,-3.31371 2.686292,-6 6,-6 l 6,0 0,3 15,0 0,-3 69.000005,0 6,0 c 3.3137,0 7.04788,2.85634 6,6 l 0,6 -6,0 0,-4.5 -6,0 0,14.99999 6,0 0,-4.49999 6,0 0,25.49999 -6,0 0,-4.5 -6,0 0,15 6,0 0,-4.5 6,0 0,6 c 0,3.31371 -2.6863,6 -6,6 l -6,0 -69.000005,0 -1.5,0 0,3 -12,0 0,-3 -1.5,0 -6,0 c -3.313708,0 -6,-2.68629 -6,-6 l 0,-6 0,-31.49999 z"
     style="fill:#77c428;fill-opacity:1;stroke:#57ad02;stroke-width:1.5;stroke-linecap:round;stroke-opacity:1"
     id="svg_171" />
  <text
     style="font-size:15px;font-family:sans-serif;text-anchor:end;fill:#282828;stroke-width:1.5"
     id="svg_172"
     y="525.42151"
     x="38.000008">
    <tspan
       x="107.00001"
       y="561.42151"
       id="svg_173"
       style="stroke-width:1.5">音の高さ</tspan>
  </text>
  <text
     style="font-size:10px;font-family:sans-serif;text-anchor:end;fill:#282828;stroke-width:1.5"
     id="svg_174"
     y="525.42151"
     x="38.000008">
    <tspan
       x="107.00001"
       y="543.42151"
       id="svg_175"
       style="stroke-width:1.5">名前</tspan>
  </text>
  <text
     style="font-size:10px;font-family:sans-serif;text-anchor:end;fill:#282828;stroke-width:1.5"
     id="svg_176"
     y="525.42151"
     x="38.000008">
    <tspan
       x="107.00001"
       y="574.92151"
       id="svg_177"
       style="stroke-width:1.5">オクターヴの高さ</tspan>
  </text>
  <path
     d="m 124.75001,526.17154 90,0 0,29.99999 -90,0 0,-11.99999 0,-1.5 -9,0 0,4.49999 -3,0 0,-11.99999 3,0 0,4.5 9,0 0,-1.5 z"
     style="fill:#77c428;fill-opacity:1;stroke:#57ad02;stroke-width:1.5;stroke-linecap:round;stroke-opacity:1"
     id="svg_180" />
  <text
     style="font-size:15px;font-family:sans-serif;text-anchor:start;fill:#282828;stroke-width:1.5"
     id="svg_181"
     y="525.42151"
     x="112.00001">
    <tspan
       x="131.5"
       y="546.42151"
       id="svg_182"
       style="stroke-width:1.5">レ</tspan>
  </text>
  <path
     d="m 124.75001,558.17154 90,0 0,29.99999 -90,0 0,-11.99999 0,-1.5 -9,0 0,4.49999 -3,0 0,-11.99999 3,0 0,4.5 9,0 0,-1.5 z"
     style="fill:#ff5293;fill-opacity:1;stroke:#ff2c76;stroke-width:1.5;stroke-linecap:round;stroke-opacity:1"
     id="svg_185" />
  <text
     style="font-size:15px;font-family:sans-serif;text-anchor:start;fill:#282828;stroke-width:1.5"
     id="svg_186"
     y="557.42151"
     x="112.00001">
    <tspan
       x="131.5"
       y="578.42151"
       id="svg_187"
       style="stroke-width:1.5">4</tspan>
  </text>
  <path
     d="m 14.750005,601.17154 0,-6 c 0,-3.31371 2.686292,-6 6,-6 l 6,0 0,3 15,0 0,-3 13.5,0 120.000005,0 6,0 c 3.31371,0 9.17396,5.04781 6,6 l 0,6 -6,0 0,-4.5 -6,0 0,14.99999 6,0 0,-4.49999 6,0 0,5.99999 c 0,3.31371 -2.68629,6 -6,6 l -6,0 -120.000005,0 -1.5,0 0,3 -12,0 0,-3 -1.5,0 -6,0 c -4.142136,0 -7.5,3.35786 -7.5,7.5 l 0,6 0,6 0,63 0,6 c 0,4.14214 3.357864,7.5 7.5,7.5 l 6,0 0,3 15,0 0,-3 12,0 0,9 0,9 0,6 c 0,3.31371 -2.686292,6 -6,6 l -6,0 -13.5,0 -1.5,0 0,3 -12,0 0,-3 -1.5,0 -6,0 c -3.313708,0 -6,-2.68629 -6,-6 l 0,-6 z"
     style="fill:#ff8b2d;fill-opacity:1;stroke:#e86b0e;stroke-width:1.5;stroke-linecap:round;stroke-opacity:1"
     id="svg_190" />
  <text
     style="font-size:15px;font-family:sans-serif;text-anchor:start;fill:#282828;stroke-width:1.5"
     id="svg_191"
     y="588.42151"
     x="14.000008">
    <tspan
       x="21.500008"
       y="610.92151"
       id="svg_192"
       style="stroke-width:1.5">連符（タプル）</tspan>
  </text>
  <text
     style="font-size:10px;font-family:sans-serif;text-anchor:end;fill:#282828;stroke-width:1.5"
     id="svg_193"
     y="588.42151"
     x="72.000008">
    <tspan
       x="169.5"
       y="606.42151"
       id="svg_194"
       style="stroke-width:1.5">音の長さ</tspan>
  </text>
  <text
     style="font-size:9px;font-family:sans-serif;text-anchor:end;fill:#282828;stroke-width:1.5"
     id="svg_200"
     y="588.42151"
     x="116.00001" />
  <text
     style="font-size:9px;font-family:sans-serif;text-anchor:end;fill:#282828;stroke-width:1.5"
     id="svg_202"
     y="588.42151"
     x="116.00001" />
  <g
     transform="translate(60,1.1715275)"
     id="g3497">
    <path
       id="svg_197"
       style="fill:#ff5293;fill-opacity:1;stroke:#ff2c76;stroke-width:1.5;stroke-linecap:round;stroke-opacity:1"
       d="m 128.75001,600.00001 0,-6 a 6,6 0 0 1 6,-6 l 6,0 15,0 45,0 6,0 a 6,6 0 0 1 6,6 l 0,6 -6,0 0,-4.5 -6,0 0,14.99999 6,0 0,-4.49999 6,0 0,25.49999 -6,0 0,-4.5 -6,0 0,15 6,0 0,-4.5 6,0 0,6 a 6,6 0 0 1 -6,6 l -6,0 -45,0 -15,0 -6,0 a 6,6 0 0 1 -6,-6 l 0,-6 0,-31.49999 0,-1.5 -9,0 0,4.49999 -3,0 0,-11.99999 3,0 0,4.5 9,0 z" />
    <text
       x="116.00001"
       y="587.25"
       id="svg_198"
       style="font-size:13.5px;font-family:sans-serif;text-anchor:end;fill:#282828;stroke-width:1.5">
      <tspan
         style="stroke-width:1.5"
         id="svg_199"
         y="621.75"
         x="197">➗</tspan>
    </text>
    <path
       id="svg_206"
       style="fill:#ff5293;fill-opacity:1;stroke:#ff2c76;stroke-width:1.5;stroke-linecap:round;stroke-opacity:1"
       d="m 214.75001,588.00001 90,0 0,29.99999 -90,0 0,-11.99999 0,-1.5 -9,0 0,4.49999 -3,0 0,-11.99999 3,0 0,4.5 9,0 0,-1.5 z" />
    <text
       x="202"
       y="587.25"
       id="svg_207"
       style="font-size:15px;font-family:sans-serif;text-anchor:start;fill:#282828;stroke-width:1.5">
      <tspan
         style="stroke-width:1.5"
         id="svg_208"
         y="608.25"
         x="221.5">1</tspan>
    </text>
    <path
       id="svg_211"
       style="fill:#ff5293;fill-opacity:1;stroke:#ff2c76;stroke-width:1.5;stroke-linecap:round;stroke-opacity:1"
       d="m 214.75001,620.00001 90,0 0,29.99999 -90,0 0,-11.99999 0,-1.5 -9,0 0,4.49999 -3,0 0,-11.99999 3,0 0,4.5 9,0 0,-1.5 z" />
    <text
       x="202"
       y="619.25"
       id="svg_212"
       style="font-size:15px;font-family:sans-serif;text-anchor:start;fill:#282828;stroke-width:1.5">
      <tspan
         style="stroke-width:1.5"
         id="svg_213"
         y="640.25"
         x="221.5">4</tspan>
    </text>
  </g>
  <path
     d="m 28.750005,633.17154 0,-6 a 6,6 0 0 1 6,-6 l 6,0 0,3 15,0 0,-3 30,0 6,0 a 6,6 0 0 1 6,6 l 0,6 0,6 0,5.99999 a 6,6 0 0 1 -6,6 l -6,0 -30,0 -1.5,0 0,3 -12,0 0,-3 -1.5,0 -6,0 a 6,6 0 0 1 -6,-6 l 0,-5.99999 z"
     style="fill:#b0b0b0;fill-opacity:1;stroke:#a0a0a0;stroke-width:1.5;stroke-linecap:round;stroke-opacity:1"
     id="svg_216" />
  <text
     style="font-size:15px;font-family:sans-serif;text-anchor:end;fill:#282828;stroke-width:1.5"
     id="svg_217"
     y="620.42151"
     x="28.000008">
    <tspan
       x="82.000008"
       y="641.42151"
       id="svg_218"
       style="stroke-width:1.5">↓</tspan>
  </text>
  <path
     d="m 28.750005,665.17154 0,-6 a 6,6 0 0 1 6,-6 l 6,0 0,3 15,0 0,-3 63.000005,0 6,0 a 6,6 0 0 1 6,6 l 0,6 -6,0 0,-4.5 -6,0 0,14.99999 6,0 0,-4.49999 6,0 0,25.49999 -6,0 0,-4.5 -6,0 0,15 6,0 0,-4.5 6,0 0,6 a 6,6 0 0 1 -6,6 l -6,0 -63.000005,0 -1.5,0 0,3 -12,0 0,-3 -1.5,0 -6,0 a 6,6 0 0 1 -6,-6 l 0,-6 0,-31.49999 z"
     style="fill:#ff8b2d;fill-opacity:1;stroke:#e86b0e;stroke-width:1.5;stroke-linecap:round;stroke-opacity:1"
     id="svg_221" />
  <text
     style="font-size:15px;font-family:sans-serif;text-anchor:end;fill:#282828;stroke-width:1.5"
     id="svg_222"
     y="652.42151"
     x="28.000008">
    <tspan
       x="115.00001"
       y="688.42151"
       id="svg_223"
       style="stroke-width:1.5">音符</tspan>
  </text>
  <text
     style="font-size:10px;font-family:sans-serif;text-anchor:end;fill:#282828;stroke-width:1.5"
     id="svg_224"
     y="652.42151"
     x="28.000008">
    <tspan
       x="115.00001"
       y="670.42151"
       id="svg_225"
       style="stroke-width:1.5">音符の数</tspan>
  </text>
  <text
     style="font-size:10px;font-family:sans-serif;text-anchor:end;fill:#282828;stroke-width:1.5"
     id="svg_226"
     y="652.42151"
     x="28.000008">
    <tspan
       x="115.00001"
       y="701.92151"
       id="svg_227"
       style="stroke-width:1.5">音の長さ</tspan>
  </text>
  <path
     d="m 132.75001,653.17154 90,0 0,29.99999 -90,0 0,-11.99999 0,-1.5 -9,0 0,4.49999 -3,0 0,-11.99999 3,0 0,4.5 9,0 0,-1.5 z"
     style="fill:#ff5293;fill-opacity:1;stroke:#ff2c76;stroke-width:1.5;stroke-linecap:round;stroke-opacity:1"
     id="svg_230" />
  <text
     style="font-size:15px;font-family:sans-serif;text-anchor:start;fill:#282828;stroke-width:1.5"
     id="svg_231"
     y="652.42151"
     x="120.00001">
    <tspan
       x="139.5"
       y="673.42151"
       id="svg_232"
       style="stroke-width:1.5">3</tspan>
  </text>
  <path
     d="m 132.75001,697.17154 0,-6 a 6,6 0 0 1 6,-6 l 6,0 15,0 45,0 6,0 a 6,6 0 0 1 6,6 l 0,6 -6,0 0,-4.5 -6,0 0,14.99999 6,0 0,-4.49999 6,0 0,25.49999 -6,0 0,-4.5 -6,0 0,15 6,0 0,-4.5 6,0 0,6 a 6,6 0 0 1 -6,6 l -6,0 -45,0 -15,0 -6,0 a 6,6 0 0 1 -6,-6 l 0,-6 0,-31.49999 0,-1.5 -9,0 0,4.49999 -3,0 0,-11.99999 3,0 0,4.5 9,0 z"
     style="fill:#ff5293;fill-opacity:1;stroke:#ff2c76;stroke-width:1.5;stroke-linecap:round;stroke-opacity:1"
     id="svg_235" />
  <text
     style="font-size:13.5px;font-family:sans-serif;text-anchor:end;fill:#282828;stroke-width:1.5"
     id="svg_236"
     y="684.42151"
     x="120.00001">
    <tspan
       x="201"
       y="718.92151"
       id="svg_237"
       style="stroke-width:1.5">➗</tspan>
  </text>
  <text
     style="font-size:9px;font-family:sans-serif;text-anchor:end;fill:#282828;stroke-width:1.5"
     id="svg_238"
     y="684.42151"
     x="120.00001" />
  <text
     style="font-size:9px;font-family:sans-serif;text-anchor:end;fill:#282828;stroke-width:1.5"
     id="svg_240"
     y="684.42151"
     x="120.00001" />
  <path
     d="m 218.75001,685.17154 90,0 0,29.99999 -90,0 0,-11.99999 0,-1.5 -9,0 0,4.49999 -3,0 0,-11.99999 3,0 0,4.5 9,0 0,-1.5 z"
     style="fill:#ff5293;fill-opacity:1;stroke:#ff2c76;stroke-width:1.5;stroke-linecap:round;stroke-opacity:1"
     id="svg_244" />
  <text
     style="font-size:15px;font-family:sans-serif;text-anchor:start;fill:#282828;stroke-width:1.5"
     id="svg_245"
     y="684.42151"
     x="206">
    <tspan
       x="225.5"
       y="705.42151"
       id="svg_246"
       style="stroke-width:1.5">1</tspan>
  </text>
  <path
     d="m 218.75001,717.17154 90,0 0,29.99999 -90,0 0,-11.99999 0,-1.5 -9,0 0,4.49999 -3,0 0,-11.99999 3,0 0,4.5 9,0 0,-1.5 z"
     style="fill:#ff5293;fill-opacity:1;stroke:#ff2c76;stroke-width:1.5;stroke-linecap:round;stroke-opacity:1"
     id="svg_249" />
  <text
     style="font-size:15px;font-family:sans-serif;text-anchor:start;fill:#282828;stroke-width:1.5"
     id="svg_250"
     y="716.42151"
     x="206">
    <tspan
       x="225.5"
       y="737.42151"
       id="svg_251"
       style="stroke-width:1.5">16</tspan>
  </text>
</svg>
