<?xml version="1.0" encoding="UTF-8" standalone="no"?>
<svg
   xmlns:dc="http://purl.org/dc/elements/1.1/"
   xmlns:cc="http://creativecommons.org/ns#"
   xmlns:rdf="http://www.w3.org/1999/02/22-rdf-syntax-ns#"
   xmlns:svg="http://www.w3.org/2000/svg"
   xmlns="http://www.w3.org/2000/svg"
   id="svg11666"
   version="1.1"
   viewBox="0 0 109.86578 46.657436"
   height="46.657436mm"
   width="109.86578mm">
  <defs
     id="defs11660" />
  <metadata
     id="metadata11663">
    <rdf:RDF>
      <cc:Work
         rdf:about="">
        <dc:format>image/svg+xml</dc:format>
        <dc:type
           rdf:resource="http://purl.org/dc/dcmitype/StillImage" />
        <dc:title></dc:title>
      </cc:Work>
    </rdf:RDF>
  </metadata>
  <g
     transform="translate(281.32818,-0.51934444)"
     id="layer1">
    <g
       transform="matrix(0.26458333,0,0,0.26458333,-454.89484,-547.4169)"
       id="g9785">
      <g
         id="g4596">
        <g
           transform="translate(656,2071.3617)"
           id="g4576">
          <g
             transform="scale(1.5)"
             id="g4574">
            <path
               d="m 0.5,14.5 v -4 a 4,4 90 0 1 4,-4 h 4 l 5,-6 5,6 h 9 60 4 a 4,4 90 0 1 4,4 v 4 4 4 a 4,4 90 0 1 -4,4 h -4 -60 -1 v 2 h -8 v -2 h -1 -4 a 5,5 90 0 0 -5,5 v 4 4 42 4 a 5,5 90 0 0 5,5 h 4 v 2 h 10 v -2 h 8 v 6 6 4 a 4,4 90 0 1 -4,4 h -4 -9 l -5,6 -5,-6 h -4 a 4,4 90 0 1 -4,-4 v -4 z"
               style="fill:#77c428;fill-opacity:1;stroke:#57ad02;stroke-width:1;stroke-linecap:round;stroke-opacity:1"
               id="path4568" />
            <text
               style="font-size:10px;font-family:sans-serif;text-anchor:start;fill:#282828"
               id="text4572">
              <tspan
                 x="20"
                 y="22"
                 id="tspan4570">メトロノーム</tspan>
            </text>
          </g>
        </g>
        <g
           transform="matrix(0.5,0,0,0.5,656,2083.3617)"
           id="g4594">
          <g
             style="isolation:isolate"
             id="g4592">
            <g
               id="g4590"
               data-name="レイヤー 2">
              <g
                 id="g4588">
                <rect
                   y="0"
                   x="0"
                   width="42"
                   height="42"
                   rx="5"
                   ry="5"
                   style="opacity:0.4;mix-blend-mode:multiply;fill:#292929"
                   id="rect4578" />
                <path
                   d="m 30.56,29.8 -4.17,-4.16 h 2.26 a 1.035,1.035 0 1 0 0,-2.07 h -4.71 a 1.08,1.08 0 0 0 -1.11,1 v 0 c 0,0 0,0 0,0.06 v 4.64 0 a 1.04,1.04 0 1 0 2.08,0 v -2.19 l 4.19,4.19 a 1,1 0 0 0 1.46,0 1,1 0 0 0 0,-1.47 z"
                   style="fill:#ffffff"
                   id="path4580" />
                <path
                   d="m 19.17,24.6 a 1.08,1.08 0 0 0 -1.11,-1 h -4.71 a 1.035,1.035 0 1 0 0,2.07 h 2.25 l -4.16,4.13 a 1.039447,1.039447 0 0 0 1.47,1.47 l 4.18,-4.19 v 2.26 a 1.04,1.04 0 1 0 2.08,0 V 24.7 c 0,0 0,0 0,-0.06 a 0.08,0.08 0 0 1 0,-0.04 z"
                   style="fill:#ffffff"
                   id="path4582" />
                <path
                   d="m 23.94,20.5 h 4.7 a 1.04,1.04 0 1 0 0,-2.08 h -2.25 l 4.17,-4.16 a 1,1 0 0 0 0,-1.47 1,1 0 0 0 -1.46,0 L 24.91,17 v -2.28 a 1.04,1.04 0 1 0 -2.08,0 v 4.64 a 0.43,0.43 0 0 0 0,0.05 v 0.05 a 1.09,1.09 0 0 0 1.11,1.04 z"
                   style="fill:#ffffff"
                   id="path4584" />
                <path
                   d="m 18.13,13.62 a 1.08,1.08 0 0 0 -1,1.09 V 17 l -4.18,-4.19 a 1,1 0 0 0 -1.47,0 1,1 0 0 0 0,1.46 l 4.16,4.17 h -2.29 a 1.04,1.04 0 1 0 0,2.08 h 4.71 a 1.09,1.09 0 0 0 1.11,-1 c 0,0 0,0 0,-0.06 v -4.75 a 1.07,1.07 0 0 0 -1.04,-1.09 z"
                   style="fill:#ffffff"
                   id="path4586" />
              </g>
            </g>
          </g>
        </g>
      </g>
      <g
         transform="translate(669.5,2111.8617)"
         id="g4614">
        <g
           transform="scale(1.5)"
           id="g4612">
          <path
             d="m 0.5,8.5 v -4 a 4,4 90 0 1 4,-4 h 4 v 2 h 10 v -2 h 122.82715 4 a 4,4 90 0 1 4,4 v 4 h -4 v -3 h -4 v 10 h 4 v -3 h 4 v 17 h -4 v -3 h -4 v 10 h 4 v -3 h 4 v 4 a 4,4 90 0 1 -4,4 h -4 H 18.5 h -1 v 2 h -8 v -2 h -1 -4 a 4,4 90 0 1 -4,-4 v -4 -21 z"
             style="fill:#ff8b2d;fill-opacity:1;stroke:#e86b0e;stroke-width:1;stroke-linecap:round;stroke-opacity:1"
             id="path4598" />
          <text
             style="font-size:10px;font-family:sans-serif;text-anchor:end;fill:#282828"
             id="text4602">
            <tspan
               x="139"
               y="24"
               id="tspan4600">全体のスピードを決める</tspan>
          </text>
          <text
             style="font-size:6.66666651px;font-family:sans-serif;text-anchor:end;fill:#282828"
             id="text4606">
            <tspan
               x="139"
               y="12"
               id="tspan4604">１分あたりの拍の数</tspan>
          </text>
          <text
             style="font-size:6.66666651px;font-family:sans-serif;text-anchor:end;fill:#282828"
             id="text4610">
            <tspan
               x="139"
               y="33"
               id="tspan4608">１泊</tspan>
          </text>
        </g>
      </g>
      <g
         transform="translate(882.24072,2111.8617)"
         id="g4624">
        <g
           transform="scale(1.5)"
           id="g4622">
          <path
             d="m 8.5,0.5 h 60 v 20 h -60 v -8 -1 h -6 v 3 h -2 v -8 h 2 v 3 h 6 v -1 z"
             style="fill:#ff5293;fill-opacity:1;stroke:#ff2c76;stroke-width:1;stroke-linecap:round;stroke-opacity:1"
             id="path4616" />
          <text
             style="font-size:10px;font-family:sans-serif;text-anchor:start;fill:#282828"
             id="text4620">
            <tspan
               x="13"
               y="14"
               id="tspan4618">90</tspan>
          </text>
        </g>
      </g>
      <g
         transform="translate(882.24072,2143.3617)"
         id="g4642">
        <g
           transform="scale(1.5)"
           id="g4640">
          <path
             d="m 8.5,8.5 v -4 a 4,4 90 0 1 4,-4 h 4 10 30 4 a 4,4 90 0 1 4,4 v 4 h -4 v -3 h -4 v 10 h 4 v -3 h 4 v 17 h -4 v -3 h -4 v 10 h 4 v -3 h 4 v 4 a 4,4 90 0 1 -4,4 h -4 -30 -10 -4 a 4,4 90 0 1 -4,-4 v -4 -21 -1 h -6 v 3 h -2 v -8 h 2 v 3 h 6 z"
             style="fill:#ff5293;fill-opacity:1;stroke:#ff2c76;stroke-width:1;stroke-linecap:round;stroke-opacity:1"
             id="path4626" />
          <text
             style="font-size:9px;font-family:sans-serif;text-anchor:end;fill:#282828"
             id="text4630">
            <tspan
               x="54"
               y="23"
               id="tspan4628">➗</tspan>
          </text>
          <text
             style="font-size:6px;font-family:sans-serif;text-anchor:end;fill:#282828"
             id="text4634">
            <tspan
               x="54"
               y="12"
               id="tspan4632" />
          </text>
          <text
             style="font-size:6px;font-family:sans-serif;text-anchor:end;fill:#282828"
             id="text4638">
            <tspan
               x="54"
               y="33"
               id="tspan4636" />
          </text>
        </g>
      </g>
      <g
         transform="translate(967.74072,2143.3617)"
         id="g4652">
        <g
           transform="scale(1.5)"
           id="g4650">
          <path
             d="m 8.5,0.5 h 60 v 20 h -60 v -8 -1 h -6 v 3 h -2 v -8 h 2 v 3 h 6 v -1 z"
             style="fill:#ff5293;fill-opacity:1;stroke:#ff2c76;stroke-width:1;stroke-linecap:round;stroke-opacity:1"
             id="path4644" />
          <text
             style="font-size:10px;font-family:sans-serif;text-anchor:start;fill:#282828"
             id="text4648">
            <tspan
               x="13"
               y="14"
               id="tspan4646">1</tspan>
          </text>
        </g>
      </g>
      <g
         transform="translate(967.74072,2174.8617)"
         id="g4662">
        <g
           transform="scale(1.5)"
           id="g4660">
          <path
             d="m 8.5,0.5 h 60 v 20 h -60 v -8 -1 h -6 v 3 h -2 v -8 h 2 v 3 h 6 v -1 z"
             style="fill:#ff5293;fill-opacity:1;stroke:#ff2c76;stroke-width:1;stroke-linecap:round;stroke-opacity:1"
             id="path4654" />
          <text
             style="font-size:10px;font-family:sans-serif;text-anchor:start;fill:#282828"
             id="text4658">
            <tspan
               x="13"
               y="14"
               id="tspan4656">4</tspan>
          </text>
        </g>
      </g>
      <g
         transform="translate(669.5,2174.8617)"
         id="g4672">
        <g
           transform="scale(1.5)"
           id="g4670">
          <path
             d="m 0.5,8.5 v -4 a 4,4 90 0 1 4,-4 h 4 v 2 h 10 v -2 h 20 4 a 4,4 90 0 1 4,4 v 4 4 4 a 4,4 90 0 1 -4,4 h -4 -20 -1 v 2 h -8 v -2 h -1 -4 a 4,4 90 0 1 -4,-4 v -4 z"
             style="fill:#b0b0b0;fill-opacity:1;stroke:#a0a0a0;stroke-width:1;stroke-linecap:round;stroke-opacity:1"
             id="path4664" />
          <text
             style="font-size:10px;font-family:sans-serif;text-anchor:end;fill:#282828"
             id="text4668">
            <tspan
               x="36"
               y="14"
               id="tspan4666">↓</tspan>
          </text>
        </g>
      </g>
    </g>
  </g>
</svg>
