<?xml version="1.0" encoding="UTF-8" standalone="no"?>
<svg
   xmlns:dc="http://purl.org/dc/elements/1.1/"
   xmlns:cc="http://creativecommons.org/ns#"
   xmlns:rdf="http://www.w3.org/1999/02/22-rdf-syntax-ns#"
   xmlns:svg="http://www.w3.org/2000/svg"
   xmlns="http://www.w3.org/2000/svg"
   id="svg3641"
   height="949.12408"
   width="876.00006"
   version="1.1">
  <metadata
     id="metadata3670">
    <rdf:RDF>
      <cc:Work
         rdf:about="">
        <dc:format>image/svg+xml</dc:format>
        <dc:type
           rdf:resource="http://purl.org/dc/dcmitype/StillImage" />
        <dc:title></dc:title>
      </cc:Work>
    </rdf:RDF>
  </metadata>
  <defs
     id="defs3668" />
  <path
     d="m 459,71.624114 0,-8 c 0,-4.41828 3.58172,-8 8,-8 l 8,0 0,4 20,0 0,-4 18,0 110,0 8,0 c 4.41828,0 9.07159,3.71364 8,8 l 0,8 -8,0 0,-6 -8,0 0,20 8,0 0,-6 8,0 0,8 c 0,4.41827 -3.58172,8 -8,8 l -8,0 -110,0 -2,0 0,4.000002 -16,0 0,-4.000002 -2,0 -8,0 c -5.52285,0 -10,4.477156 -10,9.999996 l 0,8 0,92 0,7.99999 c 0,5.52285 4.64205,11.3395 10,10 l 8,0 0,4 20,0 0,-4 16,0 0,12 0,12 0,8 c 0,4.41828 -3.71364,9.0716 -8,8 l -8,0 -18,0 -2,0 0,4 -16,0 0,-4 -2,0 -8,0 c -4.41828,0 -8,-3.58172 -8,-8 l 0,-8 z"
     id="path3035-62"
     style="fill:#fd6600;fill-opacity:1;stroke:#ac3d00;stroke-width:2;stroke-linecap:round;stroke-opacity:1" />
  <path
     d="m 19,71.624109 0,-8 c 0,-4.418278 3.58172,-8 8,-8 l 8,0 0,4 20,0 0,-4 18,0 110,0 8,0 c 4.41828,0 9.07159,3.713641 8,8 l 0,8 -8,0 0,-6 -8,0 0,20 8,0 0,-6 8,0 0,8 c 0,4.418278 -3.58172,8 -8,8 l -8,0 -110,0 -2,0 0,3.999997 -16,0 0,-3.999997 -2,0 -8,0 c -5.522847,0 -10,4.477161 -10,9.999991 l 0,8 0,92.00001 0,7.99999 c 0,5.52285 4.642051,11.3395 10,10 l 8,0 0,4 20,0 0,-4 16,0 0,12 0,12 0,8 c 0,4.41828 -3.713641,9.0716 -8,8 l -8,0 -18,0 -2,0 0,4 -16,0 0,-4 -2,0 -8,0 c -4.41828,0 -8,-3.58172 -8,-8 l 0,-8 z"
     id="path3035-35"
     style="fill:#fd6600;fill-opacity:1;stroke:#ac3d00;stroke-width:2;stroke-linecap:round;stroke-opacity:1" />
  <path
     d="m 19,281.62411 0,-8 c 0,-4.41828 3.58172,-8 8,-8 l 7.999997,0 0,4 20,0 0,-4 18,0 110.000003,0 8,0 c 4.41828,0 9.07159,3.71364 8,8 l 0,8 -8,0 0,-6 -8,0 0,20 8,0 0,-6 8,0 0,8 c 0,4.41827 -3.58172,8 -8,8 l -8,0 -110.000003,0 -2,0 0,4 -16,0 0,-4 -2,0 -8,0 c -5.522847,0 -10,4.47715 -10,9.99999 l 0,8 0,92.00001 0,7.99999 c 0,5.52285 4.642051,11.3395 10,10 l 8,0 0,4 20,0 0,-4 16,0 0,12 0,12 0,8 c 0,4.41828 -3.713641,9.0716 -8,8 l -8,0 -18,0 -2,0 0,4 -16,0 0,-4 -2,0 -7.999997,0 c -4.41828,0 -8,-3.58172 -8,-8 l 0,-8 z"
     id="path3035-5"
     style="fill:#fd6600;fill-opacity:1;stroke:#ac3d00;stroke-width:2;stroke-linecap:round;stroke-opacity:1" />
  <path
     d="m 459,491.62411 0,-8 c 0,-4.41828 3.58172,-8 8,-8 l 8,0 0,4 20,0 0,-4 18,0 110,0 8,0 c 4.41828,0 9.07159,3.71364 8,8 l 0,8 -8,0 0,-6 -8,0 0,20 8,0 0,-6 8,0 0,8 c 0,4.41828 -3.58172,8 -8,8 l -8,0 -110,0 -2,0 0,4 -16,0 0,-4 -2,0 -8,0 c -5.52285,0 -10,4.47716 -10,10 l 0,8 0,92 0,7.99999 c 0,5.52285 4.64205,11.3395 10,10 l 8,0 0,4 20,0 0,-4 16,0 0,12 0,12 0,8 c 0,4.41828 -3.71364,9.0716 -8,8 l -8,0 -18,0 -2,0 0,4 -16,0 0,-4 -2,0 -8,0 c -4.41828,0 -8,-3.58172 -8,-8 l 0,-8 z"
     id="path3035-6"
     style="fill:#fd6600;fill-opacity:1;stroke:#ac3d00;stroke-width:2;stroke-linecap:round;stroke-opacity:1" />
  <path
     d="m 19,491.62411 0,-8 c 0,-4.41828 3.58172,-8 8,-8 l 8,0 0,4 20,0 0,-4 18,0 110,0 8,0 c 4.41828,0 9.07159,3.71364 8,8 l 0,8 -8,0 0,-6 -8,0 0,20 8,0 0,-6 8,0 0,8 c 0,4.41828 -3.58172,8 -8,8 l -8,0 -110,0 -2,0 0,4 -16,0 0,-4 -2,0 -8,0 c -5.52285,0 -10,4.47716 -10,10 l 0,8 0,92 0,7.99999 c 0,5.52285 4.64205,11.3395 10,10 l 8,0 0,4 20,0 0,-4 15.999997,0 0,12 0,12 0,8 c 0,4.41828 -3.713641,9.0716 -8,8 l -7.999997,0 -18,0 -2,0 0,4 -16,0 0,-4 -2,0 -8,0 c -4.41828,0 -8,-3.58172 -8,-8 l 0,-8 z"
     id="path3035-3"
     style="fill:#fd6600;fill-opacity:1;stroke:#ac3d00;stroke-width:2;stroke-linecap:round;stroke-opacity:1" />
  <path
     style="fill:#ffc000;fill-opacity:1;stroke:#c48d00;stroke-width:2;stroke-linecap:round;stroke-opacity:1"
     id="path3027-4-2"
     d="m 441,29.562051 0,-8 c 0,-4.18879 3.81121,-8 8,-8 l 8,0 10,-12.000001 10,12.000001 18,0 70,0 8,0 c 4.18879,0 8,3.81121 8,8 l 0,8 -8,0 0,-6 -8,0 0,20 8,0 0,-6 8,0 0,8 c 0,4.18879 -3.81121,8 -8,8 l -8,0 -70,0 -2,0 0,4 -16,0 0,-4 -2,0 -8,0 c -2.61799,0 -5.21987,1.07773 -7.07107,2.92893 -1.8512,1.8512 -2.92893,4.45307 -2.92893,7.07107 l 0,8 0,595.999999 0,8 c 0,2.61799 1.07773,5.21987 2.92893,7.07107 1.8512,1.8512 4.53125,2.29397 7.07107,2.92893 l 8,0 0,4 20,0 0,-4 16,0 0,12 0,12 0,8 c 0,4.18878 -3.93628,9.01593 -8,8 l -8,0 -18,0 -10,12 -10,-12 -8,0 c -4.18879,0 -8,-3.81122 -8,-8 l 0,-8 z" />
  <text
     style="font-size:20px;font-family:Sans;text-anchor:start;fill:#000000"
     id="text3029-4-9"
     y="-1.7267046"
     x="439.94461">
    <tspan
       id="tspan3031-5-3"
       y="41.273296"
       x="447.94461">acción</tspan>
  </text>
  <path
     style="fill:#7bbbb8;fill-opacity:1;stroke:#4c8585;stroke-width:2;stroke-linecap:round;stroke-opacity:1"
     id="path21-2-0-2"
     d="m 583,13.562051 120,0 0,40 -120,0 0,-16 0,-2 -12,0 0,6 -4,0 0,-16 4,0 0,6 12,0 0,-2 z" />
  <text
     style="font-size:20px;font-family:Sans;text-anchor:start;fill:#000000"
     id="text23-2-3"
     y="12.018046"
     x="589.2179">
    <tspan
       id="tspan25-1-1"
       y="38.018032"
       x="609.2179">chunk1</tspan>
  </text>
  <path
     style="fill:#ffc000;fill-opacity:1;stroke:#c48d00;stroke-width:2;stroke-linecap:round;stroke-opacity:1"
     id="path3027-4"
     d="m 1,29.562051 0,-8 c 0,-4.18879 3.81121,-8 8,-8 l 8,0 10,-12.000001 10,12.000001 18,0 70,0 8,0 c 4.18879,0 8,3.81121 8,8 l 0,8 -8,0 0,-6 -8,0 0,20 8,0 0,-6 8,0 0,8 c 0,4.18879 -3.81121,8 -8,8 l -8,0 -70,0 -2,0 0,4 -16,0 0,-4 -2,0 -8,0 c -2.61799,0 -5.21987,1.07773 -7.07107,2.92893 C 18.07773,58.342181 17,60.944051 17,63.562051 l 0,8 0,805.999999 0,8 c 0,2.61799 1.07773,5.21987 2.92893,7.07107 1.8512,1.8512 4.531247,2.29397 7.07107,2.92893 l 8,0 0,4 20,0 0,-4 16,0 0,12 0,12 0,8 c 0,4.18878 -3.93628,9.01593 -8,8 l -8,0 -18,0 -10,12 -10,-12 -8,0 c -4.18879,0 -8,-3.81122 -8,-8 l 0,-8 z" />
  <text
     style="font-size:20px;font-family:Sans;text-anchor:start;fill:#000000"
     id="text3029-4"
     y="-1.7267046"
     x="-0.055397034">
    <tspan
       id="tspan3031-5"
       y="41.273296"
       x="7.944603">acción</tspan>
  </text>
  <path
     style="fill:#7bbbb8;fill-opacity:1;stroke:#4c8585;stroke-width:2;stroke-linecap:round;stroke-opacity:1"
     id="path21-2-0"
     d="m 143,13.562051 120,0 0,40 -120,0 0,-16 0,-2 -12,0 0,6 -4,0 0,-16 4,0 0,6 12,0 0,-2 z" />
  <text
     style="font-size:20px;font-family:Sans;text-anchor:start;fill:#000000"
     id="text23-2"
     y="12.018046"
     x="149.21786">
    <tspan
       id="tspan25-1"
       y="38.018032"
       x="169.21786">chunk</tspan>
  </text>
  <path
     d="m 477,575.6241 0,-8 a 8,8 0 0 1 8,-8 l 8,0 0,4 20,0 0,-4 60,0 8,0 a 8,8 0 0 1 8,8 l 0,8 -8,0 0,-6 -8,0 0,20 8,0 0,-6 8,0 0,34 -8,0 0,-5.99999 -8,0 0,19.99999 8,0 0,-6 8,0 0,8 a 8,8 0 0 1 -8,8 l -8,0 -60,0 -2,0 0,4 -16,0 0,-4 -2,0 -8,0 a 8,8 0 0 1 -8,-8 l 0,-8 0,-42 0,-8 z"
     id="path3194-36"
     style="fill:#00b700;fill-opacity:1;stroke:#007b00;stroke-width:2;stroke-linecap:round;stroke-opacity:1" />
  <text
     id="text3196-75"
     style="font-size:20px;font-family:Sans;text-anchor:end;fill:#000000"
     x="476"
     y="558.62408">
    <tspan
       x="570"
       y="607.62408"
       id="tspan3198-3">tono</tspan>
  </text>
  <text
     id="text3200-5"
     style="font-size:13.33333302px;font-family:Sans;text-anchor:end;fill:#000000"
     x="476"
     y="560.62408">
    <tspan
       x="570"
       y="583.12408"
       id="tspan3202-6">nota</tspan>
  </text>
  <text
     id="text3204-2"
     style="font-size:13.33333302px;font-family:Sans;text-anchor:end;fill:#000000"
     x="476"
     y="562.62408">
    <tspan
       x="570"
       y="627.12408"
       id="tspan3206-9">octava</tspan>
  </text>
  <path
     style="fill:#00b700;fill-opacity:1;stroke:#007b00;stroke-width:2;stroke-linecap:round;stroke-opacity:1"
     id="path21-1"
     d="m 591,559.6241 120,0 0,40.00001 -120,0 0,-16.00001 0,-2 -12,0 0,6 -4,0 0,-16 4,0 0,6 12,0 0,-2 z" />
  <text
     x="616"
     style="font-size:20px;font-family:Sans;text-anchor:start;fill:#000000"
     id="text23-2-2"
     y="558.62408">
    <tspan
       id="tspan25-70"
       y="584.62408"
       x="636">re</tspan>
  </text>
  <path
     d="m 591,601.6241 120,0 0,40 -120,0 0,-16 0,-2 -12,0 0,6 -4,0 0,-16 4,0 0,6 12,0 0,-2 z"
     id="path21-6-9"
     style="fill:#ff00ff;fill-opacity:1;stroke:#c700d3;stroke-width:2;stroke-linecap:round;stroke-opacity:1" />
  <text
     id="text23-9-3-2"
     style="font-size:20px;font-family:Sans;text-anchor:start;fill:#000000"
     x="626"
     y="600.62408">
    <tspan
       x="646"
       y="626.62408"
       id="tspan25-8-6">5</tspan>
  </text>
  <text
     id="text3037-6"
     style="font-size:20px;font-family:Sans;text-anchor:start;fill:#000000"
     y="472.62415"
     x="456">
    <tspan
       x="464"
       y="503.12411"
       id="tspan3039-2">valor de la nota</tspan>
  </text>
  <path
     d="m 755,517.62412 120,0 0,40 -120,0 0,-16 0,-2 -12,0 0,6 -4,0 0,-16 4,0 0,6 12,0 0,-2 z"
     id="path21-6-1-1-6"
     style="fill:#ff00ff;fill-opacity:1;stroke:#c700d3;stroke-width:2;stroke-linecap:round;stroke-opacity:1" />
  <text
     id="text23-9-82-8"
     style="font-size:20px;font-family:Sans;text-anchor:start;fill:#000000"
     x="790"
     y="516.62408">
    <tspan
       x="810"
       y="542.62408"
       id="tspan25-8-5-7">2</tspan>
  </text>
  <path
     d="m 641,491.62412 0,-8 a 8,8 0 0 1 8,-8 l 8,0 20,0 60,0 8,0 a 8,8 0 0 1 8,8 l 0,8 -8,0 0,-6 -8,0 0,20 8,0 0,-6 8,0 0,34 -8,0 0,-6 -8,0 0,20 8,0 0,-6 8,0 0,8 a 8,8 0 0 1 -8,8 l -8,0 -60,0 -20,0 -8,0 a 8,8 0 0 1 -8,-8 l 0,-8 0,-42 0,-2 -12,0 0,6 -4,0 0,-16 4,0 0,6 12,0 0,-2 z"
     id="path3798-4-4-5-2"
     style="fill:#ff00ff;fill-opacity:1;stroke:#c700d3;stroke-width:2;stroke-linecap:round;stroke-opacity:1" />
  <text
     y="474.62411"
     id="text3800-3-2-0-0"
     style="font-size:28px;font-family:sans-serif;text-anchor:end;fill:#000000"
     x="616">
    <tspan
       x="726"
       y="523.62408"
       id="tspan3802-6-2-5-2">/</tspan>
  </text>
  <path
     d="m 755,475.62412 120,0 0,40 -120,0 0,-16 0,-2 -12,0 0,6 -4,0 0,-16 4,0 0,6 12,0 0,-2 z"
     id="path21-8-2-1-0-6-7"
     style="fill:#ff00ff;fill-opacity:1;stroke:#c700d3;stroke-width:2;stroke-linecap:round;stroke-opacity:1" />
  <text
     x="787"
     y="476.62415"
     id="text23-0-1-0-1-0-5"
     style="font-size:20px;font-family:Sans;text-anchor:start;fill:#000000">
    <tspan
       x="807"
       y="502.62418"
       id="tspan25-7-0-5-2-5-9">1</tspan>
  </text>
  <path
     style="fill:#fd6600;fill-opacity:1;stroke:#ac3d00;stroke-width:2;stroke-linecap:round;stroke-opacity:1"
     id="path3124-2"
     d="m 477,533.62412 0,-8 c 0,-4.41828 3.58172,-8 8,-8 l 8,0 0,4 20,0 0,-4 60,0 8,0 c 4.41828,0 8,3.58172 8,8 l 0,8 0,8 0,8 c 0,4.41828 -3.71364,6.92841 -8,8 l -8,0 -60,0 -2,0 0,4 -16,0 0,-4 -2,0 -8,0 c -4.41828,0 -8,-3.58172 -8,-8 l 0,-8 0,0 z" />
  <text
     id="text6137-2"
     y="544.54718"
     x="558.823"
     style="font-style:normal;font-weight:normal;font-size:16px;line-height:125%;font-family:sans-serif;text-align:center;letter-spacing:0px;word-spacing:0px;text-anchor:middle;fill:#000000;fill-opacity:1;stroke:none;stroke-width:1px;stroke-linecap:butt;stroke-linejoin:miter;stroke-opacity:1"
     xml:space="preserve"><tspan
       style="font-size:22.5px"
       y="544.54718"
       x="558.823"
       id="tspan6139-8">↓</tspan></text>
  <path
     d="m 477,365.6241 0,-8 a 8,8 0 0 1 8,-8 l 8,0 0,4 20,0 0,-4 60,0 8,0 a 8,8 0 0 1 8,8 l 0,8 -8,0 0,-6 -8,0 0,20 8,0 0,-6 8,0 0,34 -8,0 0,-5.99999 -8,0 0,19.99999 8,0 0,-6 8,0 0,8 a 8,8 0 0 1 -8,8 l -8,0 -60,0 -2,0 0,4 -16,0 0,-4 -2,0 -8,0 a 8,8 0 0 1 -8,-8 l 0,-8 0,-42 0,-8 z"
     id="path3194-36-1"
     style="fill:#00b700;fill-opacity:1;stroke:#007b00;stroke-width:2;stroke-linecap:round;stroke-opacity:1" />
  <text
     id="text3196-75-5"
     style="font-size:20px;font-family:Sans;text-anchor:end;fill:#000000"
     x="476"
     y="348.62411">
    <tspan
       x="570"
       y="397.62411"
       id="tspan3198-3-9">tono</tspan>
  </text>
  <text
     id="text3200-5-4"
     style="font-size:13.33333302px;font-family:Sans;text-anchor:end;fill:#000000"
     x="476"
     y="350.62411">
    <tspan
       x="570"
       y="373.12411"
       id="tspan3202-6-9">nota</tspan>
  </text>
  <text
     id="text3204-2-0"
     style="font-size:13.33333302px;font-family:Sans;text-anchor:end;fill:#000000"
     x="476"
     y="352.62411">
    <tspan
       x="570"
       y="417.12411"
       id="tspan3206-9-9">octava</tspan>
  </text>
  <path
     style="fill:#00b700;fill-opacity:1;stroke:#007b00;stroke-width:2;stroke-linecap:round;stroke-opacity:1"
     id="path21-1-1"
     d="m 591,349.6241 120,0 0,40.00001 -120,0 0,-16.00001 0,-2 -12,0 0,6 -4,0 0,-16 4,0 0,6 12,0 0,-2 z" />
  <text
     x="616"
     style="font-size:20px;font-family:Sans;text-anchor:start;fill:#000000"
     id="text23-2-2-7"
     y="348.62411">
    <tspan
       id="tspan25-70-7"
       y="374.62411"
       x="636">do</tspan>
  </text>
  <path
     d="m 591,391.6241 120,0 0,40 -120,0 0,-16 0,-2 -12,0 0,6 -4,0 0,-16 4,0 0,6 12,0 0,-2 z"
     id="path21-6-9-1"
     style="fill:#ff00ff;fill-opacity:1;stroke:#c700d3;stroke-width:2;stroke-linecap:round;stroke-opacity:1" />
  <text
     id="text23-9-3-2-1"
     style="font-size:20px;font-family:Sans;text-anchor:start;fill:#000000"
     x="626"
     y="390.62411">
    <tspan
       x="646"
       y="416.62411"
       id="tspan25-8-6-5">5</tspan>
  </text>
  <path
     d="m 459,281.62411 0,-8 c 0,-4.41827 3.58173,-8 8,-8 l 8,0 0,4 20,0 0,-4 18,0 110,0 8,0 c 4.41828,0 9.07159,3.71364 8,8 l 0,8 -8,0 0,-6 -8,0 0,20 8,0 0,-6 8,0 0,8 c 0,4.41828 -3.58172,8 -8,8 l -8,0 -110,0 -2,0 0,4 -16,0 0,-4 -2,0 -8,0 c -5.52284,0 -10,4.47716 -10,10 l 0,8 0,92 0,7.99999 c 0,5.52285 4.64205,11.3395 10,10 l 8,0 0,4 20,0 0,-4 16,0 0,12 0,12 0,8 c 0,4.41828 -3.71364,9.0716 -8,8 l -8,0 -18,0 -2,0 0,4 -16,0 0,-4 -2,0 -8,0 c -4.41827,0 -8,-3.58172 -8,-8 l 0,-8 z"
     id="path3035-7"
     style="fill:#fd6600;fill-opacity:1;stroke:#ac3d00;stroke-width:2;stroke-linecap:round;stroke-opacity:1" />
  <text
     id="text3037-6-7"
     style="font-size:20px;font-family:Sans;text-anchor:start;fill:#000000"
     y="262.62415"
     x="456">
    <tspan
       x="464"
       y="293.12411"
       id="tspan3039-2-7">valor de la nota</tspan>
  </text>
  <path
     d="m 755,307.62412 120,0 0,40 -120,0 0,-16 0,-2 -12,0 0,6 -4,0 0,-16 4,0 0,6 12,0 0,-2 z"
     id="path21-6-1-1-6-7"
     style="fill:#ff00ff;fill-opacity:1;stroke:#c700d3;stroke-width:2;stroke-linecap:round;stroke-opacity:1" />
  <text
     id="text23-9-82-8-3"
     style="font-size:20px;font-family:Sans;text-anchor:start;fill:#000000"
     x="790"
     y="306.62415">
    <tspan
       x="810"
       y="332.62415"
       id="tspan25-8-5-7-6">4</tspan>
  </text>
  <path
     d="m 641,281.62412 0,-8 a 8,8 0 0 1 8,-8 l 8,0 20,0 60,0 8,0 a 8,8 0 0 1 8,8 l 0,8 -8,0 0,-6 -8,0 0,20 8,0 0,-6 8,0 0,34 -8,0 0,-6 -8,0 0,20 8,0 0,-6 8,0 0,8 a 8,8 0 0 1 -8,8 l -8,0 -60,0 -20,0 -8,0 a 8,8 0 0 1 -8,-8 l 0,-8 0,-42 0,-2 -12,0 0,6 -4,0 0,-16 4,0 0,6 12,0 0,-2 z"
     id="path3798-4-4-5-2-6"
     style="fill:#ff00ff;fill-opacity:1;stroke:#c700d3;stroke-width:2;stroke-linecap:round;stroke-opacity:1" />
  <text
     y="264.62411"
     id="text3800-3-2-0-0-3"
     style="font-size:28px;font-family:sans-serif;text-anchor:end;fill:#000000"
     x="616">
    <tspan
       x="726"
       y="313.62415"
       id="tspan3802-6-2-5-2-9">/</tspan>
  </text>
  <path
     d="m 755,265.62412 120,0 0,40 -120,0 0,-16 0,-2 -12,0 0,6 -4,0 0,-16 4,0 0,6 12,0 0,-2 z"
     id="path21-8-2-1-0-6-7-8"
     style="fill:#ff00ff;fill-opacity:1;stroke:#c700d3;stroke-width:2;stroke-linecap:round;stroke-opacity:1" />
  <text
     x="787"
     y="266.62415"
     id="text23-0-1-0-1-0-5-1"
     style="font-size:20px;font-family:Sans;text-anchor:start;fill:#000000">
    <tspan
       x="807"
       y="292.62418"
       id="tspan25-7-0-5-2-5-9-2">1</tspan>
  </text>
  <path
     style="fill:#fd6600;fill-opacity:1;stroke:#ac3d00;stroke-width:2;stroke-linecap:round;stroke-opacity:1"
     id="path3124-2-9"
     d="m 477,323.62412 0,-8 c 0,-4.41828 3.58172,-8 8,-8 l 8,0 0,4 20,0 0,-4 60,0 8,0 c 4.41828,0 8,3.58172 8,8 l 0,8 0,8 0,8 c 0,4.41828 -3.71364,6.92841 -8,8 l -8,0 -60,0 -2,0 0,4 -16,0 0,-4 -2,0 -8,0 c -4.41828,0 -8,-3.58172 -8,-8 l 0,-8 0,0 z" />
  <text
     id="text6137-2-3"
     y="334.54721"
     x="558.823"
     style="font-style:normal;font-weight:normal;font-size:16px;line-height:125%;font-family:sans-serif;text-align:center;letter-spacing:0px;word-spacing:0px;text-anchor:middle;fill:#000000;fill-opacity:1;stroke:none;stroke-width:1px;stroke-linecap:butt;stroke-linejoin:miter;stroke-opacity:1"
     xml:space="preserve"><tspan
       style="font-size:22.5px"
       y="334.54721"
       x="558.823"
       id="tspan6139-8-9">↓</tspan></text>
  <path
     d="m 477.00004,155.6241 0,-8 a 8,8 0 0 1 8,-8 l 8,0 0,4 20,0 0,-4 60,0 8,0 a 8,8 0 0 1 8,8 l 0,8 -8,0 0,-6 -8,0 0,20 8,0 0,-6 8,0 0,34 -8,0 0,-5.99999 -8,0 0,19.99999 8,0 0,-6 8,0 0,8 a 8,8 0 0 1 -8,8 l -8,0 -60,0 -2,0 0,4 -16,0 0,-4 -2,0 -8,0 a 8,8 0 0 1 -8,-8 l 0,-8 0,-42 0,-8 z"
     id="path3194-9-1-8"
     style="fill:#00b700;fill-opacity:1;stroke:#007b00;stroke-width:2;stroke-linecap:round;stroke-opacity:1" />
  <text
     id="text3196-73-8"
     style="font-size:20px;font-family:Sans;text-anchor:end;fill:#000000"
     x="476.00003"
     y="138.6241">
    <tspan
       x="570"
       y="187.62411"
       id="tspan3198-6-5">tono</tspan>
  </text>
  <text
     id="text3200-1-0"
     style="font-size:13.33333302px;font-family:Sans;text-anchor:end;fill:#000000"
     x="476.00003"
     y="140.6241">
    <tspan
       x="570"
       y="163.12408"
       id="tspan3202-2-9">nota</tspan>
  </text>
  <text
     id="text3204-93-6"
     style="font-size:13.33333302px;font-family:Sans;text-anchor:end;fill:#000000"
     x="476.00003"
     y="142.6241">
    <tspan
       x="570"
       y="207.12411"
       id="tspan3206-1-0-3">octava</tspan>
  </text>
  <path
     style="fill:#00b700;fill-opacity:1;stroke:#007b00;stroke-width:2;stroke-linecap:round;stroke-opacity:1"
     id="path21-9-8"
     d="m 591.00004,139.6241 120,0 0,40.00001 -120,0 0,-16.00001 0,-2 -12,0 0,6 -4,0 0,-16 4,0 0,6 12,0 0,-2 z" />
  <text
     x="624"
     style="font-size:20px;font-family:Sans;text-anchor:start;fill:#000000"
     id="text23-4-5"
     y="138.6241">
    <tspan
       id="tspan25-78-6"
       y="164.62408"
       x="644">ti</tspan>
  </text>
  <path
     d="m 591.00004,181.6241 120,0 0,40 -120,0 0,-16 0,-2 -12,0 0,6 -4,0 0,-16 4,0 0,6 12,0 0,-2 z"
     id="path21-6-4-1"
     style="fill:#ff00ff;fill-opacity:1;stroke:#c700d3;stroke-width:2;stroke-linecap:round;stroke-opacity:1" />
  <text
     id="text23-9-50-1"
     style="font-size:20px;font-family:Sans;text-anchor:start;fill:#000000"
     x="626"
     y="180.6241">
    <tspan
       x="646"
       y="206.62411"
       id="tspan25-8-3-5">4</tspan>
  </text>
  <text
     id="text3037-1-8"
     style="font-size:20px;font-family:Sans;text-anchor:start;fill:#000000"
     y="52.624115"
     x="456.00003">
    <tspan
       x="464.00003"
       y="83.124107"
       id="tspan3039-0-4">valor de la nota</tspan>
  </text>
  <path
     d="m 755.00004,97.624116 120,0 0,40.000004 -120,0 0,-16 0,-2 -12,0 0,6 -4,0 0,-16 4,0 0,6 12,0 0,-2 z"
     id="path21-6-1-20-1"
     style="fill:#ff00ff;fill-opacity:1;stroke:#c700d3;stroke-width:2;stroke-linecap:round;stroke-opacity:1" />
  <text
     id="text23-9-82-6-0"
     style="font-size:20px;font-family:Sans;text-anchor:start;fill:#000000"
     x="790.00006"
     y="96.624115">
    <tspan
       x="810.00006"
       y="122.62411"
       id="tspan25-8-5-15-3">4</tspan>
  </text>
  <path
     d="m 641.00004,71.624116 0,-8 a 8,8 0 0 1 8,-8 l 8,0 20,0 60,0 8,0 a 8,8 0 0 1 8,8 l 0,8 -8,0 0,-6 -8,0 0,20 8,0 0,-6 8,0 0,34.000004 -8,0 0,-6 -8,0 0,20 8,0 0,-6 8,0 0,8 a 8,8 0 0 1 -8,8 l -8,0 -60,0 -20,0 -8,0 a 8,8 0 0 1 -8,-8 l 0,-8 0,-42.000004 0,-2 -12,0 0,6 -4,0 0,-16 4,0 0,6 12,0 0,-2 z"
     id="path3798-4-4-5-4-4"
     style="fill:#ff00ff;fill-opacity:1;stroke:#c700d3;stroke-width:2;stroke-linecap:round;stroke-opacity:1" />
  <text
     y="54.624092"
     id="text3800-3-2-0-7-4"
     style="font-size:28px;font-family:sans-serif;text-anchor:end;fill:#000000"
     x="616.00006">
    <tspan
       x="726.00006"
       y="103.62411"
       id="tspan3802-6-2-5-6-4">/</tspan>
  </text>
  <path
     d="m 755.00004,55.624116 120,0 0,40 -120,0 0,-16 0,-2 -12,0 0,6 -4,0 0,-16 4,0 0,6 12,0 0,-2 z"
     id="path21-8-2-1-0-6-6-7"
     style="fill:#ff00ff;fill-opacity:1;stroke:#c700d3;stroke-width:2;stroke-linecap:round;stroke-opacity:1" />
  <text
     x="787.00006"
     y="56.624115"
     id="text23-0-1-0-1-0-9-6"
     style="font-size:20px;font-family:Sans;text-anchor:start;fill:#000000">
    <tspan
       x="807.00006"
       y="82.624146"
       id="tspan25-7-0-5-2-5-3-3">1</tspan>
  </text>
  <path
     style="fill:#fd6600;fill-opacity:1;stroke:#ac3d00;stroke-width:2;stroke-linecap:round;stroke-opacity:1"
     id="path3124-7-1"
     d="m 477.00004,113.62412 0,-8 c 0,-4.41828 3.58172,-8.000007 8,-8.000007 l 8,0 0,4.000007 20,0 0,-4.000007 60,0 8,0 c 4.41828,0 8,3.581727 8,8.000007 l 0,8 0,8 0,8 c 0,4.41828 -3.71364,6.92841 -8,8 l -8,0 -60,0 -2,0 0,4 -16,0 0,-4 -2,0 -8,0 c -4.41828,0 -8,-3.58172 -8,-8 l 0,-8 0,0 z" />
  <text
     id="text6137-4-7"
     y="124.54722"
     x="558.823"
     style="font-style:normal;font-weight:normal;font-size:16px;line-height:125%;font-family:sans-serif;text-align:center;letter-spacing:0px;word-spacing:0px;text-anchor:middle;fill:#000000;fill-opacity:1;stroke:none;stroke-width:1px;stroke-linecap:butt;stroke-linejoin:miter;stroke-opacity:1"
     xml:space="preserve"><tspan
       style="font-size:22.5px"
       y="124.54722"
       x="558.823"
       id="tspan6139-5-5">↓</tspan></text>
  <path
     d="m 37,785.6241 0,-8 a 8,8 0 0 1 8,-8 l 8,0 0,4 20,0 0,-4 60,0 8,0 a 8,8 0 0 1 8,8 l 0,8 -8,0 0,-6 -8,0 0,20 8,0 0,-6 8,0 0,34 -8,0 0,-5.99999 -8,0 0,19.99999 8,0 0,-6 8,0 0,8 a 8,8 0 0 1 -8,8 l -8,0 -60,0 -2,0 0,4 -16,0 0,-4 -2,0 -8,0 a 8,8 0 0 1 -8,-8 l 0,-8 0,-42 0,-8 z"
     id="path3194-36-6"
     style="fill:#00b700;fill-opacity:1;stroke:#007b00;stroke-width:2;stroke-linecap:round;stroke-opacity:1" />
  <text
     id="text3196-75-2"
     style="font-size:20px;font-family:Sans;text-anchor:end;fill:#000000"
     x="35.999992"
     y="768.62408">
    <tspan
       x="130"
       y="817.62408"
       id="tspan3198-3-1">tono</tspan>
  </text>
  <text
     id="text3200-5-7"
     style="font-size:13.33333302px;font-family:Sans;text-anchor:end;fill:#000000"
     x="35.999992"
     y="770.62408">
    <tspan
       x="130"
       y="793.12408"
       id="tspan3202-6-8">nota</tspan>
  </text>
  <text
     id="text3204-2-5"
     style="font-size:13.33333302px;font-family:Sans;text-anchor:end;fill:#000000"
     x="35.999992"
     y="772.62408">
    <tspan
       x="130"
       y="837.12408"
       id="tspan3206-9-7">octava</tspan>
  </text>
  <path
     style="fill:#00b700;fill-opacity:1;stroke:#007b00;stroke-width:2;stroke-linecap:round;stroke-opacity:1"
     id="path21-1-4"
     d="m 151,769.6241 120,0 0,40.00001 -120,0 0,-16.00001 0,-2 -12,0 0,6 -4,0 0,-16 4,0 0,6 12,0 0,-2 z" />
  <text
     x="176"
     style="font-size:20px;font-family:Sans;text-anchor:start;fill:#000000"
     id="text23-2-2-1"
     y="768.62408">
    <tspan
       id="tspan25-70-8"
       y="794.62408"
       x="196">sol</tspan>
  </text>
  <path
     d="m 151,811.6241 120,0 0,40 -120,0 0,-16 0,-2 -12,0 0,6 -4,0 0,-16 4,0 0,6 12,0 0,-2 z"
     id="path21-6-9-5"
     style="fill:#ff00ff;fill-opacity:1;stroke:#c700d3;stroke-width:2;stroke-linecap:round;stroke-opacity:1" />
  <text
     id="text23-9-3-2-9"
     style="font-size:20px;font-family:Sans;text-anchor:start;fill:#000000"
     x="186"
     y="810.62408">
    <tspan
       x="206"
       y="836.62408"
       id="tspan25-8-6-7">4</tspan>
  </text>
  <path
     d="m 19,701.62411 0,-8 c 0,-4.41828 3.581722,-8 8,-8 l 8,0 0,4 20,0 0,-4 18,0 110,0 8,0 c 4.41828,0 9.07159,3.71364 8,8 l 0,8 -8,0 0,-6 -8,0 0,20 8,0 0,-6 8,0 0,8 c 0,4.41828 -3.58172,8 -8,8 l -8,0 -110,0 -2,0 0,4 -16,0 0,-4 -2,0 -8,0 c -5.522847,0 -10,4.47715 -10,9.99999 l 0,8 0,92.00001 0,7.99999 c 0,5.52285 4.642051,11.3395 10,10 l 8,0 0,4 20,0 0,-4 16,0 0,12 0,12 0,8 c 0,4.41828 -3.713641,9.0716 -8,8 l -8,0 -18,0 -2,0 0,4 -16,0 0,-4 -2,0 -8,0 c -4.418278,0 -8,-3.58172 -8,-8 l 0,-8 z"
     id="path3035"
     style="fill:#fd6600;fill-opacity:1;stroke:#ac3d00;stroke-width:2;stroke-linecap:round;stroke-opacity:1" />
  <text
     id="text3037-6-3"
     style="font-size:20px;font-family:Sans;text-anchor:start;fill:#000000"
     y="682.62408"
     x="15.999992">
    <tspan
       x="23.999992"
       y="713.12408"
       id="tspan3039-2-8">valor de la nota</tspan>
  </text>
  <path
     d="m 315,727.62412 120,0 0,40 -120,0 0,-16 0,-2 -12,0 0,6 -4,0 0,-16 4,0 0,6 12,0 0,-2 z"
     id="path21-6-1-1-6-3"
     style="fill:#ff00ff;fill-opacity:1;stroke:#c700d3;stroke-width:2;stroke-linecap:round;stroke-opacity:1" />
  <text
     id="text23-9-82-8-1"
     style="font-size:20px;font-family:Sans;text-anchor:start;fill:#000000"
     x="350"
     y="726.62408">
    <tspan
       x="370"
       y="752.62408"
       id="tspan25-8-5-7-8">4</tspan>
  </text>
  <path
     d="m 201,701.62412 0,-8 a 8,8 0 0 1 8,-8 l 8,0 20,0 60,0 8,0 a 8,8 0 0 1 8,8 l 0,8 -8,0 0,-6 -8,0 0,20 8,0 0,-6 8,0 0,34 -8,0 0,-6 -8,0 0,20 8,0 0,-6 8,0 0,8 a 8,8 0 0 1 -8,8 l -8,0 -60,0 -20,0 -8,0 a 8,8 0 0 1 -8,-8 l 0,-8 0,-42 0,-2 -12,0 0,6 -4,0 0,-16 4,0 0,6 12,0 0,-2 z"
     id="path3798-4-4-5-2-64"
     style="fill:#ff00ff;fill-opacity:1;stroke:#c700d3;stroke-width:2;stroke-linecap:round;stroke-opacity:1" />
  <text
     y="684.62408"
     id="text3800-3-2-0-0-33"
     style="font-size:28px;font-family:sans-serif;text-anchor:end;fill:#000000"
     x="176">
    <tspan
       x="286"
       y="733.62408"
       id="tspan3802-6-2-5-2-3">/</tspan>
  </text>
  <path
     d="m 315,685.62412 120,0 0,40 -120,0 0,-16 0,-2 -12,0 0,6 -4,0 0,-16 4,0 0,6 12,0 0,-2 z"
     id="path21-8-2-1-0-6-7-6"
     style="fill:#ff00ff;fill-opacity:1;stroke:#c700d3;stroke-width:2;stroke-linecap:round;stroke-opacity:1" />
  <text
     x="347"
     y="686.62408"
     id="text23-0-1-0-1-0-5-0"
     style="font-size:20px;font-family:Sans;text-anchor:start;fill:#000000">
    <tspan
       x="367"
       y="712.62415"
       id="tspan25-7-0-5-2-5-9-4">1</tspan>
  </text>
  <path
     style="fill:#fd6600;fill-opacity:1;stroke:#ac3d00;stroke-width:2;stroke-linecap:round;stroke-opacity:1"
     id="path3124-2-8"
     d="m 37,743.62412 0,-8 c 0,-4.41828 3.58172,-8 8,-8 l 8,0 0,4 20,0 0,-4 60,0 8,0 c 4.41828,0 8,3.58172 8,8 l 0,8 0,8 0,8 c 0,4.41828 -3.71364,6.92841 -8,8 l -8,0 -60,0 -2,0 0,4 -16,0 0,-4 -2,0 -8,0 c -4.41828,0 -8,-3.58172 -8,-8 l 0,-8 0,0 z" />
  <text
     id="text6137-2-8"
     y="754.54718"
     x="118.82299"
     style="font-style:normal;font-weight:normal;font-size:16px;line-height:125%;font-family:sans-serif;text-align:center;letter-spacing:0px;word-spacing:0px;text-anchor:middle;fill:#000000;fill-opacity:1;stroke:none;stroke-width:1px;stroke-linecap:butt;stroke-linejoin:miter;stroke-opacity:1"
     xml:space="preserve"><tspan
       style="font-size:22.5px"
       y="754.54718"
       x="118.82299"
       id="tspan6139-8-8">↓</tspan></text>
  <path
     d="m 37.00004,575.6241 0,-8 a 8,8 0 0 1 8,-8 l 8,0 0,4 20,0 0,-4 60,0 8,0 a 8,8 0 0 1 8,8 l 0,8 -8,0 0,-6 -8,0 0,20 8,0 0,-6 8,0 0,34 -8,0 0,-5.99999 -8,0 0,19.99999 8,0 0,-6 8,0 0,8 a 8,8 0 0 1 -8,8 l -8,0 -60,0 -2,0 0,4 -16,0 0,-4 -2,0 -8,0 a 8,8 0 0 1 -8,-8 l 0,-8 0,-42 0,-8 z"
     id="path3194-9-1-7"
     style="fill:#00b700;fill-opacity:1;stroke:#007b00;stroke-width:2;stroke-linecap:round;stroke-opacity:1" />
  <text
     id="text3196-73-7"
     style="font-size:20px;font-family:Sans;text-anchor:end;fill:#000000"
     x="36.000046"
     y="558.62408">
    <tspan
       x="130.00003"
       y="607.62408"
       id="tspan3198-6-6">tono</tspan>
  </text>
  <text
     id="text3200-1-4"
     style="font-size:13.33333302px;font-family:Sans;text-anchor:end;fill:#000000"
     x="36.000046"
     y="560.62408">
    <tspan
       x="130.00003"
       y="583.12408"
       id="tspan3202-2-3">nota</tspan>
  </text>
  <text
     id="text3204-93-0"
     style="font-size:13.33333302px;font-family:Sans;text-anchor:end;fill:#000000"
     x="36.000046"
     y="562.62408">
    <tspan
       x="130.00003"
       y="627.12408"
       id="tspan3206-1-0-30">octava</tspan>
  </text>
  <path
     style="fill:#00b700;fill-opacity:1;stroke:#007b00;stroke-width:2;stroke-linecap:round;stroke-opacity:1"
     id="path21-9-9"
     d="m 151.00004,559.6241 120,0 0,40.00001 -120,0 0,-16.00001 0,-2 -12,0 0,6 -4,0 0,-16 4,0 0,6 12,0 0,-2 z" />
  <text
     x="180.00003"
     style="font-size:20px;font-family:Sans;text-anchor:start;fill:#000000"
     id="text23-4-2"
     y="558.62408">
    <tspan
       id="tspan25-78-5"
       y="584.62408"
       x="200.00003">ti</tspan>
  </text>
  <path
     d="m 151.00004,601.6241 120,0 0,40 -120,0 0,-16 0,-2 -12,0 0,6 -4,0 0,-16 4,0 0,6 12,0 0,-2 z"
     id="path21-6-4-4"
     style="fill:#ff00ff;fill-opacity:1;stroke:#c700d3;stroke-width:2;stroke-linecap:round;stroke-opacity:1" />
  <text
     id="text23-9-50-0"
     style="font-size:20px;font-family:Sans;text-anchor:start;fill:#000000"
     x="186.00003"
     y="600.62408">
    <tspan
       x="206.00003"
       y="626.62408"
       id="tspan25-8-3-59">4</tspan>
  </text>
  <text
     id="text3037-1-6"
     style="font-size:20px;font-family:Sans;text-anchor:start;fill:#000000"
     y="472.62415"
     x="16.000046">
    <tspan
       x="24.000046"
       y="503.12411"
       id="tspan3039-0-9">valor de la nota</tspan>
  </text>
  <path
     d="m 315.00004,517.62412 120,0 0,40 -120,0 0,-16 0,-2 -12,0 0,6 -4,0 0,-16 4,0 0,6 12,0 0,-2 z"
     id="path21-6-1-20-2"
     style="fill:#ff00ff;fill-opacity:1;stroke:#c700d3;stroke-width:2;stroke-linecap:round;stroke-opacity:1" />
  <text
     id="text23-9-82-6-4"
     style="font-size:20px;font-family:Sans;text-anchor:start;fill:#000000"
     x="350.00003"
     y="516.62408">
    <tspan
       x="370.00003"
       y="542.62408"
       id="tspan25-8-5-15-7">4</tspan>
  </text>
  <path
     d="m 201.00004,491.62412 0,-8 a 8,8 0 0 1 8,-8 l 8,0 20,0 60,0 8,0 a 8,8 0 0 1 8,8 l 0,8 -8,0 0,-6 -8,0 0,20 8,0 0,-6 8,0 0,34 -8,0 0,-6 -8,0 0,20 8,0 0,-6 8,0 0,8 a 8,8 0 0 1 -8,8 l -8,0 -60,0 -20,0 -8,0 a 8,8 0 0 1 -8,-8 l 0,-8 0,-42 0,-2 -12,0 0,6 -4,0 0,-16 4,0 0,6 12,0 0,-2 z"
     id="path3798-4-4-5-4-5"
     style="fill:#ff00ff;fill-opacity:1;stroke:#c700d3;stroke-width:2;stroke-linecap:round;stroke-opacity:1" />
  <text
     y="474.62411"
     id="text3800-3-2-0-7-48"
     style="font-size:28px;font-family:sans-serif;text-anchor:end;fill:#000000"
     x="176.00003">
    <tspan
       x="286.00006"
       y="523.62408"
       id="tspan3802-6-2-5-6-1">/</tspan>
  </text>
  <path
     d="m 315.00004,475.62412 120,0 0,40 -120,0 0,-16 0,-2 -12,0 0,6 -4,0 0,-16 4,0 0,6 12,0 0,-2 z"
     id="path21-8-2-1-0-6-6-8"
     style="fill:#ff00ff;fill-opacity:1;stroke:#c700d3;stroke-width:2;stroke-linecap:round;stroke-opacity:1" />
  <text
     x="347.00003"
     y="476.62415"
     id="text23-0-1-0-1-0-9-9"
     style="font-size:20px;font-family:Sans;text-anchor:start;fill:#000000">
    <tspan
       x="367.00003"
       y="502.62418"
       id="tspan25-7-0-5-2-5-3-36">1</tspan>
  </text>
  <path
     style="fill:#fd6600;fill-opacity:1;stroke:#ac3d00;stroke-width:2;stroke-linecap:round;stroke-opacity:1"
     id="path3124-7-8"
     d="m 37.00004,533.62412 0,-8 c 0,-4.41828 3.58172,-8 8,-8 l 8,0 0,4 20,0 0,-4 60,0 8,0 c 4.41828,0 8,3.58172 8,8 l 0,8 0,8 0,8 c 0,4.41828 -3.71364,6.92841 -8,8 l -8,0 -60,0 -2,0 0,4 -16,0 0,-4 -2,0 -8,0 c -4.41828,0 -8,-3.58172 -8,-8 l 0,-8 0,0 z" />
  <text
     id="text6137-4-0"
     y="544.54718"
     x="118.82303"
     style="font-style:normal;font-weight:normal;font-size:16px;line-height:125%;font-family:sans-serif;text-align:center;letter-spacing:0px;word-spacing:0px;text-anchor:middle;fill:#000000;fill-opacity:1;stroke:none;stroke-width:1px;stroke-linecap:butt;stroke-linejoin:miter;stroke-opacity:1"
     xml:space="preserve"><tspan
       style="font-size:22.5px"
       y="544.54718"
       x="118.82303"
       id="tspan6139-5-2">↓</tspan></text>
  <path
     d="m 37,365.6241 0,-8 a 8,8 0 0 1 8,-8 l 8,0 0,4 20,0 0,-4 60,0 8,0 a 8,8 0 0 1 8,8 l 0,8 -8,0 0,-6 -8,0 0,20 8,0 0,-6 8,0 0,34 -8,0 0,-5.99999 -8,0 0,19.99999 8,0 0,-6 8,0 0,8 a 8,8 0 0 1 -8,8 l -8,0 -60,0 -2,0 0,4 -16,0 0,-4 -2,0 -8,0 a 8,8 0 0 1 -8,-8 l 0,-8 0,-42 0,-8 z"
     id="path3194-36-0"
     style="fill:#00b700;fill-opacity:1;stroke:#007b00;stroke-width:2;stroke-linecap:round;stroke-opacity:1" />
  <text
     id="text3196-75-51"
     style="font-size:20px;font-family:Sans;text-anchor:end;fill:#000000"
     x="35.999992"
     y="348.62411">
    <tspan
       x="130"
       y="397.62411"
       id="tspan3198-3-10">tono</tspan>
  </text>
  <text
     id="text3200-5-8"
     style="font-size:13.33333302px;font-family:Sans;text-anchor:end;fill:#000000"
     x="35.999992"
     y="350.62411">
    <tspan
       x="130"
       y="373.12411"
       id="tspan3202-6-5">nota</tspan>
  </text>
  <text
     id="text3204-2-06"
     style="font-size:13.33333302px;font-family:Sans;text-anchor:end;fill:#000000"
     x="35.999992"
     y="352.62411">
    <tspan
       x="130"
       y="417.12411"
       id="tspan3206-9-4">octava</tspan>
  </text>
  <path
     style="fill:#00b700;fill-opacity:1;stroke:#007b00;stroke-width:2;stroke-linecap:round;stroke-opacity:1"
     id="path21-1-6"
     d="m 151,349.6241 120,0 0,40.00001 -120,0 0,-16.00001 0,-2 -12,0 0,6 -4,0 0,-16 4,0 0,6 12,0 0,-2 z" />
  <text
     x="180"
     style="font-size:20px;font-family:Sans;text-anchor:start;fill:#000000"
     id="text23-2-2-2"
     y="348.62411">
    <tspan
       id="tspan25-70-5"
       y="374.62411"
       x="200">la</tspan>
  </text>
  <path
     d="m 151,391.6241 120,0 0,40 -120,0 0,-16 0,-2 -12,0 0,6 -4,0 0,-16 4,0 0,6 12,0 0,-2 z"
     id="path21-6-9-8"
     style="fill:#ff00ff;fill-opacity:1;stroke:#c700d3;stroke-width:2;stroke-linecap:round;stroke-opacity:1" />
  <text
     id="text23-9-3-2-6"
     style="font-size:20px;font-family:Sans;text-anchor:start;fill:#000000"
     x="186"
     y="390.62411">
    <tspan
       x="206"
       y="416.62411"
       id="tspan25-8-6-2">4</tspan>
  </text>
  <text
     id="text3037-6-4"
     style="font-size:20px;font-family:Sans;text-anchor:start;fill:#000000"
     y="262.62415"
     x="15.999992">
    <tspan
       x="23.999992"
       y="293.12411"
       id="tspan3039-2-72">valor de la nota</tspan>
  </text>
  <path
     d="m 315,307.62412 120,0 0,40 -120,0 0,-16 0,-2 -12,0 0,6 -4,0 0,-16 4,0 0,6 12,0 0,-2 z"
     id="path21-6-1-1-6-0"
     style="fill:#ff00ff;fill-opacity:1;stroke:#c700d3;stroke-width:2;stroke-linecap:round;stroke-opacity:1" />
  <text
     id="text23-9-82-8-6"
     style="font-size:20px;font-family:Sans;text-anchor:start;fill:#000000"
     x="350"
     y="306.62415">
    <tspan
       x="370"
       y="332.62415"
       id="tspan25-8-5-7-2">4</tspan>
  </text>
  <path
     d="m 201,281.62412 0,-8 a 8,8 0 0 1 8,-8 l 8,0 20,0 60,0 8,0 a 8,8 0 0 1 8,8 l 0,8 -8,0 0,-6 -8,0 0,20 8,0 0,-6 8,0 0,34 -8,0 0,-6 -8,0 0,20 8,0 0,-6 8,0 0,8 a 8,8 0 0 1 -8,8 l -8,0 -60,0 -20,0 -8,0 a 8,8 0 0 1 -8,-8 l 0,-8 0,-42 0,-2 -12,0 0,6 -4,0 0,-16 4,0 0,6 12,0 0,-2 z"
     id="path3798-4-4-5-2-0"
     style="fill:#ff00ff;fill-opacity:1;stroke:#c700d3;stroke-width:2;stroke-linecap:round;stroke-opacity:1" />
  <text
     y="264.62411"
     id="text3800-3-2-0-0-8"
     style="font-size:28px;font-family:sans-serif;text-anchor:end;fill:#000000"
     x="176">
    <tspan
       x="286"
       y="313.62415"
       id="tspan3802-6-2-5-2-1">/</tspan>
  </text>
  <path
     d="m 315,265.62412 120,0 0,40 -120,0 0,-16 0,-2 -12,0 0,6 -4,0 0,-16 4,0 0,6 12,0 0,-2 z"
     id="path21-8-2-1-0-6-7-1"
     style="fill:#ff00ff;fill-opacity:1;stroke:#c700d3;stroke-width:2;stroke-linecap:round;stroke-opacity:1" />
  <text
     x="347"
     y="266.62415"
     id="text23-0-1-0-1-0-5-10"
     style="font-size:20px;font-family:Sans;text-anchor:start;fill:#000000">
    <tspan
       x="367"
       y="292.62418"
       id="tspan25-7-0-5-2-5-9-3">1</tspan>
  </text>
  <path
     style="fill:#fd6600;fill-opacity:1;stroke:#ac3d00;stroke-width:2;stroke-linecap:round;stroke-opacity:1"
     id="path3124-2-4"
     d="m 37,323.62412 0,-8 c 0,-4.41828 3.58172,-8 8,-8 l 8,0 0,4 20,0 0,-4 60,0 8,0 c 4.41828,0 8,3.58172 8,8 l 0,8 0,8 0,8 c 0,4.41828 -3.71364,6.92841 -8,8 l -8,0 -60,0 -2,0 0,4 -16,0 0,-4 -2,0 -8,0 c -4.41828,0 -8,-3.58172 -8,-8 l 0,-8 0,0 z" />
  <text
     id="text6137-2-0"
     y="334.54721"
     x="118.82299"
     style="font-style:normal;font-weight:normal;font-size:16px;line-height:125%;font-family:sans-serif;text-align:center;letter-spacing:0px;word-spacing:0px;text-anchor:middle;fill:#000000;fill-opacity:1;stroke:none;stroke-width:1px;stroke-linecap:butt;stroke-linejoin:miter;stroke-opacity:1"
     xml:space="preserve"><tspan
       style="font-size:22.5px"
       y="334.54721"
       x="118.82299"
       id="tspan6139-8-3">↓</tspan></text>
  <path
     d="m 37.00004,155.6241 0,-8 a 8,8 0 0 1 8,-8 l 8,0 0,4 20,0 0,-4 60,0 8,0 a 8,8 0 0 1 8,8 l 0,8 -8,0 0,-6 -8,0 0,20 8,0 0,-6 8,0 0,34 -8,0 0,-5.99999 -8,0 0,19.99999 8,0 0,-6 8,0 0,8 a 8,8 0 0 1 -8,8 l -8,0 -60,0 -2,0 0,4 -16,0 0,-4 -2,0 -8,0 a 8,8 0 0 1 -8,-8 l 0,-8 0,-42 0,-8 z"
     id="path3194-9-1-9"
     style="fill:#00b700;fill-opacity:1;stroke:#007b00;stroke-width:2;stroke-linecap:round;stroke-opacity:1" />
  <text
     id="text3196-73-6"
     style="font-size:20px;font-family:Sans;text-anchor:end;fill:#000000"
     x="36.000046"
     y="138.6241">
    <tspan
       x="130.00003"
       y="187.62411"
       id="tspan3198-6-9">tono</tspan>
  </text>
  <text
     id="text3200-1-3"
     style="font-size:13.33333302px;font-family:Sans;text-anchor:end;fill:#000000"
     x="36.000046"
     y="140.6241">
    <tspan
       x="130.00003"
       y="163.12408"
       id="tspan3202-2-38">nota</tspan>
  </text>
  <text
     id="text3204-93-05"
     style="font-size:13.33333302px;font-family:Sans;text-anchor:end;fill:#000000"
     x="36.000046"
     y="142.6241">
    <tspan
       x="130.00003"
       y="207.12411"
       id="tspan3206-1-0-6">octava</tspan>
  </text>
  <path
     style="fill:#00b700;fill-opacity:1;stroke:#007b00;stroke-width:2;stroke-linecap:round;stroke-opacity:1"
     id="path21-9-6"
     d="m 151.00004,139.6241 120,0 0,40.00001 -120,0 0,-16.00001 0,-2 -12,0 0,6 -4,0 0,-16 4,0 0,6 12,0 0,-2 z" />
  <text
     x="180.00003"
     style="font-size:20px;font-family:Sans;text-anchor:start;fill:#000000"
     id="text23-4-4"
     y="138.6241">
    <tspan
       id="tspan25-78-0"
       y="164.62408"
       x="200.00003">sol</tspan>
  </text>
  <path
     d="m 151.00004,181.6241 120,0 0,40 -120,0 0,-16 0,-2 -12,0 0,6 -4,0 0,-16 4,0 0,6 12,0 0,-2 z"
     id="path21-6-4-0"
     style="fill:#ff00ff;fill-opacity:1;stroke:#c700d3;stroke-width:2;stroke-linecap:round;stroke-opacity:1" />
  <text
     id="text23-9-50-4"
     style="font-size:20px;font-family:Sans;text-anchor:start;fill:#000000"
     x="186.00003"
     y="180.6241">
    <tspan
       x="206.00003"
       y="206.62411"
       id="tspan25-8-3-6">4</tspan>
  </text>
  <text
     id="text3037-1-67"
     style="font-size:20px;font-family:Sans;text-anchor:start;fill:#000000"
     y="52.624115"
     x="16.000046">
    <tspan
       x="24.000046"
       y="83.124107"
       id="tspan3039-0-5">valor de la nota</tspan>
  </text>
  <path
     d="m 315.00004,97.624116 120,0 0,40.000004 -120,0 0,-16 0,-2 -12,0 0,6 -4,0 0,-16 4,0 0,6 12,0 0,-2 z"
     id="path21-6-1-20-9"
     style="fill:#ff00ff;fill-opacity:1;stroke:#c700d3;stroke-width:2;stroke-linecap:round;stroke-opacity:1" />
  <text
     id="text23-9-82-6-8"
     style="font-size:20px;font-family:Sans;text-anchor:start;fill:#000000"
     x="350.00003"
     y="96.624115">
    <tspan
       x="370.00003"
       y="122.62411"
       id="tspan25-8-5-15-72">4</tspan>
  </text>
  <path
     d="m 201.00004,71.624116 0,-8 a 8,8 0 0 1 8,-8 l 8,0 20,0 60,0 8,0 a 8,8 0 0 1 8,8 l 0,8 -8,0 0,-6 -8,0 0,20 8,0 0,-6 8,0 0,34.000004 -8,0 0,-6 -8,0 0,20 8,0 0,-6 8,0 0,8 a 8,8 0 0 1 -8,8 l -8,0 -60,0 -20,0 -8,0 a 8,8 0 0 1 -8,-8 l 0,-8 0,-42.000004 0,-2 -12,0 0,6 -4,0 0,-16 4,0 0,6 12,0 0,-2 z"
     id="path3798-4-4-5-4-2"
     style="fill:#ff00ff;fill-opacity:1;stroke:#c700d3;stroke-width:2;stroke-linecap:round;stroke-opacity:1" />
  <text
     y="54.624092"
     id="text3800-3-2-0-7-9"
     style="font-size:28px;font-family:sans-serif;text-anchor:end;fill:#000000"
     x="176.00003">
    <tspan
       x="286.00006"
       y="103.62411"
       id="tspan3802-6-2-5-6-9">/</tspan>
  </text>
  <path
     d="m 315.00004,55.624116 120,0 0,40 -120,0 0,-16 0,-2 -12,0 0,6 -4,0 0,-16 4,0 0,6 12,0 0,-2 z"
     id="path21-8-2-1-0-6-6-0"
     style="fill:#ff00ff;fill-opacity:1;stroke:#c700d3;stroke-width:2;stroke-linecap:round;stroke-opacity:1" />
  <text
     x="347.00003"
     y="56.624115"
     id="text23-0-1-0-1-0-9-2"
     style="font-size:20px;font-family:Sans;text-anchor:start;fill:#000000">
    <tspan
       x="367.00003"
       y="82.624146"
       id="tspan25-7-0-5-2-5-3-7">1</tspan>
  </text>
  <path
     style="fill:#fd6600;fill-opacity:1;stroke:#ac3d00;stroke-width:2;stroke-linecap:round;stroke-opacity:1"
     id="path3124-7-6"
     d="m 37.00004,113.62412 0,-8 c 0,-4.41828 3.58172,-8.000007 8,-8.000007 l 8,0 0,4.000007 20,0 0,-4.000007 60,0 8,0 c 4.41828,0 8,3.581727 8,8.000007 l 0,8 0,8 0,8 c 0,4.41828 -3.71364,6.92841 -8,8 l -8,0 -60,0 -2,0 0,4 -16,0 0,-4 -2,0 -8,0 c -4.41828,0 -8,-3.58172 -8,-8 l 0,-8 0,0 z" />
  <text
     id="text6137-4-1"
     y="124.54722"
     x="118.82303"
     style="font-style:normal;font-weight:normal;font-size:16px;line-height:125%;font-family:sans-serif;text-align:center;letter-spacing:0px;word-spacing:0px;text-anchor:middle;fill:#000000;fill-opacity:1;stroke:none;stroke-width:1px;stroke-linecap:butt;stroke-linejoin:miter;stroke-opacity:1"
     xml:space="preserve"><tspan
       style="font-size:22.5px"
       y="124.54722"
       x="118.82303"
       id="tspan6139-5-3">↓</tspan></text>
</svg>
