<?xml version="1.0" encoding="UTF-8" standalone="no"?>
<svg
   xmlns:dc="http://purl.org/dc/elements/1.1/"
   xmlns:cc="http://creativecommons.org/ns#"
   xmlns:rdf="http://www.w3.org/1999/02/22-rdf-syntax-ns#"
   xmlns:svg="http://www.w3.org/2000/svg"
   xmlns="http://www.w3.org/2000/svg"
   version="1.1"
   id="svg4224"
   viewBox="0 0 236.00001 297.99996"
   height="84.102211mm"
   width="66.604446mm">
  <defs
     id="defs4226" />
  <metadata
     id="metadata4229">
    <rdf:RDF>
      <cc:Work
         rdf:about="">
        <dc:format>image/svg+xml</dc:format>
        <dc:type
           rdf:resource="http://purl.org/dc/dcmitype/StillImage" />
        <dc:title></dc:title>
      </cc:Work>
    </rdf:RDF>
  </metadata>
  <path
     style="fill:#00b700;fill-opacity:1;stroke:#007b00;stroke-width:2;stroke-linecap:round;stroke-opacity:1"
     id="path21-3"
     d="m 115,104.99997 120,0 0,40 -120,0 0,-16 0,-2 -12,0 0,6 -4,0 0,-16 4,0 0,6 12,0 0,-2 z" />
  <text
     y="103.99997"
     x="148"
     style="font-size:20px;font-family:Sans;text-anchor:start;fill:#000000"
     id="text23-6">
    <tspan
       id="tspan25-9"
       y="129.99997"
       x="168">B♭</tspan>
  </text>
  <path
     d="m 115,252.99997 120,0 0,40 -120,0 0,-16 0,-2 -12,0 0,6 -4,0 0,-16 4,0 0,6 12,0 0,-2 z"
     id="path21-6-72"
     style="fill:#ff00ff;fill-opacity:1;stroke:#c700d3;stroke-width:2;stroke-linecap:round;stroke-opacity:1" />
  <text
     id="text23-9-5"
     style="font-size:20px;font-family:Sans;text-anchor:start;fill:#000000"
     x="150"
     y="251.99997">
    <tspan
       x="170"
       y="277.99997"
       id="tspan25-8-7">5</tspan>
  </text>
  <path
     d="m 1,226.99997 0,-8 a 8,8 0 0 1 8,-8 l 8,0 0,4 20,0 0,-4 60,0 8,0 a 8,8 0 0 1 8,8 l 0,8 -8,0 0,-6 -8,0 0,20 8,0 0,-6 8,0 0,34 -8,0 0,-6 -8,0 0,20 8,0 0,-6 8,0 0,8 a 8,8 0 0 1 -8,8 l -8,0 -60,0 -2,0 0,4 -16,0 0,-4 -2,0 -8,0 a 8,8 0 0 1 -8,-8 l 0,-8 0,-42 0,-8 z"
     id="path3194-6"
     style="fill:#00b700;fill-opacity:1;stroke:#007b00;stroke-width:2;stroke-linecap:round;stroke-opacity:1" />
  <text
     y="209.99997"
     id="text3196-0"
     style="font-size:20px;font-family:Sans;text-anchor:end;fill:#000000">
    <tspan
       x="94"
       y="258.99997"
       id="tspan3198-1">tono</tspan>
  </text>
  <text
     y="211.99997"
     id="text3200-46"
     style="font-size:13.33333302px;font-family:Sans;text-anchor:end;fill:#000000">
    <tspan
       x="94"
       y="234.49997"
       id="tspan3202-3">nota</tspan>
  </text>
  <text
     y="211.99997"
     id="text3204-4"
     style="font-size:13.33333302px;font-family:Sans;text-anchor:end;fill:#000000">
    <tspan
       x="94"
       y="276.49997"
       id="tspan3206-6">octava</tspan>
  </text>
  <path
     d="m 115,146.99997 120,0 0,40 -120,0 0,-16 0,-2 -12,0 0,6 -4,0 0,-16 4,0 0,6 12,0 0,-2 z"
     id="path21-6-72-7"
     style="fill:#ff00ff;fill-opacity:1;stroke:#c700d3;stroke-width:2;stroke-linecap:round;stroke-opacity:1" />
  <text
     id="text23-9-5-1"
     style="font-size:20px;font-family:Sans;text-anchor:start;fill:#000000"
     x="150"
     y="145.99997">
    <tspan
       x="170"
       y="171.99997"
       id="tspan25-8-7-6">4</tspan>
  </text>
  <path
     d="m 1,120.99997 0,-8 a 8,8 0 0 1 8,-8 l 8,0 0,4 20,0 0,-4 60,0 8,0 a 8,8 0 0 1 8,8 l 0,8 -8,0 0,-6 -8,0 0,20 8,0 0,-6 8,0 0,34 -8,0 0,-6 -8,0 0,20 8,0 0,-6 8,0 0,8 a 8,8 0 0 1 -8,8 l -8,0 -60,0 -2,0 0,4 -16,0 0,-4 -2,0 -8,0 a 8,8 0 0 1 -8,-8 l 0,-8 0,-42 0,-8 z"
     id="path3194-6-6"
     style="fill:#00b700;fill-opacity:1;stroke:#007b00;stroke-width:2;stroke-linecap:round;stroke-opacity:1" />
  <text
     y="103.99997"
     id="text3196-0-3"
     style="font-size:20px;font-family:Sans;text-anchor:end;fill:#000000">
    <tspan
       x="94"
       y="152.99997"
       id="tspan3198-1-3">tono</tspan>
  </text>
  <text
     y="105.99997"
     id="text3200-46-9"
     style="font-size:13.33333302px;font-family:Sans;text-anchor:end;fill:#000000">
    <tspan
       x="94"
       y="128.49997"
       id="tspan3202-3-4">nota</tspan>
  </text>
  <text
     y="107.99997"
     id="text3204-4-8"
     style="font-size:13.33333302px;font-family:Sans;text-anchor:end;fill:#000000">
    <tspan
       x="94"
       y="172.49997"
       id="tspan3206-6-7">octava</tspan>
  </text>
  <path
     style="fill:#00b700;fill-opacity:1;stroke:#007b00;stroke-width:2;stroke-linecap:round;stroke-opacity:1"
     id="path21-3-4"
     d="m 115,0.99998474 120,0 0,40.00000026 -120,0 0,-16 0,-2 -12,0 0,6 -4,0 0,-16 4,0 0,6 12,0 0,-2 z" />
  <text
     y="-1.5258791e-05"
     x="148"
     style="font-size:20px;font-family:Sans;text-anchor:start;fill:#000000"
     id="text23-6-7">
    <tspan
       id="tspan25-9-30"
       y="25.999985"
       x="168">sol</tspan>
  </text>
  <path
     d="m 115,42.999988 120,0 0,40 -120,0 0,-16 0,-2 -12,0 0,6 -4,0 0,-16 4,0 0,6 12,0 0,-2 z"
     id="path21-6-72-4"
     style="fill:#ff00ff;fill-opacity:1;stroke:#c700d3;stroke-width:2;stroke-linecap:round;stroke-opacity:1" />
  <text
     id="text23-9-5-5"
     style="font-size:20px;font-family:Sans;text-anchor:start;fill:#000000"
     x="150"
     y="41.999989">
    <tspan
       x="170"
       y="67.999985"
       id="tspan25-8-7-7">6</tspan>
  </text>
  <path
     d="M 1,16.999985 1,8.9999847 A 8,8 0 0 1 9,0.99998474 l 8,0 0,3.99999996 20,0 0,-3.99999996 60,0 8,0 a 8,8 0 0 1 8,7.99999996 l 0,8.0000003 -8,0 0,-6 -8,0 0,20 8,0 0,-6 8,0 0,34 -8,0 0,-6 -8,0 0,20 8,0 0,-6 8,0 0,8 a 8,8 0 0 1 -8,8 l -8,0 -60,0 -2,0 0,4 -16,0 0,-4 -2,0 -8,0 a 8,8 0 0 1 -8,-8 l 0,-8 0,-42 0,-8 z"
     id="path3194-6-9"
     style="fill:#00b700;fill-opacity:1;stroke:#007b00;stroke-width:2;stroke-linecap:round;stroke-opacity:1" />
  <text
     y="-1.5258791e-05"
     id="text3196-0-6"
     style="font-size:20px;font-family:Sans;text-anchor:end;fill:#000000">
    <tspan
       x="94"
       y="48.999985"
       id="tspan3198-1-9">tono</tspan>
  </text>
  <text
     x="1.0910681e-07"
     y="1.999985"
     id="text3200-46-7"
     style="font-size:13.33333302px;font-family:Sans;text-anchor:end;fill:#000000">
    <tspan
       x="94"
       y="24.499985"
       id="tspan3202-3-1">nota</tspan>
  </text>
  <text
     y="3.9999852"
     id="text3204-4-7"
     style="font-size:13.33333302px;font-family:Sans;text-anchor:end;fill:#000000">
    <tspan
       x="94"
       y="68.499985"
       id="tspan3206-6-0">octava</tspan>
  </text>
  <path
     d="m 115.00001,210.99997 120,0 0,40 -120,0 0,-16 0,-2 -12,0 0,6 -4,0 0,-16 4,0 0,6 12,0 0,-2 z"
     id="path21-6-72-6"
     style="fill:#ff00ff;fill-opacity:1;stroke:#c700d3;stroke-width:2;stroke-linecap:round;stroke-opacity:1" />
  <text
     id="text23-9-5-59"
     style="font-size:20px;font-family:Sans;text-anchor:start;fill:#000000"
     x="140.00002"
     y="209.99997">
    <tspan
       x="160.00002"
       y="235.99997"
       id="tspan25-8-7-4">440</tspan>
  </text>
</svg>
