<?xml version="1.0" encoding="UTF-8" standalone="no"?>
<svg
   xmlns:dc="http://purl.org/dc/elements/1.1/"
   xmlns:cc="http://creativecommons.org/ns#"
   xmlns:rdf="http://www.w3.org/1999/02/22-rdf-syntax-ns#"
   xmlns:svg="http://www.w3.org/2000/svg"
   xmlns="http://www.w3.org/2000/svg"
   width="88.50312mm"
   height="142.47812mm"
   viewBox="0 0 88.503118 142.47812"
   version="1.1"
   id="svg11666">
  <defs
     id="defs11660" />
  <metadata
     id="metadata11663">
    <rdf:RDF>
      <cc:Work
         rdf:about="">
        <dc:format>image/svg+xml</dc:format>
        <dc:type
           rdf:resource="http://purl.org/dc/dcmitype/StillImage" />
        <dc:title></dc:title>
      </cc:Work>
    </rdf:RDF>
  </metadata>
  <g
     id="g2770"
     transform="matrix(0.26458333,0,0,0.26458333,1.42e-6,-6.6104617e-6)">
    <g
       id="g2768"
       transform="scale(1.5)">
      <path
         id="path2758"
         style="fill:#3edcdd;fill-opacity:1;stroke:#1dbcbd;stroke-width:1;stroke-linecap:round;stroke-opacity:1"
         d="m 0.5,8.5 v -4 a 4,4 90 0 1 4,-4 h 4 v 2 h 10 v -2 h 9 36.137695 4 a 4,4 90 0 1 4,4 v 4 h -4 v -3 h -4 v 10 h 4 v -3 h 4 v 4 a 4,4 90 0 1 -4,4 h -4 H 27.5 h -1 v 2 h -8 v -2 h -1 -4 a 5,5 90 0 0 -5,5 v 4 4 294 4 a 5,5 90 0 0 5,5 h 4 v 2 h 10 v -2 h 8 v 6 6 4 a 4,4 90 0 1 -4,4 h -4 -9 -1 v 2 h -8 v -2 h -1 -4 a 4,4 90 0 1 -4,-4 v -4 z" />
      <text
         id="text2762"
         style="font-size:10px;font-family:sans-serif;text-anchor:start;fill:#282828">
        <tspan
           id="tspan2760"
           y="15"
           x="5">crescendo</tspan>
      </text>
      <text
         id="text2766"
         style="font-size:6.66666651px;font-family:sans-serif;text-anchor:end;fill:#282828">
        <tspan
           id="tspan2764"
           y="12"
           x="61" />
      </text>
    </g>
  </g>
  <g
     id="g2780"
     transform="matrix(0.26458333,0,0,0.26458333,25.454648,-6.6104617e-6)">
    <g
       id="g2778"
       transform="scale(1.5)">
      <path
         id="path2772"
         style="fill:#ff6ea1;fill-opacity:1;stroke:#ff2c76;stroke-width:1;stroke-linecap:round;stroke-opacity:1"
         d="m 8.5,0.5 h 60 v 20 h -60 v -8 -1 h -6 v 3 h -2 v -8 h 2 v 3 h 6 v -1 z" />
      <text
         id="text2776"
         style="font-size:10px;font-family:sans-serif;text-anchor:start;fill:#282828">
        <tspan
           id="tspan2774"
           y="14"
           x="13">5</tspan>
      </text>
    </g>
  </g>
  <g
     transform="matrix(0.26458333,0,0,0.26458333,-151.87083,-255.16113)"
     id="g2876">
    <g
       id="g2856"
       transform="translate(587.5,995.88851)">
      <g
         id="g2854"
         transform="scale(1.5)">
        <path
           id="path2844"
           style="fill:#fe994f;fill-opacity:1;stroke:#e86b0e;stroke-width:1;stroke-linecap:round;stroke-opacity:1"
           d="m 0.5,8.5 v -4 a 4,4 90 0 1 4,-4 h 4 v 2 h 10 v -2 h 9 60 4 a 4,4 90 0 1 4,4 v 4 h -4 v -3 h -4 v 10 h 4 v -3 h 4 v 4 a 4,4 90 0 1 -4,4 h -4 -60 -1 v 2 h -8 v -2 h -1 -4 a 5,5 90 0 0 -5,5 v 4 4 42 4 a 5,5 90 0 0 5,5 h 4 v 2 h 10 v -2 h 8 v 6 6 4 a 4,4 90 0 1 -4,4 h -4 -9 -1 v 2 h -8 v -2 h -1 -4 a 4,4 90 0 1 -4,-4 v -4 z" />
        <text
           id="text2848"
           style="font-size:10px;font-family:sans-serif;text-anchor:start;fill:#282828">
          <tspan
             id="tspan2846"
             y="15"
             x="20">nota</tspan>
        </text>
        <text
           id="text2852"
           style="font-size:6.66666651px;font-family:sans-serif;text-anchor:end;fill:#282828">
          <tspan
             id="tspan2850"
             y="12"
             x="85">valor</tspan>
        </text>
      </g>
    </g>
    <g
       id="g2874"
       transform="matrix(0.5,0,0,0.5,587.5,999.88851)">
      <g
         id="g2872"
         style="isolation:isolate">
        <g
           data-name="レイヤー 2"
           id="g2870">
          <g
             id="g2868">
            <rect
               y="0"
               x="0"
               id="rect2858"
               style="opacity:0.4;mix-blend-mode:multiply;fill:#292929"
               ry="5"
               rx="5"
               height="42"
               width="42" />
            <path
               id="path2860"
               style="fill:#ffffff"
               d="m 30.56,29.8 -4.17,-4.16 h 2.26 a 1.035,1.035 0 1 0 0,-2.07 h -4.71 a 1.08,1.08 0 0 0 -1.11,1 v 0 c 0,0 0,0 0,0.06 v 4.64 0 a 1.04,1.04 0 1 0 2.08,0 v -2.19 l 4.19,4.19 a 1,1 0 0 0 1.46,0 1,1 0 0 0 0,-1.47 z" />
            <path
               id="path2862"
               style="fill:#ffffff"
               d="m 19.17,24.6 a 1.08,1.08 0 0 0 -1.11,-1 h -4.71 a 1.035,1.035 0 1 0 0,2.07 h 2.25 l -4.16,4.13 a 1.039447,1.039447 0 0 0 1.47,1.47 l 4.18,-4.19 v 2.26 a 1.04,1.04 0 1 0 2.08,0 V 24.7 c 0,0 0,0 0,-0.06 a 0.08,0.08 0 0 1 0,-0.04 z" />
            <path
               id="path2864"
               style="fill:#ffffff"
               d="m 23.94,20.5 h 4.7 a 1.04,1.04 0 1 0 0,-2.08 h -2.25 l 4.17,-4.16 a 1,1 0 0 0 0,-1.47 1,1 0 0 0 -1.46,0 L 24.91,17 v -2.28 a 1.04,1.04 0 1 0 -2.08,0 v 4.64 a 0.43,0.43 0 0 0 0,0.05 v 0.05 a 1.09,1.09 0 0 0 1.11,1.04 z" />
            <path
               id="path2866"
               style="fill:#ffffff"
               d="m 18.13,13.62 a 1.08,1.08 0 0 0 -1,1.09 V 17 l -4.18,-4.19 a 1,1 0 0 0 -1.47,0 1,1 0 0 0 0,1.46 l 4.16,4.17 h -2.29 a 1.04,1.04 0 1 0 0,2.08 h 4.71 a 1.09,1.09 0 0 0 1.11,-1 c 0,0 0,0 0,-0.06 v -4.75 a 1.07,1.07 0 0 0 -1.04,-1.09 z" />
          </g>
        </g>
      </g>
    </g>
  </g>
  <g
     id="g2894"
     transform="matrix(0.26458333,0,0,0.26458333,38.496876,8.3343683)">
    <g
       id="g2892"
       transform="scale(1.5)">
      <path
         id="path2878"
         style="fill:#ff6ea1;fill-opacity:1;stroke:#ff2c76;stroke-width:1;stroke-linecap:round;stroke-opacity:1"
         d="m 8.5,8.5 v -4 a 4,4 90 0 1 4,-4 h 4 10 30 4 a 4,4 90 0 1 4,4 v 4 h -4 v -3 h -4 v 10 h 4 v -3 h 4 v 17 h -4 v -3 h -4 v 10 h 4 v -3 h 4 v 4 a 4,4 90 0 1 -4,4 h -4 -30 -10 -4 a 4,4 90 0 1 -4,-4 v -4 -21 -1 h -6 v 3 h -2 v -8 h 2 v 3 h 6 z" />
      <text
         id="text2882"
         style="font-size:9px;font-family:sans-serif;text-anchor:end;fill:#282828">
        <tspan
           id="tspan2880"
           y="23"
           x="54">➗</tspan>
      </text>
      <text
         id="text2886"
         style="font-size:6px;font-family:sans-serif;text-anchor:end;fill:#282828">
        <tspan
           id="tspan2884"
           y="12"
           x="54" />
      </text>
      <text
         id="text2890"
         style="font-size:6px;font-family:sans-serif;text-anchor:end;fill:#282828">
        <tspan
           id="tspan2888"
           y="33"
           x="54" />
      </text>
    </g>
  </g>
  <g
     id="g2904"
     transform="matrix(0.26458333,0,0,0.26458333,61.118751,8.3343683)">
    <g
       id="g2902"
       transform="scale(1.5)">
      <path
         id="path2896"
         style="fill:#ff6ea1;fill-opacity:1;stroke:#ff2c76;stroke-width:1;stroke-linecap:round;stroke-opacity:1"
         d="m 8.5,0.5 h 60 v 20 h -60 v -8 -1 h -6 v 3 h -2 v -8 h 2 v 3 h 6 v -1 z" />
      <text
         id="text2900"
         style="font-size:10px;font-family:sans-serif;text-anchor:start;fill:#282828">
        <tspan
           id="tspan2898"
           y="14"
           x="13">1</tspan>
      </text>
    </g>
  </g>
  <g
     id="g2914"
     transform="matrix(0.26458333,0,0,0.26458333,61.118751,16.668741)">
    <g
       id="g2912"
       transform="scale(1.5)">
      <path
         id="path2906"
         style="fill:#ff6ea1;fill-opacity:1;stroke:#ff2c76;stroke-width:1;stroke-linecap:round;stroke-opacity:1"
         d="m 8.5,0.5 h 60 v 20 h -60 v -8 -1 h -6 v 3 h -2 v -8 h 2 v 3 h 6 v -1 z" />
      <text
         id="text2910"
         style="font-size:10px;font-family:sans-serif;text-anchor:start;fill:#282828">
        <tspan
           id="tspan2908"
           y="14"
           x="13">4</tspan>
      </text>
    </g>
  </g>
  <g
     id="g2924"
     transform="matrix(0.26458333,0,0,0.26458333,7.1437513,16.668741)">
    <g
       id="g2922"
       transform="scale(1.5)">
      <path
         id="path2916"
         style="fill:#c4c4c4;fill-opacity:1;stroke:#a0a0a0;stroke-width:1;stroke-linecap:round;stroke-opacity:1"
         d="m 0.5,8.5 v -4 a 4,4 90 0 1 4,-4 h 4 v 2 h 10 v -2 h 20 4 a 4,4 90 0 1 4,4 v 4 4 4 a 4,4 90 0 1 -4,4 h -4 -20 -1 v 2 h -8 v -2 h -1 -4 a 4,4 90 0 1 -4,-4 v -4 z" />
      <text
         id="text2920"
         style="font-size:10px;font-family:sans-serif;text-anchor:end;fill:#282828">
        <tspan
           id="tspan2918"
           y="14"
           x="36">↓</tspan>
      </text>
    </g>
  </g>
  <g
     id="g2942"
     transform="matrix(0.26458333,0,0,0.26458333,24.60626,25.003115)">
    <g
       id="g2940"
       transform="scale(1.5)">
      <path
         id="path2926"
         style="fill:#7cd622;fill-opacity:1;stroke:#57ad02;stroke-width:1;stroke-linecap:round;stroke-opacity:1"
         d="m -43.5,8.5 v -4 c 0,-2.209139 1.790861,-4 4,-4 h 4 v 2 h 10 v -2 h 74 4 c 2.209139,0 4,1.790861 4,4 v 4 h -4 v -3 h -4 v 10 h 4 v -3 h 4 v 17 h -4 v -3 h -4 v 10 h 4 v -3 h 4 v 4 c 0,2.209139 -1.790861,4 -4,4 h -4 -74 -1 v 2 h -8 v -2 h -1 -4 c -2.209139,0 -4,-1.790861 -4,-4 v -4 -21 z" />
      <text
         id="text2930"
         style="font-size:10px;font-family:sans-serif;text-anchor:end;fill:#282828">
        <tspan
           id="tspan2928"
           y="24"
           x="46">determinar o tom</tspan>
      </text>
      <text
         id="text2934"
         style="font-size:6.66666651px;font-family:sans-serif;text-anchor:end;fill:#282828">
        <tspan
           id="tspan2932"
           y="12"
           x="46">nome</tspan>
      </text>
      <text
         id="text2938"
         style="font-size:6.66666651px;font-family:sans-serif;text-anchor:end;fill:#282828">
        <tspan
           id="tspan2936"
           y="33"
           x="46">oitava</tspan>
      </text>
    </g>
  </g>
  <g
     id="g2952"
     transform="matrix(0.26458333,0,0,0.26458333,44.053137,25.003115)">
    <g
       id="g2950"
       transform="scale(1.5)">
      <path
         id="path2944"
         style="fill:#7cd622;fill-opacity:1;stroke:#57ad02;stroke-width:1;stroke-linecap:round;stroke-opacity:1"
         d="m 8.5,0.5 h 60 v 20 h -60 v -8 -1 h -6 v 3 h -2 v -8 h 2 v 3 h 6 v -1 z" />
      <text
         id="text2948"
         style="font-size:10px;font-family:sans-serif;text-anchor:start;fill:#282828">
        <tspan
           id="tspan2946"
           y="14"
           x="13">sol</tspan>
      </text>
    </g>
  </g>
  <g
     id="g2962"
     transform="matrix(0.26458333,0,0,0.26458333,44.053137,33.33749)">
    <g
       id="g2960"
       transform="scale(1.5)">
      <path
         id="path2954"
         style="fill:#ff6ea1;fill-opacity:1;stroke:#ff2c76;stroke-width:1;stroke-linecap:round;stroke-opacity:1"
         d="m 8.5,0.5 h 60 v 20 h -60 v -8 -1 h -6 v 3 h -2 v -8 h 2 v 3 h 6 v -1 z" />
      <text
         id="text2958"
         style="font-size:10px;font-family:sans-serif;text-anchor:start;fill:#282828">
        <tspan
           id="tspan2956"
           y="14"
           x="13">4</tspan>
      </text>
    </g>
  </g>
  <g
     transform="matrix(0.26458333,0,0,0.26458333,-151.87083,-255.16113)"
     id="g2996">
    <g
       id="g2976"
       transform="translate(587.5,1153.3885)">
      <g
         id="g2974"
         transform="scale(1.5)">
        <path
           id="path2964"
           style="fill:#fe994f;fill-opacity:1;stroke:#e86b0e;stroke-width:1;stroke-linecap:round;stroke-opacity:1"
           d="m 0.5,8.5 v -4 a 4,4 90 0 1 4,-4 h 4 v 2 h 10 v -2 h 9 60 4 a 4,4 90 0 1 4,4 v 4 h -4 v -3 h -4 v 10 h 4 v -3 h 4 v 4 a 4,4 90 0 1 -4,4 h -4 -60 -1 v 2 h -8 v -2 h -1 -4 a 5,5 90 0 0 -5,5 v 4 4 42 4 a 5,5 90 0 0 5,5 h 4 v 2 h 10 v -2 h 8 v 6 6 4 a 4,4 90 0 1 -4,4 h -4 -9 -1 v 2 h -8 v -2 h -1 -4 a 4,4 90 0 1 -4,-4 v -4 z" />
        <text
           id="text2968"
           style="font-size:10px;font-family:sans-serif;text-anchor:start;fill:#282828">
          <tspan
             id="tspan2966"
             y="15"
             x="20">nota</tspan>
        </text>
        <text
           id="text2972"
           style="font-size:6.66666651px;font-family:sans-serif;text-anchor:end;fill:#282828">
          <tspan
             id="tspan2970"
             y="12"
             x="85">valor</tspan>
        </text>
      </g>
    </g>
    <g
       id="g2994"
       transform="matrix(0.5,0,0,0.5,587.5,1157.3885)">
      <g
         id="g2992"
         style="isolation:isolate">
        <g
           data-name="レイヤー 2"
           id="g2990">
          <g
             id="g2988">
            <rect
               y="0"
               x="0"
               id="rect2978"
               style="opacity:0.4;mix-blend-mode:multiply;fill:#292929"
               ry="5"
               rx="5"
               height="42"
               width="42" />
            <path
               id="path2980"
               style="fill:#ffffff"
               d="m 30.56,29.8 -4.17,-4.16 h 2.26 a 1.035,1.035 0 1 0 0,-2.07 h -4.71 a 1.08,1.08 0 0 0 -1.11,1 v 0 c 0,0 0,0 0,0.06 v 4.64 0 a 1.04,1.04 0 1 0 2.08,0 v -2.19 l 4.19,4.19 a 1,1 0 0 0 1.46,0 1,1 0 0 0 0,-1.47 z" />
            <path
               id="path2982"
               style="fill:#ffffff"
               d="m 19.17,24.6 a 1.08,1.08 0 0 0 -1.11,-1 h -4.71 a 1.035,1.035 0 1 0 0,2.07 h 2.25 l -4.16,4.13 a 1.039447,1.039447 0 0 0 1.47,1.47 l 4.18,-4.19 v 2.26 a 1.04,1.04 0 1 0 2.08,0 V 24.7 c 0,0 0,0 0,-0.06 a 0.08,0.08 0 0 1 0,-0.04 z" />
            <path
               id="path2984"
               style="fill:#ffffff"
               d="m 23.94,20.5 h 4.7 a 1.04,1.04 0 1 0 0,-2.08 h -2.25 l 4.17,-4.16 a 1,1 0 0 0 0,-1.47 1,1 0 0 0 -1.46,0 L 24.91,17 v -2.28 a 1.04,1.04 0 1 0 -2.08,0 v 4.64 a 0.43,0.43 0 0 0 0,0.05 v 0.05 a 1.09,1.09 0 0 0 1.11,1.04 z" />
            <path
               id="path2986"
               style="fill:#ffffff"
               d="m 18.13,13.62 a 1.08,1.08 0 0 0 -1,1.09 V 17 l -4.18,-4.19 a 1,1 0 0 0 -1.47,0 1,1 0 0 0 0,1.46 l 4.16,4.17 h -2.29 a 1.04,1.04 0 1 0 0,2.08 h 4.71 a 1.09,1.09 0 0 0 1.11,-1 c 0,0 0,0 0,-0.06 v -4.75 a 1.07,1.07 0 0 0 -1.04,-1.09 z" />
          </g>
        </g>
      </g>
    </g>
  </g>
  <g
     id="g3014"
     transform="matrix(0.26458333,0,0,0.26458333,38.496876,50.00624)">
    <g
       id="g3012"
       transform="scale(1.5)">
      <path
         id="path2998"
         style="fill:#ff6ea1;fill-opacity:1;stroke:#ff2c76;stroke-width:1;stroke-linecap:round;stroke-opacity:1"
         d="m 8.5,8.5 v -4 a 4,4 90 0 1 4,-4 h 4 10 30 4 a 4,4 90 0 1 4,4 v 4 h -4 v -3 h -4 v 10 h 4 v -3 h 4 v 17 h -4 v -3 h -4 v 10 h 4 v -3 h 4 v 4 a 4,4 90 0 1 -4,4 h -4 -30 -10 -4 a 4,4 90 0 1 -4,-4 v -4 -21 -1 h -6 v 3 h -2 v -8 h 2 v 3 h 6 z" />
      <text
         id="text3002"
         style="font-size:9px;font-family:sans-serif;text-anchor:end;fill:#282828">
        <tspan
           id="tspan3000"
           y="23"
           x="54">➗</tspan>
      </text>
      <text
         id="text3006"
         style="font-size:6px;font-family:sans-serif;text-anchor:end;fill:#282828">
        <tspan
           id="tspan3004"
           y="12"
           x="54" />
      </text>
      <text
         id="text3010"
         style="font-size:6px;font-family:sans-serif;text-anchor:end;fill:#282828">
        <tspan
           id="tspan3008"
           y="33"
           x="54" />
      </text>
    </g>
  </g>
  <g
     id="g3024"
     transform="matrix(0.26458333,0,0,0.26458333,61.118751,50.00624)">
    <g
       id="g3022"
       transform="scale(1.5)">
      <path
         id="path3016"
         style="fill:#ff6ea1;fill-opacity:1;stroke:#ff2c76;stroke-width:1;stroke-linecap:round;stroke-opacity:1"
         d="m 8.5,0.5 h 60 v 20 h -60 v -8 -1 h -6 v 3 h -2 v -8 h 2 v 3 h 6 v -1 z" />
      <text
         id="text3020"
         style="font-size:10px;font-family:sans-serif;text-anchor:start;fill:#282828">
        <tspan
           id="tspan3018"
           y="14"
           x="13">1</tspan>
      </text>
    </g>
  </g>
  <g
     id="g3034"
     transform="matrix(0.26458333,0,0,0.26458333,61.118751,58.340615)">
    <g
       id="g3032"
       transform="scale(1.5)">
      <path
         id="path3026"
         style="fill:#ff6ea1;fill-opacity:1;stroke:#ff2c76;stroke-width:1;stroke-linecap:round;stroke-opacity:1"
         d="m 8.5,0.5 h 60 v 20 h -60 v -8 -1 h -6 v 3 h -2 v -8 h 2 v 3 h 6 v -1 z" />
      <text
         id="text3030"
         style="font-size:10px;font-family:sans-serif;text-anchor:start;fill:#282828">
        <tspan
           id="tspan3028"
           y="14"
           x="13">4</tspan>
      </text>
    </g>
  </g>
  <g
     id="g3044"
     transform="matrix(0.26458333,0,0,0.26458333,7.1437513,58.340615)">
    <g
       id="g3042"
       transform="scale(1.5)">
      <path
         id="path3036"
         style="fill:#c4c4c4;fill-opacity:1;stroke:#a0a0a0;stroke-width:1;stroke-linecap:round;stroke-opacity:1"
         d="m 0.5,8.5 v -4 a 4,4 90 0 1 4,-4 h 4 v 2 h 10 v -2 h 20 4 a 4,4 90 0 1 4,4 v 4 4 4 a 4,4 90 0 1 -4,4 h -4 -20 -1 v 2 h -8 v -2 h -1 -4 a 4,4 90 0 1 -4,-4 v -4 z" />
      <text
         id="text3040"
         style="font-size:10px;font-family:sans-serif;text-anchor:end;fill:#282828">
        <tspan
           id="tspan3038"
           y="14"
           x="36">↓</tspan>
      </text>
    </g>
  </g>
  <g
     id="g3062"
     transform="matrix(0.26458333,0,0,0.26458333,24.60626,66.67499)">
    <g
       id="g3060"
       transform="scale(1.5)">
      <path
         id="path3046"
         style="fill:#7cd622;fill-opacity:1;stroke:#57ad02;stroke-width:1;stroke-linecap:round;stroke-opacity:1"
         d="m -43.5,8.5 v -4 c 0,-2.209139 1.790861,-4 4,-4 h 4 v 2 h 10 v -2 h 74 4 c 2.209139,0 4,1.790861 4,4 v 4 h -4 v -3 h -4 v 10 h 4 v -3 h 4 v 17 h -4 v -3 h -4 v 10 h 4 v -3 h 4 v 4 c 0,2.209139 -1.790861,4 -4,4 h -4 -74 -1 v 2 h -8 v -2 h -1 -4 c -2.209139,0 -4.698591,-1.904227 -4,-4 v -4 -21 z" />
      <text
         id="text3050"
         style="font-size:10px;font-family:sans-serif;text-anchor:end;fill:#282828">
        <tspan
           id="tspan3048"
           y="24"
           x="46">determinar o tom</tspan>
      </text>
      <text
         id="text3054"
         style="font-size:6.66666651px;font-family:sans-serif;text-anchor:end;fill:#282828">
        <tspan
           id="tspan3052"
           y="12"
           x="46">nome</tspan>
      </text>
      <text
         id="text3058"
         style="font-size:6.66666651px;font-family:sans-serif;text-anchor:end;fill:#282828">
        <tspan
           id="tspan3056"
           y="33"
           x="46">oitava</tspan>
      </text>
    </g>
  </g>
  <g
     id="g3072"
     transform="matrix(0.26458333,0,0,0.26458333,44.053137,66.67499)">
    <g
       id="g3070"
       transform="scale(1.5)">
      <path
         id="path3064"
         style="fill:#7cd622;fill-opacity:1;stroke:#57ad02;stroke-width:1;stroke-linecap:round;stroke-opacity:1"
         d="m 8.5,0.5 h 60 v 20 h -60 v -8 -1 h -6 v 3 h -2 v -8 h 2 v 3 h 6 v -1 z" />
      <text
         id="text3068"
         style="font-size:10px;font-family:sans-serif;text-anchor:start;fill:#282828">
        <tspan
           id="tspan3066"
           y="14"
           x="13">sol</tspan>
      </text>
    </g>
  </g>
  <g
     id="g3082"
     transform="matrix(0.26458333,0,0,0.26458333,44.053137,75.009365)">
    <g
       id="g3080"
       transform="scale(1.5)">
      <path
         id="path3074"
         style="fill:#ff6ea1;fill-opacity:1;stroke:#ff2c76;stroke-width:1;stroke-linecap:round;stroke-opacity:1"
         d="m 8.5,0.5 h 60 v 20 h -60 v -8 -1 h -6 v 3 h -2 v -8 h 2 v 3 h 6 v -1 z" />
      <text
         id="text3078"
         style="font-size:10px;font-family:sans-serif;text-anchor:start;fill:#282828">
        <tspan
           id="tspan3076"
           y="14"
           x="13">4</tspan>
      </text>
    </g>
  </g>
  <g
     transform="matrix(0.26458333,0,0,0.26458333,-151.87083,-255.16113)"
     id="g3116">
    <g
       id="g3096"
       transform="translate(587.5,1310.8885)">
      <g
         id="g3094"
         transform="scale(1.5)">
        <path
           id="path3084"
           style="fill:#fe994f;fill-opacity:1;stroke:#e86b0e;stroke-width:1;stroke-linecap:round;stroke-opacity:1"
           d="m 0.5,8.5 v -4 a 4,4 90 0 1 4,-4 h 4 v 2 h 10 v -2 h 9 60 4 a 4,4 90 0 1 4,4 v 4 h -4 v -3 h -4 v 10 h 4 v -3 h 4 v 4 a 4,4 90 0 1 -4,4 h -4 -60 -1 v 2 h -8 v -2 h -1 -4 a 5,5 90 0 0 -5,5 v 4 4 42 4 a 5,5 90 0 0 5,5 h 4 v 2 h 10 v -2 h 8 v 6 6 4 a 4,4 90 0 1 -4,4 h -4 -9 -1 v 2 h -8 v -2 h -1 -4 a 4,4 90 0 1 -4,-4 v -4 z" />
        <text
           id="text3088"
           style="font-size:10px;font-family:sans-serif;text-anchor:start;fill:#282828">
          <tspan
             id="tspan3086"
             y="15"
             x="20">nota</tspan>
        </text>
        <text
           id="text3092"
           style="font-size:6.66666651px;font-family:sans-serif;text-anchor:end;fill:#282828">
          <tspan
             id="tspan3090"
             y="12"
             x="85">valor</tspan>
        </text>
      </g>
    </g>
    <g
       id="g3114"
       transform="matrix(0.5,0,0,0.5,587.5,1314.8885)">
      <g
         id="g3112"
         style="isolation:isolate">
        <g
           data-name="レイヤー 2"
           id="g3110">
          <g
             id="g3108">
            <rect
               y="0"
               x="0"
               id="rect3098"
               style="opacity:0.4;mix-blend-mode:multiply;fill:#292929"
               ry="5"
               rx="5"
               height="42"
               width="42" />
            <path
               id="path3100"
               style="fill:#ffffff"
               d="m 30.56,29.8 -4.17,-4.16 h 2.26 a 1.035,1.035 0 1 0 0,-2.07 h -4.71 a 1.08,1.08 0 0 0 -1.11,1 v 0 c 0,0 0,0 0,0.06 v 4.64 0 a 1.04,1.04 0 1 0 2.08,0 v -2.19 l 4.19,4.19 a 1,1 0 0 0 1.46,0 1,1 0 0 0 0,-1.47 z" />
            <path
               id="path3102"
               style="fill:#ffffff"
               d="m 19.17,24.6 a 1.08,1.08 0 0 0 -1.11,-1 h -4.71 a 1.035,1.035 0 1 0 0,2.07 h 2.25 l -4.16,4.13 a 1.039447,1.039447 0 0 0 1.47,1.47 l 4.18,-4.19 v 2.26 a 1.04,1.04 0 1 0 2.08,0 V 24.7 c 0,0 0,0 0,-0.06 a 0.08,0.08 0 0 1 0,-0.04 z" />
            <path
               id="path3104"
               style="fill:#ffffff"
               d="m 23.94,20.5 h 4.7 a 1.04,1.04 0 1 0 0,-2.08 h -2.25 l 4.17,-4.16 a 1,1 0 0 0 0,-1.47 1,1 0 0 0 -1.46,0 L 24.91,17 v -2.28 a 1.04,1.04 0 1 0 -2.08,0 v 4.64 a 0.43,0.43 0 0 0 0,0.05 v 0.05 a 1.09,1.09 0 0 0 1.11,1.04 z" />
            <path
               id="path3106"
               style="fill:#ffffff"
               d="m 18.13,13.62 a 1.08,1.08 0 0 0 -1,1.09 V 17 l -4.18,-4.19 a 1,1 0 0 0 -1.47,0 1,1 0 0 0 0,1.46 l 4.16,4.17 h -2.29 a 1.04,1.04 0 1 0 0,2.08 h 4.71 a 1.09,1.09 0 0 0 1.11,-1 c 0,0 0,0 0,-0.06 v -4.75 a 1.07,1.07 0 0 0 -1.04,-1.09 z" />
          </g>
        </g>
      </g>
    </g>
  </g>
  <g
     id="g3134"
     transform="matrix(0.26458333,0,0,0.26458333,38.496876,91.678115)">
    <g
       id="g3132"
       transform="scale(1.5)">
      <path
         id="path3118"
         style="fill:#ff6ea1;fill-opacity:1;stroke:#ff2c76;stroke-width:1;stroke-linecap:round;stroke-opacity:1"
         d="m 8.5,8.5 v -4 a 4,4 90 0 1 4,-4 h 4 10 30 4 a 4,4 90 0 1 4,4 v 4 h -4 v -3 h -4 v 10 h 4 v -3 h 4 v 17 h -4 v -3 h -4 v 10 h 4 v -3 h 4 v 4 a 4,4 90 0 1 -4,4 h -4 -30 -10 -4 a 4,4 90 0 1 -4,-4 v -4 -21 -1 h -6 v 3 h -2 v -8 h 2 v 3 h 6 z" />
      <text
         id="text3122"
         style="font-size:9px;font-family:sans-serif;text-anchor:end;fill:#282828">
        <tspan
           id="tspan3120"
           y="23"
           x="54">➗</tspan>
      </text>
      <text
         id="text3126"
         style="font-size:6px;font-family:sans-serif;text-anchor:end;fill:#282828">
        <tspan
           id="tspan3124"
           y="12"
           x="54" />
      </text>
      <text
         id="text3130"
         style="font-size:6px;font-family:sans-serif;text-anchor:end;fill:#282828">
        <tspan
           id="tspan3128"
           y="33"
           x="54" />
      </text>
    </g>
  </g>
  <g
     id="g3144"
     transform="matrix(0.26458333,0,0,0.26458333,61.118751,91.678115)">
    <g
       id="g3142"
       transform="scale(1.5)">
      <path
         id="path3136"
         style="fill:#ff6ea1;fill-opacity:1;stroke:#ff2c76;stroke-width:1;stroke-linecap:round;stroke-opacity:1"
         d="m 8.5,0.5 h 60 v 20 h -60 v -8 -1 h -6 v 3 h -2 v -8 h 2 v 3 h 6 v -1 z" />
      <text
         id="text3140"
         style="font-size:10px;font-family:sans-serif;text-anchor:start;fill:#282828">
        <tspan
           id="tspan3138"
           y="14"
           x="13">1</tspan>
      </text>
    </g>
  </g>
  <g
     id="g3154"
     transform="matrix(0.26458333,0,0,0.26458333,61.118751,100.01249)">
    <g
       id="g3152"
       transform="scale(1.5)">
      <path
         id="path3146"
         style="fill:#ff6ea1;fill-opacity:1;stroke:#ff2c76;stroke-width:1;stroke-linecap:round;stroke-opacity:1"
         d="m 8.5,0.5 h 60 v 20 h -60 v -8 -1 h -6 v 3 h -2 v -8 h 2 v 3 h 6 v -1 z" />
      <text
         id="text3150"
         style="font-size:10px;font-family:sans-serif;text-anchor:start;fill:#282828">
        <tspan
           id="tspan3148"
           y="14"
           x="13">4</tspan>
      </text>
    </g>
  </g>
  <g
     id="g3164"
     transform="matrix(0.26458333,0,0,0.26458333,7.1437513,100.01249)">
    <g
       id="g3162"
       transform="scale(1.5)">
      <path
         id="path3156"
         style="fill:#c4c4c4;fill-opacity:1;stroke:#a0a0a0;stroke-width:1;stroke-linecap:round;stroke-opacity:1"
         d="m 0.5,8.5 v -4 a 4,4 90 0 1 4,-4 h 4 v 2 h 10 v -2 h 20 4 a 4,4 90 0 1 4,4 v 4 4 4 a 4,4 90 0 1 -4,4 h -4 -20 -1 v 2 h -8 v -2 h -1 -4 a 4,4 90 0 1 -4,-4 v -4 z" />
      <text
         id="text3160"
         style="font-size:10px;font-family:sans-serif;text-anchor:end;fill:#282828">
        <tspan
           id="tspan3158"
           y="14"
           x="36">↓</tspan>
      </text>
    </g>
  </g>
  <g
     id="g3182"
     transform="matrix(0.26458333,0,0,0.26458333,24.60626,108.34686)">
    <g
       id="g3180"
       transform="scale(1.5)">
      <path
         id="path3166"
         style="fill:#7cd622;fill-opacity:1;stroke:#57ad02;stroke-width:1;stroke-linecap:round;stroke-opacity:1"
         d="m -43.5,8.5 v -4 c 0,-2.209139 1.790861,-4 4,-4 h 4 v 2 h 10 v -2 h 74 4 c 2.209139,0 4,1.790861 4,4 v 4 h -4 v -3 h -4 v 10 h 4 v -3 h 4 v 17 h -4 v -3 h -4 v 10 h 4 v -3 h 4 v 4 c 0,2.209139 -1.790861,4 -4,4 h -4 -74 -1 v 2 h -8 v -2 h -1 -4 c -2.209139,0 -4.698591,-1.904227 -4,-4 v -4 -21 z" />
      <text
         id="text3170"
         style="font-size:10px;font-family:sans-serif;text-anchor:end;fill:#282828">
        <tspan
           id="tspan3168"
           y="24"
           x="46">determinar o tom</tspan>
      </text>
      <text
         id="text3174"
         style="font-size:6.66666651px;font-family:sans-serif;text-anchor:end;fill:#282828">
        <tspan
           id="tspan3172"
           y="12"
           x="46">nome</tspan>
      </text>
      <text
         id="text3178"
         style="font-size:6.66666651px;font-family:sans-serif;text-anchor:end;fill:#282828">
        <tspan
           id="tspan3176"
           y="33"
           x="46">oitava</tspan>
      </text>
    </g>
  </g>
  <g
     id="g3192"
     transform="matrix(0.26458333,0,0,0.26458333,44.053137,108.34686)">
    <g
       id="g3190"
       transform="scale(1.5)">
      <path
         id="path3184"
         style="fill:#7cd622;fill-opacity:1;stroke:#57ad02;stroke-width:1;stroke-linecap:round;stroke-opacity:1"
         d="m 8.5,0.5 h 60 v 20 h -60 v -8 -1 h -6 v 3 h -2 v -8 h 2 v 3 h 6 v -1 z" />
      <text
         id="text3188"
         style="font-size:10px;font-family:sans-serif;text-anchor:start;fill:#282828">
        <tspan
           id="tspan3186"
           y="14"
           x="13">sol</tspan>
      </text>
    </g>
  </g>
  <g
     id="g3202"
     transform="matrix(0.26458333,0,0,0.26458333,44.053137,116.68124)">
    <g
       id="g3200"
       transform="scale(1.5)">
      <path
         id="path3194"
         style="fill:#ff6ea1;fill-opacity:1;stroke:#ff2c76;stroke-width:1;stroke-linecap:round;stroke-opacity:1"
         d="m 8.5,0.5 h 60 v 20 h -60 v -8 -1 h -6 v 3 h -2 v -8 h 2 v 3 h 6 v -1 z" />
      <text
         id="text3198"
         style="font-size:10px;font-family:sans-serif;text-anchor:start;fill:#282828">
        <tspan
           id="tspan3196"
           y="14"
           x="13">4</tspan>
      </text>
    </g>
  </g>
</svg>
