<?xml version="1.0" encoding="UTF-8" standalone="no"?>
<svg
   xmlns:dc="http://purl.org/dc/elements/1.1/"
   xmlns:cc="http://creativecommons.org/ns#"
   xmlns:rdf="http://www.w3.org/1999/02/22-rdf-syntax-ns#"
   xmlns:svg="http://www.w3.org/2000/svg"
   xmlns="http://www.w3.org/2000/svg"
   id="svg3045"
   version="1.1"
   viewBox="0 0 142.36135 75.803124"
   height="75.803123mm"
   width="142.36136mm">
  <defs
     id="defs3039" />
  <metadata
     id="metadata3042">
    <rdf:RDF>
      <cc:Work
         rdf:about="">
        <dc:format>image/svg+xml</dc:format>
        <dc:type
           rdf:resource="http://purl.org/dc/dcmitype/StillImage" />
        <dc:title></dc:title>
      </cc:Work>
    </rdf:RDF>
  </metadata>
  <g
     id="g844"
     transform="scale(0.26458333)">
    <g
       transform="scale(1.5)"
       id="g842">
      <path
         d="m 0.5,8.5 v -4 c 0,-2.209139 1.790861,-4 4,-4 h 4 v 2 h 10 v -2 h 9 112.32063 4 c 2.20914,0 4.69859,1.9042267 4,4 v 4 h -4 v -3 h -4 v 10 h 4 v -3 h 4 v 4 c 0,2.209139 -1.79086,4 -4,4 h -4 H 27.5 h -1 v 2 h -8 v -2 h -1 -4 c -2.761424,0 -5,2.238576 -5,5 v 4 4 126 4 c 0,2.76142 2.238576,5 5,5 h 4 v 2 h 10 v -2 h 8 v 6 6 4 c 0,2.20914 -1.790861,4 -4,4 h -4 -9 -1 v 2 h -8 v -2 h -1 -4 c -2.209139,0 -4,-1.79086 -4,-4 v -4 z"
         style="fill:#7cd622;fill-opacity:1;stroke:#57ad02;stroke-width:1;stroke-linecap:round;stroke-opacity:1"
         id="path832" />
      <text
         style="font-size:10px;font-family:sans-serif;text-anchor:start;fill:#282828"
         id="text836">
        <tspan
           x="5"
           y="15"
           id="tspan834">transposição escalar (+/–)</tspan>
      </text>
      <text
         style="font-size:6.66666651px;font-family:sans-serif;text-anchor:end;fill:#282828"
         id="text840">
        <tspan
           x="112"
           y="12"
           id="tspan838" />
      </text>
    </g>
  </g>
  <g
     transform="matrix(0.26458333,0,0,0.26458333,55.562506,0)"
     id="g862">
    <g
       transform="scale(1.5)"
       id="g860">
      <path
         d="m 8.5,8.5 v -4 a 4,4 90 0 1 4,-4 h 4 10 30 4 a 4,4 90 0 1 4,4 v 4 h -4 v -3 h -4 v 10 h 4 v -3 h 4 v 17 h -4 v -3 h -4 v 10 h 4 v -3 h 4 v 4 a 4,4 90 0 1 -4,4 h -4 -30 -10 -4 a 4,4 90 0 1 -4,-4 v -4 -21 -1 h -6 v 3 h -2 v -8 h 2 v 3 h 6 z"
         style="fill:#ff6ea1;fill-opacity:1;stroke:#ff2c76;stroke-width:1;stroke-linecap:round;stroke-opacity:1"
         id="path846" />
      <text
         style="font-size:14px;font-family:sans-serif;text-anchor:end;fill:#282828"
         id="text850">
        <tspan
           x="54"
           y="24"
           id="tspan848">+</tspan>
      </text>
      <text
         style="font-size:9.33333302px;font-family:sans-serif;text-anchor:end;fill:#282828"
         id="text854">
        <tspan
           x="54"
           y="12"
           id="tspan852" />
      </text>
      <text
         style="font-size:9.33333302px;font-family:sans-serif;text-anchor:end;fill:#282828"
         id="text858">
        <tspan
           x="54"
           y="33"
           id="tspan856" />
      </text>
    </g>
  </g>
  <g
     transform="matrix(0.26458333,0,0,0.26458333,78.316671,0)"
     id="g872">
    <g
       transform="scale(1.5)"
       id="g870">
      <path
         d="m 8.5,0.5 h 60 v 20 h -60 v -8 -1 h -6 v 3 h -2 v -8 h 2 v 3 h 6 v -1 z"
         style="fill:#ff6ea1;fill-opacity:1;stroke:#ff2c76;stroke-width:1;stroke-linecap:round;stroke-opacity:1"
         id="path864" />
      <text
         style="font-size:10px;font-family:sans-serif;text-anchor:start;fill:#282828"
         id="text868">
        <tspan
           x="13"
           y="14"
           id="tspan866">4</tspan>
      </text>
    </g>
  </g>
  <g
     transform="matrix(0.26458333,0,0,0.26458333,78.316671,8.46667)"
     id="g890">
    <g
       transform="scale(1.5)"
       id="g888">
      <path
         d="m 8.5,8.5 v -4 a 4,4 90 0 1 4,-4 h 4 10 30 4 a 4,4 90 0 1 4,4 v 4 h -4 v -3 h -4 v 10 h 4 v -3 h 4 v 17 h -4 v -3 h -4 v 10 h 4 v -3 h 4 v 4 a 4,4 90 0 1 -4,4 h -4 -30 -10 -4 a 4,4 90 0 1 -4,-4 v -4 -21 -1 h -6 v 3 h -2 v -8 h 2 v 3 h 6 z"
         style="fill:#ff6ea1;fill-opacity:1;stroke:#ff2c76;stroke-width:1;stroke-linecap:round;stroke-opacity:1"
         id="path874" />
      <text
         style="font-size:14px;font-family:sans-serif;text-anchor:end;fill:#282828"
         id="text878">
        <tspan
           x="54"
           y="24"
           id="tspan876">×</tspan>
      </text>
      <text
         style="font-size:9.33333302px;font-family:sans-serif;text-anchor:end;fill:#282828"
         id="text882">
        <tspan
           x="54"
           y="12"
           id="tspan880" />
      </text>
      <text
         style="font-size:9.33333302px;font-family:sans-serif;text-anchor:end;fill:#282828"
         id="text886">
        <tspan
           x="54"
           y="33"
           id="tspan884" />
      </text>
    </g>
  </g>
  <g
     transform="matrix(0.26458333,0,0,0.26458333,101.07085,8.46667)"
     id="g900">
    <g
       transform="scale(1.5)"
       id="g898">
      <path
         d="m 8.5,0.5 h 60 v 20 h -60 v -8 -1 h -6 v 3 h -2 v -8 h 2 v 3 h 6 v -1 z"
         style="fill:#ff6ea1;fill-opacity:1;stroke:#ff2c76;stroke-width:1;stroke-linecap:round;stroke-opacity:1"
         id="path892" />
      <text
         style="font-size:10px;font-family:sans-serif;text-anchor:start;fill:#282828"
         id="text896">
        <tspan
           x="13"
           y="14"
           id="tspan894">0</tspan>
      </text>
    </g>
  </g>
  <g
     transform="matrix(0.26458333,0,0,0.26458333,101.07085,16.93333)"
     id="g910">
    <g
       transform="scale(1.5)"
       id="g908">
      <path
         d="m 8.5,0.5 h 95.03906 v 20 H 8.5 v -8 -1 h -6 v 3 h -2 v -8 h 2 v 3 h 6 v -1 z"
         style="fill:#7cd622;fill-opacity:1;stroke:#57ad02;stroke-width:1;stroke-linecap:round;stroke-opacity:1"
         id="path902" />
      <text
         style="font-size:10px;font-family:sans-serif;text-anchor:start;fill:#282828"
         id="text906">
        <tspan
           x="13"
           y="14"
           id="tspan904">duração do modo</tspan>
      </text>
    </g>
  </g>
  <g
     transform="matrix(0.26458333,0,0,0.26458333,3.704167,8.46667)"
     id="g920">
    <g
       transform="scale(1.5)"
       id="g918">
      <path
         d="m 0.5,8.5 v -4 a 4,4 90 0 1 4,-4 h 4 v 2 h 10 v -2 h 20 4 a 4,4 90 0 1 4,4 v 4 4 4 a 4,4 90 0 1 -4,4 h -4 -20 -1 v 2 h -8 v -2 h -1 -4 a 4,4 90 0 1 -4,-4 v -4 z"
         style="fill:#c4c4c4;fill-opacity:1;stroke:#a0a0a0;stroke-width:1;stroke-linecap:round;stroke-opacity:1"
         id="path912" />
      <text
         style="font-size:10px;font-family:sans-serif;text-anchor:end;fill:#282828"
         id="text916">
        <tspan
           x="36"
           y="14"
           id="tspan914">↓</tspan>
      </text>
    </g>
  </g>
  <g
     transform="matrix(0.26458333,0,0,0.26458333,3.704167,16.93333)"
     id="g930">
    <g
       transform="scale(1.5)"
       id="g928">
      <path
         d="m 0.5,8.5 v -4 a 4,4 90 0 1 4,-4 h 4 v 2 h 10 v -2 h 20 4 a 4,4 90 0 1 4,4 v 4 4 4 a 4,4 90 0 1 -4,4 h -4 -20 -1 v 2 h -8 v -2 h -1 -4 a 4,4 90 0 1 -4,-4 v -4 z"
         style="fill:#c4c4c4;fill-opacity:1;stroke:#a0a0a0;stroke-width:1;stroke-linecap:round;stroke-opacity:1"
         id="path922" />
      <text
         style="font-size:10px;font-family:sans-serif;text-anchor:end;fill:#282828"
         id="text926">
        <tspan
           x="36"
           y="14"
           id="tspan924">↓</tspan>
      </text>
    </g>
  </g>
  <g
     transform="matrix(0.26458333,0,0,0.26458333,-401.90208,-206.37499)"
     id="g964">
    <g
       transform="translate(1533,876)"
       id="g944">
      <g
         transform="scale(1.5)"
         id="g942">
        <path
           d="m 0.5,8.5 v -4 a 4,4 90 0 1 4,-4 h 4 v 2 h 10 v -2 h 9 60 4 a 4,4 90 0 1 4,4 v 4 h -4 v -3 h -4 v 10 h 4 v -3 h 4 v 4 a 4,4 90 0 1 -4,4 h -4 -60 -1 v 2 h -8 v -2 h -1 -4 a 5,5 90 0 0 -5,5 v 4 4 42 4 a 5,5 90 0 0 5,5 h 4 v 2 h 10 v -2 h 8 v 6 6 4 a 4,4 90 0 1 -4,4 h -4 -9 -1 v 2 h -8 v -2 h -1 -4 a 4,4 90 0 1 -4,-4 v -4 z"
           style="fill:#fe994f;fill-opacity:1;stroke:#e86b0e;stroke-width:1;stroke-linecap:round;stroke-opacity:1"
           id="path932" />
        <text
           style="font-size:10px;font-family:sans-serif;text-anchor:start;fill:#282828"
           id="text936">
          <tspan
             x="20"
             y="15"
             id="tspan934">nota</tspan>
        </text>
        <text
           style="font-size:6.66666651px;font-family:sans-serif;text-anchor:end;fill:#282828"
           id="text940">
          <tspan
             x="85"
             y="12"
             id="tspan938">valor</tspan>
        </text>
      </g>
    </g>
    <g
       transform="matrix(0.5,0,0,0.5,1533,880)"
       id="g962">
      <g
         style="isolation:isolate"
         id="g960">
        <g
           id="g958"
           data-name="レイヤー 2">
          <g
             id="g956">
            <rect
               y="0"
               x="0"
               width="42"
               height="42"
               rx="5"
               ry="5"
               style="opacity:0.4;mix-blend-mode:multiply;fill:#292929"
               id="rect946" />
            <path
               d="m 30.56,29.8 -4.17,-4.16 h 2.26 a 1.035,1.035 0 1 0 0,-2.07 h -4.71 a 1.08,1.08 0 0 0 -1.11,1 v 0 c 0,0 0,0 0,0.06 v 4.64 0 a 1.04,1.04 0 1 0 2.08,0 v -2.19 l 4.19,4.19 a 1,1 0 0 0 1.46,0 1,1 0 0 0 0,-1.47 z"
               style="fill:#ffffff"
               id="path948" />
            <path
               d="m 19.17,24.6 a 1.08,1.08 0 0 0 -1.11,-1 h -4.71 a 1.035,1.035 0 1 0 0,2.07 h 2.25 l -4.16,4.13 a 1.039447,1.039447 0 0 0 1.47,1.47 l 4.18,-4.19 v 2.26 a 1.04,1.04 0 1 0 2.08,0 V 24.7 c 0,0 0,0 0,-0.06 a 0.08,0.08 0 0 1 0,-0.04 z"
               style="fill:#ffffff"
               id="path950" />
            <path
               d="m 23.94,20.5 h 4.7 a 1.04,1.04 0 1 0 0,-2.08 h -2.25 l 4.17,-4.16 a 1,1 0 0 0 0,-1.47 1,1 0 0 0 -1.46,0 L 24.91,17 v -2.28 a 1.04,1.04 0 1 0 -2.08,0 v 4.64 a 0.43,0.43 0 0 0 0,0.05 v 0.05 a 1.09,1.09 0 0 0 1.11,1.04 z"
               style="fill:#ffffff"
               id="path952" />
            <path
               d="m 18.13,13.62 a 1.08,1.08 0 0 0 -1,1.09 V 17 l -4.18,-4.19 a 1,1 0 0 0 -1.47,0 1,1 0 0 0 0,1.46 l 4.16,4.17 h -2.29 a 1.04,1.04 0 1 0 0,2.08 h 4.71 a 1.09,1.09 0 0 0 1.11,-1 c 0,0 0,0 0,-0.06 v -4.75 a 1.07,1.07 0 0 0 -1.04,-1.09 z"
               style="fill:#ffffff"
               id="path954" />
          </g>
        </g>
      </g>
    </g>
  </g>
  <g
     transform="matrix(0.26458333,0,0,0.26458333,38.629167,25.4)"
     id="g982">
    <g
       transform="scale(1.5)"
       id="g980">
      <path
         d="m 8.5,8.5 v -4 a 4,4 90 0 1 4,-4 h 4 10 30 4 a 4,4 90 0 1 4,4 v 4 h -4 v -3 h -4 v 10 h 4 v -3 h 4 v 17 h -4 v -3 h -4 v 10 h 4 v -3 h 4 v 4 a 4,4 90 0 1 -4,4 h -4 -30 -10 -4 a 4,4 90 0 1 -4,-4 v -4 -21 -1 h -6 v 3 h -2 v -8 h 2 v 3 h 6 z"
         style="fill:#ff6ea1;fill-opacity:1;stroke:#ff2c76;stroke-width:1;stroke-linecap:round;stroke-opacity:1"
         id="path966" />
      <text
         style="font-size:9px;font-family:sans-serif;text-anchor:end;fill:#282828"
         id="text970">
        <tspan
           x="54"
           y="23"
           id="tspan968">➗</tspan>
      </text>
      <text
         style="font-size:6px;font-family:sans-serif;text-anchor:end;fill:#282828"
         id="text974">
        <tspan
           x="54"
           y="12"
           id="tspan972" />
      </text>
      <text
         style="font-size:6px;font-family:sans-serif;text-anchor:end;fill:#282828"
         id="text978">
        <tspan
           x="54"
           y="33"
           id="tspan976" />
      </text>
    </g>
  </g>
  <g
     transform="matrix(0.26458333,0,0,0.26458333,61.383338,25.4)"
     id="g992">
    <g
       transform="scale(1.5)"
       id="g990">
      <path
         d="m 8.5,0.5 h 60 v 20 h -60 v -8 -1 h -6 v 3 h -2 v -8 h 2 v 3 h 6 v -1 z"
         style="fill:#ff6ea1;fill-opacity:1;stroke:#ff2c76;stroke-width:1;stroke-linecap:round;stroke-opacity:1"
         id="path984" />
      <text
         style="font-size:10px;font-family:sans-serif;text-anchor:start;fill:#282828"
         id="text988">
        <tspan
           x="13"
           y="14"
           id="tspan986">1</tspan>
      </text>
    </g>
  </g>
  <g
     transform="matrix(0.26458333,0,0,0.26458333,61.383338,33.86667)"
     id="g1002">
    <g
       transform="scale(1.5)"
       id="g1000">
      <path
         d="m 8.5,0.5 h 60 v 20 h -60 v -8 -1 h -6 v 3 h -2 v -8 h 2 v 3 h 6 v -1 z"
         style="fill:#ff6ea1;fill-opacity:1;stroke:#ff2c76;stroke-width:1;stroke-linecap:round;stroke-opacity:1"
         id="path994" />
      <text
         style="font-size:10px;font-family:sans-serif;text-anchor:start;fill:#282828"
         id="text998">
        <tspan
           x="13"
           y="14"
           id="tspan996">4</tspan>
      </text>
    </g>
  </g>
  <g
     transform="matrix(0.26458333,0,0,0.26458333,7.408333,33.86667)"
     id="g1012">
    <g
       transform="scale(1.5)"
       id="g1010">
      <path
         d="m 0.5,8.5 v -4 a 4,4 90 0 1 4,-4 h 4 v 2 h 10 v -2 h 20 4 a 4,4 90 0 1 4,4 v 4 4 4 a 4,4 90 0 1 -4,4 h -4 -20 -1 v 2 h -8 v -2 h -1 -4 a 4,4 90 0 1 -4,-4 v -4 z"
         style="fill:#c4c4c4;fill-opacity:1;stroke:#a0a0a0;stroke-width:1;stroke-linecap:round;stroke-opacity:1"
         id="path1004" />
      <text
         style="font-size:10px;font-family:sans-serif;text-anchor:end;fill:#282828"
         id="text1008">
        <tspan
           x="36"
           y="14"
           id="tspan1006">↓</tspan>
      </text>
    </g>
  </g>
  <g
     transform="matrix(0.26458333,0,0,0.26458333,24.870842,42.33334)"
     id="g1030">
    <g
       transform="scale(1.5)"
       id="g1028">
      <path
         d="m -43.499999,8.5 v -4 c 0,-2.209139 1.790861,-4 4,-4 h 4 v 2 h 10 v -2 H 48.5 h 4 c 2.209139,0 4,1.790861 4,4 v 4 h -4 v -3 h -4 v 10 h 4 v -3 h 4 v 17 h -4 v -3 h -4 v 10 h 4 v -3 h 4 v 4 c 0,2.209139 -1.790861,4 -4,4 h -4 -73.999999 -1 v 2 h -8 v -2 h -1 -4 c -2.209139,0 -4.698591,-1.904227 -4,-4 v -4 -21 z"
         style="fill:#7cd622;fill-opacity:1;stroke:#57ad02;stroke-width:1;stroke-linecap:round;stroke-opacity:1"
         id="path1014" />
      <text
         style="font-size:10px;font-family:sans-serif;text-anchor:end;fill:#282828"
         id="text1018">
        <tspan
           x="46"
           y="24"
           id="tspan1016">determinar o tom</tspan>
      </text>
      <text
         style="font-size:6.66666651px;font-family:sans-serif;text-anchor:end;fill:#282828"
         id="text1022">
        <tspan
           x="46"
           y="12"
           id="tspan1020">nome</tspan>
      </text>
      <text
         style="font-size:6.66666651px;font-family:sans-serif;text-anchor:end;fill:#282828"
         id="text1026">
        <tspan
           x="46"
           y="33"
           id="tspan1024">oitava</tspan>
      </text>
    </g>
  </g>
  <g
     transform="matrix(0.26458333,0,0,0.26458333,44.450011,42.33334)"
     id="g1040">
    <g
       transform="scale(1.5)"
       id="g1038">
      <path
         d="m 8.5,0.5 h 60 v 20 h -60 v -8 -1 h -6 v 3 h -2 v -8 h 2 v 3 h 6 v -1 z"
         style="fill:#7cd622;fill-opacity:1;stroke:#57ad02;stroke-width:1;stroke-linecap:round;stroke-opacity:1"
         id="path1032" />
      <text
         style="font-size:10px;font-family:sans-serif;text-anchor:start;fill:#282828"
         id="text1036">
        <tspan
           x="13"
           y="14"
           id="tspan1034">sol</tspan>
      </text>
    </g>
  </g>
  <g
     transform="matrix(0.26458333,0,0,0.26458333,44.450011,50.80001)"
     id="g1050">
    <g
       transform="scale(1.5)"
       id="g1048">
      <path
         d="m 8.5,0.5 h 60 v 20 h -60 v -8 -1 h -6 v 3 h -2 v -8 h 2 v 3 h 6 v -1 z"
         style="fill:#ff6ea1;fill-opacity:1;stroke:#ff2c76;stroke-width:1;stroke-linecap:round;stroke-opacity:1"
         id="path1042" />
      <text
         style="font-size:10px;font-family:sans-serif;text-anchor:start;fill:#282828"
         id="text1046">
        <tspan
           x="13"
           y="14"
           id="tspan1044">4</tspan>
      </text>
    </g>
  </g>
</svg>
