<?xml version="1.0" encoding="UTF-8" standalone="no"?>
<svg
   xmlns:dc="http://purl.org/dc/elements/1.1/"
   xmlns:cc="http://creativecommons.org/ns#"
   xmlns:rdf="http://www.w3.org/1999/02/22-rdf-syntax-ns#"
   xmlns:svg="http://www.w3.org/2000/svg"
   xmlns="http://www.w3.org/2000/svg"
   id="svg246"
   version="1.1"
   height="784"
   width="323">
  <metadata
     id="metadata252">
    <rdf:RDF>
      <cc:Work
         rdf:about="">
        <dc:format>image/svg+xml</dc:format>
        <dc:type
           rdf:resource="http://purl.org/dc/dcmitype/StillImage" />
        <dc:title></dc:title>
      </cc:Work>
    </rdf:RDF>
  </metadata>
  <defs
     id="defs250" />
  <rect
     stroke="none"
     fill="none"
     y="0"
     x="0"
     height="100%"
     width="100%"
     id="backgroundrect" />
  <g
     class=""
     id="svg_15">
    <g
       id="svg_16">
      <g
         id="svg_17"
         transform="matrix(1.5,0,0,1.5,239,169)">
        <path
           id="svg_18"
           style="fill:#77c428;fill-opacity:1;stroke:#57ad02;stroke-width:1;stroke-linecap:round;stroke-opacity:1"
           d="m -158.83333,-98.666664 v -3.999996 a 4,4 90 0 1 4,-4 h 4 l 5,-6 5,6 h 9 69.000002 4 a 4,4 90 0 1 4,4 v 3.999996 4 4 a 4,4 90 0 1 -4,4 h -4 -69.000002 -1 v 2 h -8 v -2 h -1 -4 a 5,5 90 0 0 -5,5 v 4 4 147 4 a 5,5 90 0 0 5,5 h 4 v 2 h 10 v -2 h 8 v 6 6 4 a 4,4 90 0 1 -4,4.000004 h -4 -9 l -5,6 -5,-6 h -4 a 4,4 90 0 1 -4,-4.000004 v -4 z" />
        <text
           x="-159.33333"
           y="-113.16666"
           id="svg_19"
           style="font-size:10px;font-family:sans-serif;text-anchor:start;fill:#282828">
          <tspan
             id="svg_20"
             y="-91.166664"
             x="-139.33333">criador de frase</tspan>
        </text>
      </g>
    </g>
    <g
       id="svg_21"
       transform="matrix(0.5,0,0,0.5,239,181)">
      <g
         id="svg_22"
         style="isolation:isolate">
        <g
           data-name="レイヤー 2"
           id="レイヤー_2">
          <g
             id="Icon">
            <rect
               x="-478"
               y="-339.5"
               id="svg_23"
               style="opacity:0.4;mix-blend-mode:multiply;fill:#292929"
               ry="5"
               rx="5"
               height="42"
               width="42" />
            <path
               id="svg_24"
               style="fill:#ffffff"
               d="m -447.44,-309.7 -4.17,-4.16 h 2.26 a 1.035,1.035 0 1 0 0,-2.07 h -4.71 a 1.08,1.08 0 0 0 -1.11,1 v 0 c 0,0 0,0 0,0.06 v 4.64 0 a 1.04,1.04 0 1 0 2.08,0 v -2.19 l 4.19,4.19 a 1,1 0 0 0 1.46,0 1,1 0 0 0 0,-1.47 z" />
            <path
               id="svg_25"
               style="fill:#ffffff"
               d="m -458.83,-314.9 a 1.08,1.08 0 0 0 -1.11,-1 h -4.71 a 1.035,1.035 0 1 0 0,2.07 h 2.25 l -4.16,4.13 a 1.039447,1.039447 0 0 0 1.47,1.47 l 4.18,-4.19 v 2.26 a 1.04,1.04 0 1 0 2.08,0 v -4.64 c 0,0 0,0 0,-0.06 a 0.08,0.08 0 0 1 0,-0.04 z" />
            <path
               id="svg_26"
               style="fill:#ffffff"
               d="m -454.06,-319 h 4.7 a 1.04,1.04 0 1 0 0,-2.08 h -2.25 l 4.17,-4.16 a 1,1 0 0 0 0,-1.47 1,1 0 0 0 -1.46,0 l -4.19,4.21 v -2.28 a 1.04,1.04 0 1 0 -2.08,0 v 4.64 a 0.43000001,0.43000001 0 0 0 0,0.05 v 0.05 a 1.09,1.09 0 0 0 1.11,1.04 z" />
            <path
               id="svg_27"
               style="fill:#ffffff"
               d="m -459.87,-325.88 a 1.08,1.08 0 0 0 -1,1.09 v 2.29 l -4.18,-4.19 a 1,1 0 0 0 -1.47,0 1,1 0 0 0 0,1.46 l 4.16,4.17 h -2.29 a 1.04,1.04 0 1 0 0,2.08 h 4.71 a 1.09,1.09 0 0 0 1.11,-1 c 0,0 0,0 0,-0.06 v -4.75 a 1.0700001,1.0700001 0 0 0 -1.04,-1.09 z" />
          </g>
        </g>
      </g>
    </g>
  </g>
  <g
     transform="translate(64)"
     class=""
     id="svg_28">
    <g
       id="svg_29"
       transform="matrix(1.5,0,0,1.5,253,210)">
      <path
         id="svg_30"
         style="fill:#77c428;fill-opacity:1;stroke:#57ad02;stroke-width:1;stroke-linecap:round;stroke-opacity:1"
         d="m -201.5,-104.66666 v -4 c 0,-2.20914 1.79086,-4 4,-4 h 4 v 2 h 10 v -2 h 72.66667 4 c 2.20914,0 4,1.79086 4,4 v 4 h -4 v -3 h -4 v 9.999996 h 4 v -2.999996 h 4 v 16.999996 h -4 v -3 h -4 v 10 h 4 v -3 h 4 v 4 c 0,2.209139 -1.79086,4 -4,4 h -4 -72.66667 -1 v 2 h -8 v -2 h -1 -4 c -2.20914,0 -4.69859,-1.904227 -4,-4 v -4 -20.999996 z" />
      <text
         x="-159.33333"
         y="-113.16666"
         id="svg_31"
         style="font-size:10px;font-family:sans-serif;text-anchor:end;fill:#282828">
        <tspan
           id="svg_32"
           y="-89.166664"
           x="-113.33333">determinar o tom</tspan>
      </text>
      <text
         x="-159.33333"
         y="-113.16666"
         id="svg_33"
         style="font-size:6.66666651px;font-family:sans-serif;text-anchor:end;fill:#282828">
        <tspan
           id="svg_34"
           y="-101.16666"
           x="-113.33333">nome</tspan>
      </text>
      <text
         x="-159.33333"
         y="-113.16666"
         id="svg_35"
         style="font-size:6.66666651px;font-family:sans-serif;text-anchor:end;fill:#282828">
        <tspan
           id="svg_36"
           y="-80.166664"
           x="-113.33333">oitava</tspan>
      </text>
    </g>
  </g>
  <g
     transform="translate(64)"
     class=""
     id="svg_37">
    <g
       id="svg_38"
       transform="matrix(1.5,0,0,1.5,327,210)">
      <path
         id="svg_39"
         style="fill:#77c428;fill-opacity:1;stroke:#57ad02;stroke-width:1;stroke-linecap:round;stroke-opacity:1"
         d="m -150.83333,-112.66666 h 60.000002 v 19.999996 h -60.000002 v -7.999996 -1 h -6 v 2.999996 h -2 v -7.999996 h 2 v 3 h 6 v -1 z" />
      <text
         x="-159.33333"
         y="-113.16666"
         id="svg_40"
         style="font-size:10px;font-family:sans-serif;text-anchor:start;fill:#282828">
        <tspan
           id="svg_41"
           y="-99.166664"
           x="-146.33333">sol</tspan>
      </text>
    </g>
  </g>
  <g
     transform="translate(64)"
     class=""
     id="svg_42">
    <g
       id="svg_43"
       transform="matrix(1.5,0,0,1.5,327,242)">
      <path
         id="svg_44"
         style="fill:#ff5293;fill-opacity:1;stroke:#ff2c76;stroke-width:1;stroke-linecap:round;stroke-opacity:1"
         d="m -150.83333,-112.66666 h 60.000002 v 19.999996 h -60.000002 v -7.999996 -1 h -6 v 2.999996 h -2 v -7.999996 h 2 v 3 h 6 v -1 z" />
      <text
         x="-159.33333"
         y="-113.16666"
         id="svg_45"
         style="font-size:10px;font-family:sans-serif;text-anchor:start;fill:#282828">
        <tspan
           id="svg_46"
           y="-99.166664"
           x="-146.33333">4</tspan>
      </text>
    </g>
  </g>
  <g
     transform="translate(64)"
     class=""
     id="svg_47">
    <g
       id="svg_48"
       transform="matrix(1.5,0,0,1.5,253,273)">
      <path
         id="svg_49"
         style="fill:#77c428;fill-opacity:1;stroke:#57ad02;stroke-width:1;stroke-linecap:round;stroke-opacity:1"
         d="m -201.5,-104.66666 v -4 c 0,-2.20914 1.79086,-4 4,-4 h 4 v 2 h 10 v -2 h 72.66667 4 c 2.20914,0 4,1.79086 4,4 v 4 h -4 v -3 h -4 v 9.999996 h 4 v -2.999996 h 4 v 16.999996 h -4 v -3 h -4 v 10 h 4 v -3 h 4 v 4 c 0,2.209139 -1.79086,4 -4,4 h -4 -72.66667 -1 v 2 h -8 v -2 h -1 -4 c -2.20914,0 -3.30141,-1.904227 -4,-4 v -4 -20.999996 z" />
      <text
         x="-159.33333"
         y="-113.16666"
         id="svg_50"
         style="font-size:10px;font-family:sans-serif;text-anchor:end;fill:#282828">
        <tspan
           id="svg_51"
           y="-89.166664"
           x="-113.33333">determinar o tom</tspan>
      </text>
      <text
         x="-159.33333"
         y="-113.16666"
         id="svg_52"
         style="font-size:6.66666651px;font-family:sans-serif;text-anchor:end;fill:#282828">
        <tspan
           id="svg_53"
           y="-101.16666"
           x="-113.33333">nome</tspan>
      </text>
      <text
         x="-159.33333"
         y="-113.16666"
         id="svg_54"
         style="font-size:6.66666651px;font-family:sans-serif;text-anchor:end;fill:#282828">
        <tspan
           id="svg_55"
           y="-80.166664"
           x="-113.33333">oitava</tspan>
      </text>
    </g>
  </g>
  <g
     transform="translate(64)"
     class=""
     id="svg_56">
    <g
       id="svg_57"
       transform="matrix(1.5,0,0,1.5,327,273)">
      <path
         id="svg_58"
         style="fill:#77c428;fill-opacity:1;stroke:#57ad02;stroke-width:1;stroke-linecap:round;stroke-opacity:1"
         d="m -150.83333,-112.66666 h 60.000002 v 19.999996 h -60.000002 v -7.999996 -1 h -6 v 2.999996 h -2 v -7.999996 h 2 v 3 h 6 v -1 z" />
      <text
         x="-159.33333"
         y="-113.16666"
         id="svg_59"
         style="font-size:10px;font-family:sans-serif;text-anchor:start;fill:#282828">
        <tspan
           id="svg_60"
           y="-99.166664"
           x="-146.33333">mi</tspan>
      </text>
    </g>
  </g>
  <g
     transform="translate(64)"
     class=""
     id="svg_61">
    <g
       id="svg_62"
       transform="matrix(1.5,0,0,1.5,327,305)">
      <path
         id="svg_63"
         style="fill:#ff5293;fill-opacity:1;stroke:#ff2c76;stroke-width:1;stroke-linecap:round;stroke-opacity:1"
         d="m -150.83333,-112.66666 h 60.000002 v 19.999996 h -60.000002 v -7.999996 -1 h -6 v 2.999996 h -2 v -7.999996 h 2 v 3 h 6 v -1 z" />
      <text
         x="-159.33333"
         y="-113.16666"
         id="svg_64"
         style="font-size:10px;font-family:sans-serif;text-anchor:start;fill:#282828">
        <tspan
           id="svg_65"
           y="-99.166664"
           x="-146.33333">4</tspan>
      </text>
    </g>
  </g>
  <g
     transform="translate(64)"
     class=""
     id="svg_66">
    <g
       id="svg_67"
       transform="matrix(1.5,0,0,1.5,253,336)">
      <path
         id="svg_68"
         style="fill:#77c428;fill-opacity:1;stroke:#57ad02;stroke-width:1;stroke-linecap:round;stroke-opacity:1"
         d="m -201.5,-104.66666 v -4 c 0,-2.20914 1.79086,-4 4,-4 h 4 v 2 h 10 v -2 h 72.66667 4 c 2.20914,0 4,1.79086 4,4 v 4 h -4 v -3 h -4 v 9.999996 h 4 v -2.999996 h 4 v 16.999996 h -4 v -3 h -4 v 10 h 4 v -3 h 4 v 4 c 0,2.209139 -1.79086,4 -4,4 h -4 -72.66667 -1 v 2 h -8 v -2 h -1 -4 c -2.20914,0 -4.69859,-1.904227 -4,-4 v -4 -20.999996 z" />
      <text
         x="-159.33333"
         y="-113.16666"
         id="svg_69"
         style="font-size:10px;font-family:sans-serif;text-anchor:end;fill:#282828">
        <tspan
           id="svg_70"
           y="-89.166664"
           x="-113.33333">determinar o tom</tspan>
      </text>
      <text
         x="-159.33333"
         y="-113.16666"
         id="svg_71"
         style="font-size:6.66666651px;font-family:sans-serif;text-anchor:end;fill:#282828">
        <tspan
           id="svg_72"
           y="-101.16666"
           x="-113.33333">nome</tspan>
      </text>
      <text
         x="-159.33333"
         y="-113.16666"
         id="svg_73"
         style="font-size:6.66666651px;font-family:sans-serif;text-anchor:end;fill:#282828">
        <tspan
           id="svg_74"
           y="-80.166664"
           x="-113.33333">oitava</tspan>
      </text>
    </g>
  </g>
  <g
     transform="translate(64)"
     class=""
     id="svg_75">
    <g
       id="svg_76"
       transform="matrix(1.5,0,0,1.5,327,336)">
      <path
         id="svg_77"
         style="fill:#77c428;fill-opacity:1;stroke:#57ad02;stroke-width:1;stroke-linecap:round;stroke-opacity:1"
         d="m -150.83333,-112.66666 h 60.000002 v 19.999996 h -60.000002 v -7.999996 -1 h -6 v 2.999996 h -2 v -7.999996 h 2 v 3 h 6 v -1 z" />
      <text
         x="-159.33333"
         y="-113.16666"
         id="svg_78"
         style="font-size:10px;font-family:sans-serif;text-anchor:start;fill:#282828">
        <tspan
           id="svg_79"
           y="-99.166664"
           x="-146.33333">re</tspan>
      </text>
    </g>
  </g>
  <g
     transform="translate(64)"
     class=""
     id="svg_80">
    <g
       id="svg_81"
       transform="matrix(1.5,0,0,1.5,327,368)">
      <path
         id="svg_82"
         style="fill:#ff5293;fill-opacity:1;stroke:#ff2c76;stroke-width:1;stroke-linecap:round;stroke-opacity:1"
         d="m -150.83333,-112.66666 h 60.000002 v 19.999996 h -60.000002 v -7.999996 -1 h -6 v 2.999996 h -2 v -7.999996 h 2 v 3 h 6 v -1 z" />
      <text
         x="-159.33333"
         y="-113.16666"
         id="svg_83"
         style="font-size:10px;font-family:sans-serif;text-anchor:start;fill:#282828">
        <tspan
           id="svg_84"
           y="-99.166664"
           x="-146.33333">4</tspan>
      </text>
    </g>
  </g>
  <g
     class=""
     id="svg_85">
    <g
       id="svg_86"
       transform="matrix(1.5,0,0,1.5,253,399)">
      <path
         id="svg_87"
         style="fill:#ff8b2d;fill-opacity:1;stroke:#e86b0e;stroke-width:1;stroke-linecap:round;stroke-opacity:1"
         d="m -158.83333,-104.66666 v -4 a 4,4 90 0 1 4,-4 h 4 v 2 h 10 v -2 h 61.000002 4 a 4,4 90 0 1 4,4 v 4 h -4 v -3 h -4 v 9.999996 h 4 v -2.999996 h 4 v 16.999996 h -4 v -3 h -4 v 10 h 4 v -3 h 4 v 4 a 4,4 90 0 1 -4,4 h -4 -61.000002 -1 v 2 h -8 v -2 h -1 -4 a 4,4 90 0 1 -4,-4 v -4 -20.999996 z" />
      <text
         x="-159.33333"
         y="-113.16666"
         id="svg_88"
         style="font-size:10px;font-family:sans-serif;text-anchor:end;fill:#282828">
        <tspan
           id="svg_89"
           y="-89.166664"
           x="-82.333328">tuplet simples</tspan>
      </text>
      <text
         x="-159.33333"
         y="-113.16666"
         id="svg_90"
         style="font-size:6.66666651px;font-family:sans-serif;text-anchor:end;fill:#282828">
        <tspan
           id="svg_91"
           y="-101.16666"
           x="-82.333328">número de notas</tspan>
      </text>
      <text
         x="-159.33333"
         y="-113.16666"
         id="svg_92"
         style="font-size:6.66666651px;font-family:sans-serif;text-anchor:end;fill:#282828">
        <tspan
           id="svg_93"
           y="-80.166664"
           x="-82.333328">valor da nota</tspan>
      </text>
    </g>
  </g>
  <g
     class=""
     id="svg_94">
    <g
       id="svg_95"
       transform="matrix(1.5,0,0,1.5,373,399)">
      <path
         id="svg_96"
         style="fill:#ff5293;fill-opacity:1;stroke:#ff2c76;stroke-width:1;stroke-linecap:round;stroke-opacity:1"
         d="m -150.83333,-112.66666 h 60.000002 v 19.999996 h -60.000002 v -7.999996 -1 h -6 v 2.999996 h -2 v -7.999996 h 2 v 3 h 6 v -1 z" />
      <text
         x="-159.33333"
         y="-113.16666"
         id="svg_97"
         style="font-size:10px;font-family:sans-serif;text-anchor:start;fill:#282828">
        <tspan
           id="svg_98"
           y="-99.166664"
           x="-146.33333">3</tspan>
      </text>
    </g>
  </g>
  <g
     class=""
     id="svg_99">
    <g
       id="svg_100"
       transform="matrix(1.5,0,0,1.5,373,431)">
      <path
         id="svg_101"
         style="fill:#ff5293;fill-opacity:1;stroke:#ff2c76;stroke-width:1;stroke-linecap:round;stroke-opacity:1"
         d="m -150.83333,-104.66666 v -4 a 4,4 90 0 1 4,-4 h 4 10 30 4.000002 a 4,4 90 0 1 4,4 v 4 h -4 v -3 h -4.000002 v 9.999996 h 4.000002 v -2.999996 h 4 v 16.999996 h -4 v -3 h -4.000002 v 10 h 4.000002 v -3 h 4 v 4 a 4,4 90 0 1 -4,4 h -4.000002 -30 -10 -4 a 4,4 90 0 1 -4,-4 v -4 -20.999996 -1 h -6 v 2.999996 h -2 v -7.999996 h 2 v 3 h 6 z" />
      <text
         x="-159.33333"
         y="-113.16666"
         id="svg_102"
         style="font-size:9px;font-family:sans-serif;text-anchor:end;fill:#282828">
        <tspan
           id="svg_103"
           y="-90.166664"
           x="-105.33333">➗</tspan>
      </text>
      <text
         x="-159.33333"
         y="-113.16666"
         id="svg_104"
         style="font-size:6px;font-family:sans-serif;text-anchor:end;fill:#282828" />
      <text
         x="-159.33333"
         y="-113.16666"
         id="svg_106"
         style="font-size:6px;font-family:sans-serif;text-anchor:end;fill:#282828" />
    </g>
  </g>
  <g
     class=""
     id="svg_108">
    <g
       id="svg_109"
       transform="matrix(1.5,0,0,1.5,459,431)">
      <path
         id="svg_110"
         style="fill:#ff5293;fill-opacity:1;stroke:#ff2c76;stroke-width:1;stroke-linecap:round;stroke-opacity:1"
         d="m -150.83333,-112.66666 h 60.000002 v 19.999996 h -60.000002 v -7.999996 -1 h -6 v 2.999996 h -2 v -7.999996 h 2 v 3 h 6 v -1 z" />
      <text
         x="-159.33333"
         y="-113.16666"
         id="svg_111"
         style="font-size:10px;font-family:sans-serif;text-anchor:start;fill:#282828">
        <tspan
           id="svg_112"
           y="-99.166664"
           x="-146.33333">1</tspan>
      </text>
    </g>
  </g>
  <g
     class=""
     id="svg_113">
    <g
       id="svg_114"
       transform="matrix(1.5,0,0,1.5,459,463)">
      <path
         id="svg_115"
         style="fill:#ff5293;fill-opacity:1;stroke:#ff2c76;stroke-width:1;stroke-linecap:round;stroke-opacity:1"
         d="m -150.83333,-112.66666 h 60.000002 v 19.999996 h -60.000002 v -7.999996 -1 h -6 v 2.999996 h -2 v -7.999996 h 2 v 3 h 6 v -1 z" />
      <text
         x="-159.33333"
         y="-113.16666"
         id="svg_116"
         style="font-size:10px;font-family:sans-serif;text-anchor:start;fill:#282828">
        <tspan
           id="svg_117"
           y="-99.166664"
           x="-146.33333">4</tspan>
      </text>
    </g>
  </g>
  <g
     class=""
     id="svg_118">
    <g
       id="svg_119">
      <g
         id="svg_120"
         transform="matrix(1.5,0,0,1.5,239,527)">
        <path
           id="svg_121"
           style="fill:#77c428;fill-opacity:1;stroke:#57ad02;stroke-width:1;stroke-linecap:round;stroke-opacity:1"
           d="m -158.83333,-98.666664 v -3.999996 a 4,4 90 0 1 4,-4 h 4 l 5,-6 5,6 h 9 69.000002 4 a 4,4 90 0 1 4,4 v 3.999996 4 4 a 4,4 90 0 1 -4,4 h -4 -69.000002 -1 v 2 h -8 v -2 h -1 -4 a 5,5 90 0 0 -5,5 v 4 4 210.000004 4 a 5,5 90 0 0 5,5 h 4 v 2 h 10 v -2 h 8 v 6 6 4 a 4,4 90 0 1 -4,4 h -4 -9 l -5,6 -5,-6 h -4 a 4,4 90 0 1 -4,-4 v -4 z" />
        <text
           x="-159.33333"
           y="-113.16666"
           id="svg_122"
           style="font-size:10px;font-family:sans-serif;text-anchor:start;fill:#282828">
          <tspan
             id="svg_123"
             y="-91.166664"
             x="-139.33333">criador de frase</tspan>
        </text>
      </g>
    </g>
    <g
       id="svg_124"
       transform="matrix(0.5,0,0,0.5,239,539)">
      <g
         id="svg_125"
         style="isolation:isolate">
        <g
           data-name="レイヤー 2"
           id="g120">
          <g
             id="g118">
            <rect
               x="-478"
               y="-339.5"
               id="svg_126"
               style="opacity:0.4;mix-blend-mode:multiply;fill:#292929"
               ry="5"
               rx="5"
               height="42"
               width="42" />
            <path
               id="svg_127"
               style="fill:#ffffff"
               d="m -447.44,-309.7 -4.17,-4.16 h 2.26 a 1.035,1.035 0 1 0 0,-2.07 h -4.71 a 1.08,1.08 0 0 0 -1.11,1 v 0 c 0,0 0,0 0,0.06 v 4.64 0 a 1.04,1.04 0 1 0 2.08,0 v -2.19 l 4.19,4.19 a 1,1 0 0 0 1.46,0 1,1 0 0 0 0,-1.47 z" />
            <path
               id="svg_128"
               style="fill:#ffffff"
               d="m -458.83,-314.9 a 1.08,1.08 0 0 0 -1.11,-1 h -4.71 a 1.035,1.035 0 1 0 0,2.07 h 2.25 l -4.16,4.13 a 1.039447,1.039447 0 0 0 1.47,1.47 l 4.18,-4.19 v 2.26 a 1.04,1.04 0 1 0 2.08,0 v -4.64 c 0,0 0,0 0,-0.06 a 0.08,0.08 0 0 1 0,-0.04 z" />
            <path
               id="svg_129"
               style="fill:#ffffff"
               d="m -454.06,-319 h 4.7 a 1.04,1.04 0 1 0 0,-2.08 h -2.25 l 4.17,-4.16 a 1,1 0 0 0 0,-1.47 1,1 0 0 0 -1.46,0 l -4.19,4.21 v -2.28 a 1.04,1.04 0 1 0 -2.08,0 v 4.64 a 0.43000001,0.43000001 0 0 0 0,0.05 v 0.05 a 1.09,1.09 0 0 0 1.11,1.04 z" />
            <path
               id="svg_130"
               style="fill:#ffffff"
               d="m -459.87,-325.88 a 1.08,1.08 0 0 0 -1,1.09 v 2.29 l -4.18,-4.19 a 1,1 0 0 0 -1.47,0 1,1 0 0 0 0,1.46 l 4.16,4.17 h -2.29 a 1.04,1.04 0 1 0 0,2.08 h 4.71 a 1.09,1.09 0 0 0 1.11,-1 c 0,0 0,0 0,-0.06 v -4.75 a 1.0700001,1.0700001 0 0 0 -1.04,-1.09 z" />
          </g>
        </g>
      </g>
    </g>
  </g>
  <g
     transform="translate(64)"
     class=""
     id="svg_131">
    <g
       id="svg_132"
       transform="matrix(1.5,0,0,1.5,253,568)">
      <path
         id="svg_133"
         style="fill:#77c428;fill-opacity:1;stroke:#57ad02;stroke-width:1;stroke-linecap:round;stroke-opacity:1"
         d="m -201.5,-104.66666 v -4 c 0,-2.20914 1.79086,-4 4,-4 h 4 v 2 h 10 v -2 h 72.66667 4 c 2.20914,0 4,1.79086 4,4 v 4 h -4 v -3 h -4 v 9.999996 h 4 v -2.999996 h 4 v 16.999996 h -4 v -3 h -4 v 10 h 4 v -3 h 4 v 4 c 0,2.209139 -1.79086,4 -4,4 h -4 -72.66667 -1 v 2 h -8 v -2 h -1 -4 c -2.20914,0 -4.69859,-1.904227 -4,-4 v -4 -20.999996 z" />
      <text
         x="-159.33333"
         y="-113.16666"
         id="svg_134"
         style="font-size:10px;font-family:sans-serif;text-anchor:end;fill:#282828">
        <tspan
           id="svg_135"
           y="-89.166664"
           x="-113.33333">determinar o tom</tspan>
      </text>
      <text
         x="-159.33333"
         y="-113.16666"
         id="svg_136"
         style="font-size:6.66666651px;font-family:sans-serif;text-anchor:end;fill:#282828">
        <tspan
           id="svg_137"
           y="-101.16666"
           x="-113.33333">nome</tspan>
      </text>
      <text
         x="-159.33333"
         y="-113.16666"
         id="svg_138"
         style="font-size:6.66666651px;font-family:sans-serif;text-anchor:end;fill:#282828">
        <tspan
           id="svg_139"
           y="-80.166664"
           x="-113.33333">oitava</tspan>
      </text>
    </g>
  </g>
  <g
     transform="translate(64)"
     class=""
     id="svg_140">
    <g
       id="svg_141"
       transform="matrix(1.5,0,0,1.5,327,568)">
      <path
         id="svg_142"
         style="fill:#77c428;fill-opacity:1;stroke:#57ad02;stroke-width:1;stroke-linecap:round;stroke-opacity:1"
         d="m -150.83333,-112.66666 h 60.000002 v 19.999996 h -60.000002 v -7.999996 -1 h -6 v 2.999996 h -2 v -7.999996 h 2 v 3 h 6 v -1 z" />
      <text
         x="-159.33333"
         y="-113.16666"
         id="svg_143"
         style="font-size:10px;font-family:sans-serif;text-anchor:start;fill:#282828">
        <tspan
           id="svg_144"
           y="-99.166664"
           x="-146.33333">sol</tspan>
      </text>
    </g>
  </g>
  <g
     transform="translate(64)"
     class=""
     id="svg_145">
    <g
       id="svg_146"
       transform="matrix(1.5,0,0,1.5,327,600)">
      <path
         id="svg_147"
         style="fill:#ff5293;fill-opacity:1;stroke:#ff2c76;stroke-width:1;stroke-linecap:round;stroke-opacity:1"
         d="m -150.83333,-112.66666 h 60.000002 v 19.999996 h -60.000002 v -7.999996 -1 h -6 v 2.999996 h -2 v -7.999996 h 2 v 3 h 6 v -1 z" />
      <text
         x="-159.33333"
         y="-113.16666"
         id="svg_148"
         style="font-size:10px;font-family:sans-serif;text-anchor:start;fill:#282828">
        <tspan
           id="svg_149"
           y="-99.166664"
           x="-146.33333">4</tspan>
      </text>
    </g>
  </g>
  <g
     transform="translate(64)"
     class=""
     id="svg_150">
    <g
       id="svg_151"
       transform="matrix(1.5,0,0,1.5,253,631)">
      <path
         id="svg_152"
         style="fill:#77c428;fill-opacity:1;stroke:#57ad02;stroke-width:1;stroke-linecap:round;stroke-opacity:1"
         d="m -201.5,-104.66666 v -4 c 0,-2.20914 1.79086,-4 4,-4 h 4 v 2 h 10 v -2 h 72.66667 4 c 2.20914,0 4,1.79086 4,4 v 4 h -4 v -3 h -4 v 9.999996 h 4 v -2.999996 h 4 v 16.999996 h -4 v -3 h -4 v 10 h 4 v -3 h 4 v 4 c 0,2.209139 -1.79086,4 -4,4 h -4 -72.66667 -1 v 2 h -8 v -2 h -1 -4 c -2.20914,0 -4,-1.790861 -4,-4 v -4 -20.999996 z" />
      <text
         x="-159.33333"
         y="-113.16666"
         id="svg_153"
         style="font-size:10px;font-family:sans-serif;text-anchor:end;fill:#282828">
        <tspan
           id="svg_154"
           y="-89.166664"
           x="-113.33333">determinar o tom</tspan>
      </text>
      <text
         x="-159.33333"
         y="-113.16666"
         id="svg_155"
         style="font-size:6.66666651px;font-family:sans-serif;text-anchor:end;fill:#282828">
        <tspan
           id="svg_156"
           y="-101.16666"
           x="-113.33333">nome</tspan>
      </text>
      <text
         x="-159.33333"
         y="-113.16666"
         id="svg_157"
         style="font-size:6.66666651px;font-family:sans-serif;text-anchor:end;fill:#282828">
        <tspan
           id="svg_158"
           y="-80.166664"
           x="-113.33333">oitava</tspan>
      </text>
    </g>
  </g>
  <g
     transform="translate(64)"
     class=""
     id="svg_159">
    <g
       id="svg_160"
       transform="matrix(1.5,0,0,1.5,327,631)">
      <path
         id="svg_161"
         style="fill:#77c428;fill-opacity:1;stroke:#57ad02;stroke-width:1;stroke-linecap:round;stroke-opacity:1"
         d="m -150.83333,-112.66666 h 60.000002 v 19.999996 h -60.000002 v -7.999996 -1 h -6 v 2.999996 h -2 v -7.999996 h 2 v 3 h 6 v -1 z" />
      <text
         x="-159.33333"
         y="-113.16666"
         id="svg_162"
         style="font-size:10px;font-family:sans-serif;text-anchor:start;fill:#282828">
        <tspan
           id="svg_163"
           y="-99.166664"
           x="-146.33333">mi</tspan>
      </text>
    </g>
  </g>
  <g
     transform="translate(64)"
     class=""
     id="svg_164">
    <g
       id="svg_165"
       transform="matrix(1.5,0,0,1.5,327,663)">
      <path
         id="svg_166"
         style="fill:#ff5293;fill-opacity:1;stroke:#ff2c76;stroke-width:1;stroke-linecap:round;stroke-opacity:1"
         d="m -150.83333,-112.66666 h 60.000002 v 19.999996 h -60.000002 v -7.999996 -1 h -6 v 2.999996 h -2 v -7.999996 h 2 v 3 h 6 v -1 z" />
      <text
         x="-159.33333"
         y="-113.16666"
         id="svg_167"
         style="font-size:10px;font-family:sans-serif;text-anchor:start;fill:#282828">
        <tspan
           id="svg_168"
           y="-99.166664"
           x="-146.33333">4</tspan>
      </text>
    </g>
  </g>
  <g
     transform="translate(64)"
     class=""
     id="svg_169">
    <g
       id="svg_170"
       transform="matrix(1.5,0,0,1.5,253,694)">
      <path
         id="svg_171"
         style="fill:#77c428;fill-opacity:1;stroke:#57ad02;stroke-width:1;stroke-linecap:round;stroke-opacity:1"
         d="m -201.5,-104.66666 v -4 c 0,-2.20914 1.79086,-4 4,-4 h 4 v 2 h 10 v -2 h 72.66667 4 c 2.20914,0 4,1.79086 4,4 v 4 h -4 v -3 h -4 v 9.999996 h 4 v -2.999996 h 4 v 16.999996 h -4 v -3 h -4 v 10 h 4 v -3 h 4 v 4 c 0,2.209139 -1.79086,4 -4,4 h -4 -72.66667 -1 v 2 h -8 v -2 h -1 -4 c -2.20914,0 -4.69859,-1.904227 -4,-4 v -4 -20.999996 z" />
      <text
         x="-159.33333"
         y="-113.16666"
         id="svg_172"
         style="font-size:10px;font-family:sans-serif;text-anchor:end;fill:#282828">
        <tspan
           id="svg_173"
           y="-89.166664"
           x="-113.33333">determinar o tom</tspan>
      </text>
      <text
         x="-159.33333"
         y="-113.16666"
         id="svg_174"
         style="font-size:6.66666651px;font-family:sans-serif;text-anchor:end;fill:#282828">
        <tspan
           id="svg_175"
           y="-101.16666"
           x="-113.33333">nome</tspan>
      </text>
      <text
         x="-159.33333"
         y="-113.16666"
         id="svg_176"
         style="font-size:6.66666651px;font-family:sans-serif;text-anchor:end;fill:#282828">
        <tspan
           id="svg_177"
           y="-80.166664"
           x="-113.33333">oitava</tspan>
      </text>
    </g>
  </g>
  <g
     transform="translate(64)"
     class=""
     id="svg_178">
    <g
       id="svg_179"
       transform="matrix(1.5,0,0,1.5,327,694)">
      <path
         id="svg_180"
         style="fill:#77c428;fill-opacity:1;stroke:#57ad02;stroke-width:1;stroke-linecap:round;stroke-opacity:1"
         d="m -150.83333,-112.66666 h 60.000002 v 19.999996 h -60.000002 v -7.999996 -1 h -6 v 2.999996 h -2 v -7.999996 h 2 v 3 h 6 v -1 z" />
      <text
         x="-159.33333"
         y="-113.16666"
         id="svg_181"
         style="font-size:10px;font-family:sans-serif;text-anchor:start;fill:#282828">
        <tspan
           id="svg_182"
           y="-99.166664"
           x="-146.33333">re</tspan>
      </text>
    </g>
  </g>
  <g
     transform="translate(64)"
     class=""
     id="svg_183">
    <g
       id="svg_184"
       transform="matrix(1.5,0,0,1.5,327,726)">
      <path
         id="svg_185"
         style="fill:#ff5293;fill-opacity:1;stroke:#ff2c76;stroke-width:1;stroke-linecap:round;stroke-opacity:1"
         d="m -150.83333,-112.66666 h 60.000002 v 19.999996 h -60.000002 v -7.999996 -1 h -6 v 2.999996 h -2 v -7.999996 h 2 v 3 h 6 v -1 z" />
      <text
         x="-159.33333"
         y="-113.16666"
         id="svg_186"
         style="font-size:10px;font-family:sans-serif;text-anchor:start;fill:#282828">
        <tspan
           id="svg_187"
           y="-99.166664"
           x="-146.33333">4</tspan>
      </text>
    </g>
  </g>
  <path
     id="svg_190"
     style="fill:#ff8b2d;fill-opacity:1;stroke:#e86b0e;stroke-width:1.5;stroke-linecap:round;stroke-opacity:1"
     d="m 14.750005,600.00001 v -6 c 0,-3.31371 2.68629,-6 6,-6 h 6 v 3 h 15 v -3 h 13.5 78.000005 6 c 3.31371,0 6,2.68629 6,6 v 6 h -6 v -4.5 h -6 V 610.5 h 6 v -4.49999 h 6 V 612 c 0,3.31371 -2.68629,6 -6,6 h -6 -78.000005 -1.5 v 3 h -12 v -3 h -1.5 -6 c -4.14213,0 -7.5,3.35787 -7.5,7.5 v 6 6 63 6 c 0,4.14214 3.35787,7.5 7.5,7.5 h 6 v 3 h 15 v -3 h 12 v 9 9 6 c 0,3.31371 -2.68629,6 -6,6 h -6 -13.5 -1.5 v 3 h -12 v -3 h -1.5 -6 c -3.31371,0 -6,-2.68629 -6,-6 v -6 z" />
  <text
     x="14.000008"
     y="587.25"
     id="svg_191"
     style="font-size:15px;font-family:sans-serif;text-anchor:start;fill:#282828;stroke-width:1.5">
    <tspan
       style="stroke-width:1.5"
       id="svg_192"
       y="609.75"
       x="21.500008">tuplet</tspan>
  </text>
  <text
     x="34.000008"
     y="587.25"
     id="svg_193"
     style="font-size:10px;font-family:sans-serif;text-anchor:end;fill:#282828;stroke-width:1.5">
    <tspan
       style="stroke-width:1.5"
       id="svg_194"
       y="605.25"
       x="131.5">valor da nota</tspan>
  </text>
  <g
     transform="translate(18)"
     class=""
     id="svg_195">
    <g
       id="svg_196"
       transform="matrix(1.5,0,0,1.5,355,757)">
      <path
         id="svg_197"
         style="fill:#ff5293;fill-opacity:1;stroke:#ff2c76;stroke-width:1;stroke-linecap:round;stroke-opacity:1"
         d="m -150.83333,-104.66666 v -4 a 4,4 90 0 1 4,-4 h 4 10 30 4.000002 a 4,4 90 0 1 4,4 v 4 h -4 v -3 h -4.000002 v 9.999996 h 4.000002 v -2.999996 h 4 v 16.999996 h -4 v -3 h -4.000002 v 10 h 4.000002 v -3 h 4 v 4 a 4,4 90 0 1 -4,4 h -4.000002 -30 -10 -4 a 4,4 90 0 1 -4,-4 v -4 -20.999996 -1 h -6 v 2.999996 h -2 v -7.999996 h 2 v 3 h 6 z" />
      <text
         x="-159.33333"
         y="-113.16666"
         id="svg_198"
         style="font-size:9px;font-family:sans-serif;text-anchor:end;fill:#282828">
        <tspan
           id="svg_199"
           y="-90.166664"
           x="-105.33333">➗</tspan>
      </text>
      <text
         x="-159.33333"
         y="-113.16666"
         id="svg_200"
         style="font-size:6px;font-family:sans-serif;text-anchor:end;fill:#282828" />
      <text
         x="-159.33333"
         y="-113.16666"
         id="svg_202"
         style="font-size:6px;font-family:sans-serif;text-anchor:end;fill:#282828" />
    </g>
  </g>
  <g
     transform="translate(18)"
     class=""
     id="svg_204">
    <g
       id="svg_205"
       transform="matrix(1.5,0,0,1.5,441,757)">
      <path
         id="svg_206"
         style="fill:#ff5293;fill-opacity:1;stroke:#ff2c76;stroke-width:1;stroke-linecap:round;stroke-opacity:1"
         d="m -150.83333,-112.66666 h 60.000002 v 19.999996 h -60.000002 v -7.999996 -1 h -6 v 2.999996 h -2 v -7.999996 h 2 v 3 h 6 v -1 z" />
      <text
         x="-159.33333"
         y="-113.16666"
         id="svg_207"
         style="font-size:10px;font-family:sans-serif;text-anchor:start;fill:#282828">
        <tspan
           id="svg_208"
           y="-99.166664"
           x="-146.33333">1</tspan>
      </text>
    </g>
  </g>
  <g
     transform="translate(18)"
     class=""
     id="svg_209">
    <g
       id="svg_210"
       transform="matrix(1.5,0,0,1.5,441,789)">
      <path
         id="svg_211"
         style="fill:#ff5293;fill-opacity:1;stroke:#ff2c76;stroke-width:1;stroke-linecap:round;stroke-opacity:1"
         d="m -150.83333,-112.66666 h 60.000002 v 19.999996 h -60.000002 v -7.999996 -1 h -6 v 2.999996 h -2 v -7.999996 h 2 v 3 h 6 v -1 z" />
      <text
         x="-159.33333"
         y="-113.16666"
         id="svg_212"
         style="font-size:10px;font-family:sans-serif;text-anchor:start;fill:#282828">
        <tspan
           id="svg_213"
           y="-99.166664"
           x="-146.33333">4</tspan>
      </text>
    </g>
  </g>
  <g
     class=""
     id="svg_214">
    <g
       id="svg_215"
       transform="matrix(1.5,0,0,1.5,267,789)">
      <path
         id="svg_216"
         style="fill:#b0b0b0;fill-opacity:1;stroke:#a0a0a0;stroke-width:1;stroke-linecap:round;stroke-opacity:1"
         d="m -158.83333,-104.66666 v -4 a 4,4 90 0 1 4,-4 h 4 v 2 h 10 v -2 h 20 4 a 4,4 90 0 1 4,4 v 4 4 3.999996 a 4,4 90 0 1 -4,4 h -4 -20 -1 v 2 h -8 v -2 h -1 -4 a 4,4 90 0 1 -4,-4 v -3.999996 z" />
      <text
         x="-159.33333"
         y="-113.16666"
         id="svg_217"
         style="font-size:10px;font-family:sans-serif;text-anchor:end;fill:#282828">
        <tspan
           id="svg_218"
           y="-99.166664"
           x="-123.33333">↓</tspan>
      </text>
    </g>
  </g>
  <g
     class=""
     id="svg_219">
    <g
       id="svg_220"
       transform="matrix(1.5,0,0,1.5,267,821)">
      <path
         id="svg_221"
         style="fill:#ff8b2d;fill-opacity:1;stroke:#e86b0e;stroke-width:1;stroke-linecap:round;stroke-opacity:1"
         d="m -158.83333,-104.66666 v -4 a 4,4 90 0 1 4,-4 h 4 v 2 h 10 v -2 h 42.000002 4 a 4,4 90 0 1 4,4 v 4 h -4 v -3 h -4 v 9.999996 h 4 v -2.999996 h 4 v 16.999996 h -4 v -3 h -4 v 10 h 4 v -3 h 4 v 4 a 4,4 90 0 1 -4,4 h -4 -42.000002 -1 v 2 h -8 v -2 h -1 -4 a 4,4 90 0 1 -4,-4 v -4 -20.999996 z" />
      <text
         x="-159.33333"
         y="-113.16666"
         id="svg_222"
         style="font-size:10px;font-family:sans-serif;text-anchor:end;fill:#282828">
        <tspan
           id="svg_223"
           y="-89.166664"
           x="-101.33333">rhythm</tspan>
      </text>
      <text
         x="-159.33333"
         y="-113.16666"
         id="svg_224"
         style="font-size:6.66666651px;font-family:sans-serif;text-anchor:end;fill:#282828">
        <tspan
           id="svg_225"
           y="-101.16666"
           x="-101.33333">número de notas</tspan>
      </text>
      <text
         x="-159.33333"
         y="-113.16666"
         id="svg_226"
         style="font-size:6.66666651px;font-family:sans-serif;text-anchor:end;fill:#282828">
        <tspan
           id="svg_227"
           y="-80.166664"
           x="-101.33333">valor da nota</tspan>
      </text>
    </g>
  </g>
  <g
     class=""
     id="svg_228">
    <g
       id="svg_229"
       transform="matrix(1.5,0,0,1.5,359,821)">
      <path
         id="svg_230"
         style="fill:#ff5293;fill-opacity:1;stroke:#ff2c76;stroke-width:1;stroke-linecap:round;stroke-opacity:1"
         d="m -150.83333,-112.66666 h 60.000002 v 19.999996 h -60.000002 v -7.999996 -1 h -6 v 2.999996 h -2 v -7.999996 h 2 v 3 h 6 v -1 z" />
      <text
         x="-159.33333"
         y="-113.16666"
         id="svg_231"
         style="font-size:10px;font-family:sans-serif;text-anchor:start;fill:#282828">
        <tspan
           id="svg_232"
           y="-99.166664"
           x="-146.33333">3</tspan>
      </text>
    </g>
  </g>
  <g
     class=""
     id="svg_233">
    <g
       id="svg_234"
       transform="matrix(1.5,0,0,1.5,359,853)">
      <path
         id="svg_235"
         style="fill:#ff5293;fill-opacity:1;stroke:#ff2c76;stroke-width:1;stroke-linecap:round;stroke-opacity:1"
         d="m -150.83333,-104.66666 v -4 a 4,4 90 0 1 4,-4 h 4 10 30 4.000002 a 4,4 90 0 1 4,4 v 4 h -4 v -3 h -4.000002 v 9.999996 h 4.000002 v -2.999996 h 4 v 16.999996 h -4 v -3 h -4.000002 v 10 h 4.000002 v -3 h 4 v 4 a 4,4 90 0 1 -4,4 h -4.000002 -30 -10 -4 a 4,4 90 0 1 -4,-4 v -4 -20.999996 -1 h -6 v 2.999996 h -2 v -7.999996 h 2 v 3 h 6 z" />
      <text
         x="-159.33333"
         y="-113.16666"
         id="svg_236"
         style="font-size:9px;font-family:sans-serif;text-anchor:end;fill:#282828">
        <tspan
           id="svg_237"
           y="-90.166664"
           x="-105.33333">➗</tspan>
      </text>
      <text
         x="-159.33333"
         y="-113.16666"
         id="svg_238"
         style="font-size:6px;font-family:sans-serif;text-anchor:end;fill:#282828" />
      <text
         x="-159.33333"
         y="-113.16666"
         id="svg_240"
         style="font-size:6px;font-family:sans-serif;text-anchor:end;fill:#282828" />
    </g>
  </g>
  <g
     class=""
     id="svg_242">
    <g
       id="svg_243"
       transform="matrix(1.5,0,0,1.5,445,853)">
      <path
         id="svg_244"
         style="fill:#ff5293;fill-opacity:1;stroke:#ff2c76;stroke-width:1;stroke-linecap:round;stroke-opacity:1"
         d="m -150.83333,-112.66666 h 60.000002 v 19.999996 h -60.000002 v -7.999996 -1 h -6 v 2.999996 h -2 v -7.999996 h 2 v 3 h 6 v -1 z" />
      <text
         x="-159.33333"
         y="-113.16666"
         id="svg_245"
         style="font-size:10px;font-family:sans-serif;text-anchor:start;fill:#282828">
        <tspan
           id="svg_246"
           y="-99.166664"
           x="-146.33333">1</tspan>
      </text>
    </g>
  </g>
  <g
     class=""
     id="svg_247">
    <g
       id="svg_248"
       transform="matrix(1.5,0,0,1.5,445,885)">
      <path
         id="svg_249"
         style="fill:#ff5293;fill-opacity:1;stroke:#ff2c76;stroke-width:1;stroke-linecap:round;stroke-opacity:1"
         d="m -150.83333,-112.66666 h 60.000002 v 19.999996 h -60.000002 v -7.999996 -1 h -6 v 2.999996 h -2 v -7.999996 h 2 v 3 h 6 v -1 z" />
      <text
         x="-159.33333"
         y="-113.16666"
         id="svg_250"
         style="font-size:10px;font-family:sans-serif;text-anchor:start;fill:#282828">
        <tspan
           id="svg_251"
           y="-99.166664"
           x="-146.33333">16</tspan>
      </text>
    </g>
  </g>
</svg>
