<?xml version="1.0" encoding="UTF-8" standalone="no"?>
<svg
   xmlns:dc="http://purl.org/dc/elements/1.1/"
   xmlns:cc="http://creativecommons.org/ns#"
   xmlns:rdf="http://www.w3.org/1999/02/22-rdf-syntax-ns#"
   xmlns:svg="http://www.w3.org/2000/svg"
   xmlns="http://www.w3.org/2000/svg"
   id="svg2"
   version="1.1"
   width="55"
   height="55"
   viewBox="0 0 55 55"
   xml:space="preserve"><metadata
     id="metadata19"><rdf:RDF><cc:Work
         rdf:about=""><dc:format>image/svg+xml</dc:format><dc:type
           rdf:resource="http://purl.org/dc/dcmitype/StillImage" /><dc:title></dc:title></cc:Work></rdf:RDF></metadata><defs
     id="defs17" /><path
     id="path4337"
     d="m 26.814236,49.506273 c -1.654191,-0.29235 -3.067872,-1.769435 -3.246858,-3.392477 l -0.06692,-0.606984 -1.505624,-0.06397 C 13.13874,45.066532 8.4170151,43.753473 7.5903871,41.437108 c -0.205316,-0.575336 -0.166173,-1.411355 0.09144,-1.952797 0.246285,-0.517643 2.7132669,-3.073717 5.3104879,-5.502252 1.603101,-1.498986 2.220456,-2.288976 2.639811,-3.377962 0.601844,-1.562908 0.749458,-2.920045 0.859444,-7.901874 0.05738,-2.599226 0.132539,-4.153134 0.234355,-4.845745 0.606405,-4.125362 2.252266,-6.44734 5.374463,-7.582259 0.635621,-0.231048 1.047688,-0.3361614 2.460798,-0.6277094 0.190739,-0.03938 0.201253,-0.06674 0.09743,-0.253529 -0.197127,-0.354775 -0.14666,-1.645388 0.08429,-2.15503 0.752933,-1.6616223 2.835553,-2.3038285 4.360601,-1.344662 1.069608,0.672723 1.638279,2.121589 1.282381,3.267227 -0.135416,0.435892 -0.133767,0.4485 0.06362,0.487286 2.969932,0.5834974 4.630815,1.4305294 5.852001,2.9844734 1.588952,2.021895 2.201086,4.74425 2.207991,9.819627 0.0053,3.823522 0.222843,6.219428 0.702252,7.731013 0.416539,1.313344 0.773141,1.804265 2.58683,3.56119 3.242475,3.140989 5.268573,5.249178 5.511843,5.735154 0.39821,0.795505 0.30564,1.74168 -0.25043,2.559835 -1.28841,1.895647 -6.108452,3.069609 -13.961177,3.400344 l -1.599733,0.06736 -0.06442,0.584228 c -0.201619,1.827805 -1.742946,3.283541 -3.652573,3.44976 -0.284652,0.02477 -0.720182,0.0093 -0.96783,-0.03448 z m 1.63527,-2.195232 C 28.958364,47.0424 29.377968,46.468758 29.4481,45.945876 l 0.05257,-0.392019 -2.000911,0 -2.000924,0 0.05257,0.392019 c 0.119717,0.892527 0.970322,1.584122 1.948345,1.584122 0.378493,0 0.656338,-0.06406 0.949739,-0.218957 z m 5.731483,-3.921748 C 40.397717,43.00966 44.11698,42.210279 45.273354,41.00522 45.512333,40.756182 45.57743,40.619955 45.53598,40.455617 45.47076,40.197 43.045074,37.706237 40.873393,35.667912 39.137772,34.038865 38.511275,33.311362 37.95408,32.277894 36.896439,30.31625 36.650689,28.737233 36.534634,23.157659 36.480814,20.568974 36.403495,18.88332 36.305341,18.157528 35.750739,14.056563 34.088689,12.26552 30.232645,11.613567 c -1.227922,-0.207615 -4.237846,-0.207615 -5.465769,0 -3.856017,0.651953 -5.517764,2.44263 -6.072794,6.543961 -0.09746,0.720188 -0.176393,2.415321 -0.230647,4.953077 -0.09861,4.613057 -0.202287,5.696395 -0.714218,7.46297 -0.280482,0.967871 -0.80454,2.000055 -1.453108,2.862003 -0.261753,0.347869 -1.203909,1.31836 -2.093683,2.156652 -2.506819,2.361762 -4.7701869,4.69969 -4.7701869,4.927326 0,0.108311 0.158796,0.349348 0.352877,0.535641 1.4348509,1.377256 6.2606359,2.219191 14.1387819,2.466724 1.742108,0.05471 8.652003,-0.03457 10.257091,-0.132628 z M 28.129695,9.2155396 c 0.286879,-0.23791 0.42561,-0.720099 0.308905,-1.073697 -0.309769,-0.938628 -1.569807,-0.932846 -1.880521,0.0089 -0.0911,0.276018 -0.0809,0.38457 0.0638,0.68003 0.09469,0.193367 0.278022,0.406497 0.407415,0.473626 0.274067,0.142197 0.881081,0.09333 1.10044,-0.08857 z"
     style="fill:#000000;stroke:#000000;stroke-width:0.89101255;stroke-opacity:1" /></svg>