<?xml version="1.0" encoding="UTF-8" standalone="no"?>
<!-- Created with Inkscape (http://www.inkscape.org/) -->

<svg
   xmlns:dc="http://purl.org/dc/elements/1.1/"
   xmlns:cc="http://creativecommons.org/ns#"
   xmlns:rdf="http://www.w3.org/1999/02/22-rdf-syntax-ns#"
   xmlns:svg="http://www.w3.org/2000/svg"
   xmlns="http://www.w3.org/2000/svg"
   xmlns:sodipodi="http://sodipodi.sourceforge.net/DTD/sodipodi-0.dtd"
   xmlns:inkscape="http://www.inkscape.org/namespaces/inkscape"
   id="svg4248"
   version="1.1"
   inkscape:version="0.91 r13725"
   width="500"
   height="500"
   viewBox="0 0 500 500"
   sodipodi:docname="bubbles.svg">
  <metadata
     id="metadata4254">
    <rdf:RDF>
      <cc:Work
         rdf:about="">
        <dc:format>image/svg+xml</dc:format>
        <dc:type
           rdf:resource="http://purl.org/dc/dcmitype/StillImage" />
        <dc:title></dc:title>
      </cc:Work>
    </rdf:RDF>
  </metadata>
  <defs
     id="defs4252" />
  <sodipodi:namedview
     pagecolor="#ffffff"
     bordercolor="#666666"
     borderopacity="1"
     objecttolerance="10"
     gridtolerance="10"
     guidetolerance="10"
     inkscape:pageopacity="0"
     inkscape:pageshadow="2"
     inkscape:window-width="1375"
     inkscape:window-height="876"
     id="namedview4250"
     showgrid="false"
     showguides="true"
     inkscape:guide-bbox="true"
     inkscape:zoom="1.414"
     inkscape:cx="250"
     inkscape:cy="250"
     inkscape:window-x="65"
     inkscape:window-y="24"
     inkscape:window-maximized="1"
     inkscape:current-layer="svg4248">
    <sodipodi:guide
       position="251.06082,223.47949"
       orientation="1,0"
       id="guide7054" />
    <sodipodi:guide
       position="297.0297,249.64639"
       orientation="0,1"
       id="guide7056" />
    <sodipodi:guide
       position="50.919378,350.07072"
       orientation="1,0"
       id="guide7058" />
    <sodipodi:guide
       position="450.49505,267.32673"
       orientation="1,0"
       id="guide7060" />
  </sodipodi:namedview>
  <path
     style="fill:#000000"
     d="m 176.27244,401.88976 c -55.00343,-6.97151 -99.087059,-42.22837 -115.861219,-92.66258 -5.399378,-16.23407 -6.656444,-24.49049 -6.603068,-43.36913 0.04203,-14.86243 0.401955,-18.65672 2.702614,-28.48984 12.525902,-53.5361 52.145233,-92.38552 106.434573,-104.3663 14.03386,-3.09704 40.8607,-3.09704 54.89456,0 27.97994,6.17471 49.77389,17.96075 69.41614,37.53981 20.04427,19.97976 31.82212,41.92814 37.95609,70.73234 2.50391,11.75797 2.50391,38.4186 0,50.17657 -6.12735,28.77307 -17.88528,50.69515 -37.95609,70.76722 -19.62198,19.62323 -43.7912,32.5311 -70.75726,37.78876 -8.25311,1.60914 -33.18111,2.77612 -40.22634,1.88315 z M 303.91221,227.028 c -3.35509,-19.44175 -13.03916,-38.34774 -26.82576,-52.37138 -7.92834,-8.06464 -21.25923,-17.63381 -29.46735,-21.15223 l -4.78009,-2.04899 0,5.00709 c 0,2.75389 0.42412,5.00708 0.94249,5.00708 0.51837,0 5.11928,2.79382 10.22427,6.20848 11.16173,7.46596 24.91905,20.76984 32.16945,31.10914 5.93907,8.46931 14.28265,24.77017 16.85422,32.9281 0.93164,2.9555 1.8714,5.19612 2.08837,4.97916 0.21696,-0.21696 -0.32556,-4.56687 -1.2056,-9.66645 z m 66.5287,4.37737 c -20.40915,-4.37273 -37.3316,-17.88746 -46.5621,-37.18574 -18.28873,-38.23633 5.03241,-83.96619 47.26005,-92.67115 9.78284,-2.016666 16.93606,-2.026259 26.81253,-0.0359 36.07801,7.27051 59.70387,42.87996 52.14018,78.58689 -7.56652,35.72034 -43.71547,59.00519 -79.65066,51.30593 z m 74.85515,-71.44868 c -0.93477,-15.39252 -8.80747,-30.96175 -20.23392,-40.01513 l -5.21656,-4.13318 -0.32426,2.71197 c -0.25933,2.16889 0.98633,4.10125 6.22048,9.64973 10.45942,11.08754 17.53177,27.85045 17.87896,42.37675 l 0.10848,4.53863 1.02842,-3.53005 c 0.56563,-1.94152 0.80791,-7.16095 0.5384,-11.59872 z m -163.12878,-9.45531 c -10.60036,-3.47618 -17.76908,-12.10466 -18.84361,-22.68073 -0.71221,-7.00978 2.49304,-16.25315 6.98162,-20.1338 6.26865,-5.41967 10.77946,-7.17673 18.42431,-7.17673 7.80032,0 12.89933,2.02005 18.017,7.13771 15.46449,15.46451 5.50909,41.87585 -16.32404,43.30711 -3.15001,0.2065 -6.86489,0.002 -8.25528,-0.45356 z m 28.176,-25.6254 c 0.13087,-7.04225 -4.75962,-15.08634 -11.2256,-18.46431 -3.54289,-1.8509 -3.83228,-1.80581 -3.83228,0.59696 0,1.11089 1.84832,3.68965 4.10738,5.73056 4.80347,4.33964 7.66596,9.50015 8.63657,15.57001 0.54834,3.42909 0.85723,3.92584 1.46871,2.36187 0.42589,-1.08927 0.80623,-3.69706 0.84522,-5.79509 z"
     id="path7062"
     inkscape:connector-curvature="0" />
</svg>
