<?xml version="1.0" encoding="UTF-8" standalone="no"?>
<!-- Created with Inkscape (http://www.inkscape.org/) -->

<svg
   xmlns:dc="http://purl.org/dc/elements/1.1/"
   xmlns:cc="http://creativecommons.org/ns#"
   xmlns:rdf="http://www.w3.org/1999/02/22-rdf-syntax-ns#"
   xmlns:svg="http://www.w3.org/2000/svg"
   xmlns="http://www.w3.org/2000/svg"
   version="1.1"
   width="55"
   height="55"
   viewBox="0 0 55 55.000001"
   id="svg2"
   xml:space="preserve"><metadata
     id="metadata29"><rdf:RDF><cc:Work
         rdf:about=""><dc:format>image/svg+xml</dc:format><dc:type
           rdf:resource="http://purl.org/dc/dcmitype/StillImage" /><dc:title></dc:title></cc:Work></rdf:RDF></metadata><defs
     id="defs27" /><g
     transform="matrix(0.919935,0,0,0.919935,2.4322312,5.0374876)"
     id="camera-external"
     style="display:block"><g
       id="g5"
       style="display:inline"><g
         id="g7"><polygon
           points="34.904,9.862 18.783,9.862 15.155,14.52 6.29,14.52 6.29,38.973 48.209,38.973 48.209,14.52 38.532,14.52 "
           id="polygon9"
           style="fill:#ffffff" /></g><g
         id="g11"><polygon
           points="34.904,9.862 18.783,9.862 15.155,14.52 6.29,14.52 6.29,38.973 48.209,38.973 48.209,14.52 38.532,14.52 "
           id="polygon13"
           style="fill:none;stroke:#010101;stroke-width:3.5" /></g></g><path
       d="m 20.601,26.441 c 0,3.67 2.979,6.648 6.65,6.648 3.667,0 6.646,-2.979 6.646,-6.648 0,-3.668 -2.979,-6.652 -6.646,-6.652 -3.67,0 -6.65,2.986 -6.65,6.652 z"
       id="path15"
       style="fill:#ffffff;stroke:#010101;stroke-width:3.5;display:inline" /><rect
       width="6.2870002"
       height="4.1929998"
       x="38.098999"
       y="18.417999"
       id="rect17"
       style="fill:#010101;display:inline" /></g></svg>