<?xml version="1.0" encoding="UTF-8" standalone="no"?>
<!-- Created with Inkscape (http://www.inkscape.org/) -->

<svg
   xmlns:dc="http://purl.org/dc/elements/1.1/"
   xmlns:cc="http://creativecommons.org/ns#"
   xmlns:rdf="http://www.w3.org/1999/02/22-rdf-syntax-ns#"
   xmlns:svg="http://www.w3.org/2000/svg"
   xmlns="http://www.w3.org/2000/svg"
   xmlns:sodipodi="http://sodipodi.sourceforge.net/DTD/sodipodi-0.dtd"
   xmlns:inkscape="http://www.inkscape.org/namespaces/inkscape"
   id="svg4258"
   version="1.1"
   inkscape:version="0.91 r13725"
   width="500"
   height="500"
   viewBox="0 0 500 500"
   sodipodi:docname="cat.svg">
  <metadata
     id="metadata4264">
    <rdf:RDF>
      <cc:Work
         rdf:about="">
        <dc:format>image/svg+xml</dc:format>
        <dc:type
           rdf:resource="http://purl.org/dc/dcmitype/StillImage" />
        <dc:title></dc:title>
      </cc:Work>
    </rdf:RDF>
  </metadata>
  <defs
     id="defs4262" />
  <sodipodi:namedview
     pagecolor="#ffffff"
     bordercolor="#666666"
     borderopacity="1"
     objecttolerance="10"
     gridtolerance="10"
     guidetolerance="10"
     inkscape:pageopacity="0"
     inkscape:pageshadow="2"
     inkscape:window-width="1375"
     inkscape:window-height="876"
     id="namedview4260"
     showgrid="false"
     showguides="true"
     inkscape:guide-bbox="true"
     inkscape:zoom="1.414"
     inkscape:cx="250"
     inkscape:cy="250"
     inkscape:window-x="65"
     inkscape:window-y="24"
     inkscape:window-maximized="1"
     inkscape:current-layer="svg4258">
    <sodipodi:guide
       position="250.35361,347.94908"
       orientation="1,0"
       id="guide7023" />
    <sodipodi:guide
       position="276.52051,249.64639"
       orientation="0,1"
       id="guide7025" />
    <sodipodi:guide
       position="49.50495,227.72277"
       orientation="1,0"
       id="guide7027" />
    <sodipodi:guide
       position="449.78784,270.15559"
       orientation="1,0"
       id="guide7029" />
    <sodipodi:guide
       position="495.75672,449.78784"
       orientation="0,1"
       id="guide7031" />
    <sodipodi:guide
       position="156.2942,50.212164"
       orientation="0,1"
       id="guide7033" />
  </sodipodi:namedview>
  <path
     style="fill:#000000"
     d="M 122.23218,416.21144 C 111.32841,403.11071 97.570482,384.23782 91.659004,374.27169 58.436326,318.2618 42.766036,244.66015 50.969393,183.15673 l 1.763837,-13.2242 31.954099,-10.12439 c 55.232661,-17.49996 89.911111,-23.64302 142.462031,-25.23619 60.41327,-1.83156 58.61035,-0.93203 104.84654,-52.311734 15.67243,-17.415901 22.39663,-23.095565 26.62842,-22.49184 5.22559,0.745478 5.77467,2.857496 7.13322,27.436086 2.02329,36.605198 10.14448,51.809988 44.58177,83.467418 13.78849,12.67543 27.34602,27.50207 30.12786,32.94808 16.00448,31.33186 16.73957,85.59397 1.52401,112.49832 -11.41581,20.18555 -25.19131,22.87741 -96.58091,18.8728 -37.60344,-2.10939 -41.43557,-1.87189 -59.79926,3.7059 -48.8343,14.83298 -110.90446,58.32047 -134.18319,94.01118 -2.62693,4.02755 -5.80997,7.32282 -7.07343,7.32282 -1.26346,0 -11.21846,-10.7188 -22.12221,-23.81954 z"
     id="path7021"
     inkscape:connector-curvature="0" />
</svg>
