<svg width="55" height="55" xmlns="http://www.w3.org/2000/svg" viewBox="0 0 55 55"><g transform="translate(0-997.36)"><path fill="#282828" d="m0 997.36h55v54.998h-55z"/><g fill="#fff"><path d="m44.971 1036.26c1.675 1.674 1.675 4.39 0 6.06-1.675 1.674-4.391 1.674-6.07 0l-28.875-28.872c-1.675-1.674-1.675-4.39 0-6.06 1.675-1.674 4.391-1.674 6.07 0l28.875 28.872"/><path d="m16.09 1042.33c-1.675 1.674-4.391 1.674-6.07 0-1.675-1.674-1.675-4.39 0-6.06l28.875-28.871c1.675-1.674 4.391-1.674 6.07 0 1.675 1.674 1.675 4.39 0 6.06l-28.875 28.871"/></g></g></svg>
