<?xml version="1.0" encoding="UTF-8" standalone="no"?>
<svg
   xmlns:dc="http://purl.org/dc/elements/1.1/"
   xmlns:cc="http://creativecommons.org/ns#"
   xmlns:rdf="http://www.w3.org/1999/02/22-rdf-syntax-ns#"
   xmlns:svg="http://www.w3.org/2000/svg"
   xmlns="http://www.w3.org/2000/svg"
   version="1.1"
   width="55"
   height="55"
   id="svg2">
  <defs
     id="defs4" />
  <metadata
     id="metadata7">
    <rdf:RDF>
      <cc:Work
         rdf:about="">
        <dc:format>image/svg+xml</dc:format>
        <dc:type
           rdf:resource="http://purl.org/dc/dcmitype/StillImage" />
        <dc:title></dc:title>
      </cc:Work>
    </rdf:RDF>
  </metadata>
  <path
     d="m 45.783874,27.5 a 18.283874,18.283874 0 0 1 -36.5677482,0 18.283874,18.283874 0 1 1 36.5677482,0 z"
     id="path2985"
     style="fill:#ed001d;fill-opacity:1;fill-rule:nonzero;stroke:#ed001d;stroke-width:5.43225098;stroke-linecap:round;stroke-linejoin:round;stroke-miterlimit:4;stroke-opacity:1;stroke-dasharray:none;stroke-dashoffset:0" />
  <g
     transform="matrix(1.2115096,0,0,1.2115096,-5.8266059,-5.8064215)"
     id="g7045">
    <path
       id="path4135"
       d="m 27.510601,42.782933 0,-11.599688 4.799904,5.99988 -4.799904,-5.99988 -4.799904,5.99988"
       style="fill:none;fill-rule:evenodd;stroke:#ffffff;stroke-width:2.39995193px;stroke-linecap:round;stroke-linejoin:round;stroke-opacity:1" />
    <path
       id="path4135-0"
       d="m 27.489399,12.200406 0,11.59969 -4.799904,-5.999882 4.799904,5.999882 4.799904,-5.999882"
       style="fill:none;fill-rule:evenodd;stroke:#ffffff;stroke-width:2.39995193px;stroke-linecap:round;stroke-linejoin:round;stroke-opacity:1" />
    <path
       id="path4135-3"
       d="m 42.799593,27.489399 -11.599689,0 5.999881,-4.799904 -5.999881,4.799904 5.999881,4.799904"
       style="fill:none;fill-rule:evenodd;stroke:#ffffff;stroke-width:2.39995193px;stroke-linecap:round;stroke-linejoin:round;stroke-opacity:1" />
    <path
       id="path4135-7"
       d="m 12.217067,27.489399 11.599688,0 -5.99988,-4.799904 5.99988,4.799904 -5.99988,4.799904"
       style="fill:none;fill-rule:evenodd;stroke:#ffffff;stroke-width:2.39995193px;stroke-linecap:round;stroke-linejoin:round;stroke-opacity:1" />
  </g>
</svg>
