<?xml version="1.0" encoding="UTF-8" standalone="no"?>
<svg
   xmlns:dc="http://purl.org/dc/elements/1.1/"
   xmlns:cc="http://creativecommons.org/ns#"
   xmlns:rdf="http://www.w3.org/1999/02/22-rdf-syntax-ns#"
   xmlns:svg="http://www.w3.org/2000/svg"
   xmlns="http://www.w3.org/2000/svg"
   xmlns:sodipodi="http://sodipodi.sourceforge.net/DTD/sodipodi-0.dtd"
   xmlns:inkscape="http://www.inkscape.org/namespaces/inkscape"
   version="1.1"
   id="svg2"
   viewBox="0 0 55.000001 55.000001"
   height="55"
   width="55"
   inkscape:version="0.91 r13725"
   sodipodi:docname="collapse-1.svg">
  <sodipodi:namedview
     pagecolor="#ffffff"
     bordercolor="#666666"
     borderopacity="1"
     objecttolerance="10"
     gridtolerance="10"
     guidetolerance="10"
     inkscape:pageopacity="0"
     inkscape:pageshadow="2"
     inkscape:window-width="1366"
     inkscape:window-height="744"
     id="namedview8"
     showgrid="false"
     inkscape:zoom="6.068262"
     inkscape:cx="1.073833"
     inkscape:cy="27.949137"
     inkscape:window-x="0"
     inkscape:window-y="24"
     inkscape:window-maximized="1"
     inkscape:current-layer="g4179" />
  <defs
     id="defs4" />
  <metadata
     id="metadata7">
    <rdf:RDF>
      <cc:Work
         rdf:about="">
        <dc:format>image/svg+xml</dc:format>
        <dc:type
           rdf:resource="http://purl.org/dc/dcmitype/StillImage" />
        <dc:title></dc:title>
      </cc:Work>
    </rdf:RDF>
  </metadata>
  <g
     inkscape:groupmode="layer"
     id="layer1"
     inkscape:label="Circle">
    <g
       id="layer1-6"
       transform="matrix(0.76363635,0,0,0.76363635,7.1794038,-756.29579)"
       style="fill:#ed001d;fill-opacity:1">
      <path
         style="fill:#ed001d;fill-opacity:1;fill-rule:nonzero;stroke:#00b700;stroke-width:7;stroke-linecap:round;stroke-linejoin:round;stroke-miterlimit:4;stroke-dasharray:none;stroke-dashoffset:0;stroke-opacity:1"
         id="path2985-2"
         transform="matrix(1.0475136,0,0,0.98589516,-2.42896,991.76427)"
         d="m 51.428572,33.57143 a 22.857144,24.285716 0 1 1 -45.7142871,0 22.857144,24.285716 0 1 1 45.7142871,0 z"
         inkscape:connector-curvature="0" />
    </g>
    <path
       style="fill:#ed001d;fill-opacity:1;stroke:none;stroke-width:1.5;stroke-miterlimit:4;stroke-dasharray:none;stroke-opacity:1"
       d="M 25.788273,47.049787 C 17.479498,46.006461 10.649612,40.388981 8.1650044,32.554911 7.4410109,30.272128 7.2252713,28.802378 7.2337194,26.210425 7.2420144,23.665434 7.5060544,22.041276 8.2978961,19.66448 10.469289,13.146813 16.121984,7.9141671 22.875792,6.1698598 25.453378,5.5041463 28.879686,5.3409793 31.515355,5.7584284 39.3491,6.9991725 45.845802,12.604272 48.241974,20.1895 c 1.325579,4.196198 1.170705,9.44205 -0.398308,13.491379 -2.586668,6.675707 -8.437591,11.608462 -15.468808,13.041332 -1.918344,0.390934 -4.900777,0.539261 -6.586585,0.327576 z m 5.58282,-5.354436 C 40.631728,39.77916 46.011268,29.88334 42.726784,20.806226 41.056708,16.190747 36.908939,12.401455 32.104135,11.101658 c -1.961879,-0.530728 -5.870592,-0.53376 -7.80069,-0.0061 -2.742745,0.749896 -5.062786,2.090028 -7.038333,4.065576 -4.761698,4.761698 -5.972071,11.91477 -3.048024,18.013248 0.839542,1.750974 1.441632,2.615439 2.865993,4.114922 3.642056,3.834138 9.02681,5.494636 14.288012,4.405998 z"
       id="path4158"
       inkscape:connector-curvature="0" />
    <path
       style="fill:#ed001d;fill-opacity:1;stroke:none;stroke-width:1.5;stroke-miterlimit:4;stroke-dasharray:none;stroke-opacity:1"
       d="M 24.581177,46.803073 C 18.852845,45.713003 13.829886,42.40638 10.692909,37.660404 9.6985006,36.15595 9.0676611,34.855787 8.4103462,32.956032 7.5370364,30.432014 7.383367,29.379469 7.4014424,26.045633 7.419182,22.773733 7.6792603,21.37187 8.7798164,18.615978 11.417791,12.010251 17.770811,6.9664127 24.85247,5.8554545 c 1.55123,-0.2433542 5.134592,-0.2426819 6.757289,0.00127 4.027786,0.6055205 8.320203,2.8198992 11.36148,5.8611772 3.121486,3.121483 5.308761,7.432809 5.864475,11.559428 0.316003,2.346574 0.132468,6.160787 -0.393402,8.17565 -2.012031,7.709066 -8.202036,13.524869 -16.173386,15.195663 -1.82906,0.383371 -6.040141,0.467964 -7.687749,0.154433 z m 7.070681,-5.098724 c 6.282259,-1.506954 10.865864,-6.502883 11.909564,-12.980905 0.276758,-1.717775 0.125512,-4.768645 -0.320649,-6.468023 -0.42114,-1.604078 -1.426392,-3.749185 -2.38846,-5.096744 -1.026394,-1.437656 -3.115282,-3.367331 -4.702612,-4.344181 -2.722886,-1.675679 -5.301923,-2.292365 -8.891012,-2.125972 -4.026901,0.18669 -6.977903,1.496697 -9.908228,4.398453 -2.277944,2.255735 -3.622361,4.606738 -4.394897,7.685427 -0.42698,1.701586 -0.383758,5.644831 0.0805,7.344225 0.812505,2.974133 2.074258,5.209034 4.101141,7.26421 2.501054,2.535965 5.361237,3.999788 8.921369,4.565897 1.246889,0.198273 4.309535,0.06555 5.593283,-0.242387 z"
       id="path4160"
       inkscape:connector-curvature="0" />
    <path
       style="fill:#ed001d;fill-opacity:1;stroke:none;stroke-width:1.5;stroke-miterlimit:4;stroke-dasharray:none;stroke-opacity:1"
       d="M 24.593208,46.811927 C 17.312932,45.429103 11.287442,40.49287 8.7034522,33.794643 7.5695235,30.855267 7.4165792,30.003907 7.4001818,26.540009 7.3845009,23.22749 7.48529,22.460775 8.2450306,20.113127 10.611427,12.800811 16.892846,7.2781458 24.369617,5.9362843 c 1.982416,-0.3557853 5.81787,-0.3638448 7.659226,-0.016094 4.081617,0.7708363 8.126053,2.9223865 11.031597,5.8685652 2.924117,2.965012 5.011189,6.943444 5.692715,10.851607 0.317986,1.823461 0.311501,5.518636 -0.01295,7.379165 -1.432987,8.217351 -7.933657,14.816503 -16.388886,16.637169 -1.738702,0.374394 -6.14056,0.46247 -7.758114,0.155231 l 5e-6,0 z m 6.941254,-5.112563 c 3.801998,-0.799776 7.24901,-3.170415 9.540875,-6.561622 0.632649,-0.93611 1.751896,-3.277282 1.904427,-3.983562 0.05872,-0.271907 -0.144313,0.108395 -0.451187,0.845117 -0.957831,2.29948 -1.862278,3.640057 -3.654671,5.416973 -1.214006,1.203524 -2.039865,1.859804 -3.062478,2.433644 -5.094384,2.858709 -11.171459,2.690106 -15.971946,-0.443131 -4.907032,-3.202775 -7.70874,-9.254366 -6.944232,-14.999296 0.886898,-6.66464 5.728833,-11.960398 12.205232,-13.349199 0.589131,-0.126333 0.890494,-0.235593 0.669696,-0.242798 -0.841905,-0.02748 -2.632887,0.540561 -4.377512,1.388391 -3.164379,1.537782 -5.563214,3.963165 -7.170719,7.250079 -1.796689,3.673746 -2.101871,7.577542 -0.901789,11.535428 1.455676,4.800838 5.35095,8.775646 10.097742,10.303916 0.841972,0.271081 2.028473,0.561956 2.636669,0.646391 1.397359,0.193991 3.9467,0.08219 5.479893,-0.240331 z m 0.874669,-4.515087 c 0.945965,-0.584638 1.04338,-1.008043 1.15643,-5.026353 0.05587,-1.985735 0.122235,-3.631086 0.147484,-3.656335 0.02525,-0.02525 0.915041,-0.112611 1.977317,-0.194135 2.068899,-0.158779 2.374748,-0.289712 2.857525,-1.223299 0.474607,-0.917789 0.312352,-1.478633 -0.882028,-3.048796 -6.693843,-8.799899 -7.469765,-9.750022 -8.185682,-10.023434 -0.834606,-0.318738 -1.800023,-0.138648 -2.480555,0.462726 -0.22726,0.200826 -2.335708,2.841839 -4.685441,5.868918 -2.919056,3.760517 -4.304546,5.675971 -4.37423,6.047418 -0.132735,0.707539 0.243616,1.602024 0.837332,1.990112 0.390327,0.255143 0.746601,0.294193 2.329734,0.25536 l 1.868939,-0.04584 -0.03293,3.843163 c -0.03592,4.192381 -0.0072,4.351051 0.890833,4.921918 0.497772,0.316425 0.719511,0.329737 4.267027,0.256162 3.451043,-0.07157 3.785997,-0.104816 4.308242,-0.427582 z m 11.056917,-8.129652 c 0.08417,-0.853856 0.08197,-0.850827 -0.148749,0.204449 -0.269777,1.233941 -0.296444,1.556984 -0.08515,1.03149 0.08166,-0.203083 0.186912,-0.759256 0.2339,-1.235939 z m 0.210219,-3.214982 c -0.103224,-2.548181 -0.459649,-4.152155 -1.351702,-6.082887 -1.492635,-3.23061 -4.197775,-6.007139 -7.418969,-7.61475 -1.428037,-0.712695 -3.485074,-1.348905 -4.281276,-1.324132 -0.312582,0.0097 -0.09929,0.09724 0.573459,0.235291 5.336077,1.094998 9.803697,5.040136 11.498469,10.15374 0.644446,1.944474 0.858099,3.259662 0.859675,5.291906 6.59e-4,0.883696 0.04869,1.60672 0.106689,1.60672 0.05799,0 0.06414,-1.019649 0.01366,-2.265888 l -6e-6,0 z M 29.096684,10.680898 c -0.475837,-0.03329 -1.254478,-0.03329 -1.730315,0 -0.475836,0.03329 -0.08651,0.06052 0.865158,0.06052 0.951672,0 1.340993,-0.02724 0.865157,-0.06052 z"
       id="path4162"
       inkscape:connector-curvature="0" />
    <path
       style="fill:#ed001d;fill-opacity:1;stroke:none;stroke-width:1.5;stroke-miterlimit:4;stroke-dasharray:none;stroke-opacity:1"
       d="M 24.593208,46.811927 C 18.188847,45.595475 12.629971,41.565835 9.7209302,36.03098 8.8011031,34.280882 8.3994976,33.246234 7.8599496,31.236576 7.299262,29.148179 7.1506697,25.497649 7.5279166,23.07938 8.7751062,15.084509 15.012478,8.2654013 22.91708,6.25493 c 2.054078,-0.5224383 5.023881,-0.753117 7.216121,-0.5605106 2.740866,0.2408075 4.839173,0.8252877 7.244272,2.0178807 6.000708,2.9755129 10.268212,8.5773539 11.376701,14.9339039 0.32207,1.846896 0.309584,5.49674 -0.02548,7.448987 -1.386736,8.079689 -8.00368,14.791837 -16.322283,16.55713 -1.796442,0.381223 -6.175476,0.470677 -7.813199,0.159606 z m 3.679516,-4.815389 c -0.203929,-0.03928 -0.537633,-0.03928 -0.741563,0 -0.20393,0.03928 -0.03708,0.07142 0.370782,0.07142 0.40786,0 0.574711,-0.03214 0.370781,-0.07142 z m -1.483126,-0.164792 c -0.20393,-0.03928 -0.537633,-0.03928 -0.741563,0 -0.20393,0.03928 -0.03708,0.07142 0.370781,0.07142 0.40786,0 0.574712,-0.03214 0.370782,-0.07142 z m 3.460628,0 c -0.203929,-0.03928 -0.537633,-0.03928 -0.741563,0 -0.20393,0.03928 -0.03708,0.07142 0.370782,0.07142 0.40786,0 0.574711,-0.03214 0.370781,-0.07142 z m -4.778963,-0.157631 c -0.113294,-0.04572 -0.298685,-0.04572 -0.411979,0 -0.113295,0.04572 -0.0206,0.08312 0.20599,0.08312 0.226588,0 0.319284,-0.0374 0.205989,-0.08312 z m 6.773877,-0.15146 c 3.437337,-0.884671 6.928969,-3.444563 8.916398,-6.537065 0.526261,-0.818879 0.157042,-0.473093 -0.475483,0.445305 -0.700852,1.017605 -2.78707,3.069019 -3.890488,3.825583 -1.458447,0.999992 -3.049091,1.69881 -5.021016,2.205882 -0.634449,0.163148 -1.015935,0.30209 -0.847745,0.308761 0.168188,0.0067 0.761438,-0.105137 1.318334,-0.248466 z m -7.518872,-0.0038 c -0.05476,-0.05476 -0.196894,-0.06061 -0.315852,-0.013 -0.131459,0.0526 -0.09241,0.09165 0.09956,0.09956 0.173717,0.0072 0.271048,-0.03179 0.21629,-0.08655 l 0,-7e-6 z m -1.951359,-0.616255 c -3.685266,-1.402451 -6.637619,-4.126225 -8.423101,-7.77096 -0.444006,-0.906355 -0.755821,-1.462528 -0.692924,-1.235939 0.220222,0.793348 1.358557,2.892969 2.111274,3.894171 0.998309,1.327871 2.684312,2.89137 4.129249,3.829223 1.140704,0.740387 3.55915,1.831617 4.047532,1.826293 0.135953,-0.0015 -0.39146,-0.245736 -1.17203,-0.542787 z m 9.634222,-3.718365 c 0.945965,-0.584638 1.04338,-1.008043 1.15643,-5.026353 0.05587,-1.985735 0.122235,-3.631086 0.147484,-3.656335 0.02525,-0.02525 0.915041,-0.112611 1.977317,-0.194135 2.068899,-0.158779 2.374748,-0.289712 2.857525,-1.223299 0.474607,-0.917789 0.312352,-1.478633 -0.882028,-3.048796 -6.693843,-8.799899 -7.469765,-9.750022 -8.185682,-10.023434 -0.834606,-0.318738 -1.800023,-0.138648 -2.480555,0.462726 -0.22726,0.200826 -2.335708,2.841839 -4.685441,5.868918 -2.919056,3.760517 -4.304546,5.675971 -4.37423,6.047418 -0.132735,0.707539 0.243616,1.602024 0.837332,1.990112 0.390327,0.255143 0.746601,0.294193 2.329734,0.25536 l 1.868939,-0.04584 -0.03293,3.843163 c -0.03592,4.192381 -0.0072,4.351051 0.890833,4.921918 0.497772,0.316425 0.719511,0.329737 4.267027,0.256162 3.451043,-0.07157 3.785997,-0.104816 4.308242,-0.427582 z m 9.590817,-3.657001 c 0.234209,-0.46219 0.398203,-0.867978 0.364429,-0.901751 -0.03377,-0.03377 -0.26042,0.344384 -0.503663,0.840347 -0.243243,0.495962 -0.407237,0.901749 -0.364431,0.901749 0.04281,0 0.269455,-0.378156 0.503665,-0.840345 z M 13.159154,29.736072 c -0.136618,-0.579573 -0.259591,-1.276238 -0.273274,-1.548145 -0.0208,-0.413321 -0.03689,-0.431229 -0.09818,-0.109222 -0.0755,0.396744 0.419646,2.911339 0.547999,2.782984 0.03952,-0.03951 -0.03993,-0.546042 -0.176549,-1.125617 z m 30.177567,-0.353404 c -0.04571,-0.113295 -0.08312,-0.0206 -0.08312,0.20599 0,0.226588 0.0374,0.319284 0.08312,0.205989 0.04572,-0.113294 0.04572,-0.298685 0,-0.411979 z M 43.504946,28.7338 c -0.0526,-0.131459 -0.09165,-0.09241 -0.09956,0.09956 -0.0072,0.173717 0.03179,0.271048 0.08655,0.21629 0.05476,-0.05476 0.06061,-0.196894 0.013,-0.315852 l 7e-6,0 z m 0.173349,-3.058948 c -0.03395,-0.430519 -0.06172,-0.07828 -0.06172,0.782761 0,0.861037 0.02777,1.21328 0.06172,0.782761 0.03395,-0.430519 0.03395,-1.135004 0,-1.565522 z m -30.981947,0 c -0.03555,-0.339884 -0.06464,-0.0618 -0.06464,0.617969 0,0.679766 0.02909,0.957852 0.06464,0.617969 0.03555,-0.339883 0.03555,-0.896055 0,-1.235938 z m 0.800499,-3.994877 c 0.238315,-0.769673 0.648848,-1.826401 0.912293,-2.348284 0.263446,-0.521883 0.441914,-0.948878 0.396597,-0.948878 -0.176407,0 -1.058713,1.963438 -1.473614,3.279305 -0.240045,0.76131 -0.4684,1.836577 -0.507455,2.389481 l -0.07101,1.005283 0.154943,-0.988751 c 0.08522,-0.543813 0.349929,-1.618483 0.588245,-2.388156 z m 30.009727,2.020511 c -0.04178,-0.160338 -0.07872,-0.06905 -0.08207,0.202853 -0.0034,0.271907 0.03083,0.403091 0.07597,0.291522 0.04514,-0.111569 0.04789,-0.334038 0.0061,-0.494375 l -8e-6,0 z m -0.169853,-0.909491 c -0.04571,-0.113295 -0.08312,-0.0206 -0.08312,0.205989 0,0.226589 0.0374,0.319285 0.08312,0.20599 0.04572,-0.113294 0.04572,-0.298685 0,-0.411979 z m -0.203305,-0.853386 c -0.06061,-0.241505 -0.141988,-0.407319 -0.180831,-0.368475 -0.03885,0.03884 -0.02103,0.26822 0.03958,0.509724 0.06061,0.241504 0.141988,0.407318 0.180831,0.368475 0.03884,-0.03885 0.02103,-0.26822 -0.03958,-0.509724 z m -0.637294,-1.748911 c -0.638537,-1.571451 -1.791073,-3.305525 -3.083729,-4.639696 l -1.166137,-1.203589 1.03773,1.150651 c 1.296488,1.437565 2.49449,3.291206 3.064536,4.741685 0.240659,0.612354 0.466739,1.084194 0.502401,1.048532 0.03566,-0.03566 -0.123999,-0.529574 -0.354801,-1.097583 z m -26.720308,-3.08571 c 2.141628,-2.914621 5.058767,-4.901845 8.637934,-5.884366 0.785563,-0.215646 1.315573,-0.397517 1.177797,-0.404158 -0.5741,-0.02767 -2.816923,0.712651 -4.198879,1.385991 -2.406675,1.172619 -4.942392,3.439237 -6.271098,5.605587 -0.443794,0.723571 -0.207223,0.469351 0.654246,-0.703054 z M 37.94786,14.172929 c -0.116343,-0.140184 -0.440587,-0.408018 -0.720544,-0.595187 -0.38322,-0.256208 -0.346112,-0.19475 0.150157,0.248692 0.708201,0.632814 0.909496,0.755095 0.570387,0.346495 z M 36.388722,13.00837 c -0.992867,-0.769436 -3.875353,-1.925202 -5.273338,-2.114406 -0.376752,-0.05099 -0.164942,0.04502 0.494375,0.224103 1.615451,0.438775 2.804279,0.910368 3.955004,1.568903 1.079054,0.617518 1.334784,0.71727 0.823959,0.3214 z"
       id="path4164"
       inkscape:connector-curvature="0" />
    <path
       style="fill:#ed001d;fill-opacity:1;stroke:none;stroke-width:1.5;stroke-miterlimit:4;stroke-dasharray:none;stroke-opacity:1"
       d="M 24.853294,46.890913 C 15.739709,45.231761 8.6343077,37.983475 7.4528453,29.140554 7.1558115,26.917338 7.3445233,23.278244 7.856887,21.349066 c 1.0409919,-3.919597 2.955724,-7.181955 5.805204,-9.891023 3.712284,-3.5293559 7.743156,-5.3417088 12.824565,-5.7661563 4.886615,-0.4081764 9.365374,0.770874 13.579496,3.5748545 2.733966,1.8191178 5.563979,5.1229918 7.02444,8.2006208 1.367985,2.882754 1.905058,5.366617 1.904043,8.805847 -0.0012,3.782681 -0.590211,6.35307 -2.157254,9.412746 -2.833263,5.531988 -8.166632,9.604699 -14.347413,10.956088 -1.422732,0.311072 -6.403426,0.473387 -7.636674,0.24887 z m 1.771512,-5.052006 c -0.113294,-0.04572 -0.298685,-0.04572 -0.411979,0 -0.113295,0.04571 -0.0206,0.08312 0.205989,0.08312 0.226589,0 0.319285,-0.0374 0.20599,-0.08312 z m 3.460629,0 c -0.113295,-0.04572 -0.298686,-0.04572 -0.41198,0 -0.113294,0.04571 -0.0206,0.08312 0.20599,0.08312 0.226589,0 0.319284,-0.0374 0.20599,-0.08312 z m 2.0187,-0.298228 c 0.884973,-0.291663 0.536634,-0.303058 -0.494376,-0.01617 -0.453178,0.126101 -0.675646,0.230206 -0.494375,0.231345 0.181271,0.0012 0.626208,-0.09569 0.988751,-0.215174 l 0,-5e-6 z m -8.321988,-0.23688 c -0.135953,-0.07691 -0.432578,-0.18516 -0.659167,-0.240541 -0.343401,-0.08393 -0.329686,-0.06106 0.0824,0.137425 0.528113,0.254371 0.99012,0.336971 0.576771,0.103116 z m 11.370636,-0.924966 c 1.853978,-0.929889 3.753058,-2.48503 5.127053,-4.198502 0.678832,-0.846554 1.210586,-1.647919 1.093493,-1.647919 -0.0437,0 -0.286736,0.315165 -0.540086,0.700366 -0.673411,1.023881 -2.644007,3.016463 -3.808449,3.850943 -0.556515,0.398819 -1.631782,1.024627 -2.389482,1.390686 -0.757699,0.366059 -1.192244,0.615186 -0.965655,0.553617 0.226589,-0.06157 0.893996,-0.353705 1.483126,-0.649191 z m -12.688971,0.415669 c -0.135953,-0.08786 -0.321344,-0.159744 -0.411979,-0.159744 -0.09064,0 -0.05356,0.07188 0.0824,0.159744 0.135953,0.08786 0.321344,0.159744 0.411979,0.159744 0.09064,0 0.05356,-0.07188 -0.0824,-0.159744 z m -1.647918,-0.71693 c 0,-0.03177 -0.370781,-0.288256 -0.823959,-0.569966 -0.453178,-0.28171 -0.823959,-0.476553 -0.823959,-0.432982 0,0.07366 1.486831,1.060711 1.597785,1.060711 0.02757,0 0.05013,-0.02599 0.05013,-0.05776 z m -1.81271,-1.152635 c 0,-0.03127 -0.166852,-0.198123 -0.370782,-0.370782 l -0.370781,-0.313926 0.313926,0.370781 c 0.295014,0.348443 0.427637,0.445802 0.427637,0.313927 z m -0.823959,-0.64914 c 0,-0.02575 -0.426399,-0.452154 -0.947553,-0.947553 l -0.947553,-0.900725 0.900726,0.947553 c 0.836802,0.880306 0.99438,1.023042 0.99438,0.900725 z m 14.229906,-1.09152 c 0.945965,-0.584638 1.04338,-1.008043 1.15643,-5.026353 0.05587,-1.985735 0.122235,-3.631086 0.147484,-3.656335 0.02525,-0.02525 0.915041,-0.112611 1.977317,-0.194135 2.068899,-0.158779 2.374748,-0.289712 2.857525,-1.223299 0.474607,-0.917789 0.312352,-1.478633 -0.882028,-3.048796 -6.693843,-8.799899 -7.469765,-9.750022 -8.185682,-10.023434 -0.834606,-0.318738 -1.800023,-0.138648 -2.480555,0.462726 -0.22726,0.200826 -2.335708,2.841839 -4.685441,5.868918 -2.919056,3.760517 -4.304546,5.675971 -4.37423,6.047418 -0.132735,0.707539 0.243616,1.602024 0.837332,1.990112 0.390327,0.255143 0.746601,0.294193 2.329734,0.25536 l 1.868939,-0.04584 -0.03293,3.843163 c -0.03592,4.192381 -0.0072,4.351051 0.890833,4.921918 0.497772,0.316425 0.719511,0.329737 4.267027,0.256162 3.451043,-0.07157 3.785997,-0.104816 4.308242,-0.427582 z m -16.552467,-1.53952 c -0.649741,-0.846544 -0.910805,-1.129339 -0.72261,-0.782761 0.20297,0.373789 1.083902,1.483127 1.17776,1.483127 0.04532,0 -0.1595,-0.315165 -0.45515,-0.700366 z m -1.055672,-1.60672 c -0.140608,-0.271907 -0.292729,-0.494375 -0.338047,-0.494375 -0.04532,0 0.03265,0.222468 0.173256,0.494375 0.140608,0.271907 0.292729,0.494375 0.338047,0.494375 0.04532,0 -0.03265,-0.222468 -0.173256,-0.494375 z m 27.116404,-0.345554 c 0.189435,-0.371323 0.316163,-0.7034 0.281617,-0.737947 -0.03455,-0.03455 -0.224146,0.269266 -0.421334,0.675137 -0.449106,0.924396 -0.327681,0.978984 0.139717,0.06281 z m -27.83785,-1.084015 c -0.194264,-0.334068 -0.241175,-0.227141 -0.08216,0.187259 0.05651,0.147275 0.137469,0.233059 0.179898,0.19063 0.04243,-0.04243 -0.0015,-0.212479 -0.09774,-0.377889 z M 13.18325,30.052135 c -0.05261,-0.13146 -0.09165,-0.09241 -0.09956,0.09956 -0.0072,0.173717 0.03179,0.271048 0.08655,0.216289 0.05476,-0.05476 0.06061,-0.196893 0.01301,-0.315851 z m -0.168225,-0.834259 c -0.04572,-0.113294 -0.08312,-0.0206 -0.08312,0.20599 0,0.226589 0.0374,0.319284 0.08312,0.20599 0.04571,-0.113295 0.04571,-0.298686 0,-0.41198 z m -0.159731,-1.068011 c -0.04178,-0.160337 -0.07872,-0.06905 -0.08207,0.202854 -0.0034,0.271906 0.03083,0.403091 0.07597,0.291522 0.04514,-0.111569 0.04789,-0.334038 0.0061,-0.494376 z m 30.818423,-1.896321 c -0.03942,-0.204986 -0.07316,-0.07608 -0.07499,0.286465 -0.0018,0.362542 0.03042,0.530259 0.07167,0.372703 0.04125,-0.157556 0.04274,-0.454181 0.0033,-0.659168 l -4e-6,0 z M 12.685441,26.086831 c -0.04572,-0.113294 -0.08312,-0.0206 -0.08312,0.20599 0,0.226589 0.0374,0.319284 0.08312,0.20599 0.04571,-0.113295 0.04571,-0.298685 0,-0.41198 z m 0.169853,-2.056762 c -0.04178,-0.160337 -0.07872,-0.06905 -0.08207,0.202854 -0.0034,0.271907 0.03083,0.403091 0.07597,0.291522 0.04514,-0.111569 0.04789,-0.334038 0.0061,-0.494376 z m 30.649652,-0.240024 c -0.0526,-0.131459 -0.09165,-0.09241 -0.09956,0.09956 -0.0072,0.173717 0.03179,0.271048 0.08655,0.21629 0.05476,-0.05476 0.06061,-0.196894 0.013,-0.315852 l 7e-6,0 z M 13.015025,23.120578 c -0.04572,-0.113294 -0.08312,-0.0206 -0.08312,0.20599 0,0.226589 0.0374,0.319284 0.08312,0.20599 0.04571,-0.113295 0.04571,-0.298685 0,-0.41198 z M 13.18325,22.47171 c -0.05261,-0.131459 -0.09165,-0.09241 -0.09956,0.09956 -0.0072,0.173717 0.03179,0.271048 0.08655,0.216289 0.05476,-0.05476 0.06061,-0.196893 0.01301,-0.315852 z m 29.950166,-0.534101 c -0.06061,-0.241505 -0.141988,-0.407319 -0.180831,-0.368475 -0.03885,0.03884 -0.02103,0.26822 0.03958,0.509724 0.06061,0.241504 0.141988,0.407318 0.180831,0.368475 0.03884,-0.03885 0.02103,-0.26822 -0.03958,-0.509724 z M 13.348042,21.812543 c -0.05261,-0.13146 -0.09165,-0.09241 -0.09956,0.09956 -0.0072,0.173717 0.03179,0.271048 0.08655,0.21629 0.05476,-0.05476 0.06061,-0.196894 0.01301,-0.315852 z m 0.452134,-1.122644 c 0.07659,-0.286322 0.06362,-0.336585 -0.04253,-0.164792 -0.084,0.135953 -0.202316,0.432578 -0.262925,0.659167 -0.07659,0.286322 -0.06362,0.336585 0.04253,0.164792 0.084,-0.135953 0.202316,-0.432578 0.262925,-0.659167 z m 28.788356,-0.276026 c -0.194263,-0.334069 -0.241175,-0.227142 -0.08215,0.187259 0.05651,0.147275 0.137468,0.233058 0.179897,0.19063 0.04243,-0.04243 -0.0015,-0.212479 -0.09774,-0.377889 z M 14.536898,19.083178 c 0.194254,-0.3852 0.316111,-0.700365 0.270793,-0.700365 -0.09367,0 -0.748262,1.243659 -0.748262,1.421631 0,0.180453 0.09545,0.03626 0.477469,-0.721266 z m 27.701934,0.484675 c 0,-0.07331 -0.112439,-0.277243 -0.249866,-0.453178 -0.231697,-0.296623 -0.235766,-0.286931 -0.05595,0.133295 0.194028,0.453423 0.305811,0.570351 0.305811,0.319883 z m -0.938236,-1.692085 c -0.163737,-0.278875 -0.403008,-0.594039 -0.531714,-0.700365 -0.128707,-0.106326 -0.02616,0.121844 0.227888,0.507045 0.533434,0.808829 0.743801,0.942683 0.303826,0.19332 z M 16.208772,16.528905 c 0.306122,-0.385201 0.426306,-0.595717 0.267075,-0.467813 -0.299916,0.240911 -1.006133,1.168178 -0.889697,1.168178 0.03632,0 0.3165,-0.315164 0.622622,-0.700365 z m 24.382142,0.308564 c 0,-0.03422 -0.129774,-0.163994 -0.288386,-0.288386 -0.26137,-0.20498 -0.267198,-0.199151 -0.06222,0.06222 0.215279,0.274502 0.350605,0.361797 0.350605,0.226168 z m -0.823959,-0.983388 c 0,-0.03127 -0.166852,-0.198123 -0.370782,-0.370782 l -0.370782,-0.313927 0.313927,0.370782 c 0.295014,0.348443 0.427637,0.445802 0.427637,0.313927 z M 19.332768,13.482652 c 0,-0.116435 -0.927268,0.589782 -1.168179,0.889698 -0.127903,0.15923 0.08261,0.03905 0.467813,-0.267075 0.385201,-0.306122 0.700366,-0.586302 0.700366,-0.622623 z m 18.621476,0.718147 c 0,-0.03422 -0.129773,-0.163993 -0.288385,-0.288385 -0.26137,-0.20498 -0.267199,-0.199151 -0.06222,0.06222 0.215279,0.274501 0.350604,0.361797 0.350604,0.226167 z m -1.81271,-1.33614 c 0,-0.09995 -1.921222,-1.076441 -2.096396,-1.065523 -0.07056,0.0044 0.353723,0.260347 0.942854,0.568775 1.192186,0.624149 1.153542,0.607507 1.153542,0.496748 z M 21.900286,11.996642 c -0.07539,-0.07539 -1.084392,0.424866 -1.084392,0.537627 0,0.04152 0.258616,-0.04783 0.574702,-0.198558 0.316086,-0.150731 0.545447,-0.303312 0.50969,-0.339069 z m 0.728318,-0.205502 c 0.135954,-0.08786 0.173032,-0.159745 0.0824,-0.159745 -0.09063,0 -0.276026,0.07188 -0.411979,0.159745 -0.135954,0.08786 -0.173032,0.159745 -0.0824,0.159745 0.09063,0 0.276026,-0.07188 0.411979,-0.159745 z m 11.041053,-0.164792 c -0.135953,-0.08786 -0.321344,-0.159745 -0.41198,-0.159745 -0.09063,0 -0.05356,0.07188 0.0824,0.159745 0.135953,0.08786 0.321344,0.159745 0.41198,0.159745 0.09064,0 0.05356,-0.07188 -0.0824,-0.159745 z M 23.534959,11.461556 c 0.217318,-0.09338 0.245385,-0.144712 0.0824,-0.150686 -0.135953,-0.005 -0.358422,0.06283 -0.494375,0.150686 -0.301234,0.194672 -0.04105,0.194672 0.411979,0 z m 9.228343,-0.164792 c -0.181271,-0.07789 -0.440818,-0.141626 -0.576772,-0.141626 -0.155807,0 -0.125347,0.05236 0.0824,0.141626 0.181271,0.07789 0.440818,0.141627 0.576772,0.141627 0.155807,0 0.125347,-0.05236 -0.0824,-0.141627 z m -7.872243,-0.264353 c -0.05476,-0.05476 -0.196893,-0.06061 -0.315851,-0.01301 -0.13146,0.0526 -0.09241,0.09165 0.09956,0.09956 0.173717,0.0072 0.271048,-0.03179 0.216289,-0.08655 z m 6.921257,0 c -0.05476,-0.05476 -0.196893,-0.06061 -0.315851,-0.01301 -0.13146,0.0526 -0.09241,0.09165 0.09956,0.09956 0.173717,0.0072 0.271048,-0.03179 0.216289,-0.08655 z"
       id="path4166"
       inkscape:connector-curvature="0" />
    <path
       style="fill:#ed001d;fill-opacity:1;stroke:none;stroke-width:1.5;stroke-miterlimit:4;stroke-dasharray:none;stroke-opacity:1"
       d="M 24.439319,46.814593 C 22.978229,46.535828 20.14879,45.575785 18.837617,44.913907 14.891029,42.921675 11.464313,39.514538 9.5062599,35.63586 7.8136849,32.283067 7.2217845,29.51289 7.3514951,25.551258 7.4509649,22.513243 7.8209327,20.787644 8.9159007,18.254577 10.763769,13.979771 14.200836,10.254882 18.369143,8.0097141 23.603902,5.1901247 30.567708,4.8099856 35.956788,7.0496426 c 6.251078,2.5978963 10.754189,7.6843904 12.513495,14.1346314 0.399683,1.465384 0.426808,1.797424 0.424048,5.190943 -0.0028,3.434878 -0.02666,3.71203 -0.454048,5.273338 -1.988699,7.264972 -7.811329,12.914103 -15.281295,14.825957 -1.447348,0.370432 -2.162701,0.449388 -4.597878,0.507477 -2.071784,0.04942 -3.232451,0.0023 -4.121791,-0.167396 z m 10.718942,-6.434847 c 0.450165,-0.228115 0.818482,-0.451833 0.818482,-0.497151 0,-0.07382 -1.630874,0.696147 -1.798979,0.849336 -0.194423,0.177174 0.253014,0.01646 0.980497,-0.352185 z m 1.735948,-1.086349 c 0.06153,-0.09955 -0.08266,-0.05354 -0.320406,0.102233 -0.237747,0.15578 -0.432269,0.314393 -0.432269,0.352475 0,0.119207 0.635103,-0.264474 0.752675,-0.454708 z m 0.586681,-0.435199 c 0.204979,-0.26137 0.199151,-0.267198 -0.06222,-0.06222 -0.158612,0.124393 -0.288386,0.254167 -0.288386,0.288386 0,0.13563 0.135326,0.04834 0.350605,-0.226167 z m -18.477706,0.06137 c 0,-0.03422 -0.129774,-0.163992 -0.288386,-0.288386 -0.261369,-0.204979 -0.267197,-0.199151 -0.06222,0.06222 0.215279,0.274502 0.350604,0.361797 0.350604,0.226167 z m 20.108728,-1.544501 1.231814,-1.277137 -1.277137,1.231814 c -1.186176,1.144082 -1.352326,1.322459 -1.231814,1.322459 0.02493,0 0.599638,-0.574711 1.277137,-1.277136 z m -21.097479,0.732692 c 0,-0.02754 -0.278086,-0.305625 -0.617969,-0.617969 l -0.61797,-0.567901 0.5679,0.617969 c 0.52859,0.575193 0.668039,0.693739 0.668039,0.567901 z m 14.394698,-0.923487 c 0.945965,-0.584638 1.04338,-1.008043 1.15643,-5.026353 0.05587,-1.985735 0.122235,-3.631086 0.147484,-3.656335 0.02525,-0.02525 0.915041,-0.112611 1.977317,-0.194135 2.068899,-0.158779 2.374748,-0.289712 2.857525,-1.223299 0.474607,-0.917789 0.312352,-1.478633 -0.882028,-3.048796 -6.693843,-8.799899 -7.469765,-9.750022 -8.185682,-10.023434 -0.834606,-0.318738 -1.800023,-0.138648 -2.480555,0.462726 -0.22726,0.200826 -2.335708,2.841839 -4.685441,5.868918 -2.919056,3.760517 -4.304546,5.675971 -4.37423,6.047418 -0.132735,0.707539 0.243616,1.602024 0.837332,1.990112 0.390327,0.255143 0.746601,0.294193 2.329734,0.25536 l 1.868939,-0.04584 -0.03293,3.843163 c -0.03592,4.192381 -0.0072,4.351051 0.890833,4.921918 0.497772,0.316425 0.719511,0.329737 4.267027,0.256162 3.451043,-0.07157 3.785997,-0.104816 4.308242,-0.427582 z M 16.201723,36.118112 c 0,-0.03422 -0.129774,-0.163993 -0.288386,-0.288386 -0.261369,-0.204979 -0.267198,-0.199151 -0.06222,0.06222 0.215279,0.274502 0.350604,0.361797 0.350604,0.226167 z m 24.410212,-0.390959 c 0.204979,-0.261369 0.199151,-0.267198 -0.06222,-0.06222 -0.158612,0.124394 -0.288386,0.254167 -0.288386,0.288386 0,0.13563 0.135325,0.04834 0.350605,-0.226167 z m 1.462105,-2.407246 c 0,-0.209374 -0.07612,-0.115886 -0.316352,0.388546 -0.185004,0.388459 -0.181573,0.393718 0.06007,0.0921 0.140955,-0.175936 0.256279,-0.392225 0.256279,-0.480644 z M 12.853666,28.239424 c -0.05261,-0.131459 -0.09165,-0.09241 -0.09956,0.09956 -0.0072,0.173717 0.03179,0.271048 0.08655,0.216289 0.05476,-0.05476 0.06061,-0.196893 0.01301,-0.315852 z m 1.686908,-9.197444 c 0.185003,-0.388458 0.181573,-0.393716 -0.06007,-0.0921 -0.140954,0.175935 -0.256279,0.392225 -0.256279,0.480643 0,0.209375 0.07612,0.115888 0.316353,-0.388546 z m 1.846961,-2.760263 c 0.20498,-0.261369 0.199151,-0.267197 -0.06222,-0.06222 -0.158612,0.124392 -0.288386,0.254166 -0.288386,0.288386 0,0.135629 0.135325,0.04833 0.350604,-0.226168 z m 2.142294,-2.142293 c 0.204979,-0.26137 0.199151,-0.267198 -0.06222,-0.06222 -0.158613,0.124392 -0.288386,0.254165 -0.288386,0.288385 0,0.13563 0.135325,0.04833 0.350604,-0.226167 z m 17.282122,-1.43858 c 0,-0.09993 -1.260363,-0.747478 -1.435364,-0.737466 -0.07159,0.0041 0.203545,0.186136 0.611405,0.404533 0.830796,0.444868 0.823959,0.442106 0.823959,0.332933 z M 21.561818,12.15255 c -0.05074,-0.05074 -0.183709,-1.05e-4 -0.295493,0.112517 -0.16154,0.162751 -0.142611,0.181679 0.09225,0.09225 0.162521,-0.06188 0.25398,-0.154029 0.203243,-0.204766 z m 12.107839,-0.526202 c -0.135953,-0.08786 -0.321344,-0.159745 -0.41198,-0.159745 -0.09063,0 -0.05356,0.07188 0.0824,0.159745 0.135953,0.08786 0.321344,0.159745 0.41198,0.159745 0.09064,0 0.05356,-0.07188 -0.0824,-0.159745 z"
       id="path4168"
       inkscape:connector-curvature="0" />
    <path
       style="fill:#ed001d;fill-opacity:1;stroke:none;stroke-width:1.5;stroke-miterlimit:4;stroke-dasharray:none;stroke-opacity:1"
       d="M 24.504161,46.825774 C 18.936442,45.758658 13.914914,42.471104 10.76635,37.831741 9.2720051,35.629847 7.9553509,32.366904 7.5481794,29.856448 7.2616178,28.089622 7.2299656,25.0288 7.4796895,23.23335 8.6064706,15.132095 15.227647,8.0001693 23.376449,6.1103358 23.969519,5.9727937 25.33193,5.7769816 26.404028,5.6751977 36.434486,4.7229164 45.686135,11.196511 48.453083,21.103435 c 0.441319,1.580125 0.459434,1.792221 0.450254,5.271782 -0.0089,3.390882 -0.03788,3.730294 -0.447331,5.246512 -1.955489,7.241353 -7.944021,13.041062 -15.363121,14.878712 -2.078219,0.514757 -6.689119,0.689414 -8.588724,0.325333 z M 34.994557,40.46157 c 0.358931,-0.183114 0.652602,-0.370012 0.652602,-0.41533 0,-0.07383 -1.300847,0.533588 -1.469395,0.686122 -0.182403,0.165074 0.231218,0.02795 0.816793,-0.270792 z m 3.454063,-2.386133 c 0.307465,-0.317224 0.52195,-0.576772 0.476632,-0.576772 -0.04532,0 -0.333959,0.259548 -0.641424,0.576772 -0.307465,0.317224 -0.52195,0.576771 -0.476632,0.576771 0.04532,0 0.333959,-0.259547 0.641424,-0.576771 z m -6.039489,-0.89116 c 0.945965,-0.584638 1.04338,-1.008043 1.15643,-5.026353 0.05587,-1.985735 0.122235,-3.631086 0.147484,-3.656335 0.02525,-0.02525 0.915041,-0.112611 1.977317,-0.194135 2.068899,-0.158779 2.374748,-0.289712 2.857525,-1.223299 0.474607,-0.917789 0.312352,-1.478633 -0.882028,-3.048796 -6.693843,-8.799899 -7.469765,-9.750022 -8.185682,-10.023434 -0.834606,-0.318738 -1.800023,-0.138648 -2.480555,0.462726 -0.22726,0.200826 -2.335708,2.841839 -4.685441,5.868918 -2.919056,3.760517 -4.304546,5.675971 -4.37423,6.047418 -0.132735,0.707539 0.243616,1.602024 0.837332,1.990112 0.390327,0.255143 0.746601,0.294193 2.329734,0.25536 l 1.868939,-0.04584 -0.03293,3.843163 c -0.03592,4.192381 -0.0072,4.351051 0.890833,4.921918 0.497772,0.316425 0.719511,0.329737 4.267027,0.256162 3.451043,-0.07157 3.785997,-0.104816 4.308242,-0.427582 z m 8.202804,-1.457124 c 0.204979,-0.261369 0.199151,-0.267198 -0.06222,-0.06222 -0.158612,0.124394 -0.288386,0.254167 -0.288386,0.288386 0,0.13563 0.135325,0.04834 0.350605,-0.226167 z m -4.799984,-23.02386 c 0,-0.04213 -0.166852,-0.157454 -0.370782,-0.256279 -0.356054,-0.172543 -0.358074,-0.169501 -0.0509,0.0766 0.336218,0.269367 0.421681,0.305783 0.421681,0.179681 z"
       id="path4170"
       inkscape:connector-curvature="0" />
    <path
       style="fill:#ed001d;fill-opacity:1;stroke:none;stroke-width:1.5;stroke-miterlimit:4;stroke-dasharray:none;stroke-opacity:1"
       d="M 25.018086,46.952168 C 23.9344,46.782144 21.40799,46.028548 20.166889,45.505118 14.370239,43.0604 10.069931,38.362745 8.1612092,32.390119 7.5394683,30.444614 7.3029641,28.787105 7.3029641,26.375217 c 0,-4.353894 1.0978871,-8.015578 3.4629379,-11.549622 1.103151,-1.648416 3.986889,-4.543352 5.601922,-5.6236763 2.545319,-1.7026094 5.549304,-2.9148158 8.320678,-3.3576661 1.672052,-0.2671848 5.767348,-0.2703826 7.168445,-0.0056 7.707571,1.4566092 14.02227,7.0361868 16.368349,14.4628388 0.653526,2.068776 0.824028,3.708919 0.723289,6.95766 -0.07554,2.436144 -0.159622,3.15952 -0.519778,4.471797 -0.550556,2.006031 -2.093146,5.151797 -3.353576,6.838861 -3.023466,4.046859 -7.642365,7.015788 -12.582516,8.087769 -1.191013,0.258443 -6.397215,0.463627 -7.474629,0.294587 z m 9.969906,-6.48725 c 0.135953,-0.08786 0.173031,-0.159744 0.08239,-0.159744 -0.09063,0 -0.276026,0.07188 -0.411979,0.159744 -0.135953,0.08786 -0.173032,0.159745 -0.0824,0.159745 0.09063,0 0.276026,-0.07188 0.41198,-0.159745 z m 3.378232,-2.307085 c 0.164049,-0.181271 0.261192,-0.329584 0.215874,-0.329584 -0.04532,0 -0.216617,0.148313 -0.380666,0.329584 -0.164048,0.181271 -0.261192,0.329583 -0.215874,0.329583 0.04532,0 0.216617,-0.148312 0.380666,-0.329583 z m -5.957093,-0.973556 c 0.945965,-0.584638 1.04338,-1.008043 1.15643,-5.026353 0.05587,-1.985735 0.122235,-3.631086 0.147484,-3.656335 0.02525,-0.02525 0.915041,-0.112611 1.977317,-0.194135 2.068899,-0.158779 2.374748,-0.289712 2.857525,-1.223299 0.474607,-0.917789 0.312352,-1.478633 -0.882028,-3.048796 -6.693843,-8.799899 -7.469765,-9.750022 -8.185682,-10.023434 -0.834606,-0.318738 -1.800023,-0.138648 -2.480555,0.462726 -0.22726,0.200826 -2.335708,2.841839 -4.685441,5.868918 -2.919056,3.760517 -4.304546,5.675971 -4.37423,6.047418 -0.132735,0.707539 0.243616,1.602024 0.837332,1.990112 0.390327,0.255143 0.746601,0.294193 2.329734,0.25536 l 1.868939,-0.04584 -0.03293,3.843163 c -0.03592,4.192381 -0.0072,4.351051 0.890833,4.921918 0.497772,0.316425 0.719511,0.329737 4.267027,0.256162 3.451043,-0.07157 3.785997,-0.104816 4.308242,-0.427582 z"
       id="path4172"
       inkscape:connector-curvature="0" />
    <path
       style="fill:#ed001d;fill-opacity:1;stroke:none;stroke-width:1.5;stroke-miterlimit:4;stroke-dasharray:none;stroke-opacity:1"
       d="M 24.194127,46.785809 C 20.082719,45.916466 16.320132,43.887496 13.39666,40.96329 10.923362,38.489371 9.2064913,35.678952 8.1593525,32.390119 6.9365513,28.549569 7.0028634,23.487032 8.3255602,19.701148 10.783938,12.664664 16.939014,7.3345212 24.241948,5.9179525 26.02776,5.571554 30.113326,5.5302329 31.856947,5.840935 c 4.934111,0.8792272 9.720015,3.7538024 12.756242,7.661828 1.910039,2.458472 3.138774,4.914797 3.922439,7.841228 0.421764,1.574983 0.591962,6.164761 0.307789,8.300201 -0.379003,2.848025 -1.921078,6.483905 -3.817316,9.000403 -3.370475,4.472959 -8.793,7.648336 -14.075509,8.24248 -2.096411,0.235791 -5.396323,0.186332 -6.756465,-0.101266 z m 8.215004,-9.601532 c 0.945965,-0.584638 1.04338,-1.008043 1.15643,-5.026353 0.05587,-1.985735 0.122235,-3.631086 0.147484,-3.656335 0.02525,-0.02525 0.915041,-0.112611 1.977317,-0.194135 2.068899,-0.158779 2.374748,-0.289712 2.857525,-1.223299 0.474607,-0.917789 0.312352,-1.478633 -0.882028,-3.048796 -6.693843,-8.799899 -7.469765,-9.750022 -8.185682,-10.023434 -0.834606,-0.318738 -1.800023,-0.138648 -2.480555,0.462726 -0.22726,0.200826 -2.335708,2.841839 -4.685441,5.868918 -2.919056,3.760517 -4.304546,5.675971 -4.37423,6.047418 -0.132735,0.707539 0.243616,1.602024 0.837332,1.990112 0.390327,0.255143 0.746601,0.294193 2.329734,0.25536 l 1.868939,-0.04584 -0.03293,3.843163 c -0.03592,4.192381 -0.0072,4.351051 0.890833,4.921918 0.497772,0.316425 0.719511,0.329737 4.267027,0.256162 3.451043,-0.07157 3.785997,-0.104816 4.308242,-0.427582 z"
       id="path4174"
       inkscape:connector-curvature="0" />
    <path
       style="fill:#ed001d;fill-opacity:1;stroke:none;stroke-width:1.5;stroke-miterlimit:4;stroke-dasharray:none;stroke-opacity:1"
       d="M 24.266793,46.810121 C 17.957377,45.552172 12.287638,41.239588 9.425621,35.521453 7.9372668,32.547813 7.3025775,29.818035 7.3036268,26.394829 7.304763,22.68814 7.9433843,20.002747 9.5805629,16.820348 10.594052,14.850297 11.900776,13.148931 13.77002,11.365639 16.797776,8.4771064 20.199631,6.7065883 24.241948,5.9154545 c 2.015511,-0.3944617 6.215443,-0.3870337 8.109374,0.014342 4.118018,0.8727208 7.720267,2.8407993 10.711469,5.8521813 3.000769,3.021013 5.010461,6.794738 5.688177,10.68105 0.286681,1.643953 0.322524,5.541136 0.06808,7.402091 -0.331899,2.427412 -1.572251,5.502257 -3.236464,8.023225 -1.033288,1.565234 -3.934731,4.46061 -5.553094,5.541481 -2.740065,1.830031 -5.990216,3.085773 -8.914104,3.444085 -1.953219,0.239362 -5.493488,0.206387 -6.848591,-0.06379 z m 8.142338,-9.625844 c 0.945965,-0.584638 1.04338,-1.008043 1.15643,-5.026353 0.05587,-1.985735 0.122235,-3.631086 0.147484,-3.656335 0.02525,-0.02525 0.915041,-0.112611 1.977317,-0.194135 2.068899,-0.158779 2.374748,-0.289712 2.857525,-1.223299 0.474607,-0.917789 0.312352,-1.478633 -0.882028,-3.048796 -6.693843,-8.799899 -7.469765,-9.750022 -8.185682,-10.023434 -0.834606,-0.318738 -1.800023,-0.138648 -2.480555,0.462726 -0.22726,0.200826 -2.335708,2.841839 -4.685441,5.868918 -2.919056,3.760517 -4.304546,5.675971 -4.37423,6.047418 -0.132735,0.707539 0.243616,1.602024 0.837332,1.990112 0.390327,0.255143 0.746601,0.294193 2.329734,0.25536 l 1.868939,-0.04584 -0.03293,3.843163 c -0.03592,4.192381 -0.0072,4.351051 0.890833,4.921918 0.497772,0.316425 0.719511,0.329737 4.267027,0.256162 3.451043,-0.07157 3.785997,-0.104816 4.308242,-0.427582 z"
       id="path4176"
       inkscape:connector-curvature="0" />
    <path
       style="fill:#ed001d;fill-opacity:1;stroke:none;stroke-width:1.5;stroke-miterlimit:4;stroke-dasharray:none;stroke-opacity:1"
       d="M 23.946939,46.732464 C 16.138242,45.054821 9.918032,39.130632 7.8506727,31.402223 7.3363617,29.479574 7.147934,25.577333 7.4571906,23.25341 c 0.3977003,-2.988539 1.9179592,-6.630049 3.8238524,-9.159361 1.20221,-1.595452 3.705511,-3.995025 5.213718,-4.9976787 1.674926,-1.1134888 4.329041,-2.3349344 6.105883,-2.8099776 2.997188,-0.8013059 6.923956,-0.9306682 9.888159,-0.3257525 6.076813,1.2401175 11.6947,5.5891458 14.519821,11.2403708 0.720137,1.440525 1.616397,4.185528 1.814789,5.558215 0.248331,1.71823 0.209219,5.913911 -0.06999,7.508211 -0.689702,3.938192 -2.811725,7.81545 -5.926444,10.828512 -3.285881,3.178638 -7.5112,5.263217 -11.711593,5.777961 -2.253277,0.276132 -5.525316,0.21157 -7.168445,-0.141446 z m 8.462192,-9.548187 c 0.945965,-0.584638 1.04338,-1.008043 1.15643,-5.026353 0.05587,-1.985735 0.122235,-3.631086 0.147484,-3.656335 0.02525,-0.02525 0.915041,-0.112611 1.977317,-0.194135 2.068899,-0.158779 2.374748,-0.289712 2.857525,-1.223299 0.474607,-0.917789 0.312352,-1.478633 -0.882028,-3.048796 -6.693843,-8.799899 -7.469765,-9.750022 -8.185682,-10.023434 -0.834606,-0.318738 -1.800023,-0.138648 -2.480555,0.462726 -0.22726,0.200826 -2.335708,2.841839 -4.685441,5.868918 -2.919056,3.760517 -4.304546,5.675971 -4.37423,6.047418 -0.132735,0.707539 0.243616,1.602024 0.837332,1.990112 0.390327,0.255143 0.746601,0.294193 2.329734,0.25536 l 1.868939,-0.04584 -0.03293,3.843163 c -0.03592,4.192381 -0.0072,4.351051 0.890833,4.921918 0.497772,0.316425 0.719511,0.329737 4.267027,0.256162 3.451043,-0.07157 3.785997,-0.104816 4.308242,-0.427582 z"
       id="path4178"
       inkscape:connector-curvature="0" />
    <path
       style="fill:#ed001d;fill-opacity:1;stroke:none;stroke-width:1.5;stroke-miterlimit:4;stroke-dasharray:none;stroke-opacity:1"
       d="M 24.453954,46.86978 C 23.033312,46.634074 20.264705,45.643627 18.535138,44.752375 12.821669,41.808199 8.6329437,36.183403 7.5563139,30.009551 7.2334611,28.158174 7.2278672,24.457099 7.5451872,22.647789 c 0.5007034,-2.854934 1.9281003,-6.133721 3.7158668,-8.535492 1.165212,-1.565402 3.705469,-3.999956 5.233707,-5.0159267 1.68329,-1.1190494 4.331609,-2.3355895 6.133843,-2.8176615 10.235485,-2.7378471 20.69106,2.3389759 24.893879,12.0875052 1.097402,2.545446 1.32699,3.681782 1.425303,7.054486 0.09991,3.427485 -0.06865,4.976067 -0.785518,7.216606 -1.006489,3.145746 -2.827339,6.032545 -5.335291,8.458643 -3.248317,3.1423 -7.54255,5.273668 -11.66732,5.790871 -1.60866,0.201708 -5.446047,0.191957 -6.705703,-0.01704 z m 7.955177,-9.685503 c 0.945965,-0.584638 1.04338,-1.008043 1.15643,-5.026353 0.05587,-1.985735 0.122235,-3.631086 0.147484,-3.656335 0.02525,-0.02525 0.915041,-0.112611 1.977317,-0.194135 2.068899,-0.158779 2.374748,-0.289712 2.857525,-1.223299 0.474607,-0.917789 0.312352,-1.478633 -0.882028,-3.048796 -6.693843,-8.799899 -7.469765,-9.750022 -8.185682,-10.023434 -0.834606,-0.318738 -1.800023,-0.138648 -2.480555,0.462726 -0.22726,0.200826 -2.335708,2.841839 -4.685441,5.868918 -2.919056,3.760517 -4.304546,5.675971 -4.37423,6.047418 -0.132735,0.707539 0.243616,1.602024 0.837332,1.990112 0.390327,0.255143 0.746601,0.294193 2.329734,0.25536 l 1.868939,-0.04584 -0.03293,3.843163 c -0.03592,4.192381 -0.0072,4.351051 0.890833,4.921918 0.497772,0.316425 0.719511,0.329737 4.267027,0.256162 3.451043,-0.07157 3.785997,-0.104816 4.308242,-0.427582 z"
       id="path4180"
       inkscape:connector-curvature="0" />
    <path
       style="fill:#ed001d;fill-opacity:1;stroke:none;stroke-width:1.5;stroke-miterlimit:4;stroke-dasharray:none;stroke-opacity:1"
       d="M 24.111731,46.800332 C 17.7012,45.423495 12.08777,41.06112 9.2798082,35.273976 7.862807,32.353568 7.3029641,29.810102 7.3029641,26.292821 c 0,-3.665695 0.5858723,-6.154348 2.187071,-9.290182 1.0867099,-2.128245 2.3496239,-3.798356 4.2556369,-5.627768 3.402708,-3.2659565 7.516301,-5.1922975 12.168435,-5.698316 6.437769,-0.7002442 12.457344,1.4244799 17.076769,6.027572 3.004528,2.993905 5.091254,6.838646 5.771414,10.63369 0.29197,1.629086 0.288463,6.298548 -0.006,7.94993 -0.483794,2.713443 -1.756328,5.642352 -3.509169,8.076835 -1.152391,1.600533 -3.677274,4.048031 -5.278861,5.117075 -2.588778,1.727982 -6.024224,3.056027 -8.808631,3.405163 -1.893334,0.237404 -5.760864,0.189944 -7.047926,-0.08649 l -6e-6,0 z m 8.2974,-9.616055 c 0.945965,-0.584638 1.04338,-1.008043 1.15643,-5.026353 0.05587,-1.985735 0.122235,-3.631086 0.147484,-3.656335 0.02525,-0.02525 0.915041,-0.112611 1.977317,-0.194135 2.068899,-0.158779 2.374748,-0.289712 2.857525,-1.223299 0.474607,-0.917789 0.312352,-1.478633 -0.882028,-3.048796 -6.693843,-8.799899 -7.469765,-9.750022 -8.185682,-10.023434 -0.834606,-0.318738 -1.800023,-0.138648 -2.480555,0.462726 -0.22726,0.200826 -2.335708,2.841839 -4.685441,5.868918 -2.919056,3.760517 -4.304546,5.675971 -4.37423,6.047418 -0.132735,0.707539 0.243616,1.602024 0.837332,1.990112 0.390327,0.255143 0.746601,0.294193 2.329734,0.25536 l 1.868939,-0.04584 -0.03293,3.843163 c -0.03592,4.192381 -0.0072,4.351051 0.890833,4.921918 0.497772,0.316425 0.719511,0.329737 4.267027,0.256162 3.451043,-0.07157 3.785997,-0.104816 4.308242,-0.427582 z"
       id="path4182"
       inkscape:connector-curvature="0" />
    <g
       id="g4179"
       transform="translate(-59.303989,-15.251352)">
      <g
         inkscape:label="Arrow"
         id="layer2-9"
         transform="matrix(0.99675797,0,0,1.1852613,23.445258,-6.5526683)">
        <a
           transform="matrix(0.71980937,0.69417179,-0.69417179,0.71980937,-15.390507,-61.605388)"
           id="a3347-3">
          <rect
             rx="1.7882733"
             ry="2.4326894"
             transform="matrix(0.71980937,-0.69417179,0.69417179,0.71980937,0,0)"
             y="99.849274"
             x="64.832817"
             height="4.8653789"
             width="30.423378"
             id="rect4189"
             style="fill:#000000;fill-opacity:1;stroke:#000000;stroke-width:1.13462114;stroke-linecap:round;stroke-linejoin:round;stroke-miterlimit:4;stroke-dasharray:none;stroke-opacity:1" />
        </a>
      </g>
    </g>
  </g>
  <g
     inkscape:groupmode="layer"
     id="layer2"
     inkscape:label="Arrow" />
</svg>
