<?xml version="1.0" encoding="UTF-8" standalone="no"?>
<svg
   width="392.92551"
   height="680.71643"
   version="1.1"
   id="svg95"
   sodipodi:docname="Comment_block_DebuggingMd.svg"
   inkscape:version="1.4 (86a8ad7, 2024-10-11)"
   xmlns:inkscape="http://www.inkscape.org/namespaces/inkscape"
   xmlns:sodipodi="http://sodipodi.sourceforge.net/DTD/sodipodi-0.dtd"
   xmlns="http://www.w3.org/2000/svg"
   xmlns:svg="http://www.w3.org/2000/svg">
  <defs
     id="defs95" />
  <sodipodi:namedview
     id="namedview95"
     pagecolor="#ffffff"
     bordercolor="#999999"
     borderopacity="1"
     inkscape:showpageshadow="2"
     inkscape:pageopacity="0"
     inkscape:pagecheckerboard="0"
     inkscape:deskcolor="#d1d1d1"
     inkscape:zoom="2"
     inkscape:cx="309"
     inkscape:cy="187.25"
     inkscape:window-width="1920"
     inkscape:window-height="1001"
     inkscape:window-x="-9"
     inkscape:window-y="-9"
     inkscape:window-maximized="1"
     inkscape:current-layer="g94" />
  <g
     id="g8"
     transform="translate(-230.77861,-66.260217)">
    <g
       transform="translate(231,67)"
       id="g2">
      <g
         transform="scale(1.5)"
         id="g1">
        <path
           d="m 0.5,14.5 v -4 a 4,4 90 0 1 4,-4 h 4 l 5,-6 5,6 h 9 60 4 a 4,4 90 0 1 4,4 v 4 4 4 a 4,4 90 0 1 -4,4 h -4 -60 -1 v 2 h -8 v -2 h -1 -4 a 5,5 90 0 0 -5,5 v 4 4 378 4 a 5,5 90 0 0 5,5 h 4 v 2 h 10 v -2 h 8 v 6 6 4 a 4,4 90 0 1 -4,4 h -4 -9 l -5,6 -5,-6 h -4 a 4,4 90 0 1 -4,-4 v -4 z"
           style="fill:#f3c800;fill-opacity:1;stroke:#daaf30;stroke-width:1;stroke-linecap:round;stroke-opacity:1"
           id="path1" />
        <text
           style="font-size:10px;font-family:sans-serif;text-anchor:start;fill:#282828"
           id="text1"><tspan
             x="20"
             y="22"
             id="tspan1">start</tspan></text>
      </g>
    </g>
    <g
       transform="matrix(0.5,0,0,0.5,231,79)"
       id="g6">
      <g
         style="isolation:isolate"
         id="g5">
        <g
           id="レイヤー_2"
           data-name="レイヤー 2">
          <g
             id="Icon">
            <rect
               width="42"
               height="42"
               rx="5"
               ry="5"
               style="opacity:0.4;mix-blend-mode:multiply;fill:#292929"
               id="rect2"
               x="0"
               y="0" />
            <path
               d="m 30.56,29.8 -4.17,-4.16 h 2.26 a 1.035,1.035 0 1 0 0,-2.07 h -4.71 a 1.08,1.08 0 0 0 -1.11,1 v 0 c 0,0 0,0 0,0.06 v 4.64 0 a 1.04,1.04 0 1 0 2.08,0 v -2.19 l 4.19,4.19 a 1,1 0 0 0 1.46,0 1,1 0 0 0 0,-1.47 z"
               style="fill:#ffffff"
               id="path2" />
            <path
               d="m 19.17,24.6 a 1.08,1.08 0 0 0 -1.11,-1 h -4.71 a 1.035,1.035 0 1 0 0,2.07 h 2.25 l -4.16,4.13 a 1.039447,1.039447 0 0 0 1.47,1.47 l 4.18,-4.19 v 2.26 a 1.04,1.04 0 1 0 2.08,0 V 24.7 c 0,0 0,0 0,-0.06 a 0.08,0.08 0 0 1 0,-0.04 z"
               style="fill:#ffffff"
               id="path3" />
            <path
               d="m 23.94,20.5 h 4.7 a 1.04,1.04 0 1 0 0,-2.08 h -2.25 l 4.17,-4.16 a 1,1 0 0 0 0,-1.47 1,1 0 0 0 -1.46,0 L 24.91,17 v -2.28 a 1.04,1.04 0 1 0 -2.08,0 v 4.64 a 0.43,0.43 0 0 0 0,0.05 v 0.05 a 1.09,1.09 0 0 0 1.11,1.04 z"
               style="fill:#ffffff"
               id="path4" />
            <path
               d="m 18.13,13.62 a 1.08,1.08 0 0 0 -1,1.09 V 17 l -4.18,-4.19 a 1,1 0 0 0 -1.47,0 1,1 0 0 0 0,1.46 l 4.16,4.17 h -2.29 a 1.04,1.04 0 1 0 0,2.08 h 4.71 a 1.09,1.09 0 0 0 1.11,-1 c 0,0 0,0 0,-0.06 v -4.75 a 1.07,1.07 0 0 0 -1.04,-1.09 z"
               style="fill:#ffffff"
               id="path5" />
          </g>
        </g>
      </g>
    </g>
    <g
       transform="matrix(0.4,0,0,0.4,341,79)"
       id="g7">
      <g
         transform="translate(-3.1884835,0.12548216)"
         style="fill:#ffada6;stroke:#ed001d;stroke-width:2;stroke-miterlimit:4;stroke-dasharray:none"
         id="g3586">
        <path
           style="fill:#ffada6;stroke:none;stroke-width:1px;stroke-linecap:butt;stroke-linejoin:miter;stroke-opacity:1"
           id="path4725"
           d="m 31.188483,5.8745178 c 0,0 -1.254644,-1 -2,-1 -1.490712,0 -2.945907,0.9459074 -4,2 -1.581139,1.5811389 -1.692548,4.1860072 -3,6.0000002 -0.826905,1.14727 -1.85273,2.173095 -3,3 -1.813992,1.307452 -4.41886,1.418861 -5.999999,3 -1.054093,1.054093 -2,2.509288 -2,4 0,1.490712 1.176934,3.540162 2,4 2.595129,1.449868 0.836609,0.648512 2,2 0,0 -1.040434,3.300808 -1,5 0.06539,2.747959 1.999999,7 1.999999,8 0,1 3.621931,4.46873 6,6 2.394526,1.541867 5.323775,2.059095 8.164792,2.258437 3.065644,0.215103 5.976447,-0.356365 8.670416,-1.835208 1.652944,-0.907377 3.020234,-1.924716 4.164792,-3.423229 1.631246,-2.13571 3.310226,-4.40261 4,-7 0.42778,-1.610833 0.203639,-3.345821 0,-5 -0.167925,-1.364071 -1.27205,-2.652826 -1,-4 0.329909,-1.633688 2.319717,-2.47849 3,-4 0.693755,-1.551642 1.687609,-3.445625 1,-5 -0.786311,-1.777496 -3.357594,-1.960634 -5,-3 -1.015577,-0.642689 -2.106041,-1.196706 -3,-2 -1.93647,-1.740075 -3.442391,-3.913943 -5,-6.0000002 -0.71906,-0.9630146 -1.044881,-2.2704844 -2,-3 -0.837694,-0.6398275 -1.974105,-1.2421808 -3,-1 -0.458794,0.1083066 -1,1 -1,1" />
        <path
           d="m 46.209786,28.156906 c 0,0 1.463947,5.738921 1.001084,8.583832 -0.503422,3.094194 -1.733796,6.320068 -4.004337,8.583833 -2.061998,2.055845 -3.20724,2.828474 -6.006505,3.815036 -1.290398,0.454783 -4.973515,0.953759 -6.514048,0.953759 -1.540535,0 -5.223651,-0.498977 -6.514049,-0.95376 -2.799265,-0.986562 -3.944507,-1.759191 -6.006506,-3.815036 -2.270541,-2.263765 -3.500915,-5.489639 -4.004337,-8.583833 -0.462863,-2.844911 1.001084,-8.583832 1.001084,-8.583832 M 28.176267,22.43435 c 0,0 -4.122174,4.705629 -7.007589,5.722555 -1.877805,0.661806 -4.201946,0.826315 -6.006506,0 -1.925806,-0.881834 -3.58357,-2.772978 -4.004337,-4.768796 -0.478397,-2.26917 0.558956,-4.123549 2.470477,-5.529022 2.067374,-1.520067 4.598363,-1.662883 6.539282,-3.054811 2.515152,-1.803739 2.912345,-5.389772 5.005421,-7.6300732 1.420632,-1.520559 5.512965,-3.8150366 5.512965,-3.8150366 0,0 4.092331,2.2944775 5.512964,3.8150365 2.093073,2.2403013 2.490269,5.8263353 5.005421,7.6300743 1.940919,1.391928 4.538808,1.465531 6.606183,2.927334 1.937249,1.369793 2.881973,3.387329 2.403575,5.656499 -0.420767,1.995818 -2.078532,3.886962 -4.004337,4.768796 -1.80456,0.826315 -4.1287,0.661806 -6.006505,0 -2.885416,-1.016926 -7.00759,-5.722555 -7.00759,-5.722555"
           id="path4505-6"
           style="fill:none;stroke:#ed001d;stroke-width:1.95427;stroke-linecap:round;stroke-linejoin:miter;stroke-miterlimit:4;stroke-dasharray:none;stroke-opacity:1" />
        <g
           id="g4565"
           transform="matrix(1.0010843,0,0,0.95375917,57.401951,5.3863652)"
           style="fill:none;stroke:#ed001d;stroke-opacity:1">
          <g
             id="g4553"
             transform="translate(0,-1)"
             style="fill:none;stroke:#ed001d;stroke-opacity:1">
            <path
               d="M -30.228157,8.514322 C -33.422908,9.40349 -38.624018,5.874516 -40.102591,4.585664"
               id="path3411-7"
               style="fill:none;fill-rule:evenodd;stroke:#ed001d;stroke-width:1.93205;stroke-linecap:butt;stroke-linejoin:miter;stroke-miterlimit:4;stroke-dasharray:none;stroke-opacity:1" />
            <path
               d="M -29.760199,5.904536 C -33.101366,5.473905 -35.931474,3.7361852 -37.633646,2.3416285"
               id="path3413-5"
               style="fill:none;fill-rule:evenodd;stroke:#ed001d;stroke-width:1.93205;stroke-linecap:butt;stroke-linejoin:miter;stroke-miterlimit:4;stroke-dasharray:none;stroke-opacity:1" />
          </g>
          <g
             id="g4557"
             style="fill:none;stroke:#ed001d;stroke-opacity:1">
            <path
               d="m -23.145912,7.514322 c 3.194751,0.889168 8.395861,-2.639806 9.874434,-3.928658"
               id="path3411-3"
               style="fill:none;fill-rule:evenodd;stroke:#ed001d;stroke-width:1.93205;stroke-linecap:butt;stroke-linejoin:miter;stroke-miterlimit:4;stroke-dasharray:none;stroke-opacity:1" />
            <path
               d="m -23.61387,4.904536 c 3.341167,-0.430631 6.171275,-2.168351 7.873447,-3.5629075"
               id="path3413-56"
               style="fill:none;fill-rule:evenodd;stroke:#ed001d;stroke-width:1.93205;stroke-linecap:butt;stroke-linejoin:miter;stroke-miterlimit:4;stroke-dasharray:none;stroke-opacity:1" />
          </g>
        </g>
        <g
           id="g4636"
           transform="matrix(1.0010843,0,0,0.95375917,57.930597,3.4788469)"
           style="fill:#ffffff;fill-opacity:0.941176;stroke:#ed001d;stroke-opacity:1">
          <ellipse
             cx="-30.836912"
             cy="14.612609"
             id="circle3409-2"
             rx="1.8846371"
             ry="2.0666313"
             style="fill:#ffffff;fill-opacity:0.941176;fill-rule:evenodd;stroke:#ed001d;stroke-width:2;stroke-linecap:butt;stroke-linejoin:miter;stroke-miterlimit:4;stroke-dasharray:none;stroke-opacity:1" />
          <ellipse
             cx="-23.593306"
             cy="14.699166"
             id="ellipse4229-9"
             rx="1.8846371"
             ry="2.0666313"
             style="fill:#ffffff;fill-opacity:0.941176;fill-rule:evenodd;stroke:#ed001d;stroke-width:2;stroke-linecap:butt;stroke-linejoin:miter;stroke-miterlimit:4;stroke-dasharray:none;stroke-opacity:1" />
        </g>
        <g
           id="g4632"
           transform="matrix(1.0010843,0,0,0.95375917,58.02711,3.4788469)"
           style="fill:none;stroke:#ed001d;stroke-opacity:1">
          <path
             d="m -37.186516,14.624518 c -14.340024,2.75008 -4.810404,15.671871 4.375,5.25"
             id="path4303-1"
             style="fill:none;fill-rule:evenodd;stroke:#ed001d;stroke-width:1px;stroke-linecap:butt;stroke-linejoin:miter;stroke-miterlimit:4;stroke-dasharray:none;stroke-opacity:1" />
          <path
             d="m -17.436517,14.624518 c 14.3400245,2.75008 4.810404,15.671872 -4.375,5.25"
             id="path4303-1-2"
             style="fill:none;fill-rule:evenodd;stroke:#ed001d;stroke-width:1px;stroke-linecap:butt;stroke-linejoin:miter;stroke-miterlimit:4;stroke-dasharray:none;stroke-opacity:1" />
        </g>
        <path
           d="m 33.12784,3.3591671 c -1.384692,1.3140551 -1.985761,2.3793068 -2.459835,2.3793068 -0.662709,0 -1.27278,-1.0652517 -2.459836,-2.3793068 -0.97292,-1.0770097 1.101306,-2.37930771 2.459836,-2.37930771 1.358531,0 3.532987,1.36090081 2.459835,2.37930771 z"
           id="path4227-7"
           style="fill:#ed001d;fill-opacity:1;fill-rule:evenodd;stroke:#ed001d;stroke-width:2.16383;stroke-linecap:butt;stroke-linejoin:miter;stroke-miterlimit:4;stroke-dasharray:none;stroke-opacity:1" />
        <path
           style="fill:none;stroke:#ed001d;stroke-width:1.95427;stroke-linecap:round;stroke-linejoin:miter;stroke-miterlimit:4;stroke-dasharray:none;stroke-opacity:1"
           id="path4653"
           d="m 31.302308,50.085622 c 0,0 0.723125,3.123831 5.500191,3.669996 4.777067,0.546166 11.784656,-3.778776 14.78791,-9.501331 3.003254,-5.722555 2.402683,-11.490783 3.003253,-18.121425" />
      </g>
    </g>
  </g>
  <g
     transform="translate(14.221384,73.739783)"
     id="g10">
    <g
       transform="scale(1.5)"
       id="g9">
      <path
         d="m 0.5,8.5 v -4 a 4,4 90 0 1 4,-4 h 4 v 2 h 10 v -2 h 9 72.80273 4 a 4,4 90 0 1 4,4 v 4 h -4 v -3 h -4 v 10 h 4 v -3 h 4 v 4 a 4,4 90 0 1 -4,4 h -4 H 27.5 h -1 v 2 h -8 v -2 h -1 -4 a 5,5 90 0 0 -5,5 v 4 4 294 4 a 5,5 90 0 0 5,5 h 4 v 2 h 10 v -2 h 8 v 6 6 4 a 4,4 90 0 1 -4,4 h -4 -9 -1 v 2 h -8 v -2 h -1 -4 a 4,4 90 0 1 -4,-4 v -4 z"
         style="fill:#3edcdd;fill-opacity:1;stroke:#1dbcbd;stroke-width:1;stroke-linecap:round;stroke-opacity:1"
         id="path8" />
      <text
         style="font-size:10px;font-family:sans-serif;text-anchor:start;fill:#282828"
         id="text8"><tspan
           x="5"
           y="15"
           id="tspan8">set instrument</tspan></text>
      <text
         style="font-size:6.66667px;font-family:sans-serif;text-anchor:end;fill:#282828"
         id="text9"><tspan
           x="98"
           y="12"
           id="tspan9" /></text>
    </g>
  </g>
  <g
     transform="translate(165.22139,73.739783)"
     id="g12">
    <g
       transform="scale(1.5)"
       id="g11">
      <path
         d="m 8.5,0.5 h 142.80273 v 20 H 8.5 v -8 -1 h -6 v 3 h -2 v -8 h 2 v 3 h 6 v -1 z"
         style="fill:#3edcdd;fill-opacity:1;stroke:#1dbcbd;stroke-width:1;stroke-linecap:round;stroke-opacity:1"
         id="path10" />
      <text
         style="font-size:10px;font-family:sans-serif;text-anchor:start;fill:#282828"
         id="text10"><tspan
           x="13"
           y="14"
           id="tspan10">guitar</tspan></text>
    </g>
  </g>
  <g
     id="g21"
     transform="translate(-230.77861,-66.260217)">
    <g
       transform="translate(259,172)"
       id="g14">
      <g
         transform="scale(1.5)"
         id="g13">
        <path
           d="m 0.5,8.5 v -4 a 4,4 90 0 1 4,-4 h 4 v 2 h 10 v -2 h 9 40 4 a 4,4 90 0 1 4,4 v 4 h -4 v -3 h -4 v 10 h 4 v -3 h 4 v 4 a 4,4 90 0 1 -4,4 h -4 -40 -1 v 2 h -8 v -2 h -1 -4 a 5,5 90 0 0 -5,5 v 4 4 42 4 a 5,5 90 0 0 5,5 h 4 v 2 h 10 v -2 h 8 v 6 6 4 a 4,4 90 0 1 -4,4 h -4 -9 -1 v 2 h -8 v -2 h -1 -4 a 4,4 90 0 1 -4,-4 v -4 z"
           style="fill:#ff8700;fill-opacity:1;stroke:#e86b0e;stroke-width:1;stroke-linecap:round;stroke-opacity:1"
           id="path12" />
        <text
           style="font-size:10px;font-family:sans-serif;text-anchor:start;fill:#282828"
           id="text12"><tspan
             x="20"
             y="15"
             id="tspan12">note</tspan></text>
        <text
           style="font-size:6.66667px;font-family:sans-serif;text-anchor:end;fill:#282828"
           id="text13"><tspan
             x="65"
             y="12"
             id="tspan13">value</tspan></text>
      </g>
    </g>
    <g
       transform="matrix(0.5,0,0,0.5,259,176)"
       id="g20">
      <g
         style="isolation:isolate"
         id="g19">
        <g
           id="g18"
           data-name="レイヤー 2">
          <g
             id="g17">
            <rect
               width="42"
               height="42"
               rx="5"
               ry="5"
               style="opacity:0.4;mix-blend-mode:multiply;fill:#292929"
               id="rect14"
               x="0"
               y="0" />
            <path
               d="m 30.56,29.8 -4.17,-4.16 h 2.26 a 1.035,1.035 0 1 0 0,-2.07 h -4.71 a 1.08,1.08 0 0 0 -1.11,1 v 0 c 0,0 0,0 0,0.06 v 4.64 0 a 1.04,1.04 0 1 0 2.08,0 v -2.19 l 4.19,4.19 a 1,1 0 0 0 1.46,0 1,1 0 0 0 0,-1.47 z"
               style="fill:#ffffff"
               id="path14" />
            <path
               d="m 19.17,24.6 a 1.08,1.08 0 0 0 -1.11,-1 h -4.71 a 1.035,1.035 0 1 0 0,2.07 h 2.25 l -4.16,4.13 a 1.039447,1.039447 0 0 0 1.47,1.47 l 4.18,-4.19 v 2.26 a 1.04,1.04 0 1 0 2.08,0 V 24.7 c 0,0 0,0 0,-0.06 a 0.08,0.08 0 0 1 0,-0.04 z"
               style="fill:#ffffff"
               id="path15" />
            <path
               d="m 23.94,20.5 h 4.7 a 1.04,1.04 0 1 0 0,-2.08 h -2.25 l 4.17,-4.16 a 1,1 0 0 0 0,-1.47 1,1 0 0 0 -1.46,0 L 24.91,17 v -2.28 a 1.04,1.04 0 1 0 -2.08,0 v 4.64 a 0.43,0.43 0 0 0 0,0.05 v 0.05 a 1.09,1.09 0 0 0 1.11,1.04 z"
               style="fill:#ffffff"
               id="path16" />
            <path
               d="m 18.13,13.62 a 1.08,1.08 0 0 0 -1,1.09 V 17 l -4.18,-4.19 a 1,1 0 0 0 -1.47,0 1,1 0 0 0 0,1.46 l 4.16,4.17 h -2.29 a 1.04,1.04 0 1 0 0,2.08 h 4.71 a 1.09,1.09 0 0 0 1.11,-1 c 0,0 0,0 0,-0.06 v -4.75 a 1.07,1.07 0 0 0 -1.04,-1.09 z"
               style="fill:#ffffff"
               id="path17" />
          </g>
        </g>
      </g>
    </g>
  </g>
  <g
     transform="translate(130.22139,105.73978)"
     id="g24">
    <g
       transform="scale(1.5)"
       id="g23">
      <path
         d="m 8.5,8.5 v -4 a 4,4 90 0 1 4,-4 h 4 10 30 4 a 4,4 90 0 1 4,4 v 4 h -4 v -3 h -4 v 10 h 4 v -3 h 4 v 17 h -4 v -3 h -4 v 10 h 4 v -3 h 4 v 4 a 4,4 90 0 1 -4,4 h -4 -30 -10 -4 a 4,4 90 0 1 -4,-4 v -4 -21 -1 h -6 v 3 h -2 v -8 h 2 v 3 h 6 z"
         style="fill:#ff6ea1;fill-opacity:1;stroke:#ff2c76;stroke-width:1;stroke-linecap:round;stroke-opacity:1"
         id="path21" />
      <text
         style="font-size:9px;font-family:sans-serif;text-anchor:end;fill:#282828"
         id="text21"><tspan
           x="54"
           y="23"
           id="tspan21">/</tspan></text>
      <text
         style="font-size:6px;font-family:sans-serif;text-anchor:end;fill:#282828"
         id="text22"><tspan
           x="54"
           y="12"
           id="tspan22" /></text>
      <text
         style="font-size:6px;font-family:sans-serif;text-anchor:end;fill:#282828"
         id="text23"><tspan
           x="54"
           y="33"
           id="tspan23" /></text>
    </g>
  </g>
  <g
     transform="translate(216.22139,105.73978)"
     id="g26">
    <g
       transform="scale(1.5)"
       id="g25">
      <path
         d="m 8.5,0.5 h 63.90625 v 20 H 8.5 v -8 -1 h -6 v 3 h -2 v -8 h 2 v 3 h 6 v -1 z"
         style="fill:#ff6ea1;fill-opacity:1;stroke:#ff2c76;stroke-width:1;stroke-linecap:round;stroke-opacity:1"
         id="path24" />
      <text
         style="font-size:10px;font-family:sans-serif;text-anchor:start;fill:#282828"
         id="text24"><tspan
           x="13"
           y="14"
           id="tspan24">1</tspan></text>
    </g>
  </g>
  <g
     transform="translate(216.22139,137.73978)"
     id="g28">
    <g
       transform="scale(1.5)"
       id="g27">
      <path
         d="m 8.5,0.5 h 63.90625 v 20 H 8.5 v -8 -1 h -6 v 3 h -2 v -8 h 2 v 3 h 6 v -1 z"
         style="fill:#ff6ea1;fill-opacity:1;stroke:#ff2c76;stroke-width:1;stroke-linecap:round;stroke-opacity:1"
         id="path26" />
      <text
         style="font-size:10px;font-family:sans-serif;text-anchor:start;fill:#282828"
         id="text26"><tspan
           x="13"
           y="14"
           id="tspan26">4</tspan></text>
    </g>
  </g>
  <g
     transform="translate(42.221384,137.73978)"
     id="g30">
    <g
       transform="scale(1.5)"
       id="g29">
      <path
         d="m 0.5,8.5 v -4 a 4,4 90 0 1 4,-4 h 4 v 2 h 10 v -2 h 20 4 a 4,4 90 0 1 4,4 v 4 4 4 a 4,4 90 0 1 -4,4 h -4 -20 -1 v 2 h -8 v -2 h -1 -4 a 4,4 90 0 1 -4,-4 v -4 z"
         style="fill:#c4c4c4;fill-opacity:1;stroke:#a0a0a0;stroke-width:1;stroke-linecap:round;stroke-opacity:1"
         id="path28" />
      <text
         style="font-size:10px;font-family:sans-serif;text-anchor:end;fill:#282828"
         id="text28"><tspan
           x="36"
           y="14"
           id="tspan28">↓</tspan></text>
    </g>
  </g>
  <g
     transform="translate(42.221384,169.73978)"
     id="g33">
    <g
       transform="scale(1.5)"
       id="g32">
      <path
         d="m 0.5,8.5 v -4 a 4,4 90 0 1 4,-4 h 4 v 2 h 10 v -2 h 30 4 a 4,4 90 0 1 4,4 v 4 h -4 v -3 h -4 v 10 h 4 v -3 h 4 v 17 h -4 v -3 h -4 v 10 h 4 v -3 h 4 v 4 a 4,4 90 0 1 -4,4 h -4 -30 -1 v 2 h -8 v -2 h -1 -4 a 4,4 90 0 1 -4,-4 v -4 -21 z"
         style="fill:#7cd622;fill-opacity:1;stroke:#57ad02;stroke-width:1;stroke-linecap:round;stroke-opacity:1"
         id="path30" />
      <text
         style="font-size:10px;font-family:sans-serif;text-anchor:end;fill:#282828"
         id="text30"><tspan
           x="46"
           y="24"
           id="tspan30">pitch</tspan></text>
      <text
         style="font-size:6.66667px;font-family:sans-serif;text-anchor:end;fill:#282828"
         id="text31"><tspan
           x="46"
           y="12"
           id="tspan31">name</tspan></text>
      <text
         style="font-size:6.66667px;font-family:sans-serif;text-anchor:end;fill:#282828"
         id="text32"><tspan
           x="46"
           y="33"
           id="tspan32">octave</tspan></text>
    </g>
  </g>
  <g
     transform="translate(116.22139,169.73978)"
     id="g35">
    <g
       transform="scale(1.5)"
       id="g34">
      <path
         d="m 8.5,0.5 h 62.246094 v 20 H 8.5 v -8 -1 h -6 v 3 h -2 v -8 h 2 v 3 h 6 v -1 z"
         style="fill:#7cd622;fill-opacity:1;stroke:#57ad02;stroke-width:1;stroke-linecap:round;stroke-opacity:1"
         id="path33" />
      <text
         style="font-size:10px;font-family:sans-serif;text-anchor:start;fill:#282828"
         id="text33"><tspan
           x="13"
           y="14"
           id="tspan33">sol</tspan></text>
    </g>
  </g>
  <g
     transform="translate(116.22139,201.73978)"
     id="g37">
    <g
       transform="scale(1.5)"
       id="g36">
      <path
         d="m 8.5,0.5 h 63.90625 v 20 H 8.5 v -8 -1 h -6 v 3 h -2 v -8 h 2 v 3 h 6 v -1 z"
         style="fill:#ff6ea1;fill-opacity:1;stroke:#ff2c76;stroke-width:1;stroke-linecap:round;stroke-opacity:1"
         id="path35" />
      <text
         style="font-size:10px;font-family:sans-serif;text-anchor:start;fill:#282828"
         id="text35"><tspan
           x="13"
           y="14"
           id="tspan35">4</tspan></text>
    </g>
  </g>
  <g
     id="g46"
     transform="translate(-230.77861,-66.260217)">
    <g
       transform="translate(259,330)"
       id="g39">
      <g
         transform="scale(1.5)"
         id="g38">
        <path
           d="m 0.5,8.5 v -4 a 4,4 90 0 1 4,-4 h 4 v 2 h 10 v -2 h 9 40 4 a 4,4 90 0 1 4,4 v 4 h -4 v -3 h -4 v 10 h 4 v -3 h 4 v 4 a 4,4 90 0 1 -4,4 h -4 -40 -1 v 2 h -8 v -2 h -1 -4 a 5,5 90 0 0 -5,5 v 4 4 42 4 a 5,5 90 0 0 5,5 h 4 v 2 h 10 v -2 h 8 v 6 6 4 a 4,4 90 0 1 -4,4 h -4 -9 -1 v 2 h -8 v -2 h -1 -4 a 4,4 90 0 1 -4,-4 v -4 z"
           style="fill:#ff8700;fill-opacity:1;stroke:#e86b0e;stroke-width:1;stroke-linecap:round;stroke-opacity:1"
           id="path37" />
        <text
           style="font-size:10px;font-family:sans-serif;text-anchor:start;fill:#282828"
           id="text37"><tspan
             x="20"
             y="15"
             id="tspan37">note</tspan></text>
        <text
           style="font-size:6.66667px;font-family:sans-serif;text-anchor:end;fill:#282828"
           id="text38"><tspan
             x="65"
             y="12"
             id="tspan38">value</tspan></text>
      </g>
    </g>
    <g
       transform="matrix(0.5,0,0,0.5,259,334)"
       id="g45">
      <g
         style="isolation:isolate"
         id="g44">
        <g
           id="g43"
           data-name="レイヤー 2">
          <g
             id="g42">
            <rect
               width="42"
               height="42"
               rx="5"
               ry="5"
               style="opacity:0.4;mix-blend-mode:multiply;fill:#292929"
               id="rect39"
               x="0"
               y="0" />
            <path
               d="m 30.56,29.8 -4.17,-4.16 h 2.26 a 1.035,1.035 0 1 0 0,-2.07 h -4.71 a 1.08,1.08 0 0 0 -1.11,1 v 0 c 0,0 0,0 0,0.06 v 4.64 0 a 1.04,1.04 0 1 0 2.08,0 v -2.19 l 4.19,4.19 a 1,1 0 0 0 1.46,0 1,1 0 0 0 0,-1.47 z"
               style="fill:#ffffff"
               id="path39" />
            <path
               d="m 19.17,24.6 a 1.08,1.08 0 0 0 -1.11,-1 h -4.71 a 1.035,1.035 0 1 0 0,2.07 h 2.25 l -4.16,4.13 a 1.039447,1.039447 0 0 0 1.47,1.47 l 4.18,-4.19 v 2.26 a 1.04,1.04 0 1 0 2.08,0 V 24.7 c 0,0 0,0 0,-0.06 a 0.08,0.08 0 0 1 0,-0.04 z"
               style="fill:#ffffff"
               id="path40" />
            <path
               d="m 23.94,20.5 h 4.7 a 1.04,1.04 0 1 0 0,-2.08 h -2.25 l 4.17,-4.16 a 1,1 0 0 0 0,-1.47 1,1 0 0 0 -1.46,0 L 24.91,17 v -2.28 a 1.04,1.04 0 1 0 -2.08,0 v 4.64 a 0.43,0.43 0 0 0 0,0.05 v 0.05 a 1.09,1.09 0 0 0 1.11,1.04 z"
               style="fill:#ffffff"
               id="path41" />
            <path
               d="m 18.13,13.62 a 1.08,1.08 0 0 0 -1,1.09 V 17 l -4.18,-4.19 a 1,1 0 0 0 -1.47,0 1,1 0 0 0 0,1.46 l 4.16,4.17 h -2.29 a 1.04,1.04 0 1 0 0,2.08 h 4.71 a 1.09,1.09 0 0 0 1.11,-1 c 0,0 0,0 0,-0.06 v -4.75 a 1.07,1.07 0 0 0 -1.04,-1.09 z"
               style="fill:#ffffff"
               id="path42" />
          </g>
        </g>
      </g>
    </g>
  </g>
  <g
     transform="translate(130.22139,263.73978)"
     id="g49">
    <g
       transform="scale(1.5)"
       id="g48">
      <path
         d="m 8.5,8.5 v -4 a 4,4 90 0 1 4,-4 h 4 10 30 4 a 4,4 90 0 1 4,4 v 4 h -4 v -3 h -4 v 10 h 4 v -3 h 4 v 17 h -4 v -3 h -4 v 10 h 4 v -3 h 4 v 4 a 4,4 90 0 1 -4,4 h -4 -30 -10 -4 a 4,4 90 0 1 -4,-4 v -4 -21 -1 h -6 v 3 h -2 v -8 h 2 v 3 h 6 z"
         style="fill:#ff6ea1;fill-opacity:1;stroke:#ff2c76;stroke-width:1;stroke-linecap:round;stroke-opacity:1"
         id="path46" />
      <text
         style="font-size:9px;font-family:sans-serif;text-anchor:end;fill:#282828"
         id="text46"><tspan
           x="54"
           y="23"
           id="tspan46">/</tspan></text>
      <text
         style="font-size:6px;font-family:sans-serif;text-anchor:end;fill:#282828"
         id="text47"><tspan
           x="54"
           y="12"
           id="tspan47" /></text>
      <text
         style="font-size:6px;font-family:sans-serif;text-anchor:end;fill:#282828"
         id="text48"><tspan
           x="54"
           y="33"
           id="tspan48" /></text>
    </g>
  </g>
  <g
     transform="translate(216.22139,263.73978)"
     id="g51">
    <g
       transform="scale(1.5)"
       id="g50">
      <path
         d="m 8.5,0.5 h 63.90625 v 20 H 8.5 v -8 -1 h -6 v 3 h -2 v -8 h 2 v 3 h 6 v -1 z"
         style="fill:#ff6ea1;fill-opacity:1;stroke:#ff2c76;stroke-width:1;stroke-linecap:round;stroke-opacity:1"
         id="path49" />
      <text
         style="font-size:10px;font-family:sans-serif;text-anchor:start;fill:#282828"
         id="text49"><tspan
           x="13"
           y="14"
           id="tspan49">1</tspan></text>
    </g>
  </g>
  <g
     transform="translate(216.22139,295.73978)"
     id="g53">
    <g
       transform="scale(1.5)"
       id="g52">
      <path
         d="m 8.5,0.5 h 63.90625 v 20 H 8.5 v -8 -1 h -6 v 3 h -2 v -8 h 2 v 3 h 6 v -1 z"
         style="fill:#ff6ea1;fill-opacity:1;stroke:#ff2c76;stroke-width:1;stroke-linecap:round;stroke-opacity:1"
         id="path51" />
      <text
         style="font-size:10px;font-family:sans-serif;text-anchor:start;fill:#282828"
         id="text51"><tspan
           x="13"
           y="14"
           id="tspan51">4</tspan></text>
    </g>
  </g>
  <g
     transform="translate(42.221384,295.73978)"
     id="g55">
    <g
       transform="scale(1.5)"
       id="g54">
      <path
         d="m 0.5,8.5 v -4 a 4,4 90 0 1 4,-4 h 4 v 2 h 10 v -2 h 20 4 a 4,4 90 0 1 4,4 v 4 4 4 a 4,4 90 0 1 -4,4 h -4 -20 -1 v 2 h -8 v -2 h -1 -4 a 4,4 90 0 1 -4,-4 v -4 z"
         style="fill:#c4c4c4;fill-opacity:1;stroke:#a0a0a0;stroke-width:1;stroke-linecap:round;stroke-opacity:1"
         id="path53" />
      <text
         style="font-size:10px;font-family:sans-serif;text-anchor:end;fill:#282828"
         id="text53"><tspan
           x="36"
           y="14"
           id="tspan53">↓</tspan></text>
    </g>
  </g>
  <g
     transform="translate(42.221384,327.73978)"
     id="g58">
    <g
       transform="scale(1.5)"
       id="g57">
      <path
         d="m 0.5,8.5 v -4 a 4,4 90 0 1 4,-4 h 4 v 2 h 10 v -2 h 30 4 a 4,4 90 0 1 4,4 v 4 h -4 v -3 h -4 v 10 h 4 v -3 h 4 v 17 h -4 v -3 h -4 v 10 h 4 v -3 h 4 v 4 a 4,4 90 0 1 -4,4 h -4 -30 -1 v 2 h -8 v -2 h -1 -4 a 4,4 90 0 1 -4,-4 v -4 -21 z"
         style="fill:#7cd622;fill-opacity:1;stroke:#57ad02;stroke-width:1;stroke-linecap:round;stroke-opacity:1"
         id="path55" />
      <text
         style="font-size:10px;font-family:sans-serif;text-anchor:end;fill:#282828"
         id="text55"><tspan
           x="46"
           y="24"
           id="tspan55">pitch</tspan></text>
      <text
         style="font-size:6.66667px;font-family:sans-serif;text-anchor:end;fill:#282828"
         id="text56"><tspan
           x="46"
           y="12"
           id="tspan56">name</tspan></text>
      <text
         style="font-size:6.66667px;font-family:sans-serif;text-anchor:end;fill:#282828"
         id="text57"><tspan
           x="46"
           y="33"
           id="tspan57">octave</tspan></text>
    </g>
  </g>
  <g
     transform="translate(116.22139,327.73978)"
     id="g60">
    <g
       transform="scale(1.5)"
       id="g59">
      <path
         d="m 8.5,0.5 h 62.246094 v 20 H 8.5 v -8 -1 h -6 v 3 h -2 v -8 h 2 v 3 h 6 v -1 z"
         style="fill:#7cd622;fill-opacity:1;stroke:#57ad02;stroke-width:1;stroke-linecap:round;stroke-opacity:1"
         id="path58" />
      <text
         style="font-size:10px;font-family:sans-serif;text-anchor:start;fill:#282828"
         id="text58"><tspan
           x="13"
           y="14"
           id="tspan58">mi</tspan></text>
    </g>
  </g>
  <g
     transform="translate(116.22139,359.73978)"
     id="g62">
    <g
       transform="scale(1.5)"
       id="g61">
      <path
         d="m 8.5,0.5 h 63.90625 v 20 H 8.5 v -8 -1 h -6 v 3 h -2 v -8 h 2 v 3 h 6 v -1 z"
         style="fill:#ff6ea1;fill-opacity:1;stroke:#ff2c76;stroke-width:1;stroke-linecap:round;stroke-opacity:1"
         id="path60" />
      <text
         style="font-size:10px;font-family:sans-serif;text-anchor:start;fill:#282828"
         id="text60"><tspan
           x="13"
           y="14"
           id="tspan60">4</tspan></text>
    </g>
  </g>
  <g
     id="g71"
     transform="translate(-230.77861,-66.260217)">
    <g
       transform="translate(259,488)"
       id="g64">
      <g
         transform="scale(1.5)"
         id="g63">
        <path
           d="m 0.5,8.5 v -4 a 4,4 90 0 1 4,-4 h 4 v 2 h 10 v -2 h 9 40 4 a 4,4 90 0 1 4,4 v 4 h -4 v -3 h -4 v 10 h 4 v -3 h 4 v 4 a 4,4 90 0 1 -4,4 h -4 -40 -1 v 2 h -8 v -2 h -1 -4 a 5,5 90 0 0 -5,5 v 4 4 42 4 a 5,5 90 0 0 5,5 h 4 v 2 h 10 v -2 h 8 v 6 6 4 a 4,4 90 0 1 -4,4 h -4 -9 -1 v 2 h -8 v -2 h -1 -4 a 4,4 90 0 1 -4,-4 v -4 z"
           style="fill:#ff8700;fill-opacity:1;stroke:#e86b0e;stroke-width:1;stroke-linecap:round;stroke-opacity:1"
           id="path62" />
        <text
           style="font-size:10px;font-family:sans-serif;text-anchor:start;fill:#282828"
           id="text62"><tspan
             x="20"
             y="15"
             id="tspan62">note</tspan></text>
        <text
           style="font-size:6.66667px;font-family:sans-serif;text-anchor:end;fill:#282828"
           id="text63"><tspan
             x="65"
             y="12"
             id="tspan63">value</tspan></text>
      </g>
    </g>
    <g
       transform="matrix(0.5,0,0,0.5,259,492)"
       id="g70">
      <g
         style="isolation:isolate"
         id="g69">
        <g
           id="g68"
           data-name="レイヤー 2">
          <g
             id="g67">
            <rect
               width="42"
               height="42"
               rx="5"
               ry="5"
               style="opacity:0.4;mix-blend-mode:multiply;fill:#292929"
               id="rect64"
               x="0"
               y="0" />
            <path
               d="m 30.56,29.8 -4.17,-4.16 h 2.26 a 1.035,1.035 0 1 0 0,-2.07 h -4.71 a 1.08,1.08 0 0 0 -1.11,1 v 0 c 0,0 0,0 0,0.06 v 4.64 0 a 1.04,1.04 0 1 0 2.08,0 v -2.19 l 4.19,4.19 a 1,1 0 0 0 1.46,0 1,1 0 0 0 0,-1.47 z"
               style="fill:#ffffff"
               id="path64" />
            <path
               d="m 19.17,24.6 a 1.08,1.08 0 0 0 -1.11,-1 h -4.71 a 1.035,1.035 0 1 0 0,2.07 h 2.25 l -4.16,4.13 a 1.039447,1.039447 0 0 0 1.47,1.47 l 4.18,-4.19 v 2.26 a 1.04,1.04 0 1 0 2.08,0 V 24.7 c 0,0 0,0 0,-0.06 a 0.08,0.08 0 0 1 0,-0.04 z"
               style="fill:#ffffff"
               id="path65" />
            <path
               d="m 23.94,20.5 h 4.7 a 1.04,1.04 0 1 0 0,-2.08 h -2.25 l 4.17,-4.16 a 1,1 0 0 0 0,-1.47 1,1 0 0 0 -1.46,0 L 24.91,17 v -2.28 a 1.04,1.04 0 1 0 -2.08,0 v 4.64 a 0.43,0.43 0 0 0 0,0.05 v 0.05 a 1.09,1.09 0 0 0 1.11,1.04 z"
               style="fill:#ffffff"
               id="path66" />
            <path
               d="m 18.13,13.62 a 1.08,1.08 0 0 0 -1,1.09 V 17 l -4.18,-4.19 a 1,1 0 0 0 -1.47,0 1,1 0 0 0 0,1.46 l 4.16,4.17 h -2.29 a 1.04,1.04 0 1 0 0,2.08 h 4.71 a 1.09,1.09 0 0 0 1.11,-1 c 0,0 0,0 0,-0.06 v -4.75 a 1.07,1.07 0 0 0 -1.04,-1.09 z"
               style="fill:#ffffff"
               id="path67" />
          </g>
        </g>
      </g>
    </g>
  </g>
  <g
     transform="translate(130.22139,421.73978)"
     id="g74">
    <g
       transform="scale(1.5)"
       id="g73">
      <path
         d="m 8.5,8.5 v -4 a 4,4 90 0 1 4,-4 h 4 10 30 4 a 4,4 90 0 1 4,4 v 4 h -4 v -3 h -4 v 10 h 4 v -3 h 4 v 17 h -4 v -3 h -4 v 10 h 4 v -3 h 4 v 4 a 4,4 90 0 1 -4,4 h -4 -30 -10 -4 a 4,4 90 0 1 -4,-4 v -4 -21 -1 h -6 v 3 h -2 v -8 h 2 v 3 h 6 z"
         style="fill:#ff6ea1;fill-opacity:1;stroke:#ff2c76;stroke-width:1;stroke-linecap:round;stroke-opacity:1"
         id="path71" />
      <text
         style="font-size:9px;font-family:sans-serif;text-anchor:end;fill:#282828"
         id="text71"><tspan
           x="54"
           y="23"
           id="tspan71">/</tspan></text>
      <text
         style="font-size:6px;font-family:sans-serif;text-anchor:end;fill:#282828"
         id="text72"><tspan
           x="54"
           y="12"
           id="tspan72" /></text>
      <text
         style="font-size:6px;font-family:sans-serif;text-anchor:end;fill:#282828"
         id="text73"><tspan
           x="54"
           y="33"
           id="tspan73" /></text>
    </g>
  </g>
  <g
     transform="translate(216.22139,421.73978)"
     id="g76">
    <g
       transform="scale(1.5)"
       id="g75">
      <path
         d="m 8.5,0.5 h 63.90625 v 20 H 8.5 v -8 -1 h -6 v 3 h -2 v -8 h 2 v 3 h 6 v -1 z"
         style="fill:#ff6ea1;fill-opacity:1;stroke:#ff2c76;stroke-width:1;stroke-linecap:round;stroke-opacity:1"
         id="path74" />
      <text
         style="font-size:10px;font-family:sans-serif;text-anchor:start;fill:#282828"
         id="text74"><tspan
           x="13"
           y="14"
           id="tspan74">1</tspan></text>
    </g>
  </g>
  <g
     transform="translate(216.22139,453.73978)"
     id="g78">
    <g
       transform="scale(1.5)"
       id="g77">
      <path
         d="m 8.5,0.5 h 63.90625 v 20 H 8.5 v -8 -1 h -6 v 3 h -2 v -8 h 2 v 3 h 6 v -1 z"
         style="fill:#ff6ea1;fill-opacity:1;stroke:#ff2c76;stroke-width:1;stroke-linecap:round;stroke-opacity:1"
         id="path76" />
      <text
         style="font-size:10px;font-family:sans-serif;text-anchor:start;fill:#282828"
         id="text76"><tspan
           x="13"
           y="14"
           id="tspan76">2</tspan></text>
    </g>
  </g>
  <g
     transform="translate(42.221384,453.73978)"
     id="g80">
    <g
       transform="scale(1.5)"
       id="g79">
      <path
         d="m 0.5,8.5 v -4 a 4,4 90 0 1 4,-4 h 4 v 2 h 10 v -2 h 20 4 a 4,4 90 0 1 4,4 v 4 4 4 a 4,4 90 0 1 -4,4 h -4 -20 -1 v 2 h -8 v -2 h -1 -4 a 4,4 90 0 1 -4,-4 v -4 z"
         style="fill:#c4c4c4;fill-opacity:1;stroke:#a0a0a0;stroke-width:1;stroke-linecap:round;stroke-opacity:1"
         id="path78" />
      <text
         style="font-size:10px;font-family:sans-serif;text-anchor:end;fill:#282828"
         id="text78"><tspan
           x="36"
           y="14"
           id="tspan78">↓</tspan></text>
    </g>
  </g>
  <g
     transform="translate(42.221384,485.73978)"
     id="g83">
    <g
       transform="scale(1.5)"
       id="g82">
      <path
         d="m 0.5,8.5 v -4 a 4,4 90 0 1 4,-4 h 4 v 2 h 10 v -2 h 30 4 a 4,4 90 0 1 4,4 v 4 h -4 v -3 h -4 v 10 h 4 v -3 h 4 v 17 h -4 v -3 h -4 v 10 h 4 v -3 h 4 v 4 a 4,4 90 0 1 -4,4 h -4 -30 -1 v 2 h -8 v -2 h -1 -4 a 4,4 90 0 1 -4,-4 v -4 -21 z"
         style="fill:#7cd622;fill-opacity:1;stroke:#57ad02;stroke-width:1;stroke-linecap:round;stroke-opacity:1"
         id="path80" />
      <text
         style="font-size:10px;font-family:sans-serif;text-anchor:end;fill:#282828"
         id="text80"><tspan
           x="46"
           y="24"
           id="tspan80">pitch</tspan></text>
      <text
         style="font-size:6.66667px;font-family:sans-serif;text-anchor:end;fill:#282828"
         id="text81"><tspan
           x="46"
           y="12"
           id="tspan81">name</tspan></text>
      <text
         style="font-size:6.66667px;font-family:sans-serif;text-anchor:end;fill:#282828"
         id="text82"><tspan
           x="46"
           y="33"
           id="tspan82">octave</tspan></text>
    </g>
  </g>
  <g
     transform="translate(116.22139,485.73978)"
     id="g85">
    <g
       transform="scale(1.5)"
       id="g84">
      <path
         d="m 8.5,0.5 h 62.246094 v 20 H 8.5 v -8 -1 h -6 v 3 h -2 v -8 h 2 v 3 h 6 v -1 z"
         style="fill:#7cd622;fill-opacity:1;stroke:#57ad02;stroke-width:1;stroke-linecap:round;stroke-opacity:1"
         id="path83" />
      <text
         style="font-size:10px;font-family:sans-serif;text-anchor:start;fill:#282828"
         id="text83"><tspan
           x="13"
           y="14"
           id="tspan83">fa</tspan></text>
    </g>
  </g>
  <g
     transform="translate(116.22139,517.73978)"
     id="g87">
    <g
       transform="scale(1.5)"
       id="g86">
      <path
         d="m 8.5,0.5 h 63.90625 v 20 H 8.5 v -8 -1 h -6 v 3 h -2 v -8 h 2 v 3 h 6 v -1 z"
         style="fill:#ff6ea1;fill-opacity:1;stroke:#ff2c76;stroke-width:1;stroke-linecap:round;stroke-opacity:1"
         id="path85" />
      <text
         style="font-size:10px;font-family:sans-serif;text-anchor:start;fill:#282828"
         id="text85"><tspan
           x="13"
           y="14"
           id="tspan85">4</tspan></text>
    </g>
  </g>
  <g
     transform="translate(14.221384,609.73978)"
     id="g89">
    <g
       transform="scale(1.5)"
       id="g88">
      <path
         d="m 0.5,8.5 v -4 a 4,4 90 0 1 4,-4 h 4 v 2 h 10 v -2 h 30 4 a 4,4 90 0 1 4,4 v 4 h -4 v -3 h -4 v 10 h 4 v -3 h 4 v 4 a 4,4 90 0 1 -4,4 h -4 -30 -1 v 2 h -8 v -2 h -1 -4 a 4,4 90 0 1 -4,-4 v -4 z"
         style="fill:#c4c4c4;fill-opacity:1;stroke:#a0a0a0;stroke-width:1;stroke-linecap:round;stroke-opacity:1"
         id="path87" />
      <text
         style="font-size:10px;font-family:sans-serif;text-anchor:end;fill:#282828"
         id="text87"><tspan
           x="46"
           y="14"
           id="tspan87">print</tspan></text>
      <text
         style="font-size:6.66667px;font-family:sans-serif;text-anchor:end;fill:#282828"
         id="text88"><tspan
           x="46"
           y="12"
           id="tspan88" /></text>
    </g>
  </g>
  <g
     transform="translate(88.221384,609.73978)"
     id="g91">
    <g
       transform="scale(1.5)"
       id="g90">
      <path
         d="m 8.5,0.5 h 115.61523 v 20 H 8.5 v -8 -1 h -6 v 3 h -2 v -8 h 2 v 3 h 6 v -1 z"
         style="fill:#fe994f;fill-opacity:1;stroke:#e86b0e;stroke-width:1;stroke-linecap:round;stroke-opacity:1"
         id="path89" />
      <text
         style="font-size:10px;font-family:sans-serif;text-anchor:start;fill:#282828"
         id="text89"><tspan
           x="13"
           y="14"
           id="tspan89">whole notes played</tspan></text>
    </g>
  </g>
  <g
     transform="translate(14.221384,41.739783)"
     id="g93">
    <g
       transform="scale(1.5)"
       id="g92">
      <path
         d="m 0.5,8.5 v -4 a 4,4 90 0 1 4,-4 h 4 v 2 h 10 v -2 h 41.123047 4 a 4,4 90 0 1 4,4 v 4 h -4 v -3 h -4 v 10 h 4 v -3 h 4 v 4 a 4,4 90 0 1 -4,4 h -4 H 18.5 h -1 v 2 h -8 v -2 h -1 -4 a 4,4 90 0 1 -4,-4 v -4 z"
         style="fill:#c4c4c4;fill-opacity:1;stroke:#a0a0a0;stroke-width:1;stroke-linecap:round;stroke-opacity:1"
         id="path91" />
      <text
         style="font-size:10px;font-family:sans-serif;text-anchor:end;fill:#282828"
         id="text91"><tspan
           x="57"
           y="14"
           id="tspan91">comment</tspan></text>
      <text
         style="font-size:6.66667px;font-family:sans-serif;text-anchor:end;fill:#282828"
         id="text92"><tspan
           x="57"
           y="12"
           id="tspan92" /></text>
    </g>
  </g>
  <g
     transform="translate(104.22139,41.739783)"
     id="g95">
    <g
       transform="scale(1.5)"
       id="g94">
      <path
         d="m 8.5,0.5 h 90 v 20 h -90 v -8 -1 h -6 v 3 h -2 v -8 h 2 v 3 h 6 v -1 z"
         style="fill:#ff664b;fill-opacity:1;stroke:#ea4326;stroke-width:1;stroke-linecap:round;stroke-opacity:1"
         id="path93" />
      <text
         style="font-size:10px;font-family:sans-serif;text-anchor:start;fill:#282828"
         id="text93"
         x="18.666666"><tspan
           x="31.666666"
           y="14"
           id="tspan93">This pr...</tspan></text>
    </g>
  </g>
</svg>
