<?xml version="1.0" encoding="UTF-8" standalone="no"?>
<svg
   xmlns:dc="http://purl.org/dc/elements/1.1/"
   xmlns:cc="http://creativecommons.org/ns#"
   xmlns:rdf="http://www.w3.org/1999/02/22-rdf-syntax-ns#"
   xmlns:svg="http://www.w3.org/2000/svg"
   xmlns="http://www.w3.org/2000/svg"
   viewBox="0 0 55 55"
   height="55"
   width="55"
   version="1.1"
   id="svg2">
  <metadata
     id="metadata8">
    <rdf:RDF>
      <cc:Work
         rdf:about="">
        <dc:format>image/svg+xml</dc:format>
        <dc:type
           rdf:resource="http://purl.org/dc/dcmitype/StillImage" />
        <dc:title></dc:title>
      </cc:Work>
    </rdf:RDF>
  </metadata>
  <defs
     id="defs6" />
  <path
     id="path4138"
     d="m 8.5001974,53.42845 c 0.398997,-0.56358 1.9422366,-2.76761 3.4295096,-4.8978 1.487206,-2.13025 3.308926,-4.71382 4.048194,-5.74134 0.739288,-1.02751 1.309902,-1.89334 1.268106,-1.92401 -0.0418,-0.0307 -0.124773,-0.25658 -0.18438,-0.50203 l -0.108371,-0.44624 -0.712754,0.54807 c -1.54888,1.19099 -2.534926,2.11667 -3.610416,3.3894 -0.234011,0.27685 0.07799,-0.16149 0.693236,-0.97419 0.991876,-1.31022 1.261227,-1.59613 2.377442,-2.52371 l 1.258778,-1.04613 0.355394,-1.92144 c 0.700683,-3.78817 1.114285,-4.66418 4.145188,-8.77921 2.145682,-2.91224 3.540868,-4.5304 3.964243,-4.59542 0.08484,-0.013 0.54316,0.34211 1.082231,0.83863 l 0.935008,0.86123 -0.460516,0.26457 c -1.089734,0.62604 -4.029637,3.21212 -5.490404,4.82963 -2.327075,2.57675 -4.024321,6.40099 -4.024903,9.06888 -1.4e-4,0.61393 0.04432,0.7369 0.346576,0.9587 0.272646,0.20007 0.311277,0.27722 0.180798,0.3611 -0.09123,0.0587 -1.760018,2.22064 -3.708271,4.80446 -3.824086,5.07139 -7.0421146,9.20299 -5.7847036,7.42685 z m -4.704033,-7.62814 c 0.01659,-0.3753 0.03063,-0.3895 0.742633,-0.75142 0.399157,-0.20288 0.91753,-0.57899 1.151961,-0.83579 0.23443,-0.25679 1.096841,-0.88824 1.916481,-1.40321 l 1.490271,-0.93629 0.436438,-0.91221 c 1.6253376,-3.39714 3.4340126,-8.30363 3.5921356,-9.74456 0.07878,-0.71791 0.20722,-0.89407 0.723381,-0.9917 0.252043,-0.0478 1.025415,-0.51312 2.004597,-1.20631 1.926283,-1.36367 4.332542,-2.63087 5.638236,-2.96921 0.527674,-0.13674 1.02665,-0.22658 1.108831,-0.19963 0.116504,0.0381 -0.19568,0.51926 -1.417462,2.18424 l -1.566879,2.13527 -0.639724,0.22458 c -0.35184,0.12352 -1.340472,0.34889 -2.196955,0.50083 -0.974392,0.17287 -1.865192,0.42488 -2.380058,0.67332 l -0.822829,0.39707 -0.825043,2.71587 c -0.675747,2.22445 -1.018646,3.1294 -1.895049,5.0013 l -1.0700146,2.28546 -0.510656,0.30398 c -0.280864,0.16719 -1.126409,0.80934 -1.878989,1.42704 -1.708477,1.40223 -1.879324,1.51407 -2.007716,1.31435 -0.10357,-0.16112 -0.302915,-0.0291 -1.206101,0.79899 l -0.404314,0.37061 0.01691,-0.38252 z m 12.6937396,8.88191 c 0.4073,-0.58943 0.700669,-1.42644 0.517533,-1.47647 -0.244475,-0.0668 -0.18202,-0.30161 0.618215,-2.32449 0.39595,-1.00092 0.775,-2.03338 0.842325,-2.29439 0.112556,-0.43635 0.206588,-0.55423 1.168807,-1.46527 1.90407,-1.80288 2.972086,-2.65941 5.152127,-4.13188 l 2.15712,-1.457 0.153883,-0.87822 c 0.08666,-0.49458 0.09761,-1.50954 0.02505,-2.32337 -0.07085,-0.79481 -0.130045,-1.82492 -0.131531,-2.2891 l -0.0027,-0.84396 1.419504,-2.07687 c 0.780703,-1.14231 1.442166,-2.08105 1.469848,-2.08616 0.145398,-0.0266 0.298875,1.27655 0.261603,2.2209 -0.05646,1.43024 -0.400845,3.11209 -1.079141,5.27 -0.305812,0.97292 -0.541702,1.91525 -0.524192,2.09405 0.05776,0.59006 7.2e-5,0.65983 -1.025258,1.2396 -1.718327,0.97169 -5.319388,3.77567 -7.639794,5.94876 l -1.004977,0.94118 -0.428231,1.6236 c -0.235518,0.89298 -0.583819,1.91347 -0.774,2.26776 -0.190189,0.35428 -0.407939,1.00271 -0.483933,1.44094 l -0.138153,0.79679 -0.386795,0.0607 -0.386795,0.0607 0.219906,-0.31736 z m -0.07724,-8.20032 c 0.799049,-1.12585 1.505236,-2.61472 2.120462,-4.47028 l 0.321863,-0.97072 -0.34478,-0.10578 c -0.541746,-0.16618 -0.721831,-0.49436 -0.675239,-1.2305 0.164853,-2.60496 1.305281,-5.22019 3.441826,-7.89287 1.636488,-2.0472 3.568519,-3.82806 5.687566,-5.24272 l 0.846513,-0.56512 1.049794,0.68163 c 0.577385,0.3749 1.259445,0.74977 1.51569,0.83307 0.411212,0.13367 0.465844,0.18098 0.465475,0.40309 -9.86e-4,0.58314 -1.900224,3.66617 -4.376463,7.10433 -1.851627,2.57085 -3.475715,4.046 -5.978349,5.42997 l -1.002762,0.55452 -0.352059,0.89806 c -0.816148,2.08182 -1.983626,4.12272 -2.796058,4.88786 l -0.44249,0.41675 0.519037,-0.73129 z M 14.577835,24.34545 c -0.01695,-0.11031 0.02248,-0.27314 0.0876,-0.36188 0.138693,-0.189 1.523427,-0.5089 3.523625,-0.814 l 1.422063,-0.21693 1.615123,-1.33571 c 1.779159,-1.47139 2.451091,-1.94793 3.442552,-2.44148 0.612777,-0.30506 0.691879,-0.31141 1.059829,-0.0852 0.320044,0.1968 0.445912,0.38334 0.645005,0.95597 0.409973,1.17912 0.395808,1.31831 -0.237994,2.33852 l -0.5621,0.90492 -0.165992,-0.60473 c -0.0913,-0.33261 -0.253938,-1.12269 -0.36145,-1.75579 -0.107499,-0.63307 -0.24879,-1.11226 -0.313982,-1.06485 -0.0652,0.0474 -0.818428,0.67362 -1.673884,1.39159 -2.263399,1.89967 -2.794049,2.28973 -3.020922,2.22062 -0.109592,-0.0334 -0.601277,0.0675 -1.092581,0.22414 -1.174753,0.37462 -2.350712,0.52274 -2.614335,0.32929 -0.271231,-0.19903 -1.266522,0.1248 -1.397206,0.45459 -0.102745,0.25929 -0.306394,0.17956 -0.355316,-0.13909 z m 18.771921,13.7555 c 0.281803,-0.0704 0.374708,-1.3726 0.103221,-1.44676 -0.247815,-0.0676 -0.521484,-1.56088 -0.506428,-2.76314 0.0063,-0.5032 -0.04456,-0.94089 -0.113021,-0.97267 -0.169467,-0.0787 0.01529,-0.6322 1.127924,-3.37946 l 0.953619,-2.35463 -1.680133,0.2274 c -0.92407,0.12508 -1.721069,0.19737 -1.771104,0.16065 -0.05417,-0.0398 0.180965,-0.3922 0.581209,-0.87103 0.671659,-0.8037 0.672585,-0.80437 1.334552,-0.86862 1.046785,-0.10159 1.69921,0.03 2.060159,0.41569 0.240365,0.25684 0.279356,0.39267 0.181544,0.63256 -0.0685,0.16801 -0.143878,0.49797 -0.167485,0.73325 -0.0637,0.6348 -0.400824,1.64934 -1.225194,3.68721 l -0.738519,1.82561 0.312287,2.28232 c 0.171758,1.25529 0.261268,2.40746 0.198912,2.5604 -0.158085,0.38774 -0.400187,0.51313 -0.644607,0.33377 -0.161931,-0.11882 -0.163451,-0.16337 -0.0069,-0.20251 z M 26.703825,24.35089 c -0.308706,-0.30174 -0.578743,-0.66124 -0.600088,-0.79887 -0.03161,-0.20379 0.195839,-0.57 1.225542,-1.97322 0.695392,-0.94765 1.310287,-1.72999 1.36635,-1.73861 0.05606,-0.008 0.569618,0.39939 1.141175,0.90663 0.730392,0.64819 1.455311,1.18188 2.439498,1.7959 0.985298,0.61473 1.396768,0.91771 1.388462,1.02232 -0.02052,0.25759 -1.230822,2.07157 -1.906944,2.85809 -0.482319,0.561 -0.704369,0.74638 -0.866617,0.72323 -0.673521,-0.096 -3.046157,-1.68007 -4.187309,-2.79552 z m 0.226943,-4.48937 c -0.120094,-1.30655 -0.0655,-2.03217 0.167495,-2.2267 0.09939,-0.083 0.195988,-0.25726 0.214408,-0.38748 0.02583,-0.181 0.485276,-0.47249 1.956283,-1.24099 1.057398,-0.55242 1.975079,-1.07602 2.039296,-1.16352 0.254603,-0.34697 2.934728,-2.34561 3.144912,-2.34526 0.196919,3.4e-4 0.257038,-0.11031 0.493938,-0.90954 0.651498,-2.1977803 0.771661,-4.1815503 0.384999,-6.3555203 -0.15604,-0.87731 -0.178702,-1.18093 -0.05583,-0.74808 0.33539,1.18152 0.462939,2.05587 0.48192,3.30355 0.01661,1.09165 -0.337208,3.6424603 -0.553738,3.9921703 -0.05206,0.0847 0.1175,-0.0239 0.377359,-0.24106 l 0.472498,-0.39471 -0.06942,0.36266 c -0.05899,0.30818 -0.146551,0.41868 -0.582962,0.73568 -0.356816,0.2592 -0.538589,0.46366 -0.595625,0.67002 -0.09508,0.34395 -1.190199,2.54215 -1.734588,3.48182 -0.44332,0.76524 -0.432594,0.79051 0.757246,1.78288 1.066593,0.88957 1.084019,0.8857 2.562476,-0.56902 0.613574,-0.60372 1.454157,-1.36885 1.867969,-1.7003 0.652483,-0.52261 0.777695,-0.66987 0.942994,-1.10901 0.193872,-0.51497 0.580158,-0.91852 0.668966,-0.69885 0.02689,0.0665 -0.02355,0.21953 -0.112021,0.34009 -0.333928,0.45507 -0.09502,0.4244 0.909514,-0.11672 0.569939,-0.30702 1.423607,-0.69811 1.897046,-0.86909 1.035895,-0.37411 3.451934,-0.75671 4.43827,-0.70285 0.585936,0.032 0.617559,0.0429 0.1776,0.0611 -2.622861,0.10868 -4.655279,0.70551 -6.889252,2.02316 -0.972322,0.5735 -1.001181,0.60074 -1.060728,1.00109 -0.03371,0.22632 -0.401262,1.29492 -0.816866,2.37461 -0.611403,1.58831 -0.815158,2.3125 -1.067318,3.79347 -0.197831,1.1619 -0.377814,1.87051 -0.4928,1.94018 -0.09965,0.0603 -0.300497,0.24447 -0.446477,0.40902 -0.269259,0.30366 -1.825326,0.83655 -2.819263,0.96547 l -0.479634,0.0622 0.484467,-0.79244 c 0.482996,-0.79004 0.486108,-0.79271 1.026411,-0.88433 0.298077,-0.0506 0.790854,-0.0852 1.095071,-0.077 0.361563,0.009 0.607918,-0.0598 0.711382,-0.20073 0.08705,-0.11862 0.234487,-0.91064 0.327639,-1.76002 0.16189,-1.4761 0.190066,-1.57252 0.637764,-2.18262 0.361965,-0.49327 0.577641,-0.97934 0.949108,-2.13936 l 0.480709,-1.50107 -0.445942,0.34006 c -0.74676,0.56945 -1.902342,1.73393 -2.426748,2.44544 -1.067289,1.44856 -1.127468,1.55787 -0.988857,1.80582 0.260492,0.46595 0.15733,0.99063 -0.346861,1.76409 -0.263586,0.40439 -0.569776,0.76664 -0.682313,0.80663 -0.171196,0.0611 -0.555656,-0.18531 -2.400234,-1.53889 -2.610469,-1.91558 -2.626141,-1.93588 -2.0789,-2.67996 0.551707,-0.75022 1.020646,-1.06703 1.630098,-1.10139 0.586054,-0.033 0.525133,0.0229 1.681168,-1.54243 0.551456,-0.74758 1.54453,-2.60921 1.584195,-2.97155 0.01985,-0.18189 -0.306627,-7.6e-4 -1.455804,0.8074 -0.759819,0.53433 -1.168866,0.90399 -1.500664,1.35614 -0.432114,0.58886 -0.53127,0.65483 -1.883317,1.25298 -0.784957,0.34727 -1.478827,0.70175 -1.541929,0.78774 -0.06311,0.086 -0.02202,0.66894 0.0913,1.29545 l 0.206018,1.1391 -0.542087,0.60315 c -0.298194,0.33171 -0.576376,0.578 -0.618305,0.54723 -0.04189,-0.0307 -0.119416,-0.52583 -0.172199,-1.10014 z m 7.901677,-16.5179603 -0.08189,-0.36548 0.14664,0.3559 c 0.08065,0.19572 0.134376,0.37257 0.119399,0.39298 -0.05523,0.0753 -0.10421,-0.0267 -0.184144,-0.3834 z M 47.787842,12.79545 c 0.01945,-0.0265 0.156214,-0.0309 0.303845,-0.0105 0.14766,0.021 0.252568,0.06 0.233113,0.0865 -0.01945,0.0265 -0.156213,0.0309 -0.303844,0.0105 -0.14767,-0.021 -0.252568,-0.06 -0.233114,-0.0865 z M 34.430586,2.4542197 c -0.121786,-0.25083 -0.20562,-0.47757 -0.186308,-0.5039 0.01931,-0.0263 0.143657,0.16798 0.276317,0.43175 0.132666,0.2638 0.225945,0.50042 0.207285,0.52585 -0.04626,0.063 -0.04675,0.0623 -0.297294,-0.4537 z M 48.48473,12.85616 c 0.09367,-0.12765 2.712124,0.4713 2.735842,0.62579 0.0058,0.0376 -0.274896,-0.0182 -0.62368,-0.12389 -0.348793,-0.10566 -0.974628,-0.25104 -1.390764,-0.32304 -0.416125,-0.072 -0.740753,-0.15249 -0.721398,-0.17886 z M 33.516979,0.81959968 c -0.294388,-0.48798 -0.487738,-0.85554 -0.429674,-0.81682 0.124347,0.0829 0.88874,1.27470002 1.040399,1.62207002 0.189831,0.43481 -0.06662,0.0967 -0.610725,-0.80525002 z"
     style="fill:#000000" />
</svg>
