<?xml version="1.0" encoding="UTF-8" standalone="no"?>
<!-- Created with Inkscape (http://www.inkscape.org/) -->

<svg
   xmlns:dc="http://purl.org/dc/elements/1.1/"
   xmlns:cc="http://creativecommons.org/ns#"
   xmlns:rdf="http://www.w3.org/1999/02/22-rdf-syntax-ns#"
   xmlns:svg="http://www.w3.org/2000/svg"
   xmlns="http://www.w3.org/2000/svg"
   xmlns:sodipodi="http://sodipodi.sourceforge.net/DTD/sodipodi-0.dtd"
   xmlns:inkscape="http://www.inkscape.org/namespaces/inkscape"
   id="svg4306"
   version="1.1"
   inkscape:version="0.91 r13725"
   width="450"
   height="450"
   viewBox="0 0 450 450"
   sodipodi:docname="cup.svg">
  <metadata
     id="metadata4312">
    <rdf:RDF>
      <cc:Work
         rdf:about="">
        <dc:format>image/svg+xml</dc:format>
        <dc:type
           rdf:resource="http://purl.org/dc/dcmitype/StillImage" />
        <dc:title></dc:title>
      </cc:Work>
    </rdf:RDF>
  </metadata>
  <defs
     id="defs4310" />
  <sodipodi:namedview
     pagecolor="#ffffff"
     bordercolor="#666666"
     borderopacity="1"
     objecttolerance="10"
     gridtolerance="10"
     guidetolerance="10"
     inkscape:pageopacity="0"
     inkscape:pageshadow="2"
     inkscape:window-width="1375"
     inkscape:window-height="876"
     id="namedview4308"
     showgrid="false"
     showguides="true"
     inkscape:guide-bbox="true"
     inkscape:zoom="1.5711111"
     inkscape:cx="225"
     inkscape:cy="225"
     inkscape:window-x="65"
     inkscape:window-y="24"
     inkscape:window-maximized="1"
     inkscape:current-layer="svg4306">
    <sodipodi:guide
       position="45.190948,305.51627"
       orientation="1,0"
       id="guide7049" />
    <sodipodi:guide
       position="404.80905,356.43564"
       orientation="1,0"
       id="guide7051" />
    <sodipodi:guide
       position="210.04243,404.80905"
       orientation="0,1"
       id="guide7053" />
    <sodipodi:guide
       position="10.183876,45.190948"
       orientation="0,1"
       id="guide7055" />
    <sodipodi:guide
       position="224.68175,262.23479"
       orientation="1,0"
       id="guide7057" />
    <sodipodi:guide
       position="173.76238,224.04526"
       orientation="0,1"
       id="guide7059" />
  </sodipodi:namedview>
  <path
     style="fill:#000000"
     d="m 145.85664,402.3781 c -9.22839,-9.2284 -21.31601,-47.75858 -26.19367,-83.49427 -4.68327,-34.31156 -5.2693,-50.25834 -5.89046,-160.29051 l -0.61288,-108.566383 2.61914,-2.619133 2.61911,-2.619119 107.13675,0 c 105.4757,0 107.17537,0.03862 109.62828,2.491552 2.44558,2.445569 2.49124,4.141209 2.47494,91.875993 -0.0251,135.43681 -2.52525,175.24616 -13.69676,218.09532 -4.27858,16.41086 -13.7725,39.71451 -18.06791,44.34934 l -2.98148,3.21707 -77.29759,0 c -75.09073,0 -77.36727,-0.0696 -79.73747,-2.43986 z m 152.4579,-269.10561 c 7.61078,-2.61849 13.67734,-5.95365 20.3418,-11.18315 l 4.04874,-3.17698 3e-5,-29.587181 5e-5,-29.587182 -97.17053,0 -97.17054,0 0,25.060821 0,25.060812 2.803,-0.77958 c 8.98029,-2.49768 21.70658,-3.33024 31.9209,-2.08829 14.27078,1.73516 25.73099,4.81762 50.96383,13.7077 25.97147,9.15034 36.39157,12.30264 47.90287,14.49165 11.40339,2.16847 26.84954,1.35341 36.35985,-1.91862 z"
     id="path7061"
     inkscape:connector-curvature="0" />
</svg>
