<svg xmlns="http://www.w3.org/2000/svg" xml:space="preserve" viewBox="0 0 55 55" height="55" width="55" version="1.1"><g><path d="m 12.312677,20.37021 30.779923,0 c 0.668602,0 1.21249,0.543888 1.21249,1.215088 l 0,2.045644 c 0,0.667735 -0.543888,1.213356 -1.21249,1.213356 l -30.779923,0 c -0.6712,0 -1.215088,-0.543889 -1.215088,-1.213356 l 0,-2.044778 c 0,-0.672932 0.543022,-1.215954 1.215088,-1.215954 z" id="path8" style="display:inline;fill:#000000;stroke:#000000;stroke-width:3.03122497;stroke-linecap:round;stroke-linejoin:round" /><rect width="28.700502" height="19.16427" x="13.351089" y="24.844297" id="rect10" style="display:inline;fill:none;stroke:#000000;stroke-width:3.03122497;stroke-linecap:round;stroke-linejoin:round" /><path d="m 12.312677,44.008567 30.779923,0 c 0.668602,0 1.21249,0.543023 1.21249,1.213356 l 0,2.045644 c 0,0.6712 -0.543888,1.21682 -1.21249,1.21682 l -30.779923,0 c -0.6712,0 -1.215088,-0.544754 -1.215088,-1.21682 l 0,-2.045644 c 0,-0.666869 0.543022,-1.213356 1.215088,-1.213356 z" id="path17" style="display:inline;fill:#000000;stroke:#000000;stroke-width:3.03122497;stroke-linecap:round;stroke-linejoin:round" /><path d="m 13.350222,44.006835 7.399653,-19.162537 6.838443,19.161671 6.864425,-19.162537" id="path19" style="display:inline;fill:none;stroke:#000000;stroke-width:3.03122497;stroke-linecap:round;stroke-linejoin:round" /><path d="M 42.048127,44.006835 34.452743,24.844298" id="path21" style="display:inline;fill:none;stroke:#000000;stroke-width:3.03122497;stroke-linecap:round;stroke-linejoin:round" /><line style="display:inline;fill:none;stroke:#000000;stroke-width:3.03122497;stroke-linecap:round;stroke-linejoin:round" y2="9.7600565" y1="15.996586" x2="45.81464" x1="33.13026" id="line27" display="inline" /><line style="display:inline;fill:none;stroke:#000000;stroke-width:3.03122497;stroke-linecap:round;stroke-linejoin:round" y2="12.818995" y1="6.5253067" x2="21.843716" x1="9.1853189" id="line29" display="inline" /><path d="m 26.228597,13.097868 c 0.476336,1.25666 -0.148097,2.655353 -1.392631,3.128224 -1.244534,0.472005 -2.64063,-0.16282 -3.116965,-1.419479 -0.473737,-1.255793 0.150695,-2.656219 1.393497,-3.12909 1.2454,-0.469407 2.64063,0.164552 3.116099,1.420345 z" id="path23" style="display:inline;fill:#000000;stroke:#000000;stroke-width:1.94864452;stroke-linecap:round;stroke-linejoin:round" /><path d="m 32.825409,18.848535 c -0.900707,0.974322 -2.423248,1.02975 -3.401901,0.124713 -0.97692,-0.904171 -1.036679,-2.425846 -0.13424,-3.401034 0.901573,-0.974322 2.42498,-1.030617 3.400169,-0.126446 0.977786,0.905038 1.039277,2.427579 0.135972,3.402767 z" id="path25" style="display:inline;fill:#000000;stroke:#000000;stroke-width:1.94864452;stroke-linecap:round;stroke-linejoin:round" /></g></svg>
