<?xml version="1.0" encoding="UTF-8" standalone="no"?>
<!-- Created with Inkscape (http://www.inkscape.org/) -->

<svg
   xmlns:dc="http://purl.org/dc/elements/1.1/"
   xmlns:cc="http://creativecommons.org/ns#"
   xmlns:rdf="http://www.w3.org/1999/02/22-rdf-syntax-ns#"
   xmlns:svg="http://www.w3.org/2000/svg"
   xmlns="http://www.w3.org/2000/svg"
   xmlns:sodipodi="http://sodipodi.sourceforge.net/DTD/sodipodi-0.dtd"
   xmlns:inkscape="http://www.inkscape.org/namespaces/inkscape"
   id="svg13591"
   version="1.1"
   inkscape:version="0.91 r13725"
   width="450"
   height="450"
   viewBox="0 0 450 450"
   sodipodi:docname="kick_drum.svg">
  <metadata
     id="metadata13597">
    <rdf:RDF>
      <cc:Work
         rdf:about="">
        <dc:format>image/svg+xml</dc:format>
        <dc:type
           rdf:resource="http://purl.org/dc/dcmitype/StillImage" />
        <dc:title></dc:title>
      </cc:Work>
    </rdf:RDF>
  </metadata>
  <defs
     id="defs13595" />
  <sodipodi:namedview
     pagecolor="#ffffff"
     bordercolor="#666666"
     borderopacity="1"
     objecttolerance="10"
     gridtolerance="10"
     guidetolerance="10"
     inkscape:pageopacity="0"
     inkscape:pageshadow="2"
     inkscape:window-width="1375"
     inkscape:window-height="876"
     id="namedview13593"
     showgrid="false"
     showguides="true"
     inkscape:guide-bbox="true"
     inkscape:zoom="1.5711111"
     inkscape:cx="225"
     inkscape:cy="225"
     inkscape:window-x="65"
     inkscape:window-y="24"
     inkscape:window-maximized="1"
     inkscape:current-layer="svg13591">
    <sodipodi:guide
       position="44.554455,267.96322"
       orientation="1,0"
       id="guide14723" />
    <sodipodi:guide
       position="404.80905,350.70721"
       orientation="1,0"
       id="guide14725" />
    <sodipodi:guide
       position="211.95191,404.17256"
       orientation="0,1"
       id="guide14727" />
    <sodipodi:guide
       position="197.94908,45.190948"
       orientation="0,1"
       id="guide14729" />
  </sodipodi:namedview>
  <path
     style="fill:#000000"
     d="m 47.004241,397.73989 c -3.283592,-3.28359 -3.059883,-15.1156 0.323377,-17.10392 1.789157,-1.05149 6.35806,-22.44864 13.184378,-61.74505 10.001235,-57.57309 10.340051,-60.71119 7.950338,-73.63252 -1.898465,-10.2652 -3.489389,-13.93306 -6.644893,-15.31979 -7.489733,-3.29148 -6.899185,-30.99947 0.660707,-30.99947 2.974785,0 4.008541,-2.12437 5.123378,-10.52839 2.363309,-17.81536 11.380798,-41.46988 22.654524,-59.42686 6.228574,-9.92096 10.32002,-18.53676 9.712179,-20.45194 -1.597091,-5.03193 17.424401,-23.067243 22.597041,-21.425498 2.70203,0.8576 7.44309,-1.096145 14.81215,-6.103945 50.70647,-34.45848 122.84516,-35.196091 173.72767,-1.776352 10.18622,6.690341 14.83456,8.617226 18.87729,7.825297 4.39893,-0.861722 6.98378,0.608105 14.37379,8.173429 7.68111,7.863269 8.66888,9.770929 6.69553,12.930719 -1.92753,3.08646 -1.12347,5.35219 4.80552,13.5415 13.42799,18.54717 28.78636,57.78273 28.78636,73.53958 0,2.29127 1.45182,3.70246 3.80903,3.70246 4.86477,0 6.25174,3.77625 6.25174,17.0215 0,10.43797 -3.49744,16.97965 -7.69203,14.38727 -1.0075,-0.62269 -2.90324,5.50944 -4.21272,13.62691 -2.28295,14.15197 -1.95189,17.23192 8.04879,74.88014 6.9527,40.07824 11.39522,60.82716 13.32596,62.23891 1.90235,1.39104 2.67329,4.85232 2.24654,10.08615 -0.63978,7.84673 -0.77258,7.96839 -8.69832,7.96839 -7.64283,0 -8.08089,-0.33635 -8.68895,-6.67095 -0.35216,-3.669 0.35086,-7.86521 1.56229,-9.32492 1.62455,-1.95746 0.0695,-14.72856 -5.92575,-48.66326 -4.47059,-25.30512 -8.6709,-48.63531 -9.33409,-51.84487 -1.1495,-5.56341 -1.56669,-5.14966 -8.9438,8.86975 -4.25593,8.08792 -8.61655,15.58384 -9.69031,16.65758 -1.26159,1.2616 -1.175,3.19685 0.24471,5.4702 1.80411,2.88883 0.64255,5.36141 -6.49564,13.82685 -8.48547,10.06327 -12.60715,12.33873 -15.08567,8.32842 -0.67541,-1.09288 -5.87636,1.69689 -11.60402,6.22437 -14.05126,11.10688 -38.95315,23.34569 -57.5741,28.29659 -21.30855,5.66549 -57.44379,5.579 -79.4956,-0.19025 -18.70331,-4.89319 -41.61886,-15.52361 -54.25361,-25.16793 -6.27699,-4.79134 -10.3578,-6.54828 -13.37611,-5.759 -6.42377,1.67985 -22.797914,-14.66975 -21.175892,-21.14418 0.759316,-3.03098 -0.412493,-6.83802 -3.393312,-11.02419 -2.50426,-3.51688 -7.413245,-11.74736 -10.908875,-18.28989 -7.513267,-14.0621 -5.427754,-19.63051 -16.835971,44.95318 -5.208284,29.48489 -7.30198,45.90098 -6.017934,47.18499 2.755653,2.75566 2.459754,13.95382 -0.44549,16.85904 -1.328022,1.32802 -4.316068,2.41458 -6.64011,2.41458 -2.324028,0 -5.312073,-1.08656 -6.640095,-2.41458 z m 174.654909,-53.92571 0,-18.10938 -6.03646,0 -6.03646,0 0,16.95577 c 0,14.45636 0.51905,17.09139 3.52127,17.87594 8.41828,2.19995 8.55165,1.93916 8.55165,-16.72233 z m 16.93874,16.88802 c 2.55247,-0.97946 3.1828,-4.56588 3.1828,-18.10937 l 0,-16.88803 -6.03646,0 -6.03647,0 0,16.76795 c 0,19.52869 0.86771,21.30794 8.89013,18.22945 z m -39.07243,-20.79824 c 0,-16.3148 0.41761,-18.28776 4.47203,-21.1276 2.45959,-1.72277 7.43968,-3.13233 11.06686,-3.13233 l 6.5948,0 0,-37.22484 c 0,-35.88339 -0.14511,-37.22483 -4.0243,-37.22483 -8.30787,0 -12.07293,-6.90262 -12.07293,-22.13368 0,-18.87001 3.06936,-22.1337 20.81576,-22.1337 17.70412,0 19.79187,2.56905 19.01335,23.39661 -0.58565,15.66775 -0.66291,15.87327 -7.08806,18.85862 l -6.49598,3.01823 -0.0434,36.45686 -0.0434,36.45685 8.33862,1.11844 c 4.58622,0.61516 9.09972,2.31894 10.02995,3.78621 0.93024,1.46728 1.70522,10.59063 1.72216,20.27411 0.0349,19.86078 -0.55477,19.33919 16.26587,14.39191 22.25451,-6.54547 42.05517,-18.7032 60.22677,-36.97956 18.87505,-18.98386 28.02546,-32.93052 35.26616,-53.75112 16.65639,-47.89546 8.60772,-98.41648 -22.15739,-139.08071 C 308.24956,81.040067 246.61335,59.067354 192.89517,71.928488 117.29642,90.028209 68.746945,161.68509 80.939468,237.17005 c 5.246521,32.48162 17.43457,55.77979 42.124422,80.52329 17.96676,18.00581 36.07166,29.3144 58.34935,36.44585 18.61052,5.95756 18.11231,6.34912 18.11231,-14.23523 z"
     id="path14721"
     inkscape:connector-curvature="0" />
</svg>
