<?xml version="1.0" encoding="UTF-8" standalone="no"?>
<!-- Created with Inkscape (http://www.inkscape.org/) -->
<svg
   xmlns:dc="http://purl.org/dc/elements/1.1/"
   xmlns:cc="http://creativecommons.org/ns#"
   xmlns:rdf="http://www.w3.org/1999/02/22-rdf-syntax-ns#"
   xmlns:svg="http://www.w3.org/2000/svg"
   xmlns="http://www.w3.org/2000/svg"
   xmlns:sodipodi="http://sodipodi.sourceforge.net/DTD/sodipodi-0.dtd"
   xmlns:inkscape="http://www.inkscape.org/namespaces/inkscape"
   version="1.0"
   width="767"
   height="38"
   id="svg2"
   sodipodi:version="0.32"
   inkscape:version="0.46"
   sodipodi:docname="overflowerror.svg"
   inkscape:output_extension="org.inkscape.output.svg.inkscape">
  <metadata
     id="metadata18">
    <rdf:RDF>
      <cc:Work
         rdf:about="">
        <dc:format>image/svg+xml</dc:format>
        <dc:type
           rdf:resource="http://purl.org/dc/dcmitype/StillImage" />
      </cc:Work>
    </rdf:RDF>
  </metadata>
  <sodipodi:namedview
     inkscape:window-height="723"
     inkscape:window-width="645"
     inkscape:pageshadow="2"
     inkscape:pageopacity="0.0"
     guidetolerance="10.0"
     gridtolerance="10.0"
     objecttolerance="10.0"
     borderopacity="1.0"
     bordercolor="#666666"
     pagecolor="#ffffff"
     id="base"
     showgrid="false"
     inkscape:zoom="1"
     inkscape:cx="186.88855"
     inkscape:cy="17.535157"
     inkscape:window-x="376"
     inkscape:window-y="136"
     inkscape:current-layer="svg2" />
  <defs
     id="defs32">
    <inkscape:perspective
       sodipodi:type="inkscape:persp3d"
       inkscape:vp_x="0 : 19 : 1"
       inkscape:vp_y="0 : 1000 : 0"
       inkscape:vp_z="767 : 19 : 1"
       inkscape:persp3d-origin="383.5 : 12.666667 : 1"
       id="perspective20" />
  </defs>
  <path
     d="M 15,37.5 C 11.5,37.5 8,35 5.5,32.5 C 3,30 0.5,26.5 0.5,23 L 0.5,15 C 0.5,11.75 3,6.5 5.5,4.5 C 8,2.5 11.5,0.5 15,0.5 L 751.5,0.5 C 754,0.5 758.5,1.5 762,4.5 C 765.5,7.25 766.5,12 766.5,15 L 766.5,23 C 766.5,26.5 764.5,30 762,32.5 C 759.5,35 755.5,37.5 751.5,37.5 L 15,37.5 z"
     id="path4"
     style="fill:#ffd000;fill-opacity:1;fill-rule:evenodd;stroke:#e0a000;stroke-width:1px;stroke-linecap:butt;stroke-linejoin:miter;stroke-opacity:1" />
  <g
     transform="translate(656,65.625)"
     id="g6">
    <path
       d="M 79.5,438.5 C 79.5,443 75.75,446.5 71,446.5 C 66.5,446.5 62.75,443 62.75,438.5 C 62.75,434 66.5,430.25 71,430.25 C 75.75,430.25 79.5,434 79.5,438.5 L 79.5,438.5 z"
       transform="translate(24,-485)"
       id="path8"
       style="fill:#ff4040;fill-opacity:1;fill-rule:nonzero;stroke:#ff4040;stroke-width:1;stroke-linecap:square;stroke-linejoin:round;stroke-miterlimit:4;stroke-dasharray:none;stroke-opacity:1" />
    <text
       id="text10"
       style="font-size:12px;font-weight:bold;text-align:start;writing-mode:lr-tb;text-anchor:start;fill:#000000;fill-opacity:1;stroke:none;font-family:Bitstream Vera Sans">
      <tspan
         x="91"
         y="-42"
         id="tspan12"
         style="font-size:12px">X</tspan>
    </text>
  </g>
  <text
     x="-124.76469"
     id="text13"
     style="font-size:13.12157726px;font-style:normal;font-weight:normal;fill:#ff0000;fill-opacity:1;stroke:none;stroke-width:1px;stroke-linecap:butt;stroke-linejoin:miter;stroke-opacity:1;font-family:Bitstream Vera Sans"
     y="-1.9127419">
    <tspan
       x="61.124317"
       y="28.704271"
       id="tspan15"
       style="font-size:26.24315453px">&gt;1000000</tspan>
  </text>
  <g
     transform="translate(6,0)"
     id="g17">
    <path
       d="M 44,15 L 10.5,15 L 27.5,-14 L 44,15 z"
       transform="translate(-4,20)"
       id="path19"
       style="opacity:1;fill:#404040;fill-opacity:1;fill-rule:nonzero;stroke:none;stroke-width:3;stroke-linecap:square;stroke-linejoin:miter;stroke-miterlimit:4;stroke-dasharray:none;stroke-opacity:1" />
    <path
       d="M 44,15 L 10.5,15 L 27.5,-14 L 44,15 z"
       transform="translate(1,17)"
       id="path21"
       style="opacity:1;fill:#e0e0e0;fill-opacity:1;fill-rule:nonzero;stroke:none;stroke-width:3;stroke-linecap:square;stroke-linejoin:miter;stroke-miterlimit:4;stroke-dasharray:none;stroke-opacity:1" />
    <path
       d="M 44,15 L 10.5,15 L 27.5,-14 L 44,15 z"
       transform="translate(-1,18)"
       id="path23"
       style="opacity:1;fill:#ffe000;fill-opacity:1;fill-rule:nonzero;stroke:none;stroke-width:3;stroke-linecap:square;stroke-linejoin:miter;stroke-miterlimit:4;stroke-dasharray:none;stroke-opacity:1" />
  </g>
  <text
     x="6"
     id="text25"
     style="font-size:12px;font-style:normal;font-weight:normal;fill:#000000;fill-opacity:1;stroke:none;stroke-width:1px;stroke-linecap:butt;stroke-linejoin:miter;stroke-opacity:1;font-family:Bitstream Vera Sans">
    <tspan
       x="27"
       y="29"
       id="tspan27"
       style="font-size:24px">!</tspan>
  </text>
</svg>
