<?xml version="1.0" encoding="UTF-8" standalone="no"?>
<svg
   xmlns:dc="http://purl.org/dc/elements/1.1/"
   xmlns:cc="http://creativecommons.org/ns#"
   xmlns:rdf="http://www.w3.org/1999/02/22-rdf-syntax-ns#"
   xmlns:svg="http://www.w3.org/2000/svg"
   xmlns="http://www.w3.org/2000/svg"
   viewBox="0 0 55 55"
   height="55"
   width="55"
   version="1.1"
   id="svg2">
  <metadata
     id="metadata8">
    <rdf:RDF>
      <cc:Work
         rdf:about="">
        <dc:format>image/svg+xml</dc:format>
        <dc:type
           rdf:resource="http://purl.org/dc/dcmitype/StillImage" />
        <dc:title></dc:title>
      </cc:Work>
    </rdf:RDF>
  </metadata>
  <defs
     id="defs6" />
  <ellipse
     ry="13.359763"
     rx="22.430542"
     cy="17.551191"
     cx="27.5"
     id="path4138"
     style="color:#000000;clip-rule:nonzero;display:inline;overflow:visible;visibility:visible;opacity:1;isolation:auto;mix-blend-mode:normal;color-interpolation:sRGB;color-interpolation-filters:linearRGB;solid-color:#000000;solid-opacity:1;fill:none;fill-opacity:1;fill-rule:nonzero;stroke:#00000f;stroke-width:2;stroke-linecap:round;stroke-linejoin:round;stroke-miterlimit:4;stroke-dasharray:none;stroke-dashoffset:0;stroke-opacity:0.94117647;color-rendering:auto;image-rendering:auto;shape-rendering:auto;text-rendering:auto;enable-background:accumulate" />
  <path
     id="path4142"
     d="m 25.288998,10.464645 c 0,0 -1.907853,0.264701 -2.759028,0.680308 -0.878736,0.429064 -1.800448,0.976776 -2.30549,1.814156 -0.396898,0.658072 -0.617405,1.526129 -0.415744,2.267695 0.192199,0.70677 0.83663,1.242294 1.436206,1.662976 1.1262,0.790176 2.500317,1.234594 3.855082,1.474001 1.612981,0.285038 3.309691,0.257988 4.913338,-0.07559 1.443112,-0.300184 3.160362,-0.550319 4.081851,-1.700771 0.543841,-0.67897 0.682192,-1.73072 0.453537,-2.570053 -0.178509,-0.655261 -0.551628,-1.123053 -0.984703,-1.646197 -0.582099,-0.703163 -1.451352,-1.361918 -2.418874,-1.662976 -0.677287,-0.210748 -2.265658,-0.394729 -2.265658,-0.394729"
     style="fill:none;fill-rule:evenodd;stroke:#000000;stroke-width:1;stroke-linecap:round;stroke-linejoin:miter;stroke-miterlimit:4;stroke-dasharray:none;stroke-opacity:1" />
  <path
     id="path4148"
     d="M 27.443308,12.014236 27.329923,7.4788459"
     style="fill:none;fill-rule:evenodd;stroke:#000000;stroke-width:3;stroke-linecap:round;stroke-linejoin:miter;stroke-miterlimit:4;stroke-dasharray:none;stroke-opacity:1" />
  <path
     id="path4153"
     d="M 28.0973,32.011126 28.483816,50.27554"
     style="fill:none;fill-rule:evenodd;stroke:#000000;stroke-width:3.02164054;stroke-linecap:round;stroke-linejoin:miter;stroke-miterlimit:4;stroke-dasharray:none;stroke-opacity:1" />
</svg>
