<?xml version="1.0" encoding="UTF-8" standalone="no"?>
<!-- Generator: Adobe Illustrator 16.2.1, SVG Export Plug-In . SVG Version: 6.00 Build 0)  -->

<svg
   xmlns:dc="http://purl.org/dc/elements/1.1/"
   xmlns:cc="http://creativecommons.org/ns#"
   xmlns:rdf="http://www.w3.org/1999/02/22-rdf-syntax-ns#"
   xmlns:svg="http://www.w3.org/2000/svg"
   xmlns="http://www.w3.org/2000/svg"
   xmlns:sodipodi="http://sodipodi.sourceforge.net/DTD/sodipodi-0.dtd"
   xmlns:inkscape="http://www.inkscape.org/namespaces/inkscape"
   version="1.1"
   id="Layer_1"
   x="0px"
   y="0px"
   width="512px"
   height="512px"
   viewBox="0 0 512 512"
   style="enable-background:new 0 0 512 512;"
   xml:space="preserve"
   inkscape:version="0.91 r13725"
   sodipodi:docname="ride_bell.svg"><metadata
     id="metadata13612"><rdf:RDF><cc:Work
         rdf:about=""><dc:format>image/svg+xml</dc:format><dc:type
           rdf:resource="http://purl.org/dc/dcmitype/StillImage" /><dc:title></dc:title></cc:Work></rdf:RDF></metadata><defs
     id="defs13610" /><sodipodi:namedview
     pagecolor="#ffffff"
     bordercolor="#666666"
     borderopacity="1"
     objecttolerance="10"
     gridtolerance="10"
     guidetolerance="10"
     inkscape:pageopacity="0"
     inkscape:pageshadow="2"
     inkscape:window-width="1375"
     inkscape:window-height="876"
     id="namedview13608"
     showgrid="false"
     showguides="true"
     inkscape:guide-bbox="true"
     inkscape:zoom="1.3808594"
     inkscape:cx="256"
     inkscape:cy="256"
     inkscape:window-x="65"
     inkscape:window-y="24"
     inkscape:window-maximized="1"
     inkscape:current-layer="Layer_1"><sodipodi:guide
       position="45.623762,417.85573"
       orientation="1,0"
       id="guide14694" /><sodipodi:guide
       position="455.51344,378.74965"
       orientation="1,0"
       id="guide14696" /><sodipodi:guide
       position="317.19378,448.27157"
       orientation="0,1"
       id="guide14698" /><sodipodi:guide
       position="265.05233,49.244696"
       orientation="0,1"
       id="guide14700" /></sodipodi:namedview><g
     id="g13602"
     transform="matrix(1.0377181,0,0,1.0377181,-14.074973,-2.0841298)"><path
       d="m 381.7,225.9 c 0,-97.6 -52.5,-130.8 -101.6,-138.2 0,-0.5 0.1,-1 0.1,-1.6 C 280.2,73.8 269.3,64 256,64 c -13.3,0 -23.8,9.8 -23.8,22.1 0,0.6 0,1.1 0.1,1.6 -49.2,7.5 -102,40.8 -102,138.4 0,113.8 -28.3,126 -66.3,158 l 384,0 C 410.2,352 381.7,339.7 381.7,225.9 Z"
       id="path13604"
       inkscape:connector-curvature="0" /><path
       d="m 256.2,448 c 26.8,0 48.8,-19.9 51.7,-43 l -103.4,0 c 2.8,23.1 24.9,43 51.7,43 z"
       id="path13606"
       inkscape:connector-curvature="0" /></g></svg>