<?xml version="1.0" encoding="UTF-8" standalone="no"?>
<svg
   xmlns:dc="http://purl.org/dc/elements/1.1/"
   xmlns:cc="http://creativecommons.org/ns#"
   xmlns:rdf="http://www.w3.org/1999/02/22-rdf-syntax-ns#"
   xmlns:svg="http://www.w3.org/2000/svg"
   xmlns="http://www.w3.org/2000/svg"
   version="1.1"
   id="svg4278"
   height="55"
   width="55">
  <metadata
     id="metadata4312">
    <rdf:RDF>
      <cc:Work
         rdf:about="">
        <dc:format>image/svg+xml</dc:format>
        <dc:type
           rdf:resource="http://purl.org/dc/dcmitype/StillImage" />
        <dc:title></dc:title>
      </cc:Work>
    </rdf:RDF>
  </metadata>
  <defs
     id="defs4310" />
  <path
     d="m 27.05,48.34242 c -0.6,0 -1.1,-0.1 -1.6,-0.1 l 1.3,2.3 1.4,-2.3 c -0.4,0 -0.7,0.1 -1.1,0.1 z"
     style="fill:none;stroke:#608000;stroke-width:3.5;stroke-opacity:1"
     id="path4282" />
  <path
     d="m 39.75,11.74242 c -2.2,0 -4,1.6 -4.4,3.6 1.9,1.4 3.5,3.1 4.7,5.2 2.3,-0.1 4.1,-2 4.1,-4.3 0,-2.5 -2,-4.5 -4.4,-4.5 z"
     style="fill:none;stroke:#608000;stroke-width:3.5;stroke-opacity:1"
     id="path4284" />
  <path
     d="m 40.25,39.94242 c -1.2,2.2 -2.8,4.1 -4.8,5.5 0.5,1.9 2.2,3.3 4.3,3.3 2.4,0 4.4,-2 4.4,-4.4 0,-2.3 -1.7,-4.1 -3.9,-4.4 z"
     style="fill:none;stroke:#608000;stroke-width:3.5;stroke-opacity:1"
     id="path4286" />
  <path
     d="m 13.85,39.94242 c -2.3,0.2 -4.1,2.1 -4.1,4.4 0,2.4 2,4.4 4.5,4.4 2,0 3.8,-1.4 4.2,-3.3 -1.8,-1.5 -3.4,-3.3 -4.6,-5.5 z"
     style="fill:none;stroke:#608000;stroke-width:3.5;stroke-opacity:1"
     id="path4288" />
  <path
     d="m 18.55,15.44242 c -0.3,-2.1 -2.1,-3.7 -4.3,-3.7 -2.5,0 -4.5,2 -4.5,4.5 0,2.3 1.9,4.3 4.3,4.4 1.2,-2.1 2.7,-3.8 4.5,-5.2 z"
     style="fill:none;stroke:#608000;stroke-width:3.5;stroke-opacity:1"
     id="path4290" />
  <path
     d="m 27.05,12.60242 c 1.91,0 3.73,0.41 5.42,1.13 0.74,-1.07 1.91,-2.42 1.33,-3.69 -1.3,-2.7599996 -3.06,-7.6899996 -6.75,-7.6899996 -3.69,0 -5.08,4.93 -6.75,7.6899996 -0.74,1.22 0.44,2.66 1.21,3.74 1.72,-0.75 3.6,-1.18 5.54,-1.18 z"
     style="fill:none;stroke:#608000;stroke-width:3.5;stroke-opacity:1"
     id="path4292" />
  <path
     d="m 42.65,30.44242 c 0,4.8 -1.6,9.3 -4.6,12.6 -2.9,3.4 -6.9,5.3 -11,5.3 -4.1,0 -8.1,-1.9 -11,-5.3 -3,-3.3 -4.6,-7.8 -4.6,-12.6 0,-9.8 7,-17.8 15.6,-17.8 8.6,0 15.6,8 15.6,17.8 z"
     style="fill:none;stroke:#608000;stroke-width:3.5;stroke-opacity:1"
     id="path4294" />
  <path
     d="m 25.45,33.84242 -1.6,-4.7 3.2,-2.6 3.6,2.7 -1.5,4.6 z"
     style="fill:#608000;fill-opacity:1;stroke:#608000;stroke-opacity:1"
     id="path4296" />
  <path
     d="m 27.05,41.64242 c -4,-0.2 -5.5,-2.1 -5.5,-2.1 l 3.5,-4.1 4.5,0.1 3.1,4.2 c 0,0 -2.9,2 -5.6,1.9 z"
     style="fill:#608000;fill-opacity:1;stroke:#608000;stroke-opacity:1"
     id="path4298" />
  <path
     d="m 18.05,33.84242 c -0.9,-2.9 0.1,-6.8 0.1,-6.8 l 4,2.1 1.5,4.7 -3.6,4.2 c 0,0 -1.4,-2 -2.1,-4.2 z"
     style="fill:#608000;fill-opacity:1;stroke:#608000;stroke-opacity:1"
     id="path4300" />
  <path
     d="m 19.05,25.14242 c 0,0 0.5,-1.9 3,-3.8 2.2,-1.6 4.5,-1.7 4.5,-1.7 l -0.1,5 -3.5,2.7 -3.9,-2.2 z"
     style="fill:#608000;fill-opacity:1;stroke:#608000;stroke-opacity:1"
     id="path4302" />
  <path
     d="m 31.65,27.84242 -3.5,-2.8 0.4,-5.2 c 0,0 1.8,-0.1 4,1.6 2.2,1.8 3.3,5 3.3,5 l -4.2,1.4 z"
     style="fill:#608000;fill-opacity:1;stroke:#608000;stroke-opacity:1"
     id="path4304" />
  <path
     d="m 30.85,34.04242 1.3,-4.4 4.2,-1.6 c 0,0 0.7,2.7 0,5.7 -0.6,2.3 -2.1,4.4 -2.1,4.4 l -3.4,-4.1 z"
     style="fill:#608000;fill-opacity:1;stroke:#608000;stroke-opacity:1"
     id="path4306" />
</svg>
