<?xml version="1.0" encoding="UTF-8" standalone="no"?>
<svg
   xmlns:dc="http://purl.org/dc/elements/1.1/"
   xmlns:cc="http://creativecommons.org/ns#"
   xmlns:rdf="http://www.w3.org/1999/02/22-rdf-syntax-ns#"
   xmlns:svg="http://www.w3.org/2000/svg"
   xmlns="http://www.w3.org/2000/svg"
   id="svg3641"
   height="777.12408"
   width="688.31488"
   version="1.1">
  <metadata
     id="metadata3670">
    <rdf:RDF>
      <cc:Work
         rdf:about="">
        <dc:format>image/svg+xml</dc:format>
        <dc:type
           rdf:resource="http://purl.org/dc/dcmitype/StillImage" />
        <dc:title></dc:title>
      </cc:Work>
    </rdf:RDF>
  </metadata>
  <defs
     id="defs3668" />
  <g
     transform="translate(-48,4.2863576e-8)"
     id="g8415">
    <path
       d="m 439.31486,112.12408 0,-8 a 8,8 0 0 1 8,-7.999995 l 8,0 0,3.999995 20,0 0,-3.999995 60,0 8,0 a 8,8 0 0 1 8,7.999995 l 0,8 -8,0 0,-6 -8,0 0,20 8,0 0,-6 8,0 0,34 -8,0 0,-6 -8,0 0,20 8,0 0,-6 8,0 0,8 a 8,8 0 0 1 -8,8 l -8,0 -60,0 -2,0 0,4 -16,0 0,-4 -2,0 -8,0 a 8,8 0 0 1 -8,-8 l 0,-8 0,-42 0,-8 z"
       id="path3194-9"
       style="fill:#00b700;fill-opacity:1;stroke:#007b00;stroke-width:2;stroke-linecap:round;stroke-opacity:1" />
    <text
       id="text3196-5"
       style="font-size:20px;font-family:Sans;text-anchor:end;fill:#000000"
       x="438.31485"
       y="95.124084">
      <tspan
         x="532.31482"
         y="144.12408"
         id="tspan3198-01">tono</tspan>
    </text>
    <text
       id="text3200-4"
       style="font-size:13.33333302px;font-family:Sans;text-anchor:end;fill:#000000"
       x="438.31485"
       y="97.124084">
      <tspan
         x="532.31482"
         y="119.62408"
         id="tspan3202-55">nota</tspan>
    </text>
    <text
       id="text3204-8"
       style="font-size:13.33333302px;font-family:Sans;text-anchor:end;fill:#000000"
       x="438.31485"
       y="99.124084">
      <tspan
         x="532.31482"
         y="163.62408"
         id="tspan3206-1">octava</tspan>
    </text>
    <path
       style="fill:#00b700;fill-opacity:1;stroke:#007b00;stroke-width:2;stroke-linecap:round;stroke-opacity:1"
       id="path21-38"
       d="m 553.31486,96.124085 120,0 0,39.999995 -120,0 0,-16 0,-2 -12,0 0,6 -4,0 0,-16 4,0 0,6 12,0 0,-2 z" />
    <text
       x="586.31482"
       style="font-size:20px;font-family:Sans;text-anchor:start;fill:#000000"
       id="text23-65"
       y="95.124084">
      <tspan
         id="tspan25-85"
         y="121.12408"
         x="606.31482">ti</tspan>
    </text>
    <g
       id="g6656"
       transform="translate(100,-6.4818664e-8)">
      <path
         style="fill:#ff00ff;fill-opacity:1;stroke:#c700d3;stroke-width:2;stroke-linecap:round;stroke-opacity:1"
         id="path21-6-0"
         d="m 453.31486,138.12408 120,0 0,40 -120,0 0,-16 0,-2 -12,0 0,6 -4,0 0,-16 4,0 0,6 12,0 0,-2 z" />
      <text
         y="137.12408"
         x="488.31485"
         style="font-size:20px;font-family:Sans;text-anchor:start;fill:#000000"
         id="text23-9-3">
        <tspan
           id="tspan25-8-27"
           y="163.12408"
           x="508.31485">4</tspan>
      </text>
    </g>
    <path
       style="fill:#00b700;fill-opacity:1;stroke:#007b00;stroke-width:2;stroke-linecap:round;stroke-opacity:1"
       id="path21-2-3"
       d="m 553.31486,264.12409 120,0 0,40 -120,0 0,-16 0,-2 -12,0 0,6 -4,0 0,-16 4,0 0,6 12,0 0,-2 z" />
    <text
       x="586.31482"
       style="font-size:20px;font-family:Sans;text-anchor:start;fill:#000000"
       id="text23-0-6"
       y="263.12408">
      <tspan
         id="tspan25-7-2"
         y="289.12408"
         x="606.31482">do</tspan>
    </text>
    <path
       style="fill:#00b700;fill-opacity:1;stroke:#007b00;stroke-width:2;stroke-linecap:round;stroke-opacity:1"
       id="path21-3-2"
       d="m 553.31486,432.12408 120,0 0,40 -120,0 0,-16 0,-2 -12,0 0,6 -4,0 0,-16 4,0 0,6 12,0 0,-2 z" />
    <text
       x="586.31482"
       style="font-size:20px;font-family:Sans;text-anchor:start;fill:#000000"
       id="text23-6-7"
       y="431.12408">
      <tspan
         id="tspan25-9-2"
         y="457.12408"
         x="606.31482">re</tspan>
    </text>
    <path
       d="m 553.31486,306.12409 120,0 0,40 -120,0 0,-16 0,-2 -12,0 0,6 -4,0 0,-16 4,0 0,6 12,0 0,-2 z"
       id="path21-6-7-2"
       style="fill:#ff00ff;fill-opacity:1;stroke:#c700d3;stroke-width:2;stroke-linecap:round;stroke-opacity:1" />
    <text
       id="text23-9-8-9"
       style="font-size:20px;font-family:Sans;text-anchor:start;fill:#000000"
       x="588.31482"
       y="305.12408">
      <tspan
         x="608.31482"
         y="331.12408"
         id="tspan25-8-2-4">5</tspan>
    </text>
    <path
       d="m 553.31486,474.12409 120,0 0,40 -120,0 0,-16 0,-2 -12,0 0,6 -4,0 0,-16 4,0 0,6 12,0 0,-2 z"
       id="path21-6-72-1"
       style="fill:#ff00ff;fill-opacity:1;stroke:#c700d3;stroke-width:2;stroke-linecap:round;stroke-opacity:1" />
    <text
       id="text23-9-5-2"
       style="font-size:20px;font-family:Sans;text-anchor:start;fill:#000000"
       x="588.31482"
       y="473.12408">
      <tspan
         x="608.31482"
         y="499.12408"
         id="tspan25-8-7-3">5</tspan>
    </text>
    <path
       d="m 439.31486,448.12408 0,-8 a 8,8 0 0 1 8,-8 l 8,0 0,4 20,0 0,-4 60,0 8,0 a 8,8 0 0 1 8,8 l 0,8 -8,0 0,-6 -8,0 0,20 8,0 0,-6 8,0 0,34 -8,0 0,-6 -8,0 0,20 8,0 0,-6 8,0 0,8 a 8,8 0 0 1 -8,8 l -8,0 -60,0 -2,0 0,4 -16,0 0,-4 -2,0 -8,0 a 8,8 0 0 1 -8,-8 l 0,-8 0,-42 0,-8 z"
       id="path3194-6-6"
       style="fill:#00b700;fill-opacity:1;stroke:#007b00;stroke-width:2;stroke-linecap:round;stroke-opacity:1" />
    <text
       id="text3196-0-8"
       style="font-size:20px;font-family:Sans;text-anchor:end;fill:#000000"
       x="438.31485"
       y="431.12408">
      <tspan
         x="532.31482"
         y="480.12408"
         id="tspan3198-1-9">tono</tspan>
    </text>
    <text
       id="text3200-46-5"
       style="font-size:13.33333302px;font-family:Sans;text-anchor:end;fill:#000000"
       x="438.31485"
       y="433.12408">
      <tspan
         x="532.31482"
         y="455.62408"
         id="tspan3202-3-0">nota</tspan>
    </text>
    <text
       id="text3204-4-2"
       style="font-size:13.33333302px;font-family:Sans;text-anchor:end;fill:#000000"
       x="438.31485"
       y="435.12408">
      <tspan
         x="532.31482"
         y="499.62408"
         id="tspan3206-6-2">octava</tspan>
    </text>
    <path
       d="m 439.31486,280.12409 0,-8 a 8,8 0 0 1 8,-8 l 8,0 0,4 20,0 0,-4 60,0 8,0 a 8,8 0 0 1 8,8 l 0,8 -8,0 0,-6 -8,0 0,20 8,0 0,-6 8,0 0,34 -8,0 0,-6 -8,0 0,20 8,0 0,-6 8,0 0,8 a 8,8 0 0 1 -8,8 l -8,0 -60,0 -2,0 0,4 -16,0 0,-4 -2,0 -8,0 a 8,8 0 0 1 -8,-8 l 0,-8 0,-42 0,-8 z"
       id="path3194-3-8"
       style="fill:#00b700;fill-opacity:1;stroke:#007b00;stroke-width:2;stroke-linecap:round;stroke-opacity:1" />
    <text
       id="text3196-7-6"
       style="font-size:20px;font-family:Sans;text-anchor:end;fill:#000000"
       x="438.31485"
       y="263.12408">
      <tspan
         x="532.31482"
         y="312.12408"
         id="tspan3198-0-1">tono</tspan>
    </text>
    <text
       id="text3200-6-0"
       style="font-size:13.33333302px;font-family:Sans;text-anchor:end;fill:#000000"
       x="438.31485"
       y="265.12408">
      <tspan
         x="532.31482"
         y="287.62408"
         id="tspan3202-5-0">nota</tspan>
    </text>
    <text
       id="text3204-9-5"
       style="font-size:13.33333302px;font-family:Sans;text-anchor:end;fill:#000000"
       x="438.31485"
       y="267.12408">
      <tspan
         x="532.31482"
         y="331.62408"
         id="tspan3206-0-8">octava</tspan>
    </text>
    <path
       d="m 421.31486,70.124105 0,-8 c 0,-4.41828 3.58172,-8 8,-8 l 8,0 0,4 20,0 0,-4 18,0 122,0 8,0 c 4.41828,0 6.92841,3.713639 8,8 l 0,8 -8,0 0,-6 -8,0 0,20 8,0 0,-6 8,0 0,8 c 0,4.41828 -3.58172,8 -8,8 l -8,0 -122,0 -2,0 0,4 -16,0 0,-4 -2,0 -8,0 c -5.52285,0 -10,4.47715 -10,9.999985 l 0,8 0,50.00001 0,7.99999 c 0,5.52285 4.64205,11.3395 10,10 l 8,0 0,4 20,0 0,-4 16,0 0,12 0,12.00001 0,8 c 0,4.41828 -3.71364,9.0716 -8,8 l -8,0 -18,0 -2,0 0,4 -16,0 0,-4 -2,0 -8,0 c -4.41828,0 -8,-3.58172 -8,-8 l 0,-8 z"
       id="path3035-4"
       style="fill:#fd6600;fill-opacity:1;stroke:#ac3d00;stroke-width:2;stroke-linecap:round;stroke-opacity:1" />
    <text
       id="text3037-9"
       style="font-size:20px;font-family:Sans;text-anchor:start;fill:#000000"
       y="51.124107"
       x="418.31485">
      <tspan
         x="426.31485"
         y="81.624115"
         id="tspan3039-9">valor de la nota</tspan>
    </text>
    <path
       d="m 615.31486,54.124105 120,0 0,40 -120,0 0,-16 0,-2 -12,0 0,6 -4,0 0,-16 4,0 0,6 12,0 0,-2 z"
       id="path21-6-1-1"
       style="fill:#ff00ff;fill-opacity:1;stroke:#c700d3;stroke-width:2;stroke-linecap:round;stroke-opacity:1" />
    <text
       id="text23-9-82-4"
       style="font-size:20px;font-family:Sans;text-anchor:start;fill:#000000"
       x="650.31482"
       y="53.124107">
      <tspan
         x="670.31482"
         y="79.124115"
         id="tspan25-8-5-6">4</tspan>
    </text>
    <path
       d="m 421.31486,406.12409 0,-8 c 0,-4.41827 3.58173,-8 8,-8 l 8,0 0,4 20,0 0,-4 18,0 122,0 8,0 c 4.41828,0 8.00001,3.58173 8.00001,8 l 0,8 -8.00001,0 0,-6 -8,0 0,20 8,0 0,-6 8.00001,0 0,8 c 0,4.41828 -3.58173,8 -8.00001,8 l -8,0 -122,0 -2,0 0,4 -16,0 0,-4 -2,0 -8,0 c -5.52284,0 -10,4.47716 -10,10 l 0,8 0,50.00001 0,7.99999 c 0,5.52285 4.64206,11.3395 10,10 l 8,0 0,4 20,0 0,-4 16,0 0,12 0,12 0,8 c 0,4.41828 -3.71364,9.0716 -8,8 l -8,0 -18,0 -2,0 0,4 -16,0 0,-4 -2,0 -8,0 c -4.41827,0 -8,-3.58172 -8,-8 l 0,-8 z"
       id="path3035-3-6"
       style="fill:#fd6600;fill-opacity:1;stroke:#ac3d00;stroke-width:2;stroke-linecap:round;stroke-opacity:1" />
    <text
       id="text3037-5-0"
       style="font-size:20px;font-family:Sans;text-anchor:start;fill:#000000"
       y="387.12408"
       x="418.31485">
      <tspan
         x="426.31485"
         y="417.62408"
         id="tspan3039-8-4">valor de la nota</tspan>
    </text>
    <g
       id="g6666"
       transform="translate(162,-6.4818664e-8)">
      <path
         style="fill:#ff00ff;fill-opacity:1;stroke:#c700d3;stroke-width:2;stroke-linecap:round;stroke-opacity:1"
         id="path21-6-1-2-1"
         d="m 453.31487,390.1241 119.99999,0 0,40 -119.99999,0 0,-16 0,-2 -12.00001,0 0,6 -4,0 0,-16 4,0 0,6 12.00001,0 0,-2 z" />
      <text
         y="389.12408"
         x="488.31485"
         style="font-size:20px;font-family:Sans;text-anchor:start;fill:#000000"
         id="text23-9-82-1-8">
        <tspan
           id="tspan25-8-5-3-5"
           y="415.12408"
           x="508.31485">2</tspan>
      </text>
    </g>
    <path
       d="m 421.31486,238.1241 0,-8 c 0,-4.41827 3.58172,-8 8,-8 l 8,0 0,4 20,0 0,-4 18,0 122,0 8,0 c 4.41828,0 9.07159,3.71365 8,8 l 0,8 -8,0 0,-6 -8,0 0,20 8,0 0,-6 8,0 0,8 c 0,4.41828 -3.58172,8 -8,8 l -8,0 -122,0 -2,0 0,4 -16,0 0,-4 -2,0 -8,0 c -5.52284,0 -10,4.47716 -10,10 l 0,8 0,50.00001 0,7.99999 c 0,5.52285 4.64205,11.3395 10,10 l 8,0 0,4 20,0 0,-4 16,0 0,12 0,12 0,8 c 0,4.41828 -3.71364,9.0716 -8,8 l -8,0 -18,0 -2,0 0,4 -16,0 0,-4 -2,0 -8,0 c -4.41828,0 -8,-3.58172 -8,-8 l 0,-8 z"
       id="path3035-8-1"
       style="fill:#fd6600;fill-opacity:1;stroke:#ac3d00;stroke-width:2;stroke-linecap:round;stroke-opacity:1" />
    <text
       id="text3037-0-1"
       style="font-size:20px;font-family:Sans;text-anchor:start;fill:#000000"
       y="219.1241"
       x="418.31485">
      <tspan
         x="426.31485"
         y="249.62411"
         id="tspan3039-6-1">valor de la nota</tspan>
    </text>
    <g
       id="g6661"
       transform="translate(162,-6.4818664e-8)">
      <path
         style="fill:#ff00ff;fill-opacity:1;stroke:#c700d3;stroke-width:2;stroke-linecap:round;stroke-opacity:1"
         id="path21-6-1-0-1"
         d="m 453.31486,222.12411 120,0 0,40 -120,0 0,-16 0,-2 -12,0 0,6 -4,0 0,-16 4,0 0,6 12,0 0,-2 z" />
      <text
         y="223.1241"
         x="488.31485"
         style="font-size:20px;font-family:Sans;text-anchor:start;fill:#000000"
         id="text23-9-82-5-8">
        <tspan
           id="tspan25-8-5-1-3"
           y="249.1241"
           x="508.31485">4</tspan>
      </text>
    </g>
  </g>
  <path
     style="fill:#ffc000;fill-opacity:1;stroke:#c48d00;stroke-width:2;stroke-linecap:round;stroke-opacity:1"
     id="path3027-4-2"
     d="m 355.31486,29.56205 0,-8 c 0,-4.18879 3.81121,-8 8,-8 l 8,0 10,-12.0000001 10,12.0000001 18,0 70,0 8,0 c 4.18879,0 8,3.81121 8,8 l 0,8 -8,0 0,-6 -8,0 0,20 8,0 0,-6 8,0 0,8 c 0,4.18879 -3.81121,8 -8,8 l -8,0 -70,0 -2,0 0,4 -16,0 0,-4 -2,0 -8,0 c -2.61799,0 -5.21987,1.07773 -7.07107,2.92893 -1.8512,1.8512 -2.92893,4.45307 -2.92893,7.07107 l 0,8 0,468 0,8 c 0,2.61799 1.07773,5.21987 2.92893,7.07107 1.8512,1.8512 4.53125,2.29397 7.07107,2.92893 l 8,0 0,4 20,0 0,-4 16,0 0,12 0,12 0,8 c 0,4.18878 -3.93628,9.01593 -8,8 l -8,0 -18,0 -10,12 -10,-12 -8,0 c -4.18879,0 -8,-3.81122 -8,-8 l 0,-8 z" />
  <text
     style="font-size:20px;font-family:Sans;text-anchor:start;fill:#000000"
     id="text3029-4-9"
     y="-1.7267047"
     x="354.25946">
    <tspan
       id="tspan3031-5-3"
       y="41.273296"
       x="362.25946">acci贸n</tspan>
  </text>
  <path
     style="fill:#7bbbb8;fill-opacity:1;stroke:#4c8585;stroke-width:2;stroke-linecap:round;stroke-opacity:1"
     id="path21-2-0-2"
     d="m 497.31486,13.56205 124,0 0,40 -124,0 0,-16 0,-2 -12,0 0,6 -4,0 0,-16 4,0 0,6 12,0 0,-2 z" />
  <text
     style="font-size:20px;font-family:Sans;text-anchor:start;fill:#000000"
     id="text23-2-3"
     y="12.018046"
     x="487.53271">
    <tspan
       id="tspan25-1-1"
       y="38.018032"
       x="507.53271">colecci贸n1</tspan>
  </text>
  <path
     style="fill:#ffc000;fill-opacity:1;stroke:#c48d00;stroke-width:2;stroke-linecap:round;stroke-opacity:1"
     id="path3027-4"
     d="m 1,29.56205 0,-8 c 0,-4.18879 3.81121,-8 8,-8 l 8,0 10,-12.0000001 10,12.0000001 18,0 70,0 8,0 c 4.18879,0 8,3.81121 8,8 l 0,8 -8,0 0,-6 -8,0 0,20 8,0 0,-6 8,0 0,8 c 0,4.18879 -3.81121,8 -8,8 l -8,0 -70,0 -2,0 0,4 -16,0 0,-4 -2,0 -8,0 c -2.61799,0 -5.21987,1.07773 -7.07107,2.92893 C 18.07773,58.34218 17,60.94405 17,63.56205 l 0,8 0,634 0,8 c 0,2.61799 1.07773,5.21987 2.92893,7.07107 1.8512,1.8512 4.531247,2.29397 7.07107,2.92893 l 8,0 0,4 20,0 0,-4 16,0 0,12 0,12 0,8 c 0,4.18878 -3.93628,9.01593 -8,8 l -8,0 -18,0 -10,12 -10,-12 -8,0 c -4.18879,0 -8,-3.81122 -8,-8 l 0,-8 z" />
  <text
     style="font-size:20px;font-family:Sans;text-anchor:start;fill:#000000"
     id="text3029-4"
     y="-1.7267047"
     x="-0.055397034">
    <tspan
       id="tspan3031-5"
       y="41.273296"
       x="7.944603">acci贸n</tspan>
  </text>
  <path
     style="fill:#7bbbb8;fill-opacity:1;stroke:#4c8585;stroke-width:2;stroke-linecap:round;stroke-opacity:1"
     id="path21-2-0"
     d="m 143,13.56205 120,0 0,40 -120,0 0,-16 0,-2 -12,0 0,6 -4,0 0,-16 4,0 0,6 12,0 0,-2 z" />
  <text
     style="font-size:20px;font-family:Sans;text-anchor:start;fill:#000000"
     id="text23-2"
     y="12.018046"
     x="137.21786">
    <tspan
       id="tspan25-1"
       y="38.018032"
       x="157.21786">colecci贸n</tspan>
  </text>
  <g
     id="g8734">
    <path
       d="m 37,112.12408 0,-8 a 8,8 0 0 1 8,-8 l 8,0 0,4 20,0 0,-4 60,0 8,0 a 8,8 0 0 1 8,8 l 0,8 -8,0 0,-6 -8,0 0,20 8,0 0,-6 8,0 0,34 -8,0 0,-6 -8,0 0,20 8,0 0,-6 8,0 0,8 a 8,8 0 0 1 -8,8 l -8,0 -60,0 -2,0 0,4 -16,0 0,-4 -2,0 -8,0 a 8,8 0 0 1 -8,-8 l 0,-8 0,-42 0,-8 z"
       id="path3194"
       style="fill:#00b700;fill-opacity:1;stroke:#007b00;stroke-width:2;stroke-linecap:round;stroke-opacity:1" />
    <text
       y="95.124077"
       x="36"
       id="text3196"
       style="font-size:20px;font-family:Sans;text-anchor:end;fill:#000000">
      <tspan
         x="130"
         y="144.12408"
         id="tspan3198">tono</tspan>
    </text>
    <text
       y="97.124077"
       x="36"
       id="text3200"
       style="font-size:13.33333302px;font-family:Sans;text-anchor:end;fill:#000000">
      <tspan
         x="130"
         y="119.62408"
         id="tspan3202">nota</tspan>
    </text>
    <text
       y="99.124077"
       x="36"
       id="text3204"
       style="font-size:13.33333302px;font-family:Sans;text-anchor:end;fill:#000000">
      <tspan
         x="130"
         y="163.62408"
         id="tspan3206">octava</tspan>
    </text>
    <path
       style="fill:#00b700;fill-opacity:1;stroke:#007b00;stroke-width:2;stroke-linecap:round;stroke-opacity:1"
       id="path21"
       d="m 151,96.12408 120,0 0,40 -120,0 0,-16 0,-2 -12,0 0,6 -4,0 0,-16 4,0 0,6 12,0 0,-2 z" />
    <text
       y="95.124077"
       x="184"
       style="font-size:20px;font-family:Sans;text-anchor:start;fill:#000000"
       id="text23">
      <tspan
         id="tspan25"
         y="121.12408"
         x="204">sol</tspan>
    </text>
    <path
       d="m 151,138.12408 120,0 0,40 -120,0 0,-16 0,-2 -12,0 0,6 -4,0 0,-16 4,0 0,6 12,0 0,-2 z"
       id="path21-6"
       style="fill:#ff00ff;fill-opacity:1;stroke:#c700d3;stroke-width:2;stroke-linecap:round;stroke-opacity:1" />
    <text
       id="text23-9"
       style="font-size:20px;font-family:Sans;text-anchor:start;fill:#000000"
       x="186"
       y="137.12408">
      <tspan
         x="206"
         y="163.12408"
         id="tspan25-8">4</tspan>
    </text>
    <path
       style="fill:#00b700;fill-opacity:1;stroke:#007b00;stroke-width:2;stroke-linecap:round;stroke-opacity:1"
       id="path21-2"
       d="m 151,264.12408 120,0 0,40 -120,0 0,-16 0,-2 -12,0 0,6 -4,0 0,-16 4,0 0,6 12,0 0,-2 z" />
    <text
       y="263.12408"
       x="184"
       style="font-size:20px;font-family:Sans;text-anchor:start;fill:#000000"
       id="text23-0">
      <tspan
         id="tspan25-7"
         y="289.12408"
         x="204">la</tspan>
    </text>
    <path
       d="m 151,306.12408 120,0 0,40 -120,0 0,-16 0,-2 -12,0 0,6 -4,0 0,-16 4,0 0,6 12,0 0,-2 z"
       id="path21-6-7"
       style="fill:#ff00ff;fill-opacity:1;stroke:#c700d3;stroke-width:2;stroke-linecap:round;stroke-opacity:1" />
    <text
       id="text23-9-8"
       style="font-size:20px;font-family:Sans;text-anchor:start;fill:#000000"
       x="186"
       y="305.12408">
      <tspan
         x="206"
         y="331.12408"
         id="tspan25-8-2">4</tspan>
    </text>
    <path
       d="m 37,280.12408 0,-8 a 8,8 0 0 1 8,-8 l 8,0 0,4 20,0 0,-4 60,0 8,0 a 8,8 0 0 1 8,8 l 0,8 -8,0 0,-6 -8,0 0,20 8,0 0,-6 8,0 0,34 -8,0 0,-6 -8,0 0,20 8,0 0,-6 8,0 0,8 a 8,8 0 0 1 -8,8 l -8,0 -60,0 -2,0 0,4 -16,0 0,-4 -2,0 -8,0 a 8,8 0 0 1 -8,-8 l 0,-8 0,-42 0,-8 z"
       id="path3194-3"
       style="fill:#00b700;fill-opacity:1;stroke:#007b00;stroke-width:2;stroke-linecap:round;stroke-opacity:1" />
    <text
       y="263.12408"
       x="36"
       id="text3196-7"
       style="font-size:20px;font-family:Sans;text-anchor:end;fill:#000000">
      <tspan
         x="130"
         y="312.12408"
         id="tspan3198-0">tono</tspan>
    </text>
    <text
       y="265.12408"
       x="36"
       id="text3200-6"
       style="font-size:13.33333302px;font-family:Sans;text-anchor:end;fill:#000000">
      <tspan
         x="130"
         y="287.62408"
         id="tspan3202-5">nota</tspan>
    </text>
    <text
       y="267.12408"
       x="36"
       id="text3204-9"
       style="font-size:13.33333302px;font-family:Sans;text-anchor:end;fill:#000000">
      <tspan
         x="130"
         y="331.62408"
         id="tspan3206-0">octava</tspan>
    </text>
    <path
       d="m 19,70.124095 0,-8 c 0,-4.418278 3.581722,-8 8,-8 l 8,0 0,4 20,0 0,-4 18,0 120,0 8,0 c 4.41828,0 9.07159,3.713641 8,8 l 0,8 -8,0 0,-6 -8,0 0,20 8,0 0,-6 8,0 0,8 c 0,4.418278 -3.58172,8 -8,8 l -8,0 -120,0 -2,0 0,4 -16,0 0,-4 -2,0 -8,0 c -5.522847,0 -10,4.477153 -10,9.999995 l 0,8 0,50.00001 0,7.99999 c 0,5.52285 4.642051,11.3395 10,10 l 8,0 0,4 20,0 0,-4 16,0 0,12 0,12 0,8 c 0,4.41828 -3.713641,9.0716 -8,8 l -8,0 -18,0 -2,0 0,4 -16,0 0,-4 -2,0 -8,0 c -4.418278,0 -8,-3.58172 -8,-8 l 0,-8 z"
       id="path3035"
       style="fill:#fd6600;fill-opacity:1;stroke:#ac3d00;stroke-width:2;stroke-linecap:round;stroke-opacity:1" />
    <text
       id="text3037"
       style="font-size:20px;font-family:Sans;text-anchor:start;fill:#000000"
       y="51.124096"
       x="16">
      <tspan
         x="24"
         y="81.624092"
         id="tspan3039">valor de la nota</tspan>
    </text>
    <g
       id="g6671"
       transform="translate(60,-6.4818664e-8)">
      <path
         style="fill:#ff00ff;fill-opacity:1;stroke:#c700d3;stroke-width:2;stroke-linecap:round;stroke-opacity:1"
         id="path21-6-1"
         d="m 151,54.124098 120,0 0,40 -120,0 0,-16 0,-2 -12,0 0,6 -4,0 0,-16 4,0 0,6 12,0 0,-2 z" />
      <text
         y="53.1241"
         x="186"
         style="font-size:20px;font-family:Sans;text-anchor:start;fill:#000000"
         id="text23-9-82">
        <tspan
           id="tspan25-8-5"
           y="79.1241"
           x="206">4</tspan>
      </text>
    </g>
    <path
       style="fill:#00b700;fill-opacity:1;stroke:#007b00;stroke-width:2;stroke-linecap:round;stroke-opacity:1"
       id="path21-3"
       d="m 151,432.12408 120,0 0,40 -120,0 0,-16 0,-2 -12,0 0,6 -4,0 0,-16 4,0 0,6 12,0 0,-2 z" />
    <text
       y="431.12408"
       x="184"
       style="font-size:20px;font-family:Sans;text-anchor:start;fill:#000000"
       id="text23-6">
      <tspan
         id="tspan25-9"
         y="457.12408"
         x="204">ti</tspan>
    </text>
    <path
       d="m 151,474.12408 120,0 0,40 -120,0 0,-16 0,-2 -12,0 0,6 -4,0 0,-16 4,0 0,6 12,0 0,-2 z"
       id="path21-6-72"
       style="fill:#ff00ff;fill-opacity:1;stroke:#c700d3;stroke-width:2;stroke-linecap:round;stroke-opacity:1" />
    <text
       id="text23-9-5"
       style="font-size:20px;font-family:Sans;text-anchor:start;fill:#000000"
       x="186"
       y="473.12408">
      <tspan
         x="206"
         y="499.12408"
         id="tspan25-8-7">4</tspan>
    </text>
    <path
       d="m 37,448.12408 0,-8 a 8,8 0 0 1 8,-8 l 8,0 0,4 20,0 0,-4 60,0 8,0 a 8,8 0 0 1 8,8 l 0,8 -8,0 0,-6 -8,0 0,20 8,0 0,-6 8,0 0,34 -8,0 0,-6 -8,0 0,20 8,0 0,-6 8,0 0,8 a 8,8 0 0 1 -8,8 l -8,0 -60,0 -2,0 0,4 -16,0 0,-4 -2,0 -8,0 a 8,8 0 0 1 -8,-8 l 0,-8 0,-42 0,-8 z"
       id="path3194-6"
       style="fill:#00b700;fill-opacity:1;stroke:#007b00;stroke-width:2;stroke-linecap:round;stroke-opacity:1" />
    <text
       y="431.12408"
       x="36"
       id="text3196-0"
       style="font-size:20px;font-family:Sans;text-anchor:end;fill:#000000">
      <tspan
         x="130"
         y="480.12408"
         id="tspan3198-1">tono</tspan>
    </text>
    <text
       y="433.12408"
       x="36"
       id="text3200-46"
       style="font-size:13.33333302px;font-family:Sans;text-anchor:end;fill:#000000">
      <tspan
         x="130"
         y="455.62408"
         id="tspan3202-3">nota</tspan>
    </text>
    <text
       y="435.12408"
       x="36"
       id="text3204-4"
       style="font-size:13.33333302px;font-family:Sans;text-anchor:end;fill:#000000">
      <tspan
         x="130"
         y="499.62408"
         id="tspan3206-6">octava</tspan>
    </text>
    <path
       d="m 19,406.12409 0,-8 c 0,-4.41827 3.58173,-8 8,-8 l 8,0 0,4 20,0 0,-4 18,0 120,0 8,0 c 4.41828,0 9.0716,3.71365 8.00001,8 l 0,8 -8.00001,0 0,-6 -8,0 0,20 8,0 0,-6 8.00001,0 0,8 c 0,4.41828 -3.58173,8 -8.00001,8 l -8,0 -120,0 -2,0 0,4 -16,0 0,-4 -2,0 -8,0 c -5.52284,0 -10,4.47716 -10,10 l 0,8 0,50.00001 0,7.99999 c 0,5.52285 4.64206,11.3395 10,10 l 8,0 0,4 20,0 0,-4 16,0 0,12 0,12 0,8 c 0,4.41828 -3.71364,9.0716 -8,8 l -8,0 -18,0 -2,0 0,4 -16,0 0,-4 -2,0 -8,0 c -4.41827,0 -8,-3.58172 -8,-8 l 0,-8 z"
       id="path3035-3"
       style="fill:#fd6600;fill-opacity:1;stroke:#ac3d00;stroke-width:2;stroke-linecap:round;stroke-opacity:1" />
    <text
       id="text3037-5"
       style="font-size:20px;font-family:Sans;text-anchor:start;fill:#000000"
       y="387.12408"
       x="16">
      <tspan
         x="24"
         y="417.62408"
         id="tspan3039-8">valor de la nota</tspan>
    </text>
    <g
       id="g6681"
       transform="translate(60,-6.4818664e-8)">
      <path
         style="fill:#ff00ff;fill-opacity:1;stroke:#c700d3;stroke-width:2;stroke-linecap:round;stroke-opacity:1"
         id="path21-6-1-2"
         d="m 151.00001,390.1241 119.99999,0 0,40 -119.99999,0 0,-16 0,-2 -12.00001,0 0,6 -4,0 0,-16 4,0 0,6 12.00001,0 0,-2 z" />
      <text
         y="389.12408"
         x="186"
         style="font-size:20px;font-family:Sans;text-anchor:start;fill:#000000"
         id="text23-9-82-1">
        <tspan
           id="tspan25-8-5-3"
           y="415.12408"
           x="206">4</tspan>
      </text>
    </g>
    <path
       d="m 19,238.1241 0,-8 c 0,-4.41828 3.58172,-8 8,-8 l 8,0 0,4 20,0 0,-4 18,0 120,0 8,0 c 4.41828,0 8,3.58172 8,8 l 0,8 -8,0 0,-6 -8,0 0,20 8,0 0,-6 8,0 0,8 c 0,4.41827 -3.58172,8 -8,8 l -8,0 -120,0 -2,0 0,4 -16,0 0,-4 -2,0 -8,0 c -5.52284,0 -10,4.47715 -10,10 l 0,8 0,50 0,7.99999 c 0,5.52285 4.64205,11.3395 10,10 l 8,0 0,4 20,0 0,-4 16,0 0,12 0,12 0,8 c 0,4.41828 -3.71364,9.0716 -8,8 l -8,0 -18,0 -2,0 0,4 -16,0 0,-4 -2,0 -8,0 c -4.41828,0 -8,-3.58172 -8,-8 l 0,-8 z"
       id="path3035-8"
       style="fill:#fd6600;fill-opacity:1;stroke:#ac3d00;stroke-width:2;stroke-linecap:round;stroke-opacity:1" />
    <text
       id="text3037-0"
       style="font-size:20px;font-family:Sans;text-anchor:start;fill:#000000"
       y="219.1241"
       x="16.000004">
      <tspan
         x="24.000004"
         y="249.6241"
         id="tspan3039-6">valor de la nota</tspan>
    </text>
    <g
       id="g6676"
       transform="translate(60,-6.4818664e-8)">
      <path
         style="fill:#ff00ff;fill-opacity:1;stroke:#c700d3;stroke-width:2;stroke-linecap:round;stroke-opacity:1"
         id="path21-6-1-0"
         d="m 151,222.1241 120,0 0,40 -120,0 0,-16 0,-2 -12,0 0,6 -4,0 0,-16 4,0 0,6 12,0 0,-2 z" />
      <text
         y="223.1241"
         x="186"
         style="font-size:20px;font-family:Sans;text-anchor:start;fill:#000000"
         id="text23-9-82-5">
        <tspan
           id="tspan25-8-5-1"
           y="249.1241"
           x="206">4</tspan>
      </text>
    </g>
    <path
       style="fill:#00b700;fill-opacity:1;stroke:#007b00;stroke-width:2;stroke-linecap:round;stroke-opacity:1"
       id="path21-3-3"
       d="m 151,600.12407 120,0 0,40 -120,0 0,-16 0,-2 -12,0 0,6 -4,0 0,-16 4,0 0,6 12,0 0,-2 z" />
    <text
       y="599.12408"
       x="184"
       style="font-size:20px;font-family:Sans;text-anchor:start;fill:#000000"
       id="text23-6-5">
      <tspan
         id="tspan25-9-8"
         y="625.12408"
         x="204">sol</tspan>
    </text>
    <path
       d="m 151,642.12407 120,0 0,40 -120,0 0,-16 0,-2 -12,0 0,6 -4,0 0,-16 4,0 0,6 12,0 0,-2 z"
       id="path21-6-72-4"
       style="fill:#ff00ff;fill-opacity:1;stroke:#c700d3;stroke-width:2;stroke-linecap:round;stroke-opacity:1" />
    <text
       id="text23-9-5-6"
       style="font-size:20px;font-family:Sans;text-anchor:start;fill:#000000"
       x="186"
       y="641.12408">
      <tspan
         x="206"
         y="667.12408"
         id="tspan25-8-7-2">4</tspan>
    </text>
    <path
       d="m 37,616.12407 0,-8 a 8,8 0 0 1 8,-8 l 8,0 0,4 20,0 0,-4 60,0 8,0 a 8,8 0 0 1 8,8 l 0,8 -8,0 0,-6 -8,0 0,20 8,0 0,-6 8,0 0,34 -8,0 0,-6 -8,0 0,20 8,0 0,-6 8,0 0,8 a 8,8 0 0 1 -8,8 l -8,0 -60,0 -2,0 0,4 -16,0 0,-4 -2,0 -8,0 a 8,8 0 0 1 -8,-8 l 0,-8 0,-42 0,-8 z"
       id="path3194-6-2"
       style="fill:#00b700;fill-opacity:1;stroke:#007b00;stroke-width:2;stroke-linecap:round;stroke-opacity:1" />
    <text
       y="599.12408"
       x="36"
       id="text3196-0-1"
       style="font-size:20px;font-family:Sans;text-anchor:end;fill:#000000">
      <tspan
         x="130"
         y="648.12408"
         id="tspan3198-1-1">tono</tspan>
    </text>
    <text
       y="601.12408"
       x="36"
       id="text3200-46-55"
       style="font-size:13.33333302px;font-family:Sans;text-anchor:end;fill:#000000">
      <tspan
         x="130"
         y="623.62408"
         id="tspan3202-3-2">nota</tspan>
    </text>
    <text
       y="603.12408"
       x="36"
       id="text3204-4-3"
       style="font-size:13.33333302px;font-family:Sans;text-anchor:end;fill:#000000">
      <tspan
         x="130"
         y="667.62408"
         id="tspan3206-6-29">octava</tspan>
    </text>
    <path
       d="m 19,574.12408 0,-8 c 0,-4.41827 3.58173,-8 8,-8 l 8,0 0,4 20,0 0,-4 18,0 120,0 8,0 c 4.41828,0 9.0716,3.71365 8.00001,8 l 0,8 -8.00001,0 0,-6 -8,0 0,20 8,0 0,-6 8.00001,0 0,8 c 0,4.41828 -3.58173,8 -8.00001,8 l -8,0 -120,0 -2,0 0,4 -16,0 0,-4 -2,0 -8,0 c -5.52284,0 -10,4.47716 -10,10 l 0,8 0,50.00001 0,7.99999 c 0,5.52285 4.64206,11.3395 10,10 l 8,0 0,4 20,0 0,-4 16,0 0,12 0,12 0,8 c 0,4.41828 -3.71364,9.0716 -8,8 l -8,0 -18,0 -2,0 0,4 -16,0 0,-4 -2,0 -8,0 c -4.41827,0 -8,-3.58172 -8,-8 l 0,-8 z"
       id="path3035-3-7"
       style="fill:#fd6600;fill-opacity:1;stroke:#ac3d00;stroke-width:2;stroke-linecap:round;stroke-opacity:1" />
    <text
       id="text3037-5-3"
       style="font-size:20px;font-family:Sans;text-anchor:start;fill:#000000"
       y="555.12408"
       x="16">
      <tspan
         x="24"
         y="585.62408"
         id="tspan3039-8-2">valor de la nota</tspan>
    </text>
    <g
       id="g6686"
       transform="translate(60,-6.4818664e-8)">
      <path
         style="fill:#ff00ff;fill-opacity:1;stroke:#c700d3;stroke-width:2;stroke-linecap:round;stroke-opacity:1"
         id="path21-6-1-2-8"
         d="m 151.00001,558.12409 119.99999,0 0,40 -119.99999,0 0,-16 0,-2 -12.00001,0 0,6 -4,0 0,-16 4,0 0,6 12.00001,0 0,-2 z" />
      <text
         y="557.12408"
         x="186"
         style="font-size:20px;font-family:Sans;text-anchor:start;fill:#000000"
         id="text23-9-82-1-4">
        <tspan
           id="tspan25-8-5-3-1"
           y="583.12408"
           x="206">4</tspan>
      </text>
    </g>
  </g>
</svg>
