<?xml version="1.0" encoding="UTF-8" standalone="no"?>
<svg
   xmlns:dc="http://purl.org/dc/elements/1.1/"
   xmlns:cc="http://creativecommons.org/ns#"
   xmlns:rdf="http://www.w3.org/1999/02/22-rdf-syntax-ns#"
   xmlns:svg="http://www.w3.org/2000/svg"
   xmlns="http://www.w3.org/2000/svg"
   width="260.77332mm"
   height="192.36948mm"
   viewBox="0 0 923.99994 681.62412"
   id="svg4075"
   version="1.1">
  <defs
     id="defs4077" />
  <metadata
     id="metadata4080">
    <rdf:RDF>
      <cc:Work
         rdf:about="">
        <dc:format>image/svg+xml</dc:format>
        <dc:type
           rdf:resource="http://purl.org/dc/dcmitype/StillImage" />
        <dc:title></dc:title>
      </cc:Work>
    </rdf:RDF>
  </metadata>
  <path
     d="m 464.99989,29.56205 0,-8 c 0,-4.18879 3.81121,-8 8,-8 l 8,0 10,-12.0000001 10,12.0000001 18,0 70,0 8,0 c 4.18879,0 8,3.81121 8,8 l 0,8 -8,0 0,-6 -8,0 0,20 8,0 0,-6 8,0 0,8 c 0,4.18879 -3.81121,8 -8,8 l -8,0 -70,0 -2,0 0,4 -16,0 0,-4 -2,0 -8,0 c -2.61799,0 -5.21987,1.07773 -7.07107,2.92893 -1.8512,1.8512 -2.92893,4.45307 -2.92893,7.07107 l 0,8 0,174 0,8 c 0,2.61799 1.07773,5.21987 2.92893,7.07107 1.8512,1.8512 4.53125,2.29397 7.07107,2.92893 l 8,0 0,4 20,0 0,-4 16,0 0,12 0,12 0,8 c 0,4.18878 -3.93628,9.01593 -8,8 l -8,0 -18,0 -10,12 -10,-12 -8,0 c -4.18879,0 -8,-3.81122 -8,-8 l 0,-8 z"
     id="path3027-4-2"
     style="fill:#ffc000;fill-opacity:1;stroke:#c48d00;stroke-width:2;stroke-linecap:round;stroke-opacity:1" />
  <text
     x="463.94449"
     y="-1.7267046"
     id="text3029-4-9"
     style="font-size:20px;font-family:Sans;text-anchor:start;fill:#000000">
    <tspan
       x="471.94449"
       y="41.273296"
       id="tspan3031-5-3">acción</tspan>
  </text>
  <path
     d="m 606.99989,13.56205 120,0 0,40 -120,0 0,-16 0,-2 -12,0 0,6 -4,0 0,-16 4,0 0,6 12,0 0,-2 z"
     id="path21-2-0-2"
     style="fill:#7bbbb8;fill-opacity:1;stroke:#4c8585;stroke-width:2;stroke-linecap:round;stroke-opacity:1" />
  <text
     x="631.21777"
     y="12.018046"
     id="text23-2-3"
     style="font-size:20px;font-family:Sans;text-anchor:start;fill:#000000">
    <tspan
       x="651.21777"
       y="38.018032"
       id="tspan25-1-1">re</tspan>
  </text>
  <text
     style="font-size:13.33333302px;font-family:Sans;text-anchor:end;fill:#000000"
     id="text3033"
     y="190.67804"
     x="977.10999">
    <tspan
       id="tspan3035"
       y="213.17805"
       x="1079.11" />
  </text>
  <text
     style="font-size:13.33333302px;font-family:Sans;text-anchor:end;fill:#000000"
     id="text3107"
     y="255.64165"
     x="995.10999">
    <tspan
       id="tspan3109"
       y="278.14163"
       x="1089.11" />
  </text>
  <text
     style="font-size:13.33333302px;font-family:Sans;text-anchor:end;fill:#000000"
     id="text3033-0"
     y="274.67804"
     x="977.10999">
    <tspan
       id="tspan3035-1"
       y="297.17804"
       x="1079.11" />
  </text>
  <text
     style="font-size:13.33333302px;font-family:Sans;text-anchor:end;fill:#000000"
     id="text3033-1"
     y="358.67801"
     x="977.10999">
    <tspan
       id="tspan3035-8"
       y="381.17801"
       x="1079.11" />
  </text>
  <text
     style="font-size:13.33333302px;font-family:Sans;text-anchor:end;fill:#000000"
     id="text3033-0-9"
     y="442.67801"
     x="977.10999">
    <tspan
       id="tspan3035-1-5"
       y="465.17801"
       x="1079.11" />
  </text>
  <text
     style="font-size:13.33333302px;font-family:Sans;text-anchor:end;fill:#000000"
     id="text3033-5"
     y="-125.98441"
     x="-312.66666">
    <tspan
       id="tspan3035-7"
       y="-103.48441"
       x="-210.66666" />
  </text>
  <text
     style="font-size:13.33333302px;font-family:Sans;text-anchor:end;fill:#000000"
     id="text3107-6"
     y="-61.020802"
     x="-294.66666">
    <tspan
       id="tspan3109-4"
       y="-38.520802"
       x="-200.66666" />
  </text>
  <text
     style="font-size:13.33333302px;font-family:Sans;text-anchor:end;fill:#000000"
     id="text3033-0-0"
     y="-41.984394"
     x="-312.66666">
    <tspan
       id="tspan3035-1-3"
       y="-19.484396"
       x="-210.66666" />
  </text>
  <text
     style="font-size:13.33333302px;font-family:Sans;text-anchor:end;fill:#000000"
     id="text3033-1-1"
     y="42.015602"
     x="-312.66666">
    <tspan
       id="tspan3035-8-5"
       y="64.515579"
       x="-210.66666" />
  </text>
  <text
     style="font-size:13.33333302px;font-family:Sans;text-anchor:end;fill:#000000"
     id="text3033-0-9-4"
     y="126.01559"
     x="-312.66666">
    <tspan
       id="tspan3035-1-5-6"
       y="148.51559"
       x="-210.66666" />
  </text>
  <path
     d="m 1,29.56206 0,-8 c 0,-4.18879 3.81121,-8 8,-8 l 8,0 10,-12.0000001 10,12.0000001 18,0 70,0 8,0 c 4.18879,0 8,3.81121 8,8 l 0,8 -8,0 0,-6 -8,0 0,20 8,0 0,-6 8,0 0,8 c 0,4.18879 -3.81121,8 -8,8 l -8,0 -70,0 -2,0 0,4 -16,0 0,-4 -2,0 -8,0 c -2.61799,0 -5.21987,1.07773 -7.07107,2.92893 C 18.07773,58.34219 17,60.94406 17,63.56206 l 0,8 0,174 0,8 c 0,2.61799 1.07773,5.21987 2.92893,7.07107 1.8512,1.8512 4.531247,2.29397 7.07107,2.92893 l 8,0 0,4 20,0 0,-4 16,0 0,12 0,12 0,8 c 0,4.18878 -3.93628,9.01593 -8,8 l -8,0 -18,0 -10,12 -10,-12 -8,0 c -4.18879,0 -8,-3.81122 -8,-8 l 0,-8 z"
     id="path3027-4-2-9"
     style="fill:#ffc000;fill-opacity:1;stroke:#c48d00;stroke-width:2;stroke-linecap:round;stroke-opacity:1" />
  <text
     x="-0.055397034"
     y="-1.7266947"
     id="text3029-4-9-8"
     style="font-size:20px;font-family:Sans;text-anchor:start;fill:#000000">
    <tspan
       x="7.944603"
       y="41.273308"
       id="tspan3031-5-3-4">acción</tspan>
  </text>
  <path
     d="m 143,13.56206 120,0 0,40 -120,0 0,-16 0,-2 -12,0 0,6 -4,0 0,-16 4,0 0,6 12,0 0,-2 z"
     id="path21-2-0-2-7"
     style="fill:#7bbbb8;fill-opacity:1;stroke:#4c8585;stroke-width:2;stroke-linecap:round;stroke-opacity:1" />
  <text
     x="155.21786"
     y="12.018056"
     id="text23-2-3-6"
     style="font-size:20px;font-family:Sans;text-anchor:start;fill:#000000">
    <tspan
       x="175.21786"
       y="38.018044"
       id="tspan25-1-1-4">do</tspan>
  </text>
  <text
     x="1312.2261"
     y="127.43191"
     id="text3033-32"
     style="font-size:13.33333302px;font-family:Sans;text-anchor:end;fill:#000000">
    <tspan
       x="1414.2261"
       y="149.93192"
       id="tspan3035-41" />
  </text>
  <text
     x="1330.2261"
     y="192.39551"
     id="text3107-63"
     style="font-size:13.33333302px;font-family:Sans;text-anchor:end;fill:#000000">
    <tspan
       x="1424.2261"
       y="214.89551"
       id="tspan3109-18" />
  </text>
  <text
     x="1312.2261"
     y="211.43192"
     id="text3033-0-1"
     style="font-size:13.33333302px;font-family:Sans;text-anchor:end;fill:#000000">
    <tspan
       x="1414.2261"
       y="233.93192"
       id="tspan3035-1-50" />
  </text>
  <text
     x="1312.2261"
     y="295.43188"
     id="text3033-1-8"
     style="font-size:13.33333302px;font-family:Sans;text-anchor:end;fill:#000000">
    <tspan
       x="1414.2261"
       y="317.93185"
       id="tspan3035-8-83" />
  </text>
  <text
     x="1312.2261"
     y="379.43185"
     id="text3033-0-9-3"
     style="font-size:13.33333302px;font-family:Sans;text-anchor:end;fill:#000000">
    <tspan
       x="1414.2261"
       y="401.93185"
       id="tspan3035-1-5-50" />
  </text>
  <text
     x="737.67053"
     y="106.86133"
     id="text3033-19"
     style="font-size:13.33333302px;font-family:Sans;text-anchor:end;fill:#000000">
    <tspan
       x="839.67053"
       y="129.36134"
       id="tspan3035-6" />
  </text>
  <text
     x="737.67053"
     y="190.86134"
     id="text3033-0-93"
     style="font-size:13.33333302px;font-family:Sans;text-anchor:end;fill:#000000">
    <tspan
       x="839.67053"
       y="213.36133"
       id="tspan3035-1-3-3" />
  </text>
  <text
     x="737.67053"
     y="274.8613"
     id="text3033-1-6"
     style="font-size:13.33333302px;font-family:Sans;text-anchor:end;fill:#000000">
    <tspan
       x="839.67053"
       y="297.3613"
       id="tspan3035-8-9" />
  </text>
  <text
     x="737.67053"
     y="358.8613"
     id="text3033-0-9-1"
     style="font-size:13.33333302px;font-family:Sans;text-anchor:end;fill:#000000">
    <tspan
       x="839.67053"
       y="381.3613"
       id="tspan3035-1-5-0" />
  </text>
  <text
     x="961.77258"
     y="80.434586"
     id="text3033-7"
     style="font-size:13.33333302px;font-family:Sans;text-anchor:end;fill:#000000">
    <tspan
       x="1063.7726"
       y="102.93459"
       id="tspan3035-4" />
  </text>
  <text
     x="979.77258"
     y="145.39819"
     id="text3107-1"
     style="font-size:13.33333302px;font-family:Sans;text-anchor:end;fill:#000000">
    <tspan
       x="1073.7726"
       y="167.89819"
       id="tspan3109-0" />
  </text>
  <text
     x="961.77258"
     y="164.4346"
     id="text3033-0-8"
     style="font-size:13.33333302px;font-family:Sans;text-anchor:end;fill:#000000">
    <tspan
       x="1063.7726"
       y="186.9346"
       id="tspan3035-1-6" />
  </text>
  <text
     x="961.77258"
     y="248.4346"
     id="text3033-1-1-9"
     style="font-size:13.33333302px;font-family:Sans;text-anchor:end;fill:#000000">
    <tspan
       x="1063.7726"
       y="270.93457"
       id="tspan3035-8-8" />
  </text>
  <text
     x="961.77258"
     y="332.43457"
     id="text3033-0-9-9"
     style="font-size:13.33333302px;font-family:Sans;text-anchor:end;fill:#000000">
    <tspan
       x="1063.7726"
       y="354.93457"
       id="tspan3035-1-5-3" />
  </text>
  <text
     x="1853.5338"
     y="8.449317"
     id="text3033-3"
     style="font-size:13.33333302px;font-family:Sans;text-anchor:end;fill:#000000">
    <tspan
       x="1955.5337"
       y="30.949318"
       id="tspan3035-0" />
  </text>
  <text
     x="1853.5338"
     y="92.449318"
     id="text3033-0-2"
     style="font-size:13.33333302px;font-family:Sans;text-anchor:end;fill:#000000">
    <tspan
       x="1955.5337"
       y="114.94932"
       id="tspan3035-1-66" />
  </text>
  <text
     x="1853.5338"
     y="176.44933"
     id="text3033-1-2"
     style="font-size:13.33333302px;font-family:Sans;text-anchor:end;fill:#000000">
    <tspan
       x="1955.5337"
       y="198.94933"
       id="tspan3035-8-3" />
  </text>
  <text
     x="1853.5338"
     y="260.44931"
     id="text3033-0-9-93"
     style="font-size:13.33333302px;font-family:Sans;text-anchor:end;fill:#000000">
    <tspan
       x="1955.5337"
       y="282.94931"
       id="tspan3035-1-5-2" />
  </text>
  <text
     x="1948.2261"
     y="376.56265"
     id="text3033-37"
     style="font-size:13.33333302px;font-family:Sans;text-anchor:end;fill:#000000">
    <tspan
       x="2050.2261"
       y="399.06265"
       id="tspan3035-17" />
  </text>
  <text
     x="1966.2261"
     y="441.52625"
     id="text3107-2"
     style="font-size:13.33333302px;font-family:Sans;text-anchor:end;fill:#000000">
    <tspan
       x="2060.2261"
       y="464.02625"
       id="tspan3109-1" />
  </text>
  <text
     x="1948.2261"
     y="460.56265"
     id="text3033-0-6"
     style="font-size:13.33333302px;font-family:Sans;text-anchor:end;fill:#000000">
    <tspan
       x="2050.2261"
       y="483.06265"
       id="tspan3035-1-33" />
  </text>
  <text
     x="1948.2261"
     y="544.56268"
     id="text3033-1-4"
     style="font-size:13.33333302px;font-family:Sans;text-anchor:end;fill:#000000">
    <tspan
       x="2050.2261"
       y="567.06268"
       id="tspan3035-8-1" />
  </text>
  <text
     x="1948.2261"
     y="628.56268"
     id="text3033-0-9-2"
     style="font-size:13.33333302px;font-family:Sans;text-anchor:end;fill:#000000">
    <tspan
       x="2050.2261"
       y="651.06268"
       id="tspan3035-1-5-5" />
  </text>
  <flowRoot
     xml:space="preserve"
     id="flowRoot4622"
     style="font-style:normal;font-weight:normal;font-size:16px;line-height:125%;font-family:sans-serif;text-align:center;letter-spacing:0px;word-spacing:0px;text-anchor:middle;fill:#000000;fill-opacity:1;stroke:none;stroke-width:1px;stroke-linecap:butt;stroke-linejoin:miter;stroke-opacity:1"
     transform="translate(886.22609,11.041118)"><flowRegion
       id="flowRegion4624"><rect
         id="rect4626"
         width="320.46744"
         height="182.71428"
         x="673.45996"
         y="575.88477" /></flowRegion><flowPara
       id="flowPara4628" /></flowRoot>  <text
     x="2256.7556"
     y="551.99048"
     id="text3033-05"
     style="font-size:13.33333302px;font-family:Sans;text-anchor:end;fill:#000000">
    <tspan
       x="2358.7556"
       y="574.49048"
       id="tspan3035-9" />
  </text>
  <text
     x="2274.7556"
     y="616.9541"
     id="text3107-5"
     style="font-size:13.33333302px;font-family:Sans;text-anchor:end;fill:#000000">
    <tspan
       x="2368.7556"
       y="639.4541"
       id="tspan3109-3" />
  </text>
  <text
     x="2256.7556"
     y="635.99048"
     id="text3033-0-5"
     style="font-size:13.33333302px;font-family:Sans;text-anchor:end;fill:#000000">
    <tspan
       x="2358.7556"
       y="658.49048"
       id="tspan3035-1-8" />
  </text>
  <text
     x="2256.7556"
     y="719.99048"
     id="text3033-1-46"
     style="font-size:13.33333302px;font-family:Sans;text-anchor:end;fill:#000000">
    <tspan
       x="2358.7556"
       y="742.49048"
       id="tspan3035-8-2" />
  </text>
  <text
     x="2256.7556"
     y="803.99048"
     id="text3033-0-9-934"
     style="font-size:13.33333302px;font-family:Sans;text-anchor:end;fill:#000000">
    <tspan
       x="2358.7556"
       y="826.49048"
       id="tspan3035-1-5-7" />
  </text>
  <path
     style="fill:#ffc000;fill-opacity:1;stroke:#c48d00;stroke-width:2;stroke-linecap:round;stroke-opacity:1"
     id="path3660-4-52"
     d="m 1,350.06207 0,-8 c 0,-4.18879 3.81121,-8 8,-8 l 8,0 10,-12 10,12 18,0 60,0 8,0 c 4.18879,0 8,3.81121 8,8 l 0,8 0,8 0,8 c 0,4.18879 -3.81121,8 -8,8 l -8,0 -60,0 -2,0 0,4 -16,0 0,-4 -2,0 -8,0 c -2.61799,0 -5.21987,1.07773 -7.07107,2.92893 C 18.07773,378.8422 17,381.44408 17,384.06207 l 0,8 0,92 0,8 c 0,2.61799 1.07773,5.21987 2.92893,7.07107 1.8512,1.8512 4.53124,3.56389 7.07107,2.92893 l 8,0 0,4 20,0 0,-4 16,0 0,12 0,12 0,8 c 0,4.18879 -3.93628,9.01593 -8,8 l -8,0 -18,0 -10,12 -10,-12 -8,0 c -4.18879,0 -8,-3.81121 -8,-8 l 0,-8 z" />
  <text
     style="font-size:20px;font-family:Sans;text-anchor:start;fill:#000000"
     id="text3662-8-6"
     x="0.63360596"
     y="320.47491">
    <tspan
       id="tspan3664-5-6"
       y="363.47491"
       x="8.633606">iniciar</tspan>
  </text>
  <path
     style="fill:#eeeeee;stroke:#ff4100;stroke-width:1.75;stroke-linecap:round;stroke-linejoin:round;stroke-miterlimit:4;stroke-dasharray:none;stroke-opacity:1"
     id="path4206-9-4"
     d="m 112.02365,362.94794 c -0.24354,0 -0.48399,-0.0159 -0.72092,-0.0455 l 0.61126,1.0678 0.60246,-1.05144 c -0.16339,0.0136 -0.32633,0.0291 -0.4928,0.0291 z" />
  <path
     d="m 117.60031,346.33189 c -0.953,0 -1.74306,0.70686 -1.91261,1.63965 0.81868,0.6114 1.52243,1.416 2.05882,2.36742 1.00629,-0.0782 1.80296,-0.93688 1.80296,-1.99558 0,-1.11098 -0.87286,-2.01149 -1.94917,-2.01149 z"
     id="path4210-5-6"
     style="fill:#ff9452;fill-opacity:1;stroke:#ff4100;stroke-width:1.75;stroke-linecap:round;stroke-linejoin:round;stroke-miterlimit:4;stroke-dasharray:none;stroke-opacity:1" />
  <path
     d="m 117.84385,359.13315 c -0.53904,1.01461 -1.25952,1.87785 -2.11255,2.52562 0.22944,0.84732 0.97458,1.47236 1.86901,1.47236 1.07587,0 1.94917,-0.90005 1.94917,-2.01103 0,-1.02507 -0.74558,-1.86194 -1.70563,-1.98695 z"
     id="path4212-8-6"
     style="fill:#ff9452;fill-opacity:1;stroke:#ff4100;stroke-width:1.75;stroke-linecap:round;stroke-linejoin:round;stroke-miterlimit:4;stroke-dasharray:none;stroke-opacity:1" />
  <path
     d="m 106.19994,359.12588 c -0.9922,0.0936 -1.77213,0.94506 -1.77213,1.99422 0,1.11052 0.87197,2.01103 1.94828,2.01103 0.90897,0 1.66644,-0.64549 1.88135,-1.51464 -0.82926,-0.64367 -1.53036,-1.49509 -2.0575,-2.49061 z"
     id="path4214-5-4-2"
     style="fill:#ff9452;fill-opacity:1;stroke:#ff4100;stroke-width:1.75;stroke-linecap:round;stroke-linejoin:round;stroke-miterlimit:4;stroke-dasharray:none;stroke-opacity:1" />
  <path
     d="m 108.29311,348.01881 c -0.15105,-0.95597 -0.9486,-1.68692 -1.91702,-1.68692 -1.07631,0 -1.94828,0.90051 -1.94828,2.01103 0,1.0828 0.83057,1.95922 1.86945,2.00286 0.5223,-0.9287 1.20315,-1.72011 1.99585,-2.32697 z"
     id="path4216-2-9"
     style="fill:#ff9452;fill-opacity:1;stroke:#ff4100;stroke-width:1.75;stroke-linecap:round;stroke-linejoin:round;stroke-miterlimit:4;stroke-dasharray:none;stroke-opacity:1" />
  <path
     style="fill:#ff9452;fill-opacity:1;stroke:#ff4100;stroke-width:1.75;stroke-linecap:round;stroke-linejoin:round;stroke-miterlimit:4;stroke-dasharray:none;stroke-opacity:1"
     id="path4218-2-1"
     d="m 112.02365,346.71237 c 0.84026,0 1.64177,0.18683 2.38603,0.51276 0.32633,-0.48913 0.51878,-1.08053 0.51878,-1.71966 0,-1.67602 -1.31632,-3.03519 -2.94048,-3.03519 -1.62372,0 -2.94005,1.35917 -2.94005,3.03519 0,0.64913 0.19906,1.24962 0.53552,1.74284 0.75923,-0.34048 1.57968,-0.53594 2.4402,-0.53594 z" />
  <path
     d="m 118.89594,354.83015 c 0,2.15214 -0.72453,4.21836 -2.01285,5.74014 -1.28831,1.52182 -3.0375,2.37765 -4.85944,2.37765 -1.82193,0 -3.57112,-0.85583 -4.85944,-2.37765 -1.28831,-1.52178 -2.01284,-3.588 -2.01284,-5.74014 0,-4.45328 3.10228,-8.11778 6.87228,-8.11778 3.77001,0 6.87229,3.6645 6.87229,8.11778 z"
     id="path4222-7-9"
     style="fill:#ff9452;fill-opacity:1;stroke:#ff4100;stroke-width:1.75;stroke-linecap:round;stroke-linejoin:round;stroke-miterlimit:4;stroke-dasharray:none;stroke-opacity:1" />
  <path
     d="m 111.30934,356.34343 -0.67908,-2.10241 1.39339,-1.17598 1.59201,1.19371 -0.65486,2.12241 z"
     id="path4226-0-9"
     style="fill:#ff4100;fill-opacity:1;stroke:none" />
  <path
     d="m 112.02541,359.88956 c -1.74746,-0.0727 -2.44108,-0.91323 -2.44108,-0.91323 l 1.5722,-1.8924 1.96634,0.0764 1.3793,1.87285 c 0,0 -1.27273,0.90642 -2.47676,0.85642 z"
     id="path4228-4-4"
     style="fill:#ff4100;fill-opacity:1;stroke:none" />
  <path
     d="m 108.04077,356.38571 c -0.37389,-1.34918 0.0757,-3.12929 0.0757,-3.12929 l 1.76156,0.98506 0.65751,2.10422 -1.57748,1.92422 c 0,-4.6e-4 -0.64517,-0.90461 -0.91733,-1.88421 z"
     id="path4230-0-7"
     style="fill:#ff4100;fill-opacity:1;stroke:none" />
  <path
     d="m 108.48336,352.42273 c 0,0 0.22019,-0.89006 1.33834,-1.73739 0.98516,-0.74686 1.96634,-0.78186 1.96634,-0.78186 l -0.0163,2.26423 -1.55061,1.25008 -1.73778,-0.99506 z"
     id="path4232-3-5"
     style="fill:#ff4100;fill-opacity:1;stroke:none" />
  <path
     d="m 114.04372,353.65417 -1.52331,-1.3069 0.16515,-2.36788 c 0,0 0.80767,-0.0191 1.7435,0.75778 0.98119,0.81414 1.48059,2.26514 1.48059,2.26514 l -1.86593,0.65186 z"
     id="path4234-7-5"
     style="fill:#ff4100;fill-opacity:1;stroke:none" />
  <path
     d="m 113.69493,356.47617 0.57823,-2.02922 1.84392,-0.69823 c 0,0 0.29814,1.21053 -0.0185,2.57607 -0.23781,1.02552 -0.91777,1.9824 -0.91777,1.9824 l -1.48588,-1.83102 z"
     id="path4236-3-2"
     style="fill:#ff4100;fill-opacity:1;stroke:none" />
  <path
     d="m 19,392.12411 0,-8 c 0,-4.41828 3.58172,-8 8,-8 l 8,0 0,4 20,0 0,-4 60,0 8,0 c 4.41828,0 8,3.58172 8,8 l 0,8 -8,0 0,-6 -8,0 0,20 8,0 0,-6 8,0 0,76 -8,0 0,-6 -8,0 0,20 8,0 0,-6 8,0 0,8 c 0,4.41828 -3.58172,8 -8,8 l -8,0 -60,0 -2,0 0,4 -16,0 0,-4 -2,0 -8,0 c -4.41828,0 -8,-3.58172 -8,-8 l 0,-8 0,-84 z"
     id="path3194-9-7-0"
     style="fill:#ffc000;fill-opacity:1;stroke:#c48d00;stroke-width:2;stroke-linecap:round;stroke-opacity:1" />
  <text
     id="text3196-5-5-4"
     style="font-size:20px;font-family:Sans;text-anchor:end;fill:#000000"
     x="18.000004"
     y="391.12411">
    <tspan
       x="112"
       y="440.12411"
       id="tspan3198-01-4-0">cuando</tspan>
  </text>
  <text
     y="379.12411"
     id="text3200-4-78-4"
     style="font-size:13.33333302px;font-family:Sans;text-anchor:end;fill:#000000"
     x="18.000004">
    <tspan
       x="112"
       y="401.62411"
       id="tspan3202-55-08-0">señal</tspan>
  </text>
  <text
     y="419.12411"
     id="text3204-8-4-9"
     style="font-size:13.33333302px;font-family:Sans;text-anchor:end;fill:#000000"
     x="18.000004">
    <tspan
       x="112"
       y="483.62411"
       id="tspan3206-1-3-1">hacer</tspan>
  </text>
  <path
     style="fill:#e37a00;fill-opacity:1;stroke:#a34600;stroke-width:2;stroke-linecap:round;stroke-opacity:1"
     id="path21-38-8-5"
     d="m 246.61716,417.95402 212,0 0,40 -212,0 0,-16 0,-2 -12,0 0,6 -4,0 0,-16 4,0 0,6 12,0 0,-2 z" />
  <text
     x="245.61716"
     style="font-size:20px;font-family:Sans;text-anchor:start;fill:#000000"
     id="text23-65-0-3"
     y="416.95404">
    <tspan
       id="tspan25-85-7-0"
       y="442.95401"
       x="265.61716">renombrar tortuga</tspan>
  </text>
  <path
     d="m 246.61716,375.95402 120,0 0,40 -120,0 0,-16 0,-2 -12,0 0,6 -4,0 0,-16 4,0 0,6 12,0 0,-2 z"
     id="path21-2-0-2-6-0"
     style="fill:#7bbbb8;fill-opacity:1;stroke:#4c8585;stroke-width:2;stroke-linecap:round;stroke-opacity:1" />
  <text
     x="260.83502"
     y="374.41"
     id="text23-2-3-2-7"
     style="font-size:20px;font-family:Sans;text-anchor:start;fill:#000000">
    <tspan
       x="280.83502"
       y="400.41"
       id="tspan25-1-1-8-9">click</tspan>
  </text>
  <path
     d="m 132.61716,459.95402 120,0 0,40 -120,0 0,-16 0,-2 -12,0 0,6 -4,0 0,-16 4,0 0,6 12,0 0,-2 z"
     id="path21-2-0-2-5-3"
     style="fill:#7bbbb8;fill-opacity:1;stroke:#4c8585;stroke-width:2;stroke-linecap:round;stroke-opacity:1" />
  <text
     x="156.83502"
     y="458.41"
     id="text23-2-3-9-6"
     style="font-size:20px;font-family:Sans;text-anchor:start;fill:#000000">
    <tspan
       x="176.83502"
       y="484.41"
       id="tspan25-1-1-9-2">do</tspan>
  </text>
  <path
     style="fill:#ff00ff;fill-opacity:1;stroke:#c700d3;stroke-width:2;stroke-linecap:round;stroke-opacity:1"
     id="path3798-4-3-2"
     d="m 132.61716,391.95402 0,-8 a 8,8 0 0 1 8,-8 l 8,0 20,0 60,0 8,0 a 8,8 0 0 1 8,8 l 0,8 -8,0 0,-6 -8,0 0,20 8,0 0,-6 8,0 0,34 -8,0 0,-6 -8,0 0,20 8,0 0,-6 8,0 0,8 a 8,8 0 0 1 -8,8 l -8,0 -60,0 -20,0 -8,0 a 8,8 0 0 1 -8,-8 l 0,-8 0,-42 0,-2 -12,0 0,6 -4,0 0,-16 4,0 0,6 12,0 0,-2 z" />
  <text
     style="font-size:28px;font-family:sans-serif;text-anchor:end;fill:#000000"
     id="text3800-3-4-6"
     x="115.61716"
     y="374.95401">
    <tspan
       id="tspan3802-6-9-8"
       y="423.95401"
       x="225.61716">+</tspan>
  </text>
  <text
     style="font-size:18.66666603px;font-family:sans-serif;text-anchor:end;fill:#000000"
     id="text3804-3-5-3"
     x="115.61716"
     y="340.95401">
    <tspan
       id="tspan3806-1-3-5"
       y="362.45401"
       x="225.61716" />
  </text>
  <text
     style="font-size:18.66666603px;font-family:sans-serif;text-anchor:end;fill:#000000"
     id="text3808-5-49-9"
     x="115.61716"
     y="340.95401">
    <tspan
       id="tspan3810-0-9-0"
       y="404.45401"
       x="225.61716" />
  </text>
  <text
     x="1023.4833"
     y="167.32541"
     id="text3033-56"
     style="font-size:13.33333302px;font-family:Sans;text-anchor:end;fill:#000000">
    <tspan
       x="1125.4833"
       y="189.82541"
       id="tspan3035-5" />
  </text>
  <path
     style="fill:#ff00ff;fill-opacity:1;stroke:#c700d3;stroke-width:2;stroke-linecap:round;stroke-opacity:1"
     id="path21-8-61"
     d="m 596.99989,460.12411 120,0 0,40 -120,0 0,-16 0,-2 -12,0 0,6 -4,0 0,-16 4,0 0,6 12,0 0,-2 z" />
  <text
     style="font-size:20px;font-family:Sans;text-anchor:start;fill:#000000"
     id="text23-0-4"
     y="461.36075"
     x="627.5166">
    <tspan
       id="tspan25-7-0"
       y="487.36075"
       x="647.5166">0</tspan>
  </text>
  <path
     style="fill:#ffc000;fill-opacity:1;stroke:#c48d00;stroke-width:2;stroke-linecap:round;stroke-opacity:1"
     id="path3660-4"
     d="m 464.99989,350.06206 0,-8 c 0,-4.18879 3.81121,-8 8,-8 l 8,0 10,-12 10,12 18,0 60,0 8,0 c 4.18879,0 8,3.81121 8,8 l 0,8 0,8 0,8 c 0,4.18878 -3.81121,8 -8,8 l -8,0 -60,0 -2,0 0,4 -16,0 0,-4 -2,0 -8,0 c -2.61799,0 -5.21987,1.07772 -7.07107,2.92892 -1.8512,1.8512 -2.92893,4.45308 -2.92893,7.07108 l 0,8 0,218 0,8 c 0,2.61799 1.07773,5.21987 2.92893,7.07107 1.8512,1.8512 4.53124,3.56389 7.07107,2.92893 l 8,0 0,4 20,0 0,-4 16,0 0,12 0,12 0,8 c 0,4.18878 -3.93628,9.01593 -8,8 l -8,0 -18,0 -10,12 -10,-12 -8,0 c -4.18879,0 -8,-3.81122 -8,-8 l 0,-8 z" />
  <text
     style="font-size:20px;font-family:Sans;text-anchor:start;fill:#000000"
     id="text3662-8"
     x="463.99988"
     y="321.06204">
    <tspan
       id="tspan3664-5"
       y="364.06204"
       x="471.99988">iniciar</tspan>
  </text>
  <path
     d="m 482.99989,518.1241 0,-8 c 0,-4.41828 3.58172,-8 8,-8 l 8,0 0,4 20,0 0,-4 60,0 8,0 c 4.41828,0 8,3.58172 8,8 l 0,8 -8,0 0,-6 -8,0 0,20 8,0 0,-6 8,0 0,76 -8,0 0,-6 -8,0 0,20 8,0 0,-6 8,0 0,8 c 0,4.41828 -3.58172,8 -8,8 l -8,0 -60,0 -2,0 0,4 -16,0 0,-4 -2,0 -8,0 c -4.41828,0 -8,-3.58172 -8,-8 l 0,-8 0,-84 z"
     id="path3194-9-7"
     style="fill:#ffc000;fill-opacity:1;stroke:#c48d00;stroke-width:2;stroke-linecap:round;stroke-opacity:1" />
  <text
     id="text3196-5-5"
     style="font-size:20px;font-family:Sans;text-anchor:end;fill:#000000"
     x="481.99988"
     y="519.12408">
    <tspan
       x="575.99988"
       y="568.12408"
       id="tspan3198-01-4">cuando</tspan>
  </text>
  <text
     y="505.12411"
     id="text3200-4-78"
     style="font-size:13.33333302px;font-family:Sans;text-anchor:end;fill:#000000"
     x="481.99988">
    <tspan
       x="575.99988"
       y="527.62408"
       id="tspan3202-55-08">señal</tspan>
  </text>
  <text
     y="545.12408"
     id="text3204-8-4"
     style="font-size:13.33333302px;font-family:Sans;text-anchor:end;fill:#000000"
     x="481.99988">
    <tspan
       x="575.99988"
       y="609.62408"
       id="tspan3206-1-3">hacer</tspan>
  </text>
  <path
     style="fill:#e37a00;fill-opacity:1;stroke:#a34600;stroke-width:2;stroke-linecap:round;stroke-opacity:1"
     id="path21-38-8"
     d="m 710.99989,544.12412 212,0 0,40 -212,0 0,-16 0,-2 -12,0 0,6 -4,0 0,-16 4,0 0,6 12,0 0,-2 z" />
  <text
     x="709.61707"
     style="font-size:20px;font-family:Sans;text-anchor:start;fill:#000000"
     id="text23-65-0"
     y="542.95398">
    <tspan
       id="tspan25-85-7"
       y="568.95398"
       x="729.61707">renombrar tortuga</tspan>
  </text>
  <path
     d="m 710.99989,502.12412 120,0 0,40 -120,0 0,-16 0,-2 -12,0 0,6 -4,0 0,-16 4,0 0,6 12,0 0,-2 z"
     id="path21-2-0-2-6"
     style="fill:#7bbbb8;fill-opacity:1;stroke:#4c8585;stroke-width:2;stroke-linecap:round;stroke-opacity:1" />
  <text
     x="724.8349"
     y="500.41"
     id="text23-2-3-2"
     style="font-size:20px;font-family:Sans;text-anchor:start;fill:#000000">
    <tspan
       x="744.8349"
       y="526.40997"
       id="tspan25-1-1-8">click</tspan>
  </text>
  <path
     d="m 596.99989,586.12412 120,0 0,40 -120,0 0,-16 0,-2 -12,0 0,6 -4,0 0,-16 4,0 0,6 12,0 0,-2 z"
     id="path21-2-0-2-5"
     style="fill:#7bbbb8;fill-opacity:1;stroke:#4c8585;stroke-width:2;stroke-linecap:round;stroke-opacity:1" />
  <text
     x="620.8349"
     y="584.40997"
     id="text23-2-3-9"
     style="font-size:20px;font-family:Sans;text-anchor:start;fill:#000000">
    <tspan
       x="640.8349"
       y="610.40997"
       id="tspan25-1-1-9">re</tspan>
  </text>
  <path
     style="fill:#ff00ff;fill-opacity:1;stroke:#c700d3;stroke-width:2;stroke-linecap:round;stroke-opacity:1"
     id="path3798-4-3"
     d="m 596.99989,518.12412 0,-8 a 8,8 0 0 1 8,-8 l 8,0 20,0 60,0 8,0 a 8,8 0 0 1 8,8 l 0,8 -8,0 0,-6 -8,0 0,20 8,0 0,-6 8,0 0,34 -8,0 0,-6 -8,0 0,20 8,0 0,-6 8,0 0,8 a 8,8 0 0 1 -8,8 l -8,0 -60,0 -20,0 -8,0 a 8,8 0 0 1 -8,-8 l 0,-8 0,-42 0,-2 -12,0 0,6 -4,0 0,-16 4,0 0,6 12,0 0,-2 z" />
  <text
     style="font-size:28px;font-family:sans-serif;text-anchor:end;fill:#000000"
     id="text3800-3-4"
     x="579.61707"
     y="500.95401">
    <tspan
       id="tspan3802-6-9"
       y="549.95398"
       x="689.61707">+</tspan>
  </text>
  <text
     style="font-size:18.66666603px;font-family:sans-serif;text-anchor:end;fill:#000000"
     id="text3804-3-5"
     x="535.61719"
     y="378.95401">
    <tspan
       id="tspan3806-1-3"
       y="400.45401"
       x="645.61719" />
  </text>
  <text
     style="font-size:18.66666603px;font-family:sans-serif;text-anchor:end;fill:#000000"
     id="text3808-5-49"
     x="535.61719"
     y="378.95401">
    <tspan
       id="tspan3810-0-9"
       y="442.45401"
       x="645.61719" />
  </text>
  <path
     d="m 482.99989,434.12411 0,-8 a 8,8 0 0 1 8,-8 l 8,0 0,4 20,0 0,-4 60,0 8,0 a 8,8 0 0 1 8,8 l 0,8 -8,0 0,-6 -8,0 0,20 8,0 0,-6 8,0 0,34 -8,0 0,-6 -8,0 0,20 8,0 0,-6 8,0 0,8 a 8,8 0 0 1 -8,8 l -8,0 -60,0 -2,0 0,4 -16,0 0,-4 -2,0 -8,0 a 8,8 0 0 1 -8,-8 l 0,-8 0,-42 0,-8 z"
     id="path3381"
     style="fill:#00b700;fill-opacity:1;stroke:#007b00;stroke-width:2;stroke-linecap:round;stroke-opacity:1" />
  <text
     y="417.12411"
     x="481.99988"
     id="text3383"
     style="font-size:20px;font-family:Sans;text-anchor:end;fill:#000000">
    <tspan
       x="575.99988"
       y="466.12411"
       id="tspan3385">fijar xy</tspan>
  </text>
  <text
     y="419.12411"
     x="481.99988"
     id="text3387"
     style="font-size:13.33333302px;font-family:Sans;text-anchor:end;fill:#000000">
    <tspan
       x="575.99988"
       y="441.62411"
       id="tspan3389">x</tspan>
  </text>
  <text
     y="421.12411"
     x="481.99988"
     id="text3391"
     style="font-size:13.33333302px;font-family:Sans;text-anchor:end;fill:#000000">
    <tspan
       x="575.99988"
       y="485.62411"
       id="tspan3393">y</tspan>
  </text>
  <path
     style="fill:#1d8989;fill-opacity:1;stroke:#005459;stroke-width:2;stroke-linecap:round;stroke-opacity:1"
     id="path3058"
     d="m 482.99989,392.12411 0,-8 c 0,-4.41828 3.58172,-8 8,-8 l 8,0 0,4 20,0 0,-4 86,0 8,0 c 4.41828,0 9.07159,3.71364 8,8 l 0,8 0,8 0,8 c 0,4.41828 -3.58172,8 -8,8 l -8,0 -86,0 -2,0 0,4 -16,0 0,-4 -2,0 -8,0 c -4.41828,0 -8,-3.58172 -8,-8 l 0,-8 z" />
  <text
     y="375.12411"
     x="515.99988"
     style="font-size:20px;font-family:Sans;text-anchor:end;fill:#000000"
     id="text3060">
    <tspan
       id="tspan3062"
       y="403.12411"
       x="609.99988">subir pluma</tspan>
  </text>
  <path
     style="fill:#ff00ff;fill-opacity:1;stroke:#c700d3;stroke-width:2;stroke-linecap:round;stroke-opacity:1"
     id="path21-8-61-7"
     d="m 596.99989,458.1241 120,0 0,-40 -120,0 0,16 0,2 -12,0 0,-6 -4,0 0,16 4,0 0,-6 12,0 0,2 z" />
  <text
     style="font-size:20px;font-family:Sans;text-anchor:start;fill:#000000"
     id="text23-0-4-3"
     y="419.12411"
     x="616.99988">
    <tspan
       id="tspan25-7-0-6"
       y="445.12408"
       x="636.99988">100</tspan>
  </text>
  <path
     style="fill:#eeeeee;stroke:#ff0000;stroke-width:1.75;stroke-linecap:round;stroke-linejoin:round;stroke-miterlimit:4;stroke-dasharray:none;stroke-opacity:1"
     id="path4206-3-4"
     d="m 575.37618,365.03506 c -0.24354,0 -0.48399,-0.0159 -0.72092,-0.0455 l 0.61126,1.06779 0.60246,-1.05143 c -0.16339,0.0136 -0.32633,0.0291 -0.4928,0.0291 z" />
  <path
     d="m 580.95284,348.41901 c -0.953,0 -1.74306,0.70686 -1.91261,1.63965 0.81868,0.6114 1.52243,1.416 2.05882,2.36742 1.00629,-0.0782 1.80296,-0.93688 1.80296,-1.99558 0,-1.11098 -0.87286,-2.01149 -1.94917,-2.01149 z"
     id="path4210-2-6"
     style="fill:#ff8080;fill-opacity:1;stroke:#ff0000;stroke-width:1.75;stroke-linecap:round;stroke-linejoin:round;stroke-miterlimit:4;stroke-dasharray:none;stroke-opacity:1" />
  <path
     d="m 581.19638,361.22027 c -0.53904,1.01461 -1.25952,1.87785 -2.11255,2.52562 0.22944,0.84733 0.97458,1.47237 1.86901,1.47237 1.07587,0 1.94917,-0.90006 1.94917,-2.01104 0,-1.02507 -0.74558,-1.86194 -1.70563,-1.98695 z"
     id="path4212-9-6"
     style="fill:#ff8080;fill-opacity:1;stroke:#ff0000;stroke-width:1.75;stroke-linecap:round;stroke-linejoin:round;stroke-miterlimit:4;stroke-dasharray:none;stroke-opacity:1" />
  <path
     d="m 569.55247,361.213 c -0.9922,0.0936 -1.77213,0.94506 -1.77213,1.99422 0,1.11052 0.87197,2.01104 1.94828,2.01104 0.90897,0 1.66644,-0.6455 1.88135,-1.51465 -0.82926,-0.64367 -1.53036,-1.49509 -2.0575,-2.49061 z"
     id="path4214-5-84"
     style="fill:#ff8080;fill-opacity:1;stroke:#ff0000;stroke-width:1.75;stroke-linecap:round;stroke-linejoin:round;stroke-miterlimit:4;stroke-dasharray:none;stroke-opacity:1" />
  <path
     d="m 571.64564,350.10593 c -0.15105,-0.95597 -0.9486,-1.68692 -1.91702,-1.68692 -1.07631,0 -1.94828,0.90051 -1.94828,2.01103 0,1.0828 0.83057,1.95922 1.86945,2.00286 0.5223,-0.9287 1.20315,-1.72011 1.99585,-2.32697 z"
     id="path4216-6-2"
     style="fill:#ff8080;fill-opacity:1;stroke:#ff0000;stroke-width:1.75;stroke-linecap:round;stroke-linejoin:round;stroke-miterlimit:4;stroke-dasharray:none;stroke-opacity:1" />
  <path
     style="fill:#ff8080;fill-opacity:1;stroke:#ff0000;stroke-width:1.75;stroke-linecap:round;stroke-linejoin:round;stroke-miterlimit:4;stroke-dasharray:none;stroke-opacity:1"
     id="path4218-8-5"
     d="m 575.37618,348.79948 c 0.84026,0 1.64177,0.18683 2.38603,0.51276 0.32633,-0.48912 0.51878,-1.08052 0.51878,-1.71965 0,-1.67602 -1.31632,-3.03519 -2.94048,-3.03519 -1.62372,0 -2.94005,1.35917 -2.94005,3.03519 0,0.64913 0.19906,1.24962 0.53552,1.74284 0.75923,-0.34048 1.57968,-0.53595 2.4402,-0.53595 z" />
  <path
     d="m 582.24847,356.91727 c 0,2.15214 -0.72453,4.21836 -2.01285,5.74014 -1.28831,1.52183 -3.0375,2.37765 -4.85944,2.37765 -1.82193,0 -3.57112,-0.85582 -4.85944,-2.37765 -1.28831,-1.52178 -2.01284,-3.588 -2.01284,-5.74014 0,-4.45328 3.10228,-8.11778 6.87228,-8.11778 3.77001,0 6.87229,3.6645 6.87229,8.11778 z"
     id="path4222-1-0"
     style="fill:#ff8080;fill-opacity:1;stroke:#ff0000;stroke-width:1.75;stroke-linecap:round;stroke-linejoin:round;stroke-miterlimit:4;stroke-dasharray:none;stroke-opacity:1" />
  <path
     d="m 574.66187,358.43055 -0.67908,-2.1024 1.39339,-1.17599 1.59201,1.19371 -0.65486,2.12241 z"
     id="path4226-5-50"
     style="fill:#ff0000;fill-opacity:1;stroke:none" />
  <path
     d="m 575.37794,361.97669 c -1.74746,-0.0727 -2.44108,-0.91324 -2.44108,-0.91324 l 1.5722,-1.8924 1.96634,0.0764 1.3793,1.87285 c 0,0 -1.27273,0.90642 -2.47676,0.85642 z"
     id="path4228-5-65"
     style="fill:#ff0000;fill-opacity:1;stroke:none" />
  <path
     d="m 571.3933,358.47283 c -0.37389,-1.34918 0.0757,-3.12929 0.0757,-3.12929 l 1.76156,0.98506 0.65751,2.10423 -1.57748,1.92421 c 0,-4.6e-4 -0.64517,-0.9046 -0.91733,-1.88421 z"
     id="path4230-9-15"
     style="fill:#ff0000;fill-opacity:1;stroke:none" />
  <path
     d="m 571.83589,354.50985 c 0,0 0.22019,-0.89006 1.33834,-1.73738 0.98516,-0.74687 1.96634,-0.78187 1.96634,-0.78187 l -0.0163,2.26423 -1.55061,1.25008 -1.73778,-0.99506 z"
     id="path4232-2-7"
     style="fill:#ff0000;fill-opacity:1;stroke:none" />
  <path
     d="m 577.39625,355.74129 -1.52331,-1.3069 0.16515,-2.36788 c 0,0 0.80767,-0.0191 1.7435,0.75778 0.98119,0.81414 1.48059,2.26514 1.48059,2.26514 l -1.86593,0.65186 z"
     id="path4234-2-72"
     style="fill:#ff0000;fill-opacity:1;stroke:none" />
  <path
     d="m 577.04746,358.56329 0.57823,-2.02922 1.84392,-0.69823 c 0,0 0.29814,1.21053 -0.0185,2.57607 -0.23781,1.02552 -0.91777,1.9824 -0.91777,1.9824 l -1.48588,-1.83102 z"
     id="path4236-4-04"
     style="fill:#ff0000;fill-opacity:1;stroke:none" />
  <path
     style="fill:#00b700;fill-opacity:1;stroke:#007b00;stroke-width:2;stroke-linecap:round;stroke-opacity:1"
     id="path3194"
     d="m 37,154.62411 0,-7.99999 a 8,8 0 0 1 8,-8 l 8,0 0,4 20,0 0,-4 60,0 8,0 a 8,8 0 0 1 8,8 l 0,7.99999 -8,0 0,-5.99999 -8,0 0,19.99999 8,0 0,-6 8,0 0,34 -8,0 0,-5.99999 -8,0 0,19.99999 8,0 0,-6 8,0 0,8 a 8,8 0 0 1 -8,8 l -8,0 -60,0 -2,0 0,4 -16,0 0,-4 -2,0 -8,0 a 8,8 0 0 1 -8,-8 l 0,-8 0,-42 0,-8 z" />
  <text
     y="137.62411"
     x="36.000046"
     style="font-size:20px;font-family:Sans;text-anchor:end;fill:#000000"
     id="text3196">
    <tspan
       id="tspan3198"
       y="186.62413"
       x="129.99998">tono</tspan>
  </text>
  <text
     y="139.62411"
     x="36.000046"
     style="font-size:13.33333302px;font-family:Sans;text-anchor:end;fill:#000000"
     id="text3200">
    <tspan
       id="tspan3202"
       y="162.12411"
       x="129.99998">nota</tspan>
  </text>
  <text
     y="141.62411"
     x="36.000046"
     style="font-size:13.33333302px;font-family:Sans;text-anchor:end;fill:#000000"
     id="text3204">
    <tspan
       id="tspan3206"
       y="206.12413"
       x="129.99998">octava</tspan>
  </text>
  <path
     d="m 151,138.62412 120,0 0,40 -120,0 0,-16.00001 0,-2 -12,0 0,6 -4,0 0,-15.99999 4,0 0,5.99999 12,0 0,-2 z"
     id="path21"
     style="fill:#00b700;fill-opacity:1;stroke:#007b00;stroke-width:2;stroke-linecap:round;stroke-opacity:1" />
  <text
     y="137.62411"
     id="text23"
     style="font-size:20px;font-family:Sans;text-anchor:start;fill:#000000"
     x="179.99998">
    <tspan
       x="199.99998"
       y="163.62411"
       id="tspan25">do</tspan>
  </text>
  <path
     style="fill:#ff00ff;fill-opacity:1;stroke:#c700d3;stroke-width:2;stroke-linecap:round;stroke-opacity:1"
     id="path21-6"
     d="m 151,180.62411 120,0 0,40 -120,0 0,-16 0,-2 -12,0 0,6 -4,0 0,-16 4,0 0,6 12,0 0,-2 z" />
  <text
     y="179.62413"
     x="185.99998"
     style="font-size:20px;font-family:Sans;text-anchor:start;fill:#000000"
     id="text23-9">
    <tspan
       id="tspan25-8"
       y="205.62413"
       x="205.99998">4</tspan>
  </text>
  <path
     style="fill:#fd6600;fill-opacity:1;stroke:#ac3d00;stroke-width:2;stroke-linecap:round;stroke-opacity:1"
     id="path3035"
     d="m 19,70.624133 0,-8 c 0,-4.418278 3.58173,-8 8,-8 l 8,0 0,4 20,0 0,-4 18,0 110,0 8,0 c 4.41828,0 9.07159,3.713641 8,8 l 0,8 -8,0 0,-6 -8,0 0,20 8,0 0,-6 8,0 0,8 c 0,4.418278 -3.58172,8 -8,8 l -8,0 -110,0 -2,0 0,4 -16,0 0,-4 -2,0 -8,0 c -5.52284,0 -10,4.477153 -10,9.999997 l 0,8 0,92 0,7.99999 c 0,5.52285 4.64205,11.3395 10,10 l 8,0 0,4 20,0 0,-4 16,0 0,12 0,12 0,8 c 0,4.41828 -3.71364,9.0716 -8,8 l -8,0 -18,0 -2,0 0,4 -16,0 0,-4 -2,0 -8,0 c -4.41827,0 -8,-3.58172 -8,-8 l 0,-8 z" />
  <text
     x="16.000044"
     y="51.624134"
     style="font-size:20px;font-family:Sans;text-anchor:start;fill:#000000"
     id="text3037">
    <tspan
       id="tspan3039"
       y="82.12413"
       x="24.000044">valor de la nota</tspan>
  </text>
  <path
     style="fill:#ff00ff;fill-opacity:1;stroke:#c700d3;stroke-width:2;stroke-linecap:round;stroke-opacity:1"
     id="path21-6-1"
     d="m 315,96.624136 120,0 0,40.000004 -120,0 0,-16 0,-2 -12,0 0,6 -4,0 0,-16 4,0 0,6 12,0 0,-2 z" />
  <text
     y="95.624138"
     x="350"
     style="font-size:20px;font-family:Sans;text-anchor:start;fill:#000000"
     id="text23-9-82">
    <tspan
       id="tspan25-8-5"
       y="121.62414"
       x="370">8</tspan>
  </text>
  <path
     style="fill:#ff00ff;fill-opacity:1;stroke:#c700d3;stroke-width:2;stroke-linecap:round;stroke-opacity:1"
     id="path3798-4-4-5"
     d="m 201,70.624133 0,-8 a 8,8 0 0 1 8,-8 l 8,0 20,0 60,0 8,0 a 8,8 0 0 1 8,8 l 0,8 -8,0 0,-6 -8,0 0,20 8,0 0,-6 8,0 0,33.999997 -8,0 0,-6 -8,0 0,20 8,0 0,-6 8,0 0,8 a 8,8 0 0 1 -8,8 l -8,0 -60,0 -20,0 -8,0 a 8,8 0 0 1 -8,-8 l 0,-8 0,-41.999997 0,-2 -12,0 0,6 -4,0 0,-16 4,0 0,6 12,0 0,-2 z" />
  <text
     x="176"
     style="font-size:28px;font-family:sans-serif;text-anchor:end;fill:#000000"
     id="text3800-3-2-0"
     y="53.624111">
    <tspan
       id="tspan3802-6-2-5"
       y="102.62413"
       x="286">/</tspan>
  </text>
  <path
     style="fill:#ff00ff;fill-opacity:1;stroke:#c700d3;stroke-width:2;stroke-linecap:round;stroke-opacity:1"
     id="path21-8-2-1-0-6"
     d="m 315,54.624133 120,0 0,40 -120,0 0,-16 0,-2 -12,0 0,6 -4,0 0,-16 4,0 0,6 12,0 0,-2 z" />
  <text
     style="font-size:20px;font-family:Sans;text-anchor:start;fill:#000000"
     id="text23-0-1-0-1-0"
     y="55.624134"
     x="347">
    <tspan
       id="tspan25-7-0-5-2-5"
       y="81.624161"
       x="367">1</tspan>
  </text>
  <path
     d="m 37,112.62413 0,-8 c 0,-4.41828 3.58172,-7.999997 8,-7.999997 l 8,0 0,3.999997 20,0 0,-3.999997 60,0 8,0 c 4.41828,0 8,3.581717 8,7.999997 l 0,8 0,8 0,8 c 0,4.41828 -3.71364,6.92841 -8,8 l -8,0 -60,0 -2,0 0,4 -16,0 0,-4 -2,0 -8,0 c -4.41828,0 -8,-3.58172 -8,-8 l 0,-8 0,0 z"
     id="path3124"
     style="fill:#fd6600;fill-opacity:1;stroke:#ac3d00;stroke-width:2;stroke-linecap:round;stroke-opacity:1" />
  <text
     xml:space="preserve"
     style="font-style:normal;font-weight:normal;font-size:16px;line-height:125%;font-family:sans-serif;text-align:center;letter-spacing:0px;word-spacing:0px;text-anchor:middle;fill:#000000;fill-opacity:1;stroke:none;stroke-width:1px;stroke-linecap:butt;stroke-linejoin:miter;stroke-opacity:1"
     x="118.82298"
     y="123.54723"
     id="text6137"><tspan
       id="tspan6139"
       x="118.82298"
       y="123.54723"
       style="font-size:22.5px">↓</tspan></text>
  <path
     style="fill:#00b700;fill-opacity:1;stroke:#007b00;stroke-width:2;stroke-linecap:round;stroke-opacity:1"
     id="path3194-3"
     d="m 500.99989,154.62411 0,-7.99999 a 8,8 0 0 1 8,-8 l 8,0 0,4 20,0 0,-4 60,0 8,0 a 8,8 0 0 1 8,8 l 0,7.99999 -8,0 0,-5.99999 -8,0 0,19.99999 8,0 0,-6 8,0 0,34 -8,0 0,-5.99999 -8,0 0,19.99999 8,0 0,-6 8,0 0,8 a 8,8 0 0 1 -8,8 l -8,0 -60,0 -2,0 0,4 -16,0 0,-4 -2,0 -8,0 a 8,8 0 0 1 -8,-8 l 0,-8 0,-42 0,-8 z" />
  <text
     y="137.62411"
     x="499.99994"
     style="font-size:20px;font-family:Sans;text-anchor:end;fill:#000000"
     id="text3196-6">
    <tspan
       id="tspan3198-7"
       y="186.62413"
       x="593.99988">tono</tspan>
  </text>
  <text
     y="139.62411"
     x="499.99994"
     style="font-size:13.33333302px;font-family:Sans;text-anchor:end;fill:#000000"
     id="text3200-5">
    <tspan
       id="tspan3202-3"
       y="162.12411"
       x="593.99988">nota</tspan>
  </text>
  <text
     y="141.62411"
     x="499.99994"
     style="font-size:13.33333302px;font-family:Sans;text-anchor:end;fill:#000000"
     id="text3204-5">
    <tspan
       id="tspan3206-6"
       y="206.12413"
       x="593.99988">octava</tspan>
  </text>
  <path
     d="m 614.99989,138.62412 120,0 0,40 -120,0 0,-16.00001 0,-2 -12,0 0,6 -4,0 0,-15.99999 4,0 0,5.99999 12,0 0,-2 z"
     id="path21-2"
     style="fill:#00b700;fill-opacity:1;stroke:#007b00;stroke-width:2;stroke-linecap:round;stroke-opacity:1" />
  <text
     y="137.62411"
     id="text23-91"
     style="font-size:20px;font-family:Sans;text-anchor:start;fill:#000000"
     x="643.99988">
    <tspan
       x="663.99988"
       y="163.62411"
       id="tspan25-2">re</tspan>
  </text>
  <path
     style="fill:#ff00ff;fill-opacity:1;stroke:#c700d3;stroke-width:2;stroke-linecap:round;stroke-opacity:1"
     id="path21-6-7"
     d="m 614.99989,180.62411 120,0 0,40 -120,0 0,-16 0,-2 -12,0 0,6 -4,0 0,-16 4,0 0,6 12,0 0,-2 z" />
  <text
     y="179.62413"
     x="649.99988"
     style="font-size:20px;font-family:Sans;text-anchor:start;fill:#000000"
     id="text23-9-0">
    <tspan
       id="tspan25-8-9"
       y="205.62413"
       x="669.99988">4</tspan>
  </text>
  <path
     style="fill:#fd6600;fill-opacity:1;stroke:#ac3d00;stroke-width:2;stroke-linecap:round;stroke-opacity:1"
     id="path3035-3"
     d="m 482.99989,70.624129 0,-8 c 0,-4.41828 3.58173,-8 8,-8 l 8,0 0,4 20,0 0,-4 18,0 110,0 8,0 c 4.41828,0 9.07159,3.71364 8,8 l 0,8 -8,0 0,-6 -8,0 0,20 8,0 0,-6 8,0 0,8 c 0,4.41828 -3.58172,8.000002 -8,8.000002 l -8,0 -110,0 -2,0 0,4 -16,0 0,-4 -2,0 -8,0 c -5.52284,0 -10,4.477153 -10,9.999999 l 0,8 0,92 0,7.99999 c 0,5.52285 4.64205,11.3395 10,10 l 8,0 0,4 20,0 0,-4 16,0 0,12 0,12 0,8 c 0,4.41828 -3.71364,9.0716 -8,8 l -8,0 -18,0 -2,0 0,4 -16,0 0,-4 -2,0 -8,0 c -4.41827,0 -8,-3.58172 -8,-8 l 0,-8 z" />
  <text
     x="479.99991"
     y="51.624126"
     style="font-size:20px;font-family:Sans;text-anchor:start;fill:#000000"
     id="text3037-6">
    <tspan
       id="tspan3039-0"
       y="82.124123"
       x="487.99991">valor de la nota</tspan>
  </text>
  <path
     style="fill:#ff00ff;fill-opacity:1;stroke:#c700d3;stroke-width:2;stroke-linecap:round;stroke-opacity:1"
     id="path21-6-1-2"
     d="m 779,96.624134 120,0 0,39.999996 -120,0 0,-16 0,-2 -12,0 0,6 -4,0 0,-16 4,0 0,6 12,0 0,-2 z" />
  <text
     y="95.624138"
     x="814"
     style="font-size:20px;font-family:Sans;text-anchor:start;fill:#000000"
     id="text23-9-82-6">
    <tspan
       id="tspan25-8-5-1"
       y="121.62414"
       x="834">8</tspan>
  </text>
  <path
     style="fill:#ff00ff;fill-opacity:1;stroke:#c700d3;stroke-width:2;stroke-linecap:round;stroke-opacity:1"
     id="path3798-4-4-5-7"
     d="m 665,70.624129 0,-8 a 8,8 0 0 1 8,-8 l 8,0 20,0 60,0 8,0 a 8,8 0 0 1 8,8 l 0,8 -8,0 0,-6 -8,0 0,20 8,0 0,-6 8,0 0,34.000001 -8,0 0,-6 -8,0 0,20 8,0 0,-6 8,0 0,8 a 8,8 0 0 1 -8,8 l -8,0 -60,0 -20,0 -8,0 a 8,8 0 0 1 -8,-8 l 0,-8 0,-42.000001 0,-2 -12,0 0,6 -4,0 0,-16 4,0 0,6 12,0 0,-2 z" />
  <text
     x="640"
     style="font-size:28px;font-family:sans-serif;text-anchor:end;fill:#000000"
     id="text3800-3-2-0-9"
     y="53.624107">
    <tspan
       id="tspan3802-6-2-5-2"
       y="102.62413"
       x="750">/</tspan>
  </text>
  <path
     style="fill:#ff00ff;fill-opacity:1;stroke:#c700d3;stroke-width:2;stroke-linecap:round;stroke-opacity:1"
     id="path21-8-2-1-0-6-2"
     d="m 779,54.624129 120,0 0,40 -120,0 0,-16 0,-2 -12,0 0,6 -4,0 0,-16 4,0 0,6 12,0 0,-2 z" />
  <text
     style="font-size:20px;font-family:Sans;text-anchor:start;fill:#000000"
     id="text23-0-1-0-1-0-3"
     y="55.62413"
     x="811">
    <tspan
       id="tspan25-7-0-5-2-5-7"
       y="81.624161"
       x="831">1</tspan>
  </text>
  <path
     d="m 500.99989,112.62413 0,-8 c 0,-4.41828 3.58172,-7.999999 8,-7.999999 l 8,0 0,3.999999 20,0 0,-3.999999 60,0 8,0 c 4.41828,0 8,3.581719 8,7.999999 l 0,8 0,8 0,8 c 0,4.41828 -3.71364,6.92841 -8,8 l -8,0 -60,0 -2,0 0,4 -16,0 0,-4 -2,0 -8,0 c -4.41828,0 -8,-3.58172 -8,-8 l 0,-8 0,0 z"
     id="path3124-5"
     style="fill:#fd6600;fill-opacity:1;stroke:#ac3d00;stroke-width:2;stroke-linecap:round;stroke-opacity:1" />
  <text
     xml:space="preserve"
     style="font-style:normal;font-weight:normal;font-size:16px;line-height:125%;font-family:sans-serif;text-align:center;letter-spacing:0px;word-spacing:0px;text-anchor:middle;fill:#000000;fill-opacity:1;stroke:none;stroke-width:1px;stroke-linecap:butt;stroke-linejoin:miter;stroke-opacity:1"
     x="582.82288"
     y="123.54723"
     id="text6137-9"><tspan
       id="tspan6139-2"
       x="582.82288"
       y="123.54723"
       style="font-size:22.5px">↓</tspan></text>
</svg>
