<?xml version="1.0" encoding="UTF-8" standalone="no"?>
<svg
   xmlns:dc="http://purl.org/dc/elements/1.1/"
   xmlns:cc="http://creativecommons.org/ns#"
   xmlns:rdf="http://www.w3.org/1999/02/22-rdf-syntax-ns#"
   xmlns:svg="http://www.w3.org/2000/svg"
   xmlns="http://www.w3.org/2000/svg"
   version="1.1"
   id="svg4075"
   viewBox="0 0 758.00009 1075.124"
   height="303.42389mm"
   width="213.92447mm">
  <defs
     id="defs4077" />
  <metadata
     id="metadata4080">
    <rdf:RDF>
      <cc:Work
         rdf:about="">
        <dc:format>image/svg+xml</dc:format>
        <dc:type
           rdf:resource="http://purl.org/dc/dcmitype/StillImage" />
        <dc:title></dc:title>
      </cc:Work>
    </rdf:RDF>
  </metadata>
  <text
     x="-8"
     y="274.67804"
     id="text3033"
     style="font-size:13.33333302px;font-family:Sans;text-anchor:end;fill:#000000">
    <tspan
       x="94"
       y="297.17804"
       id="tspan3035" />
  </text>
  <text
     x="10"
     y="339.6416"
     id="text3107"
     style="font-size:13.33333302px;font-family:Sans;text-anchor:end;fill:#000000">
    <tspan
       x="104"
       y="362.1416"
       id="tspan3109" />
  </text>
  <text
     x="-8"
     y="358.67804"
     id="text3033-0"
     style="font-size:13.33333302px;font-family:Sans;text-anchor:end;fill:#000000">
    <tspan
       x="94"
       y="381.17804"
       id="tspan3035-1" />
  </text>
  <text
     x="-8"
     y="442.67798"
     id="text3033-1"
     style="font-size:13.33333302px;font-family:Sans;text-anchor:end;fill:#000000">
    <tspan
       x="94"
       y="465.17798"
       id="tspan3035-8" />
  </text>
  <text
     x="-8"
     y="526.67798"
     id="text3033-0-9"
     style="font-size:13.33333302px;font-family:Sans;text-anchor:end;fill:#000000">
    <tspan
       x="94"
       y="549.17798"
       id="tspan3035-1-5" />
  </text>
  <path
     d="m 1,29.56205 0,-8 c 0,-4.18879 3.8112098,-8 8,-8 l 8,0 10,-12.0000001 10,12.0000001 18,0 60,0 8,0 c 4.18879,0 8,3.81121 8,8 l 0,8 0,8 0,8 c 0,4.18879 -3.81121,8 -8,8 l -8,0 -60,0 -2,0 0,4 -16,0 0,-4 -2,0 -8,0 c -2.617994,0 -5.219867,1.077731 -7.071068,2.928932 C 18.077731,58.342183 17,60.944056 17,63.56205 l 0,8 0,931.99995 0,8 c 0,2.618 1.077731,5.2199 2.928932,7.0711 1.851201,1.8512 4.53124,3.5639 7.071068,2.9289 l 8,0 0,4 20,0 0,-4 16,0 0,12 0,12 0,8 c 0,4.1888 -3.936277,9.016 -8,8 l -8,0 -18,0 -10,12 -10,-12 -8,0 c -4.1887902,0 -8,-3.8112 -8,-8 l 0,-8 z"
     id="path3660-4"
     style="fill:#ffc000;fill-opacity:1;stroke:#c48d00;stroke-width:2;stroke-linecap:round;stroke-opacity:1" />
  <text
     y="0.56205004"
     x="4.8393201e-09"
     id="text3662-8"
     style="font-size:20px;font-family:Sans;text-anchor:start;fill:#000000">
    <tspan
       x="8"
       y="43.56205"
       id="tspan3664-5">iniciar</tspan>
  </text>
  <path
     style="fill:#ffc000;fill-opacity:1;stroke:#c48d00;stroke-width:2;stroke-linecap:round;stroke-opacity:1"
     id="path3058"
     d="m 19.000001,155.20367 0,-8 a 8,8 0 0 1 8,-8 l 8,0 0,4 20,0 0,-4 79.999999,0 8,0 a 8,8 0 0 1 8,8 l 0,8 0,8 0,8 a 8,8 0 0 1 -8,8 l -8,0 -79.999999,0 -2,0 0,4 -16,0 0,-4 -2,0 -8,0 a 8,8 0 0 1 -8,-8 l 0,-8 z" />
  <text
     y="138.20367"
     x="18"
     style="font-size:20px;font-family:Sans;text-anchor:end;fill:#000000"
     id="text3060">
    <tspan
       id="tspan3062"
       y="166.20367"
       x="132">acción</tspan>
  </text>
  <path
     d="m 287,223.56205 0,-8 c 0,-4.18879 3.81121,-8 8,-8 l 8,0 10,-12 10,12 18,0 70,0 8,0 c 4.18879,0 8,3.81121 8,8 l 0,8 -8,0 0,-6 -8,0 0,20 8,0 0,-6 8,0 0,8 c 0,4.18879 -3.81121,8 -8,8 l -8,0 -70,0 -2,0 0,4 -16,0 0,-4 -2,0 -8,0 c -2.61799,0 -5.21987,1.07773 -7.07107,2.92893 -1.8512,1.8512 -2.92893,4.45307 -2.92893,7.07107 l 0,8 0,632.00003 0,8 c 0,2.61799 1.07773,5.21987 2.92893,7.07107 1.8512,1.8512 4.53125,2.29397 7.07107,2.92893 l 8,0 0,4 20,0 0,-4 16,0 0,12 0,12 0,8 c 0,4.18878 -3.93628,9.01593 -8,8 l -8,0 -18,0 -10,12 -10,-12 -8,0 c -4.18879,0 -8,-3.81122 -8,-8 l 0,-8 z"
     id="path3027-4"
     style="fill:#ffc000;fill-opacity:1;stroke:#c48d00;stroke-width:2;stroke-linecap:round;stroke-opacity:1" />
  <text
     x="285.94461"
     y="192.2733"
     id="text3029-4"
     style="font-size:20px;font-family:Sans;text-anchor:start;fill:#000000">
    <tspan
       x="293.94461"
       y="235.2733"
       id="tspan3031-5">acción</tspan>
  </text>
  <path
     d="m 429,207.56205 120,0 0,40 -120,0 0,-16 0,-2 -12,0 0,6 -4,0 0,-16 4,0 0,6 12,0 0,-2 z"
     id="path21-2-0"
     style="fill:#7bbbb8;fill-opacity:1;stroke:#4c8585;stroke-width:2;stroke-linecap:round;stroke-opacity:1" />
  <text
     x="435.21786"
     y="206.01805"
     id="text23-2"
     style="font-size:20px;font-family:Sans;text-anchor:start;fill:#000000">
    <tspan
       x="455.21786"
       y="232.01804"
       id="tspan25-1">acción</tspan>
  </text>
  <path
     d="m 323,307.56205 0,-8 c 0,-4.18879 3.81121,-8 8,-8 l 8,0 0,4 20,0 0,-4 18,0 40,0 8,0 c 4.18879,0 8,3.81121 8,8 l 0,8 -8,0 0,-6 -8,0 0,20 8,0 0,-6 8,0 0,8 c 0,4.18879 -3.81121,8 -8,8 l -8,0 -40,0 -2,0 0,4 -16,0 0,-4 -2,0 -8,0 c -2.61799,0 -5.21987,1.07773 -7.07107,2.92893 -1.8512,1.85121 -2.92893,4.45308 -2.92893,7.07107 l 0,8 0,172.00001 0,8 c 0,2.61799 1.07773,5.21987 2.92893,7.07107 1.8512,1.8512 4.53124,3.56389 7.07107,2.92893 l 8,0 0,4 20,0 0,-4 16,0 0,12 0,12 0,8 c 0,4.1888 -3.93628,6.98407 -8,8 l -8,0 -18,0 -2,0 0,4 -16,0 0,-4 -2,0 -8,0 c -4.18879,0 -8,-3.8112 -8,-8 l 0,-8 z"
     id="path3035-7"
     style="fill:#e37a00;fill-opacity:1;stroke:#a34600;stroke-width:2;stroke-linecap:round;stroke-opacity:1" />
  <text
     x="322"
     y="290.56204"
     id="text3037-9"
     style="font-size:20px;font-family:Sans;text-anchor:start;fill:#000000">
    <tspan
       x="330"
       y="321.06204"
       id="tspan3039-4">repetir</tspan>
  </text>
  <path
     d="m 435,291.56206 120,0 0,40 -120,0 0,-16 0,-2 -12,0 0,6 -4,0 0,-16 4,0 0,6 12,0 0,-2 z"
     id="path21-8-61"
     style="fill:#ff00ff;fill-opacity:1;stroke:#c700d3;stroke-width:2;stroke-linecap:round;stroke-opacity:1" />
  <text
     x="465"
     y="292.56207"
     id="text23-0-4"
     style="font-size:20px;font-family:Sans;text-anchor:start;fill:#000000">
    <tspan
       x="485"
       y="318.56207"
       id="tspan25-7-0">4</tspan>
  </text>
  <path
     style="fill:#00b700;fill-opacity:1;stroke:#007b00;stroke-width:2;stroke-linecap:round;stroke-opacity:1"
     id="path3035-23"
     d="m 305,265.20366 0,-8 c 0,-4.18879 3.81121,-8 8,-8 l 8,0 0,4 20,0 0,-4 18,0 174,0 8,0 c 4.18879,0 9.01593,3.93628 8,8 l 0,8 -8,0 0,-6 -8,0 0,20 8,0 0,-6 8,0 0,8 c 0,4.18879 -3.81121,8 -8,8 l -8,0 -174,0 -2,0 0,4 -16,0 0,-4 -2,0 -8,0 c -2.61799,0 -5.21987,1.07773 -7.07107,2.92893 -1.8512,1.8512 -2.92893,4.45308 -2.92893,7.07107 l 0,8 0,8 0,548.00002 c 0,2.61799 1.07773,5.21987 2.92893,7.07107 1.8512,1.8512 4.53124,2.29397 7.07107,2.92893 l 8,0 0,4 20,0 0,-4 16,0 0,12 0,12 0,8 c 0,4.18879 -3.93628,6.98407 -8,8 l -8,0 -18,0 -2,0 0,4 -16,0 0,-4 -2,0 -8,0 c -4.18879,0 -8,-3.81121 -8,-8 l 0,-8 z" />
  <text
     style="font-size:20px;font-family:Sans;text-anchor:start;fill:#000000"
     id="text3037-1"
     x="304"
     y="246.20367">
    <tspan
       id="tspan3039-7-3"
       y="276.70367"
       x="312">ajustar transposición</tspan>
  </text>
  <path
     d="m 322.99997,597.20371 0,-8 c 0,-4.18879 3.81121,-8 8,-8 l 8,0 0,4 20,0 0,-4 18,0 40,0 8,0 c 4.18879,0 8,3.81121 8,8 l 0,8 -8,0 0,-6 -8,0 0,20 8,0 0,-6 8,0 0,8 c 0,4.18879 -3.81121,8 -8,8 l -8,0 -40,0 -2,0 0,4 -16,0 0,-4 -2,0 -8,0 c -2.61799,0 -5.21987,1.07773 -7.07107,2.92893 -1.8512,1.85121 -2.92893,4.45308 -2.92893,7.07107 l 0,8 0,174.00001 0,8 c 0,2.61799 1.07773,5.21987 2.92893,7.07107 1.8512,1.8512 4.53124,3.56389 7.07107,2.92893 l 8,0 0,4 20,0 0,-4 16,0 0,12 0,12 0,8 c 0,4.1888 -3.93628,6.98407 -8,8 l -8,0 -18,0 -2,0 0,4 -16,0 0,-4 -2,0 -8,0 c -4.18879,0 -8,-3.8112 -8,-8 l 0,-8 z"
     id="path3035-7-4"
     style="fill:#e37a00;fill-opacity:1;stroke:#a34600;stroke-width:2;stroke-linecap:round;stroke-opacity:1" />
  <text
     x="321.99997"
     y="580.20374"
     id="text3037-9-22"
     style="font-size:20px;font-family:Sans;text-anchor:start;fill:#000000">
    <tspan
       x="329.99997"
       y="610.70374"
       id="tspan3039-4-6">repetir</tspan>
  </text>
  <path
     d="m 434.99997,581.20372 120,0 0,40 -120,0 0,-16 0,-2 -12,0 0,6 -4,0 0,-16 4,0 0,6 12,0 0,-2 z"
     id="path21-8-61-4"
     style="fill:#ff00ff;fill-opacity:1;stroke:#c700d3;stroke-width:2;stroke-linecap:round;stroke-opacity:1" />
  <text
     x="464.99997"
     y="582.20374"
     id="text23-0-4-6"
     style="font-size:20px;font-family:Sans;text-anchor:start;fill:#000000">
    <tspan
       x="484.99997"
       y="608.20374"
       id="tspan25-7-0-3">2</tspan>
  </text>
  <path
     d="m 111.39004,43.035048 c -0.24354,0 -0.48399,-0.01591 -0.72092,-0.04546 l 0.61126,1.067795 0.60246,-1.051431 c -0.16339,0.01364 -0.32633,0.02909 -0.4928,0.02909 z"
     id="path4206-9"
     style="fill:#eeeeee;stroke:#ff4100;stroke-width:1.75;stroke-linecap:round;stroke-linejoin:round;stroke-miterlimit:4;stroke-dasharray:none;stroke-opacity:1" />
  <path
     style="fill:#ff9452;fill-opacity:1;stroke:#ff4100;stroke-width:1.75;stroke-linecap:round;stroke-linejoin:round;stroke-miterlimit:4;stroke-dasharray:none;stroke-opacity:1"
     id="path4210-5"
     d="m 116.9667,26.418994 c -0.953,0 -1.74306,0.706863 -1.91261,1.63965 0.81868,0.611402 1.52243,1.415999 2.05882,2.367422 1.00629,-0.07819 1.80296,-0.936877 1.80296,-1.995581 0,-1.110979 -0.87286,-2.011491 -1.94917,-2.011491 z" />
  <path
     style="fill:#ff9452;fill-opacity:1;stroke:#ff4100;stroke-width:1.75;stroke-linecap:round;stroke-linejoin:round;stroke-miterlimit:4;stroke-dasharray:none;stroke-opacity:1"
     id="path4212-8"
     d="m 117.21024,39.220261 c -0.53904,1.01461 -1.25952,1.877846 -2.11255,2.525614 0.22944,0.847327 0.97458,1.472367 1.86901,1.472367 1.07587,0 1.94917,-0.900058 1.94917,-2.011037 0,-1.025065 -0.74558,-1.861936 -1.70563,-1.986944 z" />
  <path
     style="fill:#ff9452;fill-opacity:1;stroke:#ff4100;stroke-width:1.75;stroke-linecap:round;stroke-linejoin:round;stroke-miterlimit:4;stroke-dasharray:none;stroke-opacity:1"
     id="path4214-5-4"
     d="m 105.56633,39.212988 c -0.9922,0.09364 -1.77213,0.945059 -1.77213,1.994217 0,1.110525 0.87197,2.011037 1.94828,2.011037 0.90897,0 1.66644,-0.645496 1.88135,-1.514642 -0.82926,-0.643677 -1.53036,-1.495095 -2.0575,-2.490612 z" />
  <path
     style="fill:#ff9452;fill-opacity:1;stroke:#ff4100;stroke-width:1.75;stroke-linecap:round;stroke-linejoin:round;stroke-miterlimit:4;stroke-dasharray:none;stroke-opacity:1"
     id="path4216-2"
     d="m 107.6595,28.105919 c -0.15105,-0.955969 -0.9486,-1.686925 -1.91702,-1.686925 -1.07631,0 -1.94828,0.900512 -1.94828,2.011037 0,1.082796 0.83057,1.959215 1.86945,2.002854 0.5223,-0.928695 1.20315,-1.720109 1.99585,-2.326966 z" />
  <path
     d="m 111.39004,26.799473 c 0.84026,0 1.64177,0.18683 2.38603,0.51276 0.32633,-0.489122 0.51878,-1.080523 0.51878,-1.719655 0,-1.676015 -1.31632,-3.035192 -2.94048,-3.035192 -1.62372,0 -2.94005,1.359177 -2.94005,3.035192 0,0.649132 0.19906,1.249625 0.53552,1.742838 0.75923,-0.340476 1.57968,-0.535943 2.4402,-0.535943 z"
     id="path4218-2"
     style="fill:#ff9452;fill-opacity:1;stroke:#ff4100;stroke-width:1.75;stroke-linecap:round;stroke-linejoin:round;stroke-miterlimit:4;stroke-dasharray:none;stroke-opacity:1" />
  <path
     style="fill:#ff9452;fill-opacity:1;stroke:#ff4100;stroke-width:1.75;stroke-linecap:round;stroke-linejoin:round;stroke-miterlimit:4;stroke-dasharray:none;stroke-opacity:1"
     id="path4222-7"
     d="m 118.26233,34.91726 c 0,2.152137 -0.72453,4.218359 -2.01285,5.740137 -1.28831,1.521824 -3.0375,2.377651 -4.85944,2.377651 -1.82193,0 -3.57112,-0.855827 -4.85944,-2.377651 -1.28831,-1.521778 -2.01284,-3.588 -2.01284,-5.740137 0,-4.453282 3.10228,-8.117787 6.87228,-8.117787 3.77001,0 6.87229,3.664505 6.87229,8.117787 z" />
  <path
     style="fill:#ff4100;fill-opacity:1;stroke:none"
     id="path4226-0"
     d="m 110.67573,36.430538 -0.67908,-2.102406 1.39339,-1.175983 1.59201,1.193712 -0.65486,2.122407 z" />
  <path
     style="fill:#ff4100;fill-opacity:1;stroke:none"
     id="path4228-4"
     d="m 111.3918,39.976672 c -1.74746,-0.07273 -2.44108,-0.913239 -2.44108,-0.913239 l 1.5722,-1.892393 1.96634,0.07637 1.3793,1.872846 c 0,0 -1.27273,0.906421 -2.47676,0.856418 z" />
  <path
     style="fill:#ff4100;fill-opacity:1;stroke:none"
     id="path4230-0"
     d="m 107.40716,36.472814 c -0.37389,-1.349177 0.0757,-3.12929 0.0757,-3.12929 l 1.76156,0.985063 0.65751,2.104224 -1.57748,1.924213 c 0,-4.54e-4 -0.64517,-0.904603 -0.91733,-1.88421 z" />
  <path
     style="fill:#ff4100;fill-opacity:1;stroke:none"
     id="path4232-3"
     d="m 107.84975,32.509835 c 0,0 0.22019,-0.890056 1.33834,-1.737383 0.98516,-0.746865 1.96634,-0.781868 1.96634,-0.781868 l -0.0163,2.264235 -1.55061,1.250079 -1.73778,-0.995063 z" />
  <path
     style="fill:#ff4100;fill-opacity:1;stroke:none"
     id="path4234-7"
     d="m 113.41011,33.741277 -1.52331,-1.306901 0.16515,-2.367878 c 0,0 0.80767,-0.01909 1.7435,0.757776 0.98119,0.814142 1.48059,2.265143 1.48059,2.265143 l -1.86593,0.65186 z" />
  <path
     style="fill:#ff4100;fill-opacity:1;stroke:none"
     id="path4236-3"
     d="m 113.06132,36.563274 0.57823,-2.02922 1.84392,-0.698226 c 0,0 0.29814,1.210532 -0.0185,2.576073 -0.23781,1.025519 -0.91777,1.982398 -0.91777,1.982398 l -1.48588,-1.831025 z" />
  <path
     d="m 18.999951,71.20371 0,-8 c 0,-4.418278 3.581722,-8 8,-8 l 8,0 0,4 20,0 0,-4 91.999999,0 8,0 c 4.41828,0 8,3.581722 8,8 l 0,8 -8,0 0,-6 -8,0 0,20 8,0 0,-6 8,0 0,34 -8,0 0,-6 -8,0 0,20 8,0 0,-6 8,0 0,8 c 0,4.41828 -3.58172,8 -8,8 l -8,0 -91.999999,0 -2,0 0,4 -16,0 0,-4 -2,0 -8,0 c -4.418278,0 -8,-3.58172 -8,-8 l 0,-8 0,-42 z"
     id="path21"
     style="fill:#fd6600;fill-opacity:1;stroke:#ac3d00;stroke-width:2;stroke-linecap:round;stroke-opacity:1" />
  <text
     y="54.203709"
     x="31.99995"
     id="text23"
     style="font-size:20px;font-family:Sans;text-anchor:end;fill:#000000">
    <tspan
       x="141.99995"
       y="103.20371"
       id="tspan25">guardar en</tspan>
  </text>
  <text
     y="56.203709"
     x="31.99995"
     id="text27"
     style="font-size:13.33333302px;font-family:Sans;text-anchor:end;fill:#000000">
    <tspan
       x="141.99995"
       y="78.703712"
       id="tspan29">nombre</tspan>
  </text>
  <text
     y="58.203709"
     x="31.99995"
     id="text31"
     style="font-size:13.33333302px;font-family:Sans;text-anchor:end;fill:#000000">
    <tspan
       x="141.99995"
       y="122.70371"
       id="tspan33">valor</tspan>
  </text>
  <path
     style="fill:#7bbbb8;fill-opacity:1;stroke:#4c8585;stroke-width:2;stroke-linecap:round;stroke-opacity:1"
     id="path21-2-0-6"
     d="m 164.99995,54.82976 120,0 0,40 -120,0 0,-16 0,-2 -12,0 0,6 -4,0 0,-16 4,0 0,6 12,0 0,-2 z" />
  <text
     style="font-size:20px;font-family:Sans;text-anchor:start;fill:#000000"
     id="text23-2-0"
     y="53.285755"
     x="171.21782">
    <tspan
       id="tspan25-1-8"
       y="79.285744"
       x="191.21782">caja</tspan>
  </text>
  <path
     style="fill:#ff00ff;fill-opacity:1;stroke:#c700d3;stroke-width:2;stroke-linecap:round;stroke-opacity:1"
     id="path21-6-72-7"
     d="m 164.99994,96.829778 120,0 0,40.000002 -120,0 0,-16 0,-2 -12,0 0,6 -4,0 0,-16 4,0 0,6 12,0 0,-2 z" />
  <text
     y="95.829781"
     x="199.99994"
     style="font-size:20px;font-family:Sans;text-anchor:start;fill:#000000"
     id="text23-9-5-5">
    <tspan
       id="tspan25-8-7-0"
       y="121.82978"
       x="219.99994">0</tspan>
  </text>
  <path
     d="m 133.00001,307.2037 120,0 0,40 -120,0 0,-16 0,-2 -12,0 0,6 -4,0 0,-16 4,0 0,6 12,0 0,-2 z"
     id="path3172"
     style="fill:#fd6600;fill-opacity:1;stroke:#ac3d00;stroke-width:2;stroke-linecap:round;stroke-opacity:1" />
  <text
     y="306.2037"
     x="116.00001"
     id="text3174"
     style="font-size:20px;font-family:Sans;text-anchor:start;fill:#000000">
    <tspan
       x="136.00002"
       y="332.2037"
       id="tspan3176">caja</tspan>
  </text>
  <path
     d="m 19.000001,323.2037 0,-8 a 8,8 0 0 1 8,-8 l 8,0 0,4 20,0 0,-4 59.999999,0 8,0 a 8,8 0 0 1 8,8 l 0,8 -8,0 0,-6 -8,0 0,20 8,0 0,-6 8,0 0,34 -8,0 0,-6 -8,0 0,20 8,0 0,-6 8,0 0,8 a 8,8 0 0 1 -8,8 l -8,0 -59.999999,0 -2,0 0,4 -16,0 0,-4 -2,0 -8,0 a 8,8 0 0 1 -8,-8 l 0,-8 0,-42 0,-8 z"
     id="path3124"
     style="fill:#fd6600;fill-opacity:1;stroke:#ac3d00;stroke-width:2;stroke-linecap:round;stroke-opacity:1" />
  <text
     y="306.2037"
     x="18"
     id="text3126"
     style="font-size:20px;font-family:Sans;text-anchor:end;fill:#000000">
    <tspan
       x="112"
       y="355.2037"
       id="tspan3128">sumar</tspan>
  </text>
  <text
     y="308.2037"
     x="18"
     id="text3130"
     style="font-size:13.33333302px;font-family:Sans;text-anchor:end;fill:#000000">
    <tspan
       x="112"
       y="330.7037"
       id="tspan3132">para</tspan>
  </text>
  <text
     y="310.2037"
     x="18"
     id="text3134"
     style="font-size:13.33333302px;font-family:Sans;text-anchor:end;fill:#000000">
    <tspan
       x="112"
       y="374.7037"
       id="tspan3136">valor</tspan>
  </text>
  <path
     style="fill:#ff00ff;fill-opacity:1;stroke:#c700d3;stroke-width:2;stroke-linecap:round;stroke-opacity:1"
     id="path21-6-72-7-7-0"
     d="m 133.00001,349.2037 120,0 0,40 -120,0 0,-16 0,-2 -12,0 0,6 -4,0 0,-16 4,0 0,6 12,0 0,-2 z" />
  <text
     y="348.2037"
     x="168.00002"
     style="font-size:20px;font-family:Sans;text-anchor:start;fill:#000000"
     id="text23-9-5-5-0-2">
    <tspan
       id="tspan25-8-7-0-3-4"
       y="374.2037"
       x="188.00002">2</tspan>
  </text>
  <path
     style="fill:#ffc000;fill-opacity:1;stroke:#c48d00;stroke-width:2;stroke-linecap:round;stroke-opacity:1"
     id="path3058-23"
     d="m 19.000081,407.20373 0,-8 a 8,8 0 0 1 8,-8 l 8,0 0,4 19.999998,0 0,-4 80.000001,0 8,0 a 8,8 0 0 1 8,8 l 0,8 0,8 0,8 a 8,8 0 0 1 -8,8 l -8,0 -80.000001,0 -1.999998,0 0,4 -16,0 0,-4 -2,0 -8,0 a 8,8 0 0 1 -8,-8 l 0,-8 z" />
  <text
     y="390.20374"
     x="18.000065"
     style="font-size:20px;font-family:Sans;text-anchor:end;fill:#000000"
     id="text3060-40">
    <tspan
       id="tspan3062-0"
       y="418.20374"
       x="132.00008">acción</tspan>
  </text>
  <path
     d="m 133.00001,181.20368 120,0 0,40 -120,0 0,-16 0,-2 -12,0 0,6 -4,0 0,-16 4,0 0,6 12,0 0,-2 z"
     id="path3172-5"
     style="fill:#fd6600;fill-opacity:1;stroke:#ac3d00;stroke-width:2;stroke-linecap:round;stroke-opacity:1" />
  <text
     y="180.20367"
     x="116.00001"
     id="text3174-0"
     style="font-size:20px;font-family:Sans;text-anchor:start;fill:#000000">
    <tspan
       x="136.00002"
       y="206.20367"
       id="tspan3176-5">caja</tspan>
  </text>
  <path
     d="m 19.000001,197.20368 0,-8 a 8,8 0 0 1 8,-8 l 8,0 0,4 20,0 0,-4 59.999999,0 8,0 a 8,8 0 0 1 8,8 l 0,8 -8,0 0,-6 -8,0 0,20 8,0 0,-6 8,0 0,34 -8,0 0,-6 -8,0 0,20 8,0 0,-6 8,0 0,8 a 8,8 0 0 1 -8,8 l -8,0 -59.999999,0 -2,0 0,4 -16,0 0,-4 -2,0 -8,0 a 8,8 0 0 1 -8,-8 l 0,-8 0,-42 0,-8 z"
     id="path3124-2"
     style="fill:#fd6600;fill-opacity:1;stroke:#ac3d00;stroke-width:2;stroke-linecap:round;stroke-opacity:1" />
  <text
     y="180.20367"
     x="18"
     id="text3126-7"
     style="font-size:20px;font-family:Sans;text-anchor:end;fill:#000000">
    <tspan
       x="112"
       y="229.20367"
       id="tspan3128-1">sumar</tspan>
  </text>
  <text
     y="182.20367"
     x="18"
     id="text3130-2"
     style="font-size:13.33333302px;font-family:Sans;text-anchor:end;fill:#000000">
    <tspan
       x="112"
       y="204.70367"
       id="tspan3132-9">para</tspan>
  </text>
  <text
     y="184.20367"
     x="18"
     id="text3134-4"
     style="font-size:13.33333302px;font-family:Sans;text-anchor:end;fill:#000000">
    <tspan
       x="112"
       y="248.70367"
       id="tspan3136-5">valor</tspan>
  </text>
  <path
     style="fill:#ff00ff;fill-opacity:1;stroke:#c700d3;stroke-width:2;stroke-linecap:round;stroke-opacity:1"
     id="path21-6-72-7-7-0-3"
     d="m 133.00001,223.20368 120,0 0,40 -120,0 0,-16 0,-2 -12,0 0,6 -4,0 0,-16 4,0 0,6 12,0 0,-2 z" />
  <text
     y="222.20367"
     x="168.00002"
     style="font-size:20px;font-family:Sans;text-anchor:start;fill:#000000"
     id="text23-9-5-5-0-2-9">
    <tspan
       id="tspan25-8-7-0-3-4-9"
       y="248.20367"
       x="188.00002">7</tspan>
  </text>
  <path
     style="fill:#ffc000;fill-opacity:1;stroke:#c48d00;stroke-width:2;stroke-linecap:round;stroke-opacity:1"
     id="path3058-23-7"
     d="m 19.000081,281.20371 0,-8 a 8,8 0 0 1 8,-8 l 8,0 0,4 19.999998,0 0,-4 80.000001,0 8,0 a 8,8 0 0 1 8,8 l 0,8 0,8 0,8 a 8,8 0 0 1 -8,8 l -8,0 -80.000001,0 -1.999998,0 0,4 -16,0 0,-4 -2,0 -8,0 a 8,8 0 0 1 -8,-8 l 0,-8 z" />
  <text
     y="264.20374"
     x="18.000065"
     style="font-size:20px;font-family:Sans;text-anchor:end;fill:#000000"
     id="text3060-40-0">
    <tspan
       id="tspan3062-0-1"
       y="292.20374"
       x="132.00008">acción</tspan>
  </text>
  <path
     d="m 18.999991,449.20369 0,-8 c 0,-4.18879 3.81121,-8 8,-8 l 8,0 0,4 20,0 0,-4 18,0 39.999999,0 8,0 c 4.18879,0 8,3.81121 8,8 l 0,8 -8,0 0,-6 -8,0 0,20 8,0 0,-6 8,0 0,8 c 0,4.18879 -3.81121,8 -8,8 l -8,0 -39.999999,0 -2,0 0,4 -16,0 0,-4 -2,0 -8,0 c -2.61799,0 -5.21987,1.07773 -7.07107,2.92893 -1.8512,1.85121 -2.92893,4.45308 -2.92893,7.07107 l 0,8 0,92.00001 0,8 c 0,2.61799 1.07773,5.21987 2.92893,7.07107 1.8512,1.85119 4.53124,3.56389 7.07107,2.92893 l 8,0 0,4 20,0 0,-4 16,0 0,12 0,12 0,8 c 0,4.1888 -3.93628,6.98407 -8,8 l -8,0 -18,0 -2,0 0,4 -16,0 0,-4 -2,0 -8,0 c -4.18879,0 -8,-3.8112 -8,-8 l 0,-8 z"
     id="path3035"
     style="fill:#e37a00;fill-opacity:1;stroke:#a34600;stroke-width:2;stroke-linecap:round;stroke-opacity:1" />
  <text
     x="18.468811"
     y="431.884"
     id="text3037"
     style="font-size:20px;font-family:Sans;text-anchor:start;fill:#000000">
    <tspan
       x="26.468811"
       y="462.38397"
       id="tspan3039">repetir</tspan>
  </text>
  <path
     d="m 131.46881,432.88399 120,0 0,40 -120,0 0,-16 0,-2 -12,0 0,6 -4,0 0,-16 4,0 0,6 12,0 0,-2 z"
     id="path21-8"
     style="fill:#ff00ff;fill-opacity:1;stroke:#c700d3;stroke-width:2;stroke-linecap:round;stroke-opacity:1" />
  <text
     x="161.46881"
     y="433.884"
     id="text23-0"
     style="font-size:20px;font-family:Sans;text-anchor:start;fill:#000000">
    <tspan
       x="181.46881"
       y="459.884"
       id="tspan25-7">2</tspan>
  </text>
  <path
     d="m 151.00001,475.20367 120,0 0,40 -120,0 0,-16 0,-2 -12,0 0,6 -4,0 0,-16 4,0 0,6 12,0 0,-2 z"
     id="path3172-0"
     style="fill:#fd6600;fill-opacity:1;stroke:#ac3d00;stroke-width:2;stroke-linecap:round;stroke-opacity:1" />
  <text
     y="474.20367"
     x="134.00002"
     id="text3174-9"
     style="font-size:20px;font-family:Sans;text-anchor:start;fill:#000000">
    <tspan
       x="154.00002"
       y="500.20367"
       id="tspan3176-6">caja</tspan>
  </text>
  <path
     d="m 37.000001,491.20367 0,-8 a 8,8 0 0 1 8,-8 l 8,0 0,4 20,0 0,-4 59.999999,0 8,0 a 8,8 0 0 1 8,8 l 0,8 -8,0 0,-6 -8,0 0,20 8,0 0,-6 8,0 0,34 -8,0 0,-6 -8,0 0,20 8,0 0,-6 8,0 0,8 a 8,8 0 0 1 -8,8 l -8,0 -59.999999,0 -2,0 0,4 -16,0 0,-4 -2,0 -8,0 a 8,8 0 0 1 -8,-8 l 0,-8 0,-42 0,-8 z"
     id="path3124-6"
     style="fill:#fd6600;fill-opacity:1;stroke:#ac3d00;stroke-width:2;stroke-linecap:round;stroke-opacity:1" />
  <text
     y="474.20367"
     x="36"
     id="text3126-9"
     style="font-size:20px;font-family:Sans;text-anchor:end;fill:#000000">
    <tspan
       x="130"
       y="523.20367"
       id="tspan3128-8">sumar</tspan>
  </text>
  <text
     y="476.20367"
     x="36"
     id="text3130-8"
     style="font-size:13.33333302px;font-family:Sans;text-anchor:end;fill:#000000">
    <tspan
       x="130"
       y="498.70367"
       id="tspan3132-4">para</tspan>
  </text>
  <text
     y="478.20367"
     x="36"
     id="text3134-0"
     style="font-size:13.33333302px;font-family:Sans;text-anchor:end;fill:#000000">
    <tspan
       x="130"
       y="542.70367"
       id="tspan3136-4">valor</tspan>
  </text>
  <path
     style="fill:#ff00ff;fill-opacity:1;stroke:#c700d3;stroke-width:2;stroke-linecap:round;stroke-opacity:1"
     id="path21-6-72-7-7-0-2"
     d="m 151.00001,517.20367 120,0 0,40 -120,0 0,-16 0,-2 -12,0 0,6 -4,0 0,-16 4,0 0,6 12,0 0,-2 z" />
  <text
     y="516.20367"
     x="186.00002"
     style="font-size:20px;font-family:Sans;text-anchor:start;fill:#000000"
     id="text23-9-5-5-0-2-3">
    <tspan
       id="tspan25-8-7-0-3-4-3"
       y="542.20367"
       x="206.00002">-2</tspan>
  </text>
  <path
     style="fill:#ffc000;fill-opacity:1;stroke:#c48d00;stroke-width:2;stroke-linecap:round;stroke-opacity:1"
     id="path3058-23-2"
     d="m 37.000081,575.2037 0,-8 a 8,8 0 0 1 8,-8 l 8,0 0,4 19.999998,0 0,-4 80.000001,0 8,0 a 8,8 0 0 1 8,8 l 0,8 0,8 0,8 a 8,8 0 0 1 -8,8 l -8,0 -80.000001,0 -1.999998,0 0,4 -16,0 0,-4 -2,0 -8,0 a 8,8 0 0 1 -8,-8 l 0,-8 z" />
  <text
     y="558.20374"
     x="36.000065"
     style="font-size:20px;font-family:Sans;text-anchor:end;fill:#000000"
     id="text3060-40-7">
    <tspan
       id="tspan3062-0-17"
       y="586.20374"
       x="150.00008">acción</tspan>
  </text>
  <path
     d="m 18.999991,785.20371 0,-8 c 0,-4.18879 3.81121,-8 8,-8 l 8,0 0,4 20,0 0,-4 18,0 39.999999,0 8,0 c 4.18879,0 8,3.81121 8,8 l 0,8 -8,0 0,-6 -8,0 0,20 8,0 0,-6 8,0 0,8 c 0,4.18879 -3.81121,8 -8,8 l -8,0 -39.999999,0 -2,0 0,4 -16,0 0,-4 -2,0 -8,0 c -2.61799,0 -5.21987,1.07773 -7.07107,2.92893 -1.8512,1.85121 -2.92893,4.45308 -2.92893,7.07107 l 0,8 0,92 0,8 c 0,2.61799 1.07773,5.21988 2.92893,7.07107 1.8512,1.8512 4.53124,3.56389 7.07107,2.92893 l 8,0 0,4 20,0 0,-4 16,0 0,12 0,12.00001 0,8 c 0,4.1888 -3.93628,6.98407 -8,8 l -8,0 -18,0 -2,0 0,4 -16,0 0,-4 -2,0 -8,0 c -4.18879,0 -8,-3.8112 -8,-8 l 0,-8 z"
     id="path3035-18"
     style="fill:#e37a00;fill-opacity:1;stroke:#a34600;stroke-width:2;stroke-linecap:round;stroke-opacity:1" />
  <text
     x="18.468811"
     y="767.88403"
     id="text3037-5"
     style="font-size:20px;font-family:Sans;text-anchor:start;fill:#000000">
    <tspan
       x="26.468811"
       y="798.38397"
       id="tspan3039-00">repetir</tspan>
  </text>
  <path
     d="m 131.46881,768.88401 120,0 0,40 -120,0 0,-16 0,-2 -12,0 0,6 -4,0 0,-16 4,0 0,6 12,0 0,-2 z"
     id="path21-8-6"
     style="fill:#ff00ff;fill-opacity:1;stroke:#c700d3;stroke-width:2;stroke-linecap:round;stroke-opacity:1" />
  <text
     x="161.46881"
     y="769.88403"
     id="text23-0-5"
     style="font-size:20px;font-family:Sans;text-anchor:start;fill:#000000">
    <tspan
       x="181.46881"
       y="795.88403"
       id="tspan25-7-5">2</tspan>
  </text>
  <path
     d="m 151.00001,811.20369 120,0 0,40 -120,0 0,-16 0,-2 -12,0 0,6 -4,0 0,-16 4,0 0,6 12,0 0,-2 z"
     id="path3172-0-0"
     style="fill:#fd6600;fill-opacity:1;stroke:#ac3d00;stroke-width:2;stroke-linecap:round;stroke-opacity:1" />
  <text
     y="810.20367"
     x="134.00002"
     id="text3174-9-3"
     style="font-size:20px;font-family:Sans;text-anchor:start;fill:#000000">
    <tspan
       x="154.00002"
       y="836.20367"
       id="tspan3176-6-1">caja</tspan>
  </text>
  <path
     d="m 37.000001,827.20369 0,-8 a 8,8 0 0 1 8,-8 l 8,0 0,4 20,0 0,-4 59.999999,0 8,0 a 8,8 0 0 1 8,8 l 0,8 -8,0 0,-6 -8,0 0,20 8,0 0,-6 8,0 0,34 -8,0 0,-6 -8,0 0,20 8,0 0,-6 8,0 0,8 a 8,8 0 0 1 -8,8 l -8,0 -59.999999,0 -2,0 0,4 -16,0 0,-4 -2,0 -8,0 a 8,8 0 0 1 -8,-8 l 0,-8 0,-42 0,-8 z"
     id="path3124-6-2"
     style="fill:#fd6600;fill-opacity:1;stroke:#ac3d00;stroke-width:2;stroke-linecap:round;stroke-opacity:1" />
  <text
     y="810.20367"
     x="36"
     id="text3126-9-9"
     style="font-size:20px;font-family:Sans;text-anchor:end;fill:#000000">
    <tspan
       x="130"
       y="859.20367"
       id="tspan3128-8-9">sumar</tspan>
  </text>
  <text
     y="812.20367"
     x="36"
     id="text3130-8-8"
     style="font-size:13.33333302px;font-family:Sans;text-anchor:end;fill:#000000">
    <tspan
       x="130"
       y="834.70367"
       id="tspan3132-4-9">para</tspan>
  </text>
  <text
     y="814.20367"
     x="36"
     id="text3134-0-5"
     style="font-size:13.33333302px;font-family:Sans;text-anchor:end;fill:#000000">
    <tspan
       x="130"
       y="878.70367"
       id="tspan3136-4-0">valor</tspan>
  </text>
  <path
     style="fill:#ff00ff;fill-opacity:1;stroke:#c700d3;stroke-width:2;stroke-linecap:round;stroke-opacity:1"
     id="path21-6-72-7-7-0-2-8"
     d="m 151.00001,853.20369 120,0 0,40 -120,0 0,-16 0,-2 -12,0 0,6 -4,0 0,-16 4,0 0,6 12,0 0,-2 z" />
  <text
     y="852.20367"
     x="186.00002"
     style="font-size:20px;font-family:Sans;text-anchor:start;fill:#000000"
     id="text23-9-5-5-0-2-3-3">
    <tspan
       id="tspan25-8-7-0-3-4-3-8"
       y="878.20367"
       x="206.00002">-2</tspan>
  </text>
  <path
     style="fill:#ffc000;fill-opacity:1;stroke:#c48d00;stroke-width:2;stroke-linecap:round;stroke-opacity:1"
     id="path3058-23-2-0"
     d="m 37.000081,911.20372 0,-8 a 8,8 0 0 1 8,-8 l 8,0 0,4 19.999998,0 0,-4 80.000001,0 8,0 a 8,8 0 0 1 8,8 l 0,8 0,8 0,8 a 8,8 0 0 1 -8,8 l -8,0 -80.000001,0 -1.999998,0 0,4 -16,0 0,-4 -2,0 -8,0 a 8,8 0 0 1 -8,-8 l 0,-8 z" />
  <text
     y="894.20374"
     x="36.000065"
     style="font-size:20px;font-family:Sans;text-anchor:end;fill:#000000"
     id="text3060-40-7-1">
    <tspan
       id="tspan3062-0-17-0"
       y="922.20374"
       x="150.00008">acción</tspan>
  </text>
  <path
     d="m 133,643.20368 120,0 0,40 -120,0 0,-16 0,-2 -12,0 0,6 -4,0 0,-16 4,0 0,6 12,0 0,-2 z"
     id="path3172-2"
     style="fill:#fd6600;fill-opacity:1;stroke:#ac3d00;stroke-width:2;stroke-linecap:round;stroke-opacity:1" />
  <text
     y="642.20367"
     x="116"
     id="text3174-06"
     style="font-size:20px;font-family:Sans;text-anchor:start;fill:#000000">
    <tspan
       x="136"
       y="668.20367"
       id="tspan3176-0">caja</tspan>
  </text>
  <path
     d="m 18.999991,659.20368 0,-8 a 8,8 0 0 1 8,-8 l 8,0 0,4 20,0 0,-4 59.999999,0 8,0 a 8,8 0 0 1 8,8 l 0,8 -8,0 0,-6 -8,0 0,20 8,0 0,-6 8,0 0,34 -8,0 0,-6 -8,0 0,20 8,0 0,-6 8,0 0,8 a 8,8 0 0 1 -8,8 l -8,0 -59.999999,0 -2,0 0,4 -16,0 0,-4 -2,0 -8,0 a 8,8 0 0 1 -8,-8 l 0,-8 0,-42 0,-8 z"
     id="path3124-24"
     style="fill:#fd6600;fill-opacity:1;stroke:#ac3d00;stroke-width:2;stroke-linecap:round;stroke-opacity:1" />
  <text
     y="642.20367"
     x="17.99999"
     id="text3126-2"
     style="font-size:20px;font-family:Sans;text-anchor:end;fill:#000000">
    <tspan
       x="111.99999"
       y="691.20367"
       id="tspan3128-3">sumar</tspan>
  </text>
  <text
     y="644.20367"
     x="17.99999"
     id="text3130-24"
     style="font-size:13.33333302px;font-family:Sans;text-anchor:end;fill:#000000">
    <tspan
       x="111.99999"
       y="666.70367"
       id="tspan3132-41">para</tspan>
  </text>
  <text
     y="646.20367"
     x="17.99999"
     id="text3134-5"
     style="font-size:13.33333302px;font-family:Sans;text-anchor:end;fill:#000000">
    <tspan
       x="111.99999"
       y="710.70367"
       id="tspan3136-3">valor</tspan>
  </text>
  <path
     style="fill:#ff00ff;fill-opacity:1;stroke:#c700d3;stroke-width:2;stroke-linecap:round;stroke-opacity:1"
     id="path21-6-72-7-7-0-5"
     d="m 133,685.20368 120,0 0,40 -120,0 0,-16 0,-2 -12,0 0,6 -4,0 0,-16 4,0 0,6 12,0 0,-2 z" />
  <text
     y="684.20367"
     x="168"
     style="font-size:20px;font-family:Sans;text-anchor:start;fill:#000000"
     id="text23-9-5-5-0-2-95">
    <tspan
       id="tspan25-8-7-0-3-4-97"
       y="710.20367"
       x="188">-1</tspan>
  </text>
  <path
     style="fill:#ffc000;fill-opacity:1;stroke:#c48d00;stroke-width:2;stroke-linecap:round;stroke-opacity:1"
     id="path3058-23-1"
     d="m 19.000071,743.20371 0,-8 a 8,8 0 0 1 8,-8 l 8,0 0,4 19.999998,0 0,-4 80.000001,0 8,0 a 8,8 0 0 1 8,8 l 0,8 0,8 0,8 a 8,8 0 0 1 -8,8 l -8,0 -80.000001,0 -1.999998,0 0,4 -16,0 0,-4 -2,0 -8,0 a 8,8 0 0 1 -8,-8 l 0,-8 z" />
  <text
     y="726.20374"
     x="18.000055"
     style="font-size:20px;font-family:Sans;text-anchor:end;fill:#000000"
     id="text3060-40-00">
    <tspan
       id="tspan3062-0-6"
       y="754.20374"
       x="132.00006">acción</tspan>
  </text>
  <path
     d="m 18.99997,995.20376 0,-8 c 0,-4.41828 3.581722,-8 8,-8 l 8,0 0,4 20,0 0,-4 214,0 8,0 c 4.41828,0 8,3.58172 8,8 l 0,8 -8,0 0,-6 -8,0 0,20.00004 8,0 0,-6 8,0 0,8 c 0,4.4182 -3.58172,8 -8,8 l -8,0 -214,0 -2,0 0,4 -16,0 0,-4 -2,0 -8,0 c -4.418278,0 -8,-3.5818 -8,-8 l 0,-8 z"
     id="path21-5"
     style="fill:#1d8989;fill-opacity:1;stroke:#005459;stroke-width:2;stroke-linecap:round;stroke-opacity:1" />
  <text
     y="978.20374"
     id="text23-8"
     style="font-size:20px;font-family:Sans;text-anchor:end;fill:#000000"
     x="167.99997">
    <tspan
       x="261.99997"
       y="1006.2037"
       id="tspan25-6">guardar como lilypond</tspan>
  </text>
  <text
     y="978.20374"
     x="17.999969"
     id="text27-9"
     style="font-size:13.33333302px;font-family:Sans;text-anchor:end;fill:#000000">
    <tspan
       x="111.99997"
       y="1000.7037"
       id="tspan29-8" />
  </text>
  <path
     d="m 287.00002,979.20376 140,0 0,40.00004 -140,0 0,-16 0,-2 -12,0 0,6 -4,0 0,-16.00004 4,0 0,6 12,0 0,-2 z"
     id="path21-2-0-9"
     style="fill:#7bbbb8;fill-opacity:1;stroke:#4c8585;stroke-width:2;stroke-linecap:round;stroke-opacity:1" />
  <text
     x="293.21786"
     y="977.65973"
     id="text23-2-5"
     style="font-size:20px;font-family:Sans;text-anchor:start;fill:#000000">
    <tspan
       x="313.21786"
       y="1003.6597"
       id="tspan25-1-6">hotdog.ly</tspan>
  </text>
  <path
     d="m 551,249.20402 120,0 0,40 -120,0 0,-16 0,-2 -12,0 0,6 -4,0 0,-16 4,0 0,6 12,0 0,-2 z"
     id="path3172-5-0"
     style="fill:#fd6600;fill-opacity:1;stroke:#ac3d00;stroke-width:2;stroke-linecap:round;stroke-opacity:1" />
  <text
     y="248.20401"
     x="534.00006"
     id="text3174-0-0"
     style="font-size:20px;font-family:Sans;text-anchor:start;fill:#000000">
    <tspan
       x="554.00006"
       y="274.20401"
       id="tspan3176-5-1">caja</tspan>
  </text>
  <path
     d="m 358.99999,432.124 0,-8.00001 a 8.0000007,8.0000006 0 0 1 8,-8 l 8,0 0,4 20,0 0,-4 59.99999,0 8.00002,0 a 8.0000007,8.0000006 0 0 1 8,8 l 0,8.00001 -8,0 0,-6.00001 -8.00002,0 0,20.00001 8.00002,0 0,-6 8,0 0,34 -8,0 0,-5.99999 -8.00002,0 0,19.99999 8.00002,0 0,-6 8,0 0,8 a 8.0000007,8.0000006 0 0 1 -8,8 l -8.00002,0 -59.99999,0 -2,0 0,4 -16,0 0,-4 -2,0 -8,0 a 8.0000007,8.0000006 0 0 1 -8,-8 l 0,-8 0,-42 0,-8 z"
     id="path3194-2"
     style="fill:#00b700;fill-opacity:1;stroke:#007b00;stroke-width:2;stroke-linecap:round;stroke-opacity:1" />
  <text
     id="text3196-91"
     style="font-size:20px;font-family:Sans;text-anchor:end;fill:#000000"
     x="357.99997"
     y="415.12399">
    <tspan
       x="452.00003"
       y="464.12402"
       id="tspan3198-2">tono</tspan>
  </text>
  <text
     id="text3200-7"
     style="font-size:13.33333302px;font-family:Sans;text-anchor:end;fill:#000000"
     x="357.99997"
     y="417.12402">
    <tspan
       x="452.00003"
       y="439.62399"
       id="tspan3202-0">nota</tspan>
  </text>
  <text
     id="text3204-93"
     style="font-size:13.33333302px;font-family:Sans;text-anchor:end;fill:#000000"
     x="357.99997"
     y="419.12402">
    <tspan
       x="452.00003"
       y="483.62396"
       id="tspan3206-6-1">octava</tspan>
  </text>
  <path
     style="fill:#00b700;fill-opacity:1;stroke:#007b00;stroke-width:2;stroke-linecap:round;stroke-opacity:1"
     id="path21-0"
     d="m 473,416.12399 120,0 0,40.00002 -120,0 0,-16.00001 0,-2 -12,0 0,6 -4.00002,0 0,-16.00001 4.00002,0 0,6.00001 12,0 0,-2 z" />
  <text
     x="483.99997"
     style="font-size:20px;font-family:Sans;text-anchor:start;fill:#000000"
     id="text23-6"
     y="415.12399">
    <tspan
       id="tspan25-2"
       y="441.12399"
       x="503.99997">hacer</tspan>
  </text>
  <path
     d="m 473,458.124 120,0 0,40 -120,0 0,-16 0,-2 -12,0 0,6 -4.00002,0 0,-16 4.00002,0 0,6 12,0 0,-2 z"
     id="path21-6-6"
     style="fill:#ff00ff;fill-opacity:1;stroke:#c700d3;stroke-width:2;stroke-linecap:round;stroke-opacity:1" />
  <text
     id="text23-9-1"
     style="font-size:20px;font-family:Sans;text-anchor:start;fill:#000000"
     x="507.99997"
     y="457.12402">
    <tspan
       x="528"
       y="483.12396"
       id="tspan25-8-8">4</tspan>
  </text>
  <path
     d="m 340.99998,348.12401 0,-8 c 0,-4.41828 3.58173,-8 8.00001,-8 l 8,0 0,4 20,0 0,-4 18,0 109.99999,0 8.00002,0 c 4.41827,0 9.07158,3.71364 8,8 l 0,8 -8,0 0,-6 -8.00002,0 0,20 8.00002,0 0,-6 8,0 0,8 c 0,4.41828 -3.58173,8 -8,8 l -8.00002,0 -109.99999,0 -2,0 0,4 -16,0 0,-4 -2,0 -8,0 c -5.52285,0 -10,4.47715 -10,10 l 0,8 0,92.00001 0,7.99999 c 0,5.52285 4.64205,11.3395 10,10 l 8,0 0,4 20,0 0,-4 16,0 0,12 0,12 0,8 c 0,4.41828 -3.71364,9.07161 -8,8.00001 l -8,0 -18,0 -2,0 0,4 -16,0 0,-4 -2,0 -8,0 c -4.41828,0 -8.00001,-3.58173 -8.00001,-8.00001 l 0,-8 z"
     id="path3035-5"
     style="fill:#fd6600;fill-opacity:1;stroke:#ac3d00;stroke-width:2;stroke-linecap:round;stroke-opacity:1" />
  <text
     id="text3037-3"
     style="font-size:20px;font-family:Sans;text-anchor:start;fill:#000000"
     y="329.12399"
     x="337.99997">
    <tspan
       x="345.99997"
       y="359.62396"
       id="tspan3039-5">valor de la nota</tspan>
  </text>
  <path
     d="m 637.00005,374.12401 120.00002,0 0,40 -120.00002,0 0,-16 0,-2 -12,0 0,6 -4,0 0,-16 4,0 0,6 12,0 0,-2 z"
     id="path21-6-1-7"
     style="fill:#ff00ff;fill-opacity:1;stroke:#c700d3;stroke-width:2;stroke-linecap:round;stroke-opacity:1" />
  <text
     id="text23-9-82-9"
     style="font-size:20px;font-family:Sans;text-anchor:start;fill:#000000"
     x="668.00006"
     y="373.12396">
    <tspan
       x="688.00006"
       y="399.12399"
       id="tspan25-8-5-2">8</tspan>
  </text>
  <path
     d="m 523.00005,348.12401 0,-8 a 8.0000007,8.0000006 0 0 1 8,-8 l 8,0 20,0 60,0 8,0 a 8.0000007,8.0000006 0 0 1 8,8 l 0,8 -8,0 0,-6 -8,0 0,20 8,0 0,-6 8,0 0,34 -8,0 0,-6 -8,0 0,20 8,0 0,-6 8,0 0,8 a 8.0000007,8.0000006 0 0 1 -8,8 l -8,0 -60,0 -20,0 -8,0 a 8.0000007,8.0000006 0 0 1 -8,-8 l 0,-8 0,-42 0,-2 -12,0 0,6 -4.00002,0 0,-16 4.00002,0 0,6 12,0 0,-2 z"
     id="path3798-4-4-5"
     style="fill:#ff00ff;fill-opacity:1;stroke:#c700d3;stroke-width:2;stroke-linecap:round;stroke-opacity:1" />
  <text
     y="331.12396"
     id="text3800-3-2-0"
     style="font-size:28px;font-family:sans-serif;text-anchor:end;fill:#000000"
     x="498.00009">
    <tspan
       x="608.00006"
       y="380.12396"
       id="tspan3802-6-2-5">/</tspan>
  </text>
  <path
     d="m 637.00003,332.124 120,0 0,40 -120,0 0,-16 0,-2 -12,0 0,6 -4,0 0,-16 4,0 0,6 12,0 0,-2 z"
     id="path21-8-2-1-0-6"
     style="fill:#ff00ff;fill-opacity:1;stroke:#c700d3;stroke-width:2;stroke-linecap:round;stroke-opacity:1" />
  <text
     x="669.00006"
     y="333.12399"
     id="text23-0-1-0-1-0"
     style="font-size:20px;font-family:Sans;text-anchor:start;fill:#000000">
    <tspan
       x="689.00006"
       y="359.12402"
       id="tspan25-7-0-5-2-5">1</tspan>
  </text>
  <path
     style="fill:#fd6600;fill-opacity:1;stroke:#ac3d00;stroke-width:2;stroke-linecap:round;stroke-opacity:1"
     id="path3124-5"
     d="m 358.99999,390.12401 0,-8 c 0,-4.41828 3.58172,-8 8,-8 l 8,0 0,4 20,0 0,-4 59.99999,0 8.00002,0 c 4.41827,0 8,3.58172 8,8 l 0,8 0,8 0,8 c 0,4.41828 -3.71365,6.92841 -8,8 l -8.00002,0 -59.99999,0 -2,0 0,4 -16,0 0,-4 -2,0 -8,0 c -4.41828,0 -8,-3.58172 -8,-8 l 0,-8 0,0 z" />
  <text
     id="text6137"
     y="401.04712"
     x="440.82303"
     style="font-style:normal;font-weight:normal;font-size:16px;line-height:125%;font-family:sans-serif;text-align:center;letter-spacing:0px;word-spacing:0px;text-anchor:middle;fill:#000000;fill-opacity:1;stroke:none;stroke-width:1px;stroke-linecap:butt;stroke-linejoin:miter;stroke-opacity:1"
     xml:space="preserve"><tspan
       style="font-size:22.5px"
       y="401.04712"
       x="440.82303"
       id="tspan6139">↓</tspan></text>
  <path
     d="m 358.99999,722.124 0,-8.00001 a 8.0000007,8.0000006 0 0 1 8,-8 l 8,0 0,4 20,0 0,-4 59.99999,0 8.00002,0 a 8.0000007,8.0000006 0 0 1 8,8 l 0,8.00001 -8,0 0,-6.00001 -8.00002,0 0,20.00001 8.00002,0 0,-6 8,0 0,34 -8,0 0,-5.99999 -8.00002,0 0,19.99999 8.00002,0 0,-6 8,0 0,8 a 8.0000007,8.0000006 0 0 1 -8,8 l -8.00002,0 -59.99999,0 -2,0 0,4 -16,0 0,-4 -2,0 -8,0 a 8.0000007,8.0000006 0 0 1 -8,-8 l 0,-8 0,-42 0,-8 z"
     id="path3194-2-9"
     style="fill:#00b700;fill-opacity:1;stroke:#007b00;stroke-width:2;stroke-linecap:round;stroke-opacity:1" />
  <text
     id="text3196-91-7"
     style="font-size:20px;font-family:Sans;text-anchor:end;fill:#000000"
     x="357.99997"
     y="705.12402">
    <tspan
       x="452.00003"
       y="754.12408"
       id="tspan3198-2-7">tono</tspan>
  </text>
  <text
     id="text3200-7-6"
     style="font-size:13.33333302px;font-family:Sans;text-anchor:end;fill:#000000"
     x="357.99997"
     y="707.12402">
    <tspan
       x="452.00003"
       y="729.62402"
       id="tspan3202-0-7">nota</tspan>
  </text>
  <text
     id="text3204-93-3"
     style="font-size:13.33333302px;font-family:Sans;text-anchor:end;fill:#000000"
     x="357.99997"
     y="709.12402">
    <tspan
       x="452.00003"
       y="773.62402"
       id="tspan3206-6-1-6">octava</tspan>
  </text>
  <path
     style="fill:#00b700;fill-opacity:1;stroke:#007b00;stroke-width:2;stroke-linecap:round;stroke-opacity:1"
     id="path21-0-5"
     d="m 473,706.12399 120,0 0,40.00002 -120,0 0,-16.00001 0,-2 -12,0 0,6 -4.00002,0 0,-16.00001 4.00002,0 0,6.00001 12,0 0,-2 z" />
  <text
     x="483.99997"
     style="font-size:20px;font-family:Sans;text-anchor:start;fill:#000000"
     id="text23-6-6"
     y="705.12402">
    <tspan
       id="tspan25-2-3"
       y="731.12402"
       x="503.99997">hacer</tspan>
  </text>
  <path
     d="m 473,748.124 120,0 0,40 -120,0 0,-16 0,-2 -12,0 0,6 -4.00002,0 0,-16 4.00002,0 0,6 12,0 0,-2 z"
     id="path21-6-6-9"
     style="fill:#ff00ff;fill-opacity:1;stroke:#c700d3;stroke-width:2;stroke-linecap:round;stroke-opacity:1" />
  <text
     id="text23-9-1-4"
     style="font-size:20px;font-family:Sans;text-anchor:start;fill:#000000"
     x="507.99997"
     y="747.12402">
    <tspan
       x="528"
       y="773.12402"
       id="tspan25-8-8-8">4</tspan>
  </text>
  <path
     d="m 340.99998,638.12401 0,-8 c 0,-4.41828 3.58173,-8 8.00001,-8 l 8,0 0,4 20,0 0,-4 18,0 109.99999,0 8.00002,0 c 4.41827,0 9.07158,3.71364 8,8 l 0,8 -8,0 0,-6 -8.00002,0 0,20 8.00002,0 0,-6 8,0 0,8 c 0,4.41828 -3.58173,8 -8,8 l -8.00002,0 -109.99999,0 -2,0 0,4 -16,0 0,-4 -2,0 -8,0 c -5.52285,0 -10,4.47715 -10,10 l 0,8 0,92.00001 0,7.99999 c 0,5.52285 4.64205,11.3395 10,10 l 8,0 0,4 20,0 0,-4 16,0 0,12 0,12 0,8 c 0,4.41828 -3.71364,9.07161 -8,8.00001 l -8,0 -18,0 -2,0 0,4 -16,0 0,-4 -2,0 -8,0 c -4.41828,0 -8.00001,-3.58173 -8.00001,-8.00001 l 0,-8 z"
     id="path3035-5-1"
     style="fill:#fd6600;fill-opacity:1;stroke:#ac3d00;stroke-width:2;stroke-linecap:round;stroke-opacity:1" />
  <text
     id="text3037-3-2"
     style="font-size:20px;font-family:Sans;text-anchor:start;fill:#000000"
     y="619.12402"
     x="337.99997">
    <tspan
       x="345.99997"
       y="649.62396"
       id="tspan3039-5-9">valor de la nota</tspan>
  </text>
  <path
     d="m 637.00005,664.12401 120.00002,0 0,40 -120.00002,0 0,-16 0,-2 -12,0 0,6 -4,0 0,-16 4,0 0,6 12,0 0,-2 z"
     id="path21-6-1-7-3"
     style="fill:#ff00ff;fill-opacity:1;stroke:#c700d3;stroke-width:2;stroke-linecap:round;stroke-opacity:1" />
  <text
     id="text23-9-82-9-9"
     style="font-size:20px;font-family:Sans;text-anchor:start;fill:#000000"
     x="668.00006"
     y="663.12396">
    <tspan
       x="688.00006"
       y="689.12402"
       id="tspan25-8-5-2-0">4</tspan>
  </text>
  <path
     d="m 523.00005,638.12401 0,-8 a 8.0000007,8.0000006 0 0 1 8,-8 l 8,0 20,0 60,0 8,0 a 8.0000007,8.0000006 0 0 1 8,8 l 0,8 -8,0 0,-6 -8,0 0,20 8,0 0,-6 8,0 0,34 -8,0 0,-6 -8,0 0,20 8,0 0,-6 8,0 0,8 a 8.0000007,8.0000006 0 0 1 -8,8 l -8,0 -60,0 -20,0 -8,0 a 8.0000007,8.0000006 0 0 1 -8,-8 l 0,-8 0,-42 0,-2 -12,0 0,6 -4.00002,0 0,-16 4.00002,0 0,6 12,0 0,-2 z"
     id="path3798-4-4-5-8"
     style="fill:#ff00ff;fill-opacity:1;stroke:#c700d3;stroke-width:2;stroke-linecap:round;stroke-opacity:1" />
  <text
     y="621.12396"
     id="text3800-3-2-0-8"
     style="font-size:28px;font-family:sans-serif;text-anchor:end;fill:#000000"
     x="498.00009">
    <tspan
       x="608.00006"
       y="670.12396"
       id="tspan3802-6-2-5-5">/</tspan>
  </text>
  <path
     d="m 637.00003,622.124 120,0 0,40 -120,0 0,-16 0,-2 -12,0 0,6 -4,0 0,-16 4,0 0,6 12,0 0,-2 z"
     id="path21-8-2-1-0-6-9"
     style="fill:#ff00ff;fill-opacity:1;stroke:#c700d3;stroke-width:2;stroke-linecap:round;stroke-opacity:1" />
  <text
     x="669.00006"
     y="623.12402"
     id="text23-0-1-0-1-0-6"
     style="font-size:20px;font-family:Sans;text-anchor:start;fill:#000000">
    <tspan
       x="689.00006"
       y="649.12402"
       id="tspan25-7-0-5-2-5-3">1</tspan>
  </text>
  <path
     style="fill:#fd6600;fill-opacity:1;stroke:#ac3d00;stroke-width:2;stroke-linecap:round;stroke-opacity:1"
     id="path3124-5-8"
     d="m 358.99999,680.12401 0,-8 c 0,-4.41828 3.58172,-8 8,-8 l 8,0 0,4 20,0 0,-4 59.99999,0 8.00002,0 c 4.41827,0 8,3.58172 8,8 l 0,8 0,8 0,8 c 0,4.41828 -3.71365,6.92841 -8,8 l -8.00002,0 -59.99999,0 -2,0 0,4 -16,0 0,-4 -2,0 -8,0 c -4.41828,0 -8,-3.58172 -8,-8 l 0,-8 0,0 z" />
  <text
     id="text6137-5"
     y="691.04712"
     x="440.82303"
     style="font-style:normal;font-weight:normal;font-size:16px;line-height:125%;font-family:sans-serif;text-align:center;letter-spacing:0px;word-spacing:0px;text-anchor:middle;fill:#000000;fill-opacity:1;stroke:none;stroke-width:1px;stroke-linecap:butt;stroke-linejoin:miter;stroke-opacity:1"
     xml:space="preserve"><tspan
       style="font-size:22.5px"
       y="691.04712"
       x="440.82303"
       id="tspan6139-6">↓</tspan></text>
</svg>
