<?xml version="1.0" encoding="UTF-8" standalone="no"?>
<svg
   xmlns:dc="http://purl.org/dc/elements/1.1/"
   xmlns:cc="http://creativecommons.org/ns#"
   xmlns:rdf="http://www.w3.org/1999/02/22-rdf-syntax-ns#"
   xmlns:svg="http://www.w3.org/2000/svg"
   xmlns="http://www.w3.org/2000/svg"
   version="1.1"
   width="266"
   height="496"
   id="svg3641">
  <metadata
     id="metadata3670">
    <rdf:RDF>
      <cc:Work
         rdf:about="">
        <dc:format>image/svg+xml</dc:format>
        <dc:type
           rdf:resource="http://purl.org/dc/dcmitype/StillImage" />
        <dc:title></dc:title>
      </cc:Work>
    </rdf:RDF>
  </metadata>
  <defs
     id="defs3668" />
  <path
     d="m 1.000001,195 0,-8 c 0,-4.18879 3.8112098,-8 8,-8 l 8,0 0,4 20,0 0,-4 95.999999,0 8,0 c 4.18879,0 8,3.81121 8,8 l 0,24 c 0,4.18879 -3.81121,8 -8,8 l -8,0 -95.999999,0 -2,0 0,4 -16,0 0,-4 -2,0 -8,0 c -4.1887902,0 -8,-3.81121 -8,-8 l 0,-8 z"
     id="path21-9"
     style="fill:#00b700;fill-opacity:1;stroke:#007b00;stroke-width:2;stroke-linecap:round;stroke-opacity:1" />
  <text
     y="178"
     x="38"
     id="text23-63"
     style="font-size:20px;font-family:Sans;text-anchor:end;fill:#000000">
    <tspan
       x="132"
       y="206"
       id="tspan25-1">1/4 nota</tspan>
  </text>
  <text
     y="178"
     x="1e-06"
     id="text27"
     style="font-size:13.33333302px;font-family:Sans;text-anchor:end;fill:#000000">
    <tspan
       x="94"
       y="200.5"
       id="tspan29" />
  </text>
  <path
     d="m 135.5096,205.20835 q 0,-1.20833 1.29166,-2.10417 1,-0.66666 2.02084,-0.66666 0.70833,0.0208 1.22916,0.35416 l 0,-12.33333 0.45834,0 0,13.47917 q 0,1.375 -1.39584,2.1875 -0.89583,0.52083 -1.875,0.52083 -1.02083,0 -1.5,-0.72917 -0.22916,-0.33333 -0.22916,-0.70833 z"
     id="path3438"
     style="font-style:normal;font-weight:normal;font-size:medium;line-height:125%;font-family:Sans;text-align:end;letter-spacing:0px;word-spacing:0px;text-anchor:end;fill:#000000;fill-opacity:1;stroke:none;stroke-width:1px;stroke-linecap:butt;stroke-linejoin:miter;stroke-opacity:1" />
  <path
     d="m 1,375 0,-8 c 0,-4.18879 3.8112098,-8 8,-8 l 8,0 0,4 20,0 0,-4 96,0 8,0 c 4.18879,0 8,3.81121 8,8 l 0,24 c 0,4.18879 -3.81121,8 -8,8 l -8,0 -96,0 -2,0 0,4 -16,0 0,-4 -2,0 -8,0 c -4.1887902,0 -8,-3.81121 -8,-8 l 0,-8 z"
     id="path21-30-8"
     style="fill:#00b700;fill-opacity:1;stroke:#007b00;stroke-width:2;stroke-linecap:round;stroke-opacity:1" />
  <text
     y="358"
     x="30"
     id="text23-7-9"
     style="font-size:20px;font-family:Sans;text-anchor:end;fill:#000000">
    <tspan
       x="124"
       y="386"
       id="tspan25-95-2">1/8 nota</tspan>
  </text>
  <text
     y="358"
     id="text27-4-6"
     style="font-size:13.33333302px;font-family:Sans;text-anchor:end;fill:#000000">
    <tspan
       x="94"
       y="380.5"
       id="tspan29-8-5" />
  </text>
  <path
     d="m 129.60206,384.17392 q 0,-1.19434 1.2767,-2.07979 0.98842,-0.65895 1.99743,-0.65895 0.70013,0.0206 1.21493,0.35007 l 0,-12.19048 0.43243,0 q 0.32947,2.03861 1.77091,3.72716 0.18533,0.20592 0.5354,0.57657 1.13256,1.23552 1.48262,2.03861 0.30888,0.76191 0.30888,1.70914 -0.0206,1.77091 -1.46203,4.09781 l -0.47362,0 q 0.90605,-1.95624 1.0296,-2.34749 0.20592,-0.70013 0.20592,-1.44144 0,-1.5444 -1.21493,-2.75933 -0.98841,-1.00901 -2.16216,-1.09138 l 0,8.81339 q 0,1.35907 -1.37966,2.16216 -0.88546,0.5148 -1.85329,0.5148 -1.009,0 -1.48262,-0.72072 -0.22651,-0.32947 -0.22651,-0.70013 z"
     id="path3445-1"
     style="font-style:normal;font-weight:normal;font-size:medium;line-height:125%;font-family:Sans;text-align:end;letter-spacing:0px;word-spacing:0px;text-anchor:end;fill:#000000;fill-opacity:1;stroke:none;stroke-width:1px;stroke-linecap:butt;stroke-linejoin:miter;stroke-opacity:1" />
  <path
     d="M 1,17 1,9 C 1,4.8112098 4.8112098,1 9,1 l 8,0 0,4 20,0 0,-4 86,0 8,0 c 4.18879,0 8,3.8112098 8,8 l 0,24 c 0,4.18879 -3.81121,8 -8,8 l -8,0 -86,0 -2,0 0,4 -16,0 0,-4 -2,0 -8,0 C 4.8112098,41 1,37.18879 1,33 l 0,-8 z"
     id="path21-65"
     style="fill:#00b700;fill-opacity:1;stroke:#007b00;stroke-width:2;stroke-linecap:round;stroke-opacity:1" />
  <text
     x="14"
     id="text23-00"
     style="font-size:20px;font-family:Sans;text-anchor:end;fill:#000000">
    <tspan
       x="108"
       y="28"
       id="tspan25-84">1/2 nota</tspan>
  </text>
  <text
     id="text27-9"
     style="font-size:13.33333302px;font-family:Sans;text-anchor:end;fill:#000000">
    <tspan
       x="94"
       y="22.5"
       id="tspan29-2" />
  </text>
  <path
     d="m 119.86221,27.930576 q 0,-1.194337 1.2767,-2.079794 0.98842,-0.658945 1.99743,-0.658945 0.70013,0.02059 1.21493,0.350065 l 0,-12.190477 0.45302,0 0,13.323038 q 0,1.359073 -1.37966,2.162162 -0.88546,0.514801 -1.85329,0.514801 -1.00901,0 -1.48262,-0.720721 -0.22651,-0.329473 -0.22651,-0.700129 z m 0.94723,0.617761 q 1.2973,0 2.65637,-1.31789 0.65894,-0.658944 0.67954,-0.988417 -0.0412,-0.267696 -0.24711,-0.288288 -0.82368,0 -2.20334,0.947233 -1.19434,0.844273 -1.21493,1.379665 0.0412,0.247105 0.32947,0.267697 z"
     id="path3470"
     style="font-style:normal;font-weight:normal;font-size:medium;line-height:125%;font-family:Sans;text-align:end;letter-spacing:0px;word-spacing:0px;text-anchor:end;fill:#000000;fill-opacity:1;stroke:none;stroke-width:1px;stroke-linecap:butt;stroke-linejoin:miter;stroke-opacity:1" />
  <path
     d="m 1,245 0,-8 c 0,-4.41828 3.581722,-8 8,-8 l 8,0 0,4 20,0 0,-4 90,0 8,0 c 4.41828,0 9.07159,3.71364 8,8 l 0,8 -8,0 0,-6 -8,0 0,20 8,0 0,-6 8,0 0,34 -8,0 0,-6 -8,0 0,20 8,0 0,-6 8,0 0,8 c 0,4.41828 -3.58172,8 -8,8 l -8,0 -90,0 -2,0 0,4 -16,0 0,-4 -2,0 -8,0 c -4.418278,0 -8,-3.58172 -8,-8 l 0,-8 0,-42 z"
     id="path3194-5"
     style="fill:#00b700;fill-opacity:1;stroke:#007b00;stroke-width:2;stroke-linecap:round;stroke-opacity:1" />
  <text
     x="30"
     y="228"
     id="text3196-8"
     style="font-size:20px;font-family:Sans;text-anchor:end;fill:#000000">
    <tspan
       x="124"
       y="277"
       id="tspan3198-7">ritmo</tspan>
  </text>
  <text
     x="30"
     y="228"
     id="text3200-4"
     style="font-size:13.33333302px;font-family:Sans;text-anchor:end;fill:#000000">
    <tspan
       x="124"
       y="250.5"
       id="tspan3202-8">número de notas</tspan>
  </text>
  <text
     x="30"
     y="228"
     id="text3204-2"
     style="font-size:13.33333302px;font-family:Sans;text-anchor:end;fill:#000000">
    <tspan
       x="124"
       y="292.5"
       id="tspan3206-3">valor de la nota</tspan>
  </text>
  <path
     d="m 145,271 120,0 0,40 -120,0 0,-16 0,-2 -12,0 0,6 -4,0 0,-16 4,0 0,6 12,0 0,-2 z"
     id="path21-6-1"
     style="fill:#ff00ff;fill-opacity:1;stroke:#c700d3;stroke-width:2;stroke-linecap:round;stroke-opacity:1" />
  <text
     id="text23-9-1"
     style="font-size:20px;font-family:Sans;text-anchor:start;fill:#000000"
     x="180.00002"
     y="270">
    <tspan
       x="200.00002"
       y="296"
       id="tspan25-8-9">4</tspan>
  </text>
  <path
     style="fill:#ff00ff;fill-opacity:1;stroke:#c700d3;stroke-width:2;stroke-linecap:round;stroke-opacity:1"
     id="path21-6-15"
     d="m 145,229 120,0 0,40 -120,0 0,-16 0,-2 -12,0 0,6 -4,0 0,-16 4,0 0,6 12,0 0,-2 z" />
  <text
     y="228"
     x="180"
     style="font-size:20px;font-family:Sans;text-anchor:start;fill:#000000"
     id="text23-9-6">
    <tspan
       id="tspan25-8-1"
       y="254"
       x="200">1</tspan>
  </text>
  <path
     d="m 1,425 0,-8 c 0,-4.41828 3.581722,-8 8,-8 l 8,0 0,4 20,0 0,-4 90,0 8,0 c 4.41828,0 9.07159,3.71364 8,8 l 0,8 -8,0 0,-6 -8,0 0,20 8,0 0,-6 8,0 0,34 -8,0 0,-6 -8,0 0,20 8,0 0,-6 8,0 0,8 c 0,4.41828 -3.58172,8 -8,8 l -8,0 -90,0 -2,0 0,4 -16,0 0,-4 -2,0 -8,0 c -4.418278,0 -8,-3.58172 -8,-8 l 0,-8 0,-42 z"
     id="path3194-5-9"
     style="fill:#00b700;fill-opacity:1;stroke:#007b00;stroke-width:2;stroke-linecap:round;stroke-opacity:1" />
  <text
     x="30"
     y="408"
     id="text3196-8-6"
     style="font-size:20px;font-family:Sans;text-anchor:end;fill:#000000">
    <tspan
       x="124"
       y="457"
       id="tspan3198-7-9">ritmo</tspan>
  </text>
  <text
     x="30"
     y="408"
     id="text3200-4-0"
     style="font-size:13.33333302px;font-family:Sans;text-anchor:end;fill:#000000">
    <tspan
       x="124"
       y="430.5"
       id="tspan3202-8-8">número de notas</tspan>
  </text>
  <text
     x="30"
     y="408"
     id="text3204-2-2"
     style="font-size:13.33333302px;font-family:Sans;text-anchor:end;fill:#000000">
    <tspan
       x="124"
       y="472.5"
       id="tspan3206-3-1">valor de la nota</tspan>
  </text>
  <path
     d="m 145,451 120,0 0,40 -120,0 0,-16 0,-2 -12,0 0,6 -4,0 0,-16 4,0 0,6 12,0 0,-2 z"
     id="path21-6-1-6"
     style="fill:#ff00ff;fill-opacity:1;stroke:#c700d3;stroke-width:2;stroke-linecap:round;stroke-opacity:1" />
  <text
     id="text23-9-1-8"
     style="font-size:20px;font-family:Sans;text-anchor:start;fill:#000000"
     x="180.00002"
     y="450">
    <tspan
       x="200.00002"
       y="476"
       id="tspan25-8-9-2">8</tspan>
  </text>
  <path
     style="fill:#ff00ff;fill-opacity:1;stroke:#c700d3;stroke-width:2;stroke-linecap:round;stroke-opacity:1"
     id="path21-6-15-3"
     d="m 145,409 120,0 0,40 -120,0 0,-16 0,-2 -12,0 0,6 -4,0 0,-16 4,0 0,6 12,0 0,-2 z" />
  <text
     y="408"
     x="180"
     style="font-size:20px;font-family:Sans;text-anchor:start;fill:#000000"
     id="text23-9-6-9">
    <tspan
       id="tspan25-8-1-1"
       y="434"
       x="200">1</tspan>
  </text>
  <path
     d="m 1,67 0,-8 c 0,-4.418278 3.581722,-8 8,-8 l 8,0 0,4 20,0 0,-4 90,0 8,0 c 4.41828,0 8,3.581722 8,8 l 0,8 -8,0 0,-6 -8,0 0,20 8,0 0,-6 8,0 0,34 -8,0 0,-6 -8,0 0,20 8,0 0,-6 8,0 0,8 c 0,4.41828 -3.58172,8 -8,8 l -8,0 -90,0 -2,0 0,4 -16,0 0,-4 -2,0 -8,0 c -4.418278,0 -8,-3.58172 -8,-8 l 0,-8 0,-42 z"
     id="path3194-5-1"
     style="fill:#00b700;fill-opacity:1;stroke:#007b00;stroke-width:2;stroke-linecap:round;stroke-opacity:1" />
  <text
     x="30"
     y="50"
     id="text3196-8-1"
     style="font-size:20px;font-family:Sans;text-anchor:end;fill:#000000">
    <tspan
       x="124"
       y="99"
       id="tspan3198-7-3">ritmo</tspan>
  </text>
  <text
     x="30"
     y="50"
     id="text3200-4-1"
     style="font-size:13.33333302px;font-family:Sans;text-anchor:end;fill:#000000">
    <tspan
       x="124"
       y="72.5"
       id="tspan3202-8-3">número de notas</tspan>
  </text>
  <text
     x="30"
     y="50"
     id="text3204-2-9"
     style="font-size:13.33333302px;font-family:Sans;text-anchor:end;fill:#000000">
    <tspan
       x="124"
       y="114.5"
       id="tspan3206-3-2">valor de la nota</tspan>
  </text>
  <path
     d="m 145,93 120,0 0,40 -120,0 0,-16 0,-2 -12,0 0,6 -4,0 0,-16 4,0 0,6 12,0 0,-2 z"
     id="path21-6-1-3"
     style="fill:#ff00ff;fill-opacity:1;stroke:#c700d3;stroke-width:2;stroke-linecap:round;stroke-opacity:1" />
  <text
     id="text23-9-1-0"
     style="font-size:20px;font-family:Sans;text-anchor:start;fill:#000000"
     x="180.00002"
     y="92">
    <tspan
       x="200.00002"
       y="118"
       id="tspan25-8-9-9">2</tspan>
  </text>
  <path
     style="fill:#ff00ff;fill-opacity:1;stroke:#c700d3;stroke-width:2;stroke-linecap:round;stroke-opacity:1"
     id="path21-6-15-6"
     d="m 145,50.999998 120,0 0,40 -120,0 0,-16 0,-2 -12,0 0,6 -4,0 0,-16 4,0 0,6 12,0 0,-2 z" />
  <text
     y="50"
     x="180"
     style="font-size:20px;font-family:Sans;text-anchor:start;fill:#000000"
     id="text23-9-6-4">
    <tspan
       id="tspan25-8-1-2"
       y="76"
       x="200">1</tspan>
  </text>
</svg>
