<?xml version="1.0" encoding="UTF-8" standalone="no"?>
<svg
   xmlns:dc="http://purl.org/dc/elements/1.1/"
   xmlns:cc="http://creativecommons.org/ns#"
   xmlns:rdf="http://www.w3.org/1999/02/22-rdf-syntax-ns#"
   xmlns:svg="http://www.w3.org/2000/svg"
   xmlns="http://www.w3.org/2000/svg"
   version="1.1"
   width="316"
   height="562"
   id="svg3641">
  <metadata
     id="metadata3670">
    <rdf:RDF>
      <cc:Work
         rdf:about="">
        <dc:format>image/svg+xml</dc:format>
        <dc:type
           rdf:resource="http://purl.org/dc/dcmitype/StillImage" />
        <dc:title></dc:title>
      </cc:Work>
    </rdf:RDF>
  </metadata>
  <defs
     id="defs3668" />
  <path
     style="fill:#00b700;fill-opacity:1;stroke:#007b00;stroke-width:2;stroke-linecap:round;stroke-opacity:1"
     id="path3194-9"
     d="m 19,58.99998 0,-8 a 8,8 0 0 1 8,-8 l 8,0 0,4 20,0 0,-4 60,0 8,0 a 8,8 0 0 1 8,8 l 0,8 -8,0 0,-6 -8,0 0,20 8,0 0,-6 8,0 0,33.99999 -8,0 0,-5.99999 -8,0 0,19.99999 8,0 0,-6 8,0 0,8 a 8,8 0 0 1 -8,8 l -8,0 -60,0 -2,0 0,4 -16,0 0,-4 -2,0 -8,0 a 8,8 0 0 1 -8,-8 l 0,-8 0,-41.99999 0,-8 z" />
  <text
     y="41.999985"
     x="17.999996"
     style="font-size:20px;font-family:Sans;text-anchor:end;fill:#000000"
     id="text3196-5">
    <tspan
       id="tspan3198-01"
       y="90.999969"
       x="111.99996">tono</tspan>
  </text>
  <text
     y="43.999985"
     x="17.999996"
     style="font-size:13.33333302px;font-family:Sans;text-anchor:end;fill:#000000"
     id="text3200-4">
    <tspan
       id="tspan3202-55"
       y="66.499969"
       x="111.99996">nota</tspan>
  </text>
  <text
     y="45.999985"
     x="17.999996"
     style="font-size:13.33333302px;font-family:Sans;text-anchor:end;fill:#000000"
     id="text3204-8">
    <tspan
       id="tspan3206-1"
       y="110.49997"
       x="111.99996">octava</tspan>
  </text>
  <path
     d="m 133,42.99998 120,0 0,40 -120,0 0,-16 0,-2 -12,0 0,6 -4,0 0,-16 4,0 0,6 12,0 0,-2 z"
     id="path21-38"
     style="fill:#00b700;fill-opacity:1;stroke:#007b00;stroke-width:2;stroke-linecap:round;stroke-opacity:1" />
  <text
     y="41.999985"
     id="text23-65"
     style="font-size:20px;font-family:Sans;text-anchor:start;fill:#000000"
     x="165.99994">
    <tspan
       x="185.99994"
       y="67.999969"
       id="tspan25-85">re</tspan>
  </text>
  <g
     transform="translate(-320.31486,-53.1241)"
     id="g6656">
    <path
       d="m 453.31486,138.12408 120,0 0,40 -120,0 0,-16 0,-2 -12,0 0,6 -4,0 0,-16 4,0 0,6 12,0 0,-2 z"
       id="path21-6-0"
       style="fill:#ff00ff;fill-opacity:1;stroke:#c700d3;stroke-width:2;stroke-linecap:round;stroke-opacity:1" />
    <text
       id="text23-9-3"
       style="font-size:20px;font-family:Sans;text-anchor:start;fill:#000000"
       x="488.31485"
       y="137.12408">
      <tspan
         x="508.31485"
         y="163.12408"
         id="tspan25-8-27">4</tspan>
    </text>
  </g>
  <path
     d="m 133,238.99998 120,0 0,40 -120,0 0,-16 0,-2 -12,0 0,6 -4,0 0,-16 4,0 0,6 12,0 0,-2 z"
     id="path21-2-3"
     style="fill:#00b700;fill-opacity:1;stroke:#007b00;stroke-width:2;stroke-linecap:round;stroke-opacity:1" />
  <text
     y="238"
     id="text23-0-6"
     style="font-size:20px;font-family:Sans;text-anchor:start;fill:#000000"
     x="165.99994">
    <tspan
       x="185.99994"
       y="264"
       id="tspan25-7-2">mi</tspan>
  </text>
  <path
     d="m 133,432.99997 120,0 0,40 -120,0 0,-16 0,-2 -12,0 0,6 -4,0 0,-16 4,0 0,6 12,0 0,-2 z"
     id="path21-3-2"
     style="fill:#00b700;fill-opacity:1;stroke:#007b00;stroke-width:2;stroke-linecap:round;stroke-opacity:1" />
  <text
     y="432.00003"
     id="text23-6-7"
     style="font-size:20px;font-family:Sans;text-anchor:start;fill:#000000"
     x="165.99994">
    <tspan
       x="185.99994"
       y="458.00003"
       id="tspan25-9-2">sol</tspan>
  </text>
  <path
     style="fill:#ff00ff;fill-opacity:1;stroke:#c700d3;stroke-width:2;stroke-linecap:round;stroke-opacity:1"
     id="path21-6-7-2"
     d="m 133,280.99998 120,0 0,40 -120,0 0,-16 0,-2 -12,0 0,6 -4,0 0,-16 4,0 0,6 12,0 0,-2 z" />
  <text
     y="280"
     x="167.99994"
     style="font-size:20px;font-family:Sans;text-anchor:start;fill:#000000"
     id="text23-9-8-9">
    <tspan
       id="tspan25-8-2-4"
       y="306"
       x="187.99994">4</tspan>
  </text>
  <path
     style="fill:#ff00ff;fill-opacity:1;stroke:#c700d3;stroke-width:2;stroke-linecap:round;stroke-opacity:1"
     id="path21-6-72-1"
     d="m 133,474.99998 120,0 0,40 -120,0 0,-16 0,-2 -12,0 0,6 -4,0 0,-16 4,0 0,6 12,0 0,-2 z" />
  <text
     y="474.00003"
     x="167.99994"
     style="font-size:20px;font-family:Sans;text-anchor:start;fill:#000000"
     id="text23-9-5-2">
    <tspan
       id="tspan25-8-7-3"
       y="500.00003"
       x="187.99994">4</tspan>
  </text>
  <path
     style="fill:#00b700;fill-opacity:1;stroke:#007b00;stroke-width:2;stroke-linecap:round;stroke-opacity:1"
     id="path3194-6-6"
     d="m 19,448.99997 0,-8 a 8,8 0 0 1 8,-8 l 8,0 0,4 20,0 0,-4 60,0 8,0 a 8,8 0 0 1 8,8 l 0,8 -8,0 0,-6 -8,0 0,20 8,0 0,-6 8,0 0,34 -8,0 0,-6 -8,0 0,20 8,0 0,-6 8,0 0,8 a 8,8 0 0 1 -8,8 l -8,0 -60,0 -2,0 0,4 -16,0 0,-4 -2,0 -8,0 a 8,8 0 0 1 -8,-8 l 0,-8 0,-42 0,-8 z" />
  <text
     y="432.00003"
     x="17.999996"
     style="font-size:20px;font-family:Sans;text-anchor:end;fill:#000000"
     id="text3196-0-8">
    <tspan
       id="tspan3198-1-9"
       y="481.00003"
       x="111.99996">tono</tspan>
  </text>
  <text
     y="434.00003"
     x="17.999996"
     style="font-size:13.33333302px;font-family:Sans;text-anchor:end;fill:#000000"
     id="text3200-46-5">
    <tspan
       id="tspan3202-3-0"
       y="456.50003"
       x="111.99996">nota</tspan>
  </text>
  <text
     y="436.00003"
     x="17.999996"
     style="font-size:13.33333302px;font-family:Sans;text-anchor:end;fill:#000000"
     id="text3204-4-2">
    <tspan
       id="tspan3206-6-2"
       y="500.50003"
       x="111.99996">octava</tspan>
  </text>
  <path
     style="fill:#00b700;fill-opacity:1;stroke:#007b00;stroke-width:2;stroke-linecap:round;stroke-opacity:1"
     id="path3194-3-8"
     d="m 19,254.99998 0,-8 a 8,8 0 0 1 8,-8 l 8,0 0,4 20,0 0,-4 60,0 8,0 a 8,8 0 0 1 8,8 l 0,8 -8,0 0,-6 -8,0 0,20 8,0 0,-6 8,0 0,34 -8,0 0,-6 -8,0 0,20 8,0 0,-6 8,0 0,8 a 8,8 0 0 1 -8,8 l -8,0 -60,0 -2,0 0,4 -16,0 0,-4 -2,0 -8,0 a 8,8 0 0 1 -8,-8 l 0,-8 0,-42 0,-8 z" />
  <text
     y="238"
     x="17.999996"
     style="font-size:20px;font-family:Sans;text-anchor:end;fill:#000000"
     id="text3196-7-6">
    <tspan
       id="tspan3198-0-1"
       y="287"
       x="111.99996">tono</tspan>
  </text>
  <text
     y="240"
     x="17.999996"
     style="font-size:13.33333302px;font-family:Sans;text-anchor:end;fill:#000000"
     id="text3200-6-0">
    <tspan
       id="tspan3202-5-0"
       y="262.5"
       x="111.99996">nota</tspan>
  </text>
  <text
     y="242"
     x="17.999996"
     style="font-size:13.33333302px;font-family:Sans;text-anchor:end;fill:#000000"
     id="text3204-9-5">
    <tspan
       id="tspan3206-0-8"
       y="306.5"
       x="111.99996">octava</tspan>
  </text>
  <path
     style="fill:#fd6600;fill-opacity:1;stroke:#ac3d00;stroke-width:2;stroke-linecap:round;stroke-opacity:1"
     id="path3035-4"
     d="M 1,17 1,9 C 1,4.58172 4.58172,1 9,1 l 8,0 0,4 20,0 0,-4 18,0 122,0 8,0 c 4.41828,0 6.92841,3.71364 8,8 l 0,8 -8,0 0,-6 -8,0 0,20 8,0 0,-6 8,0 0,8 c 0,4.41828 -3.58172,8 -8,8 l -8,0 -122,0 -2,0 0,4.00001 -16,0 L 37,41 l -2,0 -8,0 c -5.52285,0 -10,4.47716 -10,9.99999 l 0,8 0,50 0,7.99999 c 0,5.52285 4.64205,11.3395 10,10 l 8,0 0,4 20,0 0,-4 16,0 0,12 0,12.00001 0,8 c 0,4.41828 -3.71364,9.0716 -8,8 l -8,0 -18,0 -2,0 0,4 -16,0 0,-4 -2,0 -8,0 c -4.41828,0 -8,-3.58172 -8,-8 l 0,-8 z" />
  <text
     x="-2.0000043"
     y="-1.9999863"
     style="font-size:20px;font-family:Sans;text-anchor:start;fill:#000000"
     id="text3037-9">
    <tspan
       id="tspan3039-9"
       y="28.500013"
       x="5.9999957">valor de la nota</tspan>
  </text>
  <path
     style="fill:#ff00ff;fill-opacity:1;stroke:#c700d3;stroke-width:2;stroke-linecap:round;stroke-opacity:1"
     id="path21-6-1-1"
     d="m 195,1 120,0 0,40 -120,0 0,-16 0,-2 -12,0 0,6 -4,0 0,-16 4,0 0,6 12,0 0,-2 z" />
  <text
     y="1.3764648e-05"
     x="229.99994"
     style="font-size:20px;font-family:Sans;text-anchor:start;fill:#000000"
     id="text23-9-82-4">
    <tspan
       id="tspan25-8-5-6"
       y="26.000013"
       x="249.99994">8</tspan>
  </text>
  <path
     style="fill:#fd6600;fill-opacity:1;stroke:#ac3d00;stroke-width:2;stroke-linecap:round;stroke-opacity:1"
     id="path3035-3-6"
     d="m 1,406.99998 0,-8 c 0,-4.41827 3.58173,-8 8,-8 l 8,0 0,4 20,0 0,-4 18,0 122,0 8,0 c 4.41828,0 8.00001,3.58173 8.00001,8 l 0,8 -8.00001,0 0,-6 -8,0 0,20 8,0 0,-6 8.00001,0 0,8 c 0,4.41828 -3.58173,8 -8.00001,8 l -8,0 -122,0 -2,0 0,4 -16,0 0,-4 -2,0 -8,0 c -5.52284,0 -10,4.47716 -10,10 l 0,8 0,50.00001 0,7.99999 c 0,5.52285 4.64206,11.3395 10,10 l 8,0 0,4 20,0 0,-4 16,0 0,12 0,12 0,8 c 0,4.41828 -3.71364,9.0716 -8,8 l -8,0 -18,0 -2,0 0,4 -16,0 0,-4 -2,0 -8,0 c -4.41827,0 -8,-3.58172 -8,-8 l 0,-8 z" />
  <text
     x="-2.0000043"
     y="388.00003"
     style="font-size:20px;font-family:Sans;text-anchor:start;fill:#000000"
     id="text3037-5-0">
    <tspan
       id="tspan3039-8-4"
       y="418.50003"
       x="5.9999957">valor de la nota</tspan>
  </text>
  <g
     transform="translate(-258.31486,0.8759)"
     id="g6666">
    <path
       d="m 453.31487,390.1241 119.99999,0 0,40 -119.99999,0 0,-16 0,-2 -12.00001,0 0,6 -4,0 0,-16 4,0 0,6 12.00001,0 0,-2 z"
       id="path21-6-1-2-1"
       style="fill:#ff00ff;fill-opacity:1;stroke:#c700d3;stroke-width:2;stroke-linecap:round;stroke-opacity:1" />
    <text
       id="text23-9-82-1-8"
       style="font-size:20px;font-family:Sans;text-anchor:start;fill:#000000"
       x="488.31485"
       y="389.12408">
      <tspan
         x="508.31485"
         y="415.12408"
         id="tspan25-8-5-3-5">2</tspan>
    </text>
  </g>
  <path
     style="fill:#fd6600;fill-opacity:1;stroke:#ac3d00;stroke-width:2;stroke-linecap:round;stroke-opacity:1"
     id="path3035-8-1"
     d="m 1,212.99999 0,-8 c 0,-4.41827 3.58172,-8 8,-8 l 8,0 0,4 20,0 0,-4 18,0 122,0 8,0 c 4.41828,0 9.07159,3.71365 8,8 l 0,8 -8,0 0,-6 -8,0 0,20 8,0 0,-6 8,0 0,8 c 0,4.41828 -3.58172,8 -8,8 l -8,0 -122,0 -2,0 0,4 -16,0 0,-4 -2,0 -8,0 c -5.52284,0 -10,4.47716 -10,10 l 0,8 0,50.00001 0,7.99999 c 0,5.52285 4.64205,11.3395 10,10 l 8,0 0,4 20,0 0,-4 16,0 0,12 0,12 0,8 c 0,4.41828 -3.71364,9.0716 -8,8 l -8,0 -18,0 -2,0 0,4 -16,0 0,-4 -2,0 -8,0 c -4.41828,0 -8,-3.58172 -8,-8 l 0,-8 z" />
  <text
     x="-2.0000043"
     y="194"
     style="font-size:20px;font-family:Sans;text-anchor:start;fill:#000000"
     id="text3037-0-1">
    <tspan
       id="tspan3039-6-1"
       y="224.5"
       x="5.9999957">valor de la nota</tspan>
  </text>
  <g
     transform="translate(-258.31486,-25.1241)"
     id="g6661">
    <path
       d="m 453.31486,222.12411 120,0 0,40 -120,0 0,-16 0,-2 -12,0 0,6 -4,0 0,-16 4,0 0,6 12,0 0,-2 z"
       id="path21-6-1-0-1"
       style="fill:#ff00ff;fill-opacity:1;stroke:#c700d3;stroke-width:2;stroke-linecap:round;stroke-opacity:1" />
    <text
       id="text23-9-82-5-8"
       style="font-size:20px;font-family:Sans;text-anchor:start;fill:#000000"
       x="488.31485"
       y="223.1241">
      <tspan
         x="508.31485"
         y="249.1241"
         id="tspan25-8-5-1-3">16</tspan>
    </text>
  </g>
</svg>
