<svg xmlns="http://www.w3.org/2000/svg" width="165" height="97.5"><g transform="translate(0, 0)"><g transform="scale(1.5, 1.5)"><path d="m0.5 8.5 L 0.5 4.5 A 4 4 90 0 1 4.5 0.5 L 8.5 0.5 L 8.5 2.5 L 18.5 2.5 L 18.5 0.5 L 101.5 0.5 L 105.5 0.5 A 4 4 90 0 1 109.5 4.5 L 109.5 8.5 L 105.5 8.5 L 105.5 5.5 L 101.5 5.5 L 101.5 15.5 L 105.5 15.5 L 105.5 12.5 L 109.5 12.5 L 109.5 29.5 L 105.5 29.5 L 105.5 26.5 L 101.5 26.5 L 101.5 36.5 L 105.5 36.5 L 105.5 33.5 L 109.5 33.5 L 109.5 50.5 L 105.5 50.5 L 105.5 47.5 L 101.5 47.5 L 101.5 57.5 L 105.5 57.5 L 105.5 54.5 L 109.5 54.5 L 109.5 58.5 A 4 4 90 0 1 105.5 62.5 L 101.5 62.5 L 18.5 62.5 L 17.5 62.5 L 17.5 64.5 L 9.5 64.5 L 9.5 62.5 L 8.5 62.5 L 4.5 62.5 A 4 4 90 0 1 0.5 58.5 L 0.5 54.5 L 0.5 12.5 L 0.5 8.5 z" style="fill:#C4C4C4;fill-opacity:1;stroke:#A0A0A0;stroke-width:1;stroke-linecap:round;stroke-opacity:1;" /><text style="font-size:10px;fill:#282828;font-family:sans-serif;text-anchor:end"><tspan x="99" y="21">ブロックを つなぐ</tspan></text><text style="font-size:6.666666666666667px;fill:#282828;font-family:sans-serif;text-anchor:end"><tspan x="99" y="12">もくひょうの ブロック</tspan></text><text style="font-size:6.666666666666667px;fill:#282828;font-family:sans-serif;text-anchor:end"><tspan x="99" y="33">接続のばんごう</tspan></text><text style="font-size:6.666666666666667px;fill:#282828;font-family:sans-serif;text-anchor:end"><tspan x="99" y="54">ブロックの ばんごう</tspan></text></g></g></svg>