<svg xmlns="http://www.w3.org/2000/svg" width="350.2750015258789" height="112.5"><g transform="translate(0, 0)"><g transform="scale(1.5, 1.5)"><path d="m0.5 14.5 L 0.5 10.5 A 4 4 90 0 1 4.5 6.5 L 8.5 6.5 L 13.5 0.5 L 18.5 6.5 L 27.5 6.5 L 127.5 6.5 L 131.5 6.5 A 4 4 90 0 1 135.5 10.5 L 135.5 14.5 L 135.5 18.5 L 135.5 22.5 A 4 4 90 0 1 131.5 26.5 L 127.5 26.5 L 27.5 26.5 L 26.5 26.5 L 26.5 28.5 L 18.5 28.5 L 18.5 26.5 L 17.5 26.5 L 13.5 26.5 A 5 5 90 0 0 8.5 31.5 L 8.5 35.5 L 8.5 39.5 L 8.5 43.5 A 5 5 90 0 0 13.5 48.5 L 17.5 48.5 L 17.5 50.5 L 27.5 50.5 L 27.5 48.5 L 35.5 48.5 L 35.5 54.5 L 35.5 60.5 L 35.5 64.5 A 4 4 90 0 1 31.5 68.5 L 27.5 68.5 L 18.5 68.5 L 13.5 74.5 L 8.5 68.5 L 4.5 68.5 A 4 4 90 0 1 0.5 64.5 L 0.5 60.5 z" style="fill:#7CD622;fill-opacity:1;stroke:#57AD02;stroke-width:1;stroke-linecap:round;stroke-opacity:1;" /><text style="font-size:10px;fill:#282828;font-family:sans-serif;text-anchor:start"><tspan x="20" y="22">オシロスコープ</tspan></text></g></g><g transform="translate(14, 41)"><g transform="scale(1.5, 1.5)"><path d="m0.5 8.5 L 0.5 4.5 A 4 4 90 0 1 4.5 0.5 L 8.5 0.5 L 8.5 2.5 L 18.5 2.5 L 18.5 0.5 L 101.68333435058594 0.5 L 105.68333435058594 0.5 A 4 4 90 0 1 109.68333435058594 4.5 L 109.68333435058594 8.5 L 105.68333435058594 8.5 L 105.68333435058594 5.5 L 101.68333435058594 5.5 L 101.68333435058594 15.5 L 105.68333435058594 15.5 L 105.68333435058594 12.5 L 109.68333435058594 12.5 L 109.68333435058594 16.5 A 4 4 90 0 1 105.68333435058594 20.5 L 101.68333435058594 20.5 L 18.5 20.5 L 17.5 20.5 L 17.5 22.5 L 9.5 22.5 L 9.5 20.5 L 8.5 20.5 L 4.5 20.5 A 4 4 90 0 1 0.5 16.5 L 0.5 12.5 L 0.5 8.5 z" style="fill:#FF664B;fill-opacity:1;stroke:#EA4326;stroke-width:1;stroke-linecap:round;stroke-opacity:1;" /><text style="font-size:10px;fill:#282828;font-family:sans-serif;text-anchor:end"><tspan x="100" y="14">けっかを ひょうじ</tspan></text><text style="font-size:6.666666666666667px;fill:#282828;font-family:sans-serif;text-anchor:end"><tspan x="100" y="12"></tspan></text></g></g><g transform="translate(167, 41)"><g transform="scale(1.5, 1.5)"><path d="m8.5 0.5 L 121.68333435058594 0.5 L 121.68333435058594 20.5 L 8.5 20.5 L 8.5 12.5 L 8.5 11.5 L 2.5 11.5 L 2.5 14.5 L 0.5 14.5 L 0.5 6.5 L 2.5 6.5 L 2.5 9.5 L 8.5 9.5 L 8.5 8.5 z" style="fill:#FF664B;fill-opacity:1;stroke:#EA4326;stroke-width:1;stroke-linecap:round;stroke-opacity:1;" /><text style="font-size:10px;fill:#282828;font-family:sans-serif;text-anchor:start"><tspan x="13" y="14">スタート</tspan></text></g></g></svg>