<?xml version="1.0" encoding="UTF-8" standalone="no"?>
<svg
   width="578.27502"
   height="129"
   version="1.1"
   id="svg102"
   sodipodi:docname="setscalartransposition_block.svg"
   inkscape:version="1.2.2 (b0a8486541, 2022-12-01)"
   xmlns:inkscape="http://www.inkscape.org/namespaces/inkscape"
   xmlns:sodipodi="http://sodipodi.sourceforge.net/DTD/sodipodi-0.dtd"
   xmlns="http://www.w3.org/2000/svg"
   xmlns:svg="http://www.w3.org/2000/svg">
  <defs
     id="defs106" />
  <sodipodi:namedview
     id="namedview104"
     pagecolor="#ffffff"
     bordercolor="#666666"
     borderopacity="1.0"
     inkscape:showpageshadow="2"
     inkscape:pageopacity="0.0"
     inkscape:pagecheckerboard="0"
     inkscape:deskcolor="#d1d1d1"
     showgrid="false"
     inkscape:zoom="0.90166813"
     inkscape:cx="-173.01266"
     inkscape:cy="-441.40409"
     inkscape:window-width="2560"
     inkscape:window-height="1371"
     inkscape:window-x="0"
     inkscape:window-y="32"
     inkscape:window-maximized="1"
     inkscape:current-layer="svg102" />
  <g
     id="g14">
    <g
       transform="scale(1.5)"
       id="g12">
      <path
         d="m 0.5,8.5 v -4 a 4,4 90 0 1 4,-4 h 4 v 2 h 10 v -2 h 9 110.91666 4 a 4,4 90 0 1 4,4 v 4 h -4 v -3 h -4 v 10 h 4 v -3 h 4 v 4 a 4,4 90 0 1 -4,4 h -4 H 27.5 h -1 v 2 h -8 v -2 h -1 -4 a 5,5 90 0 0 -5,5 v 4 4 21 4 a 5,5 90 0 0 5,5 h 4 v 2 h 10 v -2 h 8 v 6 6 4 a 4,4 90 0 1 -4,4 h -4 -9 -1 v 2 h -8 v -2 h -1 -4 a 4,4 90 0 1 -4,-4 v -4 z"
         style="fill:#7cd622;fill-opacity:1;stroke:#57ad02;stroke-width:1;stroke-linecap:round;stroke-opacity:1"
         id="path2" />
      <text
         style="font-size:10px;font-family:sans-serif;text-anchor:start;fill:#282828"
         id="text6"><tspan
           x="5"
           y="15"
           id="tspan4">ちょうを かえる (+/–)</tspan></text>
      <text
         style="font-size:6.66667px;font-family:sans-serif;text-anchor:end;fill:#282828"
         id="text10"><tspan
           x="136"
           y="12"
           id="tspan8" /></text>
    </g>
  </g>
  <g
     transform="translate(208)"
     id="g32">
    <g
       transform="scale(1.5)"
       id="g30">
      <path
         d="m 8.5,8.5 v -4 a 4,4 90 0 1 4,-4 h 4 10 30 4 a 4,4 90 0 1 4,4 v 4 h -4 v -3 h -4 v 10 h 4 v -3 h 4 v 17 h -4 v -3 h -4 v 10 h 4 v -3 h 4 v 4 a 4,4 90 0 1 -4,4 h -4 -30 -10 -4 a 4,4 90 0 1 -4,-4 v -4 -21 -1 h -6 v 3 h -2 v -8 h 2 v 3 h 6 z"
         style="fill:#ff6ea1;fill-opacity:1;stroke:#ff2c76;stroke-width:1;stroke-linecap:round;stroke-opacity:1"
         id="path16" />
      <text
         style="font-size:14px;font-family:sans-serif;text-anchor:end;fill:#282828"
         id="text20"><tspan
           x="54"
           y="24"
           id="tspan18">+</tspan></text>
      <text
         style="font-size:9.33333px;font-family:sans-serif;text-anchor:end;fill:#282828"
         id="text24"><tspan
           x="54"
           y="12"
           id="tspan22" /></text>
      <text
         style="font-size:9.33333px;font-family:sans-serif;text-anchor:end;fill:#282828"
         id="text28"><tspan
           x="54"
           y="33"
           id="tspan26" /></text>
    </g>
  </g>
  <g
     transform="translate(294)"
     id="g42">
    <g
       transform="scale(1.5)"
       id="g40">
      <path
         d="m 8.5,0.5 h 60 v 20 h -60 v -8 -1 h -6 v 3 h -2 v -8 h 2 v 3 h 6 v -1 z"
         style="fill:#ff6ea1;fill-opacity:1;stroke:#ff2c76;stroke-width:1;stroke-linecap:round;stroke-opacity:1"
         id="path34" />
      <text
         style="font-size:10px;font-family:sans-serif;text-anchor:start;fill:#282828"
         id="text38"><tspan
           x="13"
           y="14"
           id="tspan36">5</tspan></text>
    </g>
  </g>
  <g
     transform="translate(294,32)"
     id="g60">
    <g
       transform="scale(1.5)"
       id="g58">
      <path
         d="m 8.5,8.5 v -4 a 4,4 90 0 1 4,-4 h 4 10 30 4 a 4,4 90 0 1 4,4 v 4 h -4 v -3 h -4 v 10 h 4 v -3 h 4 v 17 h -4 v -3 h -4 v 10 h 4 v -3 h 4 v 4 a 4,4 90 0 1 -4,4 h -4 -30 -10 -4 a 4,4 90 0 1 -4,-4 v -4 -21 -1 h -6 v 3 h -2 v -8 h 2 v 3 h 6 z"
         style="fill:#ff6ea1;fill-opacity:1;stroke:#ff2c76;stroke-width:1;stroke-linecap:round;stroke-opacity:1"
         id="path44" />
      <text
         style="font-size:14px;font-family:sans-serif;text-anchor:end;fill:#282828"
         id="text48"><tspan
           x="54"
           y="24"
           id="tspan46">×</tspan></text>
      <text
         style="font-size:9.33333px;font-family:sans-serif;text-anchor:end;fill:#282828"
         id="text52"><tspan
           x="54"
           y="12"
           id="tspan50" /></text>
      <text
         style="font-size:9.33333px;font-family:sans-serif;text-anchor:end;fill:#282828"
         id="text56"><tspan
           x="54"
           y="33"
           id="tspan54" /></text>
    </g>
  </g>
  <g
     transform="translate(380,32)"
     id="g70">
    <g
       transform="scale(1.5)"
       id="g68">
      <path
         d="m 8.5,0.5 h 60 v 20 h -60 v -8 -1 h -6 v 3 h -2 v -8 h 2 v 3 h 6 v -1 z"
         style="fill:#ff6ea1;fill-opacity:1;stroke:#ff2c76;stroke-width:1;stroke-linecap:round;stroke-opacity:1"
         id="path62" />
      <text
         style="font-size:10px;font-family:sans-serif;text-anchor:start;fill:#282828"
         id="text66"><tspan
           x="13"
           y="14"
           id="tspan64">0</tspan></text>
    </g>
  </g>
  <g
     transform="translate(380,64)"
     id="g80">
    <g
       transform="scale(1.5)"
       id="g78">
      <path
         d="m 8.5,0.5 h 123.18333 v 20 H 8.5 v -8 -1 h -6 v 3 h -2 v -8 h 2 v 3 h 6 v -1 z"
         style="fill:#7cd622;fill-opacity:1;stroke:#57ad02;stroke-width:1;stroke-linecap:round;stroke-opacity:1"
         id="path72" />
      <text
         style="font-size:10px;font-family:sans-serif;text-anchor:start;fill:#282828"
         id="text76"><tspan
           x="13"
           y="14"
           id="tspan74">おんかいの おんすう</tspan></text>
    </g>
  </g>
  <g
     transform="translate(14,32)"
     id="g90">
    <g
       transform="scale(1.5)"
       id="g88">
      <path
         d="m 0.5,8.5 v -4 a 4,4 90 0 1 4,-4 h 4 v 2 h 10 v -2 h 20 4 a 4,4 90 0 1 4,4 v 4 4 4 a 4,4 90 0 1 -4,4 h -4 -20 -1 v 2 h -8 v -2 h -1 -4 a 4,4 90 0 1 -4,-4 v -4 z"
         style="fill:#c4c4c4;fill-opacity:1;stroke:#a0a0a0;stroke-width:1;stroke-linecap:round;stroke-opacity:1"
         id="path82" />
      <text
         style="font-size:10px;font-family:sans-serif;text-anchor:end;fill:#282828"
         id="text86"><tspan
           x="36"
           y="14"
           id="tspan84">↓</tspan></text>
    </g>
  </g>
  <g
     transform="translate(14,64)"
     id="g100">
    <g
       transform="scale(1.5)"
       id="g98">
      <path
         d="m 0.5,8.5 v -4 a 4,4 90 0 1 4,-4 h 4 v 2 h 10 v -2 h 20 4 a 4,4 90 0 1 4,4 v 4 4 4 a 4,4 90 0 1 -4,4 h -4 -20 -1 v 2 h -8 v -2 h -1 -4 a 4,4 90 0 1 -4,-4 v -4 z"
         style="fill:#c4c4c4;fill-opacity:1;stroke:#a0a0a0;stroke-width:1;stroke-linecap:round;stroke-opacity:1"
         id="path92" />
      <text
         style="font-size:10px;font-family:sans-serif;text-anchor:end;fill:#282828"
         id="text96"><tspan
           x="36"
           y="14"
           id="tspan94">↓</tspan></text>
    </g>
  </g>
</svg>
