<svg width="55.000001" height="55.000001" xmlns="http://www.w3.org/2000/svg">

 <metadata id="metadata7">image/svg+xml</metadata>
 <g>
  <title>background</title>
  <rect fill="none" id="canvas_background" height="402" width="582" y="-1" x="-1"/>
 </g>
 <g>
  <title>Layer 1</title>
  <g id="layer1">
   <path fill="#000000" id="path4214" d="m23.766615,3.567021c-11.002951,0 -19.93288,8.930108 -19.93288,19.932983c0,11.002991 8.92993,19.932861 19.93288,19.932861c11.002951,0 19.932882,-8.929871 19.932882,-19.932861c0,-11.002875 -8.929932,-19.932983 -19.932882,-19.932983zm-1.99329,35.739723c-7.873482,-0.976681 -13.953011,-7.674141 -13.953011,-15.80674c0,-1.23579 0.15946,-2.411934 0.418591,-3.567963l9.54785,9.547913l0,1.99324c0,2.192646 1.793961,3.986477 3.98657,3.986477l0,3.847073zm13.753691,-5.06292c-0.51825,-1.614544 -1.99329,-2.77063 -3.787251,-2.77063l-1.993279,0l0,-5.979836c0,-1.096439 -0.896982,-1.993355 -1.99329,-1.993355l-11.959732,0l0,-3.986599l3.98658,0c1.09631,0 1.99328,-0.896915 1.99328,-1.993298l0,-3.986478l3.98658,0c2.192621,0 3.986582,-1.794008 3.986582,-3.986714l0,-0.817154c5.840328,2.372054 9.966438,8.092779 9.966438,14.770243c0,4.146004 -1.594627,7.913311 -4.185909,10.74382z"/>
  </g>
  <polyline fill="none" points="11.386,18.559 20.773,18.559 20.773,9.173    " id="polyline3009"/>
  <line fill="none" stroke="#000000" stroke-width="2.9867" stroke-linecap="round" stroke-linejoin="round" x1="44.994993" x2="44.994993" y1="50.749995" y2="38.833995" id="line3011"/>
  <polyline transform="rotate(180, 44.995, 39.2853)" fill="none" stroke="#000000" stroke-width="2.9867" stroke-linecap="round" stroke-linejoin="round" points="50.1249942779541,36.243345975875854 44.99499320983887,42.32734560966492 39.8649959564209,36.243345975875854 " id="polyline3013"/>
 </g>
</svg>