<?xml version="1.0" encoding="UTF-8" standalone="no"?>
<svg
   xmlns:dc="http://purl.org/dc/elements/1.1/"
   xmlns:cc="http://creativecommons.org/ns#"
   xmlns:rdf="http://www.w3.org/1999/02/22-rdf-syntax-ns#"
   xmlns:svg="http://www.w3.org/2000/svg"
   xmlns="http://www.w3.org/2000/svg"
   xmlns:sodipodi="http://sodipodi.sourceforge.net/DTD/sodipodi-0.dtd"
   xmlns:inkscape="http://www.inkscape.org/namespaces/inkscape"
   width="437.40088"
   height="412.5"
   version="1.1"
   id="svg4307"
   sodipodi:docname="transform2.svg"
   inkscape:version="0.92.2 (5c3e80d, 2017-08-06)">
  <metadata
     id="metadata4313">
    <rdf:RDF>
      <cc:Work
         rdf:about="">
        <dc:format>image/svg+xml</dc:format>
        <dc:type
           rdf:resource="http://purl.org/dc/dcmitype/StillImage" />
        <dc:title></dc:title>
      </cc:Work>
    </rdf:RDF>
  </metadata>
  <defs
     id="defs4311" />
  <sodipodi:namedview
     pagecolor="#ffffff"
     bordercolor="#666666"
     borderopacity="1"
     objecttolerance="10"
     gridtolerance="10"
     guidetolerance="10"
     inkscape:pageopacity="0"
     inkscape:pageshadow="2"
     inkscape:window-width="1366"
     inkscape:window-height="705"
     id="namedview4309"
     showgrid="false"
     inkscape:zoom="1.2993939"
     inkscape:cx="218.70044"
     inkscape:cy="206.25"
     inkscape:window-x="-8"
     inkscape:window-y="274"
     inkscape:window-maximized="1"
     inkscape:current-layer="svg4307" />
  <g
     transform="translate(1065.5,380.5)"
     id="g4015">
    <g
       transform="scale(1.5)"
       id="g4013" />
  </g>
  <g
     id="g4029">
    <g
       transform="scale(1.5)"
       id="g4027">
      <path
         d="m 0.5,8.5 v -4 a 4,4 90 0 1 4,-4 h 4 v 2 h 10 v -2 h 9 80.60059 4 a 4,4 90 0 1 4,4 v 4 h -4 v -3 h -4 v 10 h 4 v -3 h 4 v 4 a 4,4 90 0 1 -4,4 h -4 H 27.5 h -1 v 2 h -8 v -2 h -1 -4 a 5,5 90 0 0 -5,5 v 4 4 210 4 a 5,5 90 0 0 5,5 h 4 v 2 h 10 v -2 h 8 v 6 6 4 a 4,4 90 0 1 -4,4 h -4 -9 -1 v 2 h -8 v -2 h -1 -4 a 4,4 90 0 1 -4,-4 v -4 z"
         style="fill:#93e042;fill-opacity:1;stroke:#004000;stroke-width:1;stroke-linecap:round;stroke-opacity:1"
         id="path4017"
         inkscape:connector-curvature="0" />
      <text
         style="font-size:10px;font-family:sans-serif;text-anchor:start;fill:#000000"
         id="text4021">
        <tspan
           x="5.3333335"
           y="15.25"
           id="tspan4019">半音で移調</tspan>
      </text>
      <text
         style="font-size:6.66666651px;font-family:sans-serif;text-anchor:end;fill:#000000"
         id="text4025">
        <tspan
           x="105.93392"
           y="11.25"
           id="tspan4023" />
      </text>
    </g>
  </g>
  <g
     transform="translate(162.90088)"
     id="g4047">
    <g
       transform="scale(1.5)"
       id="g4045">
      <path
         d="m 8.5,8.5 v -4 a 4,4 90 0 1 4,-4 h 4 10 30 4 a 4,4 90 0 1 4,4 v 4 h -4 v -3 h -4 v 10 h 4 v -3 h 4 v 17 h -4 v -3 h -4 v 10 h 4 v -3 h 4 v 4 a 4,4 90 0 1 -4,4 h -4 -30 -10 -4 a 4,4 90 0 1 -4,-4 v -4 -21 -1 h -6 v 3 h -2 v -8 h 2 v 3 h 6 z"
         style="fill:#ffb2bc;fill-opacity:1;stroke:#601136;stroke-width:1;stroke-linecap:round;stroke-opacity:1"
         id="path4031"
         inkscape:connector-curvature="0" />
      <text
         style="font-size:14px;font-family:sans-serif;text-anchor:end;fill:#000000"
         id="text4035">
        <tspan
           x="54.333332"
           y="23.799999"
           id="tspan4033">+</tspan>
      </text>
      <text
         style="font-size:9.33333302px;font-family:sans-serif;text-anchor:end;fill:#000000"
         id="text4039">
        <tspan
           x="54.333332"
           y="10.75"
           id="tspan4037" />
      </text>
      <text
         style="font-size:9.33333302px;font-family:sans-serif;text-anchor:end;fill:#000000"
         id="text4043">
        <tspan
           x="54.333332"
           y="31.75"
           id="tspan4041" />
      </text>
    </g>
  </g>
  <g
     transform="translate(248.40088)"
     id="g4057">
    <g
       transform="scale(1.5)"
       id="g4055">
      <path
         d="m 8.5,0.5 h 60 v 20 h -60 v -8 -1 h -6 v 3 h -2 v -8 h 2 v 3 h 6 v -1 z"
         style="fill:#ffb2bc;fill-opacity:1;stroke:#601136;stroke-width:1;stroke-linecap:round;stroke-opacity:1"
         id="path4049"
         inkscape:connector-curvature="0" />
      <text
         style="font-size:10px;font-family:sans-serif;text-anchor:start;fill:#000000"
         id="text4053">
        <tspan
           x="13.333333"
           y="13.833333"
           id="tspan4051">0</tspan>
      </text>
    </g>
  </g>
  <g
     transform="translate(248.40088,31.5)"
     id="g4075">
    <g
       transform="scale(1.5)"
       id="g4073">
      <path
         d="m 8.5,8.5 v -4 a 4,4 90 0 1 4,-4 h 4 10 30 4 a 4,4 90 0 1 4,4 v 4 h -4 v -3 h -4 v 10 h 4 v -3 h 4 v 17 h -4 v -3 h -4 v 10 h 4 v -3 h 4 v 4 a 4,4 90 0 1 -4,4 h -4 -30 -10 -4 a 4,4 90 0 1 -4,-4 v -4 -21 -1 h -6 v 3 h -2 v -8 h 2 v 3 h 6 z"
         style="fill:#ffb2bc;fill-opacity:1;stroke:#601136;stroke-width:1;stroke-linecap:round;stroke-opacity:1"
         id="path4059"
         inkscape:connector-curvature="0" />
      <text
         style="font-size:14px;font-family:sans-serif;text-anchor:end;fill:#000000"
         id="text4063">
        <tspan
           x="54.333332"
           y="23.799999"
           id="tspan4061">×</tspan>
      </text>
      <text
         style="font-size:9.33333302px;font-family:sans-serif;text-anchor:end;fill:#000000"
         id="text4067">
        <tspan
           x="54.333332"
           y="10.75"
           id="tspan4065" />
      </text>
      <text
         style="font-size:9.33333302px;font-family:sans-serif;text-anchor:end;fill:#000000"
         id="text4071">
        <tspan
           x="54.333332"
           y="31.75"
           id="tspan4069" />
      </text>
    </g>
  </g>
  <g
     transform="translate(333.90088,31.5)"
     id="g4085">
    <g
       transform="scale(1.5)"
       id="g4083">
      <path
         d="m 8.5,0.5 h 60 v 20 h -60 v -8 -1 h -6 v 3 h -2 v -8 h 2 v 3 h 6 v -1 z"
         style="fill:#ffb2bc;fill-opacity:1;stroke:#601136;stroke-width:1;stroke-linecap:round;stroke-opacity:1"
         id="path4077"
         inkscape:connector-curvature="0" />
      <text
         style="font-size:10px;font-family:sans-serif;text-anchor:start;fill:#000000"
         id="text4081">
        <tspan
           x="13.333333"
           y="13.833333"
           id="tspan4079">1</tspan>
      </text>
    </g>
  </g>
  <g
     transform="translate(333.90088,63)"
     id="g4095">
    <g
       transform="scale(1.5)"
       id="g4093">
      <path
         d="m 8.5,0.5 h 60 v 20 h -60 v -8 -1 h -6 v 3 h -2 v -8 h 2 v 3 h 6 v -1 z"
         style="fill:#ffb2bc;fill-opacity:1;stroke:#601136;stroke-width:1;stroke-linecap:round;stroke-opacity:1"
         id="path4087"
         inkscape:connector-curvature="0" />
      <text
         style="font-size:10px;font-family:sans-serif;text-anchor:start;fill:#000000"
         id="text4091">
        <tspan
           x="13.333333"
           y="13.833333"
           id="tspan4089">12</tspan>
      </text>
    </g>
  </g>
  <g
     transform="translate(13.5,31.5)"
     id="g4105">
    <g
       transform="scale(1.5)"
       id="g4103">
      <path
         d="m 0.5,8.5 v -4 a 4,4 90 0 1 4,-4 h 4 v 2 h 10 v -2 h 20 4 a 4,4 90 0 1 4,4 v 4 4 4 a 4,4 90 0 1 -4,4 h -4 -20 -1 v 2 h -8 v -2 h -1 -4 a 4,4 90 0 1 -4,-4 v -4 z"
         style="fill:#d57e6f;fill-opacity:1;stroke:#000000;stroke-width:1;stroke-linecap:round;stroke-opacity:1"
         id="path4097"
         inkscape:connector-curvature="0" />
      <text
         style="font-size:10px;font-family:sans-serif;text-anchor:end;fill:#000000"
         id="text4101">
        <tspan
           x="36.333332"
           y="13.5"
           id="tspan4099">↓</tspan>
      </text>
    </g>
  </g>
  <g
     transform="translate(13.5,63)"
     id="g4119">
    <g
       transform="scale(1.5)"
       id="g4117">
      <path
         d="m 0.5,8.5 v -4 a 4,4 90 0 1 4,-4 h 4 v 2 h 10 v -2 h 9 36.147461 4 a 4,4 90 0 1 4,4 v 4 h -4 v -3 h -4 v 10 h 4 v -3 h 4 v 4 a 4,4 90 0 1 -4,4 h -4 H 27.5 h -1 v 2 h -8 v -2 h -1 -4 a 5,5 90 0 0 -5,5 v 4 4 42 4 a 5,5 90 0 0 5,5 h 4 v 2 h 10 v -2 h 8 v 6 6 4 a 4,4 90 0 1 -4,4 h -4 -9 -1 v 2 h -8 v -2 h -1 -4 a 4,4 90 0 1 -4,-4 v -4 z"
         style="fill:#ff8b2d;fill-opacity:1;stroke:#520000;stroke-width:1;stroke-linecap:round;stroke-opacity:1"
         id="path4107"
         inkscape:connector-curvature="0" />
      <text
         style="font-size:10px;font-family:sans-serif;text-anchor:start;fill:#000000"
         id="text4111">
        <tspan
           x="5.3333335"
           y="15.25"
           id="tspan4109">音価</tspan>
      </text>
      <text
         style="font-size:6.66666651px;font-family:sans-serif;text-anchor:end;fill:#000000"
         id="text4115">
        <tspan
           x="61.480793"
           y="11.25"
           id="tspan4113" />
      </text>
    </g>
  </g>
  <g
     transform="translate(109.72119,63)"
     id="g4137">
    <g
       transform="scale(1.5)"
       id="g4135">
      <path
         d="m 8.5,8.5 v -4 a 4,4 90 0 1 4,-4 h 4 10 30 4 a 4,4 90 0 1 4,4 v 4 h -4 v -3 h -4 v 10 h 4 v -3 h 4 v 17 h -4 v -3 h -4 v 10 h 4 v -3 h 4 v 4 a 4,4 90 0 1 -4,4 h -4 -30 -10 -4 a 4,4 90 0 1 -4,-4 v -4 -21 -1 h -6 v 3 h -2 v -8 h 2 v 3 h 6 z"
         style="fill:#ffb2bc;fill-opacity:1;stroke:#601136;stroke-width:1;stroke-linecap:round;stroke-opacity:1"
         id="path4121"
         inkscape:connector-curvature="0" />
      <text
         style="font-size:14px;font-family:sans-serif;text-anchor:end;fill:#000000"
         id="text4125">
        <tspan
           x="54.333332"
           y="23.799999"
           id="tspan4123">/</tspan>
      </text>
      <text
         style="font-size:9.33333302px;font-family:sans-serif;text-anchor:end;fill:#000000"
         id="text4129">
        <tspan
           x="54.333332"
           y="10.75"
           id="tspan4127" />
      </text>
      <text
         style="font-size:9.33333302px;font-family:sans-serif;text-anchor:end;fill:#000000"
         id="text4133">
        <tspan
           x="54.333332"
           y="31.75"
           id="tspan4131" />
      </text>
    </g>
  </g>
  <g
     transform="translate(195.22119,63)"
     id="g4147">
    <g
       transform="scale(1.5)"
       id="g4145">
      <path
         d="m 8.5,0.5 h 60 v 20 h -60 v -8 -1 h -6 v 3 h -2 v -8 h 2 v 3 h 6 v -1 z"
         style="fill:#ffb2bc;fill-opacity:1;stroke:#601136;stroke-width:1;stroke-linecap:round;stroke-opacity:1"
         id="path4139"
         inkscape:connector-curvature="0" />
      <text
         style="font-size:10px;font-family:sans-serif;text-anchor:start;fill:#000000"
         id="text4143">
        <tspan
           x="13.333333"
           y="13.833333"
           id="tspan4141">1</tspan>
      </text>
    </g>
  </g>
  <g
     transform="translate(195.22119,94.5)"
     id="g4157">
    <g
       transform="scale(1.5)"
       id="g4155">
      <path
         d="m 8.5,0.5 h 60 v 20 h -60 v -8 -1 h -6 v 3 h -2 v -8 h 2 v 3 h 6 v -1 z"
         style="fill:#ffb2bc;fill-opacity:1;stroke:#601136;stroke-width:1;stroke-linecap:round;stroke-opacity:1"
         id="path4149"
         inkscape:connector-curvature="0" />
      <text
         style="font-size:10px;font-family:sans-serif;text-anchor:start;fill:#000000"
         id="text4153">
        <tspan
           x="13.333333"
           y="13.833333"
           id="tspan4151">8</tspan>
      </text>
    </g>
  </g>
  <g
     transform="translate(27,94.5)"
     id="g4167">
    <g
       transform="scale(1.5)"
       id="g4165">
      <path
         d="m 0.5,8.5 v -4 a 4,4 90 0 1 4,-4 h 4 v 2 h 10 v -2 h 20 4 a 4,4 90 0 1 4,4 v 4 4 4 a 4,4 90 0 1 -4,4 h -4 -20 -1 v 2 h -8 v -2 h -1 -4 a 4,4 90 0 1 -4,-4 v -4 z"
         style="fill:#d57e6f;fill-opacity:1;stroke:#000000;stroke-width:1;stroke-linecap:round;stroke-opacity:1"
         id="path4159"
         inkscape:connector-curvature="0" />
      <text
         style="font-size:10px;font-family:sans-serif;text-anchor:end;fill:#000000"
         id="text4163">
        <tspan
           x="36.333332"
           y="13.5"
           id="tspan4161">↓</tspan>
      </text>
    </g>
  </g>
  <g
     transform="translate(27,126)"
     id="g4185">
    <g
       transform="scale(1.5)"
       id="g4183">
      <path
         d="m 0.5,8.5 v -4 a 4,4 90 0 1 4,-4 h 4 v 2 h 10 v -2 h 30 4 a 4,4 90 0 1 4,4 v 4 h -4 v -3 h -4 v 10 h 4 v -3 h 4 v 17 h -4 v -3 h -4 v 10 h 4 v -3 h 4 v 4 a 4,4 90 0 1 -4,4 h -4 -30 -1 v 2 h -8 v -2 h -1 -4 a 4,4 90 0 1 -4,-4 v -4 -21 z"
         style="fill:#93e042;fill-opacity:1;stroke:#004000;stroke-width:1;stroke-linecap:round;stroke-opacity:1"
         id="path4169"
         inkscape:connector-curvature="0" />
      <text
         style="font-size:10px;font-family:sans-serif;text-anchor:end;fill:#000000"
         id="text4173">
        <tspan
           x="46.333332"
           y="24"
           id="tspan4171">ピッチ</tspan>
      </text>
      <text
         style="font-size:6.66666651px;font-family:sans-serif;text-anchor:end;fill:#000000"
         id="text4177">
        <tspan
           x="46.333332"
           y="11.25"
           id="tspan4175">名前</tspan>
      </text>
      <text
         style="font-size:6.66666651px;font-family:sans-serif;text-anchor:end;fill:#000000"
         id="text4181">
        <tspan
           x="46.333332"
           y="32.25"
           id="tspan4179">オクターヴ</tspan>
      </text>
    </g>
  </g>
  <g
     transform="translate(100.5,126)"
     id="g4195">
    <g
       transform="scale(1.5)"
       id="g4193">
      <path
         d="m 8.5,0.5 h 60 v 20 h -60 v -8 -1 h -6 v 3 h -2 v -8 h 2 v 3 h 6 v -1 z"
         style="fill:#93e042;fill-opacity:1;stroke:#004000;stroke-width:1;stroke-linecap:round;stroke-opacity:1"
         id="path4187"
         inkscape:connector-curvature="0" />
      <text
         style="font-size:10px;font-family:sans-serif;text-anchor:start;fill:#000000"
         id="text4191">
        <tspan
           x="13.333333"
           y="13.833333"
           id="tspan4189">レ</tspan>
      </text>
    </g>
  </g>
  <g
     transform="translate(100.5,157.5)"
     id="g4205">
    <g
       transform="scale(1.5)"
       id="g4203">
      <path
         d="m 8.5,0.5 h 60 v 20 h -60 v -8 -1 h -6 v 3 h -2 v -8 h 2 v 3 h 6 v -1 z"
         style="fill:#ffb2bc;fill-opacity:1;stroke:#601136;stroke-width:1;stroke-linecap:round;stroke-opacity:1"
         id="path4197"
         inkscape:connector-curvature="0" />
      <text
         style="font-size:10px;font-family:sans-serif;text-anchor:start;fill:#000000"
         id="text4201">
        <tspan
           x="13.333333"
           y="13.833333"
           id="tspan4199">5</tspan>
      </text>
    </g>
  </g>
  <g
     transform="translate(13.5,220.5)"
     id="g4219">
    <g
       transform="scale(1.5)"
       id="g4217">
      <path
         d="m 0.5,8.5 v -4 a 4,4 90 0 1 4,-4 h 4 v 2 h 10 v -2 h 9 36.147461 4 a 4,4 90 0 1 4,4 v 4 h -4 v -3 h -4 v 10 h 4 v -3 h 4 v 4 a 4,4 90 0 1 -4,4 h -4 H 27.5 h -1 v 2 h -8 v -2 h -1 -4 a 5,5 90 0 0 -5,5 v 4 4 42 4 a 5,5 90 0 0 5,5 h 4 v 2 h 10 v -2 h 8 v 6 6 4 a 4,4 90 0 1 -4,4 h -4 -9 -1 v 2 h -8 v -2 h -1 -4 a 4,4 90 0 1 -4,-4 v -4 z"
         style="fill:#ff8b2d;fill-opacity:1;stroke:#520000;stroke-width:1;stroke-linecap:round;stroke-opacity:1"
         id="path4207"
         inkscape:connector-curvature="0" />
      <text
         style="font-size:10px;font-family:sans-serif;text-anchor:start;fill:#000000"
         id="text4211">
        <tspan
           x="5.3333335"
           y="15.25"
           id="tspan4209">音価</tspan>
      </text>
      <text
         style="font-size:6.66666651px;font-family:sans-serif;text-anchor:end;fill:#000000"
         id="text4215">
        <tspan
           x="61.480793"
           y="11.25"
           id="tspan4213" />
      </text>
    </g>
  </g>
  <g
     transform="translate(109.72119,220.5)"
     id="g4237">
    <g
       transform="scale(1.5)"
       id="g4235">
      <path
         d="m 8.5,8.5 v -4 a 4,4 90 0 1 4,-4 h 4 10 30 4 a 4,4 90 0 1 4,4 v 4 h -4 v -3 h -4 v 10 h 4 v -3 h 4 v 17 h -4 v -3 h -4 v 10 h 4 v -3 h 4 v 4 a 4,4 90 0 1 -4,4 h -4 -30 -10 -4 a 4,4 90 0 1 -4,-4 v -4 -21 -1 h -6 v 3 h -2 v -8 h 2 v 3 h 6 z"
         style="fill:#ffb2bc;fill-opacity:1;stroke:#601136;stroke-width:1;stroke-linecap:round;stroke-opacity:1"
         id="path4221"
         inkscape:connector-curvature="0" />
      <text
         style="font-size:14px;font-family:sans-serif;text-anchor:end;fill:#000000"
         id="text4225">
        <tspan
           x="54.333332"
           y="23.799999"
           id="tspan4223">/</tspan>
      </text>
      <text
         style="font-size:9.33333302px;font-family:sans-serif;text-anchor:end;fill:#000000"
         id="text4229">
        <tspan
           x="54.333332"
           y="10.75"
           id="tspan4227" />
      </text>
      <text
         style="font-size:9.33333302px;font-family:sans-serif;text-anchor:end;fill:#000000"
         id="text4233">
        <tspan
           x="54.333332"
           y="31.75"
           id="tspan4231" />
      </text>
    </g>
  </g>
  <g
     transform="translate(195.22119,220.5)"
     id="g4247">
    <g
       transform="scale(1.5)"
       id="g4245">
      <path
         d="m 8.5,0.5 h 60 v 20 h -60 v -8 -1 h -6 v 3 h -2 v -8 h 2 v 3 h 6 v -1 z"
         style="fill:#ffb2bc;fill-opacity:1;stroke:#601136;stroke-width:1;stroke-linecap:round;stroke-opacity:1"
         id="path4239"
         inkscape:connector-curvature="0" />
      <text
         style="font-size:10px;font-family:sans-serif;text-anchor:start;fill:#000000"
         id="text4243">
        <tspan
           x="13.333333"
           y="13.833333"
           id="tspan4241">1</tspan>
      </text>
    </g>
  </g>
  <g
     transform="translate(195.22119,252)"
     id="g4257">
    <g
       transform="scale(1.5)"
       id="g4255">
      <path
         d="m 8.5,0.5 h 60 v 20 h -60 v -8 -1 h -6 v 3 h -2 v -8 h 2 v 3 h 6 v -1 z"
         style="fill:#ffb2bc;fill-opacity:1;stroke:#601136;stroke-width:1;stroke-linecap:round;stroke-opacity:1"
         id="path4249"
         inkscape:connector-curvature="0" />
      <text
         style="font-size:10px;font-family:sans-serif;text-anchor:start;fill:#000000"
         id="text4253">
        <tspan
           x="13.333333"
           y="13.833333"
           id="tspan4251">8</tspan>
      </text>
    </g>
  </g>
  <g
     transform="translate(27,252)"
     id="g4267">
    <g
       transform="scale(1.5)"
       id="g4265">
      <path
         d="m 0.5,8.5 v -4 a 4,4 90 0 1 4,-4 h 4 v 2 h 10 v -2 h 20 4 a 4,4 90 0 1 4,4 v 4 4 4 a 4,4 90 0 1 -4,4 h -4 -20 -1 v 2 h -8 v -2 h -1 -4 a 4,4 90 0 1 -4,-4 v -4 z"
         style="fill:#d57e6f;fill-opacity:1;stroke:#000000;stroke-width:1;stroke-linecap:round;stroke-opacity:1"
         id="path4259"
         inkscape:connector-curvature="0" />
      <text
         style="font-size:10px;font-family:sans-serif;text-anchor:end;fill:#000000"
         id="text4263">
        <tspan
           x="36.333332"
           y="13.5"
           id="tspan4261">↓</tspan>
      </text>
    </g>
  </g>
  <g
     transform="translate(27,283.5)"
     id="g4285">
    <g
       transform="scale(1.5)"
       id="g4283">
      <path
         d="m 0.5,8.5 v -4 a 4,4 90 0 1 4,-4 h 4 v 2 h 10 v -2 h 30 4 a 4,4 90 0 1 4,4 v 4 h -4 v -3 h -4 v 10 h 4 v -3 h 4 v 17 h -4 v -3 h -4 v 10 h 4 v -3 h 4 v 4 a 4,4 90 0 1 -4,4 h -4 -30 -1 v 2 h -8 v -2 h -1 -4 a 4,4 90 0 1 -4,-4 v -4 -21 z"
         style="fill:#93e042;fill-opacity:1;stroke:#004000;stroke-width:1;stroke-linecap:round;stroke-opacity:1"
         id="path4269"
         inkscape:connector-curvature="0" />
      <text
         style="font-size:10px;font-family:sans-serif;text-anchor:end;fill:#000000"
         id="text4273">
        <tspan
           x="46.333332"
           y="24"
           id="tspan4271">ピッチ</tspan>
      </text>
      <text
         style="font-size:6.66666651px;font-family:sans-serif;text-anchor:end;fill:#000000"
         id="text4277">
        <tspan
           x="46.333332"
           y="11.25"
           id="tspan4275">名前</tspan>
      </text>
      <text
         style="font-size:6.66666651px;font-family:sans-serif;text-anchor:end;fill:#000000"
         id="text4281">
        <tspan
           x="46.333332"
           y="32.25"
           id="tspan4279">オクターヴ</tspan>
      </text>
    </g>
  </g>
  <g
     transform="translate(100.5,283.5)"
     id="g4295">
    <g
       transform="scale(1.5)"
       id="g4293">
      <path
         d="m 8.5,0.5 h 60 v 20 h -60 v -8 -1 h -6 v 3 h -2 v -8 h 2 v 3 h 6 v -1 z"
         style="fill:#93e042;fill-opacity:1;stroke:#004000;stroke-width:1;stroke-linecap:round;stroke-opacity:1"
         id="path4287"
         inkscape:connector-curvature="0" />
      <text
         style="font-size:10px;font-family:sans-serif;text-anchor:start;fill:#000000"
         id="text4291">
        <tspan
           x="13.333333"
           y="13.833333"
           id="tspan4289">ミ</tspan>
      </text>
    </g>
  </g>
  <g
     transform="translate(100.5,315)"
     id="g4305">
    <g
       transform="scale(1.5)"
       id="g4303">
      <path
         d="m 8.5,0.5 h 60 v 20 h -60 v -8 -1 h -6 v 3 h -2 v -8 h 2 v 3 h 6 v -1 z"
         style="fill:#ffb2bc;fill-opacity:1;stroke:#601136;stroke-width:1;stroke-linecap:round;stroke-opacity:1"
         id="path4297"
         inkscape:connector-curvature="0" />
      <text
         style="font-size:10px;font-family:sans-serif;text-anchor:start;fill:#000000"
         id="text4301">
        <tspan
           x="13.333333"
           y="13.833333"
           id="tspan4299">5</tspan>
      </text>
    </g>
  </g>
  <rect
     id="rect4327"
     width="0"
     height="43.22768"
     x="453.2724"
     y="453.89914"
     ry="1.23507" />
</svg>
