<?xml version="1.0" encoding="UTF-8" standalone="no"?>
<svg
   xmlns:dc="http://purl.org/dc/elements/1.1/"
   xmlns:cc="http://creativecommons.org/ns#"
   xmlns:rdf="http://www.w3.org/1999/02/22-rdf-syntax-ns#"
   xmlns:svg="http://www.w3.org/2000/svg"
   xmlns="http://www.w3.org/2000/svg"
   version="1.1"
   id="svg4075"
   viewBox="0 0 177.1875 165.32163"
   height="165.32162"
   width="177.1875">
  <defs
     id="defs4077" />
  <metadata
     id="metadata4080">
    <rdf:RDF>
      <cc:Work
         rdf:about="">
        <dc:format>image/svg+xml</dc:format>
        <dc:type
           rdf:resource="http://purl.org/dc/dcmitype/StillImage" />
        <dc:title></dc:title>
      </cc:Work>
    </rdf:RDF>
  </metadata>
  <text
     x="371.60651"
     y="-68.901932"
     id="text3033"
     style="font-size:13.33333302px;font-family:Sans;text-anchor:end;fill:#000000">
    <tspan
       x="473.60651"
       y="-46.401936"
       id="tspan3035" />
  </text>
  <text
     x="389.60651"
     y="-3.9383411"
     id="text3107"
     style="font-size:13.33333302px;font-family:Sans;text-anchor:end;fill:#000000">
    <tspan
       x="483.60651"
       y="18.561659"
       id="tspan3109" />
  </text>
  <text
     x="371.60651"
     y="15.098066"
     id="text3033-0"
     style="font-size:13.33333302px;font-family:Sans;text-anchor:end;fill:#000000">
    <tspan
       x="473.60651"
       y="37.598064"
       id="tspan3035-1" />
  </text>
  <text
     x="371.60651"
     y="99.098053"
     id="text3033-1"
     style="font-size:13.33333302px;font-family:Sans;text-anchor:end;fill:#000000">
    <tspan
       x="473.60651"
       y="121.59805"
       id="tspan3035-8" />
  </text>
  <text
     x="371.60651"
     y="183.09805"
     id="text3033-0-9"
     style="font-size:13.33333302px;font-family:Sans;text-anchor:end;fill:#000000">
    <tspan
       x="473.60651"
       y="205.59805"
       id="tspan3035-1-5" />
  </text>
  <g
     id="g956"
     transform="matrix(0.93749998,0,0,0.93749998,0,0.39519135)">
    <g
       id="g954"
       transform="scale(1.5)">
      <path
         id="path948"
         style="fill:#ffe05c;fill-opacity:1;stroke:#644300;stroke-width:1;stroke-linecap:round;stroke-opacity:1"
         d="m 0.5,14.5 v -4 a 4,4 90 0 1 4,-4 h 4 l 5,-6 5,6 h 9 30 4 a 4,4 90 0 1 4,4 v 4 4 4 a 4,4 90 0 1 -4,4 h -4 -30 -1 v 2 h -8 v -2 h -1 -4 a 5,5 90 0 0 -5,5 v 4 4 42 4 a 5,5 90 0 0 5,5 h 4 v 2 h 10 v -2 h 8 v 6 6 4 a 4,4 90 0 1 -4,4 h -4 -9 l -5,6 -5,-6 h -4 a 4,4 90 0 1 -4,-4 v -4 z" />
      <text
         id="text952"
         style="font-size:10px;font-family:sans-serif;text-anchor:start;fill:#000000">
        <tspan
           id="tspan950"
           y="21.5"
           x="5.3333335">start</tspan>
      </text>
    </g>
  </g>
  <g
     id="g966"
     transform="matrix(0.93749998,0,0,0.93749998,25.3125,67.895191)">
    <g
       id="g964"
       transform="scale(1.5)">
      <path
         id="path958"
         style="fill:#ffe05c;fill-opacity:1;stroke:#644300;stroke-width:1;stroke-linecap:round;stroke-opacity:1"
         d="m 0.5,8.5 v -4 a 4,4 90 0 1 4,-4 h 4 v 2 h 10 v -2 h 40 4 a 4,4 90 0 1 4,4 v 4 4 4 a 4,4 90 0 1 -4,4 h -4 -40 -1 v 2 h -8 v -2 h -1 -4 a 4,4 90 0 1 -4,-4 v -4 z" />
      <text
         id="text962"
         style="font-size:10px;font-family:sans-serif;text-anchor:end;fill:#000000">
        <tspan
           id="tspan960"
           y="13.5"
           x="56.333332">chunk</tspan>
      </text>
    </g>
  </g>
  <g
     id="g980"
     transform="matrix(0.93749998,0,0,0.93749998,12.65625,38.363941)">
    <g
       id="g978"
       transform="scale(1.5)">
      <path
         id="path968"
         style="fill:#e9a066;fill-opacity:1;stroke:#3f0a00;stroke-width:1;stroke-linecap:round;stroke-opacity:1"
         d="m 0.5,8.5 v -4 a 4,4 90 0 1 4,-4 h 4 v 2 h 10 v -2 h 9 20 4 a 4,4 90 0 1 4,4 v 4 h -4 v -3 h -4 v 10 h 4 v -3 h 4 v 4 a 4,4 90 0 1 -4,4 h -4 -20 -1 v 2 h -8 v -2 h -1 -4 a 5,5 90 0 0 -5,5 v 4 4 4 a 5,5 90 0 0 5,5 h 4 v 2 h 10 v -2 h 8 v 6 6 4 a 4,4 90 0 1 -4,4 h -4 -9 -1 v 2 h -8 v -2 h -1 -4 a 4,4 90 0 1 -4,-4 v -4 z" />
      <text
         id="text972"
         style="font-size:10px;font-family:sans-serif;text-anchor:start;fill:#000000">
        <tspan
           id="tspan970"
           y="15.25"
           x="5.3333335">repeat</tspan>
      </text>
      <text
         id="text976"
         style="font-size:6.66666651px;font-family:sans-serif;text-anchor:end;fill:#000000">
        <tspan
           id="tspan974"
           y="11.25"
           x="45.333332" />
      </text>
    </g>
  </g>
  <g
     id="g990"
     transform="matrix(0.93749998,0,0,0.93749998,80.15625,38.363941)">
    <g
       id="g988"
       transform="scale(1.5)">
      <path
         id="path982"
         style="fill:#ffb2bc;fill-opacity:1;stroke:#601136;stroke-width:1;stroke-linecap:round;stroke-opacity:1"
         d="m 8.5,0.5 h 60 v 20 h -60 v -8 -1 h -6 v 3 h -2 v -8 h 2 v 3 h 6 v -1 z" />
      <text
         id="text986"
         style="font-size:10px;font-family:sans-serif;text-anchor:start;fill:#000000">
        <tspan
           id="tspan984"
           y="13.833333"
           x="13.333333">4</tspan>
      </text>
    </g>
  </g>
</svg>
