<?xml version="1.0" encoding="UTF-8" standalone="no"?>
<svg
   xmlns:dc="http://purl.org/dc/elements/1.1/"
   xmlns:cc="http://creativecommons.org/ns#"
   xmlns:rdf="http://www.w3.org/1999/02/22-rdf-syntax-ns#"
   xmlns:svg="http://www.w3.org/2000/svg"
   xmlns="http://www.w3.org/2000/svg"
   width="100.19532"
   height="182.67458"
   viewBox="0 0 100.19532 182.67458"
   id="svg4075"
   version="1.1">
  <defs
     id="defs4077" />
  <metadata
     id="metadata4080">
    <rdf:RDF>
      <cc:Work
         rdf:about="">
        <dc:format>image/svg+xml</dc:format>
        <dc:type
           rdf:resource="http://purl.org/dc/dcmitype/StillImage" />
        <dc:title></dc:title>
      </cc:Work>
    </rdf:RDF>
  </metadata>
  <g
     id="g1086"
     transform="matrix(0.87890625,0,0,0.87890625,0,0.3704919)">
    <g
       id="g1084"
       transform="scale(1.5)">
      <path
         id="path1078"
         style="fill:#ffe05c;fill-opacity:1;stroke:#644300;stroke-width:1;stroke-linecap:round;stroke-opacity:1"
         d="m 0.5,14.5 v -4 a 4,4 90 0 1 4,-4 h 4 l 5,-6 5,6 h 9 30 4 a 4,4 90 0 1 4,4 v 4 4 4 a 4,4 90 0 1 -4,4 h -4 -30 -1 v 2 h -8 v -2 h -1 -4 a 5,5 90 0 0 -5,5 v 4 4 63 4 a 5,5 90 0 0 5,5 h 4 v 2 h 10 v -2 h 8 v 6 6 4 a 4,4 90 0 1 -4,4 h -4 -9 l -5,6 -5,-6 h -4 a 4,4 90 0 1 -4,-4 v -4 z" />
      <text
         id="text1082"
         style="font-size:10px;font-family:sans-serif;text-anchor:start;fill:#000000">
        <tspan
           id="tspan1080"
           y="21.5"
           x="5.3333335">start</tspan>
      </text>
    </g>
  </g>
  <g
     id="g1096"
     transform="matrix(0.87890625,0,0,0.87890625,11.86524,35.966192)">
    <g
       id="g1094"
       transform="scale(1.5)">
      <path
         id="path1088"
         style="fill:#ffe05c;fill-opacity:1;stroke:#644300;stroke-width:1;stroke-linecap:round;stroke-opacity:1"
         d="m 0.5,8.5 v -4 a 4,4 90 0 1 4,-4 h 4 v 2 h 10 v -2 h 40 4 a 4,4 90 0 1 4,4 v 4 4 4 a 4,4 90 0 1 -4,4 h -4 -40 -1 v 2 h -8 v -2 h -1 -4 a 4,4 90 0 1 -4,-4 v -4 z" />
      <text
         id="text1092"
         style="font-size:10px;font-family:sans-serif;text-anchor:end;fill:#000000">
        <tspan
           id="tspan1090"
           y="13.5"
           x="56.333332">chunk0</tspan>
      </text>
    </g>
  </g>
  <g
     id="g1106"
     transform="matrix(0.87890625,0,0,0.87890625,11.86524,63.651742)">
    <g
       id="g1104"
       transform="scale(1.5)">
      <path
         id="path1098"
         style="fill:#ffe05c;fill-opacity:1;stroke:#644300;stroke-width:1;stroke-linecap:round;stroke-opacity:1"
         d="m 0.5,8.5 v -4 a 4,4 90 0 1 4,-4 h 4 v 2 h 10 v -2 h 40 4 a 4,4 90 0 1 4,4 v 4 4 4 a 4,4 90 0 1 -4,4 h -4 -40 -1 v 2 h -8 v -2 h -1 -4 a 4,4 90 0 1 -4,-4 v -4 z" />
      <text
         id="text1102"
         style="font-size:10px;font-family:sans-serif;text-anchor:end;fill:#000000">
        <tspan
           id="tspan1100"
           y="13.5"
           x="56.333332">chunk1</tspan>
      </text>
    </g>
  </g>
  <g
     id="g1116"
     transform="matrix(0.87890625,0,0,0.87890625,11.86524,91.337292)">
    <g
       id="g1114"
       transform="scale(1.5)">
      <path
         id="path1108"
         style="fill:#ffe05c;fill-opacity:1;stroke:#644300;stroke-width:1;stroke-linecap:round;stroke-opacity:1"
         d="m 0.5,8.5 v -4 a 4,4 90 0 1 4,-4 h 4 v 2 h 10 v -2 h 40 4 a 4,4 90 0 1 4,4 v 4 4 4 a 4,4 90 0 1 -4,4 h -4 -40 -1 v 2 h -8 v -2 h -1 -4 a 4,4 90 0 1 -4,-4 v -4 z" />
      <text
         id="text1112"
         style="font-size:10px;font-family:sans-serif;text-anchor:end;fill:#000000">
        <tspan
           id="tspan1110"
           y="13.5"
           x="56.333332">chunk1</tspan>
      </text>
    </g>
  </g>
  <g
     id="g1126"
     transform="matrix(0.87890625,0,0,0.87890625,11.86524,119.02283)">
    <g
       id="g1124"
       transform="scale(1.5)">
      <path
         id="path1118"
         style="fill:#ffe05c;fill-opacity:1;stroke:#644300;stroke-width:1;stroke-linecap:round;stroke-opacity:1"
         d="m 0.5,8.5 v -4 a 4,4 90 0 1 4,-4 h 4 v 2 h 10 v -2 h 40 4 a 4,4 90 0 1 4,4 v 4 4 4 a 4,4 90 0 1 -4,4 h -4 -40 -1 v 2 h -8 v -2 h -1 -4 a 4,4 90 0 1 -4,-4 v -4 z" />
      <text
         id="text1122"
         style="font-size:10px;font-family:sans-serif;text-anchor:end;fill:#000000">
        <tspan
           id="tspan1120"
           y="13.5"
           x="56.333332">chunk0</tspan>
      </text>
    </g>
  </g>
</svg>
