<?xml version="1.0" encoding="UTF-8" standalone="no"?>
<svg
   xmlns:dc="http://purl.org/dc/elements/1.1/"
   xmlns:cc="http://creativecommons.org/ns#"
   xmlns:rdf="http://www.w3.org/1999/02/22-rdf-syntax-ns#"
   xmlns:svg="http://www.w3.org/2000/svg"
   xmlns="http://www.w3.org/2000/svg"
   width="71.684433mm"
   height="48.54221mm"
   viewBox="0 0 253.99996 171.99996"
   id="svg5587"
   version="1.1">
  <defs
     id="defs5589" />
  <metadata
     id="metadata5592">
    <rdf:RDF>
      <cc:Work
         rdf:about="">
        <dc:format>image/svg+xml</dc:format>
        <dc:type
           rdf:resource="http://purl.org/dc/dcmitype/StillImage" />
        <dc:title></dc:title>
      </cc:Work>
    </rdf:RDF>
  </metadata>
  <path
     d="m 132.99999,43 120,0 0,40 -120,0 0,-16 0,-2 -12,0 0,6 -4,0 0,-16 4,0 0,6 12,0 0,-2 z"
     id="path21-2-3-0"
     style="fill:#00b700;fill-opacity:1;stroke:#007b00;stroke-width:2;stroke-linecap:round;stroke-opacity:1" />
  <text
     y="42"
     id="text23-0-6-8"
     style="font-size:20px;font-family:Sans;text-anchor:start;fill:#000000"
     x="165.99998">
    <tspan
       x="185.99998"
       y="68"
       id="tspan25-7-2-20">re</tspan>
  </text>
  <path
     style="fill:#ff00ff;fill-opacity:1;stroke:#c700d3;stroke-width:2;stroke-linecap:round;stroke-opacity:1"
     id="path21-6-7-2-79"
     d="m 132.99996,85 120,0 0,40 -120,0 0,-16 0,-2 -12,0 0,6 -4,0 0,-16 4,0 0,6 12,0 0,-2 z" />
  <text
     y="84"
     x="167.99995"
     style="font-size:20px;font-family:Sans;text-anchor:start;fill:#000000"
     id="text23-9-8-9-32">
    <tspan
       id="tspan25-8-2-4-4"
       y="110"
       x="187.99995">4</tspan>
  </text>
  <path
     style="fill:#00b700;fill-opacity:1;stroke:#007b00;stroke-width:2;stroke-linecap:round;stroke-opacity:1"
     id="path3194-3-8-8"
     d="m 18.999984,59 0,-8 a 8,8 0 0 1 8,-8 l 8,0 0,4 20,0 0,-4 60.000006,0 8,0 a 8,8 0 0 1 8,8 l 0,8 -8,0 0,-6 -8,0 0,20 8,0 0,-6 8,0 0,34 -8,0 0,-6 -8,0 0,20 8,0 0,-6 8,0 0,8 a 8,8 0 0 1 -8,8 l -8,0 -60.000006,0 -2,0 0,4 -16,0 0,-4 -2,0 -8,0 a 8,8 0 0 1 -8,-8 l 0,-8 0,-42 0,-8 z" />
  <text
     y="42"
     x="17.999985"
     style="font-size:20px;font-family:Sans;text-anchor:end;fill:#000000"
     id="text3196-7-6-0">
    <tspan
       id="tspan3198-0-1-1"
       y="91"
       x="111.99998">pitch</tspan>
  </text>
  <text
     y="44"
     x="17.999985"
     style="font-size:13.33333302px;font-family:Sans;text-anchor:end;fill:#000000"
     id="text3200-6-0-5">
    <tspan
       id="tspan3202-5-0-5"
       y="66.5"
       x="111.99998">note</tspan>
  </text>
  <text
     y="46"
     x="17.999985"
     style="font-size:13.33333302px;font-family:Sans;text-anchor:end;fill:#000000"
     id="text3204-9-5-3">
    <tspan
       id="tspan3206-0-8-3"
       y="110.5"
       x="111.99998">octave</tspan>
  </text>
  <path
     style="fill:#1d8989;fill-opacity:1;stroke:#005459;stroke-width:2;stroke-linecap:round;stroke-opacity:1"
     id="path3035-8-1-5-4-4"
     d="m 0.99998474,17 0,-8 c 0,-4.41828 3.58172006,-8 8.00000006,-8 l 8.0000002,0 0,4 20,0 0,-4 18,0 56.000005,0 8,0 c 4.41828,0 9.07159,3.71364 8,8 l 0,8 -8,0 0,-6 -8,0 0,20 8,0 0,-6 8,0 0,8 c 0,4.41827 -3.58172,8 -8,8 l -8,0 -56.000005,0 -2,0 0,4 -16,0 0,-4 -2,0 -8,0 c -5.52284,0 -10,4.47715 -10,10 l 0,8 0,49.99998 0,7.99999 c 0,5.52285 4.64205,11.3395 10,10 l 8,0 0,4 20,0 0,-4 16,0 0,12 0,12 0,8 c 0,4.41828 -3.71364,9.0716 -8,8 l -8,0 -18,0 -2,0 0,4 -16,0 0,-4 -2,0 -8.0000002,0 c -4.41828,0 -8.00000006,-3.58172 -8.00000006,-8 l 0,-8 z" />
  <text
     x="-1.5246697e-05"
     y="1.0517579e-05"
     style="font-size:20px;font-family:Sans;text-anchor:start;fill:#000000"
     id="text3037-0-1-8-8-8">
    <tspan
       id="tspan3039-6-1-0-8-9"
       y="30.500011"
       x="7.9999847">set drum</tspan>
  </text>
  <path
     style="fill:#1d8989;fill-opacity:1;stroke:#005459;stroke-width:2;stroke-linecap:round;stroke-opacity:1"
     id="path21-6-1-0-1-8-3-2"
     d="m 128.99999,1 120,0 0,40 -120,0 0,-16 0,-2 -12,0 0,6 -4,0 0,-16 4,0 0,6 12,0 0,-2 z" />
  <text
     y="2.9530745"
     x="120.52281"
     style="font-size:20px;font-family:Sans;text-anchor:start;fill:#000000"
     id="text23-9-82-5-8-1-1-2">
    <tspan
       id="tspan25-8-5-1-3-7-2-3"
       y="28.953075"
       x="140.52281">kick drum</tspan>
  </text>
</svg>
