<?xml version="1.0" encoding="UTF-8" standalone="no"?>
<svg
   xmlns:dc="http://purl.org/dc/elements/1.1/"
   xmlns:cc="http://creativecommons.org/ns#"
   xmlns:rdf="http://www.w3.org/1999/02/22-rdf-syntax-ns#"
   xmlns:svg="http://www.w3.org/2000/svg"
   xmlns="http://www.w3.org/2000/svg"
   version="1.1"
   width="195.30811"
   height="396.84308"
   id="svg3641">
  <metadata
     id="metadata3670">
    <rdf:RDF>
      <cc:Work
         rdf:about="">
        <dc:format>image/svg+xml</dc:format>
        <dc:type
           rdf:resource="http://purl.org/dc/dcmitype/StillImage" />
        <dc:title></dc:title>
      </cc:Work>
    </rdf:RDF>
  </metadata>
  <defs
     id="defs3668" />
  <text
     id="text3057"
     style="font-size:13.33333302px;font-family:Sans;text-anchor:end;fill:#000000"
     x="1311.9385"
     y="-424.2294">
    <tspan
       x="1405.9385"
       y="-401.72937"
       id="tspan3059" />
  </text>
  <g
     id="g930"
     transform="translate(0,0.42153745)">
    <g
       id="g928"
       transform="scale(1.5)">
      <path
         id="path922"
         style="fill:#9ddd5f;fill-opacity:1;stroke:#003e00;stroke-width:1;stroke-linecap:round;stroke-opacity:1"
         d="m 0.5,14.5 v -4 a 4,4 90 0 1 4,-4 h 4 l 5,-6 5,6 h 9 73.9209 4 a 4,4 90 0 1 4,4 v 4 4 4 a 4,4 90 0 1 -4,4 h -4 -73.9209 -1 v 2 h -8 v -2 h -1 -4 a 5,5 90 0 0 -5,5 v 4 4 189 4 a 5,5 90 0 0 5,5 h 4 v 2 h 10 v -2 h 8 v 6 6 4 a 4,4 90 0 1 -4,4 h -4 -9 l -5,6 -5,-6 h -4 a 4,4 90 0 1 -4,-4 v -4 z" />
      <text
         id="text926"
         style="font-size:10px;font-family:sans-serif;text-anchor:start;fill:#000000">
        <tspan
           id="tspan924"
           y="21.5"
           x="5.3333335">pitch-drum mapper</tspan>
      </text>
    </g>
  </g>
  <g
     id="g948"
     transform="translate(13.5,40.921537)">
    <g
       id="g946"
       transform="scale(1.5)">
      <path
         id="path932"
         style="fill:#93e042;fill-opacity:1;stroke:#004000;stroke-width:1;stroke-linecap:round;stroke-opacity:1"
         d="m 0.5,8.5 v -4 a 4,4 90 0 1 4,-4 h 4 v 2 h 10 v -2 h 30 4 a 4,4 90 0 1 4,4 v 4 h -4 v -3 h -4 v 10 h 4 v -3 h 4 v 17 h -4 v -3 h -4 v 10 h 4 v -3 h 4 v 4 a 4,4 90 0 1 -4,4 h -4 -30 -1 v 2 h -8 v -2 h -1 -4 a 4,4 90 0 1 -4,-4 v -4 -21 z" />
      <text
         id="text936"
         style="font-size:10px;font-family:sans-serif;text-anchor:end;fill:#000000">
        <tspan
           id="tspan934"
           y="24"
           x="46.333332">pitch</tspan>
      </text>
      <text
         id="text940"
         style="font-size:6.66666651px;font-family:sans-serif;text-anchor:end;fill:#000000">
        <tspan
           id="tspan938"
           y="11.25"
           x="46.333332">name</tspan>
      </text>
      <text
         id="text944"
         style="font-size:6.66666651px;font-family:sans-serif;text-anchor:end;fill:#000000">
        <tspan
           id="tspan942"
           y="32.25"
           x="46.333332">octave</tspan>
      </text>
    </g>
  </g>
  <g
     id="g958"
     transform="translate(87,40.921537)">
    <g
       id="g956"
       transform="scale(1.5)">
      <path
         id="path950"
         style="fill:#93e042;fill-opacity:1;stroke:#004000;stroke-width:1;stroke-linecap:round;stroke-opacity:1"
         d="m 8.5,0.5 h 60 v 20 h -60 v -8 -1 h -6 v 3 h -2 v -8 h 2 v 3 h 6 v -1 z" />
      <text
         id="text954"
         style="font-size:10px;font-family:sans-serif;text-anchor:start;fill:#000000">
        <tspan
           id="tspan952"
           y="13.833333"
           x="13.333333">sol</tspan>
      </text>
    </g>
  </g>
  <g
     id="g968"
     transform="translate(87,72.421537)">
    <g
       id="g966"
       transform="scale(1.5)">
      <path
         id="path960"
         style="fill:#ffb2bc;fill-opacity:1;stroke:#601136;stroke-width:1;stroke-linecap:round;stroke-opacity:1"
         d="m 8.5,0.5 h 60 v 20 h -60 v -8 -1 h -6 v 3 h -2 v -8 h 2 v 3 h 6 v -1 z" />
      <text
         id="text964"
         style="font-size:10px;font-family:sans-serif;text-anchor:start;fill:#000000">
        <tspan
           id="tspan962"
           y="13.833333"
           x="13.333333">4</tspan>
      </text>
    </g>
  </g>
  <g
     id="g986"
     transform="translate(13.5,103.92154)">
    <g
       id="g984"
       transform="scale(1.5)">
      <path
         id="path970"
         style="fill:#93e042;fill-opacity:1;stroke:#004000;stroke-width:1;stroke-linecap:round;stroke-opacity:1"
         d="m 0.5,8.5 v -4 a 4,4 90 0 1 4,-4 h 4 v 2 h 10 v -2 h 30 4 a 4,4 90 0 1 4,4 v 4 h -4 v -3 h -4 v 10 h 4 v -3 h 4 v 17 h -4 v -3 h -4 v 10 h 4 v -3 h 4 v 4 a 4,4 90 0 1 -4,4 h -4 -30 -1 v 2 h -8 v -2 h -1 -4 a 4,4 90 0 1 -4,-4 v -4 -21 z" />
      <text
         id="text974"
         style="font-size:10px;font-family:sans-serif;text-anchor:end;fill:#000000">
        <tspan
           id="tspan972"
           y="24"
           x="46.333332">pitch</tspan>
      </text>
      <text
         id="text978"
         style="font-size:6.66666651px;font-family:sans-serif;text-anchor:end;fill:#000000">
        <tspan
           id="tspan976"
           y="11.25"
           x="46.333332">name</tspan>
      </text>
      <text
         id="text982"
         style="font-size:6.66666651px;font-family:sans-serif;text-anchor:end;fill:#000000">
        <tspan
           id="tspan980"
           y="32.25"
           x="46.333332">octave</tspan>
      </text>
    </g>
  </g>
  <g
     id="g996"
     transform="translate(87,103.92154)">
    <g
       id="g994"
       transform="scale(1.5)">
      <path
         id="path988"
         style="fill:#93e042;fill-opacity:1;stroke:#004000;stroke-width:1;stroke-linecap:round;stroke-opacity:1"
         d="m 8.5,0.5 h 60 v 20 h -60 v -8 -1 h -6 v 3 h -2 v -8 h 2 v 3 h 6 v -1 z" />
      <text
         id="text992"
         style="font-size:10px;font-family:sans-serif;text-anchor:start;fill:#000000">
        <tspan
           id="tspan990"
           y="13.833333"
           x="13.333333">mi</tspan>
      </text>
    </g>
  </g>
  <g
     id="g1006"
     transform="translate(87,135.42154)">
    <g
       id="g1004"
       transform="scale(1.5)">
      <path
         id="path998"
         style="fill:#ffb2bc;fill-opacity:1;stroke:#601136;stroke-width:1;stroke-linecap:round;stroke-opacity:1"
         d="m 8.5,0.5 h 60 v 20 h -60 v -8 -1 h -6 v 3 h -2 v -8 h 2 v 3 h 6 v -1 z" />
      <text
         id="text1002"
         style="font-size:10px;font-family:sans-serif;text-anchor:start;fill:#000000">
        <tspan
           id="tspan1000"
           y="13.833333"
           x="13.333333">4</tspan>
      </text>
    </g>
  </g>
  <g
     id="g1024"
     transform="translate(13.5,166.92154)">
    <g
       id="g1022"
       transform="scale(1.5)">
      <path
         id="path1008"
         style="fill:#93e042;fill-opacity:1;stroke:#004000;stroke-width:1;stroke-linecap:round;stroke-opacity:1"
         d="m 0.5,8.5 v -4 a 4,4 90 0 1 4,-4 h 4 v 2 h 10 v -2 h 30 4 a 4,4 90 0 1 4,4 v 4 h -4 v -3 h -4 v 10 h 4 v -3 h 4 v 17 h -4 v -3 h -4 v 10 h 4 v -3 h 4 v 4 a 4,4 90 0 1 -4,4 h -4 -30 -1 v 2 h -8 v -2 h -1 -4 a 4,4 90 0 1 -4,-4 v -4 -21 z" />
      <text
         id="text1012"
         style="font-size:10px;font-family:sans-serif;text-anchor:end;fill:#000000">
        <tspan
           id="tspan1010"
           y="24"
           x="46.333332">pitch</tspan>
      </text>
      <text
         id="text1016"
         style="font-size:6.66666651px;font-family:sans-serif;text-anchor:end;fill:#000000">
        <tspan
           id="tspan1014"
           y="11.25"
           x="46.333332">name</tspan>
      </text>
      <text
         id="text1020"
         style="font-size:6.66666651px;font-family:sans-serif;text-anchor:end;fill:#000000">
        <tspan
           id="tspan1018"
           y="32.25"
           x="46.333332">octave</tspan>
      </text>
    </g>
  </g>
  <g
     id="g1034"
     transform="translate(87,166.92154)">
    <g
       id="g1032"
       transform="scale(1.5)">
      <path
         id="path1026"
         style="fill:#93e042;fill-opacity:1;stroke:#004000;stroke-width:1;stroke-linecap:round;stroke-opacity:1"
         d="m 8.5,0.5 h 60 v 20 h -60 v -8 -1 h -6 v 3 h -2 v -8 h 2 v 3 h 6 v -1 z" />
      <text
         id="text1030"
         style="font-size:10px;font-family:sans-serif;text-anchor:start;fill:#000000">
        <tspan
           id="tspan1028"
           y="13.833333"
           x="13.333333">re</tspan>
      </text>
    </g>
  </g>
  <g
     id="g1044"
     transform="translate(87,198.42154)">
    <g
       id="g1042"
       transform="scale(1.5)">
      <path
         id="path1036"
         style="fill:#ffb2bc;fill-opacity:1;stroke:#601136;stroke-width:1;stroke-linecap:round;stroke-opacity:1"
         d="m 8.5,0.5 h 60 v 20 h -60 v -8 -1 h -6 v 3 h -2 v -8 h 2 v 3 h 6 v -1 z" />
      <text
         id="text1040"
         style="font-size:10px;font-family:sans-serif;text-anchor:start;fill:#000000">
        <tspan
           id="tspan1038"
           y="13.833333"
           x="13.333333">4</tspan>
      </text>
    </g>
  </g>
  <g
     id="g1058"
     transform="translate(13.5,229.92154)">
    <g
       id="g1056"
       transform="scale(1.5)">
      <path
         id="path1046"
         style="fill:#3ea4a3;fill-opacity:1;stroke:#000000;stroke-width:1;stroke-linecap:round;stroke-opacity:1"
         d="m 0.5,8.5 v -4 a 4,4 90 0 1 4,-4 h 4 v 2 h 10 v -2 h 30 4 a 4,4 90 0 1 4,4 v 4 h -4 v -3 h -4 v 10 h 4 v -3 h 4 v 4 a 4,4 90 0 1 -4,4 h -4 -30 -1 v 2 h -8 v -2 h -1 -4 a 4,4 90 0 1 -4,-4 v -4 z" />
      <text
         id="text1050"
         style="font-size:10px;font-family:sans-serif;text-anchor:end;fill:#000000">
        <tspan
           id="tspan1048"
           y="13.5"
           x="46.333332">drum</tspan>
      </text>
      <text
         id="text1054"
         style="font-size:6.66666651px;font-family:sans-serif;text-anchor:end;fill:#000000">
        <tspan
           id="tspan1052"
           y="11.25"
           x="46.333332" />
      </text>
    </g>
  </g>
  <g
     id="g1068"
     transform="translate(87,229.92154)">
    <g
       id="g1066"
       transform="scale(1.5)">
      <path
         id="path1060"
         style="fill:#3ea4a3;fill-opacity:1;stroke:#000000;stroke-width:1;stroke-linecap:round;stroke-opacity:1"
         d="m 8.5,0.5 h 60 v 20 h -60 v -8 -1 h -6 v 3 h -2 v -8 h 2 v 3 h 6 v -1 z" />
      <text
         id="text1064"
         style="font-size:10px;font-family:sans-serif;text-anchor:start;fill:#000000">
        <tspan
           id="tspan1062"
           y="13.833333"
           x="13.333333">kick drum</tspan>
      </text>
    </g>
  </g>
  <g
     id="g1082"
     transform="translate(13.5,261.42154)">
    <g
       id="g1080"
       transform="scale(1.5)">
      <path
         id="path1070"
         style="fill:#3ea4a3;fill-opacity:1;stroke:#000000;stroke-width:1;stroke-linecap:round;stroke-opacity:1"
         d="m 0.5,8.5 v -4 a 4,4 90 0 1 4,-4 h 4 v 2 h 10 v -2 h 30 4 a 4,4 90 0 1 4,4 v 4 h -4 v -3 h -4 v 10 h 4 v -3 h 4 v 4 a 4,4 90 0 1 -4,4 h -4 -30 -1 v 2 h -8 v -2 h -1 -4 a 4,4 90 0 1 -4,-4 v -4 z" />
      <text
         id="text1074"
         style="font-size:10px;font-family:sans-serif;text-anchor:end;fill:#000000">
        <tspan
           id="tspan1072"
           y="13.5"
           x="46.333332">drum</tspan>
      </text>
      <text
         id="text1078"
         style="font-size:6.66666651px;font-family:sans-serif;text-anchor:end;fill:#000000">
        <tspan
           id="tspan1076"
           y="11.25"
           x="46.333332" />
      </text>
    </g>
  </g>
  <g
     id="g1092"
     transform="translate(87,261.42154)">
    <g
       id="g1090"
       transform="scale(1.5)">
      <path
         id="path1084"
         style="fill:#3ea4a3;fill-opacity:1;stroke:#000000;stroke-width:1;stroke-linecap:round;stroke-opacity:1"
         d="m 8.5,0.5 h 60 v 20 h -60 v -8 -1 h -6 v 3 h -2 v -8 h 2 v 3 h 6 v -1 z" />
      <text
         id="text1088"
         style="font-size:10px;font-family:sans-serif;text-anchor:start;fill:#000000">
        <tspan
           id="tspan1086"
           y="13.833333"
           x="13.333333">tom tom</tspan>
      </text>
    </g>
  </g>
  <g
     id="g1106"
     transform="translate(13.5,324.42154)">
    <g
       id="g1104"
       transform="scale(1.5)">
      <path
         id="path1094"
         style="fill:#3ea4a3;fill-opacity:1;stroke:#000000;stroke-width:1;stroke-linecap:round;stroke-opacity:1"
         d="m 0.5,8.5 v -4 a 4,4 90 0 1 4,-4 h 4 v 2 h 10 v -2 h 30 4 a 4,4 90 0 1 4,4 v 4 h -4 v -3 h -4 v 10 h 4 v -3 h 4 v 4 a 4,4 90 0 1 -4,4 h -4 -30 -1 v 2 h -8 v -2 h -1 -4 a 4,4 90 0 1 -4,-4 v -4 z" />
      <text
         id="text1098"
         style="font-size:10px;font-family:sans-serif;text-anchor:end;fill:#000000">
        <tspan
           id="tspan1096"
           y="13.5"
           x="46.333332">drum</tspan>
      </text>
      <text
         id="text1102"
         style="font-size:6.66666651px;font-family:sans-serif;text-anchor:end;fill:#000000">
        <tspan
           id="tspan1100"
           y="11.25"
           x="46.333332" />
      </text>
    </g>
  </g>
  <g
     id="g1116"
     transform="translate(87,324.42154)">
    <g
       id="g1114"
       transform="scale(1.5)">
      <path
         id="path1108"
         style="fill:#3ea4a3;fill-opacity:1;stroke:#000000;stroke-width:1;stroke-linecap:round;stroke-opacity:1"
         d="m 8.5,0.5 h 60 v 20 h -60 v -8 -1 h -6 v 3 h -2 v -8 h 2 v 3 h 6 v -1 z" />
      <text
         id="text1112"
         style="font-size:10px;font-family:sans-serif;text-anchor:start;fill:#000000">
        <tspan
           id="tspan1110"
           y="13.833333"
           x="13.333333">triangle bell</tspan>
      </text>
    </g>
  </g>
  <g
     id="g1192"
     transform="translate(13.5,292.92154)">
    <g
       id="g1190"
       transform="scale(1.5)">
      <path
         id="path1180"
         style="fill:#3ea4a3;fill-opacity:1;stroke:#000000;stroke-width:1;stroke-linecap:round;stroke-opacity:1"
         d="m 0.5,8.5 v -4 a 4,4 90 0 1 4,-4 h 4 v 2 h 10 v -2 h 30 4 a 4,4 90 0 1 4,4 v 4 h -4 v -3 h -4 v 10 h 4 v -3 h 4 v 4 a 4,4 90 0 1 -4,4 h -4 -30 -1 v 2 h -8 v -2 h -1 -4 a 4,4 90 0 1 -4,-4 v -4 z" />
      <text
         id="text1184"
         style="font-size:10px;font-family:sans-serif;text-anchor:end;fill:#000000">
        <tspan
           id="tspan1182"
           y="13.5"
           x="46.333332">drum</tspan>
      </text>
      <text
         id="text1188"
         style="font-size:6.66666651px;font-family:sans-serif;text-anchor:end;fill:#000000">
        <tspan
           id="tspan1186"
           y="11.25"
           x="46.333332" />
      </text>
    </g>
  </g>
  <g
     id="g1202"
     transform="translate(87,292.92154)">
    <g
       id="g1200"
       transform="scale(1.5)">
      <path
         id="path1194"
         style="fill:#3ea4a3;fill-opacity:1;stroke:#000000;stroke-width:1;stroke-linecap:round;stroke-opacity:1"
         d="m 8.5,0.5 h 60 v 20 h -60 v -8 -1 h -6 v 3 h -2 v -8 h 2 v 3 h 6 v -1 z" />
      <text
         id="text1198"
         style="font-size:10px;font-family:sans-serif;text-anchor:start;fill:#000000">
        <tspan
           id="tspan1196"
           y="13.833333"
           x="13.333333">ride bell</tspan>
      </text>
    </g>
  </g>
</svg>
