<?xml version="1.0" encoding="UTF-8" standalone="no"?>
<svg
   xmlns:dc="http://purl.org/dc/elements/1.1/"
   xmlns:cc="http://creativecommons.org/ns#"
   xmlns:rdf="http://www.w3.org/1999/02/22-rdf-syntax-ns#"
   xmlns:svg="http://www.w3.org/2000/svg"
   xmlns="http://www.w3.org/2000/svg"
   id="svg576"
   version="1.1"
   height="585.84308"
   width="713.72119">
  <metadata
     id="metadata582">
    <rdf:RDF>
      <cc:Work
         rdf:about="">
        <dc:format>image/svg+xml</dc:format>
        <dc:type
           rdf:resource="http://purl.org/dc/dcmitype/StillImage" />
        <dc:title></dc:title>
      </cc:Work>
    </rdf:RDF>
  </metadata>
  <defs
     id="defs580" />
  <g
     transform="translate(-216,-79.578463)"
     id="g1573">
    <g
       transform="translate(631,80)"
       id="g24">
      <g
         transform="scale(1.5)"
         id="g22">
        <path
           d="m 0.5,14.5 v -4 a 4,4 90 0 1 4,-4 h 4 l 5,-6 5,6 h 9 35 4 a 4,4 90 0 1 4,4 v 4 h -4 v -3 h -4 v 10 h 4 v -3 h 4 v 4 a 4,4 90 0 1 -4,4 h -4 -35 -1 v 2 h -8 v -2 h -1 -4 a 5,5 90 0 0 -5,5 v 4 4 315 4 a 5,5 90 0 0 5,5 h 4 v 2 h 10 v -2 h 8 v 6 6 4 a 4,4 90 0 1 -4,4 h -4 -9 l -5,6 -5,-6 h -4 a 4,4 90 0 1 -4,-4 v -4 z"
           style="fill:#ffe05c;fill-opacity:1;stroke:#644300;stroke-width:1;stroke-linecap:round;stroke-opacity:1"
           id="path12" />
        <text
           style="font-size:10px;font-family:sans-serif;text-anchor:start;fill:#000000"
           id="text16">
          <tspan
             x="5.3333335"
             y="21.5"
             id="tspan14">action</tspan>
        </text>
        <text
           style="font-size:6.66666651px;font-family:sans-serif;text-anchor:end;fill:#000000"
           id="text20">
          <tspan
             x="60.333332"
             y="5.25"
             id="tspan18" />
        </text>
      </g>
    </g>
    <g
       transform="translate(725.5,89)"
       id="g34">
      <g
         transform="scale(1.5)"
         id="g32">
        <path
           d="m 8.5,0.5 h 60 v 20 h -60 v -8 -1 h -6 v 3 h -2 v -8 h 2 v 3 h 6 v -1 z"
           style="fill:#76dbd7;fill-opacity:1;stroke:#003b41;stroke-width:1;stroke-linecap:round;stroke-opacity:1"
           id="path26" />
        <text
           style="font-size:10px;font-family:sans-serif;text-anchor:start;fill:#000000"
           id="text30">
          <tspan
             x="13.333333"
             y="13.833333"
             id="tspan28">action</tspan>
        </text>
      </g>
    </g>
    <g
       transform="translate(644.5,120.5)"
       id="g48">
      <g
         transform="scale(1.5)"
         id="g46">
        <path
           d="m 0.5,8.5 v -4 a 4,4 90 0 1 4,-4 h 4 v 2 h 10 v -2 h 9 36.147461 4 a 4,4 90 0 1 4,4 v 4 h -4 v -3 h -4 v 10 h 4 v -3 h 4 v 4 a 4,4 90 0 1 -4,4 h -4 H 27.5 h -1 v 2 h -8 v -2 h -1 -4 a 5,5 90 0 0 -5,5 v 4 4 21 4 a 5,5 90 0 0 5,5 h 4 v 2 h 10 v -2 h 8 v 6 6 4 a 4,4 90 0 1 -4,4 h -4 -9 -1 v 2 h -8 v -2 h -1 -4 a 4,4 90 0 1 -4,-4 v -4 z"
           style="fill:#ff8b2d;fill-opacity:1;stroke:#520000;stroke-width:1;stroke-linecap:round;stroke-opacity:1"
           id="path36" />
        <text
           style="font-size:10px;font-family:sans-serif;text-anchor:start;fill:#000000"
           id="text40">
          <tspan
             x="5.3333335"
             y="15.25"
             id="tspan38">note value</tspan>
        </text>
        <text
           style="font-size:6.66666651px;font-family:sans-serif;text-anchor:end;fill:#000000"
           id="text44">
          <tspan
             x="61.480793"
             y="11.25"
             id="tspan42" />
        </text>
      </g>
    </g>
    <g
       transform="translate(740.72119,120.5)"
       id="g66">
      <g
         transform="scale(1.5)"
         id="g64">
        <path
           d="m 8.5,8.5 v -4 a 4,4 90 0 1 4,-4 h 4 10 30 4 a 4,4 90 0 1 4,4 v 4 h -4 v -3 h -4 v 10 h 4 v -3 h 4 v 17 h -4 v -3 h -4 v 10 h 4 v -3 h 4 v 4 a 4,4 90 0 1 -4,4 h -4 -30 -10 -4 a 4,4 90 0 1 -4,-4 v -4 -21 -1 h -6 v 3 h -2 v -8 h 2 v 3 h 6 z"
           style="fill:#ffb2bc;fill-opacity:1;stroke:#601136;stroke-width:1;stroke-linecap:round;stroke-opacity:1"
           id="path50" />
        <text
           style="font-size:14px;font-family:sans-serif;text-anchor:end;fill:#000000"
           id="text54">
          <tspan
             x="54.333332"
             y="23.799999"
             id="tspan52">/</tspan>
        </text>
        <text
           style="font-size:9.33333302px;font-family:sans-serif;text-anchor:end;fill:#000000"
           id="text58">
          <tspan
             x="54.333332"
             y="10.75"
             id="tspan56" />
        </text>
        <text
           style="font-size:9.33333302px;font-family:sans-serif;text-anchor:end;fill:#000000"
           id="text62">
          <tspan
             x="54.333332"
             y="31.75"
             id="tspan60" />
        </text>
      </g>
    </g>
    <g
       transform="translate(826.22119,120.5)"
       id="g76">
      <g
         transform="scale(1.5)"
         id="g74">
        <path
           d="m 8.5,0.5 h 60 v 20 h -60 v -8 -1 h -6 v 3 h -2 v -8 h 2 v 3 h 6 v -1 z"
           style="fill:#ffb2bc;fill-opacity:1;stroke:#601136;stroke-width:1;stroke-linecap:round;stroke-opacity:1"
           id="path68" />
        <text
           style="font-size:10px;font-family:sans-serif;text-anchor:start;fill:#000000"
           id="text72">
          <tspan
             x="13.333333"
             y="13.833333"
             id="tspan70">1</tspan>
        </text>
      </g>
    </g>
    <g
       transform="translate(826.22119,152)"
       id="g86">
      <g
         transform="scale(1.5)"
         id="g84">
        <path
           d="m 8.5,0.5 h 60 v 20 h -60 v -8 -1 h -6 v 3 h -2 v -8 h 2 v 3 h 6 v -1 z"
           style="fill:#ffb2bc;fill-opacity:1;stroke:#601136;stroke-width:1;stroke-linecap:round;stroke-opacity:1"
           id="path78" />
        <text
           style="font-size:10px;font-family:sans-serif;text-anchor:start;fill:#000000"
           id="text82">
          <tspan
             x="13.333333"
             y="13.833333"
             id="tspan80">4</tspan>
        </text>
      </g>
    </g>
    <g
       transform="translate(658,152)"
       id="g96">
      <g
         transform="scale(1.5)"
         id="g94">
        <path
           d="m 0.5,8.5 v -4 a 4,4 90 0 1 4,-4 h 4 v 2 h 10 v -2 h 20 4 a 4,4 90 0 1 4,4 v 4 4 4 a 4,4 90 0 1 -4,4 h -4 -20 -1 v 2 h -8 v -2 h -1 -4 a 4,4 90 0 1 -4,-4 v -4 z"
           style="fill:#d57e6f;fill-opacity:1;stroke:#000000;stroke-width:1;stroke-linecap:round;stroke-opacity:1"
           id="path88" />
        <text
           style="font-size:10px;font-family:sans-serif;text-anchor:end;fill:#000000"
           id="text92">
          <tspan
             x="36.333332"
             y="13.5"
             id="tspan90">↓</tspan>
        </text>
      </g>
    </g>
    <g
       transform="translate(658,183.5)"
       id="g110">
      <g
         transform="scale(1.5)"
         id="g108">
        <path
           d="m 0.5,8.5 v -4 a 4,4 90 0 1 4,-4 h 4 v 2 h 10 v -2 h 30 4 a 4,4 90 0 1 4,4 v 4 h -4 v -3 h -4 v 10 h 4 v -3 h 4 v 4 a 4,4 90 0 1 -4,4 h -4 -30 -1 v 2 h -8 v -2 h -1 -4 a 4,4 90 0 1 -4,-4 v -4 z"
           style="fill:#3ea4a3;fill-opacity:1;stroke:#000000;stroke-width:1;stroke-linecap:round;stroke-opacity:1"
           id="path98" />
        <text
           style="font-size:10px;font-family:sans-serif;text-anchor:end;fill:#000000"
           id="text102">
          <tspan
             x="46.333332"
             y="13.5"
             id="tspan100">drum</tspan>
        </text>
        <text
           style="font-size:6.66666651px;font-family:sans-serif;text-anchor:end;fill:#000000"
           id="text106">
          <tspan
             x="46.333332"
             y="11.25"
             id="tspan104" />
        </text>
      </g>
    </g>
    <g
       transform="translate(731.5,183.5)"
       id="g120">
      <g
         transform="scale(1.5)"
         id="g118">
        <path
           d="m 8.5,0.5 h 110 v 20 H 8.5 v -8 -1 h -6 v 3 h -2 v -8 h 2 v 3 h 6 v -1 z"
           style="fill:#3ea4a3;fill-opacity:1;stroke:#000000;stroke-width:1;stroke-linecap:round;stroke-opacity:1"
           id="path112" />
        <text
           style="font-size:10px;font-family:sans-serif;text-anchor:start;fill:#000000"
           id="text116">
          <tspan
             x="13.333333"
             y="13.833333"
             id="tspan114">snare-drum</tspan>
        </text>
      </g>
    </g>
    <g
       transform="translate(644.5,246.5)"
       id="g134">
      <g
         transform="scale(1.5)"
         id="g132">
        <path
           d="m 0.5,8.5 v -4 a 4,4 90 0 1 4,-4 h 4 v 2 h 10 v -2 h 9 36.147461 4 a 4,4 90 0 1 4,4 v 4 h -4 v -3 h -4 v 10 h 4 v -3 h 4 v 4 a 4,4 90 0 1 -4,4 h -4 H 27.5 h -1 v 2 h -8 v -2 h -1 -4 a 5,5 90 0 0 -5,5 v 4 4 21 4 a 5,5 90 0 0 5,5 h 4 v 2 h 10 v -2 h 8 v 6 6 4 a 4,4 90 0 1 -4,4 h -4 -9 -1 v 2 h -8 v -2 h -1 -4 a 4,4 90 0 1 -4,-4 v -4 z"
           style="fill:#ff8b2d;fill-opacity:1;stroke:#520000;stroke-width:1;stroke-linecap:round;stroke-opacity:1"
           id="path122" />
        <text
           style="font-size:10px;font-family:sans-serif;text-anchor:start;fill:#000000"
           id="text126">
          <tspan
             x="5.3333335"
             y="15.25"
             id="tspan124">note value</tspan>
        </text>
        <text
           style="font-size:6.66666651px;font-family:sans-serif;text-anchor:end;fill:#000000"
           id="text130">
          <tspan
             x="61.480793"
             y="11.25"
             id="tspan128" />
        </text>
      </g>
    </g>
    <g
       transform="translate(740.72119,246.5)"
       id="g152">
      <g
         transform="scale(1.5)"
         id="g150">
        <path
           d="m 8.5,8.5 v -4 a 4,4 90 0 1 4,-4 h 4 10 30 4 a 4,4 90 0 1 4,4 v 4 h -4 v -3 h -4 v 10 h 4 v -3 h 4 v 17 h -4 v -3 h -4 v 10 h 4 v -3 h 4 v 4 a 4,4 90 0 1 -4,4 h -4 -30 -10 -4 a 4,4 90 0 1 -4,-4 v -4 -21 -1 h -6 v 3 h -2 v -8 h 2 v 3 h 6 z"
           style="fill:#ffb2bc;fill-opacity:1;stroke:#601136;stroke-width:1;stroke-linecap:round;stroke-opacity:1"
           id="path136" />
        <text
           style="font-size:14px;font-family:sans-serif;text-anchor:end;fill:#000000"
           id="text140">
          <tspan
             x="54.333332"
             y="23.799999"
             id="tspan138">/</tspan>
        </text>
        <text
           style="font-size:9.33333302px;font-family:sans-serif;text-anchor:end;fill:#000000"
           id="text144">
          <tspan
             x="54.333332"
             y="10.75"
             id="tspan142" />
        </text>
        <text
           style="font-size:9.33333302px;font-family:sans-serif;text-anchor:end;fill:#000000"
           id="text148">
          <tspan
             x="54.333332"
             y="31.75"
             id="tspan146" />
        </text>
      </g>
    </g>
    <g
       transform="translate(826.22119,246.5)"
       id="g162">
      <g
         transform="scale(1.5)"
         id="g160">
        <path
           d="m 8.5,0.5 h 60 v 20 h -60 v -8 -1 h -6 v 3 h -2 v -8 h 2 v 3 h 6 v -1 z"
           style="fill:#ffb2bc;fill-opacity:1;stroke:#601136;stroke-width:1;stroke-linecap:round;stroke-opacity:1"
           id="path154" />
        <text
           style="font-size:10px;font-family:sans-serif;text-anchor:start;fill:#000000"
           id="text158">
          <tspan
             x="13.333333"
             y="13.833333"
             id="tspan156">1</tspan>
        </text>
      </g>
    </g>
    <g
       transform="translate(826.22119,278)"
       id="g172">
      <g
         transform="scale(1.5)"
         id="g170">
        <path
           d="m 8.5,0.5 h 60 v 20 h -60 v -8 -1 h -6 v 3 h -2 v -8 h 2 v 3 h 6 v -1 z"
           style="fill:#ffb2bc;fill-opacity:1;stroke:#601136;stroke-width:1;stroke-linecap:round;stroke-opacity:1"
           id="path164" />
        <text
           style="font-size:10px;font-family:sans-serif;text-anchor:start;fill:#000000"
           id="text168">
          <tspan
             x="13.333333"
             y="13.833333"
             id="tspan166">4</tspan>
        </text>
      </g>
    </g>
    <g
       transform="translate(658,278)"
       id="g182">
      <g
         transform="scale(1.5)"
         id="g180">
        <path
           d="m 0.5,8.5 v -4 a 4,4 90 0 1 4,-4 h 4 v 2 h 10 v -2 h 20 4 a 4,4 90 0 1 4,4 v 4 4 4 a 4,4 90 0 1 -4,4 h -4 -20 -1 v 2 h -8 v -2 h -1 -4 a 4,4 90 0 1 -4,-4 v -4 z"
           style="fill:#d57e6f;fill-opacity:1;stroke:#000000;stroke-width:1;stroke-linecap:round;stroke-opacity:1"
           id="path174" />
        <text
           style="font-size:10px;font-family:sans-serif;text-anchor:end;fill:#000000"
           id="text178">
          <tspan
             x="36.333332"
             y="13.5"
             id="tspan176">↓</tspan>
        </text>
      </g>
    </g>
    <g
       transform="translate(658,309.5)"
       id="g196">
      <g
         transform="scale(1.5)"
         id="g194">
        <path
           d="m 0.5,8.5 v -4 a 4,4 90 0 1 4,-4 h 4 v 2 h 10 v -2 h 30 4 a 4,4 90 0 1 4,4 v 4 h -4 v -3 h -4 v 10 h 4 v -3 h 4 v 4 a 4,4 90 0 1 -4,4 h -4 -30 -1 v 2 h -8 v -2 h -1 -4 a 4,4 90 0 1 -4,-4 v -4 z"
           style="fill:#3ea4a3;fill-opacity:1;stroke:#000000;stroke-width:1;stroke-linecap:round;stroke-opacity:1"
           id="path184" />
        <text
           style="font-size:10px;font-family:sans-serif;text-anchor:end;fill:#000000"
           id="text188">
          <tspan
             x="46.333332"
             y="13.5"
             id="tspan186">drum</tspan>
        </text>
        <text
           style="font-size:6.66666651px;font-family:sans-serif;text-anchor:end;fill:#000000"
           id="text192">
          <tspan
             x="46.333332"
             y="11.25"
             id="tspan190" />
        </text>
      </g>
    </g>
    <g
       transform="translate(731.5,309.5)"
       id="g206">
      <g
         transform="scale(1.5)"
         id="g204">
        <path
           d="m 8.5,0.5 h 110 v 20 H 8.5 v -8 -1 h -6 v 3 h -2 v -8 h 2 v 3 h 6 v -1 z"
           style="fill:#3ea4a3;fill-opacity:1;stroke:#000000;stroke-width:1;stroke-linecap:round;stroke-opacity:1"
           id="path198" />
        <text
           style="font-size:10px;font-family:sans-serif;text-anchor:start;fill:#000000"
           id="text202">
          <tspan
             x="13.333333"
             y="13.833333"
             id="tspan200">kick drum</tspan>
        </text>
      </g>
    </g>
    <g
       transform="translate(644.5,372.5)"
       id="g220">
      <g
         transform="scale(1.5)"
         id="g218">
        <path
           d="m 0.5,8.5 v -4 a 4,4 90 0 1 4,-4 h 4 v 2 h 10 v -2 h 9 36.147461 4 a 4,4 90 0 1 4,4 v 4 h -4 v -3 h -4 v 10 h 4 v -3 h 4 v 4 a 4,4 90 0 1 -4,4 h -4 H 27.5 h -1 v 2 h -8 v -2 h -1 -4 a 5,5 90 0 0 -5,5 v 4 4 21 4 a 5,5 90 0 0 5,5 h 4 v 2 h 10 v -2 h 8 v 6 6 4 a 4,4 90 0 1 -4,4 h -4 -9 -1 v 2 h -8 v -2 h -1 -4 a 4,4 90 0 1 -4,-4 v -4 z"
           style="fill:#ff8b2d;fill-opacity:1;stroke:#520000;stroke-width:1;stroke-linecap:round;stroke-opacity:1"
           id="path208" />
        <text
           style="font-size:10px;font-family:sans-serif;text-anchor:start;fill:#000000"
           id="text212">
          <tspan
             x="5.3333335"
             y="15.25"
             id="tspan210">note value</tspan>
        </text>
        <text
           style="font-size:6.66666651px;font-family:sans-serif;text-anchor:end;fill:#000000"
           id="text216">
          <tspan
             x="61.480793"
             y="11.25"
             id="tspan214" />
        </text>
      </g>
    </g>
    <g
       transform="translate(740.72119,372.5)"
       id="g238">
      <g
         transform="scale(1.5)"
         id="g236">
        <path
           d="m 8.5,8.5 v -4 a 4,4 90 0 1 4,-4 h 4 10 30 4 a 4,4 90 0 1 4,4 v 4 h -4 v -3 h -4 v 10 h 4 v -3 h 4 v 17 h -4 v -3 h -4 v 10 h 4 v -3 h 4 v 4 a 4,4 90 0 1 -4,4 h -4 -30 -10 -4 a 4,4 90 0 1 -4,-4 v -4 -21 -1 h -6 v 3 h -2 v -8 h 2 v 3 h 6 z"
           style="fill:#ffb2bc;fill-opacity:1;stroke:#601136;stroke-width:1;stroke-linecap:round;stroke-opacity:1"
           id="path222" />
        <text
           style="font-size:14px;font-family:sans-serif;text-anchor:end;fill:#000000"
           id="text226">
          <tspan
             x="54.333332"
             y="23.799999"
             id="tspan224">/</tspan>
        </text>
        <text
           style="font-size:9.33333302px;font-family:sans-serif;text-anchor:end;fill:#000000"
           id="text230">
          <tspan
             x="54.333332"
             y="10.75"
             id="tspan228" />
        </text>
        <text
           style="font-size:9.33333302px;font-family:sans-serif;text-anchor:end;fill:#000000"
           id="text234">
          <tspan
             x="54.333332"
             y="31.75"
             id="tspan232" />
        </text>
      </g>
    </g>
    <g
       transform="translate(826.22119,372.5)"
       id="g248">
      <g
         transform="scale(1.5)"
         id="g246">
        <path
           d="m 8.5,0.5 h 60 v 20 h -60 v -8 -1 h -6 v 3 h -2 v -8 h 2 v 3 h 6 v -1 z"
           style="fill:#ffb2bc;fill-opacity:1;stroke:#601136;stroke-width:1;stroke-linecap:round;stroke-opacity:1"
           id="path240" />
        <text
           style="font-size:10px;font-family:sans-serif;text-anchor:start;fill:#000000"
           id="text244">
          <tspan
             x="13.333333"
             y="13.833333"
             id="tspan242">1</tspan>
        </text>
      </g>
    </g>
    <g
       transform="translate(826.22119,404)"
       id="g258">
      <g
         transform="scale(1.5)"
         id="g256">
        <path
           d="m 8.5,0.5 h 60 v 20 h -60 v -8 -1 h -6 v 3 h -2 v -8 h 2 v 3 h 6 v -1 z"
           style="fill:#ffb2bc;fill-opacity:1;stroke:#601136;stroke-width:1;stroke-linecap:round;stroke-opacity:1"
           id="path250" />
        <text
           style="font-size:10px;font-family:sans-serif;text-anchor:start;fill:#000000"
           id="text254">
          <tspan
             x="13.333333"
             y="13.833333"
             id="tspan252">4</tspan>
        </text>
      </g>
    </g>
    <g
       transform="translate(658,404)"
       id="g268">
      <g
         transform="scale(1.5)"
         id="g266">
        <path
           d="m 0.5,8.5 v -4 a 4,4 90 0 1 4,-4 h 4 v 2 h 10 v -2 h 20 4 a 4,4 90 0 1 4,4 v 4 4 4 a 4,4 90 0 1 -4,4 h -4 -20 -1 v 2 h -8 v -2 h -1 -4 a 4,4 90 0 1 -4,-4 v -4 z"
           style="fill:#d57e6f;fill-opacity:1;stroke:#000000;stroke-width:1;stroke-linecap:round;stroke-opacity:1"
           id="path260" />
        <text
           style="font-size:10px;font-family:sans-serif;text-anchor:end;fill:#000000"
           id="text264">
          <tspan
             x="36.333332"
             y="13.5"
             id="tspan262">↓</tspan>
        </text>
      </g>
    </g>
    <g
       transform="translate(658,435.5)"
       id="g282">
      <g
         transform="scale(1.5)"
         id="g280">
        <path
           d="m 0.5,8.5 v -4 a 4,4 90 0 1 4,-4 h 4 v 2 h 10 v -2 h 30 4 a 4,4 90 0 1 4,4 v 4 h -4 v -3 h -4 v 10 h 4 v -3 h 4 v 4 a 4,4 90 0 1 -4,4 h -4 -30 -1 v 2 h -8 v -2 h -1 -4 a 4,4 90 0 1 -4,-4 v -4 z"
           style="fill:#3ea4a3;fill-opacity:1;stroke:#000000;stroke-width:1;stroke-linecap:round;stroke-opacity:1"
           id="path270" />
        <text
           style="font-size:10px;font-family:sans-serif;text-anchor:end;fill:#000000"
           id="text274">
          <tspan
             x="46.333332"
             y="13.5"
             id="tspan272">drum</tspan>
        </text>
        <text
           style="font-size:6.66666651px;font-family:sans-serif;text-anchor:end;fill:#000000"
           id="text278">
          <tspan
             x="46.333332"
             y="11.25"
             id="tspan276" />
        </text>
      </g>
    </g>
    <g
       transform="translate(731.5,435.5)"
       id="g292">
      <g
         transform="scale(1.5)"
         id="g290">
        <path
           d="m 8.5,0.5 h 110 v 20 H 8.5 v -8 -1 h -6 v 3 h -2 v -8 h 2 v 3 h 6 v -1 z"
           style="fill:#3ea4a3;fill-opacity:1;stroke:#000000;stroke-width:1;stroke-linecap:round;stroke-opacity:1"
           id="path284" />
        <text
           style="font-size:10px;font-family:sans-serif;text-anchor:start;fill:#000000"
           id="text288">
          <tspan
             x="13.333333"
             y="13.833333"
             id="tspan286">kick drum</tspan>
        </text>
      </g>
    </g>
    <g
       transform="translate(644.5,498.5)"
       id="g306">
      <g
         transform="scale(1.5)"
         id="g304">
        <path
           d="m 0.5,8.5 v -4 a 4,4 90 0 1 4,-4 h 4 v 2 h 10 v -2 h 9 36.147461 4 a 4,4 90 0 1 4,4 v 4 h -4 v -3 h -4 v 10 h 4 v -3 h 4 v 4 a 4,4 90 0 1 -4,4 h -4 H 27.5 h -1 v 2 h -8 v -2 h -1 -4 a 5,5 90 0 0 -5,5 v 4 4 21 4 a 5,5 90 0 0 5,5 h 4 v 2 h 10 v -2 h 8 v 6 6 4 a 4,4 90 0 1 -4,4 h -4 -9 -1 v 2 h -8 v -2 h -1 -4 a 4,4 90 0 1 -4,-4 v -4 z"
           style="fill:#ff8b2d;fill-opacity:1;stroke:#520000;stroke-width:1;stroke-linecap:round;stroke-opacity:1"
           id="path294" />
        <text
           style="font-size:10px;font-family:sans-serif;text-anchor:start;fill:#000000"
           id="text298">
          <tspan
             x="5.3333335"
             y="15.25"
             id="tspan296">note value</tspan>
        </text>
        <text
           style="font-size:6.66666651px;font-family:sans-serif;text-anchor:end;fill:#000000"
           id="text302">
          <tspan
             x="61.480793"
             y="11.25"
             id="tspan300" />
        </text>
      </g>
    </g>
    <g
       transform="translate(740.72119,498.5)"
       id="g324">
      <g
         transform="scale(1.5)"
         id="g322">
        <path
           d="m 8.5,8.5 v -4 a 4,4 90 0 1 4,-4 h 4 10 30 4 a 4,4 90 0 1 4,4 v 4 h -4 v -3 h -4 v 10 h 4 v -3 h 4 v 17 h -4 v -3 h -4 v 10 h 4 v -3 h 4 v 4 a 4,4 90 0 1 -4,4 h -4 -30 -10 -4 a 4,4 90 0 1 -4,-4 v -4 -21 -1 h -6 v 3 h -2 v -8 h 2 v 3 h 6 z"
           style="fill:#ffb2bc;fill-opacity:1;stroke:#601136;stroke-width:1;stroke-linecap:round;stroke-opacity:1"
           id="path308" />
        <text
           style="font-size:14px;font-family:sans-serif;text-anchor:end;fill:#000000"
           id="text312">
          <tspan
             x="54.333332"
             y="23.799999"
             id="tspan310">/</tspan>
        </text>
        <text
           style="font-size:9.33333302px;font-family:sans-serif;text-anchor:end;fill:#000000"
           id="text316">
          <tspan
             x="54.333332"
             y="10.75"
             id="tspan314" />
        </text>
        <text
           style="font-size:9.33333302px;font-family:sans-serif;text-anchor:end;fill:#000000"
           id="text320">
          <tspan
             x="54.333332"
             y="31.75"
             id="tspan318" />
        </text>
      </g>
    </g>
    <g
       transform="translate(826.22119,498.5)"
       id="g334">
      <g
         transform="scale(1.5)"
         id="g332">
        <path
           d="m 8.5,0.5 h 60 v 20 h -60 v -8 -1 h -6 v 3 h -2 v -8 h 2 v 3 h 6 v -1 z"
           style="fill:#ffb2bc;fill-opacity:1;stroke:#601136;stroke-width:1;stroke-linecap:round;stroke-opacity:1"
           id="path326" />
        <text
           style="font-size:10px;font-family:sans-serif;text-anchor:start;fill:#000000"
           id="text330">
          <tspan
             x="13.333333"
             y="13.833333"
             id="tspan328">1</tspan>
        </text>
      </g>
    </g>
    <g
       transform="translate(826.22119,530)"
       id="g344">
      <g
         transform="scale(1.5)"
         id="g342">
        <path
           d="m 8.5,0.5 h 60 v 20 h -60 v -8 -1 h -6 v 3 h -2 v -8 h 2 v 3 h 6 v -1 z"
           style="fill:#ffb2bc;fill-opacity:1;stroke:#601136;stroke-width:1;stroke-linecap:round;stroke-opacity:1"
           id="path336" />
        <text
           style="font-size:10px;font-family:sans-serif;text-anchor:start;fill:#000000"
           id="text340">
          <tspan
             x="13.333333"
             y="13.833333"
             id="tspan338">4</tspan>
        </text>
      </g>
    </g>
    <g
       transform="translate(658,530)"
       id="g354">
      <g
         transform="scale(1.5)"
         id="g352">
        <path
           d="m 0.5,8.5 v -4 a 4,4 90 0 1 4,-4 h 4 v 2 h 10 v -2 h 20 4 a 4,4 90 0 1 4,4 v 4 4 4 a 4,4 90 0 1 -4,4 h -4 -20 -1 v 2 h -8 v -2 h -1 -4 a 4,4 90 0 1 -4,-4 v -4 z"
           style="fill:#d57e6f;fill-opacity:1;stroke:#000000;stroke-width:1;stroke-linecap:round;stroke-opacity:1"
           id="path346" />
        <text
           style="font-size:10px;font-family:sans-serif;text-anchor:end;fill:#000000"
           id="text350">
          <tspan
             x="36.333332"
             y="13.5"
             id="tspan348">↓</tspan>
        </text>
      </g>
    </g>
    <g
       transform="translate(658,561.5)"
       id="g368">
      <g
         transform="scale(1.5)"
         id="g366">
        <path
           d="m 0.5,8.5 v -4 a 4,4 90 0 1 4,-4 h 4 v 2 h 10 v -2 h 30 4 a 4,4 90 0 1 4,4 v 4 h -4 v -3 h -4 v 10 h 4 v -3 h 4 v 4 a 4,4 90 0 1 -4,4 h -4 -30 -1 v 2 h -8 v -2 h -1 -4 a 4,4 90 0 1 -4,-4 v -4 z"
           style="fill:#3ea4a3;fill-opacity:1;stroke:#000000;stroke-width:1;stroke-linecap:round;stroke-opacity:1"
           id="path356" />
        <text
           style="font-size:10px;font-family:sans-serif;text-anchor:end;fill:#000000"
           id="text360">
          <tspan
             x="46.333332"
             y="13.5"
             id="tspan358">drum</tspan>
        </text>
        <text
           style="font-size:6.66666651px;font-family:sans-serif;text-anchor:end;fill:#000000"
           id="text364">
          <tspan
             x="46.333332"
             y="11.25"
             id="tspan362" />
        </text>
      </g>
    </g>
    <g
       transform="translate(731.5,561.5)"
       id="g378">
      <g
         transform="scale(1.5)"
         id="g376">
        <path
           d="m 8.5,0.5 h 110 v 20 H 8.5 v -8 -1 h -6 v 3 h -2 v -8 h 2 v 3 h 6 v -1 z"
           style="fill:#3ea4a3;fill-opacity:1;stroke:#000000;stroke-width:1;stroke-linecap:round;stroke-opacity:1"
           id="path370" />
        <text
           style="font-size:10px;font-family:sans-serif;text-anchor:start;fill:#000000"
           id="text374">
          <tspan
             x="13.333333"
             y="13.833333"
             id="tspan372">triangle-bell</tspan>
        </text>
      </g>
    </g>
  </g>
  <g
     transform="translate(-160,-79.578463)"
     id="g1678">
    <g
       transform="translate(160,80)"
       id="g10">
      <g
         transform="scale(1.5)"
         id="g8">
        <path
           d="m 0.5,14.5 v -4 a 4,4 90 0 1 4,-4 h 4 l 5,-6 5,6 h 9 30 4 a 4,4 90 0 1 4,4 v 4 4 4 a 4,4 90 0 1 -4,4 h -4 -30 -1 v 2 h -8 v -2 h -1 -4 a 5,5 90 0 0 -5,5 v 4 4 189 4 a 5,5 90 0 0 5,5 h 4 v 2 h 10 v -2 h 8 v 6 6 4 a 4,4 90 0 1 -4,4 h -4 -9 l -5,6 -5,-6 h -4 a 4,4 90 0 1 -4,-4 v -4 z"
           style="fill:#ffe05c;fill-opacity:1;stroke:#644300;stroke-width:1;stroke-linecap:round;stroke-opacity:1"
           id="path2" />
        <text
           style="font-size:10px;font-family:sans-serif;text-anchor:start;fill:#000000"
           id="text6">
          <tspan
             x="5.3333335"
             y="21.5"
             id="tspan4">start</tspan>
        </text>
      </g>
    </g>
    <g
       transform="translate(173.5,120.5)"
       id="g396">
      <g
         transform="scale(1.5)"
         id="g394">
        <path
           d="m 0.5,8.5 v -4 a 4,4 90 0 1 4,-4 h 4 v 2 h 10 v -2 h 32.792969 4 a 4,4 90 0 1 4,4 v 4 h -4 v -3 h -4 v 10 h 4 v -3 h 4 v 17 h -4 v -3 h -4 v 10 h 4 v -3 h 4 v 4 a 4,4 90 0 1 -4,4 h -4 H 18.5 h -1 v 2 h -8 v -2 h -1 -4 a 4,4 90 0 1 -4,-4 v -4 -21 z"
           style="fill:#ff8b2d;fill-opacity:1;stroke:#520000;stroke-width:1;stroke-linecap:round;stroke-opacity:1"
           id="path380" />
        <text
           style="font-size:10px;font-family:sans-serif;text-anchor:end;fill:#000000"
           id="text384">
          <tspan
             x="49.126301"
             y="24"
             id="tspan382">store in</tspan>
        </text>
        <text
           style="font-size:6.66666651px;font-family:sans-serif;text-anchor:end;fill:#000000"
           id="text388">
          <tspan
             x="49.126301"
             y="11.25"
             id="tspan386">name</tspan>
        </text>
        <text
           style="font-size:6.66666651px;font-family:sans-serif;text-anchor:end;fill:#000000"
           id="text392">
          <tspan
             x="49.126301"
             y="32.25"
             id="tspan390">value</tspan>
        </text>
      </g>
    </g>
    <g
       transform="translate(251.18945,120.5)"
       id="g406">
      <g
         transform="scale(1.5)"
         id="g404">
        <path
           d="m 8.5,0.5 h 60 v 20 h -60 v -8 -1 h -6 v 3 h -2 v -8 h 2 v 3 h 6 v -1 z"
           style="fill:#76dbd7;fill-opacity:1;stroke:#003b41;stroke-width:1;stroke-linecap:round;stroke-opacity:1"
           id="path398" />
        <text
           style="font-size:10px;font-family:sans-serif;text-anchor:start;fill:#000000"
           id="text402">
          <tspan
             x="13.333333"
             y="13.833333"
             id="tspan400">box</tspan>
        </text>
      </g>
    </g>
    <g
       transform="translate(251.18945,152)"
       id="g416">
      <g
         transform="scale(1.5)"
         id="g414">
        <path
           d="m 8.5,0.5 h 60 v 20 h -60 v -8 -1 h -6 v 3 h -2 v -8 h 2 v 3 h 6 v -1 z"
           style="fill:#ffb2bc;fill-opacity:1;stroke:#601136;stroke-width:1;stroke-linecap:round;stroke-opacity:1"
           id="path408" />
        <text
           style="font-size:10px;font-family:sans-serif;text-anchor:start;fill:#000000"
           id="text412">
          <tspan
             x="13.333333"
             y="13.833333"
             id="tspan410">1</tspan>
        </text>
      </g>
    </g>
    <g
       transform="translate(173.5,183.5)"
       id="g430">
      <g
         transform="scale(1.5)"
         id="g428">
        <path
           d="m 0.5,8.5 v -4 a 4,4 90 0 1 4,-4 h 4 v 2 h 10 v -2 h 9 20 4 a 4,4 90 0 1 4,4 v 4 h -4 v -3 h -4 v 10 h 4 v -3 h 4 v 4 a 4,4 90 0 1 -4,4 h -4 -20 -1 v 2 h -8 v -2 h -1 -4 a 5,5 90 0 0 -5,5 v 4 4 105 4 a 5,5 90 0 0 5,5 h 4 v 2 h 10 v -2 h 8 v 6 6 4 a 4,4 90 0 1 -4,4 h -4 -9 -1 v 2 h -8 v -2 h -1 -4 a 4,4 90 0 1 -4,-4 v -4 z"
           style="fill:#e9a066;fill-opacity:1;stroke:#3f0a00;stroke-width:1;stroke-linecap:round;stroke-opacity:1"
           id="path418" />
        <text
           style="font-size:10px;font-family:sans-serif;text-anchor:start;fill:#000000"
           id="text422">
          <tspan
             x="5.3333335"
             y="15.25"
             id="tspan420">repeat</tspan>
        </text>
        <text
           style="font-size:6.66666651px;font-family:sans-serif;text-anchor:end;fill:#000000"
           id="text426">
          <tspan
             x="45.333332"
             y="11.25"
             id="tspan424" />
        </text>
      </g>
    </g>
    <g
       transform="translate(245.5,183.5)"
       id="g440">
      <g
         transform="scale(1.5)"
         id="g438">
        <path
           d="m 8.5,0.5 h 60 v 20 h -60 v -8 -1 h -6 v 3 h -2 v -8 h 2 v 3 h 6 v -1 z"
           style="fill:#ffb2bc;fill-opacity:1;stroke:#601136;stroke-width:1;stroke-linecap:round;stroke-opacity:1"
           id="path432" />
        <text
           style="font-size:10px;font-family:sans-serif;text-anchor:start;fill:#000000"
           id="text436">
          <tspan
             x="13.333333"
             y="13.833333"
             id="tspan434">4</tspan>
        </text>
      </g>
    </g>
    <g
       transform="translate(200.5,278)"
       id="g450">
      <g
         transform="scale(1.5)"
         id="g448">
        <path
           d="m 0.5,8.5 v -4 a 4,4 90 0 1 4,-4 h 4 v 2 h 10 v -2 h 40 4 a 4,4 90 0 1 4,4 v 4 4 4 a 4,4 90 0 1 -4,4 h -4 -40 -1 v 2 h -8 v -2 h -1 -4 a 4,4 90 0 1 -4,-4 v -4 z"
           style="fill:#ffe05c;fill-opacity:1;stroke:#644300;stroke-width:1;stroke-linecap:round;stroke-opacity:1"
           id="path442" />
        <text
           style="font-size:10px;font-family:sans-serif;text-anchor:end;fill:#000000"
           id="text446">
          <tspan
             x="56.333332"
             y="13.5"
             id="tspan444">actio...</tspan>
        </text>
      </g>
    </g>
    <g
       transform="translate(187,215)"
       id="g464">
      <g
         transform="scale(1.5)"
         id="g462">
        <path
           d="m 0.5,8.5 v -4 a 4,4 90 0 1 4,-4 h 4 v 2 h 10 v -2 h 9 72.82227 4 a 4,4 90 0 1 4,4 v 4 h -4 v -3 h -4 v 10 h 4 v -3 h 4 v 4 a 4,4 90 0 1 -4,4 h -4 H 27.5 h -1 v 2 h -8 v -2 h -1 -4 a 5,5 90 0 0 -5,5 v 4 4 21 4 a 5,5 90 0 0 5,5 h 4 v 2 h 10 v -2 h 8 v 6 6 4 a 4,4 90 0 1 -4,4 h -4 -9 -1 v 2 h -8 v -2 h -1 -4 a 4,4 90 0 1 -4,-4 v -4 z"
           style="fill:#ff8b2d;fill-opacity:1;stroke:#520000;stroke-width:1;stroke-linecap:round;stroke-opacity:1"
           id="path452" />
        <text
           style="font-size:10px;font-family:sans-serif;text-anchor:start;fill:#000000"
           id="text456">
          <tspan
             x="5.3333335"
             y="15.25"
             id="tspan454">multiply note value</tspan>
        </text>
        <text
           style="font-size:6.66666651px;font-family:sans-serif;text-anchor:end;fill:#000000"
           id="text460">
          <tspan
             x="98.155602"
             y="11.25"
             id="tspan458" />
        </text>
      </g>
    </g>
    <g
       transform="translate(338.2334,215)"
       id="g482">
      <g
         transform="scale(1.5)"
         id="g480">
        <path
           d="m 8.5,8.5 v -4 a 4,4 90 0 1 4,-4 h 4 10 30 4 a 4,4 90 0 1 4,4 v 4 h -4 v -3 h -4 v 10 h 4 v -3 h 4 v 17 h -4 v -3 h -4 v 10 h 4 v -3 h 4 v 4 a 4,4 90 0 1 -4,4 h -4 -30 -10 -4 a 4,4 90 0 1 -4,-4 v -4 -21 -1 h -6 v 3 h -2 v -8 h 2 v 3 h 6 z"
           style="fill:#ffb2bc;fill-opacity:1;stroke:#601136;stroke-width:1;stroke-linecap:round;stroke-opacity:1"
           id="path466" />
        <text
           style="font-size:14px;font-family:sans-serif;text-anchor:end;fill:#000000"
           id="text470">
          <tspan
             x="54.333332"
             y="23.799999"
             id="tspan468">/</tspan>
        </text>
        <text
           style="font-size:9.33333302px;font-family:sans-serif;text-anchor:end;fill:#000000"
           id="text474">
          <tspan
             x="54.333332"
             y="10.75"
             id="tspan472" />
        </text>
        <text
           style="font-size:9.33333302px;font-family:sans-serif;text-anchor:end;fill:#000000"
           id="text478">
          <tspan
             x="54.333332"
             y="31.75"
             id="tspan476" />
        </text>
      </g>
    </g>
    <g
       transform="translate(423.7334,215)"
       id="g492">
      <g
         transform="scale(1.5)"
         id="g490">
        <path
           d="m 8.5,0.5 h 60 v 20 h -60 v -8 -1 h -6 v 3 h -2 v -8 h 2 v 3 h 6 v -1 z"
           style="fill:#ffb2bc;fill-opacity:1;stroke:#601136;stroke-width:1;stroke-linecap:round;stroke-opacity:1"
           id="path484" />
        <text
           style="font-size:10px;font-family:sans-serif;text-anchor:start;fill:#000000"
           id="text488">
          <tspan
             x="13.333333"
             y="13.833333"
             id="tspan486">1</tspan>
        </text>
      </g>
    </g>
    <g
       transform="translate(200.5,246.5)"
       id="g502">
      <g
         transform="scale(1.5)"
         id="g500">
        <path
           d="m 0.5,8.5 v -4 a 4,4 90 0 1 4,-4 h 4 v 2 h 10 v -2 h 20 4 a 4,4 90 0 1 4,4 v 4 4 4 a 4,4 90 0 1 -4,4 h -4 -20 -1 v 2 h -8 v -2 h -1 -4 a 4,4 90 0 1 -4,-4 v -4 z"
           style="fill:#d57e6f;fill-opacity:1;stroke:#000000;stroke-width:1;stroke-linecap:round;stroke-opacity:1"
           id="path494" />
        <text
           style="font-size:10px;font-family:sans-serif;text-anchor:end;fill:#000000"
           id="text498">
          <tspan
             x="36.333332"
             y="13.5"
             id="tspan496">↓</tspan>
        </text>
      </g>
    </g>
    <g
       transform="translate(423.7334,246.5)"
       id="g512">
      <g
         transform="scale(1.5)"
         id="g510">
        <path
           d="m 8.5,0.5 h 80 v 20 h -80 v -8 -1 h -6 v 3 h -2 v -8 h 2 v 3 h 6 v -1 z"
           style="fill:#ff8b2d;fill-opacity:1;stroke:#520000;stroke-width:1;stroke-linecap:round;stroke-opacity:1"
           id="path504" />
        <text
           style="font-size:10px;font-family:sans-serif;text-anchor:start;fill:#000000"
           id="text508">
          <tspan
             x="13.333333"
             y="13.833333"
             id="tspan506">box</tspan>
        </text>
      </g>
    </g>
    <g
       transform="translate(187,341)"
       id="g526">
      <g
         transform="scale(1.5)"
         id="g524">
        <path
           d="m 0.5,8.5 v -4 a 4,4 90 0 1 4,-4 h 4 v 2 h 10 v -2 h 51.694336 4 a 4,4 90 0 1 4,4 v 4 h -4 v -3 h -4 v 10 h 4 v -3 h 4 v 4 a 4,4 90 0 1 -4,4 h -4 H 18.5 h -1 v 2 h -8 v -2 h -1 -4 a 4,4 90 0 1 -4,-4 v -4 z"
           style="fill:#ff8b2d;fill-opacity:1;stroke:#520000;stroke-width:1;stroke-linecap:round;stroke-opacity:1"
           id="path514" />
        <text
           style="font-size:10px;font-family:sans-serif;text-anchor:end;fill:#000000"
           id="text518">
          <tspan
             x="68.027672"
             y="13.5"
             id="tspan516">box</tspan>
        </text>
        <text
           style="font-size:6.66666651px;font-family:sans-serif;text-anchor:end;fill:#000000"
           id="text522">
          <tspan
             x="68.027672"
             y="11.25"
             id="tspan520" />
        </text>
      </g>
    </g>
    <g
       transform="translate(378.5415,341)"
       id="g536">
      <g
         transform="scale(1.5)"
         id="g534">
        <path
           d="m 8.5,0.5 h 80 v 20 h -80 v -8 -1 h -6 v 3 h -2 v -8 h 2 v 3 h 6 v -1 z"
           style="fill:#ff8b2d;fill-opacity:1;stroke:#520000;stroke-width:1;stroke-linecap:round;stroke-opacity:1"
           id="path528" />
        <text
           style="font-size:10px;font-family:sans-serif;text-anchor:start;fill:#000000"
           id="text532">
          <tspan
             x="13.333333"
             y="13.833333"
             id="tspan530">box</tspan>
        </text>
      </g>
    </g>
    <g
       transform="translate(293.0415,341)"
       id="g554">
      <g
         transform="scale(1.5)"
         id="g552">
        <path
           d="m 8.5,8.5 v -4 a 4,4 90 0 1 4,-4 h 4 10 30 4 a 4,4 90 0 1 4,4 v 4 h -4 v -3 h -4 v 10 h 4 v -3 h 4 v 17 h -4 v -3 h -4 v 10 h 4 v -3 h 4 v 4 a 4,4 90 0 1 -4,4 h -4 -30 -10 -4 a 4,4 90 0 1 -4,-4 v -4 -21 -1 h -6 v 3 h -2 v -8 h 2 v 3 h 6 z"
           style="fill:#ffb2bc;fill-opacity:1;stroke:#601136;stroke-width:1;stroke-linecap:round;stroke-opacity:1"
           id="path538" />
        <text
           style="font-size:14px;font-family:sans-serif;text-anchor:end;fill:#000000"
           id="text542">
          <tspan
             x="54.333332"
             y="23.799999"
             id="tspan540">×</tspan>
        </text>
        <text
           style="font-size:9.33333302px;font-family:sans-serif;text-anchor:end;fill:#000000"
           id="text546">
          <tspan
             x="54.333332"
             y="10.75"
             id="tspan544" />
        </text>
        <text
           style="font-size:9.33333302px;font-family:sans-serif;text-anchor:end;fill:#000000"
           id="text550">
          <tspan
             x="54.333332"
             y="31.75"
             id="tspan548" />
        </text>
      </g>
    </g>
    <g
       transform="translate(378.5415,372.5)"
       id="g564">
      <g
         transform="scale(1.5)"
         id="g562">
        <path
           d="m 8.5,0.5 h 60 v 20 h -60 v -8 -1 h -6 v 3 h -2 v -8 h 2 v 3 h 6 v -1 z"
           style="fill:#ffb2bc;fill-opacity:1;stroke:#601136;stroke-width:1;stroke-linecap:round;stroke-opacity:1"
           id="path556" />
        <text
           style="font-size:10px;font-family:sans-serif;text-anchor:start;fill:#000000"
           id="text560">
          <tspan
             x="13.333333"
             y="13.833333"
             id="tspan558">2</tspan>
        </text>
      </g>
    </g>
    <g
       transform="translate(187,372.5)"
       id="g574">
      <g
         transform="scale(1.5)"
         id="g572">
        <path
           d="m 0.5,8.5 v -4 a 4,4 90 0 1 4,-4 h 4 v 2 h 10 v -2 h 20 4 a 4,4 90 0 1 4,4 v 4 4 4 a 4,4 90 0 1 -4,4 h -4 -20 -1 v 2 h -8 v -2 h -1 -4 a 4,4 90 0 1 -4,-4 v -4 z"
           style="fill:#d57e6f;fill-opacity:1;stroke:#000000;stroke-width:1;stroke-linecap:round;stroke-opacity:1"
           id="path566" />
        <text
           style="font-size:10px;font-family:sans-serif;text-anchor:end;fill:#000000"
           id="text570">
          <tspan
             x="36.333332"
             y="13.5"
             id="tspan568">↓</tspan>
        </text>
      </g>
    </g>
  </g>
</svg>
