<?xml version="1.0" encoding="UTF-8" standalone="no"?>
<svg
   xmlns:dc="http://purl.org/dc/elements/1.1/"
   xmlns:cc="http://creativecommons.org/ns#"
   xmlns:rdf="http://www.w3.org/1999/02/22-rdf-syntax-ns#"
   xmlns:svg="http://www.w3.org/2000/svg"
   xmlns="http://www.w3.org/2000/svg"
   width="203.70505"
   height="431.10287"
   viewBox="0 0 203.70505 431.10288"
   id="svg5587"
   version="1.1">
  <defs
     id="defs5589" />
  <metadata
     id="metadata5592">
    <rdf:RDF>
      <cc:Work
         rdf:about="">
        <dc:format>image/svg+xml</dc:format>
        <dc:type
           rdf:resource="http://purl.org/dc/dcmitype/StillImage" />
        <dc:title></dc:title>
      </cc:Work>
    </rdf:RDF>
  </metadata>
  <path
     d="m 0.703125,20.785816 v -5.625 a 5.625,5.625 0 0 1 5.625,-5.6249996 h 5.625 l 7.03125,-8.4375 7.03125,8.4375 h 12.65625 49.21875 5.625 a 5.625,5.625 0 0 1 5.625,5.6249996 v 5.625 h -5.625 v -4.21875 h -5.625 v 14.0625 h 5.625 v -4.21875 h 5.625 v 5.625 a 5.625,5.625 0 0 1 -5.625,5.625 h -5.625 -49.21875 -1.40625 v 2.8125 h -11.25 v -2.8125 h -1.40625 -5.625 a 7.03125,7.03125 0 0 0 -7.03125,7.03125 v 5.625 5.625 324.843754 5.625 a 7.03125,7.03125 0 0 0 7.03125,7.03125 h 5.625 v 2.8125 h 14.0625 v -2.8125 h 11.25 v 8.4375 8.4375 5.625 a 5.625,5.625 0 0 1 -5.625,5.625 h -5.625 -12.65625 l -7.03125,8.4375 -7.03125,-8.4375 h -5.625 a 5.625,5.625 0 0 1 -5.625,-5.625 v -5.625 z"
     style="fill:#ffbf00;fill-opacity:1;stroke:#daaf30;stroke-width:1.40625;stroke-linecap:round;stroke-opacity:1"
     id="path1164" />
  <text
     y="0.39519134"
     style="font-size:14.0625px;font-family:sans-serif;text-anchor:start;fill:#000000;stroke-width:1.40625"
     id="text1168">
    <tspan
       style="stroke-width:1.40625"
       x="7.5"
       y="30.629566"
       id="tspan1166">action</tspan>
  </text>
  <text
     y="0.39519134"
     style="font-size:9.375px;font-family:sans-serif;text-anchor:end;fill:#000000;stroke-width:1.40625"
     id="text1172">
    <tspan
       style="stroke-width:1.40625"
       x="84.84375"
       y="7.7780037"
       id="tspan1170" />
  </text>
  <path
     d="m 100.54689,9.5358164 h 84.37499 V 37.660816 h -84.37499 v -11.25 -1.40625 h -8.437505 v 4.21875 h -2.8125 v -11.25 h 2.8125 v 4.21875 h 8.437505 v -1.40625 z"
     style="fill:#ff6648;fill-opacity:1;stroke:#ea4326;stroke-width:1.40625;stroke-linecap:round;stroke-opacity:1"
     id="path1178" />
  <text
     y="8.8326912"
     x="88.593758"
     style="font-size:14.0625px;font-family:sans-serif;text-anchor:start;fill:#000000;stroke-width:1.40625"
     id="text1182">
    <tspan
       style="stroke-width:1.40625"
       x="107.34376"
       y="28.285816"
       id="tspan1180">drums</tspan>
  </text>
  <path
     d="m 13.359375,50.317066 v -5.625 a 5.625,5.625 0 0 1 5.625,-5.625 h 5.625 v 2.8125 h 14.0625 v -2.8125 h 12.65625 40.642547 5.625 a 5.625,5.625 0 0 1 5.624998,5.625 v 5.625 h -5.624998 v -4.21875 h -5.625 v 14.0625 h 5.625 v -4.21875 h 5.624998 v 5.625 a 5.625,5.625 0 0 1 -5.624998,5.625 h -5.625 -40.642547 -1.40625 v 2.8125 h -11.25 v -2.8125 h -1.40625 -5.625 a 7.03125,7.03125 0 0 0 -7.03125,7.03125 v 5.625 5.625 29.531254 5.625 a 7.03125,7.03125 0 0 0 7.03125,7.03125 h 5.625 v 2.8125 h 14.0625 v -2.8125 h 11.25 v 8.4375 8.4375 5.625 a 5.625,5.625 0 0 1 -5.625,5.625 h -5.625 -12.65625 -1.40625 v 2.8125 h -11.25 v -2.8125 h -1.40625 -5.625 a 5.625,5.625 0 0 1 -5.625,-5.625 v -5.625 z"
     style="fill:#3edcdd;fill-opacity:1;stroke:#1dbcbd;stroke-width:1.40625;stroke-linecap:round;stroke-opacity:1"
     id="path1188" />
  <text
     y="38.363941"
     x="12.65625"
     style="font-size:14.0625px;font-family:sans-serif;text-anchor:start;fill:#000000;stroke-width:1.40625"
     id="text1192">
    <tspan
       style="stroke-width:1.40625"
       x="20.15625"
       y="59.809254"
       id="tspan1190">set drum</tspan>
  </text>
  <text
     y="38.363941"
     x="12.65625"
     style="font-size:9.375px;font-family:sans-serif;text-anchor:end;fill:#000000;stroke-width:1.40625"
     id="text1196">
    <tspan
       style="stroke-width:1.40625"
       x="88.923798"
       y="54.184254"
       id="tspan1194" />
  </text>
  <path
     d="m 104.62693,39.067066 h 84.37499 v 28.125 h -84.37499 v -11.25 -1.40625 h -8.437505 v 4.21875 h -2.8125 v -11.25 h 2.8125 v 4.21875 h 8.437505 v -1.40625 z"
     style="fill:#3edcdd;fill-opacity:1;stroke:#1dbcbd;stroke-width:1.40625;stroke-linecap:round;stroke-opacity:1"
     id="path1202" />
  <text
     y="38.363941"
     x="92.673798"
     style="font-size:14.0625px;font-family:sans-serif;text-anchor:start;fill:#000000;stroke-width:1.40625"
     id="text1206">
    <tspan
       style="stroke-width:1.40625"
       x="111.4238"
       y="57.817066"
       id="tspan1204">kick drum</tspan>
  </text>
  <path
     d="m 26.015625,79.848316 v -5.625 a 5.625,5.625 0 0 1 5.625,-5.625 h 5.625 v 2.8125 h 14.0625 v -2.8125 h 42.1875 5.625 a 5.625,5.625 0 0 1 5.625005,5.625 v 5.625 h -5.625005 v -4.21875 h -5.625 v 14.0625 h 5.625 v -4.21875 h 5.625005 v 23.906254 h -5.625005 v -4.21875 h -5.625 v 14.0625 h 5.625 v -4.21875 h 5.625005 v 5.625 a 5.625,5.625 0 0 1 -5.625005,5.625 h -5.625 -42.1875 -1.40625 v 2.8125 h -11.25 v -2.8125 h -1.40625 -5.625 a 5.625,5.625 0 0 1 -5.625,-5.625 v -5.625 -29.531254 z"
     style="fill:#7cd622;fill-opacity:1;stroke:#57ad02;stroke-width:1.40625;stroke-linecap:round;stroke-opacity:1"
     id="path1212" />
  <text
     y="67.895187"
     x="25.3125"
     style="font-size:14.0625px;font-family:sans-serif;text-anchor:end;fill:#000000;stroke-width:1.40625"
     id="text1216">
    <tspan
       style="stroke-width:1.40625"
       x="90.46875"
       y="101.64519"
       id="tspan1214">pitch</tspan>
  </text>
  <text
     y="67.895187"
     x="25.3125"
     style="font-size:9.375px;font-family:sans-serif;text-anchor:end;fill:#000000;stroke-width:1.40625"
     id="text1220">
    <tspan
       style="stroke-width:1.40625"
       x="90.46875"
       y="83.7155"
       id="tspan1218">name</tspan>
  </text>
  <text
     y="67.895187"
     x="25.3125"
     style="font-size:9.375px;font-family:sans-serif;text-anchor:end;fill:#000000;stroke-width:1.40625"
     id="text1224">
    <tspan
       style="stroke-width:1.40625"
       x="90.46875"
       y="113.24675"
       id="tspan1222">octave</tspan>
  </text>
  <path
     d="m 106.17189,68.598316 h 84.37499 v 28.125 h -84.37499 v -11.25 -1.40625 h -8.437505 v 4.21875 h -2.8125 v -11.25 h 2.8125 v 4.21875 h 8.437505 v -1.40625 z"
     style="fill:#7cd622;fill-opacity:1;stroke:#57ad02;stroke-width:1.40625;stroke-linecap:round;stroke-opacity:1"
     id="path1230" />
  <text
     y="67.895187"
     x="94.218758"
     style="font-size:14.0625px;font-family:sans-serif;text-anchor:start;fill:#000000;stroke-width:1.40625"
     id="text1234">
    <tspan
       style="stroke-width:1.40625"
       x="112.96876"
       y="87.348312"
       id="tspan1232">sol</tspan>
  </text>
  <path
     d="m 106.17189,98.129566 h 84.37499 v 28.125004 h -84.37499 v -11.25 -1.40625 h -8.437505 v 4.21875 h -2.8125 v -11.25 h 2.8125 v 4.21875 h 8.437505 v -1.40625 z"
     style="fill:#ff6ea1;fill-opacity:1;stroke:#ff2c76;stroke-width:1.40625;stroke-linecap:round;stroke-opacity:1"
     id="path1240" />
  <text
     y="97.426437"
     x="94.218758"
     style="font-size:14.0625px;font-family:sans-serif;text-anchor:start;fill:#000000;stroke-width:1.40625"
     id="text1244">
    <tspan
       style="stroke-width:1.40625"
       x="112.96876"
       y="116.87956"
       id="tspan1242">4</tspan>
  </text>
  <path
     d="m 13.359375,168.44207 v -5.625 a 5.625,5.625 0 0 1 5.625,-5.625 h 5.625 v 2.8125 h 14.0625 v -2.8125 h 12.65625 40.642547 5.625 a 5.625,5.625 0 0 1 5.624998,5.625 v 5.625 h -5.624998 v -4.21875 h -5.625 v 14.0625 h 5.625 v -4.21875 h 5.624998 v 5.625 a 5.625,5.625 0 0 1 -5.624998,5.625 h -5.625 -40.642547 -1.40625 v 2.8125 h -11.25 v -2.8125 h -1.40625 -5.625 a 7.03125,7.03125 0 0 0 -7.03125,7.03125 v 5.625 5.625 29.53125 5.625 a 7.03125,7.03125 0 0 0 7.03125,7.03125 h 5.625 v 2.8125 h 14.0625 v -2.8125 h 11.25 v 8.4375 8.4375 5.625 a 5.625,5.625 0 0 1 -5.625,5.625 h -5.625 -12.65625 -1.40625 v 2.8125 h -11.25 v -2.8125 h -1.40625 -5.625 a 5.625,5.625 0 0 1 -5.625,-5.625 v -5.625 z"
     style="fill:#3edcdd;fill-opacity:1;stroke:#1dbcbd;stroke-width:1.40625;stroke-linecap:round;stroke-opacity:1"
     id="path1250" />
  <text
     y="156.48894"
     x="12.65625"
     style="font-size:14.0625px;font-family:sans-serif;text-anchor:start;fill:#000000;stroke-width:1.40625"
     id="text1254">
    <tspan
       style="stroke-width:1.40625"
       x="20.15625"
       y="177.93425"
       id="tspan1252">set drum</tspan>
  </text>
  <text
     y="156.48894"
     x="12.65625"
     style="font-size:9.375px;font-family:sans-serif;text-anchor:end;fill:#000000;stroke-width:1.40625"
     id="text1258">
    <tspan
       style="stroke-width:1.40625"
       x="88.923798"
       y="172.30925"
       id="tspan1256" />
  </text>
  <path
     d="m 104.62693,157.19207 h 98.37499 v 28.125 h -98.37499 v -11.25 -1.40625 h -8.437505 v 4.21875 h -2.8125 v -11.25 h 2.8125 v 4.21875 h 8.437505 v -1.40625 z"
     style="fill:#3edcdd;fill-opacity:1;stroke:#1dbcbd;stroke-width:1.40625;stroke-linecap:round;stroke-opacity:1"
     id="path1264" />
  <text
     y="156.48894"
     x="92.673798"
     style="font-size:14.0625px;font-family:sans-serif;text-anchor:start;fill:#000000;stroke-width:1.40625"
     id="text1268">
    <tspan
       style="stroke-width:1.40625"
       x="111.4238"
       y="175.94206"
       id="tspan1266">snare drum</tspan>
  </text>
  <path
     d="m 26.015625,197.97332 v -5.625 a 5.625,5.625 0 0 1 5.625,-5.625 h 5.625 v 2.8125 h 14.0625 v -2.8125 h 42.1875 5.625 a 5.625,5.625 0 0 1 5.625005,5.625 v 5.625 h -5.625005 v -4.21875 h -5.625 v 14.0625 h 5.625 v -4.21875 h 5.625005 v 23.90625 h -5.625005 v -4.21875 h -5.625 v 14.0625 h 5.625 v -4.21875 h 5.625005 v 5.625 a 5.625,5.625 0 0 1 -5.625005,5.625 h -5.625 -42.1875 -1.40625 v 2.8125 h -11.25 v -2.8125 h -1.40625 -5.625 a 5.625,5.625 0 0 1 -5.625,-5.625 v -5.625 -29.53125 z"
     style="fill:#7cd622;fill-opacity:1;stroke:#57ad02;stroke-width:1.40625;stroke-linecap:round;stroke-opacity:1"
     id="path1274" />
  <text
     y="186.02019"
     x="25.3125"
     style="font-size:14.0625px;font-family:sans-serif;text-anchor:end;fill:#000000;stroke-width:1.40625"
     id="text1278">
    <tspan
       style="stroke-width:1.40625"
       x="90.46875"
       y="219.77019"
       id="tspan1276">pitch</tspan>
  </text>
  <text
     y="186.02019"
     x="25.3125"
     style="font-size:9.375px;font-family:sans-serif;text-anchor:end;fill:#000000;stroke-width:1.40625"
     id="text1282">
    <tspan
       style="stroke-width:1.40625"
       x="90.46875"
       y="201.8405"
       id="tspan1280">name</tspan>
  </text>
  <text
     y="186.02019"
     x="25.3125"
     style="font-size:9.375px;font-family:sans-serif;text-anchor:end;fill:#000000;stroke-width:1.40625"
     id="text1286">
    <tspan
       style="stroke-width:1.40625"
       x="90.46875"
       y="231.37175"
       id="tspan1284">octave</tspan>
  </text>
  <path
     d="m 106.17189,186.72332 h 84.37499 v 28.125 h -84.37499 v -11.25 -1.40625 h -8.437505 v 4.21875 h -2.8125 v -11.25 h 2.8125 v 4.21875 h 8.437505 v -1.40625 z"
     style="fill:#7cd622;fill-opacity:1;stroke:#57ad02;stroke-width:1.40625;stroke-linecap:round;stroke-opacity:1"
     id="path1292" />
  <text
     y="186.02019"
     x="94.218758"
     style="font-size:14.0625px;font-family:sans-serif;text-anchor:start;fill:#000000;stroke-width:1.40625"
     id="text1296">
    <tspan
       style="stroke-width:1.40625"
       x="112.96876"
       y="205.47331"
       id="tspan1294">mi</tspan>
  </text>
  <path
     d="m 106.17189,216.25457 h 84.37499 v 28.125 h -84.37499 v -11.25 -1.40625 h -8.437505 v 4.21875 h -2.8125 v -11.25 h 2.8125 v 4.21875 h 8.437505 v -1.40625 z"
     style="fill:#ff6ea1;fill-opacity:1;stroke:#ff2c76;stroke-width:1.40625;stroke-linecap:round;stroke-opacity:1"
     id="path1302" />
  <text
     y="215.55145"
     x="94.218758"
     style="font-size:14.0625px;font-family:sans-serif;text-anchor:start;fill:#000000;stroke-width:1.40625"
     id="text1306">
    <tspan
       style="stroke-width:1.40625"
       x="112.96876"
       y="235.00458"
       id="tspan1304">4</tspan>
  </text>
  <path
     d="m 13.359375,286.56707 v -5.625 a 5.625,5.625 0 0 1 5.625,-5.625 h 5.625 v 2.8125 h 14.0625 v -2.8125 h 12.65625 40.642547 5.625 a 5.625,5.625 0 0 1 5.624998,5.625 v 5.625 h -5.624998 v -4.21875 h -5.625 v 14.0625 h 5.625 v -4.21875 h 5.624998 v 5.625 a 5.625,5.625 0 0 1 -5.624998,5.625 h -5.625 -40.642547 -1.40625 v 2.8125 h -11.25 v -2.8125 h -1.40625 -5.625 a 7.03125,7.03125 0 0 0 -7.03125,7.03125 v 5.625 5.625 29.53125 5.625 a 7.03125,7.03125 0 0 0 7.03125,7.03125 h 5.625 v 2.8125 h 14.0625 v -2.8125 h 11.25 v 8.4375 8.4375 5.625 a 5.625,5.625 0 0 1 -5.625,5.625 h -5.625 -12.65625 -1.40625 v 2.8125 h -11.25 v -2.8125 h -1.40625 -5.625 a 5.625,5.625 0 0 1 -5.625,-5.625 v -5.625 z"
     style="fill:#3edcdd;fill-opacity:1;stroke:#1dbcbd;stroke-width:1.40625;stroke-linecap:round;stroke-opacity:1"
     id="path1312" />
  <text
     y="274.61395"
     x="12.65625"
     style="font-size:14.0625px;font-family:sans-serif;text-anchor:start;fill:#000000;stroke-width:1.40625"
     id="text1316">
    <tspan
       style="stroke-width:1.40625"
       x="20.15625"
       y="296.05927"
       id="tspan1314">set drum</tspan>
  </text>
  <text
     y="274.61395"
     x="12.65625"
     style="font-size:9.375px;font-family:sans-serif;text-anchor:end;fill:#000000;stroke-width:1.40625"
     id="text1320">
    <tspan
       style="stroke-width:1.40625"
       x="88.923798"
       y="290.43427"
       id="tspan1318" />
  </text>
  <path
     d="m 104.62693,275.31707 h 84.37499 v 28.125 h -84.37499 v -11.25 -1.40625 h -8.437505 v 4.21875 h -2.8125 v -11.25 h 2.8125 v 4.21875 h 8.437505 v -1.40625 z"
     style="fill:#3edcdd;fill-opacity:1;stroke:#1dbcbd;stroke-width:1.40625;stroke-linecap:round;stroke-opacity:1"
     id="path1326" />
  <text
     y="274.61395"
     x="92.673798"
     style="font-size:14.0625px;font-family:sans-serif;text-anchor:start;fill:#000000;stroke-width:1.40625"
     id="text1330">
    <tspan
       style="stroke-width:1.40625"
       x="111.4238"
       y="294.06708"
       id="tspan1328">ride bell</tspan>
  </text>
  <path
     d="m 26.015625,316.09832 v -5.625 a 5.625,5.625 0 0 1 5.625,-5.625 h 5.625 v 2.8125 h 14.0625 v -2.8125 h 42.1875 5.625 a 5.625,5.625 0 0 1 5.625005,5.625 v 5.625 h -5.625005 v -4.21875 h -5.625 v 14.0625 h 5.625 v -4.21875 h 5.625005 v 23.90625 h -5.625005 v -4.21875 h -5.625 v 14.0625 h 5.625 v -4.21875 h 5.625005 v 5.625 a 5.625,5.625 0 0 1 -5.625005,5.625 h -5.625 -42.1875 -1.40625 v 2.8125 h -11.25 v -2.8125 h -1.40625 -5.625 a 5.625,5.625 0 0 1 -5.625,-5.625 v -5.625 -29.53125 z"
     style="fill:#7cd622;fill-opacity:1;stroke:#57ad02;stroke-width:1.40625;stroke-linecap:round;stroke-opacity:1"
     id="path1336" />
  <text
     y="304.1452"
     x="25.3125"
     style="font-size:14.0625px;font-family:sans-serif;text-anchor:end;fill:#000000;stroke-width:1.40625"
     id="text1340">
    <tspan
       style="stroke-width:1.40625"
       x="90.46875"
       y="337.8952"
       id="tspan1338">pitch</tspan>
  </text>
  <text
     y="304.1452"
     x="25.3125"
     style="font-size:9.375px;font-family:sans-serif;text-anchor:end;fill:#000000;stroke-width:1.40625"
     id="text1344">
    <tspan
       style="stroke-width:1.40625"
       x="90.46875"
       y="319.96552"
       id="tspan1342">name</tspan>
  </text>
  <text
     y="304.1452"
     x="25.3125"
     style="font-size:9.375px;font-family:sans-serif;text-anchor:end;fill:#000000;stroke-width:1.40625"
     id="text1348">
    <tspan
       style="stroke-width:1.40625"
       x="90.46875"
       y="349.49677"
       id="tspan1346">octave</tspan>
  </text>
  <path
     d="m 106.17189,304.84832 h 84.37499 v 28.125 h -84.37499 v -11.25 -1.40625 h -8.437505 v 4.21875 h -2.8125 v -11.25 h 2.8125 v 4.21875 h 8.437505 v -1.40625 z"
     style="fill:#7cd622;fill-opacity:1;stroke:#57ad02;stroke-width:1.40625;stroke-linecap:round;stroke-opacity:1"
     id="path1354" />
  <text
     y="304.1452"
     x="94.218758"
     style="font-size:14.0625px;font-family:sans-serif;text-anchor:start;fill:#000000;stroke-width:1.40625"
     id="text1358">
    <tspan
       style="stroke-width:1.40625"
       x="112.96876"
       y="323.59833"
       id="tspan1356">re</tspan>
  </text>
  <path
     d="m 106.17189,334.37957 h 84.37499 v 28.125 h -84.37499 v -11.25 -1.40625 h -8.437505 v 4.21875 h -2.8125 v -11.25 h 2.8125 v 4.21875 h 8.437505 v -1.40625 z"
     style="fill:#ff6ea1;fill-opacity:1;stroke:#ff2c76;stroke-width:1.40625;stroke-linecap:round;stroke-opacity:1"
     id="path1364" />
  <text
     y="333.67645"
     x="94.218758"
     style="font-size:14.0625px;font-family:sans-serif;text-anchor:start;fill:#000000;stroke-width:1.40625"
     id="text1368">
    <tspan
       style="stroke-width:1.40625"
       x="112.96876"
       y="353.12958"
       id="tspan1366">4</tspan>
  </text>
</svg>
