<?xml version="1.0" encoding="UTF-8" standalone="no"?>
<svg
   xmlns:dc="http://purl.org/dc/elements/1.1/"
   xmlns:cc="http://creativecommons.org/ns#"
   xmlns:rdf="http://www.w3.org/1999/02/22-rdf-syntax-ns#"
   xmlns:svg="http://www.w3.org/2000/svg"
   xmlns="http://www.w3.org/2000/svg"
   version="1.1"
   id="svg3445"
   viewBox="0 0 442.00001 177.99996"
   height="50.235546mm"
   width="124.74223mm">
  <defs
     id="defs3447" />
  <metadata
     id="metadata3450">
    <rdf:RDF>
      <cc:Work
         rdf:about="">
        <dc:format>image/svg+xml</dc:format>
        <dc:type
           rdf:resource="http://purl.org/dc/dcmitype/StillImage" />
        <dc:title></dc:title>
      </cc:Work>
    </rdf:RDF>
  </metadata>
  <g
     transform="translate(0,-474.36221)"
     id="layer1">
    <rect
       y="474.36221"
       x="102"
       height="34"
       width="100"
       id="rect3453"
       style="opacity:1;fill:#c374e9;fill-opacity:1;fill-rule:nonzero;stroke:none;stroke-width:3;stroke-linecap:round;stroke-linejoin:round;stroke-miterlimit:4;stroke-dasharray:none;stroke-dashoffset:0;stroke-opacity:1" />
    <rect
       y="474.36221"
       x="0"
       height="34"
       width="100"
       id="rect3453-4"
       style="opacity:1;fill:#90c100;fill-opacity:1;fill-rule:nonzero;stroke:none;stroke-width:3;stroke-linecap:round;stroke-linejoin:round;stroke-miterlimit:4;stroke-dasharray:none;stroke-dashoffset:0;stroke-opacity:1" />
    <rect
       y="582.36218"
       x="102"
       height="34"
       width="100"
       id="rect3453-6"
       style="opacity:1;fill:#b1db00;fill-opacity:1;fill-rule:nonzero;stroke:none;stroke-width:3;stroke-linecap:round;stroke-linejoin:round;stroke-miterlimit:4;stroke-dasharray:none;stroke-dashoffset:0;stroke-opacity:1" />
    <rect
       y="618.36218"
       x="102"
       height="34"
       width="100"
       id="rect3453-5"
       style="opacity:1;fill:#c8c8c8;fill-opacity:1;fill-rule:nonzero;stroke:none;stroke-width:3;stroke-linecap:round;stroke-linejoin:round;stroke-miterlimit:4;stroke-dasharray:none;stroke-dashoffset:0;stroke-opacity:1" />
    <rect
       y="474.36221"
       x="306"
       height="34"
       width="100"
       id="rect3453-63"
       style="opacity:1;fill:#c374e9;fill-opacity:1;fill-rule:nonzero;stroke:none;stroke-width:3;stroke-linecap:round;stroke-linejoin:round;stroke-miterlimit:4;stroke-dasharray:none;stroke-dashoffset:0;stroke-opacity:1" />
    <rect
       y="474.36221"
       x="204"
       height="34"
       width="100"
       id="rect3453-8"
       style="opacity:1;fill:#c374e9;fill-opacity:1;fill-rule:nonzero;stroke:none;stroke-width:3;stroke-linecap:round;stroke-linejoin:round;stroke-miterlimit:4;stroke-dasharray:none;stroke-dashoffset:0;stroke-opacity:1" />
    <rect
       y="618.36218"
       x="204"
       height="34"
       width="100"
       id="rect3453-5-6"
       style="opacity:1;fill:#c8c8c8;fill-opacity:1;fill-rule:nonzero;stroke:none;stroke-width:3;stroke-linecap:round;stroke-linejoin:round;stroke-miterlimit:4;stroke-dasharray:none;stroke-dashoffset:0;stroke-opacity:1" />
    <rect
       y="618.36218"
       x="306"
       height="34"
       width="100"
       id="rect3453-5-0"
       style="opacity:1;fill:#c8c8c8;fill-opacity:1;fill-rule:nonzero;stroke:none;stroke-width:3;stroke-linecap:round;stroke-linejoin:round;stroke-miterlimit:4;stroke-dasharray:none;stroke-dashoffset:0;stroke-opacity:1" />
    <rect
       y="546.36218"
       x="102"
       height="34"
       width="100"
       id="rect3453-6-6"
       style="opacity:1;fill:#b1db00;fill-opacity:1;fill-rule:nonzero;stroke:none;stroke-width:3;stroke-linecap:round;stroke-linejoin:round;stroke-miterlimit:4;stroke-dasharray:none;stroke-dashoffset:0;stroke-opacity:1" />
    <rect
       y="510.36221"
       x="102"
       height="34"
       width="100"
       id="rect3453-6-5"
       style="opacity:1;fill:#b1db00;fill-opacity:1;fill-rule:nonzero;stroke:none;stroke-width:3;stroke-linecap:round;stroke-linejoin:round;stroke-miterlimit:4;stroke-dasharray:none;stroke-dashoffset:0;stroke-opacity:1" />
    <rect
       y="510.36221"
       x="204"
       height="34"
       width="100"
       id="rect3453-6-8"
       style="opacity:1;fill:#b1db00;fill-opacity:1;fill-rule:nonzero;stroke:none;stroke-width:3;stroke-linecap:round;stroke-linejoin:round;stroke-miterlimit:4;stroke-dasharray:none;stroke-dashoffset:0;stroke-opacity:1" />
    <rect
       y="546.36218"
       x="204"
       height="34"
       width="100"
       id="rect3453-6-3"
       style="opacity:1;fill:#b1db00;fill-opacity:1;fill-rule:nonzero;stroke:none;stroke-width:3;stroke-linecap:round;stroke-linejoin:round;stroke-miterlimit:4;stroke-dasharray:none;stroke-dashoffset:0;stroke-opacity:1" />
    <rect
       y="582.36218"
       x="204"
       height="34"
       width="100"
       id="rect3453-6-81"
       style="opacity:1;fill:#b1db00;fill-opacity:1;fill-rule:nonzero;stroke:none;stroke-width:3;stroke-linecap:round;stroke-linejoin:round;stroke-miterlimit:4;stroke-dasharray:none;stroke-dashoffset:0;stroke-opacity:1" />
    <rect
       y="510.36221"
       x="306"
       height="34"
       width="100"
       id="rect3453-6-82"
       style="opacity:1;fill:#b1db00;fill-opacity:1;fill-rule:nonzero;stroke:none;stroke-width:3;stroke-linecap:round;stroke-linejoin:round;stroke-miterlimit:4;stroke-dasharray:none;stroke-dashoffset:0;stroke-opacity:1" />
    <rect
       y="546.36218"
       x="306"
       height="34"
       width="100"
       id="rect3453-6-9"
       style="opacity:1;fill:#b1db00;fill-opacity:1;fill-rule:nonzero;stroke:none;stroke-width:3;stroke-linecap:round;stroke-linejoin:round;stroke-miterlimit:4;stroke-dasharray:none;stroke-dashoffset:0;stroke-opacity:1" />
    <rect
       y="582.36218"
       x="306"
       height="34"
       width="100"
       id="rect3453-6-90"
       style="opacity:1;fill:#b1db00;fill-opacity:1;fill-rule:nonzero;stroke:none;stroke-width:3;stroke-linecap:round;stroke-linejoin:round;stroke-miterlimit:4;stroke-dasharray:none;stroke-dashoffset:0;stroke-opacity:1" />
    <rect
       y="510.36221"
       x="0"
       height="34"
       width="100"
       id="rect3453-4-8"
       style="opacity:1;fill:#90c100;fill-opacity:1;fill-rule:nonzero;stroke:none;stroke-width:3;stroke-linecap:round;stroke-linejoin:round;stroke-miterlimit:4;stroke-dasharray:none;stroke-dashoffset:0;stroke-opacity:1" />
    <rect
       y="546.36218"
       x="0"
       height="34"
       width="100"
       id="rect3453-4-0"
       style="opacity:1;fill:#90c100;fill-opacity:1;fill-rule:nonzero;stroke:none;stroke-width:3;stroke-linecap:round;stroke-linejoin:round;stroke-miterlimit:4;stroke-dasharray:none;stroke-dashoffset:0;stroke-opacity:1" />
    <rect
       y="582.36218"
       x="0"
       height="34"
       width="100"
       id="rect3453-4-5"
       style="opacity:1;fill:#90c100;fill-opacity:1;fill-rule:nonzero;stroke:none;stroke-width:3;stroke-linecap:round;stroke-linejoin:round;stroke-miterlimit:4;stroke-dasharray:none;stroke-dashoffset:0;stroke-opacity:1" />
    <rect
       y="618.36218"
       x="0"
       height="34"
       width="100"
       id="rect3453-4-08"
       style="opacity:1;fill:#90c100;fill-opacity:1;fill-rule:nonzero;stroke:none;stroke-width:3;stroke-linecap:round;stroke-linejoin:round;stroke-miterlimit:4;stroke-dasharray:none;stroke-dashoffset:0;stroke-opacity:1" />
    <rect
       y="474.36221"
       x="408"
       height="34"
       width="34"
       id="rect3453-63-4"
       style="opacity:1;fill:#c374e9;fill-opacity:1;fill-rule:nonzero;stroke:none;stroke-width:3;stroke-linecap:round;stroke-linejoin:round;stroke-miterlimit:4;stroke-dasharray:none;stroke-dashoffset:0;stroke-opacity:1" />
    <text
       id="text4472"
       y="497.32706"
       x="72.96875"
       style="font-style:normal;font-weight:normal;font-size:16px;line-height:125%;font-family:Sans;text-align:end;letter-spacing:0px;word-spacing:0px;text-anchor:end;fill:#000000;fill-opacity:1;stroke:none;stroke-width:1px;stroke-linecap:butt;stroke-linejoin:miter;stroke-opacity:1"
       xml:space="preserve"><tspan
         style="font-weight:bold"
         y="497.32706"
         x="72.96875"
         id="tspan4474">Solfa</tspan></text>
    <text
       id="text4476"
       y="531.84033"
       x="64.453125"
       style="font-style:normal;font-weight:normal;font-size:16px;line-height:125%;font-family:Sans;text-align:end;letter-spacing:0px;word-spacing:0px;text-anchor:end;fill:#000000;fill-opacity:1;stroke:none;stroke-width:1px;stroke-linecap:butt;stroke-linejoin:miter;stroke-opacity:1"
       xml:space="preserve"><tspan
         y="531.84033"
         x="64.453125"
         id="tspan4478">sol<tspan
   id="tspan4492"
   style="font-size:64.99999166%;baseline-shift:sub">4</tspan></tspan></text>
    <text
       id="text4480"
       y="567.84033"
       x="62.894531"
       style="font-style:normal;font-weight:normal;font-size:16px;line-height:125%;font-family:Sans;text-align:end;letter-spacing:0px;word-spacing:0px;text-anchor:end;fill:#000000;fill-opacity:1;stroke:none;stroke-width:1px;stroke-linecap:butt;stroke-linejoin:miter;stroke-opacity:1"
       xml:space="preserve"><tspan
         y="567.84033"
         x="62.894531"
         id="tspan4482">mi<tspan
   id="tspan4494"
   style="font-size:64.99999166%;baseline-shift:sub">4</tspan></tspan></text>
    <text
       id="text4484"
       y="602.24268"
       x="60.925781"
       style="font-style:normal;font-weight:normal;font-size:16px;line-height:125%;font-family:Sans;text-align:end;letter-spacing:0px;word-spacing:0px;text-anchor:end;fill:#000000;fill-opacity:1;stroke:none;stroke-width:1px;stroke-linecap:butt;stroke-linejoin:miter;stroke-opacity:1"
       xml:space="preserve"><tspan
         y="602.24268"
         x="60.925781"
         id="tspan4486">re<tspan
   id="tspan4496"
   style="font-size:64.99999166%;baseline-shift:sub">4</tspan></tspan></text>
    <text
       id="text4488"
       y="632.76031"
       x="49.785904"
       style="font-style:normal;font-weight:normal;font-size:10.31685257px;line-height:125%;font-family:Sans;text-align:center;letter-spacing:0px;word-spacing:0px;text-anchor:middle;fill:#000000;fill-opacity:1;stroke:none;stroke-width:1px;stroke-linecap:butt;stroke-linejoin:miter;stroke-opacity:1"
       xml:space="preserve"><tspan
         y="632.76031"
         x="49.785904"
         id="tspan4490">rhythmic</tspan><tspan
         id="tspan4498"
         y="645.65637"
         x="49.785904">note values</tspan></text>
    <text
       id="text4500"
       y="640.75598"
       x="169.36584"
       style="font-style:normal;font-weight:normal;font-size:16px;line-height:125%;font-family:Sans;text-align:end;letter-spacing:0px;word-spacing:0px;text-anchor:end;fill:#000000;fill-opacity:1;stroke:none;stroke-width:1px;stroke-linecap:butt;stroke-linejoin:miter;stroke-opacity:1"
       xml:space="preserve"><tspan
         y="640.75598"
         x="169.36584"
         id="tspan4502">1/4 ğ…Ÿ</tspan></text>
    <text
       id="text4500-3"
       y="640.75598"
       x="271.36584"
       style="font-style:normal;font-weight:normal;font-size:16px;line-height:125%;font-family:Sans;text-align:end;letter-spacing:0px;word-spacing:0px;text-anchor:end;fill:#000000;fill-opacity:1;stroke:none;stroke-width:1px;stroke-linecap:butt;stroke-linejoin:miter;stroke-opacity:1"
       xml:space="preserve"><tspan
         y="640.75598"
         x="271.36584"
         id="tspan4502-4">1/4 ğ…Ÿ</tspan></text>
    <text
       id="text4500-6"
       y="640.75598"
       x="373.36584"
       style="font-style:normal;font-weight:normal;font-size:16px;line-height:125%;font-family:Sans;text-align:end;letter-spacing:0px;word-spacing:0px;text-anchor:end;fill:#000000;fill-opacity:1;stroke:none;stroke-width:1px;stroke-linecap:butt;stroke-linejoin:miter;stroke-opacity:1"
       xml:space="preserve"><tspan
         y="640.75598"
         x="373.36584"
         id="tspan4502-3">1/4 ğ…Ÿ</tspan></text>
    <g
       transform="matrix(0.69221607,0,0,0.69221607,405.96406,472.32627)"
       id="g4437">
      <rect
         width="30.772253"
         height="29.05797"
         x="12.113873"
         y="12.971015"
         id="rect3821"
         style="fill:#000000;stroke:#000000;stroke-width:3.89899993;stroke-linejoin:round;stroke-miterlimit:4;stroke-dasharray:none;stroke-opacity:1" />
      <path
         d="m 13,14.033 0,26.934 29,0 0,-26.934 z M 37.575,35.1 c 0.684,0.683 0.684,1.793 0,2.476 -0.341,0.342 -0.789,0.513 -1.237,0.513 -0.448,0 -0.896,-0.171 -1.238,-0.513 l -7.601,-7.602 -7.602,7.602 c -0.342,0.342 -0.79,0.513 -1.237,0.513 -0.447,0 -0.895,-0.171 -1.237,-0.513 -0.684,-0.683 -0.684,-1.793 0,-2.476 l 7.601,-7.601 -7.601,-7.602 c -0.684,-0.684 -0.684,-1.791 0,-2.474 0.683,-0.684 1.791,-0.684 2.474,0 l 7.602,7.601 7.601,-7.601 c 0.683,-0.684 1.793,-0.684 2.476,0 0.684,0.683 0.684,1.791 0,2.474 l -7.602,7.602 z"
         id="path3109"
         style="fill:#ffffff;fill-opacity:1;stroke:none" />
    </g>
    <g
       transform="matrix(0.53333399,0,0,0.53333399,342.66665,476.69553)"
       id="g4703">
      <path
         d="m 35.510424,31.68504 0,-7.578317 11.310921,-12.215794 -1.357311,9.501173 -9.95361,10.292938 z"
         id="path2394"
         style="fill:#626262;fill-opacity:1;stroke:#000000;stroke-width:1.35731041;stroke-linecap:butt;stroke-linejoin:round;stroke-dasharray:none;stroke-opacity:1" />
      <path
         d="m 16.508077,24.106723 12.215795,-12.215794 18.097473,0 -11.310921,12.215794 -19.002347,0 z"
         id="path2390"
         style="fill:#626262;fill-opacity:1;stroke:#000000;stroke-width:1.35731041;stroke-linejoin:round;stroke-miterlimit:4;stroke-dasharray:none;stroke-opacity:1" />
      <path
         d="m 23.566742,43.109071 2.436823,-9.048738 9.506859,-9.95361 0,7.578317 -11.943682,11.424031 z"
         id="path2392"
         style="fill:#bcbcbc;fill-opacity:1;stroke:#000000;stroke-width:1.35731041;stroke-linejoin:round;stroke-dasharray:none;stroke-opacity:1" />
      <path
         d="m 6.50898,34.060333 9.999097,-9.95361 19.002347,0 -9.831769,9.95361 -19.169675,0 z"
         id="path2388"
         style="fill:#bcbcbc;fill-opacity:1;stroke:#000000;stroke-width:1.35731041;stroke-linejoin:round;stroke-dasharray:none;stroke-opacity:1" />
      <path
         d="m 3.1786551,43.109071 3.2490974,-9.048738 19.1696745,0 -2.355595,9.048738 -20.063177,0 z"
         id="path2384"
         style="fill:#bcbcbc;fill-opacity:1;stroke:#000000;stroke-width:1.35731041;stroke-linejoin:round;stroke-dasharray:none;stroke-opacity:1" />
    </g>
    <g
       transform="matrix(0.4285714,0,0,0.4285714,140.21429,479.5765)"
       id="g4766">
      <path
         d="m 55.000002,28.315678 a 20.741526,20.625 0 1 1 -41.483051,0 20.741526,20.625 0 1 1 41.483051,0 z"
         transform="matrix(1.0124617,0,0,1.0181818,-7.1853951,-1.3305076)"
         id="path2986"
         style="fill:#ffffff;fill-opacity:1;fill-rule:nonzero;stroke:none" />
      <g
         id="g7"
         style="fill:#000000;fill-opacity:1;stroke:#000000;stroke-opacity:1">
        <path
           d="M 27.497,5.051 C 39.961,5.071 50.045,15.155 50.065,27.618 50.045,40.08 39.961,50.164 27.497,50.184 15.036,50.164 4.952,40.08 4.93,27.618 4.952,15.155 15.036,5.07 27.497,5.051 m 0.003,2.25 c -0.001,0 -0.002,0 -0.003,0 -0.001,0 -0.002,0 -0.003,0 0,0 0.001,0 0.002,0 C 16.312,7.32 7.199,16.436 7.18,27.622 7.199,38.801 16.315,47.916 27.5,47.934 38.68,47.915 47.796,38.8 47.814,27.614 47.797,16.436 38.684,7.32 27.498,7.301 c 10e-4,0 0.002,0 0.002,0 l 0,0 z"
           id="path9"
           style="fill:#000000;fill-opacity:1;stroke:#000000;stroke-opacity:1" />
      </g>
      <polygon
         points="39.512,27.822 21.55,37.977 21.55,17.667 "
         id="polygon11"
         style="fill:#000000" />
      <path
         d="M 27.499,0 C 12.312,0 0,12.313 0,27.5 0,42.688 12.312,55 27.499,55 42.686,55 55,42.688 55,27.5 55,12.313 42.686,0 27.499,0 Z M 27.497,52.646 C 13.671,52.646 2.464,41.437 2.461,27.613 2.463,13.787 13.67,2.577 27.497,2.574 41.323,2.577 52.532,13.787 52.536,27.612 52.531,41.437 41.322,52.646 27.497,52.646 Z"
         id="path13"
         style="fill:#000000;fill-opacity:1;stroke:#000000;stroke-opacity:1" />
    </g>
    <g
       transform="translate(242,479.36221)"
       id="g4833">
      <path
         d="m 19,9 -4,0 0,-6 -6,0 0,6 -4,0 7,7 7,-7 z m -14,9 0,2 14,0 0,-2 -14,0 z"
         id="path4823" />
      <path
         style="fill:none"
         d="M 0,0 24,0 24,24 0,24 Z"
         id="path4825" />
    </g>
  </g>
</svg>
