<?xml version="1.0" encoding="UTF-8" standalone="no"?>
<svg
   xmlns:dc="http://purl.org/dc/elements/1.1/"
   xmlns:cc="http://creativecommons.org/ns#"
   xmlns:rdf="http://www.w3.org/1999/02/22-rdf-syntax-ns#"
   xmlns:svg="http://www.w3.org/2000/svg"
   xmlns="http://www.w3.org/2000/svg"
   id="svg3641"
   height="522.84308"
   width="305.34232"
   version="1.1">
  <metadata
     id="metadata3670">
    <rdf:RDF>
      <cc:Work
         rdf:about="">
        <dc:format>image/svg+xml</dc:format>
        <dc:type
           rdf:resource="http://purl.org/dc/dcmitype/StillImage" />
        <dc:title></dc:title>
      </cc:Work>
    </rdf:RDF>
  </metadata>
  <defs
     id="defs3668" />
  <text
     transform="scale(1.0025453,0.99746116)"
     style="font-size:18.05011177px;font-family:Sans;text-anchor:end;fill:#000000"
     id="text3033"
     y="251.74702"
     x="311.53552">
    <tspan
       id="tspan3035"
       y="282.20657"
       x="438.78882" />
  </text>
  <g
     transform="translate(27,387.42149)"
     id="g1246">
    <g
       transform="scale(1.5)"
       id="g1244">
      <path
         d="m 0.5,8.5 v -4 a 4,4 90 0 1 4,-4 h 4 v 2 h 10 v -2 h 40.561523 4 a 4,4 90 0 1 4,4 v 4 h -4 v -3 h -4 v 10 h 4 v -3 h 4 v 17 h -4 v -3 h -4 v 10 h 4 v -3 h 4 v 4 a 4,4 90 0 1 -4,4 h -4 H 18.5 h -1 v 2 h -8 v -2 h -1 -4 a 4,4 90 0 1 -4,-4 v -4 -21 z"
         style="fill:#92a9ff;fill-opacity:1;stroke:#5370dc;stroke-width:1;stroke-linecap:round;stroke-opacity:1"
         id="path1230" />
      <text
         style="font-size:10px;font-family:sans-serif;text-anchor:end;fill:#000000"
         id="text1234">
        <tspan
           x="56.894855"
           y="24"
           id="tspan1232">rhythm</tspan>
      </text>
      <text
         style="font-size:6.66666651px;font-family:sans-serif;text-anchor:end;fill:#000000"
         id="text1238">
        <tspan
           x="56.894855"
           y="11.25"
           id="tspan1236">number of notes</tspan>
      </text>
      <text
         style="font-size:6.66666651px;font-family:sans-serif;text-anchor:end;fill:#000000"
         id="text1242">
        <tspan
           x="56.894855"
           y="32.25"
           id="tspan1240">note value</tspan>
      </text>
    </g>
  </g>
  <g
     transform="translate(116.3423,387.42149)"
     id="g1256">
    <g
       transform="scale(1.5)"
       id="g1254">
      <path
         d="m 8.5,0.5 h 60 v 20 h -60 v -8 -1 h -6 v 3 h -2 v -8 h 2 v 3 h 6 v -1 z"
         style="fill:#ff6ea1;fill-opacity:1;stroke:#ff2c76;stroke-width:1;stroke-linecap:round;stroke-opacity:1"
         id="path1248" />
      <text
         style="font-size:10px;font-family:sans-serif;text-anchor:start;fill:#000000"
         id="text1252">
        <tspan
           x="13.333333"
           y="13.833333"
           id="tspan1250">1</tspan>
      </text>
    </g>
  </g>
  <g
     transform="translate(116.3423,418.92149)"
     id="g1274">
    <g
       transform="scale(1.5)"
       id="g1272">
      <path
         d="m 8.5,8.5 v -4 a 4,4 90 0 1 4,-4 h 4 10 30 4 a 4,4 90 0 1 4,4 v 4 h -4 v -3 h -4 v 10 h 4 v -3 h 4 v 17 h -4 v -3 h -4 v 10 h 4 v -3 h 4 v 4 a 4,4 90 0 1 -4,4 h -4 -30 -10 -4 a 4,4 90 0 1 -4,-4 v -4 -21 -1 h -6 v 3 h -2 v -8 h 2 v 3 h 6 z"
         style="fill:#ff6ea1;fill-opacity:1;stroke:#ff2c76;stroke-width:1;stroke-linecap:round;stroke-opacity:1"
         id="path1258" />
      <text
         style="font-size:14px;font-family:sans-serif;text-anchor:end;fill:#000000"
         id="text1262">
        <tspan
           x="54.333332"
           y="23.799999"
           id="tspan1260">/</tspan>
      </text>
      <text
         style="font-size:9.33333302px;font-family:sans-serif;text-anchor:end;fill:#000000"
         id="text1266">
        <tspan
           x="54.333332"
           y="10.75"
           id="tspan1264" />
      </text>
      <text
         style="font-size:9.33333302px;font-family:sans-serif;text-anchor:end;fill:#000000"
         id="text1270">
        <tspan
           x="54.333332"
           y="31.75"
           id="tspan1268" />
      </text>
    </g>
  </g>
  <g
     transform="translate(201.8423,418.92149)"
     id="g1284">
    <g
       transform="scale(1.5)"
       id="g1282">
      <path
         d="m 8.5,0.5 h 60 v 20 h -60 v -8 -1 h -6 v 3 h -2 v -8 h 2 v 3 h 6 v -1 z"
         style="fill:#ff6ea1;fill-opacity:1;stroke:#ff2c76;stroke-width:1;stroke-linecap:round;stroke-opacity:1"
         id="path1276" />
      <text
         style="font-size:10px;font-family:sans-serif;text-anchor:start;fill:#000000"
         id="text1280">
        <tspan
           x="13.333333"
           y="13.833333"
           id="tspan1278">1</tspan>
      </text>
    </g>
  </g>
  <g
     transform="translate(201.8423,450.42149)"
     id="g1294">
    <g
       transform="scale(1.5)"
       id="g1292">
      <path
         d="m 8.5,0.5 h 60 v 20 h -60 v -8 -1 h -6 v 3 h -2 v -8 h 2 v 3 h 6 v -1 z"
         style="fill:#ff6ea1;fill-opacity:1;stroke:#ff2c76;stroke-width:1;stroke-linecap:round;stroke-opacity:1"
         id="path1286" />
      <text
         style="font-size:10px;font-family:sans-serif;text-anchor:start;fill:#000000"
         id="text1290">
        <tspan
           x="13.333333"
           y="13.833333"
           id="tspan1288">4</tspan>
      </text>
    </g>
  </g>
  <path
     d="m 27.75,368.67149 v -6 a 6,6 0 0 1 6,-6 h 6 v 3 h 15 v -3 h 30 6 a 6,6 0 0 1 6,6 v 6 6 6 a 6,6 0 0 1 -6,6 h -6 -30 -1.5 v 3 h -12 v -3 h -1.5 -6 a 6,6 0 0 1 -6,-6 v -6 z"
     style="fill:#c4c4c4;fill-opacity:1;stroke:#a0a0a0;stroke-width:1.5;stroke-linecap:round;stroke-opacity:1"
     id="path1296" />
  <text
     y="355.92148"
     x="27"
     style="font-size:15px;font-family:sans-serif;text-anchor:end;fill:#000000;stroke-width:1.5"
     id="text1300">
    <tspan
       style="stroke-width:1.5"
       x="81.5"
       y="376.17148"
       id="tspan1298">↓</tspan>
  </text>
  <g
     transform="translate(13.5,229.92149)"
     id="g1318">
    <g
       transform="scale(1.5)"
       id="g1316">
      <path
         d="m 0.5,8.5 v -4 a 4,4 90 0 1 4,-4 h 4 v 2 h 10 v -2 h 9 40 4 a 4,4 90 0 1 4,4 v 4 h -4 v -3 h -4 v 10 h 4 v -3 h 4 v 4 a 4,4 90 0 1 -4,4 h -4 -40 -1 v 2 h -8 v -2 h -1 -4 a 5,5 90 0 0 -5,5 v 4 4 105 4 a 5,5 90 0 0 5,5 h 4 v 2 h 10 v -2 h 8 v 6 6 4 a 4,4 90 0 1 -4,4 h -4 -9 -1 v 2 h -8 v -2 h -1 -4 a 4,4 90 0 1 -4,-4 v -4 z"
         style="fill:#92a9ff;fill-opacity:1;stroke:#5370dc;stroke-width:1;stroke-linecap:round;stroke-opacity:1"
         id="path1306" />
      <text
         style="font-size:10px;font-family:sans-serif;text-anchor:start;fill:#000000"
         id="text1310">
        <tspan
           x="5.3333335"
           y="15.25"
           id="tspan1308">tuplet</tspan>
      </text>
      <text
         style="font-size:6.66666651px;font-family:sans-serif;text-anchor:end;fill:#000000"
         id="text1314">
        <tspan
           x="65.333336"
           y="11.25"
           id="tspan1312">note value</tspan>
      </text>
    </g>
  </g>
  <g
     transform="translate(115.5,229.92149)"
     id="g1336">
    <g
       transform="scale(1.5)"
       id="g1334">
      <path
         d="m 8.5,8.5 v -4 a 4,4 90 0 1 4,-4 h 4 10 30 4 a 4,4 90 0 1 4,4 v 4 h -4 v -3 h -4 v 10 h 4 v -3 h 4 v 17 h -4 v -3 h -4 v 10 h 4 v -3 h 4 v 4 a 4,4 90 0 1 -4,4 h -4 -30 -10 -4 a 4,4 90 0 1 -4,-4 v -4 -21 -1 h -6 v 3 h -2 v -8 h 2 v 3 h 6 z"
         style="fill:#ff6ea1;fill-opacity:1;stroke:#ff2c76;stroke-width:1;stroke-linecap:round;stroke-opacity:1"
         id="path1320" />
      <text
         style="font-size:14px;font-family:sans-serif;text-anchor:end;fill:#000000"
         id="text1324">
        <tspan
           x="54.333332"
           y="23.799999"
           id="tspan1322">/</tspan>
      </text>
      <text
         style="font-size:9.33333302px;font-family:sans-serif;text-anchor:end;fill:#000000"
         id="text1328">
        <tspan
           x="54.333332"
           y="10.75"
           id="tspan1326" />
      </text>
      <text
         style="font-size:9.33333302px;font-family:sans-serif;text-anchor:end;fill:#000000"
         id="text1332">
        <tspan
           x="54.333332"
           y="31.75"
           id="tspan1330" />
      </text>
    </g>
  </g>
  <g
     transform="translate(201,229.92149)"
     id="g1346">
    <g
       transform="scale(1.5)"
       id="g1344">
      <path
         d="m 8.5,0.5 h 60 v 20 h -60 v -8 -1 h -6 v 3 h -2 v -8 h 2 v 3 h 6 v -1 z"
         style="fill:#ff6ea1;fill-opacity:1;stroke:#ff2c76;stroke-width:1;stroke-linecap:round;stroke-opacity:1"
         id="path1338" />
      <text
         style="font-size:10px;font-family:sans-serif;text-anchor:start;fill:#000000"
         id="text1342">
        <tspan
           x="13.333333"
           y="13.833333"
           id="tspan1340">1</tspan>
      </text>
    </g>
  </g>
  <g
     transform="translate(201,261.42149)"
     id="g1356">
    <g
       transform="scale(1.5)"
       id="g1354">
      <path
         d="m 8.5,0.5 h 60 v 20 h -60 v -8 -1 h -6 v 3 h -2 v -8 h 2 v 3 h 6 v -1 z"
         style="fill:#ff6ea1;fill-opacity:1;stroke:#ff2c76;stroke-width:1;stroke-linecap:round;stroke-opacity:1"
         id="path1348" />
      <text
         style="font-size:10px;font-family:sans-serif;text-anchor:start;fill:#000000"
         id="text1352">
        <tspan
           x="13.333333"
           y="13.833333"
           id="tspan1350">2</tspan>
      </text>
    </g>
  </g>
  <path
     d="m 27.75,274.17149 v -6 a 6,6 0 0 1 6,-6 h 6 v 3 h 15 v -3 h 30 6 a 6,6 0 0 1 6,6 v 6 6 6 a 6,6 0 0 1 -6,6 h -6 -30 -1.5 v 3 h -12 v -3 h -1.5 -6 a 6,6 0 0 1 -6,-6 v -6 z"
     style="fill:#c4c4c4;fill-opacity:1;stroke:#a0a0a0;stroke-width:1.5;stroke-linecap:round;stroke-opacity:1"
     id="path1358" />
  <text
     y="261.42148"
     x="27"
     style="font-size:15px;font-family:sans-serif;text-anchor:end;fill:#000000;stroke-width:1.5"
     id="text1362">
    <tspan
       style="stroke-width:1.5"
       x="81.5"
       y="281.67148"
       id="tspan1360">↓</tspan>
  </text>
  <g
     transform="translate(27,292.92149)"
     id="g1384">
    <g
       transform="scale(1.5)"
       id="g1382">
      <path
         d="m 0.5,8.5 v -4 a 4,4 90 0 1 4,-4 h 4 v 2 h 10 v -2 h 40.561523 4 a 4,4 90 0 1 4,4 v 4 h -4 v -3 h -4 v 10 h 4 v -3 h 4 v 17 h -4 v -3 h -4 v 10 h 4 v -3 h 4 v 4 a 4,4 90 0 1 -4,4 h -4 H 18.5 h -1 v 2 h -8 v -2 h -1 -4 a 4,4 90 0 1 -4,-4 v -4 -21 z"
         style="fill:#92a9ff;fill-opacity:1;stroke:#5370dc;stroke-width:1;stroke-linecap:round;stroke-opacity:1"
         id="path1368" />
      <text
         style="font-size:10px;font-family:sans-serif;text-anchor:end;fill:#000000"
         id="text1372">
        <tspan
           x="56.894855"
           y="24"
           id="tspan1370">rhythm</tspan>
      </text>
      <text
         style="font-size:6.66666651px;font-family:sans-serif;text-anchor:end;fill:#000000"
         id="text1376">
        <tspan
           x="56.894855"
           y="11.25"
           id="tspan1374">number of notes</tspan>
      </text>
      <text
         style="font-size:6.66666651px;font-family:sans-serif;text-anchor:end;fill:#000000"
         id="text1380">
        <tspan
           x="56.894855"
           y="32.25"
           id="tspan1378">note value</tspan>
      </text>
    </g>
  </g>
  <g
     transform="translate(116.3423,292.92149)"
     id="g1394">
    <g
       transform="scale(1.5)"
       id="g1392">
      <path
         d="m 8.5,0.5 h 60 v 20 h -60 v -8 -1 h -6 v 3 h -2 v -8 h 2 v 3 h 6 v -1 z"
         style="fill:#ff6ea1;fill-opacity:1;stroke:#ff2c76;stroke-width:1;stroke-linecap:round;stroke-opacity:1"
         id="path1386" />
      <text
         style="font-size:10px;font-family:sans-serif;text-anchor:start;fill:#000000"
         id="text1390">
        <tspan
           x="13.333333"
           y="13.833333"
           id="tspan1388">3</tspan>
      </text>
    </g>
  </g>
  <g
     transform="translate(116.3423,324.42149)"
     id="g1412">
    <g
       transform="scale(1.5)"
       id="g1410">
      <path
         d="m 8.5,8.5 v -4 a 4,4 90 0 1 4,-4 h 4 10 30 4 a 4,4 90 0 1 4,4 v 4 h -4 v -3 h -4 v 10 h 4 v -3 h 4 v 17 h -4 v -3 h -4 v 10 h 4 v -3 h 4 v 4 a 4,4 90 0 1 -4,4 h -4 -30 -10 -4 a 4,4 90 0 1 -4,-4 v -4 -21 -1 h -6 v 3 h -2 v -8 h 2 v 3 h 6 z"
         style="fill:#ff6ea1;fill-opacity:1;stroke:#ff2c76;stroke-width:1;stroke-linecap:round;stroke-opacity:1"
         id="path1396" />
      <text
         style="font-size:14px;font-family:sans-serif;text-anchor:end;fill:#000000"
         id="text1400">
        <tspan
           x="54.333332"
           y="23.799999"
           id="tspan1398">/</tspan>
      </text>
      <text
         style="font-size:9.33333302px;font-family:sans-serif;text-anchor:end;fill:#000000"
         id="text1404">
        <tspan
           x="54.333332"
           y="10.75"
           id="tspan1402" />
      </text>
      <text
         style="font-size:9.33333302px;font-family:sans-serif;text-anchor:end;fill:#000000"
         id="text1408">
        <tspan
           x="54.333332"
           y="31.75"
           id="tspan1406" />
      </text>
    </g>
  </g>
  <g
     transform="translate(201.8423,324.42149)"
     id="g1422">
    <g
       transform="scale(1.5)"
       id="g1420">
      <path
         d="m 8.5,0.5 h 60 v 20 h -60 v -8 -1 h -6 v 3 h -2 v -8 h 2 v 3 h 6 v -1 z"
         style="fill:#ff6ea1;fill-opacity:1;stroke:#ff2c76;stroke-width:1;stroke-linecap:round;stroke-opacity:1"
         id="path1414" />
      <text
         style="font-size:10px;font-family:sans-serif;text-anchor:start;fill:#000000"
         id="text1418">
        <tspan
           x="13.333333"
           y="13.833333"
           id="tspan1416">1</tspan>
      </text>
    </g>
  </g>
  <g
     transform="translate(201.8423,355.92149)"
     id="g1432">
    <g
       transform="scale(1.5)"
       id="g1430">
      <path
         d="m 8.5,0.5 h 60 v 20 h -60 v -8 -1 h -6 v 3 h -2 v -8 h 2 v 3 h 6 v -1 z"
         style="fill:#ff6ea1;fill-opacity:1;stroke:#ff2c76;stroke-width:1;stroke-linecap:round;stroke-opacity:1"
         id="path1424" />
      <text
         style="font-size:10px;font-family:sans-serif;text-anchor:start;fill:#000000"
         id="text1428">
        <tspan
           x="13.333333"
           y="13.833333"
           id="tspan1426">16</tspan>
      </text>
    </g>
  </g>
  <path
     d="m 0.75,22.171537 v -6 a 6,6 0 0 1 6,-6 h 6 l 7.5,-8.9999996 7.5,8.9999996 h 13.5 95.01709 6 a 6,6 0 0 1 6,6 v 6 6 6 a 6,6 0 0 1 -6,6 h -6 H 41.25 39.75 v 3 h -12 v -3 h -1.5 -6 a 7.5,7.5 0 0 0 -7.5,7.5 v 6 6 409.500003 6 a 7.5,7.5 0 0 0 7.5,7.5 h 6 v 3 h 15 v -3 h 12 v 9 9 6 a 6,6 0 0 1 -6,6 h -6 -13.5 l -7.5,9 -7.5,-9 h -6 a 6,6 0 0 1 -6,-6 v -6 z"
     style="fill:#7cd622;fill-opacity:1;stroke:#57ad02;stroke-width:1.5;stroke-linecap:round;stroke-opacity:1"
     id="path1434" />
  <text
     y="0.42153746"
     style="font-size:15px;font-family:sans-serif;text-anchor:start;fill:#000000;stroke-width:1.5"
     id="text1438">
    <tspan
       style="stroke-width:1.5"
       x="8"
       y="32.671539"
       id="tspan1436">phrase maker</tspan>
  </text>
  <g
     transform="translate(13.5,40.921494)"
     id="g1460">
    <g
       transform="scale(1.5)"
       id="g1458">
      <path
         d="m 0.5,8.5 v -4 a 4,4 90 0 1 4,-4 h 4 v 2 h 10 v -2 h 30 4 a 4,4 90 0 1 4,4 v 4 h -4 v -3 h -4 v 10 h 4 v -3 h 4 v 17 h -4 v -3 h -4 v 10 h 4 v -3 h 4 v 4 a 4,4 90 0 1 -4,4 h -4 -30 -1 v 2 h -8 v -2 h -1 -4 a 4,4 90 0 1 -4,-4 v -4 -21 z"
         style="fill:#7cd622;fill-opacity:1;stroke:#57ad02;stroke-width:1;stroke-linecap:round;stroke-opacity:1"
         id="path1444" />
      <text
         style="font-size:10px;font-family:sans-serif;text-anchor:end;fill:#000000"
         id="text1448">
        <tspan
           x="46.333332"
           y="24"
           id="tspan1446">pitch</tspan>
      </text>
      <text
         style="font-size:6.66666651px;font-family:sans-serif;text-anchor:end;fill:#000000"
         id="text1452">
        <tspan
           x="46.333332"
           y="11.25"
           id="tspan1450">name</tspan>
      </text>
      <text
         style="font-size:6.66666651px;font-family:sans-serif;text-anchor:end;fill:#000000"
         id="text1456">
        <tspan
           x="46.333332"
           y="32.25"
           id="tspan1454">octave</tspan>
      </text>
    </g>
  </g>
  <g
     transform="translate(87.000003,40.921494)"
     id="g1470">
    <g
       transform="scale(1.5)"
       id="g1468">
      <path
         d="m 8.5,0.5 h 60 v 20 h -60 v -8 -1 h -6 v 3 h -2 v -8 h 2 v 3 h 6 v -1 z"
         style="fill:#7cd622;fill-opacity:1;stroke:#57ad02;stroke-width:1;stroke-linecap:round;stroke-opacity:1"
         id="path1462" />
      <text
         style="font-size:10px;font-family:sans-serif;text-anchor:start;fill:#000000"
         id="text1466">
        <tspan
           x="13.333333"
           y="13.833333"
           id="tspan1464">sol</tspan>
      </text>
    </g>
  </g>
  <g
     transform="translate(87.000003,72.421494)"
     id="g1480">
    <g
       transform="scale(1.5)"
       id="g1478">
      <path
         d="m 8.5,0.5 h 60 v 20 h -60 v -8 -1 h -6 v 3 h -2 v -8 h 2 v 3 h 6 v -1 z"
         style="fill:#ff6ea1;fill-opacity:1;stroke:#ff2c76;stroke-width:1;stroke-linecap:round;stroke-opacity:1"
         id="path1472" />
      <text
         style="font-size:10px;font-family:sans-serif;text-anchor:start;fill:#000000"
         id="text1476">
        <tspan
           x="13.333333"
           y="13.833333"
           id="tspan1474">4</tspan>
      </text>
    </g>
  </g>
  <g
     transform="translate(13.5,103.92149)"
     id="g1498">
    <g
       transform="scale(1.5)"
       id="g1496">
      <path
         d="m 0.5,8.5 v -4 a 4,4 90 0 1 4,-4 h 4 v 2 h 10 v -2 h 30 4 a 4,4 90 0 1 4,4 v 4 h -4 v -3 h -4 v 10 h 4 v -3 h 4 v 17 h -4 v -3 h -4 v 10 h 4 v -3 h 4 v 4 a 4,4 90 0 1 -4,4 h -4 -30 -1 v 2 h -8 v -2 h -1 -4 a 4,4 90 0 1 -4,-4 v -4 -21 z"
         style="fill:#7cd622;fill-opacity:1;stroke:#57ad02;stroke-width:1;stroke-linecap:round;stroke-opacity:1"
         id="path1482" />
      <text
         style="font-size:10px;font-family:sans-serif;text-anchor:end;fill:#000000"
         id="text1486">
        <tspan
           x="46.333332"
           y="24"
           id="tspan1484">pitch</tspan>
      </text>
      <text
         style="font-size:6.66666651px;font-family:sans-serif;text-anchor:end;fill:#000000"
         id="text1490">
        <tspan
           x="46.333332"
           y="11.25"
           id="tspan1488">name</tspan>
      </text>
      <text
         style="font-size:6.66666651px;font-family:sans-serif;text-anchor:end;fill:#000000"
         id="text1494">
        <tspan
           x="46.333332"
           y="32.25"
           id="tspan1492">octave</tspan>
      </text>
    </g>
  </g>
  <g
     transform="translate(87.000003,103.92149)"
     id="g1508">
    <g
       transform="scale(1.5)"
       id="g1506">
      <path
         d="m 8.5,0.5 h 60 v 20 h -60 v -8 -1 h -6 v 3 h -2 v -8 h 2 v 3 h 6 v -1 z"
         style="fill:#7cd622;fill-opacity:1;stroke:#57ad02;stroke-width:1;stroke-linecap:round;stroke-opacity:1"
         id="path1500" />
      <text
         style="font-size:10px;font-family:sans-serif;text-anchor:start;fill:#000000"
         id="text1504">
        <tspan
           x="13.333333"
           y="13.833333"
           id="tspan1502">mi</tspan>
      </text>
    </g>
  </g>
  <g
     transform="translate(87.000003,135.42149)"
     id="g1518">
    <g
       transform="scale(1.5)"
       id="g1516">
      <path
         d="m 8.5,0.5 h 60 v 20 h -60 v -8 -1 h -6 v 3 h -2 v -8 h 2 v 3 h 6 v -1 z"
         style="fill:#ff6ea1;fill-opacity:1;stroke:#ff2c76;stroke-width:1;stroke-linecap:round;stroke-opacity:1"
         id="path1510" />
      <text
         style="font-size:10px;font-family:sans-serif;text-anchor:start;fill:#000000"
         id="text1514">
        <tspan
           x="13.333333"
           y="13.833333"
           id="tspan1512">4</tspan>
      </text>
    </g>
  </g>
  <g
     transform="translate(13.5,166.92149)"
     id="g1536">
    <g
       transform="scale(1.5)"
       id="g1534">
      <path
         d="m 0.5,8.5 v -4 a 4,4 90 0 1 4,-4 h 4 v 2 h 10 v -2 h 30 4 a 4,4 90 0 1 4,4 v 4 h -4 v -3 h -4 v 10 h 4 v -3 h 4 v 17 h -4 v -3 h -4 v 10 h 4 v -3 h 4 v 4 a 4,4 90 0 1 -4,4 h -4 -30 -1 v 2 h -8 v -2 h -1 -4 a 4,4 90 0 1 -4,-4 v -4 -21 z"
         style="fill:#7cd622;fill-opacity:1;stroke:#57ad02;stroke-width:1;stroke-linecap:round;stroke-opacity:1"
         id="path1520" />
      <text
         style="font-size:10px;font-family:sans-serif;text-anchor:end;fill:#000000"
         id="text1524">
        <tspan
           x="46.333332"
           y="24"
           id="tspan1522">pitch</tspan>
      </text>
      <text
         style="font-size:6.66666651px;font-family:sans-serif;text-anchor:end;fill:#000000"
         id="text1528">
        <tspan
           x="46.333332"
           y="11.25"
           id="tspan1526">name</tspan>
      </text>
      <text
         style="font-size:6.66666651px;font-family:sans-serif;text-anchor:end;fill:#000000"
         id="text1532">
        <tspan
           x="46.333332"
           y="32.25"
           id="tspan1530">octave</tspan>
      </text>
    </g>
  </g>
  <g
     transform="translate(87.000003,166.92149)"
     id="g1546">
    <g
       transform="scale(1.5)"
       id="g1544">
      <path
         d="m 8.5,0.5 h 60 v 20 h -60 v -8 -1 h -6 v 3 h -2 v -8 h 2 v 3 h 6 v -1 z"
         style="fill:#7cd622;fill-opacity:1;stroke:#57ad02;stroke-width:1;stroke-linecap:round;stroke-opacity:1"
         id="path1538" />
      <text
         style="font-size:10px;font-family:sans-serif;text-anchor:start;fill:#000000"
         id="text1542">
        <tspan
           x="13.333333"
           y="13.833333"
           id="tspan1540">re</tspan>
      </text>
    </g>
  </g>
  <g
     transform="translate(87.000003,198.42149)"
     id="g1556">
    <g
       transform="scale(1.5)"
       id="g1554">
      <path
         d="m 8.5,0.5 h 60 v 20 h -60 v -8 -1 h -6 v 3 h -2 v -8 h 2 v 3 h 6 v -1 z"
         style="fill:#ff6ea1;fill-opacity:1;stroke:#ff2c76;stroke-width:1;stroke-linecap:round;stroke-opacity:1"
         id="path1548" />
      <text
         style="font-size:10px;font-family:sans-serif;text-anchor:start;fill:#000000"
         id="text1552">
        <tspan
           x="13.333333"
           y="13.833333"
           id="tspan1550">4</tspan>
      </text>
    </g>
  </g>
</svg>
