<?xml version="1.0" encoding="UTF-8" standalone="no"?>
<svg
   xmlns:dc="http://purl.org/dc/elements/1.1/"
   xmlns:cc="http://creativecommons.org/ns#"
   xmlns:rdf="http://www.w3.org/1999/02/22-rdf-syntax-ns#"
   xmlns:svg="http://www.w3.org/2000/svg"
   xmlns="http://www.w3.org/2000/svg"
   version="1.1"
   id="svg3445"
   viewBox="0 0 285.99997 249.99996"
   height="70.55555mm"
   width="80.715546mm">
  <defs
     id="defs3447" />
  <metadata
     id="metadata3450">
    <rdf:RDF>
      <cc:Work
         rdf:about="">
        <dc:format>image/svg+xml</dc:format>
        <dc:type
           rdf:resource="http://purl.org/dc/dcmitype/StillImage" />
        <dc:title></dc:title>
      </cc:Work>
    </rdf:RDF>
  </metadata>
  <rect
     style="opacity:1;fill:#57e751;fill-opacity:1;fill-rule:nonzero;stroke:none;stroke-width:3;stroke-linecap:round;stroke-linejoin:round;stroke-miterlimit:4;stroke-dasharray:none;stroke-dashoffset:0;stroke-opacity:1"
     id="rect3453-5-0"
     width="49.999996"
     height="34"
     x="208"
     y="143.99997" />
  <rect
     style="opacity:1;fill:#57e751;fill-opacity:1;fill-rule:nonzero;stroke:none;stroke-width:3;stroke-linecap:round;stroke-linejoin:round;stroke-miterlimit:4;stroke-dasharray:none;stroke-dashoffset:0;stroke-opacity:1"
     id="rect3453-5-6"
     width="49.999996"
     height="34"
     x="155"
     y="143.99997" />
  <rect
     style="opacity:1;fill:#57e751;fill-opacity:1;fill-rule:nonzero;stroke:none;stroke-width:3;stroke-linecap:round;stroke-linejoin:round;stroke-miterlimit:4;stroke-dasharray:none;stroke-dashoffset:0;stroke-opacity:1"
     id="rect3453-5"
     width="49.999996"
     height="34"
     x="102"
     y="143.99997" />
  <rect
     style="opacity:1;fill:#90c100;fill-opacity:1;fill-rule:nonzero;stroke:none;stroke-width:3;stroke-linecap:round;stroke-linejoin:round;stroke-miterlimit:4;stroke-dasharray:none;stroke-dashoffset:0;stroke-opacity:1"
     id="rect3453-4"
     width="100"
     height="34"
     x="0"
     y="-1.5258789e-05" />
  <rect
     style="opacity:1;fill:#90c100;fill-opacity:1;fill-rule:nonzero;stroke:none;stroke-width:3;stroke-linecap:round;stroke-linejoin:round;stroke-miterlimit:4;stroke-dasharray:none;stroke-dashoffset:0;stroke-opacity:1"
     id="rect3453-4-8"
     width="100"
     height="34"
     x="0"
     y="35.999985" />
  <rect
     style="opacity:1;fill:#90c100;fill-opacity:1;fill-rule:nonzero;stroke:none;stroke-width:3;stroke-linecap:round;stroke-linejoin:round;stroke-miterlimit:4;stroke-dasharray:none;stroke-dashoffset:0;stroke-opacity:1"
     id="rect3453-4-0"
     width="100"
     height="34"
     x="0"
     y="71.999954" />
  <rect
     style="opacity:1;fill:#90c100;fill-opacity:1;fill-rule:nonzero;stroke:none;stroke-width:3;stroke-linecap:round;stroke-linejoin:round;stroke-miterlimit:4;stroke-dasharray:none;stroke-dashoffset:0;stroke-opacity:1"
     id="rect3453-4-5"
     width="100"
     height="34"
     x="0"
     y="107.99995" />
  <rect
     style="opacity:1;fill:#90c100;fill-opacity:1;fill-rule:nonzero;stroke:none;stroke-width:3;stroke-linecap:round;stroke-linejoin:round;stroke-miterlimit:4;stroke-dasharray:none;stroke-dashoffset:0;stroke-opacity:1"
     id="rect3453-4-08"
     width="100"
     height="34"
     x="0"
     y="143.99997" />
  <text
     xml:space="preserve"
     style="font-style:normal;font-weight:normal;font-size:16px;line-height:125%;font-family:Sans;text-align:end;letter-spacing:0px;word-spacing:0px;text-anchor:end;fill:#000000;fill-opacity:1;stroke:none;stroke-width:1px;stroke-linecap:butt;stroke-linejoin:miter;stroke-opacity:1"
     x="72.96875"
     y="22.964828"
     id="text4472"><tspan
       id="tspan4474"
       x="72.96875"
       y="22.964828"
       style="font-weight:bold">Solfa</tspan></text>
  <text
     xml:space="preserve"
     style="font-style:normal;font-weight:normal;font-size:16px;line-height:125%;font-family:Sans;text-align:end;letter-spacing:0px;word-spacing:0px;text-anchor:end;fill:#000000;fill-opacity:1;stroke:none;stroke-width:1px;stroke-linecap:butt;stroke-linejoin:miter;stroke-opacity:1"
     x="64.453125"
     y="57.478104"
     id="text4476"><tspan
       id="tspan4478"
       x="64.453125"
       y="57.478104">sol<tspan
   style="font-size:64.99999166%;baseline-shift:sub"
   id="tspan4492">4</tspan></tspan></text>
  <text
     xml:space="preserve"
     style="font-style:normal;font-weight:normal;font-size:16px;line-height:125%;font-family:Sans;text-align:end;letter-spacing:0px;word-spacing:0px;text-anchor:end;fill:#000000;fill-opacity:1;stroke:none;stroke-width:1px;stroke-linecap:butt;stroke-linejoin:miter;stroke-opacity:1"
     x="62.894531"
     y="93.478104"
     id="text4480"><tspan
       id="tspan4482"
       x="62.894531"
       y="93.478104">mi<tspan
   style="font-size:64.99999166%;baseline-shift:sub"
   id="tspan4494">4</tspan></tspan></text>
  <text
     xml:space="preserve"
     style="font-style:normal;font-weight:normal;font-size:16px;line-height:125%;font-family:Sans;text-align:end;letter-spacing:0px;word-spacing:0px;text-anchor:end;fill:#000000;fill-opacity:1;stroke:none;stroke-width:1px;stroke-linecap:butt;stroke-linejoin:miter;stroke-opacity:1"
     x="60.925781"
     y="127.88045"
     id="text4484"><tspan
       id="tspan4486"
       x="60.925781"
       y="127.88045">re<tspan
   style="font-size:64.99999166%;baseline-shift:sub"
   id="tspan4496">4</tspan></tspan></text>
  <text
     xml:space="preserve"
     style="font-style:normal;font-weight:normal;font-size:10.31685257px;line-height:125%;font-family:Sans;text-align:center;letter-spacing:0px;word-spacing:0px;text-anchor:middle;fill:#000000;fill-opacity:1;stroke:none;stroke-width:1px;stroke-linecap:butt;stroke-linejoin:miter;stroke-opacity:1"
     x="49.785904"
     y="158.3981"
     id="text4488">tuplet</text>
  <text
     xml:space="preserve"
     style="font-style:normal;font-weight:normal;font-size:10.31685257px;line-height:125%;font-family:Sans;text-align:center;letter-spacing:0px;word-spacing:0px;text-anchor:middle;fill:#000000;fill-opacity:1;stroke:none;stroke-width:1px;stroke-linecap:butt;stroke-linejoin:miter;stroke-opacity:1"
     x="49.785904"
     y="170.3981"
     id="text5874">note values</text>
  <text
     xml:space="preserve"
     style="font-style:normal;font-weight:normal;font-size:16px;line-height:125%;font-family:Sans;text-align:end;letter-spacing:0px;word-spacing:0px;text-anchor:end;fill:#000000;fill-opacity:1;stroke:none;stroke-width:1px;stroke-linecap:butt;stroke-linejoin:miter;stroke-opacity:1"
     x="144.36584"
     y="166.39377"
     id="text4500"><tspan
       id="tspan4502"
       x="144.36584"
       y="166.39377">1/12</tspan></text>
  <text
     xml:space="preserve"
     style="font-style:normal;font-weight:normal;font-size:16px;line-height:125%;font-family:Sans;text-align:end;letter-spacing:0px;word-spacing:0px;text-anchor:end;fill:#000000;fill-opacity:1;stroke:none;stroke-width:1px;stroke-linecap:butt;stroke-linejoin:miter;stroke-opacity:1"
     x="197.36584"
     y="166.39377"
     id="text4500-3"><tspan
       id="tspan4502-4"
       x="197.36584"
       y="166.39377">1/12</tspan></text>
  <text
     xml:space="preserve"
     style="font-style:normal;font-weight:normal;font-size:16px;line-height:125%;font-family:Sans;text-align:end;letter-spacing:0px;word-spacing:0px;text-anchor:end;fill:#000000;fill-opacity:1;stroke:none;stroke-width:1px;stroke-linecap:butt;stroke-linejoin:miter;stroke-opacity:1"
     x="250.36584"
     y="166.39377"
     id="text4500-6"><tspan
       id="tspan4502-3"
       x="250.36584"
       y="166.39377">1/12</tspan></text>
  <rect
     style="opacity:1;fill:#c374e9;fill-opacity:1;fill-rule:nonzero;stroke:none;stroke-width:3;stroke-linecap:round;stroke-linejoin:round;stroke-miterlimit:4;stroke-dasharray:none;stroke-dashoffset:0;stroke-opacity:1"
     id="rect3453"
     width="49.999996"
     height="34"
     x="102"
     y="-1.5258789e-05" />
  <rect
     style="opacity:1;fill:#b1db00;fill-opacity:1;fill-rule:nonzero;stroke:none;stroke-width:3;stroke-linecap:round;stroke-linejoin:round;stroke-miterlimit:4;stroke-dasharray:none;stroke-dashoffset:0;stroke-opacity:1"
     id="rect3453-6"
     width="49.999996"
     height="34"
     x="102"
     y="107.99995" />
  <rect
     style="opacity:1;fill:#c374e9;fill-opacity:1;fill-rule:nonzero;stroke:none;stroke-width:3;stroke-linecap:round;stroke-linejoin:round;stroke-miterlimit:4;stroke-dasharray:none;stroke-dashoffset:0;stroke-opacity:1"
     id="rect3453-63"
     width="49.999996"
     height="34"
     x="208"
     y="-1.5258789e-05" />
  <rect
     style="opacity:1;fill:#c374e9;fill-opacity:1;fill-rule:nonzero;stroke:none;stroke-width:3;stroke-linecap:round;stroke-linejoin:round;stroke-miterlimit:4;stroke-dasharray:none;stroke-dashoffset:0;stroke-opacity:1"
     id="rect3453-8"
     width="49.999996"
     height="34"
     x="155"
     y="-1.5258789e-05" />
  <rect
     style="opacity:1;fill:#b1db00;fill-opacity:1;fill-rule:nonzero;stroke:none;stroke-width:3;stroke-linecap:round;stroke-linejoin:round;stroke-miterlimit:4;stroke-dasharray:none;stroke-dashoffset:0;stroke-opacity:1"
     id="rect3453-6-6"
     width="49.999996"
     height="34"
     x="102"
     y="71.999954" />
  <rect
     style="opacity:1;fill:#b1db00;fill-opacity:1;fill-rule:nonzero;stroke:none;stroke-width:3;stroke-linecap:round;stroke-linejoin:round;stroke-miterlimit:4;stroke-dasharray:none;stroke-dashoffset:0;stroke-opacity:1"
     id="rect3453-6-5"
     width="49.999996"
     height="34"
     x="102"
     y="35.999985" />
  <rect
     style="opacity:1;fill:#b1db00;fill-opacity:1;fill-rule:nonzero;stroke:none;stroke-width:3;stroke-linecap:round;stroke-linejoin:round;stroke-miterlimit:4;stroke-dasharray:none;stroke-dashoffset:0;stroke-opacity:1"
     id="rect3453-6-8"
     width="49.999996"
     height="34"
     x="155"
     y="35.999985" />
  <rect
     style="opacity:1;fill:#b1db00;fill-opacity:1;fill-rule:nonzero;stroke:none;stroke-width:3;stroke-linecap:round;stroke-linejoin:round;stroke-miterlimit:4;stroke-dasharray:none;stroke-dashoffset:0;stroke-opacity:1"
     id="rect3453-6-3"
     width="49.999996"
     height="34"
     x="155"
     y="71.999954" />
  <rect
     style="opacity:1;fill:#b1db00;fill-opacity:1;fill-rule:nonzero;stroke:none;stroke-width:3;stroke-linecap:round;stroke-linejoin:round;stroke-miterlimit:4;stroke-dasharray:none;stroke-dashoffset:0;stroke-opacity:1"
     id="rect3453-6-81"
     width="49.999996"
     height="34"
     x="155"
     y="107.99995" />
  <rect
     style="opacity:1;fill:#b1db00;fill-opacity:1;fill-rule:nonzero;stroke:none;stroke-width:3;stroke-linecap:round;stroke-linejoin:round;stroke-miterlimit:4;stroke-dasharray:none;stroke-dashoffset:0;stroke-opacity:1"
     id="rect3453-6-82"
     width="49.999996"
     height="34"
     x="208"
     y="35.999985" />
  <rect
     style="opacity:1;fill:#b1db00;fill-opacity:1;fill-rule:nonzero;stroke:none;stroke-width:3;stroke-linecap:round;stroke-linejoin:round;stroke-miterlimit:4;stroke-dasharray:none;stroke-dashoffset:0;stroke-opacity:1"
     id="rect3453-6-9"
     width="49.999996"
     height="34"
     x="208"
     y="71.999954" />
  <rect
     style="opacity:1;fill:#b1db00;fill-opacity:1;fill-rule:nonzero;stroke:none;stroke-width:3;stroke-linecap:round;stroke-linejoin:round;stroke-miterlimit:4;stroke-dasharray:none;stroke-dashoffset:0;stroke-opacity:1"
     id="rect3453-6-90"
     width="49.999996"
     height="34"
     x="208"
     y="107.99995" />
  <g
     id="g4703"
     transform="matrix(0.53333399,0,0,0.53333399,219.66665,2.3333001)">
    <path
       style="fill:#626262;fill-opacity:1;stroke:#000000;stroke-width:1.35731041;stroke-linecap:butt;stroke-linejoin:round;stroke-dasharray:none;stroke-opacity:1"
       id="path2394"
       d="m 35.510424,31.68504 0,-7.578317 11.310921,-12.215794 -1.357311,9.501173 -9.95361,10.292938 z" />
    <path
       style="fill:#626262;fill-opacity:1;stroke:#000000;stroke-width:1.35731041;stroke-linejoin:round;stroke-miterlimit:4;stroke-dasharray:none;stroke-opacity:1"
       id="path2390"
       d="m 16.508077,24.106723 12.215795,-12.215794 18.097473,0 -11.310921,12.215794 -19.002347,0 z" />
    <path
       style="fill:#bcbcbc;fill-opacity:1;stroke:#000000;stroke-width:1.35731041;stroke-linejoin:round;stroke-dasharray:none;stroke-opacity:1"
       id="path2392"
       d="m 23.566742,43.109071 2.436823,-9.048738 9.506859,-9.95361 0,7.578317 -11.943682,11.424031 z" />
    <path
       style="fill:#bcbcbc;fill-opacity:1;stroke:#000000;stroke-width:1.35731041;stroke-linejoin:round;stroke-dasharray:none;stroke-opacity:1"
       id="path2388"
       d="m 6.50898,34.060333 9.999097,-9.95361 19.002347,0 -9.831769,9.95361 -19.169675,0 z" />
    <path
       style="fill:#bcbcbc;fill-opacity:1;stroke:#000000;stroke-width:1.35731041;stroke-linejoin:round;stroke-dasharray:none;stroke-opacity:1"
       id="path2384"
       d="m 3.1786551,43.109071 3.2490974,-9.048738 19.1696745,0 -2.355595,9.048738 -20.063177,0 z" />
  </g>
  <g
     id="g4766"
     transform="matrix(0.4285714,0,0,0.4285714,115.21428,5.2142713)">
    <path
       style="fill:#ffffff;fill-opacity:1;fill-rule:nonzero;stroke:none"
       id="path2986"
       transform="matrix(1.0124617,0,0,1.0181818,-7.1853951,-1.3305076)"
       d="m 55.000002,28.315678 a 20.741526,20.625 0 1 1 -41.483051,0 20.741526,20.625 0 1 1 41.483051,0 z" />
    <g
       style="fill:#000000;fill-opacity:1;stroke:#000000;stroke-opacity:1"
       id="g7">
      <path
         style="fill:#000000;fill-opacity:1;stroke:#000000;stroke-opacity:1"
         id="path9"
         d="M 27.497,5.051 C 39.961,5.071 50.045,15.155 50.065,27.618 50.045,40.08 39.961,50.164 27.497,50.184 15.036,50.164 4.952,40.08 4.93,27.618 4.952,15.155 15.036,5.07 27.497,5.051 m 0.003,2.25 c -0.001,0 -0.002,0 -0.003,0 -0.001,0 -0.002,0 -0.003,0 0,0 0.001,0 0.002,0 C 16.312,7.32 7.199,16.436 7.18,27.622 7.199,38.801 16.315,47.916 27.5,47.934 38.68,47.915 47.796,38.8 47.814,27.614 47.797,16.436 38.684,7.32 27.498,7.301 c 10e-4,0 0.002,0 0.002,0 l 0,0 z" />
    </g>
    <polygon
       style="fill:#000000"
       id="polygon11"
       points="21.55,37.977 21.55,17.667 39.512,27.822 " />
    <path
       style="fill:#000000;fill-opacity:1;stroke:#000000;stroke-opacity:1"
       id="path13"
       d="M 27.499,0 C 12.312,0 0,12.313 0,27.5 0,42.688 12.312,55 27.499,55 42.686,55 55,42.688 55,27.5 55,12.313 42.686,0 27.499,0 Z M 27.497,52.646 C 13.671,52.646 2.464,41.437 2.461,27.613 2.463,13.787 13.67,2.577 27.497,2.574 41.323,2.577 52.532,13.787 52.536,27.612 52.531,41.437 41.322,52.646 27.497,52.646 Z" />
  </g>
  <g
     id="g4833"
     transform="translate(168,4.9999848)">
    <path
       id="path4823"
       d="m 19,9 -4,0 0,-6 -6,0 0,6 -4,0 7,7 7,-7 z m -14,9 0,2 14,0 0,-2 -14,0 z" />
    <path
       id="path4825"
       d="M 0,0 24,0 24,24 0,24 Z"
       style="fill:none" />
  </g>
  <rect
     style="opacity:1;fill:#c374e9;fill-opacity:1;fill-rule:nonzero;stroke:none;stroke-width:3;stroke-linecap:round;stroke-linejoin:round;stroke-miterlimit:4;stroke-dasharray:none;stroke-dashoffset:0;stroke-opacity:1"
     id="rect3453-1-5"
     width="24.999996"
     height="33.999992"
     x="260.99997"
     y="3.934035e-05" />
  <g
     id="g4437"
     transform="matrix(0.69221607,0,0,0.69221607,253.96406,-2.0359583)">
    <rect
       style="fill:#000000;stroke:#000000;stroke-width:3.89899993;stroke-linejoin:round;stroke-miterlimit:4;stroke-dasharray:none;stroke-opacity:1"
       id="rect3821"
       y="12.971015"
       x="12.113873"
       height="29.05797"
       width="30.772253" />
    <path
       style="fill:#ffffff;fill-opacity:1;stroke:none"
       id="path3109"
       d="m 13,14.033 0,26.934 29,0 0,-26.934 z M 37.575,35.1 c 0.684,0.683 0.684,1.793 0,2.476 -0.341,0.342 -0.789,0.513 -1.237,0.513 -0.448,0 -0.896,-0.171 -1.238,-0.513 l -7.601,-7.602 -7.602,7.602 c -0.342,0.342 -0.79,0.513 -1.237,0.513 -0.447,0 -0.895,-0.171 -1.237,-0.513 -0.684,-0.683 -0.684,-1.793 0,-2.476 l 7.601,-7.601 -7.601,-7.602 c -0.684,-0.684 -0.684,-1.791 0,-2.474 0.683,-0.684 1.791,-0.684 2.474,0 l 7.602,7.601 7.601,-7.601 c 0.683,-0.684 1.793,-0.684 2.476,0 0.684,0.683 0.684,1.791 0,2.474 l -7.602,7.602 z" />
  </g>
  <rect
     style="opacity:1;fill:#90c100;fill-opacity:1;fill-rule:nonzero;stroke:none;stroke-width:3;stroke-linecap:round;stroke-linejoin:round;stroke-miterlimit:4;stroke-dasharray:none;stroke-dashoffset:0;stroke-opacity:1"
     id="rect3453-4-08-1"
     width="100"
     height="34"
     x="0"
     y="179.99997" />
  <text
     xml:space="preserve"
     style="font-style:normal;font-weight:normal;font-size:10.31685257px;line-height:125%;font-family:Sans;text-align:center;letter-spacing:0px;word-spacing:0px;text-anchor:middle;fill:#000000;fill-opacity:1;stroke:none;stroke-width:1px;stroke-linecap:butt;stroke-linejoin:miter;stroke-opacity:1"
     x="49.785904"
     y="200.3981"
     id="text4488-6">tuplet value</text>
  <rect
     style="opacity:1;fill:#c8c8c8;fill-opacity:1;fill-rule:nonzero;stroke:none;stroke-width:3;stroke-linecap:round;stroke-linejoin:round;stroke-miterlimit:4;stroke-dasharray:none;stroke-dashoffset:0;stroke-opacity:1"
     id="rect3453-5-6-7-5"
     width="156"
     height="34"
     x="102"
     y="215.99997" />
  <rect
     style="opacity:1;fill:#90c100;fill-opacity:1;fill-rule:nonzero;stroke:none;stroke-width:3;stroke-linecap:round;stroke-linejoin:round;stroke-miterlimit:4;stroke-dasharray:none;stroke-dashoffset:0;stroke-opacity:1"
     id="rect3453-4-08-1-2"
     width="100"
     height="34"
     x="0"
     y="215.99997" />
  <text
     xml:space="preserve"
     style="font-style:normal;font-weight:normal;font-size:10.31685257px;line-height:125%;font-family:Sans;text-align:center;letter-spacing:0px;word-spacing:0px;text-anchor:middle;fill:#000000;fill-opacity:1;stroke:none;stroke-width:1px;stroke-linecap:butt;stroke-linejoin:miter;stroke-opacity:1"
     x="49.785904"
     y="230.3981"
     id="text4488-6-9"><tspan
       id="tspan4490-6-3"
       x="49.785904"
       y="230.3981">rhythmic</tspan><tspan
       x="49.785904"
       y="243.29416"
       id="tspan4498-4-1">note values</tspan></text>
  <text
     xml:space="preserve"
     style="font-style:normal;font-weight:normal;font-size:16px;line-height:125%;font-family:Sans;text-align:end;letter-spacing:0px;word-spacing:0px;text-anchor:end;fill:#000000;fill-opacity:1;stroke:none;stroke-width:1px;stroke-linecap:butt;stroke-linejoin:miter;stroke-opacity:1"
     x="191.36584"
     y="238.39377"
     id="text4500-3-0-8"><tspan
       id="tspan4502-4-7-8"
       x="191.36584"
       y="238.39377">1/4 </tspan></text>
  <rect
     style="opacity:1;fill:#57e751;fill-opacity:1;fill-rule:nonzero;stroke:none;stroke-width:3;stroke-linecap:round;stroke-linejoin:round;stroke-miterlimit:4;stroke-dasharray:none;stroke-dashoffset:0;stroke-opacity:1"
     id="rect3453-5-6-7-5-7"
     width="156"
     height="34"
     x="102"
     y="179.99997" />
  <text
     xml:space="preserve"
     style="font-style:normal;font-weight:normal;font-size:16px;line-height:125%;font-family:Sans;text-align:end;letter-spacing:0px;word-spacing:0px;text-anchor:end;fill:#000000;fill-opacity:1;stroke:none;stroke-width:1px;stroke-linecap:butt;stroke-linejoin:miter;stroke-opacity:1"
     x="185.12891"
     y="202.82419"
     id="text5891"><tspan
       id="tspan5893"
       x="185.12891"
       y="202.82419">3</tspan></text>
  <g
     transform="matrix(1.3020833,0,0,1.3020833,314.24001,-280.20045)"
     id="text3433"
     style="font-style:normal;font-weight:normal;font-size:16px;line-height:125%;font-family:Sans;text-align:end;letter-spacing:0px;word-spacing:0px;text-anchor:end;fill:#000000;fill-opacity:1;stroke:none;stroke-width:1px;stroke-linecap:butt;stroke-linejoin:miter;stroke-opacity:1">
    <path
       id="path3438"
       d="m -93.355066,399.13464 q 0,-0.928 0.992,-1.616 0.768,-0.512 1.552,-0.512 0.544,0.016 0.944,0.272 l 0,-9.472 0.352,0 0,10.352 q 0,1.056 -1.072,1.68 -0.688,0.4 -1.44,0.4 -0.784,0 -1.152,-0.56 -0.176,-0.256 -0.176,-0.544 z" />
  </g>
</svg>
