<?xml version="1.0" encoding="UTF-8" standalone="no"?>
<svg
   xmlns:dc="http://purl.org/dc/elements/1.1/"
   xmlns:cc="http://creativecommons.org/ns#"
   xmlns:rdf="http://www.w3.org/1999/02/22-rdf-syntax-ns#"
   xmlns:svg="http://www.w3.org/2000/svg"
   xmlns="http://www.w3.org/2000/svg"
   version="1.1"
   id="svg4075"
   viewBox="0 0 291.84229 176.34306"
   height="176.34308"
   width="291.84229">
  <defs
     id="defs4077" />
  <metadata
     id="metadata3718">
    <rdf:RDF>
      <cc:Work
         rdf:about="">
        <dc:title></dc:title>
        <dc:format>image/svg+xml</dc:format>
        <dc:type
           rdf:resource="http://purl.org/dc/dcmitype/StillImage" />
      </cc:Work>
    </rdf:RDF>
  </metadata>
  <g
     id="g1186"
     transform="translate(0,0.42153745)">
    <g
       id="g1184"
       transform="scale(1.5)">
      <path
         id="path1178"
         style="fill:#9ddd5f;fill-opacity:1;stroke:#003e00;stroke-width:1;stroke-linecap:round;stroke-opacity:1"
         d="m 0.5,14.5 v -4 a 4,4 90 0 1 4,-4 h 4 l 5,-6 5,6 h 9 63.344727 4 a 4,4 90 0 1 4,4 v 4 4 4 a 4,4 90 0 1 -4,4 h -4 H 27.5 h -1 v 2 h -8 v -2 h -1 -4 a 5,5 90 0 0 -5,5 v 4 4 42 4 a 5,5 90 0 0 5,5 h 4 v 2 h 10 v -2 h 8 v 6 6 4 a 4,4 90 0 1 -4,4 h -4 -9 l -5,6 -5,-6 h -4 a 4,4 90 0 1 -4,-4 v -4 z" />
      <text
         id="text1182"
         style="font-size:10px;font-family:sans-serif;text-anchor:start;fill:#000000">
        <tspan
           id="tspan1180"
           y="21.5"
           x="5.3333335">pitch-time matrix</tspan>
      </text>
    </g>
  </g>
  <g
     id="g1204"
     transform="translate(13.5,72.421537)">
    <g
       id="g1202"
       transform="scale(1.5)">
      <path
         id="path1188"
         style="fill:#9ddd5f;fill-opacity:1;stroke:#003e00;stroke-width:1;stroke-linecap:round;stroke-opacity:1"
         d="m 0.5,8.5 v -4 a 4,4 90 0 1 4,-4 h 4 v 2 h 10 v -2 h 40.561523 4 a 4,4 90 0 1 4,4 v 4 h -4 v -3 h -4 v 10 h 4 v -3 h 4 v 17 h -4 v -3 h -4 v 10 h 4 v -3 h 4 v 4 a 4,4 90 0 1 -4,4 h -4 H 18.5 h -1 v 2 h -8 v -2 h -1 -4 a 4,4 90 0 1 -4,-4 v -4 -21 z" />
      <text
         id="text1192"
         style="font-size:10px;font-family:sans-serif;text-anchor:end;fill:#000000">
        <tspan
           id="tspan1190"
           y="24"
           x="56.894855">rhythm</tspan>
      </text>
      <text
         id="text1196"
         style="font-size:6.66666651px;font-family:sans-serif;text-anchor:end;fill:#000000">
        <tspan
           id="tspan1194"
           y="11.25"
           x="56.894855">number of notes</tspan>
      </text>
      <text
         id="text1200"
         style="font-size:6.66666651px;font-family:sans-serif;text-anchor:end;fill:#000000">
        <tspan
           id="tspan1198"
           y="32.25"
           x="56.894855">note value</tspan>
      </text>
    </g>
  </g>
  <g
     id="g1214"
     transform="translate(102.84229,72.421537)">
    <g
       id="g1212"
       transform="scale(1.5)">
      <path
         id="path1206"
         style="fill:#ffb2bc;fill-opacity:1;stroke:#601136;stroke-width:1;stroke-linecap:round;stroke-opacity:1"
         d="m 8.5,0.5 h 60 v 20 h -60 v -8 -1 h -6 v 3 h -2 v -8 h 2 v 3 h 6 v -1 z" />
      <text
         id="text1210"
         style="font-size:10px;font-family:sans-serif;text-anchor:start;fill:#000000">
        <tspan
           id="tspan1208"
           y="13.833333"
           x="13.333333">3</tspan>
      </text>
    </g>
  </g>
  <g
     id="g1232"
     transform="translate(102.84229,103.92155)">
    <g
       id="g1230"
       transform="scale(1.5)">
      <path
         id="path1216"
         style="fill:#ffb2bc;fill-opacity:1;stroke:#601136;stroke-width:1;stroke-linecap:round;stroke-opacity:1"
         d="m 8.5,8.5 v -4 a 4,4 90 0 1 4,-4 h 4 10 30 4 a 4,4 90 0 1 4,4 v 4 h -4 v -3 h -4 v 10 h 4 v -3 h 4 v 17 h -4 v -3 h -4 v 10 h 4 v -3 h 4 v 4 a 4,4 90 0 1 -4,4 h -4 -30 -10 -4 a 4,4 90 0 1 -4,-4 v -4 -21 -1 h -6 v 3 h -2 v -8 h 2 v 3 h 6 z" />
      <text
         id="text1220"
         style="font-size:14px;font-family:sans-serif;text-anchor:end;fill:#000000">
        <tspan
           id="tspan1218"
           y="23.799999"
           x="54.333332">/</tspan>
      </text>
      <text
         id="text1224"
         style="font-size:9.33333302px;font-family:sans-serif;text-anchor:end;fill:#000000">
        <tspan
           id="tspan1222"
           y="10.75"
           x="54.333332" />
      </text>
      <text
         id="text1228"
         style="font-size:9.33333302px;font-family:sans-serif;text-anchor:end;fill:#000000">
        <tspan
           id="tspan1226"
           y="31.75"
           x="54.333332" />
      </text>
    </g>
  </g>
  <g
     id="g1242"
     transform="translate(188.34229,103.92155)">
    <g
       id="g1240"
       transform="scale(1.5)">
      <path
         id="path1234"
         style="fill:#ffb2bc;fill-opacity:1;stroke:#601136;stroke-width:1;stroke-linecap:round;stroke-opacity:1"
         d="m 8.5,0.5 h 60 v 20 h -60 v -8 -1 h -6 v 3 h -2 v -8 h 2 v 3 h 6 v -1 z" />
      <text
         id="text1238"
         style="font-size:10px;font-family:sans-serif;text-anchor:start;fill:#000000">
        <tspan
           id="tspan1236"
           y="13.833333"
           x="13.333333">1</tspan>
      </text>
    </g>
  </g>
  <g
     id="g1252"
     transform="translate(188.34229,135.42155)">
    <g
       id="g1250"
       transform="scale(1.5)">
      <path
         id="path1244"
         style="fill:#ffb2bc;fill-opacity:1;stroke:#601136;stroke-width:1;stroke-linecap:round;stroke-opacity:1"
         d="m 8.5,0.5 h 60 v 20 h -60 v -8 -1 h -6 v 3 h -2 v -8 h 2 v 3 h 6 v -1 z" />
      <text
         id="text1248"
         style="font-size:10px;font-family:sans-serif;text-anchor:start;fill:#000000">
        <tspan
           id="tspan1246"
           y="13.833333"
           x="13.333333">4</tspan>
      </text>
    </g>
  </g>
  <g
     id="g1262"
     transform="translate(13.5,40.921537)">
    <g
       id="g1260"
       transform="scale(1.5)">
      <path
         id="path1254"
         style="fill:#ffe05c;fill-opacity:1;stroke:#644300;stroke-width:1;stroke-linecap:round;stroke-opacity:1"
         d="m 0.5,8.5 v -4 a 4,4 90 0 1 4,-4 h 4 v 2 h 10 v -2 h 40 4 a 4,4 90 0 1 4,4 v 4 4 4 a 4,4 90 0 1 -4,4 h -4 -40 -1 v 2 h -8 v -2 h -1 -4 a 4,4 90 0 1 -4,-4 v -4 z" />
      <text
         id="text1258"
         style="font-size:10px;font-family:sans-serif;text-anchor:end;fill:#000000">
        <tspan
           id="tspan1256"
           y="13.5"
           x="56.333332">stair</tspan>
      </text>
    </g>
  </g>
</svg>
