<?xml version="1.0" encoding="UTF-8" standalone="no"?>
<svg
   xmlns:dc="http://purl.org/dc/elements/1.1/"
   xmlns:cc="http://creativecommons.org/ns#"
   xmlns:rdf="http://www.w3.org/1999/02/22-rdf-syntax-ns#"
   xmlns:svg="http://www.w3.org/2000/svg"
   xmlns="http://www.w3.org/2000/svg"
   version="1.1"
   id="svg4075"
   viewBox="0 0 368.00003 172.00002"
   height="48.542229mm"
   width="103.85779mm">
  <defs
     id="defs4077" />
  <metadata
     id="metadata4080">
    <rdf:RDF>
      <cc:Work
         rdf:about="">
        <dc:format>image/svg+xml</dc:format>
        <dc:type
           rdf:resource="http://purl.org/dc/dcmitype/StillImage" />
        <dc:title></dc:title>
      </cc:Work>
    </rdf:RDF>
  </metadata>
  <path
     style="fill:#00b700;fill-opacity:1;stroke:#007b00;stroke-width:2;stroke-linecap:round;stroke-opacity:1"
     id="path3194"
     d="m 19,101.00001 0,-8 c 0,-4.41828 3.58172,-8 8,-8 l 8,0 0,4 20,0 0,-4 60,0 8,0 c 4.41828,0 8,3.58172 8,8 l 0,8 -8,0 0,-6 -8,0 0,20 8,0 0,-6 8,0 0,8 c 0,4.41828 -3.58172,8 -8,8 l -8,0 -60,0 -2,0 0,4 -16,0 0,-4 -2,0 -8,0 c -4.41828,0 -8,-3.58172 -8,-8 l 0,-8 0,0 z" />
  <text
     style="font-size:20px;font-family:Sans;text-anchor:end;fill:#000000"
     id="text3196"
     x="18.00001"
     y="64.000008">
    <tspan
       id="tspan3198"
       y="113"
       x="112.00001">hertz</tspan>
  </text>
  <g
     transform="translate(-165.83636,138.82425)"
     id="g3710">
    <path
       d="m 298.83636,-53.824242 120,0 0,40 -120,0 0,-16 0,-2 -12,0 0,6 -4,0 0,-16 4,0 0,6 12,0 0,-2 z"
       id="path21-6"
       style="fill:#ff00ff;fill-opacity:1;stroke:#c700d3;stroke-width:2;stroke-linecap:round;stroke-opacity:1" />
    <text
       id="text23-9"
       style="font-size:20px;font-family:Sans;text-anchor:start;fill:#000000"
       x="319.83636"
       y="-54.824242">
      <tspan
         x="339.83636"
         y="-28.824242"
         id="tspan25-8">880</tspan>
    </text>
  </g>
  <path
     style="fill:#fd6600;fill-opacity:1;stroke:#ac3d00;stroke-width:2;stroke-linecap:round;stroke-opacity:1"
     id="path3035-5"
     d="m 1,17.00001 0,-8 c 0,-4.41828 3.58173,-8 8.00001,-8 l 8,0 0,4 20,0 0,-4 18,0 59.99999,0 8.00002,0 c 4.41827,0 9.07158,3.71364 8,8 l 0,8 -8,0 0,-6 -8.00002,0 0,20 8.00002,0 0,-6 8,0 0,8 c 0,4.41828 -3.58173,8 -8,8 l -8.00002,0 -59.99999,0 -2,0 0,4 -16,0 0,-4 -2,0 -8,0 c -5.52285,0 -10,4.47715 -10,10 l 0,8 0,50.00001 0,7.99999 c 0,5.52285 4.64205,11.3395 10,10 l 8,0 0,4 20,0 0,-4 16,0 0,12 0,12 0,8 c 0,4.41828 -3.71364,9.07161 -8,8.00001 l -8,0 -18,0 -2,0 0,4 -16,0 0,-4 -2,0 -8,0 C 4.58173,167.00002 1,163.41829 1,159.00001 l 0,-8 z" />
  <text
     x="-1.9999794"
     y="-2.0000205"
     style="font-size:20px;font-family:Sans;text-anchor:start;fill:#000000"
     id="text3037-3">
    <tspan
       id="tspan3039-5"
       y="28.499979"
       x="6.0000205">note value</tspan>
  </text>
  <path
     style="fill:#ff00ff;fill-opacity:1;stroke:#c700d3;stroke-width:2;stroke-linecap:round;stroke-opacity:1"
     id="path21-6-1-7"
     d="m 247.00002,43.00001 120.00002,0 0,40 -120.00002,0 0,-16 0,-2 -12,0 0,6 -4,0 0,-16 4,0 0,6 12,0 0,-2 z" />
  <text
     y="41.999981"
     x="277.99997"
     style="font-size:20px;font-family:Sans;text-anchor:start;fill:#000000"
     id="text23-9-82-9">
    <tspan
       id="tspan25-8-5-2"
       y="67.999977"
       x="297.99997">8</tspan>
  </text>
  <path
     style="fill:#ff00ff;fill-opacity:1;stroke:#c700d3;stroke-width:2;stroke-linecap:round;stroke-opacity:1"
     id="path3798-4-4-5"
     d="m 133.00002,17.00001 0,-8 a 8.0000007,8.0000006 0 0 1 8,-8 l 8,0 20,0 60,0 8,0 a 8.0000007,8.0000006 0 0 1 8,8 l 0,8 -8,0 0,-6 -8,0 0,20 8,0 0,-6 8,0 0,34 -8,0 0,-6 -8,0 0,20 8,0 0,-6 8,0 0,8 a 8.0000007,8.0000006 0 0 1 -8,8 l -8,0 -60,0 -20,0 -8,0 a 8.0000007,8.0000006 0 0 1 -8,-8 l 0,-8 0,-42 0,-2 -12,0 0,6 -4.00002,0 0,-16 4.00002,0 0,6 12,0 0,-2 z" />
  <text
     x="108.00005"
     style="font-size:28px;font-family:sans-serif;text-anchor:end;fill:#000000"
     id="text3800-3-2-0"
     y="-2.0517578e-05">
    <tspan
       id="tspan3802-6-2-5"
       y="48.999981"
       x="218.00002">/</tspan>
  </text>
  <g
     id="g5147"
     transform="translate(0,-42)">
    <path
       d="m 247,43 120,0 0,40 -120,0 0,-16 0,-2 -12,0 0,6 -4,0 0,-16 4,0 0,6 12,0 0,-2 z"
       id="path21-8-2-1-0-6"
       style="fill:#ff00ff;fill-opacity:1;stroke:#c700d3;stroke-width:2;stroke-linecap:round;stroke-opacity:1" />
    <text
       x="279"
       y="44"
       id="text23-0-1-0-1-0"
       style="font-size:20px;font-family:Sans;text-anchor:start;fill:#000000">
      <tspan
         x="299"
         y="70.000031"
         id="tspan25-7-0-5-2-5">1</tspan>
    </text>
  </g>
  <path
     d="m 19.00001,59.00001 0,-8 c 0,-4.41828 3.58172,-8 8,-8 l 8,0 0,4 20,0 0,-4 59.99999,0 8.00002,0 c 4.41827,0 8,3.58172 8,8 l 0,8 0,8 0,8 c 0,4.41828 -3.71365,6.92841 -8,8 l -8.00002,0 -59.99999,0 -2,0 0,4 -16,0 0,-4 -2,0 -8,0 c -4.41828,0 -8,-3.58172 -8,-8 l 0,-8 0,0 z"
     id="path3124"
     style="fill:#fd6600;fill-opacity:1;stroke:#ac3d00;stroke-width:2;stroke-linecap:round;stroke-opacity:1" />
  <text
     xml:space="preserve"
     style="font-style:normal;font-weight:normal;font-size:16px;line-height:125%;font-family:sans-serif;text-align:center;letter-spacing:0px;word-spacing:0px;text-anchor:middle;fill:#000000;fill-opacity:1;stroke:none;stroke-width:1px;stroke-linecap:butt;stroke-linejoin:miter;stroke-opacity:1"
     x="100.82305"
     y="69.923119"
     id="text6137"><tspan
       id="tspan6139"
       x="100.82305"
       y="69.923119"
       style="font-size:22.5px">↓</tspan></text>
</svg>
