<?xml version="1.0" encoding="UTF-8" standalone="no"?>
<svg
   xmlns:dc="http://purl.org/dc/elements/1.1/"
   xmlns:cc="http://creativecommons.org/ns#"
   xmlns:rdf="http://www.w3.org/1999/02/22-rdf-syntax-ns#"
   xmlns:svg="http://www.w3.org/2000/svg"
   xmlns="http://www.w3.org/2000/svg"
   width="178.59375"
   height="135.79037"
   viewBox="0 0 178.59375 135.79038"
   id="svg4167"
   version="1.1">
  <defs
     id="defs4169" />
  <metadata
     id="metadata4172">
    <rdf:RDF>
      <cc:Work
         rdf:about="">
        <dc:format>image/svg+xml</dc:format>
        <dc:type
           rdf:resource="http://purl.org/dc/dcmitype/StillImage" />
        <dc:title></dc:title>
      </cc:Work>
    </rdf:RDF>
  </metadata>
  <g
     id="g1276"
     transform="matrix(0.93749999,0,0,0.93749999,12.65625,67.895191)">
    <g
       id="g1274"
       transform="scale(1.5)">
      <path
         id="path1264"
         style="fill:#93e042;fill-opacity:1;stroke:#004000;stroke-width:1;stroke-linecap:round;stroke-opacity:1"
         d="m 0.5,8.5 v -4 a 4,4 90 0 1 4,-4 h 4 v 2 h 10 v -2 h 30 4 a 4,4 90 0 1 4,4 v 4 h -4 v -3 h -4 v 10 h 4 v -3 h 4 v 4 a 4,4 90 0 1 -4,4 h -4 -30 -1 v 2 h -8 v -2 h -1 -4 a 4,4 90 0 1 -4,-4 v -4 z" />
      <text
         id="text1268"
         style="font-size:10px;font-family:sans-serif;text-anchor:end;fill:#000000">
        <tspan
           id="tspan1266"
           y="13.5"
           x="46.333332">hertz</tspan>
      </text>
      <text
         id="text1272"
         style="font-size:6.66666651px;font-family:sans-serif;text-anchor:end;fill:#000000">
        <tspan
           id="tspan1270"
           y="11.25"
           x="46.333332" />
      </text>
    </g>
  </g>
  <g
     id="g1286"
     transform="matrix(0.93749999,0,0,0.93749999,81.5625,67.895191)">
    <g
       id="g1284"
       transform="scale(1.5)">
      <path
         id="path1278"
         style="fill:#ffb2bc;fill-opacity:1;stroke:#601136;stroke-width:1;stroke-linecap:round;stroke-opacity:1"
         d="m 8.5,0.5 h 60 v 20 h -60 v -8 -1 h -6 v 3 h -2 v -8 h 2 v 3 h 6 v -1 z" />
      <text
         id="text1282"
         style="font-size:10px;font-family:sans-serif;text-anchor:start;fill:#000000">
        <tspan
           id="tspan1280"
           y="13.833333"
           x="13.333333">440</tspan>
      </text>
    </g>
  </g>
  <g
     id="g1296"
     transform="matrix(0.93749999,0,0,0.93749999,0,0.39519136)">
    <g
       id="g1294"
       transform="scale(1.5)">
      <path
         id="path1288"
         style="fill:#9ddd5f;fill-opacity:1;stroke:#003e00;stroke-width:1;stroke-linecap:round;stroke-opacity:1"
         d="m 0.5,14.5 v -4 a 4,4 90 0 1 4,-4 h 4 l 5,-6 5,6 h 9 37.797852 4 a 4,4 90 0 1 4,4 v 4 4 4 a 4,4 90 0 1 -4,4 h -4 H 27.5 h -1 v 2 h -8 v -2 h -1 -4 a 5,5 90 0 0 -5,5 v 4 4 21 4 a 5,5 90 0 0 5,5 h 4 v 2 h 10 v -2 h 8 v 6 6 4 a 4,4 90 0 1 -4,4 h -4 -9 l -5,6 -5,-6 h -4 a 4,4 90 0 1 -4,-4 v -4 z" />
      <text
         id="text1292"
         style="font-size:10px;font-family:sans-serif;text-anchor:start;fill:#000000">
        <tspan
           id="tspan1290"
           y="21.5"
           x="5.3333335">pitch slider</tspan>
      </text>
    </g>
  </g>
  <g
     id="g1310"
     transform="matrix(0.93749999,0,0,0.93749999,12.65625,38.363941)">
    <g
       id="g1308"
       transform="scale(1.5)">
      <path
         id="path1298"
         style="fill:#93e042;fill-opacity:1;stroke:#004000;stroke-width:1;stroke-linecap:round;stroke-opacity:1"
         d="m 0.5,8.5 v -4 a 4,4 90 0 1 4,-4 h 4 v 2 h 10 v -2 h 30 4 a 4,4 90 0 1 4,4 v 4 h -4 v -3 h -4 v 10 h 4 v -3 h 4 v 4 a 4,4 90 0 1 -4,4 h -4 -30 -1 v 2 h -8 v -2 h -1 -4 a 4,4 90 0 1 -4,-4 v -4 z" />
      <text
         id="text1302"
         style="font-size:10px;font-family:sans-serif;text-anchor:end;fill:#000000">
        <tspan
           id="tspan1300"
           y="13.5"
           x="46.333332">hertz</tspan>
      </text>
      <text
         id="text1306"
         style="font-size:6.66666651px;font-family:sans-serif;text-anchor:end;fill:#000000">
        <tspan
           id="tspan1304"
           y="11.25"
           x="46.333332" />
      </text>
    </g>
  </g>
  <g
     id="g1320"
     transform="matrix(0.93749999,0,0,0.93749999,81.5625,38.363941)">
    <g
       id="g1318"
       transform="scale(1.5)">
      <path
         id="path1312"
         style="fill:#ffb2bc;fill-opacity:1;stroke:#601136;stroke-width:1;stroke-linecap:round;stroke-opacity:1"
         d="m 8.5,0.5 h 60 v 20 h -60 v -8 -1 h -6 v 3 h -2 v -8 h 2 v 3 h 6 v -1 z" />
      <text
         id="text1316"
         style="font-size:10px;font-family:sans-serif;text-anchor:start;fill:#000000">
        <tspan
           id="tspan1314"
           y="13.833333"
           x="13.333333">220</tspan>
      </text>
    </g>
  </g>
</svg>
