<?xml version="1.0" encoding="UTF-8" standalone="no"?>
<svg
   xmlns:dc="http://purl.org/dc/elements/1.1/"
   xmlns:cc="http://creativecommons.org/ns#"
   xmlns:rdf="http://www.w3.org/1999/02/22-rdf-syntax-ns#"
   xmlns:svg="http://www.w3.org/2000/svg"
   xmlns="http://www.w3.org/2000/svg"
   version="1.1"
   id="svg4167"
   viewBox="0 0 178.59375 135.79038"
   height="135.79037"
   width="178.59375">
  <defs
     id="defs4169" />
  <metadata
     id="metadata4172">
    <rdf:RDF>
      <cc:Work
         rdf:about="">
        <dc:format>image/svg+xml</dc:format>
        <dc:type
           rdf:resource="http://purl.org/dc/dcmitype/StillImage" />
        <dc:title></dc:title>
      </cc:Work>
    </rdf:RDF>
  </metadata>
  <g
     transform="matrix(0.93749999,0,0,0.93749999,12.65625,67.895191)"
     id="g1276">
    <g
       transform="scale(1.5)"
       id="g1274">
      <path
         d="m 0.5,8.5 v -4 a 4,4 90 0 1 4,-4 h 4 v 2 h 10 v -2 h 30 4 a 4,4 90 0 1 4,4 v 4 h -4 v -3 h -4 v 10 h 4 v -3 h 4 v 4 a 4,4 90 0 1 -4,4 h -4 -30 -1 v 2 h -8 v -2 h -1 -4 a 4,4 90 0 1 -4,-4 v -4 z"
         style="fill:#7cd622;fill-opacity:1;stroke:#57ad02;stroke-width:1;stroke-linecap:round;stroke-opacity:1"
         id="path1264" />
      <text
         style="font-size:10px;font-family:sans-serif;text-anchor:end;fill:#000000"
         id="text1268">
        <tspan
           x="46.333332"
           y="13.5"
           id="tspan1266">hertz</tspan>
      </text>
      <text
         style="font-size:6.66666651px;font-family:sans-serif;text-anchor:end;fill:#000000"
         id="text1272">
        <tspan
           x="46.333332"
           y="11.25"
           id="tspan1270" />
      </text>
    </g>
  </g>
  <g
     transform="matrix(0.93749999,0,0,0.93749999,81.5625,67.895191)"
     id="g1286">
    <g
       transform="scale(1.5)"
       id="g1284">
      <path
         d="m 8.5,0.5 h 60 v 20 h -60 v -8 -1 h -6 v 3 h -2 v -8 h 2 v 3 h 6 v -1 z"
         style="fill:#ff6ea1;fill-opacity:1;stroke:#ff2c76;stroke-width:1;stroke-linecap:round;stroke-opacity:1"
         id="path1278" />
      <text
         style="font-size:10px;font-family:sans-serif;text-anchor:start;fill:#000000"
         id="text1282">
        <tspan
           x="13.333333"
           y="13.833333"
           id="tspan1280">440</tspan>
      </text>
    </g>
  </g>
  <path
     d="m 0.703125,20.785816 v -5.625 a 5.625,5.625 0 0 1 5.625,-5.6249996 h 5.625 l 7.03125,-8.4375 7.03125,8.4375 h 12.65625 53.153229 5.625 a 5.625,5.625 0 0 1 5.624996,5.6249996 v 5.625 5.625 5.625 a 5.625,5.625 0 0 1 -5.624996,5.625 h -5.625 -53.153229 -1.40625 v 2.8125 h -11.25 v -2.8125 h -1.40625 -5.625 a 7.03125,7.03125 0 0 0 -7.03125,7.03125 v 5.625 5.625 29.53125 5.625 a 7.03125,7.03125 0 0 0 7.03125,7.03125 h 5.625 v 2.812504 h 14.0625 v -2.812504 h 11.25 v 8.437504 8.4375 5.625 a 5.625,5.625 0 0 1 -5.625,5.625 h -5.625 -12.65625 l -7.03125,8.4375 -7.03125,-8.4375 h -5.625 a 5.625,5.625 0 0 1 -5.625,-5.625 v -5.625 z"
     style="fill:#7cd622;fill-opacity:1;stroke:#57ad02;stroke-width:1.40625;stroke-linecap:round;stroke-opacity:1"
     id="path1288" />
  <text
     y="0.39519137"
     style="font-size:14.0625px;font-family:sans-serif;text-anchor:start;fill:#000000;stroke-width:1.40625"
     id="text1292">
    <tspan
       style="stroke-width:1.40625"
       x="7.5"
       y="30.629566"
       id="tspan1290">pitch slider</tspan>
  </text>
  <g
     transform="matrix(0.93749999,0,0,0.93749999,12.65625,38.363941)"
     id="g1310">
    <g
       transform="scale(1.5)"
       id="g1308">
      <path
         d="m 0.5,8.5 v -4 a 4,4 90 0 1 4,-4 h 4 v 2 h 10 v -2 h 30 4 a 4,4 90 0 1 4,4 v 4 h -4 v -3 h -4 v 10 h 4 v -3 h 4 v 4 a 4,4 90 0 1 -4,4 h -4 -30 -1 v 2 h -8 v -2 h -1 -4 a 4,4 90 0 1 -4,-4 v -4 z"
         style="fill:#7cd622;fill-opacity:1;stroke:#57ad02;stroke-width:1;stroke-linecap:round;stroke-opacity:1"
         id="path1298" />
      <text
         style="font-size:10px;font-family:sans-serif;text-anchor:end;fill:#000000"
         id="text1302">
        <tspan
           x="46.333332"
           y="13.5"
           id="tspan1300">hertz</tspan>
      </text>
      <text
         style="font-size:6.66666651px;font-family:sans-serif;text-anchor:end;fill:#000000"
         id="text1306">
        <tspan
           x="46.333332"
           y="11.25"
           id="tspan1304" />
      </text>
    </g>
  </g>
  <g
     transform="matrix(0.93749999,0,0,0.93749999,81.5625,38.363941)"
     id="g1320">
    <g
       transform="scale(1.5)"
       id="g1318">
      <path
         d="m 8.5,0.5 h 60 v 20 h -60 v -8 -1 h -6 v 3 h -2 v -8 h 2 v 3 h 6 v -1 z"
         style="fill:#ff6ea1;fill-opacity:1;stroke:#ff2c76;stroke-width:1;stroke-linecap:round;stroke-opacity:1"
         id="path1312" />
      <text
         style="font-size:10px;font-family:sans-serif;text-anchor:start;fill:#000000"
         id="text1316">
        <tspan
           x="13.333333"
           y="13.833333"
           id="tspan1314">220</tspan>
      </text>
    </g>
  </g>
</svg>
