<?xml version="1.0" encoding="UTF-8" standalone="no"?>
<svg
   xmlns:dc="http://purl.org/dc/elements/1.1/"
   xmlns:cc="http://creativecommons.org/ns#"
   xmlns:rdf="http://www.w3.org/1999/02/22-rdf-syntax-ns#"
   xmlns:svg="http://www.w3.org/2000/svg"
   xmlns="http://www.w3.org/2000/svg"
   width="625.98865"
   height="431.10287"
   viewBox="0 0 625.98865 431.10287"
   id="svg4075"
   version="1.1">
  <defs
     id="defs4077" />
  <metadata
     id="metadata4080">
    <rdf:RDF>
      <cc:Work
         rdf:about="">
        <dc:format>image/svg+xml</dc:format>
        <dc:type
           rdf:resource="http://purl.org/dc/dcmitype/StillImage" />
        <dc:title></dc:title>
      </cc:Work>
    </rdf:RDF>
  </metadata>
  <text
     style="font-size:13.33333302px;font-family:Sans;text-anchor:end;fill:#000000"
     id="text3033"
     y="-127.32195"
     x="-115.71424">
    <tspan
       id="tspan3035"
       y="-104.82195"
       x="-13.71424" />
  </text>
  <text
     style="font-size:13.33333302px;font-family:Sans;text-anchor:end;fill:#000000"
     id="text3107"
     y="-62.358391"
     x="-97.714241">
    <tspan
       id="tspan3109"
       y="-39.858391"
       x="-3.7142401" />
  </text>
  <text
     style="font-size:13.33333302px;font-family:Sans;text-anchor:end;fill:#000000"
     id="text3033-0"
     y="-43.321953"
     x="-115.71424">
    <tspan
       id="tspan3035-1"
       y="-20.821949"
       x="-13.71424" />
  </text>
  <text
     style="font-size:13.33333302px;font-family:Sans;text-anchor:end;fill:#000000"
     id="text3033-1"
     y="40.677986"
     x="-115.71424">
    <tspan
       id="tspan3035-8"
       y="63.177986"
       x="-13.71424" />
  </text>
  <text
     style="font-size:13.33333302px;font-family:Sans;text-anchor:end;fill:#000000"
     id="text3033-0-9"
     y="124.67799"
     x="-115.71424">
    <tspan
       id="tspan3035-1-5"
       y="147.17799"
       x="-13.71424" />
  </text>
  <text
     style="font-size:13.33333302px;font-family:Sans;text-anchor:end;fill:#000000"
     id="text27-9"
     x="-89.714272"
     y="576.20374">
    <tspan
       id="tspan29-8"
       y="598.70367"
       x="4.2857294" />
  </text>
  <g
     id="g2579"
     transform="matrix(0.9375,0,0,0.9375,-415.3125,-383.97981)">
    <g
       transform="translate(785,410)"
       id="g1438">
      <g
         transform="scale(1.5)"
         id="g1436">
        <path
           d="m 0.5,14.5 v -4 a 4,4 90 0 1 4,-4 h 4 l 5,-6 5,6 h 9 30 4 a 4,4 90 0 1 4,4 v 4 4 4 a 4,4 90 0 1 -4,4 h -4 -30 -1 v 2 h -8 v -2 h -1 -4 a 5,5 90 0 0 -5,5 v 4 4 231 4 a 5,5 90 0 0 5,5 h 4 v 2 h 10 v -2 h 8 v 6 6 4 a 4,4 90 0 1 -4,4 h -4 -9 l -5,6 -5,-6 h -4 a 4,4 90 0 1 -4,-4 v -4 z"
           style="fill:#ffe05c;fill-opacity:1;stroke:#644300;stroke-width:1;stroke-linecap:round;stroke-opacity:1"
           id="path1430" />
        <text
           style="font-size:10px;font-family:sans-serif;text-anchor:start;fill:#000000"
           id="text1434">
          <tspan
             x="5.3333335"
             y="21.5"
             id="tspan1432">start</tspan>
        </text>
      </g>
    </g>
    <g
       transform="translate(798.5,450.5)"
       id="g1448">
      <g
         transform="scale(1.5)"
         id="g1446">
        <path
           d="m 0.5,8.5 v -4 a 4,4 90 0 1 4,-4 h 4 v 2 h 10 v -2 h 9 11.123047 4 a 4,4 90 0 1 4,4 v 4 4 4 a 4,4 90 0 1 -4,4 h -4 H 27.5 h -1 v 2 h -8 v -2 h -1 -4 a 5,5 90 0 0 -5,5 v 4 4 189 4 a 5,5 90 0 0 5,5 h 4 v 2 h 10 v -2 h 8 v 6 6 4 a 4,4 90 0 1 -4,4 h -4 -9 -1 v 2 h -8 v -2 h -1 -4 a 4,4 90 0 1 -4,-4 v -4 z"
           style="fill:#e9a066;fill-opacity:1;stroke:#3f0a00;stroke-width:1;stroke-linecap:round;stroke-opacity:1"
           id="path1440" />
        <text
           style="font-size:10px;font-family:sans-serif;text-anchor:start;fill:#000000"
           id="text1444">
          <tspan
             x="5.3333335"
             y="15.25"
             id="tspan1442">forever</tspan>
        </text>
      </g>
    </g>
    <g
       transform="translate(812,482)"
       id="g1462">
      <g
         transform="scale(1.5)"
         id="g1460">
        <path
           d="m 0.5,8.5 v -4 a 4,4 90 0 1 4,-4 h 4 v 2 h 10 v -2 h 9 36.147461 4 a 4,4 90 0 1 4,4 v 4 h -4 v -3 h -4 v 10 h 4 v -3 h 4 v 4 a 4,4 90 0 1 -4,4 h -4 H 27.5 h -1 v 2 h -8 v -2 h -1 -4 a 5,5 90 0 0 -5,5 v 4 4 21 4 a 5,5 90 0 0 5,5 h 4 v 2 h 10 v -2 h 8 v 6 6 4 a 4,4 90 0 1 -4,4 h -4 -9 -1 v 2 h -8 v -2 h -1 -4 a 4,4 90 0 1 -4,-4 v -4 z"
           style="fill:#ff8b2d;fill-opacity:1;stroke:#520000;stroke-width:1;stroke-linecap:round;stroke-opacity:1"
           id="path1450" />
        <text
           style="font-size:10px;font-family:sans-serif;text-anchor:start;fill:#000000"
           id="text1454">
          <tspan
             x="5.3333335"
             y="15.25"
             id="tspan1452">note value</tspan>
        </text>
        <text
           style="font-size:6.66666651px;font-family:sans-serif;text-anchor:end;fill:#000000"
           id="text1458">
          <tspan
             x="61.480793"
             y="11.25"
             id="tspan1456" />
        </text>
      </g>
    </g>
    <g
       transform="translate(908.22119,482)"
       id="g1480">
      <g
         transform="scale(1.5)"
         id="g1478">
        <path
           d="m 8.5,8.5 v -4 a 4,4 90 0 1 4,-4 h 4 10 30 4 a 4,4 90 0 1 4,4 v 4 h -4 v -3 h -4 v 10 h 4 v -3 h 4 v 17 h -4 v -3 h -4 v 10 h 4 v -3 h 4 v 4 a 4,4 90 0 1 -4,4 h -4 -30 -10 -4 a 4,4 90 0 1 -4,-4 v -4 -21 -1 h -6 v 3 h -2 v -8 h 2 v 3 h 6 z"
           style="fill:#ffb2bc;fill-opacity:1;stroke:#601136;stroke-width:1;stroke-linecap:round;stroke-opacity:1"
           id="path1464" />
        <text
           style="font-size:14px;font-family:sans-serif;text-anchor:end;fill:#000000"
           id="text1468">
          <tspan
             x="54.333332"
             y="23.799999"
             id="tspan1466">/</tspan>
        </text>
        <text
           style="font-size:9.33333302px;font-family:sans-serif;text-anchor:end;fill:#000000"
           id="text1472">
          <tspan
             x="54.333332"
             y="10.75"
             id="tspan1470" />
        </text>
        <text
           style="font-size:9.33333302px;font-family:sans-serif;text-anchor:end;fill:#000000"
           id="text1476">
          <tspan
             x="54.333332"
             y="31.75"
             id="tspan1474" />
        </text>
      </g>
    </g>
    <g
       transform="translate(993.72119,482)"
       id="g1490">
      <g
         transform="scale(1.5)"
         id="g1488">
        <path
           d="m 8.5,0.5 h 60 v 20 h -60 v -8 -1 h -6 v 3 h -2 v -8 h 2 v 3 h 6 v -1 z"
           style="fill:#ffb2bc;fill-opacity:1;stroke:#601136;stroke-width:1;stroke-linecap:round;stroke-opacity:1"
           id="path1482" />
        <text
           style="font-size:10px;font-family:sans-serif;text-anchor:start;fill:#000000"
           id="text1486">
          <tspan
             x="13.333333"
             y="13.833333"
             id="tspan1484">1</tspan>
        </text>
      </g>
    </g>
    <g
       transform="translate(993.72119,513.5)"
       id="g1500">
      <g
         transform="scale(1.5)"
         id="g1498">
        <path
           d="m 8.5,0.5 h 60 v 20 h -60 v -8 -1 h -6 v 3 h -2 v -8 h 2 v 3 h 6 v -1 z"
           style="fill:#ffb2bc;fill-opacity:1;stroke:#601136;stroke-width:1;stroke-linecap:round;stroke-opacity:1"
           id="path1492" />
        <text
           style="font-size:10px;font-family:sans-serif;text-anchor:start;fill:#000000"
           id="text1496">
          <tspan
             x="13.333333"
             y="13.833333"
             id="tspan1494">2</tspan>
        </text>
      </g>
    </g>
    <g
       transform="translate(825.5,513.5)"
       id="g1510">
      <g
         transform="scale(1.5)"
         id="g1508">
        <path
           d="m 0.5,8.5 v -4 a 4,4 90 0 1 4,-4 h 4 v 2 h 10 v -2 h 20 4 a 4,4 90 0 1 4,4 v 4 4 4 a 4,4 90 0 1 -4,4 h -4 -20 -1 v 2 h -8 v -2 h -1 -4 a 4,4 90 0 1 -4,-4 v -4 z"
           style="fill:#d57e6f;fill-opacity:1;stroke:#000000;stroke-width:1;stroke-linecap:round;stroke-opacity:1"
           id="path1502" />
        <text
           style="font-size:10px;font-family:sans-serif;text-anchor:end;fill:#000000"
           id="text1506">
          <tspan
             x="36.333332"
             y="13.5"
             id="tspan1504">↓</tspan>
        </text>
      </g>
    </g>
    <g
       transform="translate(825.5,545)"
       id="g1524">
      <g
         transform="scale(1.5)"
         id="g1522">
        <path
           d="m 0.5,8.5 v -4 a 4,4 90 0 1 4,-4 h 4 v 2 h 10 v -2 h 30 4 a 4,4 90 0 1 4,4 v 4 h -4 v -3 h -4 v 10 h 4 v -3 h 4 v 4 a 4,4 90 0 1 -4,4 h -4 -30 -1 v 2 h -8 v -2 h -1 -4 a 4,4 90 0 1 -4,-4 v -4 z"
           style="fill:#3ea4a3;fill-opacity:1;stroke:#000000;stroke-width:1;stroke-linecap:round;stroke-opacity:1"
           id="path1512" />
        <text
           style="font-size:10px;font-family:sans-serif;text-anchor:end;fill:#000000"
           id="text1516">
          <tspan
             x="46.333332"
             y="13.5"
             id="tspan1514">drum</tspan>
        </text>
        <text
           style="font-size:6.66666651px;font-family:sans-serif;text-anchor:end;fill:#000000"
           id="text1520">
          <tspan
             x="46.333332"
             y="11.25"
             id="tspan1518" />
        </text>
      </g>
    </g>
    <g
       transform="translate(899,545)"
       id="g1534">
      <g
         transform="scale(1.5)"
         id="g1532">
        <path
           d="m 8.5,0.5 h 60 v 20 h -60 v -8 -1 h -6 v 3 h -2 v -8 h 2 v 3 h 6 v -1 z"
           style="fill:#3ea4a3;fill-opacity:1;stroke:#000000;stroke-width:1;stroke-linecap:round;stroke-opacity:1"
           id="path1526" />
        <text
           style="font-size:10px;font-family:sans-serif;text-anchor:start;fill:#000000"
           id="text1530">
          <tspan
             x="13.333333"
             y="13.833333"
             id="tspan1528">snare drum</tspan>
        </text>
      </g>
    </g>
    <g
       transform="translate(812,608)"
       id="g1548">
      <g
         transform="scale(1.5)"
         id="g1546">
        <path
           d="m 0.5,8.5 v -4 a 4,4 90 0 1 4,-4 h 4 v 2 h 10 v -2 h 9 20 4 a 4,4 90 0 1 4,4 v 4 h -4 v -3 h -4 v 10 h 4 v -3 h 4 v 4 a 4,4 90 0 1 -4,4 h -4 -20 -1 v 2 h -8 v -2 h -1 -4 a 5,5 90 0 0 -5,5 v 4 4 63 4 a 5,5 90 0 0 5,5 h 4 v 2 h 10 v -2 h 8 v 6 6 4 a 4,4 90 0 1 -4,4 h -4 -9 -1 v 2 h -8 v -2 h -1 -4 a 4,4 90 0 1 -4,-4 v -4 z"
           style="fill:#e9a066;fill-opacity:1;stroke:#3f0a00;stroke-width:1;stroke-linecap:round;stroke-opacity:1"
           id="path1536" />
        <text
           style="font-size:10px;font-family:sans-serif;text-anchor:start;fill:#000000"
           id="text1540">
          <tspan
             x="5.3333335"
             y="15.25"
             id="tspan1538">repeat</tspan>
        </text>
        <text
           style="font-size:6.66666651px;font-family:sans-serif;text-anchor:end;fill:#000000"
           id="text1544">
          <tspan
             x="45.333332"
             y="11.25"
             id="tspan1542" />
        </text>
      </g>
    </g>
    <g
       transform="translate(884,608)"
       id="g1558">
      <g
         transform="scale(1.5)"
         id="g1556">
        <path
           d="m 8.5,0.5 h 60 v 20 h -60 v -8 -1 h -6 v 3 h -2 v -8 h 2 v 3 h 6 v -1 z"
           style="fill:#ffb2bc;fill-opacity:1;stroke:#601136;stroke-width:1;stroke-linecap:round;stroke-opacity:1"
           id="path1550" />
        <text
           style="font-size:10px;font-family:sans-serif;text-anchor:start;fill:#000000"
           id="text1554">
          <tspan
             x="13.333333"
             y="13.833333"
             id="tspan1552">2</tspan>
        </text>
      </g>
    </g>
    <g
       transform="translate(825.5,639.5)"
       id="g1572">
      <g
         transform="scale(1.5)"
         id="g1570">
        <path
           d="m 0.5,8.5 v -4 a 4,4 90 0 1 4,-4 h 4 v 2 h 10 v -2 h 9 36.147461 4 a 4,4 90 0 1 4,4 v 4 h -4 v -3 h -4 v 10 h 4 v -3 h 4 v 4 a 4,4 90 0 1 -4,4 h -4 H 27.5 h -1 v 2 h -8 v -2 h -1 -4 a 5,5 90 0 0 -5,5 v 4 4 21 4 a 5,5 90 0 0 5,5 h 4 v 2 h 10 v -2 h 8 v 6 6 4 a 4,4 90 0 1 -4,4 h -4 -9 -1 v 2 h -8 v -2 h -1 -4 a 4,4 90 0 1 -4,-4 v -4 z"
           style="fill:#ff8b2d;fill-opacity:1;stroke:#520000;stroke-width:1;stroke-linecap:round;stroke-opacity:1"
           id="path1560" />
        <text
           style="font-size:10px;font-family:sans-serif;text-anchor:start;fill:#000000"
           id="text1564">
          <tspan
             x="5.3333335"
             y="15.25"
             id="tspan1562">note value</tspan>
        </text>
        <text
           style="font-size:6.66666651px;font-family:sans-serif;text-anchor:end;fill:#000000"
           id="text1568">
          <tspan
             x="61.480793"
             y="11.25"
             id="tspan1566" />
        </text>
      </g>
    </g>
    <g
       transform="translate(921.72119,639.5)"
       id="g1590">
      <g
         transform="scale(1.5)"
         id="g1588">
        <path
           d="m 8.5,8.5 v -4 a 4,4 90 0 1 4,-4 h 4 10 30 4 a 4,4 90 0 1 4,4 v 4 h -4 v -3 h -4 v 10 h 4 v -3 h 4 v 17 h -4 v -3 h -4 v 10 h 4 v -3 h 4 v 4 a 4,4 90 0 1 -4,4 h -4 -30 -10 -4 a 4,4 90 0 1 -4,-4 v -4 -21 -1 h -6 v 3 h -2 v -8 h 2 v 3 h 6 z"
           style="fill:#ffb2bc;fill-opacity:1;stroke:#601136;stroke-width:1;stroke-linecap:round;stroke-opacity:1"
           id="path1574" />
        <text
           style="font-size:14px;font-family:sans-serif;text-anchor:end;fill:#000000"
           id="text1578">
          <tspan
             x="54.333332"
             y="23.799999"
             id="tspan1576">/</tspan>
        </text>
        <text
           style="font-size:9.33333302px;font-family:sans-serif;text-anchor:end;fill:#000000"
           id="text1582">
          <tspan
             x="54.333332"
             y="10.75"
             id="tspan1580" />
        </text>
        <text
           style="font-size:9.33333302px;font-family:sans-serif;text-anchor:end;fill:#000000"
           id="text1586">
          <tspan
             x="54.333332"
             y="31.75"
             id="tspan1584" />
        </text>
      </g>
    </g>
    <g
       transform="translate(1007.2212,639.5)"
       id="g1600">
      <g
         transform="scale(1.5)"
         id="g1598">
        <path
           d="m 8.5,0.5 h 60 v 20 h -60 v -8 -1 h -6 v 3 h -2 v -8 h 2 v 3 h 6 v -1 z"
           style="fill:#ffb2bc;fill-opacity:1;stroke:#601136;stroke-width:1;stroke-linecap:round;stroke-opacity:1"
           id="path1592" />
        <text
           style="font-size:10px;font-family:sans-serif;text-anchor:start;fill:#000000"
           id="text1596">
          <tspan
             x="13.333333"
             y="13.833333"
             id="tspan1594">1</tspan>
        </text>
      </g>
    </g>
    <g
       transform="translate(1007.2212,671)"
       id="g1610">
      <g
         transform="scale(1.5)"
         id="g1608">
        <path
           d="m 8.5,0.5 h 60 v 20 h -60 v -8 -1 h -6 v 3 h -2 v -8 h 2 v 3 h 6 v -1 z"
           style="fill:#ffb2bc;fill-opacity:1;stroke:#601136;stroke-width:1;stroke-linecap:round;stroke-opacity:1"
           id="path1602" />
        <text
           style="font-size:10px;font-family:sans-serif;text-anchor:start;fill:#000000"
           id="text1606">
          <tspan
             x="13.333333"
             y="13.833333"
             id="tspan1604">4</tspan>
        </text>
      </g>
    </g>
    <g
       transform="translate(839,671)"
       id="g1620">
      <g
         transform="scale(1.5)"
         id="g1618">
        <path
           d="m 0.5,8.5 v -4 a 4,4 90 0 1 4,-4 h 4 v 2 h 10 v -2 h 20 4 a 4,4 90 0 1 4,4 v 4 4 4 a 4,4 90 0 1 -4,4 h -4 -20 -1 v 2 h -8 v -2 h -1 -4 a 4,4 90 0 1 -4,-4 v -4 z"
           style="fill:#d57e6f;fill-opacity:1;stroke:#000000;stroke-width:1;stroke-linecap:round;stroke-opacity:1"
           id="path1612" />
        <text
           style="font-size:10px;font-family:sans-serif;text-anchor:end;fill:#000000"
           id="text1616">
          <tspan
             x="36.333332"
             y="13.5"
             id="tspan1614">↓</tspan>
        </text>
      </g>
    </g>
    <g
       transform="translate(839,702.5)"
       id="g1634">
      <g
         transform="scale(1.5)"
         id="g1632">
        <path
           d="m 0.5,8.5 v -4 a 4,4 90 0 1 4,-4 h 4 v 2 h 10 v -2 h 30 4 a 4,4 90 0 1 4,4 v 4 h -4 v -3 h -4 v 10 h 4 v -3 h 4 v 4 a 4,4 90 0 1 -4,4 h -4 -30 -1 v 2 h -8 v -2 h -1 -4 a 4,4 90 0 1 -4,-4 v -4 z"
           style="fill:#3ea4a3;fill-opacity:1;stroke:#000000;stroke-width:1;stroke-linecap:round;stroke-opacity:1"
           id="path1622" />
        <text
           style="font-size:10px;font-family:sans-serif;text-anchor:end;fill:#000000"
           id="text1626">
          <tspan
             x="46.333332"
             y="13.5"
             id="tspan1624">drum</tspan>
        </text>
        <text
           style="font-size:6.66666651px;font-family:sans-serif;text-anchor:end;fill:#000000"
           id="text1630">
          <tspan
             x="46.333332"
             y="11.25"
             id="tspan1628" />
        </text>
      </g>
    </g>
    <g
       transform="translate(912.5,702.5)"
       id="g1644">
      <g
         transform="scale(1.5)"
         id="g1642">
        <path
           d="m 8.5,0.5 h 60 v 20 h -60 v -8 -1 h -6 v 3 h -2 v -8 h 2 v 3 h 6 v -1 z"
           style="fill:#3ea4a3;fill-opacity:1;stroke:#000000;stroke-width:1;stroke-linecap:round;stroke-opacity:1"
           id="path1636" />
        <text
           style="font-size:10px;font-family:sans-serif;text-anchor:start;fill:#000000"
           id="text1640">
          <tspan
             x="13.333333"
             y="13.833333"
             id="tspan1638">snare drum</tspan>
        </text>
      </g>
    </g>
  </g>
  <g
     id="g2646"
     transform="matrix(0.9375,0,0,0.9375,-415.3125,-384.91731)">
    <g
       transform="translate(443,411)"
       id="g1654">
      <g
         transform="scale(1.5)"
         id="g1652">
        <path
           d="m 0.5,14.5 v -4 a 4,4 90 0 1 4,-4 h 4 l 5,-6 5,6 h 9 30 4 a 4,4 90 0 1 4,4 v 4 4 4 a 4,4 90 0 1 -4,4 h -4 -30 -1 v 2 h -8 v -2 h -1 -4 a 5,5 90 0 0 -5,5 v 4 4 147 4 a 5,5 90 0 0 5,5 h 4 v 2 h 10 v -2 h 8 v 6 6 4 a 4,4 90 0 1 -4,4 h -4 -9 l -5,6 -5,-6 h -4 a 4,4 90 0 1 -4,-4 v -4 z"
           style="fill:#ffe05c;fill-opacity:1;stroke:#644300;stroke-width:1;stroke-linecap:round;stroke-opacity:1"
           id="path1646" />
        <text
           style="font-size:10px;font-family:sans-serif;text-anchor:start;fill:#000000"
           id="text1650">
          <tspan
             x="5.3333335"
             y="21.5"
             id="tspan1648">start</tspan>
        </text>
      </g>
    </g>
    <g
       transform="translate(456.5,451.5)"
       id="g1664">
      <g
         transform="scale(1.5)"
         id="g1662">
        <path
           d="m 0.5,8.5 v -4 a 4,4 90 0 1 4,-4 h 4 v 2 h 10 v -2 h 9 11.123047 4 a 4,4 90 0 1 4,4 v 4 4 4 a 4,4 90 0 1 -4,4 h -4 H 27.5 h -1 v 2 h -8 v -2 h -1 -4 a 5,5 90 0 0 -5,5 v 4 4 105 4 a 5,5 90 0 0 5,5 h 4 v 2 h 10 v -2 h 8 v 6 6 4 a 4,4 90 0 1 -4,4 h -4 -9 -1 v 2 h -8 v -2 h -1 -4 a 4,4 90 0 1 -4,-4 v -4 z"
           style="fill:#e9a066;fill-opacity:1;stroke:#3f0a00;stroke-width:1;stroke-linecap:round;stroke-opacity:1"
           id="path1656" />
        <text
           style="font-size:10px;font-family:sans-serif;text-anchor:start;fill:#000000"
           id="text1660">
          <tspan
             x="5.3333335"
             y="15.25"
             id="tspan1658">forever</tspan>
        </text>
      </g>
    </g>
    <g
       transform="translate(470,483)"
       id="g1678">
      <g
         transform="scale(1.5)"
         id="g1676">
        <path
           d="m 0.5,8.5 v -4 a 4,4 90 0 1 4,-4 h 4 v 2 h 10 v -2 h 9 20 4 a 4,4 90 0 1 4,4 v 4 h -4 v -3 h -4 v 10 h 4 v -3 h 4 v 4 a 4,4 90 0 1 -4,4 h -4 -20 -1 v 2 h -8 v -2 h -1 -4 a 5,5 90 0 0 -5,5 v 4 4 63 4 a 5,5 90 0 0 5,5 h 4 v 2 h 10 v -2 h 8 v 6 6 4 a 4,4 90 0 1 -4,4 h -4 -9 -1 v 2 h -8 v -2 h -1 -4 a 4,4 90 0 1 -4,-4 v -4 z"
           style="fill:#e9a066;fill-opacity:1;stroke:#3f0a00;stroke-width:1;stroke-linecap:round;stroke-opacity:1"
           id="path1666" />
        <text
           style="font-size:10px;font-family:sans-serif;text-anchor:start;fill:#000000"
           id="text1670">
          <tspan
             x="5.3333335"
             y="15.25"
             id="tspan1668">repeat</tspan>
        </text>
        <text
           style="font-size:6.66666651px;font-family:sans-serif;text-anchor:end;fill:#000000"
           id="text1674">
          <tspan
             x="45.333332"
             y="11.25"
             id="tspan1672" />
        </text>
      </g>
    </g>
    <g
       transform="translate(542,483)"
       id="g1688">
      <g
         transform="scale(1.5)"
         id="g1686">
        <path
           d="m 8.5,0.5 h 60 v 20 h -60 v -8 -1 h -6 v 3 h -2 v -8 h 2 v 3 h 6 v -1 z"
           style="fill:#ffb2bc;fill-opacity:1;stroke:#601136;stroke-width:1;stroke-linecap:round;stroke-opacity:1"
           id="path1680" />
        <text
           style="font-size:10px;font-family:sans-serif;text-anchor:start;fill:#000000"
           id="text1684">
          <tspan
             x="13.333333"
             y="13.833333"
             id="tspan1682">3</tspan>
        </text>
      </g>
    </g>
    <g
       transform="translate(483.5,514.5)"
       id="g1702">
      <g
         transform="scale(1.5)"
         id="g1700">
        <path
           d="m 0.5,8.5 v -4 a 4,4 90 0 1 4,-4 h 4 v 2 h 10 v -2 h 9 36.147461 4 a 4,4 90 0 1 4,4 v 4 h -4 v -3 h -4 v 10 h 4 v -3 h 4 v 4 a 4,4 90 0 1 -4,4 h -4 H 27.5 h -1 v 2 h -8 v -2 h -1 -4 a 5,5 90 0 0 -5,5 v 4 4 21 4 a 5,5 90 0 0 5,5 h 4 v 2 h 10 v -2 h 8 v 6 6 4 a 4,4 90 0 1 -4,4 h -4 -9 -1 v 2 h -8 v -2 h -1 -4 a 4,4 90 0 1 -4,-4 v -4 z"
           style="fill:#ff8b2d;fill-opacity:1;stroke:#520000;stroke-width:1;stroke-linecap:round;stroke-opacity:1"
           id="path1690" />
        <text
           style="font-size:10px;font-family:sans-serif;text-anchor:start;fill:#000000"
           id="text1694">
          <tspan
             x="5.3333335"
             y="15.25"
             id="tspan1692">note value</tspan>
        </text>
        <text
           style="font-size:6.66666651px;font-family:sans-serif;text-anchor:end;fill:#000000"
           id="text1698">
          <tspan
             x="61.480793"
             y="11.25"
             id="tspan1696" />
        </text>
      </g>
    </g>
    <g
       transform="translate(579.72119,514.5)"
       id="g1720">
      <g
         transform="scale(1.5)"
         id="g1718">
        <path
           d="m 8.5,8.5 v -4 a 4,4 90 0 1 4,-4 h 4 10 30 4 a 4,4 90 0 1 4,4 v 4 h -4 v -3 h -4 v 10 h 4 v -3 h 4 v 17 h -4 v -3 h -4 v 10 h 4 v -3 h 4 v 4 a 4,4 90 0 1 -4,4 h -4 -30 -10 -4 a 4,4 90 0 1 -4,-4 v -4 -21 -1 h -6 v 3 h -2 v -8 h 2 v 3 h 6 z"
           style="fill:#ffb2bc;fill-opacity:1;stroke:#601136;stroke-width:1;stroke-linecap:round;stroke-opacity:1"
           id="path1704" />
        <text
           style="font-size:14px;font-family:sans-serif;text-anchor:end;fill:#000000"
           id="text1708">
          <tspan
             x="54.333332"
             y="23.799999"
             id="tspan1706">/</tspan>
        </text>
        <text
           style="font-size:9.33333302px;font-family:sans-serif;text-anchor:end;fill:#000000"
           id="text1712">
          <tspan
             x="54.333332"
             y="10.75"
             id="tspan1710" />
        </text>
        <text
           style="font-size:9.33333302px;font-family:sans-serif;text-anchor:end;fill:#000000"
           id="text1716">
          <tspan
             x="54.333332"
             y="31.75"
             id="tspan1714" />
        </text>
      </g>
    </g>
    <g
       transform="translate(665.22119,514.5)"
       id="g1730">
      <g
         transform="scale(1.5)"
         id="g1728">
        <path
           d="m 8.5,0.5 h 60 v 20 h -60 v -8 -1 h -6 v 3 h -2 v -8 h 2 v 3 h 6 v -1 z"
           style="fill:#ffb2bc;fill-opacity:1;stroke:#601136;stroke-width:1;stroke-linecap:round;stroke-opacity:1"
           id="path1722" />
        <text
           style="font-size:10px;font-family:sans-serif;text-anchor:start;fill:#000000"
           id="text1726">
          <tspan
             x="13.333333"
             y="13.833333"
             id="tspan1724">1</tspan>
        </text>
      </g>
    </g>
    <g
       transform="translate(665.22119,546)"
       id="g1740">
      <g
         transform="scale(1.5)"
         id="g1738">
        <path
           d="m 8.5,0.5 h 60 v 20 h -60 v -8 -1 h -6 v 3 h -2 v -8 h 2 v 3 h 6 v -1 z"
           style="fill:#ffb2bc;fill-opacity:1;stroke:#601136;stroke-width:1;stroke-linecap:round;stroke-opacity:1"
           id="path1732" />
        <text
           style="font-size:10px;font-family:sans-serif;text-anchor:start;fill:#000000"
           id="text1736">
          <tspan
             x="13.333333"
             y="13.833333"
             id="tspan1734">3</tspan>
        </text>
      </g>
    </g>
    <g
       transform="translate(497,546)"
       id="g1750">
      <g
         transform="scale(1.5)"
         id="g1748">
        <path
           d="m 0.5,8.5 v -4 a 4,4 90 0 1 4,-4 h 4 v 2 h 10 v -2 h 20 4 a 4,4 90 0 1 4,4 v 4 4 4 a 4,4 90 0 1 -4,4 h -4 -20 -1 v 2 h -8 v -2 h -1 -4 a 4,4 90 0 1 -4,-4 v -4 z"
           style="fill:#d57e6f;fill-opacity:1;stroke:#000000;stroke-width:1;stroke-linecap:round;stroke-opacity:1"
           id="path1742" />
        <text
           style="font-size:10px;font-family:sans-serif;text-anchor:end;fill:#000000"
           id="text1746">
          <tspan
             x="36.333332"
             y="13.5"
             id="tspan1744">↓</tspan>
        </text>
      </g>
    </g>
    <g
       transform="translate(497,577.5)"
       id="g1764">
      <g
         transform="scale(1.5)"
         id="g1762">
        <path
           d="m 0.5,8.5 v -4 a 4,4 90 0 1 4,-4 h 4 v 2 h 10 v -2 h 30 4 a 4,4 90 0 1 4,4 v 4 h -4 v -3 h -4 v 10 h 4 v -3 h 4 v 4 a 4,4 90 0 1 -4,4 h -4 -30 -1 v 2 h -8 v -2 h -1 -4 a 4,4 90 0 1 -4,-4 v -4 z"
           style="fill:#3ea4a3;fill-opacity:1;stroke:#000000;stroke-width:1;stroke-linecap:round;stroke-opacity:1"
           id="path1752" />
        <text
           style="font-size:10px;font-family:sans-serif;text-anchor:end;fill:#000000"
           id="text1756">
          <tspan
             x="46.333332"
             y="13.5"
             id="tspan1754">drum</tspan>
        </text>
        <text
           style="font-size:6.66666651px;font-family:sans-serif;text-anchor:end;fill:#000000"
           id="text1760">
          <tspan
             x="46.333332"
             y="11.25"
             id="tspan1758" />
        </text>
      </g>
    </g>
    <g
       transform="translate(570.5,577.5)"
       id="g1774">
      <g
         transform="scale(1.5)"
         id="g1772">
        <path
           d="m 8.5,0.5 h 60 v 20 h -60 v -8 -1 h -6 v 3 h -2 v -8 h 2 v 3 h 6 v -1 z"
           style="fill:#3ea4a3;fill-opacity:1;stroke:#000000;stroke-width:1;stroke-linecap:round;stroke-opacity:1"
           id="path1766" />
        <text
           style="font-size:10px;font-family:sans-serif;text-anchor:start;fill:#000000"
           id="text1770">
          <tspan
             x="13.333333"
             y="13.833333"
             id="tspan1768">kick drum</tspan>
        </text>
      </g>
    </g>
  </g>
</svg>
