<?xml version="1.0" encoding="UTF-8" standalone="no"?>
<svg
   xmlns:dc="http://purl.org/dc/elements/1.1/"
   xmlns:cc="http://creativecommons.org/ns#"
   xmlns:rdf="http://www.w3.org/1999/02/22-rdf-syntax-ns#"
   xmlns:svg="http://www.w3.org/2000/svg"
   xmlns="http://www.w3.org/2000/svg"
   id="svg1070"
   version="1.1"
   viewBox="0 0 58.125521 63.326191"
   height="239.34308"
   width="219.68701">
  <defs
     id="defs1064" />
  <metadata
     id="metadata1067">
    <rdf:RDF>
      <cc:Work
         rdf:about="">
        <dc:format>image/svg+xml</dc:format>
        <dc:type
           rdf:resource="http://purl.org/dc/dcmitype/StillImage" />
        <dc:title></dc:title>
      </cc:Work>
    </rdf:RDF>
  </metadata>
  <g
     transform="translate(-192.43129,-385.53333)"
     id="layer1">
    <g
       id="g996"
       transform="matrix(0.26458333,0,0,0.26458333,45.058372,346.22195)">
      <g
         transform="translate(557,149)"
         id="g24">
        <g
           transform="scale(1.5)"
           id="g22">
          <path
             d="m 0.5,14.5 v -4 a 4,4 90 0 1 4,-4 h 4 l 5,-6 5,6 h 9 30 4 a 4,4 90 0 1 4,4 v 4 h -4 v -3 h -4 v 10 h 4 v -3 h 4 v 4 a 4,4 90 0 1 -4,4 h -4 -30 -1 v 2 h -8 v -2 h -1 -4 a 5,5 90 0 0 -5,5 v 4 4 84 4 a 5,5 90 0 0 5,5 h 4 v 2 h 10 v -2 h 8 v 6 6 4 a 4,4 90 0 1 -4,4 h -4 -9 l -5,6 -5,-6 h -4 a 4,4 90 0 1 -4,-4 v -4 z"
             style="fill:#9ddd5f;fill-opacity:1;stroke:#003e00;stroke-width:1;stroke-linecap:round;stroke-opacity:1"
             id="path12" />
          <text
             style="font-size:10px;font-family:sans-serif;text-anchor:start;fill:#000000"
             id="text16">
            <tspan
               x="5.3333335"
               y="21.5"
               id="tspan14">timbre</tspan>
          </text>
          <text
             style="font-size:6.66666651px;font-family:sans-serif;text-anchor:end;fill:#000000"
             id="text20">
            <tspan
               x="55.333332"
               y="5.25"
               id="tspan18" />
          </text>
        </g>
      </g>
      <g
         transform="translate(644,158)"
         id="g34">
        <g
           transform="scale(1.5)"
           id="g32">
          <path
             d="m 8.5,0.5 h 60 v 20 h -60 v -8 -1 h -6 v 3 h -2 v -8 h 2 v 3 h 6 v -1 z"
             style="fill:#76dbd7;fill-opacity:1;stroke:#003b41;stroke-width:1;stroke-linecap:round;stroke-opacity:1"
             id="path26" />
          <text
             style="font-size:10px;font-family:sans-serif;text-anchor:start;fill:#000000"
             id="text30">
            <tspan
               x="13.333333"
               y="13.833333"
               id="tspan28">custom</tspan>
          </text>
        </g>
      </g>
      <g
         transform="translate(570.5,189.5)"
         id="g52">
        <g
           transform="scale(1.5)"
           id="g50">
          <path
             d="m 0.5,8.5 v -4 a 4,4 90 0 1 4,-4 h 4 v 2 h 10 v -2 h 49.458008 4 a 4,4 90 0 1 4,4 v 4 h -4 v -3 h -4 v 10 h 4 v -3 h 4 v 17 h -4 v -3 h -4 v 10 h 4 v -3 h 4 v 4 a 4,4 90 0 1 -4,4 h -4 H 18.5 h -1 v 2 h -8 v -2 h -1 -4 a 4,4 90 0 1 -4,-4 v -4 -21 z"
             style="fill:#9ddd5f;fill-opacity:1;stroke:#003e00;stroke-width:1;stroke-linecap:round;stroke-opacity:1"
             id="path36" />
          <text
             style="font-size:10px;font-family:sans-serif;text-anchor:end;fill:#000000"
             id="text40">
            <tspan
               x="65.791344"
               y="24"
               id="tspan38">oscillator</tspan>
          </text>
          <text
             style="font-size:6.66666651px;font-family:sans-serif;text-anchor:end;fill:#000000"
             id="text44">
            <tspan
               x="65.791344"
               y="11.25"
               id="tspan42">type</tspan>
          </text>
          <text
             style="font-size:6.66666651px;font-family:sans-serif;text-anchor:end;fill:#000000"
             id="text48">
            <tspan
               x="65.791344"
               y="32.25"
               id="tspan46">partials</tspan>
          </text>
        </g>
      </g>
      <g
         transform="translate(673.18701,221)"
         id="g62">
        <g
           transform="scale(1.5)"
           id="g60">
          <path
             d="m 8.5,0.5 h 60 v 20 h -60 v -8 -1 h -6 v 3 h -2 v -8 h 2 v 3 h 6 v -1 z"
             style="fill:#ffb2bc;fill-opacity:1;stroke:#601136;stroke-width:1;stroke-linecap:round;stroke-opacity:1"
             id="path54" />
          <text
             style="font-size:10px;font-family:sans-serif;text-anchor:start;fill:#000000"
             id="text58">
            <tspan
               x="13.333333"
               y="13.833333"
               id="tspan56">6</tspan>
          </text>
        </g>
      </g>
      <g
         transform="translate(673.18701,189.5)"
         id="g72">
        <g
           transform="scale(1.5)"
           id="g70">
          <path
             d="m 8.5,0.5 h 60 v 20 h -60 v -8 -1 h -6 v 3 h -2 v -8 h 2 v 3 h 6 v -1 z"
             style="fill:#9ddd5f;fill-opacity:1;stroke:#003e00;stroke-width:1;stroke-linecap:round;stroke-opacity:1"
             id="path64" />
          <text
             style="font-size:10px;font-family:sans-serif;text-anchor:start;fill:#000000"
             id="text68">
            <tspan
               x="13.333333"
               y="13.833333"
               id="tspan66" />
          </text>
        </g>
      </g>
      <g
         transform="translate(570.5,252.5)"
         id="g94">
        <g
           transform="scale(1.5)"
           id="g92">
          <path
             d="m 0.5,8.5 v -4 a 4,4 90 0 1 4,-4 h 4 v 2 h 10 v -2 h 40 4 a 4,4 90 0 1 4,4 v 4 h -4 v -3 h -4 v 10 h 4 v -3 h 4 v 17 h -4 v -3 h -4 v 10 h 4 v -3 h 4 v 17 h -4 v -3 h -4 v 10 h 4 v -3 h 4 v 4 a 4,4 90 0 1 -4,4 h -4 -40 -1 v 2 h -8 v -2 h -1 -4 a 4,4 90 0 1 -4,-4 v -4 -42 z"
             style="fill:#9ddd5f;fill-opacity:1;stroke:#003e00;stroke-width:1;stroke-linecap:round;stroke-opacity:1"
             id="path74" />
          <text
             style="font-size:10px;font-family:sans-serif;text-anchor:end;fill:#000000"
             id="text78">
            <tspan
               x="56.333332"
               y="21.166666"
               id="tspan76">filter</tspan>
          </text>
          <text
             style="font-size:6.66666651px;font-family:sans-serif;text-anchor:end;fill:#000000"
             id="text82">
            <tspan
               x="56.333332"
               y="11.25"
               id="tspan80">type</tspan>
          </text>
          <text
             style="font-size:6.66666651px;font-family:sans-serif;text-anchor:end;fill:#000000"
             id="text86">
            <tspan
               x="56.333332"
               y="32.25"
               id="tspan84">rolloff</tspan>
          </text>
          <text
             style="font-size:6.66666651px;font-family:sans-serif;text-anchor:end;fill:#000000"
             id="text90">
            <tspan
               x="56.333332"
               y="53.25"
               id="tspan88">frequency</tspan>
          </text>
        </g>
      </g>
      <g
         transform="translate(659,284)"
         id="g104">
        <g
           transform="scale(1.5)"
           id="g102">
          <path
             d="m 8.5,0.5 h 60 v 20 h -60 v -8 -1 h -6 v 3 h -2 v -8 h 2 v 3 h 6 v -1 z"
             style="fill:#ffb2bc;fill-opacity:1;stroke:#601136;stroke-width:1;stroke-linecap:round;stroke-opacity:1"
             id="path96" />
          <text
             style="font-size:10px;font-family:sans-serif;text-anchor:start;fill:#000000"
             id="text100">
            <tspan
               x="13.333333"
               y="13.833333"
               id="tspan98">-12</tspan>
          </text>
        </g>
      </g>
      <g
         transform="translate(659,315.5)"
         id="g114">
        <g
           transform="scale(1.5)"
           id="g112">
          <path
             d="m 8.5,0.5 h 60 v 20 h -60 v -8 -1 h -6 v 3 h -2 v -8 h 2 v 3 h 6 v -1 z"
             style="fill:#ffb2bc;fill-opacity:1;stroke:#601136;stroke-width:1;stroke-linecap:round;stroke-opacity:1"
             id="path106" />
          <text
             style="font-size:10px;font-family:sans-serif;text-anchor:start;fill:#000000"
             id="text110">
            <tspan
               x="13.333333"
               y="13.833333"
               id="tspan108">392</tspan>
          </text>
        </g>
      </g>
      <g
         transform="translate(659,252.5)"
         id="g124">
        <g
           transform="scale(1.5)"
           id="g122">
          <path
             d="m 8.5,0.5 h 60 v 20 h -60 v -8 -1 h -6 v 3 h -2 v -8 h 2 v 3 h 6 v -1 z"
             style="fill:#9ddd5f;fill-opacity:1;stroke:#003e00;stroke-width:1;stroke-linecap:round;stroke-opacity:1"
             id="path116" />
          <text
             style="font-size:10px;font-family:sans-serif;text-anchor:start;fill:#000000"
             id="text120">
            <tspan
               x="13.333333"
               y="13.833333"
               id="tspan118" />
          </text>
        </g>
      </g>
    </g>
  </g>
</svg>
