<?xml version="1.0" encoding="UTF-8" standalone="no"?>
<svg
   xmlns:dc="http://purl.org/dc/elements/1.1/"
   xmlns:cc="http://creativecommons.org/ns#"
   xmlns:rdf="http://www.w3.org/1999/02/22-rdf-syntax-ns#"
   xmlns:svg="http://www.w3.org/2000/svg"
   xmlns="http://www.w3.org/2000/svg"
   xmlns:sodipodi="http://sodipodi.sourceforge.net/DTD/sodipodi-0.dtd"
   xmlns:inkscape="http://www.inkscape.org/namespaces/inkscape"
   width="409"
   height="678"
   version="1.1"
   id="svg9193"
   sodipodi:docname="transform16.svg"
   inkscape:version="0.92.3 (2405546, 2018-03-11)">
  <metadata
     id="metadata9199">
    <rdf:RDF>
      <cc:Work
         rdf:about="">
        <dc:format>image/svg+xml</dc:format>
        <dc:type
           rdf:resource="http://purl.org/dc/dcmitype/StillImage" />
      </cc:Work>
    </rdf:RDF>
  </metadata>
  <defs
     id="defs9197" />
  <sodipodi:namedview
     pagecolor="#ffffff"
     bordercolor="#666666"
     borderopacity="1"
     objecttolerance="10"
     gridtolerance="10"
     guidetolerance="10"
     inkscape:pageopacity="0"
     inkscape:pageshadow="2"
     inkscape:window-width="1920"
     inkscape:window-height="1001"
     id="namedview9195"
     showgrid="false"
     inkscape:zoom="15.75242"
     inkscape:cx="126.72245"
     inkscape:cy="646.02711"
     inkscape:window-x="-9"
     inkscape:window-y="-9"
     inkscape:window-maximized="1"
     inkscape:current-layer="svg_1" />
  <rect
     id="backgroundrect"
     width="100%"
     height="100%"
     x="0"
     y="0"
     fill="none"
     stroke="none" />
  <g
     class="currentLayer"
     style=""
     id="g9191">
    <title
       id="title8935">Layer 1</title>
    <g
       id="svg_1"
       class="">
      <g
         id="svg_2">
        <g
           transform="translate(218,1) scale(1.5) "
           id="svg_3">
          <path
             d="m-144.8333282470703,13.333333373069763 L-144.8333282470703,9.333333373069763 A4,4 90 0 1 -140.8333282470703,5.333333373069763 L-136.8333282470703,5.333333373069763 L-131.8333282470703,-0.6666666269302368 L-126.83332824707031,5.333333373069763 L-117.83332824707031,5.333333373069763 L-57.83332824707031,5.333333373069763 L-53.83332824707031,5.333333373069763 A4,4 90 0 1 -49.83332824707031,9.333333373069763 L-49.83332824707031,13.333333373069763 L-49.83332824707031,17.333333373069763 L-49.83332824707031,21.333333373069763 A4,4 90 0 1 -53.83332824707031,25.333333373069763 L-57.83332824707031,25.333333373069763 L-117.83332824707031,25.333333373069763 L-118.83332824707031,25.333333373069763 L-118.83332824707031,27.333333373069763 L-126.83332824707031,27.333333373069763 L-126.83332824707031,25.333333373069763 L-127.83332824707031,25.333333373069763 L-131.8333282470703,25.333333373069763 A5,5 90 0 0 -136.8333282470703,30.333333373069763 L-136.8333282470703,34.33333337306976 L-136.8333282470703,38.33333337306976 L-136.8333282470703,416.33333337306976 L-136.8333282470703,420.33333337306976 A5,5 90 0 0 -131.8333282470703,425.33333337306976 L-127.83332824707031,425.33333337306976 L-127.83332824707031,427.33333337306976 L-117.83332824707031,427.33333337306976 L-117.83332824707031,425.33333337306976 L-109.83332824707031,425.33333337306976 L-109.83332824707031,431.33333337306976 L-109.83332824707031,437.33333337306976 L-109.83332824707031,441.33333337306976 A4,4 90 0 1 -113.83332824707031,445.33333337306976 L-117.83332824707031,445.33333337306976 L-126.83332824707031,445.33333337306976 L-131.8333282470703,451.33333337306976 L-136.8333282470703,445.33333337306976 L-140.8333282470703,445.33333337306976 A4,4 90 0 1 -144.8333282470703,441.33333337306976 L-144.8333282470703,437.33333337306976 z"
             style="fill:#DAA926;fill-opacity:1;stroke:#DAAF30;stroke-width:1;stroke-linecap:round;stroke-opacity:1;"
             id="svg_4" />
          <text
             style="font-size:10px;fill:#282828;font-family:sans-serif;text-anchor:start"
             id="svg_5"
             y="-1.1666666269302368"
             x="-145.3333282470703">
            <tspan
               x="-125.33332824707031"
               y="20.833333373069763"
               id="svg_6">start</tspan>
          </text>
        </g>
      </g>
    </g>
    <g
       id="svg_15"
       class="">
      <g
         id="svg_16">
        <g
           transform="translate(232,42) scale(1.5) "
           id="svg_17">
          <path
             d="m-144.8333282470703,7.333333373069763 L-144.8333282470703,3.333333373069763 A4,4 90 0 1 -140.8333282470703,-0.6666666269302368 L-136.8333282470703,-0.6666666269302368 L-136.8333282470703,1.3333333730697632 L-126.83332824707031,1.3333333730697632 L-126.83332824707031,-0.6666666269302368 L-117.83332824707031,-0.6666666269302368 L-57.83332824707031,-0.6666666269302368 L-53.83332824707031,-0.6666666269302368 A4,4 90 0 1 -49.83332824707031,3.333333373069763 L-49.83332824707031,7.333333373069763 L-53.83332824707031,7.333333373069763 L-53.83332824707031,4.333333373069763 L-57.83332824707031,4.333333373069763 L-57.83332824707031,14.333333373069763 L-53.83332824707031,14.333333373069763 L-53.83332824707031,11.333333373069763 L-49.83332824707031,11.333333373069763 L-49.83332824707031,15.333333373069763 A4,4 90 0 1 -53.83332824707031,19.333333373069763 L-57.83332824707031,19.333333373069763 L-117.83332824707031,19.333333373069763 L-118.83332824707031,19.333333373069763 L-118.83332824707031,21.333333373069763 L-126.83332824707031,21.333333373069763 L-126.83332824707031,19.333333373069763 L-127.83332824707031,19.333333373069763 L-131.8333282470703,19.333333373069763 A5,5 90 0 0 -136.8333282470703,24.333333373069763 L-136.8333282470703,28.333333373069763 L-136.8333282470703,32.33333337306976 L-136.8333282470703,74.33333337306976 L-136.8333282470703,78.33333337306976 A5,5 90 0 0 -131.8333282470703,83.33333337306976 L-127.83332824707031,83.33333337306976 L-127.83332824707031,85.33333337306976 L-117.83332824707031,85.33333337306976 L-117.83332824707031,83.33333337306976 L-109.83332824707031,83.33333337306976 L-109.83332824707031,89.33333337306976 L-109.83332824707031,95.33333337306976 L-109.83332824707031,99.33333337306976 A4,4 90 0 1 -113.83332824707031,103.33333337306976 L-117.83332824707031,103.33333337306976 L-126.83332824707031,103.33333337306976 L-127.83332824707031,103.33333337306976 L-127.83332824707031,105.33333337306976 L-135.8333282470703,105.33333337306976 L-135.8333282470703,103.33333337306976 L-136.8333282470703,103.33333337306976 L-140.8333282470703,103.33333337306976 A4,4 90 0 1 -144.8333282470703,99.33333337306976 L-144.8333282470703,95.33333337306976 z"
             style="fill:#FF8B2D;fill-opacity:1;stroke:#E86B0E;stroke-width:1;stroke-linecap:round;stroke-opacity:1;"
             id="svg_18" />
          <text
             style="font-size:10px;fill:#282828;font-family:sans-serif;text-anchor:start"
             id="svg_19"
             y="-1.1666666269302368"
             x="-145.3333282470703">
            <tspan
               x="-125.33332824707031"
               y="13.833333373069763"
               id="svg_20">note</tspan>
          </text>
          <text
             style="font-size:6.666666666666667px;fill:#282828;font-family:sans-serif;text-anchor:end"
             id="svg_21"
             y="-1.1666666269302368"
             x="-145.3333282470703">
            <tspan
               x="-60.33332824707031"
               y="10.833333373069763"
               id="svg_22">value</tspan>
          </text>
        </g>
      </g>
    </g>
    <g
       id="svg_30"
       class="">
      <g
         transform="translate(364,42) scale(1.5) "
         id="svg_31">
        <path
           d="m-136.8333282470703,7.333333373069763 L-136.8333282470703,3.333333373069763 A4,4 90 0 1 -132.8333282470703,-0.6666666269302368 L-128.8333282470703,-0.6666666269302368 L-118.83332824707031,-0.6666666269302368 L-88.83332824707031,-0.6666666269302368 L-84.83332824707031,-0.6666666269302368 A4,4 90 0 1 -80.83332824707031,3.333333373069763 L-80.83332824707031,7.333333373069763 L-84.83332824707031,7.333333373069763 L-84.83332824707031,4.333333373069763 L-88.83332824707031,4.333333373069763 L-88.83332824707031,14.333333373069763 L-84.83332824707031,14.333333373069763 L-84.83332824707031,11.333333373069763 L-80.83332824707031,11.333333373069763 L-80.83332824707031,28.333333373069763 L-84.83332824707031,28.333333373069763 L-84.83332824707031,25.333333373069763 L-88.83332824707031,25.333333373069763 L-88.83332824707031,35.33333337306976 L-84.83332824707031,35.33333337306976 L-84.83332824707031,32.33333337306976 L-80.83332824707031,32.33333337306976 L-80.83332824707031,36.33333337306976 A4,4 90 0 1 -84.83332824707031,40.33333337306976 L-88.83332824707031,40.33333337306976 L-118.83332824707031,40.33333337306976 L-128.8333282470703,40.33333337306976 L-132.8333282470703,40.33333337306976 A4,4 90 0 1 -136.8333282470703,36.33333337306976 L-136.8333282470703,32.33333337306976 L-136.8333282470703,11.333333373069763 L-136.8333282470703,10.333333373069763 L-142.8333282470703,10.333333373069763 L-142.8333282470703,13.333333373069763 L-144.8333282470703,13.333333373069763 L-144.8333282470703,5.333333373069763 L-142.8333282470703,5.333333373069763 L-142.8333282470703,8.333333373069763 L-136.8333282470703,8.333333373069763 L-136.8333282470703,7.333333373069763 z"
           style="fill:#FF5293;fill-opacity:1;stroke:#FF2C76;stroke-width:1;stroke-linecap:round;stroke-opacity:1;"
           id="svg_32" />
        <text
           style="font-size:9px;fill:#282828;font-family:sans-serif;text-anchor:end"
           id="svg_33"
           y="-1.1666666269302368"
           x="-145.3333282470703">
          <tspan
             x="-91.33332824707031"
             y="21.833333373069763"
             id="svg_34">/</tspan>
        </text>
        <text
           style="font-size:6px;fill:#282828;font-family:sans-serif;text-anchor:end"
           id="svg_35"
           y="-1.1666666269302368"
           x="-145.3333282470703" />
        <text
           style="font-size:6px;fill:#282828;font-family:sans-serif;text-anchor:end"
           id="svg_37"
           y="-1.1666666269302368"
           x="-145.3333282470703" />
      </g>
    </g>
    <g
       id="svg_39"
       class="">
      <g
         transform="translate(450,42) scale(1.5) "
         id="svg_40">
        <path
           d="m-136.8333282470703,-0.6666666269302368 L-76.83332824707031,-0.6666666269302368 L-76.83332824707031,19.333333373069763 L-136.8333282470703,19.333333373069763 L-136.8333282470703,11.333333373069763 L-136.8333282470703,10.333333373069763 L-142.8333282470703,10.333333373069763 L-142.8333282470703,13.333333373069763 L-144.8333282470703,13.333333373069763 L-144.8333282470703,5.333333373069763 L-142.8333282470703,5.333333373069763 L-142.8333282470703,8.333333373069763 L-136.8333282470703,8.333333373069763 L-136.8333282470703,7.333333373069763 z"
           style="fill:#FF5293;fill-opacity:1;stroke:#FF2C76;stroke-width:1;stroke-linecap:round;stroke-opacity:1;"
           id="svg_41" />
        <text
           style="font-size:10px;fill:#282828;font-family:sans-serif;text-anchor:start"
           id="svg_42"
           y="-1.1666666269302368"
           x="-145.3333282470703">
          <tspan
             x="-132.3333282470703"
             y="12.833333373069763"
             id="svg_43">1</tspan>
        </text>
      </g>
    </g>
    <g
       id="svg_44"
       class="">
      <g
         transform="translate(450,74) scale(1.5) "
         id="svg_45">
        <path
           d="m-136.8333282470703,-0.6666666269302368 L-76.83332824707031,-0.6666666269302368 L-76.83332824707031,19.333333373069763 L-136.8333282470703,19.333333373069763 L-136.8333282470703,11.333333373069763 L-136.8333282470703,10.333333373069763 L-142.8333282470703,10.333333373069763 L-142.8333282470703,13.333333373069763 L-144.8333282470703,13.333333373069763 L-144.8333282470703,5.333333373069763 L-142.8333282470703,5.333333373069763 L-142.8333282470703,8.333333373069763 L-136.8333282470703,8.333333373069763 L-136.8333282470703,7.333333373069763 z"
           style="fill:#FF5293;fill-opacity:1;stroke:#FF2C76;stroke-width:1;stroke-linecap:round;stroke-opacity:1;"
           id="svg_46" />
        <text
           style="font-size:10px;fill:#282828;font-family:sans-serif;text-anchor:start"
           id="svg_47"
           y="-1.1666666269302368"
           x="-145.3333282470703">
          <tspan
             x="-132.3333282470703"
             y="12.833333373069763"
             id="svg_48">8</tspan>
        </text>
      </g>
    </g>
    <g
       id="svg_49"
       class="">
      <g
         transform="translate(246,74) scale(1.5) "
         id="svg_50">
        <path
           d="m-144.8333282470703,7.333333373069763 L-144.8333282470703,3.333333373069763 A4,4 90 0 1 -140.8333282470703,-0.6666666269302368 L-136.8333282470703,-0.6666666269302368 L-136.8333282470703,1.3333333730697632 L-126.83332824707031,1.3333333730697632 L-126.83332824707031,-0.6666666269302368 L-106.83332824707031,-0.6666666269302368 L-102.83332824707031,-0.6666666269302368 A4,4 90 0 1 -98.83332824707031,3.333333373069763 L-98.83332824707031,7.333333373069763 L-98.83332824707031,11.333333373069763 L-98.83332824707031,15.333333373069763 A4,4 90 0 1 -102.83332824707031,19.333333373069763 L-106.83332824707031,19.333333373069763 L-126.83332824707031,19.333333373069763 L-127.83332824707031,19.333333373069763 L-127.83332824707031,21.333333373069763 L-135.8333282470703,21.333333373069763 L-135.8333282470703,19.333333373069763 L-136.8333282470703,19.333333373069763 L-140.8333282470703,19.333333373069763 A4,4 90 0 1 -144.8333282470703,15.333333373069763 L-144.8333282470703,11.333333373069763 z"
           style="fill:#B0B0B0;fill-opacity:1;stroke:#A0A0A0;stroke-width:1;stroke-linecap:round;stroke-opacity:1;"
           id="svg_51" />
        <text
           style="font-size:10px;fill:#282828;font-family:sans-serif;text-anchor:end"
           id="svg_52"
           y="-1.1666666269302368"
           x="-145.3333282470703">
          <tspan
             x="-109.33332824707031"
             y="12.833333373069763"
             id="svg_53">↓</tspan>
        </text>
      </g>
    </g>
    <g
       id="svg_54"
       class="">
      <g
         transform="translate(246,106) scale(1.5) "
         id="svg_55">
        <path
           d="m-144.8333282470703,7.333333373069763 L-144.8333282470703,3.333333373069763 A4,4 90 0 1 -140.8333282470703,-0.6666666269302368 L-136.8333282470703,-0.6666666269302368 L-136.8333282470703,1.3333333730697632 L-126.83332824707031,1.3333333730697632 L-126.83332824707031,-0.6666666269302368 L-96.83332824707031,-0.6666666269302368 L-92.83332824707031,-0.6666666269302368 A4,4 90 0 1 -88.83332824707031,3.333333373069763 L-88.83332824707031,7.333333373069763 L-92.83332824707031,7.333333373069763 L-92.83332824707031,4.333333373069763 L-96.83332824707031,4.333333373069763 L-96.83332824707031,14.333333373069763 L-92.83332824707031,14.333333373069763 L-92.83332824707031,11.333333373069763 L-88.83332824707031,11.333333373069763 L-88.83332824707031,28.333333373069763 L-92.83332824707031,28.333333373069763 L-92.83332824707031,25.333333373069763 L-96.83332824707031,25.333333373069763 L-96.83332824707031,35.33333337306976 L-92.83332824707031,35.33333337306976 L-92.83332824707031,32.33333337306976 L-88.83332824707031,32.33333337306976 L-88.83332824707031,36.33333337306976 A4,4 90 0 1 -92.83332824707031,40.33333337306976 L-96.83332824707031,40.33333337306976 L-126.83332824707031,40.33333337306976 L-127.83332824707031,40.33333337306976 L-127.83332824707031,42.33333337306976 L-135.8333282470703,42.33333337306976 L-135.8333282470703,40.33333337306976 L-136.8333282470703,40.33333337306976 L-140.8333282470703,40.33333337306976 A4,4 90 0 1 -144.8333282470703,36.33333337306976 L-144.8333282470703,32.33333337306976 L-144.8333282470703,11.333333373069763 L-144.8333282470703,7.333333373069763 z"
           style="fill:#77C428;fill-opacity:1;stroke:#57AD02;stroke-width:1;stroke-linecap:round;stroke-opacity:1;"
           id="svg_56" />
        <text
           style="font-size:10px;fill:#282828;font-family:sans-serif;text-anchor:end"
           id="svg_57"
           y="-1.1666666269302368"
           x="-145.3333282470703">
          <tspan
             x="-99.33332824707031"
             y="22.833333373069763"
             id="svg_58">pitch</tspan>
        </text>
        <text
           style="font-size:6.666666666666667px;fill:#282828;font-family:sans-serif;text-anchor:end"
           id="svg_59"
           y="-1.1666666269302368"
           x="-145.3333282470703">
          <tspan
             x="-99.33332824707031"
             y="10.833333373069763"
             id="svg_60">name</tspan>
        </text>
        <text
           style="font-size:6.666666666666667px;fill:#282828;font-family:sans-serif;text-anchor:end"
           id="svg_61"
           y="-1.1666666269302368"
           x="-145.3333282470703">
          <tspan
             x="-99.33332824707031"
             y="31.833333373069763"
             id="svg_62">octave</tspan>
        </text>
      </g>
    </g>
    <g
       id="svg_63"
       class="">
      <g
         transform="translate(320,106) scale(1.5) "
         id="svg_64">
        <path
           d="m-136.8333282470703,-0.6666666269302368 L-76.83332824707031,-0.6666666269302368 L-76.83332824707031,19.333333373069763 L-136.8333282470703,19.333333373069763 L-136.8333282470703,11.333333373069763 L-136.8333282470703,10.333333373069763 L-142.8333282470703,10.333333373069763 L-142.8333282470703,13.333333373069763 L-144.8333282470703,13.333333373069763 L-144.8333282470703,5.333333373069763 L-142.8333282470703,5.333333373069763 L-142.8333282470703,8.333333373069763 L-136.8333282470703,8.333333373069763 L-136.8333282470703,7.333333373069763 z"
           style="fill:#77C428;fill-opacity:1;stroke:#57AD02;stroke-width:1;stroke-linecap:round;stroke-opacity:1;"
           id="svg_65" />
        <text
           style="font-size:10px;fill:#282828;font-family:sans-serif;text-anchor:start"
           id="svg_66"
           y="-1.1666666269302368"
           x="-145.3333282470703">
          <tspan
             x="-132.3333282470703"
             y="12.833333373069763"
             id="svg_67">do</tspan>
        </text>
      </g>
    </g>
    <g
       id="svg_68"
       class="">
      <g
         transform="translate(320,138) scale(1.5) "
         id="svg_69">
        <path
           d="m-136.8333282470703,-0.6666666269302368 L-76.83332824707031,-0.6666666269302368 L-76.83332824707031,19.333333373069763 L-136.8333282470703,19.333333373069763 L-136.8333282470703,11.333333373069763 L-136.8333282470703,10.333333373069763 L-142.8333282470703,10.333333373069763 L-142.8333282470703,13.333333373069763 L-144.8333282470703,13.333333373069763 L-144.8333282470703,5.333333373069763 L-142.8333282470703,5.333333373069763 L-142.8333282470703,8.333333373069763 L-136.8333282470703,8.333333373069763 L-136.8333282470703,7.333333373069763 z"
           style="fill:#FF5293;fill-opacity:1;stroke:#FF2C76;stroke-width:1;stroke-linecap:round;stroke-opacity:1;"
           id="svg_70" />
        <text
           style="font-size:10px;fill:#282828;font-family:sans-serif;text-anchor:start"
           id="svg_71"
           y="-1.1666666269302368"
           x="-145.3333282470703">
          <tspan
             x="-132.3333282470703"
             y="12.833333373069763"
             id="svg_72">4</tspan>
        </text>
      </g>
    </g>
    <g
       id="svg_73"
       class="">
      <g
         transform="translate(232,200) scale(1.5) "
         id="svg_74">
        <path
           d="m-144.8333282470703,7.333333373069763 L-144.8333282470703,3.333333373069763 A4,4 90 0 1 -140.8333282470703,-0.6666666269302368 L-136.8333282470703,-0.6666666269302368 L-136.8333282470703,1.3333333730697632 L-126.83332824707031,1.3333333730697632 L-126.83332824707031,-0.6666666269302368 L-117.83332824707031,-0.6666666269302368 L-97.83332824707031,-0.6666666269302368 L-93.83332824707031,-0.6666666269302368 A4,4 90 0 1 -89.83332824707031,3.333333373069763 L-89.83332824707031,7.333333373069763 L-93.83332824707031,7.333333373069763 L-93.83332824707031,4.333333373069763 L-97.83332824707031,4.333333373069763 L-97.83332824707031,14.333333373069763 L-93.83332824707031,14.333333373069763 L-93.83332824707031,11.333333373069763 L-89.83332824707031,11.333333373069763 L-89.83332824707031,15.333333373069763 A4,4 90 0 1 -93.83332824707031,19.333333373069763 L-97.83332824707031,19.333333373069763 L-117.83332824707031,19.333333373069763 L-118.83332824707031,19.333333373069763 L-118.83332824707031,21.333333373069763 L-126.83332824707031,21.333333373069763 L-126.83332824707031,19.333333373069763 L-127.83332824707031,19.333333373069763 L-131.8333282470703,19.333333373069763 A5,5 90 0 0 -136.8333282470703,24.333333373069763 L-136.8333282470703,28.333333373069763 L-136.8333282470703,32.33333337306976 L-136.8333282470703,116.33333337306976 L-136.8333282470703,120.33333337306976 A5,5 90 0 0 -131.8333282470703,125.33333337306976 L-127.83332824707031,125.33333337306976 L-127.83332824707031,127.33333337306976 L-117.83332824707031,127.33333337306976 L-117.83332824707031,125.33333337306976 L-109.83332824707031,125.33333337306976 L-109.83332824707031,131.33333337306976 L-109.83332824707031,137.33333337306976 L-109.83332824707031,141.33333337306976 A4,4 90 0 1 -113.83332824707031,145.33333337306976 L-117.83332824707031,145.33333337306976 L-126.83332824707031,145.33333337306976 L-127.83332824707031,145.33333337306976 L-127.83332824707031,147.33333337306976 L-135.8333282470703,147.33333337306976 L-135.8333282470703,145.33333337306976 L-136.8333282470703,145.33333337306976 L-140.8333282470703,145.33333337306976 A4,4 90 0 1 -144.8333282470703,141.33333337306976 L-144.8333282470703,137.33333337306976 z"
           style="fill:#D68136;fill-opacity:1;stroke:#B7651A;stroke-width:1;stroke-linecap:round;stroke-opacity:1;"
           id="svg_75" />
        <text
           style="font-size:10px;fill:#282828;font-family:sans-serif;text-anchor:start"
           id="svg_76"
           y="-1.1666666269302368"
           x="-145.3333282470703">
          <tspan
             x="-140.3333282470703"
             y="13.833333373069763"
             id="svg_77">repeat</tspan>
        </text>
        <text
           style="font-size:6.666666666666667px;fill:#282828;font-family:sans-serif;text-anchor:end"
           id="svg_78"
           y="-1.1666666269302368"
           x="-145.3333282470703" />
      </g>
    </g>
    <g
       id="svg_80"
       class="">
      <g
         id="svg_81">
        <g
           transform="translate(246,232) scale(1.5) "
           id="svg_82">
          <path
             d="m-144.8333282470703,7.333333373069763 L-144.8333282470703,3.333333373069763 A4,4 90 0 1 -140.8333282470703,-0.6666666269302368 L-136.8333282470703,-0.6666666269302368 L-136.8333282470703,1.3333333730697632 L-126.83332824707031,1.3333333730697632 L-126.83332824707031,-0.6666666269302368 L-117.83332824707031,-0.6666666269302368 L-57.83332824707031,-0.6666666269302368 L-53.83332824707031,-0.6666666269302368 A4,4 90 0 1 -49.83332824707031,3.333333373069763 L-49.83332824707031,7.333333373069763 L-53.83332824707031,7.333333373069763 L-53.83332824707031,4.333333373069763 L-57.83332824707031,4.333333373069763 L-57.83332824707031,14.333333373069763 L-53.83332824707031,14.333333373069763 L-53.83332824707031,11.333333373069763 L-49.83332824707031,11.333333373069763 L-49.83332824707031,15.333333373069763 A4,4 90 0 1 -53.83332824707031,19.333333373069763 L-57.83332824707031,19.333333373069763 L-117.83332824707031,19.333333373069763 L-118.83332824707031,19.333333373069763 L-118.83332824707031,21.333333373069763 L-126.83332824707031,21.333333373069763 L-126.83332824707031,19.333333373069763 L-127.83332824707031,19.333333373069763 L-131.8333282470703,19.333333373069763 A5,5 90 0 0 -136.8333282470703,24.333333373069763 L-136.8333282470703,28.333333373069763 L-136.8333282470703,32.33333337306976 L-136.8333282470703,74.33333337306976 L-136.8333282470703,78.33333337306976 A5,5 90 0 0 -131.8333282470703,83.33333337306976 L-127.83332824707031,83.33333337306976 L-127.83332824707031,85.33333337306976 L-117.83332824707031,85.33333337306976 L-117.83332824707031,83.33333337306976 L-109.83332824707031,83.33333337306976 L-109.83332824707031,89.33333337306976 L-109.83332824707031,95.33333337306976 L-109.83332824707031,99.33333337306976 A4,4 90 0 1 -113.83332824707031,103.33333337306976 L-117.83332824707031,103.33333337306976 L-126.83332824707031,103.33333337306976 L-127.83332824707031,103.33333337306976 L-127.83332824707031,105.33333337306976 L-135.8333282470703,105.33333337306976 L-135.8333282470703,103.33333337306976 L-136.8333282470703,103.33333337306976 L-140.8333282470703,103.33333337306976 A4,4 90 0 1 -144.8333282470703,99.33333337306976 L-144.8333282470703,95.33333337306976 z"
             style="fill:#FF8B2D;fill-opacity:1;stroke:#E86B0E;stroke-width:1;stroke-linecap:round;stroke-opacity:1;"
             id="svg_83" />
          <text
             style="font-size:10px;fill:#282828;font-family:sans-serif;text-anchor:start"
             id="svg_84"
             y="-1.1666666269302368"
             x="-145.3333282470703">
            <tspan
               x="-125.33332824707031"
               y="13.833333373069763"
               id="svg_85">note</tspan>
          </text>
          <text
             style="font-size:6.666666666666667px;fill:#282828;font-family:sans-serif;text-anchor:end"
             id="svg_86"
             y="-1.1666666269302368"
             x="-145.3333282470703">
            <tspan
               x="-60.33332824707031"
               y="10.833333373069763"
               id="svg_87">value</tspan>
          </text>
        </g>
      </g>
    </g>
    <g
       id="svg_95"
       class="">
      <g
         transform="translate(378,232) scale(1.5) "
         id="svg_96">
        <path
           d="m-136.8333282470703,7.333333373069763 L-136.8333282470703,3.333333373069763 A4,4 90 0 1 -132.8333282470703,-0.6666666269302368 L-128.8333282470703,-0.6666666269302368 L-118.83332824707031,-0.6666666269302368 L-88.83332824707031,-0.6666666269302368 L-84.83332824707031,-0.6666666269302368 A4,4 90 0 1 -80.83332824707031,3.333333373069763 L-80.83332824707031,7.333333373069763 L-84.83332824707031,7.333333373069763 L-84.83332824707031,4.333333373069763 L-88.83332824707031,4.333333373069763 L-88.83332824707031,14.333333373069763 L-84.83332824707031,14.333333373069763 L-84.83332824707031,11.333333373069763 L-80.83332824707031,11.333333373069763 L-80.83332824707031,28.333333373069763 L-84.83332824707031,28.333333373069763 L-84.83332824707031,25.333333373069763 L-88.83332824707031,25.333333373069763 L-88.83332824707031,35.33333337306976 L-84.83332824707031,35.33333337306976 L-84.83332824707031,32.33333337306976 L-80.83332824707031,32.33333337306976 L-80.83332824707031,36.33333337306976 A4,4 90 0 1 -84.83332824707031,40.33333337306976 L-88.83332824707031,40.33333337306976 L-118.83332824707031,40.33333337306976 L-128.8333282470703,40.33333337306976 L-132.8333282470703,40.33333337306976 A4,4 90 0 1 -136.8333282470703,36.33333337306976 L-136.8333282470703,32.33333337306976 L-136.8333282470703,11.333333373069763 L-136.8333282470703,10.333333373069763 L-142.8333282470703,10.333333373069763 L-142.8333282470703,13.333333373069763 L-144.8333282470703,13.333333373069763 L-144.8333282470703,5.333333373069763 L-142.8333282470703,5.333333373069763 L-142.8333282470703,8.333333373069763 L-136.8333282470703,8.333333373069763 L-136.8333282470703,7.333333373069763 z"
           style="fill:#FF5293;fill-opacity:1;stroke:#FF2C76;stroke-width:1;stroke-linecap:round;stroke-opacity:1;"
           id="svg_97" />
        <text
           style="font-size:9px;fill:#282828;font-family:sans-serif;text-anchor:end"
           id="svg_98"
           y="-1.1666666269302368"
           x="-145.3333282470703">
          <tspan
             x="-91.33332824707031"
             y="21.833333373069763"
             id="svg_99">/</tspan>
        </text>
        <text
           style="font-size:6px;fill:#282828;font-family:sans-serif;text-anchor:end"
           id="svg_100"
           y="-1.1666666269302368"
           x="-145.3333282470703" />
        <text
           style="font-size:6px;fill:#282828;font-family:sans-serif;text-anchor:end"
           id="svg_102"
           y="-1.1666666269302368"
           x="-145.3333282470703" />
      </g>
    </g>
    <g
       id="svg_104"
       class="">
      <g
         transform="translate(464,232) scale(1.5) "
         id="svg_105">
        <path
           d="m-136.8333282470703,-0.6666666269302368 L-76.83332824707031,-0.6666666269302368 L-76.83332824707031,19.333333373069763 L-136.8333282470703,19.333333373069763 L-136.8333282470703,11.333333373069763 L-136.8333282470703,10.333333373069763 L-142.8333282470703,10.333333373069763 L-142.8333282470703,13.333333373069763 L-144.8333282470703,13.333333373069763 L-144.8333282470703,5.333333373069763 L-142.8333282470703,5.333333373069763 L-142.8333282470703,8.333333373069763 L-136.8333282470703,8.333333373069763 L-136.8333282470703,7.333333373069763 z"
           style="fill:#FF5293;fill-opacity:1;stroke:#FF2C76;stroke-width:1;stroke-linecap:round;stroke-opacity:1;"
           id="svg_106" />
        <text
           style="font-size:10px;fill:#282828;font-family:sans-serif;text-anchor:start"
           id="svg_107"
           y="-1.1666666269302368"
           x="-145.3333282470703">
          <tspan
             x="-132.3333282470703"
             y="12.833333373069763"
             id="svg_108">1</tspan>
        </text>
      </g>
    </g>
    <g
       id="svg_109"
       class="">
      <g
         transform="translate(464,264) scale(1.5) "
         id="svg_110">
        <path
           d="m-136.8333282470703,-0.6666666269302368 L-76.83332824707031,-0.6666666269302368 L-76.83332824707031,19.333333373069763 L-136.8333282470703,19.333333373069763 L-136.8333282470703,11.333333373069763 L-136.8333282470703,10.333333373069763 L-142.8333282470703,10.333333373069763 L-142.8333282470703,13.333333373069763 L-144.8333282470703,13.333333373069763 L-144.8333282470703,5.333333373069763 L-142.8333282470703,5.333333373069763 L-142.8333282470703,8.333333373069763 L-136.8333282470703,8.333333373069763 L-136.8333282470703,7.333333373069763 z"
           style="fill:#FF5293;fill-opacity:1;stroke:#FF2C76;stroke-width:1;stroke-linecap:round;stroke-opacity:1;"
           id="svg_111" />
        <text
           style="font-size:10px;fill:#282828;font-family:sans-serif;text-anchor:start"
           id="svg_112"
           y="-1.1666666269302368"
           x="-145.3333282470703">
          <tspan
             x="-132.3333282470703"
             y="12.833333373069763"
             id="svg_113">8</tspan>
        </text>
      </g>
    </g>
    <g
       id="svg_114"
       class="">
      <g
         transform="translate(260,264) scale(1.5) "
         id="svg_115">
        <path
           d="m-144.8333282470703,7.333333373069763 L-144.8333282470703,3.333333373069763 A4,4 90 0 1 -140.8333282470703,-0.6666666269302368 L-136.8333282470703,-0.6666666269302368 L-136.8333282470703,1.3333333730697632 L-126.83332824707031,1.3333333730697632 L-126.83332824707031,-0.6666666269302368 L-106.83332824707031,-0.6666666269302368 L-102.83332824707031,-0.6666666269302368 A4,4 90 0 1 -98.83332824707031,3.333333373069763 L-98.83332824707031,7.333333373069763 L-98.83332824707031,11.333333373069763 L-98.83332824707031,15.333333373069763 A4,4 90 0 1 -102.83332824707031,19.333333373069763 L-106.83332824707031,19.333333373069763 L-126.83332824707031,19.333333373069763 L-127.83332824707031,19.333333373069763 L-127.83332824707031,21.333333373069763 L-135.8333282470703,21.333333373069763 L-135.8333282470703,19.333333373069763 L-136.8333282470703,19.333333373069763 L-140.8333282470703,19.333333373069763 A4,4 90 0 1 -144.8333282470703,15.333333373069763 L-144.8333282470703,11.333333373069763 z"
           style="fill:#B0B0B0;fill-opacity:1;stroke:#A0A0A0;stroke-width:1;stroke-linecap:round;stroke-opacity:1;"
           id="svg_116" />
        <text
           style="font-size:10px;fill:#282828;font-family:sans-serif;text-anchor:end"
           id="svg_117"
           y="-1.1666666269302368"
           x="-145.3333282470703">
          <tspan
             x="-109.33332824707031"
             y="12.833333373069763"
             id="svg_118">↓</tspan>
        </text>
      </g>
    </g>
    <g
       id="svg_119"
       class="">
      <g
         transform="translate(304,200) scale(1.5) "
         id="svg_120">
        <path
           d="m-136.8333282470703,-0.6666666269302368 L-41.79426574707031,-0.6666666269302368 L-41.79426574707031,19.333333373069763 L-136.8333282470703,19.333333373069763 L-136.8333282470703,11.333333373069763 L-136.8333282470703,10.333333373069763 L-142.8333282470703,10.333333373069763 L-142.8333282470703,13.333333373069763 L-144.8333282470703,13.333333373069763 L-144.8333282470703,5.333333373069763 L-142.8333282470703,5.333333373069763 L-142.8333282470703,8.333333373069763 L-136.8333282470703,8.333333373069763 L-136.8333282470703,7.333333373069763 z"
           style="fill:#77C428;fill-opacity:1;stroke:#57AD02;stroke-width:1;stroke-linecap:round;stroke-opacity:1;"
           id="svg_121" />
        <text
           style="font-size:10px;fill:#282828;font-family:sans-serif;text-anchor:start"
           id="svg_122"
           y="-1.1666666269302368"
           x="-145.3333282470703">
          <tspan
             x="-132.3333282470703"
             y="12.833333373069763"
             id="svg_123">mode length</tspan>
        </text>
      </g>
    </g>
    <g
       id="svg_124"
       class="">
      <g
         transform="translate(260,296) scale(1.5) "
         id="svg_125">
        <path
           d="m-144.8333282470703,7.333333373069763 L-144.8333282470703,3.333333373069763 A4,4 90 0 1 -140.8333282470703,-0.6666666269302368 L-136.8333282470703,-0.6666666269302368 L-136.8333282470703,1.3333333730697632 L-126.83332824707031,1.3333333730697632 L-126.83332824707031,-0.6666666269302368 L-69.02571105957031,-0.6666666269302368 L-65.02571105957031,-0.6666666269302368 A4,4 90 0 1 -61.02571105957031,3.333333373069763 L-61.02571105957031,7.333333373069763 L-65.02571105957031,7.333333373069763 L-65.02571105957031,4.333333373069763 L-69.02571105957031,4.333333373069763 L-69.02571105957031,14.333333373069763 L-65.02571105957031,14.333333373069763 L-65.02571105957031,11.333333373069763 L-61.02571105957031,11.333333373069763 L-61.02571105957031,15.333333373069763 A4,4 90 0 1 -65.02571105957031,19.333333373069763 L-69.02571105957031,19.333333373069763 L-126.83332824707031,19.333333373069763 L-127.83332824707031,19.333333373069763 L-127.83332824707031,21.333333373069763 L-135.8333282470703,21.333333373069763 L-135.8333282470703,19.333333373069763 L-136.8333282470703,19.333333373069763 L-140.8333282470703,19.333333373069763 A4,4 90 0 1 -144.8333282470703,15.333333373069763 L-144.8333282470703,11.333333373069763 L-144.8333282470703,7.333333373069763 z"
           style="fill:#77C428;fill-opacity:1;stroke:#57AD02;stroke-width:1;stroke-linecap:round;stroke-opacity:1;"
           id="svg_126" />
        <text
           style="font-size:10px;fill:#282828;font-family:sans-serif;text-anchor:end"
           id="svg_127"
           y="-1.1666666269302368"
           x="-145.3333282470703">
          <tspan
             x="-71.33332824707031"
             y="12.833333373069763"
             id="svg_128">pitch number</tspan>
        </text>
        <text
           style="font-size:6.666666666666667px;fill:#282828;font-family:sans-serif;text-anchor:end"
           id="svg_129"
           y="-1.1666666269302368"
           x="-145.3333282470703" />
      </g>
    </g>
    <g
       id="svg_131"
       class="">
      <g
         transform="translate(461,296) scale(1.5) "
         id="svg_132">
        <path
           d="m-136.8333282470703,-0.6666666269302368 L-39.02571105957031,-0.6666666269302368 L-39.02571105957031,19.333333373069763 L-136.8333282470703,19.333333373069763 L-136.8333282470703,11.333333373069763 L-136.8333282470703,10.333333373069763 L-142.8333282470703,10.333333373069763 L-142.8333282470703,13.333333373069763 L-144.8333282470703,13.333333373069763 L-144.8333282470703,5.333333373069763 L-142.8333282470703,5.333333373069763 L-142.8333282470703,8.333333373069763 L-136.8333282470703,8.333333373069763 L-136.8333282470703,7.333333373069763 z"
           style="fill:#77C428;fill-opacity:1;stroke:#57AD02;stroke-width:1;stroke-linecap:round;stroke-opacity:1;"
           id="svg_133" />
        <text
           style="font-size:10px;fill:#282828;font-family:sans-serif;text-anchor:start"
           id="svg_134"
           y="-1.1666666269302368"
           x="-145.3333282470703">
          <tspan
             x="-132.3333282470703"
             y="12.833333373069763"
             id="svg_135">pitch number</tspan>
        </text>
      </g>
    </g>
    <g
       id="svg_136"
       class="">
      <g
         transform="translate(461,328) scale(1.5) "
         id="svg_137">
        <path
           d="m-136.8333282470703,-0.6666666269302368 L-34.57746887207031,-0.6666666269302368 L-34.57746887207031,19.333333373069763 L-136.8333282470703,19.333333373069763 L-136.8333282470703,11.333333373069763 L-136.8333282470703,10.333333373069763 L-142.8333282470703,10.333333373069763 L-142.8333282470703,13.333333373069763 L-144.8333282470703,13.333333373069763 L-144.8333282470703,5.333333373069763 L-142.8333282470703,5.333333373069763 L-142.8333282470703,8.333333373069763 L-136.8333282470703,8.333333373069763 L-136.8333282470703,7.333333373069763 z"
           style="fill:#77C428;fill-opacity:1;stroke:#57AD02;stroke-width:1;stroke-linecap:round;stroke-opacity:1;"
           id="svg_138" />
        <text
           style="font-size:10px;fill:#282828;font-family:sans-serif;text-anchor:start"
           id="svg_139"
           y="-1.1666666269302368"
           x="-145.3333282470703">
          <tspan
             x="-132.3333282470703"
             y="12.833333373069763"
             id="svg_140">scalar step up</tspan>
        </text>
      </g>
    </g>
    <g
       id="svg_141"
       class="">
      <g
         transform="translate(375,296) scale(1.5) "
         id="svg_142">
        <path
           d="m-136.8333282470703,7.333333373069763 L-136.8333282470703,3.333333373069763 A4,4 90 0 1 -132.8333282470703,-0.6666666269302368 L-128.8333282470703,-0.6666666269302368 L-118.83332824707031,-0.6666666269302368 L-88.83332824707031,-0.6666666269302368 L-84.83332824707031,-0.6666666269302368 A4,4 90 0 1 -80.83332824707031,3.333333373069763 L-80.83332824707031,7.333333373069763 L-84.83332824707031,7.333333373069763 L-84.83332824707031,4.333333373069763 L-88.83332824707031,4.333333373069763 L-88.83332824707031,14.333333373069763 L-84.83332824707031,14.333333373069763 L-84.83332824707031,11.333333373069763 L-80.83332824707031,11.333333373069763 L-80.83332824707031,28.333333373069763 L-84.83332824707031,28.333333373069763 L-84.83332824707031,25.333333373069763 L-88.83332824707031,25.333333373069763 L-88.83332824707031,35.33333337306976 L-84.83332824707031,35.33333337306976 L-84.83332824707031,32.33333337306976 L-80.83332824707031,32.33333337306976 L-80.83332824707031,36.33333337306976 A4,4 90 0 1 -84.83332824707031,40.33333337306976 L-88.83332824707031,40.33333337306976 L-118.83332824707031,40.33333337306976 L-128.8333282470703,40.33333337306976 L-132.8333282470703,40.33333337306976 A4,4 90 0 1 -136.8333282470703,36.33333337306976 L-136.8333282470703,32.33333337306976 L-136.8333282470703,11.333333373069763 L-136.8333282470703,10.333333373069763 L-142.8333282470703,10.333333373069763 L-142.8333282470703,13.333333373069763 L-144.8333282470703,13.333333373069763 L-144.8333282470703,5.333333373069763 L-142.8333282470703,5.333333373069763 L-142.8333282470703,8.333333373069763 L-136.8333282470703,8.333333373069763 L-136.8333282470703,7.333333373069763 z"
           style="fill:#FF5293;fill-opacity:1;stroke:#FF2C76;stroke-width:1;stroke-linecap:round;stroke-opacity:1;"
           id="svg_143" />
        <text
           style="font-size:14px;fill:#282828;font-family:sans-serif;text-anchor:end"
           id="svg_144"
           y="-1.1666666269302368"
           x="-145.3333282470703">
          <tspan
             x="-91.33332824707031"
             y="22.833333373069763"
             id="svg_145">+</tspan>
        </text>
        <text
           style="font-size:9.333333333333334px;fill:#282828;font-family:sans-serif;text-anchor:end"
           id="svg_146"
           y="-1.1666666269302368"
           x="-145.3333282470703" />
        <text
           style="font-size:9.333333333333334px;fill:#282828;font-family:sans-serif;text-anchor:end"
           id="svg_148"
           y="-1.1666666269302368"
           x="-145.3333282470703" />
      </g>
    </g>
    <g
       id="svg_150"
       class="">
      <g
         transform="translate(260,328) scale(1.5) "
         id="svg_151">
        <path
           d="m-144.8333282470703,7.333333373069763 L-144.8333282470703,3.333333373069763 A4,4 90 0 1 -140.8333282470703,-0.6666666269302368 L-136.8333282470703,-0.6666666269302368 L-136.8333282470703,1.3333333730697632 L-126.83332824707031,1.3333333730697632 L-126.83332824707031,-0.6666666269302368 L-106.83332824707031,-0.6666666269302368 L-102.83332824707031,-0.6666666269302368 A4,4 90 0 1 -98.83332824707031,3.333333373069763 L-98.83332824707031,7.333333373069763 L-98.83332824707031,11.333333373069763 L-98.83332824707031,15.333333373069763 A4,4 90 0 1 -102.83332824707031,19.333333373069763 L-106.83332824707031,19.333333373069763 L-126.83332824707031,19.333333373069763 L-127.83332824707031,19.333333373069763 L-127.83332824707031,21.333333373069763 L-135.8333282470703,21.333333373069763 L-135.8333282470703,19.333333373069763 L-136.8333282470703,19.333333373069763 L-140.8333282470703,19.333333373069763 A4,4 90 0 1 -144.8333282470703,15.333333373069763 L-144.8333282470703,11.333333373069763 z"
           style="fill:#B0B0B0;fill-opacity:1;stroke:#A0A0A0;stroke-width:1;stroke-linecap:round;stroke-opacity:1;"
           id="svg_152" />
        <text
           style="font-size:10px;fill:#282828;font-family:sans-serif;text-anchor:end"
           id="svg_153"
           y="-1.1666666269302368"
           x="-145.3333282470703">
          <tspan
             x="-109.33332824707031"
             y="12.833333373069763"
             id="svg_154">↓</tspan>
        </text>
      </g>
    </g>
    <g
       id="svg_155"
       class="">
      <g
         transform="translate(232,421) scale(1.5) "
         id="svg_156">
        <path
           d="m-144.8333282470703,7.333333373069763 L-144.8333282470703,3.333333373069763 A4,4 90 0 1 -140.8333282470703,-0.6666666269302368 L-136.8333282470703,-0.6666666269302368 L-136.8333282470703,1.3333333730697632 L-126.83332824707031,1.3333333730697632 L-126.83332824707031,-0.6666666269302368 L-117.83332824707031,-0.6666666269302368 L-97.83332824707031,-0.6666666269302368 L-93.83332824707031,-0.6666666269302368 A4,4 90 0 1 -89.83332824707031,3.333333373069763 L-89.83332824707031,7.333333373069763 L-93.83332824707031,7.333333373069763 L-93.83332824707031,4.333333373069763 L-97.83332824707031,4.333333373069763 L-97.83332824707031,14.333333373069763 L-93.83332824707031,14.333333373069763 L-93.83332824707031,11.333333373069763 L-89.83332824707031,11.333333373069763 L-89.83332824707031,15.333333373069763 A4,4 90 0 1 -93.83332824707031,19.333333373069763 L-97.83332824707031,19.333333373069763 L-117.83332824707031,19.333333373069763 L-118.83332824707031,19.333333373069763 L-118.83332824707031,21.333333373069763 L-126.83332824707031,21.333333373069763 L-126.83332824707031,19.333333373069763 L-127.83332824707031,19.333333373069763 L-131.8333282470703,19.333333373069763 A5,5 90 0 0 -136.8333282470703,24.333333373069763 L-136.8333282470703,28.333333373069763 L-136.8333282470703,32.33333337306976 L-136.8333282470703,116.33333337306976 L-136.8333282470703,120.33333337306976 A5,5 90 0 0 -131.8333282470703,125.33333337306976 L-127.83332824707031,125.33333337306976 L-127.83332824707031,127.33333337306976 L-117.83332824707031,127.33333337306976 L-117.83332824707031,125.33333337306976 L-109.83332824707031,125.33333337306976 L-109.83332824707031,131.33333337306976 L-109.83332824707031,137.33333337306976 L-109.83332824707031,141.33333337306976 A4,4 90 0 1 -113.83332824707031,145.33333337306976 L-117.83332824707031,145.33333337306976 L-126.83332824707031,145.33333337306976 L-127.83332824707031,145.33333337306976 L-127.83332824707031,147.33333337306976 L-135.8333282470703,147.33333337306976 L-135.8333282470703,145.33333337306976 L-136.8333282470703,145.33333337306976 L-140.8333282470703,145.33333337306976 A4,4 90 0 1 -144.8333282470703,141.33333337306976 L-144.8333282470703,137.33333337306976 z"
           style="fill:#D68136;fill-opacity:1;stroke:#B7651A;stroke-width:1;stroke-linecap:round;stroke-opacity:1;"
           id="svg_157" />
        <text
           style="font-size:10px;fill:#282828;font-family:sans-serif;text-anchor:start"
           id="svg_158"
           y="-1.1666666269302368"
           x="-145.3333282470703">
          <tspan
             x="-140.3333282470703"
             y="13.833333373069763"
             id="svg_159">repeat</tspan>
        </text>
        <text
           style="font-size:6.666666666666667px;fill:#282828;font-family:sans-serif;text-anchor:end"
           id="svg_160"
           y="-1.1666666269302368"
           x="-145.3333282470703" />
      </g>
    </g>
    <g
       id="svg_162"
       class="">
      <g
         transform="translate(304,421) scale(1.5) "
         id="svg_163">
        <path
           d="m-136.8333282470703,-0.6666666269302368 L-41.79426574707031,-0.6666666269302368 L-41.79426574707031,19.333333373069763 L-136.8333282470703,19.333333373069763 L-136.8333282470703,11.333333373069763 L-136.8333282470703,10.333333373069763 L-142.8333282470703,10.333333373069763 L-142.8333282470703,13.333333373069763 L-144.8333282470703,13.333333373069763 L-144.8333282470703,5.333333373069763 L-142.8333282470703,5.333333373069763 L-142.8333282470703,8.333333373069763 L-136.8333282470703,8.333333373069763 L-136.8333282470703,7.333333373069763 z"
           style="fill:#77C428;fill-opacity:1;stroke:#57AD02;stroke-width:1;stroke-linecap:round;stroke-opacity:1;"
           id="svg_164" />
        <text
           style="font-size:10px;fill:#282828;font-family:sans-serif;text-anchor:start"
           id="svg_165"
           y="-1.1666666269302368"
           x="-145.3333282470703">
          <tspan
             x="-132.3333282470703"
             y="12.833333373069763"
             id="svg_166">mode length</tspan>
        </text>
      </g>
    </g>
    <g
       id="svg_167"
       class="">
      <g
         id="svg_168">
        <g
           transform="translate(246,453) scale(1.5) "
           id="svg_169">
          <path
             d="m-144.8333282470703,7.333333373069763 L-144.8333282470703,3.333333373069763 A4,4 90 0 1 -140.8333282470703,-0.6666666269302368 L-136.8333282470703,-0.6666666269302368 L-136.8333282470703,1.3333333730697632 L-126.83332824707031,1.3333333730697632 L-126.83332824707031,-0.6666666269302368 L-117.83332824707031,-0.6666666269302368 L-57.83332824707031,-0.6666666269302368 L-53.83332824707031,-0.6666666269302368 A4,4 90 0 1 -49.83332824707031,3.333333373069763 L-49.83332824707031,7.333333373069763 L-53.83332824707031,7.333333373069763 L-53.83332824707031,4.333333373069763 L-57.83332824707031,4.333333373069763 L-57.83332824707031,14.333333373069763 L-53.83332824707031,14.333333373069763 L-53.83332824707031,11.333333373069763 L-49.83332824707031,11.333333373069763 L-49.83332824707031,15.333333373069763 A4,4 90 0 1 -53.83332824707031,19.333333373069763 L-57.83332824707031,19.333333373069763 L-117.83332824707031,19.333333373069763 L-118.83332824707031,19.333333373069763 L-118.83332824707031,21.333333373069763 L-126.83332824707031,21.333333373069763 L-126.83332824707031,19.333333373069763 L-127.83332824707031,19.333333373069763 L-131.8333282470703,19.333333373069763 A5,5 90 0 0 -136.8333282470703,24.333333373069763 L-136.8333282470703,28.333333373069763 L-136.8333282470703,32.33333337306976 L-136.8333282470703,74.33333337306976 L-136.8333282470703,78.33333337306976 A5,5 90 0 0 -131.8333282470703,83.33333337306976 L-127.83332824707031,83.33333337306976 L-127.83332824707031,85.33333337306976 L-117.83332824707031,85.33333337306976 L-117.83332824707031,83.33333337306976 L-109.83332824707031,83.33333337306976 L-109.83332824707031,89.33333337306976 L-109.83332824707031,95.33333337306976 L-109.83332824707031,99.33333337306976 A4,4 90 0 1 -113.83332824707031,103.33333337306976 L-117.83332824707031,103.33333337306976 L-126.83332824707031,103.33333337306976 L-127.83332824707031,103.33333337306976 L-127.83332824707031,105.33333337306976 L-135.8333282470703,105.33333337306976 L-135.8333282470703,103.33333337306976 L-136.8333282470703,103.33333337306976 L-140.8333282470703,103.33333337306976 A4,4 90 0 1 -144.8333282470703,99.33333337306976 L-144.8333282470703,95.33333337306976 z"
             style="fill:#FF8B2D;fill-opacity:1;stroke:#E86B0E;stroke-width:1;stroke-linecap:round;stroke-opacity:1;"
             id="svg_170" />
          <text
             style="font-size:10px;fill:#282828;font-family:sans-serif;text-anchor:start"
             id="svg_171"
             y="-1.1666666269302368"
             x="-145.3333282470703">
            <tspan
               x="-125.33332824707031"
               y="13.833333373069763"
               id="svg_172">note</tspan>
          </text>
          <text
             style="font-size:6.666666666666667px;fill:#282828;font-family:sans-serif;text-anchor:end"
             id="svg_173"
             y="-1.1666666269302368"
             x="-145.3333282470703">
            <tspan
               x="-60.33332824707031"
               y="10.833333373069763"
               id="svg_174">value</tspan>
          </text>
        </g>
      </g>
    </g>
    <g
       id="svg_182"
       class="">
      <g
         transform="translate(378,453) scale(1.5) "
         id="svg_183">
        <path
           d="m-136.8333282470703,7.333333373069763 L-136.8333282470703,3.333333373069763 A4,4 90 0 1 -132.8333282470703,-0.6666666269302368 L-128.8333282470703,-0.6666666269302368 L-118.83332824707031,-0.6666666269302368 L-88.83332824707031,-0.6666666269302368 L-84.83332824707031,-0.6666666269302368 A4,4 90 0 1 -80.83332824707031,3.333333373069763 L-80.83332824707031,7.333333373069763 L-84.83332824707031,7.333333373069763 L-84.83332824707031,4.333333373069763 L-88.83332824707031,4.333333373069763 L-88.83332824707031,14.333333373069763 L-84.83332824707031,14.333333373069763 L-84.83332824707031,11.333333373069763 L-80.83332824707031,11.333333373069763 L-80.83332824707031,28.333333373069763 L-84.83332824707031,28.333333373069763 L-84.83332824707031,25.333333373069763 L-88.83332824707031,25.333333373069763 L-88.83332824707031,35.33333337306976 L-84.83332824707031,35.33333337306976 L-84.83332824707031,32.33333337306976 L-80.83332824707031,32.33333337306976 L-80.83332824707031,36.33333337306976 A4,4 90 0 1 -84.83332824707031,40.33333337306976 L-88.83332824707031,40.33333337306976 L-118.83332824707031,40.33333337306976 L-128.8333282470703,40.33333337306976 L-132.8333282470703,40.33333337306976 A4,4 90 0 1 -136.8333282470703,36.33333337306976 L-136.8333282470703,32.33333337306976 L-136.8333282470703,11.333333373069763 L-136.8333282470703,10.333333373069763 L-142.8333282470703,10.333333373069763 L-142.8333282470703,13.333333373069763 L-144.8333282470703,13.333333373069763 L-144.8333282470703,5.333333373069763 L-142.8333282470703,5.333333373069763 L-142.8333282470703,8.333333373069763 L-136.8333282470703,8.333333373069763 L-136.8333282470703,7.333333373069763 z"
           style="fill:#FF5293;fill-opacity:1;stroke:#FF2C76;stroke-width:1;stroke-linecap:round;stroke-opacity:1;"
           id="svg_184" />
        <text
           style="font-size:9px;fill:#282828;font-family:sans-serif;text-anchor:end"
           id="svg_185"
           y="-1.1666666269302368"
           x="-145.3333282470703">
          <tspan
             x="-91.33332824707031"
             y="21.833333373069763"
             id="svg_186">/</tspan>
        </text>
        <text
           style="font-size:6px;fill:#282828;font-family:sans-serif;text-anchor:end"
           id="svg_187"
           y="-1.1666666269302368"
           x="-145.3333282470703" />
        <text
           style="font-size:6px;fill:#282828;font-family:sans-serif;text-anchor:end"
           id="svg_189"
           y="-1.1666666269302368"
           x="-145.3333282470703" />
      </g>
    </g>
    <g
       id="svg_191"
       class="">
      <g
         transform="translate(464,453) scale(1.5) "
         id="svg_192">
        <path
           d="m-136.8333282470703,-0.6666666269302368 L-76.83332824707031,-0.6666666269302368 L-76.83332824707031,19.333333373069763 L-136.8333282470703,19.333333373069763 L-136.8333282470703,11.333333373069763 L-136.8333282470703,10.333333373069763 L-142.8333282470703,10.333333373069763 L-142.8333282470703,13.333333373069763 L-144.8333282470703,13.333333373069763 L-144.8333282470703,5.333333373069763 L-142.8333282470703,5.333333373069763 L-142.8333282470703,8.333333373069763 L-136.8333282470703,8.333333373069763 L-136.8333282470703,7.333333373069763 z"
           style="fill:#FF5293;fill-opacity:1;stroke:#FF2C76;stroke-width:1;stroke-linecap:round;stroke-opacity:1;"
           id="svg_193" />
        <text
           style="font-size:10px;fill:#282828;font-family:sans-serif;text-anchor:start"
           id="svg_194"
           y="-1.1666666269302368"
           x="-145.3333282470703">
          <tspan
             x="-132.3333282470703"
             y="12.833333373069763"
             id="svg_195">1</tspan>
        </text>
      </g>
    </g>
    <g
       id="svg_196"
       class="">
      <g
         transform="translate(464,485) scale(1.5) "
         id="svg_197">
        <path
           d="m-136.8333282470703,-0.6666666269302368 L-76.83332824707031,-0.6666666269302368 L-76.83332824707031,19.333333373069763 L-136.8333282470703,19.333333373069763 L-136.8333282470703,11.333333373069763 L-136.8333282470703,10.333333373069763 L-142.8333282470703,10.333333373069763 L-142.8333282470703,13.333333373069763 L-144.8333282470703,13.333333373069763 L-144.8333282470703,5.333333373069763 L-142.8333282470703,5.333333373069763 L-142.8333282470703,8.333333373069763 L-136.8333282470703,8.333333373069763 L-136.8333282470703,7.333333373069763 z"
           style="fill:#FF5293;fill-opacity:1;stroke:#FF2C76;stroke-width:1;stroke-linecap:round;stroke-opacity:1;"
           id="svg_198" />
        <text
           style="font-size:10px;fill:#282828;font-family:sans-serif;text-anchor:start"
           id="svg_199"
           y="-1.1666666269302368"
           x="-145.3333282470703">
          <tspan
             x="-132.3333282470703"
             y="12.833333373069763"
             id="svg_200">8</tspan>
        </text>
      </g>
    </g>
    <g
       id="svg_201"
       class="">
      <g
         transform="translate(260,485) scale(1.5) "
         id="svg_202">
        <path
           d="m-144.8333282470703,7.333333373069763 L-144.8333282470703,3.333333373069763 A4,4 90 0 1 -140.8333282470703,-0.6666666269302368 L-136.8333282470703,-0.6666666269302368 L-136.8333282470703,1.3333333730697632 L-126.83332824707031,1.3333333730697632 L-126.83332824707031,-0.6666666269302368 L-106.83332824707031,-0.6666666269302368 L-102.83332824707031,-0.6666666269302368 A4,4 90 0 1 -98.83332824707031,3.333333373069763 L-98.83332824707031,7.333333373069763 L-98.83332824707031,11.333333373069763 L-98.83332824707031,15.333333373069763 A4,4 90 0 1 -102.83332824707031,19.333333373069763 L-106.83332824707031,19.333333373069763 L-126.83332824707031,19.333333373069763 L-127.83332824707031,19.333333373069763 L-127.83332824707031,21.333333373069763 L-135.8333282470703,21.333333373069763 L-135.8333282470703,19.333333373069763 L-136.8333282470703,19.333333373069763 L-140.8333282470703,19.333333373069763 A4,4 90 0 1 -144.8333282470703,15.333333373069763 L-144.8333282470703,11.333333373069763 z"
           style="fill:#B0B0B0;fill-opacity:1;stroke:#A0A0A0;stroke-width:1;stroke-linecap:round;stroke-opacity:1;"
           id="svg_203" />
        <text
           style="font-size:10px;fill:#282828;font-family:sans-serif;text-anchor:end"
           id="svg_204"
           y="-1.1666666269302368"
           x="-145.3333282470703">
          <tspan
             x="-109.33332824707031"
             y="12.833333373069763"
             id="svg_205">↓</tspan>
        </text>
      </g>
    </g>
    <g
       id="svg_206"
       class="">
      <g
         transform="translate(260,517) scale(1.5) "
         id="svg_207">
        <path
           d="m-144.8333282470703,7.333333373069763 L-144.8333282470703,3.333333373069763 A4,4 90 0 1 -140.8333282470703,-0.6666666269302368 L-136.8333282470703,-0.6666666269302368 L-136.8333282470703,1.3333333730697632 L-126.83332824707031,1.3333333730697632 L-126.83332824707031,-0.6666666269302368 L-69.02571105957031,-0.6666666269302368 L-65.02571105957031,-0.6666666269302368 A4,4 90 0 1 -61.02571105957031,3.333333373069763 L-61.02571105957031,7.333333373069763 L-65.02571105957031,7.333333373069763 L-65.02571105957031,4.333333373069763 L-69.02571105957031,4.333333373069763 L-69.02571105957031,14.333333373069763 L-65.02571105957031,14.333333373069763 L-65.02571105957031,11.333333373069763 L-61.02571105957031,11.333333373069763 L-61.02571105957031,15.333333373069763 A4,4 90 0 1 -65.02571105957031,19.333333373069763 L-69.02571105957031,19.333333373069763 L-126.83332824707031,19.333333373069763 L-127.83332824707031,19.333333373069763 L-127.83332824707031,21.333333373069763 L-135.8333282470703,21.333333373069763 L-135.8333282470703,19.333333373069763 L-136.8333282470703,19.333333373069763 L-140.8333282470703,19.333333373069763 A4,4 90 0 1 -144.8333282470703,15.333333373069763 L-144.8333282470703,11.333333373069763 L-144.8333282470703,7.333333373069763 z"
           style="fill:#77C428;fill-opacity:1;stroke:#57AD02;stroke-width:1;stroke-linecap:round;stroke-opacity:1;"
           id="svg_208" />
        <text
           style="font-size:10px;fill:#282828;font-family:sans-serif;text-anchor:end"
           id="svg_209"
           y="-1.1666666269302368"
           x="-145.3333282470703">
          <tspan
             x="-71.33332824707031"
             y="12.833333373069763"
             id="svg_210">pitch number</tspan>
        </text>
        <text
           style="font-size:6.666666666666667px;fill:#282828;font-family:sans-serif;text-anchor:end"
           id="svg_211"
           y="-1.1666666269302368"
           x="-145.3333282470703" />
      </g>
    </g>
    <g
       id="svg_213"
       class="">
      <g
         transform="translate(375,517) scale(1.5) "
         id="svg_214">
        <path
           d="m-136.8333282470703,7.333333373069763 L-136.8333282470703,3.333333373069763 A4,4 90 0 1 -132.8333282470703,-0.6666666269302368 L-128.8333282470703,-0.6666666269302368 L-118.83332824707031,-0.6666666269302368 L-88.83332824707031,-0.6666666269302368 L-84.83332824707031,-0.6666666269302368 A4,4 90 0 1 -80.83332824707031,3.333333373069763 L-80.83332824707031,7.333333373069763 L-84.83332824707031,7.333333373069763 L-84.83332824707031,4.333333373069763 L-88.83332824707031,4.333333373069763 L-88.83332824707031,14.333333373069763 L-84.83332824707031,14.333333373069763 L-84.83332824707031,11.333333373069763 L-80.83332824707031,11.333333373069763 L-80.83332824707031,28.333333373069763 L-84.83332824707031,28.333333373069763 L-84.83332824707031,25.333333373069763 L-88.83332824707031,25.333333373069763 L-88.83332824707031,35.33333337306976 L-84.83332824707031,35.33333337306976 L-84.83332824707031,32.33333337306976 L-80.83332824707031,32.33333337306976 L-80.83332824707031,36.33333337306976 A4,4 90 0 1 -84.83332824707031,40.33333337306976 L-88.83332824707031,40.33333337306976 L-118.83332824707031,40.33333337306976 L-128.8333282470703,40.33333337306976 L-132.8333282470703,40.33333337306976 A4,4 90 0 1 -136.8333282470703,36.33333337306976 L-136.8333282470703,32.33333337306976 L-136.8333282470703,11.333333373069763 L-136.8333282470703,10.333333373069763 L-142.8333282470703,10.333333373069763 L-142.8333282470703,13.333333373069763 L-144.8333282470703,13.333333373069763 L-144.8333282470703,5.333333373069763 L-142.8333282470703,5.333333373069763 L-142.8333282470703,8.333333373069763 L-136.8333282470703,8.333333373069763 L-136.8333282470703,7.333333373069763 z"
           style="fill:#FF5293;fill-opacity:1;stroke:#FF2C76;stroke-width:1;stroke-linecap:round;stroke-opacity:1;"
           id="svg_215" />
        <text
           style="font-size:14px;fill:#282828;font-family:sans-serif;text-anchor:end"
           id="svg_216"
           y="-1.1666666269302368"
           x="-145.3333282470703">
          <tspan
             x="-91.33332824707031"
             y="22.833333373069763"
             id="svg_217">+</tspan>
        </text>
        <text
           style="font-size:9.333333333333334px;fill:#282828;font-family:sans-serif;text-anchor:end"
           id="svg_218"
           y="-1.1666666269302368"
           x="-145.3333282470703" />
        <text
           style="font-size:9.333333333333334px;fill:#282828;font-family:sans-serif;text-anchor:end"
           id="svg_220"
           y="-1.1666666269302368"
           x="-145.3333282470703" />
      </g>
    </g>
    <g
       id="svg_222"
       class="">
      <g
         transform="translate(461,517) scale(1.5) "
         id="svg_223">
        <path
           d="m-136.8333282470703,-0.6666666269302368 L-39.02571105957031,-0.6666666269302368 L-39.02571105957031,19.333333373069763 L-136.8333282470703,19.333333373069763 L-136.8333282470703,11.333333373069763 L-136.8333282470703,10.333333373069763 L-142.8333282470703,10.333333373069763 L-142.8333282470703,13.333333373069763 L-144.8333282470703,13.333333373069763 L-144.8333282470703,5.333333373069763 L-142.8333282470703,5.333333373069763 L-142.8333282470703,8.333333373069763 L-136.8333282470703,8.333333373069763 L-136.8333282470703,7.333333373069763 z"
           style="fill:#77C428;fill-opacity:1;stroke:#57AD02;stroke-width:1;stroke-linecap:round;stroke-opacity:1;"
           id="svg_224" />
        <text
           style="font-size:10px;fill:#282828;font-family:sans-serif;text-anchor:start"
           id="svg_225"
           y="-1.1666666269302368"
           x="-145.3333282470703">
          <tspan
             x="-132.3333282470703"
             y="12.833333373069763"
             id="svg_226">pitch number</tspan>
        </text>
      </g>
    </g>
    <g
       id="svg_227"
       class="">
      <g
         transform="translate(461,549) scale(1.5) "
         id="svg_228">
        <path
           d="m-136.8333282470703,-0.6666666269302368 L-34.57746887207031,-0.6666666269302368 L-34.57746887207031,19.333333373069763 L-136.8333282470703,19.333333373069763 L-136.8333282470703,11.333333373069763 L-136.8333282470703,10.333333373069763 L-142.8333282470703,10.333333373069763 L-142.8333282470703,13.333333373069763 L-144.8333282470703,13.333333373069763 L-144.8333282470703,5.333333373069763 L-142.8333282470703,5.333333373069763 L-142.8333282470703,8.333333373069763 L-136.8333282470703,8.333333373069763 L-136.8333282470703,7.333333373069763 z"
           style="fill:#77C428;fill-opacity:1;stroke:#57AD02;stroke-width:1;stroke-linecap:round;stroke-opacity:1;"
           id="svg_229" />
        <text
           style="font-size:10px;fill:#282828;font-family:sans-serif;text-anchor:start"
           id="svg_230"
           y="-1.1666666269302368"
           x="-145.3333282470703">
          <tspan
             x="-132.3333282470703"
             y="12.833333373069763"
             id="svg_231">scalar step up</tspan>
        </text>
      </g>
    </g>
    <g
       id="svg_232"
       class="">
      <g
         transform="translate(260,549) scale(1.5) "
         id="svg_233">
        <path
           d="m-144.8333282470703,7.333333373069763 L-144.8333282470703,3.333333373069763 A4,4 90 0 1 -140.8333282470703,-0.6666666269302368 L-136.8333282470703,-0.6666666269302368 L-136.8333282470703,1.3333333730697632 L-126.83332824707031,1.3333333730697632 L-126.83332824707031,-0.6666666269302368 L-106.83332824707031,-0.6666666269302368 L-102.83332824707031,-0.6666666269302368 A4,4 90 0 1 -98.83332824707031,3.333333373069763 L-98.83332824707031,7.333333373069763 L-98.83332824707031,11.333333373069763 L-98.83332824707031,15.333333373069763 A4,4 90 0 1 -102.83332824707031,19.333333373069763 L-106.83332824707031,19.333333373069763 L-126.83332824707031,19.333333373069763 L-127.83332824707031,19.333333373069763 L-127.83332824707031,21.333333373069763 L-135.8333282470703,21.333333373069763 L-135.8333282470703,19.333333373069763 L-136.8333282470703,19.333333373069763 L-140.8333282470703,19.333333373069763 A4,4 90 0 1 -144.8333282470703,15.333333373069763 L-144.8333282470703,11.333333373069763 z"
           style="fill:#B0B0B0;fill-opacity:1;stroke:#A0A0A0;stroke-width:1;stroke-linecap:round;stroke-opacity:1;"
           id="svg_234" />
        <text
           style="font-size:10px;fill:#282828;font-family:sans-serif;text-anchor:end"
           id="svg_235"
           y="-1.1666666269302368"
           x="-145.3333282470703">
          <tspan
             x="-109.33332824707031"
             y="12.833333373069763"
             id="svg_236">↓</tspan>
        </text>
      </g>
    </g>
  </g>
</svg>
