<?xml version="1.0" encoding="UTF-8" standalone="no"?>
<svg
   xmlns:dc="http://purl.org/dc/elements/1.1/"
   xmlns:cc="http://creativecommons.org/ns#"
   xmlns:rdf="http://www.w3.org/1999/02/22-rdf-syntax-ns#"
   xmlns:svg="http://www.w3.org/2000/svg"
   xmlns="http://www.w3.org/2000/svg"
   id="svg590"
   version="1.1"
   height="371.5"
   width="250.05859">
  <metadata
     id="metadata596">
    <rdf:RDF>
      <cc:Work
         rdf:about="">
        <dc:format>image/svg+xml</dc:format>
        <dc:type
           rdf:resource="http://purl.org/dc/dcmitype/StillImage" />
        <dc:title></dc:title>
      </cc:Work>
    </rdf:RDF>
  </metadata>
  <defs
     id="defs594" />
  <g
     id="g372">
    <g
       id="g370"
       transform="scale(1.5)">
      <path
         id="path360"
         style="fill:#3ea4a3;fill-opacity:1;stroke:#000000;stroke-width:1;stroke-linecap:round;stroke-opacity:1"
         d="m 0.5,8.5 v -4 a 4,4 90 0 1 4,-4 h 4 v 2 h 10 v -2 h 9 45.039062 4 a 4,4 90 0 1 4,4 v 4 h -4 v -3 h -4 v 10 h 4 v -3 h 4 v 4 a 4,4 90 0 1 -4,4 h -4 H 27.5 h -1 v 2 h -8 v -2 h -1 -4 a 5,5 90 0 0 -5,5 v 4 4 126 4 a 5,5 90 0 0 5,5 h 4 v 2 h 10 v -2 h 8 v 6 6 4 a 4,4 90 0 1 -4,4 h -4 -9 -1 v 2 h -8 v -2 h -1 -4 a 4,4 90 0 1 -4,-4 v -4 z" />
      <text
         id="text364"
         style="font-size:10px;font-family:sans-serif;text-anchor:start;fill:#000000">
        <tspan
           id="tspan362"
           y="15.25"
           x="5.3333335">define mode</tspan>
      </text>
      <text
         id="text368"
         style="font-size:6.66666651px;font-family:sans-serif;text-anchor:end;fill:#000000">
        <tspan
           id="tspan366"
           y="11.25"
           x="70.372398" />
      </text>
    </g>
  </g>
  <path
     id="path374"
     style="fill:#3ea4a3;fill-opacity:1;stroke:#000000;stroke-width:1.5;stroke-linecap:round;stroke-opacity:1"
     d="m 122.30859,0.75 h 127 v 30 h -127 v -12 -1.5 h -9 v 4.5 h -3 v -12 h 3 v 4.5 h 9 v -1.5 z" />
  <text
     x="109.55859"
     id="text378"
     style="font-size:15px;font-family:sans-serif;text-anchor:start;fill:#000000;stroke-width:1.5">
    <tspan
       style="stroke-width:1.5"
       id="tspan376"
       y="20.75"
       x="129.55859">custom</tspan>
  </text>
  <g
     id="g396"
     transform="translate(13.5,31.5)">
    <g
       id="g394"
       transform="scale(1.5)">
      <path
         id="path384"
         style="fill:#93e042;fill-opacity:1;stroke:#004000;stroke-width:1;stroke-linecap:round;stroke-opacity:1"
         d="m 0.5,8.5 v -4 a 4,4 90 0 1 4,-4 h 4 v 2 h 10 v -2 h 57.807617 4 a 4,4 90 0 1 4,4 v 4 h -4 v -3 h -4 v 10 h 4 v -3 h 4 v 4 a 4,4 90 0 1 -4,4 h -4 H 18.5 h -1 v 2 h -8 v -2 h -1 -4 a 4,4 90 0 1 -4,-4 v -4 z" />
      <text
         id="text388"
         style="font-size:10px;font-family:sans-serif;text-anchor:end;fill:#000000">
        <tspan
           id="tspan386"
           y="13.5"
           x="74.140953">pitch number</tspan>
      </text>
      <text
         id="text392"
         style="font-size:6.66666651px;font-family:sans-serif;text-anchor:end;fill:#000000">
        <tspan
           id="tspan390"
           y="11.25"
           x="74.140953" />
      </text>
    </g>
  </g>
  <g
     id="g406"
     transform="translate(128.71143,31.5)">
    <g
       id="g404"
       transform="scale(1.5)">
      <path
         id="path398"
         style="fill:#ffb2bc;fill-opacity:1;stroke:#601136;stroke-width:1;stroke-linecap:round;stroke-opacity:1"
         d="m 8.5,0.5 h 60 v 20 h -60 v -8 -1 h -6 v 3 h -2 v -8 h 2 v 3 h 6 v -1 z" />
      <text
         id="text402"
         style="font-size:10px;font-family:sans-serif;text-anchor:start;fill:#000000">
        <tspan
           id="tspan400"
           y="13.833333"
           x="13.333333">0</tspan>
      </text>
    </g>
  </g>
  <g
     id="g420"
     transform="translate(13.5,63)">
    <g
       id="g418"
       transform="scale(1.5)">
      <path
         id="path408"
         style="fill:#93e042;fill-opacity:1;stroke:#004000;stroke-width:1;stroke-linecap:round;stroke-opacity:1"
         d="m 0.5,8.5 v -4 a 4,4 90 0 1 4,-4 h 4 v 2 h 10 v -2 h 57.807617 4 a 4,4 90 0 1 4,4 v 4 h -4 v -3 h -4 v 10 h 4 v -3 h 4 v 4 a 4,4 90 0 1 -4,4 h -4 H 18.5 h -1 v 2 h -8 v -2 h -1 -4 a 4,4 90 0 1 -4,-4 v -4 z" />
      <text
         id="text412"
         style="font-size:10px;font-family:sans-serif;text-anchor:end;fill:#000000">
        <tspan
           id="tspan410"
           y="13.5"
           x="74.140953">pitch number</tspan>
      </text>
      <text
         id="text416"
         style="font-size:6.66666651px;font-family:sans-serif;text-anchor:end;fill:#000000">
        <tspan
           id="tspan414"
           y="11.25"
           x="74.140953" />
      </text>
    </g>
  </g>
  <g
     id="g430"
     transform="translate(128.71143,63)">
    <g
       id="g428"
       transform="scale(1.5)">
      <path
         id="path422"
         style="fill:#ffb2bc;fill-opacity:1;stroke:#601136;stroke-width:1;stroke-linecap:round;stroke-opacity:1"
         d="m 8.5,0.5 h 60 v 20 h -60 v -8 -1 h -6 v 3 h -2 v -8 h 2 v 3 h 6 v -1 z" />
      <text
         id="text426"
         style="font-size:10px;font-family:sans-serif;text-anchor:start;fill:#000000">
        <tspan
           id="tspan424"
           y="13.833333"
           x="13.333333">2</tspan>
      </text>
    </g>
  </g>
  <g
     id="g444"
     transform="translate(13.5,94.5)">
    <g
       id="g442"
       transform="scale(1.5)">
      <path
         id="path432"
         style="fill:#93e042;fill-opacity:1;stroke:#004000;stroke-width:1;stroke-linecap:round;stroke-opacity:1"
         d="m 0.5,8.5 v -4 a 4,4 90 0 1 4,-4 h 4 v 2 h 10 v -2 h 57.807617 4 a 4,4 90 0 1 4,4 v 4 h -4 v -3 h -4 v 10 h 4 v -3 h 4 v 4 a 4,4 90 0 1 -4,4 h -4 H 18.5 h -1 v 2 h -8 v -2 h -1 -4 a 4,4 90 0 1 -4,-4 v -4 z" />
      <text
         id="text436"
         style="font-size:10px;font-family:sans-serif;text-anchor:end;fill:#000000">
        <tspan
           id="tspan434"
           y="13.5"
           x="74.140953">pitch number</tspan>
      </text>
      <text
         id="text440"
         style="font-size:6.66666651px;font-family:sans-serif;text-anchor:end;fill:#000000">
        <tspan
           id="tspan438"
           y="11.25"
           x="74.140953" />
      </text>
    </g>
  </g>
  <g
     id="g454"
     transform="translate(128.71143,94.5)">
    <g
       id="g452"
       transform="scale(1.5)">
      <path
         id="path446"
         style="fill:#ffb2bc;fill-opacity:1;stroke:#601136;stroke-width:1;stroke-linecap:round;stroke-opacity:1"
         d="m 8.5,0.5 h 60 v 20 h -60 v -8 -1 h -6 v 3 h -2 v -8 h 2 v 3 h 6 v -1 z" />
      <text
         id="text450"
         style="font-size:10px;font-family:sans-serif;text-anchor:start;fill:#000000">
        <tspan
           id="tspan448"
           y="13.833333"
           x="13.333333">4</tspan>
      </text>
    </g>
  </g>
  <g
     id="g468"
     transform="translate(13.5,126)">
    <g
       id="g466"
       transform="scale(1.5)">
      <path
         id="path456"
         style="fill:#93e042;fill-opacity:1;stroke:#004000;stroke-width:1;stroke-linecap:round;stroke-opacity:1"
         d="m 0.5,8.5 v -4 a 4,4 90 0 1 4,-4 h 4 v 2 h 10 v -2 h 57.807617 4 a 4,4 90 0 1 4,4 v 4 h -4 v -3 h -4 v 10 h 4 v -3 h 4 v 4 a 4,4 90 0 1 -4,4 h -4 H 18.5 h -1 v 2 h -8 v -2 h -1 -4 a 4,4 90 0 1 -4,-4 v -4 z" />
      <text
         id="text460"
         style="font-size:10px;font-family:sans-serif;text-anchor:end;fill:#000000">
        <tspan
           id="tspan458"
           y="13.5"
           x="74.140953">pitch number</tspan>
      </text>
      <text
         id="text464"
         style="font-size:6.66666651px;font-family:sans-serif;text-anchor:end;fill:#000000">
        <tspan
           id="tspan462"
           y="11.25"
           x="74.140953" />
      </text>
    </g>
  </g>
  <g
     id="g478"
     transform="translate(128.71143,126)">
    <g
       id="g476"
       transform="scale(1.5)">
      <path
         id="path470"
         style="fill:#ffb2bc;fill-opacity:1;stroke:#601136;stroke-width:1;stroke-linecap:round;stroke-opacity:1"
         d="m 8.5,0.5 h 60 v 20 h -60 v -8 -1 h -6 v 3 h -2 v -8 h 2 v 3 h 6 v -1 z" />
      <text
         id="text474"
         style="font-size:10px;font-family:sans-serif;text-anchor:start;fill:#000000">
        <tspan
           id="tspan472"
           y="13.833333"
           x="13.333333">5</tspan>
      </text>
    </g>
  </g>
  <g
     id="g492"
     transform="translate(13.5,157.5)">
    <g
       id="g490"
       transform="scale(1.5)">
      <path
         id="path480"
         style="fill:#93e042;fill-opacity:1;stroke:#004000;stroke-width:1;stroke-linecap:round;stroke-opacity:1"
         d="m 0.5,8.5 v -4 a 4,4 90 0 1 4,-4 h 4 v 2 h 10 v -2 h 57.807617 4 a 4,4 90 0 1 4,4 v 4 h -4 v -3 h -4 v 10 h 4 v -3 h 4 v 4 a 4,4 90 0 1 -4,4 h -4 H 18.5 h -1 v 2 h -8 v -2 h -1 -4 a 4,4 90 0 1 -4,-4 v -4 z" />
      <text
         id="text484"
         style="font-size:10px;font-family:sans-serif;text-anchor:end;fill:#000000">
        <tspan
           id="tspan482"
           y="13.5"
           x="74.140953">pitch number</tspan>
      </text>
      <text
         id="text488"
         style="font-size:6.66666651px;font-family:sans-serif;text-anchor:end;fill:#000000">
        <tspan
           id="tspan486"
           y="11.25"
           x="74.140953" />
      </text>
    </g>
  </g>
  <g
     id="g502"
     transform="translate(128.71143,157.5)">
    <g
       id="g500"
       transform="scale(1.5)">
      <path
         id="path494"
         style="fill:#ffb2bc;fill-opacity:1;stroke:#601136;stroke-width:1;stroke-linecap:round;stroke-opacity:1"
         d="m 8.5,0.5 h 60 v 20 h -60 v -8 -1 h -6 v 3 h -2 v -8 h 2 v 3 h 6 v -1 z" />
      <text
         id="text498"
         style="font-size:10px;font-family:sans-serif;text-anchor:start;fill:#000000">
        <tspan
           id="tspan496"
           y="13.833333"
           x="13.333333">7</tspan>
      </text>
    </g>
  </g>
  <g
     id="g516"
     transform="translate(13.5,189)">
    <g
       id="g514"
       transform="scale(1.5)">
      <path
         id="path504"
         style="fill:#93e042;fill-opacity:1;stroke:#004000;stroke-width:1;stroke-linecap:round;stroke-opacity:1"
         d="m 0.5,8.5 v -4 a 4,4 90 0 1 4,-4 h 4 v 2 h 10 v -2 h 57.807617 4 a 4,4 90 0 1 4,4 v 4 h -4 v -3 h -4 v 10 h 4 v -3 h 4 v 4 a 4,4 90 0 1 -4,4 h -4 H 18.5 h -1 v 2 h -8 v -2 h -1 -4 a 4,4 90 0 1 -4,-4 v -4 z" />
      <text
         id="text508"
         style="font-size:10px;font-family:sans-serif;text-anchor:end;fill:#000000">
        <tspan
           id="tspan506"
           y="13.5"
           x="74.140953">pitch number</tspan>
      </text>
      <text
         id="text512"
         style="font-size:6.66666651px;font-family:sans-serif;text-anchor:end;fill:#000000">
        <tspan
           id="tspan510"
           y="11.25"
           x="74.140953" />
      </text>
    </g>
  </g>
  <g
     id="g526"
     transform="translate(128.71143,189)">
    <g
       id="g524"
       transform="scale(1.5)">
      <path
         id="path518"
         style="fill:#ffb2bc;fill-opacity:1;stroke:#601136;stroke-width:1;stroke-linecap:round;stroke-opacity:1"
         d="m 8.5,0.5 h 60 v 20 h -60 v -8 -1 h -6 v 3 h -2 v -8 h 2 v 3 h 6 v -1 z" />
      <text
         id="text522"
         style="font-size:10px;font-family:sans-serif;text-anchor:start;fill:#000000">
        <tspan
           id="tspan520"
           y="13.833333"
           x="13.333333">9</tspan>
      </text>
    </g>
  </g>
  <g
     id="g540"
     transform="translate(13.5,220.5)">
    <g
       id="g538"
       transform="scale(1.5)">
      <path
         id="path528"
         style="fill:#93e042;fill-opacity:1;stroke:#004000;stroke-width:1;stroke-linecap:round;stroke-opacity:1"
         d="m 0.5,8.5 v -4 a 4,4 90 0 1 4,-4 h 4 v 2 h 10 v -2 h 57.807617 4 a 4,4 90 0 1 4,4 v 4 h -4 v -3 h -4 v 10 h 4 v -3 h 4 v 4 a 4,4 90 0 1 -4,4 h -4 H 18.5 h -1 v 2 h -8 v -2 h -1 -4 a 4,4 90 0 1 -4,-4 v -4 z" />
      <text
         id="text532"
         style="font-size:10px;font-family:sans-serif;text-anchor:end;fill:#000000">
        <tspan
           id="tspan530"
           y="13.5"
           x="74.140953">pitch number</tspan>
      </text>
      <text
         id="text536"
         style="font-size:6.66666651px;font-family:sans-serif;text-anchor:end;fill:#000000">
        <tspan
           id="tspan534"
           y="11.25"
           x="74.140953" />
      </text>
    </g>
  </g>
  <g
     id="g550"
     transform="translate(128.71143,220.5)">
    <g
       id="g548"
       transform="scale(1.5)">
      <path
         id="path542"
         style="fill:#ffb2bc;fill-opacity:1;stroke:#601136;stroke-width:1;stroke-linecap:round;stroke-opacity:1"
         d="m 8.5,0.5 h 60 v 20 h -60 v -8 -1 h -6 v 3 h -2 v -8 h 2 v 3 h 6 v -1 z" />
      <text
         id="text546"
         style="font-size:10px;font-family:sans-serif;text-anchor:start;fill:#000000">
        <tspan
           id="tspan544"
           y="13.833333"
           x="13.333333">11</tspan>
      </text>
    </g>
  </g>
  <g
     id="g568"
     transform="translate(0,305.5)">
    <g
       id="g566"
       transform="scale(1.5)">
      <path
         id="path552"
         style="fill:#3ea4a3;fill-opacity:1;stroke:#000000;stroke-width:1;stroke-linecap:round;stroke-opacity:1"
         d="m 0.5,8.5 v -4 a 4,4 90 0 1 4,-4 h 4 v 2 h 10 v -2 h 31.679687 4 a 4,4 90 0 1 4,4 v 4 h -4 v -3 h -4 v 10 h 4 v -3 h 4 v 17 h -4 v -3 h -4 v 10 h 4 v -3 h 4 v 4 a 4,4 90 0 1 -4,4 h -4 H 18.5 h -1 v 2 h -8 v -2 h -1 -4 a 4,4 90 0 1 -4,-4 v -4 -21 z" />
      <text
         id="text556"
         style="font-size:10px;font-family:sans-serif;text-anchor:end;fill:#000000">
        <tspan
           id="tspan554"
           y="24"
           x="48.01302">set key</tspan>
      </text>
      <text
         id="text560"
         style="font-size:6.66666651px;font-family:sans-serif;text-anchor:end;fill:#000000">
        <tspan
           id="tspan558"
           y="11.25"
           x="48.01302">key</tspan>
      </text>
      <text
         id="text564"
         style="font-size:6.66666651px;font-family:sans-serif;text-anchor:end;fill:#000000">
        <tspan
           id="tspan562"
           y="32.25"
           x="48.01302">mode</tspan>
      </text>
    </g>
  </g>
  <g
     id="g578"
     transform="translate(76.01953,305.5)">
    <g
       id="g576"
       transform="scale(1.5)">
      <path
         id="path570"
         style="fill:#93e042;fill-opacity:1;stroke:#004000;stroke-width:1;stroke-linecap:round;stroke-opacity:1"
         d="m 8.5,0.5 h 60 v 20 h -60 v -8 -1 h -6 v 3 h -2 v -8 h 2 v 3 h 6 v -1 z" />
      <text
         id="text574"
         style="font-size:10px;font-family:sans-serif;text-anchor:start;fill:#000000">
        <tspan
           id="tspan572"
           y="13.833333"
           x="13.333333">C</tspan>
      </text>
    </g>
  </g>
  <path
     id="path580"
     style="fill:#3ea4a3;fill-opacity:1;stroke:#000000;stroke-width:1.5;stroke-linecap:round;stroke-opacity:1"
     d="m 88.76953,337.75 h 131 v 30 h -131 v -12 -1.5 h -9 v 4.5 h -3 v -12 h 3 v 4.5 h 9 v -1.5 z" />
  <text
     y="337"
     x="76.019531"
     id="text584"
     style="font-size:15px;font-family:sans-serif;text-anchor:start;fill:#000000;stroke-width:1.5">
    <tspan
       style="stroke-width:1.5"
       id="tspan582"
       y="357.75"
       x="96.019531">custom</tspan>
  </text>
</svg>
