<svg xmlns="http://www.w3.org/2000/svg" width="735" height="696"><rect id="backgroundrect" width="100%" height="100%" x="0" y="0" fill="none" stroke="none"/><g class="currentLayer" style=""><title>Layer 1</title><g id="svg_15" class=""><g id="svg_16"><g transform="translate(249, 57) scale(1.5)" id="svg_17"><path d="m-165.5,-4 L-165.5,-8 A4,4 90 0 1 -161.5,-12 L-157.5,-12 L-157.5,-10 L-147.5,-10 L-147.5,-12 L-138.5,-12 L-78.5,-12 L-74.5,-12 A4,4 90 0 1 -70.5,-8 L-70.5,-4 L-74.5,-4 L-74.5,-7 L-78.5,-7 L-78.5,3 L-74.5,3 L-74.5,0 L-70.5,0 L-70.5,4 A4,4 90 0 1 -74.5,8 L-78.5,8 L-138.5,8 L-139.5,8 L-139.5,10 L-147.5,10 L-147.5,8 L-148.5,8 L-152.5,8 A5,5 90 0 0 -157.5,13 L-157.5,17 L-157.5,21 L-157.5,63 L-157.5,67 A5,5 90 0 0 -152.5,72 L-148.5,72 L-148.5,74 L-138.5,74 L-138.5,72 L-130.5,72 L-130.5,78 L-130.5,84 L-130.5,88 A4,4 90 0 1 -134.5,92 L-138.5,92 L-147.5,92 L-148.5,92 L-148.5,94 L-156.5,94 L-156.5,92 L-157.5,92 L-161.5,92 A4,4 90 0 1 -165.5,88 L-165.5,84 z" style="fill:#FF8B2D;fill-opacity:1;stroke:#E86B0E;stroke-width:1;stroke-linecap:round;stroke-opacity:1;" id="svg_18"/><text style="font-size:10px;fill:#282828;font-family:sans-serif;text-anchor:start" id="svg_19" y="-12.5" x="-166"><tspan x="-146" y="2.5" id="svg_20">note</tspan></text><text style="font-size:6.666666666666667px;fill:#282828;font-family:sans-serif;text-anchor:end" id="svg_21" y="-12.5" x="-166"><tspan x="-81" y="-0.5" id="svg_22">value</tspan></text></g></g><g transform="translate(249, 61) scale(0.5)" id="svg_23"><g style="isolation:isolate" id="svg_24"><g id="レイヤー_2" data-name="レイヤー 2"><g id="Icon"><rect width="42" height="42" rx="5" ry="5" style="fill:#292929;opacity:0.4;mix-blend-mode:multiply" id="svg_25" y="-37.5" x="-498"/><path d="M-467.4400005340576,-7.700000762939453 l-4.170000076293945,-4.159999847412109 h2.259999990463257 a1,1 0 1 0 0,-2.069999933242798 H-474.0599994659424 a1.0800000429153442,1.0800000429153442 0 0 0 -1.1100000143051147,1 v0 s0,0 0,0.05999999865889549 v4.639999866485596 h0 a1,1 0 1 0 2.0799999237060547,0 V-10.420000076293945 l4.190000057220459,4.190000057220459 a1,1 0 0 0 1.4600000381469727,0 A1,1 0 0 0 -467.4400005340576,-7.700000762939453 z" style="fill:#fff" id="svg_26"/><path d="M-478.82999992370605,-12.899999618530273 a1.0800000429153442,1.0800000429153442 0 0 0 -1.1100000143051147,-1 H-484.6499996185303 a1,1 0 1 0 0,2.069999933242798 H-482.3999996185303 L-486.5600004196167,-7.700000762939453 a1,1 0 0 0 1.4700000286102295,1.4700000286102295 l4.179999828338623,-4.190000057220459 v2.259999990463257 a1,1 0 1 0 2.0799999237060547,0 V-12.799999237060547 s0,0 0,-0.05999999865889549 A0.07999999821186066,0.07999999821186066 0 0 1 -478.82999992370605,-12.899999618530273 z" style="fill:#fff" id="svg_27"/><path d="M-474.0599994659424,-17 h4.699999809265137 a1,1 0 1 0 0,-2.0799999237060547 H-471.61000061035156 l4.170000076293945,-4.159999847412109 a1,1 0 0 0 0,-1.4700000286102295 a1,1 0 0 0 -1.4600000381469727,0 L-473.0900001525879,-20.5 V-22.77999973297119 a1,1 0 1 0 -2.0799999237060547,0 v4.639999866485596 a0.4300000071525574,0.4300000071525574 0 0 0 0,0.05000000074505806 v0.05000000074505806 A1.090000033378601,1.090000033378601 0 0 0 -474.0599994659424,-17 z" style="fill:#fff" id="svg_28"/><path d="M-479.8700008392334,-23.880000114440918 a1.0800000429153442,1.0800000429153442 0 0 0 -1,1.090000033378601 V-20.5 l-4.179999828338623,-4.190000057220459 a1,1 0 0 0 -1.4700000286102295,0 a1,1 0 0 0 0,1.4600000381469727 l4.159999847412109,4.170000076293945 H-484.6499996185303 a1,1 0 1 0 0,2.0799999237060547 h4.710000038146973 a1.090000033378601,1.090000033378601 0 0 0 1.1100000143051147,-1 a0.07999999821186066,0.07999999821186066 0 0 1 0,0 s0,0 0,-0.05999999865889549 V-22.789999961853027 A1.0700000524520874,1.0700000524520874 0 0 0 -479.8700008392334,-23.880000114440918 z" style="fill:#fff" id="svg_29"/></g></g></g></g></g><g id="svg_30" class=""><g transform="translate(381, 57) scale(1.5)" id="svg_31"><path d="m-157.5,-4 L-157.5,-8 A4,4 90 0 1 -153.5,-12 L-149.5,-12 L-139.5,-12 L-109.5,-12 L-105.5,-12 A4,4 90 0 1 -101.5,-8 L-101.5,-4 L-105.5,-4 L-105.5,-7 L-109.5,-7 L-109.5,3 L-105.5,3 L-105.5,0 L-101.5,0 L-101.5,17 L-105.5,17 L-105.5,14 L-109.5,14 L-109.5,24 L-105.5,24 L-105.5,21 L-101.5,21 L-101.5,25 A4,4 90 0 1 -105.5,29 L-109.5,29 L-139.5,29 L-149.5,29 L-153.5,29 A4,4 90 0 1 -157.5,25 L-157.5,21 L-157.5,0 L-157.5,-1 L-163.5,-1 L-163.5,2 L-165.5,2 L-165.5,-6 L-163.5,-6 L-163.5,-3 L-157.5,-3 L-157.5,-4 z" style="fill:#FF5293;fill-opacity:1;stroke:#FF2C76;stroke-width:1;stroke-linecap:round;stroke-opacity:1;" id="svg_32"/><text style="font-size:9px;fill:#282828;font-family:sans-serif;text-anchor:end" id="svg_33" y="-12.5" x="-166"><tspan x="-112" y="10.5" id="svg_34">/</tspan></text><text style="font-size:6px;fill:#282828;font-family:sans-serif;text-anchor:end" id="svg_35" y="-12.5" x="-166"/><text style="font-size:6px;fill:#282828;font-family:sans-serif;text-anchor:end" id="svg_37" y="-12.5" x="-166"/></g></g><g id="svg_39" class=""><g transform="translate(467, 57) scale(1.5)" id="svg_40"><path d="m-157.5,-12 L-97.5,-12 L-97.5,8 L-157.5,8 L-157.5,0 L-157.5,-1 L-163.5,-1 L-163.5,2 L-165.5,2 L-165.5,-6 L-163.5,-6 L-163.5,-3 L-157.5,-3 L-157.5,-4 z" style="fill:#FF5293;fill-opacity:1;stroke:#FF2C76;stroke-width:1;stroke-linecap:round;stroke-opacity:1;" id="svg_41"/><text style="font-size:10px;fill:#282828;font-family:sans-serif;text-anchor:start" id="svg_42" y="-12.5" x="-166"><tspan x="-153" y="1.5" id="svg_43">1</tspan></text></g></g><g id="svg_44" class=""><g transform="translate(467, 89) scale(1.5)" id="svg_45"><path d="m-157.5,-12 L-97.5,-12 L-97.5,8 L-157.5,8 L-157.5,0 L-157.5,-1 L-163.5,-1 L-163.5,2 L-165.5,2 L-165.5,-6 L-163.5,-6 L-163.5,-3 L-157.5,-3 L-157.5,-4 z" style="fill:#FF5293;fill-opacity:1;stroke:#FF2C76;stroke-width:1;stroke-linecap:round;stroke-opacity:1;" id="svg_46"/><text style="font-size:10px;fill:#282828;font-family:sans-serif;text-anchor:start" id="svg_47" y="-12.5" x="-166"><tspan x="-153" y="1.5" id="svg_48">4</tspan></text></g></g><g id="svg_49" class=""><g transform="translate(263, 89) scale(1.5)" id="svg_50"><path d="m-165.5,-4 L-165.5,-8 A4,4 90 0 1 -161.5,-12 L-157.5,-12 L-157.5,-10 L-147.5,-10 L-147.5,-12 L-127.5,-12 L-123.5,-12 A4,4 90 0 1 -119.5,-8 L-119.5,-4 L-119.5,0 L-119.5,4 A4,4 90 0 1 -123.5,8 L-127.5,8 L-147.5,8 L-148.5,8 L-148.5,10 L-156.5,10 L-156.5,8 L-157.5,8 L-161.5,8 A4,4 90 0 1 -165.5,4 L-165.5,0 z" style="fill:#B0B0B0;fill-opacity:1;stroke:#A0A0A0;stroke-width:1;stroke-linecap:round;stroke-opacity:1;" id="svg_51"/><text style="font-size:10px;fill:#282828;font-family:sans-serif;text-anchor:end" id="svg_52" y="-12.5" x="-166"><tspan x="-130" y="1.5" id="svg_53">↓</tspan></text></g></g><g id="svg_54" class=""><g transform="translate(263, 121) scale(1.5)" id="svg_55"><path d="m-165.5,-4 L-165.5,-8 A4,4 90 0 1 -161.5,-12 L-157.5,-12 L-157.5,-10 L-147.5,-10 L-147.5,-12 L-117.5,-12 L-113.5,-12 A4,4 90 0 1 -109.5,-8 L-109.5,-4 L-113.5,-4 L-113.5,-7 L-117.5,-7 L-117.5,3 L-113.5,3 L-113.5,0 L-109.5,0 L-109.5,17 L-113.5,17 L-113.5,14 L-117.5,14 L-117.5,24 L-113.5,24 L-113.5,21 L-109.5,21 L-109.5,25 A4,4 90 0 1 -113.5,29 L-117.5,29 L-147.5,29 L-148.5,29 L-148.5,31 L-156.5,31 L-156.5,29 L-157.5,29 L-161.5,29 A4,4 90 0 1 -165.5,25 L-165.5,21 L-165.5,0 L-165.5,-4 z" style="fill:#77C428;fill-opacity:1;stroke:#57AD02;stroke-width:1;stroke-linecap:round;stroke-opacity:1;" id="svg_56"/><text style="font-size:10px;fill:#282828;font-family:sans-serif;text-anchor:end" id="svg_57" y="-12.5" x="-166"><tspan x="-120" y="11.5" id="svg_58">pitch</tspan></text><text style="font-size:6.666666666666667px;fill:#282828;font-family:sans-serif;text-anchor:end" id="svg_59" y="-12.5" x="-166"><tspan x="-120" y="-0.5" id="svg_60">name</tspan></text><text style="font-size:6.666666666666667px;fill:#282828;font-family:sans-serif;text-anchor:end" id="svg_61" y="-12.5" x="-166"><tspan x="-120" y="20.5" id="svg_62">octave</tspan></text></g></g><g id="svg_63" class=""><g transform="translate(337, 121) scale(1.5)" id="svg_64"><path d="m-157.5,-12 L-97.5,-12 L-97.5,8 L-157.5,8 L-157.5,0 L-157.5,-1 L-163.5,-1 L-163.5,2 L-165.5,2 L-165.5,-6 L-163.5,-6 L-163.5,-3 L-157.5,-3 L-157.5,-4 z" style="fill:#77C428;fill-opacity:1;stroke:#57AD02;stroke-width:1;stroke-linecap:round;stroke-opacity:1;" id="svg_65"/><text style="font-size:10px;fill:#282828;font-family:sans-serif;text-anchor:start" id="svg_66" y="-12.5" x="-166"><tspan x="-153" y="1.5" id="svg_67">sol</tspan></text></g></g><g id="svg_68" class=""><g transform="translate(337, 153) scale(1.5)" id="svg_69"><path d="m-157.5,-12 L-97.5,-12 L-97.5,8 L-157.5,8 L-157.5,0 L-157.5,-1 L-163.5,-1 L-163.5,2 L-165.5,2 L-165.5,-6 L-163.5,-6 L-163.5,-3 L-157.5,-3 L-157.5,-4 z" style="fill:#FF5293;fill-opacity:1;stroke:#FF2C76;stroke-width:1;stroke-linecap:round;stroke-opacity:1;" id="svg_70"/><text style="font-size:10px;fill:#282828;font-family:sans-serif;text-anchor:start" id="svg_71" y="-12.5" x="-166"><tspan x="-153" y="1.5" id="svg_72">4</tspan></text></g></g><g id="svg_73" class=""><g id="svg_74"><g transform="translate(252, 305) scale(1.5)" id="svg_75"><path d="m-165.5,-4 L-165.5,-8 A4,4 90 0 1 -161.5,-12 L-157.5,-12 L-157.5,-10 L-147.5,-10 L-147.5,-12 L-138.5,-12 L-78.5,-12 L-74.5,-12 A4,4 90 0 1 -70.5,-8 L-70.5,-4 L-74.5,-4 L-74.5,-7 L-78.5,-7 L-78.5,3 L-74.5,3 L-74.5,0 L-70.5,0 L-70.5,4 A4,4 90 0 1 -74.5,8 L-78.5,8 L-138.5,8 L-139.5,8 L-139.5,10 L-147.5,10 L-147.5,8 L-148.5,8 L-152.5,8 A5,5 90 0 0 -157.5,13 L-157.5,17 L-157.5,21 L-157.5,63 L-157.5,67 A5,5 90 0 0 -152.5,72 L-148.5,72 L-148.5,74 L-138.5,74 L-138.5,72 L-130.5,72 L-130.5,78 L-130.5,84 L-130.5,88 A4,4 90 0 1 -134.5,92 L-138.5,92 L-147.5,92 L-148.5,92 L-148.5,94 L-156.5,94 L-156.5,92 L-157.5,92 L-161.5,92 A4,4 90 0 1 -165.5,88 L-165.5,84 z" style="fill:#FF8B2D;fill-opacity:1;stroke:#E86B0E;stroke-width:1;stroke-linecap:round;stroke-opacity:1;" id="svg_76"/><text style="font-size:10px;fill:#282828;font-family:sans-serif;text-anchor:start" id="svg_77" y="-12.5" x="-166"><tspan x="-146" y="2.5" id="svg_78">note</tspan></text><text style="font-size:6.666666666666667px;fill:#282828;font-family:sans-serif;text-anchor:end" id="svg_79" y="-12.5" x="-166"><tspan x="-81" y="-0.5" id="svg_80">value</tspan></text></g></g><g transform="translate(252, 309) scale(0.5)" id="svg_81"><g style="isolation:isolate" id="svg_82"><g id="レイヤー_2" data-name="レイヤー 2"><g id="Icon"><rect width="42" height="42" rx="5" ry="5" style="fill:#292929;opacity:0.4;mix-blend-mode:multiply" id="svg_83" y="-37.5" x="-498"/><path d="M-467.4400005340576,-7.700000762939453 l-4.170000076293945,-4.159999847412109 h2.259999990463257 a1,1 0 1 0 0,-2.069999933242798 H-474.0599994659424 a1.0800000429153442,1.0800000429153442 0 0 0 -1.1100000143051147,1 v0 s0,0 0,0.05999999865889549 v4.639999866485596 h0 a1,1 0 1 0 2.0799999237060547,0 V-10.420000076293945 l4.190000057220459,4.190000057220459 a1,1 0 0 0 1.4600000381469727,0 A1,1 0 0 0 -467.4400005340576,-7.700000762939453 z" style="fill:#fff" id="svg_84"/><path d="M-478.82999992370605,-12.899999618530273 a1.0800000429153442,1.0800000429153442 0 0 0 -1.1100000143051147,-1 H-484.6499996185303 a1,1 0 1 0 0,2.069999933242798 H-482.3999996185303 L-486.5600004196167,-7.700000762939453 a1,1 0 0 0 1.4700000286102295,1.4700000286102295 l4.179999828338623,-4.190000057220459 v2.259999990463257 a1,1 0 1 0 2.0799999237060547,0 V-12.799999237060547 s0,0 0,-0.05999999865889549 A0.07999999821186066,0.07999999821186066 0 0 1 -478.82999992370605,-12.899999618530273 z" style="fill:#fff" id="svg_85"/><path d="M-474.0599994659424,-17 h4.699999809265137 a1,1 0 1 0 0,-2.0799999237060547 H-471.61000061035156 l4.170000076293945,-4.159999847412109 a1,1 0 0 0 0,-1.4700000286102295 a1,1 0 0 0 -1.4600000381469727,0 L-473.0900001525879,-20.5 V-22.77999973297119 a1,1 0 1 0 -2.0799999237060547,0 v4.639999866485596 a0.4300000071525574,0.4300000071525574 0 0 0 0,0.05000000074505806 v0.05000000074505806 A1.090000033378601,1.090000033378601 0 0 0 -474.0599994659424,-17 z" style="fill:#fff" id="svg_86"/><path d="M-479.8700008392334,-23.880000114440918 a1.0800000429153442,1.0800000429153442 0 0 0 -1,1.090000033378601 V-20.5 l-4.179999828338623,-4.190000057220459 a1,1 0 0 0 -1.4700000286102295,0 a1,1 0 0 0 0,1.4600000381469727 l4.159999847412109,4.170000076293945 H-484.6499996185303 a1,1 0 1 0 0,2.0799999237060547 h4.710000038146973 a1.090000033378601,1.090000033378601 0 0 0 1.1100000143051147,-1 a0.07999999821186066,0.07999999821186066 0 0 1 0,0 s0,0 0,-0.05999999865889549 V-22.789999961853027 A1.0700000524520874,1.0700000524520874 0 0 0 -479.8700008392334,-23.880000114440918 z" style="fill:#fff" id="svg_87"/></g></g></g></g></g><g id="svg_88" class=""><g transform="translate(384, 305) scale(1.5)" id="svg_89"><path d="m-157.5,-4 L-157.5,-8 A4,4 90 0 1 -153.5,-12 L-149.5,-12 L-139.5,-12 L-109.5,-12 L-105.5,-12 A4,4 90 0 1 -101.5,-8 L-101.5,-4 L-105.5,-4 L-105.5,-7 L-109.5,-7 L-109.5,3 L-105.5,3 L-105.5,0 L-101.5,0 L-101.5,17 L-105.5,17 L-105.5,14 L-109.5,14 L-109.5,24 L-105.5,24 L-105.5,21 L-101.5,21 L-101.5,25 A4,4 90 0 1 -105.5,29 L-109.5,29 L-139.5,29 L-149.5,29 L-153.5,29 A4,4 90 0 1 -157.5,25 L-157.5,21 L-157.5,0 L-157.5,-1 L-163.5,-1 L-163.5,2 L-165.5,2 L-165.5,-6 L-163.5,-6 L-163.5,-3 L-157.5,-3 L-157.5,-4 z" style="fill:#FF5293;fill-opacity:1;stroke:#FF2C76;stroke-width:1;stroke-linecap:round;stroke-opacity:1;" id="svg_90"/><text style="font-size:9px;fill:#282828;font-family:sans-serif;text-anchor:end" id="svg_91" y="-12.5" x="-166"><tspan x="-112" y="10.5" id="svg_92">/</tspan></text><text style="font-size:6px;fill:#282828;font-family:sans-serif;text-anchor:end" id="svg_93" y="-12.5" x="-166"/><text style="font-size:6px;fill:#282828;font-family:sans-serif;text-anchor:end" id="svg_95" y="-12.5" x="-166"/></g></g><g id="svg_97" class=""><g transform="translate(470, 305) scale(1.5)" id="svg_98"><path d="m-157.5,-12 L-97.5,-12 L-97.5,8 L-157.5,8 L-157.5,0 L-157.5,-1 L-163.5,-1 L-163.5,2 L-165.5,2 L-165.5,-6 L-163.5,-6 L-163.5,-3 L-157.5,-3 L-157.5,-4 z" style="fill:#FF5293;fill-opacity:1;stroke:#FF2C76;stroke-width:1;stroke-linecap:round;stroke-opacity:1;" id="svg_99"/><text style="font-size:10px;fill:#282828;font-family:sans-serif;text-anchor:start" id="svg_100" y="-12.5" x="-166"><tspan x="-153" y="1.5" id="svg_101">1</tspan></text></g></g><g id="svg_102" class=""><g transform="translate(470, 337) scale(1.5)" id="svg_103"><path d="m-157.5,-12 L-97.5,-12 L-97.5,8 L-157.5,8 L-157.5,0 L-157.5,-1 L-163.5,-1 L-163.5,2 L-165.5,2 L-165.5,-6 L-163.5,-6 L-163.5,-3 L-157.5,-3 L-157.5,-4 z" style="fill:#FF5293;fill-opacity:1;stroke:#FF2C76;stroke-width:1;stroke-linecap:round;stroke-opacity:1;" id="svg_104"/><text style="font-size:10px;fill:#282828;font-family:sans-serif;text-anchor:start" id="svg_105" y="-12.5" x="-166"><tspan x="-153" y="1.5" id="svg_106">4</tspan></text></g></g><g id="svg_107" class=""><g transform="translate(266, 337) scale(1.5)" id="svg_108"><path d="m-165.5,-4 L-165.5,-8 A4,4 90 0 1 -161.5,-12 L-157.5,-12 L-157.5,-10 L-147.5,-10 L-147.5,-12 L-127.5,-12 L-123.5,-12 A4,4 90 0 1 -119.5,-8 L-119.5,-4 L-119.5,0 L-119.5,4 A4,4 90 0 1 -123.5,8 L-127.5,8 L-147.5,8 L-148.5,8 L-148.5,10 L-156.5,10 L-156.5,8 L-157.5,8 L-161.5,8 A4,4 90 0 1 -165.5,4 L-165.5,0 z" style="fill:#B0B0B0;fill-opacity:1;stroke:#A0A0A0;stroke-width:1;stroke-linecap:round;stroke-opacity:1;" id="svg_109"/><text style="font-size:10px;fill:#282828;font-family:sans-serif;text-anchor:end" id="svg_110" y="-12.5" x="-166"><tspan x="-130" y="1.5" id="svg_111">↓</tspan></text></g></g><g id="svg_112" class=""><g transform="translate(266, 369) scale(1.5)" id="svg_113"><path d="m-165.5,-4 L-165.5,-8 A4,4 90 0 1 -161.5,-12 L-157.5,-12 L-157.5,-10 L-147.5,-10 L-147.5,-12 L-117.5,-12 L-113.5,-12 A4,4 90 0 1 -109.5,-8 L-109.5,-4 L-113.5,-4 L-113.5,-7 L-117.5,-7 L-117.5,3 L-113.5,3 L-113.5,0 L-109.5,0 L-109.5,17 L-113.5,17 L-113.5,14 L-117.5,14 L-117.5,24 L-113.5,24 L-113.5,21 L-109.5,21 L-109.5,25 A4,4 90 0 1 -113.5,29 L-117.5,29 L-147.5,29 L-148.5,29 L-148.5,31 L-156.5,31 L-156.5,29 L-157.5,29 L-161.5,29 A4,4 90 0 1 -165.5,25 L-165.5,21 L-165.5,0 L-165.5,-4 z" style="fill:#77C428;fill-opacity:1;stroke:#57AD02;stroke-width:1;stroke-linecap:round;stroke-opacity:1;" id="svg_114"/><text style="font-size:10px;fill:#282828;font-family:sans-serif;text-anchor:end" id="svg_115" y="-12.5" x="-166"><tspan x="-120" y="11.5" id="svg_116">pitch</tspan></text><text style="font-size:6.666666666666667px;fill:#282828;font-family:sans-serif;text-anchor:end" id="svg_117" y="-12.5" x="-166"><tspan x="-120" y="-0.5" id="svg_118">name</tspan></text><text style="font-size:6.666666666666667px;fill:#282828;font-family:sans-serif;text-anchor:end" id="svg_119" y="-12.5" x="-166"><tspan x="-120" y="20.5" id="svg_120">octave</tspan></text></g></g><g id="svg_121" class=""><g transform="translate(340, 369) scale(1.5)" id="svg_122"><path d="m-157.5,-12 L-97.5,-12 L-97.5,8 L-157.5,8 L-157.5,0 L-157.5,-1 L-163.5,-1 L-163.5,2 L-165.5,2 L-165.5,-6 L-163.5,-6 L-163.5,-3 L-157.5,-3 L-157.5,-4 z" style="fill:#77C428;fill-opacity:1;stroke:#57AD02;stroke-width:1;stroke-linecap:round;stroke-opacity:1;" id="svg_123"/><text style="font-size:10px;fill:#282828;font-family:sans-serif;text-anchor:start" id="svg_124" y="-12.5" x="-166"><tspan x="-153" y="1.5" id="svg_125">sol</tspan></text></g></g><g id="svg_126" class=""><g transform="translate(340, 401) scale(1.5)" id="svg_127"><path d="m-157.5,-12 L-97.5,-12 L-97.5,8 L-157.5,8 L-157.5,0 L-157.5,-1 L-163.5,-1 L-163.5,2 L-165.5,2 L-165.5,-6 L-163.5,-6 L-163.5,-3 L-157.5,-3 L-157.5,-4 z" style="fill:#FF5293;fill-opacity:1;stroke:#FF2C76;stroke-width:1;stroke-linecap:round;stroke-opacity:1;" id="svg_128"/><text style="font-size:10px;fill:#282828;font-family:sans-serif;text-anchor:start" id="svg_129" y="-12.5" x="-166"><tspan x="-153" y="1.5" id="svg_130">4</tspan></text></g></g><g id="svg_131" class=""><g transform="translate(249, 25) scale(1.5)" id="svg_132"><path d="m-165.5,-4 L-165.5,-8 A4,4 90 0 1 -161.5,-12 L-157.5,-12 L-157.5,-10 L-147.5,-10 L-147.5,-12 L-62.5,-12 L-58.5,-12 A4,4 90 0 1 -54.5,-8 L-54.5,-4 L-58.5,-4 L-58.5,-7 L-62.5,-7 L-62.5,3 L-58.5,3 L-58.5,0 L-54.5,0 L-54.5,4 A4,4 90 0 1 -58.5,8 L-62.5,8 L-147.5,8 L-148.5,8 L-148.5,10 L-156.5,10 L-156.5,8 L-157.5,8 L-161.5,8 A4,4 90 0 1 -165.5,4 L-165.5,0 L-165.5,-4 z" style="fill:#25C3C0;fill-opacity:1;stroke:#1DBCBD;stroke-width:1;stroke-linecap:round;stroke-opacity:1;" id="svg_133"/><text style="font-size:10px;fill:#282828;font-family:sans-serif;text-anchor:end" id="svg_134" y="-12.5" x="-166"><tspan x="-65" y="1.5" id="svg_135">set master volume</tspan></text><text style="font-size:6.666666666666667px;fill:#282828;font-family:sans-serif;text-anchor:end" id="svg_136" y="-12.5" x="-166"/></g></g><g id="svg_138" class=""><g transform="translate(405, 25) scale(1.5)" id="svg_139"><path d="m-157.5,-12 L-97.5,-12 L-97.5,8 L-157.5,8 L-157.5,0 L-157.5,-1 L-163.5,-1 L-163.5,2 L-165.5,2 L-165.5,-6 L-163.5,-6 L-163.5,-3 L-157.5,-3 L-157.5,-4 z" style="fill:#FF5293;fill-opacity:1;stroke:#FF2C76;stroke-width:1;stroke-linecap:round;stroke-opacity:1;" id="svg_140"/><text style="font-size:10px;fill:#282828;font-family:sans-serif;text-anchor:start" id="svg_141" y="-12.5" x="-166"><tspan x="-153" y="1.5" id="svg_142">50</tspan></text></g></g><g id="svg_143" class=""><g transform="translate(252, 242) scale(1.5)" id="svg_144"><path d="m-165.5,-4 L-165.5,-8 A4,4 90 0 1 -161.5,-12 L-157.5,-12 L-157.5,-10 L-147.5,-10 L-147.5,-12 L-69.5,-12 L-65.5,-12 A4,4 90 0 1 -61.5,-8 L-61.5,-4 L-65.5,-4 L-65.5,-7 L-69.5,-7 L-69.5,3 L-65.5,3 L-65.5,0 L-61.5,0 L-61.5,17 L-65.5,17 L-65.5,14 L-69.5,14 L-69.5,24 L-65.5,24 L-65.5,21 L-61.5,21 L-61.5,25 A4,4 90 0 1 -65.5,29 L-69.5,29 L-147.5,29 L-148.5,29 L-148.5,31 L-156.5,31 L-156.5,29 L-157.5,29 L-161.5,29 A4,4 90 0 1 -165.5,25 L-165.5,21 L-165.5,0 L-165.5,-4 z" style="fill:#25C3C0;fill-opacity:1;stroke:#1DBCBD;stroke-width:1;stroke-linecap:round;stroke-opacity:1;" id="svg_145"/><text style="font-size:10px;fill:#282828;font-family:sans-serif;text-anchor:end" id="svg_146" y="-12.5" x="-166"><tspan x="-72" y="11.5" id="svg_147">set synth volume</tspan></text><text style="font-size:6.666666666666667px;fill:#282828;font-family:sans-serif;text-anchor:end" id="svg_148" y="-12.5" x="-166"><tspan x="-72" y="-0.5" id="svg_149">synth</tspan></text><text style="font-size:6.666666666666667px;fill:#282828;font-family:sans-serif;text-anchor:end" id="svg_150" y="-12.5" x="-166"><tspan x="-72" y="20.5" id="svg_151">volume</tspan></text></g></g><g id="svg_152" class=""><g transform="translate(398, 242) scale(1.5)" id="svg_153"><path d="m-157.5,-12 L-47.5,-12 L-47.5,8 L-157.5,8 L-157.5,0 L-157.5,-1 L-163.5,-1 L-163.5,2 L-165.5,2 L-165.5,-6 L-163.5,-6 L-163.5,-3 L-157.5,-3 L-157.5,-4 z" style="fill:#25C3C0;fill-opacity:1;stroke:#1DBCBD;stroke-width:1;stroke-linecap:round;stroke-opacity:1;" id="svg_154"/><text style="font-size:10px;fill:#282828;font-family:sans-serif;text-anchor:start" id="svg_155" y="-12.5" x="-166"><tspan x="-153" y="1.5" id="svg_156">default</tspan></text></g></g><g id="svg_157" class=""><g transform="translate(398, 274) scale(1.5)" id="svg_158"><path d="m-157.5,-12 L-97.5,-12 L-97.5,8 L-157.5,8 L-157.5,0 L-157.5,-1 L-163.5,-1 L-163.5,2 L-165.5,2 L-165.5,-6 L-163.5,-6 L-163.5,-3 L-157.5,-3 L-157.5,-4 z" style="fill:#FF5293;fill-opacity:1;stroke:#FF2C76;stroke-width:1;stroke-linecap:round;stroke-opacity:1;" id="svg_159"/><text style="font-size:10px;fill:#282828;font-family:sans-serif;text-anchor:start" id="svg_160" y="-12.5" x="-166"><tspan x="-153" y="1.5" id="svg_161">50</tspan></text></g></g><g id="svg_162" class=""><g id="svg_163"><g transform="translate(663, 50) scale(1.5)" id="svg_164"><path d="m-165.5,-4 L-165.5,-8 A4,4 90 0 1 -161.5,-12 L-157.5,-12 L-157.5,-10 L-147.5,-10 L-147.5,-12 L-138.5,-12 L-78.5,-12 L-74.5,-12 A4,4 90 0 1 -70.5,-8 L-70.5,-4 L-74.5,-4 L-74.5,-7 L-78.5,-7 L-78.5,3 L-74.5,3 L-74.5,0 L-70.5,0 L-70.5,4 A4,4 90 0 1 -74.5,8 L-78.5,8 L-138.5,8 L-139.5,8 L-139.5,10 L-147.5,10 L-147.5,8 L-148.5,8 L-152.5,8 A5,5 90 0 0 -157.5,13 L-157.5,17 L-157.5,21 L-157.5,63 L-157.5,67 A5,5 90 0 0 -152.5,72 L-148.5,72 L-148.5,74 L-138.5,74 L-138.5,72 L-130.5,72 L-130.5,78 L-130.5,84 L-130.5,88 A4,4 90 0 1 -134.5,92 L-138.5,92 L-147.5,92 L-148.5,92 L-148.5,94 L-156.5,94 L-156.5,92 L-157.5,92 L-161.5,92 A4,4 90 0 1 -165.5,88 L-165.5,84 z" style="fill:#FF8B2D;fill-opacity:1;stroke:#E86B0E;stroke-width:1;stroke-linecap:round;stroke-opacity:1;" id="svg_165"/><text style="font-size:10px;fill:#282828;font-family:sans-serif;text-anchor:start" id="svg_166" y="-12.5" x="-166"><tspan x="-146" y="2.5" id="svg_167">note</tspan></text><text style="font-size:6.666666666666667px;fill:#282828;font-family:sans-serif;text-anchor:end" id="svg_168" y="-12.5" x="-166"><tspan x="-81" y="-0.5" id="svg_169">value</tspan></text></g></g><g transform="translate(663, 54) scale(0.5)" id="svg_170"><g style="isolation:isolate" id="svg_171"><g id="レイヤー_2" data-name="レイヤー 2"><g id="Icon"><rect width="42" height="42" rx="5" ry="5" style="fill:#292929;opacity:0.4;mix-blend-mode:multiply" id="svg_172" y="-37.5" x="-498"/><path d="M-467.4400005340576,-7.700000762939453 l-4.170000076293945,-4.159999847412109 h2.259999990463257 a1,1 0 1 0 0,-2.069999933242798 H-474.0599994659424 a1.0800000429153442,1.0800000429153442 0 0 0 -1.1100000143051147,1 v0 s0,0 0,0.05999999865889549 v4.639999866485596 h0 a1,1 0 1 0 2.0799999237060547,0 V-10.420000076293945 l4.190000057220459,4.190000057220459 a1,1 0 0 0 1.4600000381469727,0 A1,1 0 0 0 -467.4400005340576,-7.700000762939453 z" style="fill:#fff" id="svg_173"/><path d="M-478.82999992370605,-12.899999618530273 a1.0800000429153442,1.0800000429153442 0 0 0 -1.1100000143051147,-1 H-484.6499996185303 a1,1 0 1 0 0,2.069999933242798 H-482.3999996185303 L-486.5600004196167,-7.700000762939453 a1,1 0 0 0 1.4700000286102295,1.4700000286102295 l4.179999828338623,-4.190000057220459 v2.259999990463257 a1,1 0 1 0 2.0799999237060547,0 V-12.799999237060547 s0,0 0,-0.05999999865889549 A0.07999999821186066,0.07999999821186066 0 0 1 -478.82999992370605,-12.899999618530273 z" style="fill:#fff" id="svg_174"/><path d="M-474.0599994659424,-17 h4.699999809265137 a1,1 0 1 0 0,-2.0799999237060547 H-471.61000061035156 l4.170000076293945,-4.159999847412109 a1,1 0 0 0 0,-1.4700000286102295 a1,1 0 0 0 -1.4600000381469727,0 L-473.0900001525879,-20.5 V-22.77999973297119 a1,1 0 1 0 -2.0799999237060547,0 v4.639999866485596 a0.4300000071525574,0.4300000071525574 0 0 0 0,0.05000000074505806 v0.05000000074505806 A1.090000033378601,1.090000033378601 0 0 0 -474.0599994659424,-17 z" style="fill:#fff" id="svg_175"/><path d="M-479.8700008392334,-23.880000114440918 a1.0800000429153442,1.0800000429153442 0 0 0 -1,1.090000033378601 V-20.5 l-4.179999828338623,-4.190000057220459 a1,1 0 0 0 -1.4700000286102295,0 a1,1 0 0 0 0,1.4600000381469727 l4.159999847412109,4.170000076293945 H-484.6499996185303 a1,1 0 1 0 0,2.0799999237060547 h4.710000038146973 a1.090000033378601,1.090000033378601 0 0 0 1.1100000143051147,-1 a0.07999999821186066,0.07999999821186066 0 0 1 0,0 s0,0 0,-0.05999999865889549 V-22.789999961853027 A1.0700000524520874,1.0700000524520874 0 0 0 -479.8700008392334,-23.880000114440918 z" style="fill:#fff" id="svg_176"/></g></g></g></g></g><g id="svg_177" class=""><g transform="translate(795, 50) scale(1.5)" id="svg_178"><path d="m-157.5,-4 L-157.5,-8 A4,4 90 0 1 -153.5,-12 L-149.5,-12 L-139.5,-12 L-109.5,-12 L-105.5,-12 A4,4 90 0 1 -101.5,-8 L-101.5,-4 L-105.5,-4 L-105.5,-7 L-109.5,-7 L-109.5,3 L-105.5,3 L-105.5,0 L-101.5,0 L-101.5,17 L-105.5,17 L-105.5,14 L-109.5,14 L-109.5,24 L-105.5,24 L-105.5,21 L-101.5,21 L-101.5,25 A4,4 90 0 1 -105.5,29 L-109.5,29 L-139.5,29 L-149.5,29 L-153.5,29 A4,4 90 0 1 -157.5,25 L-157.5,21 L-157.5,0 L-157.5,-1 L-163.5,-1 L-163.5,2 L-165.5,2 L-165.5,-6 L-163.5,-6 L-163.5,-3 L-157.5,-3 L-157.5,-4 z" style="fill:#FF5293;fill-opacity:1;stroke:#FF2C76;stroke-width:1;stroke-linecap:round;stroke-opacity:1;" id="svg_179"/><text style="font-size:9px;fill:#282828;font-family:sans-serif;text-anchor:end" id="svg_180" y="-12.5" x="-166"><tspan x="-112" y="10.5" id="svg_181">/</tspan></text><text style="font-size:6px;fill:#282828;font-family:sans-serif;text-anchor:end" id="svg_182" y="-12.5" x="-166"/><text style="font-size:6px;fill:#282828;font-family:sans-serif;text-anchor:end" id="svg_184" y="-12.5" x="-166"/></g></g><g id="svg_186" class=""><g transform="translate(881, 50) scale(1.5)" id="svg_187"><path d="m-157.5,-12 L-97.5,-12 L-97.5,8 L-157.5,8 L-157.5,0 L-157.5,-1 L-163.5,-1 L-163.5,2 L-165.5,2 L-165.5,-6 L-163.5,-6 L-163.5,-3 L-157.5,-3 L-157.5,-4 z" style="fill:#FF5293;fill-opacity:1;stroke:#FF2C76;stroke-width:1;stroke-linecap:round;stroke-opacity:1;" id="svg_188"/><text style="font-size:10px;fill:#282828;font-family:sans-serif;text-anchor:start" id="svg_189" y="-12.5" x="-166"><tspan x="-153" y="1.5" id="svg_190">1</tspan></text></g></g><g id="svg_191" class=""><g transform="translate(881, 82) scale(1.5)" id="svg_192"><path d="m-157.5,-12 L-97.5,-12 L-97.5,8 L-157.5,8 L-157.5,0 L-157.5,-1 L-163.5,-1 L-163.5,2 L-165.5,2 L-165.5,-6 L-163.5,-6 L-163.5,-3 L-157.5,-3 L-157.5,-4 z" style="fill:#FF5293;fill-opacity:1;stroke:#FF2C76;stroke-width:1;stroke-linecap:round;stroke-opacity:1;" id="svg_193"/><text style="font-size:10px;fill:#282828;font-family:sans-serif;text-anchor:start" id="svg_194" y="-12.5" x="-166"><tspan x="-153" y="1.5" id="svg_195">4</tspan></text></g></g><g id="svg_196" class=""><g transform="translate(677, 82) scale(1.5)" id="svg_197"><path d="m-165.5,-4 L-165.5,-8 A4,4 90 0 1 -161.5,-12 L-157.5,-12 L-157.5,-10 L-147.5,-10 L-147.5,-12 L-127.5,-12 L-123.5,-12 A4,4 90 0 1 -119.5,-8 L-119.5,-4 L-119.5,0 L-119.5,4 A4,4 90 0 1 -123.5,8 L-127.5,8 L-147.5,8 L-148.5,8 L-148.5,10 L-156.5,10 L-156.5,8 L-157.5,8 L-161.5,8 A4,4 90 0 1 -165.5,4 L-165.5,0 z" style="fill:#B0B0B0;fill-opacity:1;stroke:#A0A0A0;stroke-width:1;stroke-linecap:round;stroke-opacity:1;" id="svg_198"/><text style="font-size:10px;fill:#282828;font-family:sans-serif;text-anchor:end" id="svg_199" y="-12.5" x="-166"><tspan x="-130" y="1.5" id="svg_200">↓</tspan></text></g></g><g id="svg_201" class=""><g transform="translate(677, 114) scale(1.5)" id="svg_202"><path d="m-165.5,-4 L-165.5,-8 A4,4 90 0 1 -161.5,-12 L-157.5,-12 L-157.5,-10 L-147.5,-10 L-147.5,-12 L-117.5,-12 L-113.5,-12 A4,4 90 0 1 -109.5,-8 L-109.5,-4 L-113.5,-4 L-113.5,-7 L-117.5,-7 L-117.5,3 L-113.5,3 L-113.5,0 L-109.5,0 L-109.5,17 L-113.5,17 L-113.5,14 L-117.5,14 L-117.5,24 L-113.5,24 L-113.5,21 L-109.5,21 L-109.5,25 A4,4 90 0 1 -113.5,29 L-117.5,29 L-147.5,29 L-148.5,29 L-148.5,31 L-156.5,31 L-156.5,29 L-157.5,29 L-161.5,29 A4,4 90 0 1 -165.5,25 L-165.5,21 L-165.5,0 L-165.5,-4 z" style="fill:#77C428;fill-opacity:1;stroke:#57AD02;stroke-width:1;stroke-linecap:round;stroke-opacity:1;" id="svg_203"/><text style="font-size:10px;fill:#282828;font-family:sans-serif;text-anchor:end" id="svg_204" y="-12.5" x="-166"><tspan x="-120" y="11.5" id="svg_205">pitch</tspan></text><text style="font-size:6.666666666666667px;fill:#282828;font-family:sans-serif;text-anchor:end" id="svg_206" y="-12.5" x="-166"><tspan x="-120" y="-0.5" id="svg_207">name</tspan></text><text style="font-size:6.666666666666667px;fill:#282828;font-family:sans-serif;text-anchor:end" id="svg_208" y="-12.5" x="-166"><tspan x="-120" y="20.5" id="svg_209">octave</tspan></text></g></g><g id="svg_210" class=""><g transform="translate(751, 114) scale(1.5)" id="svg_211"><path d="m-157.5,-12 L-97.5,-12 L-97.5,8 L-157.5,8 L-157.5,0 L-157.5,-1 L-163.5,-1 L-163.5,2 L-165.5,2 L-165.5,-6 L-163.5,-6 L-163.5,-3 L-157.5,-3 L-157.5,-4 z" style="fill:#77C428;fill-opacity:1;stroke:#57AD02;stroke-width:1;stroke-linecap:round;stroke-opacity:1;" id="svg_212"/><text style="font-size:10px;fill:#282828;font-family:sans-serif;text-anchor:start" id="svg_213" y="-12.5" x="-166"><tspan x="-153" y="1.5" id="svg_214">sol</tspan></text></g></g><g id="svg_215" class=""><g transform="translate(751, 146) scale(1.5)" id="svg_216"><path d="m-157.5,-12 L-97.5,-12 L-97.5,8 L-157.5,8 L-157.5,0 L-157.5,-1 L-163.5,-1 L-163.5,2 L-165.5,2 L-165.5,-6 L-163.5,-6 L-163.5,-3 L-157.5,-3 L-157.5,-4 z" style="fill:#FF5293;fill-opacity:1;stroke:#FF2C76;stroke-width:1;stroke-linecap:round;stroke-opacity:1;" id="svg_217"/><text style="font-size:10px;fill:#282828;font-family:sans-serif;text-anchor:start" id="svg_218" y="-12.5" x="-166"><tspan x="-153" y="1.5" id="svg_219">4</tspan></text></g></g><g id="svg_220" class=""><g id="svg_221"><g transform="translate(663, 208) scale(1.5)" id="svg_222"><path d="m-165.5,-4 L-165.5,-8 A4,4 90 0 1 -161.5,-12 L-157.5,-12 L-157.5,-10 L-147.5,-10 L-147.5,-12 L-138.5,-12 L-78.5,-12 L-74.5,-12 A4,4 90 0 1 -70.5,-8 L-70.5,-4 L-74.5,-4 L-74.5,-7 L-78.5,-7 L-78.5,3 L-74.5,3 L-74.5,0 L-70.5,0 L-70.5,4 A4,4 90 0 1 -74.5,8 L-78.5,8 L-138.5,8 L-139.5,8 L-139.5,10 L-147.5,10 L-147.5,8 L-148.5,8 L-152.5,8 A5,5 90 0 0 -157.5,13 L-157.5,17 L-157.5,21 L-157.5,63 L-157.5,67 A5,5 90 0 0 -152.5,72 L-148.5,72 L-148.5,74 L-138.5,74 L-138.5,72 L-130.5,72 L-130.5,78 L-130.5,84 L-130.5,88 A4,4 90 0 1 -134.5,92 L-138.5,92 L-147.5,92 L-148.5,92 L-148.5,94 L-156.5,94 L-156.5,92 L-157.5,92 L-161.5,92 A4,4 90 0 1 -165.5,88 L-165.5,84 z" style="fill:#FF8B2D;fill-opacity:1;stroke:#E86B0E;stroke-width:1;stroke-linecap:round;stroke-opacity:1;" id="svg_223"/><text style="font-size:10px;fill:#282828;font-family:sans-serif;text-anchor:start" id="svg_224" y="-12.5" x="-166"><tspan x="-146" y="2.5" id="svg_225">note</tspan></text><text style="font-size:6.666666666666667px;fill:#282828;font-family:sans-serif;text-anchor:end" id="svg_226" y="-12.5" x="-166"><tspan x="-81" y="-0.5" id="svg_227">value</tspan></text></g></g><g transform="translate(663, 212) scale(0.5)" id="svg_228"><g style="isolation:isolate" id="svg_229"><g id="レイヤー_2" data-name="レイヤー 2"><g id="Icon"><rect width="42" height="42" rx="5" ry="5" style="fill:#292929;opacity:0.4;mix-blend-mode:multiply" id="svg_230" y="-37.5" x="-498"/><path d="M-467.4400005340576,-7.700000762939453 l-4.170000076293945,-4.159999847412109 h2.259999990463257 a1,1 0 1 0 0,-2.069999933242798 H-474.0599994659424 a1.0800000429153442,1.0800000429153442 0 0 0 -1.1100000143051147,1 v0 s0,0 0,0.05999999865889549 v4.639999866485596 h0 a1,1 0 1 0 2.0799999237060547,0 V-10.420000076293945 l4.190000057220459,4.190000057220459 a1,1 0 0 0 1.4600000381469727,0 A1,1 0 0 0 -467.4400005340576,-7.700000762939453 z" style="fill:#fff" id="svg_231"/><path d="M-478.82999992370605,-12.899999618530273 a1.0800000429153442,1.0800000429153442 0 0 0 -1.1100000143051147,-1 H-484.6499996185303 a1,1 0 1 0 0,2.069999933242798 H-482.3999996185303 L-486.5600004196167,-7.700000762939453 a1,1 0 0 0 1.4700000286102295,1.4700000286102295 l4.179999828338623,-4.190000057220459 v2.259999990463257 a1,1 0 1 0 2.0799999237060547,0 V-12.799999237060547 s0,0 0,-0.05999999865889549 A0.07999999821186066,0.07999999821186066 0 0 1 -478.82999992370605,-12.899999618530273 z" style="fill:#fff" id="svg_232"/><path d="M-474.0599994659424,-17 h4.699999809265137 a1,1 0 1 0 0,-2.0799999237060547 H-471.61000061035156 l4.170000076293945,-4.159999847412109 a1,1 0 0 0 0,-1.4700000286102295 a1,1 0 0 0 -1.4600000381469727,0 L-473.0900001525879,-20.5 V-22.77999973297119 a1,1 0 1 0 -2.0799999237060547,0 v4.639999866485596 a0.4300000071525574,0.4300000071525574 0 0 0 0,0.05000000074505806 v0.05000000074505806 A1.090000033378601,1.090000033378601 0 0 0 -474.0599994659424,-17 z" style="fill:#fff" id="svg_233"/><path d="M-479.8700008392334,-23.880000114440918 a1.0800000429153442,1.0800000429153442 0 0 0 -1,1.090000033378601 V-20.5 l-4.179999828338623,-4.190000057220459 a1,1 0 0 0 -1.4700000286102295,0 a1,1 0 0 0 0,1.4600000381469727 l4.159999847412109,4.170000076293945 H-484.6499996185303 a1,1 0 1 0 0,2.0799999237060547 h4.710000038146973 a1.090000033378601,1.090000033378601 0 0 0 1.1100000143051147,-1 a0.07999999821186066,0.07999999821186066 0 0 1 0,0 s0,0 0,-0.05999999865889549 V-22.789999961853027 A1.0700000524520874,1.0700000524520874 0 0 0 -479.8700008392334,-23.880000114440918 z" style="fill:#fff" id="svg_234"/></g></g></g></g></g><g id="svg_235" class=""><g transform="translate(795, 208) scale(1.5)" id="svg_236"><path d="m-157.5,-4 L-157.5,-8 A4,4 90 0 1 -153.5,-12 L-149.5,-12 L-139.5,-12 L-109.5,-12 L-105.5,-12 A4,4 90 0 1 -101.5,-8 L-101.5,-4 L-105.5,-4 L-105.5,-7 L-109.5,-7 L-109.5,3 L-105.5,3 L-105.5,0 L-101.5,0 L-101.5,17 L-105.5,17 L-105.5,14 L-109.5,14 L-109.5,24 L-105.5,24 L-105.5,21 L-101.5,21 L-101.5,25 A4,4 90 0 1 -105.5,29 L-109.5,29 L-139.5,29 L-149.5,29 L-153.5,29 A4,4 90 0 1 -157.5,25 L-157.5,21 L-157.5,0 L-157.5,-1 L-163.5,-1 L-163.5,2 L-165.5,2 L-165.5,-6 L-163.5,-6 L-163.5,-3 L-157.5,-3 L-157.5,-4 z" style="fill:#FF5293;fill-opacity:1;stroke:#FF2C76;stroke-width:1;stroke-linecap:round;stroke-opacity:1;" id="svg_237"/><text style="font-size:9px;fill:#282828;font-family:sans-serif;text-anchor:end" id="svg_238" y="-12.5" x="-166"><tspan x="-112" y="10.5" id="svg_239">/</tspan></text><text style="font-size:6px;fill:#282828;font-family:sans-serif;text-anchor:end" id="svg_240" y="-12.5" x="-166"/><text style="font-size:6px;fill:#282828;font-family:sans-serif;text-anchor:end" id="svg_242" y="-12.5" x="-166"/></g></g><g id="svg_244" class=""><g transform="translate(881, 208) scale(1.5)" id="svg_245"><path d="m-157.5,-12 L-97.5,-12 L-97.5,8 L-157.5,8 L-157.5,0 L-157.5,-1 L-163.5,-1 L-163.5,2 L-165.5,2 L-165.5,-6 L-163.5,-6 L-163.5,-3 L-157.5,-3 L-157.5,-4 z" style="fill:#FF5293;fill-opacity:1;stroke:#FF2C76;stroke-width:1;stroke-linecap:round;stroke-opacity:1;" id="svg_246"/><text style="font-size:10px;fill:#282828;font-family:sans-serif;text-anchor:start" id="svg_247" y="-12.5" x="-166"><tspan x="-153" y="1.5" id="svg_248">1</tspan></text></g></g><g id="svg_249" class=""><g transform="translate(881, 240) scale(1.5)" id="svg_250"><path d="m-157.5,-12 L-97.5,-12 L-97.5,8 L-157.5,8 L-157.5,0 L-157.5,-1 L-163.5,-1 L-163.5,2 L-165.5,2 L-165.5,-6 L-163.5,-6 L-163.5,-3 L-157.5,-3 L-157.5,-4 z" style="fill:#FF5293;fill-opacity:1;stroke:#FF2C76;stroke-width:1;stroke-linecap:round;stroke-opacity:1;" id="svg_251"/><text style="font-size:10px;fill:#282828;font-family:sans-serif;text-anchor:start" id="svg_252" y="-12.5" x="-166"><tspan x="-153" y="1.5" id="svg_253">4</tspan></text></g></g><g id="svg_254" class=""><g transform="translate(677, 240) scale(1.5)" id="svg_255"><path d="m-165.5,-4 L-165.5,-8 A4,4 90 0 1 -161.5,-12 L-157.5,-12 L-157.5,-10 L-147.5,-10 L-147.5,-12 L-127.5,-12 L-123.5,-12 A4,4 90 0 1 -119.5,-8 L-119.5,-4 L-119.5,0 L-119.5,4 A4,4 90 0 1 -123.5,8 L-127.5,8 L-147.5,8 L-148.5,8 L-148.5,10 L-156.5,10 L-156.5,8 L-157.5,8 L-161.5,8 A4,4 90 0 1 -165.5,4 L-165.5,0 z" style="fill:#B0B0B0;fill-opacity:1;stroke:#A0A0A0;stroke-width:1;stroke-linecap:round;stroke-opacity:1;" id="svg_256"/><text style="font-size:10px;fill:#282828;font-family:sans-serif;text-anchor:end" id="svg_257" y="-12.5" x="-166"><tspan x="-130" y="1.5" id="svg_258">↓</tspan></text></g></g><g id="svg_259" class=""><g transform="translate(677, 272) scale(1.5)" id="svg_260"><path d="m-165.5,-4 L-165.5,-8 A4,4 90 0 1 -161.5,-12 L-157.5,-12 L-157.5,-10 L-147.5,-10 L-147.5,-12 L-117.5,-12 L-113.5,-12 A4,4 90 0 1 -109.5,-8 L-109.5,-4 L-113.5,-4 L-113.5,-7 L-117.5,-7 L-117.5,3 L-113.5,3 L-113.5,0 L-109.5,0 L-109.5,17 L-113.5,17 L-113.5,14 L-117.5,14 L-117.5,24 L-113.5,24 L-113.5,21 L-109.5,21 L-109.5,25 A4,4 90 0 1 -113.5,29 L-117.5,29 L-147.5,29 L-148.5,29 L-148.5,31 L-156.5,31 L-156.5,29 L-157.5,29 L-161.5,29 A4,4 90 0 1 -165.5,25 L-165.5,21 L-165.5,0 L-165.5,-4 z" style="fill:#77C428;fill-opacity:1;stroke:#57AD02;stroke-width:1;stroke-linecap:round;stroke-opacity:1;" id="svg_261"/><text style="font-size:10px;fill:#282828;font-family:sans-serif;text-anchor:end" id="svg_262" y="-12.5" x="-166"><tspan x="-120" y="11.5" id="svg_263">pitch</tspan></text><text style="font-size:6.666666666666667px;fill:#282828;font-family:sans-serif;text-anchor:end" id="svg_264" y="-12.5" x="-166"><tspan x="-120" y="-0.5" id="svg_265">name</tspan></text><text style="font-size:6.666666666666667px;fill:#282828;font-family:sans-serif;text-anchor:end" id="svg_266" y="-12.5" x="-166"><tspan x="-120" y="20.5" id="svg_267">octave</tspan></text></g></g><g id="svg_268" class=""><g transform="translate(751, 272) scale(1.5)" id="svg_269"><path d="m-157.5,-12 L-97.5,-12 L-97.5,8 L-157.5,8 L-157.5,0 L-157.5,-1 L-163.5,-1 L-163.5,2 L-165.5,2 L-165.5,-6 L-163.5,-6 L-163.5,-3 L-157.5,-3 L-157.5,-4 z" style="fill:#77C428;fill-opacity:1;stroke:#57AD02;stroke-width:1;stroke-linecap:round;stroke-opacity:1;" id="svg_270"/><text style="font-size:10px;fill:#282828;font-family:sans-serif;text-anchor:start" id="svg_271" y="-12.5" x="-166"><tspan x="-153" y="1.5" id="svg_272">la</tspan></text></g></g><g id="svg_273" class=""><g transform="translate(751, 304) scale(1.5)" id="svg_274"><path d="m-157.5,-12 L-97.5,-12 L-97.5,8 L-157.5,8 L-157.5,0 L-157.5,-1 L-163.5,-1 L-163.5,2 L-165.5,2 L-165.5,-6 L-163.5,-6 L-163.5,-3 L-157.5,-3 L-157.5,-4 z" style="fill:#FF5293;fill-opacity:1;stroke:#FF2C76;stroke-width:1;stroke-linecap:round;stroke-opacity:1;" id="svg_275"/><text style="font-size:10px;fill:#282828;font-family:sans-serif;text-anchor:start" id="svg_276" y="-12.5" x="-166"><tspan x="-153" y="1.5" id="svg_277">4</tspan></text></g></g><g id="svg_278" class=""><g id="svg_279"><g transform="translate(663, 366) scale(1.5)" id="svg_280"><path d="m-165.5,-4 L-165.5,-8 A4,4 90 0 1 -161.5,-12 L-157.5,-12 L-157.5,-10 L-147.5,-10 L-147.5,-12 L-138.5,-12 L-78.5,-12 L-74.5,-12 A4,4 90 0 1 -70.5,-8 L-70.5,-4 L-74.5,-4 L-74.5,-7 L-78.5,-7 L-78.5,3 L-74.5,3 L-74.5,0 L-70.5,0 L-70.5,4 A4,4 90 0 1 -74.5,8 L-78.5,8 L-138.5,8 L-139.5,8 L-139.5,10 L-147.5,10 L-147.5,8 L-148.5,8 L-152.5,8 A5,5 90 0 0 -157.5,13 L-157.5,17 L-157.5,21 L-157.5,63 L-157.5,67 A5,5 90 0 0 -152.5,72 L-148.5,72 L-148.5,74 L-138.5,74 L-138.5,72 L-130.5,72 L-130.5,78 L-130.5,84 L-130.5,88 A4,4 90 0 1 -134.5,92 L-138.5,92 L-147.5,92 L-148.5,92 L-148.5,94 L-156.5,94 L-156.5,92 L-157.5,92 L-161.5,92 A4,4 90 0 1 -165.5,88 L-165.5,84 z" style="fill:#FF8B2D;fill-opacity:1;stroke:#E86B0E;stroke-width:1;stroke-linecap:round;stroke-opacity:1;" id="svg_281"/><text style="font-size:10px;fill:#282828;font-family:sans-serif;text-anchor:start" id="svg_282" y="-12.5" x="-166"><tspan x="-146" y="2.5" id="svg_283">note</tspan></text><text style="font-size:6.666666666666667px;fill:#282828;font-family:sans-serif;text-anchor:end" id="svg_284" y="-12.5" x="-166"><tspan x="-81" y="-0.5" id="svg_285">value</tspan></text></g></g><g transform="translate(663, 370) scale(0.5)" id="svg_286"><g style="isolation:isolate" id="svg_287"><g id="レイヤー_2" data-name="レイヤー 2"><g id="Icon"><rect width="42" height="42" rx="5" ry="5" style="fill:#292929;opacity:0.4;mix-blend-mode:multiply" id="svg_288" y="-37.5" x="-498"/><path d="M-467.4400005340576,-7.700000762939453 l-4.170000076293945,-4.159999847412109 h2.259999990463257 a1,1 0 1 0 0,-2.069999933242798 H-474.0599994659424 a1.0800000429153442,1.0800000429153442 0 0 0 -1.1100000143051147,1 v0 s0,0 0,0.05999999865889549 v4.639999866485596 h0 a1,1 0 1 0 2.0799999237060547,0 V-10.420000076293945 l4.190000057220459,4.190000057220459 a1,1 0 0 0 1.4600000381469727,0 A1,1 0 0 0 -467.4400005340576,-7.700000762939453 z" style="fill:#fff" id="svg_289"/><path d="M-478.82999992370605,-12.899999618530273 a1.0800000429153442,1.0800000429153442 0 0 0 -1.1100000143051147,-1 H-484.6499996185303 a1,1 0 1 0 0,2.069999933242798 H-482.3999996185303 L-486.5600004196167,-7.700000762939453 a1,1 0 0 0 1.4700000286102295,1.4700000286102295 l4.179999828338623,-4.190000057220459 v2.259999990463257 a1,1 0 1 0 2.0799999237060547,0 V-12.799999237060547 s0,0 0,-0.05999999865889549 A0.07999999821186066,0.07999999821186066 0 0 1 -478.82999992370605,-12.899999618530273 z" style="fill:#fff" id="svg_290"/><path d="M-474.0599994659424,-17 h4.699999809265137 a1,1 0 1 0 0,-2.0799999237060547 H-471.61000061035156 l4.170000076293945,-4.159999847412109 a1,1 0 0 0 0,-1.4700000286102295 a1,1 0 0 0 -1.4600000381469727,0 L-473.0900001525879,-20.5 V-22.77999973297119 a1,1 0 1 0 -2.0799999237060547,0 v4.639999866485596 a0.4300000071525574,0.4300000071525574 0 0 0 0,0.05000000074505806 v0.05000000074505806 A1.090000033378601,1.090000033378601 0 0 0 -474.0599994659424,-17 z" style="fill:#fff" id="svg_291"/><path d="M-479.8700008392334,-23.880000114440918 a1.0800000429153442,1.0800000429153442 0 0 0 -1,1.090000033378601 V-20.5 l-4.179999828338623,-4.190000057220459 a1,1 0 0 0 -1.4700000286102295,0 a1,1 0 0 0 0,1.4600000381469727 l4.159999847412109,4.170000076293945 H-484.6499996185303 a1,1 0 1 0 0,2.0799999237060547 h4.710000038146973 a1.090000033378601,1.090000033378601 0 0 0 1.1100000143051147,-1 a0.07999999821186066,0.07999999821186066 0 0 1 0,0 s0,0 0,-0.05999999865889549 V-22.789999961853027 A1.0700000524520874,1.0700000524520874 0 0 0 -479.8700008392334,-23.880000114440918 z" style="fill:#fff" id="svg_292"/></g></g></g></g></g><g id="svg_293" class=""><g transform="translate(795, 366) scale(1.5)" id="svg_294"><path d="m-157.5,-4 L-157.5,-8 A4,4 90 0 1 -153.5,-12 L-149.5,-12 L-139.5,-12 L-109.5,-12 L-105.5,-12 A4,4 90 0 1 -101.5,-8 L-101.5,-4 L-105.5,-4 L-105.5,-7 L-109.5,-7 L-109.5,3 L-105.5,3 L-105.5,0 L-101.5,0 L-101.5,17 L-105.5,17 L-105.5,14 L-109.5,14 L-109.5,24 L-105.5,24 L-105.5,21 L-101.5,21 L-101.5,25 A4,4 90 0 1 -105.5,29 L-109.5,29 L-139.5,29 L-149.5,29 L-153.5,29 A4,4 90 0 1 -157.5,25 L-157.5,21 L-157.5,0 L-157.5,-1 L-163.5,-1 L-163.5,2 L-165.5,2 L-165.5,-6 L-163.5,-6 L-163.5,-3 L-157.5,-3 L-157.5,-4 z" style="fill:#FF5293;fill-opacity:1;stroke:#FF2C76;stroke-width:1;stroke-linecap:round;stroke-opacity:1;" id="svg_295"/><text style="font-size:9px;fill:#282828;font-family:sans-serif;text-anchor:end" id="svg_296" y="-12.5" x="-166"><tspan x="-112" y="10.5" id="svg_297">/</tspan></text><text style="font-size:6px;fill:#282828;font-family:sans-serif;text-anchor:end" id="svg_298" y="-12.5" x="-166"/><text style="font-size:6px;fill:#282828;font-family:sans-serif;text-anchor:end" id="svg_300" y="-12.5" x="-166"/></g></g><g id="svg_302" class=""><g transform="translate(881, 366) scale(1.5)" id="svg_303"><path d="m-157.5,-12 L-97.5,-12 L-97.5,8 L-157.5,8 L-157.5,0 L-157.5,-1 L-163.5,-1 L-163.5,2 L-165.5,2 L-165.5,-6 L-163.5,-6 L-163.5,-3 L-157.5,-3 L-157.5,-4 z" style="fill:#FF5293;fill-opacity:1;stroke:#FF2C76;stroke-width:1;stroke-linecap:round;stroke-opacity:1;" id="svg_304"/><text style="font-size:10px;fill:#282828;font-family:sans-serif;text-anchor:start" id="svg_305" y="-12.5" x="-166"><tspan x="-153" y="1.5" id="svg_306">1</tspan></text></g></g><g id="svg_307" class=""><g transform="translate(881, 398) scale(1.5)" id="svg_308"><path d="m-157.5,-12 L-97.5,-12 L-97.5,8 L-157.5,8 L-157.5,0 L-157.5,-1 L-163.5,-1 L-163.5,2 L-165.5,2 L-165.5,-6 L-163.5,-6 L-163.5,-3 L-157.5,-3 L-157.5,-4 z" style="fill:#FF5293;fill-opacity:1;stroke:#FF2C76;stroke-width:1;stroke-linecap:round;stroke-opacity:1;" id="svg_309"/><text style="font-size:10px;fill:#282828;font-family:sans-serif;text-anchor:start" id="svg_310" y="-12.5" x="-166"><tspan x="-153" y="1.5" id="svg_311">4</tspan></text></g></g><g id="svg_312" class=""><g transform="translate(677, 398) scale(1.5)" id="svg_313"><path d="m-165.5,-4 L-165.5,-8 A4,4 90 0 1 -161.5,-12 L-157.5,-12 L-157.5,-10 L-147.5,-10 L-147.5,-12 L-127.5,-12 L-123.5,-12 A4,4 90 0 1 -119.5,-8 L-119.5,-4 L-119.5,0 L-119.5,4 A4,4 90 0 1 -123.5,8 L-127.5,8 L-147.5,8 L-148.5,8 L-148.5,10 L-156.5,10 L-156.5,8 L-157.5,8 L-161.5,8 A4,4 90 0 1 -165.5,4 L-165.5,0 z" style="fill:#B0B0B0;fill-opacity:1;stroke:#A0A0A0;stroke-width:1;stroke-linecap:round;stroke-opacity:1;" id="svg_314"/><text style="font-size:10px;fill:#282828;font-family:sans-serif;text-anchor:end" id="svg_315" y="-12.5" x="-166"><tspan x="-130" y="1.5" id="svg_316">↓</tspan></text></g></g><g id="svg_317" class=""><g transform="translate(677, 430) scale(1.5)" id="svg_318"><path d="m-165.5,-4 L-165.5,-8 A4,4 90 0 1 -161.5,-12 L-157.5,-12 L-157.5,-10 L-147.5,-10 L-147.5,-12 L-117.5,-12 L-113.5,-12 A4,4 90 0 1 -109.5,-8 L-109.5,-4 L-113.5,-4 L-113.5,-7 L-117.5,-7 L-117.5,3 L-113.5,3 L-113.5,0 L-109.5,0 L-109.5,17 L-113.5,17 L-113.5,14 L-117.5,14 L-117.5,24 L-113.5,24 L-113.5,21 L-109.5,21 L-109.5,25 A4,4 90 0 1 -113.5,29 L-117.5,29 L-147.5,29 L-148.5,29 L-148.5,31 L-156.5,31 L-156.5,29 L-157.5,29 L-161.5,29 A4,4 90 0 1 -165.5,25 L-165.5,21 L-165.5,0 L-165.5,-4 z" style="fill:#77C428;fill-opacity:1;stroke:#57AD02;stroke-width:1;stroke-linecap:round;stroke-opacity:1;" id="svg_319"/><text style="font-size:10px;fill:#282828;font-family:sans-serif;text-anchor:end" id="svg_320" y="-12.5" x="-166"><tspan x="-120" y="11.5" id="svg_321">pitch</tspan></text><text style="font-size:6.666666666666667px;fill:#282828;font-family:sans-serif;text-anchor:end" id="svg_322" y="-12.5" x="-166"><tspan x="-120" y="-0.5" id="svg_323">name</tspan></text><text style="font-size:6.666666666666667px;fill:#282828;font-family:sans-serif;text-anchor:end" id="svg_324" y="-12.5" x="-166"><tspan x="-120" y="20.5" id="svg_325">octave</tspan></text></g></g><g id="svg_326" class=""><g transform="translate(751, 430) scale(1.5)" id="svg_327"><path d="m-157.5,-12 L-97.5,-12 L-97.5,8 L-157.5,8 L-157.5,0 L-157.5,-1 L-163.5,-1 L-163.5,2 L-165.5,2 L-165.5,-6 L-163.5,-6 L-163.5,-3 L-157.5,-3 L-157.5,-4 z" style="fill:#77C428;fill-opacity:1;stroke:#57AD02;stroke-width:1;stroke-linecap:round;stroke-opacity:1;" id="svg_328"/><text style="font-size:10px;fill:#282828;font-family:sans-serif;text-anchor:start" id="svg_329" y="-12.5" x="-166"><tspan x="-153" y="1.5" id="svg_330">ti</tspan></text></g></g><g id="svg_331" class=""><g transform="translate(751, 462) scale(1.5)" id="svg_332"><path d="m-157.5,-12 L-97.5,-12 L-97.5,8 L-157.5,8 L-157.5,0 L-157.5,-1 L-163.5,-1 L-163.5,2 L-165.5,2 L-165.5,-6 L-163.5,-6 L-163.5,-3 L-157.5,-3 L-157.5,-4 z" style="fill:#FF5293;fill-opacity:1;stroke:#FF2C76;stroke-width:1;stroke-linecap:round;stroke-opacity:1;" id="svg_333"/><text style="font-size:10px;fill:#282828;font-family:sans-serif;text-anchor:start" id="svg_334" y="-12.5" x="-166"><tspan x="-153" y="1.5" id="svg_335">4</tspan></text></g></g><g id="svg_336" class=""><g transform="translate(649, 18) scale(1.5)" id="svg_337"><path d="m-165.5,-4 L-165.5,-8 A4,4 90 0 1 -161.5,-12 L-157.5,-12 L-157.5,-10 L-147.5,-10 L-147.5,-12 L-138.5,-12 L-101.5,-12 L-97.5,-12 A4,4 90 0 1 -93.5,-8 L-93.5,-4 L-97.5,-4 L-97.5,-7 L-101.5,-7 L-101.5,3 L-97.5,3 L-97.5,0 L-93.5,0 L-93.5,4 A4,4 90 0 1 -97.5,8 L-101.5,8 L-138.5,8 L-139.5,8 L-139.5,10 L-147.5,10 L-147.5,8 L-148.5,8 L-152.5,8 A5,5 90 0 0 -157.5,13 L-157.5,17 L-157.5,21 L-157.5,315 L-157.5,319 A5,5 90 0 0 -152.5,324 L-148.5,324 L-148.5,326 L-138.5,326 L-138.5,324 L-130.5,324 L-130.5,330 L-130.5,336 L-130.5,340 A4,4 90 0 1 -134.5,344 L-138.5,344 L-147.5,344 L-148.5,344 L-148.5,346 L-156.5,346 L-156.5,344 L-157.5,344 L-161.5,344 A4,4 90 0 1 -165.5,340 L-165.5,336 z" style="fill:#25C3C0;fill-opacity:1;stroke:#1DBCBD;stroke-width:1;stroke-linecap:round;stroke-opacity:1;" id="svg_338"/><text style="font-size:10px;fill:#282828;font-family:sans-serif;text-anchor:start" id="svg_339" y="-12.5" x="-166"><tspan x="-161" y="2.5" id="svg_340">crescendo</tspan></text><text style="font-size:6.666666666666667px;fill:#282828;font-family:sans-serif;text-anchor:end" id="svg_341" y="-12.5" x="-166"/></g></g><g id="svg_343" class=""><g transform="translate(747, 18) scale(1.5)" id="svg_344"><path d="m-157.5,-12 L-97.5,-12 L-97.5,8 L-157.5,8 L-157.5,0 L-157.5,-1 L-163.5,-1 L-163.5,2 L-165.5,2 L-165.5,-6 L-163.5,-6 L-163.5,-3 L-157.5,-3 L-157.5,-4 z" style="fill:#FF5293;fill-opacity:1;stroke:#FF2C76;stroke-width:1;stroke-linecap:round;stroke-opacity:1;" id="svg_345"/><text style="font-size:10px;fill:#282828;font-family:sans-serif;text-anchor:start" id="svg_346" y="-12.5" x="-166"><tspan x="-153" y="1.5" id="svg_347">5</tspan></text></g></g><g id="svg_348" class=""><g id="svg_349"><g transform="translate(266, 524) scale(1.5)" id="svg_350"><path d="m-165.5,-4 L-165.5,-8 A4,4 90 0 1 -161.5,-12 L-157.5,-12 L-157.5,-10 L-147.5,-10 L-147.5,-12 L-138.5,-12 L-78.5,-12 L-74.5,-12 A4,4 90 0 1 -70.5,-8 L-70.5,-4 L-74.5,-4 L-74.5,-7 L-78.5,-7 L-78.5,3 L-74.5,3 L-74.5,0 L-70.5,0 L-70.5,4 A4,4 90 0 1 -74.5,8 L-78.5,8 L-138.5,8 L-139.5,8 L-139.5,10 L-147.5,10 L-147.5,8 L-148.5,8 L-152.5,8 A5,5 90 0 0 -157.5,13 L-157.5,17 L-157.5,21 L-157.5,63 L-157.5,67 A5,5 90 0 0 -152.5,72 L-148.5,72 L-148.5,74 L-138.5,74 L-138.5,72 L-130.5,72 L-130.5,78 L-130.5,84 L-130.5,88 A4,4 90 0 1 -134.5,92 L-138.5,92 L-147.5,92 L-148.5,92 L-148.5,94 L-156.5,94 L-156.5,92 L-157.5,92 L-161.5,92 A4,4 90 0 1 -165.5,88 L-165.5,84 z" style="fill:#FF8B2D;fill-opacity:1;stroke:#E86B0E;stroke-width:1;stroke-linecap:round;stroke-opacity:1;" id="svg_351"/><text style="font-size:10px;fill:#282828;font-family:sans-serif;text-anchor:start" id="svg_352" y="-12.5" x="-166"><tspan x="-146" y="2.5" id="svg_353">note</tspan></text><text style="font-size:6.666666666666667px;fill:#282828;font-family:sans-serif;text-anchor:end" id="svg_354" y="-12.5" x="-166"><tspan x="-81" y="-0.5" id="svg_355">value</tspan></text></g></g><g transform="translate(266, 528) scale(0.5)" id="svg_356"><g style="isolation:isolate" id="svg_357"><g id="レイヤー_2" data-name="レイヤー 2"><g id="Icon"><rect width="42" height="42" rx="5" ry="5" style="fill:#292929;opacity:0.4;mix-blend-mode:multiply" id="svg_358" y="-37.5" x="-498"/><path d="M-467.4400005340576,-7.700000762939453 l-4.170000076293945,-4.159999847412109 h2.259999990463257 a1,1 0 1 0 0,-2.069999933242798 H-474.0599994659424 a1.0800000429153442,1.0800000429153442 0 0 0 -1.1100000143051147,1 v0 s0,0 0,0.05999999865889549 v4.639999866485596 h0 a1,1 0 1 0 2.0799999237060547,0 V-10.420000076293945 l4.190000057220459,4.190000057220459 a1,1 0 0 0 1.4600000381469727,0 A1,1 0 0 0 -467.4400005340576,-7.700000762939453 z" style="fill:#fff" id="svg_359"/><path d="M-478.82999992370605,-12.899999618530273 a1.0800000429153442,1.0800000429153442 0 0 0 -1.1100000143051147,-1 H-484.6499996185303 a1,1 0 1 0 0,2.069999933242798 H-482.3999996185303 L-486.5600004196167,-7.700000762939453 a1,1 0 0 0 1.4700000286102295,1.4700000286102295 l4.179999828338623,-4.190000057220459 v2.259999990463257 a1,1 0 1 0 2.0799999237060547,0 V-12.799999237060547 s0,0 0,-0.05999999865889549 A0.07999999821186066,0.07999999821186066 0 0 1 -478.82999992370605,-12.899999618530273 z" style="fill:#fff" id="svg_360"/><path d="M-474.0599994659424,-17 h4.699999809265137 a1,1 0 1 0 0,-2.0799999237060547 H-471.61000061035156 l4.170000076293945,-4.159999847412109 a1,1 0 0 0 0,-1.4700000286102295 a1,1 0 0 0 -1.4600000381469727,0 L-473.0900001525879,-20.5 V-22.77999973297119 a1,1 0 1 0 -2.0799999237060547,0 v4.639999866485596 a0.4300000071525574,0.4300000071525574 0 0 0 0,0.05000000074505806 v0.05000000074505806 A1.090000033378601,1.090000033378601 0 0 0 -474.0599994659424,-17 z" style="fill:#fff" id="svg_361"/><path d="M-479.8700008392334,-23.880000114440918 a1.0800000429153442,1.0800000429153442 0 0 0 -1,1.090000033378601 V-20.5 l-4.179999828338623,-4.190000057220459 a1,1 0 0 0 -1.4700000286102295,0 a1,1 0 0 0 0,1.4600000381469727 l4.159999847412109,4.170000076293945 H-484.6499996185303 a1,1 0 1 0 0,2.0799999237060547 h4.710000038146973 a1.090000033378601,1.090000033378601 0 0 0 1.1100000143051147,-1 a0.07999999821186066,0.07999999821186066 0 0 1 0,0 s0,0 0,-0.05999999865889549 V-22.789999961853027 A1.0700000524520874,1.0700000524520874 0 0 0 -479.8700008392334,-23.880000114440918 z" style="fill:#fff" id="svg_362"/></g></g></g></g></g><g id="svg_363" class=""><g transform="translate(398, 524) scale(1.5)" id="svg_364"><path d="m-157.5,-4 L-157.5,-8 A4,4 90 0 1 -153.5,-12 L-149.5,-12 L-139.5,-12 L-109.5,-12 L-105.5,-12 A4,4 90 0 1 -101.5,-8 L-101.5,-4 L-105.5,-4 L-105.5,-7 L-109.5,-7 L-109.5,3 L-105.5,3 L-105.5,0 L-101.5,0 L-101.5,17 L-105.5,17 L-105.5,14 L-109.5,14 L-109.5,24 L-105.5,24 L-105.5,21 L-101.5,21 L-101.5,25 A4,4 90 0 1 -105.5,29 L-109.5,29 L-139.5,29 L-149.5,29 L-153.5,29 A4,4 90 0 1 -157.5,25 L-157.5,21 L-157.5,0 L-157.5,-1 L-163.5,-1 L-163.5,2 L-165.5,2 L-165.5,-6 L-163.5,-6 L-163.5,-3 L-157.5,-3 L-157.5,-4 z" style="fill:#FF5293;fill-opacity:1;stroke:#FF2C76;stroke-width:1;stroke-linecap:round;stroke-opacity:1;" id="svg_365"/><text style="font-size:9px;fill:#282828;font-family:sans-serif;text-anchor:end" id="svg_366" y="-12.5" x="-166"><tspan x="-112" y="10.5" id="svg_367">/</tspan></text><text style="font-size:6px;fill:#282828;font-family:sans-serif;text-anchor:end" id="svg_368" y="-12.5" x="-166"/><text style="font-size:6px;fill:#282828;font-family:sans-serif;text-anchor:end" id="svg_370" y="-12.5" x="-166"/></g></g><g id="svg_372" class=""><g transform="translate(484, 524) scale(1.5)" id="svg_373"><path d="m-157.5,-12 L-97.5,-12 L-97.5,8 L-157.5,8 L-157.5,0 L-157.5,-1 L-163.5,-1 L-163.5,2 L-165.5,2 L-165.5,-6 L-163.5,-6 L-163.5,-3 L-157.5,-3 L-157.5,-4 z" style="fill:#FF5293;fill-opacity:1;stroke:#FF2C76;stroke-width:1;stroke-linecap:round;stroke-opacity:1;" id="svg_374"/><text style="font-size:10px;fill:#282828;font-family:sans-serif;text-anchor:start" id="svg_375" y="-12.5" x="-166"><tspan x="-153" y="1.5" id="svg_376">1</tspan></text></g></g><g id="svg_377" class=""><g transform="translate(484, 556) scale(1.5)" id="svg_378"><path d="m-157.5,-12 L-97.5,-12 L-97.5,8 L-157.5,8 L-157.5,0 L-157.5,-1 L-163.5,-1 L-163.5,2 L-165.5,2 L-165.5,-6 L-163.5,-6 L-163.5,-3 L-157.5,-3 L-157.5,-4 z" style="fill:#FF5293;fill-opacity:1;stroke:#FF2C76;stroke-width:1;stroke-linecap:round;stroke-opacity:1;" id="svg_379"/><text style="font-size:10px;fill:#282828;font-family:sans-serif;text-anchor:start" id="svg_380" y="-12.5" x="-166"><tspan x="-153" y="1.5" id="svg_381">4</tspan></text></g></g><g id="svg_382" class=""><g transform="translate(280, 556) scale(1.5)" id="svg_383"><path d="m-165.5,-4 L-165.5,-8 A4,4 90 0 1 -161.5,-12 L-157.5,-12 L-157.5,-10 L-147.5,-10 L-147.5,-12 L-127.5,-12 L-123.5,-12 A4,4 90 0 1 -119.5,-8 L-119.5,-4 L-119.5,0 L-119.5,4 A4,4 90 0 1 -123.5,8 L-127.5,8 L-147.5,8 L-148.5,8 L-148.5,10 L-156.5,10 L-156.5,8 L-157.5,8 L-161.5,8 A4,4 90 0 1 -165.5,4 L-165.5,0 z" style="fill:#B0B0B0;fill-opacity:1;stroke:#A0A0A0;stroke-width:1;stroke-linecap:round;stroke-opacity:1;" id="svg_384"/><text style="font-size:10px;fill:#282828;font-family:sans-serif;text-anchor:end" id="svg_385" y="-12.5" x="-166"><tspan x="-130" y="1.5" id="svg_386">↓</tspan></text></g></g><g id="svg_387" class=""><g transform="translate(280, 588) scale(1.5)" id="svg_388"><path d="m-165.5,-4 L-165.5,-8 A4,4 90 0 1 -161.5,-12 L-157.5,-12 L-157.5,-10 L-147.5,-10 L-147.5,-12 L-117.5,-12 L-113.5,-12 A4,4 90 0 1 -109.5,-8 L-109.5,-4 L-113.5,-4 L-113.5,-7 L-117.5,-7 L-117.5,3 L-113.5,3 L-113.5,0 L-109.5,0 L-109.5,17 L-113.5,17 L-113.5,14 L-117.5,14 L-117.5,24 L-113.5,24 L-113.5,21 L-109.5,21 L-109.5,25 A4,4 90 0 1 -113.5,29 L-117.5,29 L-147.5,29 L-148.5,29 L-148.5,31 L-156.5,31 L-156.5,29 L-157.5,29 L-161.5,29 A4,4 90 0 1 -165.5,25 L-165.5,21 L-165.5,0 L-165.5,-4 z" style="fill:#77C428;fill-opacity:1;stroke:#57AD02;stroke-width:1;stroke-linecap:round;stroke-opacity:1;" id="svg_389"/><text style="font-size:10px;fill:#282828;font-family:sans-serif;text-anchor:end" id="svg_390" y="-12.5" x="-166"><tspan x="-120" y="11.5" id="svg_391">pitch</tspan></text><text style="font-size:6.666666666666667px;fill:#282828;font-family:sans-serif;text-anchor:end" id="svg_392" y="-12.5" x="-166"><tspan x="-120" y="-0.5" id="svg_393">name</tspan></text><text style="font-size:6.666666666666667px;fill:#282828;font-family:sans-serif;text-anchor:end" id="svg_394" y="-12.5" x="-166"><tspan x="-120" y="20.5" id="svg_395">octave</tspan></text></g></g><g id="svg_396" class=""><g transform="translate(354, 588) scale(1.5)" id="svg_397"><path d="m-157.5,-12 L-97.5,-12 L-97.5,8 L-157.5,8 L-157.5,0 L-157.5,-1 L-163.5,-1 L-163.5,2 L-165.5,2 L-165.5,-6 L-163.5,-6 L-163.5,-3 L-157.5,-3 L-157.5,-4 z" style="fill:#77C428;fill-opacity:1;stroke:#57AD02;stroke-width:1;stroke-linecap:round;stroke-opacity:1;" id="svg_398"/><text style="font-size:10px;fill:#282828;font-family:sans-serif;text-anchor:start" id="svg_399" y="-12.5" x="-166"><tspan x="-153" y="1.5" id="svg_400">sol</tspan></text></g></g><g id="svg_401" class=""><g transform="translate(354, 620) scale(1.5)" id="svg_402"><path d="m-157.5,-12 L-97.5,-12 L-97.5,8 L-157.5,8 L-157.5,0 L-157.5,-1 L-163.5,-1 L-163.5,2 L-165.5,2 L-165.5,-6 L-163.5,-6 L-163.5,-3 L-157.5,-3 L-157.5,-4 z" style="fill:#FF5293;fill-opacity:1;stroke:#FF2C76;stroke-width:1;stroke-linecap:round;stroke-opacity:1;" id="svg_403"/><text style="font-size:10px;fill:#282828;font-family:sans-serif;text-anchor:start" id="svg_404" y="-12.5" x="-166"><tspan x="-153" y="1.5" id="svg_405">4</tspan></text></g></g><g id="svg_406" class=""><g transform="translate(252, 492) scale(1.5)" id="svg_407"><path d="m-165.5,-4 L-165.5,-8 A4,4 90 0 1 -161.5,-12 L-157.5,-12 L-157.5,-10 L-147.5,-10 L-147.5,-12 L-138.5,-12 L-59.5,-12 L-55.5,-12 A4,4 90 0 1 -51.5,-8 L-51.5,-4 L-55.5,-4 L-55.5,-7 L-59.5,-7 L-59.5,3 L-55.5,3 L-55.5,0 L-51.5,0 L-51.5,4 A4,4 90 0 1 -55.5,8 L-59.5,8 L-138.5,8 L-139.5,8 L-139.5,10 L-147.5,10 L-147.5,8 L-148.5,8 L-152.5,8 A5,5 90 0 0 -157.5,13 L-157.5,17 L-157.5,21 L-157.5,105 L-157.5,109 A5,5 90 0 0 -152.5,114 L-148.5,114 L-148.5,116 L-138.5,116 L-138.5,114 L-130.5,114 L-130.5,120 L-130.5,126 L-130.5,130 A4,4 90 0 1 -134.5,134 L-138.5,134 L-147.5,134 L-148.5,134 L-148.5,136 L-156.5,136 L-156.5,134 L-157.5,134 L-161.5,134 A4,4 90 0 1 -165.5,130 L-165.5,126 z" style="fill:#25C3C0;fill-opacity:1;stroke:#1DBCBD;stroke-width:1;stroke-linecap:round;stroke-opacity:1;" id="svg_408"/><text style="font-size:10px;fill:#282828;font-family:sans-serif;text-anchor:start" id="svg_409" y="-12.5" x="-166"><tspan x="-161" y="2.5" id="svg_410">set relative volume</tspan></text><text style="font-size:6.666666666666667px;fill:#282828;font-family:sans-serif;text-anchor:end" id="svg_411" y="-12.5" x="-166"/></g></g><g id="svg_413" class=""><g transform="translate(413, 492) scale(1.5)" id="svg_414"><path d="m-157.5,-12 L-97.5,-12 L-97.5,8 L-157.5,8 L-157.5,0 L-157.5,-1 L-163.5,-1 L-163.5,2 L-165.5,2 L-165.5,-6 L-163.5,-6 L-163.5,-3 L-157.5,-3 L-157.5,-4 z" style="fill:#FF5293;fill-opacity:1;stroke:#FF2C76;stroke-width:1;stroke-linecap:round;stroke-opacity:1;" id="svg_415"/><text style="font-size:10px;fill:#282828;font-family:sans-serif;text-anchor:start" id="svg_416" y="-12.5" x="-166"><tspan x="-153" y="1.5" id="svg_417">25</tspan></text></g></g></g></svg>