<?xml version="1.0" encoding="UTF-8" standalone="no"?>
<svg
   xmlns:dc="http://purl.org/dc/elements/1.1/"
   xmlns:cc="http://creativecommons.org/ns#"
   xmlns:rdf="http://www.w3.org/1999/02/22-rdf-syntax-ns#"
   xmlns:svg="http://www.w3.org/2000/svg"
   xmlns="http://www.w3.org/2000/svg"
   xmlns:sodipodi="http://sodipodi.sourceforge.net/DTD/sodipodi-0.dtd"
   xmlns:inkscape="http://www.inkscape.org/namespaces/inkscape"
   width="683"
   height="285"
   version="1.1"
   id="svg6283"
   sodipodi:docname="transform1.svg"
   inkscape:version="0.92.3 (2405546, 2018-03-11)">
  <metadata
     id="metadata6289">
    <rdf:RDF>
      <cc:Work
         rdf:about="">
        <dc:format>image/svg+xml</dc:format>
        <dc:type
           rdf:resource="http://purl.org/dc/dcmitype/StillImage" />
      </cc:Work>
    </rdf:RDF>
  </metadata>
  <defs
     id="defs6287" />
  <sodipodi:namedview
     pagecolor="#ffffff"
     bordercolor="#666666"
     borderopacity="1"
     objecttolerance="10"
     gridtolerance="10"
     guidetolerance="10"
     inkscape:pageopacity="0"
     inkscape:pageshadow="2"
     inkscape:window-width="1920"
     inkscape:window-height="1001"
     id="namedview6285"
     showgrid="false"
     inkscape:zoom="2.5768668"
     inkscape:cx="341.5"
     inkscape:cy="142.5"
     inkscape:window-x="-9"
     inkscape:window-y="-9"
     inkscape:window-maximized="1"
     inkscape:current-layer="svg_111" />
  <rect
     id="backgroundrect"
     width="100%"
     height="100%"
     x="0"
     y="0"
     fill="none"
     stroke="none"
     class=""
     style="" />
  <g
     class="currentLayer"
     style=""
     id="g6281">
    <title
       id="title6120">Layer 1</title>
    <g
       id="svg_15"
       class="">
      <g
         id="svg_16">
        <g
           transform="translate(135,256) scale(1.5) "
           id="svg_17">
          <path
             d="m-89.49999845027924,-162.57143115997314 L-89.49999845027924,-166.57143115997314 A4,4 90 0 1 -85.49999845027924,-170.57143115997314 L-81.49999845027924,-170.57143115997314 L-81.49999845027924,-168.57143115997314 L-71.49999845027924,-168.57143115997314 L-71.49999845027924,-170.57143115997314 L-62.499998450279236,-170.57143115997314 L-2.499998450279236,-170.57143115997314 L1.5000015497207642,-170.57143115997314 A4,4 90 0 1 5.500001549720764,-166.57143115997314 L5.500001549720764,-162.57143115997314 L1.5000015497207642,-162.57143115997314 L1.5000015497207642,-165.57143115997314 L-2.499998450279236,-165.57143115997314 L-2.499998450279236,-155.57143115997314 L1.5000015497207642,-155.57143115997314 L1.5000015497207642,-158.57143115997314 L5.500001549720764,-158.57143115997314 L5.500001549720764,-154.57143115997314 A4,4 90 0 1 1.5000015497207642,-150.57143115997314 L-2.499998450279236,-150.57143115997314 L-62.499998450279236,-150.57143115997314 L-63.499998450279236,-150.57143115997314 L-63.499998450279236,-148.57143115997314 L-71.49999845027924,-148.57143115997314 L-71.49999845027924,-150.57143115997314 L-72.49999845027924,-150.57143115997314 L-76.49999845027924,-150.57143115997314 A5,5 90 0 0 -81.49999845027924,-145.57143115997314 L-81.49999845027924,-141.57143115997314 L-81.49999845027924,-137.57143115997314 L-81.49999845027924,-53.571431159973145 L-81.49999845027924,-49.571431159973145 A5,5 90 0 0 -76.49999845027924,-44.571431159973145 L-72.49999845027924,-44.571431159973145 L-72.49999845027924,-42.571431159973145 L-62.499998450279236,-42.571431159973145 L-62.499998450279236,-44.571431159973145 L-54.499998450279236,-44.571431159973145 L-54.499998450279236,-38.571431159973145 L-54.499998450279236,-32.571431159973145 L-54.499998450279236,-28.571431159973145 A4,4 90 0 1 -58.499998450279236,-24.571431159973145 L-62.499998450279236,-24.571431159973145 L-71.49999845027924,-24.571431159973145 L-72.49999845027924,-24.571431159973145 L-72.49999845027924,-22.571431159973145 L-80.49999845027924,-22.571431159973145 L-80.49999845027924,-24.571431159973145 L-81.49999845027924,-24.571431159973145 L-85.49999845027924,-24.571431159973145 A4,4 90 0 1 -89.49999845027924,-28.571431159973145 L-89.49999845027924,-32.571431159973145 z"
             style="fill:#FF8B2D;fill-opacity:1;stroke:#E86B0E;stroke-width:1;stroke-linecap:round;stroke-opacity:1;"
             id="svg_18" />
          <text
             style="font-size:10px;fill:#282828;font-family:sans-serif;text-anchor:start"
             id="svg_19"
             y="-171.07143115997314"
             x="-89.99999845027924">
            <tspan
               x="-69.99999845027924"
               y="-156.07143115997314"
               id="svg_20">note</tspan>
          </text>
          <text
             style="font-size:6.666666666666667px;fill:#282828;font-family:sans-serif;text-anchor:end"
             id="svg_21"
             y="-171.07143115997314"
             x="-89.99999845027924">
            <tspan
               x="-4.999998450279236"
               y="-159.07143115997314"
               id="svg_22">value</tspan>
          </text>
        </g>
      </g>
    </g>
    <g
       id="svg_30"
       class="">
      <g
         transform="translate(267,256) scale(1.5) "
         id="svg_31">
        <path
           d="m-81.49999845027924,-162.57143115997314 L-81.49999845027924,-166.57143115997314 A4,4 90 0 1 -77.49999845027924,-170.57143115997314 L-73.49999845027924,-170.57143115997314 L-63.499998450279236,-170.57143115997314 L-33.499998450279236,-170.57143115997314 L-29.499998450279236,-170.57143115997314 A4,4 90 0 1 -25.499998450279236,-166.57143115997314 L-25.499998450279236,-162.57143115997314 L-29.499998450279236,-162.57143115997314 L-29.499998450279236,-165.57143115997314 L-33.499998450279236,-165.57143115997314 L-33.499998450279236,-155.57143115997314 L-29.499998450279236,-155.57143115997314 L-29.499998450279236,-158.57143115997314 L-25.499998450279236,-158.57143115997314 L-25.499998450279236,-141.57143115997314 L-29.499998450279236,-141.57143115997314 L-29.499998450279236,-144.57143115997314 L-33.499998450279236,-144.57143115997314 L-33.499998450279236,-134.57143115997314 L-29.499998450279236,-134.57143115997314 L-29.499998450279236,-137.57143115997314 L-25.499998450279236,-137.57143115997314 L-25.499998450279236,-133.57143115997314 A4,4 90 0 1 -29.499998450279236,-129.57143115997314 L-33.499998450279236,-129.57143115997314 L-63.499998450279236,-129.57143115997314 L-73.49999845027924,-129.57143115997314 L-77.49999845027924,-129.57143115997314 A4,4 90 0 1 -81.49999845027924,-133.57143115997314 L-81.49999845027924,-137.57143115997314 L-81.49999845027924,-158.57143115997314 L-81.49999845027924,-159.57143115997314 L-87.49999845027924,-159.57143115997314 L-87.49999845027924,-156.57143115997314 L-89.49999845027924,-156.57143115997314 L-89.49999845027924,-164.57143115997314 L-87.49999845027924,-164.57143115997314 L-87.49999845027924,-161.57143115997314 L-81.49999845027924,-161.57143115997314 L-81.49999845027924,-162.57143115997314 z"
           style="fill:#FF5293;fill-opacity:1;stroke:#FF2C76;stroke-width:1;stroke-linecap:round;stroke-opacity:1;"
           id="svg_32" />
        <text
           style="font-size:9px;fill:#282828;font-family:sans-serif;text-anchor:end"
           id="svg_33"
           y="-171.07143115997314"
           x="-89.99999845027924">
          <tspan
             x="-35.999998450279236"
             y="-148.07143115997314"
             id="svg_34">/</tspan>
        </text>
        <text
           style="font-size:6px;fill:#282828;font-family:sans-serif;text-anchor:end"
           id="svg_35"
           y="-171.07143115997314"
           x="-89.99999845027924" />
        <text
           style="font-size:6px;fill:#282828;font-family:sans-serif;text-anchor:end"
           id="svg_37"
           y="-171.07143115997314"
           x="-89.99999845027924" />
      </g>
    </g>
    <g
       id="svg_39"
       class="">
      <g
         transform="translate(353,256) scale(1.5) "
         id="svg_40">
        <path
           d="m-81.49999845027924,-170.57143115997314 L-21.499998450279236,-170.57143115997314 L-21.499998450279236,-150.57143115997314 L-81.49999845027924,-150.57143115997314 L-81.49999845027924,-158.57143115997314 L-81.49999845027924,-159.57143115997314 L-87.49999845027924,-159.57143115997314 L-87.49999845027924,-156.57143115997314 L-89.49999845027924,-156.57143115997314 L-89.49999845027924,-164.57143115997314 L-87.49999845027924,-164.57143115997314 L-87.49999845027924,-161.57143115997314 L-81.49999845027924,-161.57143115997314 L-81.49999845027924,-162.57143115997314 z"
           style="fill:#FF5293;fill-opacity:1;stroke:#FF2C76;stroke-width:1;stroke-linecap:round;stroke-opacity:1;"
           id="svg_41" />
        <text
           style="font-size:10px;fill:#282828;font-family:sans-serif;text-anchor:start"
           id="svg_42"
           y="-171.07143115997314"
           x="-89.99999845027924">
          <tspan
             x="-76.99999845027924"
             y="-157.07143115997314"
             id="svg_43">1</tspan>
        </text>
      </g>
    </g>
    <g
       id="svg_44"
       class="">
      <g
         transform="translate(353,288) scale(1.5) "
         id="svg_45">
        <path
           d="m-81.49999845027924,-170.57143115997314 L-21.499998450279236,-170.57143115997314 L-21.499998450279236,-150.57143115997314 L-81.49999845027924,-150.57143115997314 L-81.49999845027924,-158.57143115997314 L-81.49999845027924,-159.57143115997314 L-87.49999845027924,-159.57143115997314 L-87.49999845027924,-156.57143115997314 L-89.49999845027924,-156.57143115997314 L-89.49999845027924,-164.57143115997314 L-87.49999845027924,-164.57143115997314 L-87.49999845027924,-161.57143115997314 L-81.49999845027924,-161.57143115997314 L-81.49999845027924,-162.57143115997314 z"
           style="fill:#FF5293;fill-opacity:1;stroke:#FF2C76;stroke-width:1;stroke-linecap:round;stroke-opacity:1;"
           id="svg_46" />
        <text
           style="font-size:10px;fill:#282828;font-family:sans-serif;text-anchor:start"
           id="svg_47"
           y="-171.07143115997314"
           x="-89.99999845027924">
          <tspan
             x="-76.99999845027924"
             y="-157.07143115997314"
             id="svg_48">4</tspan>
        </text>
      </g>
    </g>
    <g
       id="svg_49"
       class="">
      <g
         transform="translate(149,288) scale(1.5) "
         id="svg_50">
        <path
           d="m-89.49999845027924,-162.57143115997314 L-89.49999845027924,-166.57143115997314 A4,4 90 0 1 -85.49999845027924,-170.57143115997314 L-81.49999845027924,-170.57143115997314 L-81.49999845027924,-168.57143115997314 L-71.49999845027924,-168.57143115997314 L-71.49999845027924,-170.57143115997314 L-51.499998450279236,-170.57143115997314 L-47.499998450279236,-170.57143115997314 A4,4 90 0 1 -43.499998450279236,-166.57143115997314 L-43.499998450279236,-162.57143115997314 L-43.499998450279236,-158.57143115997314 L-43.499998450279236,-154.57143115997314 A4,4 90 0 1 -47.499998450279236,-150.57143115997314 L-51.499998450279236,-150.57143115997314 L-71.49999845027924,-150.57143115997314 L-72.49999845027924,-150.57143115997314 L-72.49999845027924,-148.57143115997314 L-80.49999845027924,-148.57143115997314 L-80.49999845027924,-150.57143115997314 L-81.49999845027924,-150.57143115997314 L-85.49999845027924,-150.57143115997314 A4,4 90 0 1 -89.49999845027924,-154.57143115997314 L-89.49999845027924,-158.57143115997314 z"
           style="fill:#B0B0B0;fill-opacity:1;stroke:#A0A0A0;stroke-width:1;stroke-linecap:round;stroke-opacity:1;"
           id="svg_51" />
        <text
           style="font-size:10px;fill:#282828;font-family:sans-serif;text-anchor:end"
           id="svg_52"
           y="-171.07143115997314"
           x="-89.99999845027924">
          <tspan
             x="-53.999998450279236"
             y="-157.07143115997314"
             id="svg_53">↓</tspan>
        </text>
      </g>
    </g>
    <g
       id="svg_54"
       class="">
      <g
         transform="translate(513,417) scale(1.5) "
         id="svg_55">
        <path
           d="m-90.92856979370117,-164.00000250339508 L-90.92856979370117,-168.00000250339508 A4,4 90 0 1 -86.92856979370117,-172.00000250339508 L-82.92856979370117,-172.00000250339508 L-82.92856979370117,-170.00000250339508 L-72.92856979370117,-170.00000250339508 L-72.92856979370117,-172.00000250339508 L-42.92856979370117,-172.00000250339508 L-38.92856979370117,-172.00000250339508 A4,4 90 0 1 -34.92856979370117,-168.00000250339508 L-34.92856979370117,-164.00000250339508 L-38.92856979370117,-164.00000250339508 L-38.92856979370117,-167.00000250339508 L-42.92856979370117,-167.00000250339508 L-42.92856979370117,-157.00000250339508 L-38.92856979370117,-157.00000250339508 L-38.92856979370117,-160.00000250339508 L-34.92856979370117,-160.00000250339508 L-34.92856979370117,-143.00000250339508 L-38.92856979370117,-143.00000250339508 L-38.92856979370117,-146.00000250339508 L-42.92856979370117,-146.00000250339508 L-42.92856979370117,-136.00000250339508 L-38.92856979370117,-136.00000250339508 L-38.92856979370117,-139.00000250339508 L-34.92856979370117,-139.00000250339508 L-34.92856979370117,-135.00000250339508 A4,4 90 0 1 -38.92856979370117,-131.00000250339508 L-42.92856979370117,-131.00000250339508 L-72.92856979370117,-131.00000250339508 L-73.92856979370117,-131.00000250339508 L-73.92856979370117,-129.00000250339508 L-81.92856979370117,-129.00000250339508 L-81.92856979370117,-131.00000250339508 L-82.92856979370117,-131.00000250339508 L-86.92856979370117,-131.00000250339508 A4,4 90 0 1 -90.92856979370117,-135.00000250339508 L-90.92856979370117,-139.00000250339508 L-90.92856979370117,-160.00000250339508 L-90.92856979370117,-164.00000250339508 z"
           style="fill:#77C428;fill-opacity:1;stroke:#57AD02;stroke-width:1;stroke-linecap:round;stroke-opacity:1;"
           id="svg_56" />
        <text
           style="font-size:10px;fill:#282828;font-family:sans-serif;text-anchor:end"
           id="svg_57"
           y="-172.50000250339508"
           x="-91.42856979370117">
          <tspan
             x="-45.42856979370117"
             y="-148.50000250339508"
             id="svg_58">pitch</tspan>
        </text>
        <text
           style="font-size:6.666666666666667px;fill:#282828;font-family:sans-serif;text-anchor:end"
           id="svg_59"
           y="-172.50000250339508"
           x="-91.42856979370117">
          <tspan
             x="-45.42856979370117"
             y="-160.50000250339508"
             id="svg_60">name</tspan>
        </text>
        <text
           style="font-size:6.666666666666667px;fill:#282828;font-family:sans-serif;text-anchor:end"
           id="svg_61"
           y="-172.50000250339508"
           x="-91.42856979370117">
          <tspan
             x="-45.42856979370117"
             y="-139.50000250339508"
             id="svg_62">octave</tspan>
        </text>
      </g>
    </g>
    <g
       id="svg_63"
       class="">
      <g
         transform="translate(587,417) scale(1.5) "
         id="svg_64">
        <path
           d="m-82.92856979370117,-172.00000250339508 L-22.928569793701172,-172.00000250339508 L-22.928569793701172,-152.00000250339508 L-82.92856979370117,-152.00000250339508 L-82.92856979370117,-160.00000250339508 L-82.92856979370117,-161.00000250339508 L-88.92856979370117,-161.00000250339508 L-88.92856979370117,-158.00000250339508 L-90.92856979370117,-158.00000250339508 L-90.92856979370117,-166.00000250339508 L-88.92856979370117,-166.00000250339508 L-88.92856979370117,-163.00000250339508 L-82.92856979370117,-163.00000250339508 L-82.92856979370117,-164.00000250339508 z"
           style="fill:#77C428;fill-opacity:1;stroke:#57AD02;stroke-width:1;stroke-linecap:round;stroke-opacity:1;"
           id="svg_65" />
        <text
           style="font-size:10px;fill:#282828;font-family:sans-serif;text-anchor:start"
           id="svg_66"
           y="-172.50000250339508"
           x="-91.42856979370117">
          <tspan
             x="-78.42856979370117"
             y="-158.50000250339508"
             id="svg_67">re</tspan>
        </text>
      </g>
    </g>
    <g
       id="svg_68"
       class="">
      <g
         transform="translate(587,449) scale(1.5) "
         id="svg_69">
        <path
           d="m-82.92856979370117,-172.00000250339508 L-22.928569793701172,-172.00000250339508 L-22.928569793701172,-152.00000250339508 L-82.92856979370117,-152.00000250339508 L-82.92856979370117,-160.00000250339508 L-82.92856979370117,-161.00000250339508 L-88.92856979370117,-161.00000250339508 L-88.92856979370117,-158.00000250339508 L-90.92856979370117,-158.00000250339508 L-90.92856979370117,-166.00000250339508 L-88.92856979370117,-166.00000250339508 L-88.92856979370117,-163.00000250339508 L-82.92856979370117,-163.00000250339508 L-82.92856979370117,-164.00000250339508 z"
           style="fill:#FF5293;fill-opacity:1;stroke:#FF2C76;stroke-width:1;stroke-linecap:round;stroke-opacity:1;"
           id="svg_70" />
        <text
           style="font-size:10px;fill:#282828;font-family:sans-serif;text-anchor:start"
           id="svg_71"
           y="-172.50000250339508"
           x="-91.42856979370117">
          <tspan
             x="-78.42856979370117"
             y="-158.50000250339508"
             id="svg_72">5</tspan>
        </text>
      </g>
    </g>
    <g
       id="svg_73"
       class="">
      <g
         transform="translate(149,320) scale(1.5) "
         id="svg_74">
        <path
           d="m-89.49999845027924,-162.57143115997314 L-89.49999845027924,-166.57143115997314 A4,4 90 0 1 -85.49999845027924,-170.57143115997314 L-81.49999845027924,-170.57143115997314 L-81.49999845027924,-168.57143115997314 L-71.49999845027924,-168.57143115997314 L-71.49999845027924,-170.57143115997314 L-62.499998450279236,-170.57143115997314 L-27.470701575279236,-170.57143115997314 L-23.470701575279236,-170.57143115997314 A4,4 90 0 1 -19.470701575279236,-166.57143115997314 L-19.470701575279236,-162.57143115997314 L-23.470701575279236,-162.57143115997314 L-23.470701575279236,-165.57143115997314 L-27.470701575279236,-165.57143115997314 L-27.470701575279236,-155.57143115997314 L-23.470701575279236,-155.57143115997314 L-23.470701575279236,-158.57143115997314 L-19.470701575279236,-158.57143115997314 L-19.470701575279236,-154.57143115997314 A4,4 90 0 1 -23.470701575279236,-150.57143115997314 L-27.470701575279236,-150.57143115997314 L-62.499998450279236,-150.57143115997314 L-63.499998450279236,-150.57143115997314 L-63.499998450279236,-148.57143115997314 L-71.49999845027924,-148.57143115997314 L-71.49999845027924,-150.57143115997314 L-72.49999845027924,-150.57143115997314 L-76.49999845027924,-150.57143115997314 A5,5 90 0 0 -81.49999845027924,-145.57143115997314 L-81.49999845027924,-141.57143115997314 L-81.49999845027924,-137.57143115997314 L-81.49999845027924,-116.57143115997314 L-81.49999845027924,-112.57143115997314 A5,5 90 0 0 -76.49999845027924,-107.57143115997314 L-72.49999845027924,-107.57143115997314 L-72.49999845027924,-105.57143115997314 L-62.499998450279236,-105.57143115997314 L-62.499998450279236,-107.57143115997314 L-54.499998450279236,-107.57143115997314 L-54.499998450279236,-101.57143115997314 L-54.499998450279236,-95.57143115997314 L-54.499998450279236,-91.57143115997314 A4,4 90 0 1 -58.499998450279236,-87.57143115997314 L-62.499998450279236,-87.57143115997314 L-71.49999845027924,-87.57143115997314 L-72.49999845027924,-87.57143115997314 L-72.49999845027924,-85.57143115997314 L-80.49999845027924,-85.57143115997314 L-80.49999845027924,-87.57143115997314 L-81.49999845027924,-87.57143115997314 L-85.49999845027924,-87.57143115997314 A4,4 90 0 1 -89.49999845027924,-91.57143115997314 L-89.49999845027924,-95.57143115997314 z"
           style="fill:#77C428;fill-opacity:1;stroke:#57AD02;stroke-width:1;stroke-linecap:round;stroke-opacity:1;"
           id="svg_75" />
        <text
           style="font-size:10px;fill:#282828;font-family:sans-serif;text-anchor:start"
           id="svg_76"
           y="-171.07143115997314"
           x="-89.99999845027924">
          <tspan
             x="-84.99999845027924"
             y="-156.07143115997314"
             id="svg_77">accidental</tspan>
        </text>
        <text
           style="font-size:6.666666666666667px;fill:#282828;font-family:sans-serif;text-anchor:end"
           id="svg_78"
           y="-171.07143115997314"
           x="-89.99999845027924" />
      </g>
    </g>
    <g
       id="svg_80"
       class="">
      <g
         transform="translate(163,352) scale(1.5) "
         id="svg_81">
        <path
           d="m-89.49999845027924,-162.57143115997314 L-89.49999845027924,-166.57143115997314 A4,4 90 0 1 -85.49999845027924,-170.57143115997314 L-81.49999845027924,-170.57143115997314 L-81.49999845027924,-168.57143115997314 L-71.49999845027924,-168.57143115997314 L-71.49999845027924,-170.57143115997314 L-41.499998450279236,-170.57143115997314 L-37.499998450279236,-170.57143115997314 A4,4 90 0 1 -33.499998450279236,-166.57143115997314 L-33.499998450279236,-162.57143115997314 L-37.499998450279236,-162.57143115997314 L-37.499998450279236,-165.57143115997314 L-41.499998450279236,-165.57143115997314 L-41.499998450279236,-155.57143115997314 L-37.499998450279236,-155.57143115997314 L-37.499998450279236,-158.57143115997314 L-33.499998450279236,-158.57143115997314 L-33.499998450279236,-141.57143115997314 L-37.499998450279236,-141.57143115997314 L-37.499998450279236,-144.57143115997314 L-41.499998450279236,-144.57143115997314 L-41.499998450279236,-134.57143115997314 L-37.499998450279236,-134.57143115997314 L-37.499998450279236,-137.57143115997314 L-33.499998450279236,-137.57143115997314 L-33.499998450279236,-133.57143115997314 A4,4 90 0 1 -37.499998450279236,-129.57143115997314 L-41.499998450279236,-129.57143115997314 L-71.49999845027924,-129.57143115997314 L-72.49999845027924,-129.57143115997314 L-72.49999845027924,-127.57143115997314 L-80.49999845027924,-127.57143115997314 L-80.49999845027924,-129.57143115997314 L-81.49999845027924,-129.57143115997314 L-85.49999845027924,-129.57143115997314 A4,4 90 0 1 -89.49999845027924,-133.57143115997314 L-89.49999845027924,-137.57143115997314 L-89.49999845027924,-158.57143115997314 L-89.49999845027924,-162.57143115997314 z"
           style="fill:#77C428;fill-opacity:1;stroke:#57AD02;stroke-width:1;stroke-linecap:round;stroke-opacity:1;"
           id="svg_82" />
        <text
           style="font-size:10px;fill:#282828;font-family:sans-serif;text-anchor:end"
           id="svg_83"
           y="-171.07143115997314"
           x="-89.99999845027924">
          <tspan
             x="-43.999998450279236"
             y="-147.07143115997314"
             id="svg_84">pitch</tspan>
        </text>
        <text
           style="font-size:6.666666666666667px;fill:#282828;font-family:sans-serif;text-anchor:end"
           id="svg_85"
           y="-171.07143115997314"
           x="-89.99999845027924">
          <tspan
             x="-43.999998450279236"
             y="-159.07143115997314"
             id="svg_86">name</tspan>
        </text>
        <text
           style="font-size:6.666666666666667px;fill:#282828;font-family:sans-serif;text-anchor:end"
           id="svg_87"
           y="-171.07143115997314"
           x="-89.99999845027924">
          <tspan
             x="-43.999998450279236"
             y="-138.07143115997314"
             id="svg_88">octave</tspan>
        </text>
      </g>
    </g>
    <g
       id="svg_89"
       class="">
      <g
         transform="translate(237,352) scale(1.5) "
         id="svg_90">
        <path
           d="m-81.49999845027924,-170.57143115997314 L-21.499998450279236,-170.57143115997314 L-21.499998450279236,-150.57143115997314 L-81.49999845027924,-150.57143115997314 L-81.49999845027924,-158.57143115997314 L-81.49999845027924,-159.57143115997314 L-87.49999845027924,-159.57143115997314 L-87.49999845027924,-156.57143115997314 L-89.49999845027924,-156.57143115997314 L-89.49999845027924,-164.57143115997314 L-87.49999845027924,-164.57143115997314 L-87.49999845027924,-161.57143115997314 L-81.49999845027924,-161.57143115997314 L-81.49999845027924,-162.57143115997314 z"
           style="fill:#77C428;fill-opacity:1;stroke:#57AD02;stroke-width:1;stroke-linecap:round;stroke-opacity:1;"
           id="svg_91" />
        <text
           style="font-size:10px;fill:#282828;font-family:sans-serif;text-anchor:start"
           id="svg_92"
           y="-171.07143115997314"
           x="-89.99999845027924">
          <tspan
             x="-76.99999845027924"
             y="-157.07143115997314"
             id="svg_93">re</tspan>
        </text>
      </g>
    </g>
    <g
       id="svg_94"
       class="">
      <g
         transform="translate(237,384) scale(1.5) "
         id="svg_95">
        <path
           d="m-81.49999845027924,-170.57143115997314 L-21.499998450279236,-170.57143115997314 L-21.499998450279236,-150.57143115997314 L-81.49999845027924,-150.57143115997314 L-81.49999845027924,-158.57143115997314 L-81.49999845027924,-159.57143115997314 L-87.49999845027924,-159.57143115997314 L-87.49999845027924,-156.57143115997314 L-89.49999845027924,-156.57143115997314 L-89.49999845027924,-164.57143115997314 L-87.49999845027924,-164.57143115997314 L-87.49999845027924,-161.57143115997314 L-81.49999845027924,-161.57143115997314 L-81.49999845027924,-162.57143115997314 z"
           style="fill:#FF5293;fill-opacity:1;stroke:#FF2C76;stroke-width:1;stroke-linecap:round;stroke-opacity:1;"
           id="svg_96" />
        <text
           style="font-size:10px;fill:#282828;font-family:sans-serif;text-anchor:start"
           id="svg_97"
           y="-171.07143115997314"
           x="-89.99999845027924">
          <tspan
             x="-76.99999845027924"
             y="-157.07143115997314"
             id="svg_98">5</tspan>
        </text>
      </g>
    </g>
    <g
       id="svg_99"
       class="">
      <g
         transform="translate(244,320) scale(1.5) "
         id="svg_100">
        <path
           d="m-81.49999845027924,-170.57143115997314 L28.500001549720764,-170.57143115997314 L28.500001549720764,-150.57143115997314 L-81.49999845027924,-150.57143115997314 L-81.49999845027924,-158.57143115997314 L-81.49999845027924,-159.57143115997314 L-87.49999845027924,-159.57143115997314 L-87.49999845027924,-156.57143115997314 L-89.49999845027924,-156.57143115997314 L-89.49999845027924,-164.57143115997314 L-87.49999845027924,-164.57143115997314 L-87.49999845027924,-161.57143115997314 L-81.49999845027924,-161.57143115997314 L-81.49999845027924,-162.57143115997314 z"
           style="fill:#77C428;fill-opacity:1;stroke:#57AD02;stroke-width:1;stroke-linecap:round;stroke-opacity:1;"
           id="svg_101" />
        <text
           style="font-size:10px;fill:#282828;font-family:sans-serif;text-anchor:start"
           id="svg_102"
           y="-171.07143115997314"
           x="-89.99999845027924">
          <tspan
             x="-76.99999845027924"
             y="-157.07143115997314"
             id="svg_103">flat ♭</tspan>
        </text>
      </g>
    </g>
    <g
       id="svg_104"
       class="">
      <g
         transform="translate(485,258) scale(1.5) "
         id="svg_105">
        <path
           d="m-90.92856979370117,-164.00000250339508 L-90.92856979370117,-168.00000250339508 A4,4 90 0 1 -86.92856979370117,-172.00000250339508 L-82.92856979370117,-172.00000250339508 L-82.92856979370117,-170.00000250339508 L-72.92856979370117,-170.00000250339508 L-72.92856979370117,-172.00000250339508 L-63.92856979370117,-172.00000250339508 L-28.899272918701172,-172.00000250339508 L-24.899272918701172,-172.00000250339508 A4,4 90 0 1 -20.899272918701172,-168.00000250339508 L-20.899272918701172,-164.00000250339508 L-24.899272918701172,-164.00000250339508 L-24.899272918701172,-167.00000250339508 L-28.899272918701172,-167.00000250339508 L-28.899272918701172,-157.00000250339508 L-24.899272918701172,-157.00000250339508 L-24.899272918701172,-160.00000250339508 L-20.899272918701172,-160.00000250339508 L-20.899272918701172,-156.00000250339508 A4,4 90 0 1 -24.899272918701172,-152.00000250339508 L-28.899272918701172,-152.00000250339508 L-63.92856979370117,-152.00000250339508 L-64.92856979370117,-152.00000250339508 L-64.92856979370117,-150.00000250339508 L-72.92856979370117,-150.00000250339508 L-72.92856979370117,-152.00000250339508 L-73.92856979370117,-152.00000250339508 L-77.92856979370117,-152.00000250339508 A5,5 90 0 0 -82.92856979370117,-147.00000250339508 L-82.92856979370117,-143.00000250339508 L-82.92856979370117,-139.00000250339508 L-82.92856979370117,-13.00000250339508 L-82.92856979370117,-9.00000250339508 A5,5 90 0 0 -77.92856979370117,-4.000002503395081 L-73.92856979370117,-4.000002503395081 L-73.92856979370117,-2.000002503395081 L-63.92856979370117,-2.000002503395081 L-63.92856979370117,-4.000002503395081 L-55.92856979370117,-4.000002503395081 L-55.92856979370117,1.9999974966049194 L-55.92856979370117,7.999997496604919 L-55.92856979370117,11.99999749660492 A4,4 90 0 1 -59.92856979370117,15.99999749660492 L-63.92856979370117,15.99999749660492 L-72.92856979370117,15.99999749660492 L-73.92856979370117,15.99999749660492 L-73.92856979370117,17.99999749660492 L-81.92856979370117,17.99999749660492 L-81.92856979370117,15.99999749660492 L-82.92856979370117,15.99999749660492 L-86.92856979370117,15.99999749660492 A4,4 90 0 1 -90.92856979370117,11.99999749660492 L-90.92856979370117,7.999997496604919 z"
           style="fill:#77C428;fill-opacity:1;stroke:#57AD02;stroke-width:1;stroke-linecap:round;stroke-opacity:1;"
           id="svg_106" />
        <text
           style="font-size:10px;fill:#282828;font-family:sans-serif;text-anchor:start"
           id="svg_107"
           y="-172.50000250339508"
           x="-91.42856979370117">
          <tspan
             x="-86.42856979370117"
             y="-157.50000250339508"
             id="svg_108">accidental</tspan>
        </text>
        <text
           style="font-size:6.666666666666667px;fill:#282828;font-family:sans-serif;text-anchor:end"
           id="svg_109"
           y="-172.50000250339508"
           x="-91.42856979370117" />
      </g>
    </g>
    <g
       id="svg_111"
       class="">
      <g
         id="svg_112">
        <g
           transform="translate(499,290) scale(1.5) "
           id="svg_113">
          <path
             d="m-90.92856979370117,-164.00000250339508 L-90.92856979370117,-168.00000250339508 A4,4 90 0 1 -86.92856979370117,-172.00000250339508 L-82.92856979370117,-172.00000250339508 L-82.92856979370117,-170.00000250339508 L-72.92856979370117,-170.00000250339508 L-72.92856979370117,-172.00000250339508 L-63.92856979370117,-172.00000250339508 L-3.928569793701172,-172.00000250339508 L0.07143020629882812,-172.00000250339508 A4,4 90 0 1 4.071430206298828,-168.00000250339508 L4.071430206298828,-164.00000250339508 L0.07143020629882812,-164.00000250339508 L0.07143020629882812,-167.00000250339508 L-3.928569793701172,-167.00000250339508 L-3.928569793701172,-157.00000250339508 L0.07143020629882812,-157.00000250339508 L0.07143020629882812,-160.00000250339508 L4.071430206298828,-160.00000250339508 L4.071430206298828,-156.00000250339508 A4,4 90 0 1 0.07143020629882812,-152.00000250339508 L-3.928569793701172,-152.00000250339508 L-63.92856979370117,-152.00000250339508 L-64.92856979370117,-152.00000250339508 L-64.92856979370117,-150.00000250339508 L-72.92856979370117,-150.00000250339508 L-72.92856979370117,-152.00000250339508 L-73.92856979370117,-152.00000250339508 L-77.92856979370117,-152.00000250339508 A5,5 90 0 0 -82.92856979370117,-147.00000250339508 L-82.92856979370117,-143.00000250339508 L-82.92856979370117,-139.00000250339508 L-82.92856979370117,-55.00000250339508 L-82.92856979370117,-51.00000250339508 A5,5 90 0 0 -77.92856979370117,-46.00000250339508 L-73.92856979370117,-46.00000250339508 L-73.92856979370117,-44.00000250339508 L-63.92856979370117,-44.00000250339508 L-63.92856979370117,-46.00000250339508 L-55.92856979370117,-46.00000250339508 L-55.92856979370117,-40.00000250339508 L-55.92856979370117,-34.00000250339508 L-55.92856979370117,-30.00000250339508 A4,4 90 0 1 -59.92856979370117,-26.00000250339508 L-63.92856979370117,-26.00000250339508 L-72.92856979370117,-26.00000250339508 L-73.92856979370117,-26.00000250339508 L-73.92856979370117,-24.00000250339508 L-81.92856979370117,-24.00000250339508 L-81.92856979370117,-26.00000250339508 L-82.92856979370117,-26.00000250339508 L-86.92856979370117,-26.00000250339508 A4,4 90 0 1 -90.92856979370117,-30.00000250339508 L-90.92856979370117,-34.00000250339508 z"
             style="fill:#FF8B2D;fill-opacity:1;stroke:#E86B0E;stroke-width:1;stroke-linecap:round;stroke-opacity:1;"
             id="svg_114" />
          <text
             style="font-size:10px;fill:#282828;font-family:sans-serif;text-anchor:start"
             id="svg_115"
             y="-172.50000250339508"
             x="-91.42856979370117">
            <tspan
               x="-71.42856979370117"
               y="-157.50000250339508"
               id="svg_116">note</tspan>
          </text>
          <text
             style="font-size:6.666666666666667px;fill:#282828;font-family:sans-serif;text-anchor:end"
             id="svg_117"
             y="-172.50000250339508"
             x="-91.42856979370117">
            <tspan
               x="-6.428569793701172"
               y="-160.50000250339508"
               id="svg_118">value</tspan>
          </text>
        </g>
      </g>
    </g>
    <g
       id="svg_126"
       class="">
      <g
         transform="translate(631,290) scale(1.5) "
         id="svg_127">
        <path
           d="m-82.92856979370117,-164.00000250339508 L-82.92856979370117,-168.00000250339508 A4,4 90 0 1 -78.92856979370117,-172.00000250339508 L-74.92856979370117,-172.00000250339508 L-64.92856979370117,-172.00000250339508 L-34.92856979370117,-172.00000250339508 L-30.928569793701172,-172.00000250339508 A4,4 90 0 1 -26.928569793701172,-168.00000250339508 L-26.928569793701172,-164.00000250339508 L-30.928569793701172,-164.00000250339508 L-30.928569793701172,-167.00000250339508 L-34.92856979370117,-167.00000250339508 L-34.92856979370117,-157.00000250339508 L-30.928569793701172,-157.00000250339508 L-30.928569793701172,-160.00000250339508 L-26.928569793701172,-160.00000250339508 L-26.928569793701172,-143.00000250339508 L-30.928569793701172,-143.00000250339508 L-30.928569793701172,-146.00000250339508 L-34.92856979370117,-146.00000250339508 L-34.92856979370117,-136.00000250339508 L-30.928569793701172,-136.00000250339508 L-30.928569793701172,-139.00000250339508 L-26.928569793701172,-139.00000250339508 L-26.928569793701172,-135.00000250339508 A4,4 90 0 1 -30.928569793701172,-131.00000250339508 L-34.92856979370117,-131.00000250339508 L-64.92856979370117,-131.00000250339508 L-74.92856979370117,-131.00000250339508 L-78.92856979370117,-131.00000250339508 A4,4 90 0 1 -82.92856979370117,-135.00000250339508 L-82.92856979370117,-139.00000250339508 L-82.92856979370117,-160.00000250339508 L-82.92856979370117,-161.00000250339508 L-88.92856979370117,-161.00000250339508 L-88.92856979370117,-158.00000250339508 L-90.92856979370117,-158.00000250339508 L-90.92856979370117,-166.00000250339508 L-88.92856979370117,-166.00000250339508 L-88.92856979370117,-163.00000250339508 L-82.92856979370117,-163.00000250339508 L-82.92856979370117,-164.00000250339508 z"
           style="fill:#FF5293;fill-opacity:1;stroke:#FF2C76;stroke-width:1;stroke-linecap:round;stroke-opacity:1;"
           id="svg_128" />
        <text
           style="font-size:9px;fill:#282828;font-family:sans-serif;text-anchor:end"
           id="svg_129"
           y="-172.50000250339508"
           x="-91.42856979370117">
          <tspan
             x="-37.42856979370117"
             y="-149.50000250339508"
             id="svg_130">/</tspan>
        </text>
        <text
           style="font-size:6px;fill:#282828;font-family:sans-serif;text-anchor:end"
           id="svg_131"
           y="-172.50000250339508"
           x="-91.42856979370117" />
        <text
           style="font-size:6px;fill:#282828;font-family:sans-serif;text-anchor:end"
           id="svg_133"
           y="-172.50000250339508"
           x="-91.42856979370117" />
      </g>
    </g>
    <g
       id="svg_135"
       class="">
      <g
         transform="translate(717,290) scale(1.5) "
         id="svg_136">
        <path
           d="m-82.92856979370117,-172.00000250339508 L-22.928569793701172,-172.00000250339508 L-22.928569793701172,-152.00000250339508 L-82.92856979370117,-152.00000250339508 L-82.92856979370117,-160.00000250339508 L-82.92856979370117,-161.00000250339508 L-88.92856979370117,-161.00000250339508 L-88.92856979370117,-158.00000250339508 L-90.92856979370117,-158.00000250339508 L-90.92856979370117,-166.00000250339508 L-88.92856979370117,-166.00000250339508 L-88.92856979370117,-163.00000250339508 L-82.92856979370117,-163.00000250339508 L-82.92856979370117,-164.00000250339508 z"
           style="fill:#FF5293;fill-opacity:1;stroke:#FF2C76;stroke-width:1;stroke-linecap:round;stroke-opacity:1;"
           id="svg_137" />
        <text
           style="font-size:10px;fill:#282828;font-family:sans-serif;text-anchor:start"
           id="svg_138"
           y="-172.50000250339508"
           x="-91.42856979370117">
          <tspan
             x="-78.42856979370117"
             y="-158.50000250339508"
             id="svg_139">1</tspan>
        </text>
      </g>
    </g>
    <g
       id="svg_140"
       class="">
      <g
         transform="translate(717,322) scale(1.5) "
         id="svg_141">
        <path
           d="m-82.92856979370117,-172.00000250339508 L-22.928569793701172,-172.00000250339508 L-22.928569793701172,-152.00000250339508 L-82.92856979370117,-152.00000250339508 L-82.92856979370117,-160.00000250339508 L-82.92856979370117,-161.00000250339508 L-88.92856979370117,-161.00000250339508 L-88.92856979370117,-158.00000250339508 L-90.92856979370117,-158.00000250339508 L-90.92856979370117,-166.00000250339508 L-88.92856979370117,-166.00000250339508 L-88.92856979370117,-163.00000250339508 L-82.92856979370117,-163.00000250339508 L-82.92856979370117,-164.00000250339508 z"
           style="fill:#FF5293;fill-opacity:1;stroke:#FF2C76;stroke-width:1;stroke-linecap:round;stroke-opacity:1;"
           id="svg_142" />
        <text
           style="font-size:10px;fill:#282828;font-family:sans-serif;text-anchor:start"
           id="svg_143"
           y="-172.50000250339508"
           x="-91.42856979370117">
          <tspan
             x="-78.42856979370117"
             y="-158.50000250339508"
             id="svg_144">4</tspan>
        </text>
      </g>
    </g>
    <g
       id="svg_145"
       class="">
      <g
         transform="translate(513,322) scale(1.5) "
         id="svg_146">
        <path
           d="m-90.92856979370117,-164.00000250339508 L-90.92856979370117,-168.00000250339508 A4,4 90 0 1 -86.92856979370117,-172.00000250339508 L-82.92856979370117,-172.00000250339508 L-82.92856979370117,-170.00000250339508 L-72.92856979370117,-170.00000250339508 L-72.92856979370117,-172.00000250339508 L-52.92856979370117,-172.00000250339508 L-48.92856979370117,-172.00000250339508 A4,4 90 0 1 -44.92856979370117,-168.00000250339508 L-44.92856979370117,-164.00000250339508 L-44.92856979370117,-160.00000250339508 L-44.92856979370117,-156.00000250339508 A4,4 90 0 1 -48.92856979370117,-152.00000250339508 L-52.92856979370117,-152.00000250339508 L-72.92856979370117,-152.00000250339508 L-73.92856979370117,-152.00000250339508 L-73.92856979370117,-150.00000250339508 L-81.92856979370117,-150.00000250339508 L-81.92856979370117,-152.00000250339508 L-82.92856979370117,-152.00000250339508 L-86.92856979370117,-152.00000250339508 A4,4 90 0 1 -90.92856979370117,-156.00000250339508 L-90.92856979370117,-160.00000250339508 z"
           style="fill:#B0B0B0;fill-opacity:1;stroke:#A0A0A0;stroke-width:1;stroke-linecap:round;stroke-opacity:1;"
           id="svg_147" />
        <text
           style="font-size:10px;fill:#282828;font-family:sans-serif;text-anchor:end"
           id="svg_148"
           y="-172.50000250339508"
           x="-91.42856979370117">
          <tspan
             x="-55.42856979370117"
             y="-158.50000250339508"
             id="svg_149">↓</tspan>
        </text>
      </g>
    </g>
    <g
       id="svg_150"
       class="">
      <g
         transform="translate(513,354) scale(1.5) "
         id="svg_151">
        <path
           d="m-90.92856979370117,-164.00000250339508 L-90.92856979370117,-168.00000250339508 A4,4 90 0 1 -86.92856979370117,-172.00000250339508 L-82.92856979370117,-172.00000250339508 L-82.92856979370117,-170.00000250339508 L-72.92856979370117,-170.00000250339508 L-72.92856979370117,-172.00000250339508 L-42.92856979370117,-172.00000250339508 L-38.92856979370117,-172.00000250339508 A4,4 90 0 1 -34.92856979370117,-168.00000250339508 L-34.92856979370117,-164.00000250339508 L-38.92856979370117,-164.00000250339508 L-38.92856979370117,-167.00000250339508 L-42.92856979370117,-167.00000250339508 L-42.92856979370117,-157.00000250339508 L-38.92856979370117,-157.00000250339508 L-38.92856979370117,-160.00000250339508 L-34.92856979370117,-160.00000250339508 L-34.92856979370117,-143.00000250339508 L-38.92856979370117,-143.00000250339508 L-38.92856979370117,-146.00000250339508 L-42.92856979370117,-146.00000250339508 L-42.92856979370117,-136.00000250339508 L-38.92856979370117,-136.00000250339508 L-38.92856979370117,-139.00000250339508 L-34.92856979370117,-139.00000250339508 L-34.92856979370117,-135.00000250339508 A4,4 90 0 1 -38.92856979370117,-131.00000250339508 L-42.92856979370117,-131.00000250339508 L-72.92856979370117,-131.00000250339508 L-73.92856979370117,-131.00000250339508 L-73.92856979370117,-129.00000250339508 L-81.92856979370117,-129.00000250339508 L-81.92856979370117,-131.00000250339508 L-82.92856979370117,-131.00000250339508 L-86.92856979370117,-131.00000250339508 A4,4 90 0 1 -90.92856979370117,-135.00000250339508 L-90.92856979370117,-139.00000250339508 L-90.92856979370117,-160.00000250339508 L-90.92856979370117,-164.00000250339508 z"
           style="fill:#77C428;fill-opacity:1;stroke:#57AD02;stroke-width:1;stroke-linecap:round;stroke-opacity:1;"
           id="svg_152" />
        <text
           style="font-size:10px;fill:#282828;font-family:sans-serif;text-anchor:end"
           id="svg_153"
           y="-172.50000250339508"
           x="-91.42856979370117">
          <tspan
             x="-45.42856979370117"
             y="-148.50000250339508"
             id="svg_154">pitch</tspan>
        </text>
        <text
           style="font-size:6.666666666666667px;fill:#282828;font-family:sans-serif;text-anchor:end"
           id="svg_155"
           y="-172.50000250339508"
           x="-91.42856979370117">
          <tspan
             x="-45.42856979370117"
             y="-160.50000250339508"
             id="svg_156">name</tspan>
        </text>
        <text
           style="font-size:6.666666666666667px;fill:#282828;font-family:sans-serif;text-anchor:end"
           id="svg_157"
           y="-172.50000250339508"
           x="-91.42856979370117">
          <tspan
             x="-45.42856979370117"
             y="-139.50000250339508"
             id="svg_158">octave</tspan>
        </text>
      </g>
    </g>
    <g
       id="svg_159"
       class="">
      <g
         transform="translate(587,354) scale(1.5) "
         id="svg_160">
        <path
           d="m-82.92856979370117,-172.00000250339508 L-22.928569793701172,-172.00000250339508 L-22.928569793701172,-152.00000250339508 L-82.92856979370117,-152.00000250339508 L-82.92856979370117,-160.00000250339508 L-82.92856979370117,-161.00000250339508 L-88.92856979370117,-161.00000250339508 L-88.92856979370117,-158.00000250339508 L-90.92856979370117,-158.00000250339508 L-90.92856979370117,-166.00000250339508 L-88.92856979370117,-166.00000250339508 L-88.92856979370117,-163.00000250339508 L-82.92856979370117,-163.00000250339508 L-82.92856979370117,-164.00000250339508 z"
           style="fill:#77C428;fill-opacity:1;stroke:#57AD02;stroke-width:1;stroke-linecap:round;stroke-opacity:1;"
           id="svg_161" />
        <text
           style="font-size:10px;fill:#282828;font-family:sans-serif;text-anchor:start"
           id="svg_162"
           y="-172.50000250339508"
           x="-91.42856979370117">
          <tspan
             x="-78.42856979370117"
             y="-158.50000250339508"
             id="svg_163">re</tspan>
        </text>
      </g>
    </g>
    <g
       id="svg_164"
       class="">
      <g
         transform="translate(587,386) scale(1.5) "
         id="svg_165">
        <path
           d="m-82.92856979370117,-172.00000250339508 L-22.928569793701172,-172.00000250339508 L-22.928569793701172,-152.00000250339508 L-82.92856979370117,-152.00000250339508 L-82.92856979370117,-160.00000250339508 L-82.92856979370117,-161.00000250339508 L-88.92856979370117,-161.00000250339508 L-88.92856979370117,-158.00000250339508 L-90.92856979370117,-158.00000250339508 L-90.92856979370117,-166.00000250339508 L-88.92856979370117,-166.00000250339508 L-88.92856979370117,-163.00000250339508 L-82.92856979370117,-163.00000250339508 L-82.92856979370117,-164.00000250339508 z"
           style="fill:#FF5293;fill-opacity:1;stroke:#FF2C76;stroke-width:1;stroke-linecap:round;stroke-opacity:1;"
           id="svg_166" />
        <text
           style="font-size:10px;fill:#282828;font-family:sans-serif;text-anchor:start"
           id="svg_167"
           y="-172.50000250339508"
           x="-91.42856979370117">
          <tspan
             x="-78.42856979370117"
             y="-158.50000250339508"
             id="svg_168">5</tspan>
        </text>
      </g>
    </g>
    <g
       id="svg_169"
       class="">
      <g
         transform="translate(580,258) scale(1.5) "
         id="svg_170">
        <path
           d="m-82.92856979370117,-172.00000250339508 L27.071430206298828,-172.00000250339508 L27.071430206298828,-152.00000250339508 L-82.92856979370117,-152.00000250339508 L-82.92856979370117,-160.00000250339508 L-82.92856979370117,-161.00000250339508 L-88.92856979370117,-161.00000250339508 L-88.92856979370117,-158.00000250339508 L-90.92856979370117,-158.00000250339508 L-90.92856979370117,-166.00000250339508 L-88.92856979370117,-166.00000250339508 L-88.92856979370117,-163.00000250339508 L-82.92856979370117,-163.00000250339508 L-82.92856979370117,-164.00000250339508 z"
           style="fill:#77C428;fill-opacity:1;stroke:#57AD02;stroke-width:1;stroke-linecap:round;stroke-opacity:1;"
           id="svg_171" />
        <text
           style="font-size:10px;fill:#282828;font-family:sans-serif;text-anchor:start"
           id="svg_172"
           y="-172.50000250339508"
           x="-91.42856979370117">
          <tspan
             x="-78.42856979370117"
             y="-158.50000250339508"
             id="svg_173">sharp ♯</tspan>
        </text>
      </g>
    </g>
  </g>
</svg>
