<svg xmlns="http://www.w3.org/2000/svg" width="556" height="443"><rect id="backgroundrect" width="100%" height="100%" x="0" y="0" fill="none" stroke="none" style="" class=""/><g class="currentLayer" style=""><title>Layer 1</title><g id="svg_15" class=""><g id="svg_16"><g transform="translate(357, 200) scale(1.5)" id="svg_17"><path d="m-228.1666717529297,-61.333335876464844 L-228.1666717529297,-65.33333587646484 A4,4 90 0 1 -224.1666717529297,-69.33333587646484 L-220.1666717529297,-69.33333587646484 L-220.1666717529297,-67.33333587646484 L-210.1666717529297,-67.33333587646484 L-210.1666717529297,-69.33333587646484 L-201.1666717529297,-69.33333587646484 L-141.1666717529297,-69.33333587646484 L-137.1666717529297,-69.33333587646484 A4,4 90 0 1 -133.1666717529297,-65.33333587646484 L-133.1666717529297,-61.333335876464844 L-137.1666717529297,-61.333335876464844 L-137.1666717529297,-64.33333587646484 L-141.1666717529297,-64.33333587646484 L-141.1666717529297,-54.333335876464844 L-137.1666717529297,-54.333335876464844 L-137.1666717529297,-57.333335876464844 L-133.1666717529297,-57.333335876464844 L-133.1666717529297,-53.333335876464844 A4,4 90 0 1 -137.1666717529297,-49.333335876464844 L-141.1666717529297,-49.333335876464844 L-201.1666717529297,-49.333335876464844 L-202.1666717529297,-49.333335876464844 L-202.1666717529297,-47.333335876464844 L-210.1666717529297,-47.333335876464844 L-210.1666717529297,-49.333335876464844 L-211.1666717529297,-49.333335876464844 L-215.1666717529297,-49.333335876464844 A5,5 90 0 0 -220.1666717529297,-44.333335876464844 L-220.1666717529297,-40.333335876464844 L-220.1666717529297,-36.333335876464844 L-220.1666717529297,5.666664123535156 L-220.1666717529297,9.666664123535156 A5,5 90 0 0 -215.1666717529297,14.666664123535156 L-211.1666717529297,14.666664123535156 L-211.1666717529297,16.666664123535156 L-201.1666717529297,16.666664123535156 L-201.1666717529297,14.666664123535156 L-193.1666717529297,14.666664123535156 L-193.1666717529297,20.666664123535156 L-193.1666717529297,26.666664123535156 L-193.1666717529297,30.666664123535156 A4,4 90 0 1 -197.1666717529297,34.666664123535156 L-201.1666717529297,34.666664123535156 L-210.1666717529297,34.666664123535156 L-211.1666717529297,34.666664123535156 L-211.1666717529297,36.666664123535156 L-219.1666717529297,36.666664123535156 L-219.1666717529297,34.666664123535156 L-220.1666717529297,34.666664123535156 L-224.1666717529297,34.666664123535156 A4,4 90 0 1 -228.1666717529297,30.666664123535156 L-228.1666717529297,26.666664123535156 z" style="fill:#FF8B2D;fill-opacity:1;stroke:#E86B0E;stroke-width:1;stroke-linecap:round;stroke-opacity:1;" id="svg_18"/><text style="font-size:10px;fill:#282828;font-family:sans-serif;text-anchor:start" id="svg_19" y="-69.83333587646484" x="-228.6666717529297"><tspan x="-208.6666717529297" y="-54.833335876464844" id="svg_20">note</tspan></text><text style="font-size:6.666666666666667px;fill:#282828;font-family:sans-serif;text-anchor:end" id="svg_21" y="-69.83333587646484" x="-228.6666717529297"><tspan x="-143.6666717529297" y="-57.833335876464844" id="svg_22">value</tspan></text></g></g><g transform="translate(357, 204) scale(0.5)" id="svg_23"><g style="isolation:isolate" id="svg_24"><g id="レイヤー_2" data-name="レイヤー 2"><g id="Icon"><rect width="42" height="42" rx="5" ry="5" style="fill:#292929;opacity:0.4;mix-blend-mode:multiply" id="svg_25" y="-209.5" x="-686"/><path d="M-655.4400005340576,-179.70000076293945 l-4.170000076293945,-4.159999847412109 h2.259999990463257 a1,1 0 1 0 0,-2.069999933242798 H-662.0599994659424 a1.0800000429153442,1.0800000429153442 0 0 0 -1.1100000143051147,1 v0 s0,0 0,0.05999999865889549 v4.639999866485596 h0 a1,1 0 1 0 2.0799999237060547,0 V-182.42000007629395 l4.190000057220459,4.190000057220459 a1,1 0 0 0 1.4600000381469727,0 A1,1 0 0 0 -655.4400005340576,-179.70000076293945 z" style="fill:#fff" id="svg_26"/><path d="M-666.829999923706,-184.89999961853027 a1.0800000429153442,1.0800000429153442 0 0 0 -1.1100000143051147,-1 H-672.6499996185303 a1,1 0 1 0 0,2.069999933242798 H-670.3999996185303 L-674.5600004196167,-179.70000076293945 a1,1 0 0 0 1.4700000286102295,1.4700000286102295 l4.179999828338623,-4.190000057220459 v2.259999990463257 a1,1 0 1 0 2.0799999237060547,0 V-184.79999923706055 s0,0 0,-0.05999999865889549 A0.07999999821186066,0.07999999821186066 0 0 1 -666.829999923706,-184.89999961853027 z" style="fill:#fff" id="svg_27"/><path d="M-662.0599994659424,-189 h4.699999809265137 a1,1 0 1 0 0,-2.0799999237060547 H-659.6100006103516 l4.170000076293945,-4.159999847412109 a1,1 0 0 0 0,-1.4700000286102295 a1,1 0 0 0 -1.4600000381469727,0 L-661.0900001525879,-192.5 V-194.7799997329712 a1,1 0 1 0 -2.0799999237060547,0 v4.639999866485596 a0.4300000071525574,0.4300000071525574 0 0 0 0,0.05000000074505806 v0.05000000074505806 A1.090000033378601,1.090000033378601 0 0 0 -662.0599994659424,-189 z" style="fill:#fff" id="svg_28"/><path d="M-667.8700008392334,-195.88000011444092 a1.0800000429153442,1.0800000429153442 0 0 0 -1,1.090000033378601 V-192.5 l-4.179999828338623,-4.190000057220459 a1,1 0 0 0 -1.4700000286102295,0 a1,1 0 0 0 0,1.4600000381469727 l4.159999847412109,4.170000076293945 H-672.6499996185303 a1,1 0 1 0 0,2.0799999237060547 h4.710000038146973 a1.090000033378601,1.090000033378601 0 0 0 1.1100000143051147,-1 a0.07999999821186066,0.07999999821186066 0 0 1 0,0 s0,0 0,-0.05999999865889549 V-194.78999996185303 A1.0700000524520874,1.0700000524520874 0 0 0 -667.8700008392334,-195.88000011444092 z" style="fill:#fff" id="svg_29"/></g></g></g></g></g><g id="svg_30" class=""><g transform="translate(489, 200) scale(1.5)" id="svg_31"><path d="m-220.1666717529297,-61.333335876464844 L-220.1666717529297,-65.33333587646484 A4,4 90 0 1 -216.1666717529297,-69.33333587646484 L-212.1666717529297,-69.33333587646484 L-202.1666717529297,-69.33333587646484 L-172.1666717529297,-69.33333587646484 L-168.1666717529297,-69.33333587646484 A4,4 90 0 1 -164.1666717529297,-65.33333587646484 L-164.1666717529297,-61.333335876464844 L-168.1666717529297,-61.333335876464844 L-168.1666717529297,-64.33333587646484 L-172.1666717529297,-64.33333587646484 L-172.1666717529297,-54.333335876464844 L-168.1666717529297,-54.333335876464844 L-168.1666717529297,-57.333335876464844 L-164.1666717529297,-57.333335876464844 L-164.1666717529297,-40.333335876464844 L-168.1666717529297,-40.333335876464844 L-168.1666717529297,-43.333335876464844 L-172.1666717529297,-43.333335876464844 L-172.1666717529297,-33.333335876464844 L-168.1666717529297,-33.333335876464844 L-168.1666717529297,-36.333335876464844 L-164.1666717529297,-36.333335876464844 L-164.1666717529297,-32.333335876464844 A4,4 90 0 1 -168.1666717529297,-28.333335876464844 L-172.1666717529297,-28.333335876464844 L-202.1666717529297,-28.333335876464844 L-212.1666717529297,-28.333335876464844 L-216.1666717529297,-28.333335876464844 A4,4 90 0 1 -220.1666717529297,-32.333335876464844 L-220.1666717529297,-36.333335876464844 L-220.1666717529297,-57.333335876464844 L-220.1666717529297,-58.333335876464844 L-226.1666717529297,-58.333335876464844 L-226.1666717529297,-55.333335876464844 L-228.1666717529297,-55.333335876464844 L-228.1666717529297,-63.333335876464844 L-226.1666717529297,-63.333335876464844 L-226.1666717529297,-60.333335876464844 L-220.1666717529297,-60.333335876464844 L-220.1666717529297,-61.333335876464844 z" style="fill:#FF5293;fill-opacity:1;stroke:#FF2C76;stroke-width:1;stroke-linecap:round;stroke-opacity:1;" id="svg_32"/><text style="font-size:9px;fill:#282828;font-family:sans-serif;text-anchor:end" id="svg_33" y="-69.83333587646484" x="-228.6666717529297"><tspan x="-174.6666717529297" y="-46.833335876464844" id="svg_34">/</tspan></text><text style="font-size:6px;fill:#282828;font-family:sans-serif;text-anchor:end" id="svg_35" y="-69.83333587646484" x="-228.6666717529297"/><text style="font-size:6px;fill:#282828;font-family:sans-serif;text-anchor:end" id="svg_37" y="-69.83333587646484" x="-228.6666717529297"/></g></g><g id="svg_39" class=""><g transform="translate(575, 200) scale(1.5)" id="svg_40"><path d="m-220.1666717529297,-69.33333587646484 L-160.1666717529297,-69.33333587646484 L-160.1666717529297,-49.333335876464844 L-220.1666717529297,-49.333335876464844 L-220.1666717529297,-57.333335876464844 L-220.1666717529297,-58.333335876464844 L-226.1666717529297,-58.333335876464844 L-226.1666717529297,-55.333335876464844 L-228.1666717529297,-55.333335876464844 L-228.1666717529297,-63.333335876464844 L-226.1666717529297,-63.333335876464844 L-226.1666717529297,-60.333335876464844 L-220.1666717529297,-60.333335876464844 L-220.1666717529297,-61.333335876464844 z" style="fill:#FF5293;fill-opacity:1;stroke:#FF2C76;stroke-width:1;stroke-linecap:round;stroke-opacity:1;" id="svg_41"/><text style="font-size:10px;fill:#282828;font-family:sans-serif;text-anchor:start" id="svg_42" y="-69.83333587646484" x="-228.6666717529297"><tspan x="-215.6666717529297" y="-55.833335876464844" id="svg_43">1</tspan></text></g></g><g id="svg_44" class=""><g transform="translate(575, 232) scale(1.5)" id="svg_45"><path d="m-220.1666717529297,-69.33333587646484 L-160.1666717529297,-69.33333587646484 L-160.1666717529297,-49.333335876464844 L-220.1666717529297,-49.333335876464844 L-220.1666717529297,-57.333335876464844 L-220.1666717529297,-58.333335876464844 L-226.1666717529297,-58.333335876464844 L-226.1666717529297,-55.333335876464844 L-228.1666717529297,-55.333335876464844 L-228.1666717529297,-63.333335876464844 L-226.1666717529297,-63.333335876464844 L-226.1666717529297,-60.333335876464844 L-220.1666717529297,-60.333335876464844 L-220.1666717529297,-61.333335876464844 z" style="fill:#FF5293;fill-opacity:1;stroke:#FF2C76;stroke-width:1;stroke-linecap:round;stroke-opacity:1;" id="svg_46"/><text style="font-size:10px;fill:#282828;font-family:sans-serif;text-anchor:start" id="svg_47" y="-69.83333587646484" x="-228.6666717529297"><tspan x="-215.6666717529297" y="-55.833335876464844" id="svg_48">4</tspan></text></g></g><g id="svg_49" class=""><g transform="translate(371, 232) scale(1.5)" id="svg_50"><path d="m-228.1666717529297,-61.333335876464844 L-228.1666717529297,-65.33333587646484 A4,4 90 0 1 -224.1666717529297,-69.33333587646484 L-220.1666717529297,-69.33333587646484 L-220.1666717529297,-67.33333587646484 L-210.1666717529297,-67.33333587646484 L-210.1666717529297,-69.33333587646484 L-190.1666717529297,-69.33333587646484 L-186.1666717529297,-69.33333587646484 A4,4 90 0 1 -182.1666717529297,-65.33333587646484 L-182.1666717529297,-61.333335876464844 L-182.1666717529297,-57.333335876464844 L-182.1666717529297,-53.333335876464844 A4,4 90 0 1 -186.1666717529297,-49.333335876464844 L-190.1666717529297,-49.333335876464844 L-210.1666717529297,-49.333335876464844 L-211.1666717529297,-49.333335876464844 L-211.1666717529297,-47.333335876464844 L-219.1666717529297,-47.333335876464844 L-219.1666717529297,-49.333335876464844 L-220.1666717529297,-49.333335876464844 L-224.1666717529297,-49.333335876464844 A4,4 90 0 1 -228.1666717529297,-53.333335876464844 L-228.1666717529297,-57.333335876464844 z" style="fill:#B0B0B0;fill-opacity:1;stroke:#A0A0A0;stroke-width:1;stroke-linecap:round;stroke-opacity:1;" id="svg_51"/><text style="font-size:10px;fill:#282828;font-family:sans-serif;text-anchor:end" id="svg_52" y="-69.83333587646484" x="-228.6666717529297"><tspan x="-192.6666717529297" y="-55.833335876464844" id="svg_53">↓</tspan></text></g></g><g id="svg_54" class=""><g transform="translate(371, 264) scale(1.5)" id="svg_55"><path d="m-228.1666717529297,-61.333335876464844 L-228.1666717529297,-65.33333587646484 A4,4 90 0 1 -224.1666717529297,-69.33333587646484 L-220.1666717529297,-69.33333587646484 L-220.1666717529297,-67.33333587646484 L-210.1666717529297,-67.33333587646484 L-210.1666717529297,-69.33333587646484 L-180.1666717529297,-69.33333587646484 L-176.1666717529297,-69.33333587646484 A4,4 90 0 1 -172.1666717529297,-65.33333587646484 L-172.1666717529297,-61.333335876464844 L-176.1666717529297,-61.333335876464844 L-176.1666717529297,-64.33333587646484 L-180.1666717529297,-64.33333587646484 L-180.1666717529297,-54.333335876464844 L-176.1666717529297,-54.333335876464844 L-176.1666717529297,-57.333335876464844 L-172.1666717529297,-57.333335876464844 L-172.1666717529297,-40.333335876464844 L-176.1666717529297,-40.333335876464844 L-176.1666717529297,-43.333335876464844 L-180.1666717529297,-43.333335876464844 L-180.1666717529297,-33.333335876464844 L-176.1666717529297,-33.333335876464844 L-176.1666717529297,-36.333335876464844 L-172.1666717529297,-36.333335876464844 L-172.1666717529297,-32.333335876464844 A4,4 90 0 1 -176.1666717529297,-28.333335876464844 L-180.1666717529297,-28.333335876464844 L-210.1666717529297,-28.333335876464844 L-211.1666717529297,-28.333335876464844 L-211.1666717529297,-26.333335876464844 L-219.1666717529297,-26.333335876464844 L-219.1666717529297,-28.333335876464844 L-220.1666717529297,-28.333335876464844 L-224.1666717529297,-28.333335876464844 A4,4 90 0 1 -228.1666717529297,-32.333335876464844 L-228.1666717529297,-36.333335876464844 L-228.1666717529297,-57.333335876464844 L-228.1666717529297,-61.333335876464844 z" style="fill:#77C428;fill-opacity:1;stroke:#57AD02;stroke-width:1;stroke-linecap:round;stroke-opacity:1;" id="svg_56"/><text style="font-size:10px;fill:#282828;font-family:sans-serif;text-anchor:end" id="svg_57" y="-69.83333587646484" x="-228.6666717529297"><tspan x="-182.6666717529297" y="-45.833335876464844" id="svg_58">pitch</tspan></text><text style="font-size:6.666666666666667px;fill:#282828;font-family:sans-serif;text-anchor:end" id="svg_59" y="-69.83333587646484" x="-228.6666717529297"><tspan x="-182.6666717529297" y="-57.833335876464844" id="svg_60">name</tspan></text><text style="font-size:6.666666666666667px;fill:#282828;font-family:sans-serif;text-anchor:end" id="svg_61" y="-69.83333587646484" x="-228.6666717529297"><tspan x="-182.6666717529297" y="-36.833335876464844" id="svg_62">octave</tspan></text></g></g><g id="svg_63" class=""><g transform="translate(445, 264) scale(1.5)" id="svg_64"><path d="m-220.1666717529297,-69.33333587646484 L-160.1666717529297,-69.33333587646484 L-160.1666717529297,-49.333335876464844 L-220.1666717529297,-49.333335876464844 L-220.1666717529297,-57.333335876464844 L-220.1666717529297,-58.333335876464844 L-226.1666717529297,-58.333335876464844 L-226.1666717529297,-55.333335876464844 L-228.1666717529297,-55.333335876464844 L-228.1666717529297,-63.333335876464844 L-226.1666717529297,-63.333335876464844 L-226.1666717529297,-60.333335876464844 L-220.1666717529297,-60.333335876464844 L-220.1666717529297,-61.333335876464844 z" style="fill:#77C428;fill-opacity:1;stroke:#57AD02;stroke-width:1;stroke-linecap:round;stroke-opacity:1;" id="svg_65"/><text style="font-size:10px;fill:#282828;font-family:sans-serif;text-anchor:start" id="svg_66" y="-69.83333587646484" x="-228.6666717529297"><tspan x="-215.6666717529297" y="-55.833335876464844" id="svg_67">re</tspan></text></g></g><g id="svg_68" class=""><g transform="translate(445, 296) scale(1.5)" id="svg_69"><path d="m-220.1666717529297,-69.33333587646484 L-160.1666717529297,-69.33333587646484 L-160.1666717529297,-49.333335876464844 L-220.1666717529297,-49.333335876464844 L-220.1666717529297,-57.333335876464844 L-220.1666717529297,-58.333335876464844 L-226.1666717529297,-58.333335876464844 L-226.1666717529297,-55.333335876464844 L-228.1666717529297,-55.333335876464844 L-228.1666717529297,-63.333335876464844 L-226.1666717529297,-63.333335876464844 L-226.1666717529297,-60.333335876464844 L-220.1666717529297,-60.333335876464844 L-220.1666717529297,-61.333335876464844 z" style="fill:#FF5293;fill-opacity:1;stroke:#FF2C76;stroke-width:1;stroke-linecap:round;stroke-opacity:1;" id="svg_70"/><text style="font-size:10px;fill:#282828;font-family:sans-serif;text-anchor:start" id="svg_71" y="-69.83333587646484" x="-228.6666717529297"><tspan x="-215.6666717529297" y="-55.833335876464844" id="svg_72">5</tspan></text></g></g><g id="svg_73" class=""><g id="svg_74"><g transform="translate(357, 358) scale(1.5)" id="svg_75"><path d="m-228.1666717529297,-61.333335876464844 L-228.1666717529297,-65.33333587646484 A4,4 90 0 1 -224.1666717529297,-69.33333587646484 L-220.1666717529297,-69.33333587646484 L-220.1666717529297,-67.33333587646484 L-210.1666717529297,-67.33333587646484 L-210.1666717529297,-69.33333587646484 L-201.1666717529297,-69.33333587646484 L-141.1666717529297,-69.33333587646484 L-137.1666717529297,-69.33333587646484 A4,4 90 0 1 -133.1666717529297,-65.33333587646484 L-133.1666717529297,-61.333335876464844 L-137.1666717529297,-61.333335876464844 L-137.1666717529297,-64.33333587646484 L-141.1666717529297,-64.33333587646484 L-141.1666717529297,-54.333335876464844 L-137.1666717529297,-54.333335876464844 L-137.1666717529297,-57.333335876464844 L-133.1666717529297,-57.333335876464844 L-133.1666717529297,-53.333335876464844 A4,4 90 0 1 -137.1666717529297,-49.333335876464844 L-141.1666717529297,-49.333335876464844 L-201.1666717529297,-49.333335876464844 L-202.1666717529297,-49.333335876464844 L-202.1666717529297,-47.333335876464844 L-210.1666717529297,-47.333335876464844 L-210.1666717529297,-49.333335876464844 L-211.1666717529297,-49.333335876464844 L-215.1666717529297,-49.333335876464844 A5,5 90 0 0 -220.1666717529297,-44.333335876464844 L-220.1666717529297,-40.333335876464844 L-220.1666717529297,-36.333335876464844 L-220.1666717529297,5.666664123535156 L-220.1666717529297,9.666664123535156 A5,5 90 0 0 -215.1666717529297,14.666664123535156 L-211.1666717529297,14.666664123535156 L-211.1666717529297,16.666664123535156 L-201.1666717529297,16.666664123535156 L-201.1666717529297,14.666664123535156 L-193.1666717529297,14.666664123535156 L-193.1666717529297,20.666664123535156 L-193.1666717529297,26.666664123535156 L-193.1666717529297,30.666664123535156 A4,4 90 0 1 -197.1666717529297,34.666664123535156 L-201.1666717529297,34.666664123535156 L-210.1666717529297,34.666664123535156 L-211.1666717529297,34.666664123535156 L-211.1666717529297,36.666664123535156 L-219.1666717529297,36.666664123535156 L-219.1666717529297,34.666664123535156 L-220.1666717529297,34.666664123535156 L-224.1666717529297,34.666664123535156 A4,4 90 0 1 -228.1666717529297,30.666664123535156 L-228.1666717529297,26.666664123535156 z" style="fill:#FF8B2D;fill-opacity:1;stroke:#E86B0E;stroke-width:1;stroke-linecap:round;stroke-opacity:1;" id="svg_76"/><text style="font-size:10px;fill:#282828;font-family:sans-serif;text-anchor:start" id="svg_77" y="-69.83333587646484" x="-228.6666717529297"><tspan x="-208.6666717529297" y="-54.833335876464844" id="svg_78">note</tspan></text><text style="font-size:6.666666666666667px;fill:#282828;font-family:sans-serif;text-anchor:end" id="svg_79" y="-69.83333587646484" x="-228.6666717529297"><tspan x="-143.6666717529297" y="-57.833335876464844" id="svg_80">value</tspan></text></g></g><g transform="translate(357, 362) scale(0.5)" id="svg_81"><g style="isolation:isolate" id="svg_82"><g id="レイヤー_2" data-name="レイヤー 2"><g id="Icon"><rect width="42" height="42" rx="5" ry="5" style="fill:#292929;opacity:0.4;mix-blend-mode:multiply" id="svg_83" y="-209.5" x="-686"/><path d="M-655.4400005340576,-179.70000076293945 l-4.170000076293945,-4.159999847412109 h2.259999990463257 a1,1 0 1 0 0,-2.069999933242798 H-662.0599994659424 a1.0800000429153442,1.0800000429153442 0 0 0 -1.1100000143051147,1 v0 s0,0 0,0.05999999865889549 v4.639999866485596 h0 a1,1 0 1 0 2.0799999237060547,0 V-182.42000007629395 l4.190000057220459,4.190000057220459 a1,1 0 0 0 1.4600000381469727,0 A1,1 0 0 0 -655.4400005340576,-179.70000076293945 z" style="fill:#fff" id="svg_84"/><path d="M-666.829999923706,-184.89999961853027 a1.0800000429153442,1.0800000429153442 0 0 0 -1.1100000143051147,-1 H-672.6499996185303 a1,1 0 1 0 0,2.069999933242798 H-670.3999996185303 L-674.5600004196167,-179.70000076293945 a1,1 0 0 0 1.4700000286102295,1.4700000286102295 l4.179999828338623,-4.190000057220459 v2.259999990463257 a1,1 0 1 0 2.0799999237060547,0 V-184.79999923706055 s0,0 0,-0.05999999865889549 A0.07999999821186066,0.07999999821186066 0 0 1 -666.829999923706,-184.89999961853027 z" style="fill:#fff" id="svg_85"/><path d="M-662.0599994659424,-189 h4.699999809265137 a1,1 0 1 0 0,-2.0799999237060547 H-659.6100006103516 l4.170000076293945,-4.159999847412109 a1,1 0 0 0 0,-1.4700000286102295 a1,1 0 0 0 -1.4600000381469727,0 L-661.0900001525879,-192.5 V-194.7799997329712 a1,1 0 1 0 -2.0799999237060547,0 v4.639999866485596 a0.4300000071525574,0.4300000071525574 0 0 0 0,0.05000000074505806 v0.05000000074505806 A1.090000033378601,1.090000033378601 0 0 0 -662.0599994659424,-189 z" style="fill:#fff" id="svg_86"/><path d="M-667.8700008392334,-195.88000011444092 a1.0800000429153442,1.0800000429153442 0 0 0 -1,1.090000033378601 V-192.5 l-4.179999828338623,-4.190000057220459 a1,1 0 0 0 -1.4700000286102295,0 a1,1 0 0 0 0,1.4600000381469727 l4.159999847412109,4.170000076293945 H-672.6499996185303 a1,1 0 1 0 0,2.0799999237060547 h4.710000038146973 a1.090000033378601,1.090000033378601 0 0 0 1.1100000143051147,-1 a0.07999999821186066,0.07999999821186066 0 0 1 0,0 s0,0 0,-0.05999999865889549 V-194.78999996185303 A1.0700000524520874,1.0700000524520874 0 0 0 -667.8700008392334,-195.88000011444092 z" style="fill:#fff" id="svg_87"/></g></g></g></g></g><g id="svg_88" class=""><g transform="translate(489, 358) scale(1.5)" id="svg_89"><path d="m-220.1666717529297,-61.333335876464844 L-220.1666717529297,-65.33333587646484 A4,4 90 0 1 -216.1666717529297,-69.33333587646484 L-212.1666717529297,-69.33333587646484 L-202.1666717529297,-69.33333587646484 L-172.1666717529297,-69.33333587646484 L-168.1666717529297,-69.33333587646484 A4,4 90 0 1 -164.1666717529297,-65.33333587646484 L-164.1666717529297,-61.333335876464844 L-168.1666717529297,-61.333335876464844 L-168.1666717529297,-64.33333587646484 L-172.1666717529297,-64.33333587646484 L-172.1666717529297,-54.333335876464844 L-168.1666717529297,-54.333335876464844 L-168.1666717529297,-57.333335876464844 L-164.1666717529297,-57.333335876464844 L-164.1666717529297,-40.333335876464844 L-168.1666717529297,-40.333335876464844 L-168.1666717529297,-43.333335876464844 L-172.1666717529297,-43.333335876464844 L-172.1666717529297,-33.333335876464844 L-168.1666717529297,-33.333335876464844 L-168.1666717529297,-36.333335876464844 L-164.1666717529297,-36.333335876464844 L-164.1666717529297,-32.333335876464844 A4,4 90 0 1 -168.1666717529297,-28.333335876464844 L-172.1666717529297,-28.333335876464844 L-202.1666717529297,-28.333335876464844 L-212.1666717529297,-28.333335876464844 L-216.1666717529297,-28.333335876464844 A4,4 90 0 1 -220.1666717529297,-32.333335876464844 L-220.1666717529297,-36.333335876464844 L-220.1666717529297,-57.333335876464844 L-220.1666717529297,-58.333335876464844 L-226.1666717529297,-58.333335876464844 L-226.1666717529297,-55.333335876464844 L-228.1666717529297,-55.333335876464844 L-228.1666717529297,-63.333335876464844 L-226.1666717529297,-63.333335876464844 L-226.1666717529297,-60.333335876464844 L-220.1666717529297,-60.333335876464844 L-220.1666717529297,-61.333335876464844 z" style="fill:#FF5293;fill-opacity:1;stroke:#FF2C76;stroke-width:1;stroke-linecap:round;stroke-opacity:1;" id="svg_90"/><text style="font-size:9px;fill:#282828;font-family:sans-serif;text-anchor:end" id="svg_91" y="-69.83333587646484" x="-228.6666717529297"><tspan x="-174.6666717529297" y="-46.833335876464844" id="svg_92">/</tspan></text><text style="font-size:6px;fill:#282828;font-family:sans-serif;text-anchor:end" id="svg_93" y="-69.83333587646484" x="-228.6666717529297"/><text style="font-size:6px;fill:#282828;font-family:sans-serif;text-anchor:end" id="svg_95" y="-69.83333587646484" x="-228.6666717529297"/></g></g><g id="svg_97" class=""><g transform="translate(575, 358) scale(1.5)" id="svg_98"><path d="m-220.1666717529297,-69.33333587646484 L-160.1666717529297,-69.33333587646484 L-160.1666717529297,-49.333335876464844 L-220.1666717529297,-49.333335876464844 L-220.1666717529297,-57.333335876464844 L-220.1666717529297,-58.333335876464844 L-226.1666717529297,-58.333335876464844 L-226.1666717529297,-55.333335876464844 L-228.1666717529297,-55.333335876464844 L-228.1666717529297,-63.333335876464844 L-226.1666717529297,-63.333335876464844 L-226.1666717529297,-60.333335876464844 L-220.1666717529297,-60.333335876464844 L-220.1666717529297,-61.333335876464844 z" style="fill:#FF5293;fill-opacity:1;stroke:#FF2C76;stroke-width:1;stroke-linecap:round;stroke-opacity:1;" id="svg_99"/><text style="font-size:10px;fill:#282828;font-family:sans-serif;text-anchor:start" id="svg_100" y="-69.83333587646484" x="-228.6666717529297"><tspan x="-215.6666717529297" y="-55.833335876464844" id="svg_101">1</tspan></text></g></g><g id="svg_102" class=""><g transform="translate(575, 390) scale(1.5)" id="svg_103"><path d="m-220.1666717529297,-69.33333587646484 L-160.1666717529297,-69.33333587646484 L-160.1666717529297,-49.333335876464844 L-220.1666717529297,-49.333335876464844 L-220.1666717529297,-57.333335876464844 L-220.1666717529297,-58.333335876464844 L-226.1666717529297,-58.333335876464844 L-226.1666717529297,-55.333335876464844 L-228.1666717529297,-55.333335876464844 L-228.1666717529297,-63.333335876464844 L-226.1666717529297,-63.333335876464844 L-226.1666717529297,-60.333335876464844 L-220.1666717529297,-60.333335876464844 L-220.1666717529297,-61.333335876464844 z" style="fill:#FF5293;fill-opacity:1;stroke:#FF2C76;stroke-width:1;stroke-linecap:round;stroke-opacity:1;" id="svg_104"/><text style="font-size:10px;fill:#282828;font-family:sans-serif;text-anchor:start" id="svg_105" y="-69.83333587646484" x="-228.6666717529297"><tspan x="-215.6666717529297" y="-55.833335876464844" id="svg_106">4</tspan></text></g></g><g id="svg_107" class=""><g transform="translate(371, 390) scale(1.5)" id="svg_108"><path d="m-228.1666717529297,-61.333335876464844 L-228.1666717529297,-65.33333587646484 A4,4 90 0 1 -224.1666717529297,-69.33333587646484 L-220.1666717529297,-69.33333587646484 L-220.1666717529297,-67.33333587646484 L-210.1666717529297,-67.33333587646484 L-210.1666717529297,-69.33333587646484 L-190.1666717529297,-69.33333587646484 L-186.1666717529297,-69.33333587646484 A4,4 90 0 1 -182.1666717529297,-65.33333587646484 L-182.1666717529297,-61.333335876464844 L-182.1666717529297,-57.333335876464844 L-182.1666717529297,-53.333335876464844 A4,4 90 0 1 -186.1666717529297,-49.333335876464844 L-190.1666717529297,-49.333335876464844 L-210.1666717529297,-49.333335876464844 L-211.1666717529297,-49.333335876464844 L-211.1666717529297,-47.333335876464844 L-219.1666717529297,-47.333335876464844 L-219.1666717529297,-49.333335876464844 L-220.1666717529297,-49.333335876464844 L-224.1666717529297,-49.333335876464844 A4,4 90 0 1 -228.1666717529297,-53.333335876464844 L-228.1666717529297,-57.333335876464844 z" style="fill:#B0B0B0;fill-opacity:1;stroke:#A0A0A0;stroke-width:1;stroke-linecap:round;stroke-opacity:1;" id="svg_109"/><text style="font-size:10px;fill:#282828;font-family:sans-serif;text-anchor:end" id="svg_110" y="-69.83333587646484" x="-228.6666717529297"><tspan x="-192.6666717529297" y="-55.833335876464844" id="svg_111">↓</tspan></text></g></g><g id="svg_112" class=""><g transform="translate(371, 422) scale(1.5)" id="svg_113"><path d="m-228.1666717529297,-61.333335876464844 L-228.1666717529297,-65.33333587646484 A4,4 90 0 1 -224.1666717529297,-69.33333587646484 L-220.1666717529297,-69.33333587646484 L-220.1666717529297,-67.33333587646484 L-210.1666717529297,-67.33333587646484 L-210.1666717529297,-69.33333587646484 L-180.1666717529297,-69.33333587646484 L-176.1666717529297,-69.33333587646484 A4,4 90 0 1 -172.1666717529297,-65.33333587646484 L-172.1666717529297,-61.333335876464844 L-176.1666717529297,-61.333335876464844 L-176.1666717529297,-64.33333587646484 L-180.1666717529297,-64.33333587646484 L-180.1666717529297,-54.333335876464844 L-176.1666717529297,-54.333335876464844 L-176.1666717529297,-57.333335876464844 L-172.1666717529297,-57.333335876464844 L-172.1666717529297,-40.333335876464844 L-176.1666717529297,-40.333335876464844 L-176.1666717529297,-43.333335876464844 L-180.1666717529297,-43.333335876464844 L-180.1666717529297,-33.333335876464844 L-176.1666717529297,-33.333335876464844 L-176.1666717529297,-36.333335876464844 L-172.1666717529297,-36.333335876464844 L-172.1666717529297,-32.333335876464844 A4,4 90 0 1 -176.1666717529297,-28.333335876464844 L-180.1666717529297,-28.333335876464844 L-210.1666717529297,-28.333335876464844 L-211.1666717529297,-28.333335876464844 L-211.1666717529297,-26.333335876464844 L-219.1666717529297,-26.333335876464844 L-219.1666717529297,-28.333335876464844 L-220.1666717529297,-28.333335876464844 L-224.1666717529297,-28.333335876464844 A4,4 90 0 1 -228.1666717529297,-32.333335876464844 L-228.1666717529297,-36.333335876464844 L-228.1666717529297,-57.333335876464844 L-228.1666717529297,-61.333335876464844 z" style="fill:#77C428;fill-opacity:1;stroke:#57AD02;stroke-width:1;stroke-linecap:round;stroke-opacity:1;" id="svg_114"/><text style="font-size:10px;fill:#282828;font-family:sans-serif;text-anchor:end" id="svg_115" y="-69.83333587646484" x="-228.6666717529297"><tspan x="-182.6666717529297" y="-45.833335876464844" id="svg_116">pitch</tspan></text><text style="font-size:6.666666666666667px;fill:#282828;font-family:sans-serif;text-anchor:end" id="svg_117" y="-69.83333587646484" x="-228.6666717529297"><tspan x="-182.6666717529297" y="-57.833335876464844" id="svg_118">name</tspan></text><text style="font-size:6.666666666666667px;fill:#282828;font-family:sans-serif;text-anchor:end" id="svg_119" y="-69.83333587646484" x="-228.6666717529297"><tspan x="-182.6666717529297" y="-36.833335876464844" id="svg_120">octave</tspan></text></g></g><g id="svg_121" class=""><g transform="translate(445, 422) scale(1.5)" id="svg_122"><path d="m-220.1666717529297,-69.33333587646484 L-160.1666717529297,-69.33333587646484 L-160.1666717529297,-49.333335876464844 L-220.1666717529297,-49.333335876464844 L-220.1666717529297,-57.333335876464844 L-220.1666717529297,-58.333335876464844 L-226.1666717529297,-58.333335876464844 L-226.1666717529297,-55.333335876464844 L-228.1666717529297,-55.333335876464844 L-228.1666717529297,-63.333335876464844 L-226.1666717529297,-63.333335876464844 L-226.1666717529297,-60.333335876464844 L-220.1666717529297,-60.333335876464844 L-220.1666717529297,-61.333335876464844 z" style="fill:#77C428;fill-opacity:1;stroke:#57AD02;stroke-width:1;stroke-linecap:round;stroke-opacity:1;" id="svg_123"/><text style="font-size:10px;fill:#282828;font-family:sans-serif;text-anchor:start" id="svg_124" y="-69.83333587646484" x="-228.6666717529297"><tspan x="-215.6666717529297" y="-55.833335876464844" id="svg_125">mi</tspan></text></g></g><g id="svg_126" class=""><g transform="translate(445, 454) scale(1.5)" id="svg_127"><path d="m-220.1666717529297,-69.33333587646484 L-160.1666717529297,-69.33333587646484 L-160.1666717529297,-49.333335876464844 L-220.1666717529297,-49.333335876464844 L-220.1666717529297,-57.333335876464844 L-220.1666717529297,-58.333335876464844 L-226.1666717529297,-58.333335876464844 L-226.1666717529297,-55.333335876464844 L-228.1666717529297,-55.333335876464844 L-228.1666717529297,-63.333335876464844 L-226.1666717529297,-63.333335876464844 L-226.1666717529297,-60.333335876464844 L-220.1666717529297,-60.333335876464844 L-220.1666717529297,-61.333335876464844 z" style="fill:#FF5293;fill-opacity:1;stroke:#FF2C76;stroke-width:1;stroke-linecap:round;stroke-opacity:1;" id="svg_128"/><text style="font-size:10px;fill:#282828;font-family:sans-serif;text-anchor:start" id="svg_129" y="-69.83333587646484" x="-228.6666717529297"><tspan x="-215.6666717529297" y="-55.833335876464844" id="svg_130">5</tspan></text></g></g><g id="svg_131" class=""><g id="svg_132"><g transform="translate(343, 104) scale(1.5)" id="svg_133"><path d="m-228.1666717529297,-61.333335876464844 L-228.1666717529297,-65.33333587646484 A4,4 90 0 1 -224.1666717529297,-69.33333587646484 L-220.1666717529297,-69.33333587646484 L-220.1666717529297,-67.33333587646484 L-210.1666717529297,-67.33333587646484 L-210.1666717529297,-69.33333587646484 L-201.1666717529297,-69.33333587646484 L-82.16667175292969,-69.33333587646484 L-78.16667175292969,-69.33333587646484 A4,4 90 0 1 -74.16667175292969,-65.33333587646484 L-74.16667175292969,-61.333335876464844 L-78.16667175292969,-61.333335876464844 L-78.16667175292969,-64.33333587646484 L-82.16667175292969,-64.33333587646484 L-82.16667175292969,-54.333335876464844 L-78.16667175292969,-54.333335876464844 L-78.16667175292969,-57.333335876464844 L-74.16667175292969,-57.333335876464844 L-74.16667175292969,-53.333335876464844 A4,4 90 0 1 -78.16667175292969,-49.333335876464844 L-82.16667175292969,-49.333335876464844 L-201.1666717529297,-49.333335876464844 L-202.1666717529297,-49.333335876464844 L-202.1666717529297,-47.333335876464844 L-210.1666717529297,-47.333335876464844 L-210.1666717529297,-49.333335876464844 L-211.1666717529297,-49.333335876464844 L-215.1666717529297,-49.333335876464844 A5,5 90 0 0 -220.1666717529297,-44.333335876464844 L-220.1666717529297,-40.333335876464844 L-220.1666717529297,-36.333335876464844 L-220.1666717529297,194.66666412353516 L-220.1666717529297,198.66666412353516 A5,5 90 0 0 -215.1666717529297,203.66666412353516 L-211.1666717529297,203.66666412353516 L-211.1666717529297,205.66666412353516 L-201.1666717529297,205.66666412353516 L-201.1666717529297,203.66666412353516 L-193.1666717529297,203.66666412353516 L-193.1666717529297,209.66666412353516 L-193.1666717529297,215.66666412353516 L-193.1666717529297,219.66666412353516 A4,4 90 0 1 -197.1666717529297,223.66666412353516 L-201.1666717529297,223.66666412353516 L-210.1666717529297,223.66666412353516 L-211.1666717529297,223.66666412353516 L-211.1666717529297,225.66666412353516 L-219.1666717529297,225.66666412353516 L-219.1666717529297,223.66666412353516 L-220.1666717529297,223.66666412353516 L-224.1666717529297,223.66666412353516 A4,4 90 0 1 -228.1666717529297,219.66666412353516 L-228.1666717529297,215.66666412353516 z" style="fill:#77C428;fill-opacity:1;stroke:#57AD02;stroke-width:1;stroke-linecap:round;stroke-opacity:1;" id="svg_134"/><text style="font-size:10px;fill:#282828;font-family:sans-serif;text-anchor:start" id="svg_135" y="-69.83333587646484" x="-228.6666717529297"><tspan x="-208.6666717529297" y="-54.833335876464844" id="svg_136">scalar interval (+/–)</tspan></text><text style="font-size:6.666666666666667px;fill:#282828;font-family:sans-serif;text-anchor:end" id="svg_137" y="-69.83333587646484" x="-228.6666717529297"/></g></g><g transform="translate(343, 108) scale(0.5)" id="svg_139"><g style="isolation:isolate" id="svg_140"><g id="レイヤー_2" data-name="レイヤー 2"><g id="Icon"><rect width="42" height="42" rx="5" ry="5" style="fill:#292929;opacity:0.4;mix-blend-mode:multiply" id="svg_141" y="-209.5" x="-686"/><path d="M-655.4400005340576,-179.70000076293945 l-4.170000076293945,-4.159999847412109 h2.259999990463257 a1,1 0 1 0 0,-2.069999933242798 H-662.0599994659424 a1.0800000429153442,1.0800000429153442 0 0 0 -1.1100000143051147,1 v0 s0,0 0,0.05999999865889549 v4.639999866485596 h0 a1,1 0 1 0 2.0799999237060547,0 V-182.42000007629395 l4.190000057220459,4.190000057220459 a1,1 0 0 0 1.4600000381469727,0 A1,1 0 0 0 -655.4400005340576,-179.70000076293945 z" style="fill:#fff" id="svg_142"/><path d="M-666.829999923706,-184.89999961853027 a1.0800000429153442,1.0800000429153442 0 0 0 -1.1100000143051147,-1 H-672.6499996185303 a1,1 0 1 0 0,2.069999933242798 H-670.3999996185303 L-674.5600004196167,-179.70000076293945 a1,1 0 0 0 1.4700000286102295,1.4700000286102295 l4.179999828338623,-4.190000057220459 v2.259999990463257 a1,1 0 1 0 2.0799999237060547,0 V-184.79999923706055 s0,0 0,-0.05999999865889549 A0.07999999821186066,0.07999999821186066 0 0 1 -666.829999923706,-184.89999961853027 z" style="fill:#fff" id="svg_143"/><path d="M-662.0599994659424,-189 h4.699999809265137 a1,1 0 1 0 0,-2.0799999237060547 H-659.6100006103516 l4.170000076293945,-4.159999847412109 a1,1 0 0 0 0,-1.4700000286102295 a1,1 0 0 0 -1.4600000381469727,0 L-661.0900001525879,-192.5 V-194.7799997329712 a1,1 0 1 0 -2.0799999237060547,0 v4.639999866485596 a0.4300000071525574,0.4300000071525574 0 0 0 0,0.05000000074505806 v0.05000000074505806 A1.090000033378601,1.090000033378601 0 0 0 -662.0599994659424,-189 z" style="fill:#fff" id="svg_144"/><path d="M-667.8700008392334,-195.88000011444092 a1.0800000429153442,1.0800000429153442 0 0 0 -1,1.090000033378601 V-192.5 l-4.179999828338623,-4.190000057220459 a1,1 0 0 0 -1.4700000286102295,0 a1,1 0 0 0 0,1.4600000381469727 l4.159999847412109,4.170000076293945 H-672.6499996185303 a1,1 0 1 0 0,2.0799999237060547 h4.710000038146973 a1.090000033378601,1.090000033378601 0 0 0 1.1100000143051147,-1 a0.07999999821186066,0.07999999821186066 0 0 1 0,0 s0,0 0,-0.05999999865889549 V-194.78999996185303 A1.0700000524520874,1.0700000524520874 0 0 0 -667.8700008392334,-195.88000011444092 z" style="fill:#fff" id="svg_145"/></g></g></g></g></g><g id="svg_146" class=""><g transform="translate(564, 104) scale(1.5)" id="svg_147"><path d="m-220.1666717529297,-61.333335876464844 L-220.1666717529297,-65.33333587646484 A4,4 90 0 1 -216.1666717529297,-69.33333587646484 L-212.1666717529297,-69.33333587646484 L-202.1666717529297,-69.33333587646484 L-172.1666717529297,-69.33333587646484 L-168.1666717529297,-69.33333587646484 A4,4 90 0 1 -164.1666717529297,-65.33333587646484 L-164.1666717529297,-61.333335876464844 L-168.1666717529297,-61.333335876464844 L-168.1666717529297,-64.33333587646484 L-172.1666717529297,-64.33333587646484 L-172.1666717529297,-54.333335876464844 L-168.1666717529297,-54.333335876464844 L-168.1666717529297,-57.333335876464844 L-164.1666717529297,-57.333335876464844 L-164.1666717529297,-40.333335876464844 L-168.1666717529297,-40.333335876464844 L-168.1666717529297,-43.333335876464844 L-172.1666717529297,-43.333335876464844 L-172.1666717529297,-33.333335876464844 L-168.1666717529297,-33.333335876464844 L-168.1666717529297,-36.333335876464844 L-164.1666717529297,-36.333335876464844 L-164.1666717529297,-32.333335876464844 A4,4 90 0 1 -168.1666717529297,-28.333335876464844 L-172.1666717529297,-28.333335876464844 L-202.1666717529297,-28.333335876464844 L-212.1666717529297,-28.333335876464844 L-216.1666717529297,-28.333335876464844 A4,4 90 0 1 -220.1666717529297,-32.333335876464844 L-220.1666717529297,-36.333335876464844 L-220.1666717529297,-57.333335876464844 L-220.1666717529297,-58.333335876464844 L-226.1666717529297,-58.333335876464844 L-226.1666717529297,-55.333335876464844 L-228.1666717529297,-55.333335876464844 L-228.1666717529297,-63.333335876464844 L-226.1666717529297,-63.333335876464844 L-226.1666717529297,-60.333335876464844 L-220.1666717529297,-60.333335876464844 L-220.1666717529297,-61.333335876464844 z" style="fill:#FF5293;fill-opacity:1;stroke:#FF2C76;stroke-width:1;stroke-linecap:round;stroke-opacity:1;" id="svg_148"/><text style="font-size:14px;fill:#282828;font-family:sans-serif;text-anchor:end" id="svg_149" y="-69.83333587646484" x="-228.6666717529297"><tspan x="-174.6666717529297" y="-45.833335876464844" id="svg_150">+</tspan></text><text style="font-size:9.333333333333334px;fill:#282828;font-family:sans-serif;text-anchor:end" id="svg_151" y="-69.83333587646484" x="-228.6666717529297"/><text style="font-size:9.333333333333334px;fill:#282828;font-family:sans-serif;text-anchor:end" id="svg_153" y="-69.83333587646484" x="-228.6666717529297"/></g></g><g id="svg_155" class=""><g transform="translate(650, 136) scale(1.5)" id="svg_156"><path d="m-220.1666717529297,-61.333335876464844 L-220.1666717529297,-65.33333587646484 A4,4 90 0 1 -216.1666717529297,-69.33333587646484 L-212.1666717529297,-69.33333587646484 L-202.1666717529297,-69.33333587646484 L-172.1666717529297,-69.33333587646484 L-168.1666717529297,-69.33333587646484 A4,4 90 0 1 -164.1666717529297,-65.33333587646484 L-164.1666717529297,-61.333335876464844 L-168.1666717529297,-61.333335876464844 L-168.1666717529297,-64.33333587646484 L-172.1666717529297,-64.33333587646484 L-172.1666717529297,-54.333335876464844 L-168.1666717529297,-54.333335876464844 L-168.1666717529297,-57.333335876464844 L-164.1666717529297,-57.333335876464844 L-164.1666717529297,-40.333335876464844 L-168.1666717529297,-40.333335876464844 L-168.1666717529297,-43.333335876464844 L-172.1666717529297,-43.333335876464844 L-172.1666717529297,-33.333335876464844 L-168.1666717529297,-33.333335876464844 L-168.1666717529297,-36.333335876464844 L-164.1666717529297,-36.333335876464844 L-164.1666717529297,-32.333335876464844 A4,4 90 0 1 -168.1666717529297,-28.333335876464844 L-172.1666717529297,-28.333335876464844 L-202.1666717529297,-28.333335876464844 L-212.1666717529297,-28.333335876464844 L-216.1666717529297,-28.333335876464844 A4,4 90 0 1 -220.1666717529297,-32.333335876464844 L-220.1666717529297,-36.333335876464844 L-220.1666717529297,-57.333335876464844 L-220.1666717529297,-58.333335876464844 L-226.1666717529297,-58.333335876464844 L-226.1666717529297,-55.333335876464844 L-228.1666717529297,-55.333335876464844 L-228.1666717529297,-63.333335876464844 L-226.1666717529297,-63.333335876464844 L-226.1666717529297,-60.333335876464844 L-220.1666717529297,-60.333335876464844 L-220.1666717529297,-61.333335876464844 z" style="fill:#FF5293;fill-opacity:1;stroke:#FF2C76;stroke-width:1;stroke-linecap:round;stroke-opacity:1;" id="svg_157"/><text style="font-size:14px;fill:#282828;font-family:sans-serif;text-anchor:end" id="svg_158" y="-69.83333587646484" x="-228.6666717529297"><tspan x="-174.6666717529297" y="-45.833335876464844" id="svg_159">×</tspan></text><text style="font-size:9.333333333333334px;fill:#282828;font-family:sans-serif;text-anchor:end" id="svg_160" y="-69.83333587646484" x="-228.6666717529297"/><text style="font-size:9.333333333333334px;fill:#282828;font-family:sans-serif;text-anchor:end" id="svg_162" y="-69.83333587646484" x="-228.6666717529297"/></g></g><g id="svg_164" class=""><g transform="translate(736, 136) scale(1.5)" id="svg_165"><path d="m-220.1666717529297,-69.33333587646484 L-160.1666717529297,-69.33333587646484 L-160.1666717529297,-49.333335876464844 L-220.1666717529297,-49.333335876464844 L-220.1666717529297,-57.333335876464844 L-220.1666717529297,-58.333335876464844 L-226.1666717529297,-58.333335876464844 L-226.1666717529297,-55.333335876464844 L-228.1666717529297,-55.333335876464844 L-228.1666717529297,-63.333335876464844 L-226.1666717529297,-63.333335876464844 L-226.1666717529297,-60.333335876464844 L-220.1666717529297,-60.333335876464844 L-220.1666717529297,-61.333335876464844 z" style="fill:#FF5293;fill-opacity:1;stroke:#FF2C76;stroke-width:1;stroke-linecap:round;stroke-opacity:1;" id="svg_166"/><text style="font-size:10px;fill:#282828;font-family:sans-serif;text-anchor:start" id="svg_167" y="-69.83333587646484" x="-228.6666717529297"><tspan x="-215.6666717529297" y="-55.833335876464844" id="svg_168">0</tspan></text></g></g><g id="svg_169" class=""><g transform="translate(650, 104) scale(1.5)" id="svg_170"><path d="m-220.1666717529297,-69.33333587646484 L-160.1666717529297,-69.33333587646484 L-160.1666717529297,-49.333335876464844 L-220.1666717529297,-49.333335876464844 L-220.1666717529297,-57.333335876464844 L-220.1666717529297,-58.333335876464844 L-226.1666717529297,-58.333335876464844 L-226.1666717529297,-55.333335876464844 L-228.1666717529297,-55.333335876464844 L-228.1666717529297,-63.333335876464844 L-226.1666717529297,-63.333335876464844 L-226.1666717529297,-60.333335876464844 L-220.1666717529297,-60.333335876464844 L-220.1666717529297,-61.333335876464844 z" style="fill:#FF5293;fill-opacity:1;stroke:#FF2C76;stroke-width:1;stroke-linecap:round;stroke-opacity:1;" id="svg_171"/><text style="font-size:10px;fill:#282828;font-family:sans-serif;text-anchor:start" id="svg_172" y="-69.83333587646484" x="-228.6666717529297"><tspan x="-215.6666717529297" y="-55.833335876464844" id="svg_173">4</tspan></text></g></g><g id="svg_174" class=""><g transform="translate(736, 168) scale(1.5)" id="svg_175"><path d="m-220.1666717529297,-69.33333587646484 L-120.16667175292969,-69.33333587646484 L-120.16667175292969,-49.333335876464844 L-220.1666717529297,-49.333335876464844 L-220.1666717529297,-57.333335876464844 L-220.1666717529297,-58.333335876464844 L-226.1666717529297,-58.333335876464844 L-226.1666717529297,-55.333335876464844 L-228.1666717529297,-55.333335876464844 L-228.1666717529297,-63.333335876464844 L-226.1666717529297,-63.333335876464844 L-226.1666717529297,-60.333335876464844 L-220.1666717529297,-60.333335876464844 L-220.1666717529297,-61.333335876464844 z" style="fill:#77C428;fill-opacity:1;stroke:#57AD02;stroke-width:1;stroke-linecap:round;stroke-opacity:1;" id="svg_176"/><text style="font-size:10px;fill:#282828;font-family:sans-serif;text-anchor:start" id="svg_177" y="-69.83333587646484" x="-228.6666717529297"><tspan x="-215.6666717529297" y="-55.833335876464844" id="svg_178">mode length</tspan></text></g></g><g id="svg_179" class=""><g transform="translate(357, 136) scale(1.5)" id="svg_180"><path d="m-228.1666717529297,-61.333335876464844 L-228.1666717529297,-65.33333587646484 A4,4 90 0 1 -224.1666717529297,-69.33333587646484 L-220.1666717529297,-69.33333587646484 L-220.1666717529297,-67.33333587646484 L-210.1666717529297,-67.33333587646484 L-210.1666717529297,-69.33333587646484 L-190.1666717529297,-69.33333587646484 L-186.1666717529297,-69.33333587646484 A4,4 90 0 1 -182.1666717529297,-65.33333587646484 L-182.1666717529297,-61.333335876464844 L-182.1666717529297,-57.333335876464844 L-182.1666717529297,-53.333335876464844 A4,4 90 0 1 -186.1666717529297,-49.333335876464844 L-190.1666717529297,-49.333335876464844 L-210.1666717529297,-49.333335876464844 L-211.1666717529297,-49.333335876464844 L-211.1666717529297,-47.333335876464844 L-219.1666717529297,-47.333335876464844 L-219.1666717529297,-49.333335876464844 L-220.1666717529297,-49.333335876464844 L-224.1666717529297,-49.333335876464844 A4,4 90 0 1 -228.1666717529297,-53.333335876464844 L-228.1666717529297,-57.333335876464844 z" style="fill:#B0B0B0;fill-opacity:1;stroke:#A0A0A0;stroke-width:1;stroke-linecap:round;stroke-opacity:1;" id="svg_181"/><text style="font-size:10px;fill:#282828;font-family:sans-serif;text-anchor:end" id="svg_182" y="-69.83333587646484" x="-228.6666717529297"><tspan x="-192.6666717529297" y="-55.833335876464844" id="svg_183">↓</tspan></text></g></g><g id="svg_184" class=""><g transform="translate(357, 168) scale(1.5)" id="svg_185"><path d="m-228.1666717529297,-61.333335876464844 L-228.1666717529297,-65.33333587646484 A4,4 90 0 1 -224.1666717529297,-69.33333587646484 L-220.1666717529297,-69.33333587646484 L-220.1666717529297,-67.33333587646484 L-210.1666717529297,-67.33333587646484 L-210.1666717529297,-69.33333587646484 L-190.1666717529297,-69.33333587646484 L-186.1666717529297,-69.33333587646484 A4,4 90 0 1 -182.1666717529297,-65.33333587646484 L-182.1666717529297,-61.333335876464844 L-182.1666717529297,-57.333335876464844 L-182.1666717529297,-53.333335876464844 A4,4 90 0 1 -186.1666717529297,-49.333335876464844 L-190.1666717529297,-49.333335876464844 L-210.1666717529297,-49.333335876464844 L-211.1666717529297,-49.333335876464844 L-211.1666717529297,-47.333335876464844 L-219.1666717529297,-47.333335876464844 L-219.1666717529297,-49.333335876464844 L-220.1666717529297,-49.333335876464844 L-224.1666717529297,-49.333335876464844 A4,4 90 0 1 -228.1666717529297,-53.333335876464844 L-228.1666717529297,-57.333335876464844 z" style="fill:#B0B0B0;fill-opacity:1;stroke:#A0A0A0;stroke-width:1;stroke-linecap:round;stroke-opacity:1;" id="svg_186"/><text style="font-size:10px;fill:#282828;font-family:sans-serif;text-anchor:end" id="svg_187" y="-69.83333587646484" x="-228.6666717529297"><tspan x="-192.6666717529297" y="-55.833335876464844" id="svg_188">↓</tspan></text></g></g></g></svg>