<?xml version="1.0" encoding="UTF-8" standalone="no"?>
<svg
   xmlns:dc="http://purl.org/dc/elements/1.1/"
   xmlns:cc="http://creativecommons.org/ns#"
   xmlns:rdf="http://www.w3.org/1999/02/22-rdf-syntax-ns#"
   xmlns:svg="http://www.w3.org/2000/svg"
   xmlns="http://www.w3.org/2000/svg"
   version="1.1"
   id="svg5587"
   viewBox="0 0 346 255.99999"
   height="72.248886mm"
   width="97.648888mm">
  <defs
     id="defs5589" />
  <metadata
     id="metadata5592">
    <rdf:RDF>
      <cc:Work
         rdf:about="">
        <dc:format>image/svg+xml</dc:format>
        <dc:type
           rdf:resource="http://purl.org/dc/dcmitype/StillImage" />
        <dc:title></dc:title>
      </cc:Work>
    </rdf:RDF>
  </metadata>
  <path
     style="fill:#00b700;fill-opacity:1;stroke:#007b00;stroke-width:2;stroke-linecap:round;stroke-opacity:1"
     id="path21-2-3"
     d="m 151,85.000012 120,0 0,39.999998 -120,0 0,-16 0,-2 -12,0 0,6 -4,0 0,-15.999998 4,0 0,5.999998 12,0 0,-2 z" />
  <text
     x="184"
     style="font-size:20px;font-family:Sans;text-anchor:start;fill:#000000"
     id="text23-0-6"
     y="84.000015">
    <tspan
       id="tspan25-7-2"
       y="110.00002"
       x="204">re</tspan>
  </text>
  <path
     d="m 150.99997,127.00001 120,0 0,40 -120,0 0,-16 0,-2 -12,0 0,6 -4,0 0,-16 4,0 0,6 12,0 0,-2 z"
     id="path21-6-7-2"
     style="fill:#ff00ff;fill-opacity:1;stroke:#c700d3;stroke-width:2;stroke-linecap:round;stroke-opacity:1" />
  <text
     id="text23-9-8-9"
     style="font-size:20px;font-family:Sans;text-anchor:start;fill:#000000"
     x="185.99997"
     y="126.00002">
    <tspan
       x="205.99997"
       y="152.00002"
       id="tspan25-8-2-4">4</tspan>
  </text>
  <path
     d="m 37,101.00001 0,-7.999998 a 8,8 0 0 1 8,-8 l 8,0 0,4 20,0 0,-4 60,0 8,0 a 8,8 0 0 1 8,8 l 0,7.999998 -8,0 0,-5.999998 -8,0 0,19.999998 8,0 0,-6 8,0 0,34 -8,0 0,-6 -8,0 0,20 8,0 0,-6 8,0 0,8 a 8,8 0 0 1 -8,8 l -8,0 -60,0 -2,0 0,4 -16,0 0,-4 -2,0 -8,0 a 8,8 0 0 1 -8,-8 l 0,-8 0,-42 0,-8 z"
     id="path3194-3-8"
     style="fill:#00b700;fill-opacity:1;stroke:#007b00;stroke-width:2;stroke-linecap:round;stroke-opacity:1" />
  <text
     id="text3196-7-6"
     style="font-size:20px;font-family:Sans;text-anchor:end;fill:#000000"
     x="36"
     y="84.000015">
    <tspan
       x="130"
       y="133.00002"
       id="tspan3198-0-1">pitch</tspan>
  </text>
  <text
     id="text3200-6-0"
     style="font-size:13.33333302px;font-family:Sans;text-anchor:end;fill:#000000"
     x="36"
     y="86.000015">
    <tspan
       x="130"
       y="108.50002"
       id="tspan3202-5-0">note</tspan>
  </text>
  <text
     id="text3204-9-5"
     style="font-size:13.33333302px;font-family:Sans;text-anchor:end;fill:#000000"
     x="36"
     y="88.000015">
    <tspan
       x="130"
       y="152.50002"
       id="tspan3206-0-8">octave</tspan>
  </text>
  <path
     d="m 19,59.000017 0,-8 c 0,-4.418278 3.58172,-8 8,-8 l 8,0 0,4 20,0 0,-4 18,0 60,0 8,0 c 4.41828,0 8,3.581722 8,8 l 0,8 -8,0 0,-6 -8,0 0,20 8,0 0,-6 8,0 0,8 c 0,4.418278 -3.58172,8 -8,8 l -8,0 -60,0 -2,0 0,4 -16,0 0,-4 -2,0 -8,0 c -5.52284,0 -10,4.477153 -10,10 l 0,8.000003 0,50 0,7.99999 c 0,5.52285 4.64205,11.3395 10,10 l 8,0 0,4 20,0 0,-4 16,0 0,12 0,12 0,8 c 0,4.41828 -3.71364,9.0716 -8,8 l -8,0 -18,0 -2,0 0,4 -16,0 0,-4 -2,0 -8,0 c -4.41828,0 -8,-3.58172 -8,-8 l 0,-8 z"
     id="path3035-8-1"
     style="fill:#fd6600;fill-opacity:1;stroke:#ac3d00;stroke-width:2;stroke-linecap:round;stroke-opacity:1" />
  <text
     id="text3037-0-1"
     style="font-size:20px;font-family:Sans;text-anchor:start;fill:#000000"
     y="40.000015"
     x="16.000004">
    <tspan
       x="24.000004"
       y="70.500023"
       id="tspan3039-6-1">note value</tspan>
  </text>
  <path
     d="m 151,43.00002 120,0 0,40 -120,0 0,-16 0,-2 -12,0 0,6 -4,0 0,-16 4,0 0,6 12,0 0,-2 z"
     id="path21-6-1-0-1"
     style="fill:#ff00ff;fill-opacity:1;stroke:#c700d3;stroke-width:2;stroke-linecap:round;stroke-opacity:1" />
  <text
     id="text23-9-82-5-8"
     style="font-size:20px;font-family:Sans;text-anchor:start;fill:#000000"
     x="186"
     y="44.000015">
    <tspan
       x="206"
       y="70.000023"
       id="tspan25-8-5-1-3">4</tspan>
  </text>
  <path
     d="m 1,17.000002 0,-8 c 0,-4.1887902 3.8112098,-8 8,-8 l 8,0 0,4 20,0 0,-4 18,0 152,0 8,0 c 4.18879,0 6.98407,3.9362766 8,8 l 0,8 -8,0 0,-6 -8,0 0,20 8,0 0,-6 8,0 0,8 c 0,4.18879 -3.81121,8 -8,8 l -8,0 -152,0 -2,0 0,4 -16,0 0,-4 -2,0 -8,0 c -2.617994,0 -5.219867,1.077731 -7.071068,2.928932 C 18.077731,45.780135 17,48.382008 17,51.000002 l 0,8 L 17,193 l 0,8 c 0,2.61799 1.077731,5.21987 2.928932,7.07107 C 21.780133,209.92227 24.382006,211 27,211 l 8,0 0,4 20,0 0,-4 16,0 0,12 0,12 0,8 c 0,4.18879 -3.936277,9.01593 -8,8 l -8,0 -18,0 -2,0 0,4 -16,0 0,-4 -2,0 -8,0 c -4.1887902,0 -8,-3.81121 -8,-8 l 0,-8 z"
     id="path3035-3"
     style="fill:#fd6600;fill-opacity:1;stroke:#ac3d00;stroke-width:2;stroke-linecap:round;stroke-opacity:1" />
  <text
     id="text3037-9"
     style="font-size:20px;font-family:Sans;text-anchor:start;fill:#000000"
     y="-1.999998">
    <tspan
       x="8"
       y="28.500002"
       id="tspan3039-6">multiply beat value</tspan>
  </text>
  <path
     d="m 225,1 120,0 0,40 -120,0 0,-16 0,-2 -12,0 0,6 -4,0 0,-16 4,0 0,6 12,0 0,-2 z"
     id="path21-6-7-2-2"
     style="fill:#ff00ff;fill-opacity:1;stroke:#c700d3;stroke-width:2;stroke-linecap:round;stroke-opacity:1" />
  <text
     id="text23-9-8-9-3"
     style="font-size:20px;font-family:Sans;text-anchor:start;fill:#000000"
     x="260"
     y="3.6181657e-07">
    <tspan
       x="280"
       y="26"
       id="tspan25-8-2-4-8">2</tspan>
  </text>
</svg>
