<?xml version="1.0" encoding="UTF-8" standalone="no"?>
<svg
   xmlns:dc="http://purl.org/dc/elements/1.1/"
   xmlns:cc="http://creativecommons.org/ns#"
   xmlns:rdf="http://www.w3.org/1999/02/22-rdf-syntax-ns#"
   xmlns:svg="http://www.w3.org/2000/svg"
   xmlns="http://www.w3.org/2000/svg"
   width="185.625"
   height="431.10291"
   viewBox="0 0 185.625 431.1029"
   id="svg4075"
   version="1.1">
  <defs
     id="defs4077" />
  <metadata
     id="metadata4080">
    <rdf:RDF>
      <cc:Work
         rdf:about="">
        <dc:format>image/svg+xml</dc:format>
        <dc:type
           rdf:resource="http://purl.org/dc/dcmitype/StillImage" />
        <dc:title></dc:title>
      </cc:Work>
    </rdf:RDF>
  </metadata>
  <text
     style="font-size:13.33333302px;font-family:Sans;text-anchor:end;fill:#000000"
     id="text3033"
     y="-383.72784"
     x="895.4035">
    <tspan
       id="tspan3035"
       y="-361.22784"
       x="997.4035" />
  </text>
  <text
     style="font-size:13.33333302px;font-family:Sans;text-anchor:end;fill:#000000"
     id="text3107"
     y="-318.76425"
     x="913.4035">
    <tspan
       id="tspan3109"
       y="-296.26425"
       x="1007.4035" />
  </text>
  <text
     style="font-size:13.33333302px;font-family:Sans;text-anchor:end;fill:#000000"
     id="text3033-0"
     y="-299.72784"
     x="895.4035">
    <tspan
       id="tspan3035-1"
       y="-277.22784"
       x="997.4035" />
  </text>
  <text
     style="font-size:13.33333302px;font-family:Sans;text-anchor:end;fill:#000000"
     id="text3033-1"
     y="-215.72787"
     x="895.4035">
    <tspan
       id="tspan3035-8"
       y="-193.22787"
       x="997.4035" />
  </text>
  <text
     style="font-size:13.33333302px;font-family:Sans;text-anchor:end;fill:#000000"
     id="text3033-0-9"
     y="-131.72787"
     x="895.4035">
    <tspan
       id="tspan3035-1-5"
       y="-109.22787"
       x="997.4035" />
  </text>
  <g
     id="g1167"
     transform="matrix(0.93750002,0,0,0.93750002,25.3125,67.895191)">
    <g
       id="g1165"
       transform="scale(1.5)">
      <path
         id="path1159"
         style="fill:#ffe05c;fill-opacity:1;stroke:#644300;stroke-width:1;stroke-linecap:round;stroke-opacity:1"
         d="m 0.5,8.5 v -4 a 4,4 90 0 1 4,-4 h 4 v 2 h 10 v -2 h 40 4 a 4,4 90 0 1 4,4 v 4 4 4 a 4,4 90 0 1 -4,4 h -4 -40 -1 v 2 h -8 v -2 h -1 -4 a 4,4 90 0 1 -4,-4 v -4 z" />
      <text
         id="text1163"
         style="font-size:10px;font-family:sans-serif;text-anchor:end;fill:#000000">
        <tspan
           id="tspan1161"
           y="13.5"
           x="56.333332">chunk0</tspan>
      </text>
    </g>
  </g>
  <g
     id="g1397"
     transform="matrix(0.93750002,0,0,0.93750002,25.3125,156.48895)">
    <g
       id="g1395"
       transform="scale(1.5)">
      <path
         id="path1389"
         style="fill:#ffe05c;fill-opacity:1;stroke:#644300;stroke-width:1;stroke-linecap:round;stroke-opacity:1"
         d="m 0.5,8.5 v -4 a 4,4 90 0 1 4,-4 h 4 v 2 h 10 v -2 h 40 4 a 4,4 90 0 1 4,4 v 4 4 4 a 4,4 90 0 1 -4,4 h -4 -40 -1 v 2 h -8 v -2 h -1 -4 a 4,4 90 0 1 -4,-4 v -4 z" />
      <text
         id="text1393"
         style="font-size:10px;font-family:sans-serif;text-anchor:end;fill:#000000">
        <tspan
           id="tspan1391"
           y="13.5"
           x="56.333332">chunk1</tspan>
      </text>
    </g>
  </g>
  <g
     id="g1803"
     transform="matrix(0.93750002,0,0,0.93750002,25.3125,245.0827)">
    <g
       id="g1801"
       transform="scale(1.5)">
      <path
         id="path1795"
         style="fill:#ffe05c;fill-opacity:1;stroke:#644300;stroke-width:1;stroke-linecap:round;stroke-opacity:1"
         d="m 0.5,8.5 v -4 a 4,4 90 0 1 4,-4 h 4 v 2 h 10 v -2 h 40 4 a 4,4 90 0 1 4,4 v 4 4 4 a 4,4 90 0 1 -4,4 h -4 -40 -1 v 2 h -8 v -2 h -1 -4 a 4,4 90 0 1 -4,-4 v -4 z" />
      <text
         id="text1799"
         style="font-size:10px;font-family:sans-serif;text-anchor:end;fill:#000000">
        <tspan
           id="tspan1797"
           y="13.5"
           x="56.333332">chunk2</tspan>
      </text>
    </g>
  </g>
  <g
     id="g2023"
     transform="matrix(0.93750002,0,0,0.93750002,25.3125,333.67645)">
    <g
       id="g2021"
       transform="scale(1.5)">
      <path
         id="path2015"
         style="fill:#ffe05c;fill-opacity:1;stroke:#644300;stroke-width:1;stroke-linecap:round;stroke-opacity:1"
         d="m 0.5,8.5 v -4 a 4,4 90 0 1 4,-4 h 4 v 2 h 10 v -2 h 40 4 a 4,4 90 0 1 4,4 v 4 4 4 a 4,4 90 0 1 -4,4 h -4 -40 -1 v 2 h -8 v -2 h -1 -4 a 4,4 90 0 1 -4,-4 v -4 z" />
      <text
         id="text2019"
         style="font-size:10px;font-family:sans-serif;text-anchor:end;fill:#000000">
        <tspan
           id="tspan2017"
           y="13.5"
           x="56.333332">chunk3</tspan>
      </text>
    </g>
  </g>
  <g
     id="g2037"
     transform="matrix(0.93750002,0,0,0.93750002,0,0.39519137)">
    <g
       id="g2035"
       transform="scale(1.5)">
      <path
         id="path2025"
         style="fill:#ffe05c;fill-opacity:1;stroke:#644300;stroke-width:1;stroke-linecap:round;stroke-opacity:1"
         d="m 0.5,14.5 v -4 a 4,4 90 0 1 4,-4 h 4 l 5,-6 5,6 h 9 35 4 a 4,4 90 0 1 4,4 v 4 h -4 v -3 h -4 v 10 h 4 v -3 h 4 v 4 a 4,4 90 0 1 -4,4 h -4 -35 -1 v 2 h -8 v -2 h -1 -4 a 5,5 90 0 0 -5,5 v 4 4 231 4 a 5,5 90 0 0 5,5 h 4 v 2 h 10 v -2 h 8 v 6 6 4 a 4,4 90 0 1 -4,4 h -4 -9 l -5,6 -5,-6 h -4 a 4,4 90 0 1 -4,-4 v -4 z" />
      <text
         id="text2029"
         style="font-size:10px;font-family:sans-serif;text-anchor:start;fill:#000000">
        <tspan
           id="tspan2027"
           y="21.5"
           x="5.3333335">action</tspan>
      </text>
      <text
         id="text2033"
         style="font-size:6.66666651px;font-family:sans-serif;text-anchor:end;fill:#000000">
        <tspan
           id="tspan2031"
           y="5.25"
           x="60.333332" />
      </text>
    </g>
  </g>
  <g
     id="g2047"
     transform="matrix(0.93750002,0,0,0.93750002,88.59375,8.8326914)">
    <g
       id="g2045"
       transform="scale(1.5)">
      <path
         id="path2039"
         style="fill:#76dbd7;fill-opacity:1;stroke:#003b41;stroke-width:1;stroke-linecap:round;stroke-opacity:1"
         d="m 8.5,0.5 h 60 v 20 h -60 v -8 -1 h -6 v 3 h -2 v -8 h 2 v 3 h 6 v -1 z" />
      <text
         id="text2043"
         style="font-size:10px;font-family:sans-serif;text-anchor:start;fill:#000000">
        <tspan
           id="tspan2041"
           y="13.833333"
           x="13.333333">action</tspan>
      </text>
    </g>
  </g>
  <g
     id="g2121"
     transform="matrix(0.93750002,0,0,0.93750002,12.65625,126.9577)">
    <g
       id="g2119"
       transform="scale(1.5)">
      <path
         id="path2109"
         style="fill:#e9a066;fill-opacity:1;stroke:#3f0a00;stroke-width:1;stroke-linecap:round;stroke-opacity:1"
         d="m 0.5,8.5 v -4 a 4,4 90 0 1 4,-4 h 4 v 2 h 10 v -2 h 9 20 4 a 4,4 90 0 1 4,4 v 4 h -4 v -3 h -4 v 10 h 4 v -3 h 4 v 4 a 4,4 90 0 1 -4,4 h -4 -20 -1 v 2 h -8 v -2 h -1 -4 a 5,5 90 0 0 -5,5 v 4 4 4 a 5,5 90 0 0 5,5 h 4 v 2 h 10 v -2 h 8 v 6 6 4 a 4,4 90 0 1 -4,4 h -4 -9 -1 v 2 h -8 v -2 h -1 -4 a 4,4 90 0 1 -4,-4 v -4 z" />
      <text
         id="text2113"
         style="font-size:10px;font-family:sans-serif;text-anchor:start;fill:#000000">
        <tspan
           id="tspan2111"
           y="15.25"
           x="5.3333335">repeat</tspan>
      </text>
      <text
         id="text2117"
         style="font-size:6.66666651px;font-family:sans-serif;text-anchor:end;fill:#000000">
        <tspan
           id="tspan2115"
           y="11.25"
           x="45.333332" />
      </text>
    </g>
  </g>
  <g
     id="g2131"
     transform="matrix(0.93750002,0,0,0.93750002,80.15625,126.9577)">
    <g
       id="g2129"
       transform="scale(1.5)">
      <path
         id="path2123"
         style="fill:#ffb2bc;fill-opacity:1;stroke:#601136;stroke-width:1;stroke-linecap:round;stroke-opacity:1"
         d="m 8.5,0.5 h 60 v 20 h -60 v -8 -1 h -6 v 3 h -2 v -8 h 2 v 3 h 6 v -1 z" />
      <text
         id="text2127"
         style="font-size:10px;font-family:sans-serif;text-anchor:start;fill:#000000">
        <tspan
           id="tspan2125"
           y="13.833333"
           x="13.333333">2</tspan>
      </text>
    </g>
  </g>
  <g
     id="g2145"
     transform="matrix(0.93750002,0,0,0.93750002,12.65625,215.55145)">
    <g
       id="g2143"
       transform="scale(1.5)">
      <path
         id="path2133"
         style="fill:#e9a066;fill-opacity:1;stroke:#3f0a00;stroke-width:1;stroke-linecap:round;stroke-opacity:1"
         d="m 0.5,8.5 v -4 a 4,4 90 0 1 4,-4 h 4 v 2 h 10 v -2 h 9 20 4 a 4,4 90 0 1 4,4 v 4 h -4 v -3 h -4 v 10 h 4 v -3 h 4 v 4 a 4,4 90 0 1 -4,4 h -4 -20 -1 v 2 h -8 v -2 h -1 -4 a 5,5 90 0 0 -5,5 v 4 4 4 a 5,5 90 0 0 5,5 h 4 v 2 h 10 v -2 h 8 v 6 6 4 a 4,4 90 0 1 -4,4 h -4 -9 -1 v 2 h -8 v -2 h -1 -4 a 4,4 90 0 1 -4,-4 v -4 z" />
      <text
         id="text2137"
         style="font-size:10px;font-family:sans-serif;text-anchor:start;fill:#000000">
        <tspan
           id="tspan2135"
           y="15.25"
           x="5.3333335">repeat</tspan>
      </text>
      <text
         id="text2141"
         style="font-size:6.66666651px;font-family:sans-serif;text-anchor:end;fill:#000000">
        <tspan
           id="tspan2139"
           y="11.25"
           x="45.333332" />
      </text>
    </g>
  </g>
  <g
     id="g2155"
     transform="matrix(0.93750002,0,0,0.93750002,80.15625,215.55145)">
    <g
       id="g2153"
       transform="scale(1.5)">
      <path
         id="path2147"
         style="fill:#ffb2bc;fill-opacity:1;stroke:#601136;stroke-width:1;stroke-linecap:round;stroke-opacity:1"
         d="m 8.5,0.5 h 60 v 20 h -60 v -8 -1 h -6 v 3 h -2 v -8 h 2 v 3 h 6 v -1 z" />
      <text
         id="text2151"
         style="font-size:10px;font-family:sans-serif;text-anchor:start;fill:#000000">
        <tspan
           id="tspan2149"
           y="13.833333"
           x="13.333333">2</tspan>
      </text>
    </g>
  </g>
  <g
     id="g2169"
     transform="matrix(0.93750002,0,0,0.93750002,12.65625,304.1452)">
    <g
       id="g2167"
       transform="scale(1.5)">
      <path
         id="path2157"
         style="fill:#e9a066;fill-opacity:1;stroke:#3f0a00;stroke-width:1;stroke-linecap:round;stroke-opacity:1"
         d="m 0.5,8.5 v -4 a 4,4 90 0 1 4,-4 h 4 v 2 h 10 v -2 h 9 20 4 a 4,4 90 0 1 4,4 v 4 h -4 v -3 h -4 v 10 h 4 v -3 h 4 v 4 a 4,4 90 0 1 -4,4 h -4 -20 -1 v 2 h -8 v -2 h -1 -4 a 5,5 90 0 0 -5,5 v 4 4 4 a 5,5 90 0 0 5,5 h 4 v 2 h 10 v -2 h 8 v 6 6 4 a 4,4 90 0 1 -4,4 h -4 -9 -1 v 2 h -8 v -2 h -1 -4 a 4,4 90 0 1 -4,-4 v -4 z" />
      <text
         id="text2161"
         style="font-size:10px;font-family:sans-serif;text-anchor:start;fill:#000000">
        <tspan
           id="tspan2159"
           y="15.25"
           x="5.3333335">repeat</tspan>
      </text>
      <text
         id="text2165"
         style="font-size:6.66666651px;font-family:sans-serif;text-anchor:end;fill:#000000">
        <tspan
           id="tspan2163"
           y="11.25"
           x="45.333332" />
      </text>
    </g>
  </g>
  <g
     id="g2179"
     transform="matrix(0.93750002,0,0,0.93750002,80.15625,304.1452)">
    <g
       id="g2177"
       transform="scale(1.5)">
      <path
         id="path2171"
         style="fill:#ffb2bc;fill-opacity:1;stroke:#601136;stroke-width:1;stroke-linecap:round;stroke-opacity:1"
         d="m 8.5,0.5 h 60 v 20 h -60 v -8 -1 h -6 v 3 h -2 v -8 h 2 v 3 h 6 v -1 z" />
      <text
         id="text2175"
         style="font-size:10px;font-family:sans-serif;text-anchor:start;fill:#000000">
        <tspan
           id="tspan2173"
           y="13.833333"
           x="13.333333">2</tspan>
      </text>
    </g>
  </g>
  <g
     id="g2193"
     transform="matrix(0.93750002,0,0,0.93750002,12.65625,38.363941)">
    <g
       id="g2191"
       transform="scale(1.5)">
      <path
         id="path2181"
         style="fill:#e9a066;fill-opacity:1;stroke:#3f0a00;stroke-width:1;stroke-linecap:round;stroke-opacity:1"
         d="m 0.5,8.5 v -4 a 4,4 90 0 1 4,-4 h 4 v 2 h 10 v -2 h 9 20 4 a 4,4 90 0 1 4,4 v 4 h -4 v -3 h -4 v 10 h 4 v -3 h 4 v 4 a 4,4 90 0 1 -4,4 h -4 -20 -1 v 2 h -8 v -2 h -1 -4 a 5,5 90 0 0 -5,5 v 4 4 4 a 5,5 90 0 0 5,5 h 4 v 2 h 10 v -2 h 8 v 6 6 4 a 4,4 90 0 1 -4,4 h -4 -9 -1 v 2 h -8 v -2 h -1 -4 a 4,4 90 0 1 -4,-4 v -4 z" />
      <text
         id="text2185"
         style="font-size:10px;font-family:sans-serif;text-anchor:start;fill:#000000">
        <tspan
           id="tspan2183"
           y="15.25"
           x="5.3333335">repeat</tspan>
      </text>
      <text
         id="text2189"
         style="font-size:6.66666651px;font-family:sans-serif;text-anchor:end;fill:#000000">
        <tspan
           id="tspan2187"
           y="11.25"
           x="45.333332" />
      </text>
    </g>
  </g>
  <g
     id="g2203"
     transform="matrix(0.93750002,0,0,0.93750002,80.15625,38.363941)">
    <g
       id="g2201"
       transform="scale(1.5)">
      <path
         id="path2195"
         style="fill:#ffb2bc;fill-opacity:1;stroke:#601136;stroke-width:1;stroke-linecap:round;stroke-opacity:1"
         d="m 8.5,0.5 h 60 v 20 h -60 v -8 -1 h -6 v 3 h -2 v -8 h 2 v 3 h 6 v -1 z" />
      <text
         id="text2199"
         style="font-size:10px;font-family:sans-serif;text-anchor:start;fill:#000000">
        <tspan
           id="tspan2197"
           y="13.833333"
           x="13.333333">2</tspan>
      </text>
    </g>
  </g>
</svg>
