<?xml version="1.0" encoding="UTF-8" standalone="no"?>
<svg
   xmlns:dc="http://purl.org/dc/elements/1.1/"
   xmlns:cc="http://creativecommons.org/ns#"
   xmlns:rdf="http://www.w3.org/1999/02/22-rdf-syntax-ns#"
   xmlns:svg="http://www.w3.org/2000/svg"
   xmlns="http://www.w3.org/2000/svg"
   id="svg3045"
   version="1.1"
   viewBox="0 0 88.767708 75.803123"
   height="75.803123mm"
   width="88.767708mm">
  <defs
     id="defs3039" />
  <metadata
     id="metadata3042">
    <rdf:RDF>
      <cc:Work
         rdf:about="">
        <dc:format>image/svg+xml</dc:format>
        <dc:type
           rdf:resource="http://purl.org/dc/dcmitype/StillImage" />
        <dc:title></dc:title>
      </cc:Work>
    </rdf:RDF>
  </metadata>
  <g
     transform="translate(11.121949,-241.71153)"
     id="layer1">
    <g
       transform="matrix(0.26458333,0,0,0.26458333,-11.121949,241.71153)"
       id="g1308">
      <g
         id="g1306"
         transform="scale(1.5)">
        <path
           id="path1288"
           style="fill:#3edcdd;fill-opacity:1;stroke:#1dbcbd;stroke-width:1;stroke-linecap:round;stroke-opacity:1"
           d="m 0.5,8.5 v -4 a 4,4 90 0 1 4,-4 h 4 v 2 h 10 v -2 h 9 20.014648 4 a 4,4 90 0 1 4,4 v 4 h -4 v -3 h -4 v 10 h 4 v -3 h 4 v 17 h -4 v -3 h -4 v 10 h 4 v -3 h 4 v 17 h -4 v -3 h -4 v 10 h 4 v -3 h 4 v 4 a 4,4 90 0 1 -4,4 h -4 H 27.5 h -1 v 2 h -8 v -2 h -1 -4 a 5,5 90 0 0 -5,5 v 4 4 84 4 a 5,5 90 0 0 5,5 h 4 v 2 h 10 v -2 h 8 v 6 6 4 a 4,4 90 0 1 -4,4 h -4 -9 -1 v 2 h -8 v -2 h -1 -4 a 4,4 90 0 1 -4,-4 v -4 z" />
        <text
           id="text1292"
           style="font-size:10px;font-family:sans-serif;text-anchor:start;fill:#282828">
          <tspan
             id="tspan1290"
             y="22"
             x="5">coro</tspan>
        </text>
        <text
           id="text1296"
           style="font-size:6.66666651px;font-family:sans-serif;text-anchor:end;fill:#282828">
          <tspan
             id="tspan1294"
             y="12"
             x="45">velocidad</tspan>
        </text>
        <text
           id="text1300"
           style="font-size:6.66666651px;font-family:sans-serif;text-anchor:end;fill:#282828">
          <tspan
             id="tspan1298"
             y="33"
             x="45">retraso (MS)</tspan>
        </text>
        <text
           id="text1304"
           style="font-size:6.66666651px;font-family:sans-serif;text-anchor:end;fill:#282828">
          <tspan
             id="tspan1302"
             y="54"
             x="45">intensidad</tspan>
        </text>
      </g>
    </g>
    <g
       id="g1318"
       transform="matrix(0.26458333,0,0,0.26458333,7.9280509,241.71153)">
      <g
         id="g1316"
         transform="scale(1.5)">
        <path
           id="path1310"
           style="fill:#ff6ea1;fill-opacity:1;stroke:#ff2c76;stroke-width:1;stroke-linecap:round;stroke-opacity:1"
           d="m 8.5,0.5 h 60 v 20 h -60 v -8 -1 h -6 v 3 h -2 v -8 h 2 v 3 h 6 v -1 z" />
        <text
           id="text1314"
           style="font-size:10px;font-family:sans-serif;text-anchor:start;fill:#282828">
          <tspan
             id="tspan1312"
             y="14"
             x="13">1.5</tspan>
        </text>
      </g>
    </g>
    <g
       id="g1328"
       transform="matrix(0.26458333,0,0,0.26458333,7.9280509,250.1782)">
      <g
         id="g1326"
         transform="scale(1.5)">
        <path
           id="path1320"
           style="fill:#ff6ea1;fill-opacity:1;stroke:#ff2c76;stroke-width:1;stroke-linecap:round;stroke-opacity:1"
           d="m 8.5,0.5 h 60 v 20 h -60 v -8 -1 h -6 v 3 h -2 v -8 h 2 v 3 h 6 v -1 z" />
        <text
           id="text1324"
           style="font-size:10px;font-family:sans-serif;text-anchor:start;fill:#282828">
          <tspan
             id="tspan1322"
             y="14"
             x="13">3.5</tspan>
        </text>
      </g>
    </g>
    <g
       id="g1338"
       transform="matrix(0.26458333,0,0,0.26458333,7.9280509,258.38028)">
      <g
         id="g1336"
         transform="scale(1.5)">
        <path
           id="path1330"
           style="fill:#ff6ea1;fill-opacity:1;stroke:#ff2c76;stroke-width:1;stroke-linecap:round;stroke-opacity:1"
           d="m 8.5,0.5 h 60 v 20 h -60 v -8 -1 h -6 v 3 h -2 v -8 h 2 v 3 h 6 v -1 z" />
        <text
           id="text1334"
           style="font-size:10px;font-family:sans-serif;text-anchor:start;fill:#282828">
          <tspan
             id="tspan1332"
             y="14"
             x="13">70</tspan>
        </text>
      </g>
    </g>
    <g
       id="g1562"
       transform="matrix(0.26458333,0,0,0.26458333,-291.05112,211.81362)">
      <g
         id="g1542"
         transform="translate(1072,208)">
        <g
           id="g1540"
           transform="scale(1.5)">
          <path
             id="path1530"
             style="fill:#fe994f;fill-opacity:1;stroke:#e86b0e;stroke-width:1;stroke-linecap:round;stroke-opacity:1"
             d="m 0.5,8.5 v -4 a 4,4 90 0 1 4,-4 h 4 v 2 h 10 v -2 h 9 60 4 a 4,4 90 0 1 4,4 v 4 h -4 v -3 h -4 v 10 h 4 v -3 h 4 v 4 a 4,4 90 0 1 -4,4 h -4 -60 -1 v 2 h -8 v -2 h -1 -4 a 5,5 90 0 0 -5,5 v 4 4 42 4 a 5,5 90 0 0 5,5 h 4 v 2 h 10 v -2 h 8 v 6 6 4 a 4,4 90 0 1 -4,4 h -4 -9 -1 v 2 h -8 v -2 h -1 -4 a 4,4 90 0 1 -4,-4 v -4 z" />
          <text
             id="text1534"
             style="font-size:10px;font-family:sans-serif;text-anchor:start;fill:#282828">
            <tspan
               id="tspan1532"
               y="15"
               x="20">nota</tspan>
          </text>
          <text
             id="text1538"
             style="font-size:6.66666651px;font-family:sans-serif;text-anchor:end;fill:#282828">
            <tspan
               id="tspan1536"
               y="12"
               x="85">valor</tspan>
          </text>
        </g>
      </g>
      <g
         id="g1560"
         transform="matrix(0.5,0,0,0.5,1072,212)">
        <g
           id="g1558"
           style="isolation:isolate">
          <g
             data-name="レイヤー 2"
             id="g1556">
            <g
               id="g1554">
              <rect
                 id="rect1544"
                 style="opacity:0.4;mix-blend-mode:multiply;fill:#292929"
                 ry="5"
                 rx="5"
                 height="42"
                 width="42"
                 x="0"
                 y="0" />
              <path
                 id="path1546"
                 style="fill:#ffffff"
                 d="m 30.56,29.8 -4.17,-4.16 h 2.26 a 1.035,1.035 0 1 0 0,-2.07 h -4.71 a 1.08,1.08 0 0 0 -1.11,1 v 0 c 0,0 0,0 0,0.06 v 4.64 0 a 1.04,1.04 0 1 0 2.08,0 v -2.19 l 4.19,4.19 a 1,1 0 0 0 1.46,0 1,1 0 0 0 0,-1.47 z" />
              <path
                 id="path1548"
                 style="fill:#ffffff"
                 d="m 19.17,24.6 a 1.08,1.08 0 0 0 -1.11,-1 h -4.71 a 1.035,1.035 0 1 0 0,2.07 h 2.25 l -4.16,4.13 a 1.039447,1.039447 0 0 0 1.47,1.47 l 4.18,-4.19 v 2.26 a 1.04,1.04 0 1 0 2.08,0 V 24.7 c 0,0 0,0 0,-0.06 a 0.08,0.08 0 0 1 0,-0.04 z" />
              <path
                 id="path1550"
                 style="fill:#ffffff"
                 d="m 23.94,20.5 h 4.7 a 1.04,1.04 0 1 0 0,-2.08 h -2.25 l 4.17,-4.16 a 1,1 0 0 0 0,-1.47 1,1 0 0 0 -1.46,0 L 24.91,17 v -2.28 a 1.04,1.04 0 1 0 -2.08,0 v 4.64 a 0.43,0.43 0 0 0 0,0.05 v 0.05 a 1.09,1.09 0 0 0 1.11,1.04 z" />
              <path
                 id="path1552"
                 style="fill:#ffffff"
                 d="m 18.13,13.62 a 1.08,1.08 0 0 0 -1,1.09 V 17 l -4.18,-4.19 a 1,1 0 0 0 -1.47,0 1,1 0 0 0 0,1.46 l 4.16,4.17 h -2.29 a 1.04,1.04 0 1 0 0,2.08 h 4.71 a 1.09,1.09 0 0 0 1.11,-1 c 0,0 0,0 0,-0.06 v -4.75 a 1.07,1.07 0 0 0 -1.04,-1.09 z" />
            </g>
          </g>
        </g>
      </g>
    </g>
    <g
       id="g1580"
       transform="matrix(0.26458333,0,0,0.26458333,27.507218,266.84695)">
      <g
         id="g1578"
         transform="scale(1.5)">
        <path
           id="path1564"
           style="fill:#ff6ea1;fill-opacity:1;stroke:#ff2c76;stroke-width:1;stroke-linecap:round;stroke-opacity:1"
           d="m 8.5,8.5 v -4 a 4,4 90 0 1 4,-4 h 4 10 30 4 a 4,4 90 0 1 4,4 v 4 h -4 v -3 h -4 v 10 h 4 v -3 h 4 v 17 h -4 v -3 h -4 v 10 h 4 v -3 h 4 v 4 a 4,4 90 0 1 -4,4 h -4 -30 -10 -4 a 4,4 90 0 1 -4,-4 v -4 -21 -1 h -6 v 3 h -2 v -8 h 2 v 3 h 6 z" />
        <text
           id="text1568"
           style="font-size:9px;font-family:sans-serif;text-anchor:end;fill:#282828">
          <tspan
             id="tspan1566"
             y="23"
             x="54">➗</tspan>
        </text>
        <text
           id="text1572"
           style="font-size:6px;font-family:sans-serif;text-anchor:end;fill:#282828">
          <tspan
             id="tspan1570"
             y="12"
             x="54" />
        </text>
        <text
           id="text1576"
           style="font-size:6px;font-family:sans-serif;text-anchor:end;fill:#282828">
          <tspan
             id="tspan1574"
             y="33"
             x="54" />
        </text>
      </g>
    </g>
    <g
       id="g1590"
       transform="matrix(0.26458333,0,0,0.26458333,50.261384,266.84695)">
      <g
         id="g1588"
         transform="scale(1.5)">
        <path
           id="path1582"
           style="fill:#ff6ea1;fill-opacity:1;stroke:#ff2c76;stroke-width:1;stroke-linecap:round;stroke-opacity:1"
           d="m 8.5,0.5 h 60 v 20 h -60 v -8 -1 h -6 v 3 h -2 v -8 h 2 v 3 h 6 v -1 z" />
        <text
           id="text1586"
           style="font-size:10px;font-family:sans-serif;text-anchor:start;fill:#282828">
          <tspan
             id="tspan1584"
             y="14"
             x="13">1</tspan>
        </text>
      </g>
    </g>
    <g
       id="g1600"
       transform="matrix(0.26458333,0,0,0.26458333,50.261384,275.31362)">
      <g
         id="g1598"
         transform="scale(1.5)">
        <path
           id="path1592"
           style="fill:#ff6ea1;fill-opacity:1;stroke:#ff2c76;stroke-width:1;stroke-linecap:round;stroke-opacity:1"
           d="m 8.5,0.5 h 60 v 20 h -60 v -8 -1 h -6 v 3 h -2 v -8 h 2 v 3 h 6 v -1 z" />
        <text
           id="text1596"
           style="font-size:10px;font-family:sans-serif;text-anchor:start;fill:#282828">
          <tspan
             id="tspan1594"
             y="14"
             x="13">4</tspan>
        </text>
      </g>
    </g>
    <g
       id="g1610"
       transform="matrix(0.26458333,0,0,0.26458333,-3.7136158,275.31362)">
      <g
         id="g1608"
         transform="scale(1.5)">
        <path
           id="path1602"
           style="fill:#c4c4c4;fill-opacity:1;stroke:#a0a0a0;stroke-width:1;stroke-linecap:round;stroke-opacity:1"
           d="m 0.5,8.5 v -4 a 4,4 90 0 1 4,-4 h 4 v 2 h 10 v -2 h 20 4 a 4,4 90 0 1 4,4 v 4 4 4 a 4,4 90 0 1 -4,4 h -4 -20 -1 v 2 h -8 v -2 h -1 -4 a 4,4 90 0 1 -4,-4 v -4 z" />
        <text
           id="text1606"
           style="font-size:10px;font-family:sans-serif;text-anchor:end;fill:#282828">
          <tspan
             id="tspan1604"
             y="14"
             x="36">↓</tspan>
        </text>
      </g>
    </g>
    <g
       id="g1628"
       transform="matrix(0.26458333,0,0,0.26458333,-3.7136158,283.78028)">
      <g
         id="g1626"
         transform="scale(1.5)">
        <path
           id="path1612"
           style="fill:#7cd622;fill-opacity:1;stroke:#57ad02;stroke-width:1;stroke-linecap:round;stroke-opacity:1"
           d="m 0.5,8.5 v -4 a 4,4 90 0 1 4,-4 h 4 v 2 h 10 v -2 h 30 4 a 4,4 90 0 1 4,4 v 4 h -4 v -3 h -4 v 10 h 4 v -3 h 4 v 17 h -4 v -3 h -4 v 10 h 4 v -3 h 4 v 4 a 4,4 90 0 1 -4,4 h -4 -30 -1 v 2 h -8 v -2 h -1 -4 a 4,4 90 0 1 -4,-4 v -4 -21 z" />
        <text
           id="text1616"
           style="font-size:10px;font-family:sans-serif;text-anchor:end;fill:#282828">
          <tspan
             id="tspan1614"
             y="24"
             x="46">tono</tspan>
        </text>
        <text
           id="text1620"
           style="font-size:6.66666651px;font-family:sans-serif;text-anchor:end;fill:#282828">
          <tspan
             id="tspan1618"
             y="12"
             x="46">nombre</tspan>
        </text>
        <text
           id="text1624"
           style="font-size:6.66666651px;font-family:sans-serif;text-anchor:end;fill:#282828">
          <tspan
             id="tspan1622"
             y="33"
             x="46">octava</tspan>
        </text>
      </g>
    </g>
    <g
       id="g1638"
       transform="matrix(0.26458333,0,0,0.26458333,15.865551,283.78028)">
      <g
         id="g1636"
         transform="scale(1.5)">
        <path
           id="path1630"
           style="fill:#7cd622;fill-opacity:1;stroke:#57ad02;stroke-width:1;stroke-linecap:round;stroke-opacity:1"
           d="m 8.5,0.5 h 60 v 20 h -60 v -8 -1 h -6 v 3 h -2 v -8 h 2 v 3 h 6 v -1 z" />
        <text
           id="text1634"
           style="font-size:10px;font-family:sans-serif;text-anchor:start;fill:#282828">
          <tspan
             id="tspan1632"
             y="14"
             x="13">sol</tspan>
        </text>
      </g>
    </g>
    <g
       id="g1648"
       transform="matrix(0.26458333,0,0,0.26458333,15.865551,292.24695)">
      <g
         id="g1646"
         transform="scale(1.5)">
        <path
           id="path1640"
           style="fill:#ff6ea1;fill-opacity:1;stroke:#ff2c76;stroke-width:1;stroke-linecap:round;stroke-opacity:1"
           d="m 8.5,0.5 h 60 v 20 h -60 v -8 -1 h -6 v 3 h -2 v -8 h 2 v 3 h 6 v -1 z" />
        <text
           id="text1644"
           style="font-size:10px;font-family:sans-serif;text-anchor:start;fill:#282828">
          <tspan
             id="tspan1642"
             y="14"
             x="13">4</tspan>
        </text>
      </g>
    </g>
  </g>
</svg>
