<?xml version="1.0" encoding="UTF-8" standalone="no"?>
<svg
   xmlns:dc="http://purl.org/dc/elements/1.1/"
   xmlns:cc="http://creativecommons.org/ns#"
   xmlns:rdf="http://www.w3.org/1999/02/22-rdf-syntax-ns#"
   xmlns:svg="http://www.w3.org/2000/svg"
   xmlns="http://www.w3.org/2000/svg"
   id="svg1498"
   version="1.1"
   viewBox="0 0 88.767708 50.799999"
   height="50.799999mm"
   width="88.767708mm">
  <defs
     id="defs1492" />
  <metadata
     id="metadata1495">
    <rdf:RDF>
      <cc:Work
         rdf:about="">
        <dc:format>image/svg+xml</dc:format>
        <dc:type
           rdf:resource="http://purl.org/dc/dcmitype/StillImage" />
        <dc:title></dc:title>
      </cc:Work>
    </rdf:RDF>
  </metadata>
  <g
     transform="translate(-312.52016,-297.16064)"
     id="layer1">
    <g
       transform="matrix(0.26458333,0,0,0.26458333,312.52016,297.16064)"
       id="g268">
      <g
         id="g266"
         transform="scale(1.5)">
        <path
           id="path260"
           style="fill:#e9a066;fill-opacity:1;stroke:#3f0a00;stroke-width:1;stroke-linecap:round;stroke-opacity:1"
           d="m 0.5,8.5 v -4 c 0,-2.209139 1.790861,-4 4,-4 h 4 v 2 h 10 v -2 h 9 11.123047 26.666667 c 2.209139,0 4,1.790861 4,4 v 4 4 4 c 0,2.209139 -1.790861,4 -4,4 H 38.623047 27.5 h -1 v 2 h -8 v -2 h -1 -4 c -2.761424,0 -5,2.238576 -5,5 v 4 4 63 4 c 0,2.76142 2.238576,5 5,5 h 4 v 2 h 10 v -2 h 8 v 6 6 4 c 0,2.20914 -1.790861,4 -4,4 h -4 -9 -1 v 2 h -8 v -2 h -1 -4 c -2.209139,0 -4,-1.79086 -4,-4 v -4 z" />
        <text
           id="text264"
           style="font-size:10px;font-family:sans-serif;text-anchor:start;fill:#000000">
          <tspan
             id="tspan262"
             y="15"
             x="5">por siempre</tspan>
        </text>
      </g>
    </g>
    <g
       id="g282"
       transform="matrix(0.26458333,0,0,0.26458333,316.22433,305.62731)">
      <g
         id="g280"
         transform="scale(1.5)">
        <path
           id="path270"
           style="fill:#ff8b2d;fill-opacity:1;stroke:#520000;stroke-width:1;stroke-linecap:round;stroke-opacity:1"
           d="m 0.5,8.5 v -4 a 4,4 90 0 1 4,-4 h 4 v 2 h 10 v -2 h 9 60 4 a 4,4 90 0 1 4,4 v 4 h -4 v -3 h -4 v 10 h 4 v -3 h 4 v 4 a 4,4 90 0 1 -4,4 h -4 -60 -1 v 2 h -8 v -2 h -1 -4 a 5,5 90 0 0 -5,5 v 4 4 21 4 a 5,5 90 0 0 5,5 h 4 v 2 h 10 v -2 h 8 v 6 6 4 a 4,4 90 0 1 -4,4 h -4 -9 -1 v 2 h -8 v -2 h -1 -4 a 4,4 90 0 1 -4,-4 v -4 z" />
        <text
           id="text274"
           style="font-size:10px;font-family:sans-serif;text-anchor:start;fill:#000000">
          <tspan
             id="tspan272"
             y="15"
             x="20">nota</tspan>
        </text>
        <text
           id="text278"
           style="font-size:6.66666651px;font-family:sans-serif;text-anchor:end;fill:#000000">
          <tspan
             id="tspan276"
             y="12"
             x="85">valor</tspan>
        </text>
      </g>
    </g>
    <g
       id="g300"
       transform="matrix(0.26458333,0,0,0.26458333,351.14933,305.62731)">
      <g
         id="g298"
         transform="scale(1.5)">
        <path
           id="path284"
           style="fill:#ffb2bc;fill-opacity:1;stroke:#601136;stroke-width:1;stroke-linecap:round;stroke-opacity:1"
           d="m 8.5,8.5 v -4 a 4,4 90 0 1 4,-4 h 4 10 30 4 a 4,4 90 0 1 4,4 v 4 h -4 v -3 h -4 v 10 h 4 v -3 h 4 v 17 h -4 v -3 h -4 v 10 h 4 v -3 h 4 v 4 a 4,4 90 0 1 -4,4 h -4 -30 -10 -4 a 4,4 90 0 1 -4,-4 v -4 -21 -1 h -6 v 3 h -2 v -8 h 2 v 3 h 6 z" />
        <text
           id="text288"
           style="font-size:14px;font-family:sans-serif;text-anchor:end;fill:#000000">
          <tspan
             id="tspan286"
             y="24"
             x="54">/</tspan>
        </text>
        <text
           id="text292"
           style="font-size:9.33333302px;font-family:sans-serif;text-anchor:end;fill:#000000">
          <tspan
             id="tspan290"
             y="12"
             x="54" />
        </text>
        <text
           id="text296"
           style="font-size:9.33333302px;font-family:sans-serif;text-anchor:end;fill:#000000">
          <tspan
             id="tspan294"
             y="33"
             x="54" />
        </text>
      </g>
    </g>
    <g
       id="g310"
       transform="matrix(0.26458333,0,0,0.26458333,373.90349,305.62731)">
      <g
         id="g308"
         transform="scale(1.5)">
        <path
           id="path302"
           style="fill:#ffb2bc;fill-opacity:1;stroke:#601136;stroke-width:1;stroke-linecap:round;stroke-opacity:1"
           d="m 8.5,0.5 h 60 v 20 h -60 v -8 -1 h -6 v 3 h -2 v -8 h 2 v 3 h 6 v -1 z" />
        <text
           id="text306"
           style="font-size:10px;font-family:sans-serif;text-anchor:start;fill:#000000">
          <tspan
             id="tspan304"
             y="14"
             x="13">1</tspan>
        </text>
      </g>
    </g>
    <g
       id="g320"
       transform="matrix(0.26458333,0,0,0.26458333,373.90349,314.09397)">
      <g
         id="g318"
         transform="scale(1.5)">
        <path
           id="path312"
           style="fill:#ffb2bc;fill-opacity:1;stroke:#601136;stroke-width:1;stroke-linecap:round;stroke-opacity:1"
           d="m 8.5,0.5 h 60 v 20 h -60 v -8 -1 h -6 v 3 h -2 v -8 h 2 v 3 h 6 v -1 z" />
        <text
           id="text316"
           style="font-size:10px;font-family:sans-serif;text-anchor:start;fill:#000000">
          <tspan
             id="tspan314"
             y="14"
             x="13">4</tspan>
        </text>
      </g>
    </g>
    <g
       id="g330"
       transform="matrix(0.26458333,0,0,0.26458333,319.92849,314.09397)">
      <g
         id="g328"
         transform="scale(1.5)">
        <path
           id="path322"
           style="fill:#ff8b2d;fill-opacity:1;stroke:#520000;stroke-width:1;stroke-linecap:round;stroke-opacity:1"
           d="m 0.5,8.5 v -4 a 4,4 90 0 1 4,-4 h 4 v 2 h 10 v -2 h 20 4 a 4,4 90 0 1 4,4 v 4 4 4 a 4,4 90 0 1 -4,4 h -4 -20 -1 v 2 h -8 v -2 h -1 -4 a 4,4 90 0 1 -4,-4 v -4 z" />
        <text
           id="text326"
           style="font-size:10px;font-family:sans-serif;text-anchor:end;fill:#000000">
          <tspan
             id="tspan324"
             y="14"
             x="36">↓</tspan>
        </text>
      </g>
    </g>
    <g
       id="g344"
       transform="matrix(0.26458333,0,0,0.26458333,319.92849,322.56064)">
      <g
         id="g342"
         transform="scale(1.5)">
        <path
           id="path332"
           style="fill:#3ea4a3;fill-opacity:1;stroke:#000000;stroke-width:1;stroke-linecap:round;stroke-opacity:1"
           d="m 0.5,8.5 v -4 a 4,4 90 0 1 4,-4 h 4 v 2 h 10 v -2 h 30 4 a 4,4 90 0 1 4,4 v 4 h -4 v -3 h -4 v 10 h 4 v -3 h 4 v 4 a 4,4 90 0 1 -4,4 h -4 -30 -1 v 2 h -8 v -2 h -1 -4 a 4,4 90 0 1 -4,-4 v -4 z" />
        <text
           id="text336"
           style="font-size:10px;font-family:sans-serif;text-anchor:end;fill:#000000">
          <tspan
             id="tspan334"
             y="14"
             x="46">tambor</tspan>
        </text>
        <text
           id="text340"
           style="font-size:6.66666651px;font-family:sans-serif;text-anchor:end;fill:#000000">
          <tspan
             id="tspan338"
             y="12"
             x="46" />
        </text>
      </g>
    </g>
    <g
       id="g354"
       transform="matrix(0.26458333,0,0,0.26458333,339.50766,322.56064)">
      <g
         id="g352"
         transform="scale(1.5)">
        <path
           id="path346"
           style="fill:#3ea4a3;fill-opacity:1;stroke:#000000;stroke-width:1;stroke-linecap:round;stroke-opacity:1"
           d="m 8.5,0.5 h 110 v 20 H 8.5 v -8 -1 h -6 v 3 h -2 v -8 h 2 v 3 h 6 v -1 z" />
        <text
           id="text350"
           style="font-size:10px;font-family:sans-serif;text-anchor:start;fill:#000000">
          <tspan
             id="tspan348"
             y="14"
             x="13">tambor de patada</tspan>
        </text>
      </g>
    </g>
  </g>
</svg>
