<?xml version="1.0" encoding="UTF-8" standalone="no"?>
<svg
   xmlns:dc="http://purl.org/dc/elements/1.1/"
   xmlns:cc="http://creativecommons.org/ns#"
   xmlns:rdf="http://www.w3.org/1999/02/22-rdf-syntax-ns#"
   xmlns:svg="http://www.w3.org/2000/svg"
   xmlns="http://www.w3.org/2000/svg"
   id="svg2334"
   version="1.1"
   viewBox="0 0 84.931252 34.131249"
   height="34.131248mm"
   width="84.931252mm">
  <defs
     id="defs2328" />
  <metadata
     id="metadata2331">
    <rdf:RDF>
      <cc:Work
         rdf:about="">
        <dc:format>image/svg+xml</dc:format>
        <dc:type
           rdf:resource="http://purl.org/dc/dcmitype/StillImage" />
        <dc:title></dc:title>
      </cc:Work>
    </rdf:RDF>
  </metadata>
  <g
     transform="translate(153.98749,-105.13928)"
     id="layer1">
    <g
       id="g148"
       transform="matrix(0.26458333,0,0,0.26458333,-507.20624,-30.062802)">
      <g
         id="g132"
         transform="translate(1335,511)">
        <g
           id="g130"
           transform="scale(1.5)">
          <path
             id="path120"
             style="fill:#ff8b2d;fill-opacity:1;stroke:#520000;stroke-width:1;stroke-linecap:round;stroke-opacity:1"
             d="m 0.5,8.5 v -4 a 4,4 90 0 1 4,-4 h 4 v 2 h 10 v -2 h 9 60 4 a 4,4 90 0 1 4,4 v 4 h -4 v -3 h -4 v 10 h 4 v -3 h 4 v 4 a 4,4 90 0 1 -4,4 h -4 -60 -1 v 2 h -8 v -2 h -1 -4 a 5,5 90 0 0 -5,5 v 4 4 21 4 a 5,5 90 0 0 5,5 h 4 v 2 h 10 v -2 h 8 v 6 6 4 a 4,4 90 0 1 -4,4 h -4 -9 -1 v 2 h -8 v -2 h -1 -4 a 4,4 90 0 1 -4,-4 v -4 z" />
          <text
             id="text124"
             style="font-size:10px;font-family:sans-serif;text-anchor:start;fill:#000000">
            <tspan
               id="tspan122"
               y="15"
               x="20">nota</tspan>
          </text>
          <text
             id="text128"
             style="font-size:6.66666651px;font-family:sans-serif;text-anchor:end;fill:#000000">
            <tspan
               id="tspan126"
               y="12"
               x="85">valor</tspan>
          </text>
        </g>
      </g>
      <g
         id="g146"
         transform="matrix(0.5,0,0,0.5,1335,515)">
        <path
           style="fill:#ed001d;fill-opacity:1;fill-rule:nonzero;stroke:#ed001d;stroke-width:5.43225098;stroke-linecap:round;stroke-linejoin:round;stroke-miterlimit:4;stroke-dasharray:none;stroke-dashoffset:0;stroke-opacity:1"
           id="path134"
           d="m 45.783874,27.5 a 18.283874,18.283874 0 0 1 -36.5677482,0 18.283874,18.283874 0 1 1 36.5677482,0 z" />
        <g
           id="g144"
           transform="matrix(1.2115096,0,0,1.2115096,-5.8266059,-5.8064215)">
          <path
             style="fill:none;fill-rule:evenodd;stroke:#ffffff;stroke-width:2.39995193px;stroke-linecap:round;stroke-linejoin:round;stroke-opacity:1"
             d="M 27.510601,42.782933 V 31.183245 l 4.799904,5.99988 -4.799904,-5.99988 -4.799904,5.99988"
             id="path136" />
          <path
             style="fill:none;fill-rule:evenodd;stroke:#ffffff;stroke-width:2.39995193px;stroke-linecap:round;stroke-linejoin:round;stroke-opacity:1"
             d="m 27.489399,12.200406 v 11.59969 l -4.799904,-5.999882 4.799904,5.999882 4.799904,-5.999882"
             id="path138" />
          <path
             style="fill:none;fill-rule:evenodd;stroke:#ffffff;stroke-width:2.39995193px;stroke-linecap:round;stroke-linejoin:round;stroke-opacity:1"
             d="M 42.799593,27.489399 H 31.199904 l 5.999881,-4.799904 -5.999881,4.799904 5.999881,4.799904"
             id="path140" />
          <path
             style="fill:none;fill-rule:evenodd;stroke:#ffffff;stroke-width:2.39995193px;stroke-linecap:round;stroke-linejoin:round;stroke-opacity:1"
             d="m 12.217067,27.489399 h 11.599688 l -5.99988,-4.799904 5.99988,4.799904 -5.99988,4.799904"
             id="path142" />
        </g>
      </g>
    </g>
    <g
       id="g166"
       transform="matrix(0.26458333,0,0,0.26458333,-119.06249,105.13928)">
      <g
         id="g164"
         transform="scale(1.5)">
        <path
           id="path150"
           style="fill:#ffb2bc;fill-opacity:1;stroke:#601136;stroke-width:1;stroke-linecap:round;stroke-opacity:1"
           d="m 8.5,8.5 v -4 a 4,4 90 0 1 4,-4 h 4 10 30 4 a 4,4 90 0 1 4,4 v 4 h -4 v -3 h -4 v 10 h 4 v -3 h 4 v 17 h -4 v -3 h -4 v 10 h 4 v -3 h 4 v 4 a 4,4 90 0 1 -4,4 h -4 -30 -10 -4 a 4,4 90 0 1 -4,-4 v -4 -21 -1 h -6 v 3 h -2 v -8 h 2 v 3 h 6 z" />
        <text
           id="text154"
           style="font-size:9px;font-family:sans-serif;text-anchor:end;fill:#000000">
          <tspan
             id="tspan152"
             y="23"
             x="54">➗</tspan>
        </text>
        <text
           id="text158"
           style="font-size:6px;font-family:sans-serif;text-anchor:end;fill:#000000">
          <tspan
             id="tspan156"
             y="12"
             x="54" />
        </text>
        <text
           id="text162"
           style="font-size:6px;font-family:sans-serif;text-anchor:end;fill:#000000">
          <tspan
             id="tspan160"
             y="33"
             x="54" />
        </text>
      </g>
    </g>
    <g
       id="g176"
       transform="matrix(0.26458333,0,0,0.26458333,-96.440616,105.13928)">
      <g
         id="g174"
         transform="scale(1.5)">
        <path
           id="path168"
           style="fill:#ffb2bc;fill-opacity:1;stroke:#601136;stroke-width:1;stroke-linecap:round;stroke-opacity:1"
           d="m 8.5,0.5 h 60 v 20 h -60 v -8 -1 h -6 v 3 h -2 v -8 h 2 v 3 h 6 v -1 z" />
        <text
           id="text172"
           style="font-size:10px;font-family:sans-serif;text-anchor:start;fill:#000000">
          <tspan
             id="tspan170"
             y="14"
             x="13">1</tspan>
        </text>
      </g>
    </g>
    <g
       id="g186"
       transform="matrix(0.26458333,0,0,0.26458333,-96.440616,113.47365)">
      <g
         id="g184"
         transform="scale(1.5)">
        <path
           id="path178"
           style="fill:#ffb2bc;fill-opacity:1;stroke:#601136;stroke-width:1;stroke-linecap:round;stroke-opacity:1"
           d="m 8.5,0.5 h 60 v 20 h -60 v -8 -1 h -6 v 3 h -2 v -8 h 2 v 3 h 6 v -1 z" />
        <text
           id="text182"
           style="font-size:10px;font-family:sans-serif;text-anchor:start;fill:#000000">
          <tspan
             id="tspan180"
             y="14"
             x="13">2</tspan>
        </text>
      </g>
    </g>
    <g
       id="g196"
       transform="matrix(0.26458333,0,0,0.26458333,-150.41562,113.47365)">
      <g
         id="g194"
         transform="scale(1.5)">
        <path
           id="path188"
           style="fill:#ff8b2d;fill-opacity:1;stroke:#520000;stroke-width:1;stroke-linecap:round;stroke-opacity:1"
           d="m 0.5,8.5 v -4 a 4,4 90 0 1 4,-4 h 4 v 2 h 10 v -2 h 20 4 a 4,4 90 0 1 4,4 v 4 4 4 a 4,4 90 0 1 -4,4 h -4 -20 -1 v 2 h -8 v -2 h -1 -4 a 4,4 90 0 1 -4,-4 v -4 z" />
        <text
           id="text192"
           style="font-size:10px;font-family:sans-serif;text-anchor:end;fill:#000000">
          <tspan
             id="tspan190"
             y="14"
             x="36">↓</tspan>
        </text>
      </g>
    </g>
    <g
       id="g466"
       transform="matrix(0.26458333,0,0,0.26458333,-150.41562,121.80803)">
      <g
         id="g464"
         transform="scale(1.5)">
        <path
           id="path454"
           style="fill:#93e042;fill-opacity:1;stroke:#004000;stroke-width:1;stroke-linecap:round;stroke-opacity:1"
           d="m 0.5,8.5 v -4 a 4,4 90 0 1 4,-4 h 4 v 2 h 10 v -2 h 30 4 a 4,4 90 0 1 4,4 v 4 h -4 v -3 h -4 v 10 h 4 v -3 h 4 v 4 a 4,4 90 0 1 -4,4 h -4 -30 -1 v 2 h -8 v -2 h -1 -4 a 4,4 90 0 1 -4,-4 v -4 z" />
        <text
           id="text458"
           style="font-size:10px;font-family:sans-serif;text-anchor:end;fill:#000000">
          <tspan
             id="tspan456"
             y="14"
             x="46">hertz</tspan>
        </text>
        <text
           id="text462"
           style="font-size:6.66666651px;font-family:sans-serif;text-anchor:end;fill:#000000">
          <tspan
             id="tspan460"
             y="12"
             x="46" />
        </text>
      </g>
    </g>
    <g
       id="g476"
       transform="matrix(0.26458333,0,0,0.26458333,-130.96874,121.80803)">
      <g
         id="g474"
         transform="scale(1.5)">
        <path
           id="path468"
           style="fill:#ffb2bc;fill-opacity:1;stroke:#601136;stroke-width:1;stroke-linecap:round;stroke-opacity:1"
           d="m 8.5,0.5 h 60 v 20 h -60 v -8 -1 h -6 v 3 h -2 v -8 h 2 v 3 h 6 v -1 z" />
        <text
           id="text472"
           style="font-size:10px;font-family:sans-serif;text-anchor:start;fill:#000000">
          <tspan
             id="tspan470"
             y="14"
             x="13">392</tspan>
        </text>
      </g>
    </g>
  </g>
</svg>
