<?xml version="1.0" encoding="UTF-8" standalone="no"?>
<svg
   xmlns:dc="http://purl.org/dc/elements/1.1/"
   xmlns:cc="http://creativecommons.org/ns#"
   xmlns:rdf="http://www.w3.org/1999/02/22-rdf-syntax-ns#"
   xmlns:svg="http://www.w3.org/2000/svg"
   xmlns="http://www.w3.org/2000/svg"
   id="svg1829"
   version="1.1"
   viewBox="0 0 75.406258 25.796876"
   height="25.796875mm"
   width="75.406258mm">
  <defs
     id="defs1823" />
  <metadata
     id="metadata1826">
    <rdf:RDF>
      <cc:Work
         rdf:about="">
        <dc:format>image/svg+xml</dc:format>
        <dc:type
           rdf:resource="http://purl.org/dc/dcmitype/StillImage" />
        <dc:title></dc:title>
      </cc:Work>
    </rdf:RDF>
  </metadata>
  <g
     transform="translate(-185.52546,-255.40186)"
     id="layer1">
    <g
       transform="matrix(0.26458333,0,0,0.26458333,185.52546,255.40186)"
       id="g746">
      <g
         id="g744"
         transform="scale(1.5)">
        <path
           id="path730"
           style="fill:#ff8b2d;fill-opacity:1;stroke:#520000;stroke-width:1;stroke-linecap:round;stroke-opacity:1"
           d="m 0.5,8.5 v -4 a 4,4 90 0 1 4,-4 h 4 v 2 h 10 v -2 h 45 4 a 4,4 90 0 1 4,4 v 4 h -4 v -3 h -4 v 10 h 4 v -3 h 4 v 17 h -4 v -3 h -4 v 10 h 4 v -3 h 4 v 4 a 4,4 90 0 1 -4,4 h -4 -45 -1 v 2 h -8 v -2 h -1 -4 a 4,4 90 0 1 -4,-4 v -4 -21 z" />
        <text
           id="text734"
           style="font-size:10px;font-family:sans-serif;text-anchor:end;fill:#000000">
          <tspan
             id="tspan732"
             y="24"
             x="61">metro</tspan>
        </text>
        <text
           id="text738"
           style="font-size:6.66666651px;font-family:sans-serif;text-anchor:end;fill:#000000">
          <tspan
             id="tspan736"
             y="12"
             x="61">número de latidos</tspan>
        </text>
        <text
           id="text742"
           style="font-size:6.66666651px;font-family:sans-serif;text-anchor:end;fill:#000000">
          <tspan
             id="tspan740"
             y="33"
             x="61">valor de la nota</tspan>
        </text>
      </g>
    </g>
    <g
       id="g756"
       transform="matrix(0.26458333,0,0,0.26458333,210.92547,255.40186)">
      <g
         id="g754"
         transform="scale(1.5)">
        <path
           id="path748"
           style="fill:#ffb2bc;fill-opacity:1;stroke:#601136;stroke-width:1;stroke-linecap:round;stroke-opacity:1"
           d="m 8.5,0.5 h 60 v 20 h -60 v -8 -1 h -6 v 3 h -2 v -8 h 2 v 3 h 6 v -1 z" />
        <text
           id="text752"
           style="font-size:10px;font-family:sans-serif;text-anchor:start;fill:#000000">
          <tspan
             id="tspan750"
             y="14"
             x="13">4</tspan>
        </text>
      </g>
    </g>
    <g
       id="g774"
       transform="matrix(0.26458333,0,0,0.26458333,210.92547,263.73624)">
      <g
         id="g772"
         transform="scale(1.5)">
        <path
           id="path758"
           style="fill:#ffb2bc;fill-opacity:1;stroke:#601136;stroke-width:1;stroke-linecap:round;stroke-opacity:1"
           d="m 8.5,8.5 v -4 a 4,4 90 0 1 4,-4 h 4 10 30 4 a 4,4 90 0 1 4,4 v 4 h -4 v -3 h -4 v 10 h 4 v -3 h 4 v 17 h -4 v -3 h -4 v 10 h 4 v -3 h 4 v 4 a 4,4 90 0 1 -4,4 h -4 -30 -10 -4 a 4,4 90 0 1 -4,-4 v -4 -21 -1 h -6 v 3 h -2 v -8 h 2 v 3 h 6 z" />
        <text
           id="text762"
           style="font-size:9px;font-family:sans-serif;text-anchor:end;fill:#000000">
          <tspan
             id="tspan760"
             y="23"
             x="54">➗</tspan>
        </text>
        <text
           id="text766"
           style="font-size:6px;font-family:sans-serif;text-anchor:end;fill:#000000">
          <tspan
             id="tspan764"
             y="12"
             x="54" />
        </text>
        <text
           id="text770"
           style="font-size:6px;font-family:sans-serif;text-anchor:end;fill:#000000">
          <tspan
             id="tspan768"
             y="33"
             x="54" />
        </text>
      </g>
    </g>
    <g
       id="g784"
       transform="matrix(0.26458333,0,0,0.26458333,233.54734,263.73624)">
      <g
         id="g782"
         transform="scale(1.5)">
        <path
           id="path776"
           style="fill:#ffb2bc;fill-opacity:1;stroke:#601136;stroke-width:1;stroke-linecap:round;stroke-opacity:1"
           d="m 8.5,0.5 h 60 v 20 h -60 v -8 -1 h -6 v 3 h -2 v -8 h 2 v 3 h 6 v -1 z" />
        <text
           id="text780"
           style="font-size:10px;font-family:sans-serif;text-anchor:start;fill:#000000">
          <tspan
             id="tspan778"
             y="14"
             x="13">1</tspan>
        </text>
      </g>
    </g>
    <g
       id="g794"
       transform="matrix(0.26458333,0,0,0.26458333,233.54734,272.07061)">
      <g
         id="g792"
         transform="scale(1.5)">
        <path
           id="path786"
           style="fill:#ffb2bc;fill-opacity:1;stroke:#601136;stroke-width:1;stroke-linecap:round;stroke-opacity:1"
           d="m 8.5,0.5 h 60 v 20 h -60 v -8 -1 h -6 v 3 h -2 v -8 h 2 v 3 h 6 v -1 z" />
        <text
           id="text790"
           style="font-size:10px;font-family:sans-serif;text-anchor:start;fill:#000000">
          <tspan
             id="tspan788"
             y="14"
             x="13">4</tspan>
        </text>
      </g>
    </g>
    <g
       id="g804"
       transform="matrix(0.26458333,0,0,0.26458333,185.52546,272.07061)">
      <g
         id="g802"
         transform="scale(1.5)">
        <path
           id="path796"
           style="fill:#ff8b2d;fill-opacity:1;stroke:#520000;stroke-width:1;stroke-linecap:round;stroke-opacity:1"
           d="m 0.5,8.5 v -4 a 4,4 90 0 1 4,-4 h 4 v 2 h 10 v -2 h 20 4 a 4,4 90 0 1 4,4 v 4 4 4 a 4,4 90 0 1 -4,4 h -4 -20 -1 v 2 h -8 v -2 h -1 -4 a 4,4 90 0 1 -4,-4 v -4 z" />
        <text
           id="text800"
           style="font-size:10px;font-family:sans-serif;text-anchor:end;fill:#000000">
          <tspan
             id="tspan798"
             y="14"
             x="36">↓</tspan>
        </text>
      </g>
    </g>
  </g>
</svg>
