<?xml version="1.0" encoding="UTF-8" standalone="no"?>
<svg
   xmlns:dc="http://purl.org/dc/elements/1.1/"
   xmlns:cc="http://creativecommons.org/ns#"
   xmlns:rdf="http://www.w3.org/1999/02/22-rdf-syntax-ns#"
   xmlns:svg="http://www.w3.org/2000/svg"
   xmlns="http://www.w3.org/2000/svg"
   width="77.522903mm"
   height="25.003122mm"
   viewBox="0 0 77.522902 25.003125"
   version="1.1"
   id="svg11666">
  <defs
     id="defs11660" />
  <metadata
     id="metadata11663">
    <rdf:RDF>
      <cc:Work
         rdf:about="">
        <dc:format>image/svg+xml</dc:format>
        <dc:type
           rdf:resource="http://purl.org/dc/dcmitype/StillImage" />
        <dc:title></dc:title>
      </cc:Work>
    </rdf:RDF>
  </metadata>
  <g
     id="layer1"
     transform="translate(372.71447,92.254798)">
    <g
       transform="matrix(0.26458333,0,0,0.26458333,-370.5978,-92.254798)"
       id="g960">
      <g
         transform="scale(1.5)"
         id="g958">
        <path
           d="m -4.8333336,8.5 v -4 c 0,-2.209139 1.790861,-4 4.00000002,-4 H 3.1666664 v 2 h 9.9999996 v -2 H 63.5 h 4 c 2.209139,0 4,1.790861 4,4 v 4 h -4 v -3 h -4 v 10 h 4 v -3 h 4 v 17 h -4 v -3 h -4 v 10 h 4 v -3 h 4 v 4 c 0,2.209139 -1.790861,4 -4,4 h -4 -50.333334 -1 v 2 H 4.1666664 v -2 h -1 -3.99999998 c -2.20913902,0 -4.00000002,-1.790861 -4.00000002,-4 v -4 -21 z"
           style="fill:#fe994f;fill-opacity:1;stroke:#e86b0e;stroke-width:1;stroke-linecap:round;stroke-opacity:1"
           id="path944" />
        <text
           style="font-size:10px;font-family:sans-serif;text-anchor:end;fill:#282828"
           id="text948">
          <tspan
             x="61"
             y="24"
             id="tspan946">metro</tspan>
        </text>
        <text
           style="font-size:6.66666651px;font-family:sans-serif;text-anchor:end;fill:#282828"
           id="text952">
          <tspan
             x="61"
             y="12"
             id="tspan950">número de latidos</tspan>
        </text>
        <text
           style="font-size:6.66666651px;font-family:sans-serif;text-anchor:end;fill:#282828"
           id="text956">
          <tspan
             x="61"
             y="33"
             id="tspan954">valor de la nota</tspan>
        </text>
      </g>
    </g>
    <g
       transform="matrix(0.26458333,0,0,0.26458333,-345.1978,-92.254798)"
       id="g970">
      <g
         transform="scale(1.5)"
         id="g968">
        <path
           d="m 8.5,0.5 h 60 v 20 h -60 v -8 -1 h -6 v 3 h -2 v -8 h 2 v 3 h 6 v -1 z"
           style="fill:#ff6ea1;fill-opacity:1;stroke:#ff2c76;stroke-width:1;stroke-linecap:round;stroke-opacity:1"
           id="path962" />
        <text
           style="font-size:10px;font-family:sans-serif;text-anchor:start;fill:#282828"
           id="text966">
          <tspan
             x="13"
             y="14"
             id="tspan964">4</tspan>
        </text>
      </g>
    </g>
    <g
       transform="matrix(0.26458333,0,0,0.26458333,-345.1978,-83.920423)"
       id="g988">
      <g
         transform="scale(1.5)"
         id="g986">
        <path
           d="m 8.5,8.5 v -4 a 4,4 90 0 1 4,-4 h 4 10 30 4 a 4,4 90 0 1 4,4 v 4 h -4 v -3 h -4 v 10 h 4 v -3 h 4 v 17 h -4 v -3 h -4 v 10 h 4 v -3 h 4 v 4 a 4,4 90 0 1 -4,4 h -4 -30 -10 -4 a 4,4 90 0 1 -4,-4 v -4 -21 -1 h -6 v 3 h -2 v -8 h 2 v 3 h 6 z"
           style="fill:#ff6ea1;fill-opacity:1;stroke:#ff2c76;stroke-width:1;stroke-linecap:round;stroke-opacity:1"
           id="path972" />
        <text
           style="font-size:9px;font-family:sans-serif;text-anchor:end;fill:#282828"
           id="text976">
          <tspan
             x="54"
             y="23"
             id="tspan974">➗</tspan>
        </text>
        <text
           style="font-size:6px;font-family:sans-serif;text-anchor:end;fill:#282828"
           id="text980">
          <tspan
             x="54"
             y="12"
             id="tspan978" />
        </text>
        <text
           style="font-size:6px;font-family:sans-serif;text-anchor:end;fill:#282828"
           id="text984">
          <tspan
             x="54"
             y="33"
             id="tspan982" />
        </text>
      </g>
    </g>
    <g
       transform="matrix(0.26458333,0,0,0.26458333,-322.57593,-83.920423)"
       id="g998">
      <g
         transform="scale(1.5)"
         id="g996">
        <path
           d="m 8.5,0.5 h 60 v 20 h -60 v -8 -1 h -6 v 3 h -2 v -8 h 2 v 3 h 6 v -1 z"
           style="fill:#ff6ea1;fill-opacity:1;stroke:#ff2c76;stroke-width:1;stroke-linecap:round;stroke-opacity:1"
           id="path990" />
        <text
           style="font-size:10px;font-family:sans-serif;text-anchor:start;fill:#282828"
           id="text994">
          <tspan
             x="13"
             y="14"
             id="tspan992">1</tspan>
        </text>
      </g>
    </g>
    <g
       transform="matrix(0.26458333,0,0,0.26458333,-322.57593,-75.586048)"
       id="g1008">
      <g
         transform="scale(1.5)"
         id="g1006">
        <path
           d="m 8.5,0.5 h 60 v 20 h -60 v -8 -1 h -6 v 3 h -2 v -8 h 2 v 3 h 6 v -1 z"
           style="fill:#ff6ea1;fill-opacity:1;stroke:#ff2c76;stroke-width:1;stroke-linecap:round;stroke-opacity:1"
           id="path1000" />
        <text
           style="font-size:10px;font-family:sans-serif;text-anchor:start;fill:#282828"
           id="text1004">
          <tspan
             x="13"
             y="14"
             id="tspan1002">4</tspan>
        </text>
      </g>
    </g>
  </g>
</svg>
