<?xml version="1.0" encoding="UTF-8" standalone="no"?>
<svg
   xmlns:dc="http://purl.org/dc/elements/1.1/"
   xmlns:cc="http://creativecommons.org/ns#"
   xmlns:rdf="http://www.w3.org/1999/02/22-rdf-syntax-ns#"
   xmlns:svg="http://www.w3.org/2000/svg"
   xmlns="http://www.w3.org/2000/svg"
   id="svg1829"
   version="1.1"
   viewBox="0 0 86.716025 69.128123"
   height="69.12812mm"
   width="86.716026mm">
  <defs
     id="defs1823" />
  <metadata
     id="metadata1826">
    <rdf:RDF>
      <cc:Work
         rdf:about="">
        <dc:format>image/svg+xml</dc:format>
        <dc:type
           rdf:resource="http://purl.org/dc/dcmitype/StillImage" />
        <dc:title></dc:title>
      </cc:Work>
    </rdf:RDF>
  </metadata>
  <g
     transform="translate(50.695586,-14.230314)"
     id="layer1">
    <g
       id="g612"
       transform="matrix(0.26458333,0,0,0.26458333,-3.7275279,47.528158)">
      <g
         id="g610"
         transform="scale(1.5)">
        <path
           id="path604"
           style="fill:#ff8b2d;fill-opacity:1;stroke:#520000;stroke-width:1;stroke-linecap:round;stroke-opacity:1"
           d="m 8.5,0.5 h 86.147461 v 20 H 8.5 v -8 -1 h -6 v 3 h -2 v -8 h 2 v 3 h 6 v -1 z" />
        <text
           id="text608"
           style="font-size:10px;font-family:sans-serif;text-anchor:start;fill:#000000">
          <tspan
             id="tspan606"
             y="14"
             x="13">valor de la nota</tspan>
        </text>
      </g>
    </g>
    <g
       transform="translate(-11.560448,-1.3527037)"
       id="g4089">
      <g
         transform="matrix(0.26458333,0,0,0.26458333,-39.135138,15.583018)"
         id="g626">
        <g
           transform="scale(1.5)"
           id="g624">
          <path
             d="m 0.5,8.5 v -4 a 4,4 90 0 1 4,-4 h 4 v 2 h 10 v -2 h 74.49707 4 a 4,4 90 0 1 4,4 v 4 h -4 v -3 h -4 v 10 h 4 v -3 h 4 v 4 a 4,4 90 0 1 -4,4 h -4 H 18.5 h -1 v 2 h -8 v -2 h -1 -4 a 4,4 90 0 1 -4,-4 v -4 z"
             style="fill:#ff8b2d;fill-opacity:1;stroke:#520000;stroke-width:1;stroke-linecap:round;stroke-opacity:1"
             id="path614" />
          <text
             style="font-size:10px;font-family:sans-serif;text-anchor:end;fill:#000000"
             id="text618">
            <tspan
               x="91"
               y="14"
               id="tspan616">en cada latido hacer</tspan>
          </text>
          <text
             style="font-size:6.66666651px;font-family:sans-serif;text-anchor:end;fill:#000000"
             id="text622">
            <tspan
               x="91"
               y="12"
               id="tspan620" />
          </text>
        </g>
      </g>
      <g
         transform="matrix(0.26458333,0,0,0.26458333,-2.0284879,15.583018)"
         id="g636">
        <g
           transform="scale(1.5)"
           id="g634">
          <path
             d="m 8.5,0.5 h 90 v 20 h -90 v -8 -1 h -6 v 3 h -2 v -8 h 2 v 3 h 6 v -1 z"
             style="fill:#76dbd7;fill-opacity:1;stroke:#003b41;stroke-width:1;stroke-linecap:round;stroke-opacity:1"
             id="path628" />
          <text
             style="font-size:10px;font-family:sans-serif;text-anchor:start;fill:#000000"
             id="text632">
            <tspan
               x="13"
               y="14"
               id="tspan630">acción</tspan>
          </text>
        </g>
      </g>
    </g>
    <g
       id="g666"
       transform="matrix(0.26458333,0,0,0.26458333,-263.156,-97.728094)">
      <g
         id="g650"
         transform="translate(803,477)">
        <g
           id="g648"
           transform="scale(1.5)">
          <path
             id="path638"
             style="fill:#ffe05c;fill-opacity:1;stroke:#644300;stroke-width:1;stroke-linecap:round;stroke-opacity:1"
             d="m 0.5,14.5 v -4 a 4,4 90 0 1 4,-4 h 4 l 5,-6 5,6 h 9 52 4 a 4,4 90 0 1 4,4 v 4 h -4 v -3 h -4 v 10 h 4 v -3 h 4 v 4 a 4,4 90 0 1 -4,4 h -4 -52 -1 v 2 h -8 v -2 h -1 -4 a 5,5 90 0 0 -5,5 v 4 4 63 4 a 5,5 90 0 0 5,5 h 4 v 2 h 10 v -2 h 8 v 6 6 4 a 4,4 90 0 1 -4,4 h -4 -9 l -5,6 -5,-6 h -4 a 4,4 90 0 1 -4,-4 v -4 z" />
          <text
             id="text642"
             style="font-size:10px;font-family:sans-serif;text-anchor:start;fill:#000000">
            <tspan
               id="tspan640"
               y="22"
               x="20">acción</tspan>
          </text>
          <text
             id="text646"
             style="font-size:6.66666651px;font-family:sans-serif;text-anchor:end;fill:#000000">
            <tspan
               id="tspan644"
               y="6"
               x="77" />
          </text>
        </g>
      </g>
      <g
         id="g664"
         transform="matrix(0.5,0,0,0.5,803,489)">
        <path
           style="fill:#ed001d;fill-opacity:1;fill-rule:nonzero;stroke:#ed001d;stroke-width:5.43225098;stroke-linecap:round;stroke-linejoin:round;stroke-miterlimit:4;stroke-dasharray:none;stroke-dashoffset:0;stroke-opacity:1"
           id="path652"
           d="m 45.783874,27.5 a 18.283874,18.283874 0 0 1 -36.5677482,0 18.283874,18.283874 0 1 1 36.5677482,0 z" />
        <g
           id="g662"
           transform="matrix(1.2115096,0,0,1.2115096,-5.8266059,-5.8064215)">
          <path
             style="fill:none;fill-rule:evenodd;stroke:#ffffff;stroke-width:2.39995193px;stroke-linecap:round;stroke-linejoin:round;stroke-opacity:1"
             d="M 27.510601,42.782933 V 31.183245 l 4.799904,5.99988 -4.799904,-5.99988 -4.799904,5.99988"
             id="path654" />
          <path
             style="fill:none;fill-rule:evenodd;stroke:#ffffff;stroke-width:2.39995193px;stroke-linecap:round;stroke-linejoin:round;stroke-opacity:1"
             d="m 27.489399,12.200406 v 11.59969 l -4.799904,-5.999882 4.799904,5.999882 4.799904,-5.999882"
             id="path656" />
          <path
             style="fill:none;fill-rule:evenodd;stroke:#ffffff;stroke-width:2.39995193px;stroke-linecap:round;stroke-linejoin:round;stroke-opacity:1"
             d="M 42.799593,27.489399 H 31.199904 l 5.999881,-4.799904 -5.999881,4.799904 5.999881,4.799904"
             id="path658" />
          <path
             style="fill:none;fill-rule:evenodd;stroke:#ffffff;stroke-width:2.39995193px;stroke-linecap:round;stroke-linejoin:round;stroke-opacity:1"
             d="m 12.217067,27.489399 h 11.599688 l -5.99988,-4.799904 5.99988,4.799904 -5.99988,4.799904"
             id="path660" />
        </g>
      </g>
    </g>
    <g
       id="g676"
       transform="matrix(0.26458333,0,0,0.26458333,-18.945588,30.859408)">
      <g
         id="g674"
         transform="scale(1.5)">
        <path
           id="path668"
           style="fill:#76dbd7;fill-opacity:1;stroke:#003b41;stroke-width:1;stroke-linecap:round;stroke-opacity:1"
           d="m 8.5,0.5 h 90 v 20 h -90 v -8 -1 h -6 v 3 h -2 v -8 h 2 v 3 h 6 v -1 z" />
        <text
           id="text672"
           style="font-size:10px;font-family:sans-serif;text-anchor:start;fill:#000000">
          <tspan
             id="tspan670"
             y="14"
             x="13">acción</tspan>
        </text>
      </g>
    </g>
    <g
       id="g690"
       transform="matrix(0.26458333,0,0,0.26458333,-47.123708,39.193778)">
      <g
         id="g688"
         transform="scale(1.5)">
        <path
           id="path678"
           style="fill:#9ddd5f;fill-opacity:1;stroke:#003e00;stroke-width:1;stroke-linecap:round;stroke-opacity:1"
           d="m 0.5,8.5 v -4 a 4,4 90 0 1 4,-4 h 4 v 2 h 10 v -2 h 33.344727 4 a 4,4 90 0 1 4,4 v 4 h -4 v -3 h -4 v 10 h 4 v -3 h 4 v 4 a 4,4 90 0 1 -4,4 h -4 H 18.5 h -1 v 2 h -8 v -2 h -1 -4 a 4,4 90 0 1 -4,-4 v -4 z" />
        <text
           id="text682"
           style="font-size:10px;font-family:sans-serif;text-anchor:end;fill:#000000">
          <tspan
             id="tspan680"
             y="14"
             x="50">adelante</tspan>
        </text>
        <text
           id="text686"
           style="font-size:6.66666651px;font-family:sans-serif;text-anchor:end;fill:#000000">
          <tspan
             id="tspan684"
             y="12"
             x="50" />
        </text>
      </g>
    </g>
    <g
       id="g700"
       transform="matrix(0.26458333,0,0,0.26458333,-3.7275279,39.193778)">
      <g
         id="g698"
         transform="scale(1.5)">
        <path
           id="path692"
           style="fill:#ffb2bc;fill-opacity:1;stroke:#601136;stroke-width:1;stroke-linecap:round;stroke-opacity:1"
           d="m 8.5,0.5 h 60 v 20 h -60 v -8 -1 h -6 v 3 h -2 v -8 h 2 v 3 h 6 v -1 z" />
        <text
           id="text696"
           style="font-size:10px;font-family:sans-serif;text-anchor:start;fill:#000000">
          <tspan
             id="tspan694"
             y="14"
             x="13">100</tspan>
        </text>
      </g>
    </g>
    <g
       id="g718"
       transform="matrix(0.26458333,0,0,0.26458333,-26.349398,39.193778)">
      <g
         id="g716"
         transform="scale(1.5)">
        <path
           id="path702"
           style="fill:#ffb2bc;fill-opacity:1;stroke:#601136;stroke-width:1;stroke-linecap:round;stroke-opacity:1"
           d="m 8.5,8.5 v -4 a 4,4 90 0 1 4,-4 h 4 10 30 4 a 4,4 90 0 1 4,4 v 4 h -4 v -3 h -4 v 10 h 4 v -3 h 4 v 17 h -4 v -3 h -4 v 10 h 4 v -3 h 4 v 4 a 4,4 90 0 1 -4,4 h -4 -30 -10 -4 a 4,4 90 0 1 -4,-4 v -4 -21 -1 h -6 v 3 h -2 v -8 h 2 v 3 h 6 z" />
        <text
           id="text706"
           style="font-size:14px;font-family:sans-serif;text-anchor:end;fill:#000000">
          <tspan
             id="tspan704"
             y="24"
             x="54">×</tspan>
        </text>
        <text
           id="text710"
           style="font-size:9.33333302px;font-family:sans-serif;text-anchor:end;fill:#000000">
          <tspan
             id="tspan708"
             y="12"
             x="54" />
        </text>
        <text
           id="text714"
           style="font-size:9.33333302px;font-family:sans-serif;text-anchor:end;fill:#000000">
          <tspan
             id="tspan712"
             y="33"
             x="54" />
        </text>
      </g>
    </g>
    <g
       id="g728"
       transform="matrix(0.26458333,0,0,0.26458333,-47.123708,47.528158)">
      <g
         id="g726"
         transform="scale(1.5)">
        <path
           id="path720"
           style="fill:#ff8b2d;fill-opacity:1;stroke:#520000;stroke-width:1;stroke-linecap:round;stroke-opacity:1"
           d="m 0.5,8.5 v -4 a 4,4 90 0 1 4,-4 h 4 v 2 h 10 v -2 h 20 4 a 4,4 90 0 1 4,4 v 4 4 4 a 4,4 90 0 1 -4,4 h -4 -20 -1 v 2 h -8 v -2 h -1 -4 a 4,4 90 0 1 -4,-4 v -4 z" />
        <text
           id="text724"
           style="font-size:10px;font-family:sans-serif;text-anchor:end;fill:#000000">
          <tspan
             id="tspan722"
             y="14"
             x="36">↓</tspan>
        </text>
      </g>
    </g>
    <g
       id="g814"
       transform="matrix(0.26458333,0,0,0.26458333,-1.9621279,55.862528)">
      <g
         id="g812"
         transform="scale(1.5)">
        <path
           id="path806"
           style="fill:#ff8b2d;fill-opacity:1;stroke:#520000;stroke-width:1;stroke-linecap:round;stroke-opacity:1"
           d="m 8.5,0.5 h 86.704102 v 20 H 8.5 v -8 -1 h -6 v 3 h -2 v -8 h 2 v 3 h 6 v -1 z" />
        <text
           id="text810"
           style="font-size:10px;font-family:sans-serif;text-anchor:start;fill:#000000">
          <tspan
             id="tspan808"
             y="14"
             x="13">cuenta de latidos</tspan>
        </text>
      </g>
    </g>
    <g
       id="g904"
       transform="matrix(0.26458333,0,0,0.26458333,-47.123708,55.862528)">
      <g
         id="g902"
         transform="scale(1.5)">
        <path
           id="path892"
           style="fill:#3ea4a3;fill-opacity:1;stroke:#000000;stroke-width:1;stroke-linecap:round;stroke-opacity:1"
           d="m 0.5,8.5 v -4 a 4,4 90 0 1 4,-4 h 4 v 2 h 10 v -2 h 37.792969 4 a 4,4 90 0 1 4,4 v 4 h -4 v -3 h -4 v 10 h 4 v -3 h 4 v 4 a 4,4 90 0 1 -4,4 h -4 H 18.5 h -1 v 2 h -8 v -2 h -1 -4 a 4,4 90 0 1 -4,-4 v -4 z" />
        <text
           id="text896"
           style="font-size:10px;font-family:sans-serif;text-anchor:end;fill:#000000">
          <tspan
             id="tspan894"
             y="14"
             x="54">fijar color</tspan>
        </text>
        <text
           id="text900"
           style="font-size:6.66666651px;font-family:sans-serif;text-anchor:end;fill:#000000">
          <tspan
             id="tspan898"
             y="12"
             x="54" />
        </text>
      </g>
    </g>
    <g
       id="g922"
       transform="matrix(0.26458333,0,0,0.26458333,-24.584008,55.862528)">
      <g
         id="g920"
         transform="scale(1.5)">
        <path
           id="path906"
           style="fill:#ffb2bc;fill-opacity:1;stroke:#601136;stroke-width:1;stroke-linecap:round;stroke-opacity:1"
           d="m 8.5,8.5 v -4 a 4,4 90 0 1 4,-4 h 4 10 30 4 a 4,4 90 0 1 4,4 v 4 h -4 v -3 h -4 v 10 h 4 v -3 h 4 v 17 h -4 v -3 h -4 v 10 h 4 v -3 h 4 v 4 a 4,4 90 0 1 -4,4 h -4 -30 -10 -4 a 4,4 90 0 1 -4,-4 v -4 -21 -1 h -6 v 3 h -2 v -8 h 2 v 3 h 6 z" />
        <text
           id="text910"
           style="font-size:14px;font-family:sans-serif;text-anchor:end;fill:#000000">
          <tspan
             id="tspan908"
             y="24"
             x="54">×</tspan>
        </text>
        <text
           id="text914"
           style="font-size:9.33333302px;font-family:sans-serif;text-anchor:end;fill:#000000">
          <tspan
             id="tspan912"
             y="12"
             x="54" />
        </text>
        <text
           id="text918"
           style="font-size:9.33333302px;font-family:sans-serif;text-anchor:end;fill:#000000">
          <tspan
             id="tspan916"
             y="33"
             x="54" />
        </text>
      </g>
    </g>
    <g
       id="g932"
       transform="matrix(0.26458333,0,0,0.26458333,-1.9621279,64.196908)">
      <g
         id="g930"
         transform="scale(1.5)">
        <path
           id="path924"
           style="fill:#ffb2bc;fill-opacity:1;stroke:#601136;stroke-width:1;stroke-linecap:round;stroke-opacity:1"
           d="m 8.5,0.5 h 60 v 20 h -60 v -8 -1 h -6 v 3 h -2 v -8 h 2 v 3 h 6 v -1 z" />
        <text
           id="text928"
           style="font-size:10px;font-family:sans-serif;text-anchor:start;fill:#000000">
          <tspan
             id="tspan926"
             y="14"
             x="13">25</tspan>
        </text>
      </g>
    </g>
    <g
       id="g942"
       transform="matrix(0.26458333,0,0,0.26458333,-47.123708,64.196908)">
      <g
         id="g940"
         transform="scale(1.5)">
        <path
           id="path934"
           style="fill:#ff8b2d;fill-opacity:1;stroke:#520000;stroke-width:1;stroke-linecap:round;stroke-opacity:1"
           d="m 0.5,8.5 v -4 a 4,4 90 0 1 4,-4 h 4 v 2 h 10 v -2 h 20 4 a 4,4 90 0 1 4,4 v 4 4 4 a 4,4 90 0 1 -4,4 h -4 -20 -1 v 2 h -8 v -2 h -1 -4 a 4,4 90 0 1 -4,-4 v -4 z" />
        <text
           id="text938"
           style="font-size:10px;font-family:sans-serif;text-anchor:end;fill:#000000">
          <tspan
             id="tspan936"
             y="14"
             x="36">↓</tspan>
        </text>
      </g>
    </g>
  </g>
</svg>
