<?xml version="1.0" encoding="UTF-8" standalone="no"?>
<svg
   xmlns:dc="http://purl.org/dc/elements/1.1/"
   xmlns:cc="http://creativecommons.org/ns#"
   xmlns:rdf="http://www.w3.org/1999/02/22-rdf-syntax-ns#"
   xmlns:svg="http://www.w3.org/2000/svg"
   xmlns="http://www.w3.org/2000/svg"
   id="svg20"
   version="1.1"
   height="33"
   width="221">
  <metadata
     id="metadata26">
    <rdf:RDF>
      <cc:Work
         rdf:about="">
        <dc:format>image/svg+xml</dc:format>
        <dc:type
           rdf:resource="http://purl.org/dc/dcmitype/StillImage" />
        <dc:title></dc:title>
      </cc:Work>
    </rdf:RDF>
  </metadata>
  <defs
     id="defs24" />
  <rect
     class=""
     style=""
     stroke="none"
     fill="none"
     y="0"
     x="0"
     height="100%"
     width="100%"
     id="backgroundrect" />
  <g
     id="g18"
     style=""
     class="currentLayer">
    <title
       id="title3">Layer 1</title>
    <g
       id="g16"
       class="">
      <g
         class=""
         id="svg_15">
        <g
           id="svg_16"
           transform="translate(316, 455) scale(1.5)">
          <path
             id="svg_17"
             style="fill:#B0B0B0;fill-opacity:1;stroke:#A0A0A0;stroke-width:1;stroke-linecap:round;stroke-opacity:1;"
             d="m-210.6666717529297,-295.3333435058594 L-210.6666717529297,-299.3333435058594 A4,4 90 0 1 -206.6666717529297,-303.3333435058594 L-202.6666717529297,-303.3333435058594 L-202.6666717529297,-301.3333435058594 L-192.6666717529297,-301.3333435058594 L-192.6666717529297,-303.3333435058594 L-162.6666717529297,-303.3333435058594 L-158.6666717529297,-303.3333435058594 A4,4 90 0 1 -154.6666717529297,-299.3333435058594 L-154.6666717529297,-295.3333435058594 L-158.6666717529297,-295.3333435058594 L-158.6666717529297,-298.3333435058594 L-162.6666717529297,-298.3333435058594 L-162.6666717529297,-288.3333435058594 L-158.6666717529297,-288.3333435058594 L-158.6666717529297,-291.3333435058594 L-154.6666717529297,-291.3333435058594 L-154.6666717529297,-287.3333435058594 A4,4 90 0 1 -158.6666717529297,-283.3333435058594 L-162.6666717529297,-283.3333435058594 L-192.6666717529297,-283.3333435058594 L-193.6666717529297,-283.3333435058594 L-193.6666717529297,-281.3333435058594 L-201.6666717529297,-281.3333435058594 L-201.6666717529297,-283.3333435058594 L-202.6666717529297,-283.3333435058594 L-206.6666717529297,-283.3333435058594 A4,4 90 0 1 -210.6666717529297,-287.3333435058594 L-210.6666717529297,-291.3333435058594 L-210.6666717529297,-295.3333435058594 z" />
          <text
             x="-211.1666717529297"
             y="-303.8333435058594"
             id="svg_18"
             style="font-size:10px;fill:#282828;font-family:sans-serif;text-anchor:end">
            <tspan
               id="svg_19"
               y="-289.8333435058594"
               x="-165.1666717529297">imprimir</tspan>
          </text>
          <text
             x="-211.1666717529297"
             y="-303.8333435058594"
             id="svg_20"
             style="font-size:6.666666666666667px;fill:#282828;font-family:sans-serif;text-anchor:end" />
        </g>
      </g>
      <g
         class=""
         id="svg_22">
        <g
           id="svg_23"
           transform="translate(390, 455) scale(1.5)">
          <path
             id="svg_24"
             style="fill:#FF5942;fill-opacity:1;stroke:#EA4326;stroke-width:1;stroke-linecap:round;stroke-opacity:1;"
             d="m-202.6666717529297,-303.3333435058594 L-112.66667175292969,-303.3333435058594 L-112.66667175292969,-283.3333435058594 L-202.6666717529297,-283.3333435058594 L-202.6666717529297,-291.3333435058594 L-202.6666717529297,-292.3333435058594 L-208.6666717529297,-292.3333435058594 L-208.6666717529297,-289.3333435058594 L-210.6666717529297,-289.3333435058594 L-210.6666717529297,-297.3333435058594 L-208.6666717529297,-297.3333435058594 L-208.6666717529297,-294.3333435058594 L-202.6666717529297,-294.3333435058594 L-202.6666717529297,-295.3333435058594 z" />
          <text
             x="-211.1666717529297"
             y="-303.8333435058594"
             id="svg_25"
             style="font-size:10px;fill:#282828;font-family:sans-serif;text-anchor:start">
            <tspan
               id="svg_26"
               y="-289.8333435058594"
               x="-198.1666717529297">text</tspan>
          </text>
        </g>
      </g>
    </g>
  </g>
</svg>
