<svg xmlns="http://www.w3.org/2000/svg" width="348.33333349227905" height="228.33333277702332" style=""><rect id="backgroundrect" width="100%" height="100%" x="0" y="0" fill="none" stroke="none" style="" class=""/><g class="currentLayer" style=""><title>Layer 1</title><g class=""><g id="svg_15" class=""><g id="svg_16"><g transform="translate(342, 245) scale(1.5)" id="svg_17"><path d="m-216.388916015625,-131.94445461034775 L-216.388916015625,-135.94445461034775 A4,4 90 0 1 -212.388916015625,-139.94445461034775 L-208.388916015625,-139.94445461034775 L-208.388916015625,-137.94445461034775 L-198.388916015625,-137.94445461034775 L-198.388916015625,-139.94445461034775 L-189.388916015625,-139.94445461034775 L-129.388916015625,-139.94445461034775 L-125.388916015625,-139.94445461034775 A4,4 90 0 1 -121.388916015625,-135.94445461034775 L-121.388916015625,-131.94445461034775 L-125.388916015625,-131.94445461034775 L-125.388916015625,-134.94445461034775 L-129.388916015625,-134.94445461034775 L-129.388916015625,-124.94445461034775 L-125.388916015625,-124.94445461034775 L-125.388916015625,-127.94445461034775 L-121.388916015625,-127.94445461034775 L-121.388916015625,-123.94445461034775 A4,4 90 0 1 -125.388916015625,-119.94445461034775 L-129.388916015625,-119.94445461034775 L-189.388916015625,-119.94445461034775 L-190.388916015625,-119.94445461034775 L-190.388916015625,-117.94445461034775 L-198.388916015625,-117.94445461034775 L-198.388916015625,-119.94445461034775 L-199.388916015625,-119.94445461034775 L-203.388916015625,-119.94445461034775 A5,5 90 0 0 -208.388916015625,-114.94445461034775 L-208.388916015625,-110.94445461034775 L-208.388916015625,-106.94445461034775 L-208.388916015625,-64.94445461034775 L-208.388916015625,-60.94444698095322 A5,5 90 0 0 -203.388916015625,-55.94444698095322 L-199.388916015625,-55.94444698095322 L-199.388916015625,-53.94444698095322 L-189.388916015625,-53.94444698095322 L-189.388916015625,-55.94444698095322 L-181.388916015625,-55.94444698095322 L-181.388916015625,-49.94444698095322 L-181.388916015625,-43.94444698095322 L-181.388916015625,-39.94444698095322 A4,4 90 0 1 -185.388916015625,-35.94444698095322 L-189.388916015625,-35.94444698095322 L-198.388916015625,-35.94444698095322 L-199.388916015625,-35.94444698095322 L-199.388916015625,-33.94444698095322 L-207.388916015625,-33.94444698095322 L-207.388916015625,-35.94444698095322 L-208.388916015625,-35.94444698095322 L-212.388916015625,-35.94444698095322 A4,4 90 0 1 -216.388916015625,-39.94444698095322 L-216.388916015625,-43.94444698095322 z" style="fill:#FF8B2D;fill-opacity:1;stroke:#E86B0E;stroke-width:1;stroke-linecap:round;stroke-opacity:1;" id="svg_18"/><text style="font-size:10px;fill:#282828;font-family:sans-serif;text-anchor:start" id="svg_19" y="-140.44444781541824" x="-216.888902425766"><tspan x="-196.888902425766" y="-125.44444781541824" id="svg_20">note</tspan></text><text style="font-size:6.666666666666667px;fill:#282828;font-family:sans-serif;text-anchor:end" id="svg_21" y="-140.44444781541824" x="-216.888902425766"><tspan x="-131.888902425766" y="-128.44444781541824" id="svg_22">value</tspan></text></g></g><g transform="translate(342, 249) scale(0.5)" id="svg_23"><g style="isolation:isolate" id="svg_24"><g id="レイヤー_2" data-name="レイヤー 2"><g id="Icon"><rect width="42" height="42" rx="5" ry="5" style="fill:#292929;opacity:0.4;mix-blend-mode:multiply" id="svg_25" y="-421.3333432674408" x="-650.6667070388794"/><path d="M-620.1066284179688,-391.53337597846985 l-4.170000076293945,-4.159999847412109 h2.259999990463257 a1,1 0 1 0 0,-2.069999933242798 H-626.7266235351562 a1.0800000429153442,1.0800000429153442 0 0 0 -1.1100000143051147,1 v0 s0,0 0,0.05999999865889549 v4.639999866485596 h0 a1,1 0 1 0 2.0799999237060547,0 V-394.253377199173 l4.190000057220459,4.190000057220459 a1,1 0 0 0 1.4600000381469727,0 A1,1 0 0 0 -620.1066284179688,-391.53337597846985 z" style="fill:#fff" id="svg_26"/><path d="M-631.4966430664062,-396.733357667923 a1.0800000429153442,1.0800000429153442 0 0 0 -1.1100000143051147,-1 H-637.316650390625 a1,1 0 1 0 0,2.069999933242798 H-635.066650390625 L-639.2266235351562,-391.53337597846985 a1,1 0 0 0 1.4700000286102295,1.4700000286102295 l4.179999828338623,-4.190000057220459 v2.259999990463257 a1,1 0 1 0 2.0799999237060547,0 V-396.63335156440735 s0,0 0,-0.05999999865889549 A0.07999999821186066,0.07999999821186066 0 0 1 -631.4966430664062,-396.733357667923 z" style="fill:#fff" id="svg_27"/><path d="M-626.7266235351562,-400.8333637714386 h4.699999809265137 a1,1 0 1 0 0,-2.0799999237060547 H-624.276611328125 l4.170000076293945,-4.159999847412109 a1,1 0 0 0 0,-1.4700000286102295 a1,1 0 0 0 -1.4600000381469727,0 L-625.7566528320312,-404.3333637714386 V-406.6133625507355 a1,1 0 1 0 -2.0799999237060547,0 v4.639999866485596 a0.4300000071525574,0.4300000071525574 0 0 0 0,0.05000000074505806 v0.05000000074505806 A1.090000033378601,1.090000033378601 0 0 0 -626.7266235351562,-400.8333637714386 z" style="fill:#fff" id="svg_28"/><path d="M-632.53662109375,-407.7133686542511 a1.0800000429153442,1.0800000429153442 0 0 0 -1,1.090000033378601 V-404.3333637714386 l-4.179999828338623,-4.190000057220459 a1,1 0 0 0 -1.4700000286102295,0 a1,1 0 0 0 0,1.4600000381469727 l4.159999847412109,4.170000076293945 H-637.316650390625 a1,1 0 1 0 0,2.0799999237060547 h4.710000038146973 a1.090000033378601,1.090000033378601 0 0 0 1.1100000143051147,-1 a0.07999999821186066,0.07999999821186066 0 0 1 0,0 s0,0 0,-0.05999999865889549 V-406.6233723163605 A1.0700000524520874,1.0700000524520874 0 0 0 -632.53662109375,-407.7133686542511 z" style="fill:#fff" id="svg_29"/></g></g></g></g></g><g id="svg_30" class=""><g transform="translate(474, 245) scale(1.5)" id="svg_31"><path d="m-208.388916015625,-131.94445461034775 L-208.388916015625,-135.94445461034775 A4,4 90 0 1 -204.388916015625,-139.94445461034775 L-200.388916015625,-139.94445461034775 L-190.388916015625,-139.94445461034775 L-160.388916015625,-139.94445461034775 L-156.388916015625,-139.94445461034775 A4,4 90 0 1 -152.388916015625,-135.94445461034775 L-152.388916015625,-131.94445461034775 L-156.388916015625,-131.94445461034775 L-156.388916015625,-134.94445461034775 L-160.388916015625,-134.94445461034775 L-160.388916015625,-124.94445461034775 L-156.388916015625,-124.94445461034775 L-156.388916015625,-127.94445461034775 L-152.388916015625,-127.94445461034775 L-152.388916015625,-110.94445461034775 L-156.388916015625,-110.94445461034775 L-156.388916015625,-113.94445461034775 L-160.388916015625,-113.94445461034775 L-160.388916015625,-103.94445461034775 L-156.388916015625,-103.94445461034775 L-156.388916015625,-106.94445461034775 L-152.388916015625,-106.94445461034775 L-152.388916015625,-102.94445461034775 A4,4 90 0 1 -156.388916015625,-98.94445461034775 L-160.388916015625,-98.94445461034775 L-190.388916015625,-98.94445461034775 L-200.388916015625,-98.94445461034775 L-204.388916015625,-98.94445461034775 A4,4 90 0 1 -208.388916015625,-102.94445461034775 L-208.388916015625,-106.94445461034775 L-208.388916015625,-127.94445461034775 L-208.388916015625,-128.94445461034775 L-214.388916015625,-128.94445461034775 L-214.388916015625,-125.94445461034775 L-216.388916015625,-125.94445461034775 L-216.388916015625,-133.94445461034775 L-214.388916015625,-133.94445461034775 L-214.388916015625,-130.94445461034775 L-208.388916015625,-130.94445461034775 L-208.388916015625,-131.94445461034775 z" style="fill:#FF5293;fill-opacity:1;stroke:#FF2C76;stroke-width:1;stroke-linecap:round;stroke-opacity:1;" id="svg_32"/><text style="font-size:9px;fill:#282828;font-family:sans-serif;text-anchor:end" id="svg_33" y="-140.44444781541824" x="-216.888902425766"><tspan x="-162.888902425766" y="-117.44444781541824" id="svg_34">➗</tspan></text><text style="font-size:6px;fill:#282828;font-family:sans-serif;text-anchor:end" id="svg_35" y="-140.44444781541824" x="-216.888902425766"/><text style="font-size:6px;fill:#282828;font-family:sans-serif;text-anchor:end" id="svg_37" y="-140.44444781541824" x="-216.888902425766"/></g></g><g id="svg_39" class=""><g transform="translate(560, 245) scale(1.5)" id="svg_40"><path d="m-208.388916015625,-139.94445461034775 L-148.388916015625,-139.94445461034775 L-148.388916015625,-119.94445461034775 L-208.388916015625,-119.94445461034775 L-208.388916015625,-127.94445461034775 L-208.388916015625,-128.94445461034775 L-214.388916015625,-128.94445461034775 L-214.388916015625,-125.94445461034775 L-216.388916015625,-125.94445461034775 L-216.388916015625,-133.94445461034775 L-214.388916015625,-133.94445461034775 L-214.388916015625,-130.94445461034775 L-208.388916015625,-130.94445461034775 L-208.388916015625,-131.94445461034775 z" style="fill:#FF5293;fill-opacity:1;stroke:#FF2C76;stroke-width:1;stroke-linecap:round;stroke-opacity:1;" id="svg_41"/><text style="font-size:10px;fill:#282828;font-family:sans-serif;text-anchor:start" id="svg_42" y="-140.44444781541824" x="-216.888902425766"><tspan x="-203.888902425766" y="-126.44444781541824" id="svg_43">1</tspan></text></g></g><g id="svg_44" class=""><g transform="translate(560, 277) scale(1.5)" id="svg_45"><path d="m-208.388916015625,-139.94445461034775 L-148.388916015625,-139.94445461034775 L-148.388916015625,-119.94445461034775 L-208.388916015625,-119.94445461034775 L-208.388916015625,-127.94445461034775 L-208.388916015625,-128.94445461034775 L-214.388916015625,-128.94445461034775 L-214.388916015625,-125.94445461034775 L-216.388916015625,-125.94445461034775 L-216.388916015625,-133.94445461034775 L-214.388916015625,-133.94445461034775 L-214.388916015625,-130.94445461034775 L-208.388916015625,-130.94445461034775 L-208.388916015625,-131.94445461034775 z" style="fill:#FF5293;fill-opacity:1;stroke:#FF2C76;stroke-width:1;stroke-linecap:round;stroke-opacity:1;" id="svg_46"/><text style="font-size:10px;fill:#282828;font-family:sans-serif;text-anchor:start" id="svg_47" y="-140.44444781541824" x="-216.888902425766"><tspan x="-203.888902425766" y="-126.44444781541824" id="svg_48">4</tspan></text></g></g><g id="svg_49" class=""><g transform="translate(356, 277) scale(1.5)" id="svg_50"><path d="m-216.388916015625,-131.94445461034775 L-216.388916015625,-135.94445461034775 A4,4 90 0 1 -212.388916015625,-139.94445461034775 L-208.388916015625,-139.94445461034775 L-208.388916015625,-137.94445461034775 L-198.388916015625,-137.94445461034775 L-198.388916015625,-139.94445461034775 L-178.388916015625,-139.94445461034775 L-174.388916015625,-139.94445461034775 A4,4 90 0 1 -170.388916015625,-135.94445461034775 L-170.388916015625,-131.94445461034775 L-170.388916015625,-127.94445461034775 L-170.388916015625,-123.94445461034775 A4,4 90 0 1 -174.388916015625,-119.94445461034775 L-178.388916015625,-119.94445461034775 L-198.388916015625,-119.94445461034775 L-199.388916015625,-119.94445461034775 L-199.388916015625,-117.94445461034775 L-207.388916015625,-117.94445461034775 L-207.388916015625,-119.94445461034775 L-208.388916015625,-119.94445461034775 L-212.388916015625,-119.94445461034775 A4,4 90 0 1 -216.388916015625,-123.94445461034775 L-216.388916015625,-127.94445461034775 z" style="fill:#B0B0B0;fill-opacity:1;stroke:#A0A0A0;stroke-width:1;stroke-linecap:round;stroke-opacity:1;" id="svg_51"/><text style="font-size:10px;fill:#282828;font-family:sans-serif;text-anchor:end" id="svg_52" y="-140.44444781541824" x="-216.888902425766"><tspan x="-180.888902425766" y="-126.44444781541824" id="svg_53">↓</tspan></text></g></g><g id="svg_54" class=""><g transform="translate(356, 309) scale(1.5)" id="svg_55"><path d="m-216.388916015625,-131.94445461034775 L-216.388916015625,-135.94445461034775 A4,4 90 0 1 -212.388916015625,-139.94445461034775 L-208.388916015625,-139.94445461034775 L-208.388916015625,-137.94445461034775 L-198.388916015625,-137.94445461034775 L-198.388916015625,-139.94445461034775 L-168.388916015625,-139.94445461034775 L-164.388916015625,-139.94445461034775 A4,4 90 0 1 -160.388916015625,-135.94445461034775 L-160.388916015625,-131.94445461034775 L-164.388916015625,-131.94445461034775 L-164.388916015625,-134.94445461034775 L-168.388916015625,-134.94445461034775 L-168.388916015625,-124.94445461034775 L-164.388916015625,-124.94445461034775 L-164.388916015625,-127.94445461034775 L-160.388916015625,-127.94445461034775 L-160.388916015625,-110.94445461034775 L-164.388916015625,-110.94445461034775 L-164.388916015625,-113.94445461034775 L-168.388916015625,-113.94445461034775 L-168.388916015625,-103.94445461034775 L-164.388916015625,-103.94445461034775 L-164.388916015625,-106.94445461034775 L-160.388916015625,-106.94445461034775 L-160.388916015625,-102.94445461034775 A4,4 90 0 1 -164.388916015625,-98.94445461034775 L-168.388916015625,-98.94445461034775 L-198.388916015625,-98.94445461034775 L-199.388916015625,-98.94445461034775 L-199.388916015625,-96.94445461034775 L-207.388916015625,-96.94445461034775 L-207.388916015625,-98.94445461034775 L-208.388916015625,-98.94445461034775 L-212.388916015625,-98.94445461034775 A4,4 90 0 1 -216.388916015625,-102.94445461034775 L-216.388916015625,-106.94445461034775 L-216.388916015625,-127.94445461034775 L-216.388916015625,-131.94445461034775 z" style="fill:#77C428;fill-opacity:1;stroke:#57AD02;stroke-width:1;stroke-linecap:round;stroke-opacity:1;" id="svg_56"/><text style="font-size:10px;fill:#282828;font-family:sans-serif;text-anchor:end" id="svg_57" y="-140.44444781541824" x="-216.888902425766"><tspan x="-170.888902425766" y="-116.44444781541824" id="svg_58">pitch</tspan></text><text style="font-size:6.666666666666667px;fill:#282828;font-family:sans-serif;text-anchor:end" id="svg_59" y="-140.44444781541824" x="-216.888902425766"><tspan x="-170.888902425766" y="-128.44444781541824" id="svg_60">name</tspan></text><text style="font-size:6.666666666666667px;fill:#282828;font-family:sans-serif;text-anchor:end" id="svg_61" y="-140.44444781541824" x="-216.888902425766"><tspan x="-170.888902425766" y="-107.44444781541824" id="svg_62">octave</tspan></text></g></g><g id="svg_63" class=""><g transform="translate(430, 309) scale(1.5)" id="svg_64"><path d="m-208.388916015625,-139.94445461034775 L-148.388916015625,-139.94445461034775 L-148.388916015625,-119.94445461034775 L-208.388916015625,-119.94445461034775 L-208.388916015625,-127.94445461034775 L-208.388916015625,-128.94445461034775 L-214.388916015625,-128.94445461034775 L-214.388916015625,-125.94445461034775 L-216.388916015625,-125.94445461034775 L-216.388916015625,-133.94445461034775 L-214.388916015625,-133.94445461034775 L-214.388916015625,-130.94445461034775 L-208.388916015625,-130.94445461034775 L-208.388916015625,-131.94445461034775 z" style="fill:#77C428;fill-opacity:1;stroke:#57AD02;stroke-width:1;stroke-linecap:round;stroke-opacity:1;" id="svg_65"/><text style="font-size:10px;fill:#282828;font-family:sans-serif;text-anchor:start" id="svg_66" y="-140.44444781541824" x="-216.888902425766"><tspan x="-203.888902425766" y="-126.44444781541824" id="svg_67">sol</tspan></text></g></g><g id="svg_68" class=""><g transform="translate(430, 341) scale(1.5)" id="svg_69"><path d="m-208.388916015625,-139.94445461034775 L-148.388916015625,-139.94445461034775 L-148.388916015625,-119.94445461034775 L-208.388916015625,-119.94445461034775 L-208.388916015625,-127.94445461034775 L-208.388916015625,-128.94445461034775 L-214.388916015625,-128.94445461034775 L-214.388916015625,-125.94445461034775 L-216.388916015625,-125.94445461034775 L-216.388916015625,-133.94445461034775 L-214.388916015625,-133.94445461034775 L-214.388916015625,-130.94445461034775 L-208.388916015625,-130.94445461034775 L-208.388916015625,-131.94445461034775 z" style="fill:#FF5293;fill-opacity:1;stroke:#FF2C76;stroke-width:1;stroke-linecap:round;stroke-opacity:1;" id="svg_70"/><text style="font-size:10px;fill:#282828;font-family:sans-serif;text-anchor:start" id="svg_71" y="-140.44444781541824" x="-216.888902425766"><tspan x="-203.888902425766" y="-126.44444781541824" id="svg_72">4</tspan></text></g></g><g id="svg_73" class=""><g transform="translate(328, 213) scale(1.5)" id="svg_74"><path d="m-216.388916015625,-131.94445461034775 L-216.388916015625,-135.94445461034775 A4,4 90 0 1 -212.388916015625,-139.94445461034775 L-208.388916015625,-139.94445461034775 L-208.388916015625,-137.94445461034775 L-198.388916015625,-137.94445461034775 L-198.388916015625,-139.94445461034775 L-189.388916015625,-139.94445461034775 L-169.388916015625,-139.94445461034775 L-165.388916015625,-139.94445461034775 A4,4 90 0 1 -161.388916015625,-135.94445461034775 L-161.388916015625,-131.94445461034775 L-165.388916015625,-131.94445461034775 L-165.388916015625,-134.94445461034775 L-169.388916015625,-134.94445461034775 L-169.388916015625,-124.94445461034775 L-165.388916015625,-124.94445461034775 L-165.388916015625,-127.94445461034775 L-161.388916015625,-127.94445461034775 L-161.388916015625,-123.94445461034775 A4,4 90 0 1 -165.388916015625,-119.94445461034775 L-169.388916015625,-119.94445461034775 L-189.388916015625,-119.94445461034775 L-190.388916015625,-119.94445461034775 L-190.388916015625,-117.94445461034775 L-198.388916015625,-117.94445461034775 L-198.388916015625,-119.94445461034775 L-199.388916015625,-119.94445461034775 L-203.388916015625,-119.94445461034775 A5,5 90 0 0 -208.388916015625,-114.94445461034775 L-208.388916015625,-110.94445461034775 L-208.388916015625,-106.94445461034775 L-208.388916015625,-22.944446980953217 L-208.388916015625,-18.944446980953217 A5,5 90 0 0 -203.388916015625,-13.944446980953217 L-199.388916015625,-13.944446980953217 L-199.388916015625,-11.944446980953217 L-189.388916015625,-11.944446980953217 L-189.388916015625,-13.944446980953217 L-181.388916015625,-13.944446980953217 L-181.388916015625,-7.9444469809532166 L-181.388916015625,-1.944447934627533 L-181.388916015625,2.0555521845817566 A4,4 90 0 1 -185.388916015625,6.055552065372467 L-189.388916015625,6.055552065372467 L-198.388916015625,6.055552065372467 L-199.388916015625,6.055552065372467 L-199.388916015625,8.055552065372467 L-207.388916015625,8.055552065372467 L-207.388916015625,6.055552065372467 L-208.388916015625,6.055552065372467 L-212.388916015625,6.055552065372467 A4,4 90 0 1 -216.388916015625,2.0555521845817566 L-216.388916015625,-1.944447934627533 z" style="fill:#D68136;fill-opacity:1;stroke:#B7651A;stroke-width:1;stroke-linecap:round;stroke-opacity:1;" id="svg_75"/><text style="font-size:10px;fill:#282828;font-family:sans-serif;text-anchor:start" id="svg_76" y="-140.44444781541824" x="-216.888902425766"><tspan x="-211.888902425766" y="-125.44444781541824" id="svg_77">repeat</tspan></text><text style="font-size:6.666666666666667px;fill:#282828;font-family:sans-serif;text-anchor:end" id="svg_78" y="-140.44444781541824" x="-216.888902425766"/></g></g><g id="svg_80" class=""><g transform="translate(400, 213) scale(1.5)" id="svg_81"><path d="m-208.388916015625,-139.94445461034775 L-148.388916015625,-139.94445461034775 L-148.388916015625,-119.94445461034775 L-208.388916015625,-119.94445461034775 L-208.388916015625,-127.94445461034775 L-208.388916015625,-128.94445461034775 L-214.388916015625,-128.94445461034775 L-214.388916015625,-125.94445461034775 L-216.388916015625,-125.94445461034775 L-216.388916015625,-133.94445461034775 L-214.388916015625,-133.94445461034775 L-214.388916015625,-130.94445461034775 L-208.388916015625,-130.94445461034775 L-208.388916015625,-131.94445461034775 z" style="fill:#FF5293;fill-opacity:1;stroke:#FF2C76;stroke-width:1;stroke-linecap:round;stroke-opacity:1;" id="svg_82"/><text style="font-size:10px;fill:#282828;font-family:sans-serif;text-anchor:start" id="svg_83" y="-140.44444781541824" x="-216.888902425766"><tspan x="-203.888902425766" y="-126.44444781541824" id="svg_84">4</tspan></text></g></g></g></g></svg>