<?xml version="1.0" encoding="UTF-8" standalone="no"?>
<svg
   xmlns:dc="http://purl.org/dc/elements/1.1/"
   xmlns:cc="http://creativecommons.org/ns#"
   xmlns:rdf="http://www.w3.org/1999/02/22-rdf-syntax-ns#"
   xmlns:svg="http://www.w3.org/2000/svg"
   xmlns="http://www.w3.org/2000/svg"
   width="83.436905mm"
   height="88.329308mm"
   viewBox="0 0 83.436905 88.329307"
   version="1.1"
   id="svg11666">
  <defs
     id="defs11660" />
  <metadata
     id="metadata11663">
    <rdf:RDF>
      <cc:Work
         rdf:about="">
        <dc:format>image/svg+xml</dc:format>
        <dc:type
           rdf:resource="http://purl.org/dc/dcmitype/StillImage" />
        <dc:title></dc:title>
      </cc:Work>
    </rdf:RDF>
  </metadata>
  <g
     id="g3576"
     transform="matrix(0.26458333,0,0,0.26458333,3.5718749,44.164656)">
    <g
       id="g3574"
       transform="scale(1.5)">
      <path
         id="path3564"
         style="fill:#3edcdd;fill-opacity:1;stroke:#1dbcbd;stroke-width:1;stroke-linecap:round;stroke-opacity:1"
         d="m 0.5,8.5 v -4 c 0,-2.209139 1.790861,-4 4,-4 h 4 v 2 h 10 v -2 h 9 36.901367 4 c 2.209139,0 4,1.790861 4,4 v 4 h -4 v -3 h -4 v 10 h 4 v -3 h 4 v 4 c 0,2.209139 -1.790861,4 -4,4 h -4 H 27.5 h -1 v 2 h -8 v -2 h -1 -4 c -2.761424,0 -5,2.238576 -5,5 v 4 4 21 4 c 0,2.761424 2.238576,5 5,5 h 4 v 2 h 10 v -2 h 8 v 6 6 4 c 0,2.209139 -1.790861,4 -4,4 h -4 -9 -1 v 2 h -8 v -2 h -1 -4 c -2.209139,0 -4,-1.790861 -4,-4 v -4 z" />
      <text
         id="text3568"
         style="font-size:10px;font-family:sans-serif;text-anchor:start;fill:#282828">
        <tspan
           id="tspan3566"
           y="15"
           x="5">fijar tambor</tspan>
      </text>
      <text
         id="text3572"
         style="font-size:6.66666651px;font-family:sans-serif;text-anchor:end;fill:#282828">
        <tspan
           id="tspan3570"
           y="12"
           x="54" />
      </text>
    </g>
  </g>
  <g
     id="g3587"
     transform="matrix(0.26458333,0,0,0.26458333,29.32962,44.164656)">
    <g
       id="g3584"
       transform="scale(1.5)">
      <path
         id="path3578"
         style="fill:#3edcdd;fill-opacity:1;stroke:#1dbcbd;stroke-width:1;stroke-linecap:round;stroke-opacity:1"
         d="m 8.5,0.5 h 110 v 20 H 8.5 v -8 -1 h -6 v 3 h -2 v -8 h 2 v 3 h 6 v -1 z" />
      <text
         id="text3582"
         style="font-size:10px;font-family:sans-serif;text-anchor:start;fill:#282828">
        <tspan
           id="tspan3580"
           y="14"
           x="13">tambor de patada</tspan>
      </text>
    </g>
  </g>
  <g
     id="g3605"
     transform="matrix(0.26458333,0,0,0.26458333,8.2020833,52.499031)">
    <g
       id="g3603"
       transform="scale(1.5)">
      <path
         id="path3589"
         style="fill:#7cd622;fill-opacity:1;stroke:#57ad02;stroke-width:1;stroke-linecap:round;stroke-opacity:1"
         d="m -2.1666668,8.5 v -4 c 0,-2.209139 1.79086104,-4 4,-4 h 4 v 2 h 9.9999998 v -2 h 43.22819 4 c 2.209139,0 4,1.790861 4,4 v 4 h -4 v -3 h -4 v 10 h 4 v -3 h 4 v 17 h -4 v -3 h -4 v 10 h 4 v -3 h 4 v 4 c 0,2.209139 -1.790861,4 -4,4 h -4 -43.22819 -1 v 2 H 6.8333332 v -2 h -1 -4 c -2.20913896,0 -4.6985911,-1.904227 -4,-4 v -4 -21 z" />
      <text
         id="text3593"
         style="font-size:10px;font-family:sans-serif;text-anchor:end;fill:#282828">
        <tspan
           id="tspan3591"
           y="24"
           x="57">ritmo</tspan>
      </text>
      <text
         id="text3597"
         style="font-size:6.66666651px;font-family:sans-serif;text-anchor:end;fill:#282828">
        <tspan
           id="tspan3595"
           y="12"
           x="57">número de notas</tspan>
      </text>
      <text
         id="text3601"
         style="font-size:6.66666651px;font-family:sans-serif;text-anchor:end;fill:#282828">
        <tspan
           id="tspan3599"
           y="33"
           x="57">valor de la nota</tspan>
      </text>
    </g>
  </g>
  <g
     id="g3615"
     transform="matrix(0.26458333,0,0,0.26458333,31.840568,52.499031)">
    <g
       id="g3613"
       transform="scale(1.5)">
      <path
         id="path3607"
         style="fill:#ff6ea1;fill-opacity:1;stroke:#ff2c76;stroke-width:1;stroke-linecap:round;stroke-opacity:1"
         d="m 8.5,0.5 h 60 v 20 h -60 v -8 -1 h -6 v 3 h -2 v -8 h 2 v 3 h 6 v -1 z" />
      <text
         id="text3611"
         style="font-size:10px;font-family:sans-serif;text-anchor:start;fill:#282828">
        <tspan
           id="tspan3609"
           y="14"
           x="13">1</tspan>
      </text>
    </g>
  </g>
  <g
     id="g3633"
     transform="matrix(0.26458333,0,0,0.26458333,31.840568,60.833406)">
    <g
       id="g3631"
       transform="scale(1.5)">
      <path
         id="path3617"
         style="fill:#ff6ea1;fill-opacity:1;stroke:#ff2c76;stroke-width:1;stroke-linecap:round;stroke-opacity:1"
         d="m 8.5,8.5 v -4 a 4,4 90 0 1 4,-4 h 4 10 30 4 a 4,4 90 0 1 4,4 v 4 h -4 v -3 h -4 v 10 h 4 v -3 h 4 v 17 h -4 v -3 h -4 v 10 h 4 v -3 h 4 v 4 a 4,4 90 0 1 -4,4 h -4 -30 -10 -4 a 4,4 90 0 1 -4,-4 v -4 -21 -1 h -6 v 3 h -2 v -8 h 2 v 3 h 6 z" />
      <text
         id="text3621"
         style="font-size:9px;font-family:sans-serif;text-anchor:end;fill:#282828">
        <tspan
           id="tspan3619"
           y="23"
           x="54">➗</tspan>
      </text>
      <text
         id="text3625"
         style="font-size:6px;font-family:sans-serif;text-anchor:end;fill:#282828">
        <tspan
           id="tspan3623"
           y="12"
           x="54" />
      </text>
      <text
         id="text3629"
         style="font-size:6px;font-family:sans-serif;text-anchor:end;fill:#282828">
        <tspan
           id="tspan3627"
           y="33"
           x="54" />
      </text>
    </g>
  </g>
  <g
     id="g3643"
     transform="matrix(0.26458333,0,0,0.26458333,54.462442,60.833406)">
    <g
       id="g3641"
       transform="scale(1.5)">
      <path
         id="path3635"
         style="fill:#ff6ea1;fill-opacity:1;stroke:#ff2c76;stroke-width:1;stroke-linecap:round;stroke-opacity:1"
         d="m 8.5,0.5 h 60 v 20 h -60 v -8 -1 h -6 v 3 h -2 v -8 h 2 v 3 h 6 v -1 z" />
      <text
         id="text3639"
         style="font-size:10px;font-family:sans-serif;text-anchor:start;fill:#282828">
        <tspan
           id="tspan3637"
           y="14"
           x="13">1</tspan>
      </text>
    </g>
  </g>
  <g
     id="g3653"
     transform="matrix(0.26458333,0,0,0.26458333,54.462442,69.16778)">
    <g
       id="g3651"
       transform="scale(1.5)">
      <path
         id="path3645"
         style="fill:#ff6ea1;fill-opacity:1;stroke:#ff2c76;stroke-width:1;stroke-linecap:round;stroke-opacity:1"
         d="m 8.5,0.5 h 60 v 20 h -60 v -8 -1 h -6 v 3 h -2 v -8 h 2 v 3 h 6 v -1 z" />
      <text
         id="text3649"
         style="font-size:10px;font-family:sans-serif;text-anchor:start;fill:#282828">
        <tspan
           id="tspan3647"
           y="14"
           x="13">1</tspan>
      </text>
    </g>
  </g>
  <g
     transform="matrix(0.26458333,0,0,0.26458333,-418.83541,15.011404)"
     id="g3683">
    <g
       id="g3663"
       transform="translate(1583,-56.314477)">
      <g
         id="g3661"
         transform="scale(1.5)">
        <path
           id="path3655"
           style="fill:#7cd622;fill-opacity:1;stroke:#57ad02;stroke-width:1;stroke-linecap:round;stroke-opacity:1"
           d="m 0.5,14.5 v -4 a 4,4 90 0 1 4,-4 h 4 l 5,-6 5,6 h 9 71.123047 4.000003 a 4,4 90 0 1 4,4 v 4 4 4 a 4,4 90 0 1 -4,4 H 98.623047 27.5 h -1 v 2 h -8 v -2 h -1 -4 a 5,5 90 0 0 -5,5 v 4 4 147 4 a 5,5 90 0 0 5,5 h 4 v 2 h 10 v -2 h 8 v 6 6 4 a 4,4 90 0 1 -4,4 h -4 -9 l -5,6 -5,-6 h -4 a 4,4 90 0 1 -4,-4 v -4 z" />
        <text
           id="text3659"
           style="font-size:10px;font-family:sans-serif;text-anchor:start;fill:#282828">
          <tspan
             id="tspan3657"
             y="22"
             x="20">regla de ritmo</tspan>
        </text>
      </g>
    </g>
    <g
       id="g3681"
       transform="matrix(0.5,0,0,0.5,1583,-44.314477)">
      <g
         id="g3679"
         style="isolation:isolate">
        <g
           data-name="レイヤー 2"
           id="g3677">
          <g
             id="g3675">
            <rect
               id="rect3665"
               style="opacity:0.4;mix-blend-mode:multiply;fill:#292929"
               ry="5"
               rx="5"
               height="42"
               width="42"
               x="0"
               y="0" />
            <path
               id="path3667"
               style="fill:#ffffff"
               d="m 30.56,29.8 -4.17,-4.16 h 2.26 a 1.035,1.035 0 1 0 0,-2.07 h -4.71 a 1.08,1.08 0 0 0 -1.11,1 v 0 c 0,0 0,0 0,0.06 v 4.64 0 a 1.04,1.04 0 1 0 2.08,0 v -2.19 l 4.19,4.19 a 1,1 0 0 0 1.46,0 1,1 0 0 0 0,-1.47 z" />
            <path
               id="path3669"
               style="fill:#ffffff"
               d="m 19.17,24.6 a 1.08,1.08 0 0 0 -1.11,-1 h -4.71 a 1.035,1.035 0 1 0 0,2.07 h 2.25 l -4.16,4.13 a 1.039447,1.039447 0 0 0 1.47,1.47 l 4.18,-4.19 v 2.26 a 1.04,1.04 0 1 0 2.08,0 V 24.7 c 0,0 0,0 0,-0.06 a 0.08,0.08 0 0 1 0,-0.04 z" />
            <path
               id="path3671"
               style="fill:#ffffff"
               d="m 23.94,20.5 h 4.7 a 1.04,1.04 0 1 0 0,-2.08 h -2.25 l 4.17,-4.16 a 1,1 0 0 0 0,-1.47 1,1 0 0 0 -1.46,0 L 24.91,17 v -2.28 a 1.04,1.04 0 1 0 -2.08,0 v 4.64 a 0.43,0.43 0 0 0 0,0.05 v 0.05 a 1.09,1.09 0 0 0 1.11,1.04 z" />
            <path
               id="path3673"
               style="fill:#ffffff"
               d="m 18.13,13.62 a 1.08,1.08 0 0 0 -1,1.09 V 17 l -4.18,-4.19 a 1,1 0 0 0 -1.47,0 1,1 0 0 0 0,1.46 l 4.16,4.17 h -2.29 a 1.04,1.04 0 1 0 0,2.08 h 4.71 a 1.09,1.09 0 0 0 1.11,-1 c 0,0 0,0 0,-0.06 v -4.75 a 1.07,1.07 0 0 0 -1.04,-1.09 z" />
          </g>
        </g>
      </g>
    </g>
  </g>
  <g
     id="g3707"
     transform="matrix(0.26458333,0,0,0.26458333,29.32962,10.827157)">
    <g
       id="g3705"
       transform="scale(1.5)">
      <path
         id="path3699"
         style="fill:#3edcdd;fill-opacity:1;stroke:#1dbcbd;stroke-width:1;stroke-linecap:round;stroke-opacity:1"
         d="m 8.5,0.5 h 127.33333 v 20 H 8.5 v -8 -1 h -6 v 3 h -2 v -8 h 2 v 3 h 6 v -1 z" />
      <text
         id="text3703"
         style="font-size:10px;font-family:sans-serif;text-anchor:start;fill:#282828">
        <tspan
           id="tspan3701"
           y="14"
           x="13">tambor militar pequeño</tspan>
      </text>
    </g>
  </g>
  <g
     id="g3697"
     transform="matrix(0.26458333,0,0,0.26458333,3.5718749,10.827157)">
    <g
       id="g3695"
       transform="scale(1.5)">
      <path
         id="path3685"
         style="fill:#3edcdd;fill-opacity:1;stroke:#1dbcbd;stroke-width:1;stroke-linecap:round;stroke-opacity:1"
         d="m 0.5,8.5 v -4 c 0,-2.209139 1.790861,-4 4,-4 h 4 v 2 h 10 v -2 h 9 36.901367 4 c 2.209139,0 4,1.790861 4,4 v 4 h -4 v -3 h -4 v 10 h 4 v -3 h 4 v 4 c 0,2.209139 -1.790861,4 -4,4 h -4 H 27.5 h -1 v 2 h -8 v -2 h -1 -4 c -2.761424,0 -5,2.238576 -5,5 v 4 4 21 4 c 0,2.761424 2.238576,5 5,5 h 4 v 2 h 10 v -2 h 8 v 6 6 4 c 0,2.209139 -1.790861,4 -4,4 h -4 -9 -1 v 2 h -8 v -2 h -1 -4 c -2.209139,0 -4,-1.790861 -4,-4 v -4 z" />
      <text
         id="text3689"
         style="font-size:10px;font-family:sans-serif;text-anchor:start;fill:#282828">
        <tspan
           id="tspan3687"
           y="15"
           x="5">fijar tambor</tspan>
      </text>
      <text
         id="text3693"
         style="font-size:6.66666651px;font-family:sans-serif;text-anchor:end;fill:#282828">
        <tspan
           id="tspan3691"
           y="12"
           x="54" />
      </text>
    </g>
  </g>
  <g
     id="g3725"
     transform="matrix(0.26458333,0,0,0.26458333,8.2020833,19.161532)">
    <g
       id="g3723"
       transform="scale(1.5)">
      <path
         id="path3709"
         style="fill:#7cd622;fill-opacity:1;stroke:#57ad02;stroke-width:1;stroke-linecap:round;stroke-opacity:1"
         d="m -2.1666668,8.5 v -4 c 0,-2.209139 1.79086104,-4 4,-4 h 4 v 2 h 9.9999998 v -2 h 43.22819 4 c 2.209139,0 4,1.790861 4,4 v 4 h -4 v -3 h -4 v 10 h 4 v -3 h 4 v 17 h -4 v -3 h -4 v 10 h 4 v -3 h 4 v 4 c 0,2.209139 -1.790861,4 -4,4 h -4 -43.22819 -1 v 2 H 6.8333332 v -2 h -1 -4 c -2.20913896,0 -4.6985911,-1.904227 -4,-4 v -4 -21 z" />
      <text
         id="text3713"
         style="font-size:10px;font-family:sans-serif;text-anchor:end;fill:#282828">
        <tspan
           id="tspan3711"
           y="24"
           x="57">ritmo</tspan>
      </text>
      <text
         id="text3717"
         style="font-size:6.66666651px;font-family:sans-serif;text-anchor:end;fill:#282828">
        <tspan
           id="tspan3715"
           y="12"
           x="57">número de notas</tspan>
      </text>
      <text
         id="text3721"
         style="font-size:6.66666651px;font-family:sans-serif;text-anchor:end;fill:#282828">
        <tspan
           id="tspan3719"
           y="33"
           x="57">valor de la nota</tspan>
      </text>
    </g>
  </g>
  <g
     id="g3735"
     transform="matrix(0.26458333,0,0,0.26458333,31.840568,19.161532)">
    <g
       id="g3733"
       transform="scale(1.5)">
      <path
         id="path3727"
         style="fill:#ff6ea1;fill-opacity:1;stroke:#ff2c76;stroke-width:1;stroke-linecap:round;stroke-opacity:1"
         d="m 8.5,0.5 h 60 v 20 h -60 v -8 -1 h -6 v 3 h -2 v -8 h 2 v 3 h 6 v -1 z" />
      <text
         id="text3731"
         style="font-size:10px;font-family:sans-serif;text-anchor:start;fill:#282828">
        <tspan
           id="tspan3729"
           y="14"
           x="13">1</tspan>
      </text>
    </g>
  </g>
  <g
     id="g3753"
     transform="matrix(0.26458333,0,0,0.26458333,31.840568,27.495907)">
    <g
       id="g3751"
       transform="scale(1.5)">
      <path
         id="path3737"
         style="fill:#ff6ea1;fill-opacity:1;stroke:#ff2c76;stroke-width:1;stroke-linecap:round;stroke-opacity:1"
         d="m 8.5,8.5 v -4 a 4,4 90 0 1 4,-4 h 4 10 30 4 a 4,4 90 0 1 4,4 v 4 h -4 v -3 h -4 v 10 h 4 v -3 h 4 v 17 h -4 v -3 h -4 v 10 h 4 v -3 h 4 v 4 a 4,4 90 0 1 -4,4 h -4 -30 -10 -4 a 4,4 90 0 1 -4,-4 v -4 -21 -1 h -6 v 3 h -2 v -8 h 2 v 3 h 6 z" />
      <text
         id="text3741"
         style="font-size:9px;font-family:sans-serif;text-anchor:end;fill:#282828">
        <tspan
           id="tspan3739"
           y="23"
           x="54">➗</tspan>
      </text>
      <text
         id="text3745"
         style="font-size:6px;font-family:sans-serif;text-anchor:end;fill:#282828">
        <tspan
           id="tspan3743"
           y="12"
           x="54" />
      </text>
      <text
         id="text3749"
         style="font-size:6px;font-family:sans-serif;text-anchor:end;fill:#282828">
        <tspan
           id="tspan3747"
           y="33"
           x="54" />
      </text>
    </g>
  </g>
  <g
     id="g3763"
     transform="matrix(0.26458333,0,0,0.26458333,54.462442,27.495907)">
    <g
       id="g3761"
       transform="scale(1.5)">
      <path
         id="path3755"
         style="fill:#ff6ea1;fill-opacity:1;stroke:#ff2c76;stroke-width:1;stroke-linecap:round;stroke-opacity:1"
         d="m 8.5,0.5 h 60 v 20 h -60 v -8 -1 h -6 v 3 h -2 v -8 h 2 v 3 h 6 v -1 z" />
      <text
         id="text3759"
         style="font-size:10px;font-family:sans-serif;text-anchor:start;fill:#282828">
        <tspan
           id="tspan3757"
           y="14"
           x="13">1</tspan>
      </text>
    </g>
  </g>
  <g
     id="g3773"
     transform="matrix(0.26458333,0,0,0.26458333,54.462442,35.830282)">
    <g
       id="g3771"
       transform="scale(1.5)">
      <path
         id="path3765"
         style="fill:#ff6ea1;fill-opacity:1;stroke:#ff2c76;stroke-width:1;stroke-linecap:round;stroke-opacity:1"
         d="m 8.5,0.5 h 60 v 20 h -60 v -8 -1 h -6 v 3 h -2 v -8 h 2 v 3 h 6 v -1 z" />
      <text
         id="text3769"
         style="font-size:10px;font-family:sans-serif;text-anchor:start;fill:#282828">
        <tspan
           id="tspan3767"
           y="14"
           x="13">1</tspan>
      </text>
    </g>
  </g>
</svg>
