<?xml version="1.0" encoding="UTF-8" standalone="no"?>
<svg
   xmlns:dc="http://purl.org/dc/elements/1.1/"
   xmlns:cc="http://creativecommons.org/ns#"
   xmlns:rdf="http://www.w3.org/1999/02/22-rdf-syntax-ns#"
   xmlns:svg="http://www.w3.org/2000/svg"
   xmlns="http://www.w3.org/2000/svg"
   width="88.50312mm"
   height="109.14062mm"
   viewBox="0 0 88.503118 109.14063"
   version="1.1"
   id="svg11666">
  <defs
     id="defs11660" />
  <metadata
     id="metadata11663">
    <rdf:RDF>
      <cc:Work
         rdf:about="">
        <dc:format>image/svg+xml</dc:format>
        <dc:type
           rdf:resource="http://purl.org/dc/dcmitype/StillImage" />
        <dc:title></dc:title>
      </cc:Work>
    </rdf:RDF>
  </metadata>
  <g
     transform="matrix(0.26458333,0,0,0.26458333,-146.31458,-129.38125)"
     id="g226">
    <g
       id="g206"
       transform="translate(553,552)">
      <g
         id="g204"
         transform="scale(1.5)">
        <path
           id="path194"
           style="fill:#fe994f;fill-opacity:1;stroke:#e86b0e;stroke-width:1;stroke-linecap:round;stroke-opacity:1"
           d="m 0.5,8.5 v -4 a 4,4 90 0 1 4,-4 h 4 v 2 h 10 v -2 h 9 60 4 a 4,4 90 0 1 4,4 v 4 h -4 v -3 h -4 v 10 h 4 v -3 h 4 v 4 a 4,4 90 0 1 -4,4 h -4 -60 -1 v 2 h -8 v -2 h -1 -4 a 5,5 90 0 0 -5,5 v 4 4 42 4 a 5,5 90 0 0 5,5 h 4 v 2 h 10 v -2 h 8 v 6 6 4 a 4,4 90 0 1 -4,4 h -4 -9 -1 v 2 h -8 v -2 h -1 -4 a 4,4 90 0 1 -4,-4 v -4 z" />
        <text
           id="text198"
           style="font-size:10px;font-family:sans-serif;text-anchor:start;fill:#282828">
          <tspan
             id="tspan196"
             y="15"
             x="20">nota</tspan>
        </text>
        <text
           id="text202"
           style="font-size:6.66666651px;font-family:sans-serif;text-anchor:end;fill:#282828">
          <tspan
             id="tspan200"
             y="12"
             x="85">valor</tspan>
        </text>
      </g>
    </g>
    <g
       id="g224"
       transform="matrix(0.5,0,0,0.5,553,556)">
      <g
         id="g222"
         style="isolation:isolate">
        <g
           data-name="レイヤー 2"
           id="g220">
          <g
             id="g218">
            <rect
               y="0"
               x="0"
               id="rect208"
               style="opacity:0.4;mix-blend-mode:multiply;fill:#292929"
               ry="5"
               rx="5"
               height="42"
               width="42" />
            <path
               id="path210"
               style="fill:#ffffff"
               d="m 30.56,29.8 -4.17,-4.16 h 2.26 a 1.035,1.035 0 1 0 0,-2.07 h -4.71 a 1.08,1.08 0 0 0 -1.11,1 v 0 c 0,0 0,0 0,0.06 v 4.64 0 a 1.04,1.04 0 1 0 2.08,0 v -2.19 l 4.19,4.19 a 1,1 0 0 0 1.46,0 1,1 0 0 0 0,-1.47 z" />
            <path
               id="path212"
               style="fill:#ffffff"
               d="m 19.17,24.6 a 1.08,1.08 0 0 0 -1.11,-1 h -4.71 a 1.035,1.035 0 1 0 0,2.07 h 2.25 l -4.16,4.13 a 1.039447,1.039447 0 0 0 1.47,1.47 l 4.18,-4.19 v 2.26 a 1.04,1.04 0 1 0 2.08,0 V 24.7 c 0,0 0,0 0,-0.06 a 0.08,0.08 0 0 1 0,-0.04 z" />
            <path
               id="path214"
               style="fill:#ffffff"
               d="m 23.94,20.5 h 4.7 a 1.04,1.04 0 1 0 0,-2.08 h -2.25 l 4.17,-4.16 a 1,1 0 0 0 0,-1.47 1,1 0 0 0 -1.46,0 L 24.91,17 v -2.28 a 1.04,1.04 0 1 0 -2.08,0 v 4.64 a 0.43,0.43 0 0 0 0,0.05 v 0.05 a 1.09,1.09 0 0 0 1.11,1.04 z" />
            <path
               id="path216"
               style="fill:#ffffff"
               d="m 18.13,13.62 a 1.08,1.08 0 0 0 -1,1.09 V 17 l -4.18,-4.19 a 1,1 0 0 0 -1.47,0 1,1 0 0 0 0,1.46 l 4.16,4.17 h -2.29 a 1.04,1.04 0 1 0 0,2.08 h 4.71 a 1.09,1.09 0 0 0 1.11,-1 c 0,0 0,0 0,-0.06 v -4.75 a 1.07,1.07 0 0 0 -1.04,-1.09 z" />
          </g>
        </g>
      </g>
    </g>
  </g>
  <g
     id="g244"
     transform="matrix(0.26458333,0,0,0.26458333,34.925001,16.668748)">
    <g
       id="g242"
       transform="scale(1.5)">
      <path
         id="path228"
         style="fill:#ff6ea1;fill-opacity:1;stroke:#ff2c76;stroke-width:1;stroke-linecap:round;stroke-opacity:1"
         d="m 8.5,8.5 v -4 a 4,4 90 0 1 4,-4 h 4 10 30 4 a 4,4 90 0 1 4,4 v 4 h -4 v -3 h -4 v 10 h 4 v -3 h 4 v 17 h -4 v -3 h -4 v 10 h 4 v -3 h 4 v 4 a 4,4 90 0 1 -4,4 h -4 -30 -10 -4 a 4,4 90 0 1 -4,-4 v -4 -21 -1 h -6 v 3 h -2 v -8 h 2 v 3 h 6 z" />
      <text
         id="text232"
         style="font-size:9px;font-family:sans-serif;text-anchor:end;fill:#282828">
        <tspan
           id="tspan230"
           y="23"
           x="54">➗</tspan>
      </text>
      <text
         id="text236"
         style="font-size:6px;font-family:sans-serif;text-anchor:end;fill:#282828">
        <tspan
           id="tspan234"
           y="12"
           x="54" />
      </text>
      <text
         id="text240"
         style="font-size:6px;font-family:sans-serif;text-anchor:end;fill:#282828">
        <tspan
           id="tspan238"
           y="33"
           x="54" />
      </text>
    </g>
  </g>
  <g
     id="g254"
     transform="matrix(0.26458333,0,0,0.26458333,57.546876,16.668748)">
    <g
       id="g252"
       transform="scale(1.5)">
      <path
         id="path246"
         style="fill:#ff6ea1;fill-opacity:1;stroke:#ff2c76;stroke-width:1;stroke-linecap:round;stroke-opacity:1"
         d="m 8.5,0.5 h 60 v 20 h -60 v -8 -1 h -6 v 3 h -2 v -8 h 2 v 3 h 6 v -1 z" />
      <text
         id="text250"
         style="font-size:10px;font-family:sans-serif;text-anchor:start;fill:#282828">
        <tspan
           id="tspan248"
           y="14"
           x="13">1</tspan>
      </text>
    </g>
  </g>
  <g
     id="g264"
     transform="matrix(0.26458333,0,0,0.26458333,57.546876,25.003123)">
    <g
       id="g262"
       transform="scale(1.5)">
      <path
         id="path256"
         style="fill:#ff6ea1;fill-opacity:1;stroke:#ff2c76;stroke-width:1;stroke-linecap:round;stroke-opacity:1"
         d="m 8.5,0.5 h 60 v 20 h -60 v -8 -1 h -6 v 3 h -2 v -8 h 2 v 3 h 6 v -1 z" />
      <text
         id="text260"
         style="font-size:10px;font-family:sans-serif;text-anchor:start;fill:#282828">
        <tspan
           id="tspan258"
           y="14"
           x="13">4</tspan>
      </text>
    </g>
  </g>
  <g
     id="g274"
     transform="matrix(0.26458333,0,0,0.26458333,3.5718764,25.003123)">
    <g
       id="g272"
       transform="scale(1.5)">
      <path
         id="path266"
         style="fill:#c4c4c4;fill-opacity:1;stroke:#a0a0a0;stroke-width:1;stroke-linecap:round;stroke-opacity:1"
         d="m 0.5,8.5 v -4 a 4,4 90 0 1 4,-4 h 4 v 2 h 10 v -2 h 20 4 a 4,4 90 0 1 4,4 v 4 4 4 a 4,4 90 0 1 -4,4 h -4 -20 -1 v 2 h -8 v -2 h -1 -4 a 4,4 90 0 1 -4,-4 v -4 z" />
      <text
         id="text270"
         style="font-size:10px;font-family:sans-serif;text-anchor:end;fill:#282828">
        <tspan
           id="tspan268"
           y="14"
           x="36">↓</tspan>
      </text>
    </g>
  </g>
  <g
     id="g292"
     transform="matrix(0.26458333,0,0,0.26458333,3.5718764,33.337498)">
    <g
       id="g290"
       transform="scale(1.5)">
      <path
         id="path276"
         style="fill:#7cd622;fill-opacity:1;stroke:#57ad02;stroke-width:1;stroke-linecap:round;stroke-opacity:1"
         d="m 0.5,8.5 v -4 a 4,4 90 0 1 4,-4 h 4 v 2 h 10 v -2 h 30 4 a 4,4 90 0 1 4,4 v 4 h -4 v -3 h -4 v 10 h 4 v -3 h 4 v 17 h -4 v -3 h -4 v 10 h 4 v -3 h 4 v 4 a 4,4 90 0 1 -4,4 h -4 -30 -1 v 2 h -8 v -2 h -1 -4 a 4,4 90 0 1 -4,-4 v -4 -21 z" />
      <text
         id="text280"
         style="font-size:10px;font-family:sans-serif;text-anchor:end;fill:#282828">
        <tspan
           id="tspan278"
           y="24"
           x="46">tono</tspan>
      </text>
      <text
         id="text284"
         style="font-size:6.66666651px;font-family:sans-serif;text-anchor:end;fill:#282828">
        <tspan
           id="tspan282"
           y="12"
           x="46">nombre</tspan>
      </text>
      <text
         id="text288"
         style="font-size:6.66666651px;font-family:sans-serif;text-anchor:end;fill:#282828">
        <tspan
           id="tspan286"
           y="33"
           x="46">octava</tspan>
      </text>
    </g>
  </g>
  <g
     id="g302"
     transform="matrix(0.26458333,0,0,0.26458333,23.018751,33.337498)">
    <g
       id="g300"
       transform="scale(1.5)">
      <path
         id="path294"
         style="fill:#7cd622;fill-opacity:1;stroke:#57ad02;stroke-width:1;stroke-linecap:round;stroke-opacity:1"
         d="m 8.5,0.5 h 60 v 20 h -60 v -8 -1 h -6 v 3 h -2 v -8 h 2 v 3 h 6 v -1 z" />
      <text
         id="text298"
         style="font-size:10px;font-family:sans-serif;text-anchor:start;fill:#282828">
        <tspan
           id="tspan296"
           y="14"
           x="13">hacer</tspan>
      </text>
    </g>
  </g>
  <g
     id="g312"
     transform="matrix(0.26458333,0,0,0.26458333,23.018751,41.671873)">
    <g
       id="g310"
       transform="scale(1.5)">
      <path
         id="path304"
         style="fill:#ff6ea1;fill-opacity:1;stroke:#ff2c76;stroke-width:1;stroke-linecap:round;stroke-opacity:1"
         d="m 8.5,0.5 h 60 v 20 h -60 v -8 -1 h -6 v 3 h -2 v -8 h 2 v 3 h 6 v -1 z" />
      <text
         id="text308"
         style="font-size:10px;font-family:sans-serif;text-anchor:start;fill:#282828">
        <tspan
           id="tspan306"
           y="14"
           x="13">4</tspan>
      </text>
    </g>
  </g>
  <g
     id="g1170"
     transform="matrix(0.26458333,0,0,0.26458333,7.1437514,83.343747)">
    <g
       id="g1168"
       transform="scale(1.5)">
      <path
         id="path1158"
         style="fill:#7cd622;fill-opacity:1;stroke:#57ad02;stroke-width:1;stroke-linecap:round;stroke-opacity:1"
         d="m 0.5,8.5 v -4 a 4,4 90 0 1 4,-4 h 4 v 2 h 10 v -2 h 71.972656 4 a 4,4 90 0 1 4,4 v 4 h -4 v -3 h -4 v 10 h 4 v -3 h 4 v 4 a 4,4 90 0 1 -4,4 h -4 H 18.5 h -1 v 2 h -8 v -2 h -1 -4 a 4,4 90 0 1 -4,-4 v -4 z" />
      <text
         id="text1162"
         style="font-size:10px;font-family:sans-serif;text-anchor:end;fill:#282828">
        <tspan
           id="tspan1160"
           y="14"
           x="88">scalar step (+/–)</tspan>
      </text>
      <text
         id="text1166"
         style="font-size:6.66666651px;font-family:sans-serif;text-anchor:end;fill:#282828">
        <tspan
           id="tspan1164"
           y="12"
           x="88" />
      </text>
    </g>
  </g>
  <g
     id="g1180"
     transform="matrix(0.26458333,0,0,0.26458333,43.248523,83.343747)">
    <g
       id="g1178"
       transform="scale(1.5)">
      <path
         id="path1172"
         style="fill:#ff6ea1;fill-opacity:1;stroke:#ff2c76;stroke-width:1;stroke-linecap:round;stroke-opacity:1"
         d="m 8.5,0.5 h 60 v 20 h -60 v -8 -1 h -6 v 3 h -2 v -8 h 2 v 3 h 6 v -1 z" />
      <text
         id="text1176"
         style="font-size:10px;font-family:sans-serif;text-anchor:start;fill:#282828">
        <tspan
           id="tspan1174"
           y="14"
           x="13">1</tspan>
      </text>
    </g>
  </g>
  <g
     transform="matrix(0.26458333,0,0,0.26458333,-146.31458,-129.38125)"
     id="g1344">
    <g
       id="g1324"
       transform="translate(566.5,741)">
      <g
         id="g1322"
         transform="scale(1.5)">
        <path
           id="path1312"
           style="fill:#fe994f;fill-opacity:1;stroke:#e86b0e;stroke-width:1;stroke-linecap:round;stroke-opacity:1"
           d="m 0.5,8.5 v -4 a 4,4 90 0 1 4,-4 h 4 v 2 h 10 v -2 h 9 60 4 a 4,4 90 0 1 4,4 v 4 h -4 v -3 h -4 v 10 h 4 v -3 h 4 v 4 a 4,4 90 0 1 -4,4 h -4 -60 -1 v 2 h -8 v -2 h -1 -4 a 5,5 90 0 0 -5,5 v 4 4 21 4 a 5,5 90 0 0 5,5 h 4 v 2 h 10 v -2 h 8 v 6 6 4 a 4,4 90 0 1 -4,4 h -4 -9 -1 v 2 h -8 v -2 h -1 -4 a 4,4 90 0 1 -4,-4 v -4 z" />
        <text
           id="text1316"
           style="font-size:10px;font-family:sans-serif;text-anchor:start;fill:#282828">
          <tspan
             id="tspan1314"
             y="15"
             x="20">nota</tspan>
        </text>
        <text
           id="text1320"
           style="font-size:6.66666651px;font-family:sans-serif;text-anchor:end;fill:#282828">
          <tspan
             id="tspan1318"
             y="12"
             x="85">valor</tspan>
        </text>
      </g>
    </g>
    <g
       id="g1342"
       transform="matrix(0.5,0,0,0.5,566.5,745)">
      <g
         id="g1340"
         style="isolation:isolate">
        <g
           data-name="レイヤー 2"
           id="g1338">
          <g
             id="g1336">
            <rect
               y="0"
               x="0"
               id="rect1326"
               style="opacity:0.4;mix-blend-mode:multiply;fill:#292929"
               ry="5"
               rx="5"
               height="42"
               width="42" />
            <path
               id="path1328"
               style="fill:#ffffff"
               d="m 30.56,29.8 -4.17,-4.16 h 2.26 a 1.035,1.035 0 1 0 0,-2.07 h -4.71 a 1.08,1.08 0 0 0 -1.11,1 v 0 c 0,0 0,0 0,0.06 v 4.64 0 a 1.04,1.04 0 1 0 2.08,0 v -2.19 l 4.19,4.19 a 1,1 0 0 0 1.46,0 1,1 0 0 0 0,-1.47 z" />
            <path
               id="path1330"
               style="fill:#ffffff"
               d="m 19.17,24.6 a 1.08,1.08 0 0 0 -1.11,-1 h -4.71 a 1.035,1.035 0 1 0 0,2.07 h 2.25 l -4.16,4.13 a 1.039447,1.039447 0 0 0 1.47,1.47 l 4.18,-4.19 v 2.26 a 1.04,1.04 0 1 0 2.08,0 V 24.7 c 0,0 0,0 0,-0.06 a 0.08,0.08 0 0 1 0,-0.04 z" />
            <path
               id="path1332"
               style="fill:#ffffff"
               d="m 23.94,20.5 h 4.7 a 1.04,1.04 0 1 0 0,-2.08 h -2.25 l 4.17,-4.16 a 1,1 0 0 0 0,-1.47 1,1 0 0 0 -1.46,0 L 24.91,17 v -2.28 a 1.04,1.04 0 1 0 -2.08,0 v 4.64 a 0.43,0.43 0 0 0 0,0.05 v 0.05 a 1.09,1.09 0 0 0 1.11,1.04 z" />
            <path
               id="path1334"
               style="fill:#ffffff"
               d="m 18.13,13.62 a 1.08,1.08 0 0 0 -1,1.09 V 17 l -4.18,-4.19 a 1,1 0 0 0 -1.47,0 1,1 0 0 0 0,1.46 l 4.16,4.17 h -2.29 a 1.04,1.04 0 1 0 0,2.08 h 4.71 a 1.09,1.09 0 0 0 1.11,-1 c 0,0 0,0 0,-0.06 v -4.75 a 1.07,1.07 0 0 0 -1.04,-1.09 z" />
          </g>
        </g>
      </g>
    </g>
  </g>
  <g
     id="g1362"
     transform="matrix(0.26458333,0,0,0.26458333,38.496876,66.674998)">
    <g
       id="g1360"
       transform="scale(1.5)">
      <path
         id="path1346"
         style="fill:#ff6ea1;fill-opacity:1;stroke:#ff2c76;stroke-width:1;stroke-linecap:round;stroke-opacity:1"
         d="m 8.5,8.5 v -4 a 4,4 90 0 1 4,-4 h 4 10 30 4 a 4,4 90 0 1 4,4 v 4 h -4 v -3 h -4 v 10 h 4 v -3 h 4 v 17 h -4 v -3 h -4 v 10 h 4 v -3 h 4 v 4 a 4,4 90 0 1 -4,4 h -4 -30 -10 -4 a 4,4 90 0 1 -4,-4 v -4 -21 -1 h -6 v 3 h -2 v -8 h 2 v 3 h 6 z" />
      <text
         id="text1350"
         style="font-size:9px;font-family:sans-serif;text-anchor:end;fill:#282828">
        <tspan
           id="tspan1348"
           y="23"
           x="54">➗</tspan>
      </text>
      <text
         id="text1354"
         style="font-size:6px;font-family:sans-serif;text-anchor:end;fill:#282828">
        <tspan
           id="tspan1352"
           y="12"
           x="54" />
      </text>
      <text
         id="text1358"
         style="font-size:6px;font-family:sans-serif;text-anchor:end;fill:#282828">
        <tspan
           id="tspan1356"
           y="33"
           x="54" />
      </text>
    </g>
  </g>
  <g
     id="g1372"
     transform="matrix(0.26458333,0,0,0.26458333,61.118751,66.674998)">
    <g
       id="g1370"
       transform="scale(1.5)">
      <path
         id="path1364"
         style="fill:#ff6ea1;fill-opacity:1;stroke:#ff2c76;stroke-width:1;stroke-linecap:round;stroke-opacity:1"
         d="m 8.5,0.5 h 60 v 20 h -60 v -8 -1 h -6 v 3 h -2 v -8 h 2 v 3 h 6 v -1 z" />
      <text
         id="text1368"
         style="font-size:10px;font-family:sans-serif;text-anchor:start;fill:#282828">
        <tspan
           id="tspan1366"
           y="14"
           x="13">1</tspan>
      </text>
    </g>
  </g>
  <g
     id="g1382"
     transform="matrix(0.26458333,0,0,0.26458333,61.118751,75.009372)">
    <g
       id="g1380"
       transform="scale(1.5)">
      <path
         id="path1374"
         style="fill:#ff6ea1;fill-opacity:1;stroke:#ff2c76;stroke-width:1;stroke-linecap:round;stroke-opacity:1"
         d="m 8.5,0.5 h 60 v 20 h -60 v -8 -1 h -6 v 3 h -2 v -8 h 2 v 3 h 6 v -1 z" />
      <text
         id="text1378"
         style="font-size:10px;font-family:sans-serif;text-anchor:start;fill:#282828">
        <tspan
           id="tspan1376"
           y="14"
           x="13">4</tspan>
      </text>
    </g>
  </g>
  <g
     id="g1392"
     transform="matrix(0.26458333,0,0,0.26458333,7.1437514,75.009372)">
    <g
       id="g1390"
       transform="scale(1.5)">
      <path
         id="path1384"
         style="fill:#c4c4c4;fill-opacity:1;stroke:#a0a0a0;stroke-width:1;stroke-linecap:round;stroke-opacity:1"
         d="m 0.5,8.5 v -4 a 4,4 90 0 1 4,-4 h 4 v 2 h 10 v -2 h 20 4 a 4,4 90 0 1 4,4 v 4 4 4 a 4,4 90 0 1 -4,4 h -4 -20 -1 v 2 h -8 v -2 h -1 -4 a 4,4 90 0 1 -4,-4 v -4 z" />
      <text
         id="text1388"
         style="font-size:10px;font-family:sans-serif;text-anchor:end;fill:#282828">
        <tspan
           id="tspan1386"
           y="14"
           x="36">↓</tspan>
      </text>
    </g>
  </g>
  <g
     id="g1664"
     transform="matrix(0.26458333,0,0,0.26458333,2.1166683,-1.63e-6)">
    <g
       id="g1662"
       transform="scale(1.5)">
      <path
         id="path1648"
         style="fill:#7cd622;fill-opacity:1;stroke:#57ad02;stroke-width:1;stroke-linecap:round;stroke-opacity:1"
         d="m -4.8333338,8.5 v -4 c 0,-2.209139 1.790861,-4 4.00000005,-4 H 3.1666662 v 2 h 9.9999998 v -2 h 37.013021 4 c 2.209139,0 4,1.790861 4,4 v 4 h -4 v -3 h -4 v 10 h 4 v -3 h 4 v 17 h -4 v -3 h -4 v 10 h 4 v -3 h 4 v 4 c 0,2.209139 -1.790861,4 -4,4 h -4 -37.013021 -1 v 2 H 4.1666662 v -2 h -1 -3.99999995 c -2.20913905,0 -4.00000005,-1.790861 -4.00000005,-4 v -4 -21 z" />
      <text
         id="text1652"
         style="font-size:10px;font-family:sans-serif;text-anchor:end;fill:#282828">
        <tspan
           id="tspan1650"
           y="24"
           x="48">fijar clave</tspan>
      </text>
      <text
         id="text1656"
         style="font-size:6.66666651px;font-family:sans-serif;text-anchor:end;fill:#282828">
        <tspan
           id="tspan1654"
           y="12"
           x="48">clave</tspan>
      </text>
      <text
         id="text1660"
         style="font-size:6.66666651px;font-family:sans-serif;text-anchor:end;fill:#282828">
        <tspan
           id="tspan1658"
           y="33"
           x="48">modo</tspan>
      </text>
    </g>
  </g>
  <g
     id="g1674"
     transform="matrix(0.26458333,0,0,0.26458333,22.23017,-1.63e-6)">
    <g
       id="g1672"
       transform="scale(1.5)">
      <path
         id="path1666"
         style="fill:#7cd622;fill-opacity:1;stroke:#57ad02;stroke-width:1;stroke-linecap:round;stroke-opacity:1"
         d="m 8.5,0.5 h 60 v 20 h -60 v -8 -1 h -6 v 3 h -2 v -8 h 2 v 3 h 6 v -1 z" />
      <text
         id="text1670"
         style="font-size:10px;font-family:sans-serif;text-anchor:start;fill:#282828">
        <tspan
           id="tspan1668"
           y="14"
           x="13">C</tspan>
      </text>
    </g>
  </g>
  <g
     id="g1684"
     transform="matrix(0.26458333,0,0,0.26458333,22.23017,8.3343733)">
    <g
       id="g1682"
       transform="scale(1.5)">
      <path
         id="path1676"
         style="fill:#7cd622;fill-opacity:1;stroke:#57ad02;stroke-width:1;stroke-linecap:round;stroke-opacity:1"
         d="m 8.5,0.5 h 110 v 20 H 8.5 v -8 -1 h -6 v 3 h -2 v -8 h 2 v 3 h 6 v -1 z" />
      <text
         id="text1680"
         style="font-size:10px;font-family:sans-serif;text-anchor:start;fill:#282828">
        <tspan
           id="tspan1678"
           y="14"
           x="13">mayor</tspan>
      </text>
    </g>
  </g>
  <g
     id="g1694"
     transform="matrix(0.26458333,0,0,0.26458333,19.050001,58.340623)">
    <g
       id="g1692"
       transform="scale(1.5)">
      <path
         id="path1686"
         style="fill:#7cd622;fill-opacity:1;stroke:#57ad02;stroke-width:1;stroke-linecap:round;stroke-opacity:1"
         d="m 8.5,0.5 h 95.03906 v 20 H 8.5 v -8 -1 h -6 v 3 h -2 v -8 h 2 v 3 h 6 v -1 z" />
      <text
         id="text1690"
         style="font-size:10px;font-family:sans-serif;text-anchor:start;fill:#282828">
        <tspan
           id="tspan1688"
           y="14"
           x="13">longitud de modo</tspan>
      </text>
    </g>
  </g>
  <g
     id="g1708"
     transform="matrix(0.26458333,0,0,0.26458333,1.49e-6,58.340623)">
    <g
       id="g1706"
       transform="scale(1.5)">
      <path
         id="path1696"
         style="fill:#d98a43;fill-opacity:1;stroke:#b7651a;stroke-width:1;stroke-linecap:round;stroke-opacity:1"
         d="m 0.5,8.5 v -4 a 4,4 90 0 1 4,-4 h 4 v 2 h 10 v -2 h 9 20 4 a 4,4 90 0 1 4,4 v 4 h -4 v -3 h -4 v 10 h 4 v -3 h 4 v 4 a 4,4 90 0 1 -4,4 h -4 -20 -1 v 2 h -8 v -2 h -1 -4 a 5,5 90 0 0 -5,5 v 4 4 63 4 a 5,5 90 0 0 5,5 h 4 v 2 h 10 v -2 h 8 v 6 6 4 a 4,4 90 0 1 -4,4 h -4 -9 -1 v 2 h -8 v -2 h -1 -4 a 4,4 90 0 1 -4,-4 v -4 z" />
      <text
         id="text1700"
         style="font-size:10px;font-family:sans-serif;text-anchor:start;fill:#282828">
        <tspan
           id="tspan1698"
           y="15"
           x="5">repetir</tspan>
      </text>
      <text
         id="text1704"
         style="font-size:6.66666651px;font-family:sans-serif;text-anchor:end;fill:#282828">
        <tspan
           id="tspan1702"
           y="12"
           x="45" />
      </text>
    </g>
  </g>
</svg>
