<svg xmlns="http://www.w3.org/2000/svg" width="341" height="226.66666626930237"><rect id="backgroundrect" width="100%" height="100%" x="0" y="0" fill="none" stroke="none" style="" class=""/><g class="currentLayer" style=""><title>Layer 1</title><g class=""><g id="svg_15" class=""><g id="svg_16"><g transform="translate(320, 169) scale(1.5)" id="svg_17"><path d="m-201.27775913476944,-80.38883209228516 L-201.27775913476944,-84.38883209228516 A4,4 90 0 1 -197.27775913476944,-88.38883209228516 L-193.27775913476944,-88.38883209228516 L-193.27775913476944,-86.38883209228516 L-183.27775913476944,-86.38883209228516 L-183.27775913476944,-88.38883209228516 L-174.27775913476944,-88.38883209228516 L-114.27775913476944,-88.38883209228516 L-110.27775913476944,-88.38883209228516 A4,4 90 0 1 -106.27775913476944,-84.38883209228516 L-106.27775913476944,-80.38883209228516 L-110.27775913476944,-80.38883209228516 L-110.27775913476944,-83.38883209228516 L-114.27775913476944,-83.38883209228516 L-114.27775913476944,-73.38885498046875 L-110.27775913476944,-73.38885498046875 L-110.27775913476944,-76.38884735107422 L-106.27775913476944,-76.38884735107422 L-106.27775913476944,-72.38886260986328 A4,4 90 0 1 -110.27775913476944,-68.38887786865234 L-114.27775913476944,-68.38887786865234 L-174.27775913476944,-68.38887786865234 L-175.27775913476944,-68.38887786865234 L-175.27775913476944,-66.38888549804688 L-183.27775913476944,-66.38888549804688 L-183.27775913476944,-68.38887786865234 L-184.27775913476944,-68.38887786865234 L-188.27775913476944,-68.38887786865234 A5,5 90 0 0 -193.27775913476944,-63.38889694213867 L-193.27775913476944,-59.38889694213867 L-193.27775913476944,-55.38889694213867 L-193.27775913476944,-13.38889217376709 L-193.27775913476944,-9.388890266418457 A5,5 90 0 0 -188.27775913476944,-4.388890743255615 L-184.27775913476944,-4.388890743255615 L-184.27775913476944,-2.3888914585113525 L-174.27775913476944,-2.3888914585113525 L-174.27775913476944,-4.388890743255615 L-166.27775913476944,-4.388890743255615 L-166.27775913476944,1.6111068725585938 L-166.27775913476944,7.611103534698486 L-166.27775913476944,11.611103057861328 A4,4 90 0 1 -170.27775913476944,15.611103057861328 L-174.27775913476944,15.611103057861328 L-183.27775913476944,15.611103057861328 L-184.27775913476944,15.611103057861328 L-184.27775913476944,17.611103057861328 L-192.27775913476944,17.611103057861328 L-192.27775913476944,15.611103057861328 L-193.27775913476944,15.611103057861328 L-197.27775913476944,15.611103057861328 A4,4 90 0 1 -201.27775913476944,11.611103057861328 L-201.27775913476944,7.611103534698486 z" style="fill:#FF8B2D;fill-opacity:1;stroke:#E86B0E;stroke-width:1;stroke-linecap:round;stroke-opacity:1;" id="svg_18"/><text style="font-size:10px;fill:#282828;font-family:sans-serif;text-anchor:start" id="svg_19" y="-88.88888984918594" x="-201.7777829170227"><tspan x="-181.7777829170227" y="-73.88888984918594" id="svg_20">note</tspan></text><text style="font-size:6.666666666666667px;fill:#282828;font-family:sans-serif;text-anchor:end" id="svg_21" y="-88.88888984918594" x="-201.7777829170227"><tspan x="-116.7777829170227" y="-76.88888984918594" id="svg_22">value</tspan></text></g></g><g transform="translate(320, 173) scale(0.5)" id="svg_23"><g style="isolation:isolate" id="svg_24"><g id="レイヤー_2" data-name="レイヤー 2"><g id="Icon"><rect width="42" height="42" rx="5" ry="5" style="fill:#292929;opacity:0.4;mix-blend-mode:multiply" id="svg_25" y="-266.6666781902313" x="-605.3333339691162"/><path d="M-574.773478269577,-236.86676025390625 l-4.170000076293945,-4.159999847412109 h2.259999990463257 a1,1 0 1 0 0,-2.069999933242798 H-581.3934733867645 a1.0800000429153442,1.0800000429153442 0 0 0 -1.1100000143051147,1 v0 s0,0 0,0.05999999865889549 v4.639999866485596 h0 a1,1 0 1 0 2.0799999237060547,0 V-239.58676147460938 l4.190000057220459,4.190000057220459 a1,1 0 0 0 1.4600000381469727,0 A1,1 0 0 0 -574.773478269577,-236.86676025390625 z" style="fill:#fff" id="svg_26"/><path d="M-586.1634929180145,-242.06675720214844 a1.0800000429153442,1.0800000429153442 0 0 0 -1.1100000143051147,-1 H-591.9835002422333 a1,1 0 1 0 0,2.069999933242798 H-589.7335002422333 L-593.8934733867645,-236.86676025390625 a1,1 0 0 0 1.4700000286102295,1.4700000286102295 l4.179999828338623,-4.190000057220459 v2.259999990463257 a1,1 0 1 0 2.0799999237060547,0 V-241.96676635742188 s0,0 0,-0.05999999865889549 A0.07999999821186066,0.07999999821186066 0 0 1 -586.1634929180145,-242.06675720214844 z" style="fill:#fff" id="svg_27"/><path d="M-581.3934733867645,-246.16676330566406 h4.699999809265137 a1,1 0 1 0 0,-2.0799999237060547 H-578.9434611797333 l4.170000076293945,-4.159999847412109 a1,1 0 0 0 0,-1.4700000286102295 a1,1 0 0 0 -1.4600000381469727,0 L-580.4235026836395,-249.66676330566406 V-251.94676208496094 a1,1 0 1 0 -2.0799999237060547,0 v4.639999866485596 a0.4300000071525574,0.4300000071525574 0 0 0 0,0.05000000074505806 v0.05000000074505806 A1.090000033378601,1.090000033378601 0 0 0 -581.3934733867645,-246.16676330566406 z" style="fill:#fff" id="svg_28"/><path d="M-587.2034709453583,-253.04676818847656 a1.0800000429153442,1.0800000429153442 0 0 0 -1,1.090000033378601 V-249.66676330566406 l-4.179999828338623,-4.190000057220459 a1,1 0 0 0 -1.4700000286102295,0 a1,1 0 0 0 0,1.4600000381469727 l4.159999847412109,4.170000076293945 H-591.9835002422333 a1,1 0 1 0 0,2.0799999237060547 h4.710000038146973 a1.090000033378601,1.090000033378601 0 0 0 1.1100000143051147,-1 a0.07999999821186066,0.07999999821186066 0 0 1 0,0 s0,0 0,-0.05999999865889549 V-251.95675659179688 A1.0700000524520874,1.0700000524520874 0 0 0 -587.2034709453583,-253.04676818847656 z" style="fill:#fff" id="svg_29"/></g></g></g></g></g><g id="svg_30" class=""><g transform="translate(452, 169) scale(1.5)" id="svg_31"><path d="m-193.27775913476944,-80.38883209228516 L-193.27775913476944,-84.38883209228516 A4,4 90 0 1 -189.27775913476944,-88.38883209228516 L-185.27775913476944,-88.38883209228516 L-175.27775913476944,-88.38883209228516 L-145.27775913476944,-88.38883209228516 L-141.27775913476944,-88.38883209228516 A4,4 90 0 1 -137.27775913476944,-84.38883209228516 L-137.27775913476944,-80.38883209228516 L-141.27775913476944,-80.38883209228516 L-141.27775913476944,-83.38883209228516 L-145.27775913476944,-83.38883209228516 L-145.27775913476944,-73.38885498046875 L-141.27775913476944,-73.38885498046875 L-141.27775913476944,-76.38884735107422 L-137.27775913476944,-76.38884735107422 L-137.27775913476944,-59.38889694213867 L-141.27775913476944,-59.38889694213867 L-141.27775913476944,-62.38889694213867 L-145.27775913476944,-62.38889694213867 L-145.27775913476944,-52.38889694213867 L-141.27775913476944,-52.38889694213867 L-141.27775913476944,-55.38889694213867 L-137.27775913476944,-55.38889694213867 L-137.27775913476944,-51.38889694213867 A4,4 90 0 1 -141.27775913476944,-47.38889694213867 L-145.27775913476944,-47.38889694213867 L-175.27775913476944,-47.38889694213867 L-185.27775913476944,-47.38889694213867 L-189.27775913476944,-47.38889694213867 A4,4 90 0 1 -193.27775913476944,-51.38889694213867 L-193.27775913476944,-55.38889694213867 L-193.27775913476944,-76.38884735107422 L-193.27775913476944,-77.38883972167969 L-199.27775913476944,-77.38883972167969 L-199.27775913476944,-74.38885498046875 L-201.27775913476944,-74.38885498046875 L-201.27775913476944,-82.38883209228516 L-199.27775913476944,-82.38883209228516 L-199.27775913476944,-79.38883209228516 L-193.27775913476944,-79.38883209228516 L-193.27775913476944,-80.38883209228516 z" style="fill:#FF5293;fill-opacity:1;stroke:#FF2C76;stroke-width:1;stroke-linecap:round;stroke-opacity:1;" id="svg_32"/><text style="font-size:9px;fill:#282828;font-family:sans-serif;text-anchor:end" id="svg_33" y="-88.88888984918594" x="-201.7777829170227"><tspan x="-147.7777829170227" y="-65.88888984918594" id="svg_34">➗</tspan></text><text style="font-size:6px;fill:#282828;font-family:sans-serif;text-anchor:end" id="svg_35" y="-88.88888984918594" x="-201.7777829170227"/><text style="font-size:6px;fill:#282828;font-family:sans-serif;text-anchor:end" id="svg_37" y="-88.88888984918594" x="-201.7777829170227"/></g></g><g id="svg_39" class=""><g transform="translate(538, 169) scale(1.5)" id="svg_40"><path d="m-193.27775913476944,-88.38883209228516 L-133.27775913476944,-88.38883209228516 L-133.27775913476944,-68.38887786865234 L-193.27775913476944,-68.38887786865234 L-193.27775913476944,-76.38884735107422 L-193.27775913476944,-77.38883972167969 L-199.27775913476944,-77.38883972167969 L-199.27775913476944,-74.38885498046875 L-201.27775913476944,-74.38885498046875 L-201.27775913476944,-82.38883209228516 L-199.27775913476944,-82.38883209228516 L-199.27775913476944,-79.38883209228516 L-193.27775913476944,-79.38883209228516 L-193.27775913476944,-80.38883209228516 z" style="fill:#FF5293;fill-opacity:1;stroke:#FF2C76;stroke-width:1;stroke-linecap:round;stroke-opacity:1;" id="svg_41"/><text style="font-size:10px;fill:#282828;font-family:sans-serif;text-anchor:start" id="svg_42" y="-88.88888984918594" x="-201.7777829170227"><tspan x="-188.7777829170227" y="-74.88888984918594" id="svg_43">1</tspan></text></g></g><g id="svg_44" class=""><g transform="translate(538, 201) scale(1.5)" id="svg_45"><path d="m-193.27775913476944,-88.38883209228516 L-133.27775913476944,-88.38883209228516 L-133.27775913476944,-68.38887786865234 L-193.27775913476944,-68.38887786865234 L-193.27775913476944,-76.38884735107422 L-193.27775913476944,-77.38883972167969 L-199.27775913476944,-77.38883972167969 L-199.27775913476944,-74.38885498046875 L-201.27775913476944,-74.38885498046875 L-201.27775913476944,-82.38883209228516 L-199.27775913476944,-82.38883209228516 L-199.27775913476944,-79.38883209228516 L-193.27775913476944,-79.38883209228516 L-193.27775913476944,-80.38883209228516 z" style="fill:#FF5293;fill-opacity:1;stroke:#FF2C76;stroke-width:1;stroke-linecap:round;stroke-opacity:1;" id="svg_46"/><text style="font-size:10px;fill:#282828;font-family:sans-serif;text-anchor:start" id="svg_47" y="-88.88888984918594" x="-201.7777829170227"><tspan x="-188.7777829170227" y="-74.88888984918594" id="svg_48">4</tspan></text></g></g><g id="svg_49" class=""><g transform="translate(334, 201) scale(1.5)" id="svg_50"><path d="m-201.27775913476944,-80.38883209228516 L-201.27775913476944,-84.38883209228516 A4,4 90 0 1 -197.27775913476944,-88.38883209228516 L-193.27775913476944,-88.38883209228516 L-193.27775913476944,-86.38883209228516 L-183.27775913476944,-86.38883209228516 L-183.27775913476944,-88.38883209228516 L-163.27775913476944,-88.38883209228516 L-159.27775913476944,-88.38883209228516 A4,4 90 0 1 -155.27775913476944,-84.38883209228516 L-155.27775913476944,-80.38883209228516 L-155.27775913476944,-76.38884735107422 L-155.27775913476944,-72.38886260986328 A4,4 90 0 1 -159.27775913476944,-68.38887786865234 L-163.27775913476944,-68.38887786865234 L-183.27775913476944,-68.38887786865234 L-184.27775913476944,-68.38887786865234 L-184.27775913476944,-66.38888549804688 L-192.27775913476944,-66.38888549804688 L-192.27775913476944,-68.38887786865234 L-193.27775913476944,-68.38887786865234 L-197.27775913476944,-68.38887786865234 A4,4 90 0 1 -201.27775913476944,-72.38886260986328 L-201.27775913476944,-76.38884735107422 z" style="fill:#B0B0B0;fill-opacity:1;stroke:#A0A0A0;stroke-width:1;stroke-linecap:round;stroke-opacity:1;" id="svg_51"/><text style="font-size:10px;fill:#282828;font-family:sans-serif;text-anchor:end" id="svg_52" y="-88.88888984918594" x="-201.7777829170227"><tspan x="-165.7777829170227" y="-74.88888984918594" id="svg_53">↓</tspan></text></g></g><g id="svg_54" class=""><g transform="translate(334, 233) scale(1.5)" id="svg_55"><path d="m-201.27775913476944,-80.38883209228516 L-201.27775913476944,-84.38883209228516 A4,4 90 0 1 -197.27775913476944,-88.38883209228516 L-193.27775913476944,-88.38883209228516 L-193.27775913476944,-86.38883209228516 L-183.27775913476944,-86.38883209228516 L-183.27775913476944,-88.38883209228516 L-153.27775913476944,-88.38883209228516 L-149.27775913476944,-88.38883209228516 A4,4 90 0 1 -145.27775913476944,-84.38883209228516 L-145.27775913476944,-80.38883209228516 L-149.27775913476944,-80.38883209228516 L-149.27775913476944,-83.38883209228516 L-153.27775913476944,-83.38883209228516 L-153.27775913476944,-73.38885498046875 L-149.27775913476944,-73.38885498046875 L-149.27775913476944,-76.38884735107422 L-145.27775913476944,-76.38884735107422 L-145.27775913476944,-59.38889694213867 L-149.27775913476944,-59.38889694213867 L-149.27775913476944,-62.38889694213867 L-153.27775913476944,-62.38889694213867 L-153.27775913476944,-52.38889694213867 L-149.27775913476944,-52.38889694213867 L-149.27775913476944,-55.38889694213867 L-145.27775913476944,-55.38889694213867 L-145.27775913476944,-51.38889694213867 A4,4 90 0 1 -149.27775913476944,-47.38889694213867 L-153.27775913476944,-47.38889694213867 L-183.27775913476944,-47.38889694213867 L-184.27775913476944,-47.38889694213867 L-184.27775913476944,-45.38889694213867 L-192.27775913476944,-45.38889694213867 L-192.27775913476944,-47.38889694213867 L-193.27775913476944,-47.38889694213867 L-197.27775913476944,-47.38889694213867 A4,4 90 0 1 -201.27775913476944,-51.38889694213867 L-201.27775913476944,-55.38889694213867 L-201.27775913476944,-76.38884735107422 L-201.27775913476944,-80.38883209228516 z" style="fill:#77C428;fill-opacity:1;stroke:#57AD02;stroke-width:1;stroke-linecap:round;stroke-opacity:1;" id="svg_56"/><text style="font-size:10px;fill:#282828;font-family:sans-serif;text-anchor:end" id="svg_57" y="-88.88888984918594" x="-201.7777829170227"><tspan x="-155.7777829170227" y="-64.88888984918594" id="svg_58">pitch</tspan></text><text style="font-size:6.666666666666667px;fill:#282828;font-family:sans-serif;text-anchor:end" id="svg_59" y="-88.88888984918594" x="-201.7777829170227"><tspan x="-155.7777829170227" y="-76.88888984918594" id="svg_60">name</tspan></text><text style="font-size:6.666666666666667px;fill:#282828;font-family:sans-serif;text-anchor:end" id="svg_61" y="-88.88888984918594" x="-201.7777829170227"><tspan x="-155.7777829170227" y="-55.888889849185944" id="svg_62">octave</tspan></text></g></g><g id="svg_63" class=""><g transform="translate(408, 233) scale(1.5)" id="svg_64"><path d="m-193.27775913476944,-88.38883209228516 L-133.27775913476944,-88.38883209228516 L-133.27775913476944,-68.38887786865234 L-193.27775913476944,-68.38887786865234 L-193.27775913476944,-76.38884735107422 L-193.27775913476944,-77.38883972167969 L-199.27775913476944,-77.38883972167969 L-199.27775913476944,-74.38885498046875 L-201.27775913476944,-74.38885498046875 L-201.27775913476944,-82.38883209228516 L-199.27775913476944,-82.38883209228516 L-199.27775913476944,-79.38883209228516 L-193.27775913476944,-79.38883209228516 L-193.27775913476944,-80.38883209228516 z" style="fill:#77C428;fill-opacity:1;stroke:#57AD02;stroke-width:1;stroke-linecap:round;stroke-opacity:1;" id="svg_65"/><text style="font-size:10px;fill:#282828;font-family:sans-serif;text-anchor:start" id="svg_66" y="-88.88888984918594" x="-201.7777829170227"><tspan x="-188.7777829170227" y="-74.88888984918594" id="svg_67">sol</tspan></text></g></g><g id="svg_68" class=""><g transform="translate(408, 265) scale(1.5)" id="svg_69"><path d="m-193.27775913476944,-88.38883209228516 L-133.27775913476944,-88.38883209228516 L-133.27775913476944,-68.38887786865234 L-193.27775913476944,-68.38887786865234 L-193.27775913476944,-76.38884735107422 L-193.27775913476944,-77.38883972167969 L-199.27775913476944,-77.38883972167969 L-199.27775913476944,-74.38885498046875 L-201.27775913476944,-74.38885498046875 L-201.27775913476944,-82.38883209228516 L-199.27775913476944,-82.38883209228516 L-199.27775913476944,-79.38883209228516 L-193.27775913476944,-79.38883209228516 L-193.27775913476944,-80.38883209228516 z" style="fill:#FF5293;fill-opacity:1;stroke:#FF2C76;stroke-width:1;stroke-linecap:round;stroke-opacity:1;" id="svg_70"/><text style="font-size:10px;fill:#282828;font-family:sans-serif;text-anchor:start" id="svg_71" y="-88.88888984918594" x="-201.7777829170227"><tspan x="-188.7777829170227" y="-74.88888984918594" id="svg_72">4</tspan></text></g></g><g id="svg_73" class=""><g transform="translate(306, 137) scale(1.5)" id="svg_74"><path d="m-201.27775913476944,-80.38883209228516 L-201.27775913476944,-84.38883209228516 A4,4 90 0 1 -197.27775913476944,-88.38883209228516 L-193.27775913476944,-88.38883209228516 L-193.27775913476944,-86.38883209228516 L-183.27775913476944,-86.38883209228516 L-183.27775913476944,-88.38883209228516 L-174.27775913476944,-88.38883209228516 L-138.27775913476944,-88.38883209228516 L-134.27775913476944,-88.38883209228516 A4,4 90 0 1 -130.27775913476944,-84.38883209228516 L-130.27775913476944,-80.38883209228516 L-134.27775913476944,-80.38883209228516 L-134.27775913476944,-83.38883209228516 L-138.27775913476944,-83.38883209228516 L-138.27775913476944,-73.38885498046875 L-134.27775913476944,-73.38885498046875 L-134.27775913476944,-76.38884735107422 L-130.27775913476944,-76.38884735107422 L-130.27775913476944,-72.38886260986328 A4,4 90 0 1 -134.27775913476944,-68.38887786865234 L-138.27775913476944,-68.38887786865234 L-174.27775913476944,-68.38887786865234 L-175.27775913476944,-68.38887786865234 L-175.27775913476944,-66.38888549804688 L-183.27775913476944,-66.38888549804688 L-183.27775913476944,-68.38887786865234 L-184.27775913476944,-68.38887786865234 L-188.27775913476944,-68.38887786865234 A5,5 90 0 0 -193.27775913476944,-63.38889694213867 L-193.27775913476944,-59.38889694213867 L-193.27775913476944,-55.38889694213867 L-193.27775913476944,28.611103057861328 L-193.27775913476944,32.61110305786133 A5,5 90 0 0 -188.27775913476944,37.61110305786133 L-184.27775913476944,37.61110305786133 L-184.27775913476944,39.61110305786133 L-174.27775913476944,39.61110305786133 L-174.27775913476944,37.61110305786133 L-166.27775913476944,37.61110305786133 L-166.27775913476944,43.61110305786133 L-166.27775913476944,49.61110305786133 L-166.27775913476944,53.611122131347656 A4,4 90 0 1 -170.27775913476944,57.61113739013672 L-174.27775913476944,57.61113739013672 L-183.27775913476944,57.61113739013672 L-184.27775913476944,57.61113739013672 L-184.27775913476944,59.611148834228516 L-192.27775913476944,59.611148834228516 L-192.27775913476944,57.61113739013672 L-193.27775913476944,57.61113739013672 L-197.27775913476944,57.61113739013672 A4,4 90 0 1 -201.27775913476944,53.611122131347656 L-201.27775913476944,49.61110305786133 z" style="fill:#25C3C0;fill-opacity:1;stroke:#1DBCBD;stroke-width:1;stroke-linecap:round;stroke-opacity:1;" id="svg_75"/><text style="font-size:10px;fill:#282828;font-family:sans-serif;text-anchor:start" id="svg_76" y="-88.88888984918594" x="-201.7777829170227"><tspan x="-196.7777829170227" y="-73.88888984918594" id="svg_77">set timbre</tspan></text><text style="font-size:6.666666666666667px;fill:#282828;font-family:sans-serif;text-anchor:end" id="svg_78" y="-88.88888984918594" x="-201.7777829170227"/></g></g><g id="svg_80" class=""><g transform="translate(402, 137) scale(1.5)" id="svg_81"><path d="m-193.27775913476944,-88.38883209228516 L-83.27775913476944,-88.38883209228516 L-83.27775913476944,-68.38887786865234 L-193.27775913476944,-68.38887786865234 L-193.27775913476944,-76.38884735107422 L-193.27775913476944,-77.38883972167969 L-199.27775913476944,-77.38883972167969 L-199.27775913476944,-74.38885498046875 L-201.27775913476944,-74.38885498046875 L-201.27775913476944,-82.38883209228516 L-199.27775913476944,-82.38883209228516 L-199.27775913476944,-79.38883209228516 L-193.27775913476944,-79.38883209228516 L-193.27775913476944,-80.38883209228516 z" style="fill:#25C3C0;fill-opacity:1;stroke:#1DBCBD;stroke-width:1;stroke-linecap:round;stroke-opacity:1;" id="svg_82"/><text style="font-size:10px;fill:#282828;font-family:sans-serif;text-anchor:start" id="svg_83" y="-88.88888984918594" x="-201.7777829170227"><tspan x="-188.7777829170227" y="-74.88888984918594" id="svg_84">guitar</tspan></text></g></g></g></g></svg>