<?xml version="1.0" encoding="UTF-8" standalone="no"?>
<svg
   xmlns:dc="http://purl.org/dc/elements/1.1/"
   xmlns:cc="http://creativecommons.org/ns#"
   xmlns:rdf="http://www.w3.org/1999/02/22-rdf-syntax-ns#"
   xmlns:svg="http://www.w3.org/2000/svg"
   xmlns="http://www.w3.org/2000/svg"
   width="54.418152mm"
   height="51.461456mm"
   viewBox="0 0 54.418152 51.461456"
   version="1.1"
   id="svg1621">
  <defs
     id="defs1615" />
  <metadata
     id="metadata1618">
    <rdf:RDF>
      <cc:Work
         rdf:about="">
        <dc:format>image/svg+xml</dc:format>
        <dc:type
           rdf:resource="http://purl.org/dc/dcmitype/StillImage" />
        <dc:title></dc:title>
      </cc:Work>
    </rdf:RDF>
  </metadata>
  <path
     id="path540"
     style="fill:#92a9ff;fill-opacity:1;stroke:#5370dc;stroke-width:0.39687499;stroke-linecap:round;stroke-opacity:1"
     d="m 0.24471321,11.840104 v -1.5875 c 0,-0.8767515 0.71074997,-1.5874995 1.58749999,-1.5874995 h 1.5875001 v 0.79375 h 3.96875 v -0.79375 h 19.3268607 1.5875 c 0.87675,0 1.5875,0.710748 1.5875,1.5874995 v 1.5875 h -1.5875 v -1.190625 h -1.5875 v 3.96875 h 1.5875 v -1.190625 h 1.5875 v 1.587501 c 0,0.876752 -0.71075,1.587499 -1.5875,1.587499 h -1.5875 -19.3268607 -0.39688 v 0.79375 h -3.175 v -0.79375 h -0.39687 -1.5875001 c -0.87675002,0 -1.86474996,-0.755739 -1.58749999,-1.587499 v -1.587501 z" />
  <text
     y="8.4666691"
     x="2.1629357"
     id="text544"
     style="font-size:3.96875px;font-family:sans-serif;text-anchor:end;fill:#282828;stroke-width:0.39687499">
    <tspan
       style="stroke-width:0.39687499"
       id="tspan542"
       y="14.022921"
       x="25.975437">fijar sombra</tspan>
  </text>
  <text
     y="8.4666691"
     x="0.0462691"
     id="text548"
     style="font-size:2.64583325px;font-family:sans-serif;text-anchor:end;fill:#282828;stroke-width:0.39687499">
    <tspan
       style="stroke-width:0.39687499"
       id="tspan546"
       y="13.229166"
       x="23.858768" />
  </text>
  <path
     id="path554"
     style="fill:#ff6ea1;fill-opacity:1;stroke:#ff2c76;stroke-width:0.39687499;stroke-linecap:round;stroke-opacity:1"
     d="m 30.407214,8.6651045 h 23.8125 v 7.9374995 h -23.8125 v -3.175 -0.396874 h -2.38125 v 1.190624 h -0.79375 v -3.174999 h 0.79375 v 1.190624 h 2.38125 v -0.396875 z" />
  <text
     y="8.4666691"
     x="27.033772"
     id="text558"
     style="font-size:3.96875px;font-family:sans-serif;text-anchor:start;fill:#282828;stroke-width:0.39687499">
    <tspan
       style="stroke-width:0.39687499"
       id="tspan556"
       y="14.022921"
       x="32.19315">0</tspan>
  </text>
  <path
     id="path564"
     style="fill:#92a9ff;fill-opacity:1;stroke:#5370dc;stroke-width:0.39687499;stroke-linecap:round;stroke-opacity:1"
     d="m 0.24471321,28.773438 v -1.5875 c 0,-0.876752 0.71074997,-1.587501 1.58749999,-1.587501 h 1.5875001 v 0.793751 h 3.96875 v -0.793751 h 19.3268607 1.5875 c 0.87675,0 1.5875,0.710749 1.5875,1.587501 v 1.5875 h -1.5875 v -1.190626 h -1.5875 v 3.96875 h 1.5875 v -1.190624 h 1.5875 v 1.587499 c 0,0.876752 -0.71075,1.5875 -1.5875,1.5875 h -1.5875 -19.3268607 -0.39688 v 0.793751 h -3.175 v -0.793751 h -0.39687 -1.5875001 c -0.87675002,0 -1.86474996,-0.75574 -1.58749999,-1.5875 v -1.587499 z" />
  <text
     y="25.400003"
     x="2.1629357"
     id="text568"
     style="font-size:3.96875px;font-family:sans-serif;text-anchor:end;fill:#282828;stroke-width:0.39687499">
    <tspan
       style="stroke-width:0.39687499"
       id="tspan566"
       y="30.956251"
       x="25.975437">fijar sombra</tspan>
  </text>
  <text
     y="25.400003"
     x="0.0462691"
     id="text572"
     style="font-size:2.64583325px;font-family:sans-serif;text-anchor:end;fill:#282828;stroke-width:0.39687499">
    <tspan
       style="stroke-width:0.39687499"
       id="tspan570"
       y="30.1625"
       x="23.858768" />
  </text>
  <path
     id="path578"
     style="fill:#ff6ea1;fill-opacity:1;stroke:#ff2c76;stroke-width:0.39687499;stroke-linecap:round;stroke-opacity:1"
     d="m 30.407214,25.598437 h 23.8125 v 7.9375 h -23.8125 v -3.174999 -0.396876 h -2.38125 v 1.190626 h -0.79375 v -3.175001 h 0.79375 v 1.190626 h 2.38125 v -0.396875 z" />
  <text
     y="25.400003"
     x="27.033772"
     id="text582"
     style="font-size:3.96875px;font-family:sans-serif;text-anchor:start;fill:#282828;stroke-width:0.39687499">
    <tspan
       style="stroke-width:0.39687499"
       id="tspan580"
       y="30.956251"
       x="32.19315">50</tspan>
  </text>
  <path
     id="path588"
     style="fill:#92a9ff;fill-opacity:1;stroke:#5370dc;stroke-width:0.39687499;stroke-linecap:round;stroke-opacity:1"
     d="m 0.2447165,3.3734375 v -1.5875 a 1.5875,1.5875 0 0 1 1.5875,-1.5875 h 1.5875 v 0.79375 h 3.96875 v -0.79375 h 13.2336895 1.5875 a 1.5875,1.5875 0 0 1 1.5875,1.5875 v 1.5875 h -1.5875 v -1.190625 h -1.5875 v 3.96875 h 1.5875 v -1.190625 h 1.5875 v 1.587501 a 1.5875,1.5875 0 0 1 -1.5875,1.587499 h -1.5875 -13.2336895 -0.39688 v 0.79375 h -3.175 v -0.79375 h -0.39687 -1.5875 a 1.5875,1.5875 0 0 1 -1.5875,-1.587499 v -1.587501 z" />
  <text
     y="1.6156721e-06"
     x="0.0462691"
     id="text592"
     style="font-size:3.96875px;font-family:sans-serif;text-anchor:end;fill:#282828;stroke-width:0.39687499">
    <tspan
       style="stroke-width:0.39687499"
       id="tspan590"
       y="5.556253"
       x="19.890018">adelante</tspan>
  </text>
  <text
     y="1.6156721e-06"
     x="0.0462691"
     id="text596"
     style="font-size:2.64583325px;font-family:sans-serif;text-anchor:end;fill:#282828;stroke-width:0.39687499">
    <tspan
       style="stroke-width:0.39687499"
       id="tspan594"
       y="4.7624984"
       x="19.890018" />
  </text>
  <path
     id="path602"
     style="fill:#ff6ea1;fill-opacity:1;stroke:#ff2c76;stroke-width:0.39687499;stroke-linecap:round;stroke-opacity:1"
     d="m 24.321796,0.1984375 h 23.8125 v 7.9375 h -23.8125 v -3.175 -0.396874 h -2.38125 v 1.190624 h -0.79375 v -3.174999 h 0.79375 v 1.190624 h 2.38125 v -0.396875 z" />
  <text
     y="1.6156721e-06"
     x="20.948353"
     id="text606"
     style="font-size:3.96875px;font-family:sans-serif;text-anchor:start;fill:#282828;stroke-width:0.39687499">
    <tspan
       style="stroke-width:0.39687499"
       id="tspan604"
       y="5.556253"
       x="26.107731">100</tspan>
  </text>
  <path
     id="path612"
     style="fill:#92a9ff;fill-opacity:1;stroke:#5370dc;stroke-width:0.39687499;stroke-linecap:round;stroke-opacity:1"
     d="m 0.2447165,20.30677 v -1.587499 a 1.5875,1.5875 0 0 1 1.5875,-1.587501 h 1.5875 v 0.793751 h 3.96875 V 17.13177 h 13.2336895 1.5875 a 1.5875,1.5875 0 0 1 1.5875,1.587501 v 1.587499 h -1.5875 v -1.190625 h -1.5875 v 3.96875 h 1.5875 v -1.190624 h 1.5875 v 1.5875 a 1.5875,1.5875 0 0 1 -1.5875,1.587499 h -1.5875 -13.2336895 -0.39688 v 0.793751 h -3.175 V 25.06927 h -0.39687 -1.5875 a 1.5875,1.5875 0 0 1 -1.5875,-1.587499 v -1.5875 z" />
  <text
     y="16.933336"
     x="0.0462691"
     id="text616"
     style="font-size:3.96875px;font-family:sans-serif;text-anchor:end;fill:#282828;stroke-width:0.39687499">
    <tspan
       style="stroke-width:0.39687499"
       id="tspan614"
       y="22.48958"
       x="19.890018">adelante</tspan>
  </text>
  <text
     y="16.933336"
     x="0.0462691"
     id="text620"
     style="font-size:2.64583325px;font-family:sans-serif;text-anchor:end;fill:#282828;stroke-width:0.39687499">
    <tspan
       style="stroke-width:0.39687499"
       id="tspan618"
       y="21.695833"
       x="19.890018" />
  </text>
  <path
     id="path626"
     style="fill:#ff6ea1;fill-opacity:1;stroke:#ff2c76;stroke-width:0.39687499;stroke-linecap:round;stroke-opacity:1"
     d="m 24.321796,17.13177 h 23.8125 v 7.9375 h -23.8125 v -3.174999 -0.396875 h -2.38125 v 1.190625 h -0.79375 v -3.175 h 0.79375 v 1.190625 h 2.38125 V 20.30677 Z" />
  <text
     y="16.933336"
     x="20.948353"
     id="text630"
     style="font-size:3.96875px;font-family:sans-serif;text-anchor:start;fill:#282828;stroke-width:0.39687499">
    <tspan
       style="stroke-width:0.39687499"
       id="tspan628"
       y="22.48958"
       x="26.107731">100</tspan>
  </text>
  <path
     id="path636"
     style="fill:#92a9ff;fill-opacity:1;stroke:#5370dc;stroke-width:0.39687499;stroke-linecap:round;stroke-opacity:1"
     d="m 0.2447165,37.240105 v -1.5875 a 1.5875,1.5875 0 0 1 1.5875,-1.587501 h 1.5875 v 0.793751 h 3.96875 v -0.793751 h 13.2336895 1.5875 a 1.5875,1.5875 0 0 1 1.5875,1.587501 v 1.5875 h -1.5875 v -1.190626 h -1.5875 v 3.96875 h 1.5875 v -1.190624 h 1.5875 v 1.5875 a 1.5875,1.5875 0 0 1 -1.5875,1.587499 h -1.5875 -13.2336895 -0.39688 v 0.793751 h -3.175 v -0.793751 h -0.39687 -1.5875 a 1.5875,1.5875 0 0 1 -1.5875,-1.587499 v -1.5875 z" />
  <text
     y="33.866665"
     x="0.0462691"
     id="text640"
     style="font-size:3.96875px;font-family:sans-serif;text-anchor:end;fill:#282828;stroke-width:0.39687499">
    <tspan
       style="stroke-width:0.39687499"
       id="tspan638"
       y="39.422916"
       x="19.890018">adelante</tspan>
  </text>
  <text
     y="33.866665"
     x="0.0462691"
     id="text644"
     style="font-size:2.64583325px;font-family:sans-serif;text-anchor:end;fill:#282828;stroke-width:0.39687499">
    <tspan
       style="stroke-width:0.39687499"
       id="tspan642"
       y="38.629166"
       x="19.890018" />
  </text>
  <path
     id="path650"
     style="fill:#ff6ea1;fill-opacity:1;stroke:#ff2c76;stroke-width:0.39687499;stroke-linecap:round;stroke-opacity:1"
     d="m 24.321796,34.065104 h 23.8125 v 7.9375 h -23.8125 V 38.827605 38.43073 h -2.38125 v 1.190625 h -0.79375 v -3.175 h 0.79375 v 1.190625 h 2.38125 v -0.396875 z" />
  <text
     y="33.866665"
     x="20.948353"
     id="text654"
     style="font-size:3.96875px;font-family:sans-serif;text-anchor:start;fill:#282828;stroke-width:0.39687499">
    <tspan
       style="stroke-width:0.39687499"
       id="tspan652"
       y="39.422916"
       x="26.107731">100</tspan>
  </text>
  <path
     id="path660"
     style="fill:#92a9ff;fill-opacity:1;stroke:#5370dc;stroke-width:0.39687499;stroke-linecap:round;stroke-opacity:1"
     d="m 0.24471321,45.706771 v -1.5875 c 0,-0.876752 0.71074997,-1.587501 1.58749999,-1.587501 h 1.5875001 v 0.79375 h 3.96875 v -0.79375 h 19.3268607 1.5875 c 0.87675,0 1.5875,0.710749 1.5875,1.587501 v 1.5875 h -1.5875 v -1.190626 h -1.5875 v 3.96875 h 1.5875 V 47.29427 h 1.5875 v 1.5875 c 0,0.876752 -0.71075,1.5875 -1.5875,1.5875 h -1.5875 -19.3268607 -0.39688 v 0.79375 h -3.175 v -0.79375 h -0.39687 -1.5875001 c -0.87675002,0 -1.58749999,-0.710748 -1.58749999,-1.5875 v -1.5875 z" />
  <text
     y="42.333332"
     x="2.1629357"
     id="text664"
     style="font-size:3.96875px;font-family:sans-serif;text-anchor:end;fill:#282828;stroke-width:0.39687499">
    <tspan
       style="stroke-width:0.39687499"
       id="tspan662"
       y="47.889584"
       x="25.975437">fijar sombra</tspan>
  </text>
  <text
     y="42.333332"
     x="0.0462691"
     id="text668"
     style="font-size:2.64583325px;font-family:sans-serif;text-anchor:end;fill:#282828;stroke-width:0.39687499">
    <tspan
       style="stroke-width:0.39687499"
       id="tspan666"
       y="47.095833"
       x="23.858768" />
  </text>
  <path
     id="path674"
     style="fill:#ff6ea1;fill-opacity:1;stroke:#ff2c76;stroke-width:0.39687499;stroke-linecap:round;stroke-opacity:1"
     d="m 30.407214,42.53177 h 23.8125 v 7.9375 h -23.8125 v -3.175 -0.396875 h -2.38125 v 1.190625 h -0.79375 v -3.175 h 0.79375 v 1.190626 h 2.38125 v -0.396875 z" />
  <text
     y="42.333332"
     x="27.033772"
     id="text678"
     style="font-size:3.96875px;font-family:sans-serif;text-anchor:start;fill:#282828;stroke-width:0.39687499">
    <tspan
       style="stroke-width:0.39687499"
       id="tspan676"
       y="47.889584"
       x="32.19315">100</tspan>
  </text>
</svg>
