<?xml version="1.0" encoding="UTF-8" standalone="no"?>
<svg
   xmlns:dc="http://purl.org/dc/elements/1.1/"
   xmlns:cc="http://creativecommons.org/ns#"
   xmlns:rdf="http://www.w3.org/1999/02/22-rdf-syntax-ns#"
   xmlns:svg="http://www.w3.org/2000/svg"
   xmlns="http://www.w3.org/2000/svg"
   id="svg1710"
   version="1.1"
   viewBox="0 0 88.076148 50.799999"
   height="50.799999mm"
   width="88.076149mm">
  <defs
     id="defs1704" />
  <metadata
     id="metadata1707">
    <rdf:RDF>
      <cc:Work
         rdf:about="">
        <dc:format>image/svg+xml</dc:format>
        <dc:type
           rdf:resource="http://purl.org/dc/dcmitype/StillImage" />
        <dc:title></dc:title>
      </cc:Work>
    </rdf:RDF>
  </metadata>
  <g
     transform="translate(-45.761649,-150.43787)"
     id="layer1">
    <g
       id="g596"
       transform="matrix(0.26458333,0,0,0.26458333,77.511649,175.83787)">
      <g
         id="g594"
         transform="scale(1.5)">
        <path
           id="path580"
           style="fill:#ff6ea1;fill-opacity:1;stroke:#ff2c76;stroke-width:1;stroke-linecap:round;stroke-opacity:1"
           d="m 8.5,8.5 v -4 a 4,4 90 0 1 4,-4 h 4 10 30 4 a 4,4 90 0 1 4,4 v 4 h -4 v -3 h -4 v 10 h 4 v -3 h 4 v 17 h -4 v -3 h -4 v 10 h 4 v -3 h 4 v 4 a 4,4 90 0 1 -4,4 h -4 -30 -10 -4 a 4,4 90 0 1 -4,-4 v -4 -21 -1 h -6 v 3 h -2 v -8 h 2 v 3 h 6 z" />
        <text
           id="text584"
           style="font-size:14px;font-family:sans-serif;text-anchor:end;fill:#282828">
          <tspan
             id="tspan582"
             y="24"
             x="54">–</tspan>
        </text>
        <text
           id="text588"
           style="font-size:9.33333302px;font-family:sans-serif;text-anchor:end;fill:#282828">
          <tspan
             id="tspan586"
             y="12"
             x="54" />
        </text>
        <text
           id="text592"
           style="font-size:9.33333302px;font-family:sans-serif;text-anchor:end;fill:#282828">
          <tspan
             id="tspan590"
             y="33"
             x="54" />
        </text>
      </g>
    </g>
    <g
       id="g606"
       transform="matrix(0.26458333,0,0,0.26458333,100.26582,184.30454)">
      <g
         id="g604"
         transform="scale(1.5)">
        <path
           id="path598"
           style="fill:#ff6ea1;fill-opacity:1;stroke:#ff2c76;stroke-width:1;stroke-linecap:round;stroke-opacity:1"
           d="m 8.5,0.5 h 60 v 20 h -60 v -8 -1 h -6 v 3 h -2 v -8 h 2 v 3 h 6 v -1 z" />
        <text
           id="text602"
           style="font-size:10px;font-family:sans-serif;text-anchor:start;fill:#282828">
          <tspan
             id="tspan600"
             y="14"
             x="13">45</tspan>
        </text>
      </g>
    </g>
    <g
       transform="matrix(0.26458333,0,0,0.26458333,45.761649,150.43787)"
       id="g620">
      <g
         id="g618"
         transform="scale(1.5)">
        <path
           id="path608"
           style="fill:#d98a43;fill-opacity:1;stroke:#b7651a;stroke-width:1;stroke-linecap:round;stroke-opacity:1"
           d="m 0.5,8.5 v -4 a 4,4 90 0 1 4,-4 h 4 v 2 h 10 v -2 h 9 20 4 a 4,4 90 0 1 4,4 v 4 h -4 v -3 h -4 v 10 h 4 v -3 h 4 v 4 a 4,4 90 0 1 -4,4 h -4 -20 -1 v 2 h -8 v -2 h -1 -4 a 5,5 90 0 0 -5,5 v 4 4 63 4 a 5,5 90 0 0 5,5 h 4 v 2 h 10 v -2 h 8 v 6 6 4 a 4,4 90 0 1 -4,4 h -4 -9 -1 v 2 h -8 v -2 h -1 -4 a 4,4 90 0 1 -4,-4 v -4 z" />
        <text
           id="text612"
           style="font-size:10px;font-family:sans-serif;text-anchor:start;fill:#282828">
          <tspan
             id="tspan610"
             y="15"
             x="5">repetir</tspan>
        </text>
        <text
           id="text616"
           style="font-size:6.66666651px;font-family:sans-serif;text-anchor:end;fill:#282828">
          <tspan
             id="tspan614"
             y="12"
             x="45" />
        </text>
      </g>
    </g>
    <g
       id="g630"
       transform="matrix(0.26458333,0,0,0.26458333,64.811649,150.43787)">
      <g
         id="g628"
         transform="scale(1.5)">
        <path
           id="path622"
           style="fill:#ff6ea1;fill-opacity:1;stroke:#ff2c76;stroke-width:1;stroke-linecap:round;stroke-opacity:1"
           d="m 8.5,0.5 h 60 v 20 h -60 v -8 -1 h -6 v 3 h -2 v -8 h 2 v 3 h 6 v -1 z" />
        <text
           id="text626"
           style="font-size:10px;font-family:sans-serif;text-anchor:start;fill:#282828">
          <tspan
             id="tspan624"
             y="14"
             x="13">8</tspan>
        </text>
      </g>
    </g>
    <g
       id="g644"
       transform="matrix(0.26458333,0,0,0.26458333,49.465816,175.83787)">
      <g
         id="g642"
         transform="scale(1.5)">
        <path
           id="path632"
           style="fill:#92a9ff;fill-opacity:1;stroke:#5370dc;stroke-width:1;stroke-linecap:round;stroke-opacity:1"
           d="m 0.5,8.5 v -4 a 4,4 90 0 1 4,-4 h 4 v 2 h 10 v -2 h 51.708984 4 a 4,4 90 0 1 4,4 v 4 h -4 v -3 h -4 v 10 h 4 v -3 h 4 v 4 a 4,4 90 0 1 -4,4 h -4 H 18.5 h -1 v 2 h -8 v -2 h -1 -4 a 4,4 90 0 1 -4,-4 v -4 z" />
        <text
           id="text636"
           style="font-size:10px;font-family:sans-serif;text-anchor:end;fill:#282828">
          <tspan
             id="tspan634"
             y="14"
             x="68">fijar rumbo</tspan>
        </text>
        <text
           id="text640"
           style="font-size:6.66666651px;font-family:sans-serif;text-anchor:end;fill:#282828">
          <tspan
             id="tspan638"
             y="12"
             x="68" />
        </text>
      </g>
    </g>
    <g
       id="g654"
       transform="matrix(0.26458333,0,0,0.26458333,100.26582,175.83787)">
      <g
         id="g652"
         transform="scale(1.5)">
        <path
           id="path646"
           style="fill:#92a9ff;fill-opacity:1;stroke:#5370dc;stroke-width:1;stroke-linecap:round;stroke-opacity:1"
           d="m 8.5,0.5 h 75.59082 v 20 H 8.5 v -8 -1 h -6 v 3 h -2 v -8 h 2 v 3 h 6 v -1 z" />
        <text
           id="text650"
           style="font-size:10px;font-family:sans-serif;text-anchor:start;fill:#282828">
          <tspan
             id="tspan648"
             y="14"
             x="13">rumbo</tspan>
        </text>
      </g>
    </g>
    <g
       id="g664"
       transform="matrix(0.26458333,0,0,0.26458333,49.465816,184.30454)">
      <g
         id="g662"
         transform="scale(1.5)">
        <path
           id="path656"
           style="fill:#c4c4c4;fill-opacity:1;stroke:#a0a0a0;stroke-width:1;stroke-linecap:round;stroke-opacity:1"
           d="m 0.5,8.5 v -4 a 4,4 90 0 1 4,-4 h 4 v 2 h 10 v -2 h 20 4 a 4,4 90 0 1 4,4 v 4 4 4 a 4,4 90 0 1 -4,4 h -4 -20 -1 v 2 h -8 v -2 h -1 -4 a 4,4 90 0 1 -4,-4 v -4 z" />
        <text
           id="text660"
           style="font-size:10px;font-family:sans-serif;text-anchor:end;fill:#282828">
          <tspan
             id="tspan658"
             y="14"
             x="36">↓</tspan>
        </text>
      </g>
    </g>
    <g
       id="g678"
       transform="matrix(0.26458333,0,0,0.26458333,49.465816,158.90454)">
      <g
         id="g676"
         transform="scale(1.5)">
        <path
           id="path666"
           style="fill:#92a9ff;fill-opacity:1;stroke:#5370dc;stroke-width:1;stroke-linecap:round;stroke-opacity:1"
           d="m 0.5,8.5 v -4 a 4,4 90 0 1 4,-4 h 4 v 2 h 10 v -2 h 33.344727 4 a 4,4 90 0 1 4,4 v 4 h -4 v -3 h -4 v 10 h 4 v -3 h 4 v 4 a 4,4 90 0 1 -4,4 h -4 H 18.5 h -1 v 2 h -8 v -2 h -1 -4 a 4,4 90 0 1 -4,-4 v -4 z" />
        <text
           id="text670"
           style="font-size:10px;font-family:sans-serif;text-anchor:end;fill:#282828">
          <tspan
             id="tspan668"
             y="14"
             x="50">adelante</tspan>
        </text>
        <text
           id="text674"
           style="font-size:6.66666651px;font-family:sans-serif;text-anchor:end;fill:#282828">
          <tspan
             id="tspan672"
             y="12"
             x="50" />
        </text>
      </g>
    </g>
    <g
       id="g688"
       transform="matrix(0.26458333,0,0,0.26458333,70.367899,158.90454)">
      <g
         id="g686"
         transform="scale(1.5)">
        <path
           id="path680"
           style="fill:#ff6ea1;fill-opacity:1;stroke:#ff2c76;stroke-width:1;stroke-linecap:round;stroke-opacity:1"
           d="m 8.5,0.5 h 60 v 20 h -60 v -8 -1 h -6 v 3 h -2 v -8 h 2 v 3 h 6 v -1 z" />
        <text
           id="text684"
           style="font-size:10px;font-family:sans-serif;text-anchor:start;fill:#282828">
          <tspan
             id="tspan682"
             y="14"
             x="13">100</tspan>
        </text>
      </g>
    </g>
    <g
       id="g702"
       transform="matrix(0.26458333,0,0,0.26458333,49.465816,167.3712)">
      <g
         id="g700"
         transform="scale(1.5)">
        <path
           id="path690"
           style="fill:#92a9ff;fill-opacity:1;stroke:#5370dc;stroke-width:1;stroke-linecap:round;stroke-opacity:1"
           d="m 0.5,8.5 v -4 a 4,4 90 0 1 4,-4 h 4 v 2 h 10 v -2 h 30 4 a 4,4 90 0 1 4,4 v 4 h -4 v -3 h -4 v 10 h 4 v -3 h 4 v 4 a 4,4 90 0 1 -4,4 h -4 -30 -1 v 2 h -8 v -2 h -1 -4 a 4,4 90 0 1 -4,-4 v -4 z" />
        <text
           id="text694"
           style="font-size:10px;font-family:sans-serif;text-anchor:end;fill:#282828">
          <tspan
             id="tspan692"
             y="14"
             x="46">atrás</tspan>
        </text>
        <text
           id="text698"
           style="font-size:6.66666651px;font-family:sans-serif;text-anchor:end;fill:#282828">
          <tspan
             id="tspan696"
             y="12"
             x="46" />
        </text>
      </g>
    </g>
    <g
       id="g712"
       transform="matrix(0.26458333,0,0,0.26458333,69.044982,167.3712)">
      <g
         id="g710"
         transform="scale(1.5)">
        <path
           id="path704"
           style="fill:#ff6ea1;fill-opacity:1;stroke:#ff2c76;stroke-width:1;stroke-linecap:round;stroke-opacity:1"
           d="m 8.5,0.5 h 60 v 20 h -60 v -8 -1 h -6 v 3 h -2 v -8 h 2 v 3 h 6 v -1 z" />
        <text
           id="text708"
           style="font-size:10px;font-family:sans-serif;text-anchor:start;fill:#282828">
          <tspan
             id="tspan706"
             y="14"
             x="13">100</tspan>
        </text>
      </g>
    </g>
  </g>
</svg>
