<?xml version="1.0" encoding="UTF-8" standalone="no"?>
<!-- Created with Inkscape (http://www.inkscape.org/) -->

<svg
   xmlns:dc="http://purl.org/dc/elements/1.1/"
   xmlns:cc="http://creativecommons.org/ns#"
   xmlns:rdf="http://www.w3.org/1999/02/22-rdf-syntax-ns#"
   xmlns:svg="http://www.w3.org/2000/svg"
   xmlns="http://www.w3.org/2000/svg"
   xmlns:sodipodi="http://sodipodi.sourceforge.net/DTD/sodipodi-0.dtd"
   xmlns:inkscape="http://www.inkscape.org/namespaces/inkscape"
   width="106.4948mm"
   height="25.267704mm"
   viewBox="0 0 106.4948 25.267704"
   version="1.1"
   id="svg1120"
   inkscape:version="0.92.3 (2405546, 2018-03-11)"
   sodipodi:docname="mbpm.svg">
  <defs
     id="defs1114" />
  <sodipodi:namedview
     id="base"
     pagecolor="#ffffff"
     bordercolor="#666666"
     borderopacity="1.0"
     inkscape:pageopacity="0.0"
     inkscape:pageshadow="2"
     inkscape:zoom="0.35"
     inkscape:cx="-664.5714"
     inkscape:cy="841.2143"
     inkscape:document-units="mm"
     inkscape:current-layer="layer1"
     showgrid="false"
     fit-margin-top="0"
     fit-margin-left="0"
     fit-margin-right="0"
     fit-margin-bottom="0"
     inkscape:window-width="1920"
     inkscape:window-height="1016"
     inkscape:window-x="0"
     inkscape:window-y="27"
     inkscape:window-maximized="1" />
  <metadata
     id="metadata1117">
    <rdf:RDF>
      <cc:Work
         rdf:about="">
        <dc:format>image/svg+xml</dc:format>
        <dc:type
           rdf:resource="http://purl.org/dc/dcmitype/StillImage" />
        <dc:title></dc:title>
      </cc:Work>
    </rdf:RDF>
  </metadata>
  <g
     inkscape:label="Layer 1"
     inkscape:groupmode="layer"
     id="layer1"
     transform="translate(-113.84642,-346.13691)">
    <g
       id="g104"
       transform="matrix(0.26458333,0,0,0.26458333,113.84642,346.13691)">
      <g
         transform="scale(1.5)"
         id="g102">
        <path
           inkscape:connector-curvature="0"
           d="m 0.5,8.5 v -4 a 4,4 90 0 1 4,-4 h 4 v 2 h 10 v -2 h 122.82715 4 a 4,4 90 0 1 4,4 v 4 h -4 v -3 h -4 v 10 h 4 v -3 h 4 v 17 h -4 v -3 h -4 v 10 h 4 v -3 h 4 v 4 a 4,4 90 0 1 -4,4 h -4 H 18.5 h -1 v 2 h -8 v -2 h -1 -4 a 4,4 90 0 1 -4,-4 v -4 -21 z"
           style="fill:#ff8b2d;fill-opacity:1;stroke:#520000;stroke-width:1;stroke-linecap:round;stroke-opacity:1"
           id="path88" />
        <text
           style="font-size:10px;font-family:sans-serif;text-anchor:end;fill:#000000"
           id="text92">
          <tspan
             x="139"
             y="24"
             id="tspan90">latidos por minuto de dominar</tspan>
        </text>
        <text
           style="font-size:6.66666651px;font-family:sans-serif;text-anchor:end;fill:#000000"
           id="text96">
          <tspan
             x="139"
             y="12"
             id="tspan94">bpm</tspan>
        </text>
        <text
           style="font-size:6.66666651px;font-family:sans-serif;text-anchor:end;fill:#000000"
           id="text100">
          <tspan
             x="139"
             y="33"
             id="tspan98">valor de latidos</tspan>
        </text>
      </g>
    </g>
    <g
       transform="matrix(0.26458333,0,0,0.26458333,170.20267,346.13691)"
       id="g114">
      <g
         transform="scale(1.5)"
         id="g112">
        <path
           inkscape:connector-curvature="0"
           d="m 8.5,0.5 h 60 v 20 h -60 v -8 -1 h -6 v 3 h -2 v -8 h 2 v 3 h 6 v -1 z"
           style="fill:#ffb2bc;fill-opacity:1;stroke:#601136;stroke-width:1;stroke-linecap:round;stroke-opacity:1"
           id="path106" />
        <text
           style="font-size:10px;font-family:sans-serif;text-anchor:start;fill:#000000"
           id="text110">
          <tspan
             x="13"
             y="14"
             id="tspan108">90</tspan>
        </text>
      </g>
    </g>
    <g
       transform="matrix(0.26458333,0,0,0.26458333,170.20267,354.60358)"
       id="g132">
      <g
         transform="scale(1.5)"
         id="g130">
        <path
           inkscape:connector-curvature="0"
           d="m 8.5,8.5 v -4 a 4,4 90 0 1 4,-4 h 4 10 30 4 a 4,4 90 0 1 4,4 v 4 h -4 v -3 h -4 v 10 h 4 v -3 h 4 v 17 h -4 v -3 h -4 v 10 h 4 v -3 h 4 v 4 a 4,4 90 0 1 -4,4 h -4 -30 -10 -4 a 4,4 90 0 1 -4,-4 v -4 -21 -1 h -6 v 3 h -2 v -8 h 2 v 3 h 6 z"
           style="fill:#ffb2bc;fill-opacity:1;stroke:#601136;stroke-width:1;stroke-linecap:round;stroke-opacity:1"
           id="path116" />
        <text
           style="font-size:14px;font-family:sans-serif;text-anchor:end;fill:#000000"
           id="text120">
          <tspan
             x="54"
             y="24"
             id="tspan118">/</tspan>
        </text>
        <text
           style="font-size:9.33333302px;font-family:sans-serif;text-anchor:end;fill:#000000"
           id="text124">
          <tspan
             x="54"
             y="12"
             id="tspan122" />
        </text>
        <text
           style="font-size:9.33333302px;font-family:sans-serif;text-anchor:end;fill:#000000"
           id="text128">
          <tspan
             x="54"
             y="33"
             id="tspan126" />
        </text>
      </g>
    </g>
    <g
       transform="matrix(0.26458333,0,0,0.26458333,192.95684,354.60358)"
       id="g142">
      <g
         transform="scale(1.5)"
         id="g140">
        <path
           inkscape:connector-curvature="0"
           d="m 8.5,0.5 h 60 v 20 h -60 v -8 -1 h -6 v 3 h -2 v -8 h 2 v 3 h 6 v -1 z"
           style="fill:#ffb2bc;fill-opacity:1;stroke:#601136;stroke-width:1;stroke-linecap:round;stroke-opacity:1"
           id="path134" />
        <text
           style="font-size:10px;font-family:sans-serif;text-anchor:start;fill:#000000"
           id="text138">
          <tspan
             x="13"
             y="14"
             id="tspan136">1</tspan>
        </text>
      </g>
    </g>
    <g
       transform="matrix(0.26458333,0,0,0.26458333,192.95684,363.07024)"
       id="g152">
      <g
         transform="scale(1.5)"
         id="g150">
        <path
           inkscape:connector-curvature="0"
           d="m 8.5,0.5 h 60 v 20 h -60 v -8 -1 h -6 v 3 h -2 v -8 h 2 v 3 h 6 v -1 z"
           style="fill:#ffb2bc;fill-opacity:1;stroke:#601136;stroke-width:1;stroke-linecap:round;stroke-opacity:1"
           id="path144" />
        <text
           style="font-size:10px;font-family:sans-serif;text-anchor:start;fill:#000000"
           id="text148">
          <tspan
             x="13"
             y="14"
             id="tspan146">4</tspan>
        </text>
      </g>
    </g>
  </g>
</svg>
