<?xml version="1.0" encoding="UTF-8" standalone="no"?>
<svg
   xmlns:dc="http://purl.org/dc/elements/1.1/"
   xmlns:cc="http://creativecommons.org/ns#"
   xmlns:rdf="http://www.w3.org/1999/02/22-rdf-syntax-ns#"
   xmlns:svg="http://www.w3.org/2000/svg"
   xmlns="http://www.w3.org/2000/svg"
   width="76.444168mm"
   height="63.326187mm"
   viewBox="0 0 76.444166 63.326194"
   version="1.1"
   id="svg11666">
  <defs
     id="defs11660" />
  <metadata
     id="metadata11663">
    <rdf:RDF>
      <cc:Work
         rdf:about="">
        <dc:format>image/svg+xml</dc:format>
        <dc:type
           rdf:resource="http://purl.org/dc/dcmitype/StillImage" />
        <dc:title></dc:title>
      </cc:Work>
    </rdf:RDF>
  </metadata>
  <g
     id="layer1"
     transform="translate(454.09354,140.65664)">
    <g
       transform="matrix(0.26458333,0,0,0.26458333,-645.38729,-538.94606)"
       id="g17808">
      <g
         id="g3803">
        <g
           id="g3783"
           transform="translate(723,1505.7674)">
          <g
             id="g3781"
             transform="scale(1.5)">
            <path
               id="path3775"
               style="fill:#7cd622;fill-opacity:1;stroke:#57ad02;stroke-width:1;stroke-linecap:round;stroke-opacity:1"
               d="m 0.5,14.5 v -4 a 4,4 90 0 1 4,-4 h 4 l 5,-6 5,6 h 9 60 4 a 4,4 90 0 1 4,4 v 4 4 4 a 4,4 90 0 1 -4,4 h -4 -60 -1 v 2 h -8 v -2 h -1 -4 a 5,5 90 0 0 -5,5 v 4 4 84 4 a 5,5 90 0 0 5,5 h 4 v 2 h 10 v -2 h 8 v 6 6 4 a 4,4 90 0 1 -4,4 h -4 -9 l -5,6 -5,-6 h -4 a 4,4 90 0 1 -4,-4 v -4 z" />
            <text
               id="text3779"
               style="font-size:10px;font-family:sans-serif;text-anchor:start;fill:#282828">
              <tspan
                 id="tspan3777"
                 y="22"
                 x="20">estatus</tspan>
            </text>
          </g>
        </g>
        <g
           id="g3801"
           transform="matrix(0.5,0,0,0.5,723,1517.7674)">
          <g
             id="g3799"
             style="isolation:isolate">
            <g
               data-name="レイヤー 2"
               id="g3797">
              <g
                 id="g3795">
                <rect
                   y="0"
                   x="0"
                   id="rect3785"
                   style="opacity:0.4;mix-blend-mode:multiply;fill:#292929"
                   ry="5"
                   rx="5"
                   height="42"
                   width="42" />
                <path
                   id="path3787"
                   style="fill:#ffffff"
                   d="m 30.56,29.8 -4.17,-4.16 h 2.26 a 1.035,1.035 0 1 0 0,-2.07 h -4.71 a 1.08,1.08 0 0 0 -1.11,1 v 0 c 0,0 0,0 0,0.06 v 4.64 0 a 1.04,1.04 0 1 0 2.08,0 v -2.19 l 4.19,4.19 a 1,1 0 0 0 1.46,0 1,1 0 0 0 0,-1.47 z" />
                <path
                   id="path3789"
                   style="fill:#ffffff"
                   d="m 19.17,24.6 a 1.08,1.08 0 0 0 -1.11,-1 h -4.71 a 1.035,1.035 0 1 0 0,2.07 h 2.25 l -4.16,4.13 a 1.039447,1.039447 0 0 0 1.47,1.47 l 4.18,-4.19 v 2.26 a 1.04,1.04 0 1 0 2.08,0 V 24.7 c 0,0 0,0 0,-0.06 a 0.08,0.08 0 0 1 0,-0.04 z" />
                <path
                   id="path3791"
                   style="fill:#ffffff"
                   d="m 23.94,20.5 h 4.7 a 1.04,1.04 0 1 0 0,-2.08 h -2.25 l 4.17,-4.16 a 1,1 0 0 0 0,-1.47 1,1 0 0 0 -1.46,0 L 24.91,17 v -2.28 a 1.04,1.04 0 1 0 -2.08,0 v 4.64 a 0.43,0.43 0 0 0 0,0.05 v 0.05 a 1.09,1.09 0 0 0 1.11,1.04 z" />
                <path
                   id="path3793"
                   style="fill:#ffffff"
                   d="m 18.13,13.62 a 1.08,1.08 0 0 0 -1,1.09 V 17 l -4.18,-4.19 a 1,1 0 0 0 -1.47,0 1,1 0 0 0 0,1.46 l 4.16,4.17 h -2.29 a 1.04,1.04 0 1 0 0,2.08 h 4.71 a 1.09,1.09 0 0 0 1.11,-1 c 0,0 0,0 0,-0.06 v -4.75 a 1.07,1.07 0 0 0 -1.04,-1.09 z" />
              </g>
            </g>
          </g>
        </g>
      </g>
      <g
         id="g3817"
         transform="translate(736.5,1577.7674)">
        <g
           id="g3815"
           transform="scale(1.5)">
          <path
             id="path3805"
             style="fill:#c4c4c4;fill-opacity:1;stroke:#a0a0a0;stroke-width:1;stroke-linecap:round;stroke-opacity:1"
             d="m 0.5,8.5 v -4 a 4,4 90 0 1 4,-4 h 4 v 2 h 10 v -2 h 30 4 a 4,4 90 0 1 4,4 v 4 h -4 v -3 h -4 v 10 h 4 v -3 h 4 v 4 a 4,4 90 0 1 -4,4 h -4 -30 -1 v 2 h -8 v -2 h -1 -4 a 4,4 90 0 1 -4,-4 v -4 z" />
          <text
             id="text3809"
             style="font-size:10px;font-family:sans-serif;text-anchor:end;fill:#282828">
            <tspan
               id="tspan3807"
               y="14"
               x="46">imprimir</tspan>
          </text>
          <text
             id="text3813"
             style="font-size:6.66666651px;font-family:sans-serif;text-anchor:end;fill:#282828">
            <tspan
               id="tspan3811"
               y="12"
               x="46" />
          </text>
        </g>
      </g>
      <g
         id="g3827"
         transform="translate(810,1577.7674)">
        <g
           id="g3825"
           transform="scale(1.5)">
          <path
             id="path3819"
             style="fill:#fe994f;fill-opacity:1;stroke:#e86b0e;stroke-width:1;stroke-linecap:round;stroke-opacity:1"
             d="m 8.5,0.5 h 94.7041 v 20 H 8.5 v -8 -1 h -6 v 3 h -2 v -8 h 2 v 3 h 6 v -1 z" />
          <text
             id="text3823"
             style="font-size:10px;font-family:sans-serif;text-anchor:start;fill:#282828">
            <tspan
               id="tspan3821"
               y="14"
               x="13">cuenta de latidos</tspan>
          </text>
        </g>
      </g>
      <g
         id="g3841"
         transform="translate(736.5,1609.2674)">
        <g
           id="g3839"
           transform="scale(1.5)">
          <path
             id="path3829"
             style="fill:#c4c4c4;fill-opacity:1;stroke:#a0a0a0;stroke-width:1;stroke-linecap:round;stroke-opacity:1"
             d="m 0.5,8.5 v -4 a 4,4 90 0 1 4,-4 h 4 v 2 h 10 v -2 h 30 4 a 4,4 90 0 1 4,4 v 4 h -4 v -3 h -4 v 10 h 4 v -3 h 4 v 4 a 4,4 90 0 1 -4,4 h -4 -30 -1 v 2 h -8 v -2 h -1 -4 a 4,4 90 0 1 -4,-4 v -4 z" />
          <text
             id="text3833"
             style="font-size:10px;font-family:sans-serif;text-anchor:end;fill:#282828">
            <tspan
               id="tspan3831"
               y="14"
               x="46">imprimir</tspan>
          </text>
          <text
             id="text3837"
             style="font-size:6.66666651px;font-family:sans-serif;text-anchor:end;fill:#282828">
            <tspan
               id="tspan3835"
               y="12"
               x="46" />
          </text>
        </g>
      </g>
      <g
         id="g3851"
         transform="translate(810,1609.2674)">
        <g
           id="g3849"
           transform="scale(1.5)">
          <path
             id="path3843"
             style="fill:#fe994f;fill-opacity:1;stroke:#e86b0e;stroke-width:1;stroke-linecap:round;stroke-opacity:1"
             d="m 8.5,0.5 h 106.14746 v 20 H 8.5 v -8 -1 h -6 v 3 h -2 v -8 h 2 v 3 h 6 v -1 z" />
          <text
             id="text3847"
             style="font-size:10px;font-family:sans-serif;text-anchor:start;fill:#282828">
            <tspan
               id="tspan3845"
               y="14"
               x="13">cuenta de medidas</tspan>
          </text>
        </g>
      </g>
      <g
         id="g3865"
         transform="translate(736.5,1640.7674)">
        <g
           id="g3863"
           transform="scale(1.5)">
          <path
             id="path3853"
             style="fill:#c4c4c4;fill-opacity:1;stroke:#a0a0a0;stroke-width:1;stroke-linecap:round;stroke-opacity:1"
             d="m 0.5,8.5 v -4 a 4,4 90 0 1 4,-4 h 4 v 2 h 10 v -2 h 30 4 a 4,4 90 0 1 4,4 v 4 h -4 v -3 h -4 v 10 h 4 v -3 h 4 v 4 a 4,4 90 0 1 -4,4 h -4 -30 -1 v 2 h -8 v -2 h -1 -4 a 4,4 90 0 1 -4,-4 v -4 z" />
          <text
             id="text3857"
             style="font-size:10px;font-family:sans-serif;text-anchor:end;fill:#282828">
            <tspan
               id="tspan3855"
               y="14"
               x="46">imprimir</tspan>
          </text>
          <text
             id="text3861"
             style="font-size:6.66666651px;font-family:sans-serif;text-anchor:end;fill:#282828">
            <tspan
               id="tspan3859"
               y="12"
               x="46" />
          </text>
        </g>
      </g>
      <g
         id="g3875"
         transform="translate(810,1640.7674)">
        <g
           id="g3873"
           transform="scale(1.5)">
          <path
             id="path3867"
             style="fill:#fe994f;fill-opacity:1;stroke:#e86b0e;stroke-width:1;stroke-linecap:round;stroke-opacity:1"
             d="m 8.5,0.5 h 125.61523 v 20 H 8.5 v -8 -1 h -6 v 3 h -2 v -8 h 2 v 3 h 6 v -1 z" />
          <text
             id="text3871"
             style="font-size:10px;font-family:sans-serif;text-anchor:start;fill:#282828">
            <tspan
               id="tspan3869"
               y="14"
               x="13">notas completa jugadas</tspan>
          </text>
        </g>
      </g>
      <g
         id="g3889"
         transform="translate(736.5,1672.2674)">
        <g
           id="g3887"
           transform="scale(1.5)">
          <path
             id="path3877"
             style="fill:#c4c4c4;fill-opacity:1;stroke:#a0a0a0;stroke-width:1;stroke-linecap:round;stroke-opacity:1"
             d="m 0.5,8.5 v -4 a 4,4 90 0 1 4,-4 h 4 v 2 h 10 v -2 h 30 4 a 4,4 90 0 1 4,4 v 4 h -4 v -3 h -4 v 10 h 4 v -3 h 4 v 4 a 4,4 90 0 1 -4,4 h -4 -30 -1 v 2 h -8 v -2 h -1 -4 a 4,4 90 0 1 -4,-4 v -4 z" />
          <text
             id="text3881"
             style="font-size:10px;font-family:sans-serif;text-anchor:end;fill:#282828">
            <tspan
               id="tspan3879"
               y="14"
               x="46">imprimir</tspan>
          </text>
          <text
             id="text3885"
             style="font-size:6.66666651px;font-family:sans-serif;text-anchor:end;fill:#282828">
            <tspan
               id="tspan3883"
               y="12"
               x="46" />
          </text>
        </g>
      </g>
      <g
         id="g3899"
         transform="translate(810,1672.2674)">
        <g
           id="g3897"
           transform="scale(1.5)">
          <path
             id="path3891"
             style="fill:#fe994f;fill-opacity:1;stroke:#e86b0e;stroke-width:1;stroke-linecap:round;stroke-opacity:1"
             d="m 8.5,0.5 h 125.15397 v 20 H 8.5 v -8 -1 h -6 v 3 h -2 v -8 h 2 v 3 h 6 v -1 z" />
          <text
             id="text3895"
             style="font-size:10px;font-family:sans-serif;text-anchor:start;fill:#282828">
            <tspan
               id="tspan3893"
               y="14"
               x="13">pulsaciones por minuto</tspan>
          </text>
        </g>
      </g>
      <g
         id="g3913"
         transform="translate(736.5,1546.2674)">
        <g
           id="g3911"
           transform="scale(1.5)">
          <path
             id="path3901"
             style="fill:#c4c4c4;fill-opacity:1;stroke:#a0a0a0;stroke-width:1;stroke-linecap:round;stroke-opacity:1"
             d="m 0.5,8.5 v -4 a 4,4 90 0 1 4,-4 h 4 v 2 h 10 v -2 h 30 4 a 4,4 90 0 1 4,4 v 4 h -4 v -3 h -4 v 10 h 4 v -3 h 4 v 4 a 4,4 90 0 1 -4,4 h -4 -30 -1 v 2 h -8 v -2 h -1 -4 a 4,4 90 0 1 -4,-4 v -4 z" />
          <text
             id="text3905"
             style="font-size:10px;font-family:sans-serif;text-anchor:end;fill:#282828">
            <tspan
               id="tspan3903"
               y="14"
               x="46">imprimir</tspan>
          </text>
          <text
             id="text3909"
             style="font-size:6.66666651px;font-family:sans-serif;text-anchor:end;fill:#282828">
            <tspan
               id="tspan3907"
               y="12"
               x="46" />
          </text>
        </g>
      </g>
      <g
         id="g3923"
         transform="translate(810,1546.2674)">
        <g
           id="g3921"
           transform="scale(1.5)">
          <path
             id="path3915"
             style="fill:#7cd622;fill-opacity:1;stroke:#57ad02;stroke-width:1;stroke-linecap:round;stroke-opacity:1"
             d="m 8.5,0.5 h 96.69434 v 20 H 8.5 v -8 -1 h -6 v 3 h -2 v -8 h 2 v 3 h 6 v -1 z" />
          <text
             id="text3919"
             style="font-size:10px;font-family:sans-serif;text-anchor:start;fill:#282828">
            <tspan
               id="tspan3917"
               y="14"
               x="13">pitch in hertz</tspan>
          </text>
        </g>
      </g>
    </g>
  </g>
</svg>
