<svg xmlns="http://www.w3.org/2000/svg" width="237" height="172" style=""><rect id="backgroundrect" width="100%" height="100%" x="0" y="0" fill="none" stroke="none" style="" class=""/><g class="currentLayer" style=""><title>Layer 1</title><g class=""><g id="svg_15" class=""><g transform="translate(309, 229) scale(1.5)" id="svg_16"><path d="m-204.6666717529297,-144.66666650772095 L-204.6666717529297,-148.66666650772095 A4,4 90 0 1 -200.6666717529297,-152.66666650772095 L-196.6666717529297,-152.66666650772095 L-196.6666717529297,-150.66666650772095 L-186.6666717529297,-150.66666650772095 L-186.6666717529297,-152.66666650772095 L-152.6666717529297,-152.66666650772095 L-148.6666717529297,-152.66666650772095 A4,4 90 0 1 -144.6666717529297,-148.66666650772095 L-144.6666717529297,-144.66666650772095 L-148.6666717529297,-144.66666650772095 L-148.6666717529297,-147.66666650772095 L-152.6666717529297,-147.66666650772095 L-152.6666717529297,-137.66666650772095 L-148.6666717529297,-137.66666650772095 L-148.6666717529297,-140.66666650772095 L-144.6666717529297,-140.66666650772095 L-144.6666717529297,-123.66666650772095 L-148.6666717529297,-123.66666650772095 L-148.6666717529297,-126.66666650772095 L-152.6666717529297,-126.66666650772095 L-152.6666717529297,-116.66666650772095 L-148.6666717529297,-116.66666650772095 L-148.6666717529297,-119.66666650772095 L-144.6666717529297,-119.66666650772095 L-144.6666717529297,-115.66666650772095 A4,4 90 0 1 -148.6666717529297,-111.66666650772095 L-152.6666717529297,-111.66666650772095 L-186.6666717529297,-111.66666650772095 L-187.6666717529297,-111.66666650772095 L-187.6666717529297,-109.66666650772095 L-195.6666717529297,-109.66666650772095 L-195.6666717529297,-111.66666650772095 L-196.6666717529297,-111.66666650772095 L-200.6666717529297,-111.66666650772095 A4,4 90 0 1 -204.6666717529297,-115.66666650772095 L-204.6666717529297,-119.66666650772095 L-204.6666717529297,-140.66666650772095 L-204.6666717529297,-144.66666650772095 z" style="fill:#DAA926;fill-opacity:1;stroke:#DAAF30;stroke-width:1;stroke-linecap:round;stroke-opacity:1;" id="svg_17"/><text style="font-size:10px;fill:#282828;font-family:sans-serif;text-anchor:end" id="svg_18" y="-153.16666650772095" x="-205.1666717529297"><tspan x="-155.1666717529297" y="-129.16666650772095" id="svg_19">store in</tspan></text><text style="font-size:6.666666666666667px;fill:#282828;font-family:sans-serif;text-anchor:end" id="svg_20" y="-153.16666650772095" x="-205.1666717529297"><tspan x="-155.1666717529297" y="-141.16666650772095" id="svg_21">name</tspan></text><text style="font-size:6.666666666666667px;fill:#282828;font-family:sans-serif;text-anchor:end" id="svg_22" y="-153.16666650772095" x="-205.1666717529297"><tspan x="-155.1666717529297" y="-120.16666650772095" id="svg_23">value</tspan></text></g></g><g id="svg_24" class=""><g transform="translate(389, 229) scale(1.5)" id="svg_25"><path d="m-196.6666717529297,-152.66666650772095 L-106.66667175292969,-152.66666650772095 L-106.66667175292969,-132.66666650772095 L-196.6666717529297,-132.66666650772095 L-196.6666717529297,-140.66666650772095 L-196.6666717529297,-141.66666650772095 L-202.6666717529297,-141.66666650772095 L-202.6666717529297,-138.66666650772095 L-204.6666717529297,-138.66666650772095 L-204.6666717529297,-146.66666650772095 L-202.6666717529297,-146.66666650772095 L-202.6666717529297,-143.66666650772095 L-196.6666717529297,-143.66666650772095 L-196.6666717529297,-144.66666650772095 z" style="fill:#FF5942;fill-opacity:1;stroke:#EA4326;stroke-width:1;stroke-linecap:round;stroke-opacity:1;" id="svg_26"/><text style="font-size:10px;fill:#282828;font-family:sans-serif;text-anchor:start" id="svg_27" y="-153.16666650772095" x="-205.1666717529297"><tspan x="-192.1666717529297" y="-139.16666650772095" id="svg_28">box</tspan></text></g></g><g id="svg_29" class=""><g transform="translate(389, 261) scale(1.5)" id="svg_30"><path d="m-196.6666717529297,-152.66666650772095 L-136.6666717529297,-152.66666650772095 L-136.6666717529297,-132.66666650772095 L-196.6666717529297,-132.66666650772095 L-196.6666717529297,-140.66666650772095 L-196.6666717529297,-141.66666650772095 L-202.6666717529297,-141.66666650772095 L-202.6666717529297,-138.66666650772095 L-204.6666717529297,-138.66666650772095 L-204.6666717529297,-146.66666650772095 L-202.6666717529297,-146.66666650772095 L-202.6666717529297,-143.66666650772095 L-196.6666717529297,-143.66666650772095 L-196.6666717529297,-144.66666650772095 z" style="fill:#FF5293;fill-opacity:1;stroke:#FF2C76;stroke-width:1;stroke-linecap:round;stroke-opacity:1;" id="svg_31"/><text style="font-size:10px;fill:#282828;font-family:sans-serif;text-anchor:start" id="svg_32" y="-153.16666650772095" x="-205.1666717529297"><tspan x="-192.1666717529297" y="-139.16666650772095" id="svg_33">4</tspan></text></g></g><g id="svg_34" class=""><g transform="translate(307, 316) scale(1.5)" id="svg_35"><path d="m-196.6666717529297,-152.66666650772095 L-106.66667175292969,-152.66666650772095 L-106.66667175292969,-132.66666650772095 L-196.6666717529297,-132.66666650772095 L-196.6666717529297,-140.66666650772095 L-196.6666717529297,-141.66666650772095 L-202.6666717529297,-141.66666650772095 L-202.6666717529297,-138.66666650772095 L-204.6666717529297,-138.66666650772095 L-204.6666717529297,-146.66666650772095 L-202.6666717529297,-146.66666650772095 L-202.6666717529297,-143.66666650772095 L-196.6666717529297,-143.66666650772095 L-196.6666717529297,-144.66666650772095 z" style="fill:#DAA926;fill-opacity:1;stroke:#DAAF30;stroke-width:1;stroke-linecap:round;stroke-opacity:1;" id="svg_36"/><text style="font-size:10px;fill:#282828;font-family:sans-serif;text-anchor:start" id="svg_37" y="-153.16666650772095" x="-205.1666717529297"><tspan x="-192.1666717529297" y="-139.16666650772095" id="svg_38">box</tspan></text></g></g><g id="svg_39" class=""><g transform="translate(310, 368) scale(1.5)" id="svg_40"><path d="m-204.6666717529297,-144.66666650772095 L-204.6666717529297,-148.66666650772095 A4,4 90 0 1 -200.6666717529297,-152.66666650772095 L-196.6666717529297,-152.66666650772095 L-196.6666717529297,-150.66666650772095 L-186.6666717529297,-150.66666650772095 L-186.6666717529297,-152.66666650772095 L-147.6666717529297,-152.66666650772095 L-143.6666717529297,-152.66666650772095 A4,4 90 0 1 -139.6666717529297,-148.66666650772095 L-139.6666717529297,-144.66666650772095 L-143.6666717529297,-144.66666650772095 L-143.6666717529297,-147.66666650772095 L-147.6666717529297,-147.66666650772095 L-147.6666717529297,-137.66666650772095 L-143.6666717529297,-137.66666650772095 L-143.6666717529297,-140.66666650772095 L-139.6666717529297,-140.66666650772095 L-139.6666717529297,-136.66666650772095 A4,4 90 0 1 -143.6666717529297,-132.66666650772095 L-147.6666717529297,-132.66666650772095 L-186.6666717529297,-132.66666650772095 L-187.6666717529297,-132.66666650772095 L-187.6666717529297,-130.66666650772095 L-195.6666717529297,-130.66666650772095 L-195.6666717529297,-132.66666650772095 L-196.6666717529297,-132.66666650772095 L-200.6666717529297,-132.66666650772095 A4,4 90 0 1 -204.6666717529297,-136.66666650772095 L-204.6666717529297,-140.66666650772095 L-204.6666717529297,-144.66666650772095 z" style="fill:#DAA926;fill-opacity:1;stroke:#DAAF30;stroke-width:1;stroke-linecap:round;stroke-opacity:1;" id="svg_41"/><text style="font-size:10px;fill:#282828;font-family:sans-serif;text-anchor:end" id="svg_42" y="-153.16666650772095" x="-205.1666717529297"><tspan x="-150.1666717529297" y="-139.16666650772095" id="svg_43">add 1 to</tspan></text><text style="font-size:6.666666666666667px;fill:#282828;font-family:sans-serif;text-anchor:end" id="svg_44" y="-153.16666650772095" x="-205.1666717529297"/></g></g><g id="svg_46" class=""><g transform="translate(397, 368) scale(1.5)" id="svg_47"><path d="m-196.6666717529297,-152.66666650772095 L-106.66667175292969,-152.66666650772095 L-106.66667175292969,-132.66666650772095 L-196.6666717529297,-132.66666650772095 L-196.6666717529297,-140.66666650772095 L-196.6666717529297,-141.66666650772095 L-202.6666717529297,-141.66666650772095 L-202.6666717529297,-138.66666650772095 L-204.6666717529297,-138.66666650772095 L-204.6666717529297,-146.66666650772095 L-202.6666717529297,-146.66666650772095 L-202.6666717529297,-143.66666650772095 L-196.6666717529297,-143.66666650772095 L-196.6666717529297,-144.66666650772095 z" style="fill:#DAA926;fill-opacity:1;stroke:#DAAF30;stroke-width:1;stroke-linecap:round;stroke-opacity:1;" id="svg_48"/><text style="font-size:10px;fill:#282828;font-family:sans-serif;text-anchor:start" id="svg_49" y="-153.16666650772095" x="-205.1666717529297"><tspan x="-192.1666717529297" y="-139.16666650772095" id="svg_50">box</tspan></text></g></g></g></g></svg>