<?xml version="1.0" encoding="UTF-8" standalone="no"?>
<svg
   xmlns:dc="http://purl.org/dc/elements/1.1/"
   xmlns:cc="http://creativecommons.org/ns#"
   xmlns:rdf="http://www.w3.org/1999/02/22-rdf-syntax-ns#"
   xmlns:svg="http://www.w3.org/2000/svg"
   xmlns="http://www.w3.org/2000/svg"
   id="svg4556"
   version="1.1"
   height="174.5"
   width="256.5">
  <metadata
     id="metadata4562">
    <rdf:RDF>
      <cc:Work
         rdf:about="">
        <dc:format>image/svg+xml</dc:format>
        <dc:type
           rdf:resource="http://purl.org/dc/dcmitype/StillImage" />
        <dc:title></dc:title>
      </cc:Work>
    </rdf:RDF>
  </metadata>
  <defs
     id="defs4560" />
  <g
     transform="translate(-1157,-951)"
     id="g12406">
    <g
       transform="translate(1157,951)"
       id="g4499">
      <g
         transform="scale(1.5)"
         id="g4497">
        <path
           d="m 0.5,8.5 v -4 a 4,4 90 0 1 4,-4 h 4 v 2 h 10 v -2 h 53 4 a 4,4 90 0 1 4,4 v 4 h -4 v -3 h -4 v 10 h 4 v -3 h 4 v 17 h -4 v -3 h -4 v 10 h 4 v -3 h 4 v 4 a 4,4 90 0 1 -4,4 h -4 -53 -1 v 2 h -8 v -2 h -1 -4 a 4,4 90 0 1 -4,-4 v -4 -21 z"
           style="fill:#ffbf00;fill-opacity:1;stroke:#daaf30;stroke-width:1;stroke-linecap:round;stroke-opacity:1"
           id="path4483" />
        <text
           style="font-size:10px;font-family:sans-serif;text-anchor:end;fill:#282828"
           id="text4487">
          <tspan
             x="69"
             y="24"
             id="tspan4485">guardar en</tspan>
        </text>
        <text
           style="font-size:6.66666651px;font-family:sans-serif;text-anchor:end;fill:#282828"
           id="text4491">
          <tspan
             x="69"
             y="12"
             id="tspan4489">nombre</tspan>
        </text>
        <text
           style="font-size:6.66666651px;font-family:sans-serif;text-anchor:end;fill:#282828"
           id="text4495">
          <tspan
             x="69"
             y="33"
             id="tspan4493">valor</tspan>
        </text>
      </g>
    </g>
    <g
       transform="translate(1265,951)"
       id="g4509">
      <g
         transform="scale(1.5)"
         id="g4507">
        <path
           d="m 8.5,0.5 h 90 v 20 h -90 v -8 -1 h -6 v 3 h -2 v -8 h 2 v 3 h 6 v -1 z"
           style="fill:#ff664b;fill-opacity:1;stroke:#ea4326;stroke-width:1;stroke-linecap:round;stroke-opacity:1"
           id="path4501" />
        <text
           style="font-size:10px;font-family:sans-serif;text-anchor:start;fill:#282828"
           id="text4505">
          <tspan
             x="13"
             y="14"
             id="tspan4503">caja</tspan>
        </text>
      </g>
    </g>
    <g
       transform="translate(1265,983)"
       id="g4519">
      <g
         transform="scale(1.5)"
         id="g4517">
        <path
           d="m 8.5,0.5 h 60 v 20 h -60 v -8 -1 h -6 v 3 h -2 v -8 h 2 v 3 h 6 v -1 z"
           style="fill:#ff6ea1;fill-opacity:1;stroke:#ff2c76;stroke-width:1;stroke-linecap:round;stroke-opacity:1"
           id="path4511" />
        <text
           style="font-size:10px;font-family:sans-serif;text-anchor:start;fill:#282828"
           id="text4515">
          <tspan
             x="13"
             y="14"
             id="tspan4513">4</tspan>
        </text>
      </g>
    </g>
  </g>
  <g
     id="g4529"
     transform="translate(0,85)">
    <g
       id="g4527"
       transform="scale(1.5)">
      <path
         id="path4521"
         style="fill:#ffbf00;fill-opacity:1;stroke:#daaf30;stroke-width:1;stroke-linecap:round;stroke-opacity:1"
         d="m 8.5,0.5 h 90 v 20 h -90 v -8 -1 h -6 v 3 h -2 v -8 h 2 v 3 h 6 v -1 z" />
      <text
         id="text4525"
         style="font-size:10px;font-family:sans-serif;text-anchor:start;fill:#282828">
        <tspan
           id="tspan4523"
           y="14"
           x="13">caja</tspan>
      </text>
    </g>
  </g>
  <g
     transform="translate(-1173,-951)"
     id="g12420">
    <g
       transform="translate(1173,1091)"
       id="g4543">
      <g
         transform="scale(1.5)"
         id="g4541">
        <path
           d="m 0.5,8.5 v -4 a 4,4 90 0 1 4,-4 h 4 v 2 h 10 v -2 h 49 4 a 4,4 90 0 1 4,4 v 4 h -4 v -3 h -4 v 10 h 4 v -3 h 4 v 4 a 4,4 90 0 1 -4,4 h -4 -49 -1 v 2 h -8 v -2 h -1 -4 a 4,4 90 0 1 -4,-4 v -4 z"
           style="fill:#ffbf00;fill-opacity:1;stroke:#daaf30;stroke-width:1;stroke-linecap:round;stroke-opacity:1"
           id="path4531" />
        <text
           style="font-size:10px;font-family:sans-serif;text-anchor:end;fill:#282828"
           id="text4535">
          <tspan
             x="65"
             y="14"
             id="tspan4533">sumar 1 a</tspan>
        </text>
        <text
           style="font-size:6.66666651px;font-family:sans-serif;text-anchor:end;fill:#282828"
           id="text4539">
          <tspan
             x="65"
             y="12"
             id="tspan4537" />
        </text>
      </g>
    </g>
    <g
       transform="translate(1275,1091)"
       id="g4554">
      <g
         transform="scale(1.5)"
         id="g4551">
        <path
           d="m 8.5,0.5 h 90 v 20 h -90 v -8 -1 h -6 v 3 h -2 v -8 h 2 v 3 h 6 v -1 z"
           style="fill:#ffbf00;fill-opacity:1;stroke:#daaf30;stroke-width:1;stroke-linecap:round;stroke-opacity:1"
           id="path4545" />
        <text
           style="font-size:10px;font-family:sans-serif;text-anchor:start;fill:#282828"
           id="text4549">
          <tspan
             x="13"
             y="14"
             id="tspan4547">caja</tspan>
        </text>
      </g>
    </g>
  </g>
</svg>
