<?xml version="1.0" encoding="UTF-8" standalone="no"?>
<svg
   width="256.5"
   height="77.5"
   version="1.1"
   id="svg84"
   xmlns="http://www.w3.org/2000/svg"
   xmlns:svg="http://www.w3.org/2000/svg">
  <defs
     id="defs88" />
  <g
     id="g62">
    <g
       transform="scale(1.5)"
       id="g60">
      <path
         d="m 0.5,8.5 v -4 a 4,4 90 0 1 4,-4 h 4 v 2 h 10 v -2 h 52.797852 4 a 4,4 90 0 1 4,4 v 4 h -4 v -3 h -4 v 10 h 4 v -3 h 4 v 4 a 4,4 90 0 1 -4,4 h -4 H 18.5 h -1 v 2 h -8 v -2 h -1 -4 a 4,4 90 0 1 -4,-4 v -4 z"
         style="fill:#92a9ff;fill-opacity:1;stroke:#5370dc;stroke-width:1;stroke-linecap:round;stroke-opacity:1"
         id="path50" />
      <text
         style="font-size:10px;font-family:sans-serif;text-anchor:end;fill:#282828"
         id="text54"><tspan
           x="69"
           y="14"
           id="tspan52">fijar nombre</tspan></text>
      <text
         style="font-size:6.66667px;font-family:sans-serif;text-anchor:end;fill:#282828"
         id="text58"><tspan
           x="69"
           y="12"
           id="tspan56" /></text>
    </g>
  </g>
  <g
     transform="translate(108)"
     id="g72">
    <g
       transform="scale(1.5)"
       id="g70">
      <path
         d="m 8.5,0.5 h 90 v 20 h -90 v -8 -1 h -6 v 3 h -2 v -8 h 2 v 3 h 6 v -1 z"
         style="fill:#ff664b;fill-opacity:1;stroke:#ea4326;stroke-width:1;stroke-linecap:round;stroke-opacity:1"
         id="path64" />
      <text
         style="font-size:10px;font-family:sans-serif;text-anchor:start;fill:#282828"
         id="text68"><tspan
           x="13"
           y="14"
           id="tspan66">Sr. Ratón</tspan></text>
    </g>
  </g>
  <g
     transform="translate(0,46)"
     id="g82">
    <g
       transform="scale(1.5)"
       id="g80">
      <path
         d="m 8.5,0.5 h 101.69922 v 20 H 8.5 v -8 -1 h -6 v 3 h -2 v -8 h 2 v 3 h 6 v -1 z"
         style="fill:#92a9ff;fill-opacity:1;stroke:#5370dc;stroke-width:1;stroke-linecap:round;stroke-opacity:1"
         id="path74" />
      <text
         style="font-size:10px;font-family:sans-serif;text-anchor:start;fill:#282828"
         id="text78"><tspan
           x="13"
           y="14"
           id="tspan76">renombrar ratón</tspan></text>
    </g>
  </g>
</svg>
