<?xml version="1.0" encoding="UTF-8" standalone="no"?>
<svg
   xmlns:dc="http://purl.org/dc/elements/1.1/"
   xmlns:cc="http://creativecommons.org/ns#"
   xmlns:rdf="http://www.w3.org/1999/02/22-rdf-syntax-ns#"
   xmlns:svg="http://www.w3.org/2000/svg"
   xmlns="http://www.w3.org/2000/svg"
   version="1.1"
   width="462"
   height="949.12408"
   id="svg3641"
   viewBox="0 0 462 949.12408">
  <metadata
     id="metadata3670">
    <rdf:RDF>
      <cc:Work
         rdf:about="">
        <dc:format>image/svg+xml</dc:format>
        <dc:type
           rdf:resource="http://purl.org/dc/dcmitype/StillImage" />
        <dc:title></dc:title>
      </cc:Work>
    </rdf:RDF>
  </metadata>
  <defs
     id="defs3668" />
  <path
     d="m 311,838.12407 v -8 c 0,-4.41828 3.58172,-8 8,-8 h 8 v 4 h 20 v -4 h 18 56.00001 8 c 4.41828,0 6.92841,3.71364 8,8 v 8 8 8 c 0,4.41827 -3.58172,8 -8,8 h -8 H 365 363 v 4 h -16 v -4 h -2 -8 c -5.52284,0 -10,4.47715 -10,10 v 8 6.00004 7.99998 c 0,5.52286 4.64205,11.3395 10,10.00001 h 8 v 4 h 20 v -4 h 16.00001 v 12 12 8 c 0,4.41827 -3.71365,9.0716 -8.00001,8 h -8 -18 -2 v 4 h -16 v -4 h -2 -8 c -4.41828,0 -8,-3.58173 -8,-8 v -8 z"
     id="path3035-8-1-5-4-3-5"
     style="fill:#1d8989;fill-opacity:1;stroke:#005459;stroke-width:2;stroke-linecap:round;stroke-opacity:1" />
  <text
     style="font-size:20px;font-family:Sans;text-anchor:start;fill:#000000"
     id="text3037-2-2"
     x="313.86725"
     y="818.14624">
    <tspan
       id="tspan3039-2-1"
       y="848.64624"
       x="321.86725">逆に弾く</tspan>
  </text>
  <path
     style="fill:#ffc000;fill-opacity:1;stroke:#c48d00;stroke-width:2;stroke-linecap:round;stroke-opacity:1"
     id="path3058"
     d="m 329,880.1241 v -8 a 8,8 0 0 1 8,-8 h 8 v 4 h 20 v -4 h 80 8 a 8,8 0 0 1 8,8 v 8 8 8 a 8,8 0 0 1 -8,8 h -8 -80 -2 v 4 h -16 v -4 h -2 -8 a 8,8 0 0 1 -8,-8 v -8 z" />
  <text
     style="font-size:20px;font-family:Sans;text-anchor:end;fill:#000000"
     id="text3060"
     x="328"
     y="863.12408">
    <tspan
       id="tspan3062"
       y="891.12408"
       x="442">chunk</tspan>
  </text>
  <path
     d="m 1,29.56205 v -8 c 0,-4.18879 3.81121,-8 8,-8 h 8 L 27,1.5620499 37,13.56205 h 18 70 8 c 4.18879,0 8,3.81121 8,8 v 8 h -8 v -6 h -8 v 20 h 8 v -6 h 8 v 8 c 0,4.18879 -3.81121,8 -8,8 h -8 -70 -2 v 4 H 37 v -4 h -2 -8 c -2.61799,0 -5.21987,1.07773 -7.07107,2.92893 C 18.07773,58.34218 17,60.94405 17,63.56205 v 8 806 8 c 0,2.61799 1.07773,5.21987 2.92893,7.07107 1.8512,1.8512 4.53125,2.29397 7.07107,2.92893 h 8 v 4 h 20 v -4 h 16 v 12 12 8 c 0,4.18878 -3.93628,9.01593 -8,8 H 55 37 l -10,12 -10,-12 H 9 c -4.18879,0 -8,-3.81122 -8,-8 v -8 z"
     id="path3027-4-9"
     style="fill:#ffc000;fill-opacity:1;stroke:#c48d00;stroke-width:2;stroke-linecap:round;stroke-opacity:1" />
  <text
     x="-0.055399921"
     y="-1.7266952"
     id="text3029-4-3"
     style="font-size:20px;font-family:Sans;text-anchor:start;fill:#000000">
    <tspan
       x="7.9446001"
       y="41.273304"
       id="tspan3031-5-2">動作</tspan>
  </text>
  <path
     d="m 143,13.56205 h 120 v 40 H 143 v -16 -2 h -12 v 6 h -4 v -16 h 4 v 6 h 12 v -2 z"
     id="path21-2-0-4"
     style="fill:#5DC1BC;fill-opacity:1;stroke:#5AA4AF;stroke-width:2;stroke-linecap:round;stroke-opacity:1" />
  <text
     x="149.21785"
     y="12.018056"
     id="text23-2-3"
     style="font-size:20px;font-family:Sans;text-anchor:start;fill:#000000">
    <tspan
       x="169.21785"
       y="38.018055"
       id="tspan25-1-7">chunk</tspan>
  </text>
  <path
     style="fill:#76C61C;fill-opacity:1;stroke:#538D38;stroke-width:2;stroke-linecap:round;stroke-opacity:1"
     id="path3194-36-6"
     d="m 37,786.12408 v -8 a 8,8 0 0 1 8,-8 h 8 v 4 h 20 v -4 h 60 8 a 8,8 0 0 1 8,8 v 8 h -8 v -6 h -8 v 20 h 8 v -6 h 8 v 34 h -8 v -5.99999 h -8 v 19.99999 h 8 v -6 h 8 v 8 a 8,8 0 0 1 -8,8 h -8 -60 -2 v 4 H 55 v -4 h -2 -8 a 8,8 0 0 1 -8,-8 v -8 -42 z" />
  <text
     y="769.12408"
     x="35.999992"
     style="font-size:20px;font-family:Sans;text-anchor:end;fill:#000000"
     id="text3196-75-2">
    <tspan
       id="tspan3198-3-1"
       y="818.12408"
       x="130">ピッチ</tspan>
  </text>
  <text
     y="771.12408"
     x="35.999992"
     style="font-size:13.33333302px;font-family:Sans;text-anchor:end;fill:#000000"
     id="text3200-5-7">
    <tspan
       id="tspan3202-6-8"
       y="793.62408"
       x="130">名前</tspan>
  </text>
  <text
     y="773.12408"
     x="35.999992"
     style="font-size:13.33333302px;font-family:Sans;text-anchor:end;fill:#000000"
     id="text3204-2-5">
    <tspan
       id="tspan3206-9-7"
       y="837.62408"
       x="130">オクターヴ</tspan>
  </text>
  <path
     d="m 151,770.12408 h 120 v 40.00001 H 151 v -16.00001 -2 h -12 v 6 h -4 v -16 h 4 v 6 h 12 v -2 z"
     id="path21-1-4"
     style="fill:#76C61C;fill-opacity:1;stroke:#538D38;stroke-width:2;stroke-linecap:round;stroke-opacity:1" />
  <text
     y="769.12408"
     id="text23-2-2-1"
     style="font-size:20px;font-family:Sans;text-anchor:start;fill:#000000"
     x="176">
    <tspan
       x="196"
       y="795.12408"
       id="tspan25-70-8">ソ</tspan>
  </text>
  <path
     style="fill:#EE97A8;fill-opacity:1;stroke:#A75862;stroke-width:2;stroke-linecap:round;stroke-opacity:1"
     id="path21-6-9-5"
     d="m 151,812.12408 h 120 v 40 H 151 v -16 -2 h -12 v 6 h -4 v -16 h 4 v 6 h 12 v -2 z" />
  <text
     y="811.12408"
     x="186"
     style="font-size:20px;font-family:Sans;text-anchor:start;fill:#000000"
     id="text23-9-3-2-9">
    <tspan
       id="tspan25-8-6-7"
       y="837.12408"
       x="206">4</tspan>
  </text>
  <path
     style="fill:#F2740B;fill-opacity:1;stroke:#A86129;stroke-width:2;stroke-linecap:round;stroke-opacity:1"
     id="path3035-0-5"
     d="m 19,702.1241 v -8 c 0,-4.41828 3.58172,-8 8,-8 h 8 v 4 h 20 v -4 h 18 60 8 c 4.41828,0 9.07159,3.71364 8,8 v 8 h -8 v -6 h -8 v 20 h 8 v -6 h 8 v 8 c 0,4.41827 -3.58172,8 -8,8 h -8 -60 -2 v 4 H 55 v -4 h -2 -8 c -5.52285,0 -10,4.47715 -10,9.99999 v 8 92.00001 7.99999 c 0,5.52285 4.64205,11.3395 10,10 h 8 v 4 h 20 v -4 h 16 v 12 12 8 c 0,4.41828 -3.71365,9.0716 -8,8 H 73 55 53 v 4 H 37 v -4 h -2 -8 c -4.41828,0 -8,-3.58172 -8,-8 v -8 z" />
  <text
     x="15.999992"
     y="683.12408"
     style="font-size:20px;font-family:Sans;text-anchor:start;fill:#000000"
     id="text3037-6-3">
    <tspan
       id="tspan3039-2-8"
       y="713.62408"
       x="23.999992">音価</tspan>
  </text>
  <path
     style="fill:#EE97A8;fill-opacity:1;stroke:#A75862;stroke-width:2;stroke-linecap:round;stroke-opacity:1"
     id="path21-6-1-1-6-3"
     d="m 265,728.1241 h 120 v 40 H 265 v -16 -2 h -12 v 6 h -4 v -16 h 4 v 6 h 12 v -2 z" />
  <text
     y="727.12408"
     x="300"
     style="font-size:20px;font-family:Sans;text-anchor:start;fill:#000000"
     id="text23-9-82-8-1">
    <tspan
       id="tspan25-8-5-7-8"
       y="753.12408"
       x="320">4</tspan>
  </text>
  <path
     style="fill:#EE97A8;fill-opacity:1;stroke:#A75862;stroke-width:2;stroke-linecap:round;stroke-opacity:1"
     id="path3798-4-4-5-2-64"
     d="m 151,702.1241 v -8 a 8,8 0 0 1 8,-8 h 8 20 60 8 a 8,8 0 0 1 8,8 v 8 h -8 v -6 h -8 v 20 h 8 v -6 h 8 v 34 h -8 v -6 h -8 v 20 h 8 v -6 h 8 v 8 a 8,8 0 0 1 -8,8 h -8 -60 -20 -8 a 8,8 0 0 1 -8,-8 v -8 -42 -2 h -12 v 6 h -4 v -16 h 4 v 6 h 12 z" />
  <text
     x="126"
     style="font-size:28px;font-family:sans-serif;text-anchor:end;fill:#000000"
     id="text3800-3-2-0-0-33"
     y="685.12408">
    <tspan
       id="tspan3802-6-2-5-2-3"
       y="734.12408"
       x="236">/</tspan>
  </text>
  <path
     style="fill:#EE97A8;fill-opacity:1;stroke:#A75862;stroke-width:2;stroke-linecap:round;stroke-opacity:1"
     id="path21-8-2-1-0-6-7-6"
     d="m 265,686.1241 h 120 v 40 H 265 v -16 -2 h -12 v 6 h -4 v -16 h 4 v 6 h 12 v -2 z" />
  <text
     style="font-size:20px;font-family:Sans;text-anchor:start;fill:#000000"
     id="text23-0-1-0-1-0-5-0"
     y="687.12408"
     x="297">
    <tspan
       id="tspan25-7-0-5-2-5-9-4"
       y="713.12415"
       x="317">1</tspan>
  </text>
  <path
     d="m 37,744.1241 v -8 c 0,-4.41828 3.58172,-8 8,-8 h 8 v 4 h 20 v -4 h 60 8 c 4.41828,0 8,3.58172 8,8 v 8 8 8 c 0,4.41828 -3.71364,6.92841 -8,8 h -8 -60 -2 v 4 H 55 v -4 h -2 -8 c -4.41828,0 -8,-3.58172 -8,-8 v -8 0 z"
     id="path3124-2-8"
     style="fill:#BE6152;fill-opacity:1;stroke:#923111;stroke-width:2;stroke-linecap:round;stroke-opacity:1" />
  <text
     xml:space="preserve"
     style="font-style:normal;font-weight:normal;font-size:16px;line-height:125%;font-family:sans-serif;text-align:center;letter-spacing:0px;word-spacing:0px;text-anchor:middle;fill:#000000;fill-opacity:1;stroke:none;stroke-width:1px;stroke-linecap:butt;stroke-linejoin:miter;stroke-opacity:1"
     x="118.82299"
     y="755.04718"
     id="text6137-2-8"><tspan
       id="tspan6139-8-8"
       x="118.82299"
       y="755.04718"
       style="font-size:22.5px">↓</tspan></text>
  <path
     style="fill:#76C61C;fill-opacity:1;stroke:#538D38;stroke-width:2;stroke-linecap:round;stroke-opacity:1"
     id="path3194-9-1-7"
     d="m 37.00004,576.12408 v -8 a 8,8 0 0 1 8,-8 h 8 v 4 h 20 v -4 h 60 8 a 8,8 0 0 1 8,8 v 8 h -8 v -6 h -8 v 20 h 8 v -6 h 8 v 34 h -8 v -5.99999 h -8 v 19.99999 h 8 v -6 h 8 v 8 a 8,8 0 0 1 -8,8 h -8 -60 -2 v 4 h -16 v -4 h -2 -8 a 8,8 0 0 1 -8,-8 v -8 -42 z" />
  <text
     y="559.12408"
     x="36.000046"
     style="font-size:20px;font-family:Sans;text-anchor:end;fill:#000000"
     id="text3196-73-7">
    <tspan
       id="tspan3198-6-6"
       y="608.12408"
       x="130.00003">ピッチ</tspan>
  </text>
  <text
     y="561.12408"
     x="36.000046"
     style="font-size:13.33333302px;font-family:Sans;text-anchor:end;fill:#000000"
     id="text3200-1-4">
    <tspan
       id="tspan3202-2-3"
       y="583.62408"
       x="130.00003">名前</tspan>
  </text>
  <text
     y="563.12408"
     x="36.000046"
     style="font-size:13.33333302px;font-family:Sans;text-anchor:end;fill:#000000"
     id="text3204-93-0">
    <tspan
       id="tspan3206-1-0-30"
       y="627.62408"
       x="130.00003">オクターヴ</tspan>
  </text>
  <path
     d="m 151.00004,560.12408 h 120 v 40.00001 h -120 v -16.00001 -2 h -12 v 6 h -4 v -16 h 4 v 6 h 12 v -2 z"
     id="path21-9-9"
     style="fill:#76C61C;fill-opacity:1;stroke:#538D38;stroke-width:2;stroke-linecap:round;stroke-opacity:1" />
  <text
     y="559.12408"
     id="text23-4-2"
     style="font-size:20px;font-family:Sans;text-anchor:start;fill:#000000"
     x="180.00003">
    <tspan
       x="200.00003"
       y="585.12408"
       id="tspan25-78-5">シ</tspan>
  </text>
  <path
     style="fill:#EE97A8;fill-opacity:1;stroke:#A75862;stroke-width:2;stroke-linecap:round;stroke-opacity:1"
     id="path21-6-4-4"
     d="m 151.00004,602.12408 h 120 v 40 h -120 v -16 -2 h -12 v 6 h -4 v -16 h 4 v 6 h 12 v -2 z" />
  <text
     y="601.12408"
     x="186.00003"
     style="font-size:20px;font-family:Sans;text-anchor:start;fill:#000000"
     id="text23-9-50-0">
    <tspan
       id="tspan25-8-3-59"
       y="627.12408"
       x="206.00003">4</tspan>
  </text>
  <path
     style="fill:#F2740B;fill-opacity:1;stroke:#A86129;stroke-width:2;stroke-linecap:round;stroke-opacity:1"
     id="path3035-6-4"
     d="m 19.00004,492.1241 v -8 c 0,-4.41828 3.58172,-8 8,-8 h 8 v 4 h 20 v -4 h 18 60 8 c 4.41828,0 9.07159,3.71364 8,8 v 8 h -8 v -6 h -8 v 20 h 8 v -6 h 8 v 8 c 0,4.41827 -3.58172,8 -8,8 h -8 -60 -2 v 4 h -16 v -4 h -2 -8 c -5.52285,0 -10,4.47715 -10,9.99999 v 8 92.00001 7.99999 c 0,5.52285 4.64205,11.3395 10,10 h 8 v 4 h 20 v -4 h 16 v 12 12 8 c 0,4.41828 -3.71364,9.0716 -8,8 h -8 -18 -2 v 4 h -16 v -4 h -2 -8 c -4.41828,0 -8,-3.58172 -8,-8 v -8 z" />
  <text
     x="16.000046"
     y="473.12411"
     style="font-size:20px;font-family:Sans;text-anchor:start;fill:#000000"
     id="text3037-1-6">
    <tspan
       id="tspan3039-0-9"
       y="503.62408"
       x="24.000046">音価</tspan>
  </text>
  <path
     style="fill:#EE97A8;fill-opacity:1;stroke:#A75862;stroke-width:2;stroke-linecap:round;stroke-opacity:1"
     id="path21-6-1-20-2"
     d="m 265.00004,518.1241 h 120 v 40 h -120 v -16 -2 h -12 v 6 h -4 v -16 h 4 v 6 h 12 v -2 z" />
  <text
     y="517.12408"
     x="300.00003"
     style="font-size:20px;font-family:Sans;text-anchor:start;fill:#000000"
     id="text23-9-82-6-4">
    <tspan
       id="tspan25-8-5-15-7"
       y="543.12408"
       x="320.00003">4</tspan>
  </text>
  <path
     style="fill:#EE97A8;fill-opacity:1;stroke:#A75862;stroke-width:2;stroke-linecap:round;stroke-opacity:1"
     id="path3798-4-4-5-4-5"
     d="m 151.00004,492.1241 v -8 a 8,8 0 0 1 8,-8 h 8 20 60 8 a 8,8 0 0 1 8,8 v 8 h -8 v -6 h -8 v 20 h 8 v -6 h 8 v 34 h -8 v -6 h -8 v 20 h 8 v -6 h 8 v 8 a 8,8 0 0 1 -8,8 h -8 -60 -20 -8 a 8,8 0 0 1 -8,-8 v -8 -42 -2 h -12 v 6 h -4 v -16 h 4 v 6 h 12 z" />
  <text
     x="126.00004"
     style="font-size:28px;font-family:sans-serif;text-anchor:end;fill:#000000"
     id="text3800-3-2-0-7-48"
     y="475.12408">
    <tspan
       id="tspan3802-6-2-5-6-1"
       y="524.12408"
       x="236.00005">/</tspan>
  </text>
  <path
     style="fill:#EE97A8;fill-opacity:1;stroke:#A75862;stroke-width:2;stroke-linecap:round;stroke-opacity:1"
     id="path21-8-2-1-0-6-6-8"
     d="m 265.00004,476.1241 h 120 v 40 h -120 v -16 -2 h -12 v 6 h -4 v -16 h 4 v 6 h 12 v -2 z" />
  <text
     style="font-size:20px;font-family:Sans;text-anchor:start;fill:#000000"
     id="text23-0-1-0-1-0-9-9"
     y="477.12411"
     x="297.00003">
    <tspan
       id="tspan25-7-0-5-2-5-3-36"
       y="503.12415"
       x="317.00003">1</tspan>
  </text>
  <path
     d="m 37.00004,534.1241 v -8 c 0,-4.41828 3.58172,-8 8,-8 h 8 v 4 h 20 v -4 h 60 8 c 4.41828,0 8,3.58172 8,8 v 8 8 8 c 0,4.41828 -3.71364,6.92841 -8,8 h -8 -60 -2 v 4 h -16 v -4 h -2 -8 c -4.41828,0 -8,-3.58172 -8,-8 v -8 0 z"
     id="path3124-7-8"
     style="fill:#BE6152;fill-opacity:1;stroke:#923111;stroke-width:2;stroke-linecap:round;stroke-opacity:1" />
  <text
     xml:space="preserve"
     style="font-style:normal;font-weight:normal;font-size:16px;line-height:125%;font-family:sans-serif;text-align:center;letter-spacing:0px;word-spacing:0px;text-anchor:middle;fill:#000000;fill-opacity:1;stroke:none;stroke-width:1px;stroke-linecap:butt;stroke-linejoin:miter;stroke-opacity:1"
     x="118.82303"
     y="545.04718"
     id="text6137-4-0"><tspan
       id="tspan6139-5-2"
       x="118.82303"
       y="545.04718"
       style="font-size:22.5px">↓</tspan></text>
  <path
     style="fill:#76C61C;fill-opacity:1;stroke:#538D38;stroke-width:2;stroke-linecap:round;stroke-opacity:1"
     id="path3194-36-0"
     d="m 37,366.12409 v -8 a 8,8 0 0 1 8,-8 h 8 v 4 h 20 v -4 h 60 8 a 8,8 0 0 1 8,8 v 8 h -8 v -6 h -8 v 20 h 8 v -6 h 8 v 34 h -8 v -5.99999 h -8 v 19.99999 h 8 v -6 h 8 v 8 a 8,8 0 0 1 -8,8 h -8 -60 -2 v 4 H 55 v -4 h -2 -8 a 8,8 0 0 1 -8,-8 v -8 -42 z" />
  <text
     y="349.12408"
     x="35.999992"
     style="font-size:20px;font-family:Sans;text-anchor:end;fill:#000000"
     id="text3196-75-51">
    <tspan
       id="tspan3198-3-10"
       y="398.12411"
       x="130">ピッチ</tspan>
  </text>
  <text
     y="351.12408"
     x="35.999992"
     style="font-size:13.33333302px;font-family:Sans;text-anchor:end;fill:#000000"
     id="text3200-5-8">
    <tspan
       id="tspan3202-6-5"
       y="373.62408"
       x="130">名前</tspan>
  </text>
  <text
     y="353.12408"
     x="35.999992"
     style="font-size:13.33333302px;font-family:Sans;text-anchor:end;fill:#000000"
     id="text3204-2-06">
    <tspan
       id="tspan3206-9-4"
       y="417.62411"
       x="130">オクターヴ</tspan>
  </text>
  <path
     d="M 151,350.12409 H 271 V 390.1241 H 151 v -16.00001 -2 h -12 v 6 h -4 v -16 h 4 v 6 h 12 v -2 z"
     id="path21-1-6"
     style="fill:#76C61C;fill-opacity:1;stroke:#538D38;stroke-width:2;stroke-linecap:round;stroke-opacity:1" />
  <text
     y="349.12408"
     id="text23-2-2-2"
     style="font-size:20px;font-family:Sans;text-anchor:start;fill:#000000"
     x="180">
    <tspan
       x="200"
       y="375.12408"
       id="tspan25-70-5">ラ</tspan>
  </text>
  <path
     style="fill:#EE97A8;fill-opacity:1;stroke:#A75862;stroke-width:2;stroke-linecap:round;stroke-opacity:1"
     id="path21-6-9-8"
     d="m 151,392.12409 h 120 v 40 H 151 v -16 -2 h -12 v 6 h -4 v -16 h 4 v 6 h 12 v -2 z" />
  <text
     y="391.12411"
     x="186"
     style="font-size:20px;font-family:Sans;text-anchor:start;fill:#000000"
     id="text23-9-3-2-6">
    <tspan
       id="tspan25-8-6-2"
       y="417.12411"
       x="206">4</tspan>
  </text>
  <path
     style="fill:#F2740B;fill-opacity:1;stroke:#A86129;stroke-width:2;stroke-linecap:round;stroke-opacity:1"
     id="path3035-0-8"
     d="m 19,282.12411 v -8 c 0,-4.41828 3.58172,-8 8,-8 h 8 v 4 h 20 v -4 h 18 60 8 c 4.41828,0 9.07159,3.71364 8,8 v 8 h -8 v -6 h -8 v 20 h 8 v -6 h 8 v 8 c 0,4.41828 -3.58172,8 -8,8 h -8 -60 -2 v 4 H 55 v -4 h -2 -8 c -5.52285,0 -10,4.47715 -10,9.99999 v 8 92.00001 7.99999 c 0,5.52285 4.64205,11.3395 10,10 h 8 v 4 h 20 v -4 h 16 v 12 12 8 c 0,4.41828 -3.71365,9.0716 -8,8 H 73 55 53 v 4 H 37 v -4 h -2 -8 c -4.41828,0 -8,-3.58172 -8,-8 v -8 z" />
  <text
     x="15.999992"
     y="263.12411"
     style="font-size:20px;font-family:Sans;text-anchor:start;fill:#000000"
     id="text3037-6-4">
    <tspan
       id="tspan3039-2-72"
       y="293.62411"
       x="23.999992">音価</tspan>
  </text>
  <path
     style="fill:#EE97A8;fill-opacity:1;stroke:#A75862;stroke-width:2;stroke-linecap:round;stroke-opacity:1"
     id="path21-6-1-1-6-0"
     d="m 265,308.12411 h 120 v 40 H 265 v -16 -2 h -12 v 6 h -4 v -16 h 4 v 6 h 12 v -2 z" />
  <text
     y="307.12411"
     x="300"
     style="font-size:20px;font-family:Sans;text-anchor:start;fill:#000000"
     id="text23-9-82-8-6">
    <tspan
       id="tspan25-8-5-7-2"
       y="333.12411"
       x="320">4</tspan>
  </text>
  <path
     style="fill:#EE97A8;fill-opacity:1;stroke:#A75862;stroke-width:2;stroke-linecap:round;stroke-opacity:1"
     id="path3798-4-4-5-2-0"
     d="m 151,282.12411 v -8 a 8,8 0 0 1 8,-8 h 8 20 60 8 a 8,8 0 0 1 8,8 v 8 h -8 v -6 h -8 v 20 h 8 v -6 h 8 v 34 h -8 v -6 h -8 v 20 h 8 v -6 h 8 v 8 a 8,8 0 0 1 -8,8 h -8 -60 -20 -8 a 8,8 0 0 1 -8,-8 v -8 -42 -2 h -12 v 6 h -4 v -16 h 4 v 6 h 12 z" />
  <text
     x="126"
     style="font-size:28px;font-family:sans-serif;text-anchor:end;fill:#000000"
     id="text3800-3-2-0-0-8"
     y="265.12408">
    <tspan
       id="tspan3802-6-2-5-2-1"
       y="314.12411"
       x="236">/</tspan>
  </text>
  <path
     style="fill:#EE97A8;fill-opacity:1;stroke:#A75862;stroke-width:2;stroke-linecap:round;stroke-opacity:1"
     id="path21-8-2-1-0-6-7-1"
     d="m 265,266.12411 h 120 v 40 H 265 v -16 -2 h -12 v 6 h -4 v -16 h 4 v 6 h 12 v -2 z" />
  <text
     style="font-size:20px;font-family:Sans;text-anchor:start;fill:#000000"
     id="text23-0-1-0-1-0-5-10"
     y="267.12411"
     x="297">
    <tspan
       id="tspan25-7-0-5-2-5-9-3"
       y="293.12415"
       x="317">1</tspan>
  </text>
  <path
     d="m 37,324.12411 v -8 c 0,-4.41828 3.58172,-8 8,-8 h 8 v 4 h 20 v -4 h 60 8 c 4.41828,0 8,3.58172 8,8 v 8 8 8 c 0,4.41828 -3.71364,6.92841 -8,8 h -8 -60 -2 v 4 H 55 v -4 h -2 -8 c -4.41828,0 -8,-3.58172 -8,-8 v -8 0 z"
     id="path3124-2-4"
     style="fill:#BE6152;fill-opacity:1;stroke:#923111;stroke-width:2;stroke-linecap:round;stroke-opacity:1" />
  <text
     xml:space="preserve"
     style="font-style:normal;font-weight:normal;font-size:16px;line-height:125%;font-family:sans-serif;text-align:center;letter-spacing:0px;word-spacing:0px;text-anchor:middle;fill:#000000;fill-opacity:1;stroke:none;stroke-width:1px;stroke-linecap:butt;stroke-linejoin:miter;stroke-opacity:1"
     x="118.82299"
     y="335.04721"
     id="text6137-2-0"><tspan
       id="tspan6139-8-3"
       x="118.82299"
       y="335.04721"
       style="font-size:22.5px">↓</tspan></text>
  <path
     style="fill:#76C61C;fill-opacity:1;stroke:#538D38;stroke-width:2;stroke-linecap:round;stroke-opacity:1"
     id="path3194-9-1-9"
     d="m 37.00004,156.12408 v -8 a 8,8 0 0 1 8,-8 h 8 v 4 h 20 v -4 h 60 8 a 8,8 0 0 1 8,8 v 8 h -8 v -6 h -8 v 20 h 8 v -6 h 8 v 34 h -8 v -5.99999 h -8 v 19.99999 h 8 v -6 h 8 v 8 a 8,8 0 0 1 -8,8 h -8 -60 -2 v 4 h -16 v -4 h -2 -8 a 8,8 0 0 1 -8,-8 v -8 -42 z" />
  <text
     y="139.12408"
     x="36.000046"
     style="font-size:20px;font-family:Sans;text-anchor:end;fill:#000000"
     id="text3196-73-6">
    <tspan
       id="tspan3198-6-9"
       y="188.1241"
       x="130.00003">ピッチ</tspan>
  </text>
  <text
     y="141.12408"
     x="36.000046"
     style="font-size:13.33333302px;font-family:Sans;text-anchor:end;fill:#000000"
     id="text3200-1-3">
    <tspan
       id="tspan3202-2-38"
       y="163.62407"
       x="130.00003">名前</tspan>
  </text>
  <text
     y="143.12408"
     x="36.000046"
     style="font-size:13.33333302px;font-family:Sans;text-anchor:end;fill:#000000"
     id="text3204-93-05">
    <tspan
       id="tspan3206-1-0-6"
       y="207.6241"
       x="130.00003">オクターヴ</tspan>
  </text>
  <path
     d="m 151.00004,140.12408 h 120 v 40.00001 h -120 v -16.00001 -2 h -12 v 6 h -4 v -16 h 4 v 6 h 12 v -2 z"
     id="path21-9-6"
     style="fill:#76C61C;fill-opacity:1;stroke:#538D38;stroke-width:2;stroke-linecap:round;stroke-opacity:1" />
  <text
     y="139.12408"
     id="text23-4-4"
     style="font-size:20px;font-family:Sans;text-anchor:start;fill:#000000"
     x="180.00003">
    <tspan
       x="200.00003"
       y="165.12407"
       id="tspan25-78-0">ソ</tspan>
  </text>
  <path
     style="fill:#EE97A8;fill-opacity:1;stroke:#A75862;stroke-width:2;stroke-linecap:round;stroke-opacity:1"
     id="path21-6-4-0"
     d="m 151.00004,182.12408 h 120 v 40 h -120 v -16 -2 h -12 v 6 h -4 v -16 h 4 v 6 h 12 v -2 z" />
  <text
     y="181.12408"
     x="186.00003"
     style="font-size:20px;font-family:Sans;text-anchor:start;fill:#000000"
     id="text23-9-50-4">
    <tspan
       id="tspan25-8-3-6"
       y="207.1241"
       x="206.00003">4</tspan>
  </text>
  <path
     style="fill:#F2740B;fill-opacity:1;stroke:#A86129;stroke-width:2;stroke-linecap:round;stroke-opacity:1"
     id="path3035-6-2"
     d="M 19.00004,72.124097 V 64.1241 c 0,-4.41828 3.58172,-8 8,-8 h 8 v 4 h 20 v -4 h 18 60 8 c 4.41828,0 9.07159,3.71364 8,8 v 7.999997 h -8 V 66.1241 h -8 v 19.999997 h 8 v -6 h 8 v 8 c 0,4.418278 -3.58172,8 -8,8 h -8 -60 -2 v 4.000003 h -16 v -4.000003 h -2 -8 c -5.52285,0 -10,4.477153 -10,9.999993 v 8 92.00001 7.99999 c 0,5.52285 4.64205,11.3395 10,10 h 8 v 4 h 20 v -4 h 16 v 12 12 8 c 0,4.41828 -3.71364,9.0716 -8,8 h -8 -18 -2 v 4 h -16 v -4 h -2 -8 c -4.41828,0 -8,-3.58172 -8,-8 v -8 z" />
  <text
     x="16.000046"
     y="53.1241"
     style="font-size:20px;font-family:Sans;text-anchor:start;fill:#000000"
     id="text3037-1-67">
    <tspan
       id="tspan3039-0-5"
       y="83.624092"
       x="24.000046">音価</tspan>
  </text>
  <path
     style="fill:#EE97A8;fill-opacity:1;stroke:#A75862;stroke-width:2;stroke-linecap:round;stroke-opacity:1"
     id="path21-6-1-20-9"
     d="m 265.00004,98.1241 h 120 v 40 h -120 v -16 -2 h -12 v 6 h -4 v -16 h 4 v 6 h 12 v -2 z" />
  <text
     y="97.1241"
     x="300.00003"
     style="font-size:20px;font-family:Sans;text-anchor:start;fill:#000000"
     id="text23-9-82-6-8">
    <tspan
       id="tspan25-8-5-15-72"
       y="123.1241"
       x="320.00003">4</tspan>
  </text>
  <path
     style="fill:#EE97A8;fill-opacity:1;stroke:#A75862;stroke-width:2;stroke-linecap:round;stroke-opacity:1"
     id="path3798-4-4-5-4-2"
     d="m 151.00004,72.1241 v -8 a 8,8 0 0 1 8,-8 h 8 20 60 8 a 8,8 0 0 1 8,8 v 8 h -8 v -6 h -8 v 20 h 8 v -6 h 8 v 34 h -8 v -6 h -8 v 20 h 8 v -6 h 8 v 8 a 8,8 0 0 1 -8,8 h -8 -60 -20 -8 a 8,8 0 0 1 -8,-8 v -8 -42 -2 h -12 v 6 h -4 v -16 h 4 v 6 h 12 z" />
  <text
     x="126.00004"
     style="font-size:28px;font-family:sans-serif;text-anchor:end;fill:#000000"
     id="text3800-3-2-0-7-9"
     y="55.124077">
    <tspan
       id="tspan3802-6-2-5-6-9"
       y="104.1241"
       x="236.00005">/</tspan>
  </text>
  <path
     style="fill:#EE97A8;fill-opacity:1;stroke:#A75862;stroke-width:2;stroke-linecap:round;stroke-opacity:1"
     id="path21-8-2-1-0-6-6-0"
     d="m 265.00004,56.1241 h 120 v 40 h -120 v -16 -2 h -12 v 6 h -4 v -16 h 4 v 6 h 12 v -2 z" />
  <text
     style="font-size:20px;font-family:Sans;text-anchor:start;fill:#000000"
     id="text23-0-1-0-1-0-9-2"
     y="57.1241"
     x="297.00003">
    <tspan
       id="tspan25-7-0-5-2-5-3-7"
       y="83.12413"
       x="317.00003">1</tspan>
  </text>
  <path
     d="m 37.00004,114.1241 v -8 c 0,-4.41828 3.58172,-8.000003 8,-8.000003 h 8 v 4.000003 h 20 v -4.000003 h 60 8 c 4.41828,0 8,3.581723 8,8.000003 v 8 8 8 c 0,4.41828 -3.71364,6.92841 -8,8 h -8 -60 -2 v 4 h -16 v -4 h -2 -8 c -4.41828,0 -8,-3.58172 -8,-8 v -8 0 z"
     id="path3124-7-6"
     style="fill:#BE6152;fill-opacity:1;stroke:#923111;stroke-width:2;stroke-linecap:round;stroke-opacity:1" />
  <text
     xml:space="preserve"
     style="font-style:normal;font-weight:normal;font-size:16px;line-height:125%;font-family:sans-serif;text-align:center;letter-spacing:0px;word-spacing:0px;text-anchor:middle;fill:#000000;fill-opacity:1;stroke:none;stroke-width:1px;stroke-linecap:butt;stroke-linejoin:miter;stroke-opacity:1"
     x="118.82303"
     y="125.0472"
     id="text6137-4-1"><tspan
       id="tspan6139-5-3"
       x="118.82303"
       y="125.0472"
       style="font-size:22.5px">↓</tspan></text>
</svg>
