<?xml version="1.0" encoding="UTF-8" standalone="no"?>
<svg
   xmlns:dc="http://purl.org/dc/elements/1.1/"
   xmlns:cc="http://creativecommons.org/ns#"
   xmlns:rdf="http://www.w3.org/1999/02/22-rdf-syntax-ns#"
   xmlns:svg="http://www.w3.org/2000/svg"
   xmlns="http://www.w3.org/2000/svg"
   xmlns:sodipodi="http://sodipodi.sourceforge.net/DTD/sodipodi-0.dtd"
   xmlns:inkscape="http://www.inkscape.org/namespaces/inkscape"
   width="931.30859"
   height="446"
   version="1.1"
   id="svg9330"
   sodipodi:docname="transform14.svg"
   inkscape:version="0.92.2 (5c3e80d, 2017-08-06)">
  <metadata
     id="metadata9336">
    <rdf:RDF>
      <cc:Work
         rdf:about="">
        <dc:format>image/svg+xml</dc:format>
        <dc:type
           rdf:resource="http://purl.org/dc/dcmitype/StillImage" />
        <dc:title></dc:title>
      </cc:Work>
    </rdf:RDF>
  </metadata>
  <defs
     id="defs9334" />
  <sodipodi:namedview
     pagecolor="#ffffff"
     bordercolor="#666666"
     borderopacity="1"
     objecttolerance="10"
     gridtolerance="10"
     guidetolerance="10"
     inkscape:pageopacity="0"
     inkscape:pageshadow="2"
     inkscape:window-width="1366"
     inkscape:window-height="705"
     id="namedview9332"
     showgrid="false"
     inkscape:zoom="0.83162518"
     inkscape:cx="551.83928"
     inkscape:cy="257.56604"
     inkscape:window-x="-8"
     inkscape:window-y="274"
     inkscape:window-maximized="1"
     inkscape:current-layer="svg9330"
     inkscape:measure-start="0,0"
     inkscape:measure-end="0,0" />
  <g
     transform="translate(13.5,65)"
     id="g8752">
    <g
       transform="scale(1.5)"
       id="g8750">
      <path
         d="m 0.5,8.5 v -4 a 4,4 90 0 1 4,-4 h 4 v 2 h 10 v -2 h 9 36.147461 4 a 4,4 90 0 1 4,4 v 4 h -4 v -3 h -4 v 10 h 4 v -3 h 4 v 4 a 4,4 90 0 1 -4,4 h -4 H 27.5 h -1 v 2 h -8 v -2 h -1 -4 a 5,5 90 0 0 -5,5 v 4 4 42 4 a 5,5 90 0 0 5,5 h 4 v 2 h 10 v -2 h 8 v 6 6 4 a 4,4 90 0 1 -4,4 h -4 -9 -1 v 2 h -8 v -2 h -1 -4 a 4,4 90 0 1 -4,-4 v -4 z"
         style="fill:#ff8b2d;fill-opacity:1;stroke:#520000;stroke-width:1;stroke-linecap:round;stroke-opacity:1"
         id="path8740"
         inkscape:connector-curvature="0" />
      <text
         style="font-size:10px;font-family:sans-serif;text-anchor:start;fill:#000000"
         id="text8744">
        <tspan
           x="5.3333335"
           y="15.25"
           id="tspan8742">音価</tspan>
      </text>
      <text
         style="font-size:6.66666651px;font-family:sans-serif;text-anchor:end;fill:#000000"
         id="text8748">
        <tspan
           x="61.480793"
           y="11.25"
           id="tspan8746" />
      </text>
    </g>
  </g>
  <g
     transform="translate(109.72119,65)"
     id="g8770">
    <g
       transform="scale(1.5)"
       id="g8768">
      <path
         d="m 8.5,8.5 v -4 a 4,4 90 0 1 4,-4 h 4 10 30 4 a 4,4 90 0 1 4,4 v 4 h -4 v -3 h -4 v 10 h 4 v -3 h 4 v 17 h -4 v -3 h -4 v 10 h 4 v -3 h 4 v 4 a 4,4 90 0 1 -4,4 h -4 -30 -10 -4 a 4,4 90 0 1 -4,-4 v -4 -21 -1 h -6 v 3 h -2 v -8 h 2 v 3 h 6 z"
         style="fill:#ffb2bc;fill-opacity:1;stroke:#601136;stroke-width:1;stroke-linecap:round;stroke-opacity:1"
         id="path8754"
         inkscape:connector-curvature="0" />
      <text
         style="font-size:14px;font-family:sans-serif;text-anchor:end;fill:#000000"
         id="text8758">
        <tspan
           x="54.333332"
           y="23.799999"
           id="tspan8756">/</tspan>
      </text>
      <text
         style="font-size:9.33333302px;font-family:sans-serif;text-anchor:end;fill:#000000"
         id="text8762">
        <tspan
           x="54.333332"
           y="10.75"
           id="tspan8760" />
      </text>
      <text
         style="font-size:9.33333302px;font-family:sans-serif;text-anchor:end;fill:#000000"
         id="text8766">
        <tspan
           x="54.333332"
           y="31.75"
           id="tspan8764" />
      </text>
    </g>
  </g>
  <g
     transform="translate(195.22119,65)"
     id="g8780">
    <g
       transform="scale(1.5)"
       id="g8778">
      <path
         d="m 8.5,0.5 h 60 v 20 h -60 v -8 -1 h -6 v 3 h -2 v -8 h 2 v 3 h 6 v -1 z"
         style="fill:#ffb2bc;fill-opacity:1;stroke:#601136;stroke-width:1;stroke-linecap:round;stroke-opacity:1"
         id="path8772"
         inkscape:connector-curvature="0" />
      <text
         style="font-size:10px;font-family:sans-serif;text-anchor:start;fill:#000000"
         id="text8776">
        <tspan
           x="13.333333"
           y="13.833333"
           id="tspan8774">1</tspan>
      </text>
    </g>
  </g>
  <g
     transform="translate(195.22119,96.5)"
     id="g8790">
    <g
       transform="scale(1.5)"
       id="g8788">
      <path
         d="m 8.5,0.5 h 60 v 20 h -60 v -8 -1 h -6 v 3 h -2 v -8 h 2 v 3 h 6 v -1 z"
         style="fill:#ffb2bc;fill-opacity:1;stroke:#601136;stroke-width:1;stroke-linecap:round;stroke-opacity:1"
         id="path8782"
         inkscape:connector-curvature="0" />
      <text
         style="font-size:10px;font-family:sans-serif;text-anchor:start;fill:#000000"
         id="text8786">
        <tspan
           x="13.333333"
           y="13.833333"
           id="tspan8784">8</tspan>
      </text>
    </g>
  </g>
  <g
     transform="translate(27,96.5)"
     id="g8800">
    <g
       transform="scale(1.5)"
       id="g8798">
      <path
         d="m 0.5,8.5 v -4 a 4,4 90 0 1 4,-4 h 4 v 2 h 10 v -2 h 20 4 a 4,4 90 0 1 4,4 v 4 4 4 a 4,4 90 0 1 -4,4 h -4 -20 -1 v 2 h -8 v -2 h -1 -4 a 4,4 90 0 1 -4,-4 v -4 z"
         style="fill:#d57e6f;fill-opacity:1;stroke:#000000;stroke-width:1;stroke-linecap:round;stroke-opacity:1"
         id="path8792"
         inkscape:connector-curvature="0" />
      <text
         style="font-size:10px;font-family:sans-serif;text-anchor:end;fill:#000000"
         id="text8796">
        <tspan
           x="36.333332"
           y="13.5"
           id="tspan8794">↓</tspan>
      </text>
    </g>
  </g>
  <g
     transform="translate(27,128)"
     id="g8818">
    <g
       transform="scale(1.5)"
       id="g8816">
      <path
         d="m 0.5,8.5 v -4 a 4,4 90 0 1 4,-4 h 4 v 2 h 10 v -2 h 30 4 a 4,4 90 0 1 4,4 v 4 h -4 v -3 h -4 v 10 h 4 v -3 h 4 v 17 h -4 v -3 h -4 v 10 h 4 v -3 h 4 v 4 a 4,4 90 0 1 -4,4 h -4 -30 -1 v 2 h -8 v -2 h -1 -4 a 4,4 90 0 1 -4,-4 v -4 -21 z"
         style="fill:#93e042;fill-opacity:1;stroke:#004000;stroke-width:1;stroke-linecap:round;stroke-opacity:1"
         id="path8802"
         inkscape:connector-curvature="0" />
      <text
         style="font-size:10px;font-family:sans-serif;text-anchor:end;fill:#000000"
         id="text8806">
        <tspan
           x="46.333332"
           y="24"
           id="tspan8804">ピッチ</tspan>
      </text>
      <text
         style="font-size:6.66666651px;font-family:sans-serif;text-anchor:end;fill:#000000"
         id="text8810">
        <tspan
           x="46.333332"
           y="11.25"
           id="tspan8808">名前</tspan>
      </text>
      <text
         style="font-size:6.66666651px;font-family:sans-serif;text-anchor:end;fill:#000000"
         id="text8814">
        <tspan
           x="46.333332"
           y="32.25"
           id="tspan8812">オクターヴ</tspan>
      </text>
    </g>
  </g>
  <g
     transform="translate(100.5,128)"
     id="g8828">
    <g
       transform="scale(1.5)"
       id="g8826">
      <path
         d="m 8.5,0.5 h 60 v 20 h -60 v -8 -1 h -6 v 3 h -2 v -8 h 2 v 3 h 6 v -1 z"
         style="fill:#93e042;fill-opacity:1;stroke:#004000;stroke-width:1;stroke-linecap:round;stroke-opacity:1"
         id="path8820"
         inkscape:connector-curvature="0" />
      <text
         style="font-size:10px;font-family:sans-serif;text-anchor:start;fill:#000000"
         id="text8824">
        <tspan
           x="13.333333"
           y="13.833333"
           id="tspan8822">レ</tspan>
      </text>
    </g>
  </g>
  <g
     transform="translate(100.5,159.5)"
     id="g8838">
    <g
       transform="scale(1.5)"
       id="g8836">
      <path
         d="m 8.5,0.5 h 60 v 20 h -60 v -8 -1 h -6 v 3 h -2 v -8 h 2 v 3 h 6 v -1 z"
         style="fill:#ffb2bc;fill-opacity:1;stroke:#601136;stroke-width:1;stroke-linecap:round;stroke-opacity:1"
         id="path8830"
         inkscape:connector-curvature="0" />
      <text
         style="font-size:10px;font-family:sans-serif;text-anchor:start;fill:#000000"
         id="text8834">
        <tspan
           x="13.333333"
           y="13.833333"
           id="tspan8832">5</tspan>
      </text>
    </g>
  </g>
  <g
     transform="translate(13.5,222.5)"
     id="g8852">
    <g
       transform="scale(1.5)"
       id="g8850">
      <path
         d="m 0.5,8.5 v -4 a 4,4 90 0 1 4,-4 h 4 v 2 h 10 v -2 h 9 36.147461 4 a 4,4 90 0 1 4,4 v 4 h -4 v -3 h -4 v 10 h 4 v -3 h 4 v 4 a 4,4 90 0 1 -4,4 h -4 H 27.5 h -1 v 2 h -8 v -2 h -1 -4 a 5,5 90 0 0 -5,5 v 4 4 42 4 a 5,5 90 0 0 5,5 h 4 v 2 h 10 v -2 h 8 v 6 6 4 a 4,4 90 0 1 -4,4 h -4 -9 -1 v 2 h -8 v -2 h -1 -4 a 4,4 90 0 1 -4,-4 v -4 z"
         style="fill:#ff8b2d;fill-opacity:1;stroke:#520000;stroke-width:1;stroke-linecap:round;stroke-opacity:1"
         id="path8840"
         inkscape:connector-curvature="0" />
      <text
         style="font-size:10px;font-family:sans-serif;text-anchor:start;fill:#000000"
         id="text8844">
        <tspan
           x="5.3333335"
           y="15.25"
           id="tspan8842">音価</tspan>
      </text>
      <text
         style="font-size:6.66666651px;font-family:sans-serif;text-anchor:end;fill:#000000"
         id="text8848">
        <tspan
           x="61.480793"
           y="11.25"
           id="tspan8846" />
      </text>
    </g>
  </g>
  <g
     transform="translate(109.72119,222.5)"
     id="g8870">
    <g
       transform="scale(1.5)"
       id="g8868">
      <path
         d="m 8.5,8.5 v -4 a 4,4 90 0 1 4,-4 h 4 10 30 4 a 4,4 90 0 1 4,4 v 4 h -4 v -3 h -4 v 10 h 4 v -3 h 4 v 17 h -4 v -3 h -4 v 10 h 4 v -3 h 4 v 4 a 4,4 90 0 1 -4,4 h -4 -30 -10 -4 a 4,4 90 0 1 -4,-4 v -4 -21 -1 h -6 v 3 h -2 v -8 h 2 v 3 h 6 z"
         style="fill:#ffb2bc;fill-opacity:1;stroke:#601136;stroke-width:1;stroke-linecap:round;stroke-opacity:1"
         id="path8854"
         inkscape:connector-curvature="0" />
      <text
         style="font-size:14px;font-family:sans-serif;text-anchor:end;fill:#000000"
         id="text8858">
        <tspan
           x="54.333332"
           y="23.799999"
           id="tspan8856">/</tspan>
      </text>
      <text
         style="font-size:9.33333302px;font-family:sans-serif;text-anchor:end;fill:#000000"
         id="text8862">
        <tspan
           x="54.333332"
           y="10.75"
           id="tspan8860" />
      </text>
      <text
         style="font-size:9.33333302px;font-family:sans-serif;text-anchor:end;fill:#000000"
         id="text8866">
        <tspan
           x="54.333332"
           y="31.75"
           id="tspan8864" />
      </text>
    </g>
  </g>
  <g
     transform="translate(195.22119,222.5)"
     id="g8880">
    <g
       transform="scale(1.5)"
       id="g8878">
      <path
         d="m 8.5,0.5 h 60 v 20 h -60 v -8 -1 h -6 v 3 h -2 v -8 h 2 v 3 h 6 v -1 z"
         style="fill:#ffb2bc;fill-opacity:1;stroke:#601136;stroke-width:1;stroke-linecap:round;stroke-opacity:1"
         id="path8872"
         inkscape:connector-curvature="0" />
      <text
         style="font-size:10px;font-family:sans-serif;text-anchor:start;fill:#000000"
         id="text8876">
        <tspan
           x="13.333333"
           y="13.833333"
           id="tspan8874">1</tspan>
      </text>
    </g>
  </g>
  <g
     transform="translate(195.22119,254)"
     id="g8890">
    <g
       transform="scale(1.5)"
       id="g8888">
      <path
         d="m 8.5,0.5 h 60 v 20 h -60 v -8 -1 h -6 v 3 h -2 v -8 h 2 v 3 h 6 v -1 z"
         style="fill:#ffb2bc;fill-opacity:1;stroke:#601136;stroke-width:1;stroke-linecap:round;stroke-opacity:1"
         id="path8882"
         inkscape:connector-curvature="0" />
      <text
         style="font-size:10px;font-family:sans-serif;text-anchor:start;fill:#000000"
         id="text8886">
        <tspan
           x="13.333333"
           y="13.833333"
           id="tspan8884">8</tspan>
      </text>
    </g>
  </g>
  <g
     transform="translate(27,254)"
     id="g8900">
    <g
       transform="scale(1.5)"
       id="g8898">
      <path
         d="m 0.5,8.5 v -4 a 4,4 90 0 1 4,-4 h 4 v 2 h 10 v -2 h 20 4 a 4,4 90 0 1 4,4 v 4 4 4 a 4,4 90 0 1 -4,4 h -4 -20 -1 v 2 h -8 v -2 h -1 -4 a 4,4 90 0 1 -4,-4 v -4 z"
         style="fill:#d57e6f;fill-opacity:1;stroke:#000000;stroke-width:1;stroke-linecap:round;stroke-opacity:1"
         id="path8892"
         inkscape:connector-curvature="0" />
      <text
         style="font-size:10px;font-family:sans-serif;text-anchor:end;fill:#000000"
         id="text8896">
        <tspan
           x="36.333332"
           y="13.5"
           id="tspan8894">↓</tspan>
      </text>
    </g>
  </g>
  <g
     transform="translate(27,285.5)"
     id="g8918">
    <g
       transform="scale(1.5)"
       id="g8916">
      <path
         d="m 0.5,8.5 v -4 a 4,4 90 0 1 4,-4 h 4 v 2 h 10 v -2 h 30 4 a 4,4 90 0 1 4,4 v 4 h -4 v -3 h -4 v 10 h 4 v -3 h 4 v 17 h -4 v -3 h -4 v 10 h 4 v -3 h 4 v 4 a 4,4 90 0 1 -4,4 h -4 -30 -1 v 2 h -8 v -2 h -1 -4 a 4,4 90 0 1 -4,-4 v -4 -21 z"
         style="fill:#93e042;fill-opacity:1;stroke:#004000;stroke-width:1;stroke-linecap:round;stroke-opacity:1"
         id="path8902"
         inkscape:connector-curvature="0" />
      <text
         style="font-size:10px;font-family:sans-serif;text-anchor:end;fill:#000000"
         id="text8906">
        <tspan
           x="46.333332"
           y="24"
           id="tspan8904">ピッチ</tspan>
      </text>
      <text
         style="font-size:6.66666651px;font-family:sans-serif;text-anchor:end;fill:#000000"
         id="text8910">
        <tspan
           x="46.333332"
           y="11.25"
           id="tspan8908">名前</tspan>
      </text>
      <text
         style="font-size:6.66666651px;font-family:sans-serif;text-anchor:end;fill:#000000"
         id="text8914">
        <tspan
           x="46.333332"
           y="32.25"
           id="tspan8912">オクターヴ</tspan>
      </text>
    </g>
  </g>
  <g
     transform="translate(100.5,285.5)"
     id="g8928">
    <g
       transform="scale(1.5)"
       id="g8926">
      <path
         d="m 8.5,0.5 h 60 v 20 h -60 v -8 -1 h -6 v 3 h -2 v -8 h 2 v 3 h 6 v -1 z"
         style="fill:#93e042;fill-opacity:1;stroke:#004000;stroke-width:1;stroke-linecap:round;stroke-opacity:1"
         id="path8920"
         inkscape:connector-curvature="0" />
      <text
         style="font-size:10px;font-family:sans-serif;text-anchor:start;fill:#000000"
         id="text8924">
        <tspan
           x="13.333333"
           y="13.833333"
           id="tspan8922">ミ</tspan>
      </text>
    </g>
  </g>
  <g
     transform="translate(100.5,317)"
     id="g8938">
    <g
       transform="scale(1.5)"
       id="g8936">
      <path
         d="m 8.5,0.5 h 60 v 20 h -60 v -8 -1 h -6 v 3 h -2 v -8 h 2 v 3 h 6 v -1 z"
         style="fill:#ffb2bc;fill-opacity:1;stroke:#601136;stroke-width:1;stroke-linecap:round;stroke-opacity:1"
         id="path8930"
         inkscape:connector-curvature="0" />
      <text
         style="font-size:10px;font-family:sans-serif;text-anchor:start;fill:#000000"
         id="text8934">
        <tspan
           x="13.333333"
           y="13.833333"
           id="tspan8932">5</tspan>
      </text>
    </g>
  </g>
  <g
     transform="translate(489.5,63)"
     id="g8952">
    <g
       transform="scale(1.5)"
       id="g8950">
      <path
         d="m 0.5,8.5 v -4 a 4,4 90 0 1 4,-4 h 4 v 2 h 10 v -2 h 9 36.147461 4 a 4,4 90 0 1 4,4 v 4 h -4 v -3 h -4 v 10 h 4 v -3 h 4 v 4 a 4,4 90 0 1 -4,4 h -4 H 27.5 h -1 v 2 h -8 v -2 h -1 -4 a 5,5 90 0 0 -5,5 v 4 4 42 4 a 5,5 90 0 0 5,5 h 4 v 2 h 10 v -2 h 8 v 6 6 4 a 4,4 90 0 1 -4,4 h -4 -9 -1 v 2 h -8 v -2 h -1 -4 a 4,4 90 0 1 -4,-4 v -4 z"
         style="fill:#ff8b2d;fill-opacity:1;stroke:#520000;stroke-width:1;stroke-linecap:round;stroke-opacity:1"
         id="path8940"
         inkscape:connector-curvature="0" />
      <text
         style="font-size:10px;font-family:sans-serif;text-anchor:start;fill:#000000"
         id="text8944">
        <tspan
           x="5.3333335"
           y="15.25"
           id="tspan8942">音価</tspan>
      </text>
      <text
         style="font-size:6.66666651px;font-family:sans-serif;text-anchor:end;fill:#000000"
         id="text8948">
        <tspan
           x="61.480793"
           y="11.25"
           id="tspan8946" />
      </text>
    </g>
  </g>
  <g
     transform="translate(585.72119,63)"
     id="g8970">
    <g
       transform="scale(1.5)"
       id="g8968">
      <path
         d="m 8.5,8.5 v -4 a 4,4 90 0 1 4,-4 h 4 10 30 4 a 4,4 90 0 1 4,4 v 4 h -4 v -3 h -4 v 10 h 4 v -3 h 4 v 17 h -4 v -3 h -4 v 10 h 4 v -3 h 4 v 4 a 4,4 90 0 1 -4,4 h -4 -30 -10 -4 a 4,4 90 0 1 -4,-4 v -4 -21 -1 h -6 v 3 h -2 v -8 h 2 v 3 h 6 z"
         style="fill:#ffb2bc;fill-opacity:1;stroke:#601136;stroke-width:1;stroke-linecap:round;stroke-opacity:1"
         id="path8954"
         inkscape:connector-curvature="0" />
      <text
         style="font-size:14px;font-family:sans-serif;text-anchor:end;fill:#000000"
         id="text8958">
        <tspan
           x="54.333332"
           y="23.799999"
           id="tspan8956">/</tspan>
      </text>
      <text
         style="font-size:9.33333302px;font-family:sans-serif;text-anchor:end;fill:#000000"
         id="text8962">
        <tspan
           x="54.333332"
           y="10.75"
           id="tspan8960" />
      </text>
      <text
         style="font-size:9.33333302px;font-family:sans-serif;text-anchor:end;fill:#000000"
         id="text8966">
        <tspan
           x="54.333332"
           y="31.75"
           id="tspan8964" />
      </text>
    </g>
  </g>
  <g
     transform="translate(671.22119,63)"
     id="g8980">
    <g
       transform="scale(1.5)"
       id="g8978">
      <path
         d="m 8.5,0.5 h 60 v 20 h -60 v -8 -1 h -6 v 3 h -2 v -8 h 2 v 3 h 6 v -1 z"
         style="fill:#ffb2bc;fill-opacity:1;stroke:#601136;stroke-width:1;stroke-linecap:round;stroke-opacity:1"
         id="path8972"
         inkscape:connector-curvature="0" />
      <text
         style="font-size:10px;font-family:sans-serif;text-anchor:start;fill:#000000"
         id="text8976">
        <tspan
           x="13.333333"
           y="13.833333"
           id="tspan8974">1</tspan>
      </text>
    </g>
  </g>
  <g
     transform="translate(671.22119,94.5)"
     id="g8990">
    <g
       transform="scale(1.5)"
       id="g8988">
      <path
         d="m 8.5,0.5 h 60 v 20 h -60 v -8 -1 h -6 v 3 h -2 v -8 h 2 v 3 h 6 v -1 z"
         style="fill:#ffb2bc;fill-opacity:1;stroke:#601136;stroke-width:1;stroke-linecap:round;stroke-opacity:1"
         id="path8982"
         inkscape:connector-curvature="0" />
      <text
         style="font-size:10px;font-family:sans-serif;text-anchor:start;fill:#000000"
         id="text8986">
        <tspan
           x="13.333333"
           y="13.833333"
           id="tspan8984">8</tspan>
      </text>
    </g>
  </g>
  <g
     transform="translate(503,94.5)"
     id="g9000">
    <g
       transform="scale(1.5)"
       id="g8998">
      <path
         d="m 0.5,8.5 v -4 a 4,4 90 0 1 4,-4 h 4 v 2 h 10 v -2 h 20 4 a 4,4 90 0 1 4,4 v 4 4 4 a 4,4 90 0 1 -4,4 h -4 -20 -1 v 2 h -8 v -2 h -1 -4 a 4,4 90 0 1 -4,-4 v -4 z"
         style="fill:#d57e6f;fill-opacity:1;stroke:#000000;stroke-width:1;stroke-linecap:round;stroke-opacity:1"
         id="path8992"
         inkscape:connector-curvature="0" />
      <text
         style="font-size:10px;font-family:sans-serif;text-anchor:end;fill:#000000"
         id="text8996">
        <tspan
           x="36.333332"
           y="13.5"
           id="tspan8994">↓</tspan>
      </text>
    </g>
  </g>
  <g
     transform="translate(503,126)"
     id="g9018">
    <g
       transform="scale(1.5)"
       id="g9016">
      <path
         d="m 0.5,8.5 v -4 a 4,4 90 0 1 4,-4 h 4 v 2 h 10 v -2 h 30 4 a 4,4 90 0 1 4,4 v 4 h -4 v -3 h -4 v 10 h 4 v -3 h 4 v 17 h -4 v -3 h -4 v 10 h 4 v -3 h 4 v 4 a 4,4 90 0 1 -4,4 h -4 -30 -1 v 2 h -8 v -2 h -1 -4 a 4,4 90 0 1 -4,-4 v -4 -21 z"
         style="fill:#93e042;fill-opacity:1;stroke:#004000;stroke-width:1;stroke-linecap:round;stroke-opacity:1"
         id="path9002"
         inkscape:connector-curvature="0" />
      <text
         style="font-size:10px;font-family:sans-serif;text-anchor:end;fill:#000000"
         id="text9006">
        <tspan
           x="46.333332"
           y="24"
           id="tspan9004">ピッチ</tspan>
      </text>
      <text
         style="font-size:6.66666651px;font-family:sans-serif;text-anchor:end;fill:#000000"
         id="text9010">
        <tspan
           x="46.333332"
           y="11.25"
           id="tspan9008">名前</tspan>
      </text>
      <text
         style="font-size:6.66666651px;font-family:sans-serif;text-anchor:end;fill:#000000"
         id="text9014">
        <tspan
           x="46.333332"
           y="32.25"
           id="tspan9012">オクターヴ</tspan>
      </text>
    </g>
  </g>
  <g
     transform="translate(576.5,126)"
     id="g9028">
    <g
       transform="scale(1.5)"
       id="g9026">
      <path
         d="m 8.5,0.5 h 60 v 20 h -60 v -8 -1 h -6 v 3 h -2 v -8 h 2 v 3 h 6 v -1 z"
         style="fill:#93e042;fill-opacity:1;stroke:#004000;stroke-width:1;stroke-linecap:round;stroke-opacity:1"
         id="path9020"
         inkscape:connector-curvature="0" />
      <text
         style="font-size:10px;font-family:sans-serif;text-anchor:start;fill:#000000"
         id="text9024">
        <tspan
           x="13.333333"
           y="13.833333"
           id="tspan9022">レ</tspan>
      </text>
    </g>
  </g>
  <g
     transform="translate(576.5,157.5)"
     id="g9038">
    <g
       transform="scale(1.5)"
       id="g9036">
      <path
         d="m 8.5,0.5 h 60 v 20 h -60 v -8 -1 h -6 v 3 h -2 v -8 h 2 v 3 h 6 v -1 z"
         style="fill:#ffb2bc;fill-opacity:1;stroke:#601136;stroke-width:1;stroke-linecap:round;stroke-opacity:1"
         id="path9030"
         inkscape:connector-curvature="0" />
      <text
         style="font-size:10px;font-family:sans-serif;text-anchor:start;fill:#000000"
         id="text9034">
        <tspan
           x="13.333333"
           y="13.833333"
           id="tspan9032">5</tspan>
      </text>
    </g>
  </g>
  <g
     transform="translate(0,2)"
     id="g9052">
    <g
       transform="scale(1.5)"
       id="g9050">
      <path
         d="m 0.5,8.5 v -4 a 4,4 90 0 1 4,-4 h 4 v 2 h 10 v -2 h 9 92.53906 4 a 4,4 90 0 1 4,4 v 4 h -4 v -3 h -4 v 10 h 4 v -3 h 4 v 4 a 4,4 90 0 1 -4,4 h -4 H 27.5 h -1 v 2 h -8 v -2 h -1 -4 a 5,5 90 0 0 -5,5 v 4 4 231 4 a 5,5 90 0 0 5,5 h 4 v 2 h 10 v -2 h 8 v 6 6 4 a 4,4 90 0 1 -4,4 h -4 -9 -1 v 2 h -8 v -2 h -1 -4 a 4,4 90 0 1 -4,-4 v -4 z"
         style="fill:#3ea4a3;fill-opacity:1;stroke:#000000;stroke-width:1;stroke-linecap:round;stroke-opacity:1"
         id="path9040"
         inkscape:connector-curvature="0" />
      <text
         style="font-size:10px;font-family:sans-serif;text-anchor:start;fill:#000000"
         id="text9044">
        <tspan
           x="5.3333335"
           y="15.25"
           id="tspan9042">semi-tone interval (+/–)</tspan>
      </text>
      <text
         style="font-size:6.66666651px;font-family:sans-serif;text-anchor:end;fill:#000000"
         id="text9048">
        <tspan
           x="117.8724"
           y="11.25"
           id="tspan9046" />
      </text>
    </g>
  </g>
  <g
     transform="translate(180.80859,2)"
     id="g9070">
    <g
       transform="scale(1.5)"
       id="g9068">
      <path
         d="m 8.5,8.5 v -4 a 4,4 90 0 1 4,-4 h 4 10 30 4 a 4,4 90 0 1 4,4 v 4 h -4 v -3 h -4 v 10 h 4 v -3 h 4 v 17 h -4 v -3 h -4 v 10 h 4 v -3 h 4 v 4 a 4,4 90 0 1 -4,4 h -4 -30 -10 -4 a 4,4 90 0 1 -4,-4 v -4 -21 -1 h -6 v 3 h -2 v -8 h 2 v 3 h 6 z"
         style="fill:#ffb2bc;fill-opacity:1;stroke:#601136;stroke-width:1;stroke-linecap:round;stroke-opacity:1"
         id="path9054"
         inkscape:connector-curvature="0" />
      <text
         style="font-size:14px;font-family:sans-serif;text-anchor:end;fill:#000000"
         id="text9058">
        <tspan
           x="54.333332"
           y="23.799999"
           id="tspan9056">+</tspan>
      </text>
      <text
         style="font-size:9.33333302px;font-family:sans-serif;text-anchor:end;fill:#000000"
         id="text9062">
        <tspan
           x="54.333332"
           y="10.75"
           id="tspan9060" />
      </text>
      <text
         style="font-size:9.33333302px;font-family:sans-serif;text-anchor:end;fill:#000000"
         id="text9066">
        <tspan
           x="54.333332"
           y="31.75"
           id="tspan9064" />
      </text>
    </g>
  </g>
  <g
     transform="translate(266.30859,2)"
     id="g9080">
    <g
       transform="scale(1.5)"
       id="g9078">
      <path
         d="m 8.5,0.5 h 110 v 20 H 8.5 v -8 -1 h -6 v 3 h -2 v -8 h 2 v 3 h 6 v -1 z"
         style="fill:#3ea4a3;fill-opacity:1;stroke:#000000;stroke-width:1;stroke-linecap:round;stroke-opacity:1"
         id="path9072"
         inkscape:connector-curvature="0" />
      <text
         style="font-size:10px;font-family:sans-serif;text-anchor:start;fill:#000000"
         id="text9076">
        <tspan
           x="13.333333"
           y="13.833333"
           id="tspan9074" />
      </text>
    </g>
  </g>
  <g
     transform="translate(266.30859,33.5)"
     id="g9098">
    <g
       transform="scale(1.5)"
       id="g9096">
      <path
         d="m 8.5,8.5 v -4 a 4,4 90 0 1 4,-4 h 4 10 30 4 a 4,4 90 0 1 4,4 v 4 h -4 v -3 h -4 v 10 h 4 v -3 h 4 v 17 h -4 v -3 h -4 v 10 h 4 v -3 h 4 v 4 a 4,4 90 0 1 -4,4 h -4 -30 -10 -4 a 4,4 90 0 1 -4,-4 v -4 -21 -1 h -6 v 3 h -2 v -8 h 2 v 3 h 6 z"
         style="fill:#ffb2bc;fill-opacity:1;stroke:#601136;stroke-width:1;stroke-linecap:round;stroke-opacity:1"
         id="path9082"
         inkscape:connector-curvature="0" />
      <text
         style="font-size:14px;font-family:sans-serif;text-anchor:end;fill:#000000"
         id="text9086">
        <tspan
           x="54.333332"
           y="23.799999"
           id="tspan9084">×</tspan>
      </text>
      <text
         style="font-size:9.33333302px;font-family:sans-serif;text-anchor:end;fill:#000000"
         id="text9090">
        <tspan
           x="54.333332"
           y="10.75"
           id="tspan9088" />
      </text>
      <text
         style="font-size:9.33333302px;font-family:sans-serif;text-anchor:end;fill:#000000"
         id="text9094">
        <tspan
           x="54.333332"
           y="31.75"
           id="tspan9092" />
      </text>
    </g>
  </g>
  <g
     transform="translate(351.80859,33.5)"
     id="g9108">
    <g
       transform="scale(1.5)"
       id="g9106">
      <path
         d="m 8.5,0.5 h 60 v 20 h -60 v -8 -1 h -6 v 3 h -2 v -8 h 2 v 3 h 6 v -1 z"
         style="fill:#ffb2bc;fill-opacity:1;stroke:#601136;stroke-width:1;stroke-linecap:round;stroke-opacity:1"
         id="path9100"
         inkscape:connector-curvature="0" />
      <text
         style="font-size:10px;font-family:sans-serif;text-anchor:start;fill:#000000"
         id="text9104">
        <tspan
           x="13.333333"
           y="13.833333"
           id="tspan9102">0</tspan>
      </text>
    </g>
  </g>
  <g
     transform="translate(351.80859,65)"
     id="g9118">
    <g
       transform="scale(1.5)"
       id="g9116">
      <path
         d="m 8.5,0.5 h 60 v 20 h -60 v -8 -1 h -6 v 3 h -2 v -8 h 2 v 3 h 6 v -1 z"
         style="fill:#ffb2bc;fill-opacity:1;stroke:#601136;stroke-width:1;stroke-linecap:round;stroke-opacity:1"
         id="path9110"
         inkscape:connector-curvature="0" />
      <text
         style="font-size:10px;font-family:sans-serif;text-anchor:start;fill:#000000"
         id="text9114">
        <tspan
           x="13.333333"
           y="13.833333"
           id="tspan9112">12</tspan>
      </text>
    </g>
  </g>
  <g
     transform="translate(13.5,380)"
     id="g9128">
    <g
       transform="scale(1.5)"
       id="g9126">
      <path
         d="m 0.5,8.5 v -4 a 4,4 90 0 1 4,-4 h 4 v 2 h 10 v -2 h 20 4 a 4,4 90 0 1 4,4 v 4 4 4 a 4,4 90 0 1 -4,4 h -4 -20 -1 v 2 h -8 v -2 h -1 -4 a 4,4 90 0 1 -4,-4 v -4 z"
         style="fill:#d57e6f;fill-opacity:1;stroke:#000000;stroke-width:1;stroke-linecap:round;stroke-opacity:1"
         id="path9120"
         inkscape:connector-curvature="0" />
      <text
         style="font-size:10px;font-family:sans-serif;text-anchor:end;fill:#000000"
         id="text9124">
        <tspan
           x="36.333332"
           y="13.5"
           id="tspan9122">↓</tspan>
      </text>
    </g>
  </g>
  <g
     transform="translate(476)"
     id="g9142">
    <g
       transform="scale(1.5)"
       id="g9140">
      <path
         d="m 0.5,8.5 v -4 a 4,4 90 0 1 4,-4 h 4 v 2 h 10 v -2 h 9 92.53906 4 a 4,4 90 0 1 4,4 v 4 h -4 v -3 h -4 v 10 h 4 v -3 h 4 v 4 a 4,4 90 0 1 -4,4 h -4 H 27.5 h -1 v 2 h -8 v -2 h -1 -4 a 5,5 90 0 0 -5,5 v 4 4 210 4 a 5,5 90 0 0 5,5 h 4 v 2 h 10 v -2 h 8 v 6 6 4 a 4,4 90 0 1 -4,4 h -4 -9 -1 v 2 h -8 v -2 h -1 -4 a 4,4 90 0 1 -4,-4 v -4 z"
         style="fill:#3ea4a3;fill-opacity:1;stroke:#000000;stroke-width:1;stroke-linecap:round;stroke-opacity:1"
         id="path9130"
         inkscape:connector-curvature="0" />
      <text
         style="font-size:10px;font-family:sans-serif;text-anchor:start;fill:#000000"
         id="text9134">
        <tspan
           x="5.3333335"
           y="15.25"
           id="tspan9132">semi-tone interval (+/–)</tspan>
      </text>
      <text
         style="font-size:6.66666651px;font-family:sans-serif;text-anchor:end;fill:#000000"
         id="text9138">
        <tspan
           x="117.8724"
           y="11.25"
           id="tspan9136" />
      </text>
    </g>
  </g>
  <g
     transform="translate(656.80859)"
     id="g9160">
    <g
       transform="scale(1.5)"
       id="g9158">
      <path
         d="m 8.5,8.5 v -4 a 4,4 90 0 1 4,-4 h 4 10 30 4 a 4,4 90 0 1 4,4 v 4 h -4 v -3 h -4 v 10 h 4 v -3 h 4 v 17 h -4 v -3 h -4 v 10 h 4 v -3 h 4 v 4 a 4,4 90 0 1 -4,4 h -4 -30 -10 -4 a 4,4 90 0 1 -4,-4 v -4 -21 -1 h -6 v 3 h -2 v -8 h 2 v 3 h 6 z"
         style="fill:#ffb2bc;fill-opacity:1;stroke:#601136;stroke-width:1;stroke-linecap:round;stroke-opacity:1"
         id="path9144"
         inkscape:connector-curvature="0" />
      <text
         style="font-size:14px;font-family:sans-serif;text-anchor:end;fill:#000000"
         id="text9148">
        <tspan
           x="54.333332"
           y="23.799999"
           id="tspan9146">+</tspan>
      </text>
      <text
         style="font-size:9.33333302px;font-family:sans-serif;text-anchor:end;fill:#000000"
         id="text9152">
        <tspan
           x="54.333332"
           y="10.75"
           id="tspan9150" />
      </text>
      <text
         style="font-size:9.33333302px;font-family:sans-serif;text-anchor:end;fill:#000000"
         id="text9156">
        <tspan
           x="54.333332"
           y="31.75"
           id="tspan9154" />
      </text>
    </g>
  </g>
  <g
     transform="translate(742.3086)"
     id="g9170">
    <g
       transform="scale(1.5)"
       id="g9168">
      <path
         d="m 8.5,0.5 h 110 v 20 H 8.5 v -8 -1 h -6 v 3 h -2 v -8 h 2 v 3 h 6 v -1 z"
         style="fill:#3ea4a3;fill-opacity:1;stroke:#000000;stroke-width:1;stroke-linecap:round;stroke-opacity:1"
         id="path9162"
         inkscape:connector-curvature="0" />
      <text
         style="font-size:10px;font-family:sans-serif;text-anchor:start;fill:#000000"
         id="text9166">
        <tspan
           x="13.333333"
           y="13.833333"
           id="tspan9164" />
      </text>
    </g>
  </g>
  <g
     transform="translate(742.3086,31.5)"
     id="g9188">
    <g
       transform="scale(1.5)"
       id="g9186">
      <path
         d="m 8.5,8.5 v -4 a 4,4 90 0 1 4,-4 h 4 10 30 4 a 4,4 90 0 1 4,4 v 4 h -4 v -3 h -4 v 10 h 4 v -3 h 4 v 17 h -4 v -3 h -4 v 10 h 4 v -3 h 4 v 4 a 4,4 90 0 1 -4,4 h -4 -30 -10 -4 a 4,4 90 0 1 -4,-4 v -4 -21 -1 h -6 v 3 h -2 v -8 h 2 v 3 h 6 z"
         style="fill:#ffb2bc;fill-opacity:1;stroke:#601136;stroke-width:1;stroke-linecap:round;stroke-opacity:1"
         id="path9172"
         inkscape:connector-curvature="0" />
      <text
         style="font-size:14px;font-family:sans-serif;text-anchor:end;fill:#000000"
         id="text9176">
        <tspan
           x="54.333332"
           y="23.799999"
           id="tspan9174">×</tspan>
      </text>
      <text
         style="font-size:9.33333302px;font-family:sans-serif;text-anchor:end;fill:#000000"
         id="text9180">
        <tspan
           x="54.333332"
           y="10.75"
           id="tspan9178" />
      </text>
      <text
         style="font-size:9.33333302px;font-family:sans-serif;text-anchor:end;fill:#000000"
         id="text9184">
        <tspan
           x="54.333332"
           y="31.75"
           id="tspan9182" />
      </text>
    </g>
  </g>
  <g
     transform="translate(827.8086,31.5)"
     id="g9198">
    <g
       transform="scale(1.5)"
       id="g9196">
      <path
         d="m 8.5,0.5 h 60 v 20 h -60 v -8 -1 h -6 v 3 h -2 v -8 h 2 v 3 h 6 v -1 z"
         style="fill:#ffb2bc;fill-opacity:1;stroke:#601136;stroke-width:1;stroke-linecap:round;stroke-opacity:1"
         id="path9190"
         inkscape:connector-curvature="0" />
      <text
         style="font-size:10px;font-family:sans-serif;text-anchor:start;fill:#000000"
         id="text9194">
        <tspan
           x="13.333333"
           y="13.833333"
           id="tspan9192">1</tspan>
      </text>
    </g>
  </g>
  <g
     transform="translate(827.8086,63)"
     id="g9208">
    <g
       transform="scale(1.5)"
       id="g9206">
      <path
         d="m 8.5,0.5 h 60 v 20 h -60 v -8 -1 h -6 v 3 h -2 v -8 h 2 v 3 h 6 v -1 z"
         style="fill:#ffb2bc;fill-opacity:1;stroke:#601136;stroke-width:1;stroke-linecap:round;stroke-opacity:1"
         id="path9200"
         inkscape:connector-curvature="0" />
      <text
         style="font-size:10px;font-family:sans-serif;text-anchor:start;fill:#000000"
         id="text9204">
        <tspan
           x="13.333333"
           y="13.833333"
           id="tspan9202">12</tspan>
      </text>
    </g>
  </g>
  <g
     transform="translate(489.5,31.5)"
     id="g9218">
    <g
       transform="scale(1.5)"
       id="g9216">
      <path
         d="m 0.5,8.5 v -4 a 4,4 90 0 1 4,-4 h 4 v 2 h 10 v -2 h 20 4 a 4,4 90 0 1 4,4 v 4 4 4 a 4,4 90 0 1 -4,4 h -4 -20 -1 v 2 h -8 v -2 h -1 -4 a 4,4 90 0 1 -4,-4 v -4 z"
         style="fill:#d57e6f;fill-opacity:1;stroke:#000000;stroke-width:1;stroke-linecap:round;stroke-opacity:1"
         id="path9210"
         inkscape:connector-curvature="0" />
      <text
         style="font-size:10px;font-family:sans-serif;text-anchor:end;fill:#000000"
         id="text9214">
        <tspan
           x="36.333332"
           y="13.5"
           id="tspan9212">↓</tspan>
      </text>
    </g>
  </g>
  <g
     transform="translate(13.5,33.5)"
     id="g9228">
    <g
       transform="scale(1.5)"
       id="g9226">
      <path
         d="m 0.5,8.5 v -4 a 4,4 90 0 1 4,-4 h 4 v 2 h 10 v -2 h 20 4 a 4,4 90 0 1 4,4 v 4 4 4 a 4,4 90 0 1 -4,4 h -4 -20 -1 v 2 h -8 v -2 h -1 -4 a 4,4 90 0 1 -4,-4 v -4 z"
         style="fill:#d57e6f;fill-opacity:1;stroke:#000000;stroke-width:1;stroke-linecap:round;stroke-opacity:1"
         id="path9220"
         inkscape:connector-curvature="0" />
      <text
         style="font-size:10px;font-family:sans-serif;text-anchor:end;fill:#000000"
         id="text9224">
        <tspan
           x="36.333332"
           y="13.5"
           id="tspan9222">↓</tspan>
      </text>
    </g>
  </g>
  <g
     transform="translate(489.5,220.5)"
     id="g9242">
    <g
       transform="scale(1.5)"
       id="g9240">
      <path
         d="m 0.5,8.5 v -4 a 4,4 90 0 1 4,-4 h 4 v 2 h 10 v -2 h 9 36.147461 4 a 4,4 90 0 1 4,4 v 4 h -4 v -3 h -4 v 10 h 4 v -3 h 4 v 4 a 4,4 90 0 1 -4,4 h -4 H 27.5 h -1 v 2 h -8 v -2 h -1 -4 a 5,5 90 0 0 -5,5 v 4 4 42 4 a 5,5 90 0 0 5,5 h 4 v 2 h 10 v -2 h 8 v 6 6 4 a 4,4 90 0 1 -4,4 h -4 -9 -1 v 2 h -8 v -2 h -1 -4 a 4,4 90 0 1 -4,-4 v -4 z"
         style="fill:#ff8b2d;fill-opacity:1;stroke:#520000;stroke-width:1;stroke-linecap:round;stroke-opacity:1"
         id="path9230"
         inkscape:connector-curvature="0" />
      <text
         style="font-size:10px;font-family:sans-serif;text-anchor:start;fill:#000000"
         id="text9234">
        <tspan
           x="5.3333335"
           y="15.25"
           id="tspan9232">音価</tspan>
      </text>
      <text
         style="font-size:6.66666651px;font-family:sans-serif;text-anchor:end;fill:#000000"
         id="text9238">
        <tspan
           x="61.480793"
           y="11.25"
           id="tspan9236" />
      </text>
    </g>
  </g>
  <g
     transform="translate(585.72119,220.5)"
     id="g9260">
    <g
       transform="scale(1.5)"
       id="g9258">
      <path
         d="m 8.5,8.5 v -4 a 4,4 90 0 1 4,-4 h 4 10 30 4 a 4,4 90 0 1 4,4 v 4 h -4 v -3 h -4 v 10 h 4 v -3 h 4 v 17 h -4 v -3 h -4 v 10 h 4 v -3 h 4 v 4 a 4,4 90 0 1 -4,4 h -4 -30 -10 -4 a 4,4 90 0 1 -4,-4 v -4 -21 -1 h -6 v 3 h -2 v -8 h 2 v 3 h 6 z"
         style="fill:#ffb2bc;fill-opacity:1;stroke:#601136;stroke-width:1;stroke-linecap:round;stroke-opacity:1"
         id="path9244"
         inkscape:connector-curvature="0" />
      <text
         style="font-size:14px;font-family:sans-serif;text-anchor:end;fill:#000000"
         id="text9248">
        <tspan
           x="54.333332"
           y="23.799999"
           id="tspan9246">/</tspan>
      </text>
      <text
         style="font-size:9.33333302px;font-family:sans-serif;text-anchor:end;fill:#000000"
         id="text9252">
        <tspan
           x="54.333332"
           y="10.75"
           id="tspan9250" />
      </text>
      <text
         style="font-size:9.33333302px;font-family:sans-serif;text-anchor:end;fill:#000000"
         id="text9256">
        <tspan
           x="54.333332"
           y="31.75"
           id="tspan9254" />
      </text>
    </g>
  </g>
  <g
     transform="translate(671.22119,220.5)"
     id="g9270">
    <g
       transform="scale(1.5)"
       id="g9268">
      <path
         d="m 8.5,0.5 h 60 v 20 h -60 v -8 -1 h -6 v 3 h -2 v -8 h 2 v 3 h 6 v -1 z"
         style="fill:#ffb2bc;fill-opacity:1;stroke:#601136;stroke-width:1;stroke-linecap:round;stroke-opacity:1"
         id="path9262"
         inkscape:connector-curvature="0" />
      <text
         style="font-size:10px;font-family:sans-serif;text-anchor:start;fill:#000000"
         id="text9266">
        <tspan
           x="13.333333"
           y="13.833333"
           id="tspan9264">1</tspan>
      </text>
    </g>
  </g>
  <g
     transform="translate(671.22119,252)"
     id="g9280">
    <g
       transform="scale(1.5)"
       id="g9278">
      <path
         d="m 8.5,0.5 h 60 v 20 h -60 v -8 -1 h -6 v 3 h -2 v -8 h 2 v 3 h 6 v -1 z"
         style="fill:#ffb2bc;fill-opacity:1;stroke:#601136;stroke-width:1;stroke-linecap:round;stroke-opacity:1"
         id="path9272"
         inkscape:connector-curvature="0" />
      <text
         style="font-size:10px;font-family:sans-serif;text-anchor:start;fill:#000000"
         id="text9276">
        <tspan
           x="13.333333"
           y="13.833333"
           id="tspan9274">8</tspan>
      </text>
    </g>
  </g>
  <g
     transform="translate(503,252)"
     id="g9290">
    <g
       transform="scale(1.5)"
       id="g9288">
      <path
         d="m 0.5,8.5 v -4 a 4,4 90 0 1 4,-4 h 4 v 2 h 10 v -2 h 20 4 a 4,4 90 0 1 4,4 v 4 4 4 a 4,4 90 0 1 -4,4 h -4 -20 -1 v 2 h -8 v -2 h -1 -4 a 4,4 90 0 1 -4,-4 v -4 z"
         style="fill:#d57e6f;fill-opacity:1;stroke:#000000;stroke-width:1;stroke-linecap:round;stroke-opacity:1"
         id="path9282"
         inkscape:connector-curvature="0" />
      <text
         style="font-size:10px;font-family:sans-serif;text-anchor:end;fill:#000000"
         id="text9286">
        <tspan
           x="36.333332"
           y="13.5"
           id="tspan9284">↓</tspan>
      </text>
    </g>
  </g>
  <g
     transform="translate(503,283.5)"
     id="g9308">
    <g
       transform="scale(1.5)"
       id="g9306">
      <path
         d="m 0.5,8.5 v -4 a 4,4 90 0 1 4,-4 h 4 v 2 h 10 v -2 h 30 4 a 4,4 90 0 1 4,4 v 4 h -4 v -3 h -4 v 10 h 4 v -3 h 4 v 17 h -4 v -3 h -4 v 10 h 4 v -3 h 4 v 4 a 4,4 90 0 1 -4,4 h -4 -30 -1 v 2 h -8 v -2 h -1 -4 a 4,4 90 0 1 -4,-4 v -4 -21 z"
         style="fill:#93e042;fill-opacity:1;stroke:#004000;stroke-width:1;stroke-linecap:round;stroke-opacity:1"
         id="path9292"
         inkscape:connector-curvature="0" />
      <text
         style="font-size:10px;font-family:sans-serif;text-anchor:end;fill:#000000"
         id="text9296">
        <tspan
           x="46.333332"
           y="24"
           id="tspan9294">ピッチ</tspan>
      </text>
      <text
         style="font-size:6.66666651px;font-family:sans-serif;text-anchor:end;fill:#000000"
         id="text9300">
        <tspan
           x="46.333332"
           y="11.25"
           id="tspan9298">名前</tspan>
      </text>
      <text
         style="font-size:6.66666651px;font-family:sans-serif;text-anchor:end;fill:#000000"
         id="text9304">
        <tspan
           x="46.333332"
           y="32.25"
           id="tspan9302">オクターヴ</tspan>
      </text>
    </g>
  </g>
  <g
     transform="translate(576.5,283.5)"
     id="g9318">
    <g
       transform="scale(1.5)"
       id="g9316">
      <path
         d="m 8.5,0.5 h 60 v 20 h -60 v -8 -1 h -6 v 3 h -2 v -8 h 2 v 3 h 6 v -1 z"
         style="fill:#93e042;fill-opacity:1;stroke:#004000;stroke-width:1;stroke-linecap:round;stroke-opacity:1"
         id="path9310"
         inkscape:connector-curvature="0" />
      <text
         style="font-size:10px;font-family:sans-serif;text-anchor:start;fill:#000000"
         id="text9314">
        <tspan
           x="13.333333"
           y="13.833333"
           id="tspan9312">ミ</tspan>
      </text>
    </g>
  </g>
  <g
     transform="translate(576.5,315)"
     id="g9328">
    <g
       transform="scale(1.5)"
       id="g9326">
      <path
         d="m 8.5,0.5 h 60 v 20 h -60 v -8 -1 h -6 v 3 h -2 v -8 h 2 v 3 h 6 v -1 z"
         style="fill:#ffb2bc;fill-opacity:1;stroke:#601136;stroke-width:1;stroke-linecap:round;stroke-opacity:1"
         id="path9320"
         inkscape:connector-curvature="0" />
      <text
         style="font-size:10px;font-family:sans-serif;text-anchor:start;fill:#000000"
         id="text9324">
        <tspan
           x="13.333333"
           y="13.833333"
           id="tspan9322">5</tspan>
      </text>
    </g>
  </g>
  <text
     xml:space="preserve"
     style="font-style:normal;font-weight:normal;font-size:16px;line-height:1.25;font-family:sans-serif;letter-spacing:0px;word-spacing:0px;fill:#000000;fill-opacity:1;stroke:none"
     x="292.19922"
     y="24.103144"
     id="text10574"><tspan
       sodipodi:role="line"
       x="292.19922"
       y="24.103144"
       id="tspan10572"><tspan
         x="292.19922"
         y="24.103144"
         id="tspan10570">augmented 5</tspan>  <text
     xml:space="preserve"
     style="font-style:normal;font-weight:normal;font-size:16px;line-height:1.25;font-family:sans-serif;letter-spacing:0px;word-spacing:0px;fill:#000000;fill-opacity:1;stroke:none"
     x="770.7793"
     y="21.696894"
     id="text10580"><tspan
       sodipodi:role="line"
       x="770.7793"
       y="21.696894"
       id="tspan10578"><tspan
         x="770.7793"
         y="21.696894"
         id="tspan10576">minor 3</tspan></svg>
