<?xml version="1.0" encoding="UTF-8" standalone="no"?>
<svg
   xmlns:dc="http://purl.org/dc/elements/1.1/"
   xmlns:cc="http://creativecommons.org/ns#"
   xmlns:rdf="http://www.w3.org/1999/02/22-rdf-syntax-ns#"
   xmlns:svg="http://www.w3.org/2000/svg"
   xmlns="http://www.w3.org/2000/svg"
   id="svg3045"
   version="1.1"
   viewBox="0 0 88.7677 59.134373"
   height="59.134373mm"
   width="88.7677mm">
  <defs
     id="defs3039" />
  <metadata
     id="metadata3042">
    <rdf:RDF>
      <cc:Work
         rdf:about="">
        <dc:format>image/svg+xml</dc:format>
        <dc:type
           rdf:resource="http://purl.org/dc/dcmitype/StillImage" />
        <dc:title></dc:title>
      </cc:Work>
    </rdf:RDF>
  </metadata>
  <g
     transform="translate(-43.420022,-70.138265)"
     id="layer1">
    <g
       transform="matrix(0.26458333,0,0,0.26458333,43.420022,70.138265)"
       id="g1064">
      <g
         id="g1062"
         transform="scale(1.5)">
        <path
           id="path1052"
           style="fill:#7cd622;fill-opacity:1;stroke:#57ad02;stroke-width:1;stroke-linecap:round;stroke-opacity:1"
           d="m 0.5,8.5 v -4 a 4,4 90 0 1 4,-4 h 4 v 2 h 10 v -2 h 9 35.029297 4 a 4,4 90 0 1 4,4 v 4 h -4 v -3 h -4 v 10 h 4 v -3 h 4 v 4 a 4,4 90 0 1 -4,4 h -4 H 27.5 h -1 v 2 h -8 v -2 h -1 -4 a 5,5 90 0 0 -5,5 v 4 4 84 4 a 5,5 90 0 0 5,5 h 4 v 2 h 10 v -2 h 8 v 6 6 4 a 4,4 90 0 1 -4,4 h -4 -9 -1 v 2 h -8 v -2 h -1 -4 a 4,4 90 0 1 -4,-4 v -4 z" />
        <text
           id="text1056"
           style="font-size:10px;font-family:sans-serif;text-anchor:start;fill:#282828">
          <tspan
             id="tspan1054"
             y="15"
             x="5">accidental</tspan>
        </text>
        <text
           id="text1060"
           style="font-size:6.66666651px;font-family:sans-serif;text-anchor:end;fill:#282828">
          <tspan
             id="tspan1058"
             y="12"
             x="60" />
        </text>
      </g>
    </g>
    <g
       id="g1098"
       transform="matrix(0.26458333,0,0,0.26458333,-352.66123,-2.0929846)">
      <g
         id="g1078"
         transform="translate(1511,305)">
        <g
           id="g1076"
           transform="scale(1.5)">
          <path
             id="path1066"
             style="fill:#fe994f;fill-opacity:1;stroke:#e86b0e;stroke-width:1;stroke-linecap:round;stroke-opacity:1"
             d="m 0.5,8.5 v -4 a 4,4 90 0 1 4,-4 h 4 v 2 h 10 v -2 h 9 60 4 a 4,4 90 0 1 4,4 v 4 h -4 v -3 h -4 v 10 h 4 v -3 h 4 v 4 a 4,4 90 0 1 -4,4 h -4 -60 -1 v 2 h -8 v -2 h -1 -4 a 5,5 90 0 0 -5,5 v 4 4 42 4 a 5,5 90 0 0 5,5 h 4 v 2 h 10 v -2 h 8 v 6 6 4 a 4,4 90 0 1 -4,4 h -4 -9 -1 v 2 h -8 v -2 h -1 -4 a 4,4 90 0 1 -4,-4 v -4 z" />
          <text
             id="text1070"
             style="font-size:10px;font-family:sans-serif;text-anchor:start;fill:#282828">
            <tspan
               id="tspan1068"
               y="15"
               x="20">note</tspan>
          </text>
          <text
             id="text1074"
             style="font-size:6.66666651px;font-family:sans-serif;text-anchor:end;fill:#282828">
            <tspan
               id="tspan1072"
               y="12"
               x="85">value</tspan>
          </text>
        </g>
      </g>
      <g
         id="g1096"
         transform="matrix(0.5,0,0,0.5,1511,309)">
        <g
           id="g1094"
           style="isolation:isolate">
          <g
             data-name="レイヤー 2"
             id="g1092">
            <g
               id="g1090">
              <rect
                 id="rect1080"
                 style="opacity:0.4;mix-blend-mode:multiply;fill:#292929"
                 ry="5"
                 rx="5"
                 height="42"
                 width="42"
                 x="0"
                 y="0" />
              <path
                 id="path1082"
                 style="fill:#ffffff"
                 d="m 30.56,29.8 -4.17,-4.16 h 2.26 a 1.035,1.035 0 1 0 0,-2.07 h -4.71 a 1.08,1.08 0 0 0 -1.11,1 v 0 c 0,0 0,0 0,0.06 v 4.64 0 a 1.04,1.04 0 1 0 2.08,0 v -2.19 l 4.19,4.19 a 1,1 0 0 0 1.46,0 1,1 0 0 0 0,-1.47 z" />
              <path
                 id="path1084"
                 style="fill:#ffffff"
                 d="m 19.17,24.6 a 1.08,1.08 0 0 0 -1.11,-1 h -4.71 a 1.035,1.035 0 1 0 0,2.07 h 2.25 l -4.16,4.13 a 1.039447,1.039447 0 0 0 1.47,1.47 l 4.18,-4.19 v 2.26 a 1.04,1.04 0 1 0 2.08,0 V 24.7 c 0,0 0,0 0,-0.06 a 0.08,0.08 0 0 1 0,-0.04 z" />
              <path
                 id="path1086"
                 style="fill:#ffffff"
                 d="m 23.94,20.5 h 4.7 a 1.04,1.04 0 1 0 0,-2.08 h -2.25 l 4.17,-4.16 a 1,1 0 0 0 0,-1.47 1,1 0 0 0 -1.46,0 L 24.91,17 v -2.28 a 1.04,1.04 0 1 0 -2.08,0 v 4.64 a 0.43,0.43 0 0 0 0,0.05 v 0.05 a 1.09,1.09 0 0 0 1.11,1.04 z" />
              <path
                 id="path1088"
                 style="fill:#ffffff"
                 d="m 18.13,13.62 a 1.08,1.08 0 0 0 -1,1.09 V 17 l -4.18,-4.19 a 1,1 0 0 0 -1.47,0 1,1 0 0 0 0,1.46 l 4.16,4.17 h -2.29 a 1.04,1.04 0 1 0 0,2.08 h 4.71 a 1.09,1.09 0 0 0 1.11,-1 c 0,0 0,0 0,-0.06 v -4.75 a 1.07,1.07 0 0 0 -1.04,-1.09 z" />
            </g>
          </g>
        </g>
      </g>
    </g>
    <g
       id="g1116"
       transform="matrix(0.26458333,0,0,0.26458333,82.049192,78.604935)">
      <g
         id="g1114"
         transform="scale(1.5)">
        <path
           id="path1100"
           style="fill:#ff6ea1;fill-opacity:1;stroke:#ff2c76;stroke-width:1;stroke-linecap:round;stroke-opacity:1"
           d="m 8.5,8.5 v -4 a 4,4 90 0 1 4,-4 h 4 10 30 4 a 4,4 90 0 1 4,4 v 4 h -4 v -3 h -4 v 10 h 4 v -3 h 4 v 17 h -4 v -3 h -4 v 10 h 4 v -3 h 4 v 4 a 4,4 90 0 1 -4,4 h -4 -30 -10 -4 a 4,4 90 0 1 -4,-4 v -4 -21 -1 h -6 v 3 h -2 v -8 h 2 v 3 h 6 z" />
        <text
           id="text1104"
           style="font-size:9px;font-family:sans-serif;text-anchor:end;fill:#282828">
          <tspan
             id="tspan1102"
             y="23"
             x="54">➗</tspan>
        </text>
        <text
           id="text1108"
           style="font-size:6px;font-family:sans-serif;text-anchor:end;fill:#282828">
          <tspan
             id="tspan1106"
             y="12"
             x="54" />
        </text>
        <text
           id="text1112"
           style="font-size:6px;font-family:sans-serif;text-anchor:end;fill:#282828">
          <tspan
             id="tspan1110"
             y="33"
             x="54" />
        </text>
      </g>
    </g>
    <g
       id="g1126"
       transform="matrix(0.26458333,0,0,0.26458333,104.80335,78.604935)">
      <g
         id="g1124"
         transform="scale(1.5)">
        <path
           id="path1118"
           style="fill:#ff6ea1;fill-opacity:1;stroke:#ff2c76;stroke-width:1;stroke-linecap:round;stroke-opacity:1"
           d="m 8.5,0.5 h 60 v 20 h -60 v -8 -1 h -6 v 3 h -2 v -8 h 2 v 3 h 6 v -1 z" />
        <text
           id="text1122"
           style="font-size:10px;font-family:sans-serif;text-anchor:start;fill:#282828">
          <tspan
             id="tspan1120"
             y="14"
             x="13">1</tspan>
        </text>
      </g>
    </g>
    <g
       id="g1136"
       transform="matrix(0.26458333,0,0,0.26458333,104.80335,87.071595)">
      <g
         id="g1134"
         transform="scale(1.5)">
        <path
           id="path1128"
           style="fill:#ff6ea1;fill-opacity:1;stroke:#ff2c76;stroke-width:1;stroke-linecap:round;stroke-opacity:1"
           d="m 8.5,0.5 h 60 v 20 h -60 v -8 -1 h -6 v 3 h -2 v -8 h 2 v 3 h 6 v -1 z" />
        <text
           id="text1132"
           style="font-size:10px;font-family:sans-serif;text-anchor:start;fill:#282828">
          <tspan
             id="tspan1130"
             y="14"
             x="13">4</tspan>
        </text>
      </g>
    </g>
    <g
       id="g1146"
       transform="matrix(0.26458333,0,0,0.26458333,50.828352,87.071595)">
      <g
         id="g1144"
         transform="scale(1.5)">
        <path
           id="path1138"
           style="fill:#c4c4c4;fill-opacity:1;stroke:#a0a0a0;stroke-width:1;stroke-linecap:round;stroke-opacity:1"
           d="m 0.5,8.5 v -4 a 4,4 90 0 1 4,-4 h 4 v 2 h 10 v -2 h 20 4 a 4,4 90 0 1 4,4 v 4 4 4 a 4,4 90 0 1 -4,4 h -4 -20 -1 v 2 h -8 v -2 h -1 -4 a 4,4 90 0 1 -4,-4 v -4 z" />
        <text
           id="text1142"
           style="font-size:10px;font-family:sans-serif;text-anchor:end;fill:#282828">
          <tspan
             id="tspan1140"
             y="14"
             x="36">↓</tspan>
        </text>
      </g>
    </g>
    <g
       id="g1164"
       transform="matrix(0.26458333,0,0,0.26458333,50.828352,95.538265)">
      <g
         id="g1162"
         transform="scale(1.5)">
        <path
           id="path1148"
           style="fill:#7cd622;fill-opacity:1;stroke:#57ad02;stroke-width:1;stroke-linecap:round;stroke-opacity:1"
           d="m 0.5,8.5 v -4 a 4,4 90 0 1 4,-4 h 4 v 2 h 10 v -2 h 30 4 a 4,4 90 0 1 4,4 v 4 h -4 v -3 h -4 v 10 h 4 v -3 h 4 v 17 h -4 v -3 h -4 v 10 h 4 v -3 h 4 v 4 a 4,4 90 0 1 -4,4 h -4 -30 -1 v 2 h -8 v -2 h -1 -4 a 4,4 90 0 1 -4,-4 v -4 -21 z" />
        <text
           id="text1152"
           style="font-size:10px;font-family:sans-serif;text-anchor:end;fill:#282828">
          <tspan
             id="tspan1150"
             y="24"
             x="46">pitch</tspan>
        </text>
        <text
           id="text1156"
           style="font-size:6.66666651px;font-family:sans-serif;text-anchor:end;fill:#282828">
          <tspan
             id="tspan1154"
             y="12"
             x="46">name</tspan>
        </text>
        <text
           id="text1160"
           style="font-size:6.66666651px;font-family:sans-serif;text-anchor:end;fill:#282828">
          <tspan
             id="tspan1158"
             y="33"
             x="46">octave</tspan>
        </text>
      </g>
    </g>
    <g
       id="g1174"
       transform="matrix(0.26458333,0,0,0.26458333,70.407522,95.538265)">
      <g
         id="g1172"
         transform="scale(1.5)">
        <path
           id="path1166"
           style="fill:#7cd622;fill-opacity:1;stroke:#57ad02;stroke-width:1;stroke-linecap:round;stroke-opacity:1"
           d="m 8.5,0.5 h 60 v 20 h -60 v -8 -1 h -6 v 3 h -2 v -8 h 2 v 3 h 6 v -1 z" />
        <text
           id="text1170"
           style="font-size:10px;font-family:sans-serif;text-anchor:start;fill:#282828">
          <tspan
             id="tspan1168"
             y="14"
             x="13">sol</tspan>
        </text>
      </g>
    </g>
    <g
       id="g1184"
       transform="matrix(0.26458333,0,0,0.26458333,70.407522,104.00494)">
      <g
         id="g1182"
         transform="scale(1.5)">
        <path
           id="path1176"
           style="fill:#ff6ea1;fill-opacity:1;stroke:#ff2c76;stroke-width:1;stroke-linecap:round;stroke-opacity:1"
           d="m 8.5,0.5 h 60 v 20 h -60 v -8 -1 h -6 v 3 h -2 v -8 h 2 v 3 h 6 v -1 z" />
        <text
           id="text1180"
           style="font-size:10px;font-family:sans-serif;text-anchor:start;fill:#282828">
          <tspan
             id="tspan1178"
             y="14"
             x="13">4</tspan>
        </text>
      </g>
    </g>
    <g
       id="g1194"
       transform="matrix(0.26458333,0,0,0.26458333,68.555442,70.138265)">
      <g
         id="g1192"
         transform="scale(1.5)">
        <path
           id="path1186"
           style="fill:#7cd622;fill-opacity:1;stroke:#57ad02;stroke-width:1;stroke-linecap:round;stroke-opacity:1"
           d="m 8.5,0.5 h 110 v 20 H 8.5 v -8 -1 h -6 v 3 h -2 v -8 h 2 v 3 h 6 v -1 z" />
        <text
           id="text1190"
           style="font-size:10px;font-family:sans-serif;text-anchor:start;fill:#282828">
          <tspan
             id="tspan1188"
             y="14"
             x="13">flat ♭</tspan>
        </text>
      </g>
    </g>
  </g>
</svg>
