<?xml version="1.0" encoding="UTF-8" standalone="no"?>
<svg
   xmlns:dc="http://purl.org/dc/elements/1.1/"
   xmlns:cc="http://creativecommons.org/ns#"
   xmlns:rdf="http://www.w3.org/1999/02/22-rdf-syntax-ns#"
   xmlns:svg="http://www.w3.org/2000/svg"
   xmlns="http://www.w3.org/2000/svg"
   id="svg1521"
   version="1.1"
   viewBox="0 0 26.590624 9.1281254"
   height="34.5"
   width="100.5">
  <defs
     id="defs1515" />
  <metadata
     id="metadata1518">
    <rdf:RDF>
      <cc:Work
         rdf:about="">
        <dc:format>image/svg+xml</dc:format>
        <dc:type
           rdf:resource="http://purl.org/dc/dcmitype/StillImage" />
        <dc:title></dc:title>
      </cc:Work>
    </rdf:RDF>
  </metadata>
  <g
     transform="translate(-79.408928,-287.74113)"
     id="layer1">
    <g
       transform="matrix(0.26458333,0,0,0.26458333,79.408928,287.74113)"
       id="g1105">
      <g
         id="g1103"
         transform="scale(1.5)">
        <path
           id="path1097"
           style="fill:#ffe05c;fill-opacity:1;stroke:#644300;stroke-width:1;stroke-linecap:round;stroke-opacity:1"
           d="m 0.5,8.5 v -4 a 4,4 90 0 1 4,-4 h 4 v 2 h 10 v -2 h 40 4 a 4,4 90 0 1 4,4 v 4 4 4 a 4,4 90 0 1 -4,4 h -4 -40 -1 v 2 h -8 v -2 h -1 -4 a 4,4 90 0 1 -4,-4 v -4 z" />
        <text
           id="text1101"
           style="font-size:10px;font-family:sans-serif;text-anchor:end;fill:#000000">
          <tspan
             id="tspan1099"
             y="13.5"
             x="56.333332">chunk</tspan>
        </text>
      </g>
    </g>
  </g>
</svg>
