<?xml version="1.0" encoding="UTF-8" standalone="no"?>
<svg
   xmlns:dc="http://purl.org/dc/elements/1.1/"
   xmlns:cc="http://creativecommons.org/ns#"
   xmlns:rdf="http://www.w3.org/1999/02/22-rdf-syntax-ns#"
   xmlns:svg="http://www.w3.org/2000/svg"
   xmlns="http://www.w3.org/2000/svg"
   id="svg305"
   version="1.1"
   height="34.5"
   width="207.5">
  <metadata
     id="metadata311">
    <rdf:RDF>
      <cc:Work
         rdf:about="">
        <dc:format>image/svg+xml</dc:format>
        <dc:type
           rdf:resource="http://purl.org/dc/dcmitype/StillImage" />
        <dc:title></dc:title>
      </cc:Work>
    </rdf:RDF>
  </metadata>
  <defs
     id="defs309" />
  <rect
     stroke="none"
     fill="none"
     y="-53"
     x="-29.508196"
     height="100%"
     width="100%"
     id="backgroundrect" />
  <g
     id="svg_2"
     transform="matrix(1.5,0,0,1.5,270.4918,0)">
    <path
       id="svg_3"
       style="fill:#c4c4c4;fill-opacity:1;stroke:#a0a0a0;stroke-width:1;stroke-linecap:round;stroke-opacity:1"
       d="m -179.82787,8.5 v -4 a 4,4 90 0 1 4,-4 h 4 v 2 h 10 v -2 h 50.58106 4 a 4,4 90 0 1 4,4 v 4 h -4 v -3 h -4 v 10 h 4 v -3 h 4 v 4 a 4,4 90 0 1 -4,4 h -4 -50.58106 -1 v 2 h -8 v -2 h -1 -4 a 4,4 90 0 1 -4,-4 v -4 z" />
    <text
       x="-180.32787"
       y="0"
       id="svg_4"
       style="font-size:10px;font-family:sans-serif;text-anchor:end;fill:#282828"><tspan
         id="svg_5"
         y="14"
         x="-113.32787">display grid</tspan></text>
    <text
       x="-180.32787"
       y="0"
       id="svg_6"
       style="font-size:6.66667px;font-family:sans-serif;text-anchor:end;fill:#282828" />
  </g>
  <g
     id="svg_9"
     transform="matrix(1.5,0,0,1.5,374.4918,0)">
    <path
       id="svg_10"
       style="fill:#c4c4c4;fill-opacity:1;stroke:#a0a0a0;stroke-width:1;stroke-linecap:round;stroke-opacity:1"
       d="m -171.82787,0.5 h 60 v 20 h -60 v -8 -1 h -6 v 3 h -2 v -8 h 2 v 3 h 6 v -1 z" />
    <text
       x="-180.32787"
       y="0"
       id="svg_11"
       style="font-size:10px;font-family:sans-serif;text-anchor:start;fill:#282828"><tspan
         id="svg_12"
         y="14"
         x="-167.32787">treble</tspan></text>
  </g>
</svg>
