<svg xmlns="http://www.w3.org/2000/svg" width="145.20000000000002" height="109.2"><g transform="scale(2, 2)"><filter id="dropshadow" height="130%">   <feGaussianBlur in="SourceAlpha" stdDeviation="3"/>   <feOffset dx="2" dy="2" result="offsetblur"/>   <feComponentTransfer xmlns="http://www.w3.org/2000/svg">     <feFuncA type="linear" slope="0.2"/>   </feComponentTransfer>   <feMerge>     <feMergeNode/>     <feMergeNode in="SourceGraphic"/>   </feMerge> </filter><path d="m8.5 8.5 L 8.5 4.5 A 4 4 90 0 1 12.5 0.5 L 16.5 0.5 L 26.5 0.5 L 56.5 0.5 L 60.5 0.5 A 4 4 90 0 1 64.5 4.5 L 64.5 8.5 L 60.5 8.5 L 60.5 5.5 L 56.5 5.5 L 56.5 15.5 L 60.5 15.5 L 60.5 12.5 L 64.5 12.5 L 64.5 29.5 L 60.5 29.5 L 60.5 26.5 L 56.5 26.5 L 56.5 36.5 L 60.5 36.5 L 60.5 33.5 L 64.5 33.5 L 64.5 37.5 A 4 4 90 0 1 60.5 41.5 L 56.5 41.5 L 26.5 41.5 L 16.5 41.5 L 12.5 41.5 A 4 4 90 0 1 8.5 37.5 L 8.5 33.5 L 8.5 12.5 L 8.5 11.5 L 2.5 11.5 L 2.5 14.5 L 0.5 14.5 L 0.5 6.5 L 2.5 6.5 L 2.5 9.5 L 8.5 9.5 L 8.5 8.5 z" style="fill:#ff00ff;fill-opacity:1;stroke:#c700d3;stroke-width:1;stroke-linecap:round;stroke-opacity:1;filter:url(#dropshadow);" /><text style="font-size:14px;fill:#000000;font-family:Sans;text-anchor:end"><tspan x="55" y="24.5">/</tspan></text><text style="font-size:9.333333333333334px;fill:#000000;font-family:Sans;text-anchor:end"><tspan x="55" y="10.75"></tspan></text><text style="font-size:9.333333333333334px;fill:#000000;font-family:Sans;text-anchor:end"><tspan x="55" y="31.75"></tspan></text></g></svg>