<?xml version="1.0" encoding="UTF-8" standalone="no"?>
<svg
   xmlns:dc="http://purl.org/dc/elements/1.1/"
   xmlns:cc="http://creativecommons.org/ns#"
   xmlns:rdf="http://www.w3.org/1999/02/22-rdf-syntax-ns#"
   xmlns:svg="http://www.w3.org/2000/svg"
   xmlns="http://www.w3.org/2000/svg"
   id="svg2831"
   version="1.1"
   viewBox="0 0 81.160937 16.668749"
   height="16.668749mm"
   width="81.160934mm">
  <defs
     id="defs2825" />
  <metadata
     id="metadata2828">
    <rdf:RDF>
      <cc:Work
         rdf:about="">
        <dc:format>image/svg+xml</dc:format>
        <dc:type
           rdf:resource="http://purl.org/dc/dcmitype/StillImage" />
        <dc:title></dc:title>
      </cc:Work>
    </rdf:RDF>
  </metadata>
  <g
     transform="translate(97.805677,-94.334891)"
     id="layer1">
    <g
       id="g852"
       transform="matrix(0.26458333,0,0,0.26458333,-97.805677,94.334891)">
      <g
         id="g850"
         transform="scale(1.5)">
        <path
           id="path840"
           style="fill:#ffbf00;fill-opacity:1;stroke:#daaf30;stroke-width:1;stroke-linecap:round;stroke-opacity:1"
           d="m 0.5,8.5 v -4 a 4,4 90 0 1 4,-4 h 4 v 2 h 10 v -2 h 30 4 a 4,4 90 0 1 4,4 v 4 h -4 v -3 h -4 v 10 h 4 v -3 h 4 v 4 a 4,4 90 0 1 -4,4 h -4 -30 -1 v 2 h -8 v -2 h -1 -4 a 4,4 90 0 1 -4,-4 v -4 z" />
        <text
           id="text844"
           style="font-size:10px;font-family:sans-serif;text-anchor:end;fill:#282828">
          <tspan
             id="tspan842"
             y="14"
             x="46">do</tspan>
        </text>
        <text
           id="text848"
           style="font-size:6.66666651px;font-family:sans-serif;text-anchor:end;fill:#282828">
          <tspan
             id="tspan846"
             y="12"
             x="46" />
        </text>
      </g>
    </g>
    <g
       id="g862"
       transform="matrix(0.26458333,0,0,0.26458333,-55.736927,94.334891)">
      <g
         id="g860"
         transform="scale(1.5)">
        <path
           id="path854"
           style="fill:#ff6648;fill-opacity:1;stroke-width:1;stroke-linecap:round;stroke-opacity:1"
           d="m 8.5,0.5 h 90 v 20 h -90 v -8 -1 h -6 v 3 h -2 v -8 h 2 v 3 h 6 v -1 z" />
        <text
           id="text858"
           style="font-size:10px;font-family:sans-serif;text-anchor:start;fill:#282828">
          <tspan
             id="tspan856"
             y="14"
             x="13">part 1</tspan>
        </text>
      </g>
    </g>
    <g
       id="g1048"
       transform="matrix(0.26458333,0,0,0.26458333,-55.736927,102.66927)">
      <g
         id="g1046"
         transform="scale(1.5)">
        <path
           id="path1040"
           style="fill:#ff6648;fill-opacity:1;stroke-width:1;stroke-linecap:round;stroke-opacity:1"
           d="m 8.5,0.5 h 90 v 20 h -90 v -8 -1 h -6 v 3 h -2 v -8 h 2 v 3 h 6 v -1 z" />
        <text
           id="text1044"
           style="font-size:10px;font-family:sans-serif;text-anchor:start;fill:#282828">
          <tspan
             id="tspan1042"
             y="14"
             x="13">part 2</tspan>
        </text>
      </g>
    </g>
    <g
       id="g1076"
       transform="matrix(0.26458333,0,0,0.26458333,-78.358802,94.334891)">
      <g
         id="g1074"
         transform="scale(1.5)">
        <path
           id="path1060"
           style="fill:#ff6ea1;fill-opacity:1;stroke:#ff2c76;stroke-width:1;stroke-linecap:round;stroke-opacity:1"
           d="m 8.5,8.5 v -4 a 4,4 90 0 1 4,-4 h 4 10 30 4 a 4,4 90 0 1 4,4 v 4 h -4 v -3 h -4 v 10 h 4 v -3 h 4 v 17 h -4 v -3 h -4 v 10 h 4 v -3 h 4 v 4 a 4,4 90 0 1 -4,4 h -4 -30 -10 -4 a 4,4 90 0 1 -4,-4 v -4 -21 -1 h -6 v 3 h -2 v -8 h 2 v 3 h 6 z" />
        <text
           id="text1064"
           style="font-size:10px;font-family:sans-serif;text-anchor:end;fill:#282828">
          <tspan
             id="tspan1062"
             y="23"
             x="54">one of</tspan>
        </text>
        <text
           id="text1068"
           style="font-size:6.66666651px;font-family:sans-serif;text-anchor:end;fill:#282828">
          <tspan
             id="tspan1066"
             y="12"
             x="54">this</tspan>
        </text>
        <text
           id="text1072"
           style="font-size:6.66666651px;font-family:sans-serif;text-anchor:end;fill:#282828">
          <tspan
             id="tspan1070"
             y="33"
             x="54">that</tspan>
        </text>
      </g>
    </g>
  </g>
</svg>
