<svg xmlns="http://www.w3.org/2000/svg" width="200.6666316986084" height="101.66665244102478" style=""><rect id="backgroundrect" width="100%" height="100%" x="0" y="0" fill="none" stroke="none" style="" class=""/><g class="currentLayer" style=""><title>Layer 1</title><g class=""><g id="svg_85" class=""><g transform="translate(280, 280) scale(1.5)" id="svg_86"><path d="m-185.27780151367188,-177.2777743935585 L-185.27780151367188,-181.2777743935585 A4,4 90 0 1 -181.27780151367188,-185.2777743935585 L-177.27780151367188,-185.2777743935585 L-177.27780151367188,-183.2777743935585 L-167.27780151367188,-183.2777743935585 L-167.27780151367188,-185.2777743935585 L-158.27780151367188,-185.2777743935585 L-124.27780151367188,-185.2777743935585 L-120.27780151367188,-185.2777743935585 A4,4 90 0 1 -116.27780151367188,-181.2777743935585 L-116.27780151367188,-177.2777743935585 L-120.27780151367188,-177.2777743935585 L-120.27780151367188,-180.2777743935585 L-124.27780151367188,-180.2777743935585 L-124.27780151367188,-170.2777743935585 L-120.27780151367188,-170.2777743935585 L-120.27780151367188,-173.2777743935585 L-116.27780151367188,-173.2777743935585 L-116.27780151367188,-169.2777743935585 A4,4 90 0 1 -120.27780151367188,-165.2777743935585 L-124.27780151367188,-165.2777743935585 L-158.27780151367188,-165.2777743935585 L-159.27780151367188,-165.2777743935585 L-159.27780151367188,-163.2777743935585 L-167.27780151367188,-163.2777743935585 L-167.27780151367188,-165.2777743935585 L-168.27780151367188,-165.2777743935585 L-172.27780151367188,-165.2777743935585 A5,5 90 0 0 -177.27780151367188,-160.2777743935585 L-177.27780151367188,-156.2777743935585 L-177.27780151367188,-152.2777743935585 L-177.27780151367188,-148.2777743935585 A5,5 90 0 0 -172.27780151367188,-143.2777743935585 L-168.27780151367188,-143.2777743935585 L-168.27780151367188,-141.2777743935585 L-158.27780151367188,-141.2777743935585 L-158.27780151367188,-143.2777743935585 L-150.27780151367188,-143.2777743935585 L-150.27780151367188,-137.2777743935585 L-150.27780151367188,-131.2777743935585 L-150.27780151367188,-127.2777743935585 A4,4 90 0 1 -154.27780151367188,-123.2777743935585 L-158.27780151367188,-123.2777743935585 L-167.27780151367188,-123.2777743935585 L-168.27780151367188,-123.2777743935585 L-168.27780151367188,-121.2777743935585 L-176.27780151367188,-121.2777743935585 L-176.27780151367188,-123.2777743935585 L-177.27780151367188,-123.2777743935585 L-181.27780151367188,-123.2777743935585 A4,4 90 0 1 -185.27780151367188,-127.2777743935585 L-185.27780151367188,-131.2777743935585 z" style="fill:#D68136;fill-opacity:1;stroke:#B7651A;stroke-width:1;stroke-linecap:round;stroke-opacity:1;" id="svg_87"/><text style="font-size:10px;fill:#282828;font-family:sans-serif;text-anchor:start" id="svg_88" y="-185.77777779102325" x="-185.77779132127762"><tspan x="-180.77779132127762" y="-170.77777779102325" id="svg_89">duplicate</tspan></text><text style="font-size:6.666666666666667px;fill:#282828;font-family:sans-serif;text-anchor:end" id="svg_90" y="-185.77777779102325" x="-185.77779132127762"/></g></g><g id="svg_92" class=""><g transform="translate(373, 280) scale(1.5)" id="svg_93"><path d="m-177.27780151367188,-185.2777743935585 L-117.27780151367188,-185.2777743935585 L-117.27780151367188,-165.2777743935585 L-177.27780151367188,-165.2777743935585 L-177.27780151367188,-173.2777743935585 L-177.27780151367188,-174.2777743935585 L-183.27780151367188,-174.2777743935585 L-183.27780151367188,-171.2777743935585 L-185.27780151367188,-171.2777743935585 L-185.27780151367188,-179.2777743935585 L-183.27780151367188,-179.2777743935585 L-183.27780151367188,-176.2777743935585 L-177.27780151367188,-176.2777743935585 L-177.27780151367188,-177.2777743935585 z" style="fill:#FF5293;fill-opacity:1;stroke:#FF2C76;stroke-width:1;stroke-linecap:round;stroke-opacity:1;" id="svg_94"/><text style="font-size:10px;fill:#282828;font-family:sans-serif;text-anchor:start" id="svg_95" y="-185.77777779102325" x="-185.77779132127762"><tspan x="-172.77779132127762" y="-171.77777779102325" id="svg_96">2</tspan></text></g></g></g></g></svg>