<?xml version="1.0" encoding="UTF-8" standalone="no"?>
<svg
   xmlns:dc="http://purl.org/dc/elements/1.1/"
   xmlns:cc="http://creativecommons.org/ns#"
   xmlns:rdf="http://www.w3.org/1999/02/22-rdf-syntax-ns#"
   xmlns:svg="http://www.w3.org/2000/svg"
   xmlns="http://www.w3.org/2000/svg"
   id="svg88"
   version="1.1"
   height="34.5"
   width="267.5">
  <metadata
     id="metadata94">
    <rdf:RDF>
      <cc:Work
         rdf:about="">
        <dc:format>image/svg+xml</dc:format>
        <dc:type
           rdf:resource="http://purl.org/dc/dcmitype/StillImage" />
        <dc:title></dc:title>
      </cc:Work>
    </rdf:RDF>
  </metadata>
  <defs
     id="defs92" />
  <g
     id="g58"
     transform="translate(164)">
    <g
       id="g56"
       transform="scale(1.5)">
      <path
         id="path50"
         style="fill:#ff6ea1;fill-opacity:1;stroke:#ff2c76;stroke-width:1;stroke-linecap:round;stroke-opacity:1"
         d="m 8.5,0.5 h 60 v 20 h -60 v -8 -1 h -6 v 3 h -2 v -8 h 2 v 3 h 6 v -1 z" />
      <text
         id="text54"
         style="font-size:10px;font-family:sans-serif;text-anchor:start;fill:#282828"><tspan
           id="tspan52"
           y="14"
           x="13">0.5</tspan></text>
    </g>
  </g>
  <g
     id="g72"
     transform="translate(74)">
    <g
       id="g70"
       transform="scale(1.5)">
      <path
         id="path60"
         style="fill:#c4c4c4;fill-opacity:1;stroke:#a0a0a0;stroke-width:1;stroke-linecap:round;stroke-opacity:1"
         d="m 8.5,8.5 v -4 a 4,4 90 0 1 4,-4 h 4 10 32.792969 4 a 4,4 90 0 1 4,4 v 4 h -4 v -3 h -4 v 10 h 4 v -3 h 4 v 4 a 4,4 90 0 1 -4,4 h -4 H 26.5 h -10 -4 a 4,4 90 0 1 -4,-4 v -4 -1 h -6 v 3 h -2 v -8 h 2 v 3 h 6 z" />
      <text
         id="text64"
         style="font-size:10px;font-family:sans-serif;text-anchor:end;fill:#282828"><tspan
           id="tspan62"
           y="13"
           x="57">fraction</tspan></text>
      <text
         id="text68"
         style="font-size:6.66667px;font-family:sans-serif;text-anchor:end;fill:#282828"><tspan
           id="tspan66"
           y="12"
           x="57" /></text>
    </g>
  </g>
  <g
     id="g86">
    <g
       id="g84"
       transform="scale(1.5)">
      <path
         id="path74"
         style="fill:#c4c4c4;fill-opacity:1;stroke:#a0a0a0;stroke-width:1;stroke-linecap:round;stroke-opacity:1"
         d="m 0.5,8.5 v -4 a 4,4 90 0 1 4,-4 h 4 v 2 h 10 v -2 h 30 4 a 4,4 90 0 1 4,4 v 4 h -4 v -3 h -4 v 10 h 4 v -3 h 4 v 4 a 4,4 90 0 1 -4,4 h -4 -30 -1 v 2 h -8 v -2 h -1 -4 a 4,4 90 0 1 -4,-4 v -4 z" />
      <text
         id="text78"
         style="font-size:10px;font-family:sans-serif;text-anchor:end;fill:#282828"><tspan
           id="tspan76"
           y="14"
           x="46">print</tspan></text>
      <text
         id="text82"
         style="font-size:6.66667px;font-family:sans-serif;text-anchor:end;fill:#282828"><tspan
           id="tspan80"
           y="12"
           x="46" /></text>
    </g>
  </g>
</svg>
