<?xml version="1.0" encoding="UTF-8" standalone="no"?>
<svg
   xmlns:dc="http://purl.org/dc/elements/1.1/"
   xmlns:cc="http://creativecommons.org/ns#"
   xmlns:rdf="http://www.w3.org/1999/02/22-rdf-syntax-ns#"
   xmlns:svg="http://www.w3.org/2000/svg"
   xmlns="http://www.w3.org/2000/svg"
   id="svg11666"
   version="1.1"
   viewBox="0 0 84.931252 34.131249"
   height="34.131248mm"
   width="84.931252mm">
  <defs
     id="defs11660" />
  <metadata
     id="metadata11663">
    <rdf:RDF>
      <cc:Work
         rdf:about="">
        <dc:format>image/svg+xml</dc:format>
        <dc:type
           rdf:resource="http://purl.org/dc/dcmitype/StillImage" />
        <dc:title></dc:title>
      </cc:Work>
    </rdf:RDF>
  </metadata>
  <g
     transform="translate(373.49717,12.668308)"
     id="layer1">
    <g
       id="g11469"
       transform="matrix(0.26458333,0,0,0.26458333,-419.27009,-112.94539)">
      <g
         transform="translate(186.5,442)"
         id="g1218">
        <g
           transform="scale(1.5)"
           id="g1216">
          <path
             d="m 0.5,8.5 v -4 a 4,4 90 0 1 4,-4 h 4 v 2 h 10 v -2 h 30 4 a 4,4 90 0 1 4,4 v 4 h -4 v -3 h -4 v 10 h 4 v -3 h 4 v 4 a 4,4 90 0 1 -4,4 h -4 -30 -1 v 2 h -8 v -2 h -1 -4 a 4,4 90 0 1 -4,-4 v -4 z"
             style="fill:#7cd622;fill-opacity:1;stroke:#57ad02;stroke-width:1;stroke-linecap:round;stroke-opacity:1"
             id="path1206" />
          <text
             style="font-size:10px;font-family:sans-serif;text-anchor:end;fill:#282828"
             id="text1210">
            <tspan
               x="46"
               y="14"
               id="tspan1208">hertz</tspan>
          </text>
          <text
             style="font-size:6.66666651px;font-family:sans-serif;text-anchor:end;fill:#282828"
             id="text1214">
            <tspan
               x="46"
               y="12"
               id="tspan1212" />
          </text>
        </g>
      </g>
      <g
         transform="translate(260,442)"
         id="g1228">
        <g
           transform="scale(1.5)"
           id="g1226">
          <path
             d="m 8.5,0.5 h 60 v 20 h -60 v -8 -1 h -6 v 3 h -2 v -8 h 2 v 3 h 6 v -1 z"
             style="fill:#ff6ea1;fill-opacity:1;stroke:#ff2c76;stroke-width:1;stroke-linecap:round;stroke-opacity:1"
             id="path1220" />
          <text
             style="font-size:10px;font-family:sans-serif;text-anchor:start;fill:#282828"
             id="text1224">
            <tspan
               x="13"
               y="14"
               id="tspan1222">392</tspan>
          </text>
        </g>
      </g>
      <g
         id="g1426">
        <g
           transform="translate(173,379)"
           id="g1406">
          <g
             transform="scale(1.5)"
             id="g1404">
            <path
               d="m 0.5,8.5 v -4 a 4,4 90 0 1 4,-4 h 4 v 2 h 10 v -2 h 9 60 4 a 4,4 90 0 1 4,4 v 4 h -4 v -3 h -4 v 10 h 4 v -3 h 4 v 4 a 4,4 90 0 1 -4,4 h -4 -60 -1 v 2 h -8 v -2 h -1 -4 a 5,5 90 0 0 -5,5 v 4 4 21 4 a 5,5 90 0 0 5,5 h 4 v 2 h 10 v -2 h 8 v 6 6 4 a 4,4 90 0 1 -4,4 h -4 -9 -1 v 2 h -8 v -2 h -1 -4 a 4,4 90 0 1 -4,-4 v -4 z"
               style="fill:#fe994f;fill-opacity:1;stroke:#e86b0e;stroke-width:1;stroke-linecap:round;stroke-opacity:1"
               id="path1394" />
            <text
               style="font-size:10px;font-family:sans-serif;text-anchor:start;fill:#282828"
               id="text1398">
              <tspan
                 x="20"
                 y="15"
                 id="tspan1396">note</tspan>
            </text>
            <text
               style="font-size:6.66666651px;font-family:sans-serif;text-anchor:end;fill:#282828"
               id="text1402">
              <tspan
                 x="85"
                 y="12"
                 id="tspan1400">value</tspan>
            </text>
          </g>
        </g>
        <g
           transform="matrix(0.5,0,0,0.5,173,383)"
           id="g1424">
          <g
             style="isolation:isolate"
             id="g1422">
            <g
               id="g1420"
               data-name="レイヤー 2">
              <g
                 id="g1418">
                <rect
                   width="42"
                   height="42"
                   rx="5"
                   ry="5"
                   style="opacity:0.4;mix-blend-mode:multiply;fill:#292929"
                   id="rect1408"
                   x="0"
                   y="0" />
                <path
                   d="m 30.56,29.8 -4.17,-4.16 h 2.26 a 1.035,1.035 0 1 0 0,-2.07 h -4.71 a 1.08,1.08 0 0 0 -1.11,1 v 0 c 0,0 0,0 0,0.06 v 4.64 0 a 1.04,1.04 0 1 0 2.08,0 v -2.19 l 4.19,4.19 a 1,1 0 0 0 1.46,0 1,1 0 0 0 0,-1.47 z"
                   style="fill:#ffffff"
                   id="path1410" />
                <path
                   d="m 19.17,24.6 a 1.08,1.08 0 0 0 -1.11,-1 h -4.71 a 1.035,1.035 0 1 0 0,2.07 h 2.25 l -4.16,4.13 a 1.039447,1.039447 0 0 0 1.47,1.47 l 4.18,-4.19 v 2.26 a 1.04,1.04 0 1 0 2.08,0 V 24.7 c 0,0 0,0 0,-0.06 a 0.08,0.08 0 0 1 0,-0.04 z"
                   style="fill:#ffffff"
                   id="path1412" />
                <path
                   d="m 23.94,20.5 h 4.7 a 1.04,1.04 0 1 0 0,-2.08 h -2.25 l 4.17,-4.16 a 1,1 0 0 0 0,-1.47 1,1 0 0 0 -1.46,0 L 24.91,17 v -2.28 a 1.04,1.04 0 1 0 -2.08,0 v 4.64 a 0.43,0.43 0 0 0 0,0.05 v 0.05 a 1.09,1.09 0 0 0 1.11,1.04 z"
                   style="fill:#ffffff"
                   id="path1414" />
                <path
                   d="m 18.13,13.62 a 1.08,1.08 0 0 0 -1,1.09 V 17 l -4.18,-4.19 a 1,1 0 0 0 -1.47,0 1,1 0 0 0 0,1.46 l 4.16,4.17 h -2.29 a 1.04,1.04 0 1 0 0,2.08 h 4.71 a 1.09,1.09 0 0 0 1.11,-1 c 0,0 0,0 0,-0.06 v -4.75 a 1.07,1.07 0 0 0 -1.04,-1.09 z"
                   style="fill:#ffffff"
                   id="path1416" />
              </g>
            </g>
          </g>
        </g>
      </g>
      <g
         transform="translate(305,379)"
         id="g1444">
        <g
           transform="scale(1.5)"
           id="g1442">
          <path
             d="m 8.5,8.5 v -4 a 4,4 90 0 1 4,-4 h 4 10 30 4 a 4,4 90 0 1 4,4 v 4 h -4 v -3 h -4 v 10 h 4 v -3 h 4 v 17 h -4 v -3 h -4 v 10 h 4 v -3 h 4 v 4 a 4,4 90 0 1 -4,4 h -4 -30 -10 -4 a 4,4 90 0 1 -4,-4 v -4 -21 -1 h -6 v 3 h -2 v -8 h 2 v 3 h 6 z"
             style="fill:#ff6ea1;fill-opacity:1;stroke:#ff2c76;stroke-width:1;stroke-linecap:round;stroke-opacity:1"
             id="path1428" />
          <text
             style="font-size:9px;font-family:sans-serif;text-anchor:end;fill:#282828"
             id="text1432">
            <tspan
               x="54"
               y="23"
               id="tspan1430">➗</tspan>
          </text>
          <text
             style="font-size:6px;font-family:sans-serif;text-anchor:end;fill:#282828"
             id="text1436">
            <tspan
               x="54"
               y="12"
               id="tspan1434" />
          </text>
          <text
             style="font-size:6px;font-family:sans-serif;text-anchor:end;fill:#282828"
             id="text1440">
            <tspan
               x="54"
               y="33"
               id="tspan1438" />
          </text>
        </g>
      </g>
      <g
         transform="translate(390.5,379)"
         id="g1454">
        <g
           transform="scale(1.5)"
           id="g1452">
          <path
             d="m 8.5,0.5 h 60 v 20 h -60 v -8 -1 h -6 v 3 h -2 v -8 h 2 v 3 h 6 v -1 z"
             style="fill:#ff6ea1;fill-opacity:1;stroke:#ff2c76;stroke-width:1;stroke-linecap:round;stroke-opacity:1"
             id="path1446" />
          <text
             style="font-size:10px;font-family:sans-serif;text-anchor:start;fill:#282828"
             id="text1450">
            <tspan
               x="13"
               y="14"
               id="tspan1448">1</tspan>
          </text>
        </g>
      </g>
      <g
         transform="translate(390.5,410.5)"
         id="g1464">
        <g
           transform="scale(1.5)"
           id="g1462">
          <path
             d="m 8.5,0.5 h 60 v 20 h -60 v -8 -1 h -6 v 3 h -2 v -8 h 2 v 3 h 6 v -1 z"
             style="fill:#ff6ea1;fill-opacity:1;stroke:#ff2c76;stroke-width:1;stroke-linecap:round;stroke-opacity:1"
             id="path1456" />
          <text
             style="font-size:10px;font-family:sans-serif;text-anchor:start;fill:#282828"
             id="text1460">
            <tspan
               x="13"
               y="14"
               id="tspan1458">4</tspan>
          </text>
        </g>
      </g>
      <g
         transform="translate(186.5,410.5)"
         id="g1474">
        <g
           transform="scale(1.5)"
           id="g1472">
          <path
             d="m 0.5,8.5 v -4 a 4,4 90 0 1 4,-4 h 4 v 2 h 10 v -2 h 20 4 a 4,4 90 0 1 4,4 v 4 4 4 a 4,4 90 0 1 -4,4 h -4 -20 -1 v 2 h -8 v -2 h -1 -4 a 4,4 90 0 1 -4,-4 v -4 z"
             style="fill:#c4c4c4;fill-opacity:1;stroke:#a0a0a0;stroke-width:1;stroke-linecap:round;stroke-opacity:1"
             id="path1466" />
          <text
             style="font-size:10px;font-family:sans-serif;text-anchor:end;fill:#282828"
             id="text1470">
            <tspan
               x="36"
               y="14"
               id="tspan1468">↓</tspan>
          </text>
        </g>
      </g>
    </g>
  </g>
</svg>
