<?xml version="1.0" encoding="UTF-8" standalone="no"?>
<svg
   xmlns:dc="http://purl.org/dc/elements/1.1/"
   xmlns:cc="http://creativecommons.org/ns#"
   xmlns:rdf="http://www.w3.org/1999/02/22-rdf-syntax-ns#"
   xmlns:svg="http://www.w3.org/2000/svg"
   xmlns="http://www.w3.org/2000/svg"
   id="svg2356"
   version="1.1"
   viewBox="0 0 73.157303 113.33244"
   height="113.33244mm"
   width="73.157303mm">
  <defs
     id="defs2350" />
  <metadata
     id="metadata2353">
    <rdf:RDF>
      <cc:Work
         rdf:about="">
        <dc:format>image/svg+xml</dc:format>
        <dc:type
           rdf:resource="http://purl.org/dc/dcmitype/StillImage" />
        <dc:title></dc:title>
      </cc:Work>
    </rdf:RDF>
  </metadata>
  <g
     transform="translate(128.80484,-18.839733)"
     id="layer1">
    <g
       transform="matrix(0.26458333,0,0,0.26458333,-429.90067,-39.786234)"
       id="g1563">
      <g
         id="g1505"
         transform="translate(1138,222)">
        <g
           id="g1503"
           transform="scale(1.5)">
          <path
             id="path1497"
             style="fill:#ffbf00;fill-opacity:1;stroke:#daaf30;stroke-width:1;stroke-linecap:round;stroke-opacity:1"
             d="m 0.5,14.5 v -4 a 4,4 90 0 1 4,-4 h 4 l 5,-6 5,6 h 9 60 4 a 4,4 90 0 1 4,4 v 4 4 4 a 4,4 90 0 1 -4,4 h -4 -60 -1 v 2 h -8 v -2 h -1 -4 a 5,5 90 0 0 -5,5 v 4 4 210 4 a 5,5 90 0 0 5,5 h 4 v 2 h 10 v -2 h 8 v 6 6 4 a 4,4 90 0 1 -4,4 h -4 -9 l -5,6 -5,-6 h -4 a 4,4 90 0 1 -4,-4 v -4 z" />
          <text
             id="text1501"
             style="font-size:10px;font-family:sans-serif;text-anchor:start;fill:#282828">
            <tspan
               id="tspan1499"
               y="22"
               x="20">start</tspan>
          </text>
        </g>
      </g>
      <g
         id="g1523"
         transform="matrix(0.5,0,0,0.5,1138,234)">
        <g
           id="g1521"
           style="isolation:isolate">
          <g
             data-name="レイヤー 2"
             id="g1519">
            <g
               id="g1517">
              <rect
                 id="rect1507"
                 style="opacity:0.4;mix-blend-mode:multiply;fill:#292929"
                 ry="5"
                 rx="5"
                 height="42"
                 width="42"
                 x="0"
                 y="0" />
              <path
                 id="path1509"
                 style="fill:#ffffff"
                 d="m 30.56,29.8 -4.17,-4.16 h 2.26 a 1.035,1.035 0 1 0 0,-2.07 h -4.71 a 1.08,1.08 0 0 0 -1.11,1 v 0 c 0,0 0,0 0,0.06 v 4.64 0 a 1.04,1.04 0 1 0 2.08,0 v -2.19 l 4.19,4.19 a 1,1 0 0 0 1.46,0 1,1 0 0 0 0,-1.47 z" />
              <path
                 id="path1511"
                 style="fill:#ffffff"
                 d="m 19.17,24.6 a 1.08,1.08 0 0 0 -1.11,-1 h -4.71 a 1.035,1.035 0 1 0 0,2.07 h 2.25 l -4.16,4.13 a 1.039447,1.039447 0 0 0 1.47,1.47 l 4.18,-4.19 v 2.26 a 1.04,1.04 0 1 0 2.08,0 V 24.7 c 0,0 0,0 0,-0.06 a 0.08,0.08 0 0 1 0,-0.04 z" />
              <path
                 id="path1513"
                 style="fill:#ffffff"
                 d="m 23.94,20.5 h 4.7 a 1.04,1.04 0 1 0 0,-2.08 h -2.25 l 4.17,-4.16 a 1,1 0 0 0 0,-1.47 1,1 0 0 0 -1.46,0 L 24.91,17 v -2.28 a 1.04,1.04 0 1 0 -2.08,0 v 4.64 a 0.43,0.43 0 0 0 0,0.05 v 0.05 a 1.09,1.09 0 0 0 1.11,1.04 z" />
              <path
                 id="path1515"
                 style="fill:#ffffff"
                 d="m 18.13,13.62 a 1.08,1.08 0 0 0 -1,1.09 V 17 l -4.18,-4.19 a 1,1 0 0 0 -1.47,0 1,1 0 0 0 0,1.46 l 4.16,4.17 h -2.29 a 1.04,1.04 0 1 0 0,2.08 h 4.71 a 1.09,1.09 0 0 0 1.11,-1 c 0,0 0,0 0,-0.06 v -4.75 a 1.07,1.07 0 0 0 -1.04,-1.09 z" />
            </g>
          </g>
        </g>
      </g>
      <g
         id="g1561"
         transform="matrix(0.4,0,0,0.4,1248,234)">
        <g
           id="g1559"
           style="fill:#ffa300;stroke:#a34600;stroke-width:1.99999976;stroke-miterlimit:4;stroke-dasharray:none"
           transform="translate(-3.1884835,0.12548216)">
          <path
             d="m 31.188483,5.8745178 c 0,0 -1.254644,-1 -2,-1 -1.490712,0 -2.945907,0.9459074 -4,2 -1.581139,1.5811389 -1.692548,4.1860072 -3,6.0000002 -0.826905,1.14727 -1.85273,2.173095 -3,3 -1.813992,1.307452 -4.41886,1.418861 -5.999999,3 -1.054093,1.054093 -2,2.509288 -2,4 0,1.490712 1.176934,3.540162 2,4 2.595129,1.449868 0.836609,0.648512 2,2 0,0 -1.040434,3.300808 -1,5 0.06539,2.747959 1.999999,7 1.999999,8 0,1 3.621931,4.46873 6,6 2.394526,1.541867 5.323775,2.059095 8.164792,2.258437 3.065644,0.215103 5.976447,-0.356365 8.670416,-1.835208 1.652944,-0.907377 3.020234,-1.924716 4.164792,-3.423229 1.631246,-2.13571 3.310226,-4.40261 4,-7 0.42778,-1.610833 0.203639,-3.345821 0,-5 -0.167925,-1.364071 -1.27205,-2.652826 -1,-4 0.329909,-1.633688 2.319717,-2.47849 3,-4 0.693755,-1.551642 1.687609,-3.445625 1,-5 -0.786311,-1.777496 -3.357594,-1.960634 -5,-3 -1.015577,-0.642689 -2.106041,-1.196706 -3,-2 -1.93647,-1.740075 -3.442391,-3.913943 -5,-6.0000002 -0.71906,-0.9630146 -1.044881,-2.2704844 -2,-3 -0.837694,-0.6398275 -1.974105,-1.2421808 -3,-1 -0.458794,0.1083066 -1,1 -1,1"
             id="path1525"
             style="fill:#ffa300;stroke:none;stroke-width:1px;stroke-linecap:butt;stroke-linejoin:miter;stroke-opacity:1" />
          <path
             style="fill:none;stroke:#a34600;stroke-width:1.95427048;stroke-linecap:round;stroke-linejoin:miter;stroke-miterlimit:4;stroke-dasharray:none;stroke-opacity:1"
             id="path1527"
             d="m 46.209786,28.156906 c 0,0 1.463947,5.738921 1.001084,8.583832 -0.503422,3.094194 -1.733796,6.320068 -4.004337,8.583833 -2.061998,2.055845 -3.20724,2.828474 -6.006505,3.815036 -1.290398,0.454783 -4.973515,0.953759 -6.514048,0.953759 -1.540535,0 -5.223651,-0.498977 -6.514049,-0.95376 -2.799265,-0.986562 -3.944507,-1.759191 -6.006506,-3.815036 -2.270541,-2.263765 -3.500915,-5.489639 -4.004337,-8.583833 -0.462863,-2.844911 1.001084,-8.583832 1.001084,-8.583832 M 28.176267,22.43435 c 0,0 -4.122174,4.705629 -7.007589,5.722555 -1.877805,0.661806 -4.201946,0.826315 -6.006506,0 -1.925806,-0.881834 -3.58357,-2.772978 -4.004337,-4.768796 -0.478397,-2.26917 0.558956,-4.123549 2.470477,-5.529022 2.067374,-1.520067 4.598363,-1.662883 6.539282,-3.054811 2.515152,-1.803739 2.912345,-5.389772 5.005421,-7.6300732 1.420632,-1.520559 5.512965,-3.8150366 5.512965,-3.8150366 0,0 4.092331,2.2944775 5.512964,3.8150365 2.093073,2.2403013 2.490269,5.8263353 5.005421,7.6300743 1.940919,1.391928 4.538808,1.465531 6.606183,2.927334 1.937249,1.369793 2.881973,3.387329 2.403575,5.656499 -0.420767,1.995818 -2.078532,3.886962 -4.004337,4.768796 -1.80456,0.826315 -4.1287,0.661806 -6.006505,0 -2.885416,-1.016926 -7.00759,-5.722555 -7.00759,-5.722555" />
          <g
             style="fill:none;stroke:#a34600;stroke-opacity:1"
             transform="matrix(1.0010843,0,0,0.95375917,57.401951,5.3863652)"
             id="g1541">
            <g
               style="fill:none;stroke:#a34600;stroke-opacity:1"
               transform="translate(0,-1)"
               id="g1533">
              <path
                 style="fill:none;fill-rule:evenodd;stroke:#a34600;stroke-width:1.93205309;stroke-linecap:butt;stroke-linejoin:miter;stroke-miterlimit:4;stroke-dasharray:none;stroke-opacity:1"
                 id="path1529"
                 d="M -30.228157,8.514322 C -33.422908,9.40349 -38.624018,5.874516 -40.102591,4.585664" />
              <path
                 style="fill:none;fill-rule:evenodd;stroke:#a34600;stroke-width:1.93205309;stroke-linecap:butt;stroke-linejoin:miter;stroke-miterlimit:4;stroke-dasharray:none;stroke-opacity:1"
                 id="path1531"
                 d="M -29.760199,5.904536 C -33.101366,5.473905 -35.931474,3.7361852 -37.633646,2.3416285" />
            </g>
            <g
               style="fill:none;stroke:#a34600;stroke-opacity:1"
               id="g1539">
              <path
                 style="fill:none;fill-rule:evenodd;stroke:#a34600;stroke-width:1.93205309;stroke-linecap:butt;stroke-linejoin:miter;stroke-miterlimit:4;stroke-dasharray:none;stroke-opacity:1"
                 id="path1535"
                 d="m -23.145912,7.514322 c 3.194751,0.889168 8.395861,-2.639806 9.874434,-3.928658" />
              <path
                 style="fill:none;fill-rule:evenodd;stroke:#a34600;stroke-width:1.93205309;stroke-linecap:butt;stroke-linejoin:miter;stroke-miterlimit:4;stroke-dasharray:none;stroke-opacity:1"
                 id="path1537"
                 d="m -23.61387,4.904536 c 3.341167,-0.430631 6.171275,-2.168351 7.873447,-3.5629075" />
            </g>
          </g>
          <g
             style="fill:#ffffff;fill-opacity:0.94117647;stroke:#a34600;stroke-opacity:1"
             transform="matrix(1.0010843,0,0,0.95375917,57.930597,3.4788469)"
             id="g1547">
            <ellipse
               style="fill:#ffffff;fill-opacity:0.94117647;fill-rule:evenodd;stroke:#a34600;stroke-width:1.99999976;stroke-linecap:butt;stroke-linejoin:miter;stroke-miterlimit:4;stroke-dasharray:none;stroke-opacity:1"
               ry="2.0666313"
               rx="1.8846371"
               id="ellipse1543"
               cy="14.612609"
               cx="-30.836912" />
            <ellipse
               style="fill:#ffffff;fill-opacity:0.94117647;fill-rule:evenodd;stroke:#a34600;stroke-width:1.99999976;stroke-linecap:butt;stroke-linejoin:miter;stroke-miterlimit:4;stroke-dasharray:none;stroke-opacity:1"
               ry="2.0666313"
               rx="1.8846371"
               id="ellipse1545"
               cy="14.699166"
               cx="-23.593306" />
          </g>
          <g
             style="fill:none;stroke:#a34600;stroke-opacity:1"
             transform="matrix(1.0010843,0,0,0.95375917,58.02711,3.4788469)"
             id="g1553">
            <path
               style="fill:none;fill-rule:evenodd;stroke:#a34600;stroke-width:1px;stroke-linecap:butt;stroke-linejoin:miter;stroke-miterlimit:4;stroke-dasharray:none;stroke-opacity:1"
               id="path1549"
               d="m -37.186516,14.624518 c -14.340024,2.75008 -4.810404,15.671871 4.375,5.25" />
            <path
               style="fill:none;fill-rule:evenodd;stroke:#a34600;stroke-width:1px;stroke-linecap:butt;stroke-linejoin:miter;stroke-miterlimit:4;stroke-dasharray:none;stroke-opacity:1"
               id="path1551"
               d="m -17.436517,14.624518 c 14.3400245,2.75008 4.810404,15.671872 -4.375,5.25" />
          </g>
          <path
             style="fill:#a34600;fill-opacity:1;fill-rule:evenodd;stroke:#a34600;stroke-width:2.16383076;stroke-linecap:butt;stroke-linejoin:miter;stroke-miterlimit:4;stroke-dasharray:none;stroke-opacity:1"
             id="path1555"
             d="m 33.12784,3.3591671 c -1.384692,1.3140551 -1.985761,2.3793068 -2.459835,2.3793068 -0.662709,0 -1.27278,-1.0652517 -2.459836,-2.3793068 -0.97292,-1.0770097 1.101306,-2.37930771 2.459836,-2.37930771 1.358531,0 3.532987,1.36090081 2.459835,2.37930771 z" />
          <path
             d="m 31.302308,50.085622 c 0,0 0.723125,3.123831 5.500191,3.669996 4.777067,0.546166 11.784656,-3.778776 14.78791,-9.501331 3.003254,-5.722555 2.402683,-11.490783 3.003253,-18.121425"
             id="path1557"
             style="fill:none;stroke:#a34600;stroke-width:1.95427048;stroke-linecap:round;stroke-linejoin:miter;stroke-miterlimit:4;stroke-dasharray:none;stroke-opacity:1" />
        </g>
      </g>
    </g>
    <g
       id="g1577"
       transform="matrix(0.26458333,0,0,0.26458333,-125.10066,29.79918)">
      <g
         id="g1575"
         transform="scale(1.5)">
        <path
           id="path1565"
           style="fill:#92a9ff;fill-opacity:1;stroke:#5370dc;stroke-width:1;stroke-linecap:round;stroke-opacity:1"
           d="m 0.5,8.5 v -4 a 4,4 90 0 1 4,-4 h 4 v 2 h 10 v -2 h 51.708984 4 a 4,4 90 0 1 4,4 v 4 h -4 v -3 h -4 v 10 h 4 v -3 h 4 v 4 a 4,4 90 0 1 -4,4 h -4 H 18.5 h -1 v 2 h -8 v -2 h -1 -4 a 4,4 90 0 1 -4,-4 v -4 z" />
        <text
           id="text1569"
           style="font-size:10px;font-family:sans-serif;text-anchor:end;fill:#282828">
          <tspan
             id="tspan1567"
             y="14"
             x="68">set heading</tspan>
        </text>
        <text
           id="text1573"
           style="font-size:6.66666651px;font-family:sans-serif;text-anchor:end;fill:#282828">
          <tspan
             id="tspan1571"
             y="12"
             x="68" />
        </text>
      </g>
    </g>
    <g
       id="g1587"
       transform="matrix(0.26458333,0,0,0.26458333,-97.054833,29.79918)">
      <g
         id="g1585"
         transform="scale(1.5)">
        <path
           id="path1579"
           style="fill:#ff6ea1;fill-opacity:1;stroke:#ff2c76;stroke-width:1;stroke-linecap:round;stroke-opacity:1"
           d="m 8.5,0.5 h 60 v 20 h -60 v -8 -1 h -6 v 3 h -2 v -8 h 2 v 3 h 6 v -1 z" />
        <text
           id="text1583"
           style="font-size:10px;font-family:sans-serif;text-anchor:start;fill:#282828">
          <tspan
             id="tspan1581"
             y="14"
             x="13">90</tspan>
        </text>
      </g>
    </g>
    <g
       id="g1597"
       transform="matrix(0.26458333,0,0,0.26458333,-125.10066,38.265849)">
      <g
         id="g1595"
         transform="scale(1.5)">
        <path
           id="path1589"
           style="fill:#d98a43;fill-opacity:1;stroke:#b7651a;stroke-width:1;stroke-linecap:round;stroke-opacity:1"
           d="m 0.5,8.5 v -4 a 4,4 90 0 1 4,-4 h 4 v 2 h 10 v -2 h 9 11.123047 4 a 4,4 90 0 1 4,4 v 4 4 4 a 4,4 90 0 1 -4,4 h -4 H 27.5 h -1 v 2 h -8 v -2 h -1 -4 a 5,5 90 0 0 -5,5 v 4 4 147 4 a 5,5 90 0 0 5,5 h 4 v 2 h 10 v -2 h 8 v 6 6 4 a 4,4 90 0 1 -4,4 h -4 -9 -1 v 2 h -8 v -2 h -1 -4 a 4,4 90 0 1 -4,-4 v -4 z" />
        <text
           id="text1593"
           style="font-size:10px;font-family:sans-serif;text-anchor:start;fill:#282828">
          <tspan
             id="tspan1591"
             y="15"
             x="5">forever</tspan>
        </text>
      </g>
    </g>
    <g
       id="g1611"
       transform="matrix(0.26458333,0,0,0.26458333,-121.3965,46.732519)">
      <g
         id="g1609"
         transform="scale(1.5)">
        <path
           id="path1599"
           style="fill:#92a9ff;fill-opacity:1;stroke:#5370dc;stroke-width:1;stroke-linecap:round;stroke-opacity:1"
           d="m 0.5,8.5 v -4 a 4,4 90 0 1 4,-4 h 4 v 2 h 10 v -2 h 33.344727 4 a 4,4 90 0 1 4,4 v 4 h -4 v -3 h -4 v 10 h 4 v -3 h 4 v 4 a 4,4 90 0 1 -4,4 h -4 H 18.5 h -1 v 2 h -8 v -2 h -1 -4 a 4,4 90 0 1 -4,-4 v -4 z" />
        <text
           id="text1603"
           style="font-size:10px;font-family:sans-serif;text-anchor:end;fill:#282828">
          <tspan
             id="tspan1601"
             y="14"
             x="50">forward</tspan>
        </text>
        <text
           id="text1607"
           style="font-size:6.66666651px;font-family:sans-serif;text-anchor:end;fill:#282828">
          <tspan
             id="tspan1605"
             y="12"
             x="50" />
        </text>
      </g>
    </g>
    <g
       id="g1621"
       transform="matrix(0.26458333,0,0,0.26458333,-100.49441,46.732519)">
      <g
         id="g1619"
         transform="scale(1.5)">
        <path
           id="path1613"
           style="fill:#ff6ea1;fill-opacity:1;stroke:#ff2c76;stroke-width:1;stroke-linecap:round;stroke-opacity:1"
           d="m 8.5,0.5 h 60 v 20 h -60 v -8 -1 h -6 v 3 h -2 v -8 h 2 v 3 h 6 v -1 z" />
        <text
           id="text1617"
           style="font-size:10px;font-family:sans-serif;text-anchor:start;fill:#282828">
          <tspan
             id="tspan1615"
             y="14"
             x="13">10</tspan>
        </text>
      </g>
    </g>
    <g
       id="g1635"
       transform="matrix(0.26458333,0,0,0.26458333,-121.3965,55.19918)">
      <g
         id="g1633"
         transform="scale(1.5)">
        <path
           id="path1623"
           style="fill:#d98a43;fill-opacity:1;stroke:#b7651a;stroke-width:1;stroke-linecap:round;stroke-opacity:1"
           d="m 0.5,8.5 v -4 a 4,4 90 0 1 4,-4 h 4 v 2 h 10 v -2 h 9 15 4 a 4,4 90 0 1 4,4 v 4 9 a 8,8 90 0 0 -8,8 8,8 90 0 0 8,8 v 4 a 4,4 90 0 1 -4,4 h -4 -15 -1 v 2 h -8 v -2 h -1 -4 a 5,5 90 0 0 -5,5 v 4 4 63 4 a 5,5 90 0 0 5,5 h 4 v 2 h 10 v -2 h 8 v 6 6 4 a 4,4 90 0 1 -4,4 h -4 -9 -1 v 2 h -8 v -2 h -1 -4 a 4,4 90 0 1 -4,-4 v -4 z" />
        <text
           id="text1627"
           style="font-size:10px;font-family:sans-serif;text-anchor:start;fill:#282828">
          <tspan
             id="tspan1625"
             y="19"
             x="5">if</tspan>
        </text>
        <text
           id="text1631"
           style="font-size:6.66666651px;font-family:sans-serif;text-anchor:end;fill:#282828">
          <tspan
             id="tspan1629"
             y="38"
             x="46">then</tspan>
        </text>
      </g>
    </g>
    <g
       id="g1647"
       transform="matrix(0.26458333,0,0,0.26458333,-104.19858,55.19918)">
      <g
         id="g1645"
         transform="scale(1.5)">
        <g
           id="g1639"
           transform="translate(0,-16)">
          <path
             id="path1637"
             style="fill:#d97df5;fill-opacity:1;stroke:#b653d3;stroke-width:1;stroke-linecap:round;stroke-opacity:1"
             d="m 0.5,41.5 a 7,7 90 0 1 7,-7 h 1 v -10 a 8,8 90 0 1 8,-8 h 34 v 8 h -4 v -3 h -4 v 10 h 4 v -3 h 4 v 17 h -4 v -3 h -4 v 10 h 4 v -3 h 4 v 8 h -30 -12 v -8 -1 h -1 a 7,7 90 0 1 -7,-7 z" />
        </g>
        <text
           id="text1643"
           style="font-size:14px;font-family:sans-serif;text-anchor:end;fill:#282828">
          <tspan
             id="tspan1641"
             y="26"
             x="38">&gt;</tspan>
        </text>
      </g>
    </g>
    <g
       id="g1657"
       transform="matrix(0.26458333,0,0,0.26458333,-98.113164,88.801269)">
      <g
         id="g1655"
         transform="scale(1.5)">
        <path
           id="path1649"
           style="fill:#92a9ff;fill-opacity:1;stroke:#5370dc;stroke-width:1;stroke-linecap:round;stroke-opacity:1"
           d="m 8.5,0.5 h 70 v 20 h -70 v -8 -1 h -6 v 3 h -2 v -8 h 2 v 3 h 6 v -1 z" />
        <text
           id="text1653"
           style="font-size:10px;font-family:sans-serif;text-anchor:start;fill:#282828">
          <tspan
             id="tspan1651"
             y="14"
             x="13">y</tspan>
        </text>
      </g>
    </g>
    <g
       id="g1675"
       transform="matrix(0.26458333,0,0,0.26458333,-117.69233,80.3346)">
      <g
         id="g1673"
         transform="scale(1.5)">
        <path
           id="path1659"
           style="fill:#92a9ff;fill-opacity:1;stroke:#5370dc;stroke-width:1;stroke-linecap:round;stroke-opacity:1"
           d="m 0.5,8.5 v -4 a 4,4 90 0 1 4,-4 h 4 v 2 h 10 v -2 h 30 4 a 4,4 90 0 1 4,4 v 4 h -4 v -3 h -4 v 10 h 4 v -3 h 4 v 17 h -4 v -3 h -4 v 10 h 4 v -3 h 4 v 4 a 4,4 90 0 1 -4,4 h -4 -30 -1 v 2 h -8 v -2 h -1 -4 a 4,4 90 0 1 -4,-4 v -4 -21 z" />
        <text
           id="text1663"
           style="font-size:10px;font-family:sans-serif;text-anchor:end;fill:#282828">
          <tspan
             id="tspan1661"
             y="24"
             x="46">set xy</tspan>
        </text>
        <text
           id="text1667"
           style="font-size:6.66666651px;font-family:sans-serif;text-anchor:end;fill:#282828">
          <tspan
             id="tspan1665"
             y="12"
             x="46">x</tspan>
        </text>
        <text
           id="text1671"
           style="font-size:6.66666651px;font-family:sans-serif;text-anchor:end;fill:#282828">
          <tspan
             id="tspan1669"
             y="33"
             x="46">y</tspan>
        </text>
      </g>
    </g>
    <g
       id="g1685"
       transform="matrix(0.26458333,0,0,0.26458333,-87.000664,63.66585)">
      <g
         id="g1683"
         transform="scale(1.5)">
        <path
           id="path1677"
           style="fill:#ff6648;fill-opacity:1;stroke:#ea4326;stroke-width:1;stroke-linecap:round;stroke-opacity:1"
           d="m 8.5,0.5 h 70 v 20 h -70 v -8 -1 h -6 v 3 h -2 v -8 h 2 v 3 h 6 v -1 z" />
        <text
           id="text1681"
           style="font-size:10px;font-family:sans-serif;text-anchor:start;fill:#282828">
          <tspan
             id="tspan1679"
             y="14"
             x="13">right</tspan>
        </text>
      </g>
    </g>
    <g
       id="g1695"
       transform="matrix(0.26458333,0,0,0.26458333,-98.113164,80.3346)">
      <g
         id="g1693"
         transform="scale(1.5)">
        <path
           id="path1687"
           style="fill:#ff6648;fill-opacity:1;stroke:#ea4326;stroke-width:1;stroke-linecap:round;stroke-opacity:1"
           d="m 8.5,0.5 h 70 v 20 h -70 v -8 -1 h -6 v 3 h -2 v -8 h 2 v 3 h 6 v -1 z" />
        <text
           id="text1691"
           style="font-size:10px;font-family:sans-serif;text-anchor:start;fill:#282828">
          <tspan
             id="tspan1689"
             y="14"
             x="13">left</tspan>
        </text>
      </g>
    </g>
    <g
       id="g1705"
       transform="matrix(0.26458333,0,0,0.26458333,-87.000664,55.19918)">
      <g
         id="g1703"
         transform="scale(1.5)">
        <path
           id="path1697"
           style="fill:#92a9ff;fill-opacity:1;stroke:#5370dc;stroke-width:1;stroke-linecap:round;stroke-opacity:1"
           d="m 8.5,0.5 h 70 v 20 h -70 v -8 -1 h -6 v 3 h -2 v -8 h 2 v 3 h 6 v -1 z" />
        <text
           id="text1701"
           style="font-size:10px;font-family:sans-serif;text-anchor:start;fill:#282828">
          <tspan
             id="tspan1699"
             y="14"
             x="13">x</tspan>
        </text>
      </g>
    </g>
    <g
       id="g1745"
       transform="matrix(0.26458333,0,0,0.26458333,-117.69233,71.86793)">
      <g
         id="g1743"
         transform="scale(1.5)">
        <path
           id="path1737"
           style="fill:#92a9ff;fill-opacity:1;stroke:#5370dc;stroke-width:1;stroke-linecap:round;stroke-opacity:1"
           d="m 0.5,8.5 v -4 a 4,4 90 0 1 4,-4 h 4 v 2 h 10 v -2 h 30.585937 4 a 4,4 90 0 1 4,4 v 4 4 4 a 4,4 90 0 1 -4,4 h -4 H 18.5 h -1 v 2 h -8 v -2 h -1 -4 a 4,4 90 0 1 -4,-4 v -4 z" />
        <text
           id="text1741"
           style="font-size:10px;font-family:sans-serif;text-anchor:end;fill:#282828">
          <tspan
             id="tspan1739"
             y="14"
             x="47">pen up</tspan>
        </text>
      </g>
    </g>
    <g
       id="g1755"
       transform="matrix(0.26458333,0,0,0.26458333,-117.69233,97.00335)">
      <g
         id="g1753"
         transform="scale(1.5)">
        <path
           id="path1747"
           style="fill:#92a9ff;fill-opacity:1;stroke:#5370dc;stroke-width:1;stroke-linecap:round;stroke-opacity:1"
           d="m 0.5,8.5 v -4 a 4,4 90 0 1 4,-4 h 4 v 2 h 10 v -2 h 43.369141 4 a 4,4 90 0 1 4,4 v 4 4 4 a 4,4 90 0 1 -4,4 h -4 H 18.5 h -1 v 2 h -8 v -2 h -1 -4 a 4,4 90 0 1 -4,-4 v -4 z" />
        <text
           id="text1751"
           style="font-size:10px;font-family:sans-serif;text-anchor:end;fill:#282828">
          <tspan
             id="tspan1749"
             y="14"
             x="60">pen down</tspan>
        </text>
      </g>
    </g>
  </g>
</svg>
