<?xml version="1.0" encoding="UTF-8" standalone="no"?>
<svg
   xmlns:dc="http://purl.org/dc/elements/1.1/"
   xmlns:cc="http://creativecommons.org/ns#"
   xmlns:rdf="http://www.w3.org/1999/02/22-rdf-syntax-ns#"
   xmlns:svg="http://www.w3.org/2000/svg"
   xmlns="http://www.w3.org/2000/svg"
   width="72.363541mm"
   height="17.4625mm"
   viewBox="0 0 72.363541 17.4625"
   version="1.1"
   id="svg2069">
  <defs
     id="defs2063" />
  <metadata
     id="metadata2066">
    <rdf:RDF>
      <cc:Work
         rdf:about="">
        <dc:format>image/svg+xml</dc:format>
        <dc:type
           rdf:resource="http://purl.org/dc/dcmitype/StillImage" />
        <dc:title></dc:title>
      </cc:Work>
    </rdf:RDF>
  </metadata>
  <g
     id="layer1"
     transform="translate(-576.89561,-254.34017)">
    <g
       id="g2033"
       transform="matrix(0.26458333,0,0,0.26458333,442.2227,101.41101)">
      <g
         transform="translate(634,578)"
         id="g80">
        <g
           transform="scale(1.5)"
           id="g78">
          <path
             d="m 8.5,0.5 h 90 v 20 h -90 v -8 -1 h -6 v 3 h -2 v -8 h 2 v 3 h 6 v -1 z"
             style="fill:#ff664b;fill-opacity:1;stroke:#ea4326;stroke-width:1;stroke-linecap:round;stroke-opacity:1"
             id="path72" />
          <text
             style="font-size:10px;font-family:sans-serif;text-anchor:start;fill:#282828"
             id="text76"><tspan
               x="13"
               y="14"
               id="tspan74">My Dictionary</tspan></text>
        </g>
      </g>
      <g
         transform="translate(509,578)"
         id="g294">
        <g
           transform="scale(1.5)"
           id="g292">
          <path
             d="m 0.5,8.5 v -4 a 4,4 90 0 1 4,-4 h 4 v 2 h 10 v -2 h 64.482422 4 a 4,4 90 0 1 4,4 v 4 h -4 v -3 h -4 v 10 h 4 v -3 h 4 v 17 h -4 v -3 h -4 v 10 h 4 v -3 h 4 v 4 a 4,4 90 0 1 -4,4 h -4 H 18.5 h -1 v 2 h -8 v -2 h -1 -4 a 4,4 90 0 1 -4,-4 v -4 -21 z"
             style="fill:#c4c4c4;fill-opacity:1;stroke:#a0a0a0;stroke-width:1;stroke-linecap:round;stroke-opacity:1"
             id="path278" />
          <text
             style="font-size:10px;font-family:sans-serif;text-anchor:end;fill:#282828"
             id="text282"><tspan
               x="81"
               y="24"
               id="tspan280">load dictionary</tspan></text>
          <text
             style="font-size:6.66667px;font-family:sans-serif;text-anchor:end;fill:#282828"
             id="text286"><tspan
               x="81"
               y="12"
               id="tspan284">name</tspan></text>
          <text
             style="font-size:6.66667px;font-family:sans-serif;text-anchor:end;fill:#282828"
             id="text290"><tspan
               x="81"
               y="33"
               id="tspan288">file</tspan></text>
        </g>
      </g>
      <g
         transform="translate(634,610)"
         id="g314">
        <g
           transform="scale(1.5)"
           id="g312">
          <path
             d="m 8.5,0.5 h 60 v 20 h -60 v -8 -1 h -6 v 3 h -2 v -8 h 2 v 3 h 6 v -1 z"
             style="fill:#ff664b;fill-opacity:1;stroke:#ea4326;stroke-width:1;stroke-linecap:round;stroke-opacity:1"
             id="path306" />
          <text
             style="font-size:10px;font-family:sans-serif;text-anchor:start;fill:#282828"
             id="text310"><tspan
               x="13"
               y="14"
               id="tspan308" /></text>
        </g>
      </g>
    </g>
  </g>
</svg>
