<?xml version="1.0" encoding="UTF-8" standalone="no"?>
<svg
   xmlns:dc="http://purl.org/dc/elements/1.1/"
   xmlns:cc="http://creativecommons.org/ns#"
   xmlns:rdf="http://www.w3.org/1999/02/22-rdf-syntax-ns#"
   xmlns:svg="http://www.w3.org/2000/svg"
   xmlns="http://www.w3.org/2000/svg"
   id="svg1521"
   version="1.1"
   viewBox="0 0 56.100063 9.1281255"
   height="34.5"
   width="212.03174">
  <defs
     id="defs1515" />
  <metadata
     id="metadata1518">
    <rdf:RDF>
      <cc:Work
         rdf:about="">
        <dc:format>image/svg+xml</dc:format>
        <dc:type
           rdf:resource="http://purl.org/dc/dcmitype/StillImage" />
        <dc:title></dc:title>
      </cc:Work>
    </rdf:RDF>
  </metadata>
  <g
     transform="translate(-42.072402,-284.6116)"
     id="layer1">
    <g
       transform="matrix(0.26458333,0,0,0.26458333,42.072402,284.6116)"
       id="g1441">
      <g
         id="g1439"
         transform="scale(1.5)">
        <path
           id="path1429"
           style="fill:#949494;fill-opacity:1;stroke:#000000;stroke-width:1;stroke-linecap:round;stroke-opacity:1"
           d="m 0.5,8.5 v -4 a 4,4 90 0 1 4,-4 h 4 v 2 h 10 v -2 h 53.354492 4 a 4,4 90 0 1 4,4 v 4 h -4 v -3 h -4 v 10 h 4 v -3 h 4 v 4 a 4,4 90 0 1 -4,4 h -4 H 18.5 h -1 v 2 h -8 v -2 h -1 -4 a 4,4 90 0 1 -4,-4 v -4 z" />
        <text
           id="text1433"
           style="font-size:10px;font-family:sans-serif;text-anchor:end;fill:#000000">
          <tspan
             id="tspan1431"
             y="13.5"
             x="69.687828">mouse sync</tspan>
        </text>
        <text
           id="text1437"
           style="font-size:6.66666651px;font-family:sans-serif;text-anchor:end;fill:#000000">
          <tspan
             id="tspan1435"
             y="11.25"
             x="69.687828" />
        </text>
      </g>
    </g>
    <g
       id="g1451"
       transform="matrix(0.26458333,0,0,0.26458333,70.788092,284.6116)">
      <g
         id="g1449"
         transform="scale(1.5)">
        <path
           id="path1443"
           style="fill:#76dbd7;fill-opacity:1;stroke:#003b41;stroke-width:1;stroke-linecap:round;stroke-opacity:1"
           d="m 8.5,0.5 h 60 v 20 h -60 v -8 -1 h -6 v 3 h -2 v -8 h 2 v 3 h 6 v -1 z" />
        <text
           id="text1447"
           style="font-size:10px;font-family:sans-serif;text-anchor:start;fill:#000000">
          <tspan
             id="tspan1445"
             y="13.833333"
             x="13.333333">Mr. Mouse</tspan>
        </text>
      </g>
    </g>
  </g>
</svg>
