<?xml version="1.0" encoding="UTF-8" standalone="no"?>
<svg
   xmlns:dc="http://purl.org/dc/elements/1.1/"
   xmlns:cc="http://creativecommons.org/ns#"
   xmlns:rdf="http://www.w3.org/1999/02/22-rdf-syntax-ns#"
   xmlns:svg="http://www.w3.org/2000/svg"
   xmlns="http://www.w3.org/2000/svg"
   id="svg5768"
   version="1.1"
   viewBox="0 0 84.931252 42.465626"
   height="42.465626mm"
   width="84.931252mm">
  <defs
     id="defs5762" />
  <metadata
     id="metadata5765">
    <rdf:RDF>
      <cc:Work
         rdf:about="">
        <dc:format>image/svg+xml</dc:format>
        <dc:type
           rdf:resource="http://purl.org/dc/dcmitype/StillImage" />
        <dc:title></dc:title>
      </cc:Work>
    </rdf:RDF>
  </metadata>
  <g
     transform="translate(71.191818,50.804241)"
     id="layer1">
    <g
       id="g5691"
       transform="matrix(0.26458333,0,0,0.26458333,-184.1689,-71.706324)">
      <g
         id="g2110">
        <g
           transform="translate(427,79)"
           id="g2090">
          <g
             transform="scale(1.5)"
             id="g2088">
            <path
               d="m 0.5,8.5 v -4 a 4,4 90 0 1 4,-4 h 4 v 2 h 10 v -2 h 9 60 4 a 4,4 90 0 1 4,4 v 4 h -4 v -3 h -4 v 10 h 4 v -3 h 4 v 4 a 4,4 90 0 1 -4,4 h -4 -60 -1 v 2 h -8 v -2 h -1 -4 a 5,5 90 0 0 -5,5 v 4 4 42 4 a 5,5 90 0 0 5,5 h 4 v 2 h 10 v -2 h 8 v 6 6 4 a 4,4 90 0 1 -4,4 h -4 -9 -1 v 2 h -8 v -2 h -1 -4 a 4,4 90 0 1 -4,-4 v -4 z"
               style="fill:#fe994f;fill-opacity:1;stroke:#e86b0e;stroke-width:1;stroke-linecap:round;stroke-opacity:1"
               id="path2078" />
            <text
               style="font-size:10px;font-family:sans-serif;text-anchor:start;fill:#282828"
               id="text2082">
              <tspan
                 x="20"
                 y="15"
                 id="tspan2080">note</tspan>
            </text>
            <text
               style="font-size:6.66666651px;font-family:sans-serif;text-anchor:end;fill:#282828"
               id="text2086">
              <tspan
                 x="85"
                 y="12"
                 id="tspan2084">value</tspan>
            </text>
          </g>
        </g>
        <g
           transform="matrix(0.5,0,0,0.5,427,83)"
           id="g2108">
          <g
             style="isolation:isolate"
             id="g2106">
            <g
               id="g2104"
               data-name="レイヤー 2">
              <g
                 id="g2102">
                <rect
                   width="42"
                   height="42"
                   rx="5"
                   ry="5"
                   style="opacity:0.4;mix-blend-mode:multiply;fill:#292929"
                   id="rect2092"
                   x="0"
                   y="0" />
                <path
                   d="m 30.56,29.8 -4.17,-4.16 h 2.26 a 1.035,1.035 0 1 0 0,-2.07 h -4.71 a 1.08,1.08 0 0 0 -1.11,1 v 0 c 0,0 0,0 0,0.06 v 4.64 0 a 1.04,1.04 0 1 0 2.08,0 v -2.19 l 4.19,4.19 a 1,1 0 0 0 1.46,0 1,1 0 0 0 0,-1.47 z"
                   style="fill:#ffffff"
                   id="path2094" />
                <path
                   d="m 19.17,24.6 a 1.08,1.08 0 0 0 -1.11,-1 h -4.71 a 1.035,1.035 0 1 0 0,2.07 h 2.25 l -4.16,4.13 a 1.039447,1.039447 0 0 0 1.47,1.47 l 4.18,-4.19 v 2.26 a 1.04,1.04 0 1 0 2.08,0 V 24.7 c 0,0 0,0 0,-0.06 a 0.08,0.08 0 0 1 0,-0.04 z"
                   style="fill:#ffffff"
                   id="path2096" />
                <path
                   d="m 23.94,20.5 h 4.7 a 1.04,1.04 0 1 0 0,-2.08 h -2.25 l 4.17,-4.16 a 1,1 0 0 0 0,-1.47 1,1 0 0 0 -1.46,0 L 24.91,17 v -2.28 a 1.04,1.04 0 1 0 -2.08,0 v 4.64 a 0.43,0.43 0 0 0 0,0.05 v 0.05 a 1.09,1.09 0 0 0 1.11,1.04 z"
                   style="fill:#ffffff"
                   id="path2098" />
                <path
                   d="m 18.13,13.62 a 1.08,1.08 0 0 0 -1,1.09 V 17 l -4.18,-4.19 a 1,1 0 0 0 -1.47,0 1,1 0 0 0 0,1.46 l 4.16,4.17 h -2.29 a 1.04,1.04 0 1 0 0,2.08 h 4.71 a 1.09,1.09 0 0 0 1.11,-1 c 0,0 0,0 0,-0.06 v -4.75 a 1.07,1.07 0 0 0 -1.04,-1.09 z"
                   style="fill:#ffffff"
                   id="path2100" />
              </g>
            </g>
          </g>
        </g>
      </g>
      <g
         transform="translate(559,79)"
         id="g2128">
        <g
           transform="scale(1.5)"
           id="g2126">
          <path
             d="m 8.5,8.5 v -4 a 4,4 90 0 1 4,-4 h 4 10 30 4 a 4,4 90 0 1 4,4 v 4 h -4 v -3 h -4 v 10 h 4 v -3 h 4 v 17 h -4 v -3 h -4 v 10 h 4 v -3 h 4 v 4 a 4,4 90 0 1 -4,4 h -4 -30 -10 -4 a 4,4 90 0 1 -4,-4 v -4 -21 -1 h -6 v 3 h -2 v -8 h 2 v 3 h 6 z"
             style="fill:#ff6ea1;fill-opacity:1;stroke:#ff2c76;stroke-width:1;stroke-linecap:round;stroke-opacity:1"
             id="path2112" />
          <text
             style="font-size:9px;font-family:sans-serif;text-anchor:end;fill:#282828"
             id="text2116">
            <tspan
               x="54"
               y="23"
               id="tspan2114">➗</tspan>
          </text>
          <text
             style="font-size:6px;font-family:sans-serif;text-anchor:end;fill:#282828"
             id="text2120">
            <tspan
               x="54"
               y="12"
               id="tspan2118" />
          </text>
          <text
             style="font-size:6px;font-family:sans-serif;text-anchor:end;fill:#282828"
             id="text2124">
            <tspan
               x="54"
               y="33"
               id="tspan2122" />
          </text>
        </g>
      </g>
      <g
         transform="translate(644.5,79)"
         id="g2138">
        <g
           transform="scale(1.5)"
           id="g2136">
          <path
             d="m 8.5,0.5 h 60 v 20 h -60 v -8 -1 h -6 v 3 h -2 v -8 h 2 v 3 h 6 v -1 z"
             style="fill:#ff6ea1;fill-opacity:1;stroke:#ff2c76;stroke-width:1;stroke-linecap:round;stroke-opacity:1"
             id="path2130" />
          <text
             style="font-size:10px;font-family:sans-serif;text-anchor:start;fill:#282828"
             id="text2134">
            <tspan
               x="13"
               y="14"
               id="tspan2132">1</tspan>
          </text>
        </g>
      </g>
      <g
         transform="translate(644.5,110.5)"
         id="g2148">
        <g
           transform="scale(1.5)"
           id="g2146">
          <path
             d="m 8.5,0.5 h 60 v 20 h -60 v -8 -1 h -6 v 3 h -2 v -8 h 2 v 3 h 6 v -1 z"
             style="fill:#ff6ea1;fill-opacity:1;stroke:#ff2c76;stroke-width:1;stroke-linecap:round;stroke-opacity:1"
             id="path2140" />
          <text
             style="font-size:10px;font-family:sans-serif;text-anchor:start;fill:#282828"
             id="text2144">
            <tspan
               x="13"
               y="14"
               id="tspan2142">4</tspan>
          </text>
        </g>
      </g>
      <g
         transform="translate(440.5,110.5)"
         id="g2158">
        <g
           transform="scale(1.5)"
           id="g2156">
          <path
             d="m 0.5,8.5 v -4 a 4,4 90 0 1 4,-4 h 4 v 2 h 10 v -2 h 20 4 a 4,4 90 0 1 4,4 v 4 4 4 a 4,4 90 0 1 -4,4 h -4 -20 -1 v 2 h -8 v -2 h -1 -4 a 4,4 90 0 1 -4,-4 v -4 z"
             style="fill:#c4c4c4;fill-opacity:1;stroke:#a0a0a0;stroke-width:1;stroke-linecap:round;stroke-opacity:1"
             id="path2150" />
          <text
             style="font-size:10px;font-family:sans-serif;text-anchor:end;fill:#282828"
             id="text2154">
            <tspan
               x="36"
               y="14"
               id="tspan2152">↓</tspan>
          </text>
        </g>
      </g>
      <g
         transform="translate(440.5,142)"
         id="g2176">
        <g
           transform="scale(1.5)"
           id="g2174">
          <path
             d="m 0.5,8.5 v -4 a 4,4 90 0 1 4,-4 h 4 v 2 h 10 v -2 h 30 4 a 4,4 90 0 1 4,4 v 4 h -4 v -3 h -4 v 10 h 4 v -3 h 4 v 17 h -4 v -3 h -4 v 10 h 4 v -3 h 4 v 4 a 4,4 90 0 1 -4,4 h -4 -30 -1 v 2 h -8 v -2 h -1 -4 a 4,4 90 0 1 -4,-4 v -4 -21 z"
             style="fill:#7cd622;fill-opacity:1;stroke:#57ad02;stroke-width:1;stroke-linecap:round;stroke-opacity:1"
             id="path2160" />
          <text
             style="font-size:10px;font-family:sans-serif;text-anchor:end;fill:#282828"
             id="text2164">
            <tspan
               x="46"
               y="24"
               id="tspan2162">pitch</tspan>
          </text>
          <text
             style="font-size:6.66666651px;font-family:sans-serif;text-anchor:end;fill:#282828"
             id="text2168">
            <tspan
               x="46"
               y="12"
               id="tspan2166">name</tspan>
          </text>
          <text
             style="font-size:6.66666651px;font-family:sans-serif;text-anchor:end;fill:#282828"
             id="text2172">
            <tspan
               x="46"
               y="33"
               id="tspan2170">octave</tspan>
          </text>
        </g>
      </g>
      <g
         transform="translate(514,142)"
         id="g2186">
        <g
           transform="scale(1.5)"
           id="g2184">
          <path
             d="m 8.5,0.5 h 60 v 20 h -60 v -8 -1 h -6 v 3 h -2 v -8 h 2 v 3 h 6 v -1 z"
             style="fill:#7cd622;fill-opacity:1;stroke:#57ad02;stroke-width:1;stroke-linecap:round;stroke-opacity:1"
             id="path2178" />
          <text
             style="font-size:10px;font-family:sans-serif;text-anchor:start;fill:#282828"
             id="text2182">
            <tspan
               x="13"
               y="14"
               id="tspan2180">sol</tspan>
          </text>
        </g>
      </g>
      <g
         transform="translate(514,173.5)"
         id="g2196">
        <g
           transform="scale(1.5)"
           id="g2194">
          <path
             d="m 8.5,0.5 h 60 v 20 h -60 v -8 -1 h -6 v 3 h -2 v -8 h 2 v 3 h 6 v -1 z"
             style="fill:#ff6ea1;fill-opacity:1;stroke:#ff2c76;stroke-width:1;stroke-linecap:round;stroke-opacity:1"
             id="path2188" />
          <text
             style="font-size:10px;font-family:sans-serif;text-anchor:start;fill:#282828"
             id="text2192">
            <tspan
               x="13"
               y="14"
               id="tspan2190">4</tspan>
          </text>
        </g>
      </g>
    </g>
  </g>
</svg>
