<svg xmlns="http://www.w3.org/2000/svg" width="114.4" height="171.6"><g transform="scale(2, 2)"><filter id="dropshadow" height="130%">   <feGaussianBlur in="SourceAlpha" stdDeviation="3"/>   <feOffset dx="2" dy="2" result="offsetblur"/>   <feComponentTransfer xmlns="http://www.w3.org/2000/svg">     <feFuncA type="linear" slope="0.2"/>   </feComponentTransfer>   <feMerge>     <feMergeNode/>     <feMergeNode in="SourceGraphic"/>   </feMerge> </filter><path d="m0.5 57.5 A 7 7 90 0 1 7.5 50.5 L 8.5 50.5 L 8.5 8.5 A 8 8 90 0 1 16.5 0.5 L 50.5 0.5 L 50.5 4.5 A 8 8 90 0 0 42.5 12.5 A 8 8 90 0 0 50.5 20.5 L 50.5 45.5 A 8 8 90 0 0 42.5 53.5 A 8 8 90 0 0 50.5 61.5 L 50.5 65.5 L 20.5 65.5 L 8.5 65.5 L 8.5 64.5 L 7.5 64.5 A 7 7 90 0 1 0.5 57.5 z" style="fill:#ff00ff;fill-opacity:1;stroke:#c700d3;stroke-width:1;stroke-linecap:round;stroke-opacity:1;filter:url(#dropshadow);" /><text style="font-size:10px;fill:#000000;font-family:Sans;text-anchor:end"><tspan x="41" y="35.5">or</tspan></text></g></svg>