<?xml version="1.0" encoding="UTF-8" standalone="no"?>
<svg
   xmlns:rdf="http://www.w3.org/1999/02/22-rdf-syntax-ns#"
   xmlns:svg="http://www.w3.org/2000/svg"
   xmlns="http://www.w3.org/2000/svg"
   height="365.34308"
   width="251.5">
  <g
     transform="translate(-342,-165.57846)"
     id="g306">
    <g
       id="g288"
       transform="translate(342,166)">
      <g
         id="g286"
         transform="scale(1.5)">
        <path
           id="path280"
           style="fill:#7cd622;fill-opacity:1;stroke:#57ad02;stroke-width:1;stroke-linecap:round;stroke-opacity:1"
           d="m 0.5,14.5 v -4 a 4,4 90 0 1 4,-4 h 4 l 5,-6 5,6 h 9 60 4 a 4,4 90 0 1 4,4 v 4 4 4 a 4,4 90 0 1 -4,4 h -4 -60 -1 v 2 h -8 v -2 h -1 -4 a 5,5 90 0 0 -5,5 v 4 4 168 4 a 5,5 90 0 0 5,5 h 4 v 2 h 10 v -2 h 8 v 6 6 4 a 4,4 90 0 1 -4,4 h -4 -9 l -5,6 -5,-6 h -4 a 4,4 90 0 1 -4,-4 v -4 z" />
        <text
           id="text284"
           style="font-size:10px;font-family:sans-serif;text-anchor:start;fill:#282828"><tspan
             id="tspan282"
             y="22"
             x="20">status</tspan></text>
      </g>
    </g>
    <g
       id="g304">
      <g
         id="g302"
         style="isolation:isolate">
        <g
           transform="matrix(0.6483308,0,0,0.63327674,342.52011,179.15238)"
           data-name="レイヤー 2"
           id="レイヤー_2">
          <g
             id="Icon">
            <rect
               y="0"
               x="0"
               id="rect290"
               style="opacity:0.4;mix-blend-mode:multiply;fill:#292929"
               ry="5"
               rx="5"
               height="42"
               width="42" />
            <path
               id="path292"
               style="fill:#ffffff"
               d="m 30.56,29.8 -4.17,-4.16 h 2.26 a 1.035,1.035 0 1 0 0,-2.07 h -4.71 a 1.08,1.08 0 0 0 -1.11,1 v 0 c 0,0 0,0 0,0.06 v 4.64 0 a 1.04,1.04 0 1 0 2.08,0 v -2.19 l 4.19,4.19 a 1,1 0 0 0 1.46,0 1,1 0 0 0 0,-1.47 z" />
            <path
               id="path294"
               style="fill:#ffffff"
               d="m 19.17,24.6 a 1.08,1.08 0 0 0 -1.11,-1 h -4.71 a 1.035,1.035 0 1 0 0,2.07 h 2.25 l -4.16,4.13 a 1.039447,1.039447 0 0 0 1.47,1.47 l 4.18,-4.19 v 2.26 a 1.04,1.04 0 1 0 2.08,0 V 24.7 c 0,0 0,0 0,-0.06 a 0.08,0.08 0 0 1 0,-0.04 z" />
            <path
               id="path296"
               style="fill:#ffffff"
               d="m 23.94,20.5 h 4.7 a 1.04,1.04 0 1 0 0,-2.08 h -2.25 l 4.17,-4.16 a 1,1 0 0 0 0,-1.47 1,1 0 0 0 -1.46,0 L 24.91,17 v -2.28 a 1.04,1.04 0 1 0 -2.08,0 v 4.64 a 0.43,0.43 0 0 0 0,0.05 v 0.05 a 1.09,1.09 0 0 0 1.11,1.04 z" />
            <path
               id="path298"
               style="fill:#ffffff"
               d="m 18.13,13.62 a 1.08,1.08 0 0 0 -1,1.09 V 17 l -4.18,-4.19 a 1,1 0 0 0 -1.47,0 1,1 0 0 0 0,1.46 l 4.16,4.17 h -2.29 a 1.04,1.04 0 1 0 0,2.08 h 4.71 a 1.09,1.09 0 0 0 1.11,-1 c 0,0 0,0 0,-0.06 v -4.75 a 1.07,1.07 0 0 0 -1.04,-1.09 z" />
          </g>
        </g>
      </g>
    </g>
  </g>
  <g
     id="g320"
     transform="translate(14,265.42154)">
    <g
       id="g318"
       transform="scale(1.5)">
      <path
         id="path308"
         style="fill:#c4c4c4;fill-opacity:1;stroke:#a0a0a0;stroke-width:1;stroke-linecap:round;stroke-opacity:1"
         d="m 0.5,8.5 v -4 a 4,4 90 0 1 4,-4 h 4 v 2 h 10 v -2 h 30 4 a 4,4 90 0 1 4,4 v 4 h -4 v -3 h -4 v 10 h 4 v -3 h 4 v 4 a 4,4 90 0 1 -4,4 h -4 -30 -1 v 2 h -8 v -2 h -1 -4 a 4,4 90 0 1 -4,-4 v -4 z" />
      <text
         id="text312"
         style="font-size:10px;font-family:sans-serif;text-anchor:end;fill:#282828"><tspan
           id="tspan310"
           y="14"
           x="46">print</tspan></text>
      <text
         id="text316"
         style="font-size:6.66667px;font-family:sans-serif;text-anchor:end;fill:#282828"><tspan
           id="tspan314"
           y="12"
           x="46" /></text>
    </g>
  </g>
  <g
     id="g334"
     transform="translate(14,137.42154)">
    <g
       id="g332"
       transform="scale(1.5)">
      <path
         id="path322"
         style="fill:#c4c4c4;fill-opacity:1;stroke:#a0a0a0;stroke-width:1;stroke-linecap:round;stroke-opacity:1"
         d="m 0.5,8.5 v -4 a 4,4 90 0 1 4,-4 h 4 v 2 h 10 v -2 h 30 4 a 4,4 90 0 1 4,4 v 4 h -4 v -3 h -4 v 10 h 4 v -3 h 4 v 4 a 4,4 90 0 1 -4,4 h -4 -30 -1 v 2 h -8 v -2 h -1 -4 a 4,4 90 0 1 -4,-4 v -4 z" />
      <text
         id="text326"
         style="font-size:10px;font-family:sans-serif;text-anchor:end;fill:#282828"><tspan
           id="tspan324"
           y="14"
           x="46">print</tspan></text>
      <text
         id="text330"
         style="font-size:6.66667px;font-family:sans-serif;text-anchor:end;fill:#282828"><tspan
           id="tspan328"
           y="12"
           x="46" /></text>
    </g>
  </g>
  <g
     id="g344"
     transform="translate(88,137.42154)">
    <g
       id="g342"
       transform="scale(1.5)">
      <path
         id="path336"
         style="fill:#7cd622;fill-opacity:1;stroke:#57ad02;stroke-width:1;stroke-linecap:round;stroke-opacity:1"
         d="m 8.5,0.5 h 100 v 20 H 8.5 v -8 -1 h -6 v 3 h -2 v -8 h 2 v 3 h 6 v -1 z" />
      <text
         id="text340"
         style="font-size:10px;font-family:sans-serif;text-anchor:start;fill:#282828"><tspan
           id="tspan338"
           y="14"
           x="13">pitch number</tspan></text>
    </g>
  </g>
  <g
     id="g354"
     transform="translate(88,265.42154)">
    <g
       id="g352"
       transform="scale(1.5)">
      <path
         id="path346"
         style="fill:#7cd622;fill-opacity:1;stroke:#57ad02;stroke-width:1;stroke-linecap:round;stroke-opacity:1"
         d="m 8.5,0.5 h 100 v 20 H 8.5 v -8 -1 h -6 v 3 h -2 v -8 h 2 v 3 h 6 v -1 z" />
      <text
         id="text350"
         style="font-size:10px;font-family:sans-serif;text-anchor:start;fill:#282828"><tspan
           id="tspan348"
           y="14"
           x="13">nth degree</tspan></text>
    </g>
  </g>
  <g
     id="g368"
     transform="translate(14,169.42154)">
    <g
       id="g366"
       transform="scale(1.5)">
      <path
         id="path356"
         style="fill:#c4c4c4;fill-opacity:1;stroke:#a0a0a0;stroke-width:1;stroke-linecap:round;stroke-opacity:1"
         d="m 0.5,8.5 v -4 a 4,4 90 0 1 4,-4 h 4 v 2 h 10 v -2 h 30 4 a 4,4 90 0 1 4,4 v 4 h -4 v -3 h -4 v 10 h 4 v -3 h 4 v 4 a 4,4 90 0 1 -4,4 h -4 -30 -1 v 2 h -8 v -2 h -1 -4 a 4,4 90 0 1 -4,-4 v -4 z" />
      <text
         id="text360"
         style="font-size:10px;font-family:sans-serif;text-anchor:end;fill:#282828"><tspan
           id="tspan358"
           y="14"
           x="46">print</tspan></text>
      <text
         id="text364"
         style="font-size:6.66667px;font-family:sans-serif;text-anchor:end;fill:#282828"><tspan
           id="tspan362"
           y="12"
           x="46" /></text>
    </g>
  </g>
  <g
     id="g378"
     transform="translate(88,169.42154)">
    <g
       id="g376"
       transform="scale(1.5)">
      <path
         id="path370"
         style="fill:#7cd622;fill-opacity:1;stroke:#57ad02;stroke-width:1;stroke-linecap:round;stroke-opacity:1"
         d="m 8.5,0.5 h 100 v 20 H 8.5 v -8 -1 h -6 v 3 h -2 v -8 h 2 v 3 h 6 v -1 z" />
      <text
         id="text374"
         style="font-size:10px;font-family:sans-serif;text-anchor:start;fill:#282828"><tspan
           id="tspan372"
           y="14"
           x="13">pitch in hertz</tspan></text>
    </g>
  </g>
  <g
     id="g392"
     transform="translate(14,201.42154)">
    <g
       id="g390"
       transform="scale(1.5)">
      <path
         id="path380"
         style="fill:#c4c4c4;fill-opacity:1;stroke:#a0a0a0;stroke-width:1;stroke-linecap:round;stroke-opacity:1"
         d="m 0.5,8.5 v -4 a 4,4 90 0 1 4,-4 h 4 v 2 h 10 v -2 h 30 4 a 4,4 90 0 1 4,4 v 4 h -4 v -3 h -4 v 10 h 4 v -3 h 4 v 4 a 4,4 90 0 1 -4,4 h -4 -30 -1 v 2 h -8 v -2 h -1 -4 a 4,4 90 0 1 -4,-4 v -4 z" />
      <text
         id="text384"
         style="font-size:10px;font-family:sans-serif;text-anchor:end;fill:#282828"><tspan
           id="tspan382"
           y="14"
           x="46">print</tspan></text>
      <text
         id="text388"
         style="font-size:6.66667px;font-family:sans-serif;text-anchor:end;fill:#282828"><tspan
           id="tspan386"
           y="12"
           x="46" /></text>
    </g>
  </g>
  <g
     id="g402"
     transform="translate(88,201.42154)">
    <g
       id="g400"
       transform="scale(1.5)">
      <path
         id="path394"
         style="fill:#7cd622;fill-opacity:1;stroke:#57ad02;stroke-width:1;stroke-linecap:round;stroke-opacity:1"
         d="m 8.5,0.5 h 100 v 20 H 8.5 v -8 -1 h -6 v 3 h -2 v -8 h 2 v 3 h 6 v -1 z" />
      <text
         id="text398"
         style="font-size:10px;font-family:sans-serif;text-anchor:start;fill:#282828"><tspan
           id="tspan396"
           y="14"
           x="13">scalar class</tspan></text>
    </g>
  </g>
  <g
     id="g416"
     transform="translate(14,233.42154)">
    <g
       id="g414"
       transform="scale(1.5)">
      <path
         id="path404"
         style="fill:#c4c4c4;fill-opacity:1;stroke:#a0a0a0;stroke-width:1;stroke-linecap:round;stroke-opacity:1"
         d="m 0.5,8.5 v -4 a 4,4 90 0 1 4,-4 h 4 v 2 h 10 v -2 h 30 4 a 4,4 90 0 1 4,4 v 4 h -4 v -3 h -4 v 10 h 4 v -3 h 4 v 4 a 4,4 90 0 1 -4,4 h -4 -30 -1 v 2 h -8 v -2 h -1 -4 a 4,4 90 0 1 -4,-4 v -4 z" />
      <text
         id="text408"
         style="font-size:10px;font-family:sans-serif;text-anchor:end;fill:#282828"><tspan
           id="tspan406"
           y="14"
           x="46">print</tspan></text>
      <text
         id="text412"
         style="font-size:6.66667px;font-family:sans-serif;text-anchor:end;fill:#282828"><tspan
           id="tspan410"
           y="12"
           x="46" /></text>
    </g>
  </g>
  <g
     id="g426"
     transform="translate(88,233.42154)">
    <g
       id="g424"
       transform="scale(1.5)">
      <path
         id="path418"
         style="fill:#7cd622;fill-opacity:1;stroke:#57ad02;stroke-width:1;stroke-linecap:round;stroke-opacity:1"
         d="m 8.5,0.5 h 100 v 20 H 8.5 v -8 -1 h -6 v 3 h -2 v -8 h 2 v 3 h 6 v -1 z" />
      <text
         id="text422"
         style="font-size:10px;font-family:sans-serif;text-anchor:start;fill:#282828"><tspan
           id="tspan420"
           y="14"
           x="13">scale degree</tspan></text>
    </g>
  </g>
  <g
     id="g440"
     transform="translate(14,297.42154)">
    <g
       id="g438"
       transform="scale(1.5)">
      <path
         id="path428"
         style="fill:#c4c4c4;fill-opacity:1;stroke:#a0a0a0;stroke-width:1;stroke-linecap:round;stroke-opacity:1"
         d="m 0.5,8.5 v -4 a 4,4 90 0 1 4,-4 h 4 v 2 h 10 v -2 h 30 4 a 4,4 90 0 1 4,4 v 4 h -4 v -3 h -4 v 10 h 4 v -3 h 4 v 4 a 4,4 90 0 1 -4,4 h -4 -30 -1 v 2 h -8 v -2 h -1 -4 a 4,4 90 0 1 -4,-4 v -4 z" />
      <text
         id="text432"
         style="font-size:10px;font-family:sans-serif;text-anchor:end;fill:#282828"><tspan
           id="tspan430"
           y="14"
           x="46">print</tspan></text>
      <text
         id="text436"
         style="font-size:6.66667px;font-family:sans-serif;text-anchor:end;fill:#282828"><tspan
           id="tspan434"
           y="12"
           x="46" /></text>
    </g>
  </g>
  <g
     id="g450"
     transform="translate(88,297.42154)">
    <g
       id="g448"
       transform="scale(1.5)">
      <path
         id="path442"
         style="fill:#7cd622;fill-opacity:1;stroke:#57ad02;stroke-width:1;stroke-linecap:round;stroke-opacity:1"
         d="m 8.5,0.5 h 100 v 20 H 8.5 v -8 -1 h -6 v 3 h -2 v -8 h 2 v 3 h 6 v -1 z" />
      <text
         id="text446"
         style="font-size:10px;font-family:sans-serif;text-anchor:start;fill:#282828"><tspan
           id="tspan444"
           y="14"
           x="13">staff y</tspan></text>
    </g>
  </g>
  <g
     id="g464"
     transform="translate(14,73.421537)">
    <g
       id="g462"
       transform="scale(1.5)">
      <path
         id="path452"
         style="fill:#c4c4c4;fill-opacity:1;stroke:#a0a0a0;stroke-width:1;stroke-linecap:round;stroke-opacity:1"
         d="m 0.5,8.5 v -4 a 4,4 90 0 1 4,-4 h 4 v 2 h 10 v -2 h 30 4 a 4,4 90 0 1 4,4 v 4 h -4 v -3 h -4 v 10 h 4 v -3 h 4 v 4 a 4,4 90 0 1 -4,4 h -4 -30 -1 v 2 h -8 v -2 h -1 -4 a 4,4 90 0 1 -4,-4 v -4 z" />
      <text
         id="text456"
         style="font-size:10px;font-family:sans-serif;text-anchor:end;fill:#282828"><tspan
           id="tspan454"
           y="14"
           x="46">print</tspan></text>
      <text
         id="text460"
         style="font-size:6.66667px;font-family:sans-serif;text-anchor:end;fill:#282828"><tspan
           id="tspan458"
           y="12"
           x="46" /></text>
    </g>
  </g>
  <g
     id="g474"
     transform="translate(88,73.421537)">
    <g
       id="g472"
       transform="scale(1.5)">
      <path
         id="path466"
         style="fill:#7cd622;fill-opacity:1;stroke:#57ad02;stroke-width:1;stroke-linecap:round;stroke-opacity:1"
         d="m 8.5,0.5 h 100 v 20 H 8.5 v -8 -1 h -6 v 3 h -2 v -8 h 2 v 3 h 6 v -1 z" />
      <text
         id="text470"
         style="font-size:10px;font-family:sans-serif;text-anchor:start;fill:#282828"><tspan
           id="tspan468"
           y="14"
           x="13">solfege syllable</tspan></text>
    </g>
  </g>
  <g
     id="g488"
     transform="translate(14,105.42154)">
    <g
       id="g486"
       transform="scale(1.5)">
      <path
         id="path476"
         style="fill:#c4c4c4;fill-opacity:1;stroke:#a0a0a0;stroke-width:1;stroke-linecap:round;stroke-opacity:1"
         d="m 0.5,8.5 v -4 a 4,4 90 0 1 4,-4 h 4 v 2 h 10 v -2 h 30 4 a 4,4 90 0 1 4,4 v 4 h -4 v -3 h -4 v 10 h 4 v -3 h 4 v 4 a 4,4 90 0 1 -4,4 h -4 -30 -1 v 2 h -8 v -2 h -1 -4 a 4,4 90 0 1 -4,-4 v -4 z" />
      <text
         id="text480"
         style="font-size:10px;font-family:sans-serif;text-anchor:end;fill:#282828"><tspan
           id="tspan478"
           y="14"
           x="46">print</tspan></text>
      <text
         id="text484"
         style="font-size:6.66667px;font-family:sans-serif;text-anchor:end;fill:#282828"><tspan
           id="tspan482"
           y="12"
           x="46" /></text>
    </g>
  </g>
  <g
     id="g498"
     transform="translate(88,105.42154)">
    <g
       id="g496"
       transform="scale(1.5)">
      <path
         id="path490"
         style="fill:#7cd622;fill-opacity:1;stroke:#57ad02;stroke-width:1;stroke-linecap:round;stroke-opacity:1"
         d="m 8.5,0.5 h 100 v 20 H 8.5 v -8 -1 h -6 v 3 h -2 v -8 h 2 v 3 h 6 v -1 z" />
      <text
         id="text494"
         style="font-size:10px;font-family:sans-serif;text-anchor:start;fill:#282828"><tspan
           id="tspan492"
           y="14"
           x="13">pitch class</tspan></text>
    </g>
  </g>
  <g
     id="g512"
     transform="translate(14,41.421537)">
    <g
       id="g510"
       transform="scale(1.5)">
      <path
         id="path500"
         style="fill:#c4c4c4;fill-opacity:1;stroke:#a0a0a0;stroke-width:1;stroke-linecap:round;stroke-opacity:1"
         d="m 0.5,8.5 v -4 a 4,4 90 0 1 4,-4 h 4 v 2 h 10 v -2 h 30 4 a 4,4 90 0 1 4,4 v 4 h -4 v -3 h -4 v 10 h 4 v -3 h 4 v 4 a 4,4 90 0 1 -4,4 h -4 -30 -1 v 2 h -8 v -2 h -1 -4 a 4,4 90 0 1 -4,-4 v -4 z" />
      <text
         id="text504"
         style="font-size:10px;font-family:sans-serif;text-anchor:end;fill:#282828"><tspan
           id="tspan502"
           y="14"
           x="46">print</tspan></text>
      <text
         id="text508"
         style="font-size:6.66667px;font-family:sans-serif;text-anchor:end;fill:#282828"><tspan
           id="tspan506"
           y="12"
           x="46" /></text>
    </g>
  </g>
  <g
     id="g522"
     transform="translate(88,41.421537)">
    <g
       id="g520"
       transform="scale(1.5)">
      <path
         id="path514"
         style="fill:#7cd622;fill-opacity:1;stroke:#57ad02;stroke-width:1;stroke-linecap:round;stroke-opacity:1"
         d="m 8.5,0.5 h 100 v 20 H 8.5 v -8 -1 h -6 v 3 h -2 v -8 h 2 v 3 h 6 v -1 z" />
      <text
         id="text518"
         style="font-size:10px;font-family:sans-serif;text-anchor:start;fill:#282828"><tspan
           id="tspan516"
           y="14"
           x="13">letter class</tspan></text>
    </g>
  </g>
</svg>
