<?xml version="1.0" encoding="UTF-8" standalone="no"?>
<svg
   xmlns:dc="http://purl.org/dc/elements/1.1/"
   xmlns:cc="http://creativecommons.org/ns#"
   xmlns:rdf="http://www.w3.org/1999/02/22-rdf-syntax-ns#"
   xmlns:svg="http://www.w3.org/2000/svg"
   xmlns="http://www.w3.org/2000/svg"
   id="svg1899"
   version="1.1"
   viewBox="0 0 70.511466 96.663689"
   height="96.663689mm"
   width="70.511467mm">
  <defs
     id="defs1893" />
  <metadata
     id="metadata1896">
    <rdf:RDF>
      <cc:Work
         rdf:about="">
        <dc:format>image/svg+xml</dc:format>
        <dc:type
           rdf:resource="http://purl.org/dc/dcmitype/StillImage" />
        <dc:title></dc:title>
      </cc:Work>
    </rdf:RDF>
  </metadata>
  <g
     transform="translate(127.20789,-199.3215)"
     id="layer1">
    <g
       id="g486"
       transform="matrix(0.26458333,0,0,0.26458333,-245.47664,106.03512)">
      <g
         id="g466"
         transform="translate(447,353)">
        <g
           id="g464"
           transform="scale(1.5)">
          <path
             id="path458"
             style="fill:#7cd622;fill-opacity:1;stroke:#57ad02;stroke-width:1;stroke-linecap:round;stroke-opacity:1"
             d="m 0.5,14.5 v -4 c 0,-2.209139 1.790861,-4 4,-4 h 4 l 5,-6 5,6 h 9 89.9209 4 c 2.20913,0 4.69859,1.9042267 4,4 v 4 4 4 c 0,2.209139 -1.79087,4 -4,4 h -4 -89.9209 -1 v 2 h -8 v -2 h -1 -4 c -2.761424,0 -5,2.238576 -5,5 v 4 4 168 4 c 0,2.76142 2.238576,5 5,5 h 4 v 2 h 10 v -2 h 8 v 6 6 4 c 0,2.20914 -1.790861,4 -4,4 h -4 -9 l -5,6 -5,-6 h -4 c -2.209139,0 -4,-1.79086 -4,-4 v -4 z" />
          <text
             id="text462"
             style="font-size:10px;font-family:sans-serif;text-anchor:start;fill:#282828">
            <tspan
               id="tspan460"
               y="22"
               x="20">pitch-drum mapper</tspan>
          </text>
        </g>
      </g>
      <g
         id="g484"
         transform="matrix(0.5,0,0,0.5,447,365)">
        <g
           id="g482"
           style="isolation:isolate">
          <g
             data-name="レイヤー 2"
             id="g480">
            <g
               id="g478">
              <rect
                 id="rect468"
                 style="opacity:0.4;mix-blend-mode:multiply;fill:#292929"
                 ry="5"
                 rx="5"
                 height="42"
                 width="42"
                 x="0"
                 y="0" />
              <path
                 id="path470"
                 style="fill:#ffffff"
                 d="m 30.56,29.8 -4.17,-4.16 h 2.26 a 1.035,1.035 0 1 0 0,-2.07 h -4.71 a 1.08,1.08 0 0 0 -1.11,1 v 0 c 0,0 0,0 0,0.06 v 4.64 0 a 1.04,1.04 0 1 0 2.08,0 v -2.19 l 4.19,4.19 a 1,1 0 0 0 1.46,0 1,1 0 0 0 0,-1.47 z" />
              <path
                 id="path472"
                 style="fill:#ffffff"
                 d="m 19.17,24.6 a 1.08,1.08 0 0 0 -1.11,-1 h -4.71 a 1.035,1.035 0 1 0 0,2.07 h 2.25 l -4.16,4.13 a 1.039447,1.039447 0 0 0 1.47,1.47 l 4.18,-4.19 v 2.26 a 1.04,1.04 0 1 0 2.08,0 V 24.7 c 0,0 0,0 0,-0.06 a 0.08,0.08 0 0 1 0,-0.04 z" />
              <path
                 id="path474"
                 style="fill:#ffffff"
                 d="m 23.94,20.5 h 4.7 a 1.04,1.04 0 1 0 0,-2.08 h -2.25 l 4.17,-4.16 a 1,1 0 0 0 0,-1.47 1,1 0 0 0 -1.46,0 L 24.91,17 v -2.28 a 1.04,1.04 0 1 0 -2.08,0 v 4.64 a 0.43,0.43 0 0 0 0,0.05 v 0.05 a 1.09,1.09 0 0 0 1.11,1.04 z" />
              <path
                 id="path476"
                 style="fill:#ffffff"
                 d="m 18.13,13.62 a 1.08,1.08 0 0 0 -1,1.09 V 17 l -4.18,-4.19 a 1,1 0 0 0 -1.47,0 1,1 0 0 0 0,1.46 l 4.16,4.17 h -2.29 a 1.04,1.04 0 1 0 0,2.08 h 4.71 a 1.09,1.09 0 0 0 1.11,-1 c 0,0 0,0 0,-0.06 v -4.75 a 1.07,1.07 0 0 0 -1.04,-1.09 z" />
            </g>
          </g>
        </g>
      </g>
    </g>
    <g
       id="g504"
       transform="matrix(0.26458333,0,0,0.26458333,-123.50372,210.28095)">
      <g
         id="g502"
         transform="scale(1.5)">
        <path
           id="path488"
           style="fill:#7cd622;fill-opacity:1;stroke:#57ad02;stroke-width:1;stroke-linecap:round;stroke-opacity:1"
           d="m 0.5,8.5 v -4 a 4,4 90 0 1 4,-4 h 4 v 2 h 10 v -2 h 30 4 a 4,4 90 0 1 4,4 v 4 h -4 v -3 h -4 v 10 h 4 v -3 h 4 v 17 h -4 v -3 h -4 v 10 h 4 v -3 h 4 v 4 a 4,4 90 0 1 -4,4 h -4 -30 -1 v 2 h -8 v -2 h -1 -4 a 4,4 90 0 1 -4,-4 v -4 -21 z" />
        <text
           id="text492"
           style="font-size:10px;font-family:sans-serif;text-anchor:end;fill:#282828">
          <tspan
             id="tspan490"
             y="24"
             x="46">pitch</tspan>
        </text>
        <text
           id="text496"
           style="font-size:6.66666651px;font-family:sans-serif;text-anchor:end;fill:#282828">
          <tspan
             id="tspan494"
             y="12"
             x="46">name</tspan>
        </text>
        <text
           id="text500"
           style="font-size:6.66666651px;font-family:sans-serif;text-anchor:end;fill:#282828">
          <tspan
             id="tspan498"
             y="33"
             x="46">octave</tspan>
        </text>
      </g>
    </g>
    <g
       id="g514"
       transform="matrix(0.26458333,0,0,0.26458333,-103.92455,210.28095)">
      <g
         id="g512"
         transform="scale(1.5)">
        <path
           id="path506"
           style="fill:#7cd622;fill-opacity:1;stroke:#57ad02;stroke-width:1;stroke-linecap:round;stroke-opacity:1"
           d="m 8.5,0.5 h 60 v 20 h -60 v -8 -1 h -6 v 3 h -2 v -8 h 2 v 3 h 6 v -1 z" />
        <text
           id="text510"
           style="font-size:10px;font-family:sans-serif;text-anchor:start;fill:#282828">
          <tspan
             id="tspan508"
             y="14"
             x="13">sol</tspan>
        </text>
      </g>
    </g>
    <g
       id="g524"
       transform="matrix(0.26458333,0,0,0.26458333,-103.92455,218.74761)">
      <g
         id="g522"
         transform="scale(1.5)">
        <path
           id="path516"
           style="fill:#ff6ea1;fill-opacity:1;stroke:#ff2c76;stroke-width:1;stroke-linecap:round;stroke-opacity:1"
           d="m 8.5,0.5 h 60 v 20 h -60 v -8 -1 h -6 v 3 h -2 v -8 h 2 v 3 h 6 v -1 z" />
        <text
           id="text520"
           style="font-size:10px;font-family:sans-serif;text-anchor:start;fill:#282828">
          <tspan
             id="tspan518"
             y="14"
             x="13">4</tspan>
        </text>
      </g>
    </g>
    <g
       id="g542"
       transform="matrix(0.26458333,0,0,0.26458333,-123.50372,226.9497)">
      <g
         id="g540"
         transform="scale(1.5)">
        <path
           id="path526"
           style="fill:#7cd622;fill-opacity:1;stroke:#57ad02;stroke-width:1;stroke-linecap:round;stroke-opacity:1"
           d="m 0.5,8.5 v -4 a 4,4 90 0 1 4,-4 h 4 v 2 h 10 v -2 h 30 4 a 4,4 90 0 1 4,4 v 4 h -4 v -3 h -4 v 10 h 4 v -3 h 4 v 17 h -4 v -3 h -4 v 10 h 4 v -3 h 4 v 4 a 4,4 90 0 1 -4,4 h -4 -30 -1 v 2 h -8 v -2 h -1 -4 a 4,4 90 0 1 -4,-4 v -4 -21 z" />
        <text
           id="text530"
           style="font-size:10px;font-family:sans-serif;text-anchor:end;fill:#282828">
          <tspan
             id="tspan528"
             y="24"
             x="46">pitch</tspan>
        </text>
        <text
           id="text534"
           style="font-size:6.66666651px;font-family:sans-serif;text-anchor:end;fill:#282828">
          <tspan
             id="tspan532"
             y="12"
             x="46">name</tspan>
        </text>
        <text
           id="text538"
           style="font-size:6.66666651px;font-family:sans-serif;text-anchor:end;fill:#282828">
          <tspan
             id="tspan536"
             y="33"
             x="46">octave</tspan>
        </text>
      </g>
    </g>
    <g
       id="g552"
       transform="matrix(0.26458333,0,0,0.26458333,-103.92455,226.9497)">
      <g
         id="g550"
         transform="scale(1.5)">
        <path
           id="path544"
           style="fill:#7cd622;fill-opacity:1;stroke:#57ad02;stroke-width:1;stroke-linecap:round;stroke-opacity:1"
           d="m 8.5,0.5 h 60 v 20 h -60 v -8 -1 h -6 v 3 h -2 v -8 h 2 v 3 h 6 v -1 z" />
        <text
           id="text548"
           style="font-size:10px;font-family:sans-serif;text-anchor:start;fill:#282828">
          <tspan
             id="tspan546"
             y="14"
             x="13">mi</tspan>
        </text>
      </g>
    </g>
    <g
       id="g562"
       transform="matrix(0.26458333,0,0,0.26458333,-103.92455,235.41637)">
      <g
         id="g560"
         transform="scale(1.5)">
        <path
           id="path554"
           style="fill:#ff6ea1;fill-opacity:1;stroke:#ff2c76;stroke-width:1;stroke-linecap:round;stroke-opacity:1"
           d="m 8.5,0.5 h 60 v 20 h -60 v -8 -1 h -6 v 3 h -2 v -8 h 2 v 3 h 6 v -1 z" />
        <text
           id="text558"
           style="font-size:10px;font-family:sans-serif;text-anchor:start;fill:#282828">
          <tspan
             id="tspan556"
             y="14"
             x="13">4</tspan>
        </text>
      </g>
    </g>
    <g
       id="g580"
       transform="matrix(0.26458333,0,0,0.26458333,-123.50372,243.61845)">
      <g
         id="g578"
         transform="scale(1.5)">
        <path
           id="path564"
           style="fill:#7cd622;fill-opacity:1;stroke:#57ad02;stroke-width:1;stroke-linecap:round;stroke-opacity:1"
           d="m 0.5,8.5 v -4 a 4,4 90 0 1 4,-4 h 4 v 2 h 10 v -2 h 30 4 a 4,4 90 0 1 4,4 v 4 h -4 v -3 h -4 v 10 h 4 v -3 h 4 v 17 h -4 v -3 h -4 v 10 h 4 v -3 h 4 v 4 a 4,4 90 0 1 -4,4 h -4 -30 -1 v 2 h -8 v -2 h -1 -4 a 4,4 90 0 1 -4,-4 v -4 -21 z" />
        <text
           id="text568"
           style="font-size:10px;font-family:sans-serif;text-anchor:end;fill:#282828">
          <tspan
             id="tspan566"
             y="24"
             x="46">pitch</tspan>
        </text>
        <text
           id="text572"
           style="font-size:6.66666651px;font-family:sans-serif;text-anchor:end;fill:#282828">
          <tspan
             id="tspan570"
             y="12"
             x="46">name</tspan>
        </text>
        <text
           id="text576"
           style="font-size:6.66666651px;font-family:sans-serif;text-anchor:end;fill:#282828">
          <tspan
             id="tspan574"
             y="33"
             x="46">octave</tspan>
        </text>
      </g>
    </g>
    <g
       id="g590"
       transform="matrix(0.26458333,0,0,0.26458333,-103.92455,243.61845)">
      <g
         id="g588"
         transform="scale(1.5)">
        <path
           id="path582"
           style="fill:#7cd622;fill-opacity:1;stroke:#57ad02;stroke-width:1;stroke-linecap:round;stroke-opacity:1"
           d="m 8.5,0.5 h 60 v 20 h -60 v -8 -1 h -6 v 3 h -2 v -8 h 2 v 3 h 6 v -1 z" />
        <text
           id="text586"
           style="font-size:10px;font-family:sans-serif;text-anchor:start;fill:#282828">
          <tspan
             id="tspan584"
             y="14"
             x="13">re</tspan>
        </text>
      </g>
    </g>
    <g
       id="g600"
       transform="matrix(0.26458333,0,0,0.26458333,-103.92455,252.08512)">
      <g
         id="g598"
         transform="scale(1.5)">
        <path
           id="path592"
           style="fill:#ff6ea1;fill-opacity:1;stroke:#ff2c76;stroke-width:1;stroke-linecap:round;stroke-opacity:1"
           d="m 8.5,0.5 h 60 v 20 h -60 v -8 -1 h -6 v 3 h -2 v -8 h 2 v 3 h 6 v -1 z" />
        <text
           id="text596"
           style="font-size:10px;font-family:sans-serif;text-anchor:start;fill:#282828">
          <tspan
             id="tspan594"
             y="14"
             x="13">4</tspan>
        </text>
      </g>
    </g>
    <g
       id="g614"
       transform="matrix(0.26458333,0,0,0.26458333,-123.50372,260.2872)">
      <g
         id="g612"
         transform="scale(1.5)">
        <path
           id="path602"
           style="fill:#3edcdd;fill-opacity:1;stroke:#1dbcbd;stroke-width:1;stroke-linecap:round;stroke-opacity:1"
           d="m 0.5,8.5 v -4 a 4,4 90 0 1 4,-4 h 4 v 2 h 10 v -2 h 30 4 a 4,4 90 0 1 4,4 v 4 h -4 v -3 h -4 v 10 h 4 v -3 h 4 v 4 a 4,4 90 0 1 -4,4 h -4 -30 -1 v 2 h -8 v -2 h -1 -4 a 4,4 90 0 1 -4,-4 v -4 z" />
        <text
           id="text606"
           style="font-size:10px;font-family:sans-serif;text-anchor:end;fill:#282828">
          <tspan
             id="tspan604"
             y="14"
             x="46">drum</tspan>
        </text>
        <text
           id="text610"
           style="font-size:6.66666651px;font-family:sans-serif;text-anchor:end;fill:#282828">
          <tspan
             id="tspan608"
             y="12"
             x="46" />
        </text>
      </g>
    </g>
    <g
       id="g624"
       transform="matrix(0.26458333,0,0,0.26458333,-103.92455,260.2872)">
      <g
         id="g622"
         transform="scale(1.5)">
        <path
           id="path616"
           style="fill:#3edcdd;fill-opacity:1;stroke:#1dbcbd;stroke-width:1;stroke-linecap:round;stroke-opacity:1"
           d="m 8.5,0.5 h 110 v 20 H 8.5 v -8 -1 h -6 v 3 h -2 v -8 h 2 v 3 h 6 v -1 z" />
        <text
           id="text620"
           style="font-size:10px;font-family:sans-serif;text-anchor:start;fill:#282828">
          <tspan
             id="tspan618"
             y="14"
             x="13">kick drum</tspan>
        </text>
      </g>
    </g>
    <g
       id="g638"
       transform="matrix(0.26458333,0,0,0.26458333,-123.50372,268.75387)">
      <g
         id="g636"
         transform="scale(1.5)">
        <path
           id="path626"
           style="fill:#3edcdd;fill-opacity:1;stroke:#1dbcbd;stroke-width:1;stroke-linecap:round;stroke-opacity:1"
           d="m 0.5,8.5 v -4 a 4,4 90 0 1 4,-4 h 4 v 2 h 10 v -2 h 30 4 a 4,4 90 0 1 4,4 v 4 h -4 v -3 h -4 v 10 h 4 v -3 h 4 v 4 a 4,4 90 0 1 -4,4 h -4 -30 -1 v 2 h -8 v -2 h -1 -4 a 4,4 90 0 1 -4,-4 v -4 z" />
        <text
           id="text630"
           style="font-size:10px;font-family:sans-serif;text-anchor:end;fill:#282828">
          <tspan
             id="tspan628"
             y="14"
             x="46">drum</tspan>
        </text>
        <text
           id="text634"
           style="font-size:6.66666651px;font-family:sans-serif;text-anchor:end;fill:#282828">
          <tspan
             id="tspan632"
             y="12"
             x="46" />
        </text>
      </g>
    </g>
    <g
       id="g648"
       transform="matrix(0.26458333,0,0,0.26458333,-103.92455,268.75387)">
      <g
         id="g646"
         transform="scale(1.5)">
        <path
           id="path640"
           style="fill:#3edcdd;fill-opacity:1;stroke:#1dbcbd;stroke-width:1;stroke-linecap:round;stroke-opacity:1"
           d="m 8.5,0.5 h 110 v 20 H 8.5 v -8 -1 h -6 v 3 h -2 v -8 h 2 v 3 h 6 v -1 z" />
        <text
           id="text644"
           style="font-size:10px;font-family:sans-serif;text-anchor:start;fill:#282828">
          <tspan
             id="tspan642"
             y="14"
             x="13">snare drum</tspan>
        </text>
      </g>
    </g>
    <g
       id="g662"
       transform="matrix(0.26458333,0,0,0.26458333,-123.50372,277.22053)">
      <g
         id="g660"
         transform="scale(1.5)">
        <path
           id="path650"
           style="fill:#3edcdd;fill-opacity:1;stroke:#1dbcbd;stroke-width:1;stroke-linecap:round;stroke-opacity:1"
           d="m 0.5,8.5 v -4 a 4,4 90 0 1 4,-4 h 4 v 2 h 10 v -2 h 30 4 a 4,4 90 0 1 4,4 v 4 h -4 v -3 h -4 v 10 h 4 v -3 h 4 v 4 a 4,4 90 0 1 -4,4 h -4 -30 -1 v 2 h -8 v -2 h -1 -4 a 4,4 90 0 1 -4,-4 v -4 z" />
        <text
           id="text654"
           style="font-size:10px;font-family:sans-serif;text-anchor:end;fill:#282828">
          <tspan
             id="tspan652"
             y="14"
             x="46">drum</tspan>
        </text>
        <text
           id="text658"
           style="font-size:6.66666651px;font-family:sans-serif;text-anchor:end;fill:#282828">
          <tspan
             id="tspan656"
             y="12"
             x="46" />
        </text>
      </g>
    </g>
    <g
       id="g672"
       transform="matrix(0.26458333,0,0,0.26458333,-103.92455,277.22053)">
      <g
         id="g670"
         transform="scale(1.5)">
        <path
           id="path664"
           style="fill:#3edcdd;fill-opacity:1;stroke:#1dbcbd;stroke-width:1;stroke-linecap:round;stroke-opacity:1"
           d="m 8.5,0.5 h 110 v 20 H 8.5 v -8 -1 h -6 v 3 h -2 v -8 h 2 v 3 h 6 v -1 z" />
        <text
           id="text668"
           style="font-size:10px;font-family:sans-serif;text-anchor:start;fill:#282828">
          <tspan
             id="tspan666"
             y="14"
             x="13">ride bell</tspan>
        </text>
      </g>
    </g>
  </g>
</svg>
