<svg xmlns="http://www.w3.org/2000/svg" width="221" height="33"><rect id="backgroundrect" width="100%" height="100%" x="0" y="0" fill="none" stroke="none" style="" class=""/><g class="currentLayer" style=""><title>Layer 1</title><g class=""><g id="svg_15" class=""><g transform="translate(316, 455) scale(1.5)" id="svg_16"><path d="m-210.6666717529297,-295.3333435058594 L-210.6666717529297,-299.3333435058594 A4,4 90 0 1 -206.6666717529297,-303.3333435058594 L-202.6666717529297,-303.3333435058594 L-202.6666717529297,-301.3333435058594 L-192.6666717529297,-301.3333435058594 L-192.6666717529297,-303.3333435058594 L-162.6666717529297,-303.3333435058594 L-158.6666717529297,-303.3333435058594 A4,4 90 0 1 -154.6666717529297,-299.3333435058594 L-154.6666717529297,-295.3333435058594 L-158.6666717529297,-295.3333435058594 L-158.6666717529297,-298.3333435058594 L-162.6666717529297,-298.3333435058594 L-162.6666717529297,-288.3333435058594 L-158.6666717529297,-288.3333435058594 L-158.6666717529297,-291.3333435058594 L-154.6666717529297,-291.3333435058594 L-154.6666717529297,-287.3333435058594 A4,4 90 0 1 -158.6666717529297,-283.3333435058594 L-162.6666717529297,-283.3333435058594 L-192.6666717529297,-283.3333435058594 L-193.6666717529297,-283.3333435058594 L-193.6666717529297,-281.3333435058594 L-201.6666717529297,-281.3333435058594 L-201.6666717529297,-283.3333435058594 L-202.6666717529297,-283.3333435058594 L-206.6666717529297,-283.3333435058594 A4,4 90 0 1 -210.6666717529297,-287.3333435058594 L-210.6666717529297,-291.3333435058594 L-210.6666717529297,-295.3333435058594 z" style="fill:#B0B0B0;fill-opacity:1;stroke:#A0A0A0;stroke-width:1;stroke-linecap:round;stroke-opacity:1;" id="svg_17"/><text style="font-size:10px;fill:#282828;font-family:sans-serif;text-anchor:end" id="svg_18" y="-303.8333435058594" x="-211.1666717529297"><tspan x="-165.1666717529297" y="-289.8333435058594" id="svg_19">print</tspan></text><text style="font-size:6.666666666666667px;fill:#282828;font-family:sans-serif;text-anchor:end" id="svg_20" y="-303.8333435058594" x="-211.1666717529297"/></g></g><g id="svg_22" class=""><g transform="translate(390, 455) scale(1.5)" id="svg_23"><path d="m-202.6666717529297,-303.3333435058594 L-112.66667175292969,-303.3333435058594 L-112.66667175292969,-283.3333435058594 L-202.6666717529297,-283.3333435058594 L-202.6666717529297,-291.3333435058594 L-202.6666717529297,-292.3333435058594 L-208.6666717529297,-292.3333435058594 L-208.6666717529297,-289.3333435058594 L-210.6666717529297,-289.3333435058594 L-210.6666717529297,-297.3333435058594 L-208.6666717529297,-297.3333435058594 L-208.6666717529297,-294.3333435058594 L-202.6666717529297,-294.3333435058594 L-202.6666717529297,-295.3333435058594 z" style="fill:#FF5942;fill-opacity:1;stroke:#EA4326;stroke-width:1;stroke-linecap:round;stroke-opacity:1;" id="svg_24"/><text style="font-size:10px;fill:#282828;font-family:sans-serif;text-anchor:start" id="svg_25" y="-303.8333435058594" x="-211.1666717529297"><tspan x="-198.1666717529297" y="-289.8333435058594" id="svg_26">text</tspan></text></g></g></g></g></svg>