<svg xmlns="http://www.w3.org/2000/svg" width="197" height="62"><rect id="backgroundrect" width="100%" height="100%" x="0" y="0" fill="none" stroke="none" style="" class=""/><g class="currentLayer" style=""><title>Layer 1</title><g class=""><g class=""><g id="svg_15" class=""><g transform="translate(296, 294) scale(1.5)" id="svg_16"><path d="m-189.3333282470703,-188 L-189.3333282470703,-192 A4,4 90 0 1 -185.3333282470703,-196 L-181.3333282470703,-196 L-171.3333282470703,-196 L-135.3333282470703,-196 L-131.3333282470703,-196 A4,4 90 0 1 -127.33332824707031,-192 L-127.33332824707031,-188 L-131.3333282470703,-188 L-131.3333282470703,-191 L-135.3333282470703,-191 L-135.3333282470703,-181 L-131.3333282470703,-181 L-131.3333282470703,-184 L-127.33332824707031,-184 L-127.33332824707031,-167 L-131.3333282470703,-167 L-131.3333282470703,-170 L-135.3333282470703,-170 L-135.3333282470703,-160 L-131.3333282470703,-160 L-131.3333282470703,-163 L-127.33332824707031,-163 L-127.33332824707031,-159 A4,4 90 0 1 -131.3333282470703,-155 L-135.3333282470703,-155 L-171.3333282470703,-155 L-181.3333282470703,-155 L-185.3333282470703,-155 A4,4 90 0 1 -189.3333282470703,-159 L-189.3333282470703,-163 L-189.3333282470703,-184 L-189.3333282470703,-185 L-195.3333282470703,-185 L-195.3333282470703,-182 L-197.3333282470703,-182 L-197.3333282470703,-190 L-195.3333282470703,-190 L-195.3333282470703,-187 L-189.3333282470703,-187 L-189.3333282470703,-188 z" style="fill:#FF5293;fill-opacity:1;stroke:#FF2C76;stroke-width:1;stroke-linecap:round;stroke-opacity:1;" id="svg_17"/><text style="font-size:10px;fill:#282828;font-family:sans-serif;text-anchor:end" id="svg_18" y="-196.5" x="-197.8333282470703"><tspan x="-137.8333282470703" y="-173.5" id="svg_19">random</tspan></text><text style="font-size:6.666666666666667px;fill:#282828;font-family:sans-serif;text-anchor:end" id="svg_20" y="-196.5" x="-197.8333282470703"><tspan x="-137.8333282470703" y="-184.5" id="svg_21">min</tspan></text><text style="font-size:6.666666666666667px;fill:#282828;font-family:sans-serif;text-anchor:end" id="svg_22" y="-196.5" x="-197.8333282470703"><tspan x="-137.8333282470703" y="-163.5" id="svg_23">max</tspan></text></g></g><g id="svg_24" class=""><g transform="translate(391, 294) scale(1.5)" id="svg_25"><path d="m-189.3333282470703,-196 L-129.3333282470703,-196 L-129.3333282470703,-176 L-189.3333282470703,-176 L-189.3333282470703,-184 L-189.3333282470703,-185 L-195.3333282470703,-185 L-195.3333282470703,-182 L-197.3333282470703,-182 L-197.3333282470703,-190 L-195.3333282470703,-190 L-195.3333282470703,-187 L-189.3333282470703,-187 L-189.3333282470703,-188 z" style="fill:#FF5293;fill-opacity:1;stroke:#FF2C76;stroke-width:1;stroke-linecap:round;stroke-opacity:1;" id="svg_26"/><text style="font-size:10px;fill:#282828;font-family:sans-serif;text-anchor:start" id="svg_27" y="-196.5" x="-197.8333282470703"><tspan x="-184.8333282470703" y="-182.5" id="svg_28">0</tspan></text></g></g><g id="svg_29" class=""><g transform="translate(391, 326) scale(1.5)" id="svg_30"><path d="m-189.3333282470703,-196 L-129.3333282470703,-196 L-129.3333282470703,-176 L-189.3333282470703,-176 L-189.3333282470703,-184 L-189.3333282470703,-185 L-195.3333282470703,-185 L-195.3333282470703,-182 L-197.3333282470703,-182 L-197.3333282470703,-190 L-195.3333282470703,-190 L-195.3333282470703,-187 L-189.3333282470703,-187 L-189.3333282470703,-188 z" style="fill:#FF5293;fill-opacity:1;stroke:#FF2C76;stroke-width:1;stroke-linecap:round;stroke-opacity:1;" id="svg_31"/><text style="font-size:10px;fill:#282828;font-family:sans-serif;text-anchor:start" id="svg_32" y="-196.5" x="-197.8333282470703"><tspan x="-184.8333282470703" y="-182.5" id="svg_33">12</tspan></text></g></g></g></g></g></svg>