<?xml version="1.0" encoding="UTF-8" standalone="no"?>
<svg
   xmlns:dc="http://purl.org/dc/elements/1.1/"
   xmlns:cc="http://creativecommons.org/ns#"
   xmlns:rdf="http://www.w3.org/1999/02/22-rdf-syntax-ns#"
   xmlns:svg="http://www.w3.org/2000/svg"
   xmlns="http://www.w3.org/2000/svg"
   id="svg102"
   version="1.1"
   height="345.5"
   width="281.5">
  <metadata
     id="metadata108">
    <rdf:RDF>
      <cc:Work
         rdf:about="">
        <dc:format>image/svg+xml</dc:format>
        <dc:type
           rdf:resource="http://purl.org/dc/dcmitype/StillImage" />
        <dc:title></dc:title>
      </cc:Work>
    </rdf:RDF>
  </metadata>
  <defs
     id="defs106" />
  <g
     id="g1297">
    <g
       id="g1133"
       transform="translate(-1.25,0.749995)">
      <g
         class=""
         id="svg_85">
        <g
           id="svg_86"
           transform="matrix(1.5,0,0,1.5,305,260)">
          <path
             id="svg_87"
             style="fill:#ff8b2d;fill-opacity:1;stroke:#e86b0e;stroke-width:1;stroke-linecap:round;stroke-opacity:1"
             d="m -202,-165.33333 v -4 a 4,4 90 0 1 4,-4 h 4 v 2 h 10 v -2 h 42 4 a 4,4 90 0 1 4,4 v 4 h -4 v -3 h -4 v 10 h 4 v -3 h 4 v 17 h -4 v -3 h -4 v 10 h 4 v -3 h 4 v 4 a 4,4 90 0 1 -4,4 h -4 -42 -1 v 2 h -8 v -2 h -1 -4 a 4,4 90 0 1 -4,-4 v -4 -21 z" />
          <text
             x="-202.5"
             y="-173.83333"
             id="svg_88"
             style="font-size:10px;font-family:sans-serif;text-anchor:end;fill:#282828">
            <tspan
               id="svg_89"
               y="-149.83333"
               x="-144.5">rhythm</tspan>
          </text>
          <text
             x="-202.5"
             y="-173.83333"
             id="svg_90"
             style="font-size:6.66666651px;font-family:sans-serif;text-anchor:end;fill:#282828">
            <tspan
               id="svg_91"
               y="-161.83333"
               x="-144.5">number of notes</tspan>
          </text>
          <text
             x="-202.5"
             y="-173.83333"
             id="svg_92"
             style="font-size:6.66666651px;font-family:sans-serif;text-anchor:end;fill:#282828">
            <tspan
               id="svg_93"
               y="-140.83333"
               x="-144.5">note value</tspan>
          </text>
        </g>
      </g>
      <g
         class=""
         id="svg_94">
        <g
           id="svg_95"
           transform="matrix(1.5,0,0,1.5,397,260)">
          <path
             id="svg_96"
             style="fill:#ff5293;fill-opacity:1;stroke:#ff2c76;stroke-width:1;stroke-linecap:round;stroke-opacity:1"
             d="m -194,-173.33333 h 60 v 20 h -60 v -8 -1 h -6 v 3 h -2 v -8 h 2 v 3 h 6 v -1 z" />
          <text
             x="-202.5"
             y="-173.83333"
             id="svg_97"
             style="font-size:10px;font-family:sans-serif;text-anchor:start;fill:#282828">
            <tspan
               id="svg_98"
               y="-159.83333"
               x="-189.5">3</tspan>
          </text>
        </g>
      </g>
      <g
         class=""
         id="svg_99">
        <g
           id="svg_100"
           transform="matrix(1.5,0,0,1.5,397,292)">
          <path
             id="svg_101"
             style="fill:#ff5293;fill-opacity:1;stroke:#ff2c76;stroke-width:1;stroke-linecap:round;stroke-opacity:1"
             d="m -194,-165.33333 v -4 a 4,4 90 0 1 4,-4 h 4 10 30 4 a 4,4 90 0 1 4,4 v 4 h -4 v -3 h -4 v 10 h 4 v -3 h 4 v 17 h -4 v -3 h -4 v 10 h 4 v -3 h 4 v 4 a 4,4 90 0 1 -4,4 h -4 -30 -10 -4 a 4,4 90 0 1 -4,-4 v -4 -21 -1 h -6 v 3 h -2 v -8 h 2 v 3 h 6 z" />
          <text
             x="-202.5"
             y="-173.83333"
             id="svg_102"
             style="font-size:9px;font-family:sans-serif;text-anchor:end;fill:#282828">
            <tspan
               id="svg_103"
               y="-150.83333"
               x="-148.5">➗</tspan>
          </text>
          <text
             x="-202.5"
             y="-173.83333"
             id="svg_104"
             style="font-size:6px;font-family:sans-serif;text-anchor:end;fill:#282828" />
          <text
             x="-202.5"
             y="-173.83333"
             id="svg_106"
             style="font-size:6px;font-family:sans-serif;text-anchor:end;fill:#282828" />
        </g>
      </g>
      <g
         class=""
         id="svg_108">
        <g
           id="svg_109"
           transform="matrix(1.5,0,0,1.5,483,292)">
          <path
             id="svg_110"
             style="fill:#ff5293;fill-opacity:1;stroke:#ff2c76;stroke-width:1;stroke-linecap:round;stroke-opacity:1"
             d="m -194,-173.33333 h 60 v 20 h -60 v -8 -1 h -6 v 3 h -2 v -8 h 2 v 3 h 6 v -1 z" />
          <text
             x="-202.5"
             y="-173.83333"
             id="svg_111"
             style="font-size:10px;font-family:sans-serif;text-anchor:start;fill:#282828">
            <tspan
               id="svg_112"
               y="-159.83333"
               x="-189.5">1</tspan>
          </text>
        </g>
      </g>
      <g
         class=""
         id="svg_113">
        <g
           id="svg_114"
           transform="matrix(1.5,0,0,1.5,483,324)">
          <path
             id="svg_115"
             style="fill:#ff5293;fill-opacity:1;stroke:#ff2c76;stroke-width:1;stroke-linecap:round;stroke-opacity:1"
             d="m -194,-173.33333 h 60 v 20 h -60 v -8 -1 h -6 v 3 h -2 v -8 h 2 v 3 h 6 v -1 z" />
          <text
             x="-202.5"
             y="-173.83333"
             id="svg_116"
             style="font-size:10px;font-family:sans-serif;text-anchor:start;fill:#282828">
            <tspan
               id="svg_117"
               y="-159.83333"
               x="-189.5">4</tspan>
          </text>
        </g>
      </g>
    </g>
    <g
       id="g1199"
       transform="translate(0.75,0.749995)">
      <g
         class=""
         id="svg_118">
        <g
           id="svg_119"
           transform="matrix(1.5,0,0,1.5,303,510)">
          <path
             id="svg_120"
             style="fill:#ff8b2d;fill-opacity:1;stroke:#e86b0e;stroke-width:1;stroke-linecap:round;stroke-opacity:1"
             d="m -202,-165.33333 v -4 a 4,4 90 0 1 4,-4 h 4 v 2 h 10 v -2 h 42 4 a 4,4 90 0 1 4,4 v 4 h -4 v -3 h -4 v 10 h 4 v -3 h 4 v 17 h -4 v -3 h -4 v 10 h 4 v -3 h 4 v 4 a 4,4 90 0 1 -4,4 h -4 -42 -1 v 2 h -8 v -2 h -1 -4 a 4,4 90 0 1 -4,-4 v -4 -21 z" />
          <text
             x="-202.5"
             y="-173.83333"
             id="svg_121"
             style="font-size:10px;font-family:sans-serif;text-anchor:end;fill:#282828">
            <tspan
               id="svg_122"
               y="-149.83333"
               x="-144.5">rhythm</tspan>
          </text>
          <text
             x="-202.5"
             y="-173.83333"
             id="svg_123"
             style="font-size:6.66666651px;font-family:sans-serif;text-anchor:end;fill:#282828">
            <tspan
               id="svg_124"
               y="-161.83333"
               x="-144.5">number of notes</tspan>
          </text>
          <text
             x="-202.5"
             y="-173.83333"
             id="svg_125"
             style="font-size:6.66666651px;font-family:sans-serif;text-anchor:end;fill:#282828">
            <tspan
               id="svg_126"
               y="-140.83333"
               x="-144.5">note value</tspan>
          </text>
        </g>
      </g>
      <g
         class=""
         id="svg_127">
        <g
           id="svg_128"
           transform="matrix(1.5,0,0,1.5,395,510)">
          <path
             id="svg_129"
             style="fill:#ff5293;fill-opacity:1;stroke:#ff2c76;stroke-width:1;stroke-linecap:round;stroke-opacity:1"
             d="m -194,-173.33333 h 60 v 20 h -60 v -8 -1 h -6 v 3 h -2 v -8 h 2 v 3 h 6 v -1 z" />
          <text
             x="-202.5"
             y="-173.83333"
             id="svg_130"
             style="font-size:10px;font-family:sans-serif;text-anchor:start;fill:#282828">
            <tspan
               id="svg_131"
               y="-159.83333"
               x="-189.5">7</tspan>
          </text>
        </g>
      </g>
      <g
         class=""
         id="svg_132">
        <g
           id="svg_133"
           transform="matrix(1.5,0,0,1.5,395,542)">
          <path
             id="svg_134"
             style="fill:#ff5293;fill-opacity:1;stroke:#ff2c76;stroke-width:1;stroke-linecap:round;stroke-opacity:1"
             d="m -194,-165.33333 v -4 a 4,4 90 0 1 4,-4 h 4 10 30 4 a 4,4 90 0 1 4,4 v 4 h -4 v -3 h -4 v 10 h 4 v -3 h 4 v 17 h -4 v -3 h -4 v 10 h 4 v -3 h 4 v 4 a 4,4 90 0 1 -4,4 h -4 -30 -10 -4 a 4,4 90 0 1 -4,-4 v -4 -21 -1 h -6 v 3 h -2 v -8 h 2 v 3 h 6 z" />
          <text
             x="-202.5"
             y="-173.83333"
             id="svg_135"
             style="font-size:9px;font-family:sans-serif;text-anchor:end;fill:#282828">
            <tspan
               id="svg_136"
               y="-150.83333"
               x="-148.5">➗</tspan>
          </text>
          <text
             x="-202.5"
             y="-173.83333"
             id="svg_137"
             style="font-size:6px;font-family:sans-serif;text-anchor:end;fill:#282828" />
          <text
             x="-202.5"
             y="-173.83333"
             id="svg_139"
             style="font-size:6px;font-family:sans-serif;text-anchor:end;fill:#282828" />
        </g>
      </g>
      <g
         class=""
         id="svg_141">
        <g
           id="svg_142"
           transform="matrix(1.5,0,0,1.5,481,542)">
          <path
             id="svg_143"
             style="fill:#ff5293;fill-opacity:1;stroke:#ff2c76;stroke-width:1;stroke-linecap:round;stroke-opacity:1"
             d="m -194,-173.33333 h 60 v 20 h -60 v -8 -1 h -6 v 3 h -2 v -8 h 2 v 3 h 6 v -1 z" />
          <text
             x="-202.5"
             y="-173.83333"
             id="svg_144"
             style="font-size:10px;font-family:sans-serif;text-anchor:start;fill:#282828">
            <tspan
               id="svg_145"
               y="-159.83333"
               x="-189.5">1</tspan>
          </text>
        </g>
      </g>
      <g
         class=""
         id="svg_146">
        <g
           id="svg_147"
           transform="matrix(1.5,0,0,1.5,481,574)">
          <path
             id="svg_148"
             style="fill:#ff5293;fill-opacity:1;stroke:#ff2c76;stroke-width:1;stroke-linecap:round;stroke-opacity:1"
             d="m -194,-173.33333 h 60 v 20 h -60 v -8 -1 h -6 v 3 h -2 v -8 h 2 v 3 h 6 v -1 z" />
          <text
             x="-202.5"
             y="-173.83333"
             id="svg_149"
             style="font-size:10px;font-family:sans-serif;text-anchor:start;fill:#282828">
            <tspan
               id="svg_150"
               y="-159.83333"
               x="-189.5">16</tspan>
          </text>
        </g>
      </g>
    </g>
    <g
       id="g1166"
       transform="translate(-3.25,0.749995)">
      <g
         class=""
         id="svg_151">
        <g
           id="svg_152"
           transform="matrix(1.5,0,0,1.5,307,385)">
          <path
             id="svg_153"
             style="fill:#ff8b2d;fill-opacity:1;stroke:#e86b0e;stroke-width:1;stroke-linecap:round;stroke-opacity:1"
             d="m -202,-165.33333 v -4 a 4,4 90 0 1 4,-4 h 4 v 2 h 10 v -2 h 42 4 a 4,4 90 0 1 4,4 v 4 h -4 v -3 h -4 v 10 h 4 v -3 h 4 v 17 h -4 v -3 h -4 v 10 h 4 v -3 h 4 v 4 a 4,4 90 0 1 -4,4 h -4 -42 -1 v 2 h -8 v -2 h -1 -4 a 4,4 90 0 1 -4,-4 v -4 -21 z" />
          <text
             x="-202.5"
             y="-173.83333"
             id="svg_154"
             style="font-size:10px;font-family:sans-serif;text-anchor:end;fill:#282828">
            <tspan
               id="svg_155"
               y="-149.83333"
               x="-144.5">rhythm</tspan>
          </text>
          <text
             x="-202.5"
             y="-173.83333"
             id="svg_156"
             style="font-size:6.66666651px;font-family:sans-serif;text-anchor:end;fill:#282828">
            <tspan
               id="svg_157"
               y="-161.83333"
               x="-144.5">number of notes</tspan>
          </text>
          <text
             x="-202.5"
             y="-173.83333"
             id="svg_158"
             style="font-size:6.66666651px;font-family:sans-serif;text-anchor:end;fill:#282828">
            <tspan
               id="svg_159"
               y="-140.83333"
               x="-144.5">note value</tspan>
          </text>
        </g>
      </g>
      <g
         class=""
         id="svg_160">
        <g
           id="svg_161"
           transform="matrix(1.5,0,0,1.5,399,385)">
          <path
             id="svg_162"
             style="fill:#ff5293;fill-opacity:1;stroke:#ff2c76;stroke-width:1;stroke-linecap:round;stroke-opacity:1"
             d="m -194,-173.33333 h 60 v 20 h -60 v -8 -1 h -6 v 3 h -2 v -8 h 2 v 3 h 6 v -1 z" />
          <text
             x="-202.5"
             y="-173.83333"
             id="svg_163"
             style="font-size:10px;font-family:sans-serif;text-anchor:start;fill:#282828">
            <tspan
               id="svg_164"
               y="-159.83333"
               x="-189.5">1</tspan>
          </text>
        </g>
      </g>
      <g
         class=""
         id="svg_165">
        <g
           id="svg_166"
           transform="matrix(1.5,0,0,1.5,399,417)">
          <path
             id="svg_167"
             style="fill:#ff5293;fill-opacity:1;stroke:#ff2c76;stroke-width:1;stroke-linecap:round;stroke-opacity:1"
             d="m -194,-165.33333 v -4 a 4,4 90 0 1 4,-4 h 4 10 30 4 a 4,4 90 0 1 4,4 v 4 h -4 v -3 h -4 v 10 h 4 v -3 h 4 v 17 h -4 v -3 h -4 v 10 h 4 v -3 h 4 v 4 a 4,4 90 0 1 -4,4 h -4 -30 -10 -4 a 4,4 90 0 1 -4,-4 v -4 -21 -1 h -6 v 3 h -2 v -8 h 2 v 3 h 6 z" />
          <text
             x="-202.5"
             y="-173.83333"
             id="svg_168"
             style="font-size:9px;font-family:sans-serif;text-anchor:end;fill:#282828">
            <tspan
               id="svg_169"
               y="-150.83333"
               x="-148.5">➗</tspan>
          </text>
          <text
             x="-202.5"
             y="-173.83333"
             id="svg_170"
             style="font-size:6px;font-family:sans-serif;text-anchor:end;fill:#282828" />
          <text
             x="-202.5"
             y="-173.83333"
             id="svg_172"
             style="font-size:6px;font-family:sans-serif;text-anchor:end;fill:#282828" />
        </g>
      </g>
      <g
         class=""
         id="svg_174">
        <g
           id="svg_175"
           transform="matrix(1.5,0,0,1.5,485,417)">
          <path
             id="svg_176"
             style="fill:#ff5293;fill-opacity:1;stroke:#ff2c76;stroke-width:1;stroke-linecap:round;stroke-opacity:1"
             d="m -194,-173.33333 h 60 v 20 h -60 v -8 -1 h -6 v 3 h -2 v -8 h 2 v 3 h 6 v -1 z" />
          <text
             x="-202.5"
             y="-173.83333"
             id="svg_177"
             style="font-size:10px;font-family:sans-serif;text-anchor:start;fill:#282828">
            <tspan
               id="svg_178"
               y="-159.83333"
               x="-189.5">1</tspan>
          </text>
        </g>
      </g>
      <g
         class=""
         id="svg_179">
        <g
           id="svg_180"
           transform="matrix(1.5,0,0,1.5,485,449)">
          <path
             id="svg_181"
             style="fill:#ff5293;fill-opacity:1;stroke:#ff2c76;stroke-width:1;stroke-linecap:round;stroke-opacity:1"
             d="m -194,-173.33333 h 60 v 20 h -60 v -8 -1 h -6 v 3 h -2 v -8 h 2 v 3 h 6 v -1 z" />
          <text
             x="-202.5"
             y="-173.83333"
             id="svg_182"
             style="font-size:10px;font-family:sans-serif;text-anchor:start;fill:#282828">
            <tspan
               id="svg_183"
               y="-159.83333"
               x="-189.5">8</tspan>
          </text>
        </g>
      </g>
    </g>
  </g>
</svg>
