<?xml version="1.0" encoding="UTF-8" standalone="no"?>
<svg
   xmlns:dc="http://purl.org/dc/elements/1.1/"
   xmlns:cc="http://creativecommons.org/ns#"
   xmlns:rdf="http://www.w3.org/1999/02/22-rdf-syntax-ns#"
   xmlns:svg="http://www.w3.org/2000/svg"
   xmlns="http://www.w3.org/2000/svg"
   id="svg11666"
   version="1.1"
   viewBox="0 0 143.40945 75.803123"
   height="75.803123mm"
   width="143.40945mm">
  <defs
     id="defs11660" />
  <metadata
     id="metadata11663">
    <rdf:RDF>
      <cc:Work
         rdf:about="">
        <dc:format>image/svg+xml</dc:format>
        <dc:type
           rdf:resource="http://purl.org/dc/dcmitype/StillImage" />
        <dc:title></dc:title>
      </cc:Work>
    </rdf:RDF>
  </metadata>
  <g
     transform="translate(393.51416,-42.612719)"
     id="layer1">
    <g
       transform="matrix(0.26458333,0,0,0.26458333,-822.9329,-30.41228)"
       id="g10652">
      <g
         id="g106">
        <g
           transform="translate(1636.5,370.5)"
           id="g86">
          <g
             transform="scale(1.5)"
             id="g84">
            <path
               d="m 0.5,8.5 v -4 a 4,4 90 0 1 4,-4 h 4 v 2 h 10 v -2 h 9 60 4 a 4,4 90 0 1 4,4 v 4 h -4 v -3 h -4 v 10 h 4 v -3 h 4 v 4 a 4,4 90 0 1 -4,4 h -4 -60 -1 v 2 h -8 v -2 h -1 -4 a 5,5 90 0 0 -5,5 v 4 4 42 4 a 5,5 90 0 0 5,5 h 4 v 2 h 10 v -2 h 8 v 6 6 4 a 4,4 90 0 1 -4,4 h -4 -9 -1 v 2 h -8 v -2 h -1 -4 a 4,4 90 0 1 -4,-4 v -4 z"
               style="fill:#fe994f;fill-opacity:1;stroke:#e86b0e;stroke-width:1;stroke-linecap:round;stroke-opacity:1"
               id="path74" />
            <text
               style="font-size:10px;font-family:sans-serif;text-anchor:start;fill:#282828"
               id="text78">
              <tspan
                 x="20"
                 y="15"
                 id="tspan76">note</tspan>
            </text>
            <text
               style="font-size:6.66666651px;font-family:sans-serif;text-anchor:end;fill:#282828"
               id="text82">
              <tspan
                 x="85"
                 y="12"
                 id="tspan80">value</tspan>
            </text>
          </g>
        </g>
        <g
           transform="matrix(0.5,0,0,0.5,1636.5,374.5)"
           id="g104">
          <g
             style="isolation:isolate"
             id="g102">
            <g
               id="g100"
               data-name="レイヤー 2">
              <g
                 id="g98">
                <rect
                   y="0"
                   x="0"
                   width="42"
                   height="42"
                   rx="5"
                   ry="5"
                   style="opacity:0.4;mix-blend-mode:multiply;fill:#292929"
                   id="rect88" />
                <path
                   d="m 30.56,29.8 -4.17,-4.16 h 2.26 a 1.035,1.035 0 1 0 0,-2.07 h -4.71 a 1.08,1.08 0 0 0 -1.11,1 v 0 c 0,0 0,0 0,0.06 v 4.64 0 a 1.04,1.04 0 1 0 2.08,0 v -2.19 l 4.19,4.19 a 1,1 0 0 0 1.46,0 1,1 0 0 0 0,-1.47 z"
                   style="fill:#ffffff"
                   id="path90" />
                <path
                   d="m 19.17,24.6 a 1.08,1.08 0 0 0 -1.11,-1 h -4.71 a 1.035,1.035 0 1 0 0,2.07 h 2.25 l -4.16,4.13 a 1.039447,1.039447 0 0 0 1.47,1.47 l 4.18,-4.19 v 2.26 a 1.04,1.04 0 1 0 2.08,0 V 24.7 c 0,0 0,0 0,-0.06 a 0.08,0.08 0 0 1 0,-0.04 z"
                   style="fill:#ffffff"
                   id="path92" />
                <path
                   d="m 23.94,20.5 h 4.7 a 1.04,1.04 0 1 0 0,-2.08 h -2.25 l 4.17,-4.16 a 1,1 0 0 0 0,-1.47 1,1 0 0 0 -1.46,0 L 24.91,17 v -2.28 a 1.04,1.04 0 1 0 -2.08,0 v 4.64 a 0.43,0.43 0 0 0 0,0.05 v 0.05 a 1.09,1.09 0 0 0 1.11,1.04 z"
                   style="fill:#ffffff"
                   id="path94" />
                <path
                   d="m 18.13,13.62 a 1.08,1.08 0 0 0 -1,1.09 V 17 l -4.18,-4.19 a 1,1 0 0 0 -1.47,0 1,1 0 0 0 0,1.46 l 4.16,4.17 h -2.29 a 1.04,1.04 0 1 0 0,2.08 h 4.71 a 1.09,1.09 0 0 0 1.11,-1 c 0,0 0,0 0,-0.06 v -4.75 a 1.07,1.07 0 0 0 -1.04,-1.09 z"
                   style="fill:#ffffff"
                   id="path96" />
              </g>
            </g>
          </g>
        </g>
      </g>
      <g
         transform="translate(1768.5,370.5)"
         id="g124">
        <g
           transform="scale(1.5)"
           id="g122">
          <path
             d="m 8.5,8.5 v -4 a 4,4 90 0 1 4,-4 h 4 10 30 4 a 4,4 90 0 1 4,4 v 4 h -4 v -3 h -4 v 10 h 4 v -3 h 4 v 17 h -4 v -3 h -4 v 10 h 4 v -3 h 4 v 4 a 4,4 90 0 1 -4,4 h -4 -30 -10 -4 a 4,4 90 0 1 -4,-4 v -4 -21 -1 h -6 v 3 h -2 v -8 h 2 v 3 h 6 z"
             style="fill:#ff6ea1;fill-opacity:1;stroke:#ff2c76;stroke-width:1;stroke-linecap:round;stroke-opacity:1"
             id="path108" />
          <text
             style="font-size:9px;font-family:sans-serif;text-anchor:end;fill:#282828"
             id="text112">
            <tspan
               x="54"
               y="23"
               id="tspan110">➗</tspan>
          </text>
          <text
             style="font-size:6px;font-family:sans-serif;text-anchor:end;fill:#282828"
             id="text116">
            <tspan
               x="54"
               y="12"
               id="tspan114" />
          </text>
          <text
             style="font-size:6px;font-family:sans-serif;text-anchor:end;fill:#282828"
             id="text120">
            <tspan
               x="54"
               y="33"
               id="tspan118" />
          </text>
        </g>
      </g>
      <g
         transform="translate(1854,370.5)"
         id="g134">
        <g
           transform="scale(1.5)"
           id="g132">
          <path
             d="m 8.5,0.5 h 60 v 20 h -60 v -8 -1 h -6 v 3 h -2 v -8 h 2 v 3 h 6 v -1 z"
             style="fill:#ff6ea1;fill-opacity:1;stroke:#ff2c76;stroke-width:1;stroke-linecap:round;stroke-opacity:1"
             id="path126" />
          <text
             style="font-size:10px;font-family:sans-serif;text-anchor:start;fill:#282828"
             id="text130">
            <tspan
               x="13"
               y="14"
               id="tspan128">1</tspan>
          </text>
        </g>
      </g>
      <g
         transform="translate(1854,402)"
         id="g144">
        <g
           transform="scale(1.5)"
           id="g142">
          <path
             d="m 8.5,0.5 h 60 v 20 h -60 v -8 -1 h -6 v 3 h -2 v -8 h 2 v 3 h 6 v -1 z"
             style="fill:#ff6ea1;fill-opacity:1;stroke:#ff2c76;stroke-width:1;stroke-linecap:round;stroke-opacity:1"
             id="path136" />
          <text
             style="font-size:10px;font-family:sans-serif;text-anchor:start;fill:#282828"
             id="text140">
            <tspan
               x="13"
               y="14"
               id="tspan138">4</tspan>
          </text>
        </g>
      </g>
      <g
         transform="translate(1650,402)"
         id="g154">
        <g
           transform="scale(1.5)"
           id="g152">
          <path
             d="m 0.5,8.5 v -4 a 4,4 90 0 1 4,-4 h 4 v 2 h 10 v -2 h 20 4 a 4,4 90 0 1 4,4 v 4 4 4 a 4,4 90 0 1 -4,4 h -4 -20 -1 v 2 h -8 v -2 h -1 -4 a 4,4 90 0 1 -4,-4 v -4 z"
             style="fill:#c4c4c4;fill-opacity:1;stroke:#a0a0a0;stroke-width:1;stroke-linecap:round;stroke-opacity:1"
             id="path146" />
          <text
             style="font-size:10px;font-family:sans-serif;text-anchor:end;fill:#282828"
             id="text150">
            <tspan
               x="36"
               y="14"
               id="tspan148">↓</tspan>
          </text>
        </g>
      </g>
      <g
         transform="translate(1650,433.5)"
         id="g172">
        <g
           transform="scale(1.5)"
           id="g170">
          <path
             d="m 0.5,8.5 v -4 a 4,4 90 0 1 4,-4 h 4 v 2 h 10 v -2 h 30 4 a 4,4 90 0 1 4,4 v 4 h -4 v -3 h -4 v 10 h 4 v -3 h 4 v 17 h -4 v -3 h -4 v 10 h 4 v -3 h 4 v 4 a 4,4 90 0 1 -4,4 h -4 -30 -1 v 2 h -8 v -2 h -1 -4 a 4,4 90 0 1 -4,-4 v -4 -21 z"
             style="fill:#7cd622;fill-opacity:1;stroke:#57ad02;stroke-width:1;stroke-linecap:round;stroke-opacity:1"
             id="path156" />
          <text
             style="font-size:10px;font-family:sans-serif;text-anchor:end;fill:#282828"
             id="text160">
            <tspan
               x="46"
               y="24"
               id="tspan158">pitch</tspan>
          </text>
          <text
             style="font-size:6.66666651px;font-family:sans-serif;text-anchor:end;fill:#282828"
             id="text164">
            <tspan
               x="46"
               y="12"
               id="tspan162">name</tspan>
          </text>
          <text
             style="font-size:6.66666651px;font-family:sans-serif;text-anchor:end;fill:#282828"
             id="text168">
            <tspan
               x="46"
               y="33"
               id="tspan166">octave</tspan>
          </text>
        </g>
      </g>
      <g
         transform="translate(1723.5,433.5)"
         id="g182">
        <g
           transform="scale(1.5)"
           id="g180">
          <path
             d="m 8.5,0.5 h 60 v 20 h -60 v -8 -1 h -6 v 3 h -2 v -8 h 2 v 3 h 6 v -1 z"
             style="fill:#7cd622;fill-opacity:1;stroke:#57ad02;stroke-width:1;stroke-linecap:round;stroke-opacity:1"
             id="path174" />
          <text
             style="font-size:10px;font-family:sans-serif;text-anchor:start;fill:#282828"
             id="text178">
            <tspan
               x="13"
               y="14"
               id="tspan176">sol</tspan>
          </text>
        </g>
      </g>
      <g
         transform="translate(1723.5,465)"
         id="g192">
        <g
           transform="scale(1.5)"
           id="g190">
          <path
             d="m 8.5,0.5 h 60 v 20 h -60 v -8 -1 h -6 v 3 h -2 v -8 h 2 v 3 h 6 v -1 z"
             style="fill:#ff6ea1;fill-opacity:1;stroke:#ff2c76;stroke-width:1;stroke-linecap:round;stroke-opacity:1"
             id="path184" />
          <text
             style="font-size:10px;font-family:sans-serif;text-anchor:start;fill:#282828"
             id="text188">
            <tspan
               x="13"
               y="14"
               id="tspan186">4</tspan>
          </text>
        </g>
      </g>
      <g
         id="g1742">
        <g
           transform="translate(1623,276)"
           id="g1722">
          <g
             transform="scale(1.5)"
             id="g1720">
            <path
               d="m 0.5,8.5 v -4 a 4,4 90 0 1 4,-4 h 4 v 2 h 10 v -2 h 9 115.30762 4 a 4,4 90 0 1 4,4 v 4 h -4 v -3 h -4 v 10 h 4 v -3 h 4 v 4 a 4,4 90 0 1 -4,4 h -4 H 27.5 h -1 v 2 h -8 v -2 h -1 -4 a 5,5 90 0 0 -5,5 v 4 4 126 4 a 5,5 90 0 0 5,5 h 4 v 2 h 10 v -2 h 8 v 6 6 4 a 4,4 90 0 1 -4,4 h -4 -9 -1 v 2 h -8 v -2 h -1 -4 a 4,4 90 0 1 -4,-4 v -4 z"
               style="fill:#7cd622;fill-opacity:1;stroke:#57ad02;stroke-width:1;stroke-linecap:round;stroke-opacity:1"
               id="path1710" />
            <text
               style="font-size:10px;font-family:sans-serif;text-anchor:start;fill:#282828"
               id="text1714">
              <tspan
                 x="20"
                 y="15"
                 id="tspan1712">scalar interval (+/–)</tspan>
            </text>
            <text
               style="font-size:6.66666651px;font-family:sans-serif;text-anchor:end;fill:#282828"
               id="text1718">
              <tspan
                 x="141"
                 y="12"
                 id="tspan1716" />
            </text>
          </g>
        </g>
        <g
           transform="matrix(0.5,0,0,0.5,1623,280)"
           id="g1740">
          <g
             style="isolation:isolate"
             id="g1738">
            <g
               id="g1736"
               data-name="レイヤー 2">
              <g
                 id="g1734">
                <rect
                   y="0"
                   x="0"
                   width="42"
                   height="42"
                   rx="5"
                   ry="5"
                   style="opacity:0.4;mix-blend-mode:multiply;fill:#292929"
                   id="rect1724" />
                <path
                   d="m 30.56,29.8 -4.17,-4.16 h 2.26 a 1.035,1.035 0 1 0 0,-2.07 h -4.71 a 1.08,1.08 0 0 0 -1.11,1 v 0 c 0,0 0,0 0,0.06 v 4.64 0 a 1.04,1.04 0 1 0 2.08,0 v -2.19 l 4.19,4.19 a 1,1 0 0 0 1.46,0 1,1 0 0 0 0,-1.47 z"
                   style="fill:#ffffff"
                   id="path1726" />
                <path
                   d="m 19.17,24.6 a 1.08,1.08 0 0 0 -1.11,-1 h -4.71 a 1.035,1.035 0 1 0 0,2.07 h 2.25 l -4.16,4.13 a 1.039447,1.039447 0 0 0 1.47,1.47 l 4.18,-4.19 v 2.26 a 1.04,1.04 0 1 0 2.08,0 V 24.7 c 0,0 0,0 0,-0.06 a 0.08,0.08 0 0 1 0,-0.04 z"
                   style="fill:#ffffff"
                   id="path1728" />
                <path
                   d="m 23.94,20.5 h 4.7 a 1.04,1.04 0 1 0 0,-2.08 h -2.25 l 4.17,-4.16 a 1,1 0 0 0 0,-1.47 1,1 0 0 0 -1.46,0 L 24.91,17 v -2.28 a 1.04,1.04 0 1 0 -2.08,0 v 4.64 a 0.43,0.43 0 0 0 0,0.05 v 0.05 a 1.09,1.09 0 0 0 1.11,1.04 z"
                   style="fill:#ffffff"
                   id="path1730" />
                <path
                   d="m 18.13,13.62 a 1.08,1.08 0 0 0 -1,1.09 V 17 l -4.18,-4.19 a 1,1 0 0 0 -1.47,0 1,1 0 0 0 0,1.46 l 4.16,4.17 h -2.29 a 1.04,1.04 0 1 0 0,2.08 h 4.71 a 1.09,1.09 0 0 0 1.11,-1 c 0,0 0,0 0,-0.06 v -4.75 a 1.07,1.07 0 0 0 -1.04,-1.09 z"
                   style="fill:#ffffff"
                   id="path1732" />
              </g>
            </g>
          </g>
        </g>
      </g>
      <g
         transform="translate(1837.9614,276)"
         id="g1760">
        <g
           transform="scale(1.5)"
           id="g1758">
          <path
             d="m 8.5,8.5 v -4 a 4,4 90 0 1 4,-4 h 4 10 30 4 a 4,4 90 0 1 4,4 v 4 h -4 v -3 h -4 v 10 h 4 v -3 h 4 v 17 h -4 v -3 h -4 v 10 h 4 v -3 h 4 v 4 a 4,4 90 0 1 -4,4 h -4 -30 -10 -4 a 4,4 90 0 1 -4,-4 v -4 -21 -1 h -6 v 3 h -2 v -8 h 2 v 3 h 6 z"
             style="fill:#ff6ea1;fill-opacity:1;stroke:#ff2c76;stroke-width:1;stroke-linecap:round;stroke-opacity:1"
             id="path1744" />
          <text
             style="font-size:14px;font-family:sans-serif;text-anchor:end;fill:#282828"
             id="text1748">
            <tspan
               x="54"
               y="24"
               id="tspan1746">+</tspan>
          </text>
          <text
             style="font-size:9.33333302px;font-family:sans-serif;text-anchor:end;fill:#282828"
             id="text1752">
            <tspan
               x="54"
               y="12"
               id="tspan1750" />
          </text>
          <text
             style="font-size:9.33333302px;font-family:sans-serif;text-anchor:end;fill:#282828"
             id="text1756">
            <tspan
               x="54"
               y="33"
               id="tspan1754" />
          </text>
        </g>
      </g>
      <g
         transform="translate(1923.4614,276)"
         id="g1770">
        <g
           transform="scale(1.5)"
           id="g1768">
          <path
             d="m 8.5,0.5 h 60 v 20 h -60 v -8 -1 h -6 v 3 h -2 v -8 h 2 v 3 h 6 v -1 z"
             style="fill:#ff6ea1;fill-opacity:1;stroke:#ff2c76;stroke-width:1;stroke-linecap:round;stroke-opacity:1"
             id="path1762" />
          <text
             style="font-size:10px;font-family:sans-serif;text-anchor:start;fill:#282828"
             id="text1766">
            <tspan
               x="13"
               y="14"
               id="tspan1764">2</tspan>
          </text>
        </g>
      </g>
      <g
         transform="translate(1923.4614,307.5)"
         id="g1788">
        <g
           transform="scale(1.5)"
           id="g1786">
          <path
             d="m 8.5,8.5 v -4 a 4,4 90 0 1 4,-4 h 4 10 30 4 a 4,4 90 0 1 4,4 v 4 h -4 v -3 h -4 v 10 h 4 v -3 h 4 v 17 h -4 v -3 h -4 v 10 h 4 v -3 h 4 v 4 a 4,4 90 0 1 -4,4 h -4 -30 -10 -4 a 4,4 90 0 1 -4,-4 v -4 -21 -1 h -6 v 3 h -2 v -8 h 2 v 3 h 6 z"
             style="fill:#ff6ea1;fill-opacity:1;stroke:#ff2c76;stroke-width:1;stroke-linecap:round;stroke-opacity:1"
             id="path1772" />
          <text
             style="font-size:14px;font-family:sans-serif;text-anchor:end;fill:#282828"
             id="text1776">
            <tspan
               x="54"
               y="24"
               id="tspan1774">×</tspan>
          </text>
          <text
             style="font-size:9.33333302px;font-family:sans-serif;text-anchor:end;fill:#282828"
             id="text1780">
            <tspan
               x="54"
               y="12"
               id="tspan1778" />
          </text>
          <text
             style="font-size:9.33333302px;font-family:sans-serif;text-anchor:end;fill:#282828"
             id="text1784">
            <tspan
               x="54"
               y="33"
               id="tspan1782" />
          </text>
        </g>
      </g>
      <g
         transform="translate(2008.9614,307.5)"
         id="g1798">
        <g
           transform="scale(1.5)"
           id="g1796">
          <path
             d="m 8.5,0.5 h 60 v 20 h -60 v -8 -1 h -6 v 3 h -2 v -8 h 2 v 3 h 6 v -1 z"
             style="fill:#ff6ea1;fill-opacity:1;stroke:#ff2c76;stroke-width:1;stroke-linecap:round;stroke-opacity:1"
             id="path1790" />
          <text
             style="font-size:10px;font-family:sans-serif;text-anchor:start;fill:#282828"
             id="text1794">
            <tspan
               x="13"
               y="14"
               id="tspan1792">0</tspan>
          </text>
        </g>
      </g>
      <g
         transform="translate(2008.9614,339)"
         id="g1808">
        <g
           transform="scale(1.5)"
           id="g1806">
          <path
             d="m 8.5,0.5 h 95.03906 v 20 H 8.5 v -8 -1 h -6 v 3 h -2 v -8 h 2 v 3 h 6 v -1 z"
             style="fill:#7cd622;fill-opacity:1;stroke:#57ad02;stroke-width:1;stroke-linecap:round;stroke-opacity:1"
             id="path1800" />
          <text
             style="font-size:10px;font-family:sans-serif;text-anchor:start;fill:#282828"
             id="text1804">
            <tspan
               x="13"
               y="14"
               id="tspan1802">mode length</tspan>
          </text>
        </g>
      </g>
      <g
         transform="translate(1636.5,307.5)"
         id="g1818">
        <g
           transform="scale(1.5)"
           id="g1816">
          <path
             d="m 0.5,8.5 v -4 a 4,4 90 0 1 4,-4 h 4 v 2 h 10 v -2 h 20 4 a 4,4 90 0 1 4,4 v 4 4 4 a 4,4 90 0 1 -4,4 h -4 -20 -1 v 2 h -8 v -2 h -1 -4 a 4,4 90 0 1 -4,-4 v -4 z"
             style="fill:#c4c4c4;fill-opacity:1;stroke:#a0a0a0;stroke-width:1;stroke-linecap:round;stroke-opacity:1"
             id="path1810" />
          <text
             style="font-size:10px;font-family:sans-serif;text-anchor:end;fill:#282828"
             id="text1814">
            <tspan
               x="36"
               y="14"
               id="tspan1812">↓</tspan>
          </text>
        </g>
      </g>
      <g
         transform="translate(1636.5,339)"
         id="g1828">
        <g
           transform="scale(1.5)"
           id="g1826">
          <path
             d="m 0.5,8.5 v -4 a 4,4 90 0 1 4,-4 h 4 v 2 h 10 v -2 h 20 4 a 4,4 90 0 1 4,4 v 4 4 4 a 4,4 90 0 1 -4,4 h -4 -20 -1 v 2 h -8 v -2 h -1 -4 a 4,4 90 0 1 -4,-4 v -4 z"
             style="fill:#c4c4c4;fill-opacity:1;stroke:#a0a0a0;stroke-width:1;stroke-linecap:round;stroke-opacity:1"
             id="path1820" />
          <text
             style="font-size:10px;font-family:sans-serif;text-anchor:end;fill:#282828"
             id="text1824">
            <tspan
               x="36"
               y="14"
               id="tspan1822">↓</tspan>
          </text>
        </g>
      </g>
    </g>
  </g>
</svg>
