<?xml version="1.0" encoding="UTF-8" standalone="no"?>
<svg
   xmlns:dc="http://purl.org/dc/elements/1.1/"
   xmlns:cc="http://creativecommons.org/ns#"
   xmlns:rdf="http://www.w3.org/1999/02/22-rdf-syntax-ns#"
   xmlns:svg="http://www.w3.org/2000/svg"
   xmlns="http://www.w3.org/2000/svg"
   id="svg28"
   version="1.1"
   height="66"
   width="324.5">
  <metadata
     id="metadata34">
    <rdf:RDF>
      <cc:Work
         rdf:about="">
        <dc:format>image/svg+xml</dc:format>
        <dc:type
           rdf:resource="http://purl.org/dc/dcmitype/StillImage" />
        <dc:title></dc:title>
      </cc:Work>
    </rdf:RDF>
  </metadata>
  <defs
     id="defs32" />
  <g
     transform="translate(-1.666665,-3)"
     id="g26"
     class="currentLayer">
    <title
       id="title3">Layer 1</title>
    <g
       id="g24"
       class="">
      <g
         class=""
         id="svg_85">
        <g
           id="svg_86"
           transform="matrix(1.5,0,0,1.5,423,447)">
          <path
             id="svg_87"
             style="fill:#25c3c0;fill-opacity:1;stroke:#1dbcbd;stroke-width:1;stroke-linecap:round;stroke-opacity:1"
             d="m -280.38889,-287.5 v -4 a 4,4 90 0 1 4,-4 h 4 v 2 h 10 v -2 h 78 4 a 4,4 90 0 1 4,4 v 4 h -4 v -3 h -4 v 10 h 4 v -3 h 4 v 17 h -4 v -3 h -4 v 10 h 4 v -3 h 4 v 4 a 4,4 90 0 1 -4,4 h -4 -78 -1 v 2 h -8 v -2 h -1 -4 a 4,4 90 0 1 -4,-4 v -4 -21 z" />
          <text
             x="-280.88889"
             y="-296.00003"
             id="svg_88"
             style="font-size:10px;font-family:sans-serif;text-anchor:end;fill:#282828">
            <tspan
               id="svg_89"
               y="-272.00003"
               x="-186.8889">set synth volume</tspan>
          </text>
          <text
             x="-280.88889"
             y="-296.00003"
             id="svg_90"
             style="font-size:6.66666651px;font-family:sans-serif;text-anchor:end;fill:#282828">
            <tspan
               id="svg_91"
               y="-284.00003"
               x="-186.8889">synth</tspan>
          </text>
          <text
             x="-280.88889"
             y="-296.00003"
             id="svg_92"
             style="font-size:6.66666651px;font-family:sans-serif;text-anchor:end;fill:#282828">
            <tspan
               id="svg_93"
               y="-263.00003"
               x="-186.8889">volume</tspan>
          </text>
        </g>
      </g>
      <g
         class=""
         id="svg_94">
        <g
           id="svg_95"
           transform="matrix(1.5,0,0,1.5,569,447)">
          <path
             id="svg_96"
             style="fill:#25c3c0;fill-opacity:1;stroke:#1dbcbd;stroke-width:1;stroke-linecap:round;stroke-opacity:1"
             d="m -272.38889,-295.5 h 110 v 20 h -110 v -8 -1 h -6 v 3 h -2 v -8 h 2 v 3 h 6 v -1 z" />
          <text
             x="-280.88889"
             y="-296.00003"
             id="svg_97"
             style="font-size:10px;font-family:sans-serif;text-anchor:start;fill:#282828">
            <tspan
               id="svg_98"
               y="-282.00003"
               x="-267.88889">guitar</tspan>
          </text>
        </g>
      </g>
      <g
         class=""
         id="svg_99">
        <g
           id="svg_100"
           transform="matrix(1.5,0,0,1.5,569,479)">
          <path
             id="svg_101"
             style="fill:#ff5293;fill-opacity:1;stroke:#ff2c76;stroke-width:1;stroke-linecap:round;stroke-opacity:1"
             d="m -272.38889,-295.5 h 60 v 20 h -60 v -8 -1 h -6 v 3 h -2 v -8 h 2 v 3 h 6 v -1 z" />
          <text
             x="-280.88889"
             y="-296.00003"
             id="svg_102"
             style="font-size:10px;font-family:sans-serif;text-anchor:start;fill:#282828">
            <tspan
               id="svg_103"
               y="-282.00003"
               x="-267.88889">50</tspan>
          </text>
        </g>
      </g>
    </g>
  </g>
</svg>
