<svg xmlns="http://www.w3.org/2000/svg" width="197" height="33"><rect id="backgroundrect" width="100%" height="100%" x="0" y="0" fill="none" stroke="none" style="" class=""/><g class="currentLayer" style=""><title>Layer 1</title><g class=""><g id="svg_15" class=""><g transform="translate(297, 311) scale(1.5)" id="svg_16"><path d="m-198,-199.3333282470703 L-198,-203.3333282470703 A4,4 90 0 1 -194,-207.3333282470703 L-190,-207.3333282470703 L-190,-205.3333282470703 L-180,-205.3333282470703 L-180,-207.3333282470703 L-136,-207.3333282470703 L-132,-207.3333282470703 A4,4 90 0 1 -128,-203.3333282470703 L-128,-199.3333282470703 L-132,-199.3333282470703 L-132,-202.3333282470703 L-136,-202.3333282470703 L-136,-192.3333282470703 L-132,-192.3333282470703 L-132,-195.3333282470703 L-128,-195.3333282470703 L-128,-191.3333282470703 A4,4 90 0 1 -132,-187.3333282470703 L-136,-187.3333282470703 L-180,-187.3333282470703 L-181,-187.3333282470703 L-181,-185.3333282470703 L-189,-185.3333282470703 L-189,-187.3333282470703 L-190,-187.3333282470703 L-194,-187.3333282470703 A4,4 90 0 1 -198,-191.3333282470703 L-198,-195.3333282470703 L-198,-199.3333282470703 z" style="fill:#728FF9;fill-opacity:1;stroke:#5370DC;stroke-width:1;stroke-linecap:round;stroke-opacity:1;" id="svg_17"/><text style="font-size:10px;fill:#282828;font-family:sans-serif;text-anchor:end" id="svg_18" y="-207.8333282470703" x="-198.5"><tspan x="-138.5" y="-193.8333282470703" id="svg_19">set shade</tspan></text><text style="font-size:6.666666666666667px;fill:#282828;font-family:sans-serif;text-anchor:end" id="svg_20" y="-207.8333282470703" x="-198.5"/></g></g><g id="svg_22" class=""><g transform="translate(392, 311) scale(1.5)" id="svg_23"><path d="m-190,-207.3333282470703 L-130,-207.3333282470703 L-130,-187.3333282470703 L-190,-187.3333282470703 L-190,-195.3333282470703 L-190,-196.3333282470703 L-196,-196.3333282470703 L-196,-193.3333282470703 L-198,-193.3333282470703 L-198,-201.3333282470703 L-196,-201.3333282470703 L-196,-198.3333282470703 L-190,-198.3333282470703 L-190,-199.3333282470703 z" style="fill:#FF5293;fill-opacity:1;stroke:#FF2C76;stroke-width:1;stroke-linecap:round;stroke-opacity:1;" id="svg_24"/><text style="font-size:10px;fill:#282828;font-family:sans-serif;text-anchor:start" id="svg_25" y="-207.8333282470703" x="-198.5"><tspan x="-185.5" y="-193.8333282470703" id="svg_26">50</tspan></text></g></g></g></g></svg>