<svg xmlns="http://www.w3.org/2000/svg" width="221" height="65"><rect id="backgroundrect" width="100%" height="100%" x="0" y="0" fill="none" stroke="none" style="" class=""/><g class="currentLayer" style=""><title>Layer 1</title><g class=""><g id="svg_15" class=""><g transform="translate(354, 370) scale(1.5)" id="svg_16"><path d="m-236,-238.6666717529297 L-236,-242.6666717529297 A4,4 90 0 1 -232,-246.6666717529297 L-228,-246.6666717529297 L-228,-244.6666717529297 L-218,-244.6666717529297 L-218,-246.6666717529297 L-188,-246.6666717529297 L-184,-246.6666717529297 A4,4 90 0 1 -180,-242.6666717529297 L-180,-238.6666717529297 L-184,-238.6666717529297 L-184,-241.6666717529297 L-188,-241.6666717529297 L-188,-231.6666717529297 L-184,-231.6666717529297 L-184,-234.6666717529297 L-180,-234.6666717529297 L-180,-217.6666717529297 L-184,-217.6666717529297 L-184,-220.6666717529297 L-188,-220.6666717529297 L-188,-210.6666717529297 L-184,-210.6666717529297 L-184,-213.6666717529297 L-180,-213.6666717529297 L-180,-209.6666717529297 A4,4 90 0 1 -184,-205.6666717529297 L-188,-205.6666717529297 L-218,-205.6666717529297 L-219,-205.6666717529297 L-219,-203.6666717529297 L-227,-203.6666717529297 L-227,-205.6666717529297 L-228,-205.6666717529297 L-232,-205.6666717529297 A4,4 90 0 1 -236,-209.6666717529297 L-236,-213.6666717529297 L-236,-234.6666717529297 L-236,-238.6666717529297 z" style="fill:#FF5942;fill-opacity:1;stroke:#EA4326;stroke-width:1;stroke-linecap:round;stroke-opacity:1;" id="svg_17"/><text style="font-size:10px;fill:#282828;font-family:sans-serif;text-anchor:end" id="svg_18" y="-247.1666717529297" x="-236.5"><tspan x="-190.5" y="-223.1666717529297" id="svg_19">show</tspan></text><text style="font-size:6.666666666666667px;fill:#282828;font-family:sans-serif;text-anchor:end" id="svg_20" y="-247.1666717529297" x="-236.5"><tspan x="-190.5" y="-235.1666717529297" id="svg_21">size</tspan></text><text style="font-size:6.666666666666667px;fill:#282828;font-family:sans-serif;text-anchor:end" id="svg_22" y="-247.1666717529297" x="-236.5"><tspan x="-190.5" y="-214.1666717529297" id="svg_23">obj</tspan></text></g></g><g id="svg_24" class=""><g transform="translate(428, 370) scale(1.5)" id="svg_25"><path d="m-228,-246.6666717529297 L-168,-246.6666717529297 L-168,-226.6666717529297 L-228,-226.6666717529297 L-228,-234.6666717529297 L-228,-235.6666717529297 L-234,-235.6666717529297 L-234,-232.6666717529297 L-236,-232.6666717529297 L-236,-240.6666717529297 L-234,-240.6666717529297 L-234,-237.6666717529297 L-228,-237.6666717529297 L-228,-238.6666717529297 z" style="fill:#FF5293;fill-opacity:1;stroke:#FF2C76;stroke-width:1;stroke-linecap:round;stroke-opacity:1;" id="svg_26"/><text style="font-size:10px;fill:#282828;font-family:sans-serif;text-anchor:start" id="svg_27" y="-247.1666717529297" x="-236.5"><tspan x="-223.5" y="-233.1666717529297" id="svg_28">24</tspan></text></g></g><g id="svg_29" class=""><g transform="translate(428, 402) scale(1.5)" id="svg_30"><path d="m-228,-246.6666717529297 L-138,-246.6666717529297 L-138,-226.6666717529297 L-228,-226.6666717529297 L-228,-234.6666717529297 L-228,-235.6666717529297 L-234,-235.6666717529297 L-234,-232.6666717529297 L-236,-232.6666717529297 L-236,-240.6666717529297 L-234,-240.6666717529297 L-234,-237.6666717529297 L-228,-237.6666717529297 L-228,-238.6666717529297 z" style="fill:#FF5942;fill-opacity:1;stroke:#EA4326;stroke-width:1;stroke-linecap:round;stroke-opacity:1;" id="svg_31"/><text style="font-size:10px;fill:#282828;font-family:sans-serif;text-anchor:start" id="svg_32" y="-247.1666717529297" x="-236.5"><tspan x="-223.5" y="-233.1666717529297" id="svg_33">text</tspan></text></g></g></g></g></svg>