<?xml version="1.0" encoding="UTF-8" standalone="no"?>
<svg
   xmlns:dc="http://purl.org/dc/elements/1.1/"
   xmlns:cc="http://creativecommons.org/ns#"
   xmlns:rdf="http://www.w3.org/1999/02/22-rdf-syntax-ns#"
   xmlns:svg="http://www.w3.org/2000/svg"
   xmlns="http://www.w3.org/2000/svg"
   id="svg1282"
   version="1.1"
   viewBox="0 0 46.831249 17.4625"
   height="66"
   width="177">
  <defs
     id="defs1276" />
  <metadata
     id="metadata1279">
    <rdf:RDF>
      <cc:Work
         rdf:about="">
        <dc:format>image/svg+xml</dc:format>
        <dc:type
           rdf:resource="http://purl.org/dc/dcmitype/StillImage" />
        <dc:title></dc:title>
      </cc:Work>
    </rdf:RDF>
  </metadata>
  <g
     transform="translate(-66.542709,-226.28065)"
     id="layer1">
    <g
       transform="matrix(0.26458333,0,0,0.26458333,66.542709,226.28065)"
       id="g1109">
      <g
         id="g1107"
         transform="scale(1.5)">
        <path
           id="path1093"
           style="fill:#76dbd7;fill-opacity:1;stroke:#003b41;stroke-width:1;stroke-linecap:round;stroke-opacity:1"
           d="m 0.5,8.5 v -4 a 4,4 90 0 1 4,-4 h 4 v 2 h 10 v -2 h 30 4 a 4,4 90 0 1 4,4 v 4 h -4 v -3 h -4 v 10 h 4 v -3 h 4 v 17 h -4 v -3 h -4 v 10 h 4 v -3 h 4 v 4 a 4,4 90 0 1 -4,4 h -4 -30 -1 v 2 h -8 v -2 h -1 -4 a 4,4 90 0 1 -4,-4 v -4 -21 z" />
        <text
           id="text1097"
           style="font-size:10px;font-family:sans-serif;text-anchor:end;fill:#000000">
          <tspan
             id="tspan1095"
             y="24"
             x="46.333332">show</tspan>
        </text>
        <text
           id="text1101"
           style="font-size:6.66666651px;font-family:sans-serif;text-anchor:end;fill:#000000">
          <tspan
             id="tspan1099"
             y="11.25"
             x="46.333332">size</tspan>
        </text>
        <text
           id="text1105"
           style="font-size:6.66666651px;font-family:sans-serif;text-anchor:end;fill:#000000">
          <tspan
             id="tspan1103"
             y="32.25"
             x="46.333332">obj</tspan>
        </text>
      </g>
    </g>
    <g
       id="g1119"
       transform="matrix(0.26458333,0,0,0.26458333,85.989584,226.28065)">
      <g
         id="g1117"
         transform="scale(1.5)">
        <path
           id="path1111"
           style="fill:#ffb2bc;fill-opacity:1;stroke:#601136;stroke-width:1;stroke-linecap:round;stroke-opacity:1"
           d="m 8.5,0.5 h 60 v 20 h -60 v -8 -1 h -6 v 3 h -2 v -8 h 2 v 3 h 6 v -1 z" />
        <text
           id="text1115"
           style="font-size:10px;font-family:sans-serif;text-anchor:start;fill:#000000">
          <tspan
             id="tspan1113"
             y="13.833333"
             x="13.333333">24</tspan>
        </text>
      </g>
    </g>
    <g
       id="g1129"
       transform="matrix(0.26458333,0,0,0.26458333,85.989584,234.61503)">
      <g
         id="g1127"
         transform="scale(1.5)">
        <path
           id="path1121"
           style="fill:#76dbd7;fill-opacity:1;stroke:#003b41;stroke-width:1;stroke-linecap:round;stroke-opacity:1"
           d="m 8.5,0.5 h 60 v 20 h -60 v -8 -1 h -6 v 3 h -2 v -8 h 2 v 3 h 6 v -1 z" />
        <text
           id="text1125"
           style="font-size:10px;font-family:sans-serif;text-anchor:start;fill:#000000">
          <tspan
             id="tspan1123"
             y="13.833333"
             x="13.333333">text</tspan>
        </text>
      </g>
    </g>
  </g>
</svg>
