<?xml version="1.0" encoding="UTF-8" standalone="no"?>
<svg
   xmlns:dc="http://purl.org/dc/elements/1.1/"
   xmlns:cc="http://creativecommons.org/ns#"
   xmlns:rdf="http://www.w3.org/1999/02/22-rdf-syntax-ns#"
   xmlns:svg="http://www.w3.org/2000/svg"
   xmlns="http://www.w3.org/2000/svg"
   id="svg2163"
   version="1.1"
   viewBox="0 0 85.063545 42.59792"
   height="42.597919mm"
   width="85.063545mm">
  <defs
     id="defs2157" />
  <metadata
     id="metadata2160">
    <rdf:RDF>
      <cc:Work
         rdf:about="">
        <dc:format>image/svg+xml</dc:format>
        <dc:type
           rdf:resource="http://purl.org/dc/dcmitype/StillImage" />
        <dc:title></dc:title>
      </cc:Work>
    </rdf:RDF>
  </metadata>
  <g
     transform="translate(-128.32292,-107.40528)"
     id="layer1">
    <g
       transform="matrix(0.26458333,0,0,0.26458333,128.32292,107.40528)"
       id="g590">
      <g
         id="g588"
         transform="scale(1.5)">
        <path
           id="path582"
           style="fill:#d98a43;fill-opacity:1;stroke:#b7651a;stroke-width:1;stroke-linecap:round;stroke-opacity:1"
           d="m 0.5,8.5 v -4 a 4,4 90 0 1 4,-4 h 4 v 2 h 10 v -2 h 32.231445 3 v 2 a 8,8 90 0 0 -8,8 8,8 90 0 0 8,8 v 2 h -3 H 18.5 h -1 v 2 h -8 v -2 h -1 -4 a 4,4 90 0 1 -4,-4 v -4 z" />
        <text
           id="text586"
           style="font-size:10px;font-family:sans-serif;text-anchor:end;fill:#282828">
          <tspan
             id="tspan584"
             y="14"
             x="44">wait for</tspan>
        </text>
      </g>
    </g>
    <g
       id="g1066"
       transform="matrix(0.26458333,0,0,0.26458333,-251.35416,49.726116)">
      <g
         id="g1046"
         transform="translate(1435,250)">
        <g
           id="g1044"
           transform="scale(1.5)">
          <path
             id="path1034"
             style="fill:#fe994f;fill-opacity:1;stroke:#e86b0e;stroke-width:1;stroke-linecap:round;stroke-opacity:1"
             d="m 0.5,8.5 v -4 a 4,4 90 0 1 4,-4 h 4 v 2 h 10 v -2 h 9 60 4 a 4,4 90 0 1 4,4 v 4 h -4 v -3 h -4 v 10 h 4 v -3 h 4 v 4 a 4,4 90 0 1 -4,4 h -4 -60 -1 v 2 h -8 v -2 h -1 -4 a 5,5 90 0 0 -5,5 v 4 4 21 4 a 5,5 90 0 0 5,5 h 4 v 2 h 10 v -2 h 8 v 6 6 4 a 4,4 90 0 1 -4,4 h -4 -9 -1 v 2 h -8 v -2 h -1 -4 a 4,4 90 0 1 -4,-4 v -4 z" />
          <text
             id="text1038"
             style="font-size:10px;font-family:sans-serif;text-anchor:start;fill:#282828">
            <tspan
               id="tspan1036"
               y="15"
               x="20">note</tspan>
          </text>
          <text
             id="text1042"
             style="font-size:6.66666651px;font-family:sans-serif;text-anchor:end;fill:#282828">
            <tspan
               id="tspan1040"
               y="12"
               x="85">value</tspan>
          </text>
        </g>
      </g>
      <g
         id="g1064"
         transform="matrix(0.5,0,0,0.5,1435,254)">
        <g
           id="g1062"
           style="isolation:isolate">
          <g
             data-name="レイヤー 2"
             id="g1060">
            <g
               id="g1058">
              <rect
                 id="rect1048"
                 style="opacity:0.4;mix-blend-mode:multiply;fill:#292929"
                 ry="5"
                 rx="5"
                 height="42"
                 width="42"
                 x="0"
                 y="0" />
              <path
                 id="path1050"
                 style="fill:#ffffff"
                 d="m 30.56,29.8 -4.17,-4.16 h 2.26 a 1.035,1.035 0 1 0 0,-2.07 h -4.71 a 1.08,1.08 0 0 0 -1.11,1 v 0 c 0,0 0,0 0,0.06 v 4.64 0 a 1.04,1.04 0 1 0 2.08,0 v -2.19 l 4.19,4.19 a 1,1 0 0 0 1.46,0 1,1 0 0 0 0,-1.47 z" />
              <path
                 id="path1052"
                 style="fill:#ffffff"
                 d="m 19.17,24.6 a 1.08,1.08 0 0 0 -1.11,-1 h -4.71 a 1.035,1.035 0 1 0 0,2.07 h 2.25 l -4.16,4.13 a 1.039447,1.039447 0 0 0 1.47,1.47 l 4.18,-4.19 v 2.26 a 1.04,1.04 0 1 0 2.08,0 V 24.7 c 0,0 0,0 0,-0.06 a 0.08,0.08 0 0 1 0,-0.04 z" />
              <path
                 id="path1054"
                 style="fill:#ffffff"
                 d="m 23.94,20.5 h 4.7 a 1.04,1.04 0 1 0 0,-2.08 h -2.25 l 4.17,-4.16 a 1,1 0 0 0 0,-1.47 1,1 0 0 0 -1.46,0 L 24.91,17 v -2.28 a 1.04,1.04 0 1 0 -2.08,0 v 4.64 a 0.43,0.43 0 0 0 0,0.05 v 0.05 a 1.09,1.09 0 0 0 1.11,1.04 z" />
              <path
                 id="path1056"
                 style="fill:#ffffff"
                 d="m 18.13,13.62 a 1.08,1.08 0 0 0 -1,1.09 V 17 l -4.18,-4.19 a 1,1 0 0 0 -1.47,0 1,1 0 0 0 0,1.46 l 4.16,4.17 h -2.29 a 1.04,1.04 0 1 0 0,2.08 h 4.71 a 1.09,1.09 0 0 0 1.11,-1 c 0,0 0,0 0,-0.06 v -4.75 a 1.07,1.07 0 0 0 -1.04,-1.09 z" />
            </g>
          </g>
        </g>
      </g>
    </g>
    <g
       id="g1084"
       transform="matrix(0.26458333,0,0,0.26458333,163.24792,115.87195)">
      <g
         id="g1082"
         transform="scale(1.5)">
        <path
           id="path1068"
           style="fill:#ff6ea1;fill-opacity:1;stroke:#ff2c76;stroke-width:1;stroke-linecap:round;stroke-opacity:1"
           d="m 8.5,8.5 v -4 a 4,4 90 0 1 4,-4 h 4 10 30 4 a 4,4 90 0 1 4,4 v 4 h -4 v -3 h -4 v 10 h 4 v -3 h 4 v 17 h -4 v -3 h -4 v 10 h 4 v -3 h 4 v 4 a 4,4 90 0 1 -4,4 h -4 -30 -10 -4 a 4,4 90 0 1 -4,-4 v -4 -21 -1 h -6 v 3 h -2 v -8 h 2 v 3 h 6 z" />
        <text
           id="text1072"
           style="font-size:9px;font-family:sans-serif;text-anchor:end;fill:#282828">
          <tspan
             id="tspan1070"
             y="23"
             x="54">➗</tspan>
        </text>
        <text
           id="text1076"
           style="font-size:6px;font-family:sans-serif;text-anchor:end;fill:#282828">
          <tspan
             id="tspan1074"
             y="12"
             x="54" />
        </text>
        <text
           id="text1080"
           style="font-size:6px;font-family:sans-serif;text-anchor:end;fill:#282828">
          <tspan
             id="tspan1078"
             y="33"
             x="54" />
        </text>
      </g>
    </g>
    <g
       id="g1094"
       transform="matrix(0.26458333,0,0,0.26458333,186.00209,115.87195)">
      <g
         id="g1092"
         transform="scale(1.5)">
        <path
           id="path1086"
           style="fill:#ff6ea1;fill-opacity:1;stroke:#ff2c76;stroke-width:1;stroke-linecap:round;stroke-opacity:1"
           d="m 8.5,0.5 h 60 v 20 h -60 v -8 -1 h -6 v 3 h -2 v -8 h 2 v 3 h 6 v -1 z" />
        <text
           id="text1090"
           style="font-size:10px;font-family:sans-serif;text-anchor:start;fill:#282828">
          <tspan
             id="tspan1088"
             y="14"
             x="13">1</tspan>
        </text>
      </g>
    </g>
    <g
       id="g1104"
       transform="matrix(0.26458333,0,0,0.26458333,186.00209,124.33862)">
      <g
         id="g1102"
         transform="scale(1.5)">
        <path
           id="path1096"
           style="fill:#ff6ea1;fill-opacity:1;stroke:#ff2c76;stroke-width:1;stroke-linecap:round;stroke-opacity:1"
           d="m 8.5,0.5 h 60 v 20 h -60 v -8 -1 h -6 v 3 h -2 v -8 h 2 v 3 h 6 v -1 z" />
        <text
           id="text1100"
           style="font-size:10px;font-family:sans-serif;text-anchor:start;fill:#282828">
          <tspan
             id="tspan1098"
             y="14"
             x="13">4</tspan>
        </text>
      </g>
    </g>
    <g
       id="g1114"
       transform="matrix(0.26458333,0,0,0.26458333,132.02709,124.33862)">
      <g
         id="g1112"
         transform="scale(1.5)">
        <path
           id="path1106"
           style="fill:#c4c4c4;fill-opacity:1;stroke:#a0a0a0;stroke-width:1;stroke-linecap:round;stroke-opacity:1"
           d="m 0.5,8.5 v -4 a 4,4 90 0 1 4,-4 h 4 v 2 h 10 v -2 h 20 4 a 4,4 90 0 1 4,4 v 4 4 4 a 4,4 90 0 1 -4,4 h -4 -20 -1 v 2 h -8 v -2 h -1 -4 a 4,4 90 0 1 -4,-4 v -4 z" />
        <text
           id="text1110"
           style="font-size:10px;font-family:sans-serif;text-anchor:end;fill:#282828">
          <tspan
             id="tspan1108"
             y="14"
             x="36">↓</tspan>
        </text>
      </g>
    </g>
    <g
       id="g1128"
       transform="matrix(0.26458333,0,0,0.26458333,132.02709,132.80528)">
      <g
         id="g1126"
         transform="scale(1.5)">
        <path
           id="path1116"
           style="fill:#3edcdd;fill-opacity:1;stroke:#1dbcbd;stroke-width:1;stroke-linecap:round;stroke-opacity:1"
           d="m 0.5,8.5 v -4 a 4,4 90 0 1 4,-4 h 4 v 2 h 10 v -2 h 30 4 a 4,4 90 0 1 4,4 v 4 h -4 v -3 h -4 v 10 h 4 v -3 h 4 v 4 a 4,4 90 0 1 -4,4 h -4 -30 -1 v 2 h -8 v -2 h -1 -4 a 4,4 90 0 1 -4,-4 v -4 z" />
        <text
           id="text1120"
           style="font-size:10px;font-family:sans-serif;text-anchor:end;fill:#282828">
          <tspan
             id="tspan1118"
             y="14"
             x="46">drum</tspan>
        </text>
        <text
           id="text1124"
           style="font-size:6.66666651px;font-family:sans-serif;text-anchor:end;fill:#282828">
          <tspan
             id="tspan1122"
             y="12"
             x="46" />
        </text>
      </g>
    </g>
    <g
       id="g1138"
       transform="matrix(0.26458333,0,0,0.26458333,151.60625,132.80528)">
      <g
         id="g1136"
         transform="scale(1.5)">
        <path
           id="path1130"
           style="fill:#3edcdd;fill-opacity:1;stroke:#1dbcbd;stroke-width:1;stroke-linecap:round;stroke-opacity:1"
           d="m 8.5,0.5 h 110 v 20 H 8.5 v -8 -1 h -6 v 3 h -2 v -8 h 2 v 3 h 6 v -1 z" />
        <text
           id="text1134"
           style="font-size:10px;font-family:sans-serif;text-anchor:start;fill:#282828">
          <tspan
             id="tspan1132"
             y="14"
             x="13">kick drum</tspan>
        </text>
      </g>
    </g>
    <g
       id="g1254"
       transform="matrix(0.26458333,0,0,0.26458333,146.57917,107.40528)">
      <g
         id="g1252"
         transform="scale(1.5)">
        <path
           id="path1246"
           style="fill:#ff664b;fill-opacity:1;stroke:#ea4326;stroke-width:1;stroke-linecap:round;stroke-opacity:1"
           d="m 0.5,10.5 a 7,7 90 0 1 7,-7 h 1 v -1 -2 h 94.5957 v 16 4 H 8.5 v -2 -1 h -1 a 7,7 90 0 1 -7,-7 z" />
        <text
           id="text1250"
           style="font-size:10px;font-family:sans-serif;text-anchor:end;fill:#282828">
          <tspan
             id="tspan1248"
             y="14"
             x="90">mouse button</tspan>
        </text>
      </g>
    </g>
  </g>
</svg>
