<?xml version="1.0" encoding="UTF-8" standalone="no"?>
<svg
   width="258.35938"
   height="66"
   version="1.1"
   id="svg88"
   xmlns="http://www.w3.org/2000/svg"
   xmlns:svg="http://www.w3.org/2000/svg">
  <defs
     id="defs92" />
  <g
     id="g66">
    <g
       transform="scale(1.5)"
       id="g64">
      <path
         d="m 0.5,8.5 v -4 a 4,4 90 0 1 4,-4 h 4 v 2 h 10 v -2 h 80.058594 3.999996 a 4,4 90 0 1 4,4 v 4 h -4 v -3 h -3.999996 v 10 h 3.999996 v -3 h 4 v 17 h -4 v -3 h -3.999996 v 10 h 3.999996 v -3 h 4 v 4 a 4,4 90 0 1 -4,4 H 98.558594 18.5 h -1 v 2 h -8 v -2 h -1 -4 a 4,4 90 0 1 -4,-4 v -4 -21 z"
         style="fill:#92a9ff;fill-opacity:1;stroke:#5370dc;stroke-width:1;stroke-linecap:round;stroke-opacity:1"
         id="path50" />
      <text
         style="font-size:10px;font-family:sans-serif;text-anchor:end;fill:#282828"
         id="text54"><tspan
           x="96"
           y="24"
           id="tspan52">punto de control 2</tspan></text>
      <text
         style="font-size:6.66667px;font-family:sans-serif;text-anchor:end;fill:#282828"
         id="text58"><tspan
           x="96"
           y="12"
           id="tspan56">x</tspan></text>
      <text
         style="font-size:6.66667px;font-family:sans-serif;text-anchor:end;fill:#282828"
         id="text62"><tspan
           x="96"
           y="33"
           id="tspan60">y</tspan></text>
    </g>
  </g>
  <g
     transform="translate(149)"
     id="g76">
    <g
       transform="scale(1.5)"
       id="g74">
      <path
         d="m 8.5,0.5 h 63.90625 v 20 H 8.5 v -8 -1 h -6 v 3 h -2 v -8 h 2 v 3 h 6 v -1 z"
         style="fill:#ff6ea1;fill-opacity:1;stroke:#ff2c76;stroke-width:1;stroke-linecap:round;stroke-opacity:1"
         id="path68" />
      <text
         style="font-size:10px;font-family:sans-serif;text-anchor:start;fill:#282828"
         id="text72"><tspan
           x="13"
           y="14"
           id="tspan70">100</tspan></text>
    </g>
  </g>
  <g
     transform="translate(149,32)"
     id="g86">
    <g
       transform="scale(1.5)"
       id="g84">
      <path
         d="m 8.5,0.5 h 63.90625 v 20 H 8.5 v -8 -1 h -6 v 3 h -2 v -8 h 2 v 3 h 6 v -1 z"
         style="fill:#ff6ea1;fill-opacity:1;stroke:#ff2c76;stroke-width:1;stroke-linecap:round;stroke-opacity:1"
         id="path78" />
      <text
         style="font-size:10px;font-family:sans-serif;text-anchor:start;fill:#282828"
         id="text82"><tspan
           x="13"
           y="14"
           id="tspan80">25</tspan></text>
    </g>
  </g>
</svg>
