<svg xmlns="http://www.w3.org/2000/svg" width="84" height="97.5"><g transform="translate(0, 0)"><g transform="scale(1.5, 1.5)"><path d="m0.5 8.5 L 0.5 4.5 A 4 4 90 0 1 4.5 0.5 L 8.5 0.5 L 8.5 2.5 L 18.5 2.5 L 18.5 0.5 L 27.5 0.5 L 47.5 0.5 L 51.5 0.5 A 4 4 90 0 1 55.5 4.5 L 55.5 8.5 L 55.5 12.5 L 55.5 16.5 A 4 4 90 0 1 51.5 20.5 L 47.5 20.5 L 27.5 20.5 L 23.5 20.5 A 5 5 90 0 0 18.5 25.5 L 18.5 29.5 L 14.5 29.5 L 14.5 26.5 L 10.5 26.5 L 10.5 36.5 L 14.5 36.5 L 14.5 33.5 L 18.5 33.5 L 18.5 37.5 A 5 5 90 0 0 23.5 42.5 L 27.5 42.5 L 35.5 42.5 L 35.5 48.5 L 35.5 54.5 L 35.5 58.5 A 4 4 90 0 1 31.5 62.5 L 27.5 62.5 L 18.5 62.5 L 17.5 62.5 L 17.5 64.5 L 9.5 64.5 L 9.5 62.5 L 8.5 62.5 L 4.5 62.5 A 4 4 90 0 1 0.5 58.5 L 0.5 54.5 z" style="fill:#FFBF00;fill-opacity:1;stroke:#DAAF30;stroke-width:1;stroke-linecap:round;stroke-opacity:1;" /><text style="font-size:10px;fill:#282828;font-family:sans-serif;text-anchor:start"><tspan x="5" y="15">__NOARG__</tspan></text></g></g></svg>