<?xml version="1.0" encoding="UTF-8" standalone="no"?>
<svg
   width="285.35938"
   height="31.5"
   version="1.1"
   id="svg2085"
   xmlns="http://www.w3.org/2000/svg"
   xmlns:svg="http://www.w3.org/2000/svg">
  <defs
     id="defs2089" />
  <g
     id="g2073">
    <g
       transform="scale(1.5)"
       id="g2071">
      <path
         d="m 8.5,8.5 v -4 a 4,4 90 0 1 4,-4 h 4 10 90.05859 4 a 4,4 90 0 1 4,4 v 4 h -4 v -3 h -4 v 10 h 4 v -3 h 4 v 4 a 4,4 90 0 1 -4,4 h -4 H 26.5 h -10 -4 a 4,4 90 0 1 -4,-4 v -4 -1 h -6 v 3 h -2 v -8 h 2 v 3 h 6 z"
         style="fill:#92a9ff;fill-opacity:1;stroke:#5370dc;stroke-width:1;stroke-linecap:round;stroke-opacity:1"
         id="path2061" />
      <text
         style="font-size:10px;font-family:sans-serif;text-anchor:end;fill:#282828"
         id="text2065"><tspan
           x="114"
           y="13"
           id="tspan2063">nombre de nth ratón</tspan></text>
      <text
         style="font-size:6.66667px;font-family:sans-serif;text-anchor:end;fill:#282828"
         id="text2069"><tspan
           x="114"
           y="12"
           id="tspan2067" /></text>
    </g>
  </g>
  <g
     transform="translate(176)"
     id="g2083">
    <g
       transform="scale(1.5)"
       id="g2081">
      <path
         d="m 8.5,0.5 h 63.90625 v 20 H 8.5 v -8 -1 h -6 v 3 h -2 v -8 h 2 v 3 h 6 v -1 z"
         style="fill:#ff6ea1;fill-opacity:1;stroke:#ff2c76;stroke-width:1;stroke-linecap:round;stroke-opacity:1"
         id="path2075" />
      <text
         style="font-size:10px;font-family:sans-serif;text-anchor:start;fill:#282828"
         id="text2079"><tspan
           x="13"
           y="14"
           id="tspan2077">1</tspan></text>
    </g>
  </g>
</svg>
