<svg xmlns="http://www.w3.org/2000/svg" width="467.5" height="175.5"><g transform="translate(0, 0)"><g transform="scale(1.5, 1.5)"><path d="m0.5 14.5 L 0.5 10.5 A 4 4 90 0 1 4.5 6.5 L 8.5 6.5 L 13.5 0.5 L 18.5 6.5 L 27.5 6.5 L 154.78515625 6.5 L 158.78515625 6.5 A 4 4 90 0 1 162.78515625 10.5 L 162.78515625 14.5 L 162.78515625 18.5 L 162.78515625 22.5 A 4 4 90 0 1 158.78515625 26.5 L 154.78515625 26.5 L 27.5 26.5 L 26.5 26.5 L 26.5 28.5 L 18.5 28.5 L 18.5 26.5 L 17.5 26.5 L 13.5 26.5 A 5 5 90 0 0 8.5 31.5 L 8.5 35.5 L 8.5 39.5 L 8.5 81.5 L 8.5 85.5 A 5 5 90 0 0 13.5 90.5 L 17.5 90.5 L 17.5 92.5 L 27.5 92.5 L 27.5 90.5 L 35.5 90.5 L 35.5 96.5 L 35.5 102.5 L 35.5 106.5 A 4 4 90 0 1 31.5 110.5 L 27.5 110.5 L 18.5 110.5 L 13.5 116.5 L 8.5 110.5 L 4.5 110.5 A 4 4 90 0 1 0.5 106.5 L 0.5 102.5 z" style="fill:#7CD622;fill-opacity:1;stroke:#57AD02;stroke-width:1;stroke-linecap:round;stroke-opacity:1;" /><text style="font-size:10px;fill:#282828;font-family:sans-serif;text-anchor:start"><tspan x="20" y="22">muestreador de audio</tspan></text></g></g><g transform="translate(14, 41)"><g transform="scale(1.5, 1.5)"><path d="m0.5 8.5 L 0.5 4.5 A 4 4 90 0 1 4.5 0.5 L 8.5 0.5 L 8.5 2.5 L 18.5 2.5 L 18.5 0.5 L 27.5 0.5 L 108.6376953125 0.5 L 112.6376953125 0.5 A 4 4 90 0 1 116.6376953125 4.5 L 116.6376953125 8.5 L 112.6376953125 8.5 L 112.6376953125 5.5 L 108.6376953125 5.5 L 108.6376953125 15.5 L 112.6376953125 15.5 L 112.6376953125 12.5 L 116.6376953125 12.5 L 116.6376953125 16.5 A 4 4 90 0 1 112.6376953125 20.5 L 108.6376953125 20.5 L 27.5 20.5 L 26.5 20.5 L 26.5 22.5 L 18.5 22.5 L 18.5 20.5 L 17.5 20.5 L 13.5 20.5 A 5 5 90 0 0 8.5 25.5 L 8.5 29.5 L 8.5 33.5 L 8.5 37.5 A 5 5 90 0 0 13.5 42.5 L 17.5 42.5 L 17.5 44.5 L 27.5 44.5 L 27.5 42.5 L 35.5 42.5 L 35.5 48.5 L 35.5 54.5 L 35.5 58.5 A 4 4 90 0 1 31.5 62.5 L 27.5 62.5 L 18.5 62.5 L 17.5 62.5 L 17.5 64.5 L 9.5 64.5 L 9.5 62.5 L 8.5 62.5 L 4.5 62.5 A 4 4 90 0 1 0.5 58.5 L 0.5 54.5 z" style="fill:#3EDCDD;fill-opacity:1;stroke:#1DBCBD;stroke-width:1;stroke-linecap:round;stroke-opacity:1;" /><text style="font-size:10px;fill:#282828;font-family:sans-serif;text-anchor:start"><tspan x="5" y="15">fijar instrumento</tspan></text><text style="font-size:6.666666666666667px;fill:#282828;font-family:sans-serif;text-anchor:end"><tspan x="106" y="12"></tspan></text></g></g><g transform="translate(178, 41)"><g transform="scale(1.5, 1.5)"><path d="m8.5 8.5 L 8.5 4.5 A 4 4 90 0 1 12.5 0.5 L 16.5 0.5 L 26.5 0.5 L 103.7705078125 0.5 L 107.7705078125 0.5 A 4 4 90 0 1 111.7705078125 4.5 L 111.7705078125 8.5 L 107.7705078125 8.5 L 107.7705078125 5.5 L 103.7705078125 5.5 L 103.7705078125 15.5 L 107.7705078125 15.5 L 107.7705078125 12.5 L 111.7705078125 12.5 L 111.7705078125 29.5 L 107.7705078125 29.5 L 107.7705078125 26.5 L 103.7705078125 26.5 L 103.7705078125 36.5 L 107.7705078125 36.5 L 107.7705078125 33.5 L 111.7705078125 33.5 L 111.7705078125 50.5 L 107.7705078125 50.5 L 107.7705078125 47.5 L 103.7705078125 47.5 L 103.7705078125 57.5 L 107.7705078125 57.5 L 107.7705078125 54.5 L 111.7705078125 54.5 L 111.7705078125 58.5 A 4 4 90 0 1 107.7705078125 62.5 L 103.7705078125 62.5 L 26.5 62.5 L 16.5 62.5 L 12.5 62.5 A 4 4 90 0 1 8.5 58.5 L 8.5 54.5 L 8.5 12.5 L 8.5 11.5 L 2.5 11.5 L 2.5 14.5 L 0.5 14.5 L 0.5 6.5 L 2.5 6.5 L 2.5 9.5 L 8.5 9.5 L 8.5 8.5 z" style="fill:#3EDCDD;fill-opacity:1;stroke:#1DBCBD;stroke-width:1;stroke-linecap:round;stroke-opacity:1;" /><text style="font-size:10px;fill:#282828;font-family:sans-serif;text-anchor:end"><tspan x="102" y="20">muestra de audio</tspan></text><text style="font-size:6.666666666666667px;fill:#282828;font-family:sans-serif;text-anchor:end"><tspan x="102" y="12">archivo</tspan></text><text style="font-size:6.666666666666667px;fill:#282828;font-family:sans-serif;text-anchor:end"><tspan x="102" y="33">nombre</tspan></text><text style="font-size:6.666666666666667px;fill:#282828;font-family:sans-serif;text-anchor:end"><tspan x="102" y="54">octava</tspan></text></g></g><g transform="translate(334, 41)"><g transform="scale(1.5, 1.5)"><path d="m8.5 0.5 L 88.5 0.5 L 88.5 20.5 L 8.5 20.5 L 8.5 12.5 L 8.5 11.5 L 2.5 11.5 L 2.5 14.5 L 0.5 14.5 L 0.5 6.5 L 2.5 6.5 L 2.5 9.5 L 8.5 9.5 L 8.5 8.5 z" style="fill:#3EDCDD;fill-opacity:1;stroke:#1DBCBD;stroke-width:1;stroke-linecap:round;stroke-opacity:1;" /><text style="font-size:10px;fill:#282828;font-family:sans-serif;text-anchor:start"><tspan x="13" y="14"></tspan></text></g></g><g transform="translate(334, 73)"><g transform="scale(1.5, 1.5)"><path d="m8.5 0.5 L 70.74609375 0.5 L 70.74609375 20.5 L 8.5 20.5 L 8.5 12.5 L 8.5 11.5 L 2.5 11.5 L 2.5 14.5 L 0.5 14.5 L 0.5 6.5 L 2.5 6.5 L 2.5 9.5 L 8.5 9.5 L 8.5 8.5 z" style="fill:#7CD622;fill-opacity:1;stroke:#57AD02;stroke-width:1;stroke-linecap:round;stroke-opacity:1;" /><text style="font-size:10px;fill:#282828;font-family:sans-serif;text-anchor:start"><tspan x="13" y="14">hacer</tspan></text></g></g><g transform="translate(334, 104)"><g transform="scale(1.5, 1.5)"><path d="m8.5 0.5 L 72.40625 0.5 L 72.40625 20.5 L 8.5 20.5 L 8.5 12.5 L 8.5 11.5 L 2.5 11.5 L 2.5 14.5 L 0.5 14.5 L 0.5 6.5 L 2.5 6.5 L 2.5 9.5 L 8.5 9.5 L 8.5 8.5 z" style="fill:#FF6EA1;fill-opacity:1;stroke:#FF2C76;stroke-width:1;stroke-linecap:round;stroke-opacity:1;" /><text style="font-size:10px;fill:#282828;font-family:sans-serif;text-anchor:start"><tspan x="13" y="14">4</tspan></text></g></g><g transform="translate(28, 73)"><g transform="scale(1.5, 1.5)"><path d="m0.5 8.5 L 0.5 4.5 A 4 4 90 0 1 4.5 0.5 L 8.5 0.5 L 8.5 2.5 L 18.5 2.5 L 18.5 0.5 L 38.5 0.5 L 42.5 0.5 A 4 4 90 0 1 46.5 4.5 L 46.5 8.5 L 46.5 12.5 L 46.5 16.5 A 4 4 90 0 1 42.5 20.5 L 38.5 20.5 L 18.5 20.5 L 17.5 20.5 L 17.5 22.5 L 9.5 22.5 L 9.5 20.5 L 8.5 20.5 L 4.5 20.5 A 4 4 90 0 1 0.5 16.5 L 0.5 12.5 z" style="fill:#C4C4C4;fill-opacity:1;stroke:#A0A0A0;stroke-width:1;stroke-linecap:round;stroke-opacity:1;" /><text style="font-size:10px;fill:#282828;font-family:sans-serif;text-anchor:end"><tspan x="36" y="14">↓</tspan></text></g></g></svg>