<?xml version="1.0" encoding="UTF-8" standalone="no"?>
<svg
   xmlns:dc="http://purl.org/dc/elements/1.1/"
   xmlns:cc="http://creativecommons.org/ns#"
   xmlns:rdf="http://www.w3.org/1999/02/22-rdf-syntax-ns#"
   xmlns:svg="http://www.w3.org/2000/svg"
   xmlns="http://www.w3.org/2000/svg"
   id="svg4537"
   version="1.1"
   height="31.5"
   width="357.5">
  <metadata
     id="metadata4543">
    <rdf:RDF>
      <cc:Work
         rdf:about="">
        <dc:format>image/svg+xml</dc:format>
        <dc:type
           rdf:resource="http://purl.org/dc/dcmitype/StillImage" />
        <dc:title></dc:title>
      </cc:Work>
    </rdf:RDF>
  </metadata>
  <defs
     id="defs4541" />
  <g
     id="g164">
    <g
       id="g162"
       transform="scale(1.5)">
      <path
         id="path152"
         style="fill:#92a9ff;fill-opacity:1;stroke:#5370dc;stroke-width:1;stroke-linecap:round;stroke-opacity:1"
         d="m 8.5,8.5 v -4 a 4,4 90 0 1 4,-4 h 4 10 112 4 a 4,4 90 0 1 4,4 v 4 h -4 v -3 h -4 v 10 h 4 v -3 h 4 v 4 a 4,4 90 0 1 -4,4 h -4 -112 -10 -4 a 4,4 90 0 1 -4,-4 v -4 -1 h -6 v 3 h -2 v -8 h 2 v 3 h 6 z" />
      <text
         id="text156"
         style="font-size:10px;font-family:sans-serif;text-anchor:end;fill:#282828">
        <tspan
           id="tspan154"
           y="13"
           x="136">notas jugadas de ratón</tspan>
      </text>
      <text
         id="text160"
         style="font-size:6.66666651px;font-family:sans-serif;text-anchor:end;fill:#282828">
        <tspan
           id="tspan158"
           y="12"
           x="136" />
      </text>
    </g>
  </g>
  <g
     id="g174"
     transform="translate(209)">
    <g
       id="g172"
       transform="scale(1.5)">
      <path
         id="path166"
         style="fill:#ff664b;fill-opacity:1;stroke:#ea4326;stroke-width:1;stroke-linecap:round;stroke-opacity:1"
         d="m 8.5,0.5 h 90 v 20 h -90 v -8 -1 h -6 v 3 h -2 v -8 h 2 v 3 h 6 v -1 z" />
      <text
         id="text170"
         style="font-size:10px;font-family:sans-serif;text-anchor:start;fill:#282828">
        <tspan
           id="tspan168"
           y="14"
           x="13">Sr. Ratón</tspan>
      </text>
    </g>
  </g>
</svg>
