<?xml version="1.0" encoding="UTF-8" standalone="no"?>
<svg
   width="426.5"
   height="63.5"
   version="1.1"
   id="svg373"
   xmlns="http://www.w3.org/2000/svg"
   xmlns:svg="http://www.w3.org/2000/svg">
  <defs
     id="defs377" />
  <g
     id="g323">
    <g
       transform="scale(1.5)"
       id="g321">
      <path
         d="m 0.5,8.5 v -4 a 4,4 90 0 1 4,-4 h 4 v 2 h 10 v -2 h 35.546875 4 a 4,4 90 0 1 4,4 v 4 h -4 v -3 h -4 v 10 h 4 v -3 h 4 v 4 a 4,4 90 0 1 -4,4 h -4 H 18.5 h -1 v 2 h -8 v -2 h -1 -4 a 4,4 90 0 1 -4,-4 v -4 z"
         style="fill:#c4c4c4;fill-opacity:1;stroke:#a0a0a0;stroke-width:1;stroke-linecap:round;stroke-opacity:1"
         id="path311" />
      <text
         style="font-size:10px;font-family:sans-serif;text-anchor:end;fill:#282828"
         id="text315"><tspan
           x="52"
           y="14"
           id="tspan313">imprimir</tspan></text>
      <text
         style="font-size:6.66667px;font-family:sans-serif;text-anchor:end;fill:#282828"
         id="text319"><tspan
           x="52"
           y="12"
           id="tspan317" /></text>
    </g>
  </g>
  <g
     transform="translate(82)"
     id="g341">
    <g
       transform="scale(1.5)"
       id="g339">
      <path
         d="m 8.5,8.5 v -4 a 4,4 90 0 1 4,-4 h 4 10 103.95508 4 a 4,4 90 0 1 4,4 v 4 h -4 v -3 h -4 v 10 h 4 v -3 h 4 v 17 h -4 v -3 h -4 v 10 h 4 v -3 h 4 v 4 a 4,4 90 0 1 -4,4 h -4 H 26.5 h -10 -4 a 4,4 90 0 1 -4,-4 v -4 -21 -1 h -6 v 3 h -2 v -8 h 2 v 3 h 6 z"
         style="fill:#92a9ff;fill-opacity:1;stroke:#5370dc;stroke-width:1;stroke-linecap:round;stroke-opacity:1"
         id="path325" />
      <text
         style="font-size:10px;font-family:sans-serif;text-anchor:end;fill:#282828"
         id="text329"><tspan
           x="128"
           y="23"
           id="tspan327">valor en la pila de rat贸n</tspan></text>
      <text
         style="font-size:6.66667px;font-family:sans-serif;text-anchor:end;fill:#282828"
         id="text333"><tspan
           x="128"
           y="12"
           id="tspan331">renombrar rat贸n</tspan></text>
      <text
         style="font-size:6.66667px;font-family:sans-serif;text-anchor:end;fill:#282828"
         id="text337"><tspan
           x="128"
           y="33"
           id="tspan335">posici贸n en la pila</tspan></text>
    </g>
  </g>
  <g
     transform="translate(278)"
     id="g351">
    <g
       transform="scale(1.5)"
       id="g349">
      <path
         d="m 8.5,0.5 h 90 v 20 h -90 v -8 -1 h -6 v 3 h -2 v -8 h 2 v 3 h 6 v -1 z"
         style="fill:#ff664b;fill-opacity:1;stroke:#ea4326;stroke-width:1;stroke-linecap:round;stroke-opacity:1"
         id="path343" />
      <text
         style="font-size:10px;font-family:sans-serif;text-anchor:start;fill:#282828"
         id="text347"><tspan
           x="13"
           y="14"
           id="tspan345">Sr. Rat贸n</tspan></text>
    </g>
  </g>
  <g
     transform="translate(278,32)"
     id="g361">
    <g
       transform="scale(1.5)"
       id="g359">
      <path
         d="m 8.5,0.5 h 63.90625 v 20 H 8.5 v -8 -1 h -6 v 3 h -2 v -8 h 2 v 3 h 6 v -1 z"
         style="fill:#ff6ea1;fill-opacity:1;stroke:#ff2c76;stroke-width:1;stroke-linecap:round;stroke-opacity:1"
         id="path353" />
      <text
         style="font-size:10px;font-family:sans-serif;text-anchor:start;fill:#282828"
         id="text357"><tspan
           x="13"
           y="14"
           id="tspan355">1</tspan></text>
    </g>
  </g>
</svg>
