<?xml version="1.0" encoding="UTF-8" standalone="no"?>
<svg
   xmlns:dc="http://purl.org/dc/elements/1.1/"
   xmlns:cc="http://creativecommons.org/ns#"
   xmlns:rdf="http://www.w3.org/1999/02/22-rdf-syntax-ns#"
   xmlns:svg="http://www.w3.org/2000/svg"
   xmlns="http://www.w3.org/2000/svg"
   width="88.50312mm"
   height="146.66994mm"
   viewBox="0 0 88.503121 146.66994"
   version="1.1"
   id="svg2831">
  <defs
     id="defs2825" />
  <metadata
     id="metadata2828">
    <rdf:RDF>
      <cc:Work
         rdf:about="">
        <dc:format>image/svg+xml</dc:format>
        <dc:type
           rdf:resource="http://purl.org/dc/dcmitype/StillImage" />
        <dc:title></dc:title>
      </cc:Work>
    </rdf:RDF>
  </metadata>
  <g
     transform="matrix(0.26458333,0,0,0.26458333,-345.54583,-36.930134)"
     id="g106">
    <g
       id="g86"
       transform="translate(1319.5,180.5)">
      <g
         id="g84"
         transform="scale(1.5)">
        <path
           id="path74"
           style="fill:#ff8b2d;fill-opacity:1;stroke:#e86b0e;stroke-width:1;stroke-linecap:round;stroke-opacity:1"
           d="m 0.5,8.5 v -4 a 4,4 90 0 1 4,-4 h 4 v 2 h 10 v -2 h 9 60 4 a 4,4 90 0 1 4,4 v 4 h -4 v -3 h -4 v 10 h 4 v -3 h 4 v 4 a 4,4 90 0 1 -4,4 h -4 -60 -1 v 2 h -8 v -2 h -1 -4 a 5,5 90 0 0 -5,5 v 4 4 42 4 a 5,5 90 0 0 5,5 h 4 v 2 h 10 v -2 h 8 v 6 6 4 a 4,4 90 0 1 -4,4 h -4 -9 -1 v 2 h -8 v -2 h -1 -4 a 4,4 90 0 1 -4,-4 v -4 z" />
        <text
           id="text78"
           style="font-size:10px;font-family:sans-serif;text-anchor:start;fill:#282828">
          <tspan
             id="tspan76"
             y="15"
             x="20">おんぷ</tspan>
        </text>
        <text
           id="text82"
           style="font-size:6.66666651px;font-family:sans-serif;text-anchor:end;fill:#282828">
          <tspan
             id="tspan80"
             y="12"
             x="85">ながさ</tspan>
        </text>
      </g>
    </g>
    <g
       id="g104"
       transform="matrix(0.5,0,0,0.5,1319.5,184.5)">
      <g
         id="g102"
         style="isolation:isolate">
        <g
           data-name="レイヤー 2"
           id="g100">
          <g
             id="g98">
            <rect
               y="0"
               x="0"
               id="rect88"
               style="opacity:0.4;mix-blend-mode:multiply;fill:#292929"
               ry="5"
               rx="5"
               height="42"
               width="42" />
            <path
               id="path90"
               style="fill:#ffffff"
               d="m 30.56,29.8 -4.17,-4.16 h 2.26 a 1.035,1.035 0 1 0 0,-2.07 h -4.71 a 1.08,1.08 0 0 0 -1.11,1 v 0 c 0,0 0,0 0,0.06 v 4.64 0 a 1.04,1.04 0 1 0 2.08,0 v -2.19 l 4.19,4.19 a 1,1 0 0 0 1.46,0 1,1 0 0 0 0,-1.47 z" />
            <path
               id="path92"
               style="fill:#ffffff"
               d="m 19.17,24.6 a 1.08,1.08 0 0 0 -1.11,-1 h -4.71 a 1.035,1.035 0 1 0 0,2.07 h 2.25 l -4.16,4.13 a 1.039447,1.039447 0 0 0 1.47,1.47 l 4.18,-4.19 v 2.26 a 1.04,1.04 0 1 0 2.08,0 V 24.7 c 0,0 0,0 0,-0.06 a 0.08,0.08 0 0 1 0,-0.04 z" />
            <path
               id="path94"
               style="fill:#ffffff"
               d="m 23.94,20.5 h 4.7 a 1.04,1.04 0 1 0 0,-2.08 h -2.25 l 4.17,-4.16 a 1,1 0 0 0 0,-1.47 1,1 0 0 0 -1.46,0 L 24.91,17 v -2.28 a 1.04,1.04 0 1 0 -2.08,0 v 4.64 a 0.43,0.43 0 0 0 0,0.05 v 0.05 a 1.09,1.09 0 0 0 1.11,1.04 z" />
            <path
               id="path96"
               style="fill:#ffffff"
               d="m 18.13,13.62 a 1.08,1.08 0 0 0 -1,1.09 V 17 l -4.18,-4.19 a 1,1 0 0 0 -1.47,0 1,1 0 0 0 0,1.46 l 4.16,4.17 h -2.29 a 1.04,1.04 0 1 0 0,2.08 h 4.71 a 1.09,1.09 0 0 0 1.11,-1 c 0,0 0,0 0,-0.06 v -4.75 a 1.07,1.07 0 0 0 -1.04,-1.09 z" />
          </g>
        </g>
      </g>
    </g>
  </g>
  <g
     id="g124"
     transform="matrix(0.26458333,0,0,0.26458333,38.496873,10.827157)">
    <g
       id="g122"
       transform="scale(1.5)">
      <path
         id="path108"
         style="fill:#ff5293;fill-opacity:1;stroke:#ff2c76;stroke-width:1;stroke-linecap:round;stroke-opacity:1"
         d="m 8.5,8.5 v -4 a 4,4 90 0 1 4,-4 h 4 10 30 4 a 4,4 90 0 1 4,4 v 4 h -4 v -3 h -4 v 10 h 4 v -3 h 4 v 17 h -4 v -3 h -4 v 10 h 4 v -3 h 4 v 4 a 4,4 90 0 1 -4,4 h -4 -30 -10 -4 a 4,4 90 0 1 -4,-4 v -4 -21 -1 h -6 v 3 h -2 v -8 h 2 v 3 h 6 z" />
      <text
         id="text112"
         style="font-size:9px;font-family:sans-serif;text-anchor:end;fill:#282828">
        <tspan
           id="tspan110"
           y="23"
           x="54">➗</tspan>
      </text>
      <text
         id="text116"
         style="font-size:6px;font-family:sans-serif;text-anchor:end;fill:#282828">
        <tspan
           id="tspan114"
           y="12"
           x="54" />
      </text>
      <text
         id="text120"
         style="font-size:6px;font-family:sans-serif;text-anchor:end;fill:#282828">
        <tspan
           id="tspan118"
           y="33"
           x="54" />
      </text>
    </g>
  </g>
  <g
     id="g134"
     transform="matrix(0.26458333,0,0,0.26458333,61.118748,10.827157)">
    <g
       id="g132"
       transform="scale(1.5)">
      <path
         id="path126"
         style="fill:#ff5293;fill-opacity:1;stroke:#ff2c76;stroke-width:1;stroke-linecap:round;stroke-opacity:1"
         d="m 8.5,0.5 h 60 v 20 h -60 v -8 -1 h -6 v 3 h -2 v -8 h 2 v 3 h 6 v -1 z" />
      <text
         id="text130"
         style="font-size:10px;font-family:sans-serif;text-anchor:start;fill:#282828">
        <tspan
           id="tspan128"
           y="14"
           x="13">1</tspan>
      </text>
    </g>
  </g>
  <g
     id="g144"
     transform="matrix(0.26458333,0,0,0.26458333,61.118748,19.161532)">
    <g
       id="g142"
       transform="scale(1.5)">
      <path
         id="path136"
         style="fill:#ff5293;fill-opacity:1;stroke:#ff2c76;stroke-width:1;stroke-linecap:round;stroke-opacity:1"
         d="m 8.5,0.5 h 60 v 20 h -60 v -8 -1 h -6 v 3 h -2 v -8 h 2 v 3 h 6 v -1 z" />
      <text
         id="text140"
         style="font-size:10px;font-family:sans-serif;text-anchor:start;fill:#282828">
        <tspan
           id="tspan138"
           y="14"
           x="13">4</tspan>
      </text>
    </g>
  </g>
  <g
     id="g154"
     transform="matrix(0.26458333,0,0,0.26458333,7.1437489,19.161532)">
    <g
       id="g152"
       transform="scale(1.5)">
      <path
         id="path146"
         style="fill:#b0b0b0;fill-opacity:1;stroke:#a0a0a0;stroke-width:1;stroke-linecap:round;stroke-opacity:1"
         d="m 0.5,8.5 v -4 a 4,4 90 0 1 4,-4 h 4 v 2 h 10 v -2 h 20 4 a 4,4 90 0 1 4,4 v 4 4 4 a 4,4 90 0 1 -4,4 h -4 -20 -1 v 2 h -8 v -2 h -1 -4 a 4,4 90 0 1 -4,-4 v -4 z" />
      <text
         id="text150"
         style="font-size:10px;font-family:sans-serif;text-anchor:end;fill:#282828">
        <tspan
           id="tspan148"
           y="14"
           x="36">↓</tspan>
      </text>
    </g>
  </g>
  <path
     id="path156"
     style="fill:#77c428;fill-opacity:1;stroke:#57ad02;stroke-width:0.39687499;stroke-linecap:round;stroke-opacity:1"
     d="m 7.3421864,30.869344 v -1.5875 c 0,-0.876752 0.710748,-1.5875 1.5875,-1.5875 h 1.5874996 v 0.79375 h 3.96875 v -0.79375 h 20.372918 1.5875 c 0.876752,0 1.5875,0.710748 1.5875,1.5875 v 1.5875 h -1.5875 v -1.190625 h -1.5875 v 3.96875 h 1.5875 v -1.190624 h 1.5875 v 6.746874 h -1.5875 v -1.190625 h -1.5875 v 3.96875 h 1.5875 v -1.190625 h 1.5875 v 1.587501 c 0,0.876752 -0.710748,1.587499 -1.5875,1.587499 h -1.5875 -20.372918 -0.396875 v 0.79375 h -3.175 v -0.79375 H 10.517186 8.9296864 c -0.876752,0 -1.5875,-0.710747 -1.5875,-1.587499 v -1.587501 -8.334374 z" />
  <text
     y="27.495907"
     x="15.610409"
     id="text160"
     style="font-size:3.96875px;font-family:sans-serif;text-anchor:end;fill:#282828;stroke-width:0.39687499">
    <tspan
       style="stroke-width:0.39687499"
       id="tspan158"
       y="37.020908"
       x="33.866673">おとの たかさ</tspan>
  </text>
  <text
     y="27.495907"
     x="15.610409"
     id="text164"
     style="font-size:2.64583325px;font-family:sans-serif;text-anchor:end;fill:#282828;stroke-width:0.39687499">
    <tspan
       style="stroke-width:0.39687499"
       id="tspan162"
       y="32.258408"
       x="33.866673">なまえ</tspan>
  </text>
  <text
     y="27.495907"
     x="15.610409"
     id="text168"
     style="font-size:2.64583325px;font-family:sans-serif;text-anchor:end;fill:#282828;stroke-width:0.39687499">
    <tspan
       style="stroke-width:0.39687499"
       id="tspan166"
       y="40.592781"
       x="33.866673">オクターヴの たかさ</tspan>
  </text>
  <g
     id="g182"
     transform="matrix(0.26458333,0,0,0.26458333,35.057296,27.495907)">
    <g
       id="g180"
       transform="scale(1.5)">
      <path
         id="path174"
         style="fill:#77c428;fill-opacity:1;stroke:#57ad02;stroke-width:1;stroke-linecap:round;stroke-opacity:1"
         d="m 8.5,0.5 h 60 v 20 h -60 v -8 -1 h -6 v 3 h -2 v -8 h 2 v 3 h 6 v -1 z" />
      <text
         id="text178"
         style="font-size:10px;font-family:sans-serif;text-anchor:start;fill:#282828">
        <tspan
           id="tspan176"
           y="14"
           x="13">ソ</tspan>
      </text>
    </g>
  </g>
  <g
     id="g192"
     transform="matrix(0.26458333,0,0,0.26458333,35.057296,35.830282)">
    <g
       id="g190"
       transform="scale(1.5)">
      <path
         id="path184"
         style="fill:#ff5293;fill-opacity:1;stroke:#ff2c76;stroke-width:1;stroke-linecap:round;stroke-opacity:1"
         d="m 8.5,0.5 h 60 v 20 h -60 v -8 -1 h -6 v 3 h -2 v -8 h 2 v 3 h 6 v -1 z" />
      <text
         id="text188"
         style="font-size:10px;font-family:sans-serif;text-anchor:start;fill:#282828">
        <tspan
           id="tspan186"
           y="14"
           x="13">4</tspan>
      </text>
    </g>
  </g>
  <g
     transform="matrix(0.26458333,0,0,0.26458333,-345.54583,-36.930134)"
     id="g226">
    <g
       id="g206"
       transform="translate(1319.5,338)">
      <g
         id="g204"
         transform="scale(1.5)">
        <path
           id="path194"
           style="fill:#ff8b2d;fill-opacity:1;stroke:#e86b0e;stroke-width:1;stroke-linecap:round;stroke-opacity:1"
           d="m 0.5,8.5 v -4 a 4,4 90 0 1 4,-4 h 4 v 2 h 10 v -2 h 9 60 4 a 4,4 90 0 1 4,4 v 4 h -4 v -3 h -4 v 10 h 4 v -3 h 4 v 4 a 4,4 90 0 1 -4,4 h -4 -60 -1 v 2 h -8 v -2 h -1 -4 a 5,5 90 0 0 -5,5 v 4 4 42 4 a 5,5 90 0 0 5,5 h 4 v 2 h 10 v -2 h 8 v 6 6 4 a 4,4 90 0 1 -4,4 h -4 -9 -1 v 2 h -8 v -2 h -1 -4 a 4,4 90 0 1 -4,-4 v -4 z" />
        <text
           id="text198"
           style="font-size:10px;font-family:sans-serif;text-anchor:start;fill:#282828">
          <tspan
             id="tspan196"
             y="15"
             x="20">おんぷ</tspan>
        </text>
        <text
           id="text202"
           style="font-size:6.66666651px;font-family:sans-serif;text-anchor:end;fill:#282828">
          <tspan
             id="tspan200"
             y="12"
             x="85">ながさ</tspan>
        </text>
      </g>
    </g>
    <g
       id="g224"
       transform="matrix(0.5,0,0,0.5,1319.5,342)">
      <g
         id="g222"
         style="isolation:isolate">
        <g
           data-name="レイヤー 2"
           id="g220">
          <g
             id="g218">
            <rect
               y="0"
               x="0"
               id="rect208"
               style="opacity:0.4;mix-blend-mode:multiply;fill:#292929"
               ry="5"
               rx="5"
               height="42"
               width="42" />
            <path
               id="path210"
               style="fill:#ffffff"
               d="m 30.56,29.8 -4.17,-4.16 h 2.26 a 1.035,1.035 0 1 0 0,-2.07 h -4.71 a 1.08,1.08 0 0 0 -1.11,1 v 0 c 0,0 0,0 0,0.06 v 4.64 0 a 1.04,1.04 0 1 0 2.08,0 v -2.19 l 4.19,4.19 a 1,1 0 0 0 1.46,0 1,1 0 0 0 0,-1.47 z" />
            <path
               id="path212"
               style="fill:#ffffff"
               d="m 19.17,24.6 a 1.08,1.08 0 0 0 -1.11,-1 h -4.71 a 1.035,1.035 0 1 0 0,2.07 h 2.25 l -4.16,4.13 a 1.039447,1.039447 0 0 0 1.47,1.47 l 4.18,-4.19 v 2.26 a 1.04,1.04 0 1 0 2.08,0 V 24.7 c 0,0 0,0 0,-0.06 a 0.08,0.08 0 0 1 0,-0.04 z" />
            <path
               id="path214"
               style="fill:#ffffff"
               d="m 23.94,20.5 h 4.7 a 1.04,1.04 0 1 0 0,-2.08 h -2.25 l 4.17,-4.16 a 1,1 0 0 0 0,-1.47 1,1 0 0 0 -1.46,0 L 24.91,17 v -2.28 a 1.04,1.04 0 1 0 -2.08,0 v 4.64 a 0.43,0.43 0 0 0 0,0.05 v 0.05 a 1.09,1.09 0 0 0 1.11,1.04 z" />
            <path
               id="path216"
               style="fill:#ffffff"
               d="m 18.13,13.62 a 1.08,1.08 0 0 0 -1,1.09 V 17 l -4.18,-4.19 a 1,1 0 0 0 -1.47,0 1,1 0 0 0 0,1.46 l 4.16,4.17 h -2.29 a 1.04,1.04 0 1 0 0,2.08 h 4.71 a 1.09,1.09 0 0 0 1.11,-1 c 0,0 0,0 0,-0.06 v -4.75 a 1.07,1.07 0 0 0 -1.04,-1.09 z" />
          </g>
        </g>
      </g>
    </g>
  </g>
  <g
     id="g244"
     transform="matrix(0.26458333,0,0,0.26458333,38.496873,52.499032)">
    <g
       id="g242"
       transform="scale(1.5)">
      <path
         id="path228"
         style="fill:#ff5293;fill-opacity:1;stroke:#ff2c76;stroke-width:1;stroke-linecap:round;stroke-opacity:1"
         d="m 8.5,8.5 v -4 a 4,4 90 0 1 4,-4 h 4 10 30 4 a 4,4 90 0 1 4,4 v 4 h -4 v -3 h -4 v 10 h 4 v -3 h 4 v 17 h -4 v -3 h -4 v 10 h 4 v -3 h 4 v 4 a 4,4 90 0 1 -4,4 h -4 -30 -10 -4 a 4,4 90 0 1 -4,-4 v -4 -21 -1 h -6 v 3 h -2 v -8 h 2 v 3 h 6 z" />
      <text
         id="text232"
         style="font-size:9px;font-family:sans-serif;text-anchor:end;fill:#282828">
        <tspan
           id="tspan230"
           y="23"
           x="54">➗</tspan>
      </text>
      <text
         id="text236"
         style="font-size:6px;font-family:sans-serif;text-anchor:end;fill:#282828">
        <tspan
           id="tspan234"
           y="12"
           x="54" />
      </text>
      <text
         id="text240"
         style="font-size:6px;font-family:sans-serif;text-anchor:end;fill:#282828">
        <tspan
           id="tspan238"
           y="33"
           x="54" />
      </text>
    </g>
  </g>
  <g
     id="g254"
     transform="matrix(0.26458333,0,0,0.26458333,61.118748,52.499032)">
    <g
       id="g252"
       transform="scale(1.5)">
      <path
         id="path246"
         style="fill:#ff5293;fill-opacity:1;stroke:#ff2c76;stroke-width:1;stroke-linecap:round;stroke-opacity:1"
         d="m 8.5,0.5 h 60 v 20 h -60 v -8 -1 h -6 v 3 h -2 v -8 h 2 v 3 h 6 v -1 z" />
      <text
         id="text250"
         style="font-size:10px;font-family:sans-serif;text-anchor:start;fill:#282828">
        <tspan
           id="tspan248"
           y="14"
           x="13">1</tspan>
      </text>
    </g>
  </g>
  <g
     id="g264"
     transform="matrix(0.26458333,0,0,0.26458333,61.118748,60.833406)">
    <g
       id="g262"
       transform="scale(1.5)">
      <path
         id="path256"
         style="fill:#ff5293;fill-opacity:1;stroke:#ff2c76;stroke-width:1;stroke-linecap:round;stroke-opacity:1"
         d="m 8.5,0.5 h 60 v 20 h -60 v -8 -1 h -6 v 3 h -2 v -8 h 2 v 3 h 6 v -1 z" />
      <text
         id="text260"
         style="font-size:10px;font-family:sans-serif;text-anchor:start;fill:#282828">
        <tspan
           id="tspan258"
           y="14"
           x="13">4</tspan>
      </text>
    </g>
  </g>
  <g
     id="g274"
     transform="matrix(0.26458333,0,0,0.26458333,7.1437489,60.833406)">
    <g
       id="g272"
       transform="scale(1.5)">
      <path
         id="path266"
         style="fill:#b0b0b0;fill-opacity:1;stroke:#a0a0a0;stroke-width:1;stroke-linecap:round;stroke-opacity:1"
         d="m 0.5,8.5 v -4 a 4,4 90 0 1 4,-4 h 4 v 2 h 10 v -2 h 20 4 a 4,4 90 0 1 4,4 v 4 4 4 a 4,4 90 0 1 -4,4 h -4 -20 -1 v 2 h -8 v -2 h -1 -4 a 4,4 90 0 1 -4,-4 v -4 z" />
      <text
         id="text270"
         style="font-size:10px;font-family:sans-serif;text-anchor:end;fill:#282828">
        <tspan
           id="tspan268"
           y="14"
           x="36">↓</tspan>
      </text>
    </g>
  </g>
  <path
     id="path276"
     style="fill:#77c428;fill-opacity:1;stroke:#57ad02;stroke-width:0.39687499;stroke-linecap:round;stroke-opacity:1"
     d="m 7.3421864,72.541218 v -1.587499 c 0,-0.876753 0.710748,-1.5875 1.5875,-1.5875 h 1.5874996 v 0.79375 h 3.96875 v -0.79375 h 20.372918 1.5875 c 0.876752,0 1.864753,0.755739 1.5875,1.5875 v 1.587499 h -1.5875 v -1.190624 h -1.5875 v 3.96875 h 1.5875 v -1.190625 h 1.5875 v 6.746875 h -1.5875 v -1.190626 h -1.5875 v 3.96875 h 1.5875 v -1.190625 h 1.5875 v 1.587501 c 0,0.876752 -0.710748,1.587499 -1.5875,1.587499 h -1.5875 -20.372918 -0.396875 v 0.79375 h -3.175 v -0.79375 H 10.517186 8.9296864 c -0.876752,0 -1.5875,-0.710747 -1.5875,-1.587499 v -1.587501 -8.334374 z" />
  <text
     y="69.167778"
     x="15.610409"
     id="text280"
     style="font-size:3.96875px;font-family:sans-serif;text-anchor:end;fill:#282828;stroke-width:0.39687499">
    <tspan
       style="stroke-width:0.39687499"
       id="tspan278"
       y="78.69278"
       x="33.866673">おとの たかさ</tspan>
  </text>
  <text
     y="69.167778"
     x="15.610409"
     id="text284"
     style="font-size:2.64583325px;font-family:sans-serif;text-anchor:end;fill:#282828;stroke-width:0.39687499">
    <tspan
       style="stroke-width:0.39687499"
       id="tspan282"
       y="73.930283"
       x="33.866673">なまえ</tspan>
  </text>
  <text
     y="69.167778"
     x="15.610409"
     id="text288"
     style="font-size:2.64583325px;font-family:sans-serif;text-anchor:end;fill:#282828;stroke-width:0.39687499">
    <tspan
       style="stroke-width:0.39687499"
       id="tspan286"
       y="82.264656"
       x="33.866673">オクターヴの たかさ</tspan>
  </text>
  <g
     id="g302"
     transform="matrix(0.26458333,0,0,0.26458333,35.057296,69.167781)">
    <g
       id="g300"
       transform="scale(1.5)">
      <path
         id="path294"
         style="fill:#77c428;fill-opacity:1;stroke:#57ad02;stroke-width:1;stroke-linecap:round;stroke-opacity:1"
         d="m 8.5,0.5 h 60 v 20 h -60 v -8 -1 h -6 v 3 h -2 v -8 h 2 v 3 h 6 v -1 z" />
      <text
         id="text298"
         style="font-size:10px;font-family:sans-serif;text-anchor:start;fill:#282828">
        <tspan
           id="tspan296"
           y="14"
           x="13">ミ</tspan>
      </text>
    </g>
  </g>
  <g
     id="g312"
     transform="matrix(0.26458333,0,0,0.26458333,35.057296,77.502156)">
    <g
       id="g310"
       transform="scale(1.5)">
      <path
         id="path304"
         style="fill:#ff5293;fill-opacity:1;stroke:#ff2c76;stroke-width:1;stroke-linecap:round;stroke-opacity:1"
         d="m 8.5,0.5 h 60 v 20 h -60 v -8 -1 h -6 v 3 h -2 v -8 h 2 v 3 h 6 v -1 z" />
      <text
         id="text308"
         style="font-size:10px;font-family:sans-serif;text-anchor:start;fill:#282828">
        <tspan
           id="tspan306"
           y="14"
           x="13">4</tspan>
      </text>
    </g>
  </g>
  <g
     transform="matrix(0.26458333,0,0,0.26458333,-345.54583,-36.930134)"
     id="g346">
    <g
       id="g326"
       transform="translate(1319.5,495.5)">
      <g
         id="g324"
         transform="scale(1.5)">
        <path
           id="path314"
           style="fill:#ff8b2d;fill-opacity:1;stroke:#e86b0e;stroke-width:1;stroke-linecap:round;stroke-opacity:1"
           d="m 0.5,8.5 v -4 a 4,4 90 0 1 4,-4 h 4 v 2 h 10 v -2 h 9 60 4 a 4,4 90 0 1 4,4 v 4 h -4 v -3 h -4 v 10 h 4 v -3 h 4 v 4 a 4,4 90 0 1 -4,4 h -4 -60 -1 v 2 h -8 v -2 h -1 -4 a 5,5 90 0 0 -5,5 v 4 4 42 4 a 5,5 90 0 0 5,5 h 4 v 2 h 10 v -2 h 8 v 6 6 4 a 4,4 90 0 1 -4,4 h -4 -9 -1 v 2 h -8 v -2 h -1 -4 a 4,4 90 0 1 -4,-4 v -4 z" />
        <text
           id="text318"
           style="font-size:10px;font-family:sans-serif;text-anchor:start;fill:#282828">
          <tspan
             id="tspan316"
             y="15"
             x="20">おんぷ</tspan>
        </text>
        <text
           id="text322"
           style="font-size:6.66666651px;font-family:sans-serif;text-anchor:end;fill:#282828">
          <tspan
             id="tspan320"
             y="12"
             x="85">ながさ</tspan>
        </text>
      </g>
    </g>
    <g
       id="g344"
       transform="matrix(0.5,0,0,0.5,1319.5,499.5)">
      <g
         id="g342"
         style="isolation:isolate">
        <g
           data-name="レイヤー 2"
           id="g340">
          <g
             id="g338">
            <rect
               y="0"
               x="0"
               id="rect328"
               style="opacity:0.4;mix-blend-mode:multiply;fill:#292929"
               ry="5"
               rx="5"
               height="42"
               width="42" />
            <path
               id="path330"
               style="fill:#ffffff"
               d="m 30.56,29.8 -4.17,-4.16 h 2.26 a 1.035,1.035 0 1 0 0,-2.07 h -4.71 a 1.08,1.08 0 0 0 -1.11,1 v 0 c 0,0 0,0 0,0.06 v 4.64 0 a 1.04,1.04 0 1 0 2.08,0 v -2.19 l 4.19,4.19 a 1,1 0 0 0 1.46,0 1,1 0 0 0 0,-1.47 z" />
            <path
               id="path332"
               style="fill:#ffffff"
               d="m 19.17,24.6 a 1.08,1.08 0 0 0 -1.11,-1 h -4.71 a 1.035,1.035 0 1 0 0,2.07 h 2.25 l -4.16,4.13 a 1.039447,1.039447 0 0 0 1.47,1.47 l 4.18,-4.19 v 2.26 a 1.04,1.04 0 1 0 2.08,0 V 24.7 c 0,0 0,0 0,-0.06 a 0.08,0.08 0 0 1 0,-0.04 z" />
            <path
               id="path334"
               style="fill:#ffffff"
               d="m 23.94,20.5 h 4.7 a 1.04,1.04 0 1 0 0,-2.08 h -2.25 l 4.17,-4.16 a 1,1 0 0 0 0,-1.47 1,1 0 0 0 -1.46,0 L 24.91,17 v -2.28 a 1.04,1.04 0 1 0 -2.08,0 v 4.64 a 0.43,0.43 0 0 0 0,0.05 v 0.05 a 1.09,1.09 0 0 0 1.11,1.04 z" />
            <path
               id="path336"
               style="fill:#ffffff"
               d="m 18.13,13.62 a 1.08,1.08 0 0 0 -1,1.09 V 17 l -4.18,-4.19 a 1,1 0 0 0 -1.47,0 1,1 0 0 0 0,1.46 l 4.16,4.17 h -2.29 a 1.04,1.04 0 1 0 0,2.08 h 4.71 a 1.09,1.09 0 0 0 1.11,-1 c 0,0 0,0 0,-0.06 v -4.75 a 1.07,1.07 0 0 0 -1.04,-1.09 z" />
          </g>
        </g>
      </g>
    </g>
  </g>
  <g
     id="g364"
     transform="matrix(0.26458333,0,0,0.26458333,38.496873,94.170906)">
    <g
       id="g362"
       transform="scale(1.5)">
      <path
         id="path348"
         style="fill:#ff5293;fill-opacity:1;stroke:#ff2c76;stroke-width:1;stroke-linecap:round;stroke-opacity:1"
         d="m 8.5,8.5 v -4 a 4,4 90 0 1 4,-4 h 4 10 30 4 a 4,4 90 0 1 4,4 v 4 h -4 v -3 h -4 v 10 h 4 v -3 h 4 v 17 h -4 v -3 h -4 v 10 h 4 v -3 h 4 v 4 a 4,4 90 0 1 -4,4 h -4 -30 -10 -4 a 4,4 90 0 1 -4,-4 v -4 -21 -1 h -6 v 3 h -2 v -8 h 2 v 3 h 6 z" />
      <text
         id="text352"
         style="font-size:9px;font-family:sans-serif;text-anchor:end;fill:#282828">
        <tspan
           id="tspan350"
           y="23"
           x="54">➗</tspan>
      </text>
      <text
         id="text356"
         style="font-size:6px;font-family:sans-serif;text-anchor:end;fill:#282828">
        <tspan
           id="tspan354"
           y="12"
           x="54" />
      </text>
      <text
         id="text360"
         style="font-size:6px;font-family:sans-serif;text-anchor:end;fill:#282828">
        <tspan
           id="tspan358"
           y="33"
           x="54" />
      </text>
    </g>
  </g>
  <g
     id="g374"
     transform="matrix(0.26458333,0,0,0.26458333,61.118748,94.170906)">
    <g
       id="g372"
       transform="scale(1.5)">
      <path
         id="path366"
         style="fill:#ff5293;fill-opacity:1;stroke:#ff2c76;stroke-width:1;stroke-linecap:round;stroke-opacity:1"
         d="m 8.5,0.5 h 60 v 20 h -60 v -8 -1 h -6 v 3 h -2 v -8 h 2 v 3 h 6 v -1 z" />
      <text
         id="text370"
         style="font-size:10px;font-family:sans-serif;text-anchor:start;fill:#282828">
        <tspan
           id="tspan368"
           y="14"
           x="13">1</tspan>
      </text>
    </g>
  </g>
  <g
     id="g384"
     transform="matrix(0.26458333,0,0,0.26458333,61.118748,102.50528)">
    <g
       id="g382"
       transform="scale(1.5)">
      <path
         id="path376"
         style="fill:#ff5293;fill-opacity:1;stroke:#ff2c76;stroke-width:1;stroke-linecap:round;stroke-opacity:1"
         d="m 8.5,0.5 h 60 v 20 h -60 v -8 -1 h -6 v 3 h -2 v -8 h 2 v 3 h 6 v -1 z" />
      <text
         id="text380"
         style="font-size:10px;font-family:sans-serif;text-anchor:start;fill:#282828">
        <tspan
           id="tspan378"
           y="14"
           x="13">2</tspan>
      </text>
    </g>
  </g>
  <g
     id="g394"
     transform="matrix(0.26458333,0,0,0.26458333,7.1437489,102.50528)">
    <g
       id="g392"
       transform="scale(1.5)">
      <path
         id="path386"
         style="fill:#b0b0b0;fill-opacity:1;stroke:#a0a0a0;stroke-width:1;stroke-linecap:round;stroke-opacity:1"
         d="m 0.5,8.5 v -4 a 4,4 90 0 1 4,-4 h 4 v 2 h 10 v -2 h 20 4 a 4,4 90 0 1 4,4 v 4 4 4 a 4,4 90 0 1 -4,4 h -4 -20 -1 v 2 h -8 v -2 h -1 -4 a 4,4 90 0 1 -4,-4 v -4 z" />
      <text
         id="text390"
         style="font-size:10px;font-family:sans-serif;text-anchor:end;fill:#282828">
        <tspan
           id="tspan388"
           y="14"
           x="36">↓</tspan>
      </text>
    </g>
  </g>
  <path
     id="path396"
     style="fill:#77c428;fill-opacity:1;stroke:#57ad02;stroke-width:0.39687499;stroke-linecap:round;stroke-opacity:1"
     d="m 7.3421864,114.2131 v -1.5875 c 0,-0.87675 0.710748,-1.5875 1.5875,-1.5875 h 1.5874996 v 0.79375 h 3.96875 v -0.79375 h 20.372918 1.5875 c 0.876752,0 1.5875,0.71075 1.5875,1.5875 v 1.5875 h -1.5875 v -1.19063 h -1.5875 v 3.96875 h 1.5875 v -1.19062 h 1.5875 v 6.74687 h -1.5875 v -1.19062 h -1.5875 v 3.96875 h 1.5875 v -1.19063 h 1.5875 v 1.5875 c 0,0.87675 -0.710748,1.5875 -1.5875,1.5875 h -1.5875 -20.372918 -0.396875 v 0.79375 h -3.175 v -0.79375 H 10.517186 8.9296864 c -0.876752,0 -1.5875,-0.71075 -1.5875,-1.5875 v -1.5875 -8.33437 z" />
  <text
     y="110.83966"
     x="15.610409"
     id="text400"
     style="font-size:3.96875px;font-family:sans-serif;text-anchor:end;fill:#282828;stroke-width:0.39687499">
    <tspan
       style="stroke-width:0.39687499"
       id="tspan398"
       y="120.36466"
       x="33.866673">おとの たかさ</tspan>
  </text>
  <text
     y="110.83966"
     x="15.610409"
     id="text404"
     style="font-size:2.64583325px;font-family:sans-serif;text-anchor:end;fill:#282828;stroke-width:0.39687499">
    <tspan
       style="stroke-width:0.39687499"
       id="tspan402"
       y="115.60216"
       x="33.866673">なまえ</tspan>
  </text>
  <text
     y="110.83966"
     x="15.610409"
     id="text408"
     style="font-size:2.64583325px;font-family:sans-serif;text-anchor:end;fill:#282828;stroke-width:0.39687499">
    <tspan
       style="stroke-width:0.39687499"
       id="tspan406"
       y="123.93654"
       x="33.866673">オクターヴの たかさ</tspan>
  </text>
  <g
     id="g422"
     transform="matrix(0.26458333,0,0,0.26458333,35.057296,110.83966)">
    <g
       id="g420"
       transform="scale(1.5)">
      <path
         id="path414"
         style="fill:#77c428;fill-opacity:1;stroke:#57ad02;stroke-width:1;stroke-linecap:round;stroke-opacity:1"
         d="m 8.5,0.5 h 60 v 20 h -60 v -8 -1 h -6 v 3 h -2 v -8 h 2 v 3 h 6 v -1 z" />
      <text
         id="text418"
         style="font-size:10px;font-family:sans-serif;text-anchor:start;fill:#282828">
        <tspan
           id="tspan416"
           y="14"
           x="13">ソ</tspan>
      </text>
    </g>
  </g>
  <g
     id="g432"
     transform="matrix(0.26458333,0,0,0.26458333,35.057296,119.17403)">
    <g
       id="g430"
       transform="scale(1.5)">
      <path
         id="path424"
         style="fill:#ff5293;fill-opacity:1;stroke:#ff2c76;stroke-width:1;stroke-linecap:round;stroke-opacity:1"
         d="m 8.5,0.5 h 60 v 20 h -60 v -8 -1 h -6 v 3 h -2 v -8 h 2 v 3 h 6 v -1 z" />
      <text
         id="text428"
         style="font-size:10px;font-family:sans-serif;text-anchor:start;fill:#282828">
        <tspan
           id="tspan426"
           y="14"
           x="13">4</tspan>
      </text>
    </g>
  </g>
  <g
     transform="matrix(0.26458333,0,0,0.26458333,-345.54583,-36.930134)"
     id="g542">
    <g
       id="g522"
       transform="translate(1306,140)">
      <g
         id="g520"
         transform="scale(1.5)">
        <path
           id="path510"
           style="fill:#daa926;fill-opacity:1;stroke:#daaf30;stroke-width:1;stroke-linecap:round;stroke-opacity:1"
           d="m 0.5,14.5 v -4 a 4,4 90 0 1 4,-4 h 4 l 5,-6 5,6 h 9 52 4 a 4,4 90 0 1 4,4 v 4 h -4 v -3 h -4 v 10 h 4 v -3 h 4 v 4 a 4,4 90 0 1 -4,4 h -4 -52 -1 v 2 h -8 v -2 h -1 -4 a 5,5 90 0 0 -5,5 v 4 4 294 4 a 5,5 90 0 0 5,5 h 4 v 2 h 10 v -2 h 8 v 6 6 4 a 4,4 90 0 1 -4,4 h -4 -9 l -5,6 -5,-6 h -4 a 4,4 90 0 1 -4,-4 v -4 z" />
        <text
           id="text514"
           style="font-size:10px;font-family:sans-serif;text-anchor:start;fill:#282828">
          <tspan
             id="tspan512"
             y="22"
             x="20">アクション</tspan>
        </text>
        <text
           id="text518"
           style="font-size:6.66666651px;font-family:sans-serif;text-anchor:end;fill:#282828">
          <tspan
             id="tspan516"
             y="6"
             x="77" />
        </text>
      </g>
    </g>
    <g
       id="g540"
       transform="matrix(0.5,0,0,0.5,1306,152)">
      <g
         id="g538"
         style="isolation:isolate">
        <g
           data-name="レイヤー 2"
           id="g536">
          <g
             id="g534">
            <rect
               y="0"
               x="0"
               id="rect524"
               style="opacity:0.4;mix-blend-mode:multiply;fill:#292929"
               ry="5"
               rx="5"
               height="42"
               width="42" />
            <path
               id="path526"
               style="fill:#ffffff"
               d="m 30.56,29.8 -4.17,-4.16 h 2.26 a 1.035,1.035 0 1 0 0,-2.07 h -4.71 a 1.08,1.08 0 0 0 -1.11,1 v 0 c 0,0 0,0 0,0.06 v 4.64 0 a 1.04,1.04 0 1 0 2.08,0 v -2.19 l 4.19,4.19 a 1,1 0 0 0 1.46,0 1,1 0 0 0 0,-1.47 z" />
            <path
               id="path528"
               style="fill:#ffffff"
               d="m 19.17,24.6 a 1.08,1.08 0 0 0 -1.11,-1 h -4.71 a 1.035,1.035 0 1 0 0,2.07 h 2.25 l -4.16,4.13 a 1.039447,1.039447 0 0 0 1.47,1.47 l 4.18,-4.19 v 2.26 a 1.04,1.04 0 1 0 2.08,0 V 24.7 c 0,0 0,0 0,-0.06 a 0.08,0.08 0 0 1 0,-0.04 z" />
            <path
               id="path530"
               style="fill:#ffffff"
               d="m 23.94,20.5 h 4.7 a 1.04,1.04 0 1 0 0,-2.08 h -2.25 l 4.17,-4.16 a 1,1 0 0 0 0,-1.47 1,1 0 0 0 -1.46,0 L 24.91,17 v -2.28 a 1.04,1.04 0 1 0 -2.08,0 v 4.64 a 0.43,0.43 0 0 0 0,0.05 v 0.05 a 1.09,1.09 0 0 0 1.11,1.04 z" />
            <path
               id="path532"
               style="fill:#ffffff"
               d="m 18.13,13.62 a 1.08,1.08 0 0 0 -1,1.09 V 17 l -4.18,-4.19 a 1,1 0 0 0 -1.47,0 1,1 0 0 0 0,1.46 l 4.16,4.17 h -2.29 a 1.04,1.04 0 1 0 0,2.08 h 4.71 a 1.09,1.09 0 0 0 1.11,-1 c 0,0 0,0 0,-0.06 v -4.75 a 1.07,1.07 0 0 0 -1.04,-1.09 z" />
          </g>
        </g>
      </g>
    </g>
  </g>
  <g
     id="g552"
     transform="matrix(0.26458333,0,0,0.26458333,31.749999,2.4927822)">
    <g
       id="g550"
       transform="scale(1.5)">
      <path
         id="path544"
         style="fill:#ff5942;fill-opacity:1;stroke-width:1;stroke-linecap:round;stroke-opacity:1"
         d="m 8.5,0.5 h 90 v 20 h -90 v -8 -1 h -6 v 3 h -2 v -8 h 2 v 3 h 6 v -1 z" />
      <text
         id="text548"
         style="font-size:10px;font-family:sans-serif;text-anchor:start;fill:#282828">
        <tspan
           id="tspan546"
           y="14"
           x="13">アクション</tspan>
      </text>
    </g>
  </g>
</svg>
