<?xml version="1.0" encoding="UTF-8" standalone="no"?>
<svg
   xmlns:dc="http://purl.org/dc/elements/1.1/"
   xmlns:cc="http://creativecommons.org/ns#"
   xmlns:rdf="http://www.w3.org/1999/02/22-rdf-syntax-ns#"
   xmlns:svg="http://www.w3.org/2000/svg"
   xmlns="http://www.w3.org/2000/svg"
   width="83.402275mm"
   height="59.128124mm"
   viewBox="0 0 83.402274 59.128124"
   version="1.1"
   id="svg1870">
  <defs
     id="defs1864" />
  <metadata
     id="metadata1867">
    <rdf:RDF>
      <cc:Work
         rdf:about="">
        <dc:format>image/svg+xml</dc:format>
        <dc:type
           rdf:resource="http://purl.org/dc/dcmitype/StillImage" />
        <dc:title></dc:title>
      </cc:Work>
    </rdf:RDF>
  </metadata>
  <g
     transform="translate(-113.79077,-151.59602)"
     id="g3692">
    <g
       transform="matrix(0.26458333,0,0,0.26458333,117.36265,174.89387)"
       id="g258">
      <g
         transform="scale(1.5,1.5)"
         id="g256">
        <path
           d="m 0.5,8.5 0,-4 a 4,4 90 0 1 4,-4 l 4,0 0,2 10,0 0,-2 30,0 4,0 a 4,4 90 0 1 4,4 l 0,4 -4,0 0,-3 -4,0 0,10 4,0 0,-3 4,0 0,21 0,17 -4,0 0,-3 -4,0 0,10 4,0 0,-3 4,0 0,4 a 4,4 90 0 1 -4,4 l -4,0 -30,0 -1,0 0,2 -8,0 0,-2 -1,0 -4,0 a 4,4 90 0 1 -4,-4 l 0,-4 0,-21 0,-21 z"
           style="fill:#728ff9;fill-opacity:1;stroke:#5370dc;stroke-width:1;stroke-linecap:round;stroke-opacity:1"
           id="path242" />
        <text
           style="font-size:10px;font-family:sans-serif;text-anchor:end;fill:#282828"
           id="text246">
          <tspan
             x="46"
             y="35"
             id="tspan244">えんこ</tspan>
        </text>
        <text
           style="font-size:6.66666651px;font-family:sans-serif;text-anchor:end;fill:#282828"
           id="text250">
          <tspan
             x="46"
             y="12"
             id="tspan248">かくど</tspan>
        </text>
        <text
           style="font-size:6.66666651px;font-family:sans-serif;text-anchor:end;fill:#282828"
           id="text254">
          <tspan
             x="46"
             y="54"
             id="tspan252">はんけい</tspan>
        </text>
      </g>
    </g>
    <g
       transform="matrix(0.26458333,0,0,0.26458333,136.80952,191.56262)"
       id="g268">
      <g
         transform="scale(1.5,1.5)"
         id="g266">
        <path
           d="m 8.5,0.5 60,0 0,20 -60,0 0,-8 0,-1 -6,0 0,3 -2,0 0,-8 2,0 0,3 6,0 0,-1 z"
           style="fill:#ff5293;fill-opacity:1;stroke:#ff2c76;stroke-width:1;stroke-linecap:round;stroke-opacity:1"
           id="path260" />
        <text
           style="font-size:10px;font-family:sans-serif;text-anchor:start;fill:#282828"
           id="text264">
          <tspan
             x="13"
             y="14"
             id="tspan262">ひゃく</tspan>
        </text>
      </g>
    </g>
    <g
       transform="matrix(0.26458333,0,0,0.26458333,159.4314,174.89387)"
       id="g278">
      <g
         transform="scale(1.5,1.5)"
         id="g276">
        <path
           d="m 8.5,0.5 86.147461,0 0,20 -86.147461,0 0,-8 0,-1 -6,0 0,3 -2,0 0,-8 2,0 0,3 6,0 0,-1 z"
           style="fill:#ff8b2d;fill-opacity:1;stroke:#e86b0e;stroke-width:1;stroke-linecap:round;stroke-opacity:1"
           id="path270" />
        <text
           style="font-size:10px;font-family:sans-serif;text-anchor:start;fill:#282828"
           id="text274">
          <tspan
             x="13"
             y="14"
             id="tspan272">おんか</tspan>
        </text>
      </g>
    </g>
    <g
       transform="matrix(0.26458333,0,0,0.26458333,136.80952,174.89387)"
       id="g296">
      <g
         transform="scale(1.5,1.5)"
         id="g294">
        <path
           d="m 8.5,8.5 0,-4 a 4,4 90 0 1 4,-4 l 4,0 10,0 30,0 4,0 a 4,4 90 0 1 4,4 l 0,4 -4,0 0,-3 -4,0 0,10 4,0 0,-3 4,0 0,17 -4,0 0,-3 -4,0 0,10 4,0 0,-3 4,0 0,4 a 4,4 90 0 1 -4,4 l -4,0 -30,0 -10,0 -4,0 a 4,4 90 0 1 -4,-4 l 0,-4 0,-21 0,-1 -6,0 0,3 -2,0 0,-8 2,0 0,3 6,0 z"
           style="fill:#ff5293;fill-opacity:1;stroke:#ff2c76;stroke-width:1;stroke-linecap:round;stroke-opacity:1"
           id="path280" />
        <text
           style="font-size:14px;font-family:sans-serif;text-anchor:end;fill:#282828"
           id="text284">
          <tspan
             x="54"
             y="24"
             id="tspan282">×</tspan>
        </text>
        <text
           style="font-size:9.33333302px;font-family:sans-serif;text-anchor:end;fill:#282828"
           id="text288">
          <tspan
             x="54"
             y="12"
             id="tspan286" />
        </text>
        <text
           style="font-size:9.33333302px;font-family:sans-serif;text-anchor:end;fill:#282828"
           id="text292">
          <tspan
             x="54"
             y="33"
             id="tspan290" />
        </text>
      </g>
    </g>
    <g
       transform="matrix(0.26458333,0,0,0.26458333,159.4314,183.22824)"
       id="g306">
      <g
         transform="scale(1.5,1.5)"
         id="g304">
        <path
           d="m 8.5,0.5 60,0 0,20 -60,0 0,-8 0,-1 -6,0 0,3 -2,0 0,-8 2,0 0,3 6,0 0,-1 z"
           style="fill:#ff5293;fill-opacity:1;stroke:#ff2c76;stroke-width:1;stroke-linecap:round;stroke-opacity:1"
           id="path298" />
        <text
           style="font-size:10px;font-family:sans-serif;text-anchor:start;fill:#282828"
           id="text302">
          <tspan
             x="13"
             y="14"
             id="tspan300">360</tspan>
        </text>
      </g>
    </g>
    <g
       transform="matrix(0.26458333,0,0,0.26458333,-204.23839,42.469907)"
       id="g340">
      <g
         transform="translate(1202,460)"
         id="g320">
        <g
           transform="scale(1.5,1.5)"
           id="g318">
          <path
             d="m 0.5,14.5 0,-4 a 4,4 90 0 1 4,-4 l 4,0 5,-6 5,6 9,0 52,0 4,0 a 4,4 90 0 1 4,4 l 0,4 -4,0 0,-3 -4,0 0,10 4,0 0,-3 4,0 0,4 a 4,4 90 0 1 -4,4 l -4,0 -52,0 -1,0 0,2 -8,0 0,-2 -1,0 -4,0 a 5,5 90 0 0 -5,5 l 0,4 0,4 0,42 0,4 a 5,5 90 0 0 5,5 l 4,0 0,2 10,0 0,-2 8,0 0,6 0,6 0,4 a 4,4 90 0 1 -4,4 l -4,0 -9,0 -5,6 -5,-6 -4,0 a 4,4 90 0 1 -4,-4 l 0,-4 z"
             style="fill:#daa926;fill-opacity:1;stroke:#daaf30;stroke-width:1;stroke-linecap:round;stroke-opacity:1"
             id="path308" />
          <text
             style="font-size:10px;font-family:sans-serif;text-anchor:start;fill:#282828"
             id="text312">
            <tspan
               x="20"
               y="22"
               id="tspan310">アクション</tspan>
          </text>
          <text
             style="font-size:6.66666651px;font-family:sans-serif;text-anchor:end;fill:#282828"
             id="text316">
            <tspan
               x="77"
               y="6"
               id="tspan314" />
          </text>
        </g>
      </g>
      <g
         transform="matrix(0.5,0,0,0.5,1202,472)"
         id="g338">
        <g
           style="isolation:isolate"
           id="g336">
          <g
             id="g334"
             data-name="レイヤー 2">
            <g
               id="g332">
              <rect
                 y="0"
                 x="0"
                 width="42"
                 height="42"
                 rx="5"
                 ry="5"
                 style="opacity:0.4;mix-blend-mode:multiply;fill:#292929"
                 id="rect322" />
              <path
                 d="m 30.56,29.8 -4.17,-4.16 2.26,0 a 1.035,1.035 0 1 0 0,-2.07 l -4.71,0 a 1.08,1.08 0 0 0 -1.11,1 l 0,0 c 0,0 0,0 0,0.06 l 0,4.64 0,0 a 1.04,1.04 0 1 0 2.08,0 l 0,-2.19 4.19,4.19 a 1,1 0 0 0 1.46,0 1,1 0 0 0 0,-1.47 z"
                 style="fill:#ffffff"
                 id="path324" />
              <path
                 d="m 19.17,24.6 a 1.08,1.08 0 0 0 -1.11,-1 l -4.71,0 a 1.035,1.035 0 1 0 0,2.07 l 2.25,0 -4.16,4.13 a 1.039447,1.039447 0 0 0 1.47,1.47 l 4.18,-4.19 0,2.26 a 1.04,1.04 0 1 0 2.08,0 l 0,-4.64 c 0,0 0,0 0,-0.06 a 0.08,0.08 0 0 1 0,-0.04 z"
                 style="fill:#ffffff"
                 id="path326" />
              <path
                 d="m 23.94,20.5 4.7,0 a 1.04,1.04 0 1 0 0,-2.08 l -2.25,0 4.17,-4.16 a 1,1 0 0 0 0,-1.47 1,1 0 0 0 -1.46,0 l -4.19,4.21 0,-2.28 a 1.04,1.04 0 1 0 -2.08,0 l 0,4.64 a 0.43,0.43 0 0 0 0,0.05 l 0,0.05 a 1.09,1.09 0 0 0 1.11,1.04 z"
                 style="fill:#ffffff"
                 id="path328" />
              <path
                 d="m 18.13,13.62 a 1.08,1.08 0 0 0 -1,1.09 l 0,2.29 -4.18,-4.19 a 1,1 0 0 0 -1.47,0 1,1 0 0 0 0,1.46 l 4.16,4.17 -2.29,0 a 1.04,1.04 0 1 0 0,2.08 l 4.71,0 a 1.09,1.09 0 0 0 1.11,-1 c 0,0 0,0 0,-0.06 l 0,-4.75 a 1.07,1.07 0 0 0 -1.04,-1.09 z"
                 style="fill:#ffffff"
                 id="path330" />
            </g>
          </g>
        </g>
      </g>
    </g>
    <g
       transform="matrix(0.26458333,0,0,0.26458333,145.54077,166.55949)"
       id="g350">
      <g
         transform="scale(1.5,1.5)"
         id="g348">
        <path
           d="m 8.5,0.5 90,0 0,20 -90,0 0,-8 0,-1 -6,0 0,3 -2,0 0,-8 2,0 0,3 6,0 0,-1 z"
           style="fill:#ff5942;fill-opacity:1;stroke:#ea4326;stroke-width:1;stroke-linecap:round;stroke-opacity:1"
           id="path342" />
        <text
           style="font-size:10px;font-family:sans-serif;text-anchor:start;fill:#282828"
           id="text346">
          <tspan
             x="13"
             y="14"
             id="tspan344">アクション</tspan>
        </text>
      </g>
    </g>
  </g>
  <g
     transform="matrix(0.26458333,0,0,0.26458333,5.6444445,0)"
     id="g364">
    <g
       id="g362"
       transform="scale(1.5,1.5)">
      <path
         id="path352"
         style="fill:#ff8b2d;fill-opacity:1;stroke:#e86b0e;stroke-width:1;stroke-linecap:round;stroke-opacity:1"
         d="m -13.722222,8.5 0,-4 c 0,-2.209139 1.790861,-4 3.9999995,-4 l 4,0 0,2 10,0 0,-2 88.7192925,0 4,0 c 2.209139,0 4,1.790861 4,4 l 0,4 -4,0 0,-3 -4,0 0,10 4,0 0,-3 4,0 0,4 c 0,2.209139 -1.790861,4 -4,4 l -4,0 -88.7192925,0 -1,0 0,2 -8,0 0,-2 -1,0 -4,0 c -2.2091385,0 -3.9999995,-1.790861 -3.9999995,-4 l 0,-4 z" />
      <text
         id="text356"
         style="font-size:10px;font-family:sans-serif;text-anchor:end;fill:#282828">
        <tspan
           id="tspan354"
           y="14"
           x="91">ぜんぶの はくに ～する</tspan>
      </text>
      <text
         id="text360"
         style="font-size:6.66666651px;font-family:sans-serif;text-anchor:end;fill:#282828">
        <tspan
           id="tspan358"
           y="12"
           x="91" />
      </text>
    </g>
  </g>
  <g
     id="g374"
     transform="matrix(0.26458333,0,0,0.26458333,42.751084,0)">
    <g
       id="g372"
       transform="scale(1.5,1.5)">
      <path
         id="path366"
         style="fill:#ff5942;fill-opacity:1;stroke:#ea4326;stroke-width:1;stroke-linecap:round;stroke-opacity:1"
         d="m 8.5,0.5 90,0 0,20 -90,0 0,-8 0,-1 -6,0 0,3 -2,0 0,-8 2,0 0,3 6,0 0,-1 z" />
      <text
         id="text370"
         style="font-size:10px;font-family:sans-serif;text-anchor:start;fill:#282828">
        <tspan
           id="tspan368"
           y="14"
           x="13">アクション</tspan>
      </text>
    </g>
  </g>
</svg>
