<?xml version="1.0" encoding="UTF-8" standalone="no"?>
<svg
   xmlns:dc="http://purl.org/dc/elements/1.1/"
   xmlns:cc="http://creativecommons.org/ns#"
   xmlns:rdf="http://www.w3.org/1999/02/22-rdf-syntax-ns#"
   xmlns:svg="http://www.w3.org/2000/svg"
   xmlns="http://www.w3.org/2000/svg"
   id="svg526"
   version="1.1"
   height="299.92154"
   width="355.72119">
  <metadata
     id="metadata532">
    <rdf:RDF>
      <cc:Work
         rdf:about="">
        <dc:format>image/svg+xml</dc:format>
        <dc:type
           rdf:resource="http://purl.org/dc/dcmitype/StillImage" />
        <dc:title></dc:title>
      </cc:Work>
    </rdf:RDF>
  </metadata>
  <defs
     id="defs530" />
  <g
     id="g382"
     transform="translate(0,61)">
    <g
       id="g380"
       transform="scale(1.5,1.5)">
      <path
         id="path370"
         style="fill:#ffe05c;fill-opacity:1;stroke:#644300;stroke-width:1;stroke-linecap:round;stroke-opacity:1"
         d="m 0.5,14.5 0,-4 a 4,4 90 0 1 4,-4 l 4,0 5,-6 5,6 9,0 52,0 4,0 a 4,4 90 0 1 4,4 l 0,4 -4,0 0,-3 -4,0 0,10 4,0 0,-3 4,0 0,4 a 4,4 90 0 1 -4,4 l -4,0 -52,0 -1,0 0,2 -8,0 0,-2 -1,0 -4,0 a 5,5 90 0 0 -5,5 l 0,4 0,4 0,84 0,4 a 5,5 90 0 0 5,5 l 4,0 0,2 10,0 0,-2 8,0 0,6 0,6 0,4 a 4,4 90 0 1 -4,4 l -4,0 -9,0 -5,6 -5,-6 -4,0 a 4,4 90 0 1 -4,-4 l 0,-4 z" />
      <text
         id="text374"
         style="font-size:10px;font-family:sans-serif;text-anchor:start;fill:#000000">
        <tspan
           id="tspan372"
           y="22"
           x="20">アクション</tspan>
      </text>
      <text
         id="text378"
         style="font-size:6.66666651px;font-family:sans-serif;text-anchor:end;fill:#000000">
        <tspan
           id="tspan376"
           y="6"
           x="77" />
      </text>
    </g>
  </g>
  <g
     id="g392"
     transform="translate(120,70)">
    <g
       id="g390"
       transform="scale(1.5,1.5)">
      <path
         id="path384"
         style="fill:#76dbd7;fill-opacity:1;stroke:#003b41;stroke-width:1;stroke-linecap:round;stroke-opacity:1"
         d="m 8.5,0.5 90,0 0,20 -90,0 0,-8 0,-1 -6,0 0,3 -2,0 0,-8 2,0 0,3 6,0 0,-1 z" />
      <text
         id="text388"
         style="font-size:10px;font-family:sans-serif;text-anchor:start;fill:#000000">
        <tspan
           id="tspan386"
           y="14"
           x="13">アクション</tspan>
      </text>
    </g>
  </g>
  <g
     id="g402"
     transform="translate(213,165)">
    <g
       id="g400"
       transform="scale(1.5,1.5)">
      <path
         id="path394"
         style="fill:#ff8b2d;fill-opacity:1;stroke:#520000;stroke-width:1;stroke-linecap:round;stroke-opacity:1"
         d="m 8.5,0.5 86.147461,0 0,20 -86.147461,0 0,-8 0,-1 -6,0 0,3 -2,0 0,-8 2,0 0,3 6,0 0,-1 z" />
      <text
         id="text398"
         style="font-size:10px;font-family:sans-serif;text-anchor:start;fill:#000000">
        <tspan
           id="tspan396"
           y="14"
           x="13">おんか</tspan>
      </text>
    </g>
  </g>
  <g
     id="g414"
     transform="translate(79,102)">
    <g
       id="g412"
       transform="scale(1.5,1.5)">
      <g
         id="g406"
         transform="translate(0,-16)">
        <path
           id="path404"
           style="fill:#f2ec4d;fill-opacity:1;stroke:#4f4c00;stroke-width:1;stroke-linecap:round;stroke-opacity:1"
           d="m 0.5,41.5 a 7,7 90 0 1 7,-7 l 1,0 0,-10 a 8,8 90 0 1 8,-8 l 34,0 0,8 -4,0 0,-3 -4,0 0,10 4,0 0,-3 4,0 0,17 -4,0 0,-3 -4,0 0,10 4,0 0,-3 4,0 0,8 -30,0 -12,0 0,-8 0,-1 -1,0 a 7,7 90 0 1 -7,-7 z" />
      </g>
      <text
         id="text410"
         style="font-size:14px;font-family:sans-serif;text-anchor:end;fill:#000000">
        <tspan
           id="tspan408"
           y="26"
           x="38">=</tspan>
      </text>
    </g>
  </g>
  <g
     id="g424"
     transform="translate(144,134)">
    <g
       id="g422"
       transform="scale(1.5,1.5)">
      <path
         id="path416"
         style="fill:#ffb2bc;fill-opacity:1;stroke:#601136;stroke-width:1;stroke-linecap:round;stroke-opacity:1"
         d="m 8.5,0.5 60,0 0,20 -60,0 0,-8 0,-1 -6,0 0,3 -2,0 0,-8 2,0 0,3 6,0 0,-1 z" />
      <text
         id="text420"
         style="font-size:10px;font-family:sans-serif;text-anchor:start;fill:#000000">
        <tspan
           id="tspan418"
           y="14"
           x="13">1</tspan>
      </text>
    </g>
  </g>
  <g
     id="g438"
     transform="translate(14,102)">
    <g
       id="g436"
       transform="scale(1.5,1.5)">
      <path
         id="path426"
         style="fill:#e9a066;fill-opacity:1;stroke:#3f0a00;stroke-width:1;stroke-linecap:round;stroke-opacity:1"
         d="m 0.5,8.5 0,-4 a 4,4 90 0 1 4,-4 l 4,0 0,2 10,0 0,-2 9,0 15,0 4,0 a 4,4 90 0 1 4,4 l 0,4 0,9 a 8,8 90 0 0 -8,8 8,8 90 0 0 8,8 l 0,4 a 4,4 90 0 1 -4,4 l -4,0 -15,0 -1,0 0,2 -8,0 0,-2 -1,0 -4,0 a 5,5 90 0 0 -5,5 l 0,4 0,4 0,21 0,4 a 5,5 90 0 0 5,5 l 4,0 0,2 10,0 0,-2 8,0 0,6 0,6 0,4 a 4,4 90 0 1 -4,4 l -4,0 -9,0 -1,0 0,2 -8,0 0,-2 -1,0 -4,0 a 4,4 90 0 1 -4,-4 l 0,-4 z" />
      <text
         id="text430"
         style="font-size:10px;font-family:sans-serif;text-anchor:start;fill:#000000">
        <tspan
           id="tspan428"
           y="19"
           x="5">もし</tspan>
      </text>
      <text
         id="text434"
         style="font-size:6.66666651px;font-family:sans-serif;text-anchor:end;fill:#000000">
        <tspan
           id="tspan432"
           y="38"
           x="46">ならば</tspan>
      </text>
    </g>
  </g>
  <g
     id="g452"
     transform="translate(48,165)">
    <g
       id="g450"
       transform="scale(1.5,1.5)">
      <path
         id="path440"
         style="fill:#9ddd5f;fill-opacity:1;stroke:#003e00;stroke-width:1;stroke-linecap:round;stroke-opacity:1"
         d="m -12.833333,8.5 0,-4 c 0,-2.209139 1.790861,-4 3.9999997,-4 l 4,0 0,2 10,0 0,-2 46.6780603,0 4,0 c 2.209139,0 4,1.790861 4,4 l 0,4 -4,0 0,-3 -4,0 0,10 4,0 0,-3 4,0 0,4 c 0,2.209139 -1.790861,4 -4,4 l -4,0 -46.6780603,0 -1,0 0,2 -8,0 0,-2 -1,0 -4,0 c -2.2091387,0 -3.9999997,-1.790861 -3.9999997,-4 l 0,-4 z" />
      <text
         id="text444"
         style="font-size:10px;font-family:sans-serif;text-anchor:end;fill:#000000">
        <tspan
           id="tspan442"
           y="14"
           x="50">まえへすすむ</tspan>
      </text>
      <text
         id="text448"
         style="font-size:6.66666651px;font-family:sans-serif;text-anchor:end;fill:#000000">
        <tspan
           id="tspan446"
           y="12"
           x="50" />
      </text>
    </g>
  </g>
  <g
     id="g470"
     transform="translate(127,165)">
    <g
       id="g468"
       transform="scale(1.5,1.5)">
      <path
         id="path454"
         style="fill:#ffb2bc;fill-opacity:1;stroke:#601136;stroke-width:1;stroke-linecap:round;stroke-opacity:1"
         d="m 8.5,8.5 0,-4 a 4,4 90 0 1 4,-4 l 4,0 10,0 30,0 4,0 a 4,4 90 0 1 4,4 l 0,4 -4,0 0,-3 -4,0 0,10 4,0 0,-3 4,0 0,17 -4,0 0,-3 -4,0 0,10 4,0 0,-3 4,0 0,4 a 4,4 90 0 1 -4,4 l -4,0 -30,0 -10,0 -4,0 a 4,4 90 0 1 -4,-4 l 0,-4 0,-21 0,-1 -6,0 0,3 -2,0 0,-8 2,0 0,3 6,0 z" />
      <text
         id="text458"
         style="font-size:14px;font-family:sans-serif;text-anchor:end;fill:#000000">
        <tspan
           id="tspan456"
           y="24"
           x="54">×</tspan>
      </text>
      <text
         id="text462"
         style="font-size:9.33333302px;font-family:sans-serif;text-anchor:end;fill:#000000">
        <tspan
           id="tspan460"
           y="12"
           x="54" />
      </text>
      <text
         id="text466"
         style="font-size:9.33333302px;font-family:sans-serif;text-anchor:end;fill:#000000">
        <tspan
           id="tspan464"
           y="33"
           x="54" />
      </text>
    </g>
  </g>
  <g
     id="g480"
     transform="translate(213,197)">
    <g
       id="g478"
       transform="scale(1.5,1.5)">
      <path
         id="path472"
         style="fill:#ffb2bc;fill-opacity:1;stroke:#601136;stroke-width:1;stroke-linecap:round;stroke-opacity:1"
         d="m 8.5,0.5 60,0 0,20 -60,0 0,-8 0,-1 -6,0 0,3 -2,0 0,-8 2,0 0,3 6,0 0,-1 z" />
      <text
         id="text476"
         style="font-size:10px;font-family:sans-serif;text-anchor:start;fill:#000000">
        <tspan
           id="tspan474"
           y="14"
           x="13">ひゃく</tspan>
      </text>
    </g>
  </g>
  <g
     id="g490"
     transform="translate(28,197)">
    <g
       id="g488"
       transform="scale(1.5,1.5)">
      <path
         id="path482"
         style="fill:#ff8b2d;fill-opacity:1;stroke:#520000;stroke-width:1;stroke-linecap:round;stroke-opacity:1"
         d="m 0.5,8.5 0,-4 a 4,4 90 0 1 4,-4 l 4,0 0,2 10,0 0,-2 20,0 4,0 a 4,4 90 0 1 4,4 l 0,4 0,4 0,4 a 4,4 90 0 1 -4,4 l -4,0 -20,0 -1,0 0,2 -8,0 0,-2 -1,0 -4,0 a 4,4 90 0 1 -4,-4 l 0,-4 z" />
      <text
         id="text486"
         style="font-size:10px;font-family:sans-serif;text-anchor:end;fill:#000000">
        <tspan
           id="tspan484"
           y="14"
           x="36">↓</tspan>
      </text>
    </g>
  </g>
  <g
     id="g500"
     transform="translate(144,102)">
    <g
       id="g498"
       transform="scale(1.5,1.5)">
      <path
         id="path492"
         style="fill:#ff8b2d;fill-opacity:1;stroke:#520000;stroke-width:1;stroke-linecap:round;stroke-opacity:1"
         d="m 8.5,0.5 86.704102,0 0,20 -86.704102,0 0,-8 0,-1 -6,0 0,3 -2,0 0,-8 2,0 0,3 6,0 0,-1 z" />
      <text
         id="text496"
         style="font-size:10px;font-family:sans-serif;text-anchor:start;fill:#000000">
        <tspan
           id="tspan494"
           y="14"
           x="13">はくのかず</tspan>
      </text>
    </g>
  </g>
  <g
     transform="translate(-169,-96)"
     id="g1425">
    <g
       transform="translate(169,96)"
       id="g514">
      <g
         transform="scale(1.5,1.5)"
         id="g512">
        <path
           d="m 0.5,8.5 0,-4 a 4,4 90 0 1 4,-4 l 4,0 0,2 10,0 0,-2 74.49707,0 4,0 a 4,4 90 0 1 4,4 l 0,4 -4,0 0,-3 -4,0 0,10 4,0 0,-3 4,0 0,4 a 4,4 90 0 1 -4,4 l -4,0 -74.49707,0 -1,0 0,2 -8,0 0,-2 -1,0 -4,0 a 4,4 90 0 1 -4,-4 l 0,-4 z"
           style="fill:#ff8b2d;fill-opacity:1;stroke:#520000;stroke-width:1;stroke-linecap:round;stroke-opacity:1"
           id="path502" />
        <text
           style="font-size:10px;font-family:sans-serif;text-anchor:end;fill:#000000"
           id="text506">
          <tspan
             x="91"
             y="14"
             id="tspan504">ぜんぶのはくに～する</tspan>
        </text>
        <text
           style="font-size:6.66666651px;font-family:sans-serif;text-anchor:end;fill:#000000"
           id="text510">
          <tspan
             x="91"
             y="12"
             id="tspan508" />
        </text>
      </g>
    </g>
    <g
       transform="translate(309,96)"
       id="g524">
      <g
         transform="scale(1.5,1.5)"
         id="g522">
        <path
           d="m 8.5,0.5 90,0 0,20 -90,0 0,-8 0,-1 -6,0 0,3 -2,0 0,-8 2,0 0,3 6,0 0,-1 z"
           style="fill:#76dbd7;fill-opacity:1;stroke:#003b41;stroke-width:1;stroke-linecap:round;stroke-opacity:1"
           id="path516" />
        <text
           style="font-size:10px;font-family:sans-serif;text-anchor:start;fill:#000000"
           id="text520">
          <tspan
             x="13"
             y="14"
             id="tspan518">アクション</tspan>
        </text>
      </g>
    </g>
  </g>
</svg>
