<?xml version="1.0" encoding="UTF-8" standalone="no"?>
<svg
   xmlns:dc="http://purl.org/dc/elements/1.1/"
   xmlns:cc="http://creativecommons.org/ns#"
   xmlns:rdf="http://www.w3.org/1999/02/22-rdf-syntax-ns#"
   xmlns:svg="http://www.w3.org/2000/svg"
   xmlns="http://www.w3.org/2000/svg"
   id="svg2831"
   version="1.1"
   viewBox="0 0 72.045749 48.520837"
   height="48.520836mm"
   width="72.045746mm">
  <defs
     id="defs2825" />
  <metadata
     id="metadata2828">
    <rdf:RDF>
      <cc:Work
         rdf:about="">
        <dc:format>image/svg+xml</dc:format>
        <dc:type
           rdf:resource="http://purl.org/dc/dcmitype/StillImage" />
        <dc:title></dc:title>
      </cc:Work>
    </rdf:RDF>
  </metadata>
  <g
     transform="translate(92.72565,-109.39791)"
     id="layer1">
    <g
       id="g2348"
       transform="matrix(0.26458333,0,0,0.26458333,-358.05645,25.260408)">
      <g
         transform="translate(1106.5,318)"
         id="g1020">
        <g
           transform="scale(1.5)"
           id="g1018">
          <path
             d="m 8.5,0.5 h 70 v 20 h -70 v -8 -1 h -6 v 3 h -2 v -8 h 2 v 3 h 6 v -1 z"
             style="fill:#ff5942;fill-opacity:1;stroke-width:1;stroke-linecap:round;stroke-opacity:1"
             id="path1012" />
          <text
             style="font-size:10px;font-family:sans-serif;text-anchor:start;fill:#282828"
             id="text1016">
            <tspan
               x="13"
               y="14"
               id="tspan1014">クリック</tspan>
          </text>
        </g>
      </g>
      <g
         transform="translate(1033,318)"
         id="g1038">
        <g
           transform="scale(1.5)"
           id="g1036">
          <path
             d="m -19.500001,8.5 v -4 c 0,-2.209139 1.790861,-4 4,-4 h 4 v 2 h 9.9999999 v -2 H 48.5 h 4 c 2.209139,0 4,1.790861 4,4 v 4 h -4 v -3 h -4 v 10 h 4 v -3 h 4 v 17 h -4 v -3 h -4 v 10 h 4 v -3 h 4 v 4 c 0,2.209139 -1.790861,4 -4,4 h -4 -50.0000011 -1 v 2 h -7.9999999 v -2 h -1 -4 c -2.209139,0 -4.698591,-1.904227 -4,-4 v -4 -21 z"
             style="fill:#daa926;fill-opacity:1;stroke:#daaf30;stroke-width:1;stroke-linecap:round;stroke-opacity:1"
             id="path1022" />
          <text
             style="font-size:10px;font-family:sans-serif;text-anchor:end;fill:#282828"
             id="text1026">
            <tspan
               x="46"
               y="24"
               id="tspan1024">のとき</tspan>
          </text>
          <text
             style="font-size:6.66666651px;font-family:sans-serif;text-anchor:end;fill:#282828"
             id="text1030">
            <tspan
               x="46"
               y="12"
               id="tspan1028">イベント</tspan>
          </text>
          <text
             style="font-size:6.66666651px;font-family:sans-serif;text-anchor:end;fill:#282828"
             id="text1034">
            <tspan
               x="46"
               y="33"
               id="tspan1032">アクション じっこう</tspan>
          </text>
        </g>
      </g>
      <g
         transform="translate(1106.5,349.5)"
         id="g1058">
        <g
           transform="scale(1.5)"
           id="g1056">
          <path
             d="m 8.5,0.5 h 90 v 20 h -90 v -8 -1 h -6 v 3 h -2 v -8 h 2 v 3 h 6 v -1 z"
             style="fill:#ff5942;fill-opacity:1;stroke-width:1;stroke-linecap:round;stroke-opacity:1"
             id="path1050" />
          <text
             style="font-size:10px;font-family:sans-serif;text-anchor:start;fill:#282828"
             id="text1054">
            <tspan
               x="13"
               y="14"
               id="tspan1052">アクション</tspan>
          </text>
        </g>
      </g>
    </g>
    <g
       id="g2369"
       transform="matrix(0.26458333,0,0,0.26458333,-362.28978,12.187495)">
      <g
         transform="translate(1049,443)"
         id="g794">
        <g
           transform="scale(1.5)"
           id="g792">
          <path
             d="m -19.500001,8.5 v -4 c 0,-2.209139 1.790861,-4 4,-4 h 4 v 2 h 9.9999999 v -2 H 48.5 h 4 c 2.209139,0 4,1.790861 4,4 v 4 h -4 v -3 h -4 v 10 h 4 v -3 h 4 v 17 h -4 v -3 h -4 v 10 h 4 v -3 h 4 v 4 c 0,2.209139 -1.790861,4 -4,4 h -4 -50.0000011 -1 v 2 h -7.9999999 v -2 h -1 -4 c -2.209139,0 -4.698591,-1.904227 -4,-4 v -4 -21 z"
             style="fill:#daa926;fill-opacity:1;stroke:#daaf30;stroke-width:1;stroke-linecap:round;stroke-opacity:1"
             id="path778" />
          <text
             style="font-size:10px;font-family:sans-serif;text-anchor:end;fill:#282828"
             id="text782">
            <tspan
               x="46"
               y="24"
               id="tspan780">のとき</tspan>
          </text>
          <text
             style="font-size:6.66666651px;font-family:sans-serif;text-anchor:end;fill:#282828"
             id="text786">
            <tspan
               x="46"
               y="12"
               id="tspan784">イベント</tspan>
          </text>
          <text
             style="font-size:6.66666651px;font-family:sans-serif;text-anchor:end;fill:#282828"
             id="text790">
            <tspan
               x="46"
               y="33"
               id="tspan788">アクション じっこう</tspan>
          </text>
        </g>
      </g>
      <g
         transform="translate(1122.5,443)"
         id="g804">
        <g
           transform="scale(1.5)"
           id="g802">
          <path
             d="m 8.5,0.5 h 90 v 20 h -90 v -8 -1 h -6 v 3 h -2 v -8 h 2 v 3 h 6 v -1 z"
             style="fill:#ff5942;fill-opacity:1;stroke-width:1;stroke-linecap:round;stroke-opacity:1"
             id="path796" />
          <text
             style="font-size:10px;font-family:sans-serif;text-anchor:start;fill:#282828"
             id="text800">
            <tspan
               x="13"
               y="14"
               id="tspan798">イベント</tspan>
          </text>
        </g>
      </g>
      <g
         transform="translate(1122.5,474.5)"
         id="g814">
        <g
           transform="scale(1.5)"
           id="g812">
          <path
             d="m 8.5,0.5 h 90 v 20 h -90 v -8 -1 h -6 v 3 h -2 v -8 h 2 v 3 h 6 v -1 z"
             style="fill:#ff5942;fill-opacity:1;stroke-width:1;stroke-linecap:round;stroke-opacity:1"
             id="path806" />
          <text
             style="font-size:10px;font-family:sans-serif;text-anchor:start;fill:#282828"
             id="text810">
            <tspan
               x="13"
               y="14"
               id="tspan808">アクション</tspan>
          </text>
        </g>
      </g>
    </g>
    <g
       id="g2383"
       transform="matrix(0.26458333,0,0,0.26458333,-362.55437,5.9156199)">
      <g
         transform="translate(1050,540)"
         id="g828">
        <g
           transform="scale(1.5)"
           id="g826">
          <path
             d="m -19.500001,8.5 v -4 c 0,-2.209139 1.790861,-4 4,-4 h 4 v 2 h 9.9999999 v -2 h 63.9160171 4 c 2.209139,0 4,1.790861 4,4 v 4 h -4 v -3 h -4 v 10 h 4 v -3 h 4 v 4 c 0,2.209139 -1.790861,4 -4,4 h -4 -63.9160171 -1 v 2 h -7.9999999 v -2 h -1 -4 c -2.209139,0 -4.698591,-1.904227 -4,-4 v -4 z"
             style="fill:#daa926;fill-opacity:1;stroke:#daaf30;stroke-width:1;stroke-linecap:round;stroke-opacity:1"
             id="path816" />
          <text
             style="font-size:10px;font-family:sans-serif;text-anchor:end;fill:#282828"
             id="text820">
            <tspan
               x="60"
               y="14"
               id="tspan818">イベントはっせい</tspan>
          </text>
          <text
             style="font-size:6.66666651px;font-family:sans-serif;text-anchor:end;fill:#282828"
             id="text824">
            <tspan
               x="60"
               y="12"
               id="tspan822" />
          </text>
        </g>
      </g>
      <g
         transform="translate(1144.374,540)"
         id="g838">
        <g
           transform="scale(1.5)"
           id="g836">
          <path
             d="m 8.5,0.5 h 90 v 20 h -90 v -8 -1 h -6 v 3 h -2 v -8 h 2 v 3 h 6 v -1 z"
             style="fill:#ff5942;fill-opacity:1;stroke-width:1;stroke-linecap:round;stroke-opacity:1"
             id="path830" />
          <text
             style="font-size:10px;font-family:sans-serif;text-anchor:start;fill:#282828"
             id="text834">
            <tspan
               x="13"
               y="14"
               id="tspan832">イベント</tspan>
          </text>
        </g>
      </g>
    </g>
  </g>
</svg>
