<?xml version="1.0" encoding="UTF-8" standalone="no"?>
<svg
   xmlns:dc="http://purl.org/dc/elements/1.1/"
   xmlns:cc="http://creativecommons.org/ns#"
   xmlns:rdf="http://www.w3.org/1999/02/22-rdf-syntax-ns#"
   xmlns:svg="http://www.w3.org/2000/svg"
   xmlns="http://www.w3.org/2000/svg"
   id="svg2652"
   version="1.1"
   viewBox="0 0 90.972588 75.803123"
   height="75.803123mm"
   width="90.972588mm">
  <defs
     id="defs2646" />
  <metadata
     id="metadata2649">
    <rdf:RDF>
      <cc:Work
         rdf:about="">
        <dc:format>image/svg+xml</dc:format>
        <dc:type
           rdf:resource="http://purl.org/dc/dcmitype/StillImage" />
        <dc:title></dc:title>
      </cc:Work>
    </rdf:RDF>
  </metadata>
  <g
     id="g474"
     transform="scale(0.26458333)">
    <g
       transform="scale(1.5)"
       id="g472">
      <path
         d="m 0.5,8.5 v -4 c 0,-2.209139 1.790861,-4 4,-4 h 4 v 2 h 10 v -2 h 9 59.261284 4 c 2.209139,0 6.12663,3.4018854 4,4 v 4 h -4 v -3 h -4 v 10 h 4 v -3 h 4 v 4 c 0,2.209139 -1.790861,4 -4,4 h -4 H 27.5 h -1 v 2 h -8 v -2 h -1 -4 c -2.761424,0 -5,2.238576 -5,5 v 4 4 126 4 c 0,2.76142 2.238576,5 5,5 h 4 v 2 h 10 v -2 h 8 v 6 6 4 c 0,2.20914 -1.790861,4 -4,4 h -4 -9 -1 v 2 h -8 v -2 h -1 -4 c -2.209139,0 -4,-1.79086 -4,-4 v -4 z"
         style="fill:#7cd622;fill-opacity:1;stroke:#57ad02;stroke-width:1;stroke-linecap:round;stroke-opacity:1"
         id="path462" />
      <text
         style="font-size:10px;font-family:sans-serif;text-anchor:start;fill:#282828"
         id="text466">
        <tspan
           x="5"
           y="15"
           id="tspan464">ちょうを ていぎ する</tspan>
      </text>
      <text
         style="font-size:6.66666651px;font-family:sans-serif;text-anchor:end;fill:#282828"
         id="text470">
        <tspan
           x="70"
           y="12"
           id="tspan468" />
      </text>
    </g>
  </g>
  <g
     transform="matrix(0.26458333,0,0,0.26458333,34.748614,0)"
     id="g484">
    <g
       transform="scale(1.5)"
       id="g482">
      <path
         d="m 8.5,0.5 h 110 v 20 H 8.5 v -8 -1 h -6 v 3 h -2 v -8 h 2 v 3 h 6 v -1 z"
         style="fill:#7cd622;fill-opacity:1;stroke:#57ad02;stroke-width:1;stroke-linecap:round;stroke-opacity:1"
         id="path476" />
      <text
         style="font-size:10px;font-family:sans-serif;text-anchor:start;fill:#282828"
         id="text480">
        <tspan
           x="13"
           y="14"
           id="tspan478">オリジナル</tspan>
      </text>
    </g>
  </g>
  <g
     transform="matrix(0.26458333,0,0,0.26458333,33.161129,8.466665)"
     id="g498">
    <g
       transform="scale(1.5)"
       id="g496">
      <path
         d="m -73.722222,8.5 v -4 c 0,-2.209139 1.790861,-4 4,-4 h 4 v 2 h 10 v -2 h 132.029839 4 c 2.209139,0 4,1.790861 4,4 v 4 h -4 v -3 h -4 v 10 h 4 v -3 h 4 v 4 c 0,2.209139 -1.790861,4 -4,4 h -4 -132.029839 -1 v 2 h -8 v -2 h -1 -4 c -2.209139,0 -4.698591,-1.904227 -4,-4 v -4 z"
         style="fill:#7cd622;fill-opacity:1;stroke:#57ad02;stroke-width:1;stroke-linecap:round;stroke-opacity:1"
         id="path486" />
      <text
         style="font-size:10px;font-family:sans-serif;text-anchor:end;fill:#282828"
         id="text490">
        <tspan
           x="74"
           y="14"
           id="tspan488">おとのたかさを かずでひょうじ</tspan>
      </text>
      <text
         style="font-size:6.66666651px;font-family:sans-serif;text-anchor:end;fill:#282828"
         id="text494">
        <tspan
           x="74"
           y="12"
           id="tspan492" />
      </text>
    </g>
  </g>
  <g
     transform="matrix(0.26458333,0,0,0.26458333,63.588209,8.466665)"
     id="g508">
    <g
       transform="scale(1.5)"
       id="g506">
      <path
         d="m 8.5,0.5 h 60 v 20 h -60 v -8 -1 h -6 v 3 h -2 v -8 h 2 v 3 h 6 v -1 z"
         style="fill:#ff6ea1;fill-opacity:1;stroke:#ff2c76;stroke-width:1;stroke-linecap:round;stroke-opacity:1"
         id="path500" />
      <text
         style="font-size:10px;font-family:sans-serif;text-anchor:start;fill:#282828"
         id="text504">
        <tspan
           x="13"
           y="14"
           id="tspan502">0</tspan>
      </text>
    </g>
  </g>
  <g
     transform="matrix(0.26458333,0,0,0.26458333,33.161129,16.933331)"
     id="g522">
    <g
       transform="scale(1.5)"
       id="g520">
      <path
         d="m -73.722222,8.5 v -4 c 0,-2.209139 1.790861,-4 4,-4 h 4 v 2 h 10 v -2 h 132.029839 4 c 2.209139,0 4,1.790861 4,4 v 4 h -4 v -3 h -4 v 10 h 4 v -3 h 4 v 4 c 0,2.209139 -1.790861,4 -4,4 h -4 -132.029839 -1 v 2 h -8 v -2 h -1 -4 c -2.209139,0 -4.698591,-1.904227 -4,-4 v -4 z"
         style="fill:#7cd622;fill-opacity:1;stroke:#57ad02;stroke-width:1;stroke-linecap:round;stroke-opacity:1"
         id="path510" />
      <text
         style="font-size:10px;font-family:sans-serif;text-anchor:end;fill:#282828"
         id="text514">
        <tspan
           x="74"
           y="14"
           id="tspan512">おとのたかさを かずでひょうじ</tspan>
      </text>
      <text
         style="font-size:6.66666651px;font-family:sans-serif;text-anchor:end;fill:#282828"
         id="text518">
        <tspan
           x="74"
           y="12"
           id="tspan516" />
      </text>
    </g>
  </g>
  <g
     transform="matrix(0.26458333,0,0,0.26458333,63.588209,16.933331)"
     id="g532">
    <g
       transform="scale(1.5)"
       id="g530">
      <path
         d="m 8.5,0.5 h 60 v 20 h -60 v -8 -1 h -6 v 3 h -2 v -8 h 2 v 3 h 6 v -1 z"
         style="fill:#ff6ea1;fill-opacity:1;stroke:#ff2c76;stroke-width:1;stroke-linecap:round;stroke-opacity:1"
         id="path524" />
      <text
         style="font-size:10px;font-family:sans-serif;text-anchor:start;fill:#282828"
         id="text528">
        <tspan
           x="13"
           y="14"
           id="tspan526">2</tspan>
      </text>
    </g>
  </g>
  <g
     transform="matrix(0.26458333,0,0,0.26458333,33.161129,25.399998)"
     id="g546">
    <g
       transform="scale(1.5)"
       id="g544">
      <path
         d="m -73.722222,8.5 v -4 c 0,-2.209139 1.790861,-4 4,-4 h 4 v 2 h 10 v -2 h 132.029839 4 c 2.209139,0 4,1.790861 4,4 v 4 h -4 v -3 h -4 v 10 h 4 v -3 h 4 v 4 c 0,2.209139 -1.790861,4 -4,4 h -4 -132.029839 -1 v 2 h -8 v -2 h -1 -4 c -2.209139,0 -4.698591,-1.904227 -4,-4 v -4 z"
         style="fill:#7cd622;fill-opacity:1;stroke:#57ad02;stroke-width:1;stroke-linecap:round;stroke-opacity:1"
         id="path534" />
      <text
         style="font-size:10px;font-family:sans-serif;text-anchor:end;fill:#282828"
         id="text538">
        <tspan
           x="74"
           y="14"
           id="tspan536">おとのたかさを かずでひょうじ</tspan>
      </text>
      <text
         style="font-size:6.66666651px;font-family:sans-serif;text-anchor:end;fill:#282828"
         id="text542">
        <tspan
           x="74"
           y="12"
           id="tspan540" />
      </text>
    </g>
  </g>
  <g
     transform="matrix(0.26458333,0,0,0.26458333,63.588209,25.399998)"
     id="g556">
    <g
       transform="scale(1.5)"
       id="g554">
      <path
         d="m 8.5,0.5 h 60 v 20 h -60 v -8 -1 h -6 v 3 h -2 v -8 h 2 v 3 h 6 v -1 z"
         style="fill:#ff6ea1;fill-opacity:1;stroke:#ff2c76;stroke-width:1;stroke-linecap:round;stroke-opacity:1"
         id="path548" />
      <text
         style="font-size:10px;font-family:sans-serif;text-anchor:start;fill:#282828"
         id="text552">
        <tspan
           x="13"
           y="14"
           id="tspan550">4</tspan>
      </text>
    </g>
  </g>
  <g
     transform="matrix(0.26458333,0,0,0.26458333,33.161129,33.866665)"
     id="g570">
    <g
       transform="scale(1.5)"
       id="g568">
      <path
         d="m -73.722222,8.5 v -4 c 0,-2.209139 1.790861,-4 4,-4 h 4 v 2 h 10 v -2 h 132.029839 4 c 2.209139,0 4,1.790861 4,4 v 4 h -4 v -3 h -4 v 10 h 4 v -3 h 4 v 4 c 0,2.209139 -1.790861,4 -4,4 h -4 -132.029839 -1 v 2 h -8 v -2 h -1 -4 c -2.209139,0 -6.12663,-3.401885 -4,-4 v -4 z"
         style="fill:#7cd622;fill-opacity:1;stroke:#57ad02;stroke-width:1;stroke-linecap:round;stroke-opacity:1"
         id="path558" />
      <text
         style="font-size:10px;font-family:sans-serif;text-anchor:end;fill:#282828"
         id="text562">
        <tspan
           x="74"
           y="14"
           id="tspan560">おとのたかさを かずでひょうじ</tspan>
      </text>
      <text
         style="font-size:6.66666651px;font-family:sans-serif;text-anchor:end;fill:#282828"
         id="text566">
        <tspan
           x="74"
           y="12"
           id="tspan564" />
      </text>
    </g>
  </g>
  <g
     transform="matrix(0.26458333,0,0,0.26458333,63.588209,33.866665)"
     id="g580">
    <g
       transform="scale(1.5)"
       id="g578">
      <path
         d="m 8.5,0.5 h 60 v 20 h -60 v -8 -1 h -6 v 3 h -2 v -8 h 2 v 3 h 6 v -1 z"
         style="fill:#ff6ea1;fill-opacity:1;stroke:#ff2c76;stroke-width:1;stroke-linecap:round;stroke-opacity:1"
         id="path572" />
      <text
         style="font-size:10px;font-family:sans-serif;text-anchor:start;fill:#282828"
         id="text576">
        <tspan
           x="13"
           y="14"
           id="tspan574">5</tspan>
      </text>
    </g>
  </g>
  <g
     transform="matrix(0.26458333,0,0,0.26458333,33.161129,42.333331)"
     id="g594">
    <g
       transform="scale(1.5)"
       id="g592">
      <path
         d="m -73.722222,8.5 v -4 c 0,-2.209139 1.790861,-4 4,-4 h 4 v 2 h 10 v -2 h 132.029839 4 c 2.209139,0 4,1.790861 4,4 v 4 h -4 v -3 h -4 v 10 h 4 v -3 h 4 v 4 c 0,2.209139 -1.790861,4 -4,4 h -4 -132.029839 -1 v 2 h -8 v -2 h -1 -4 c -2.209139,0 -6.12663,-3.401885 -4,-4 v -4 z"
         style="fill:#7cd622;fill-opacity:1;stroke:#57ad02;stroke-width:1;stroke-linecap:round;stroke-opacity:1"
         id="path582" />
      <text
         style="font-size:10px;font-family:sans-serif;text-anchor:end;fill:#282828"
         id="text586">
        <tspan
           x="74"
           y="14"
           id="tspan584">おとのたかさを かずでひょうじ</tspan>
      </text>
      <text
         style="font-size:6.66666651px;font-family:sans-serif;text-anchor:end;fill:#282828"
         id="text590">
        <tspan
           x="74"
           y="12"
           id="tspan588" />
      </text>
    </g>
  </g>
  <g
     transform="matrix(0.26458333,0,0,0.26458333,63.588209,42.333331)"
     id="g604">
    <g
       transform="scale(1.5)"
       id="g602">
      <path
         d="m 8.5,0.5 h 60 v 20 h -60 v -8 -1 h -6 v 3 h -2 v -8 h 2 v 3 h 6 v -1 z"
         style="fill:#ff6ea1;fill-opacity:1;stroke:#ff2c76;stroke-width:1;stroke-linecap:round;stroke-opacity:1"
         id="path596" />
      <text
         style="font-size:10px;font-family:sans-serif;text-anchor:start;fill:#282828"
         id="text600">
        <tspan
           x="13"
           y="14"
           id="tspan598">7</tspan>
      </text>
    </g>
  </g>
  <g
     transform="matrix(0.26458333,0,0,0.26458333,33.161129,50.799998)"
     id="g618">
    <g
       transform="scale(1.5)"
       id="g616">
      <path
         d="m -73.722222,8.5 v -4 c 0,-2.209139 1.790861,-4 4,-4 h 4 v 2 h 10 v -2 h 132.029839 4 c 2.209139,0 4,1.790861 4,4 v 4 h -4 v -3 h -4 v 10 h 4 v -3 h 4 v 4 c 0,2.209139 -1.790861,4 -4,4 h -4 -132.029839 -1 v 2 h -8 v -2 h -1 -4 c -2.209139,0 -6.12663,-3.401885 -4,-4 v -4 z"
         style="fill:#7cd622;fill-opacity:1;stroke:#57ad02;stroke-width:1;stroke-linecap:round;stroke-opacity:1"
         id="path606" />
      <text
         style="font-size:10px;font-family:sans-serif;text-anchor:end;fill:#282828"
         id="text610">
        <tspan
           x="74"
           y="14"
           id="tspan608">おとのたかさを かずでひょうじ</tspan>
      </text>
      <text
         style="font-size:6.66666651px;font-family:sans-serif;text-anchor:end;fill:#282828"
         id="text614">
        <tspan
           x="74"
           y="12"
           id="tspan612" />
      </text>
    </g>
  </g>
  <g
     transform="matrix(0.26458333,0,0,0.26458333,63.588209,50.799998)"
     id="g628">
    <g
       transform="scale(1.5)"
       id="g626">
      <path
         d="m 8.5,0.5 h 60 v 20 h -60 v -8 -1 h -6 v 3 h -2 v -8 h 2 v 3 h 6 v -1 z"
         style="fill:#ff6ea1;fill-opacity:1;stroke:#ff2c76;stroke-width:1;stroke-linecap:round;stroke-opacity:1"
         id="path620" />
      <text
         style="font-size:10px;font-family:sans-serif;text-anchor:start;fill:#282828"
         id="text624">
        <tspan
           x="13"
           y="14"
           id="tspan622">9</tspan>
      </text>
    </g>
  </g>
  <g
     transform="matrix(0.26458333,0,0,0.26458333,33.161129,59.266665)"
     id="g642">
    <g
       transform="scale(1.5)"
       id="g640">
      <path
         d="m -73.722222,8.5 v -4 c 0,-2.209139 1.790861,-4 4,-4 h 4 v 2 h 10 v -2 h 132.029839 4 c 2.209139,0 4,1.790861 4,4 v 4 h -4 v -3 h -4 v 10 h 4 v -3 h 4 v 4 c 0,2.209139 -1.790861,4 -4,4 h -4 -132.029839 -1 v 2 h -8 v -2 h -1 -4 c -2.209139,0 -4,-1.790861 -4,-4 v -4 z"
         style="fill:#7cd622;fill-opacity:1;stroke:#57ad02;stroke-width:1;stroke-linecap:round;stroke-opacity:1"
         id="path630" />
      <text
         style="font-size:10px;font-family:sans-serif;text-anchor:end;fill:#282828"
         id="text634">
        <tspan
           x="74"
           y="14"
           id="tspan632">おとのたかさを かずでひょうじ</tspan>
      </text>
      <text
         style="font-size:6.66666651px;font-family:sans-serif;text-anchor:end;fill:#282828"
         id="text638">
        <tspan
           x="74"
           y="12"
           id="tspan636" />
      </text>
    </g>
  </g>
  <g
     transform="matrix(0.26458333,0,0,0.26458333,63.588209,59.266665)"
     id="g652">
    <g
       transform="scale(1.5)"
       id="g650">
      <path
         d="m 8.5,0.5 h 60 v 20 h -60 v -8 -1 h -6 v 3 h -2 v -8 h 2 v 3 h 6 v -1 z"
         style="fill:#ff6ea1;fill-opacity:1;stroke:#ff2c76;stroke-width:1;stroke-linecap:round;stroke-opacity:1"
         id="path644" />
      <text
         style="font-size:10px;font-family:sans-serif;text-anchor:start;fill:#282828"
         id="text648">
        <tspan
           x="13"
           y="14"
           id="tspan646">11</tspan>
      </text>
    </g>
  </g>
</svg>
