<?xml version="1.0" encoding="UTF-8" standalone="no"?>
<svg
   xmlns:dc="http://purl.org/dc/elements/1.1/"
   xmlns:cc="http://creativecommons.org/ns#"
   xmlns:rdf="http://www.w3.org/1999/02/22-rdf-syntax-ns#"
   xmlns:svg="http://www.w3.org/2000/svg"
   xmlns="http://www.w3.org/2000/svg"
   id="svg1710"
   version="1.1"
   viewBox="0 0 85.063538 34.131248"
   height="34.131248mm"
   width="85.063545mm">
  <defs
     id="defs1704" />
  <metadata
     id="metadata1707">
    <rdf:RDF>
      <cc:Work
         rdf:about="">
        <dc:format>image/svg+xml</dc:format>
        <dc:type
           rdf:resource="http://purl.org/dc/dcmitype/StillImage" />
        <dc:title></dc:title>
      </cc:Work>
    </rdf:RDF>
  </metadata>
  <g
     transform="translate(-12.879748,-386.59308)"
     id="layer1">
    <g
       id="g7938"
       transform="matrix(0.26458333,0,0,0.26458333,-56.705668,267.00141)">
      <g
         id="g7918"
         transform="translate(263,452)">
        <g
           id="g7916"
           transform="scale(1.5)">
          <path
             id="path7906"
             style="fill:#fe994f;fill-opacity:1;stroke:#e86b0e;stroke-width:1;stroke-linecap:round;stroke-opacity:1"
             d="m 0.5,8.5 v -4 a 4,4 90 0 1 4,-4 h 4 v 2 h 10 v -2 h 9 60 4 a 4,4 90 0 1 4,4 v 4 h -4 v -3 h -4 v 10 h 4 v -3 h 4 v 4 a 4,4 90 0 1 -4,4 h -4 -60 -1 v 2 h -8 v -2 h -1 -4 a 5,5 90 0 0 -5,5 v 4 4 21 4 a 5,5 90 0 0 5,5 h 4 v 2 h 10 v -2 h 8 v 6 6 4 a 4,4 90 0 1 -4,4 h -4 -9 -1 v 2 h -8 v -2 h -1 -4 a 4,4 90 0 1 -4,-4 v -4 z" />
          <text
             id="text7910"
             style="font-size:10px;font-family:sans-serif;text-anchor:start;fill:#282828">
            <tspan
               id="tspan7908"
               y="15"
               x="20">おんぷ</tspan>
          </text>
          <text
             id="text7914"
             style="font-size:6.66666651px;font-family:sans-serif;text-anchor:end;fill:#282828">
            <tspan
               id="tspan7912"
               y="12"
               x="85">ながさ</tspan>
          </text>
        </g>
      </g>
      <g
         id="g7936"
         transform="matrix(0.5,0,0,0.5,263,456)">
        <g
           id="g7934"
           style="isolation:isolate">
          <g
             data-name="レイヤー 2"
             id="g7932">
            <g
               id="g7930">
              <rect
                 id="rect7920"
                 style="opacity:0.4;mix-blend-mode:multiply;fill:#292929"
                 ry="5"
                 rx="5"
                 height="42"
                 width="42"
                 x="0"
                 y="0" />
              <path
                 id="path7922"
                 style="fill:#ffffff"
                 d="m 30.56,29.8 -4.17,-4.16 h 2.26 a 1.035,1.035 0 1 0 0,-2.07 h -4.71 a 1.08,1.08 0 0 0 -1.11,1 v 0 c 0,0 0,0 0,0.06 v 4.64 0 a 1.04,1.04 0 1 0 2.08,0 v -2.19 l 4.19,4.19 a 1,1 0 0 0 1.46,0 1,1 0 0 0 0,-1.47 z" />
              <path
                 id="path7924"
                 style="fill:#ffffff"
                 d="m 19.17,24.6 a 1.08,1.08 0 0 0 -1.11,-1 h -4.71 a 1.035,1.035 0 1 0 0,2.07 h 2.25 l -4.16,4.13 a 1.039447,1.039447 0 0 0 1.47,1.47 l 4.18,-4.19 v 2.26 a 1.04,1.04 0 1 0 2.08,0 V 24.7 c 0,0 0,0 0,-0.06 a 0.08,0.08 0 0 1 0,-0.04 z" />
              <path
                 id="path7926"
                 style="fill:#ffffff"
                 d="m 23.94,20.5 h 4.7 a 1.04,1.04 0 1 0 0,-2.08 h -2.25 l 4.17,-4.16 a 1,1 0 0 0 0,-1.47 1,1 0 0 0 -1.46,0 L 24.91,17 v -2.28 a 1.04,1.04 0 1 0 -2.08,0 v 4.64 a 0.43,0.43 0 0 0 0,0.05 v 0.05 a 1.09,1.09 0 0 0 1.11,1.04 z" />
              <path
                 id="path7928"
                 style="fill:#ffffff"
                 d="m 18.13,13.62 a 1.08,1.08 0 0 0 -1,1.09 V 17 l -4.18,-4.19 a 1,1 0 0 0 -1.47,0 1,1 0 0 0 0,1.46 l 4.16,4.17 h -2.29 a 1.04,1.04 0 1 0 0,2.08 h 4.71 a 1.09,1.09 0 0 0 1.11,-1 c 0,0 0,0 0,-0.06 v -4.75 a 1.07,1.07 0 0 0 -1.04,-1.09 z" />
            </g>
          </g>
        </g>
      </g>
    </g>
    <g
       id="g7956"
       transform="matrix(0.26458333,0,0,0.26458333,47.804749,386.59308)">
      <g
         id="g7954"
         transform="scale(1.5)">
        <path
           id="path7940"
           style="fill:#ff6ea1;fill-opacity:1;stroke:#ff2c76;stroke-width:1;stroke-linecap:round;stroke-opacity:1"
           d="m 8.5,8.5 v -4 a 4,4 90 0 1 4,-4 h 4 10 30 4 a 4,4 90 0 1 4,4 v 4 h -4 v -3 h -4 v 10 h 4 v -3 h 4 v 17 h -4 v -3 h -4 v 10 h 4 v -3 h 4 v 4 a 4,4 90 0 1 -4,4 h -4 -30 -10 -4 a 4,4 90 0 1 -4,-4 v -4 -21 -1 h -6 v 3 h -2 v -8 h 2 v 3 h 6 z" />
        <text
           id="text7944"
           style="font-size:9px;font-family:sans-serif;text-anchor:end;fill:#282828">
          <tspan
             id="tspan7942"
             y="23"
             x="54">➗</tspan>
        </text>
        <text
           id="text7948"
           style="font-size:6px;font-family:sans-serif;text-anchor:end;fill:#282828">
          <tspan
             id="tspan7946"
             y="12"
             x="54" />
        </text>
        <text
           id="text7952"
           style="font-size:6px;font-family:sans-serif;text-anchor:end;fill:#282828">
          <tspan
             id="tspan7950"
             y="33"
             x="54" />
        </text>
      </g>
    </g>
    <g
       id="g7966"
       transform="matrix(0.26458333,0,0,0.26458333,70.558916,386.59308)">
      <g
         id="g7964"
         transform="scale(1.5)">
        <path
           id="path7958"
           style="fill:#ff6ea1;fill-opacity:1;stroke:#ff2c76;stroke-width:1;stroke-linecap:round;stroke-opacity:1"
           d="m 8.5,0.5 h 60 v 20 h -60 v -8 -1 h -6 v 3 h -2 v -8 h 2 v 3 h 6 v -1 z" />
        <text
           id="text7962"
           style="font-size:10px;font-family:sans-serif;text-anchor:start;fill:#282828">
          <tspan
             id="tspan7960"
             y="14"
             x="13">1</tspan>
        </text>
      </g>
    </g>
    <g
       id="g7976"
       transform="matrix(0.26458333,0,0,0.26458333,70.558916,395.05975)">
      <g
         id="g7974"
         transform="scale(1.5)">
        <path
           id="path7968"
           style="fill:#ff6ea1;fill-opacity:1;stroke:#ff2c76;stroke-width:1;stroke-linecap:round;stroke-opacity:1"
           d="m 8.5,0.5 h 60 v 20 h -60 v -8 -1 h -6 v 3 h -2 v -8 h 2 v 3 h 6 v -1 z" />
        <text
           id="text7972"
           style="font-size:10px;font-family:sans-serif;text-anchor:start;fill:#282828">
          <tspan
             id="tspan7970"
             y="14"
             x="13">4</tspan>
        </text>
      </g>
    </g>
    <g
       id="g7986"
       transform="matrix(0.26458333,0,0,0.26458333,16.583916,395.05975)">
      <g
         id="g7984"
         transform="scale(1.5)">
        <path
           id="path7978"
           style="fill:#c4c4c4;fill-opacity:1;stroke:#a0a0a0;stroke-width:1;stroke-linecap:round;stroke-opacity:1"
           d="m 0.5,8.5 v -4 a 4,4 90 0 1 4,-4 h 4 v 2 h 10 v -2 h 20 4 a 4,4 90 0 1 4,4 v 4 4 4 a 4,4 90 0 1 -4,4 h -4 -20 -1 v 2 h -8 v -2 h -1 -4 a 4,4 90 0 1 -4,-4 v -4 z" />
        <text
           id="text7982"
           style="font-size:10px;font-family:sans-serif;text-anchor:end;fill:#282828">
          <tspan
             id="tspan7980"
             y="14"
             x="36">↓</tspan>
        </text>
      </g>
    </g>
    <g
       id="g8318"
       transform="matrix(0.26458333,0,0,0.26458333,16.583916,403.52641)">
      <g
         id="g8316"
         transform="scale(1.5)">
        <path
           id="path8306"
           style="fill:#3edcdd;fill-opacity:1;stroke:#1dbcbd;stroke-width:1;stroke-linecap:round;stroke-opacity:1"
           d="m 0.5,8.5 v -4 a 4,4 90 0 1 4,-4 h 4 v 2 h 10 v -2 h 30 4 a 4,4 90 0 1 4,4 v 4 h -4 v -3 h -4 v 10 h 4 v -3 h 4 v 4 a 4,4 90 0 1 -4,4 h -4 -30 -1 v 2 h -8 v -2 h -1 -4 a 4,4 90 0 1 -4,-4 v -4 z" />
        <text
           id="text8310"
           style="font-size:10px;font-family:sans-serif;text-anchor:end;fill:#282828">
          <tspan
             id="tspan8308"
             y="14"
             x="46">ドラム</tspan>
        </text>
        <text
           id="text8314"
           style="font-size:6.66666651px;font-family:sans-serif;text-anchor:end;fill:#282828">
          <tspan
             id="tspan8312"
             y="12"
             x="46" />
        </text>
      </g>
    </g>
    <g
       id="g8328"
       transform="matrix(0.26458333,0,0,0.26458333,36.163082,403.52641)">
      <g
         id="g8326"
         transform="scale(1.5)">
        <path
           id="path8320"
           style="fill:#3edcdd;fill-opacity:1;stroke:#1dbcbd;stroke-width:1;stroke-linecap:round;stroke-opacity:1"
           d="m 8.5,0.5 h 110 v 20 H 8.5 v -8 -1 h -6 v 3 h -2 v -8 h 2 v 3 h 6 v -1 z" />
        <text
           id="text8324"
           style="font-size:10px;font-family:sans-serif;text-anchor:start;fill:#282828">
          <tspan
             id="tspan8322"
             y="14"
             x="13">duck</tspan>
        </text>
      </g>
    </g>
  </g>
</svg>
