<?xml version="1.0" encoding="UTF-8" standalone="no"?>
<svg
   xmlns:dc="http://purl.org/dc/elements/1.1/"
   xmlns:cc="http://creativecommons.org/ns#"
   xmlns:rdf="http://www.w3.org/1999/02/22-rdf-syntax-ns#"
   xmlns:svg="http://www.w3.org/2000/svg"
   xmlns="http://www.w3.org/2000/svg"
   width="255.5"
   height="192"
   version="1.1"
   id="svg132">
  <metadata
     id="metadata138">
    <rdf:RDF>
      <cc:Work
         rdf:about="">
        <dc:format>image/svg+xml</dc:format>
        <dc:type
           rdf:resource="http://purl.org/dc/dcmitype/StillImage" />
        <dc:title></dc:title>
      </cc:Work>
    </rdf:RDF>
  </metadata>
  <defs
     id="defs136" />
  <g
     id="g58">
    <g
       transform="scale(1.5)"
       id="g56">
      <path
         d="m 0.5,8.5 v -4 c 0,-2.209139 1.790861,-4 4,-4 h 4 v 2 h 10 v -2 h 9 22 4 c 2.209139,0 4.698591,1.9042267 4,4 v 4 4 4 c 0,2.209139 -1.790861,4 -4,4 h -4 -22 -1 v 2 h -8 v -2 h -1 -4 c -2.761424,0 -5,2.238576 -5,5 v 4 4 63 4 c 0,2.76142 2.238576,5 5,5 h 4 v 2 h 10 v -2 h 8 v 6 6 4 c 0,2.20914 -1.790861,4 -4,4 h -4 -9 -1 v 2 h -8 v -2 h -1 -4 c -2.209139,0 -4,-1.79086 -4,-4 v -4 z"
         style="fill:#92a9ff;fill-opacity:1;stroke:#5370dc;stroke-width:1;stroke-linecap:round;stroke-opacity:1"
         id="path50" />
      <text
         style="font-size:10px;font-family:sans-serif;text-anchor:start;fill:#282828"
         id="text54">
        <tspan
           x="5"
           y="15"
           id="tspan52">ぬりつぶす</tspan>
      </text>
    </g>
  </g>
  <g
     transform="translate(54,64)"
     id="g72">
    <g
       transform="scale(1.5)"
       id="g70">
      <path
         d="m -16.833333,8.5 v -4 c 0,-2.209139 1.790861,-4 4,-4 h 3.9999997 v 2 h 10 v -2 h 50.6780603 4 c 2.209139,0 4,1.790861 4,4 v 4 h -4 v -3 h -4 v 10 h 4 v -3 h 4 v 4 c 0,2.209139 -1.790861,4 -4,4 h -4 H 1.1666667 0.16666667 v 2 H -7.8333333 v -2 h -1 -3.9999997 c -2.209139,0 -4.698591,-1.904227 -4,-4 v -4 z"
         style="fill:#92a9ff;fill-opacity:1;stroke:#5370dc;stroke-width:1;stroke-linecap:round;stroke-opacity:1"
         id="path60" />
      <text
         style="font-size:10px;font-family:sans-serif;text-anchor:end;fill:#282828"
         id="text64">
        <tspan
           x="50"
           y="14"
           id="tspan62">まえへ すすむ</tspan>
      </text>
      <text
         style="font-size:6.66666651px;font-family:sans-serif;text-anchor:end;fill:#282828"
         id="text68">
        <tspan
           x="50"
           y="12"
           id="tspan66" />
      </text>
    </g>
  </g>
  <g
     transform="translate(133,64)"
     id="g82">
    <g
       transform="scale(1.5)"
       id="g80">
      <path
         d="m 8.5,0.5 h 60 v 20 h -60 v -8 -1 h -6 v 3 h -2 v -8 h 2 v 3 h 6 v -1 z"
         style="fill:#ff6ea1;fill-opacity:1;stroke:#ff2c76;stroke-width:1;stroke-linecap:round;stroke-opacity:1"
         id="path74" />
      <text
         style="font-size:10px;font-family:sans-serif;text-anchor:start;fill:#282828"
         id="text78">
        <tspan
           x="13"
           y="14"
           id="tspan76">100</tspan>
      </text>
    </g>
  </g>
  <g
     transform="translate(46,96)"
     id="g96">
    <g
       transform="scale(1.5)"
       id="g94">
      <path
         d="m -11.5,8.5 v -4 c 0,-2.209139 1.790861,-4 4,-4 h 4 v 2 h 10 v -2 h 42 4 c 2.209139,0 4,1.790861 4,4 v 4 h -4 v -3 h -4 v 10 h 4 v -3 h 4 v 4 c 0,2.209139 -1.790861,4 -4,4 h -4 -42 -1 v 2 h -8 v -2 h -1 -4 c -2.209139,0 -4.698591,-1.904227 -4,-4 v -4 z"
         style="fill:#92a9ff;fill-opacity:1;stroke:#5370dc;stroke-width:1;stroke-linecap:round;stroke-opacity:1"
         id="path84" />
      <text
         style="font-size:10px;font-family:sans-serif;text-anchor:end;fill:#282828"
         id="text88">
        <tspan
           x="46"
           y="14"
           id="tspan86">みぎを むく</tspan>
      </text>
      <text
         style="font-size:6.66666651px;font-family:sans-serif;text-anchor:end;fill:#282828"
         id="text92">
        <tspan
           x="46"
           y="12"
           id="tspan90" />
      </text>
    </g>
  </g>
  <g
     transform="translate(120,96)"
     id="g106">
    <g
       transform="scale(1.5)"
       id="g104">
      <path
         d="m 8.5,0.5 h 60 v 20 h -60 v -8 -1 h -6 v 3 h -2 v -8 h 2 v 3 h 6 v -1 z"
         style="fill:#ff6ea1;fill-opacity:1;stroke:#ff2c76;stroke-width:1;stroke-linecap:round;stroke-opacity:1"
         id="path98" />
      <text
         style="font-size:10px;font-family:sans-serif;text-anchor:start;fill:#282828"
         id="text102">
        <tspan
           x="13"
           y="14"
           id="tspan100">90</tspan>
      </text>
    </g>
  </g>
  <g
     transform="translate(14,32)"
     id="g120">
    <g
       transform="scale(1.5)"
       id="g118">
      <path
         d="m 0.5,8.5 v -4 c 0,-2.209139 1.790861,-4 4,-4 h 4 v 2 h 10 v -2 h 9 64 4 c 2.209139,0 4.69859,1.9042267 4,4 v 4 h -4 v -3 h -4 v 10 h 4 v -3 h 4 v 4 c 0,2.209139 -1.790861,4 -4,4 h -4 -64 -1 v 2 h -8 v -2 h -1 -4 c -2.761424,0 -5,2.238576 -5,5 v 4 4 21 4 c 0,2.761424 2.238576,5 5,5 h 4 v 2 h 10 v -2 h 8 v 6 6 4 c 0,2.209139 -1.790861,4 -4,4 h -4 -9 -1 v 2 h -8 v -2 h -1 -4 c -2.209139,0 -4,-1.790861 -4,-4 v -4 z"
         style="fill:#d98a43;fill-opacity:1;stroke:#b7651a;stroke-width:1;stroke-linecap:round;stroke-opacity:1"
         id="path108" />
      <text
         style="font-size:10px;font-family:sans-serif;text-anchor:start;fill:#282828"
         id="text112">
        <tspan
           x="5"
           y="15"
           id="tspan110">～かい くりかえす</tspan>
      </text>
      <text
         style="font-size:6.66666651px;font-family:sans-serif;text-anchor:end;fill:#282828"
         id="text116">
        <tspan
           x="45"
           y="12"
           id="tspan114" />
      </text>
    </g>
  </g>
  <g
     transform="translate(152,32)"
     id="g130">
    <g
       transform="scale(1.5)"
       id="g128">
      <path
         d="m 8.5,0.5 h 60 v 20 h -60 v -8 -1 h -6 v 3 h -2 v -8 h 2 v 3 h 6 v -1 z"
         style="fill:#ff6ea1;fill-opacity:1;stroke:#ff2c76;stroke-width:1;stroke-linecap:round;stroke-opacity:1"
         id="path122" />
      <text
         style="font-size:10px;font-family:sans-serif;text-anchor:start;fill:#282828"
         id="text126">
        <tspan
           x="13"
           y="14"
           id="tspan124">4</tspan>
      </text>
    </g>
  </g>
</svg>
