<?xml version="1.0" encoding="UTF-8" standalone="no"?>
<svg
   xmlns:dc="http://purl.org/dc/elements/1.1/"
   xmlns:cc="http://creativecommons.org/ns#"
   xmlns:rdf="http://www.w3.org/1999/02/22-rdf-syntax-ns#"
   xmlns:svg="http://www.w3.org/2000/svg"
   xmlns="http://www.w3.org/2000/svg"
   id="svg11666"
   version="1.1"
   viewBox="0 0 108.45683 25.003127"
   height="25.003124mm"
   width="108.45683mm">
  <defs
     id="defs11660" />
  <metadata
     id="metadata11663">
    <rdf:RDF>
      <cc:Work
         rdf:about="">
        <dc:format>image/svg+xml</dc:format>
        <dc:type
           rdf:resource="http://purl.org/dc/dcmitype/StillImage" />
        <dc:title></dc:title>
      </cc:Work>
    </rdf:RDF>
  </metadata>
  <g
     transform="translate(426.86804,55.676149)"
     id="layer1">
    <g
       id="g1036"
       transform="matrix(0.26458333,0,0,0.26458333,-424.7051,-55.676149)">
      <g
         id="g1034"
         transform="scale(1.5)">
        <path
           id="path1020"
           style="fill:#ff8b2d;fill-opacity:1;stroke:#e86b0e;stroke-width:1;stroke-linecap:round;stroke-opacity:1"
           d="m -4.8333336,8.5 v -4 c 0,-2.209139 1.790861,-4 4.00000002,-4 H 3.1666664 v 2 h 9.9999996 v -2 h 128.160484 4 c 2.20914,0 4,1.790861 4,4 v 4 h -4 v -3 h -4 v 10 h 4 v -3 h 4 v 17 h -4 v -3 h -4 v 10 h 4 v -3 h 4 v 4 c 0,2.209139 -1.79086,4 -4,4 h -4 -128.160484 -1 v 2 H 4.1666664 v -2 h -1 -3.99999998 c -2.20913902,0 -4.69859112,-1.904227 -4.00000002,-4 v -4 -21 z" />
        <text
           id="text1024"
           style="font-size:10px;font-family:sans-serif;text-anchor:end;fill:#282828">
          <tspan
             id="tspan1022"
             y="24"
             x="139">ぜんたいの スピードを きめる</tspan>
        </text>
        <text
           id="text1028"
           style="font-size:6.66666651px;font-family:sans-serif;text-anchor:end;fill:#282828">
          <tspan
             id="tspan1026"
             y="12"
             x="139">１ぷんあたりの はくのかず</tspan>
        </text>
        <text
           id="text1032"
           style="font-size:6.66666651px;font-family:sans-serif;text-anchor:end;fill:#282828">
          <tspan
             id="tspan1030"
             y="33"
             x="139">１ぱく</tspan>
        </text>
      </g>
    </g>
    <g
       id="g1046"
       transform="matrix(0.26458333,0,0,0.26458333,-368.41746,-55.676149)">
      <g
         id="g1044"
         transform="scale(1.5)">
        <path
           id="path1038"
           style="fill:#ff5293;fill-opacity:1;stroke:#ff2c76;stroke-width:1;stroke-linecap:round;stroke-opacity:1"
           d="m 8.5,0.5 h 60 v 20 h -60 v -8 -1 h -6 v 3 h -2 v -8 h 2 v 3 h 6 v -1 z" />
        <text
           id="text1042"
           style="font-size:10px;font-family:sans-serif;text-anchor:start;fill:#282828">
          <tspan
             id="tspan1040"
             y="14"
             x="13">90</tspan>
        </text>
      </g>
    </g>
    <g
       id="g1064"
       transform="matrix(0.26458333,0,0,0.26458333,-368.41746,-47.341774)">
      <g
         id="g1062"
         transform="scale(1.5)">
        <path
           id="path1048"
           style="fill:#ff5293;fill-opacity:1;stroke:#ff2c76;stroke-width:1;stroke-linecap:round;stroke-opacity:1"
           d="m 8.5,8.5 v -4 a 4,4 90 0 1 4,-4 h 4 10 30 4 a 4,4 90 0 1 4,4 v 4 h -4 v -3 h -4 v 10 h 4 v -3 h 4 v 17 h -4 v -3 h -4 v 10 h 4 v -3 h 4 v 4 a 4,4 90 0 1 -4,4 h -4 -30 -10 -4 a 4,4 90 0 1 -4,-4 v -4 -21 -1 h -6 v 3 h -2 v -8 h 2 v 3 h 6 z" />
        <text
           id="text1052"
           style="font-size:9px;font-family:sans-serif;text-anchor:end;fill:#282828">
          <tspan
             id="tspan1050"
             y="23"
             x="54">➗</tspan>
        </text>
        <text
           id="text1056"
           style="font-size:6px;font-family:sans-serif;text-anchor:end;fill:#282828">
          <tspan
             id="tspan1054"
             y="12"
             x="54" />
        </text>
        <text
           id="text1060"
           style="font-size:6px;font-family:sans-serif;text-anchor:end;fill:#282828">
          <tspan
             id="tspan1058"
             y="33"
             x="54" />
        </text>
      </g>
    </g>
    <g
       id="g1074"
       transform="matrix(0.26458333,0,0,0.26458333,-345.79558,-47.341774)">
      <g
         id="g1072"
         transform="scale(1.5)">
        <path
           id="path1066"
           style="fill:#ff5293;fill-opacity:1;stroke:#ff2c76;stroke-width:1;stroke-linecap:round;stroke-opacity:1"
           d="m 8.5,0.5 h 60 v 20 h -60 v -8 -1 h -6 v 3 h -2 v -8 h 2 v 3 h 6 v -1 z" />
        <text
           id="text1070"
           style="font-size:10px;font-family:sans-serif;text-anchor:start;fill:#282828">
          <tspan
             id="tspan1068"
             y="14"
             x="13">1</tspan>
        </text>
      </g>
    </g>
    <g
       id="g1084"
       transform="matrix(0.26458333,0,0,0.26458333,-345.79558,-39.007399)">
      <g
         id="g1082"
         transform="scale(1.5)">
        <path
           id="path1076"
           style="fill:#ff5293;fill-opacity:1;stroke:#ff2c76;stroke-width:1;stroke-linecap:round;stroke-opacity:1"
           d="m 8.5,0.5 h 60 v 20 h -60 v -8 -1 h -6 v 3 h -2 v -8 h 2 v 3 h 6 v -1 z" />
        <text
           id="text1080"
           style="font-size:10px;font-family:sans-serif;text-anchor:start;fill:#282828">
          <tspan
             id="tspan1078"
             y="14"
             x="13">4</tspan>
        </text>
      </g>
    </g>
  </g>
</svg>
