<?xml version="1.0" encoding="UTF-8" standalone="no"?>
<svg
   xmlns:dc="http://purl.org/dc/elements/1.1/"
   xmlns:cc="http://creativecommons.org/ns#"
   xmlns:rdf="http://www.w3.org/1999/02/22-rdf-syntax-ns#"
   xmlns:svg="http://www.w3.org/2000/svg"
   xmlns="http://www.w3.org/2000/svg"
   width="88.50312mm"
   height="75.803123mm"
   viewBox="0 0 88.503121 75.803125"
   version="1.1"
   id="svg11666">
  <defs
     id="defs11660" />
  <metadata
     id="metadata11663">
    <rdf:RDF>
      <cc:Work
         rdf:about="">
        <dc:format>image/svg+xml</dc:format>
        <dc:type
           rdf:resource="http://purl.org/dc/dcmitype/StillImage" />
        <dc:title></dc:title>
      </cc:Work>
    </rdf:RDF>
  </metadata>
  <g
     id="g2338"
     transform="matrix(0.26458333,0,0,0.26458333,-2.1190625e-6,4.281354e-6)">
    <g
       id="g2336"
       transform="scale(1.5)">
      <path
         id="path2322"
         style="fill:#25c3c0;fill-opacity:1;stroke:#1dbcbd;stroke-width:1;stroke-linecap:round;stroke-opacity:1"
         d="m 0.5,8.5 v -4 a 4,4 90 0 1 4,-4 h 4 v 2 h 10 v -2 h 9 67.539062 4 a 4,4 90 0 1 3.999998,4 v 4 h -3.999998 v -3 h -4 v 10 h 4 v -3 h 3.999998 v 17 h -3.999998 v -3 h -4 v 10 h 4 v -3 h 3.999998 v 4 a 4,4 90 0 1 -3.999998,4 h -4 H 27.5 h -1 v 2 h -8 v -2 h -1 -4 a 5,5 90 0 0 -5,5 v 4 4 105 4 a 5,5 90 0 0 5,5 h 4 v 2 h 10 v -2 h 8 v 6 6 4 a 4,4 90 0 1 -4,4 h -4 -9 -1 v 2 h -8 v -2 h -1 -4 a 4,4 90 0 1 -4,-4 v -4 z" />
      <text
         id="text2326"
         style="font-size:10px;font-family:sans-serif;text-anchor:start;fill:#282828">
        <tspan
           id="tspan2324"
           y="22"
           x="5">音を加える(+/–)</tspan>
      </text>
      <text
         id="text2330"
         style="font-size:6.66666651px;font-family:sans-serif;text-anchor:end;fill:#282828">
        <tspan
           id="tspan2328"
           y="12"
           x="93">おんかいの じょうげ</tspan>
      </text>
      <text
         id="text2334"
         style="font-size:6.66666651px;font-family:sans-serif;text-anchor:end;fill:#282828">
        <tspan
           id="tspan2332"
           y="33"
           x="93">おとの ながさ</tspan>
      </text>
    </g>
  </g>
  <g
     id="g2348"
     transform="matrix(0.26458333,0,0,0.26458333,37.917062,4.281354e-6)">
    <g
       id="g2346"
       transform="scale(1.5)">
      <path
         id="path2340"
         style="fill:#ff5293;fill-opacity:1;stroke:#ff2c76;stroke-width:1;stroke-linecap:round;stroke-opacity:1"
         d="m 8.5,0.5 h 60 v 20 h -60 v -8 -1 h -6 v 3 h -2 v -8 h 2 v 3 h 6 v -1 z" />
      <text
         id="text2344"
         style="font-size:10px;font-family:sans-serif;text-anchor:start;fill:#282828">
        <tspan
           id="tspan2342"
           y="14"
           x="13">1</tspan>
      </text>
    </g>
  </g>
  <g
     id="g2358"
     transform="matrix(0.26458333,0,0,0.26458333,3.5718728,16.668754)">
    <g
       id="g2356"
       transform="scale(1.5)">
      <path
         id="path2350"
         style="fill:#b0b0b0;fill-opacity:1;stroke:#a0a0a0;stroke-width:1;stroke-linecap:round;stroke-opacity:1"
         d="m 0.5,8.5 v -4 a 4,4 90 0 1 4,-4 h 4 v 2 h 10 v -2 h 20 4 a 4,4 90 0 1 4,4 v 4 4 4 a 4,4 90 0 1 -4,4 h -4 -20 -1 v 2 h -8 v -2 h -1 -4 a 4,4 90 0 1 -4,-4 v -4 z" />
      <text
         id="text2354"
         style="font-size:10px;font-family:sans-serif;text-anchor:end;fill:#282828">
        <tspan
           id="tspan2352"
           y="14"
           x="36">↓</tspan>
      </text>
    </g>
  </g>
  <g
     id="g2376"
     transform="matrix(0.26458333,0,0,0.26458333,37.917062,8.3343792)">
    <g
       id="g2374"
       transform="scale(1.5)">
      <path
         id="path2360"
         style="fill:#ff5293;fill-opacity:1;stroke:#ff2c76;stroke-width:1;stroke-linecap:round;stroke-opacity:1"
         d="m 8.5,8.5 v -4 a 4,4 90 0 1 4,-4 h 4 10 30 4 a 4,4 90 0 1 4,4 v 4 h -4 v -3 h -4 v 10 h 4 v -3 h 4 v 17 h -4 v -3 h -4 v 10 h 4 v -3 h 4 v 4 a 4,4 90 0 1 -4,4 h -4 -30 -10 -4 a 4,4 90 0 1 -4,-4 v -4 -21 -1 h -6 v 3 h -2 v -8 h 2 v 3 h 6 z" />
      <text
         id="text2364"
         style="font-size:9px;font-family:sans-serif;text-anchor:end;fill:#282828">
        <tspan
           id="tspan2362"
           y="23"
           x="54">➗</tspan>
      </text>
      <text
         id="text2368"
         style="font-size:6px;font-family:sans-serif;text-anchor:end;fill:#282828">
        <tspan
           id="tspan2366"
           y="12"
           x="54" />
      </text>
      <text
         id="text2372"
         style="font-size:6px;font-family:sans-serif;text-anchor:end;fill:#282828">
        <tspan
           id="tspan2370"
           y="33"
           x="54" />
      </text>
    </g>
  </g>
  <g
     id="g2386"
     transform="matrix(0.26458333,0,0,0.26458333,60.538937,8.3343792)">
    <g
       id="g2384"
       transform="scale(1.5)">
      <path
         id="path2378"
         style="fill:#ff5293;fill-opacity:1;stroke:#ff2c76;stroke-width:1;stroke-linecap:round;stroke-opacity:1"
         d="m 8.5,0.5 h 60 v 20 h -60 v -8 -1 h -6 v 3 h -2 v -8 h 2 v 3 h 6 v -1 z" />
      <text
         id="text2382"
         style="font-size:10px;font-family:sans-serif;text-anchor:start;fill:#282828">
        <tspan
           id="tspan2380"
           y="14"
           x="13">1</tspan>
      </text>
    </g>
  </g>
  <g
     id="g2396"
     transform="matrix(0.26458333,0,0,0.26458333,60.538937,16.668754)">
    <g
       id="g2394"
       transform="scale(1.5)">
      <path
         id="path2388"
         style="fill:#ff5293;fill-opacity:1;stroke:#ff2c76;stroke-width:1;stroke-linecap:round;stroke-opacity:1"
         d="m 8.5,0.5 h 60 v 20 h -60 v -8 -1 h -6 v 3 h -2 v -8 h 2 v 3 h 6 v -1 z" />
      <text
         id="text2392"
         style="font-size:10px;font-family:sans-serif;text-anchor:start;fill:#282828">
        <tspan
           id="tspan2390"
           y="14"
           x="13">16</tspan>
      </text>
    </g>
  </g>
  <g
     transform="matrix(0.26458333,0,0,0.26458333,-65.881251,-405.34167)"
     id="g2632">
    <g
       id="g2612"
       transform="translate(262.5,1626.5)">
      <g
         id="g2610"
         transform="scale(1.5)">
        <path
           id="path2600"
           style="fill:#ff8b2d;fill-opacity:1;stroke:#e86b0e;stroke-width:1;stroke-linecap:round;stroke-opacity:1"
           d="m 0.5,8.5 v -4 a 4,4 90 0 1 4,-4 h 4 v 2 h 10 v -2 h 9 60 4 a 4,4 90 0 1 4,4 v 4 h -4 v -3 h -4 v 10 h 4 v -3 h 4 v 4 a 4,4 90 0 1 -4,4 h -4 -60 -1 v 2 h -8 v -2 h -1 -4 a 5,5 90 0 0 -5,5 v 4 4 42 4 a 5,5 90 0 0 5,5 h 4 v 2 h 10 v -2 h 8 v 6 6 4 a 4,4 90 0 1 -4,4 h -4 -9 -1 v 2 h -8 v -2 h -1 -4 a 4,4 90 0 1 -4,-4 v -4 z" />
        <text
           id="text2604"
           style="font-size:10px;font-family:sans-serif;text-anchor:start;fill:#282828">
          <tspan
             id="tspan2602"
             y="15"
             x="20">おんぷ</tspan>
        </text>
        <text
           id="text2608"
           style="font-size:6.66666651px;font-family:sans-serif;text-anchor:end;fill:#282828">
          <tspan
             id="tspan2606"
             y="12"
             x="85">ながさ</tspan>
        </text>
      </g>
    </g>
    <g
       id="g2630"
       transform="matrix(0.5,0,0,0.5,262.5,1630.5)">
      <g
         id="g2628"
         style="isolation:isolate">
        <g
           data-name="レイヤー 2"
           id="g2626">
          <g
             id="g2624">
            <rect
               y="0"
               x="0"
               id="rect2614"
               style="opacity:0.4;mix-blend-mode:multiply;fill:#292929"
               ry="5"
               rx="5"
               height="42"
               width="42" />
            <path
               id="path2616"
               style="fill:#ffffff"
               d="m 30.56,29.8 -4.17,-4.16 h 2.26 a 1.035,1.035 0 1 0 0,-2.07 h -4.71 a 1.08,1.08 0 0 0 -1.11,1 v 0 c 0,0 0,0 0,0.06 v 4.64 0 a 1.04,1.04 0 1 0 2.08,0 v -2.19 l 4.19,4.19 a 1,1 0 0 0 1.46,0 1,1 0 0 0 0,-1.47 z" />
            <path
               id="path2618"
               style="fill:#ffffff"
               d="m 19.17,24.6 a 1.08,1.08 0 0 0 -1.11,-1 h -4.71 a 1.035,1.035 0 1 0 0,2.07 h 2.25 l -4.16,4.13 a 1.039447,1.039447 0 0 0 1.47,1.47 l 4.18,-4.19 v 2.26 a 1.04,1.04 0 1 0 2.08,0 V 24.7 c 0,0 0,0 0,-0.06 a 0.08,0.08 0 0 1 0,-0.04 z" />
            <path
               id="path2620"
               style="fill:#ffffff"
               d="m 23.94,20.5 h 4.7 a 1.04,1.04 0 1 0 0,-2.08 h -2.25 l 4.17,-4.16 a 1,1 0 0 0 0,-1.47 1,1 0 0 0 -1.46,0 L 24.91,17 v -2.28 a 1.04,1.04 0 1 0 -2.08,0 v 4.64 a 0.43,0.43 0 0 0 0,0.05 v 0.05 a 1.09,1.09 0 0 0 1.11,1.04 z" />
            <path
               id="path2622"
               style="fill:#ffffff"
               d="m 18.13,13.62 a 1.08,1.08 0 0 0 -1,1.09 V 17 l -4.18,-4.19 a 1,1 0 0 0 -1.47,0 1,1 0 0 0 0,1.46 l 4.16,4.17 h -2.29 a 1.04,1.04 0 1 0 0,2.08 h 4.71 a 1.09,1.09 0 0 0 1.11,-1 c 0,0 0,0 0,-0.06 v -4.75 a 1.07,1.07 0 0 0 -1.04,-1.09 z" />
          </g>
        </g>
      </g>
    </g>
  </g>
  <g
     id="g2650"
     transform="matrix(0.26458333,0,0,0.26458333,38.496872,25.003129)">
    <g
       id="g2648"
       transform="scale(1.5)">
      <path
         id="path2634"
         style="fill:#ff5293;fill-opacity:1;stroke:#ff2c76;stroke-width:1;stroke-linecap:round;stroke-opacity:1"
         d="m 8.5,8.5 v -4 a 4,4 90 0 1 4,-4 h 4 10 30 4 a 4,4 90 0 1 4,4 v 4 h -4 v -3 h -4 v 10 h 4 v -3 h 4 v 17 h -4 v -3 h -4 v 10 h 4 v -3 h 4 v 4 a 4,4 90 0 1 -4,4 h -4 -30 -10 -4 a 4,4 90 0 1 -4,-4 v -4 -21 -1 h -6 v 3 h -2 v -8 h 2 v 3 h 6 z" />
      <text
         id="text2638"
         style="font-size:9px;font-family:sans-serif;text-anchor:end;fill:#282828">
        <tspan
           id="tspan2636"
           y="23"
           x="54">➗</tspan>
      </text>
      <text
         id="text2642"
         style="font-size:6px;font-family:sans-serif;text-anchor:end;fill:#282828">
        <tspan
           id="tspan2640"
           y="12"
           x="54" />
      </text>
      <text
         id="text2646"
         style="font-size:6px;font-family:sans-serif;text-anchor:end;fill:#282828">
        <tspan
           id="tspan2644"
           y="33"
           x="54" />
      </text>
    </g>
  </g>
  <g
     id="g2660"
     transform="matrix(0.26458333,0,0,0.26458333,61.118747,25.003129)">
    <g
       id="g2658"
       transform="scale(1.5)">
      <path
         id="path2652"
         style="fill:#ff5293;fill-opacity:1;stroke:#ff2c76;stroke-width:1;stroke-linecap:round;stroke-opacity:1"
         d="m 8.5,0.5 h 60 v 20 h -60 v -8 -1 h -6 v 3 h -2 v -8 h 2 v 3 h 6 v -1 z" />
      <text
         id="text2656"
         style="font-size:10px;font-family:sans-serif;text-anchor:start;fill:#282828">
        <tspan
           id="tspan2654"
           y="14"
           x="13">1</tspan>
      </text>
    </g>
  </g>
  <g
     id="g2670"
     transform="matrix(0.26458333,0,0,0.26458333,61.118747,33.337504)">
    <g
       id="g2668"
       transform="scale(1.5)">
      <path
         id="path2662"
         style="fill:#ff5293;fill-opacity:1;stroke:#ff2c76;stroke-width:1;stroke-linecap:round;stroke-opacity:1"
         d="m 8.5,0.5 h 60 v 20 h -60 v -8 -1 h -6 v 3 h -2 v -8 h 2 v 3 h 6 v -1 z" />
      <text
         id="text2666"
         style="font-size:10px;font-family:sans-serif;text-anchor:start;fill:#282828">
        <tspan
           id="tspan2664"
           y="14"
           x="13">4</tspan>
      </text>
    </g>
  </g>
  <g
     id="g2680"
     transform="matrix(0.26458333,0,0,0.26458333,7.1437478,33.337504)">
    <g
       id="g2678"
       transform="scale(1.5)">
      <path
         id="path2672"
         style="fill:#b0b0b0;fill-opacity:1;stroke:#a0a0a0;stroke-width:1;stroke-linecap:round;stroke-opacity:1"
         d="m 0.5,8.5 v -4 a 4,4 90 0 1 4,-4 h 4 v 2 h 10 v -2 h 20 4 a 4,4 90 0 1 4,4 v 4 4 4 a 4,4 90 0 1 -4,4 h -4 -20 -1 v 2 h -8 v -2 h -1 -4 a 4,4 90 0 1 -4,-4 v -4 z" />
      <text
         id="text2676"
         style="font-size:10px;font-family:sans-serif;text-anchor:end;fill:#282828">
        <tspan
           id="tspan2674"
           y="14"
           x="36">↓</tspan>
      </text>
    </g>
  </g>
  <g
     id="g2698"
     transform="matrix(0.26458333,0,0,0.26458333,16.668752,41.671879)">
    <g
       id="g2696"
       transform="scale(1.5)">
      <path
         id="path2682"
         style="fill:#77c428;fill-opacity:1;stroke:#57ad02;stroke-width:1;stroke-linecap:round;stroke-opacity:1"
         d="m -23.500001,8.5 v -4 c 0,-2.209139 1.790861,-4 4,-4 h 4 v 2 h 10.0000001 v -2 H 48.5 h 4 c 2.209139,0 4,1.790861 4,4 v 4 h -4 v -3 h -4 v 10 h 4 v -3 h 4 v 17 h -4 v -3 h -4 v 10 h 4 v -3 h 4 v 4 c 0,2.209139 -1.790861,4 -4,4 h -4 -54.0000009 -1 v 2 h -8.0000001 v -2 h -1 -4 c -2.209139,0 -4.698591,-1.904227 -4,-4 v -4 -21 z" />
      <text
         id="text2686"
         style="font-size:10px;font-family:sans-serif;text-anchor:end;fill:#282828">
        <tspan
           id="tspan2684"
           y="24"
           x="46">おとの たかさ</tspan>
      </text>
      <text
         id="text2690"
         style="font-size:6.66666651px;font-family:sans-serif;text-anchor:end;fill:#282828">
        <tspan
           id="tspan2688"
           y="12"
           x="46">なまえ</tspan>
      </text>
      <text
         id="text2694"
         style="font-size:6.66666651px;font-family:sans-serif;text-anchor:end;fill:#282828">
        <tspan
           id="tspan2692"
           y="33"
           x="46">オクターヴの たかさ</tspan>
      </text>
    </g>
  </g>
  <g
     id="g2708"
     transform="matrix(0.26458333,0,0,0.26458333,36.115629,41.671879)">
    <g
       id="g2706"
       transform="scale(1.5)">
      <path
         id="path2700"
         style="fill:#77c428;fill-opacity:1;stroke:#57ad02;stroke-width:1;stroke-linecap:round;stroke-opacity:1"
         d="m 8.5,0.5 h 60 v 20 h -60 v -8 -1 h -6 v 3 h -2 v -8 h 2 v 3 h 6 v -1 z" />
      <text
         id="text2704"
         style="font-size:10px;font-family:sans-serif;text-anchor:start;fill:#282828">
        <tspan
           id="tspan2702"
           y="14"
           x="13">ソ</tspan>
      </text>
    </g>
  </g>
  <g
     id="g2718"
     transform="matrix(0.26458333,0,0,0.26458333,36.115629,50.006254)">
    <g
       id="g2716"
       transform="scale(1.5)">
      <path
         id="path2710"
         style="fill:#ff5293;fill-opacity:1;stroke:#ff2c76;stroke-width:1;stroke-linecap:round;stroke-opacity:1"
         d="m 8.5,0.5 h 60 v 20 h -60 v -8 -1 h -6 v 3 h -2 v -8 h 2 v 3 h 6 v -1 z" />
      <text
         id="text2714"
         style="font-size:10px;font-family:sans-serif;text-anchor:start;fill:#282828">
        <tspan
           id="tspan2712"
           y="14"
           x="13">4</tspan>
      </text>
    </g>
  </g>
</svg>
