<svg xmlns="http://www.w3.org/2000/svg" width="301.5" height="34.5"><g transform="translate(0, 0)"><g transform="scale(1.5, 1.5)"><path d="m0.5 8.5 L 0.5 4.5 A 4 4 90 0 1 4.5 0.5 L 8.5 0.5 L 8.5 2.5 L 18.5 2.5 L 18.5 0.5 L 101.5 0.5 L 105.5 0.5 A 4 4 90 0 1 109.5 4.5 L 109.5 8.5 L 105.5 8.5 L 105.5 5.5 L 101.5 5.5 L 101.5 15.5 L 105.5 15.5 L 105.5 12.5 L 109.5 12.5 L 109.5 16.5 A 4 4 90 0 1 105.5 20.5 L 101.5 20.5 L 18.5 20.5 L 17.5 20.5 L 17.5 22.5 L 9.5 22.5 L 9.5 20.5 L 8.5 20.5 L 4.5 20.5 A 4 4 90 0 1 0.5 16.5 L 0.5 12.5 L 0.5 8.5 z" style="fill:#92A9FF;fill-opacity:1;stroke:#5370DC;stroke-width:1;stroke-linecap:round;stroke-opacity:1;" /><text style="font-size:10px;fill:#282828;font-family:sans-serif;text-anchor:end"><tspan x="99" y="14">あたらしい ネズミ</tspan></text><text style="font-size:6.666666666666667px;fill:#282828;font-family:sans-serif;text-anchor:end"><tspan x="99" y="12"></tspan></text></g></g><g transform="translate(153, 0)"><g transform="scale(1.5, 1.5)"><path d="m8.5 0.5 L 98.5 0.5 L 98.5 20.5 L 8.5 20.5 L 8.5 12.5 L 8.5 11.5 L 2.5 11.5 L 2.5 14.5 L 0.5 14.5 L 0.5 6.5 L 2.5 6.5 L 2.5 9.5 L 8.5 9.5 L 8.5 8.5 z" style="fill:#FF664B;fill-opacity:1;stroke:#EA4326;stroke-width:1;stroke-linecap:round;stroke-opacity:1;" /><text style="font-size:10px;fill:#282828;font-family:sans-serif;text-anchor:start"><tspan x="13" y="14">ミスター・マウス</tspan></text></g></g></svg>