<?xml version="1.0" encoding="UTF-8" standalone="no"?>
<svg
   xmlns:dc="http://purl.org/dc/elements/1.1/"
   xmlns:cc="http://creativecommons.org/ns#"
   xmlns:rdf="http://www.w3.org/1999/02/22-rdf-syntax-ns#"
   xmlns:svg="http://www.w3.org/2000/svg"
   xmlns="http://www.w3.org/2000/svg"
   id="svg11666"
   version="1.1"
   viewBox="0 0 139.01733 129.12814"
   height="129.12813mm"
   width="139.01733mm">
  <defs
     id="defs11660" />
  <metadata
     id="metadata11663">
    <rdf:RDF>
      <cc:Work
         rdf:about="">
        <dc:format>image/svg+xml</dc:format>
        <dc:type
           rdf:resource="http://purl.org/dc/dcmitype/StillImage" />
        <dc:title></dc:title>
      </cc:Work>
    </rdf:RDF>
  </metadata>
  <g
     id="g466"
     transform="matrix(0.26458333,0,0,0.26458333,-225.425,-12.932363)">
    <g
       transform="translate(852,109)"
       id="g446">
      <g
         transform="scale(1.5)"
         id="g444">
        <path
           d="m 0.5,14.5 v -4 a 4,4 90 0 1 4,-4 h 4 l 5,-6 5,6 h 9 52 4 a 4,4 90 0 1 4,4 v 4 h -4 v -3 h -4 v 10 h 4 v -3 h 4 v 4 a 4,4 90 0 1 -4,4 h -4 -52 -1 v 2 h -8 v -2 h -1 -4 a 5,5 90 0 0 -5,5 v 4 4 210 4 a 5,5 90 0 0 5,5 h 4 v 2 h 10 v -2 h 8 v 6 6 4 a 4,4 90 0 1 -4,4 h -4 -9 l -5,6 -5,-6 h -4 a 4,4 90 0 1 -4,-4 v -4 z"
           style="fill:#daa926;fill-opacity:1;stroke:#daaf30;stroke-width:1;stroke-linecap:round;stroke-opacity:1"
           id="path434" />
        <text
           style="font-size:10px;font-family:sans-serif;text-anchor:start;fill:#282828"
           id="text438">
          <tspan
             x="20"
             y="22"
             id="tspan436">アクション</tspan>
        </text>
        <text
           style="font-size:6.66666651px;font-family:sans-serif;text-anchor:end;fill:#282828"
           id="text442">
          <tspan
             x="77"
             y="6"
             id="tspan440" />
        </text>
      </g>
    </g>
    <g
       transform="matrix(0.5,0,0,0.5,852,121)"
       id="g464">
      <g
         style="isolation:isolate"
         id="g462">
        <g
           id="g460"
           data-name="レイヤー 2">
          <g
             id="g458">
            <rect
               y="0"
               x="0"
               width="42"
               height="42"
               rx="5"
               ry="5"
               style="opacity:0.4;mix-blend-mode:multiply;fill:#292929"
               id="rect448" />
            <path
               d="m 30.56,29.8 -4.17,-4.16 h 2.26 a 1.035,1.035 0 1 0 0,-2.07 h -4.71 a 1.08,1.08 0 0 0 -1.11,1 v 0 c 0,0 0,0 0,0.06 v 4.64 0 a 1.04,1.04 0 1 0 2.08,0 v -2.19 l 4.19,4.19 a 1,1 0 0 0 1.46,0 1,1 0 0 0 0,-1.47 z"
               style="fill:#ffffff"
               id="path450" />
            <path
               d="m 19.17,24.6 a 1.08,1.08 0 0 0 -1.11,-1 h -4.71 a 1.035,1.035 0 1 0 0,2.07 h 2.25 l -4.16,4.13 a 1.039447,1.039447 0 0 0 1.47,1.47 l 4.18,-4.19 v 2.26 a 1.04,1.04 0 1 0 2.08,0 V 24.7 c 0,0 0,0 0,-0.06 a 0.08,0.08 0 0 1 0,-0.04 z"
               style="fill:#ffffff"
               id="path452" />
            <path
               d="m 23.94,20.5 h 4.7 a 1.04,1.04 0 1 0 0,-2.08 h -2.25 l 4.17,-4.16 a 1,1 0 0 0 0,-1.47 1,1 0 0 0 -1.46,0 L 24.91,17 v -2.28 a 1.04,1.04 0 1 0 -2.08,0 v 4.64 a 0.43,0.43 0 0 0 0,0.05 v 0.05 a 1.09,1.09 0 0 0 1.11,1.04 z"
               style="fill:#ffffff"
               id="path454" />
            <path
               d="m 18.13,13.62 a 1.08,1.08 0 0 0 -1,1.09 V 17 l -4.18,-4.19 a 1,1 0 0 0 -1.47,0 1,1 0 0 0 0,1.46 l 4.16,4.17 h -2.29 a 1.04,1.04 0 1 0 0,2.08 h 4.71 a 1.09,1.09 0 0 0 1.11,-1 c 0,0 0,0 0,-0.06 v -4.75 a 1.07,1.07 0 0 0 -1.04,-1.09 z"
               style="fill:#ffffff"
               id="path456" />
          </g>
        </g>
      </g>
    </g>
  </g>
  <g
     transform="matrix(0.26458333,0,0,0.26458333,31.75,18.28847)"
     id="g476">
    <g
       transform="scale(1.5)"
       id="g474">
      <path
         d="m 8.5,0.5 h 90 v 20 h -90 v -8 -1 h -6 v 3 h -2 v -8 h 2 v 3 h 6 v -1 z"
         style="fill:#ff5942;fill-opacity:1;stroke-width:1;stroke-linecap:round;stroke-opacity:1"
         id="path468" />
      <text
         style="font-size:10px;font-family:sans-serif;text-anchor:start;fill:#282828"
         id="text472">
        <tspan
           x="13"
           y="14"
           id="tspan470">アクション</tspan>
      </text>
    </g>
  </g>
  <g
     transform="matrix(0.26458333,0,0,0.26458333,3.5718748,26.622845)"
     id="g494">
    <g
       transform="scale(1.5)"
       id="g492">
      <path
         d="m 0.5,8.5 v -4 a 4,4 90 0 1 4,-4 h 4 v 2 h 10 v -2 h 9 15 4 a 4,4 90 0 1 4,4 v 4 9 a 8,8 90 0 0 -8,8 8,8 90 0 0 8,8 v 4 a 4,4 90 0 1 -4,4 h -4 -15 -1 v 2 h -8 v -2 h -1 -4 a 5,5 90 0 0 -5,5 v 4 4 4 a 5,5 90 0 0 5,5 h 4 v 2 h 10 v -2 h 8 15 v 12 4 a 4,4 90 0 1 -4,4 h -4 -15 -1 v 2 h -8 v -2 h -1 -4 a 5,5 90 0 0 -5,5 v 4 4 4 a 5,5 90 0 0 5,5 h 4 v 2 h 10 v -2 h 8 v 6 6 4 a 4,4 90 0 1 -4,4 h -4 -9 -1 v 2 h -8 v -2 h -1 -4 a 4,4 90 0 1 -4,-4 v -4 z"
         style="fill:#d68136;fill-opacity:1;stroke:#b7651a;stroke-width:1;stroke-linecap:round;stroke-opacity:1"
         id="path478" />
      <text
         style="font-size:10px;font-family:sans-serif;text-anchor:start;fill:#282828"
         id="text482">
        <tspan
           x="5"
           y="19"
           id="tspan480">もし</tspan>
      </text>
      <text
         style="font-size:6.66666651px;font-family:sans-serif;text-anchor:end;fill:#282828"
         id="text486">
        <tspan
           x="46"
           y="38"
           id="tspan484">ならば</tspan>
      </text>
      <text
         style="font-size:6.66666651px;font-family:sans-serif;text-anchor:end;fill:#282828"
         id="text490">
        <tspan
           x="46"
           y="80"
           id="tspan488">でなければ</tspan>
      </text>
    </g>
  </g>
  <g
     transform="matrix(0.26458333,0,0,0.26458333,20.6375,26.622845)"
     id="g506">
    <g
       transform="scale(1.5)"
       id="g504">
      <g
         transform="translate(0,-16)"
         id="g498">
        <path
           d="m 0.5,41.5 a 7,7 90 0 1 7,-7 h 1 v -10 a 8,8 90 0 1 8,-8 h 34 v 8 h -4 v -3 h -4 v 10 h 4 v -3 h 4 v 17 h -4 v -3 h -4 v 10 h 4 v -3 h 4 v 8 h -30 -12 v -8 -1 h -1 a 7,7 90 0 1 -7,-7 z"
           style="fill:#c96df3;fill-opacity:1;stroke:#b653d3;stroke-width:1;stroke-linecap:round;stroke-opacity:1"
           id="path496" />
      </g>
      <text
         style="font-size:14px;font-family:sans-serif;text-anchor:end;fill:#282828"
         id="text502">
        <tspan
           x="38"
           y="26"
           id="tspan500">=</tspan>
      </text>
    </g>
  </g>
  <g
     transform="matrix(0.26458333,0,0,0.26458333,37.703125,26.622845)"
     id="g516">
    <g
       transform="scale(1.5)"
       id="g514">
      <path
         d="m 8.5,0.5 h 86.704102 v 20 H 8.5 v -8 -1 h -6 v 3 h -2 v -8 h 2 v 3 h 6 v -1 z"
         style="fill:#ff8b2d;fill-opacity:1;stroke:#e86b0e;stroke-width:1;stroke-linecap:round;stroke-opacity:1"
         id="path508" />
      <text
         style="font-size:10px;font-family:sans-serif;text-anchor:start;fill:#282828"
         id="text512">
        <tspan
           x="13"
           y="14"
           id="tspan510">はくの かず</tspan>
      </text>
    </g>
  </g>
  <g
     transform="matrix(0.26458333,0,0,0.26458333,37.703125,34.95722)"
     id="g526">
    <g
       transform="scale(1.5)"
       id="g524">
      <path
         d="m 8.5,0.5 h 60 v 20 h -60 v -8 -1 h -6 v 3 h -2 v -8 h 2 v 3 h 6 v -1 z"
         style="fill:#ff5293;fill-opacity:1;stroke:#ff2c76;stroke-width:1;stroke-linecap:round;stroke-opacity:1"
         id="path518" />
      <text
         style="font-size:10px;font-family:sans-serif;text-anchor:start;fill:#282828"
         id="text522">
        <tspan
           x="13"
           y="14"
           id="tspan520">1</tspan>
      </text>
    </g>
  </g>
  <g
     transform="matrix(0.26458333,0,0,0.26458333,17.727088,43.291595)"
     id="g540">
    <g
       transform="scale(1.5)"
       id="g538">
      <path
         d="m -26.166667,8.5 v -4 c 0,-2.209139 1.790861,-4 4,-4 h 4 v 2 h 10.0000001 v -2 h 64.4596359 4 c 2.209139,0 4,1.790861 4,4 v 4 h -4 v -3 h -4 v 10 h 4 v -3 h 4 v 4 c 0,2.209139 -1.790861,4 -4,4 h -4 -64.4596359 -1 v 2 h -8.0000001 v -2 h -1 -4 c -2.209139,0 -4,-1.790861 -4,-4 v -4 z"
         style="fill:#728ff9;fill-opacity:1;stroke:#5370dc;stroke-width:1;stroke-linecap:round;stroke-opacity:1"
         id="path528" />
      <text
         style="font-size:10px;font-family:sans-serif;text-anchor:end;fill:#282828"
         id="text532">
        <tspan
           x="54"
           y="14"
           id="tspan530">いろを せってい</tspan>
      </text>
      <text
         style="font-size:6.66666651px;font-family:sans-serif;text-anchor:end;fill:#282828"
         id="text536">
        <tspan
           x="54"
           y="12"
           id="tspan534" />
      </text>
    </g>
  </g>
  <g
     transform="matrix(0.26458333,0,0,0.26458333,55.789024,43.291595)"
     id="g554">
    <g
       transform="scale(1.5)"
       id="g552">
      <path
         d="m -30.611114,8.5 v -4 c 0,-2.209139 1.790861,-4 4,-4 h 4 10 95.820098 4 c 2.209139,0 4,1.790861 4,4 v 4 h -4 v -3 h -4 v 10 h 4 v -3 h 4 v 4 c 0,2.209139 -1.790861,4 -4,4 h -4 -95.820098 -10 -4 c -2.209139,0 -6.12663,-3.401885 -4,-4 v -4 -1 h -6 v 3 h -2 v -8 h 2 v 3 h 6 z"
         style="fill:#ff8b2d;fill-opacity:1;stroke:#e86b0e;stroke-width:1;stroke-linecap:round;stroke-opacity:1"
         id="path542" />
      <text
         style="font-size:10px;font-family:sans-serif;text-anchor:end;fill:#282828"
         id="text546">
        <tspan
           x="81"
           y="13"
           id="tspan544">ぜんたいの はくの かず</tspan>
      </text>
      <text
         style="font-size:6.66666651px;font-family:sans-serif;text-anchor:end;fill:#282828"
         id="text550">
        <tspan
           x="81"
           y="12"
           id="tspan548" />
      </text>
    </g>
  </g>
  <g
     transform="matrix(0.26458333,0,0,0.26458333,89.01102,43.291595)"
     id="g572">
    <g
       transform="scale(1.5)"
       id="g570">
      <path
         d="m 8.5,8.5 v -4 a 4,4 90 0 1 4,-4 h 4 10 30 4 a 4,4 90 0 1 4,4 v 4 h -4 v -3 h -4 v 10 h 4 v -3 h 4 v 17 h -4 v -3 h -4 v 10 h 4 v -3 h 4 v 4 a 4,4 90 0 1 -4,4 h -4 -30 -10 -4 a 4,4 90 0 1 -4,-4 v -4 -21 -1 h -6 v 3 h -2 v -8 h 2 v 3 h 6 z"
         style="fill:#ff5293;fill-opacity:1;stroke:#ff2c76;stroke-width:1;stroke-linecap:round;stroke-opacity:1"
         id="path556" />
      <text
         style="font-size:9px;font-family:sans-serif;text-anchor:end;fill:#282828"
         id="text560">
        <tspan
           x="54"
           y="23"
           id="tspan558">➗</tspan>
      </text>
      <text
         style="font-size:6px;font-family:sans-serif;text-anchor:end;fill:#282828"
         id="text564">
        <tspan
           x="54"
           y="12"
           id="tspan562" />
      </text>
      <text
         style="font-size:6px;font-family:sans-serif;text-anchor:end;fill:#282828"
         id="text568">
        <tspan
           x="54"
           y="33"
           id="tspan566" />
      </text>
    </g>
  </g>
  <g
     transform="matrix(0.26458333,0,0,0.26458333,111.63295,43.291595)"
     id="g582">
    <g
       transform="scale(1.5)"
       id="g580">
      <path
         d="m 8.5,0.5 h 60 v 20 h -60 v -8 -1 h -6 v 3 h -2 v -8 h 2 v 3 h 6 v -1 z"
         style="fill:#ff5293;fill-opacity:1;stroke:#ff2c76;stroke-width:1;stroke-linecap:round;stroke-opacity:1"
         id="path574" />
      <text
         style="font-size:10px;font-family:sans-serif;text-anchor:start;fill:#282828"
         id="text578">
        <tspan
           x="13"
           y="14"
           id="tspan576">1</tspan>
      </text>
    </g>
  </g>
  <g
     transform="matrix(0.26458333,0,0,0.26458333,111.63295,51.62597)"
     id="g592">
    <g
       transform="scale(1.5)"
       id="g590">
      <path
         d="m 8.5,0.5 h 60 v 20 h -60 v -8 -1 h -6 v 3 h -2 v -8 h 2 v 3 h 6 v -1 z"
         style="fill:#ff5293;fill-opacity:1;stroke:#ff2c76;stroke-width:1;stroke-linecap:round;stroke-opacity:1"
         id="path584" />
      <text
         style="font-size:10px;font-family:sans-serif;text-anchor:start;fill:#282828"
         id="text588">
        <tspan
           x="13"
           y="14"
           id="tspan586">4</tspan>
      </text>
    </g>
  </g>
  <g
     transform="matrix(0.26458333,0,0,0.26458333,27.957644,59.960344)"
     id="g606">
    <g
       transform="scale(1.5)"
       id="g604">
      <path
         d="m -51.944445,8.5 v -4 c 0,-2.209139 1.790861,-4 4,-4 h 4 v 2 h 10 v -2 h 95.808703 4 c 2.209139,0 4,1.790861 4,4 v 4 h -4 v -3 h -4 v 10 h 4 v -3 h 4 v 4 c 0,2.209139 -1.790861,4 -4,4 h -4 -95.808703 -1 v 2 h -8 v -2 h -1 -4 c -2.209139,0 -6.12663,-3.401885 -4,-4 v -4 z"
         style="fill:#728ff9;fill-opacity:1;stroke:#5370dc;stroke-width:1;stroke-linecap:round;stroke-opacity:1"
         id="path594" />
      <text
         style="font-size:10px;font-family:sans-serif;text-anchor:end;fill:#282828"
         id="text598">
        <tspan
           x="60"
           y="14"
           id="tspan596">いろのこさを せってい</tspan>
      </text>
      <text
         style="font-size:6.66666651px;font-family:sans-serif;text-anchor:end;fill:#282828"
         id="text602">
        <tspan
           x="60"
           y="12"
           id="tspan600" />
      </text>
    </g>
  </g>
  <g
     transform="matrix(0.26458333,0,0,0.26458333,52.708459,59.960344)"
     id="g616">
    <g
       transform="scale(1.5)"
       id="g614">
      <path
         d="m 8.5,0.5 h 60 v 20 h -60 v -8 -1 h -6 v 3 h -2 v -8 h 2 v 3 h 6 v -1 z"
         style="fill:#ff5293;fill-opacity:1;stroke:#ff2c76;stroke-width:1;stroke-linecap:round;stroke-opacity:1"
         id="path608" />
      <text
         style="font-size:10px;font-family:sans-serif;text-anchor:start;fill:#282828"
         id="text612">
        <tspan
           x="13"
           y="14"
           id="tspan610">0</tspan>
      </text>
    </g>
  </g>
  <g
     transform="matrix(0.26458333,0,0,0.26458333,11.509376,76.629094)"
     id="g630">
    <g
       transform="scale(1.5)"
       id="g628">
      <path
         d="m -19.5,8.5 v -4 c 0,-2.209139 1.790861,-4 4,-4 h 4 v 2 h 9.9999998 v -2 h 53.3447272 4 c 2.209139,0 4,1.790861 4,4 v 4 h -4 v -3 h -4 v 10 h 4 v -3 h 4 v 4 c 0,2.209139 -1.790861,4 -4,4 h -4 -53.3447272 -1 v 2 H -10.5 v -2 h -1 -4 c -2.209139,0 -4.698591,-1.904227 -4,-4 v -4 z"
         style="fill:#728ff9;fill-opacity:1;stroke:#5370dc;stroke-width:1;stroke-linecap:round;stroke-opacity:1"
         id="path618" />
      <text
         style="font-size:10px;font-family:sans-serif;text-anchor:end;fill:#282828"
         id="text622">
        <tspan
           x="50"
           y="14"
           id="tspan620">まえへ すすむ</tspan>
      </text>
      <text
         style="font-size:6.66666651px;font-family:sans-serif;text-anchor:end;fill:#282828"
         id="text626">
        <tspan
           x="50"
           y="12"
           id="tspan624" />
      </text>
    </g>
  </g>
  <g
     transform="matrix(0.26458333,0,0,0.26458333,32.283693,76.629094)"
     id="g648">
    <g
       transform="scale(1.5)"
       id="g646">
      <path
         d="m 8.5,8.5 v -4 a 4,4 90 0 1 4,-4 h 4 10 30 4 a 4,4 90 0 1 4,4 v 4 h -4 v -3 h -4 v 10 h 4 v -3 h 4 v 17 h -4 v -3 h -4 v 10 h 4 v -3 h 4 v 4 a 4,4 90 0 1 -4,4 h -4 -30 -10 -4 a 4,4 90 0 1 -4,-4 v -4 -21 -1 h -6 v 3 h -2 v -8 h 2 v 3 h 6 z"
         style="fill:#ff5293;fill-opacity:1;stroke:#ff2c76;stroke-width:1;stroke-linecap:round;stroke-opacity:1"
         id="path632" />
      <text
         style="font-size:14px;font-family:sans-serif;text-anchor:end;fill:#282828"
         id="text636">
        <tspan
           x="54"
           y="24"
           id="tspan634">×</tspan>
      </text>
      <text
         style="font-size:9.33333302px;font-family:sans-serif;text-anchor:end;fill:#282828"
         id="text640">
        <tspan
           x="54"
           y="12"
           id="tspan638" />
      </text>
      <text
         style="font-size:9.33333302px;font-family:sans-serif;text-anchor:end;fill:#282828"
         id="text644">
        <tspan
           x="54"
           y="33"
           id="tspan642" />
      </text>
    </g>
  </g>
  <g
     transform="matrix(0.26458333,0,0,0.26458333,54.905571,76.629094)"
     id="g658">
    <g
       transform="scale(1.5)"
       id="g656">
      <path
         d="m 8.5,0.5 h 107.27051 v 20 H 8.5 v -8 -1 h -6 v 3 h -2 v -8 h 2 v 3 h 6 v -1 z"
         style="fill:#77c428;fill-opacity:1;stroke:#57ad02;stroke-width:1;stroke-linecap:round;stroke-opacity:1"
         id="path650" />
      <text
         style="font-size:10px;font-family:sans-serif;text-anchor:start;fill:#282828"
         id="text654">
        <tspan
           x="13"
           y="14"
           id="tspan652">おんていの ちがい</tspan>
      </text>
    </g>
  </g>
  <g
     transform="matrix(0.26458333,0,0,0.26458333,54.905571,84.963469)"
     id="g668">
    <g
       transform="scale(1.5)"
       id="g666">
      <path
         d="m 8.5,0.5 h 60 v 20 h -60 v -8 -1 h -6 v 3 h -2 v -8 h 2 v 3 h 6 v -1 z"
         style="fill:#ff5293;fill-opacity:1;stroke:#ff2c76;stroke-width:1;stroke-linecap:round;stroke-opacity:1"
         id="path660" />
      <text
         style="font-size:10px;font-family:sans-serif;text-anchor:start;fill:#282828"
         id="text664">
        <tspan
           x="13"
           y="14"
           id="tspan662">10</tspan>
      </text>
    </g>
  </g>
  <g
     transform="matrix(0.26458333,0,0,0.26458333,3.5718747,84.963469)"
     id="g678">
    <g
       transform="scale(1.5)"
       id="g676">
      <path
         d="m 0.5,8.5 v -4 a 4,4 90 0 1 4,-4 h 4 v 2 h 10 v -2 h 20 4 a 4,4 90 0 1 4,4 v 4 4 4 a 4,4 90 0 1 -4,4 h -4 -20 -1 v 2 h -8 v -2 h -1 -4 a 4,4 90 0 1 -4,-4 v -4 z"
         style="fill:#b0b0b0;fill-opacity:1;stroke:#a0a0a0;stroke-width:1;stroke-linecap:round;stroke-opacity:1"
         id="path670" />
      <text
         style="font-size:10px;font-family:sans-serif;text-anchor:end;fill:#282828"
         id="text674">
        <tspan
           x="36"
           y="14"
           id="tspan672">↓</tspan>
      </text>
    </g>
  </g>
  <path
     d="m 3.770313,96.671281 v -1.5875 c 0,-0.876752 0.710748,-1.5875 1.5875,-1.5875 h 1.5875 v 0.79375 h 3.968751 v -0.79375 h 33.206077 1.5875 c 0.876752,0 2.431506,1.350124 1.5875,1.5875 v 1.5875 h -1.5875 v -1.190625 h -1.5875 v 3.96875 h 1.5875 v -1.190625 h 1.5875 v 8.334379 6.74687 h -1.5875 v -1.19062 h -1.5875 v 3.96875 h 1.5875 v -1.19063 h 1.5875 v 1.5875 c 0,0.87675 -0.710748,1.5875 -1.5875,1.5875 h -1.5875 -33.206077 -0.396875 v 0.79375 H 7.342188 v -0.79375 h -0.396875 -1.5875 c -0.876752,0 -1.8647527,-0.75574 -1.5875,-1.5875 v -1.5875 -8.33437 -8.334379 z"
     style="fill:#728ff9;fill-opacity:1;stroke:#5370dc;stroke-width:0.39687499;stroke-linecap:round;stroke-opacity:1"
     id="path680" />
  <text
     style="font-size:3.96875px;font-family:sans-serif;text-anchor:end;fill:#282828"
     id="text684"
     x="22.445488"
     y="93.297844">
    <tspan
       x="43.082996"
       y="107.18847"
       id="tspan682">カンバスを うごかす</tspan>
  </text>
  <text
     style="font-size:2.64583325px;font-family:sans-serif;text-anchor:end;fill:#282828"
     id="text688"
     x="22.445488"
     y="93.297844">
    <tspan
       x="43.082996"
       y="98.060341"
       id="tspan686">よこいどう</tspan>
  </text>
  <text
     style="font-size:2.64583325px;font-family:sans-serif;text-anchor:end;fill:#282828"
     id="text692"
     x="22.445488"
     y="93.297844">
    <tspan
       x="43.082996"
       y="114.7291"
       id="tspan690">たていどう</tspan>
  </text>
  <g
     transform="matrix(0.26458333,0,0,0.26458333,44.318578,93.297844)"
     id="g714">
    <g
       transform="scale(1.5)"
       id="g712">
      <path
         d="m 8.5,8.5 v -4 a 4,4 90 0 1 4,-4 h 4 10 30 4 a 4,4 90 0 1 4,4 v 4 h -4 v -3 h -4 v 10 h 4 v -3 h 4 v 17 h -4 v -3 h -4 v 10 h 4 v -3 h 4 v 4 a 4,4 90 0 1 -4,4 h -4 -30 -10 -4 a 4,4 90 0 1 -4,-4 v -4 -21 -1 h -6 v 3 h -2 v -8 h 2 v 3 h 6 z"
         style="fill:#ff5293;fill-opacity:1;stroke:#ff2c76;stroke-width:1;stroke-linecap:round;stroke-opacity:1"
         id="path698" />
      <text
         style="font-size:14px;font-family:sans-serif;text-anchor:end;fill:#282828"
         id="text702">
        <tspan
           x="54"
           y="24"
           id="tspan700">×</tspan>
      </text>
      <text
         style="font-size:9.33333302px;font-family:sans-serif;text-anchor:end;fill:#282828"
         id="text706">
        <tspan
           x="54"
           y="12"
           id="tspan704" />
      </text>
      <text
         style="font-size:9.33333302px;font-family:sans-serif;text-anchor:end;fill:#282828"
         id="text710">
        <tspan
           x="54"
           y="33"
           id="tspan708" />
      </text>
    </g>
  </g>
  <g
     transform="matrix(0.26458333,0,0,0.26458333,66.940447,93.297844)"
     id="g724">
    <g
       transform="scale(1.5)"
       id="g722">
      <path
         d="m 8.5,0.5 h 86.147461 v 20 H 8.5 v -8 -1 h -6 v 3 h -2 v -8 h 2 v 3 h 6 v -1 z"
         style="fill:#ff8b2d;fill-opacity:1;stroke:#e86b0e;stroke-width:1;stroke-linecap:round;stroke-opacity:1"
         id="path716" />
      <text
         style="font-size:10px;font-family:sans-serif;text-anchor:start;fill:#282828"
         id="text720">
        <tspan
           x="13"
           y="14"
           id="tspan718">おとの ながさ</tspan>
      </text>
    </g>
  </g>
  <g
     transform="matrix(0.26458333,0,0,0.26458333,66.940447,101.63222)"
     id="g734">
    <g
       transform="scale(1.5)"
       id="g732">
      <path
         d="m 8.5,0.5 h 60 v 20 h -60 v -8 -1 h -6 v 3 h -2 v -8 h 2 v 3 h 6 v -1 z"
         style="fill:#ff5293;fill-opacity:1;stroke:#ff2c76;stroke-width:1;stroke-linecap:round;stroke-opacity:1"
         id="path726" />
      <text
         style="font-size:10px;font-family:sans-serif;text-anchor:start;fill:#282828"
         id="text730">
        <tspan
           x="13"
           y="14"
           id="tspan728">-25</tspan>
      </text>
    </g>
  </g>
  <g
     transform="matrix(0.26458333,0,0,0.26458333,44.318578,109.96659)"
     id="g744">
    <g
       transform="scale(1.5)"
       id="g742">
      <path
         d="m 8.5,0.5 h 60 v 20 h -60 v -8 -1 h -6 v 3 h -2 v -8 h 2 v 3 h 6 v -1 z"
         style="fill:#ff5293;fill-opacity:1;stroke:#ff2c76;stroke-width:1;stroke-linecap:round;stroke-opacity:1"
         id="path736" />
      <text
         style="font-size:10px;font-family:sans-serif;text-anchor:start;fill:#282828"
         id="text740">
        <tspan
           x="13"
           y="14"
           id="tspan738">0</tspan>
      </text>
    </g>
  </g>
  <g
     transform="matrix(0.26458333,0,0,0.26458333,-229.92291,-19.314583)"
     id="g10916">
    <g
       id="g1108"
       transform="translate(869,73)">
      <g
         id="g1106"
         transform="scale(1.5)">
        <path
           id="path1096"
           style="fill:#ff8b2d;fill-opacity:1;stroke:#e86b0e;stroke-width:1;stroke-linecap:round;stroke-opacity:1"
           d="m 0.5,8.5 v -4 a 4,4 90 0 1 4,-4 h 4 v 2 h 10 v -2 h 74.49707 4 a 4,4 90 0 1 4,4 v 4 h -4 v -3 h -4 v 10 h 4 v -3 h 4 v 4 a 4,4 90 0 1 -4,4 h -4 H 18.5 h -1 v 2 h -8 v -2 h -1 -4 a 4,4 90 0 1 -4,-4 v -4 z" />
        <text
           id="text1100"
           style="font-size:10px;font-family:sans-serif;text-anchor:end;fill:#282828">
          <tspan
             id="tspan1098"
             y="14"
             x="91">全ての音符に～する</tspan>
        </text>
        <text
           id="text1104"
           style="font-size:6.66666651px;font-family:sans-serif;text-anchor:end;fill:#282828">
          <tspan
             id="tspan1102"
             y="12"
             x="91" />
        </text>
      </g>
    </g>
    <g
       id="g1118"
       transform="translate(1009.2456,73)">
      <g
         id="g1116"
         transform="scale(1.5)">
        <path
           id="path1110"
           style="fill:#ff5942;fill-opacity:1;stroke-width:1;stroke-linecap:round;stroke-opacity:1"
           d="m 8.5,0.5 h 90 v 20 h -90 v -8 -1 h -6 v 3 h -2 v -8 h 2 v 3 h 6 v -1 z" />
        <text
           id="text1114"
           style="font-size:10px;font-family:sans-serif;text-anchor:start;fill:#282828">
          <tspan
             id="tspan1112"
             y="14"
             x="13">アクション</tspan>
        </text>
      </g>
    </g>
  </g>
</svg>
