<?xml version="1.0" encoding="UTF-8" standalone="no"?>
<svg
   xmlns:dc="http://purl.org/dc/elements/1.1/"
   xmlns:cc="http://creativecommons.org/ns#"
   xmlns:rdf="http://www.w3.org/1999/02/22-rdf-syntax-ns#"
   xmlns:svg="http://www.w3.org/2000/svg"
   xmlns="http://www.w3.org/2000/svg"
   width="89.042824mm"
   height="180.00743mm"
   viewBox="0 0 89.042824 180.00743"
   version="1.1"
   id="svg11666">
  <defs
     id="defs11660" />
  <metadata
     id="metadata11663">
    <rdf:RDF>
      <cc:Work
         rdf:about="">
        <dc:format>image/svg+xml</dc:format>
        <dc:type
           rdf:resource="http://purl.org/dc/dcmitype/StillImage" />
        <dc:title></dc:title>
      </cc:Work>
    </rdf:RDF>
  </metadata>
  <g
     transform="matrix(0.26458333,0,0,0.26458333,-321.99791,-433.54846)"
     id="g3953">
    <g
       id="g3933"
       transform="translate(1217,1639.0299)">
      <g
         id="g3931"
         transform="scale(1.5,1.5)">
        <path
           id="path3925"
           style="fill:#77c428;fill-opacity:1;stroke:#57ad02;stroke-width:1;stroke-linecap:round;stroke-opacity:1"
           d="m 0.5,14.5 0,-4 c 0,-2.209139 1.790861,-4 4,-4 l 4,0 5,-6 5,6 9,0 94.90028,0 4,0 c 2.20914,0 6.12663,3.4018854 4,4 l 0,4 0,4 0,4 c 0,2.209139 -1.79086,4 -4,4 l -4,0 -94.90028,0 -1,0 0,2 -8,0 0,-2 -1,0 -4,0 c -2.761424,0 -5,2.238576 -5,5 l 0,4 0,4 0,378 0,4 c 0,2.76142 2.238576,5 5,5 l 4,0 0,2 10,0 0,-2 8,0 0,6 0,6 0,4 c 0,2.20914 -1.790861,4 -4,4 l -4,0 -9,0 -5,6 -5,-6 -4,0 c -2.209139,0 -4,-1.79086 -4,-4 l 0,-4 z" />
        <text
           id="text3929"
           style="font-size:10px;font-family:sans-serif;text-anchor:start;fill:#282828">
          <tspan
             id="tspan3927"
             y="22"
             x="20">ピッチ・じこく ぎょうれつ</tspan>
        </text>
      </g>
    </g>
    <g
       id="g3951"
       transform="matrix(0.5,0,0,0.5,1217,1651.0299)">
      <g
         id="g3949"
         style="isolation:isolate">
        <g
           data-name="レイヤー 2"
           id="g3947">
          <g
             id="g3945">
            <rect
               y="0"
               x="0"
               id="rect3935"
               style="opacity:0.4;mix-blend-mode:multiply;fill:#292929"
               ry="5"
               rx="5"
               height="42"
               width="42" />
            <path
               id="path3937"
               style="fill:#ffffff"
               d="m 30.56,29.8 -4.17,-4.16 2.26,0 a 1.035,1.035 0 1 0 0,-2.07 l -4.71,0 a 1.08,1.08 0 0 0 -1.11,1 l 0,0 c 0,0 0,0 0,0.06 l 0,4.64 0,0 a 1.04,1.04 0 1 0 2.08,0 l 0,-2.19 4.19,4.19 a 1,1 0 0 0 1.46,0 1,1 0 0 0 0,-1.47 z" />
            <path
               id="path3939"
               style="fill:#ffffff"
               d="m 19.17,24.6 a 1.08,1.08 0 0 0 -1.11,-1 l -4.71,0 a 1.035,1.035 0 1 0 0,2.07 l 2.25,0 -4.16,4.13 a 1.039447,1.039447 0 0 0 1.47,1.47 l 4.18,-4.19 0,2.26 a 1.04,1.04 0 1 0 2.08,0 l 0,-4.64 c 0,0 0,0 0,-0.06 a 0.08,0.08 0 0 1 0,-0.04 z" />
            <path
               id="path3941"
               style="fill:#ffffff"
               d="m 23.94,20.5 4.7,0 a 1.04,1.04 0 1 0 0,-2.08 l -2.25,0 4.17,-4.16 a 1,1 0 0 0 0,-1.47 1,1 0 0 0 -1.46,0 l -4.19,4.21 0,-2.28 a 1.04,1.04 0 1 0 -2.08,0 l 0,4.64 a 0.43,0.43 0 0 0 0,0.05 l 0,0.05 a 1.09,1.09 0 0 0 1.11,1.04 z" />
            <path
               id="path3943"
               style="fill:#ffffff"
               d="m 18.13,13.62 a 1.08,1.08 0 0 0 -1,1.09 l 0,2.29 -4.18,-4.19 a 1,1 0 0 0 -1.47,0 1,1 0 0 0 0,1.46 l 4.16,4.17 -2.29,0 a 1.04,1.04 0 1 0 0,2.08 l 4.71,0 a 1.09,1.09 0 0 0 1.11,-1 c 0,0 0,0 0,-0.06 l 0,-4.75 a 1.07,1.07 0 0 0 -1.04,-1.09 z" />
          </g>
        </g>
      </g>
    </g>
  </g>
  <g
     id="g3971"
     transform="matrix(0.26458333,0,0,0.26458333,3.571875,10.827157)">
    <g
       id="g3969"
       transform="scale(1.5,1.5)">
      <path
         id="path3955"
         style="fill:#77c428;fill-opacity:1;stroke:#57ad02;stroke-width:1;stroke-linecap:round;stroke-opacity:1"
         d="m 0.5,8.5 0,-4 a 4,4 90 0 1 4,-4 l 4,0 0,2 10,0 0,-2 30,0 4,0 a 4,4 90 0 1 4,4 l 0,4 -4,0 0,-3 -4,0 0,10 4,0 0,-3 4,0 0,17 -4,0 0,-3 -4,0 0,10 4,0 0,-3 4,0 0,4 a 4,4 90 0 1 -4,4 l -4,0 -30,0 -1,0 0,2 -8,0 0,-2 -1,0 -4,0 a 4,4 90 0 1 -4,-4 l 0,-4 0,-21 z" />
      <text
         id="text3959"
         style="font-size:10px;font-family:sans-serif;text-anchor:end;fill:#282828">
        <tspan
           id="tspan3957"
           y="24"
           x="46">ピッチ</tspan>
      </text>
      <text
         id="text3963"
         style="font-size:6.66666651px;font-family:sans-serif;text-anchor:end;fill:#282828">
        <tspan
           id="tspan3961"
           y="12"
           x="46">なまえ</tspan>
      </text>
      <text
         id="text3967"
         style="font-size:6.66666651px;font-family:sans-serif;text-anchor:end;fill:#282828">
        <tspan
           id="tspan3965"
           y="33"
           x="46">オクターヴ</tspan>
      </text>
    </g>
  </g>
  <g
     id="g3981"
     transform="matrix(0.26458333,0,0,0.26458333,23.018749,10.827157)">
    <g
       id="g3979"
       transform="scale(1.5,1.5)">
      <path
         id="path3973"
         style="fill:#77c428;fill-opacity:1;stroke:#57ad02;stroke-width:1;stroke-linecap:round;stroke-opacity:1"
         d="m 8.5,0.5 60,0 0,20 -60,0 0,-8 0,-1 -6,0 0,3 -2,0 0,-8 2,0 0,3 6,0 0,-1 z" />
      <text
         id="text3977"
         style="font-size:10px;font-family:sans-serif;text-anchor:start;fill:#282828">
        <tspan
           id="tspan3975"
           y="14"
           x="13">シ</tspan>
      </text>
    </g>
  </g>
  <g
     id="g3991"
     transform="matrix(0.26458333,0,0,0.26458333,23.018749,19.161532)">
    <g
       id="g3989"
       transform="scale(1.5,1.5)">
      <path
         id="path3983"
         style="fill:#ff5293;fill-opacity:1;stroke:#ff2c76;stroke-width:1;stroke-linecap:round;stroke-opacity:1"
         d="m 8.5,0.5 60,0 0,20 -60,0 0,-8 0,-1 -6,0 0,3 -2,0 0,-8 2,0 0,3 6,0 0,-1 z" />
      <text
         id="text3987"
         style="font-size:10px;font-family:sans-serif;text-anchor:start;fill:#282828">
        <tspan
           id="tspan3985"
           y="14"
           x="13">4</tspan>
      </text>
    </g>
  </g>
  <g
     id="g4009"
     transform="matrix(0.26458333,0,0,0.26458333,3.571875,27.495907)">
    <g
       id="g4007"
       transform="scale(1.5,1.5)">
      <path
         id="path3993"
         style="fill:#77c428;fill-opacity:1;stroke:#57ad02;stroke-width:1;stroke-linecap:round;stroke-opacity:1"
         d="m 0.5,8.5 0,-4 a 4,4 90 0 1 4,-4 l 4,0 0,2 10,0 0,-2 30,0 4,0 a 4,4 90 0 1 4,4 l 0,4 -4,0 0,-3 -4,0 0,10 4,0 0,-3 4,0 0,17 -4,0 0,-3 -4,0 0,10 4,0 0,-3 4,0 0,4 a 4,4 90 0 1 -4,4 l -4,0 -30,0 -1,0 0,2 -8,0 0,-2 -1,0 -4,0 a 4,4 90 0 1 -4,-4 l 0,-4 0,-21 z" />
      <text
         id="text3997"
         style="font-size:10px;font-family:sans-serif;text-anchor:end;fill:#282828">
        <tspan
           id="tspan3995"
           y="24"
           x="46">ピッチ</tspan>
      </text>
      <text
         id="text4001"
         style="font-size:6.66666651px;font-family:sans-serif;text-anchor:end;fill:#282828">
        <tspan
           id="tspan3999"
           y="12"
           x="46">なまえ</tspan>
      </text>
      <text
         id="text4005"
         style="font-size:6.66666651px;font-family:sans-serif;text-anchor:end;fill:#282828">
        <tspan
           id="tspan4003"
           y="33"
           x="46">オクターヴ</tspan>
      </text>
    </g>
  </g>
  <g
     id="g4019"
     transform="matrix(0.26458333,0,0,0.26458333,23.018749,27.495907)">
    <g
       id="g4017"
       transform="scale(1.5,1.5)">
      <path
         id="path4011"
         style="fill:#77c428;fill-opacity:1;stroke:#57ad02;stroke-width:1;stroke-linecap:round;stroke-opacity:1"
         d="m 8.5,0.5 60,0 0,20 -60,0 0,-8 0,-1 -6,0 0,3 -2,0 0,-8 2,0 0,3 6,0 0,-1 z" />
      <text
         id="text4015"
         style="font-size:10px;font-family:sans-serif;text-anchor:start;fill:#282828">
        <tspan
           id="tspan4013"
           y="14"
           x="13">ラ</tspan>
      </text>
    </g>
  </g>
  <g
     id="g4029"
     transform="matrix(0.26458333,0,0,0.26458333,23.018749,35.830281)">
    <g
       id="g4027"
       transform="scale(1.5,1.5)">
      <path
         id="path4021"
         style="fill:#ff5293;fill-opacity:1;stroke:#ff2c76;stroke-width:1;stroke-linecap:round;stroke-opacity:1"
         d="m 8.5,0.5 60,0 0,20 -60,0 0,-8 0,-1 -6,0 0,3 -2,0 0,-8 2,0 0,3 6,0 0,-1 z" />
      <text
         id="text4025"
         style="font-size:10px;font-family:sans-serif;text-anchor:start;fill:#282828">
        <tspan
           id="tspan4023"
           y="14"
           x="13">4</tspan>
      </text>
    </g>
  </g>
  <g
     id="g4047"
     transform="matrix(0.26458333,0,0,0.26458333,3.571875,44.164656)">
    <g
       id="g4045"
       transform="scale(1.5,1.5)">
      <path
         id="path4031"
         style="fill:#77c428;fill-opacity:1;stroke:#57ad02;stroke-width:1;stroke-linecap:round;stroke-opacity:1"
         d="m 0.5,8.5 0,-4 a 4,4 90 0 1 4,-4 l 4,0 0,2 10,0 0,-2 30,0 4,0 a 4,4 90 0 1 4,4 l 0,4 -4,0 0,-3 -4,0 0,10 4,0 0,-3 4,0 0,17 -4,0 0,-3 -4,0 0,10 4,0 0,-3 4,0 0,4 a 4,4 90 0 1 -4,4 l -4,0 -30,0 -1,0 0,2 -8,0 0,-2 -1,0 -4,0 a 4,4 90 0 1 -4,-4 l 0,-4 0,-21 z" />
      <text
         id="text4035"
         style="font-size:10px;font-family:sans-serif;text-anchor:end;fill:#282828">
        <tspan
           id="tspan4033"
           y="24"
           x="46">ピッチ</tspan>
      </text>
      <text
         id="text4039"
         style="font-size:6.66666651px;font-family:sans-serif;text-anchor:end;fill:#282828">
        <tspan
           id="tspan4037"
           y="12"
           x="46">なまえ</tspan>
      </text>
      <text
         id="text4043"
         style="font-size:6.66666651px;font-family:sans-serif;text-anchor:end;fill:#282828">
        <tspan
           id="tspan4041"
           y="33"
           x="46">オクターヴ</tspan>
      </text>
    </g>
  </g>
  <g
     id="g4057"
     transform="matrix(0.26458333,0,0,0.26458333,23.018749,44.164656)">
    <g
       id="g4055"
       transform="scale(1.5,1.5)">
      <path
         id="path4049"
         style="fill:#77c428;fill-opacity:1;stroke:#57ad02;stroke-width:1;stroke-linecap:round;stroke-opacity:1"
         d="m 8.5,0.5 60,0 0,20 -60,0 0,-8 0,-1 -6,0 0,3 -2,0 0,-8 2,0 0,3 6,0 0,-1 z" />
      <text
         id="text4053"
         style="font-size:10px;font-family:sans-serif;text-anchor:start;fill:#282828">
        <tspan
           id="tspan4051"
           y="14"
           x="13">ソ</tspan>
      </text>
    </g>
  </g>
  <g
     id="g4067"
     transform="matrix(0.26458333,0,0,0.26458333,23.018749,52.499031)">
    <g
       id="g4065"
       transform="scale(1.5,1.5)">
      <path
         id="path4059"
         style="fill:#ff5293;fill-opacity:1;stroke:#ff2c76;stroke-width:1;stroke-linecap:round;stroke-opacity:1"
         d="m 8.5,0.5 60,0 0,20 -60,0 0,-8 0,-1 -6,0 0,3 -2,0 0,-8 2,0 0,3 6,0 0,-1 z" />
      <text
         id="text4063"
         style="font-size:10px;font-family:sans-serif;text-anchor:start;fill:#282828">
        <tspan
           id="tspan4061"
           y="14"
           x="13">4</tspan>
      </text>
    </g>
  </g>
  <g
     id="g4085"
     transform="matrix(0.26458333,0,0,0.26458333,3.571875,60.833406)">
    <g
       id="g4083"
       transform="scale(1.5,1.5)">
      <path
         id="path4069"
         style="fill:#77c428;fill-opacity:1;stroke:#57ad02;stroke-width:1;stroke-linecap:round;stroke-opacity:1"
         d="m 0.5,8.5 0,-4 a 4,4 90 0 1 4,-4 l 4,0 0,2 10,0 0,-2 30,0 4,0 a 4,4 90 0 1 4,4 l 0,4 -4,0 0,-3 -4,0 0,10 4,0 0,-3 4,0 0,17 -4,0 0,-3 -4,0 0,10 4,0 0,-3 4,0 0,4 a 4,4 90 0 1 -4,4 l -4,0 -30,0 -1,0 0,2 -8,0 0,-2 -1,0 -4,0 a 4,4 90 0 1 -4,-4 l 0,-4 0,-21 z" />
      <text
         id="text4073"
         style="font-size:10px;font-family:sans-serif;text-anchor:end;fill:#282828">
        <tspan
           id="tspan4071"
           y="24"
           x="46">ピッチ</tspan>
      </text>
      <text
         id="text4077"
         style="font-size:6.66666651px;font-family:sans-serif;text-anchor:end;fill:#282828">
        <tspan
           id="tspan4075"
           y="12"
           x="46">なまえ</tspan>
      </text>
      <text
         id="text4081"
         style="font-size:6.66666651px;font-family:sans-serif;text-anchor:end;fill:#282828">
        <tspan
           id="tspan4079"
           y="33"
           x="46">オクターヴ</tspan>
      </text>
    </g>
  </g>
  <g
     id="g4095"
     transform="matrix(0.26458333,0,0,0.26458333,23.018749,60.833406)">
    <g
       id="g4093"
       transform="scale(1.5,1.5)">
      <path
         id="path4087"
         style="fill:#77c428;fill-opacity:1;stroke:#57ad02;stroke-width:1;stroke-linecap:round;stroke-opacity:1"
         d="m 8.5,0.5 60,0 0,20 -60,0 0,-8 0,-1 -6,0 0,3 -2,0 0,-8 2,0 0,3 6,0 0,-1 z" />
      <text
         id="text4091"
         style="font-size:10px;font-family:sans-serif;text-anchor:start;fill:#282828">
        <tspan
           id="tspan4089"
           y="14"
           x="13">ミ</tspan>
      </text>
    </g>
  </g>
  <g
     id="g4105"
     transform="matrix(0.26458333,0,0,0.26458333,23.018749,69.167781)">
    <g
       id="g4103"
       transform="scale(1.5,1.5)">
      <path
         id="path4097"
         style="fill:#ff5293;fill-opacity:1;stroke:#ff2c76;stroke-width:1;stroke-linecap:round;stroke-opacity:1"
         d="m 8.5,0.5 60,0 0,20 -60,0 0,-8 0,-1 -6,0 0,3 -2,0 0,-8 2,0 0,3 6,0 0,-1 z" />
      <text
         id="text4101"
         style="font-size:10px;font-family:sans-serif;text-anchor:start;fill:#282828">
        <tspan
           id="tspan4099"
           y="14"
           x="13">4</tspan>
      </text>
    </g>
  </g>
  <g
     id="g4123"
     transform="matrix(0.26458333,0,0,0.26458333,3.571875,77.502156)">
    <g
       id="g4121"
       transform="scale(1.5,1.5)">
      <path
         id="path4107"
         style="fill:#77c428;fill-opacity:1;stroke:#57ad02;stroke-width:1;stroke-linecap:round;stroke-opacity:1"
         d="m 0.5,8.5 0,-4 a 4,4 90 0 1 4,-4 l 4,0 0,2 10,0 0,-2 30,0 4,0 a 4,4 90 0 1 4,4 l 0,4 -4,0 0,-3 -4,0 0,10 4,0 0,-3 4,0 0,17 -4,0 0,-3 -4,0 0,10 4,0 0,-3 4,0 0,4 a 4,4 90 0 1 -4,4 l -4,0 -30,0 -1,0 0,2 -8,0 0,-2 -1,0 -4,0 a 4,4 90 0 1 -4,-4 l 0,-4 0,-21 z" />
      <text
         id="text4111"
         style="font-size:10px;font-family:sans-serif;text-anchor:end;fill:#282828">
        <tspan
           id="tspan4109"
           y="24"
           x="46">ピッチ</tspan>
      </text>
      <text
         id="text4115"
         style="font-size:6.66666651px;font-family:sans-serif;text-anchor:end;fill:#282828">
        <tspan
           id="tspan4113"
           y="12"
           x="46">なまえ</tspan>
      </text>
      <text
         id="text4119"
         style="font-size:6.66666651px;font-family:sans-serif;text-anchor:end;fill:#282828">
        <tspan
           id="tspan4117"
           y="33"
           x="46">オクターヴ</tspan>
      </text>
    </g>
  </g>
  <g
     id="g4133"
     transform="matrix(0.26458333,0,0,0.26458333,23.018749,77.502156)">
    <g
       id="g4131"
       transform="scale(1.5,1.5)">
      <path
         id="path4125"
         style="fill:#77c428;fill-opacity:1;stroke:#57ad02;stroke-width:1;stroke-linecap:round;stroke-opacity:1"
         d="m 8.5,0.5 60,0 0,20 -60,0 0,-8 0,-1 -6,0 0,3 -2,0 0,-8 2,0 0,3 6,0 0,-1 z" />
      <text
         id="text4129"
         style="font-size:10px;font-family:sans-serif;text-anchor:start;fill:#282828">
        <tspan
           id="tspan4127"
           y="14"
           x="13">レ</tspan>
      </text>
    </g>
  </g>
  <g
     id="g4143"
     transform="matrix(0.26458333,0,0,0.26458333,23.018749,85.836531)">
    <g
       id="g4141"
       transform="scale(1.5,1.5)">
      <path
         id="path4135"
         style="fill:#ff5293;fill-opacity:1;stroke:#ff2c76;stroke-width:1;stroke-linecap:round;stroke-opacity:1"
         d="m 8.5,0.5 60,0 0,20 -60,0 0,-8 0,-1 -6,0 0,3 -2,0 0,-8 2,0 0,3 6,0 0,-1 z" />
      <text
         id="text4139"
         style="font-size:10px;font-family:sans-serif;text-anchor:start;fill:#282828">
        <tspan
           id="tspan4137"
           y="14"
           x="13">4</tspan>
      </text>
    </g>
  </g>
  <g
     id="g4157"
     transform="matrix(0.26458333,0,0,0.26458333,3.571875,94.170906)">
    <g
       id="g4155"
       transform="scale(1.5,1.5)">
      <path
         id="path4145"
         style="fill:#25c3c0;fill-opacity:1;stroke:#1dbcbd;stroke-width:1;stroke-linecap:round;stroke-opacity:1"
         d="m 0.5,8.5 0,-4 a 4,4 90 0 1 4,-4 l 4,0 0,2 10,0 0,-2 30,0 4,0 a 4,4 90 0 1 4,4 l 0,4 -4,0 0,-3 -4,0 0,10 4,0 0,-3 4,0 0,4 a 4,4 90 0 1 -4,4 l -4,0 -30,0 -1,0 0,2 -8,0 0,-2 -1,0 -4,0 a 4,4 90 0 1 -4,-4 l 0,-4 z" />
      <text
         id="text4149"
         style="font-size:10px;font-family:sans-serif;text-anchor:end;fill:#282828">
        <tspan
           id="tspan4147"
           y="14"
           x="46">ドラム</tspan>
      </text>
      <text
         id="text4153"
         style="font-size:6.66666651px;font-family:sans-serif;text-anchor:end;fill:#282828">
        <tspan
           id="tspan4151"
           y="12"
           x="46" />
      </text>
    </g>
  </g>
  <g
     id="g4167"
     transform="matrix(0.26458333,0,0,0.26458333,23.018749,94.170906)">
    <g
       id="g4165"
       transform="scale(1.5,1.5)">
      <path
         id="path4159"
         style="fill:#25c3c0;fill-opacity:1;stroke:#1dbcbd;stroke-width:1;stroke-linecap:round;stroke-opacity:1"
         d="m 8.5,0.5 110,0 0,20 -110,0 0,-8 0,-1 -6,0 0,3 -2,0 0,-8 2,0 0,3 6,0 0,-1 z" />
      <text
         id="text4163"
         style="font-size:10px;font-family:sans-serif;text-anchor:start;fill:#282828">
        <tspan
           id="tspan4161"
           y="14"
           x="13">スネア ドラム</tspan>
      </text>
    </g>
  </g>
  <g
     id="g4181"
     transform="matrix(0.26458333,0,0,0.26458333,9.2163199,102.50528)">
    <g
       id="g4179"
       transform="scale(1.5,1.5)">
      <path
         id="path4169"
         style="fill:#728ff9;fill-opacity:1;stroke:#5370dc;stroke-width:1;stroke-linecap:round;stroke-opacity:1"
         d="m -13.722223,8.5 0,-4 c 0,-2.209139 1.790861,-4 3.9999996,-4 l 4,0 0,2 10,0 0,-2 47.5669504,0 4,0 c 2.209139,0 4,1.790861 4,4 l 0,4 -4,0 0,-3 -4,0 0,10 4,0 0,-3 4,0 0,4 c 0,2.209139 -1.790861,4 -4,4 l -4,0 -47.5669504,0 -1,0 0,2 -8,0 0,-2 -1,0 -4,0 c -2.2091386,0 -6.1266296,-3.401885 -3.9999996,-4 l 0,-4 z" />
      <text
         id="text4173"
         style="font-size:10px;font-family:sans-serif;text-anchor:end;fill:#282828">
        <tspan
           id="tspan4171"
           y="14"
           x="50">まえへ すすむ</tspan>
      </text>
      <text
         id="text4177"
         style="font-size:6.66666651px;font-family:sans-serif;text-anchor:end;fill:#282828">
        <tspan
           id="tspan4175"
           y="12"
           x="50" />
      </text>
    </g>
  </g>
  <g
     id="g4191"
     transform="matrix(0.26458333,0,0,0.26458333,29.990635,102.50528)">
    <g
       id="g4189"
       transform="scale(1.5,1.5)">
      <path
         id="path4183"
         style="fill:#ff5293;fill-opacity:1;stroke:#ff2c76;stroke-width:1;stroke-linecap:round;stroke-opacity:1"
         d="m 8.5,0.5 60,0 0,20 -60,0 0,-8 0,-1 -6,0 0,3 -2,0 0,-8 2,0 0,3 6,0 0,-1 z" />
      <text
         id="text4187"
         style="font-size:10px;font-family:sans-serif;text-anchor:start;fill:#282828">
        <tspan
           id="tspan4185"
           y="14"
           x="13">ひゃく</tspan>
      </text>
    </g>
  </g>
  <g
     id="g4205"
     transform="matrix(0.26458333,0,0,0.26458333,9.2163199,110.83965)">
    <g
       id="g4203"
       transform="scale(1.5,1.5)">
      <path
         id="path4193"
         style="fill:#728ff9;fill-opacity:1;stroke:#5370dc;stroke-width:1;stroke-linecap:round;stroke-opacity:1"
         d="m -13.722223,8.5 0,-4 c 0,-2.209139 1.790861,-4 3.9999996,-4 l 4,0 0,2 10,0 0,-2 44.2222234,0 4,0 c 2.209139,0 4,1.790861 4,4 l 0,4 -4,0 0,-3 -4,0 0,10 4,0 0,-3 4,0 0,4 c 0,2.209139 -1.790861,4 -4,4 l -4,0 -44.2222234,0 -1,0 0,2 -8,0 0,-2 -1,0 -4,0 c -2.2091386,0 -6.1266296,-3.401885 -3.9999996,-4 l 0,-4 z" />
      <text
         id="text4197"
         style="font-size:10px;font-family:sans-serif;text-anchor:end;fill:#282828">
        <tspan
           id="tspan4195"
           y="14"
           x="46">みぎに まがる</tspan>
      </text>
      <text
         id="text4201"
         style="font-size:6.66666651px;font-family:sans-serif;text-anchor:end;fill:#282828">
        <tspan
           id="tspan4199"
           y="12"
           x="46" />
      </text>
    </g>
  </g>
  <g
     id="g4215"
     transform="matrix(0.26458333,0,0,0.26458333,28.663194,110.83965)">
    <g
       id="g4213"
       transform="scale(1.5,1.5)">
      <path
         id="path4207"
         style="fill:#ff5293;fill-opacity:1;stroke:#ff2c76;stroke-width:1;stroke-linecap:round;stroke-opacity:1"
         d="m 8.5,0.5 60,0 0,20 -60,0 0,-8 0,-1 -6,0 0,3 -2,0 0,-8 2,0 0,3 6,0 0,-1 z" />
      <text
         id="text4211"
         style="font-size:10px;font-family:sans-serif;text-anchor:start;fill:#282828">
        <tspan
           id="tspan4209"
           y="14"
           x="13">90</tspan>
      </text>
    </g>
  </g>
  <g
     id="g4233"
     transform="matrix(0.26458333,0,0,0.26458333,3.571875,119.17403)">
    <g
       id="g4231"
       transform="scale(1.5,1.5)">
      <path
         id="path4217"
         style="fill:#77c428;fill-opacity:1;stroke:#57ad02;stroke-width:1;stroke-linecap:round;stroke-opacity:1"
         d="m 0.5,8.5 0,-4 a 4,4 90 0 1 4,-4 l 4,0 0,2 10,0 0,-2 40.561523,0 4,0 a 4,4 90 0 1 4,4 l 0,4 -4,0 0,-3 -4,0 0,10 4,0 0,-3 4,0 0,17 -4,0 0,-3 -4,0 0,10 4,0 0,-3 4,0 0,4 a 4,4 90 0 1 -4,4 l -4,0 -40.561523,0 -1,0 0,2 -8,0 0,-2 -1,0 -4,0 a 4,4 90 0 1 -4,-4 l 0,-4 0,-21 z" />
      <text
         id="text4221"
         style="font-size:10px;font-family:sans-serif;text-anchor:end;fill:#282828">
        <tspan
           id="tspan4219"
           y="24"
           x="57">リズム</tspan>
      </text>
      <text
         id="text4225"
         style="font-size:6.66666651px;font-family:sans-serif;text-anchor:end;fill:#282828">
        <tspan
           id="tspan4223"
           y="12"
           x="57">おんぷの かず</tspan>
      </text>
      <text
         id="text4229"
         style="font-size:6.66666651px;font-family:sans-serif;text-anchor:end;fill:#282828">
        <tspan
           id="tspan4227"
           y="33"
           x="57">おんか</tspan>
      </text>
    </g>
  </g>
  <g
     id="g4243"
     transform="matrix(0.26458333,0,0,0.26458333,27.210358,119.17403)">
    <g
       id="g4241"
       transform="scale(1.5,1.5)">
      <path
         id="path4235"
         style="fill:#ff5293;fill-opacity:1;stroke:#ff2c76;stroke-width:1;stroke-linecap:round;stroke-opacity:1"
         d="m 8.5,0.5 60,0 0,20 -60,0 0,-8 0,-1 -6,0 0,3 -2,0 0,-8 2,0 0,3 6,0 0,-1 z" />
      <text
         id="text4239"
         style="font-size:10px;font-family:sans-serif;text-anchor:start;fill:#282828">
        <tspan
           id="tspan4237"
           y="14"
           x="13">6</tspan>
      </text>
    </g>
  </g>
  <g
     id="g4261"
     transform="matrix(0.26458333,0,0,0.26458333,27.210358,127.5084)">
    <g
       id="g4259"
       transform="scale(1.5,1.5)">
      <path
         id="path4245"
         style="fill:#ff5293;fill-opacity:1;stroke:#ff2c76;stroke-width:1;stroke-linecap:round;stroke-opacity:1"
         d="m 8.5,8.5 0,-4 a 4,4 90 0 1 4,-4 l 4,0 10,0 30,0 4,0 a 4,4 90 0 1 4,4 l 0,4 -4,0 0,-3 -4,0 0,10 4,0 0,-3 4,0 0,17 -4,0 0,-3 -4,0 0,10 4,0 0,-3 4,0 0,4 a 4,4 90 0 1 -4,4 l -4,0 -30,0 -10,0 -4,0 a 4,4 90 0 1 -4,-4 l 0,-4 0,-21 0,-1 -6,0 0,3 -2,0 0,-8 2,0 0,3 6,0 z" />
      <text
         id="text4249"
         style="font-size:9px;font-family:sans-serif;text-anchor:end;fill:#282828">
        <tspan
           id="tspan4247"
           y="23"
           x="54">➗</tspan>
      </text>
      <text
         id="text4253"
         style="font-size:6px;font-family:sans-serif;text-anchor:end;fill:#282828">
        <tspan
           id="tspan4251"
           y="12"
           x="54" />
      </text>
      <text
         id="text4257"
         style="font-size:6px;font-family:sans-serif;text-anchor:end;fill:#282828">
        <tspan
           id="tspan4255"
           y="33"
           x="54" />
      </text>
    </g>
  </g>
  <g
     id="g4271"
     transform="matrix(0.26458333,0,0,0.26458333,49.832233,127.5084)">
    <g
       id="g4269"
       transform="scale(1.5,1.5)">
      <path
         id="path4263"
         style="fill:#ff5293;fill-opacity:1;stroke:#ff2c76;stroke-width:1;stroke-linecap:round;stroke-opacity:1"
         d="m 8.5,0.5 60,0 0,20 -60,0 0,-8 0,-1 -6,0 0,3 -2,0 0,-8 2,0 0,3 6,0 0,-1 z" />
      <text
         id="text4267"
         style="font-size:10px;font-family:sans-serif;text-anchor:start;fill:#282828">
        <tspan
           id="tspan4265"
           y="14"
           x="13">1</tspan>
      </text>
    </g>
  </g>
  <g
     id="g4281"
     transform="matrix(0.26458333,0,0,0.26458333,49.832233,135.84278)">
    <g
       id="g4279"
       transform="scale(1.5,1.5)">
      <path
         id="path4273"
         style="fill:#ff5293;fill-opacity:1;stroke:#ff2c76;stroke-width:1;stroke-linecap:round;stroke-opacity:1"
         d="m 8.5,0.5 60,0 0,20 -60,0 0,-8 0,-1 -6,0 0,3 -2,0 0,-8 2,0 0,3 6,0 0,-1 z" />
      <text
         id="text4277"
         style="font-size:10px;font-family:sans-serif;text-anchor:start;fill:#282828">
        <tspan
           id="tspan4275"
           y="14"
           x="13">4</tspan>
      </text>
    </g>
  </g>
  <g
     id="g4291"
     transform="matrix(0.26458333,0,0,0.26458333,3.571875,135.84278)">
    <g
       id="g4289"
       transform="scale(1.5,1.5)">
      <path
         id="path4283"
         style="fill:#b0b0b0;fill-opacity:1;stroke:#a0a0a0;stroke-width:1;stroke-linecap:round;stroke-opacity:1"
         d="m 0.5,8.5 0,-4 a 4,4 90 0 1 4,-4 l 4,0 0,2 10,0 0,-2 20,0 4,0 a 4,4 90 0 1 4,4 l 0,4 0,4 0,4 a 4,4 90 0 1 -4,4 l -4,0 -20,0 -1,0 0,2 -8,0 0,-2 -1,0 -4,0 a 4,4 90 0 1 -4,-4 l 0,-4 z" />
      <text
         id="text4287"
         style="font-size:10px;font-family:sans-serif;text-anchor:end;fill:#282828">
        <tspan
           id="tspan4285"
           y="14"
           x="36">↓</tspan>
      </text>
    </g>
  </g>
  <g
     id="g4758"
     transform="matrix(0.26458333,0,0,0.26458333,9.2163199,144.17715)">
    <g
       id="g4756"
       transform="scale(1.5,1.5)">
      <path
         id="path4742"
         style="fill:#77c428;fill-opacity:1;stroke:#57ad02;stroke-width:1;stroke-linecap:round;stroke-opacity:1"
         d="m -13.722223,8.5 0,-4 c 0,-2.209139 1.790861,-4 3.9999996,-4 l 4,0 0,2 10,0 0,-2 70.3599184,0 4,0 c 2.209139,0 4,1.790861 4,4 l 0,4 -4,0 0,-3 -4,0 0,10 4,0 0,-3 4,0 0,17 -4,0 0,-3 -4,0 0,10 4,0 0,-3 4,0 0,4 c 0,2.209139 -1.790861,4 -4,4 l -4,0 -70.3599184,0 -1,0 0,2 -8,0 0,-2 -1,0 -4,0 c -2.2091386,0 -3.9999996,-1.790861 -3.9999996,-4 l 0,-4 0,-21 z" />
      <text
         id="text4746"
         style="font-size:10px;font-family:sans-serif;text-anchor:end;fill:#282828">
        <tspan
           id="tspan4744"
           y="24"
           x="72">シンプルな～れんぷ</tspan>
      </text>
      <text
         id="text4750"
         style="font-size:6.66666651px;font-family:sans-serif;text-anchor:end;fill:#282828">
        <tspan
           id="tspan4748"
           y="12"
           x="72">おんぷの かず</tspan>
      </text>
      <text
         id="text4754"
         style="font-size:6.66666651px;font-family:sans-serif;text-anchor:end;fill:#282828">
        <tspan
           id="tspan4752"
           y="33"
           x="72">おんか</tspan>
      </text>
    </g>
  </g>
  <g
     id="g4768"
     transform="matrix(0.26458333,0,0,0.26458333,39.036581,144.17715)">
    <g
       id="g4766"
       transform="scale(1.5,1.5)">
      <path
         id="path4760"
         style="fill:#ff5293;fill-opacity:1;stroke:#ff2c76;stroke-width:1;stroke-linecap:round;stroke-opacity:1"
         d="m 8.5,0.5 60,0 0,20 -60,0 0,-8 0,-1 -6,0 0,3 -2,0 0,-8 2,0 0,3 6,0 0,-1 z" />
      <text
         id="text4764"
         style="font-size:10px;font-family:sans-serif;text-anchor:start;fill:#282828">
        <tspan
           id="tspan4762"
           y="14"
           x="13">3</tspan>
      </text>
    </g>
  </g>
  <g
     id="g4786"
     transform="matrix(0.26458333,0,0,0.26458333,39.036581,152.51153)">
    <g
       id="g4784"
       transform="scale(1.5,1.5)">
      <path
         id="path4770"
         style="fill:#ff5293;fill-opacity:1;stroke:#ff2c76;stroke-width:1;stroke-linecap:round;stroke-opacity:1"
         d="m 8.5,8.5 0,-4 a 4,4 90 0 1 4,-4 l 4,0 10,0 30,0 4,0 a 4,4 90 0 1 4,4 l 0,4 -4,0 0,-3 -4,0 0,10 4,0 0,-3 4,0 0,17 -4,0 0,-3 -4,0 0,10 4,0 0,-3 4,0 0,4 a 4,4 90 0 1 -4,4 l -4,0 -30,0 -10,0 -4,0 a 4,4 90 0 1 -4,-4 l 0,-4 0,-21 0,-1 -6,0 0,3 -2,0 0,-8 2,0 0,3 6,0 z" />
      <text
         id="text4774"
         style="font-size:9px;font-family:sans-serif;text-anchor:end;fill:#282828">
        <tspan
           id="tspan4772"
           y="23"
           x="54">➗</tspan>
      </text>
      <text
         id="text4778"
         style="font-size:6px;font-family:sans-serif;text-anchor:end;fill:#282828">
        <tspan
           id="tspan4776"
           y="12"
           x="54" />
      </text>
      <text
         id="text4782"
         style="font-size:6px;font-family:sans-serif;text-anchor:end;fill:#282828">
        <tspan
           id="tspan4780"
           y="33"
           x="54" />
      </text>
    </g>
  </g>
  <g
     id="g4796"
     transform="matrix(0.26458333,0,0,0.26458333,61.658455,152.51153)">
    <g
       id="g4794"
       transform="scale(1.5,1.5)">
      <path
         id="path4788"
         style="fill:#ff5293;fill-opacity:1;stroke:#ff2c76;stroke-width:1;stroke-linecap:round;stroke-opacity:1"
         d="m 8.5,0.5 60,0 0,20 -60,0 0,-8 0,-1 -6,0 0,3 -2,0 0,-8 2,0 0,3 6,0 0,-1 z" />
      <text
         id="text4792"
         style="font-size:10px;font-family:sans-serif;text-anchor:start;fill:#282828">
        <tspan
           id="tspan4790"
           y="14"
           x="13">1</tspan>
      </text>
    </g>
  </g>
  <g
     id="g4806"
     transform="matrix(0.26458333,0,0,0.26458333,61.658455,160.8459)">
    <g
       id="g4804"
       transform="scale(1.5,1.5)">
      <path
         id="path4798"
         style="fill:#ff5293;fill-opacity:1;stroke:#ff2c76;stroke-width:1;stroke-linecap:round;stroke-opacity:1"
         d="m 8.5,0.5 60,0 0,20 -60,0 0,-8 0,-1 -6,0 0,3 -2,0 0,-8 2,0 0,3 6,0 0,-1 z" />
      <text
         id="text4802"
         style="font-size:10px;font-family:sans-serif;text-anchor:start;fill:#282828">
        <tspan
           id="tspan4800"
           y="14"
           x="13">2</tspan>
      </text>
    </g>
  </g>
  <g
     id="g4816"
     transform="matrix(0.26458333,0,0,0.26458333,3.571875,160.8459)">
    <g
       id="g4814"
       transform="scale(1.5,1.5)">
      <path
         id="path4808"
         style="fill:#b0b0b0;fill-opacity:1;stroke:#a0a0a0;stroke-width:1;stroke-linecap:round;stroke-opacity:1"
         d="m 0.5,8.5 0,-4 a 4,4 90 0 1 4,-4 l 4,0 0,2 10,0 0,-2 20,0 4,0 a 4,4 90 0 1 4,4 l 0,4 0,4 0,4 a 4,4 90 0 1 -4,4 l -4,0 -20,0 -1,0 0,2 -8,0 0,-2 -1,0 -4,0 a 4,4 90 0 1 -4,-4 l 0,-4 z" />
      <text
         id="text4812"
         style="font-size:10px;font-family:sans-serif;text-anchor:end;fill:#282828">
        <tspan
           id="tspan4810"
           y="14"
           x="36">↓</tspan>
      </text>
    </g>
  </g>
</svg>
