<?xml version="1.0" encoding="UTF-8" standalone="no"?>
<svg
   xmlns:dc="http://purl.org/dc/elements/1.1/"
   xmlns:cc="http://creativecommons.org/ns#"
   xmlns:rdf="http://www.w3.org/1999/02/22-rdf-syntax-ns#"
   xmlns:svg="http://www.w3.org/2000/svg"
   xmlns="http://www.w3.org/2000/svg"
   width="91.545822mm"
   height="9.1281252mm"
   viewBox="0 0 91.545821 9.1281252"
   version="1.1"
   id="svg1870">
  <defs
     id="defs1864" />
  <metadata
     id="metadata1867">
    <rdf:RDF>
      <cc:Work
         rdf:about="">
        <dc:format>image/svg+xml</dc:format>
        <dc:type
           rdf:resource="http://purl.org/dc/dcmitype/StillImage" />
        <dc:title></dc:title>
      </cc:Work>
    </rdf:RDF>
  </metadata>
  <path
     d="m 0.1984375,3.3734375 v -1.5875 c 0,-0.87675 0.71075,-1.5875 1.5875,-1.5875 h 1.5875 v 0.79375 h 3.96875 v -0.79375 h 29.3687495 1.5875 c 0.87675,0 1.5875,0.71075 1.5875,1.5875 v 1.5875 h -1.5875 v -1.19063 h -1.5875 v 3.96875 h 1.5875 v -1.19062 h 1.5875 v 1.5875 c 0,0.87675 -0.71075,1.5875 -1.5875,1.5875 h -1.5875 -29.3687495 -0.39688 v 0.79375 h -3.175 v -0.79375 h -0.39687 -1.5875 c -0.87675,0 -1.5875,-0.71075 -1.5875,-1.5875 v -1.5875 z"
     style="fill:#ff5942;fill-opacity:1;stroke:#ea4326;stroke-width:0.39687499;stroke-linecap:round;stroke-opacity:1"
     id="path3775" />
  <text
     y="-8.4209487e-06"
     x="17.462492"
     id="text568"
     style="font-size:3.96875px;font-family:sans-serif;text-anchor:end;fill:#282828;stroke-width:0.39687499">
    <tspan
       style="stroke-width:0.39687499"
       id="tspan566"
       y="5.556251"
       x="35.718746">表示</tspan>
  </text>
  <text
     y="-8.4209487e-06"
     x="17.462492"
     id="text572"
     style="font-size:2.64583325px;font-family:sans-serif;text-anchor:end;fill:#282828;stroke-width:0.39687499">
    <tspan
       style="stroke-width:0.39687499"
       id="tspan570"
       y="4.7625041"
       x="35.718746" />
  </text>
  <path
     id="path578"
     style="fill:#ff5942;fill-opacity:1;stroke:#ea4326;stroke-width:0.39687499;stroke-linecap:round;stroke-opacity:1"
     d="m 40.282807,0.1984375 h 35.71875 v 7.9375 h -35.71875 v -3.175 -0.39688 h -2.38125 v 1.19063 h -0.79375 v -3.175 h 0.79375 v 1.19062 h 2.38125 v -0.39687 z" />
  <text
     y="-8.4209487e-06"
     x="36.909359"
     id="text582"
     style="font-size:3.96875px;font-family:sans-serif;text-anchor:start;fill:#282828;stroke-width:0.39687499">
    <tspan
       style="stroke-width:0.39687499"
       id="tspan580"
       y="5.556251"
       x="42.068737">Hello World</tspan>
  </text>
  <text
     y="-8.4209487e-06"
     x="17.462492"
     style="font-size:3.96875px;font-family:sans-serif;text-anchor:end;fill:#282828;stroke-width:0.39687499"
     id="text3779">
    <tspan
       style="stroke-width:0.39687499"
       x="35.718746"
       y="5.556251"
       id="tspan3777">けっかを ひょうじ</tspan>
  </text>
  <text
     y="-8.4209487e-06"
     x="17.462492"
     style="font-size:2.64583325px;font-family:sans-serif;text-anchor:end;fill:#282828;stroke-width:0.39687499"
     id="text3783">
    <tspan
       style="stroke-width:0.39687499"
       x="35.718746"
       y="4.7625041"
       id="tspan3781" />
  </text>
  <path
     d="m 40.282807,0.1984375 h 51.06458 v 7.9375 h -51.06458 v -3.175 -0.39688 h -2.38125 v 1.19063 h -0.79375 v -3.175 h 0.79375 v 1.19062 h 2.38125 v -0.39687 z"
     style="fill:#ff5942;fill-opacity:1;stroke:#ea4326;stroke-width:0.39687499;stroke-linecap:round;stroke-opacity:1"
     id="path3789" />
  <text
     y="-8.4209487e-06"
     x="36.909359"
     style="font-size:3.96875px;font-family:sans-serif;text-anchor:start;fill:#282828;stroke-width:0.39687499"
     id="text3793">
    <tspan
       style="stroke-width:0.39687499"
       x="42.068737"
       y="5.556251"
       id="tspan3791">ミュージック・ブロックス</tspan>
  </text>
</svg>
