<?xml version="1.0" encoding="UTF-8" standalone="no"?>
<svg
   xmlns:dc="http://purl.org/dc/elements/1.1/"
   xmlns:cc="http://creativecommons.org/ns#"
   xmlns:rdf="http://www.w3.org/1999/02/22-rdf-syntax-ns#"
   xmlns:svg="http://www.w3.org/2000/svg"
   xmlns="http://www.w3.org/2000/svg"
   id="svg1870"
   version="1.1"
   viewBox="0 0 71.900299 38.232297"
   height="38.232296mm"
   width="71.900299mm">
  <defs
     id="defs1864" />
  <metadata
     id="metadata1867">
    <rdf:RDF>
      <cc:Work
         rdf:about="">
        <dc:format>image/svg+xml</dc:format>
        <dc:type
           rdf:resource="http://purl.org/dc/dcmitype/StillImage" />
        <dc:title></dc:title>
      </cc:Work>
    </rdf:RDF>
  </metadata>
  <text
     style="font-size:2.64583325px;font-family:sans-serif;text-anchor:end;fill:#282828;stroke-width:0.39687499"
     id="text572"
     x="34.798836"
     y="32.014584">
    <tspan
       x="53.055092"
       y="36.777096"
       id="tspan570"
       style="stroke-width:0.39687499" />
  </text>
  <text
     id="text3783"
     style="font-size:2.64583325px;font-family:sans-serif;text-anchor:end;fill:#282828;stroke-width:0.39687499"
     x="34.798836"
     y="32.014584">
    <tspan
       id="tspan3781"
       y="36.777096"
       x="53.055092"
       style="stroke-width:0.39687499" />
  </text>
  <g
     id="g474"
     transform="matrix(0.26458333,0,0,0.26458333,10.054167,0)">
    <g
       transform="scale(1.5)"
       id="g472">
      <path
         d="m -24.833334,8.5 v -4 c 0,-2.209139 1.790861,-4 4,-4 h 4 v 2 h 9.9999999 v -2 h 63.1263031 4 c 2.209139,0 4,1.790861 4,4 v 4 h -4 v -3 h -4 v 10 h 4 v -3 h 4 v 4 c 0,2.209139 -1.790861,4 -4,4 h -4 -63.1263031 -1 v 2 h -7.9999999 v -2 h -1 -4 c -2.209139,0 -4,-1.505927 -4,-4 v -4 z"
         style="fill:#728ff9;fill-opacity:1;stroke:#5370dc;stroke-width:1;stroke-linecap:round;stroke-opacity:1"
         id="path462" />
      <text
         style="font-size:10px;font-family:sans-serif;text-anchor:end;fill:#282828"
         id="text466">
        <tspan
           x="54"
           y="14"
           id="tspan464">いろを せってい</tspan>
      </text>
      <text
         style="font-size:6.66666651px;font-family:sans-serif;text-anchor:end;fill:#282828"
         id="text470">
        <tspan
           x="54"
           y="12"
           id="tspan468" />
      </text>
    </g>
  </g>
  <g
     transform="matrix(0.26458333,0,0,0.26458333,32.593867,0)"
     id="g484">
    <g
       transform="scale(1.5)"
       id="g482">
      <path
         d="m 8.5,0.5 h 60 v 20 h -60 v -8 -1 h -6 v 3 h -2 v -8 h 2 v 3 h 6 v -1 z"
         style="fill:#ff5293;fill-opacity:1;stroke:#ff2c76;stroke-width:1;stroke-linecap:round;stroke-opacity:1"
         id="path476" />
      <text
         style="font-size:10px;font-family:sans-serif;text-anchor:start;fill:#282828"
         id="text480">
        <tspan
           x="13"
           y="14"
           id="tspan478">0</tspan>
      </text>
    </g>
  </g>
  <g
     transform="matrix(0.26458333,0,0,0.26458333,19.765115,8.33438)"
     id="g498">
    <g
       transform="scale(1.5)"
       id="g496">
      <path
         d="m -49.277779,8.5 v -4 c 0,-2.209139 1.790861,-4 4,-4 h 4 v 2 h 10 v -2 h 93.142037 4 c 2.209139,0 4,1.790861 4,4 v 4 h -4 v -3 h -4 v 10 h 4 v -3 h 4 v 4 c 0,2.209139 -1.790861,4 -4,4 h -4 -93.142037 -1 v 2 h -8 v -2 h -1 -4 c -2.209139,0 -4.267895,-2.074217 -4,-4 v -4 z"
         style="fill:#728ff9;fill-opacity:1;stroke:#5370dc;stroke-width:1;stroke-linecap:round;stroke-opacity:1"
         id="path486" />
      <text
         style="font-size:10px;font-family:sans-serif;text-anchor:end;fill:#282828"
         id="text490">
        <tspan
           x="60"
           y="14"
           id="tspan488">いろのこさを せってい</tspan>
      </text>
      <text
         style="font-size:6.66666651px;font-family:sans-serif;text-anchor:end;fill:#282828"
         id="text494">
        <tspan
           x="60"
           y="12"
           id="tspan492" />
      </text>
    </g>
  </g>
  <g
     transform="matrix(0.26458333,0,0,0.26458333,44.515924,8.33438)"
     id="g508">
    <g
       transform="scale(1.5)"
       id="g506">
      <path
         d="m 8.5,0.5 h 60 v 20 h -60 v -8 -1 h -6 v 3 h -2 v -8 h 2 v 3 h 6 v -1 z"
         style="fill:#ff5293;fill-opacity:1;stroke:#ff2c76;stroke-width:1;stroke-linecap:round;stroke-opacity:1"
         id="path500" />
      <text
         style="font-size:10px;font-family:sans-serif;text-anchor:start;fill:#282828"
         id="text504">
        <tspan
           x="13"
           y="14"
           id="tspan502">50</tspan>
      </text>
    </g>
  </g>
  <g
     transform="matrix(0.26458333,0,0,0.26458333,11.288889,16.66875)"
     id="g522">
    <g
       transform="scale(1.5)"
       id="g520">
      <path
         d="m -27.944445,8.5 v -4 c 0,-2.209139 1.790861,-4 4,-4 h 4 v 2 h 10 v -2 h 81.808703 4 c 2.209139,0 4,1.790861 4,4 v 4 h -4 v -3 h -4 v 10 h 4 v -3 h 4 v 4 c 0,2.209139 -1.790861,4 -4,4 h -4 -81.808703 -1 v 2 h -8 v -2 h -1 -4 c -2.209139,0 -4,-1.790861 -4,-4 v -4 z"
         style="fill:#728ff9;fill-opacity:1;stroke:#5370dc;stroke-width:1;stroke-linecap:round;stroke-opacity:1"
         id="path510" />
      <text
         style="font-size:10px;font-family:sans-serif;text-anchor:end;fill:#282828"
         id="text514">
        <tspan
           x="70"
           y="14"
           id="tspan512">ふとさを せってい</tspan>
      </text>
      <text
         style="font-size:6.66666651px;font-family:sans-serif;text-anchor:end;fill:#282828"
         id="text518">
        <tspan
           x="70"
           y="12"
           id="tspan516" />
      </text>
    </g>
  </g>
  <g
     transform="matrix(0.26458333,0,0,0.26458333,40.008448,16.66875)"
     id="g532">
    <g
       transform="scale(1.5)"
       id="g530">
      <path
         d="m 8.5,0.5 h 60 v 20 h -60 v -8 -1 h -6 v 3 h -2 v -8 h 2 v 3 h 6 v -1 z"
         style="fill:#ff5293;fill-opacity:1;stroke:#ff2c76;stroke-width:1;stroke-linecap:round;stroke-opacity:1"
         id="path524" />
      <text
         style="font-size:10px;font-family:sans-serif;text-anchor:start;fill:#282828"
         id="text528">
        <tspan
           x="13"
           y="14"
           id="tspan526">5</tspan>
      </text>
    </g>
  </g>
  <g
     transform="matrix(0.26458333,0,0,0.26458333,22.225,29.89792)"
     id="g562">
    <g
       transform="scale(1.5)"
       id="g560">
      <path
         d="m 8.5,0.5 h 70 v 20 h -70 v -8 -1 h -6 v 3 h -2 v -8 h 2 v 3 h 6 v -1 z"
         style="fill:#728ff9;fill-opacity:1;stroke:#5370dc;stroke-width:1;stroke-linecap:round;stroke-opacity:1"
         id="path554" />
      <text
         style="font-size:10px;font-family:sans-serif;text-anchor:start;fill:#282828"
         id="text558">
        <tspan
           x="13"
           y="14"
           id="tspan556">いろ</tspan>
      </text>
    </g>
  </g>
</svg>
