<?xml version="1.0" encoding="UTF-8" standalone="no"?>
<svg
   xmlns:dc="http://purl.org/dc/elements/1.1/"
   xmlns:cc="http://creativecommons.org/ns#"
   xmlns:rdf="http://www.w3.org/1999/02/22-rdf-syntax-ns#"
   xmlns:svg="http://www.w3.org/2000/svg"
   xmlns="http://www.w3.org/2000/svg"
   width="58.737495mm"
   height="17.4625mm"
   viewBox="0 0 58.737495 17.4625"
   version="1.1"
   id="svg1870">
  <defs
     id="defs1864" />
  <metadata
     id="metadata1867">
    <rdf:RDF>
      <cc:Work
         rdf:about="">
        <dc:format>image/svg+xml</dc:format>
        <dc:type
           rdf:resource="http://purl.org/dc/dcmitype/StillImage" />
        <dc:title></dc:title>
      </cc:Work>
    </rdf:RDF>
  </metadata>
  <g
     id="layer1"
     transform="translate(-117.32577,-169.32723)">
    <text
       style="font-size:2.64583325px;font-family:sans-serif;text-anchor:end;fill:#282828;stroke-width:0.39687499"
       id="text572"
       x="142.19659"
       y="192.21368">
      <tspan
         x="160.45285"
         y="196.9762"
         id="tspan570"
         style="stroke-width:0.39687499" />
    </text>
    <text
       id="text3783"
       style="font-size:2.64583325px;font-family:sans-serif;text-anchor:end;fill:#282828;stroke-width:0.39687499"
       x="142.19659"
       y="192.21368">
      <tspan
         id="tspan3781"
         y="196.9762"
         x="160.45285"
         style="stroke-width:0.39687499" />
    </text>
    <g
       id="g604"
       transform="matrix(0.26458333,0,0,0.26458333,117.32577,169.32723)">
      <g
         transform="scale(1.5)"
         id="g602">
        <path
           d="m 0.5,8.5 v -4 a 4,4 90 0 1 4,-4 h 4 v 2 h 10 v -2 h 30 4 a 4,4 90 0 1 4,4 v 4 h -4 v -3 h -4 v 10 h 4 v -3 h 4 v 17 h -4 v -3 h -4 v 10 h 4 v -3 h 4 v 4 a 4,4 90 0 1 -4,4 h -4 -30 -1 v 2 h -8 v -2 h -1 -4 a 4,4 90 0 1 -4,-4 v -4 -21 z"
           style="fill:#ff5942;fill-opacity:1;stroke:#ea4326;stroke-width:1;stroke-linecap:round;stroke-opacity:1"
           id="path588" />
        <text
           style="font-size:10px;font-family:sans-serif;text-anchor:end;fill:#282828"
           id="text592">
          <tspan
             x="46"
             y="24"
             id="tspan590">スタンプ</tspan>
        </text>
        <text
           style="font-size:6.66666651px;font-family:sans-serif;text-anchor:end;fill:#282828"
           id="text596">
          <tspan
             x="46"
             y="12"
             id="tspan594">おおきさ</tspan>
        </text>
        <text
           style="font-size:6.66666651px;font-family:sans-serif;text-anchor:end;fill:#282828"
           id="text600">
          <tspan
             x="46"
             y="33"
             id="tspan598">そざい</tspan>
        </text>
      </g>
    </g>
    <g
       transform="matrix(0.26458333,0,0,0.26458333,136.77264,169.32723)"
       id="g614">
      <g
         transform="scale(1.5)"
         id="g612">
        <path
           d="m 8.5,0.5 h 60 v 20 h -60 v -8 -1 h -6 v 3 h -2 v -8 h 2 v 3 h 6 v -1 z"
           style="fill:#ff5293;fill-opacity:1;stroke:#ff2c76;stroke-width:1;stroke-linecap:round;stroke-opacity:1"
           id="path606" />
        <text
           style="font-size:10px;font-family:sans-serif;text-anchor:start;fill:#282828"
           id="text610">
          <tspan
             x="13"
             y="14"
             id="tspan608">24</tspan>
        </text>
      </g>
    </g>
    <g
       transform="matrix(0.26458333,0,0,0.26458333,136.77264,177.6616)"
       id="g624">
      <g
         transform="scale(1.5)"
         id="g622">
        <path
           d="m 8.5,0.5 h 90 v 20 h -90 v -8 -1 h -6 v 3 h -2 v -8 h 2 v 3 h 6 v -1 z"
           style="fill:#ff5942;fill-opacity:1;stroke:#ea4326;stroke-width:1;stroke-linecap:round;stroke-opacity:1"
           id="path616" />
        <text
           style="font-size:10px;font-family:sans-serif;text-anchor:start;fill:#282828"
           id="text620">
          <tspan
             x="13"
             y="14"
             id="tspan618">もじ そざい</tspan>
        </text>
      </g>
    </g>
  </g>
</svg>
