<?xml version="1.0" encoding="UTF-8" standalone="no"?>
<svg
   xmlns:dc="http://purl.org/dc/elements/1.1/"
   xmlns:cc="http://creativecommons.org/ns#"
   xmlns:rdf="http://www.w3.org/1999/02/22-rdf-syntax-ns#"
   xmlns:svg="http://www.w3.org/2000/svg"
   xmlns="http://www.w3.org/2000/svg"
   id="svg1815"
   version="1.1"
   height="786.34308"
   width="365.5">
  <metadata
     id="metadata1821">
    <rdf:RDF>
      <cc:Work
         rdf:about="">
        <dc:format>image/svg+xml</dc:format>
        <dc:type
           rdf:resource="http://purl.org/dc/dcmitype/StillImage" />
        <dc:title></dc:title>
      </cc:Work>
    </rdf:RDF>
  </metadata>
  <defs
     id="defs1819" />
  <rect
     y="1.1715275"
     x="0"
     height="784"
     width="323"
     id="backgroundrect"
     style="fill:none;stroke:none" />
  <g
     id="svg_17"
     transform="matrix(1.5,0,0,1.5,239,170.17153)">
    <path
       id="svg_18"
       style="fill:#77c428;fill-opacity:1;stroke:#57ad02;stroke-width:1;stroke-linecap:round;stroke-opacity:1"
       d="m -158.83333,-98.666664 0,-3.999996 a 4,4 90 0 1 4,-4 l 4,0 5,-6 5,6 9,0 69.000002,0 4,0 a 4,4 90 0 1 4,4 l 0,3.999996 0,4 0,4 a 4,4 90 0 1 -4,4 l -4,0 -69.000002,0 -1,0 0,2 -8,0 0,-2 -1,0 -4,0 a 5,5 90 0 0 -5,5 l 0,4 0,4 0,147 0,4 a 5,5 90 0 0 5,5 l 4,0 0,2 10,0 0,-2 8,0 0,6 0,6 0,4 a 4,4 90 0 1 -4,4.000004 l -4,0 -9,0 -5,6 -5,-6 -4,0 a 4,4 90 0 1 -4,-4.000004 l 0,-4 z" />
    <text
       x="-159.33333"
       y="-113.16666"
       id="svg_19"
       style="font-size:10px;font-family:sans-serif;text-anchor:start;fill:#282828">
      <tspan
         id="svg_20"
         y="-91.166664"
         x="-139.33333">フレーズメーカー</tspan>
    </text>
  </g>
  <g
     transform="matrix(0.5,0,0,0.5,239,182.17153)"
     id="svg_22"
     style="isolation:isolate">
    <g
       data-name="レイヤー 2"
       id="レイヤー_2">
      <g
         id="Icon">
        <rect
           x="-478"
           y="-339.5"
           id="svg_23"
           style="opacity:0.4;mix-blend-mode:multiply;fill:#292929"
           ry="5"
           rx="5"
           height="42"
           width="42" />
        <path
           id="svg_24"
           style="fill:#ffffff"
           d="m -447.44,-309.7 -4.17,-4.16 2.26,0 a 1.035,1.035 0 1 0 0,-2.07 l -4.71,0 a 1.08,1.08 0 0 0 -1.11,1 l 0,0 c 0,0 0,0 0,0.06 l 0,4.64 0,0 a 1.04,1.04 0 1 0 2.08,0 l 0,-2.19 4.19,4.19 a 1,1 0 0 0 1.46,0 1,1 0 0 0 0,-1.47 z" />
        <path
           id="svg_25"
           style="fill:#ffffff"
           d="m -458.83,-314.9 a 1.08,1.08 0 0 0 -1.11,-1 l -4.71,0 a 1.035,1.035 0 1 0 0,2.07 l 2.25,0 -4.16,4.13 a 1.039447,1.039447 0 0 0 1.47,1.47 l 4.18,-4.19 0,2.26 a 1.04,1.04 0 1 0 2.08,0 l 0,-4.64 c 0,0 0,0 0,-0.06 a 0.08,0.08 0 0 1 0,-0.04 z" />
        <path
           id="svg_26"
           style="fill:#ffffff"
           d="m -454.06,-319 4.7,0 a 1.04,1.04 0 1 0 0,-2.08 l -2.25,0 4.17,-4.16 a 1,1 0 0 0 0,-1.47 1,1 0 0 0 -1.46,0 l -4.19,4.21 0,-2.28 a 1.04,1.04 0 1 0 -2.08,0 l 0,4.64 a 0.43000001,0.43000001 0 0 0 0,0.05 l 0,0.05 a 1.09,1.09 0 0 0 1.11,1.04 z" />
        <path
           id="svg_27"
           style="fill:#ffffff"
           d="m -459.87,-325.88 a 1.08,1.08 0 0 0 -1,1.09 l 0,2.29 -4.18,-4.19 a 1,1 0 0 0 -1.47,0 1,1 0 0 0 0,1.46 l 4.16,4.17 -2.29,0 a 1.04,1.04 0 1 0 0,2.08 l 4.71,0 a 1.09,1.09 0 0 0 1.11,-1 c 0,0 0,0 0,-0.06 l 0,-4.75 a 1.0700001,1.0700001 0 0 0 -1.04,-1.09 z" />
      </g>
    </g>
  </g>
  <path
     id="svg_30"
     style="fill:#77c428;fill-opacity:1;stroke:#57ad02;stroke-width:1.5;stroke-linecap:round;stroke-opacity:1"
     d="m 14.750005,54.171537 v -6 c 0,-3.313708 2.686292,-6 6,-6 h 6 v 3 h 15 v -3 h 77.000005 6 c 3.3137,0 6,2.686292 6,6 v 6 h -6 v -4.5 h -6 v 14.999994 h 6 v -4.499994 h 6 v 25.499994 h -6 v -4.5 h -6 v 15 h 6 v -4.5 h 6 v 6 c 0,3.313709 -2.6863,5.999999 -6,5.999999 h -6 -77.000005 -1.5 v 3 h -12 v -3 h -1.5 -6 c -3.313707,0 -7.047887,-2.85634 -6,-5.999999 v -6 -31.499994 z" />
  <text
     x="46.000008"
     y="41.421543"
     id="svg_31"
     style="font-size:15px;font-family:sans-serif;text-anchor:end;fill:#282828;stroke-width:1.5">
    <tspan
       style="stroke-width:1.5"
       id="svg_32"
       y="77.421524"
       x="115.00001">おとの たかさ</tspan>
  </text>
  <text
     x="46.000008"
     y="41.421543"
     id="svg_33"
     style="font-size:10px;font-family:sans-serif;text-anchor:end;fill:#282828;stroke-width:1.5">
    <tspan
       style="stroke-width:1.5"
       id="svg_34"
       y="59.421543"
       x="115.00001">なまえ</tspan>
  </text>
  <text
     x="46.000008"
     y="41.421543"
     id="svg_35"
     style="font-size:10px;font-family:sans-serif;text-anchor:end;fill:#282828;stroke-width:1.5">
    <tspan
       style="stroke-width:1.5"
       id="svg_36"
       y="90.921524"
       x="115.00001">オクターヴの たかさ</tspan>
  </text>
  <path
     id="svg_39"
     style="fill:#77c428;fill-opacity:1;stroke:#57ad02;stroke-width:1.5;stroke-linecap:round;stroke-opacity:1"
     d="m 132.75001,42.171537 h 90 v 29.999994 h -90 v -11.999994 -1.5 h -9 v 4.499994 h -3 V 51.171537 h 3 v 4.5 h 9 v -1.5 z" />
  <text
     x="120.00001"
     y="41.421543"
     id="svg_40"
     style="font-size:15px;font-family:sans-serif;text-anchor:start;fill:#282828;stroke-width:1.5">
    <tspan
       style="stroke-width:1.5"
       id="svg_41"
       y="62.421532"
       x="139.5">ソ</tspan>
  </text>
  <path
     id="svg_44"
     style="fill:#ff5293;fill-opacity:1;stroke:#ff2c76;stroke-width:1.5;stroke-linecap:round;stroke-opacity:1"
     d="m 132.75001,74.171537 h 90 v 29.999993 h -90 v -11.999993 -1.5 h -9 v 4.499994 h -3 V 83.171537 h 3 v 4.5 h 9 v -1.5 z" />
  <text
     x="120.00001"
     y="73.421539"
     id="svg_45"
     style="font-size:15px;font-family:sans-serif;text-anchor:start;fill:#282828;stroke-width:1.5">
    <tspan
       style="stroke-width:1.5"
       id="svg_46"
       y="94.421524"
       x="139.5">4</tspan>
  </text>
  <path
     id="svg_49"
     style="fill:#77c428;fill-opacity:1;stroke:#57ad02;stroke-width:1.5;stroke-linecap:round;stroke-opacity:1"
     d="m 14.750005,117.17154 v -6 c 0,-3.31371 2.686292,-6 6,-6 h 6 v 3 h 15 v -3 h 77.000005 6 c 3.3137,0 6,2.68629 6,6 v 6 h -6 v -4.5 h -6 v 14.99999 h 6 v -4.49999 h 6 v 25.49999 h -6 v -4.5 h -6 v 15 h 6 v -4.5 h 6 v 6 c 0,3.31371 -2.6863,6 -6,6 h -6 -77.000005 -1.5 v 3 h -12 v -3 h -1.5 -6 c -3.313708,0 -6,-2.68629 -6,-6 v -6 -31.49999 z" />
  <text
     x="46.000008"
     y="104.42155"
     id="svg_50"
     style="font-size:15px;font-family:sans-serif;text-anchor:end;fill:#282828;stroke-width:1.5">
    <tspan
       style="stroke-width:1.5"
       id="svg_51"
       y="140.42152"
       x="115.00001">おとの たかさ</tspan>
  </text>
  <text
     x="46.000008"
     y="104.42155"
     id="svg_52"
     style="font-size:10px;font-family:sans-serif;text-anchor:end;fill:#282828;stroke-width:1.5">
    <tspan
       style="stroke-width:1.5"
       id="svg_53"
       y="122.42155"
       x="115.00001">なまえ</tspan>
  </text>
  <text
     x="46.000008"
     y="104.42155"
     id="svg_54"
     style="font-size:10px;font-family:sans-serif;text-anchor:end;fill:#282828;stroke-width:1.5">
    <tspan
       style="stroke-width:1.5"
       id="svg_55"
       y="153.92152"
       x="115.00001">オクターヴの たかさ</tspan>
  </text>
  <path
     id="svg_58"
     style="fill:#77c428;fill-opacity:1;stroke:#57ad02;stroke-width:1.5;stroke-linecap:round;stroke-opacity:1"
     d="m 132.75001,105.17154 h 90 v 29.99999 h -90 v -11.99999 -1.5 h -9 v 4.49999 h -3 v -11.99999 h 3 v 4.5 h 9 v -1.5 z" />
  <text
     x="120.00001"
     y="104.42155"
     id="svg_59"
     style="font-size:15px;font-family:sans-serif;text-anchor:start;fill:#282828;stroke-width:1.5">
    <tspan
       style="stroke-width:1.5"
       id="svg_60"
       y="125.42152"
       x="139.5">ミ</tspan>
  </text>
  <path
     id="svg_63"
     style="fill:#ff5293;fill-opacity:1;stroke:#ff2c76;stroke-width:1.5;stroke-linecap:round;stroke-opacity:1"
     d="m 132.75001,137.17154 h 90 v 29.99999 h -90 v -11.99999 -1.5 h -9 v 4.49999 h -3 v -11.99999 h 3 v 4.5 h 9 v -1.5 z" />
  <text
     x="120.00001"
     y="136.42154"
     id="svg_64"
     style="font-size:15px;font-family:sans-serif;text-anchor:start;fill:#282828;stroke-width:1.5">
    <tspan
       style="stroke-width:1.5"
       id="svg_65"
       y="157.42152"
       x="139.5">4</tspan>
  </text>
  <path
     id="svg_68"
     style="fill:#77c428;fill-opacity:1;stroke:#57ad02;stroke-width:1.5;stroke-linecap:round;stroke-opacity:1"
     d="m 14.750005,180.17154 v -6 c 0,-3.31371 2.686292,-6 6,-6 h 6 v 3 h 15 v -3 h 77.000005 6 c 3.3137,0 7.04788,2.85634 6,6 v 6 h -6 v -4.5 h -6 v 14.99999 h 6 v -4.49999 h 6 v 25.49999 h -6 v -4.5 h -6 v 15 h 6 v -4.5 h 6 v 6 c 0,3.31371 -2.6863,6 -6,6 h -6 -77.000005 -1.5 v 3 h -12 v -3 h -1.5 -6 c -3.313708,0 -7.047887,-2.85634 -6,-6 v -6 -31.49999 z" />
  <text
     x="46.000008"
     y="167.42154"
     id="svg_69"
     style="font-size:15px;font-family:sans-serif;text-anchor:end;fill:#282828;stroke-width:1.5">
    <tspan
       style="stroke-width:1.5"
       id="svg_70"
       y="203.42152"
       x="115.00001">おとの たかさ</tspan>
  </text>
  <text
     x="46.000008"
     y="167.42154"
     id="svg_71"
     style="font-size:10px;font-family:sans-serif;text-anchor:end;fill:#282828;stroke-width:1.5">
    <tspan
       style="stroke-width:1.5"
       id="svg_72"
       y="185.42154"
       x="115.00001">なまえ</tspan>
  </text>
  <text
     x="46.000008"
     y="167.42154"
     id="svg_73"
     style="font-size:10px;font-family:sans-serif;text-anchor:end;fill:#282828;stroke-width:1.5">
    <tspan
       style="stroke-width:1.5"
       id="svg_74"
       y="216.92152"
       x="115.00001">オクターヴの たかさ</tspan>
  </text>
  <path
     id="svg_77"
     style="fill:#77c428;fill-opacity:1;stroke:#57ad02;stroke-width:1.5;stroke-linecap:round;stroke-opacity:1"
     d="m 132.75001,168.17154 h 90 v 29.99999 h -90 v -11.99999 -1.5 h -9 v 4.49999 h -3 v -11.99999 h 3 v 4.5 h 9 v -1.5 z" />
  <text
     x="120.00001"
     y="167.42154"
     id="svg_78"
     style="font-size:15px;font-family:sans-serif;text-anchor:start;fill:#282828;stroke-width:1.5">
    <tspan
       style="stroke-width:1.5"
       id="svg_79"
       y="188.42152"
       x="139.5">レ</tspan>
  </text>
  <path
     id="svg_82"
     style="fill:#ff5293;fill-opacity:1;stroke:#ff2c76;stroke-width:1.5;stroke-linecap:round;stroke-opacity:1"
     d="m 132.75001,200.17154 h 90 v 29.99999 h -90 v -11.99999 -1.5 h -9 v 4.49999 h -3 v -11.99999 h 3 v 4.5 h 9 v -1.5 z" />
  <text
     x="120.00001"
     y="199.42154"
     id="svg_83"
     style="font-size:15px;font-family:sans-serif;text-anchor:start;fill:#282828;stroke-width:1.5">
    <tspan
       style="stroke-width:1.5"
       id="svg_84"
       y="220.42152"
       x="139.5">4</tspan>
  </text>
  <path
     id="svg_87"
     style="fill:#ff8b2d;fill-opacity:1;stroke:#e86b0e;stroke-width:1.5;stroke-linecap:round;stroke-opacity:1"
     d="m 14.750005,243.17154 v -6 c 0,-3.31371 2.686291,-6 6,-6 h 6 v 3 h 15 v -3 h 99.500005 6 c 3.31371,0 6,2.68629 6,6 v 6 h -6 v -4.5 h -6 v 14.99999 h 6 v -4.49999 h 6 v 25.49999 h -6 v -4.5 h -6 v 15 h 6 v -4.5 h 6 v 6 c 0,3.31371 -2.68629,6 -6,6 h -6 -99.500005 -1.5 v 3 h -12 v -3 h -1.5 -6 c -3.313708,0 -7.047887,-2.85634 -6,-6 v -6 -31.49999 z" />
  <text
     x="22.000008"
     y="230.42154"
     id="svg_88"
     style="font-size:15px;font-family:sans-serif;text-anchor:end;fill:#282828;stroke-width:1.5">
    <tspan
       style="stroke-width:1.5"
       id="svg_89"
       y="266.42154"
       x="137.5">れんぷ（わり算）</tspan>
  </text>
  <text
     x="22.000008"
     y="230.42154"
     id="svg_90"
     style="font-size:10px;font-family:sans-serif;text-anchor:end;fill:#282828;stroke-width:1.5">
    <tspan
       style="stroke-width:1.5"
       id="svg_91"
       y="248.42154"
       x="137.5">おんぷの かず</tspan>
  </text>
  <text
     x="22.000008"
     y="230.42154"
     id="svg_92"
     style="font-size:10px;font-family:sans-serif;text-anchor:end;fill:#282828;stroke-width:1.5">
    <tspan
       style="stroke-width:1.5"
       id="svg_93"
       y="279.92154"
       x="137.5">おとの ながさ</tspan>
  </text>
  <path
     id="svg_96"
     style="fill:#ff5293;fill-opacity:1;stroke:#ff2c76;stroke-width:1.5;stroke-linecap:round;stroke-opacity:1"
     d="m 154.75001,231.17154 h 90 v 29.99999 h -90 v -11.99999 -1.5 h -9 v 4.49999 h -3 v -11.99999 h 3 v 4.5 h 9 v -1.5 z" />
  <text
     x="142"
     y="230.42154"
     id="svg_97"
     style="font-size:15px;font-family:sans-serif;text-anchor:start;fill:#282828;stroke-width:1.5">
    <tspan
       style="stroke-width:1.5"
       id="svg_98"
       y="251.42152"
       x="161.5">3</tspan>
  </text>
  <path
     id="svg_101"
     style="fill:#ff5293;fill-opacity:1;stroke:#ff2c76;stroke-width:1.5;stroke-linecap:round;stroke-opacity:1"
     d="m 154.75001,275.17154 v -6 a 6,6 0 0 1 6,-6 h 6 15 45 6 a 6,6 0 0 1 6,6 v 6 h -6 v -4.5 h -6 v 14.99999 h 6 v -4.49999 h 6 v 25.49999 h -6 v -4.5 h -6 v 15 h 6 v -4.5 h 6 v 6 a 6,6 0 0 1 -6,6 h -6 -45 -15 -6 a 6,6 0 0 1 -6,-6 v -6 -31.49999 -1.5 h -9 v 4.49999 h -3 v -11.99999 h 3 v 4.5 h 9 z" />
  <text
     x="142"
     y="262.42154"
     id="svg_102"
     style="font-size:13.5px;font-family:sans-serif;text-anchor:end;fill:#282828;stroke-width:1.5">
    <tspan
       style="stroke-width:1.5"
       id="svg_103"
       y="296.92154"
       x="223">➗</tspan>
  </text>
  <text
     x="134"
     y="262.42154"
     id="svg_104"
     style="font-size:9px;font-family:sans-serif;text-anchor:end;fill:#282828;stroke-width:1.5" />
  <text
     x="134"
     y="262.42154"
     id="svg_106"
     style="font-size:9px;font-family:sans-serif;text-anchor:end;fill:#282828;stroke-width:1.5" />
  <path
     id="svg_110"
     style="fill:#ff5293;fill-opacity:1;stroke:#ff2c76;stroke-width:1.5;stroke-linecap:round;stroke-opacity:1"
     d="m 240.75001,263.17154 h 90 v 29.99999 h -90 v -11.99999 -1.5 h -9 v 4.49999 h -3 v -11.99999 h 3 v 4.5 h 9 v -1.5 z" />
  <text
     x="228"
     y="262.42154"
     id="svg_111"
     style="font-size:15px;font-family:sans-serif;text-anchor:start;fill:#282828;stroke-width:1.5">
    <tspan
       style="stroke-width:1.5"
       id="svg_112"
       y="283.42154"
       x="247.5">1</tspan>
  </text>
  <path
     id="svg_115"
     style="fill:#ff5293;fill-opacity:1;stroke:#ff2c76;stroke-width:1.5;stroke-linecap:round;stroke-opacity:1"
     d="m 240.75001,295.17154 h 90 v 29.99999 h -90 v -11.99999 -1.5 h -9 v 4.49999 h -3 v -11.99999 h 3 v 4.5 h 9 v -1.5 z" />
  <text
     x="228"
     y="294.42154"
     id="svg_116"
     style="font-size:15px;font-family:sans-serif;text-anchor:start;fill:#282828;stroke-width:1.5">
    <tspan
       style="stroke-width:1.5"
       id="svg_117"
       y="315.42154"
       x="247.5">4</tspan>
  </text>
  <g
     id="svg_120"
     transform="matrix(1.5,0,0,1.5,239,528.17153)">
    <path
       id="svg_121"
       style="fill:#77c428;fill-opacity:1;stroke:#57ad02;stroke-width:1;stroke-linecap:round;stroke-opacity:1"
       d="m -158.83333,-98.666664 0,-3.999996 a 4,4 90 0 1 4,-4 l 4,0 5,-6 5,6 9,0 69.000002,0 4,0 a 4,4 90 0 1 4,4 l 0,3.999996 0,4 0,4 a 4,4 90 0 1 -4,4 l -4,0 -69.000002,0 -1,0 0,2 -8,0 0,-2 -1,0 -4,0 a 5,5 90 0 0 -5,5 l 0,4 0,4 0,210.000004 0,4 a 5,5 90 0 0 5,5 l 4,0 0,2 10,0 0,-2 8,0 0,6 0,6 0,4 a 4,4 90 0 1 -4,4 l -4,0 -9,0 -5,6 -5,-6 -4,0 a 4,4 90 0 1 -4,-4 l 0,-4 z" />
    <text
       x="-159.33333"
       y="-113.16666"
       id="svg_122"
       style="font-size:10px;font-family:sans-serif;text-anchor:start;fill:#282828">
      <tspan
         id="svg_123"
         y="-91.166664"
         x="-139.33333">フレーズメーカー</tspan>
    </text>
  </g>
  <g
     transform="matrix(0.5,0,0,0.5,239,540.17153)"
     id="svg_125"
     style="isolation:isolate">
    <g
       data-name="レイヤー 2"
       id="g1689">
      <g
         id="g1687">
        <rect
           x="-478"
           y="-339.5"
           id="svg_126"
           style="opacity:0.4;mix-blend-mode:multiply;fill:#292929"
           ry="5"
           rx="5"
           height="42"
           width="42" />
        <path
           id="svg_127"
           style="fill:#ffffff"
           d="m -447.44,-309.7 -4.17,-4.16 2.26,0 a 1.035,1.035 0 1 0 0,-2.07 l -4.71,0 a 1.08,1.08 0 0 0 -1.11,1 l 0,0 c 0,0 0,0 0,0.06 l 0,4.64 0,0 a 1.04,1.04 0 1 0 2.08,0 l 0,-2.19 4.19,4.19 a 1,1 0 0 0 1.46,0 1,1 0 0 0 0,-1.47 z" />
        <path
           id="svg_128"
           style="fill:#ffffff"
           d="m -458.83,-314.9 a 1.08,1.08 0 0 0 -1.11,-1 l -4.71,0 a 1.035,1.035 0 1 0 0,2.07 l 2.25,0 -4.16,4.13 a 1.039447,1.039447 0 0 0 1.47,1.47 l 4.18,-4.19 0,2.26 a 1.04,1.04 0 1 0 2.08,0 l 0,-4.64 c 0,0 0,0 0,-0.06 a 0.08,0.08 0 0 1 0,-0.04 z" />
        <path
           id="svg_129"
           style="fill:#ffffff"
           d="m -454.06,-319 4.7,0 a 1.04,1.04 0 1 0 0,-2.08 l -2.25,0 4.17,-4.16 a 1,1 0 0 0 0,-1.47 1,1 0 0 0 -1.46,0 l -4.19,4.21 0,-2.28 a 1.04,1.04 0 1 0 -2.08,0 l 0,4.64 a 0.43000001,0.43000001 0 0 0 0,0.05 l 0,0.05 a 1.09,1.09 0 0 0 1.11,1.04 z" />
        <path
           id="svg_130"
           style="fill:#ffffff"
           d="m -459.87,-325.88 a 1.08,1.08 0 0 0 -1,1.09 l 0,2.29 -4.18,-4.19 a 1,1 0 0 0 -1.47,0 1,1 0 0 0 0,1.46 l 4.16,4.17 -2.29,0 a 1.04,1.04 0 1 0 0,2.08 l 4.71,0 a 1.09,1.09 0 0 0 1.11,-1 c 0,0 0,0 0,-0.06 l 0,-4.75 a 1.0700001,1.0700001 0 0 0 -1.04,-1.09 z" />
      </g>
    </g>
  </g>
  <path
     id="svg_133"
     style="fill:#77c428;fill-opacity:1;stroke:#57ad02;stroke-width:1.5;stroke-linecap:round;stroke-opacity:1"
     d="m 14.750005,412.17154 v -6 c 0,-3.31371 2.686292,-6 6,-6 h 6 v 3 h 15 v -3 h 77.000005 6 c 3.3137,0 7.04788,2.85634 6,6 v 6 h -6 v -4.5 h -6 v 14.99999 h 6 v -4.49999 h 6 v 25.49999 h -6 v -4.5 h -6 v 15 h 6 v -4.5 h 6 v 6 c 0,3.31371 -2.6863,6 -6,6 h -6 -77.000005 -1.5 v 3 h -12 v -3 h -1.5 -6 c -3.313708,0 -7.047887,-2.85634 -6,-6 v -6 -31.49999 z" />
  <text
     x="46.000008"
     y="399.42154"
     id="svg_134"
     style="font-size:15px;font-family:sans-serif;text-anchor:end;fill:#282828;stroke-width:1.5">
    <tspan
       style="stroke-width:1.5"
       id="svg_135"
       y="435.42154"
       x="115.00001">おとの たかさ</tspan>
  </text>
  <text
     x="46.000008"
     y="399.42154"
     id="svg_136"
     style="font-size:10px;font-family:sans-serif;text-anchor:end;fill:#282828;stroke-width:1.5">
    <tspan
       style="stroke-width:1.5"
       id="svg_137"
       y="417.42154"
       x="115.00001">なまえ</tspan>
  </text>
  <text
     x="46.000008"
     y="399.42154"
     id="svg_138"
     style="font-size:10px;font-family:sans-serif;text-anchor:end;fill:#282828;stroke-width:1.5">
    <tspan
       style="stroke-width:1.5"
       id="svg_139"
       y="448.92154"
       x="115.00001">オクターヴの たかさ</tspan>
  </text>
  <path
     id="svg_142"
     style="fill:#77c428;fill-opacity:1;stroke:#57ad02;stroke-width:1.5;stroke-linecap:round;stroke-opacity:1"
     d="m 132.75001,400.17154 h 90 v 29.99999 h -90 v -11.99999 -1.5 h -9 v 4.49999 h -3 v -11.99999 h 3 v 4.5 h 9 v -1.5 z" />
  <text
     x="120.00001"
     y="399.42154"
     id="svg_143"
     style="font-size:15px;font-family:sans-serif;text-anchor:start;fill:#282828;stroke-width:1.5">
    <tspan
       style="stroke-width:1.5"
       id="svg_144"
       y="420.42154"
       x="139.5">ソ</tspan>
  </text>
  <path
     id="svg_147"
     style="fill:#ff5293;fill-opacity:1;stroke:#ff2c76;stroke-width:1.5;stroke-linecap:round;stroke-opacity:1"
     d="m 132.75001,432.17154 h 90 v 29.99999 h -90 v -11.99999 -1.5 h -9 v 4.49999 h -3 v -11.99999 h 3 v 4.5 h 9 v -1.5 z" />
  <text
     x="120.00001"
     y="431.42154"
     id="svg_148"
     style="font-size:15px;font-family:sans-serif;text-anchor:start;fill:#282828;stroke-width:1.5">
    <tspan
       style="stroke-width:1.5"
       id="svg_149"
       y="452.42154"
       x="139.5">4</tspan>
  </text>
  <path
     id="svg_152"
     style="fill:#77c428;fill-opacity:1;stroke:#57ad02;stroke-width:1.5;stroke-linecap:round;stroke-opacity:1"
     d="m 14.750005,475.17154 v -6 c 0,-3.31371 2.686292,-6 6,-6 h 6 v 3 h 15 v -3 h 77.000005 6 c 3.3137,0 7.04789,2.85634 6,6 v 6 h -6 v -4.5 h -6 v 14.99999 h 6 v -4.49999 h 6 v 25.49999 h -6 v -4.5 h -6 v 15 h 6 v -4.5 h 6 v 6 c 0,3.31371 -2.6863,6 -6,6 h -6 -77.000005 -1.5 v 3 h -12 v -3 h -1.5 -6 c -3.313708,0 -6,-2.68629 -6,-6 v -6 -31.49999 z" />
  <text
     x="46.000008"
     y="462.42154"
     id="svg_153"
     style="font-size:15px;font-family:sans-serif;text-anchor:end;fill:#282828;stroke-width:1.5">
    <tspan
       style="stroke-width:1.5"
       id="svg_154"
       y="498.42154"
       x="115.00001">おとの たかさ</tspan>
  </text>
  <text
     x="46.000008"
     y="462.42154"
     id="svg_155"
     style="font-size:10px;font-family:sans-serif;text-anchor:end;fill:#282828;stroke-width:1.5">
    <tspan
       style="stroke-width:1.5"
       id="svg_156"
       y="480.42154"
       x="115.00001">なまえ</tspan>
  </text>
  <text
     x="46.000008"
     y="462.42154"
     id="svg_157"
     style="font-size:10px;font-family:sans-serif;text-anchor:end;fill:#282828;stroke-width:1.5">
    <tspan
       style="stroke-width:1.5"
       id="svg_158"
       y="511.92154"
       x="115.00001">オクターヴの たかさ</tspan>
  </text>
  <path
     id="svg_161"
     style="fill:#77c428;fill-opacity:1;stroke:#57ad02;stroke-width:1.5;stroke-linecap:round;stroke-opacity:1"
     d="m 132.75001,463.17154 h 90 v 29.99999 h -90 v -11.99999 -1.5 h -9 v 4.49999 h -3 v -11.99999 h 3 v 4.5 h 9 v -1.5 z" />
  <text
     x="120.00001"
     y="462.42154"
     id="svg_162"
     style="font-size:15px;font-family:sans-serif;text-anchor:start;fill:#282828;stroke-width:1.5">
    <tspan
       style="stroke-width:1.5"
       id="svg_163"
       y="483.42154"
       x="139.5">ミ</tspan>
  </text>
  <path
     id="svg_166"
     style="fill:#ff5293;fill-opacity:1;stroke:#ff2c76;stroke-width:1.5;stroke-linecap:round;stroke-opacity:1"
     d="m 132.75001,495.17154 h 90 v 29.99999 h -90 v -11.99999 -1.5 h -9 v 4.49999 h -3 v -11.99999 h 3 v 4.5 h 9 v -1.5 z" />
  <text
     x="120.00001"
     y="494.42154"
     id="svg_167"
     style="font-size:15px;font-family:sans-serif;text-anchor:start;fill:#282828;stroke-width:1.5">
    <tspan
       style="stroke-width:1.5"
       id="svg_168"
       y="515.42151"
       x="139.5">4</tspan>
  </text>
  <path
     id="svg_171"
     style="fill:#77c428;fill-opacity:1;stroke:#57ad02;stroke-width:1.5;stroke-linecap:round;stroke-opacity:1"
     d="m 14.750005,538.17154 v -6 c 0,-3.31371 2.686292,-6 6,-6 h 6 v 3 h 15 v -3 h 77.000005 6 c 3.3137,0 7.04788,2.85634 6,6 v 6 h -6 v -4.5 h -6 v 14.99999 h 6 v -4.49999 h 6 v 25.49999 h -6 v -4.5 h -6 v 15 h 6 v -4.5 h 6 v 6 c 0,3.31371 -2.6863,6 -6,6 h -6 -77.000005 -1.5 v 3 h -12 v -3 h -1.5 -6 c -3.313708,0 -7.047887,-2.85634 -6,-6 v -6 -31.49999 z" />
  <text
     x="46.000008"
     y="525.42151"
     id="svg_172"
     style="font-size:15px;font-family:sans-serif;text-anchor:end;fill:#282828;stroke-width:1.5">
    <tspan
       style="stroke-width:1.5"
       id="svg_173"
       y="561.42151"
       x="115.00001">おとの たかさ</tspan>
  </text>
  <text
     x="46.000008"
     y="525.42151"
     id="svg_174"
     style="font-size:10px;font-family:sans-serif;text-anchor:end;fill:#282828;stroke-width:1.5">
    <tspan
       style="stroke-width:1.5"
       id="svg_175"
       y="543.42151"
       x="115.00001">なまえ</tspan>
  </text>
  <text
     x="46.000008"
     y="525.42151"
     id="svg_176"
     style="font-size:10px;font-family:sans-serif;text-anchor:end;fill:#282828;stroke-width:1.5">
    <tspan
       style="stroke-width:1.5"
       id="svg_177"
       y="574.92151"
       x="115.00001">オクターヴの たかさ</tspan>
  </text>
  <path
     id="svg_180"
     style="fill:#77c428;fill-opacity:1;stroke:#57ad02;stroke-width:1.5;stroke-linecap:round;stroke-opacity:1"
     d="m 132.75001,526.17154 h 90 v 29.99999 h -90 v -11.99999 -1.5 h -9 v 4.49999 h -3 v -11.99999 h 3 v 4.5 h 9 v -1.5 z" />
  <text
     x="120.00001"
     y="525.42151"
     id="svg_181"
     style="font-size:15px;font-family:sans-serif;text-anchor:start;fill:#282828;stroke-width:1.5">
    <tspan
       style="stroke-width:1.5"
       id="svg_182"
       y="546.42151"
       x="139.5">レ</tspan>
  </text>
  <path
     id="svg_185"
     style="fill:#ff5293;fill-opacity:1;stroke:#ff2c76;stroke-width:1.5;stroke-linecap:round;stroke-opacity:1"
     d="m 132.75001,558.17154 h 90 v 29.99999 h -90 v -11.99999 -1.5 h -9 v 4.49999 h -3 v -11.99999 h 3 v 4.5 h 9 v -1.5 z" />
  <text
     x="120.00001"
     y="557.42151"
     id="svg_186"
     style="font-size:15px;font-family:sans-serif;text-anchor:start;fill:#282828;stroke-width:1.5">
    <tspan
       style="stroke-width:1.5"
       id="svg_187"
       y="578.42151"
       x="139.5">4</tspan>
  </text>
  <path
     id="svg_190"
     style="fill:#ff8b2d;fill-opacity:1;stroke:#e86b0e;stroke-width:1.5;stroke-linecap:round;stroke-opacity:1"
     d="m 14.750005,601.17154 0,-6 c 0,-3.31371 2.686292,-6 6,-6 l 6,0 0,3 15,0 0,-3 13.5,0 120.000005,0 6,0 c 3.31371,0 9.17396,5.04781 6,6 l 0,6 -6,0 0,-4.5 -6,0 0,14.99999 6,0 0,-4.49999 6,0 0,5.99999 c 0,3.31371 -2.68629,6 -6,6 l -6,0 -120.000005,0 -1.5,0 0,3 -12,0 0,-3 -1.5,0 -6,0 c -4.142136,0 -7.5,3.35786 -7.5,7.5 l 0,6 0,6 0,63 0,6 c 0,4.14214 3.357864,7.5 7.5,7.5 l 6,0 0,3 15,0 0,-3 12,0 0,9 0,9 0,6 c 0,3.31371 -2.686292,6 -6,6 l -6,0 -13.5,0 -1.5,0 0,3 -12,0 0,-3 -1.5,0 -6,0 c -3.313708,0 -6,-2.68629 -6,-6 l 0,-6 z" />
  <text
     x="14.000008"
     y="588.42151"
     id="svg_191"
     style="font-size:15px;font-family:sans-serif;text-anchor:start;fill:#282828;stroke-width:1.5">
    <tspan
       style="stroke-width:1.5"
       id="svg_192"
       y="610.92151"
       x="21.500008">連符（タプル）</tspan>
  </text>
  <text
     x="72.000008"
     y="588.42151"
     id="svg_193"
     style="font-size:10px;font-family:sans-serif;text-anchor:end;fill:#282828;stroke-width:1.5">
    <tspan
       style="stroke-width:1.5"
       id="svg_194"
       y="606.42151"
       x="169.5">おとの ながさ</tspan>
  </text>
  <text
     x="116.00001"
     y="588.42151"
     id="svg_200"
     style="font-size:9px;font-family:sans-serif;text-anchor:end;fill:#282828;stroke-width:1.5" />
  <text
     x="116.00001"
     y="588.42151"
     id="svg_202"
     style="font-size:9px;font-family:sans-serif;text-anchor:end;fill:#282828;stroke-width:1.5" />
  <g
     id="g3497"
     transform="translate(60,1.1715275)">
    <path
       d="m 128.75001,600.00001 0,-6 a 6,6 0 0 1 6,-6 l 6,0 15,0 45,0 6,0 a 6,6 0 0 1 6,6 l 0,6 -6,0 0,-4.5 -6,0 0,14.99999 6,0 0,-4.49999 6,0 0,25.49999 -6,0 0,-4.5 -6,0 0,15 6,0 0,-4.5 6,0 0,6 a 6,6 0 0 1 -6,6 l -6,0 -45,0 -15,0 -6,0 a 6,6 0 0 1 -6,-6 l 0,-6 0,-31.49999 0,-1.5 -9,0 0,4.49999 -3,0 0,-11.99999 3,0 0,4.5 9,0 z"
       style="fill:#ff5293;fill-opacity:1;stroke:#ff2c76;stroke-width:1.5;stroke-linecap:round;stroke-opacity:1"
       id="svg_197" />
    <text
       style="font-size:13.5px;font-family:sans-serif;text-anchor:end;fill:#282828;stroke-width:1.5"
       id="svg_198"
       y="587.25"
       x="116.00001">
      <tspan
         x="197"
         y="621.75"
         id="svg_199"
         style="stroke-width:1.5">➗</tspan>
    </text>
    <path
       d="m 214.75001,588.00001 90,0 0,29.99999 -90,0 0,-11.99999 0,-1.5 -9,0 0,4.49999 -3,0 0,-11.99999 3,0 0,4.5 9,0 0,-1.5 z"
       style="fill:#ff5293;fill-opacity:1;stroke:#ff2c76;stroke-width:1.5;stroke-linecap:round;stroke-opacity:1"
       id="svg_206" />
    <text
       style="font-size:15px;font-family:sans-serif;text-anchor:start;fill:#282828;stroke-width:1.5"
       id="svg_207"
       y="587.25"
       x="202">
      <tspan
         x="221.5"
         y="608.25"
         id="svg_208"
         style="stroke-width:1.5">1</tspan>
    </text>
    <path
       d="m 214.75001,620.00001 90,0 0,29.99999 -90,0 0,-11.99999 0,-1.5 -9,0 0,4.49999 -3,0 0,-11.99999 3,0 0,4.5 9,0 0,-1.5 z"
       style="fill:#ff5293;fill-opacity:1;stroke:#ff2c76;stroke-width:1.5;stroke-linecap:round;stroke-opacity:1"
       id="svg_211" />
    <text
       style="font-size:15px;font-family:sans-serif;text-anchor:start;fill:#282828;stroke-width:1.5"
       id="svg_212"
       y="619.25"
       x="202">
      <tspan
         x="221.5"
         y="640.25"
         id="svg_213"
         style="stroke-width:1.5">4</tspan>
    </text>
  </g>
  <path
     id="svg_216"
     style="fill:#b0b0b0;fill-opacity:1;stroke:#a0a0a0;stroke-width:1.5;stroke-linecap:round;stroke-opacity:1"
     d="m 28.750005,633.17154 0,-6 a 6,6 0 0 1 6,-6 l 6,0 0,3 15,0 0,-3 30,0 6,0 a 6,6 0 0 1 6,6 l 0,6 0,6 0,5.99999 a 6,6 0 0 1 -6,6 l -6,0 -30,0 -1.5,0 0,3 -12,0 0,-3 -1.5,0 -6,0 a 6,6 0 0 1 -6,-6 l 0,-5.99999 z" />
  <text
     x="28.000008"
     y="620.42151"
     id="svg_217"
     style="font-size:15px;font-family:sans-serif;text-anchor:end;fill:#282828;stroke-width:1.5">
    <tspan
       style="stroke-width:1.5"
       id="svg_218"
       y="641.42151"
       x="82.000008">↓</tspan>
  </text>
  <path
     id="svg_221"
     style="fill:#ff8b2d;fill-opacity:1;stroke:#e86b0e;stroke-width:1.5;stroke-linecap:round;stroke-opacity:1"
     d="m 28.750005,665.17154 0,-6 a 6,6 0 0 1 6,-6 l 6,0 0,3 15,0 0,-3 63.000005,0 6,0 a 6,6 0 0 1 6,6 l 0,6 -6,0 0,-4.5 -6,0 0,14.99999 6,0 0,-4.49999 6,0 0,25.49999 -6,0 0,-4.5 -6,0 0,15 6,0 0,-4.5 6,0 0,6 a 6,6 0 0 1 -6,6 l -6,0 -63.000005,0 -1.5,0 0,3 -12,0 0,-3 -1.5,0 -6,0 a 6,6 0 0 1 -6,-6 l 0,-6 0,-31.49999 z" />
  <text
     x="28.000008"
     y="652.42151"
     id="svg_222"
     style="font-size:15px;font-family:sans-serif;text-anchor:end;fill:#282828;stroke-width:1.5">
    <tspan
       style="stroke-width:1.5"
       id="svg_223"
       y="688.42151"
       x="115.00001">おんぷ</tspan>
  </text>
  <text
     x="28.000008"
     y="652.42151"
     id="svg_224"
     style="font-size:10px;font-family:sans-serif;text-anchor:end;fill:#282828;stroke-width:1.5">
    <tspan
       style="stroke-width:1.5"
       id="svg_225"
       y="670.42151"
       x="115.00001">おんぷの かず</tspan>
  </text>
  <text
     x="28.000008"
     y="652.42151"
     id="svg_226"
     style="font-size:10px;font-family:sans-serif;text-anchor:end;fill:#282828;stroke-width:1.5">
    <tspan
       style="stroke-width:1.5"
       id="svg_227"
       y="701.92151"
       x="115.00001">おとの ながさ</tspan>
  </text>
  <path
     id="svg_230"
     style="fill:#ff5293;fill-opacity:1;stroke:#ff2c76;stroke-width:1.5;stroke-linecap:round;stroke-opacity:1"
     d="m 132.75001,653.17154 90,0 0,29.99999 -90,0 0,-11.99999 0,-1.5 -9,0 0,4.49999 -3,0 0,-11.99999 3,0 0,4.5 9,0 0,-1.5 z" />
  <text
     x="120.00001"
     y="652.42151"
     id="svg_231"
     style="font-size:15px;font-family:sans-serif;text-anchor:start;fill:#282828;stroke-width:1.5">
    <tspan
       style="stroke-width:1.5"
       id="svg_232"
       y="673.42151"
       x="139.5">3</tspan>
  </text>
  <path
     id="svg_235"
     style="fill:#ff5293;fill-opacity:1;stroke:#ff2c76;stroke-width:1.5;stroke-linecap:round;stroke-opacity:1"
     d="m 132.75001,697.17154 0,-6 a 6,6 0 0 1 6,-6 l 6,0 15,0 45,0 6,0 a 6,6 0 0 1 6,6 l 0,6 -6,0 0,-4.5 -6,0 0,14.99999 6,0 0,-4.49999 6,0 0,25.49999 -6,0 0,-4.5 -6,0 0,15 6,0 0,-4.5 6,0 0,6 a 6,6 0 0 1 -6,6 l -6,0 -45,0 -15,0 -6,0 a 6,6 0 0 1 -6,-6 l 0,-6 0,-31.49999 0,-1.5 -9,0 0,4.49999 -3,0 0,-11.99999 3,0 0,4.5 9,0 z" />
  <text
     x="120.00001"
     y="684.42151"
     id="svg_236"
     style="font-size:13.5px;font-family:sans-serif;text-anchor:end;fill:#282828;stroke-width:1.5">
    <tspan
       style="stroke-width:1.5"
       id="svg_237"
       y="718.92151"
       x="201">➗</tspan>
  </text>
  <text
     x="120.00001"
     y="684.42151"
     id="svg_238"
     style="font-size:9px;font-family:sans-serif;text-anchor:end;fill:#282828;stroke-width:1.5" />
  <text
     x="120.00001"
     y="684.42151"
     id="svg_240"
     style="font-size:9px;font-family:sans-serif;text-anchor:end;fill:#282828;stroke-width:1.5" />
  <path
     id="svg_244"
     style="fill:#ff5293;fill-opacity:1;stroke:#ff2c76;stroke-width:1.5;stroke-linecap:round;stroke-opacity:1"
     d="m 218.75001,685.17154 90,0 0,29.99999 -90,0 0,-11.99999 0,-1.5 -9,0 0,4.49999 -3,0 0,-11.99999 3,0 0,4.5 9,0 0,-1.5 z" />
  <text
     x="206"
     y="684.42151"
     id="svg_245"
     style="font-size:15px;font-family:sans-serif;text-anchor:start;fill:#282828;stroke-width:1.5">
    <tspan
       style="stroke-width:1.5"
       id="svg_246"
       y="705.42151"
       x="225.5">1</tspan>
  </text>
  <path
     id="svg_249"
     style="fill:#ff5293;fill-opacity:1;stroke:#ff2c76;stroke-width:1.5;stroke-linecap:round;stroke-opacity:1"
     d="m 218.75001,717.17154 90,0 0,29.99999 -90,0 0,-11.99999 0,-1.5 -9,0 0,4.49999 -3,0 0,-11.99999 3,0 0,4.5 9,0 0,-1.5 z" />
  <text
     x="206"
     y="716.42151"
     id="svg_250"
     style="font-size:15px;font-family:sans-serif;text-anchor:start;fill:#282828;stroke-width:1.5">
    <tspan
       style="stroke-width:1.5"
       id="svg_251"
       y="737.42151"
       x="225.5">16</tspan>
  </text>
</svg>
