<?xml version="1.0" encoding="UTF-8" standalone="no"?>
<svg
   xmlns:dc="http://purl.org/dc/elements/1.1/"
   xmlns:cc="http://creativecommons.org/ns#"
   xmlns:rdf="http://www.w3.org/1999/02/22-rdf-syntax-ns#"
   xmlns:svg="http://www.w3.org/2000/svg"
   xmlns="http://www.w3.org/2000/svg"
   width="58.737495mm"
   height="9.1281252mm"
   viewBox="0 0 58.737495 9.1281252"
   version="1.1"
   id="svg1870">
  <defs
     id="defs1864" />
  <metadata
     id="metadata1867">
    <rdf:RDF>
      <cc:Work
         rdf:about="">
        <dc:format>image/svg+xml</dc:format>
        <dc:type
           rdf:resource="http://purl.org/dc/dcmitype/StillImage" />
        <dc:title></dc:title>
      </cc:Work>
    </rdf:RDF>
  </metadata>
  <g
     id="layer1"
     transform="translate(-136.55216,-192.21369)">
    <text
       style="font-size:2.64583325px;font-family:sans-serif;text-anchor:end;fill:#282828;stroke-width:0.39687499"
       id="text572"
       x="142.19659"
       y="192.21368">
      <tspan
         x="160.45285"
         y="196.9762"
         id="tspan570"
         style="stroke-width:0.39687499" />
    </text>
    <text
       id="text3783"
       style="font-size:2.64583325px;font-family:sans-serif;text-anchor:end;fill:#282828;stroke-width:0.39687499"
       x="142.19659"
       y="192.21368">
      <tspan
         id="tspan3781"
         y="196.9762"
         x="160.45285"
         style="stroke-width:0.39687499" />
    </text>
    <g
       id="g676"
       transform="matrix(0.26458333,0,0,0.26458333,142.1966,192.21369)">
      <g
         transform="scale(1.5,1.5)"
         id="g674">
        <path
           d="m -13.722222,8.5 0,-4 c 0,-2.209139 1.790861,-4 3.9999995,-4 l 4,0 0,2 10,0 0,-2 44.2222225,0 4,0 c 2.209139,0 4,1.790861 4,4 l 0,4 -4,0 0,-3 -4,0 0,10 4,0 0,-3 4,0 0,4 c 0,2.209139 -1.790861,4 -4,4 l -4,0 -44.2222225,0 -1,0 0,2 -8,0 0,-2 -1,0 -4,0 c -2.2091385,0 -6.1266295,-3.401885 -3.9999995,-4 l 0,-4 z"
           style="fill:#ff5942;fill-opacity:1;stroke:#ea4326;stroke-width:1;stroke-linecap:round;stroke-opacity:1"
           id="path664" />
        <text
           style="font-size:10px;font-family:sans-serif;text-anchor:end;fill:#282828"
           id="text668">
          <tspan
             x="46"
             y="14"
             id="tspan666">こえを だす</tspan>
        </text>
        <text
           style="font-size:6.66666651px;font-family:sans-serif;text-anchor:end;fill:#282828"
           id="text672">
          <tspan
             x="46"
             y="12"
             id="tspan670" />
        </text>
      </g>
    </g>
    <g
       transform="matrix(0.26458333,0,0,0.26458333,161.64347,192.21369)"
       id="g686">
      <g
         transform="scale(1.5,1.5)"
         id="g684">
        <path
           d="m 8.5,0.5 75.777778,0 0,20 -75.777778,0 0,-8 0,-1 -6,0 0,3 -2,0 0,-8 2,0 0,3 6,0 0,-1 z"
           style="fill:#ff5942;fill-opacity:1;stroke:#ea4326;stroke-width:1;stroke-linecap:round;stroke-opacity:1"
           id="path678" />
        <text
           style="font-size:10px;font-family:sans-serif;text-anchor:start;fill:#282828"
           id="text682">
          <tspan
             x="13"
             y="14"
             id="tspan680">こんにちは</tspan>
        </text>
      </g>
    </g>
  </g>
</svg>
