<?xml version="1.0" encoding="UTF-8" standalone="no"?>
<svg
   id="svg3651"
   version="1.1"
   viewBox="0 0 80.830215 253.42931"
   height="253.42931mm"
   width="80.830215mm"
   xmlns="http://www.w3.org/2000/svg"
   xmlns:svg="http://www.w3.org/2000/svg"
   xmlns:rdf="http://www.w3.org/1999/02/22-rdf-syntax-ns#"
   xmlns:cc="http://creativecommons.org/ns#"
   xmlns:dc="http://purl.org/dc/elements/1.1/">
  <defs
     id="defs3645" />
  <metadata
     id="metadata3648">
    <rdf:RDF>
      <cc:Work
         rdf:about="">
        <dc:format>image/svg+xml</dc:format>
        <dc:type
           rdf:resource="http://purl.org/dc/dcmitype/StillImage" />
      </cc:Work>
    </rdf:RDF>
  </metadata>
  <path
     id="path60"
     style="fill:#ffbf00;fill-opacity:1;stroke:#daaf30;stroke-width:0.396875;stroke-linecap:round;stroke-opacity:1"
     d="m 0.19843348,72.012052 v -1.5875 a 1.5875,1.5875 0 0 1 1.58750002,-1.5875 h 1.5875 l 1.984375,-2.38125 1.984375,2.38125 h 3.5718745 23.8125 1.5875 a 1.5875,1.5875 0 0 1 1.5875,1.5875 v 1.5875 h -1.5875 v -1.190625 h -1.5875 v 3.96875 h 1.5875 v -1.190625 h 1.5875 v 1.5875 a 1.5875,1.5875 0 0 1 -1.5875,1.5875 h -1.5875 -23.8125 -0.396875 v 0.79375 H 7.3421835 v -0.79375 h -0.396875 -1.5875 a 1.984375,1.984375 0 0 0 -1.984375,1.984375 v 1.5875 1.5875 33.337503 1.5875 a 1.984375,1.984375 0 0 0 1.984375,1.98437 h 1.5875 v 0.79375 h 3.9687495 v -0.79375 h 3.175 v 2.38125 2.38125 1.5875 a 1.5875,1.5875 0 0 1 -1.5875,1.5875 h -1.5875 -3.5718745 l -1.984375,2.38125 -1.984375,-2.38125 h -1.5875 a 1.5875,1.5875 0 0 1 -1.58750002,-1.5875 v -1.5875 z" />
  <text
     id="text64"
     style="font-size:3.96875px;font-family:sans-serif;text-anchor:start;fill:#282828;stroke-width:0.396875"
     x="-4.0199998e-06"
     y="66.257362"><tspan
       id="tspan62"
       y="74.988617"
       x="7.9374962"
       style="stroke-width:0.396875">アクション</tspan></text>
  <text
     id="text68"
     style="font-size:2.64583px;font-family:sans-serif;text-anchor:end;fill:#282828;stroke-width:0.396875"
     x="-4.0199998e-06"
     y="66.257362"><tspan
       id="tspan66"
       y="68.638618"
       x="33.734371"
       style="stroke-width:0.396875" /></text>
  <rect
     y="69.432365"
     x="-4.0199998e-06"
     id="rect74"
     style="opacity:0.4;isolation:isolate;mix-blend-mode:multiply;fill:#292929;stroke-width:0.132292"
     ry="0.66145831"
     rx="0.66145831"
     height="5.5562496"
     width="5.5562496" />
  <path
     id="path76"
     style="isolation:isolate;fill:#ffffff;stroke-width:0.132292"
     d="M 4.0428291,73.374656 3.4911729,72.824323 H 3.790152 a 0.136922,0.136922 0 1 0 0,-0.273844 H 3.1670583 a 0.14287499,0.14287499 0 0 0 -0.1468437,0.132292 v 0 c 0,0 0,0 0,0.0079 v 0.613833 0 a 0.13758333,0.13758333 0 1 0 0.2751666,0 v -0.289719 l 0.5543021,0.554302 a 0.13229166,0.13229166 0 0 0 0.1931458,0 0.13229166,0.13229166 0 0 0 0,-0.194469 z" />
  <path
     id="path78"
     style="isolation:isolate;fill:#ffffff;stroke-width:0.132292"
     d="M 2.5360271,72.68674 A 0.14287499,0.14287499 0 0 0 2.3891834,72.554448 H 1.7660896 a 0.136922,0.136922 0 1 0 0,0.273844 h 0.2976563 l -0.5503333,0.546364 a 0.13751024,0.13751024 0 0 0 0.1944687,0.194469 l 0.5529791,-0.554302 v 0.298979 a 0.13758335,0.13758335 0 1 0 0.2751667,0 v -0.613833 c 0,0 0,0 0,-0.0079 a 0.01058333,0.01058333 0 0 1 0,-0.0053 z" />
  <path
     id="path80"
     style="isolation:isolate;fill:#ffffff;stroke-width:0.132292"
     d="m 3.1670583,72.144344 h 0.6217708 a 0.1375835,0.1375835 0 1 0 0,-0.275167 H 3.4911729 l 0.5516562,-0.550333 a 0.13229166,0.13229166 0 0 0 0,-0.194469 0.13229166,0.13229166 0 0 0 -0.1931458,0 l -0.5543021,0.556948 v -0.301625 a 0.13758333,0.13758333 0 1 0 -0.2751666,0 v 0.613834 a 0.05688541,0.05688541 0 0 0 0,0.0066 v 0.0066 a 0.14419791,0.14419791 0 0 0 0.1468437,0.137583 z" />
  <path
     id="path82"
     style="isolation:isolate;fill:#ffffff;stroke-width:0.132292"
     d="m 2.3984438,71.234177 a 0.14287499,0.14287499 0 0 0 -0.1322917,0.144198 v 0.302948 L 1.713173,71.127021 a 0.13229166,0.13229166 0 0 0 -0.1944688,0 0.13229166,0.13229166 0 0 0 0,0.193146 l 0.5503333,0.551656 H 1.7660896 a 0.1375835,0.1375835 0 1 0 0,0.275167 h 0.6230938 a 0.14419791,0.14419791 0 0 0 0.1468437,-0.132292 c 0,0 0,0 0,-0.0079 V 71.378375 A 0.14155208,0.14155208 0 0 0 2.3984438,71.234177 Z" />
  <path
     id="path94"
     style="fill:#ff664b;fill-opacity:1;stroke:#ea4326;stroke-width:0.396875;stroke-linecap:round;stroke-opacity:1"
     d="m 38.298434,68.837052 h 35.718749 v 7.9375 H 38.298434 v -3.174999 -0.396875 h -2.381251 v 1.190625 h -0.79375 v -3.175 h 0.79375 v 1.190625 h 2.381251 v -0.396876 z" />
  <text
     id="text98"
     style="font-size:3.96875px;font-family:sans-serif;text-anchor:start;fill:#282828;stroke-width:0.396875"
     x="34.924995"
     y="68.638618"><tspan
       id="tspan96"
       y="74.194862"
       x="40.08437"
       style="stroke-width:0.396875">アクション2</tspan></text>
  <path
     id="path148"
     style="fill:#fe994f;fill-opacity:1;stroke:#e86b0e;stroke-width:0.396875;stroke-linecap:round;stroke-opacity:1"
     d="M 3.9026001,80.478719 V 78.89122 a 1.5875,1.5875 0 0 1 1.5875,-1.587501 h 1.5875 V 78.09747 H 11.04635 v -0.793751 h 3.571875 15.875 1.5875 a 1.5875,1.5875 0 0 1 1.5875,1.587501 v 1.587499 h -1.5875 v -1.190625 h -1.5875 v 3.96875 h 1.5875 V 82.06622 h 1.5875 v 1.5875 a 1.5875,1.5875 0 0 1 -1.5875,1.587499 h -1.5875 -15.875 -0.396875 v 0.793751 h -3.175 V 85.241219 H 10.649475 9.0619751 a 1.984375,1.984375 0 0 0 -1.984375,1.984375 v 1.587501 1.587499 16.668746 1.5875 a 1.984375,1.984375 0 0 0 1.984375,1.98438 h 1.5874999 v 0.79375 h 3.96875 v -0.79375 h 3.175 v 2.38125 2.38125 1.5875 a 1.5875,1.5875 0 0 1 -1.5875,1.5875 h -1.5875 -3.571875 -0.396875 v 0.79375 H 7.4744751 v -0.79375 h -0.396875 -1.5875 a 1.5875,1.5875 0 0 1 -1.5875,-1.5875 v -1.5875 z" />
  <text
     id="text152"
     style="font-size:3.96875px;font-family:sans-serif;text-anchor:start;fill:#282828;stroke-width:0.396875"
     x="3.7041626"
     y="77.105286"><tspan
       id="tspan150"
       y="83.058411"
       x="11.641663"
       style="stroke-width:0.396875">おんぷ</tspan></text>
  <text
     id="text156"
     style="font-size:2.64583px;font-family:sans-serif;text-anchor:end;fill:#282828;stroke-width:0.396875"
     x="3.7041626"
     y="77.105286"><tspan
       id="tspan154"
       y="81.867783"
       x="29.501038"
       style="stroke-width:0.396875">あたい</tspan></text>
  <rect
     y="78.163612"
     x="3.7041626"
     id="rect162"
     style="opacity:0.4;isolation:isolate;mix-blend-mode:multiply;fill:#292929;stroke-width:0.132292"
     ry="0.66145831"
     rx="0.66145831"
     height="5.5562496"
     width="5.5562496" />
  <path
     id="path164"
     style="isolation:isolate;fill:#ffffff;stroke-width:0.132292"
     d="M 7.7469957,82.105906 7.1953395,81.555573 h 0.2989792 a 0.136922,0.136922 0 1 0 0,-0.273844 H 6.8712249 a 0.14287499,0.14287499 0 0 0 -0.1468437,0.132292 v 0 c 0,0 0,0 0,0.0079 v 0.613833 0 a 0.13758335,0.13758335 0 1 0 0.2751667,0 v -0.289719 l 0.554302,0.554302 a 0.13229166,0.13229166 0 0 0 0.1931458,0 0.13229166,0.13229166 0 0 0 0,-0.194469 z" />
  <path
     id="path166"
     style="isolation:isolate;fill:#ffffff;stroke-width:0.132292"
     d="M 6.2401937,81.41799 A 0.14287499,0.14287499 0 0 0 6.09335,81.285698 H 5.4702563 a 0.136922,0.136922 0 1 0 0,0.273844 h 0.2976562 l -0.5503333,0.546364 a 0.13751024,0.13751024 0 0 0 0.1944687,0.194469 l 0.5529792,-0.554302 v 0.298979 a 0.13758333,0.13758333 0 1 0 0.2751666,0 v -0.613833 c 0,0 0,0 0,-0.0079 a 0.01058333,0.01058333 0 0 1 0,-0.0053 z" />
  <path
     id="path168"
     style="isolation:isolate;fill:#ffffff;stroke-width:0.132292"
     d="m 6.8712249,80.875594 h 0.6217708 a 0.1375835,0.1375835 0 1 0 0,-0.275167 H 7.1953395 l 0.5516562,-0.550333 a 0.13229166,0.13229166 0 0 0 0,-0.194469 0.13229166,0.13229166 0 0 0 -0.1931458,0 l -0.554302,0.556948 v -0.301625 a 0.13758335,0.13758335 0 1 0 -0.2751667,0 v 0.613834 a 0.05688541,0.05688541 0 0 0 0,0.0066 v 0.0066 a 0.14419791,0.14419791 0 0 0 0.1468437,0.137583 z" />
  <path
     id="path170"
     style="isolation:isolate;fill:#ffffff;stroke-width:0.132292"
     d="m 6.1026104,79.965427 a 0.14287499,0.14287499 0 0 0 -0.1322917,0.144198 v 0.302948 L 5.4173396,79.858271 a 0.13229166,0.13229166 0 0 0 -0.1944687,0 0.13229166,0.13229166 0 0 0 0,0.193146 l 0.5503333,0.551656 H 5.4702563 a 0.1375835,0.1375835 0 1 0 0,0.275167 H 6.09335 a 0.14419791,0.14419791 0 0 0 0.1468437,-0.132292 c 0,0 0,0 0,-0.0079 V 80.109625 A 0.14155208,0.14155208 0 0 0 6.1026104,79.965427 Z" />
  <path
     id="path182"
     style="fill:#ff6ea1;fill-opacity:1;stroke:#ff2c76;stroke-width:0.396875;stroke-linecap:round;stroke-opacity:1"
     d="M 34.0651,80.478719 V 78.89122 a 1.5875,1.5875 0 0 1 1.587499,-1.587501 h 1.5875 3.96875 11.90625 1.5875 a 1.5875,1.5875 0 0 1 1.5875,1.587501 v 1.587499 h -1.5875 v -1.190625 h -1.5875 v 3.96875 h 1.5875 V 82.06622 h 1.5875 v 6.746875 h -1.5875 v -1.190626 h -1.5875 v 3.96875 h 1.5875 v -1.190625 h 1.5875 v 1.587501 a 1.5875,1.5875 0 0 1 -1.5875,1.587499 h -1.5875 -11.90625 -3.96875 -1.5875 A 1.5875,1.5875 0 0 1 34.0651,91.988095 V 90.400594 82.06622 81.669345 H 31.683849 V 82.85997 H 30.8901 v -3.175 h 0.793749 v 1.190625 H 34.0651 Z" />
  <text
     id="text186"
     style="font-size:3.57188px;font-family:sans-serif;text-anchor:end;fill:#282828;stroke-width:0.396875"
     x="30.691662"
     y="77.105286"><tspan
       id="tspan184"
       y="86.233406"
       x="52.122913"
       style="stroke-width:0.396875">/</tspan></text>
  <text
     id="text190"
     style="font-size:2.38125px;font-family:sans-serif;text-anchor:end;fill:#282828;stroke-width:0.396875"
     x="30.691662"
     y="77.105286"><tspan
       id="tspan188"
       y="81.867783"
       x="52.122913"
       style="stroke-width:0.396875" /></text>
  <text
     id="text194"
     style="font-size:2.38125px;font-family:sans-serif;text-anchor:end;fill:#282828;stroke-width:0.396875"
     x="30.691662"
     y="77.105286"><tspan
       id="tspan192"
       y="90.202156"
       x="52.122913"
       style="stroke-width:0.396875" /></text>
  <path
     id="path200"
     style="fill:#ff6ea1;fill-opacity:1;stroke:#ff2c76;stroke-width:0.396875;stroke-linecap:round;stroke-opacity:1"
     d="m 56.819267,77.303719 h 23.812499 v 7.9375 H 56.819267 V 82.06622 81.669345 h -2.38125 v 1.190625 h -0.793751 v -3.175 h 0.793751 v 1.190625 h 2.38125 v -0.396876 z" />
  <text
     id="text204"
     style="font-size:3.96875px;font-family:sans-serif;text-anchor:start;fill:#282828;stroke-width:0.396875"
     x="53.445827"
     y="77.105286"><tspan
       id="tspan202"
       y="82.66153"
       x="58.605206"
       style="stroke-width:0.396875">1</tspan></text>
  <path
     id="path210"
     style="fill:#ff6ea1;fill-opacity:1;stroke:#ff2c76;stroke-width:0.396875;stroke-linecap:round;stroke-opacity:1"
     d="m 56.819267,85.770386 h 23.812499 v 7.9375 H 56.819267 v -3.174999 -0.396875 h -2.38125 v 1.190625 h -0.793751 v -3.175 h 0.793751 v 1.190625 h 2.38125 v -0.396876 z" />
  <text
     id="text214"
     style="font-size:3.96875px;font-family:sans-serif;text-anchor:start;fill:#282828;stroke-width:0.396875"
     x="53.445827"
     y="85.571945"><tspan
       id="tspan212"
       y="91.128197"
       x="58.605206"
       style="stroke-width:0.396875">4</tspan></text>
  <path
     id="path220"
     style="fill:#c4c4c4;fill-opacity:1;stroke:#a0a0a0;stroke-width:0.396875;stroke-linecap:round;stroke-opacity:1"
     d="m 7.6067667,88.945386 v -1.587499 a 1.5875,1.5875 0 0 1 1.5875,-1.587501 h 1.5875003 v 0.793751 h 3.96875 v -0.793751 h 7.9375 1.5875 a 1.5875,1.5875 0 0 1 1.5875,1.587501 v 1.587499 1.587501 1.5875 a 1.5875,1.5875 0 0 1 -1.5875,1.587499 h -1.5875 -7.9375 -0.396875 v 0.793751 h -3.175 V 93.707886 H 10.781767 9.1942667 a 1.5875,1.5875 0 0 1 -1.5875,-1.587499 v -1.5875 z" />
  <text
     id="text224"
     style="font-size:3.96875px;font-family:sans-serif;text-anchor:end;fill:#282828;stroke-width:0.396875"
     x="7.408329"
     y="85.571945"><tspan
       id="tspan222"
       y="91.128197"
       x="21.695829"
       style="stroke-width:0.396875">↓</tspan></text>
  <path
     id="path230"
     style="fill:#7cd622;fill-opacity:1;stroke:#57ad02;stroke-width:0.396875;stroke-linecap:round;stroke-opacity:1"
     d="m 7.6067667,97.412052 v -1.5875 c 0,-0.876752 0.710748,-1.5875 1.5875,-1.5875 h 1.5875003 v 0.79375 h 3.96875 v -0.79375 H 34.0651 35.6526 c 0.876752,0 1.5875,0.710748 1.5875,1.5875 v 1.5875 h -1.5875 v -1.190625 h -1.5875 v 3.968753 h 1.5875 v -1.190628 h 1.5875 v 6.746878 h -1.5875 v -1.19063 h -1.5875 v 3.96875 h 1.5875 v -1.19062 h 1.5875 v 1.5875 c 0,0.87675 -0.710748,1.5875 -1.5875,1.5875 H 34.0651 14.750517 14.353642 v 0.79375 h -3.175 v -0.79375 H 10.781767 9.1942667 c -0.876752,0 -1.5875,-0.71075 -1.5875,-1.5875 v -1.5875 -8.334378 z" />
  <text
     id="text234"
     style="font-size:3.96875px;font-family:sans-serif;text-anchor:end;fill:#282828;stroke-width:0.396875"
     x="14.816658"
     y="94.038612"><tspan
       id="tspan232"
       y="103.56361"
       x="33.072918"
       style="stroke-width:0.396875">おとの たかさ</tspan></text>
  <text
     id="text238"
     style="font-size:2.64583px;font-family:sans-serif;text-anchor:end;fill:#282828;stroke-width:0.396875"
     x="14.816658"
     y="94.038612"><tspan
       id="tspan236"
       y="98.801117"
       x="33.072918"
       style="stroke-width:0.396875">なまえ</tspan></text>
  <text
     id="text242"
     style="font-size:2.64583px;font-family:sans-serif;text-anchor:end;fill:#282828;stroke-width:0.396875"
     x="14.816658"
     y="94.038612"><tspan
       id="tspan240"
       y="107.13549"
       x="33.072918"
       style="stroke-width:0.396875">オクターヴの たかさ</tspan></text>
  <path
     id="path248"
     style="fill:#7cd622;fill-opacity:1;stroke:#57ad02;stroke-width:0.396875;stroke-linecap:round;stroke-opacity:1"
     d="m 37.769272,94.237052 h 23.8125 v 7.937498 h -23.8125 v -3.174998 -0.396875 h -2.381251 v 1.190625 h -0.79375 v -3.175 h 0.79375 v 1.190625 h 2.381251 v -0.396875 z" />
  <text
     id="text252"
     style="font-size:3.96875px;font-family:sans-serif;text-anchor:start;fill:#282828;stroke-width:0.396875"
     x="34.395836"
     y="94.038612"><tspan
       id="tspan250"
       y="99.594864"
       x="39.55521"
       style="stroke-width:0.396875">sol</tspan></text>
  <path
     id="path258"
     style="fill:#ff6ea1;fill-opacity:1;stroke:#ff2c76;stroke-width:0.396875;stroke-linecap:round;stroke-opacity:1"
     d="m 37.769272,102.70372 h 23.8125 v 7.9375 h -23.8125 v -3.175 -0.39688 h -2.381251 v 1.19063 h -0.79375 v -3.175 h 0.79375 v 1.19062 h 2.381251 v -0.39687 z" />
  <text
     id="text262"
     style="font-size:3.96875px;font-family:sans-serif;text-anchor:start;fill:#282828;stroke-width:0.396875"
     x="34.395836"
     y="102.50528"><tspan
       id="tspan260"
       y="108.06153"
       x="39.55521"
       style="stroke-width:0.396875">4</tspan></text>
  <path
     id="path104"
     style="fill:#ffbf00;fill-opacity:1;stroke:#daaf30;stroke-width:0.396875;stroke-linecap:round;stroke-opacity:1"
     d="m 0.19844053,5.8662191 v -1.5875 a 1.5875,1.5875 0 0 1 1.58749997,-1.5875 h 1.5875 l 1.984375,-2.38125002 1.984375,2.38125002 h 3.5718755 23.8125 1.5875 a 1.5875,1.5875 0 0 1 1.5875,1.5875 v 1.5875 h -1.5875 v -1.190625 h -1.5875 v 3.96875 h 1.5875 v -1.190625 h 1.5875 v 1.5875 a 1.5875,1.5875 0 0 1 -1.5875,1.5874999 h -1.5875 -23.8125 -0.396875 v 0.79375 H 7.3421905 v -0.79375 h -0.396875 -1.5875 a 1.984375,1.984375 0 0 0 -1.984375,1.984375 v 1.5875 1.5875 33.3375 1.5875 a 1.984375,1.984375 0 0 0 1.984375,1.984375 h 1.5875 v 0.79375 h 3.9687505 v -0.79375 h 3.175 v 2.38125 2.38125 1.5875 a 1.5875,1.5875 0 0 1 -1.5875,1.5875 h -1.5875 -3.5718755 l -1.984375,2.38125 -1.984375,-2.38125 h -1.5875 a 1.5875,1.5875 0 0 1 -1.58749997,-1.5875 v -1.5875 z" />
  <text
     id="text108"
     style="font-size:3.96875px;font-family:sans-serif;text-anchor:start;fill:#282828;stroke-width:0.396875"
     x="3.03e-06"
     y="0.11153158"><tspan
       id="tspan106"
       y="8.842782"
       x="7.9375029"
       style="stroke-width:0.396875">アクション</tspan></text>
  <text
     id="text112"
     style="font-size:2.64583px;font-family:sans-serif;text-anchor:end;fill:#282828;stroke-width:0.396875"
     x="3.03e-06"
     y="0.11153158"><tspan
       id="tspan110"
       y="2.4927816"
       x="33.734379"
       style="stroke-width:0.396875" /></text>
  <rect
     y="3.2865314"
     x="3.03e-06"
     id="rect118"
     style="opacity:0.4;isolation:isolate;mix-blend-mode:multiply;fill:#292929;stroke-width:0.132292"
     ry="0.66145831"
     rx="0.66145831"
     height="5.5562496"
     width="5.5562496" />
  <path
     id="path120"
     style="isolation:isolate;fill:#ffffff;stroke-width:0.132292"
     d="M 4.0428362,7.228823 3.4911799,6.6784897 h 0.2989792 a 0.1369219,0.1369219 0 1 0 0,-0.2738438 H 3.1670654 A 0.14287499,0.14287499 0 0 0 3.0202216,6.5369376 v 0 c 0,0 0,0 0,0.00794 v 0.6138333 0 a 0.13758335,0.13758335 0 1 0 0.2751667,0 V 6.8689897 l 0.554302,0.554302 a 0.13229166,0.13229166 0 0 0 0.1931459,0 0.13229166,0.13229166 0 0 0 0,-0.1944687 z" />
  <path
     id="path122"
     style="isolation:isolate;fill:#ffffff;stroke-width:0.132292"
     d="M 2.5360342,6.5409063 A 0.14287499,0.14287499 0 0 0 2.3891904,6.4086147 H 1.7660967 a 0.13692187,0.13692187 0 1 0 0,0.2738437 H 2.0637529 L 1.5134196,7.228823 a 0.13751017,0.13751017 0 0 0 0.1944688,0.1944687 l 0.5529791,-0.554302 v 0.2989791 a 0.13758335,0.13758335 0 1 0 0.2751667,0 V 6.5541355 c 0,0 0,0 0,-0.00794 a 0.01058333,0.01058333 0 0 1 0,-0.00529 z" />
  <path
     id="path124"
     style="isolation:isolate;fill:#ffffff;stroke-width:0.132292"
     d="m 3.1670654,5.9985105 h 0.6217708 a 0.13758333,0.13758333 0 1 0 0,-0.2751666 H 3.4911799 L 4.0428362,5.1730106 a 0.13229166,0.13229166 0 0 0 0,-0.1944688 0.13229166,0.13229166 0 0 0 -0.1931459,0 l -0.554302,0.5569479 v -0.301625 a 0.13758335,0.13758335 0 1 0 -0.2751667,0 V 5.847698 a 0.05688541,0.05688541 0 0 0 0,0.00661 v 0.00661 a 0.14419791,0.14419791 0 0 0 0.1468438,0.1375833 z" />
  <path
     id="path126"
     style="isolation:isolate;fill:#ffffff;stroke-width:0.132292"
     d="M 2.3984508,5.0883439 A 0.14287499,0.14287499 0 0 0 2.2661592,5.2325418 V 5.5354897 L 1.71318,4.9811877 a 0.13229166,0.13229166 0 0 0 -0.1944687,0 0.13229166,0.13229166 0 0 0 0,0.1931458 L 2.0690446,5.7259897 H 1.7660967 a 0.13758335,0.13758335 0 1 0 0,0.2751667 H 2.3891904 A 0.14419791,0.14419791 0 0 0 2.5360342,5.8688647 c 0,0 0,0 0,-0.00794 V 5.2325418 A 0.14155208,0.14155208 0 0 0 2.3984508,5.0883439 Z" />
  <path
     id="path138"
     style="fill:#ff664b;fill-opacity:1;stroke:#ea4326;stroke-width:0.396875;stroke-linecap:round;stroke-opacity:1"
     d="M 38.29844,2.6912191 H 74.01719 V 10.628719 H 38.29844 V 7.4537191 7.0568441 h -2.38125 v 1.190625 h -0.79375 v -3.175 h 0.79375 v 1.190625 h 2.38125 v -0.396875 z" />
  <text
     id="text142"
     style="font-size:3.96875px;font-family:sans-serif;text-anchor:start;fill:#282828;stroke-width:0.396875"
     x="34.925003"
     y="2.4927816"><tspan
       id="tspan140"
       y="8.0490313"
       x="40.084377"
       style="stroke-width:0.396875">アクション1</tspan></text>
  <path
     id="path268"
     style="fill:#fe994f;fill-opacity:1;stroke:#e86b0e;stroke-width:0.396875;stroke-linecap:round;stroke-opacity:1"
     d="m 3.9026071,14.332886 v -1.587501 a 1.5875,1.5875 0 0 1 1.5875,-1.587499 h 1.5875 v 0.79375 h 3.9687499 v -0.79375 h 3.571875 15.875 1.5875 a 1.5875,1.5875 0 0 1 1.5875,1.587499 v 1.587501 h -1.5875 V 13.14226 h -1.5875 v 3.96875 h 1.5875 v -1.190624 h 1.5875 v 1.587499 a 1.5875,1.5875 0 0 1 -1.5875,1.5875 h -1.5875 -15.875 -0.396875 v 0.793751 h -3.175 V 19.095385 H 10.649482 9.0619821 a 1.984375,1.984375 0 0 0 -1.984375,1.984375 v 1.5875 1.5875 16.66875 1.5875 a 1.984375,1.984375 0 0 0 1.984375,1.984375 h 1.5874999 v 0.79375 h 3.96875 v -0.79375 h 3.175 v 2.38125 2.38125 1.5875 a 1.5875,1.5875 0 0 1 -1.5875,1.5875 h -1.5875 -3.571875 -0.396875 v 0.79375 H 7.4744821 v -0.79375 h -0.396875 -1.5875 a 1.5875,1.5875 0 0 1 -1.5875,-1.5875 v -1.5875 z" />
  <text
     id="text272"
     style="font-size:3.96875px;font-family:sans-serif;text-anchor:start;fill:#282828;stroke-width:0.396875"
     x="3.7041695"
     y="10.959448"><tspan
       id="tspan270"
       y="16.912573"
       x="11.641669"
       style="stroke-width:0.396875">おんぷ</tspan></text>
  <text
     id="text276"
     style="font-size:2.64583px;font-family:sans-serif;text-anchor:end;fill:#282828;stroke-width:0.396875"
     x="3.7041695"
     y="10.959448"><tspan
       id="tspan274"
       y="15.721948"
       x="29.501045"
       style="stroke-width:0.396875">あたい</tspan></text>
  <rect
     y="12.017781"
     x="3.7041695"
     id="rect282"
     style="opacity:0.4;isolation:isolate;mix-blend-mode:multiply;fill:#292929;stroke-width:0.132292"
     ry="0.66145831"
     rx="0.66145831"
     height="5.5562496"
     width="5.5562496" />
  <path
     id="path284"
     style="isolation:isolate;fill:#ffffff;stroke-width:0.132292"
     d="M 7.7470027,15.960072 7.1953465,15.409739 h 0.2989792 a 0.136922,0.136922 0 1 0 0,-0.273844 H 6.8712319 a 0.14287499,0.14287499 0 0 0 -0.1468437,0.132292 v 0 c 0,0 0,0 0,0.0079 v 0.613833 0 a 0.13758335,0.13758335 0 1 0 0.2751667,0 v -0.289719 l 0.554302,0.554302 a 0.13229166,0.13229166 0 0 0 0.1931458,0 0.13229166,0.13229166 0 0 0 0,-0.194469 z" />
  <path
     id="path286"
     style="isolation:isolate;fill:#ffffff;stroke-width:0.132292"
     d="M 6.2402007,15.272156 A 0.14287499,0.14287499 0 0 0 6.093357,15.139864 H 5.4702633 a 0.136922,0.136922 0 1 0 0,0.273844 h 0.2976562 l -0.5503333,0.546364 a 0.13751024,0.13751024 0 0 0 0.1944687,0.194469 l 0.5529792,-0.554302 v 0.298979 a 0.13758333,0.13758333 0 1 0 0.2751666,0 v -0.613833 c 0,0 0,0 0,-0.0079 a 0.01058333,0.01058333 0 0 1 0,-0.0053 z" />
  <path
     id="path288"
     style="isolation:isolate;fill:#ffffff;stroke-width:0.132292"
     d="m 6.8712319,14.72976 h 0.6217708 a 0.1375835,0.1375835 0 1 0 0,-0.275167 H 7.1953465 L 7.7470027,13.90426 a 0.13229166,0.13229166 0 0 0 0,-0.194469 0.13229166,0.13229166 0 0 0 -0.1931458,0 l -0.554302,0.556948 v -0.301625 a 0.13758335,0.13758335 0 1 0 -0.2751667,0 v 0.613834 a 0.05688541,0.05688541 0 0 0 0,0.0066 v 0.0066 a 0.14419791,0.14419791 0 0 0 0.1468437,0.137583 z" />
  <path
     id="path290"
     style="isolation:isolate;fill:#ffffff;stroke-width:0.132292"
     d="m 6.1026174,13.819593 a 0.14287499,0.14287499 0 0 0 -0.1322917,0.144198 v 0.302948 L 5.4173466,13.712437 a 0.13229166,0.13229166 0 0 0 -0.1944687,0 0.13229166,0.13229166 0 0 0 0,0.193146 l 0.5503333,0.551656 H 5.4702633 a 0.1375835,0.1375835 0 1 0 0,0.275167 H 6.093357 a 0.14419791,0.14419791 0 0 0 0.1468437,-0.132292 c 0,0 0,0 0,-0.0079 V 13.963791 A 0.14155208,0.14155208 0 0 0 6.1026174,13.819593 Z" />
  <path
     id="path302"
     style="fill:#ff6ea1;fill-opacity:1;stroke:#ff2c76;stroke-width:0.396875;stroke-linecap:round;stroke-opacity:1"
     d="m 34.065106,14.332886 v -1.587501 a 1.5875,1.5875 0 0 1 1.587501,-1.587499 h 1.5875 3.968749 11.90625 1.587501 a 1.5875,1.5875 0 0 1 1.587499,1.587499 v 1.587501 H 54.702607 V 13.14226 h -1.587501 v 3.96875 h 1.587501 v -1.190624 h 1.587499 v 6.746874 h -1.587499 v -1.190625 h -1.587501 v 3.96875 h 1.587501 V 24.25476 h 1.587499 v 1.587501 a 1.5875,1.5875 0 0 1 -1.587499,1.587499 h -1.587501 -11.90625 -3.968749 -1.5875 A 1.5875,1.5875 0 0 1 34.065106,25.842261 V 24.25476 15.920386 15.523511 h -2.38125 v 1.190624 h -0.793749 v -3.174999 h 0.793749 v 1.190624 h 2.38125 z" />
  <text
     id="text306"
     style="font-size:3.57188px;font-family:sans-serif;text-anchor:end;fill:#282828;stroke-width:0.396875"
     x="30.691669"
     y="10.959448"><tspan
       id="tspan304"
       y="20.087572"
       x="52.122917"
       style="stroke-width:0.396875">/</tspan></text>
  <text
     id="text310"
     style="font-size:2.38125px;font-family:sans-serif;text-anchor:end;fill:#282828;stroke-width:0.396875"
     x="30.691669"
     y="10.959448"><tspan
       id="tspan308"
       y="15.721948"
       x="52.122917"
       style="stroke-width:0.396875" /></text>
  <text
     id="text314"
     style="font-size:2.38125px;font-family:sans-serif;text-anchor:end;fill:#282828;stroke-width:0.396875"
     x="30.691669"
     y="10.959448"><tspan
       id="tspan312"
       y="24.056322"
       x="52.122917"
       style="stroke-width:0.396875" /></text>
  <path
     id="path320"
     style="fill:#ff6ea1;fill-opacity:1;stroke:#ff2c76;stroke-width:0.396875;stroke-linecap:round;stroke-opacity:1"
     d="m 56.819274,11.157886 h 23.812499 v 7.937499 H 56.819274 v -3.174999 -0.396875 h -2.381251 v 1.190624 h -0.79375 v -3.174999 h 0.79375 v 1.190624 h 2.381251 v -0.396874 z" />
  <text
     id="text324"
     style="font-size:3.96875px;font-family:sans-serif;text-anchor:start;fill:#282828;stroke-width:0.396875"
     x="53.445835"
     y="10.959448"><tspan
       id="tspan322"
       y="16.515697"
       x="58.605209"
       style="stroke-width:0.396875">1</tspan></text>
  <path
     id="path330"
     style="fill:#ff6ea1;fill-opacity:1;stroke:#ff2c76;stroke-width:0.396875;stroke-linecap:round;stroke-opacity:1"
     d="m 56.819274,19.624552 h 23.812499 v 7.9375 H 56.819274 v -3.175 -0.396875 h -2.381251 v 1.190625 h -0.79375 v -3.175 h 0.79375 v 1.190625 h 2.381251 v -0.396875 z" />
  <text
     id="text334"
     style="font-size:3.96875px;font-family:sans-serif;text-anchor:start;fill:#282828;stroke-width:0.396875"
     x="53.445835"
     y="19.426115"><tspan
       id="tspan332"
       y="24.982365"
       x="58.605209"
       style="stroke-width:0.396875">4</tspan></text>
  <path
     id="path340"
     style="fill:#c4c4c4;fill-opacity:1;stroke:#a0a0a0;stroke-width:0.396875;stroke-linecap:round;stroke-opacity:1"
     d="m 7.6067738,22.799552 v -1.5875 a 1.5875,1.5875 0 0 1 1.5875,-1.5875 h 1.5875002 v 0.79375 h 3.96875 v -0.79375 h 7.9375 1.5875 a 1.5875,1.5875 0 0 1 1.5875,1.5875 v 1.5875 1.5875 1.5875 a 1.5875,1.5875 0 0 1 -1.5875,1.5875 h -1.5875 -7.9375 -0.396875 v 0.79375 h -3.175 v -0.79375 H 10.781774 9.1942738 a 1.5875,1.5875 0 0 1 -1.5875,-1.5875 v -1.5875 z" />
  <text
     id="text344"
     style="font-size:3.96875px;font-family:sans-serif;text-anchor:end;fill:#282828;stroke-width:0.396875"
     x="7.4083362"
     y="19.426115"><tspan
       id="tspan342"
       y="24.982365"
       x="21.695837"
       style="stroke-width:0.396875">↓</tspan></text>
  <path
     id="path350"
     style="fill:#7cd622;fill-opacity:1;stroke:#57ad02;stroke-width:0.396875;stroke-linecap:round;stroke-opacity:1"
     d="m 7.6067738,31.266218 v -1.5875 c 0,-0.876752 0.710748,-1.5875 1.5875,-1.5875 h 1.5875002 v 0.79375 h 3.96875 v -0.79375 h 19.314583 1.5875 c 0.876752,0 1.5875,0.710748 1.5875,1.5875 v 1.5875 h -1.5875 v -1.190625 h -1.5875 v 3.96875 h 1.5875 v -1.190625 h 1.5875 v 6.746876 h -1.5875 v -1.190626 h -1.5875 v 3.96875 h 1.5875 v -1.190625 h 1.5875 v 1.5875 c 0,0.876752 -0.710748,1.5875 -1.5875,1.5875 h -1.5875 -19.314583 -0.396875 v 0.79375 h -3.175 v -0.79375 H 10.781774 9.1942738 c -0.876752,0 -1.5875,-0.710748 -1.5875,-1.5875 v -1.5875 -8.334375 z" />
  <text
     id="text354"
     style="font-size:3.96875px;font-family:sans-serif;text-anchor:end;fill:#282828;stroke-width:0.396875"
     x="14.816665"
     y="27.89278"><tspan
       id="tspan352"
       y="37.417782"
       x="33.072926"
       style="stroke-width:0.396875">おとの たかさ</tspan></text>
  <text
     id="text358"
     style="font-size:2.64583px;font-family:sans-serif;text-anchor:end;fill:#282828;stroke-width:0.396875"
     x="14.816665"
     y="27.89278"><tspan
       id="tspan356"
       y="32.655281"
       x="33.072926"
       style="stroke-width:0.396875">なまえ</tspan></text>
  <text
     id="text362"
     style="font-size:2.64583px;font-family:sans-serif;text-anchor:end;fill:#282828;stroke-width:0.396875"
     x="14.816665"
     y="27.89278"><tspan
       id="tspan360"
       y="40.989655"
       x="33.072926"
       style="stroke-width:0.396875">オクターヴの たかさ</tspan></text>
  <path
     id="path368"
     style="fill:#7cd622;fill-opacity:1;stroke:#57ad02;stroke-width:0.396875;stroke-linecap:round;stroke-opacity:1"
     d="m 37.769278,28.091218 h 23.8125 v 7.9375 h -23.8125 v -3.175 -0.396875 h -2.38125 v 1.190626 h -0.79375 v -3.175001 h 0.79375 v 1.190625 h 2.38125 v -0.396875 z" />
  <text
     id="text372"
     style="font-size:3.96875px;font-family:sans-serif;text-anchor:start;fill:#282828;stroke-width:0.396875"
     x="34.395844"
     y="27.89278"><tspan
       id="tspan370"
       y="33.449032"
       x="39.555218"
       style="stroke-width:0.396875">mi</tspan></text>
  <path
     id="path378"
     style="fill:#ff6ea1;fill-opacity:1;stroke:#ff2c76;stroke-width:0.396875;stroke-linecap:round;stroke-opacity:1"
     d="m 37.769278,36.557885 h 23.8125 v 7.9375 h -23.8125 v -3.175 -0.396875 h -2.38125 v 1.190626 h -0.79375 v -3.175001 h 0.79375 v 1.190626 h 2.38125 v -0.396875 z" />
  <text
     id="text382"
     style="font-size:3.96875px;font-family:sans-serif;text-anchor:start;fill:#282828;stroke-width:0.396875"
     x="34.395844"
     y="36.359447"><tspan
       id="tspan380"
       y="41.915699"
       x="39.555218"
       style="stroke-width:0.396875">4</tspan></text>
  <path
     id="path664"
     style="fill:#ffbf00;fill-opacity:1;stroke:#daaf30;stroke-width:0.396875;stroke-linecap:round;stroke-opacity:1"
     d="m 0.19843901,138.15789 v -1.5875 a 1.5875,1.5875 0 0 1 1.58749999,-1.5875 h 1.5875 l 1.984375,-2.38125 1.984375,2.38125 h 3.571875 23.8125 1.5875 a 1.5875,1.5875 0 0 1 1.5875,1.5875 v 1.5875 h -1.5875 v -1.19063 h -1.5875 v 3.96875 h 1.5875 v -1.19062 h 1.5875 v 1.5875 a 1.5875,1.5875 0 0 1 -1.5875,1.5875 h -1.5875 -23.8125 -0.396875 v 0.79375 h -3.175 v -0.79375 h -0.396875 -1.5875 a 1.984375,1.984375 0 0 0 -1.984375,1.98437 v 1.5875 1.5875 33.3375 1.5875 a 1.984375,1.984375 0 0 0 1.984375,1.98438 h 1.5875 v 0.79375 h 3.96875 v -0.79375 h 3.175 v 2.38125 2.38125 1.5875 a 1.5875,1.5875 0 0 1 -1.5875,1.5875 h -1.5875 -3.571875 l -1.984375,2.38125 -1.984375,-2.38125 h -1.5875 a 1.5875,1.5875 0 0 1 -1.58749999,-1.5875 v -1.5875 z" />
  <text
     id="text668"
     style="font-size:3.96875px;font-family:sans-serif;text-anchor:start;fill:#282828;stroke-width:0.396875"
     x="1.5099999e-06"
     y="132.4032"><tspan
       id="tspan666"
       y="141.13445"
       x="7.9375014"
       style="stroke-width:0.396875">アクション</tspan></text>
  <text
     id="text672"
     style="font-size:2.64583px;font-family:sans-serif;text-anchor:end;fill:#282828;stroke-width:0.396875"
     x="1.5099999e-06"
     y="132.4032"><tspan
       id="tspan670"
       y="134.78445"
       x="33.734375"
       style="stroke-width:0.396875" /></text>
  <rect
     y="135.5782"
     x="1.5099999e-06"
     id="rect678"
     style="opacity:0.4;isolation:isolate;mix-blend-mode:multiply;fill:#292929;stroke-width:0.132292"
     ry="0.66145831"
     rx="0.66145831"
     height="5.5562496"
     width="5.5562496" />
  <path
     id="path680"
     style="isolation:isolate;fill:#ffffff;stroke-width:0.132292"
     d="m 4.0428346,139.52049 -0.5516562,-0.55033 h 0.2989792 a 0.136925,0.136925 0 1 0 0,-0.27385 H 3.1670639 a 0.14287499,0.14287499 0 0 0 -0.1468438,0.1323 v 0 c 0,0 0,0 0,0.008 v 0.61384 0 a 0.13758335,0.13758335 0 1 0 0.2751667,0 v -0.28972 l 0.554302,0.5543 a 0.13229166,0.13229166 0 0 0 0.1931458,0 0.13229166,0.13229166 0 0 0 0,-0.19447 z" />
  <path
     id="path682"
     style="isolation:isolate;fill:#ffffff;stroke-width:0.132292"
     d="M 2.5360326,138.83257 A 0.14287499,0.14287499 0 0 0 2.3891889,138.70028 H 1.7660952 a 0.136925,0.136925 0 1 0 0,0.27385 h 0.2976562 l -0.5503333,0.54636 a 0.1375106,0.1375106 0 0 0 0.1944687,0.19447 l 0.5529792,-0.5543 v 0.29898 a 0.13758333,0.13758333 0 1 0 0.2751666,0 v -0.61384 c 0,0 0,0 0,-0.008 a 0.01058333,0.01058333 0 0 1 0,-0.005 z" />
  <path
     id="path684"
     style="isolation:isolate;fill:#ffffff;stroke-width:0.132292"
     d="m 3.1670639,138.29018 h 0.6217708 a 0.137585,0.137585 0 1 0 0,-0.27517 H 3.4911784 l 0.5516562,-0.55033 a 0.13229166,0.13229166 0 0 0 0,-0.19447 0.13229166,0.13229166 0 0 0 -0.1931458,0 l -0.554302,0.55695 v -0.30163 a 0.13758335,0.13758335 0 1 0 -0.2751667,0 v 0.61384 a 0.05688541,0.05688541 0 0 0 0,0.007 v 0.007 a 0.14419791,0.14419791 0 0 0 0.1468438,0.13758 z" />
  <path
     id="path686"
     style="isolation:isolate;fill:#ffffff;stroke-width:0.132292"
     d="m 2.3984493,137.38001 a 0.14287499,0.14287499 0 0 0 -0.1322917,0.1442 v 0.30295 l -0.5529791,-0.5543 a 0.13229166,0.13229166 0 0 0 -0.1944687,0 0.13229166,0.13229166 0 0 0 0,0.19314 l 0.5503333,0.55166 H 1.7660952 a 0.13758333,0.13758333 0 1 0 0,0.27516 h 0.6230937 a 0.14419791,0.14419791 0 0 0 0.1468437,-0.13229 c 0,0 0,0 0,-0.008 v -0.62839 a 0.14155208,0.14155208 0 0 0 -0.1375833,-0.1442 z" />
  <path
     id="path742"
     style="fill:#ff664b;fill-opacity:1;stroke:#ea4326;stroke-width:0.396875;stroke-linecap:round;stroke-opacity:1"
     d="m 38.298439,134.98289 h 35.71875 v 7.9375 h -35.71875 v -3.175 -0.39688 h -2.38125 v 1.19063 h -0.793751 v -3.175 h 0.793751 v 1.19062 h 2.38125 v -0.39687 z" />
  <text
     id="text746"
     style="font-size:3.96875px;font-family:sans-serif;text-anchor:start;fill:#282828;stroke-width:0.396875"
     x="34.924999"
     y="134.78445"><tspan
       id="tspan744"
       y="140.3407"
       x="40.084377"
       style="stroke-width:0.396875">アクション3</tspan></text>
  <path
     id="path752"
     style="fill:#fe994f;fill-opacity:1;stroke:#e86b0e;stroke-width:0.396875;stroke-linecap:round;stroke-opacity:1"
     d="m 3.9026056,146.62455 v -1.5875 a 1.5875,1.5875 0 0 1 1.5875,-1.5875 h 1.5875 v 0.79375 h 3.9687504 v -0.79375 h 3.571875 15.875 1.5875 a 1.5875,1.5875 0 0 1 1.5875,1.5875 v 1.5875 h -1.5875 v -1.19063 h -1.5875 v 3.96875 h 1.5875 v -1.19062 h 1.5875 v 1.5875 a 1.5875,1.5875 0 0 1 -1.5875,1.5875 h -1.5875 -15.875 -0.396875 v 0.79375 h -3.175 v -0.79375 H 10.649481 9.0619806 a 1.984375,1.984375 0 0 0 -1.984375,1.98437 v 1.5875 1.5875 16.66875 1.5875 a 1.984375,1.984375 0 0 0 1.984375,1.98438 h 1.5875004 v 0.79375 h 3.96875 v -0.79375 h 3.175 v 2.38125 2.38125 1.5875 a 1.5875,1.5875 0 0 1 -1.5875,1.5875 h -1.5875 -3.571875 -0.396875 v 0.79375 H 7.4744806 v -0.79375 h -0.396875 -1.5875 a 1.5875,1.5875 0 0 1 -1.5875,-1.5875 v -1.5875 z" />
  <text
     id="text756"
     style="font-size:3.96875px;font-family:sans-serif;text-anchor:start;fill:#282828;stroke-width:0.396875"
     x="3.7041681"
     y="143.25111"><tspan
       id="tspan754"
       y="149.20424"
       x="11.641668"
       style="stroke-width:0.396875">おんぷ</tspan></text>
  <text
     id="text760"
     style="font-size:2.64583px;font-family:sans-serif;text-anchor:end;fill:#282828;stroke-width:0.396875"
     x="3.7041681"
     y="143.25111"><tspan
       id="tspan758"
       y="148.01361"
       x="29.501043"
       style="stroke-width:0.396875">あたい</tspan></text>
  <rect
     y="144.30945"
     x="3.7041681"
     id="rect766"
     style="opacity:0.4;isolation:isolate;mix-blend-mode:multiply;fill:#292929;stroke-width:0.132292"
     ry="0.66145831"
     rx="0.66145831"
     height="5.5562496"
     width="5.5562496" />
  <path
     id="path768"
     style="isolation:isolate;fill:#ffffff;stroke-width:0.132292"
     d="M 7.7470012,148.25174 7.195345,147.70141 h 0.2989792 a 0.136925,0.136925 0 1 0 0,-0.27385 H 6.8712304 a 0.14287499,0.14287499 0 0 0 -0.1468437,0.1323 v 0 c 0,0 0,0 0,0.008 v 0.61384 0 a 0.13758335,0.13758335 0 1 0 0.2751667,0 v -0.28972 l 0.554302,0.5543 a 0.13229166,0.13229166 0 0 0 0.1931458,0 0.13229166,0.13229166 0 0 0 0,-0.19447 z" />
  <path
     id="path770"
     style="isolation:isolate;fill:#ffffff;stroke-width:0.132292"
     d="M 6.2401992,147.56382 A 0.14287499,0.14287499 0 0 0 6.0933555,147.43153 H 5.4702618 a 0.136925,0.136925 0 1 0 0,0.27385 H 5.767918 l -0.5503333,0.54636 a 0.1375106,0.1375106 0 0 0 0.1944687,0.19447 l 0.5529792,-0.5543 v 0.29898 a 0.13758333,0.13758333 0 1 0 0.2751666,0 v -0.61384 c 0,0 0,0 0,-0.008 a 0.01058333,0.01058333 0 0 1 0,-0.005 z" />
  <path
     id="path772"
     style="isolation:isolate;fill:#ffffff;stroke-width:0.132292"
     d="m 6.8712304,147.02143 h 0.6217708 a 0.137585,0.137585 0 1 0 0,-0.27517 H 7.195345 l 0.5516562,-0.55033 a 0.13229166,0.13229166 0 0 0 0,-0.19447 0.13229166,0.13229166 0 0 0 -0.1931458,0 l -0.554302,0.55695 v -0.30163 a 0.13758335,0.13758335 0 1 0 -0.2751667,0 v 0.61384 a 0.05688541,0.05688541 0 0 0 0,0.007 v 0.007 a 0.14419791,0.14419791 0 0 0 0.1468437,0.13758 z" />
  <path
     id="path774"
     style="isolation:isolate;fill:#ffffff;stroke-width:0.132292"
     d="m 6.1026159,146.11126 a 0.14287499,0.14287499 0 0 0 -0.1322917,0.1442 v 0.30295 l -0.5529791,-0.5543 a 0.13229166,0.13229166 0 0 0 -0.1944687,0 0.13229166,0.13229166 0 0 0 0,0.19314 l 0.5503333,0.55166 H 5.4702618 a 0.13758333,0.13758333 0 1 0 0,0.27516 h 0.6230937 a 0.14419791,0.14419791 0 0 0 0.1468437,-0.13229 c 0,0 0,0 0,-0.008 v -0.62839 a 0.14155208,0.14155208 0 0 0 -0.1375833,-0.1442 z" />
  <path
     id="path786"
     style="fill:#ff6ea1;fill-opacity:1;stroke:#ff2c76;stroke-width:0.396875;stroke-linecap:round;stroke-opacity:1"
     d="m 34.065106,146.62455 v -1.5875 a 1.5875,1.5875 0 0 1 1.587499,-1.5875 h 1.5875 3.96875 11.90625 1.5875 a 1.5875,1.5875 0 0 1 1.5875,1.5875 v 1.5875 h -1.5875 v -1.19063 h -1.5875 v 3.96875 h 1.5875 v -1.19062 h 1.5875 v 6.74687 h -1.5875 v -1.19062 h -1.5875 v 3.96875 h 1.5875 v -1.19063 h 1.5875 v 1.5875 a 1.5875,1.5875 0 0 1 -1.5875,1.5875 h -1.5875 -11.90625 -3.96875 -1.5875 a 1.5875,1.5875 0 0 1 -1.587499,-1.5875 v -1.5875 -8.33437 -0.39688 h -2.381251 v 1.19063 h -0.79375 v -3.175 h 0.79375 v 1.19062 h 2.381251 z" />
  <text
     id="text790"
     style="font-size:3.57188px;font-family:sans-serif;text-anchor:end;fill:#282828;stroke-width:0.396875"
     x="30.691668"
     y="143.25111"><tspan
       id="tspan788"
       y="152.37924"
       x="52.122917"
       style="stroke-width:0.396875">/</tspan></text>
  <text
     id="text794"
     style="font-size:2.38125px;font-family:sans-serif;text-anchor:end;fill:#282828;stroke-width:0.396875"
     x="30.691668"
     y="143.25111"><tspan
       id="tspan792"
       y="148.01361"
       x="52.122917"
       style="stroke-width:0.396875" /></text>
  <text
     id="text798"
     style="font-size:2.38125px;font-family:sans-serif;text-anchor:end;fill:#282828;stroke-width:0.396875"
     x="30.691668"
     y="143.25111"><tspan
       id="tspan796"
       y="156.34799"
       x="52.122917"
       style="stroke-width:0.396875" /></text>
  <path
     id="path804"
     style="fill:#ff6ea1;fill-opacity:1;stroke:#ff2c76;stroke-width:0.396875;stroke-linecap:round;stroke-opacity:1"
     d="m 56.819271,143.44955 h 23.8125 v 7.9375 h -23.8125 v -3.175 -0.39688 h -2.38125 v 1.19063 h -0.79375 v -3.175 h 0.79375 v 1.19062 h 2.38125 v -0.39687 z" />
  <text
     id="text808"
     style="font-size:3.96875px;font-family:sans-serif;text-anchor:start;fill:#282828;stroke-width:0.396875"
     x="53.445835"
     y="143.25111"><tspan
       id="tspan806"
       y="148.80736"
       x="58.605209"
       style="stroke-width:0.396875">1</tspan></text>
  <path
     id="path814"
     style="fill:#ff6ea1;fill-opacity:1;stroke:#ff2c76;stroke-width:0.396875;stroke-linecap:round;stroke-opacity:1"
     d="m 56.819271,151.91622 h 23.8125 v 7.9375 h -23.8125 v -3.175 -0.39688 h -2.38125 v 1.19063 h -0.79375 v -3.175 h 0.79375 v 1.19062 h 2.38125 v -0.39687 z" />
  <text
     id="text818"
     style="font-size:3.96875px;font-family:sans-serif;text-anchor:start;fill:#282828;stroke-width:0.396875"
     x="53.445835"
     y="151.71777"><tspan
       id="tspan816"
       y="157.27403"
       x="58.605209"
       style="stroke-width:0.396875">4</tspan></text>
  <path
     id="path824"
     style="fill:#c4c4c4;fill-opacity:1;stroke:#a0a0a0;stroke-width:0.396875;stroke-linecap:round;stroke-opacity:1"
     d="m 7.6067722,155.09122 v -1.5875 a 1.5875,1.5875 0 0 1 1.5875,-1.5875 h 1.5874998 v 0.79375 h 3.96875 v -0.79375 h 7.9375 1.5875 a 1.5875,1.5875 0 0 1 1.5875,1.5875 v 1.5875 1.5875 1.5875 a 1.5875,1.5875 0 0 1 -1.5875,1.5875 h -1.5875 -7.9375 -0.396875 v 0.79375 h -3.175 v -0.79375 H 10.781772 9.1942722 a 1.5875,1.5875 0 0 1 -1.5875,-1.5875 v -1.5875 z" />
  <text
     id="text828"
     style="font-size:3.96875px;font-family:sans-serif;text-anchor:end;fill:#282828;stroke-width:0.396875"
     x="7.4083347"
     y="151.71777"><tspan
       id="tspan826"
       y="157.27403"
       x="21.695835"
       style="stroke-width:0.396875">↓</tspan></text>
  <path
     id="path834"
     style="fill:#7cd622;fill-opacity:1;stroke:#57ad02;stroke-width:0.396875;stroke-linecap:round;stroke-opacity:1"
     d="m 7.6067722,163.55789 v -1.5875 c 0,-0.87675 0.710748,-1.5875 1.5875,-1.5875 h 1.5874998 v 0.79375 h 3.96875 v -0.79375 h 19.314583 1.5875 c 0.876752,0 1.5875,0.71075 1.5875,1.5875 v 1.5875 h -1.5875 v -1.19063 h -1.5875 v 3.96875 h 1.5875 v -1.19062 h 1.5875 v 6.74687 h -1.5875 v -1.19062 h -1.5875 v 3.96875 h 1.5875 v -1.19063 h 1.5875 v 1.5875 c 0,0.87675 -0.710748,1.5875 -1.5875,1.5875 h -1.5875 -19.314583 -0.396875 v 0.79375 h -3.175 v -0.79375 H 10.781772 9.1942722 c -0.876752,0 -1.5875,-0.71075 -1.5875,-1.5875 v -1.5875 -8.33437 z" />
  <text
     id="text838"
     style="font-size:3.96875px;font-family:sans-serif;text-anchor:end;fill:#282828;stroke-width:0.396875"
     x="14.816663"
     y="160.18445"><tspan
       id="tspan836"
       y="169.70946"
       x="33.072926"
       style="stroke-width:0.396875">おとの たかさ</tspan></text>
  <text
     id="text842"
     style="font-size:2.64583px;font-family:sans-serif;text-anchor:end;fill:#282828;stroke-width:0.396875"
     x="14.816663"
     y="160.18445"><tspan
       id="tspan840"
       y="164.94695"
       x="33.072926"
       style="stroke-width:0.396875">なまえ</tspan></text>
  <text
     id="text846"
     style="font-size:2.64583px;font-family:sans-serif;text-anchor:end;fill:#282828;stroke-width:0.396875"
     x="14.816663"
     y="160.18445"><tspan
       id="tspan844"
       y="173.28133"
       x="33.072926"
       style="stroke-width:0.396875">オクターヴの たかさ</tspan></text>
  <path
     id="path852"
     style="fill:#7cd622;fill-opacity:1;stroke:#57ad02;stroke-width:0.396875;stroke-linecap:round;stroke-opacity:1"
     d="m 37.769277,160.38289 h 23.8125 v 7.9375 h -23.8125 v -3.175 -0.39688 h -2.38125 v 1.19063 h -0.79375 v -3.175 h 0.79375 v 1.19062 h 2.38125 v -0.39687 z" />
  <text
     id="text856"
     style="font-size:3.96875px;font-family:sans-serif;text-anchor:start;fill:#282828;stroke-width:0.396875"
     x="34.39584"
     y="160.18445"><tspan
       id="tspan854"
       y="165.74071"
       x="39.555218"
       style="stroke-width:0.396875">do</tspan></text>
  <path
     id="path862"
     style="fill:#ff6ea1;fill-opacity:1;stroke:#ff2c76;stroke-width:0.396875;stroke-linecap:round;stroke-opacity:1"
     d="m 37.769277,168.84955 h 23.8125 v 7.9375 h -23.8125 v -3.175 -0.39688 h -2.38125 v 1.19063 h -0.79375 v -3.175 h 0.79375 v 1.19062 h 2.38125 v -0.39687 z" />
  <text
     id="text866"
     style="font-size:3.96875px;font-family:sans-serif;text-anchor:start;fill:#282828;stroke-width:0.396875"
     x="34.39584"
     y="168.65111"><tspan
       id="tspan864"
       y="174.20737"
       x="39.555218"
       style="stroke-width:0.396875">5</tspan></text>
  <path
     id="path698"
     style="fill:#ffbf00;fill-opacity:1;stroke:#daaf30;stroke-width:0.396875;stroke-linecap:round;stroke-opacity:1"
     d="m 0.19843893,204.30372 v -1.5875 a 1.5875,1.5875 0 0 1 1.58749997,-1.5875 h 1.5875 l 1.984375,-2.38125 1.984375,2.38125 h 3.5718751 23.8125 1.5875 a 1.5875,1.5875 0 0 1 1.5875,1.5875 v 1.5875 h -1.5875 v -1.19063 h -1.5875 v 3.96875 h 1.5875 v -1.19062 h 1.5875 v 1.5875 a 1.5875,1.5875 0 0 1 -1.5875,1.5875 h -1.5875 -23.8125 -0.396875 v 0.79375 H 7.3421889 v -0.79375 h -0.396875 -1.5875 a 1.984375,1.984375 0 0 0 -1.984375,1.98437 v 1.5875 1.5875 25.00313 1.5875 a 1.984375,1.984375 0 0 0 1.984375,1.98437 h 1.5875 v 0.79375 h 3.9687501 v -0.79375 h 3.175 v 2.38125 2.38125 1.5875 a 1.5875,1.5875 0 0 1 -1.5875,1.5875 h -1.5875 -3.5718751 l -1.984375,2.38125 -1.984375,-2.38125 h -1.5875 a 1.5875,1.5875 0 0 1 -1.58749997,-1.5875 v -1.5875 z" />
  <text
     id="text702"
     style="font-size:3.96875px;font-family:sans-serif;text-anchor:start;fill:#282828;stroke-width:0.396875"
     x="1.43e-06"
     y="198.54903"><tspan
       id="tspan700"
       y="207.28027"
       x="7.9375014"
       style="stroke-width:0.396875">アクション</tspan></text>
  <text
     id="text706"
     style="font-size:2.64583px;font-family:sans-serif;text-anchor:end;fill:#282828;stroke-width:0.396875"
     x="1.43e-06"
     y="198.54903"><tspan
       id="tspan704"
       y="200.93028"
       x="33.734375"
       style="stroke-width:0.396875" /></text>
  <rect
     y="201.72403"
     x="1.43e-06"
     id="rect712"
     style="opacity:0.4;isolation:isolate;mix-blend-mode:multiply;fill:#292929;stroke-width:0.132292"
     ry="0.66145831"
     rx="0.66145831"
     height="5.5562496"
     width="5.5562496" />
  <path
     id="path714"
     style="isolation:isolate;fill:#ffffff;stroke-width:0.132292"
     d="m 4.0428346,205.66632 -0.5516563,-0.55033 h 0.2989792 a 0.136925,0.136925 0 1 0 0,-0.27385 H 3.1670638 a 0.14287499,0.14287499 0 0 0 -0.1468438,0.1323 v 0 c 0,0 0,0 0,0.008 v 0.61384 0 a 0.13758335,0.13758335 0 1 0 0.2751667,0 v -0.28972 l 0.554302,0.5543 a 0.13229166,0.13229166 0 0 0 0.1931459,0 0.13229166,0.13229166 0 0 0 0,-0.19447 z" />
  <path
     id="path716"
     style="isolation:isolate;fill:#ffffff;stroke-width:0.132292"
     d="M 2.5360326,204.9784 A 0.14287499,0.14287499 0 0 0 2.3891888,204.84611 H 1.7660951 a 0.136925,0.136925 0 1 0 0,0.27385 h 0.2976562 l -0.5503333,0.54636 a 0.13751063,0.13751063 0 0 0 0.1944688,0.19447 l 0.5529791,-0.5543 v 0.29898 a 0.13758335,0.13758335 0 1 0 0.2751667,0 v -0.61384 c 0,0 0,0 0,-0.008 a 0.01058333,0.01058333 0 0 1 0,-0.005 z" />
  <path
     id="path718"
     style="isolation:isolate;fill:#ffffff;stroke-width:0.132292"
     d="m 3.1670638,204.43601 h 0.6217708 a 0.137585,0.137585 0 1 0 0,-0.27517 H 3.4911783 l 0.5516563,-0.55033 a 0.13229166,0.13229166 0 0 0 0,-0.19447 0.13229166,0.13229166 0 0 0 -0.1931459,0 l -0.554302,0.55695 v -0.30163 a 0.13758335,0.13758335 0 1 0 -0.2751667,0 v 0.61384 a 0.05688541,0.05688541 0 0 0 0,0.007 v 0.007 a 0.14419791,0.14419791 0 0 0 0.1468438,0.13758 z" />
  <path
     id="path720"
     style="isolation:isolate;fill:#ffffff;stroke-width:0.132292"
     d="m 2.3984492,203.52584 a 0.14287499,0.14287499 0 0 0 -0.1322916,0.1442 v 0.30295 l -0.5529792,-0.5543 a 0.13229166,0.13229166 0 0 0 -0.1944687,0 0.13229166,0.13229166 0 0 0 0,0.19314 l 0.5503333,0.55166 H 1.7660951 a 0.13758333,0.13758333 0 1 0 0,0.27516 h 0.6230937 a 0.14419791,0.14419791 0 0 0 0.1468438,-0.13229 c 0,0 0,0 0,-0.008 v -0.62839 a 0.14155208,0.14155208 0 0 0 -0.1375834,-0.1442 z" />
  <path
     id="path732"
     style="fill:#ff664b;fill-opacity:1;stroke:#ea4326;stroke-width:0.396875;stroke-linecap:round;stroke-opacity:1"
     d="m 38.298439,201.12872 h 35.71875 v 7.9375 h -35.71875 v -3.175 -0.39688 h -2.38125 v 1.19063 h -0.793751 v -3.175 h 0.793751 v 1.19062 h 2.38125 v -0.39687 z" />
  <text
     id="text736"
     style="font-size:3.96875px;font-family:sans-serif;text-anchor:start;fill:#282828;stroke-width:0.396875"
     x="34.924999"
     y="200.93028"><tspan
       id="tspan734"
       y="206.48653"
       x="40.084377"
       style="stroke-width:0.396875">アクション4</tspan></text>
  <path
     id="path872"
     style="fill:#fe994f;fill-opacity:1;stroke:#e86b0e;stroke-width:0.396875;stroke-linecap:round;stroke-opacity:1"
     d="m 3.9026056,212.77039 v -1.5875 a 1.5875,1.5875 0 0 1 1.5875,-1.5875 h 1.5875 v 0.79375 h 3.9687504 v -0.79375 h 3.571875 15.875 1.5875 a 1.5875,1.5875 0 0 1 1.5875,1.5875 v 1.5875 h -1.5875 v -1.19063 h -1.5875 v 3.96875 h 1.5875 v -1.19062 h 1.5875 v 1.5875 a 1.5875,1.5875 0 0 1 -1.5875,1.5875 h -1.5875 -15.875 -0.396875 v 0.79375 h -3.175 v -0.79375 H 10.649481 9.0619806 a 1.984375,1.984375 0 0 0 -1.984375,1.98437 v 1.5875 1.5875 8.33438 1.5875 a 1.984375,1.984375 0 0 0 1.984375,1.98437 h 1.5875004 v 0.79375 h 3.96875 v -0.79375 h 3.175 v 2.38125 2.38125 1.5875 a 1.5875,1.5875 0 0 1 -1.5875,1.5875 h -1.5875 -3.571875 -0.396875 v 0.79375 H 7.4744806 v -0.79375 h -0.396875 -1.5875 a 1.5875,1.5875 0 0 1 -1.5875,-1.5875 v -1.5875 z" />
  <text
     id="text876"
     style="font-size:3.96875px;font-family:sans-serif;text-anchor:start;fill:#282828;stroke-width:0.396875"
     x="3.7041681"
     y="209.39696"><tspan
       id="tspan874"
       y="215.35008"
       x="11.641668"
       style="stroke-width:0.396875">おんぷ</tspan></text>
  <text
     id="text880"
     style="font-size:2.64583px;font-family:sans-serif;text-anchor:end;fill:#282828;stroke-width:0.396875"
     x="3.7041681"
     y="209.39696"><tspan
       id="tspan878"
       y="214.15945"
       x="29.501043"
       style="stroke-width:0.396875">あたい</tspan></text>
  <rect
     y="210.45528"
     x="3.7041681"
     id="rect886"
     style="opacity:0.4;isolation:isolate;mix-blend-mode:multiply;fill:#292929;stroke-width:0.132292"
     ry="0.66145831"
     rx="0.66145831"
     height="5.5562496"
     width="5.5562496" />
  <path
     id="path888"
     style="isolation:isolate;fill:#ffffff;stroke-width:0.132292"
     d="M 7.7470012,214.39757 7.195345,213.84724 h 0.2989792 a 0.136925,0.136925 0 1 0 0,-0.27385 H 6.8712304 a 0.14287499,0.14287499 0 0 0 -0.1468437,0.1323 v 0 c 0,0 0,0 0,0.008 v 0.61384 0 a 0.13758335,0.13758335 0 1 0 0.2751667,0 v -0.28972 l 0.554302,0.5543 a 0.13229166,0.13229166 0 0 0 0.1931458,0 0.13229166,0.13229166 0 0 0 0,-0.19447 z" />
  <path
     id="path890"
     style="isolation:isolate;fill:#ffffff;stroke-width:0.132292"
     d="M 6.2401992,213.70965 A 0.14287499,0.14287499 0 0 0 6.0933555,213.57736 H 5.4702618 a 0.136925,0.136925 0 1 0 0,0.27385 H 5.767918 l -0.5503333,0.54636 a 0.1375106,0.1375106 0 0 0 0.1944687,0.19447 l 0.5529792,-0.5543 v 0.29898 a 0.13758333,0.13758333 0 1 0 0.2751666,0 v -0.61384 c 0,0 0,0 0,-0.008 a 0.01058333,0.01058333 0 0 1 0,-0.005 z" />
  <path
     id="path892"
     style="isolation:isolate;fill:#ffffff;stroke-width:0.132292"
     d="m 6.8712304,213.16726 h 0.6217708 a 0.137585,0.137585 0 1 0 0,-0.27517 H 7.195345 l 0.5516562,-0.55033 a 0.13229166,0.13229166 0 0 0 0,-0.19447 0.13229166,0.13229166 0 0 0 -0.1931458,0 l -0.554302,0.55695 v -0.30163 a 0.13758335,0.13758335 0 1 0 -0.2751667,0 v 0.61384 a 0.05688541,0.05688541 0 0 0 0,0.007 v 0.007 a 0.14419791,0.14419791 0 0 0 0.1468437,0.13758 z" />
  <path
     id="path894"
     style="isolation:isolate;fill:#ffffff;stroke-width:0.132292"
     d="m 6.1026159,212.25709 a 0.14287499,0.14287499 0 0 0 -0.1322917,0.1442 v 0.30295 l -0.5529791,-0.5543 a 0.13229166,0.13229166 0 0 0 -0.1944687,0 0.13229166,0.13229166 0 0 0 0,0.19314 l 0.5503333,0.55166 H 5.4702618 a 0.13758333,0.13758333 0 1 0 0,0.27516 h 0.6230937 a 0.14419791,0.14419791 0 0 0 0.1468437,-0.13229 c 0,0 0,0 0,-0.008 v -0.62839 a 0.14155208,0.14155208 0 0 0 -0.1375833,-0.1442 z" />
  <path
     id="path906"
     style="fill:#ff6ea1;fill-opacity:1;stroke:#ff2c76;stroke-width:0.396875;stroke-linecap:round;stroke-opacity:1"
     d="m 34.065106,212.77039 v -1.5875 a 1.5875,1.5875 0 0 1 1.587499,-1.5875 h 1.5875 3.96875 11.90625 1.5875 a 1.5875,1.5875 0 0 1 1.5875,1.5875 v 1.5875 h -1.5875 v -1.19063 h -1.5875 v 3.96875 h 1.5875 v -1.19062 h 1.5875 v 6.74687 h -1.5875 v -1.19062 h -1.5875 v 3.96875 h 1.5875 v -1.19063 h 1.5875 v 1.5875 a 1.5875,1.5875 0 0 1 -1.5875,1.5875 h -1.5875 -11.90625 -3.96875 -1.5875 a 1.5875,1.5875 0 0 1 -1.587499,-1.5875 v -1.5875 -8.33437 -0.39688 h -2.381251 v 1.19063 h -0.79375 v -3.175 h 0.79375 v 1.19062 h 2.381251 z" />
  <text
     id="text910"
     style="font-size:3.57188px;font-family:sans-serif;text-anchor:end;fill:#282828;stroke-width:0.396875"
     x="30.691668"
     y="209.39696"><tspan
       id="tspan908"
       y="218.52507"
       x="52.122917"
       style="stroke-width:0.396875">/</tspan></text>
  <text
     id="text914"
     style="font-size:2.38125px;font-family:sans-serif;text-anchor:end;fill:#282828;stroke-width:0.396875"
     x="30.691668"
     y="209.39696"><tspan
       id="tspan912"
       y="214.15945"
       x="52.122917"
       style="stroke-width:0.396875" /></text>
  <text
     id="text918"
     style="font-size:2.38125px;font-family:sans-serif;text-anchor:end;fill:#282828;stroke-width:0.396875"
     x="30.691668"
     y="209.39696"><tspan
       id="tspan916"
       y="222.49382"
       x="52.122917"
       style="stroke-width:0.396875" /></text>
  <path
     id="path924"
     style="fill:#ff6ea1;fill-opacity:1;stroke:#ff2c76;stroke-width:0.396875;stroke-linecap:round;stroke-opacity:1"
     d="m 56.819271,209.59539 h 23.8125 v 7.9375 h -23.8125 v -3.175 -0.39688 h -2.38125 v 1.19063 h -0.79375 v -3.175 h 0.79375 v 1.19062 h 2.38125 v -0.39687 z" />
  <text
     id="text928"
     style="font-size:3.96875px;font-family:sans-serif;text-anchor:start;fill:#282828;stroke-width:0.396875"
     x="53.445835"
     y="209.39696"><tspan
       id="tspan926"
       y="214.9532"
       x="58.605209"
       style="stroke-width:0.396875">1</tspan></text>
  <path
     id="path934"
     style="fill:#ff6ea1;fill-opacity:1;stroke:#ff2c76;stroke-width:0.396875;stroke-linecap:round;stroke-opacity:1"
     d="m 56.819271,218.06205 h 23.8125 v 7.9375 h -23.8125 v -3.175 -0.39688 h -2.38125 v 1.19063 h -0.79375 v -3.175 h 0.79375 v 1.19062 h 2.38125 v -0.39687 z" />
  <text
     id="text938"
     style="font-size:3.96875px;font-family:sans-serif;text-anchor:start;fill:#282828;stroke-width:0.396875"
     x="53.445835"
     y="217.86362"><tspan
       id="tspan936"
       y="223.41986"
       x="58.605209"
       style="stroke-width:0.396875">4</tspan></text>
  <path
     id="path944"
     style="fill:#c4c4c4;fill-opacity:1;stroke:#a0a0a0;stroke-width:0.396875;stroke-linecap:round;stroke-opacity:1"
     d="m 7.6067722,221.23705 v -1.5875 a 1.5875,1.5875 0 0 1 1.5875,-1.5875 h 1.5874998 v 0.79375 h 3.96875 v -0.79375 h 7.9375 1.5875 a 1.5875,1.5875 0 0 1 1.5875,1.5875 v 1.5875 1.5875 1.5875 a 1.5875,1.5875 0 0 1 -1.5875,1.5875 h -1.5875 -7.9375 -0.396875 v 0.79375 h -3.175 v -0.79375 H 10.781772 9.1942722 a 1.5875,1.5875 0 0 1 -1.5875,-1.5875 v -1.5875 z" />
  <text
     id="text948"
     style="font-size:3.96875px;font-family:sans-serif;text-anchor:end;fill:#282828;stroke-width:0.396875"
     x="7.4083347"
     y="217.86362"><tspan
       id="tspan946"
       y="223.41986"
       x="21.695835"
       style="stroke-width:0.396875">↓</tspan></text>
  <path
     id="path954"
     style="fill:#3edcdd;fill-opacity:1;stroke:#1dbcbd;stroke-width:0.396875;stroke-linecap:round;stroke-opacity:1"
     d="m 7.6067722,229.70372 v -1.5875 a 1.5875,1.5875 0 0 1 1.5875,-1.5875 h 1.5874998 v 0.79375 h 3.96875 v -0.79375 h 11.90625 1.5875 a 1.5875,1.5875 0 0 1 1.5875,1.5875 v 1.5875 h -1.5875 v -1.19063 h -1.5875 v 3.96875 h 1.5875 v -1.19062 h 1.5875 v 1.5875 a 1.5875,1.5875 0 0 1 -1.5875,1.5875 h -1.5875 -11.90625 -0.396875 v 0.79375 h -3.175 v -0.79375 H 10.781772 9.1942722 a 1.5875,1.5875 0 0 1 -1.5875,-1.5875 v -1.5875 z" />
  <text
     id="text958"
     style="font-size:3.96875px;font-family:sans-serif;text-anchor:end;fill:#282828;stroke-width:0.396875"
     x="7.4083347"
     y="226.33028"><tspan
       id="tspan956"
       y="231.88654"
       x="25.664585"
       style="stroke-width:0.396875">ドラム</tspan></text>
  <text
     id="text962"
     style="font-size:2.64583px;font-family:sans-serif;text-anchor:end;fill:#282828;stroke-width:0.396875"
     x="7.4083347"
     y="226.33028"><tspan
       id="tspan960"
       y="231.09277"
       x="25.664585"
       style="stroke-width:0.396875" /></text>
  <path
     id="path968"
     style="fill:#3edcdd;fill-opacity:1;stroke:#1dbcbd;stroke-width:0.396875;stroke-linecap:round;stroke-opacity:1"
     d="m 30.360939,226.52872 h 43.65625 v 7.9375 h -43.65625 v -3.175 -0.39688 h -2.38125 v 1.19063 h -0.79375 v -3.175 h 0.79375 v 1.19062 h 2.38125 v -0.39687 z" />
  <text
     id="text972"
     style="font-size:3.96875px;font-family:sans-serif;text-anchor:start;fill:#282828;stroke-width:0.396875"
     x="26.987501"
     y="226.33028"><tspan
       id="tspan970"
       y="231.88654"
       x="32.146877"
       style="stroke-width:0.396875">キックドラム</tspan></text>
</svg>
