<?xml version="1.0" encoding="UTF-8" standalone="no"?>
<!-- Created with Inkscape (http://www.inkscape.org/) -->

<svg
   xmlns:dc="http://purl.org/dc/elements/1.1/"
   xmlns:cc="http://creativecommons.org/ns#"
   xmlns:rdf="http://www.w3.org/1999/02/22-rdf-syntax-ns#"
   xmlns:svg="http://www.w3.org/2000/svg"
   xmlns="http://www.w3.org/2000/svg"
   xmlns:sodipodi="http://sodipodi.sourceforge.net/DTD/sodipodi-0.dtd"
   xmlns:inkscape="http://www.inkscape.org/namespaces/inkscape"
   width="100"
   height="100"
   id="svg2999"
   version="1.1"
   inkscape:version="0.48.4 r9939"
   sodipodi:docname="activity-icon-mouse-color.svg">
  <defs
     id="defs3001">
    <filter
       inkscape:collect="always"
       id="filter4208"
       x="-0.22276599"
       width="1.445532"
       y="-0.29966396"
       height="1.5993279">
      <feGaussianBlur
         inkscape:collect="always"
         stdDeviation="1.1911198"
         id="feGaussianBlur4210" />
    </filter>
  </defs>
  <sodipodi:namedview
     id="base"
     pagecolor="#ffffff"
     bordercolor="#666666"
     borderopacity="1.0"
     inkscape:pageopacity="0.0"
     inkscape:pageshadow="2"
     inkscape:zoom="2.8"
     inkscape:cx="47.008403"
     inkscape:cy="52.943669"
     inkscape:document-units="px"
     inkscape:current-layer="layer1"
     showgrid="false"
     inkscape:window-width="701"
     inkscape:window-height="445"
     inkscape:window-x="407"
     inkscape:window-y="94"
     inkscape:window-maximized="0" />
  <metadata
     id="metadata3004">
    <rdf:RDF>
      <cc:Work
         rdf:about="">
        <dc:format>image/svg+xml</dc:format>
        <dc:type
           rdf:resource="http://purl.org/dc/dcmitype/StillImage" />
        <dc:title></dc:title>
      </cc:Work>
    </rdf:RDF>
  </metadata>
  <g
     inkscape:label="Layer 1"
     inkscape:groupmode="layer"
     id="layer1"
     transform="translate(0,-952.36218)">
    <path
       inkscape:connector-curvature="0"
       style="fill:none;stroke:#000000;stroke-width:2;stroke-linecap:butt;stroke-linejoin:miter;stroke-opacity:1;stroke-miterlimit:4;stroke-dasharray:none"
       d="m 29.294041,970.33848 c -0.645529,0.007 -1.299981,0.0684 -1.953487,0.19364 -10.194474,1.10409 -14.885311,11.02355 -11.846249,18.5895 2.20058,5.40029 10.805303,9.01081 16.379719,8.27532 -3.783321,1.84139 -4.892399,8.77176 -4.732807,14.93306 -2.84267,-0.2034 -6.521131,-0.8321 -12.187969,-2.4661 6.335717,-3.7993 -3.734142,-10.11841 -7.1817864,-5.832 -1.9634453,0.8981 -2.2697054,6.6959 5.5073614,7.4666 3.674232,1.7881 9.185735,4.3819 14.243981,5.57 0.258978,1.8415 0.622749,3.4032 1.036544,4.431 1.898862,4.3008 1.937434,5.3603 6.971062,5.7181 6.558403,0.5908 15.311279,-8.6619 18.378774,-14.0617 2.332342,-4.1502 2.885028,-6.916 3.542484,-11.1115 7.235666,1.4744 15.712859,0.8823 18.543935,-2.57432 5.184045,-4.95043 5.564043,-10.72283 3.72474,-17.47899 -4.856643,-9.94085 -20.04306,-8.94792 -25.389707,-1.95349 -2.57879,4.31848 -2.742745,12.83359 0.09682,15.95828 -6.560388,-5.63134 -12.149083,-4.24833 -15.59946,-2.62557 2.595157,-2.65236 4.250731,-10.78133 3.565264,-12.90557 -1.196427,-6.07234 -6.85909,-10.20009 -13.099221,-10.12626 z"
       id="path4093" />
    <path
       style="fill:none;stroke:#000000;stroke-width:2;stroke-linecap:butt;stroke-linejoin:miter;stroke-opacity:1;stroke-miterlimit:4;stroke-dasharray:none"
       d="m 51.428899,1003.9813 c -0.692429,4.0023 -4.878497,2.8601 -6.769285,0.5208"
       id="path3039"
       inkscape:connector-curvature="0"
       sodipodi:nodetypes="cc" />
    <path
       style="fill:none;stroke:#000000;stroke-width:2;stroke-linecap:butt;stroke-linejoin:miter;stroke-opacity:1;stroke-miterlimit:4;stroke-dasharray:none"
       d="m 36.848901,1002.4192 c -3.229061,3.0969 -4.837483,1.7312 -5.207144,0"
       id="path3041"
       inkscape:connector-curvature="0"
       sodipodi:nodetypes="cc" />
    <path
       style="fill:none;stroke:#000000;stroke-width:1;stroke-linecap:butt;stroke-linejoin:miter;stroke-opacity:1;stroke-miterlimit:4;stroke-dasharray:none"
       d="m 82.194389,969.66302 c -0.132561,0.0106 -0.298611,0.18059 -0.501183,0.52967 0,13.81872 2.444454,23.56168 4.305654,29.74666 1.014264,3.02805 1.93167,4.93295 2.494548,5.92885 0.12159,0.2909 1.005687,1.7496 1.013769,1.811 -2.998629,-7.1217 -5.588811,-17.86845 -5.917428,-25.6004 -1.035504,-4.99158 -0.46737,-12.49052 -1.39536,-12.41578 z m 11.413413,33.26638 c -0.504882,-0.01 -1.03176,0.07 -1.549125,0.2278 -0.77832,0.2361 -2.558313,1.134 -3.103947,1.5662 l -0.330336,0.262 0.518283,1.2815 c 0.573453,1.4105 0.614799,1.585 0.336015,1.4922 -0.103563,-0.034 -0.470565,-0.5904 -0.814428,-1.236 l -0.626481,-1.1732 -0.820125,0.6436 c -0.887931,0.6949 -4.699368,4.4743 -4.698639,4.6587 1.89e-4,0.062 0.60003,0.728 1.332711,1.4809 1.881342,1.9327 2.758428,3.7759 2.767914,5.8148 0.0027,0.4392 0.03528,0.7973 0.06831,0.7973 0.06912,0 4.119354,-2.1436 4.983408,-2.6368 0.317619,-0.1814 0.580194,-0.4104 0.580923,-0.5126 7.29e-4,-0.1022 -0.175572,-0.5817 -0.392976,-1.065 -0.86085,-1.9138 -0.9549,-2.1678 -0.831519,-2.244 0.09911,-0.061 1.349793,1.5107 2.164212,2.7166 0.323316,0.4788 4.156029,-3.0022 4.835322,-4.3911 0.52389,-1.0711 0.588767,-2.4669 0.165168,-3.5937 -0.352539,-0.9377 -1.726425,-2.8891 -2.397726,-3.4058 -0.56619,-0.4357 -1.345527,-0.6725 -2.187,-0.6834 z m -2.540106,9.437 c 1.36359,2.5313 1.863936,4.7967 3.092553,7.74 2.286117,-1.8586 -1.775682,-5.4906 -3.092553,-7.74 z"
       id="path3057"
       inkscape:connector-curvature="0" />
    <path
       style="fill:none;stroke:#000000;stroke-width:2;stroke-linecap:butt;stroke-linejoin:miter;stroke-opacity:1;stroke-miterlimit:4;stroke-dasharray:none"
       d="m 17.011553,1042.1881 c -3.290327,-5.765 3.506075,-13.8339 -6.525163,-12.2363 -5.8012943,4.1062 -1.8049308,12.339 0.580736,15.9043 5.631264,-4.9837 5.944427,-3.668 5.944427,-3.668 z"
       id="path3061"
       inkscape:connector-curvature="0"
       sodipodi:nodetypes="cccc" />
    <path
       style="fill:none;stroke:#000000;stroke-width:1;stroke-linecap:butt;stroke-linejoin:miter;stroke-opacity:1;stroke-miterlimit:4;stroke-dasharray:none"
       d="m 40.397972,1015.8863 c 10.062056,-4.3299 21.974067,-5.1285 32.238822,-5.3226"
       id="path3198"
       inkscape:connector-curvature="0"
       sodipodi:nodetypes="cc" />
    <path
       style="fill:none;stroke:#000000;stroke-width:1;stroke-linecap:butt;stroke-linejoin:miter;stroke-opacity:1;stroke-miterlimit:4;stroke-dasharray:none"
       d="m 41.310391,1017.1028 c 8.953748,-2.7726 28.615165,-2.4497 33.759535,3.9539"
       id="path3200"
       inkscape:connector-curvature="0"
       sodipodi:nodetypes="cc" />
    <path
       style="fill:none;stroke:#000000;stroke-width:1;stroke-linecap:butt;stroke-linejoin:miter;stroke-opacity:1;stroke-miterlimit:4;stroke-dasharray:none"
       d="m 29.448939,1018.1673 c -5.756425,-2.9953 -15.010081,-6.5078 -20.3773716,-2.4331"
       id="path3202"
       inkscape:connector-curvature="0"
       sodipodi:nodetypes="cc" />
    <path
       style="fill:none;stroke:#000000;stroke-width:1;stroke-linecap:butt;stroke-linejoin:miter;stroke-opacity:1;stroke-miterlimit:4;stroke-dasharray:none"
       d="m 30.209286,1019.0797 c -4.355104,-2.2747 -13.917805,-3.6864 -17.640108,-0.7603"
       id="path3204"
       inkscape:connector-curvature="0"
       sodipodi:nodetypes="cc" />
    <path
       style="fill:none;stroke:#000000;stroke-width:2;stroke-linecap:butt;stroke-linejoin:miter;stroke-opacity:1;stroke-miterlimit:4;stroke-dasharray:none"
       d="m 36.273604,1018.6468 c -1.436655,-0.2663 -3.382042,-0.62 -3.348005,2.0785 -0.674456,3.0571 2.320392,3.8557 4.657573,2.1226 1.782588,-1.0377 2.049599,-3.717 -1.309568,-4.2011 z"
       id="path3238"
       inkscape:connector-curvature="0"
       sodipodi:nodetypes="cccc" />
    <path
       style="fill:#00ccff;stroke-width:2;stroke-miterlimit:4;stroke-dasharray:none"
       d="m 34.524215,1026.9599 c -3.080615,-0.4334 -3.872178,-1.0956 -5.303227,-4.437 -0.624847,-1.4588 -1.406052,-4.02 -1.268227,-4.1579 0.02974,-0.03 0.497842,0.1447 1.040225,0.3875 1.027861,0.4602 1.366329,0.5394 1.366329,0.32 0,-0.071 -0.560178,-0.3664 -1.244848,-0.6552 -0.68467,-0.2887 -1.273658,-0.6113 -1.308869,-0.717 -0.03762,-0.1127 0.254524,-0.031 0.707546,0.1989 0.79267,0.4017 1.085947,0.4765 1.085655,0.2769 -3.64e-4,-0.1799 -2.642092,-1.4683 -4.561928,-2.2248 -0.961842,-0.379 -2.56998,-0.9266 -3.573646,-1.217 -1.726322,-0.4994 -4.658703,-1.6997 -7.002241,-2.866 -0.633289,-0.3153 -1.504145,-0.5981 -2.171035,-0.7052 -1.423066,-0.2285 -2.7469228,-0.7682 -3.7594094,-1.5326 -1.4723684,-1.1116 -2.1626801,-3.2347 -1.4695685,-4.5197 0.3049839,-0.5654 1.4091569,-1.566 2.1472694,-1.9459 1.7501905,-0.9008 4.9290755,-0.08 6.5471775,1.6904 0.835288,0.9139 1.144939,1.659 1.017028,2.4472 -0.116174,0.716 -0.745294,1.5953 -1.497388,2.093 -0.342798,0.2268 -0.555192,0.4632 -0.481898,0.5364 0.416179,0.4157 8.738268,2.2122 11.574318,2.4987 l 0.950441,0.096 0,-1.6642 c 0,-6.1218 1.602714,-11.29416 3.985159,-12.86121 0.391838,-0.25771 0.716162,-0.51993 0.720718,-0.58269 0.0044,-0.0627 -0.629753,-0.11402 -1.40958,-0.11402 -3.52209,0 -7.497349,-1.25804 -10.636306,-3.36605 -1.55834,-1.04652 -3.324277,-2.93682 -3.966212,-4.24556 -1.639944,-3.34344 -1.620625,-7.48212 0.05161,-11.05053 1.886797,-4.02631 5.317617,-6.69793 9.885305,-7.69777 1.946408,-0.42605 5.227047,-0.44714 6.767817,-0.0435 1.373758,0.3599 3.61767,1.41318 4.657859,2.18639 2.435844,1.81064 4.208259,4.47034 4.781727,7.17553 0.290077,1.36837 0.269966,2.24325 -0.10203,4.43859 -0.519304,3.06469 -1.862877,6.72032 -2.940741,8.00128 -0.390058,0.46355 -0.501136,0.79983 -0.264197,0.79983 0.06918,0 0.56117,-0.17689 1.093223,-0.39307 4.439079,-1.80377 9.088416,-1.04583 13.234296,2.1574 1.388352,1.07272 1.748165,1.09933 0.991222,0.0734 -1.789225,-2.42511 -2.137082,-8.27077 -0.753403,-12.66073 0.605475,-1.92099 0.991296,-2.55492 2.305458,-3.78809 4.847562,-4.54881 13.460144,-5.375 19.255768,-1.84718 1.183194,0.72022 3.362697,2.89862 4.020759,4.01873 0.970893,1.6526 1.632663,5.2995 1.498437,8.25767 -0.175257,3.86223 -1.434825,6.68116 -4.324815,9.67911 -1.36962,1.42077 -2.499039,2.12957 -4.295556,2.69587 -3.28681,1.0361 -8.451079,1.1879 -13.133639,0.3861 -0.741524,-0.1269 -1.369572,-0.2094 -1.395667,-0.1833 -0.02609,0.026 -0.159254,0.6967 -0.295911,1.4904 -0.444975,2.5841 -1.108408,4.9887 -1.854847,6.7228 l -0.73194,1.7004 -1.444665,0.2571 c -2.298459,0.4094 -5.539571,1.1858 -7.660657,1.8355 -2.562166,0.7847 -5.161344,1.8129 -4.997465,1.9768 0.07166,0.071 1.011442,-0.2025 2.097965,-0.612 3.079988,-1.1608 7.549712,-2.3479 11.225301,-2.9816 l 0.58911,-0.1016 -0.354821,0.5808 c -0.195151,0.3193 -0.644879,1.0319 -0.999393,1.5836 l -0.644575,1.0028 -1.794728,0.093 c -3.613671,0.1865 -9.592514,1.2658 -9.197942,1.6603 0.08075,0.081 0.637049,0.01 1.360598,-0.1758 2.310611,-0.59 8.243631,-1.3785 9.056947,-1.2037 0.686761,0.1475 -4.555269,5.6963 -7.397585,7.8304 -3.645727,2.7373 -6.771482,3.8252 -9.776274,3.4024 l 0,0 z m 1.784723,-3.276 c 1.775677,-0.6212 2.84173,-1.8832 2.670335,-3.161 -0.157289,-1.1726 -1.39239,-1.9187 -3.587445,-2.1671 -1.913837,-0.2165 -2.593272,0.498 -2.645134,2.7821 -0.03565,1.5692 0.188484,2.0427 1.179895,2.4931 0.754048,0.3425 1.507098,0.3592 2.382349,0.053 z m 13.636934,-17.1648 c 0.741035,-0.3855 1.452074,-1.3821 1.573292,-2.2051 0.09578,-0.6505 -0.256466,-0.4956 -0.440837,0.1938 -0.625731,2.3395 -3.319416,2.5555 -5.657288,0.4535 -0.466432,-0.4194 -0.783001,-0.6068 -0.84775,-0.5021 -0.226946,0.3672 1.495616,1.674 2.704356,2.0517 0.860013,0.2685 2.160162,0.2728 2.668227,0.01 l 0,0 z m -14.960403,-2.5176 c 0.798349,-0.3866 2.036876,-1.4472 1.878698,-1.6089 -0.06058,-0.062 -0.408189,0.1315 -0.772412,0.4299 -1.901976,1.5585 -3.410102,1.5941 -4.039411,0.095 -0.295879,-0.7048 -0.674412,-0.8287 -0.482,-0.1579 0.454487,1.5849 1.740553,2.0524 3.415125,1.2418 z"
       id="path4099"
       inkscape:connector-curvature="0" />
    <path
       style="fill:#bc5fd3;fill-opacity:1;stroke-width:2;stroke-miterlimit:4;stroke-dasharray:none;opacity:1;marker-start:none;filter:url(#filter4208)"
       d="m 78.489449,1021.7961 c -0.919899,-0.3765 -1.276641,-1.3896 -1.287999,-3.658 -0.01098,-2.1796 -0.07182,-2.433 -0.585324,-2.433 -0.286848,0 -0.686997,0.2982 -1.479402,1.1025 -0.597411,0.6063 -1.267884,1.2636 -1.489941,1.4605 -0.222057,0.197 -0.40374,0.4829 -0.40374,0.6357 0,0.2521 -0.06606,0.2413 -0.722349,-0.1177 -0.397269,-0.2174 -0.751536,-0.4185 -0.787248,-0.4471 -0.08253,-0.067 0.124083,-0.2217 2.345976,-1.7692 3.360051,-2.3401 6.598782,-4.2055 7.307541,-4.2088 0.440145,0 1.107477,0.7629 2.073303,2.3768 0.720333,1.2036 0.855288,1.5563 1.007613,2.6335 0.217044,1.5346 0.04599,2.0511 -0.910404,2.7486 -1.793691,1.3083 -4.101795,2.0718 -5.068026,1.6762 z"
       id="path4114"
       inkscape:connector-curvature="0" />
    <path
       style="fill:#00ccff;fill-opacity:1;stroke-width:2;stroke-miterlimit:4;stroke-dasharray:none"
       d="m 10.568111,1044.6869 c -1.9985677,-3.3216 -2.9387887,-6.408 -2.8130938,-9.2343 0.061605,-1.3849 0.124083,-1.6547 0.6242058,-2.6944 0.3958839,-0.8232 0.7955946,-1.3747 1.389438,-1.9174 0.815262,-0.7451 0.860307,-0.7643 2.038802,-0.8686 2.279998,-0.2018 3.546752,0.3253 4.069205,1.6933 0.241029,0.6312 0.251905,0.9633 0.113148,3.4553 -0.171162,3.0741 -0.05818,4.8512 0.382119,6.01 0.259474,0.6829 0.266246,0.7769 0.05599,0.7769 -0.535268,0 -2.61942,1.3937 -4.774461,3.1927 l -0.556839,0.4649 -0.528504,-0.8784 z"
       id="path4118"
       inkscape:connector-curvature="0" />
    <path
       style="fill:#00ccff;fill-opacity:1;stroke-width:2;stroke-miterlimit:4;stroke-dasharray:none"
       d="m 86.777261,1017.8026 c 0,-1.7944 -0.811692,-3.5072 -2.671452,-5.6369 l -1.297908,-1.4862 0.314073,-0.4411 c 0.352971,-0.4956 3.814344,-3.8331 4.441509,-4.2825 l 0.406053,-0.2909 0.491958,0.876 c 0.593325,1.0568 0.881163,1.4085 1.15263,1.4085 0.305289,0 0.252909,-0.3266 -0.259182,-1.6157 -0.255033,-0.642 -0.433062,-1.2471 -0.395622,-1.3448 0.03753,-0.097 0.810684,-0.547 1.718289,-0.9988 1.552248,-0.7726 1.717902,-0.8215 2.790738,-0.8236 1.528443,0 2.194002,0.3525 3.199833,1.709 1.242855,1.6761 1.593225,2.513 1.573479,3.7582 -0.0207,1.3053 -0.360216,2.0808 -1.454526,3.3216 -0.849645,0.9635 -3.0888,2.8422 -3.372012,2.8292 -0.09619,-0.01 -0.619695,-0.5987 -1.16334,-1.3207 -0.543654,-0.722 -1.082475,-1.3429 -1.197396,-1.3795 -0.323532,-0.1036 -0.142353,0.7739 0.438021,2.1214 0.275256,0.6392 0.460305,1.2666 0.411228,1.3945 -0.06597,0.1717 -3.998628,2.3835 -5.00823,2.8167 -0.06498,0.028 -0.118143,-0.2486 -0.118143,-0.6144 z"
       id="path4152"
       inkscape:connector-curvature="0" />
    <path
       style="fill:#ff00cc;fill-opacity:1;stroke:#000000;stroke-width:1;stroke-linecap:butt;stroke-linejoin:miter;stroke-opacity:1;stroke-miterlimit:4;stroke-dasharray:none"
       d="m 45.438018,1026.3719 c -1.971647,1.0862 -4.332198,3.5843 -5.530145,5.718 3.075712,1.2438 8.458168,10.344 7.301387,2.8421 -0.07578,-2.5877 0.215147,-8.7389 -1.771242,-8.5601 z m -10.991952,1.7313 c -1.301338,0.014 -1.592602,4.5985 -1.174404,6.3827 0.372723,5.9972 2.689289,-0.3662 5.075692,-2.396 -1.476524,-0.9626 -2.712544,-3.8829 -3.901288,-3.9867 z"
       id="path3043"
       inkscape:connector-curvature="0"
       sodipodi:nodetypes="cccccccc" />
  </g>
</svg>
