<?xml version="1.0" encoding="UTF-8" standalone="no"?>
<!-- Created with Inkscape (http://www.inkscape.org/) -->

<svg
   xmlns:dc="http://purl.org/dc/elements/1.1/"
   xmlns:cc="http://creativecommons.org/ns#"
   xmlns:rdf="http://www.w3.org/1999/02/22-rdf-syntax-ns#"
   xmlns:svg="http://www.w3.org/2000/svg"
   xmlns="http://www.w3.org/2000/svg"
   xmlns:sodipodi="http://sodipodi.sourceforge.net/DTD/sodipodi-0.dtd"
   xmlns:inkscape="http://www.inkscape.org/namespaces/inkscape"
   width="744.09448819"
   height="1052.3622047"
   id="svg3007"
   version="1.1"
   inkscape:version="0.48.4 r9939"
   sodipodi:docname="Mouse-Test2.svg">
  <defs
     id="defs3009" />
  <sodipodi:namedview
     id="base"
     pagecolor="#ffffff"
     bordercolor="#666666"
     borderopacity="1.0"
     inkscape:pageopacity="0.0"
     inkscape:pageshadow="2"
     inkscape:zoom="1.2231495"
     inkscape:cx="349.84772"
     inkscape:cy="578.26105"
     inkscape:document-units="px"
     inkscape:current-layer="layer1"
     showgrid="false"
     inkscape:window-width="1920"
     inkscape:window-height="1200"
     inkscape:window-x="0"
     inkscape:window-y="0"
     inkscape:window-maximized="1" />
  <metadata
     id="metadata3012">
    <rdf:RDF>
      <cc:Work
         rdf:about="">
        <dc:format>image/svg+xml</dc:format>
        <dc:type
           rdf:resource="http://purl.org/dc/dcmitype/StillImage" />
        <dc:title></dc:title>
      </cc:Work>
    </rdf:RDF>
  </metadata>
  <g
     inkscape:label="Layer 1"
     inkscape:groupmode="layer"
     id="layer1">
    <path
       style="fill:none;stroke:#000000;stroke-width:1px;stroke-linecap:butt;stroke-linejoin:miter;stroke-opacity:1"
       d="M 182.71875 74.84375 C 179.17675 74.88565 175.58577 75.21905 172 75.90625 C 116.06327 81.96436 90.324783 136.39212 107 177.90625 C 119.07453 207.53744 166.28837 227.34806 196.875 223.3125 C 176.11606 233.41621 170.03058 271.44304 170.90625 305.25 C 155.30862 304.13322 135.125 300.68392 104.03125 291.71875 C 138.79514 270.8716 83.542132 236.1988 64.625 259.71875 C 53.851655 264.6464 52.171222 296.45898 94.84375 300.6875 C 115.00413 310.49893 145.24557 324.73102 173 331.25 C 174.421 341.354 176.417 349.92308 178.6875 355.5625 C 189.10651 379.16055 189.31814 384.97405 216.9375 386.9375 C 252.92324 390.1792 300.95 339.41059 317.78125 309.78125 C 330.57874 287.00905 333.61131 271.83329 337.21875 248.8125 C 376.92062 256.90301 423.43471 253.65462 438.96875 234.6875 C 467.41342 207.52501 469.4984 175.8521 459.40625 138.78125 C 432.75798 84.236135 349.43063 89.684335 320.09375 128.0625 C 305.94401 151.7579 305.04439 198.48007 320.625 215.625 C 284.62837 184.72616 253.96336 192.31466 235.03125 201.21875 C 249.2708 186.6653 258.35488 142.06197 254.59375 130.40625 C 248.02899 97.087445 216.95812 74.43869 182.71875 74.84375 z "
       id="path4093" />
    <path
       style="fill:none;stroke:#000000;stroke-width:1px;stroke-linecap:butt;stroke-linejoin:miter;stroke-opacity:1"
       d="m 304.17201,259.44087 c -3.79934,21.96066 -26.76816,15.69278 -37.14286,2.85714"
       id="path3039"
       inkscape:connector-curvature="0"
       sodipodi:nodetypes="cc" />
    <path
       style="fill:none;stroke:#000000;stroke-width:1px;stroke-linecap:butt;stroke-linejoin:miter;stroke-opacity:1"
       d="m 224.17201,250.86944 c -17.71775,16.99278 -26.54313,9.49894 -28.57143,0"
       id="path3041"
       inkscape:connector-curvature="0"
       sodipodi:nodetypes="cc" />
    <path
       style="fill:none;stroke:#000000;stroke-width:1px;stroke-linecap:butt;stroke-linejoin:miter;stroke-opacity:1"
       d="m 468.21875,304.15625 c -7.42739,0.31846 -53.6884,31.42807 -56.36998,35.60073 l -130.83175,50.83733 -78.17327,7.46819 c -33.29963,7.42092 -75.59116,-0.21885 -108.5625,-14.28125 -7.943519,-4.08185 -12.955872,-9.72004 -17.4375,-12.09375 -8.343244,-17.6849 -11.85889,-26.84304 -38.481306,-9.02163 -15.371009,14.4262 -12.560429,28.77062 0.725447,33.13728 8.304265,9.19672 12.193696,-6.80074 21.162109,-12.55315 -0.0073,0.0131 9.154507,-5.82266 9.147182,-5.80957 -37.680556,27.73693 -7.813754,46.63283 18.277204,55.98075 25.783844,10.7521 100.936624,-3.18229 98.388114,41.79757 -2.02998,45.77666 -13.76475,49.0747 -23.40625,82.76702 -1.42813,21.71928 -20.84127,48.35107 42.23479,56.48828 40.17834,5.117 64.13116,4.98776 100.10896,-11.97405 19.82722,-14.29421 21.66827,-18.36534 30.4375,-33.71875 2.12417,-33.38339 -14.43877,-63.44828 -16.875,-95.71875 1.84057,-21.69738 10.6313,-40.57579 37.29994,-54.16908 l 96.03767,-55.67118 -9.66071,-7.47252 c -12.21391,-3.01068 -26.64208,-12.23688 -10.89565,-20.90597 29.84054,-37.22095 -6.87985,37.75798 35.81222,21.68136 26.8775,-12.18215 19.46319,-15.78939 17.91616,-31.59054 -7.18802,-11.75692 -11.62522,-20.60291 -16.13463,-20.77832 -0.23487,-0.009 -0.47916,-0.0103 -0.71875,0 z"
       id="path3047"
       inkscape:connector-curvature="0"
       sodipodi:nodetypes="ccccccccccccccccccccccccc" />
    <path
       style="fill:none;stroke:#000000;stroke-width:1px;stroke-linecap:butt;stroke-linejoin:miter;stroke-opacity:1"
       d="m 340,598.07647 c 21.31212,45.42736 4.8417,146.99222 -5.30754,191.01066 4.05824,26.18997 42.67596,6.19841 62.42472,32.20041 -5.98289,11.78425 -16.7409,11.8392 -53.81308,-0.35669 -39.34696,-11.19546 -33.79309,-14.69152 -44.12652,-31.27555 -6.57119,-23.63415 -1.16185,-82.78112 3.28859,-104.10385 -13.46339,-17.20399 -43.63419,-31.18769 -53.28057,10.37133 0.006,34.95209 -3.10152,72.66367 17.306,102.45092 -7.95073,25.06992 -61.65225,39.41702 -79.00284,69.77217 -9.47861,9.40838 -26.41969,15.02147 -27.26136,-2.23151 2.73663,-33.49191 64.80522,-39.181 52.25901,-65.7043 -17.12359,-38.38628 -33.4924,-56.48163 -47.15404,-100.81083 -5.32213,-12.63865 -6.25509,-42.48648 6.0962,-49.89419 C 287.0346,682.72169 340,598.07647 340,598.07647 z"
       id="path3053"
       inkscape:connector-curvature="0"
       sodipodi:nodetypes="cccccccccccccc" />
    <path
       style="fill:none;stroke:#000000;stroke-width:1px;stroke-linecap:butt;stroke-linejoin:miter;stroke-opacity:1"
       d="m 472.9813,71.137556 c -0.7274,0.05859 -1.63854,0.990837 -2.75,2.90625 -2e-5,75.822934 13.41265,129.282214 23.625,163.218754 5.56521,16.61475 10.599,27.06706 13.6875,32.53125 0.66718,1.59619 5.51812,9.60041 5.5625,9.9375 -16.45335,-39.07755 -30.66562,-98.04392 -32.46875,-140.46875 -5.68178,-27.38865 -2.56444,-68.535147 -7.65625,-68.125004 z m 62.625,182.531254 c -2.77028,-0.0358 -5.66125,0.38865 -8.5,1.25 -4.27062,1.29581 -14.03735,6.2223 -17.03125,8.59375 l -1.8125,1.4375 2.84375,7.03125 c 3.1465,7.74021 3.3734,8.69738 1.84375,8.1875 -0.56828,-0.18943 -2.58198,-3.23908 -4.46875,-6.78125 l -3.4375,-6.4375 -4.5,3.53125 c -4.87207,3.81386 -25.78525,24.55043 -25.78125,25.5625 0.001,0.33929 3.2923,3.9947 7.3125,8.125 10.32286,10.60557 15.1354,20.71913 15.1875,31.90625 0.0112,2.40934 0.19385,4.375 0.375,4.375 0.37934,0 22.60275,-11.76242 27.34375,-14.46875 1.74274,-0.99482 3.1835,-2.25194 3.1875,-2.8125 0.004,-0.56057 -0.96336,-3.19187 -2.15625,-5.84375 -4.7234,-10.50046 -5.23944,-11.89413 -4.5625,-12.3125 0.54381,-0.3361 7.4063,8.28966 11.875,14.90625 1.774,2.62668 22.80394,-16.47245 26.53125,-24.09375 2.87454,-5.87761 3.23054,-13.53651 0.90625,-19.71875 -1.93437,-5.14506 -9.47284,-15.85292 -13.15625,-18.6875 -3.10669,-2.39076 -7.38286,-3.69037 -12,-3.75 z m -13.9375,51.78125 c 7.48199,13.88845 10.22738,26.31842 16.96875,42.46875 12.54386,-10.19863 -9.74307,-30.12654 -16.96875,-42.46875 z"
       id="path3057"
       inkscape:connector-curvature="0" />
    <path
       style="fill:none;stroke:#000000;stroke-width:1px;stroke-linecap:butt;stroke-linejoin:miter;stroke-opacity:1"
       d="M 52.616908,343.66422 C 34.562984,312.03139 71.854623,267.75775 16.813523,276.52379 -15.017992,299.05455 6.9099548,344.2274 20,363.79075 50.898577,336.44449 52.616908,343.66422 52.616908,343.66422 z"
       id="path3061"
       inkscape:connector-curvature="0"
       sodipodi:nodetypes="cccc" />
    <path
       style="fill:none;stroke:#000000;stroke-width:0.64202833px;stroke-linecap:butt;stroke-linejoin:miter;stroke-opacity:1"
       d="m 248.81508,450.18986 c 2.23748,10.92427 -26.31149,14.80871 -13.3863,-1.16592 6.85493,-9.39093 14.84114,-4.08762 13.3863,1.16592 z"
       id="path3063"
       inkscape:connector-curvature="0"
       sodipodi:nodetypes="ccc" />
    <path
       style="fill:none;stroke:#000000;stroke-width:1px;stroke-linecap:butt;stroke-linejoin:miter;stroke-opacity:1"
       d="m 242.02274,487.33009 c 21.8541,10.57326 -15.06686,33.34392 -4.22712,2.91189 z"
       id="path3065"
       inkscape:connector-curvature="0"
       sodipodi:nodetypes="ccc" />
    <path
       style="fill:none;stroke:#000000;stroke-width:1px;stroke-linecap:butt;stroke-linejoin:miter;stroke-opacity:1"
       d="m 247.38309,525.66128 c 16.71202,3.35461 1.51415,22.96989 -10.54436,14.13834 -6.7959,-8.28168 -4.4928,-16.83042 10.54436,-14.13834 z"
       id="path3067"
       inkscape:connector-curvature="0"
       sodipodi:nodetypes="ccc" />
    <path
       style="fill:#000000;stroke:#000000;stroke-width:1px;stroke-linecap:butt;stroke-linejoin:miter;stroke-opacity:1"
       d="M 676.90625 426.84375 C 665.94176 426.71636 648.74123 433.27378 639.46875 436.59375 C 598.58326 446.14386 584.94347 439.13856 542.65625 437.8125 C 516.06079 421.27015 505.99089 445.28241 509.625 461.5625 L 500.84375 469.78125 L 496.90625 442.65625 C 478.14817 477.92771 455.74984 510.2768 452.34375 547.09375 C 456.60264 560.64074 460.26726 562.80922 479.1875 558.03125 C 504.03558 551.08048 534.15811 546.82418 563.78125 543.9375 C 552.93326 589.33849 543.12199 629.25857 542.96875 677 C 544.50956 710.26172 552.35511 754.04551 562.71875 786.53125 C 561.59706 786.92095 560.06984 787.44899 559.28125 787.71875 C 540.79871 792.67226 521.86911 801.11907 511.4375 818.0625 C 579.31883 785.05879 593.72908 790.8311 611.65625 781.78125 C 642.75808 758.80039 584.46454 778.97115 564.0625 786.0625 C 572.05013 758.53083 577.75307 736.76703 584.28125 706.25 C 591.62979 665.01587 590.47588 591.85835 583.90625 542.15625 C 599.23586 540.92805 614.08761 539.98674 627.5625 539.15625 C 679.35773 530.15155 683.86824 491.55321 696.6875 449.65625 C 706.44945 432.2693 686.5808 426.95615 676.90625 426.84375 z "
       id="path3069" />
    <path
       style="fill:none;stroke:#000000;stroke-width:1px;stroke-linecap:butt;stroke-linejoin:miter;stroke-opacity:1"
       d="m 243.64565,324.76284 c 55.21019,-23.75793 120.57102,-28.14006 176.89342,-29.20409"
       id="path3198"
       inkscape:connector-curvature="0"
       sodipodi:nodetypes="cc" />
    <path
       style="fill:none;stroke:#000000;stroke-width:1px;stroke-linecap:butt;stroke-linejoin:miter;stroke-opacity:1"
       d="m 248.65207,331.43807 c 49.12894,-15.21324 157.0105,-13.442 185.23745,21.69447"
       id="path3200"
       inkscape:connector-curvature="0"
       sodipodi:nodetypes="cc" />
    <path
       style="fill:none;stroke:#000000;stroke-width:1px;stroke-linecap:butt;stroke-linejoin:miter;stroke-opacity:1"
       d="M 183.56864,337.27889 C 151.98332,320.84387 101.20881,301.57099 71.758651,323.92844"
       id="path3202"
       inkscape:connector-curvature="0"
       sodipodi:nodetypes="cc" />
    <path
       style="fill:none;stroke:#000000;stroke-width:1px;stroke-linecap:butt;stroke-linejoin:miter;stroke-opacity:1"
       d="M 187.74066,342.2853 C 163.84433,329.8038 111.37408,322.05778 90.949918,338.11329"
       id="path3204"
       inkscape:connector-curvature="0"
       sodipodi:nodetypes="cc" />
    <path
       style="fill:none;stroke:#000000;stroke-width:1px;stroke-linecap:butt;stroke-linejoin:miter;stroke-opacity:1"
       d="m 221.01539,339.9099 c -7.88289,-1.46119 -18.55717,-3.40175 -18.3704,11.40478 -3.70075,16.77396 12.73191,21.15579 25.55593,11.64673 9.78103,-5.69403 11.24609,-20.39465 -7.18553,-23.05151 z"
       id="path3238"
       inkscape:connector-curvature="0"
       sodipodi:nodetypes="cccc" />
    <path
       style="fill:#b3b3b3"
       d="m 211.41654,385.52376 c -16.90324,-2.37835 -21.24651,-6.01217 -29.09865,-24.34549 -3.42852,-8.005 -7.71494,-22.05825 -6.95871,-22.81449 0.16319,-0.16319 2.73165,0.79362 5.70769,2.12624 5.63982,2.52541 7.497,2.96033 7.497,1.75569 0,-0.39269 -3.07371,-2.0103 -6.83046,-3.59469 -3.75675,-1.5844 -6.98852,-3.35495 -7.18172,-3.93456 -0.20626,-0.61875 1.39657,-0.16812 3.8823,1.0915 4.34936,2.20399 5.95855,2.61446 5.95694,1.51951 -0.002,-0.98727 -14.49708,-8.05673 -25.03117,-12.20759 -5.27759,-2.0796 -14.1014,-5.08463 -19.60846,-6.67786 -9.47227,-2.74039 -25.56218,-9.3261 -38.42108,-15.72601 -3.474823,-1.72943 -8.253221,-3.28135 -11.91241,-3.86887 -7.808295,-1.25374 -15.072278,-4.21512 -20.62774,-8.40953 -8.078846,-6.09959 -11.866587,-17.74875 -8.063475,-24.79914 1.673442,-3.10231 7.731971,-8.59279 11.781964,-10.6773 9.603251,-4.94271 27.045714,-0.43929 35.924181,9.27517 4.58321,5.01476 6.28222,9.10309 5.58039,13.42802 -0.63743,3.92802 -4.08939,8.75288 -8.21613,11.48383 -1.88089,1.24471 -3.04629,2.54217 -2.64413,2.94375 2.28354,2.28029 47.9466,12.138 63.50792,13.71005 l 5.21502,0.52684 0,-9.13146 c 0,-33.58986 8.79404,-61.97059 21.86644,-70.5689 2.15002,-1.41416 3.92957,-2.85281 3.95458,-3.197 0.025,-0.34419 -3.45544,-0.6258 -7.73432,-0.6258 -19.32561,0 -41.13772,-6.90274 -58.3611,-18.46916 -8.55054,-5.74216 -18.2402,-16.1143 -21.76246,-23.29528 -8.99834,-18.34533 -8.89235,-41.05422 0.283,-60.63391 10.35277,-22.092224 29.1776,-36.751267 54.24035,-42.237386 10.67988,-2.337774 28.68064,-2.453462 37.13481,-0.238659 7.53774,1.97472 19.85001,7.754069 25.55752,11.99664 13.3654,9.934913 23.09057,24.528655 26.23717,39.371925 1.59165,7.50815 1.4813,12.30873 -0.55983,24.35442 -2.84941,16.81575 -10.22154,36.87413 -16.13577,43.90278 -2.14024,2.54353 -2.74969,4.38856 -1.44963,4.38856 0.3798,0 3.07912,-0.97056 5.99849,-2.15681 24.35708,-9.89717 49.86785,-5.73841 72.61616,11.83785 7.61785,5.88585 9.59213,6.03193 5.43881,0.40242 -9.81743,-13.30677 -11.72611,-45.38167 -4.1339,-69.46927 3.32222,-10.54031 5.43921,-14.01873 12.64997,-20.7851 26.59843,-24.959178 73.85539,-29.492451 105.6558,-10.13536 6.49214,3.9518 18.45099,15.90464 22.06175,22.05065 5.32729,9.06778 8.95838,29.07817 8.22188,45.30954 -0.96158,21.19186 -7.87283,36.65953 -23.73008,53.10891 -7.51509,7.79572 -13.71221,11.68499 -23.56959,14.79213 -18.03466,5.68468 -46.37082,6.51785 -72.06388,2.1189 -4.06872,-0.69661 -7.5148,-1.14943 -7.65798,-1.00625 -0.14317,0.14317 -0.87382,3.82321 -1.62365,8.17786 -2.44157,14.17935 -6.0818,27.37324 -10.17749,36.88801 l -4.01613,9.32992 -7.92683,1.41132 c -12.61157,2.24541 -30.39545,6.50624 -42.03379,10.07086 -14.05852,4.30588 -28.32012,9.94694 -27.42093,10.84613 0.39304,0.39303 5.54975,-1.11109 11.51146,-3.3577 16.8998,-6.36851 41.42504,-12.88262 61.59288,-16.3596 l 3.23243,-0.55728 -1.94689,3.18623 c -1.07079,1.75242 -3.53843,5.66241 -5.48364,8.68887 l -3.53676,5.50265 -9.84762,0.5083 c -19.8281,1.02344 -52.63383,6.94537 -50.46882,9.11038 0.44305,0.44304 3.49547,0.0484 7.46556,-0.96528 12.67825,-3.23705 45.23255,-7.5636 49.69519,-6.60462 3.76823,0.80976 -24.99462,31.25575 -40.59032,42.96558 -20.004,15.01973 -37.15493,20.98873 -53.64211,18.66892 l 0,0 z m 9.79273,-17.97499 c 9.74307,-3.4088 15.59248,-10.33324 14.65202,-17.34486 -0.86303,-6.43444 -7.64001,-10.52831 -19.68421,-11.89096 -10.50115,-1.18807 -14.22918,2.73313 -14.51375,15.26578 -0.19549,8.60971 1.0342,11.20788 6.47404,13.67885 4.13746,1.87938 8.26941,1.97142 13.0719,0.29119 z m 74.82541,-94.18245 c 4.06604,-2.11556 7.96749,-7.58432 8.63261,-12.10056 0.52556,-3.56866 -1.40722,-2.71868 -2.41886,1.06374 -3.43337,12.83699 -18.21353,14.02192 -31.04137,2.4886 -2.5593,-2.30103 -4.2963,-3.3298 -4.65157,-2.75497 -1.24525,2.01488 8.2064,9.18514 14.83872,11.25703 4.71886,1.47413 11.85274,1.49662 14.64047,0.0461 l 0,2e-5 z M 213.9474,259.55123 c 4.38054,-2.12058 11.17629,-7.94024 10.30838,-8.82775 -0.33254,-0.34005 -2.23972,0.72158 -4.23819,2.35918 -10.43611,8.5516 -18.71114,8.74624 -22.16414,0.52132 -1.62346,-3.86701 -3.70048,-4.54688 -2.64472,-0.86569 2.49378,8.69533 9.55035,11.26093 18.73867,6.81294 z"
       id="path4099"
       inkscape:connector-curvature="0" />
    <path
       style="fill:#00ff3e;fill-opacity:1"
       d="m 230.70121,616.17028 c -1.37676,-0.18974 -7.19672,-0.76093 -12.93324,-1.26929 -25.8497,-2.29082 -42.76791,-7.08986 -50.66899,-14.37282 -6.36902,-5.87076 -8.31323,-11.62853 -6.98348,-20.6815 3.14057,-21.38099 4.95337,-28.10663 12.0098,-44.55711 7.36028,-17.15884 8.81927,-21.02822 10.53974,-27.9525 2.56768,-10.33403 3.69065,-19.82053 3.75338,-31.70731 0.0564,-10.68787 -0.056,-11.48325 -2.19568,-15.53937 -7.02175,-13.31089 -21.58633,-18.65575 -59.9079,-21.98478 -28.189116,-2.4488 -34.880709,-4.03412 -50.481374,-11.95956 -6.243156,-3.17164 -9.743028,-5.62832 -13.900428,-9.75718 -8.568225,-8.50941 -9.469088,-15.25576 -3.306251,-24.75976 2.419516,-3.73124 9.180777,-10.48609 13.326819,-13.31418 0.160684,-0.1096 0.05026,-0.59067 -0.245385,-1.06904 -1.301389,-2.10569 -13.932819,7.84806 -20.090766,15.83182 -0.907764,1.17691 -2.625477,2.77816 -3.81714,3.55834 -2.050116,1.3422 -2.274528,1.33653 -4.172015,-0.10535 -1.102944,-0.83812 -3.74003,-2.52044 -5.860191,-3.73849 -8.95705,-5.14589 -8.714028,-16.02561 0.589096,-26.37292 3.859539,-4.29274 16.051593,-11.20507 21.599333,-12.24584 5.91834,-1.11028 10.041275,2.21838 15.038351,12.14124 2.402491,4.77071 3.806145,6.32948 9.721892,10.79622 8.447626,6.37846 11.724152,8.05636 24.354199,12.47172 15.55602,5.43825 30.73928,8.89439 49.93923,11.36759 7.95663,1.02491 31.04361,0.55933 39.06328,-0.78777 4.35976,-0.73233 25.38671,-2.99502 46.72657,-5.0282 l 38.79973,-3.6967 64.499,-25.06611 c 35.47444,-13.78636 65.24081,-25.46312 66.14747,-25.94835 1.30623,-0.69907 2.50284,-0.41725 5.76339,1.35737 2.2632,1.23178 4.78823,2.93577 5.61117,3.78664 0.82295,0.85086 2.43498,2.51676 3.58228,3.702 2.34593,2.42349 6.33154,4.6299 11.22579,6.21453 2.94139,0.95234 11.15487,6.4331 11.24211,7.50174 0.0188,0.22946 -23.2592,13.90579 -51.72874,30.39183 -28.46955,16.48605 -53.71461,31.42733 -56.10014,33.20285 -10.00075,7.4434 -18.59273,20.39134 -22.02822,33.19606 -1.91591,7.14098 -1.85588,20.70295 0.13112,29.6213 0.81797,3.67137 3.85866,16.06226 6.75709,27.5353 5.7211,22.64623 7.88227,34.99964 7.88227,45.05569 0,5.96505 -0.23551,6.85019 -3.07967,11.57456 -6.69276,11.11719 -10.72753,15.59999 -21.51742,23.90674 -8.88659,6.84148 -28.21137,14.12395 -45.46212,17.13223 -6.99305,1.21949 -28.96347,2.23822 -33.82396,1.56836 l 0,0 z m 16.42272,-73.93237 c 4.54853,-1.36278 8.19217,-5.70033 8.19217,-9.75234 0,-4.27042 -2.55185,-6.5488 -8.58372,-7.66385 -8.51264,-1.57364 -14.3226,1.36233 -14.10584,7.12816 0.19492,5.18494 2.96866,9.08561 7.40836,10.41828 3.24757,0.97483 3.41058,0.97184 7.08903,-0.13025 l 0,0 z m -1.17628,-38.41402 c 5.17369,-4.76594 5.03279,-11.30548 -0.33173,-15.3972 -2.93042,-2.23514 -2.97834,-2.24169 -5.69544,-0.77844 -3.1114,1.6756 -4.76912,5.82879 -4.76912,11.94834 0,4.98124 2.00264,7.22822 5.88125,6.59881 1.56263,-0.25358 3.7744,-1.32076 4.91504,-2.37151 z m -1.34967,-45.36617 c 3.31888,-1.71625 4.8773,-4.42038 4.8773,-8.46292 0,-8.36805 -8.67183,-9.33223 -14.5555,-1.61835 -5.99911,7.86524 -4.07142,12.84321 4.51383,11.65633 1.59037,-0.21986 3.91433,-0.92864 5.16437,-1.57506 z"
       id="path4104"
       inkscape:connector-curvature="0" />
    <path
       style="fill:#fffc00;fill-opacity:1"
       d="m 233.63062,457.70093 c -1.58575,-1.91071 -0.34989,-5.04938 3.61934,-9.1919 3.66311,-3.82303 5.86645,-4.53471 8.94256,-2.88842 2.40997,1.28977 2.24452,7.43309 -0.26345,9.78244 -3.66843,3.43643 -10.32183,4.67956 -12.29845,2.29788 z"
       id="path4106"
       inkscape:connector-curvature="0" />
    <path
       style="fill:#fffc00;fill-opacity:1"
       d="m 238.22285,503.47506 c -2.77201,-2.77201 -0.66946,-12.94209 2.91054,-14.07834 2.66221,-0.84495 6.67308,3.19381 6.67308,6.71949 0,5.09937 -6.69913,10.24334 -9.58362,7.35885 z"
       id="path4108"
       inkscape:connector-curvature="0" />
    <path
       style="fill:#fffc00;fill-opacity:1"
       d="m 238.58975,539.64364 c -4.47278,-3.52465 -5.53272,-9.65697 -2.06221,-11.93094 2.64704,-1.7344 10.3531,-1.70599 13.75015,0.0507 6.85304,3.54384 1.56624,12.99686 -7.2276,12.92325 -1.74374,-0.0146 -3.7509,-0.48394 -4.46034,-1.043 l 0,0 z"
       id="path4110"
       inkscape:connector-curvature="0" />
    <path
       style="fill:#b3b3b3;fill-opacity:1"
       d="m 224.44319,615.22946 c -32.75159,-3.50928 -47.93378,-7.51277 -56.59067,-14.92275 -7.66736,-6.56296 -8.85394,-12.84459 -5.68472,-30.09401 2.6617,-14.48711 4.86119,-21.55399 12.11333,-38.91976 9.36154,-22.41686 11.61328,-31.97236 12.37515,-52.51507 l 0.48668,-13.12273 -2.6622,-5.4077 C 177.74744,446.57012 165.97192,442.1792 123.95881,437.67969 95.257126,434.6058 89.834362,433.33508 75.757441,426.38461 62.158068,419.66994 54.233162,411.51685 53.573476,403.5619 c -0.504468,-6.08322 2.212268,-11.12853 10.341241,-19.20494 3.916946,-3.89162 6.145035,-6.70483 5.679096,-7.17049 -1.494632,-1.49375 -6.662309,2.08843 -15.98554,11.08102 l -9.377955,9.04537 -3.463869,-1.9359 c -1.905128,-1.06474 -4.969745,-3.26802 -6.810261,-4.89618 -3.007445,-2.66044 -3.385928,-3.43703 -3.736732,-7.66727 -0.769326,-9.27705 5.875199,-17.75807 19.099141,-24.378 12.333136,-6.17399 15.901706,-5.0028 22.902957,7.5166 3.28933,5.88188 9.558901,11.72588 18.116659,16.88694 9.231951,5.56766 33.558927,13.05017 53.895247,16.57714 19.48041,3.37853 34.82919,3.12519 74.78611,-1.23436 16.9801,-1.85264 38.00706,-4.02091 46.72657,-4.81839 l 15.85365,-1.44996 45.47496,-17.70517 c 25.01123,-9.73785 54.73705,-21.33916 66.05738,-25.78069 l 20.58242,-8.07551 3.42932,1.74951 c 1.88612,0.96223 5.48397,3.6102 7.9952,5.88439 2.51123,2.27418 7.08964,5.27921 10.17423,6.67783 7.24446,3.28479 13.8679,7.54567 13.00714,8.36754 -0.37095,0.3542 -15.88146,9.54882 -34.46779,20.43249 -64.07829,37.52258 -73.60484,43.36851 -77.66642,47.65961 -5.84407,6.17432 -8.62449,10.11345 -12.27824,17.3951 -4.60423,9.17592 -5.60871,13.96123 -5.51569,26.27677 0.0752,9.95404 0.34791,11.53434 5.97578,34.62772 8.70709,35.72859 10.49627,46.50944 9.35886,56.39265 -1.17406,10.20184 -18.1431,29.28165 -32.13586,36.13323 -13.91694,6.81446 -30.65732,11.62639 -45.26738,13.01185 -8.47213,0.80341 -25.54686,0.94729 -31.88051,0.26866 l 0,0 z m 25.20888,-73.8815 c 3.84772,-2.16254 5.66403,-5.16231 5.66403,-9.35457 0,-3.60452 -2.04672,-5.86273 -6.41245,-7.07503 -10.83186,-3.00787 -18.37284,1.57434 -16.15369,9.81565 0.81882,3.04084 4.1547,6.96449 6.71248,7.8952 2.79606,1.01742 7.05183,0.48229 10.18963,-1.28125 l 0,0 z m -4.50719,-36.53549 c 3.31664,-2.02211 5.51969,-6.75682 4.80549,-10.32781 -0.60445,-3.02225 -5.17628,-8.00767 -7.34335,-8.00767 -2.34034,0 -5.38115,2.32487 -6.32849,4.83849 -2.09064,5.5472 -1.64775,12.88929 0.87406,14.48994 1.83162,1.16256 5.12868,0.75294 7.99229,-0.99295 l 0,0 z m -2.24113,-45.48094 c 4.76999,-1.6709 6.52973,-4.02246 6.55297,-8.7568 0.0254,-5.16514 -1.73248,-7.4882 -5.66097,-7.48119 -3.88582,0.007 -7.28228,2.22542 -10.31076,6.73471 -5.5165,8.21387 -0.71895,13.05448 9.41876,9.50328 z"
       id="path4112"
       inkscape:connector-curvature="0" />
    <path
       style="fill:#b3b3b3;fill-opacity:1"
       d="m 452.65239,357.19013 c -5.04744,-2.06587 -7.00491,-7.62521 -7.0672,-20.07126 -0.0598,-11.95941 -0.39448,-13.35045 -3.21171,-13.35045 -1.5739,0 -3.76949,1.63625 -8.11738,6.04942 -3.27796,3.32719 -6.95683,6.93367 -8.17527,8.01441 -1.21844,1.08074 -2.21534,2.6501 -2.21534,3.48747 0,1.38308 -0.36292,1.32395 -3.96342,-0.6458 -2.17987,-1.19255 -4.12374,-2.29644 -4.3197,-2.45309 -0.45264,-0.36182 0.68084,-1.2166 12.87233,-9.70733 18.43648,-12.84001 36.20733,-23.07529 40.09626,-23.09379 2.41511,-0.0115 6.07669,4.18605 11.37614,13.04133 3.95243,6.60445 4.69296,8.53989 5.52875,14.44994 1.19088,8.42097 0.2525,11.2541 -4.99537,15.08184 -9.84191,7.17859 -22.50637,11.36727 -27.80809,9.19731 z"
       id="path4114"
       inkscape:connector-curvature="0" />
    <path
       style="fill:#b3b3b3;fill-opacity:1"
       d="M 17.261918,357.37497 C 6.2958604,339.14939 1.1368802,322.21443 1.8265837,306.70666 c 0.3379523,-7.59875 0.6808435,-9.07886 3.424996,-14.78419 2.1721805,-4.51615 4.3653987,-7.54276 7.6238083,-10.52076 4.473291,-4.08834 4.720466,-4.19365 11.186842,-4.76605 12.510261,-1.10741 19.46091,1.78499 22.32759,9.29129 1.322505,3.46293 1.382185,5.28538 0.620852,18.95893 -0.939179,16.86767 -0.319215,26.61857 2.096662,32.97664 1.423732,3.74696 1.460898,4.26277 0.30715,4.26277 -2.937003,0 -14.372658,7.64725 -26.197321,17.51868 l -3.055336,2.55064 -2.899909,-4.81964 z"
       id="path4118"
       inkscape:connector-curvature="0" />
    <path
       style="fill:#b3b3b3;fill-opacity:1"
       d="m 164.95631,874.4613 c -2.76841,-2.17764 -4.18467,-6.53009 -3.4314,-10.54537 1.98427,-10.57709 8.78139,-17.83627 29.61231,-31.62537 9.14034,-6.05047 16.95522,-11.87585 18.90826,-14.09463 4.31374,-4.90066 5.85369,-10.07241 4.42202,-14.85088 -1.59498,-5.3236 -8.87298,-20.30999 -18.13529,-37.34308 -10.50732,-19.32262 -16.89284,-32.05171 -20.80744,-41.47814 -4.65112,-11.19996 -11.00021,-30.48595 -12.08281,-36.7027 -1.17641,-6.75545 -0.52999,-20.77901 1.21671,-26.39552 1.45801,-4.68822 4.54996,-9.55111 6.46784,-10.17233 0.73519,-0.23814 5.24096,0.51289 10.01283,1.66894 21.64738,5.24441 48.66915,6.48195 67.50154,3.09142 19.80663,-3.56593 40.31405,-11.76697 56.38018,-22.54677 9.88008,-6.62918 22.95172,-18.40055 29.14612,-26.24687 2.75352,-3.48785 5.23828,-6.3614 5.52166,-6.38567 0.7759,-0.0665 4.59551,12.03072 6.07513,19.2407 2.62309,12.78194 3.35414,22.91182 3.27505,45.38139 -0.11548,32.81234 -3.94925,67.09675 -12.01491,107.44613 -3.49227,17.47053 -3.50802,18.92315 -0.26115,24.09954 3.02176,4.81749 8.66068,7.05771 22.8535,9.0792 13.58644,1.93512 19.462,3.3994 24.99645,6.22949 4.57466,2.33929 10.88288,7.64015 10.88288,9.145 0,2.23916 -5.19625,6.19443 -9.29191,7.07279 -7.52431,1.61367 -23.75012,-2.03473 -54.12271,-12.16959 -18.41832,-6.1459 -22.25272,-9.01987 -28.91064,-21.66916 -4.98814,-9.47689 -5.72555,-14.79539 -5.65513,-40.7867 0.0605,-22.31303 1.47255,-41.41116 4.40401,-59.56341 l 1.50462,-9.31695 -4.75921,-4.77675 c -2.61758,-2.62722 -6.77707,-5.98117 -9.24332,-7.45324 -4.38605,-2.61796 -12.56441,-5.25035 -16.31188,-5.25035 -2.80424,0 -9.40675,2.42168 -12.16808,4.46301 -3.52663,2.60711 -8.52405,10.50827 -10.75824,17.00933 -1.8629,5.42069 -1.93682,6.59378 -1.85436,29.42624 0.1381,38.2348 3.93194,58.39145 14.15914,75.22724 l 2.91444,4.79767 -1.76487,3.45945 c -3.91483,7.6737 -12.32895,14.75708 -34.60524,29.13225 -22.91043,14.78437 -34.16919,24.05311 -39.71464,32.69494 -3.04954,4.75231 -8.78827,9.17146 -14.34211,11.04427 -5.25288,1.77132 -7.43378,1.69828 -10.01935,-0.33552 l 0,0 z"
       id="path4120"
       inkscape:connector-curvature="0" />
    <path
       style="fill:#b3b3b3;fill-opacity:1"
       d="m 498.12735,335.2777 c 0,-9.8459 -4.45373,-19.24335 -14.65818,-30.92905 l -7.12159,-8.15533 1.72333,-2.4202 c 1.93673,-2.71988 20.92919,-21.03227 24.37044,-23.49779 l 2.228,-1.59628 2.69931,4.80721 c 3.25558,5.79789 4.83492,7.72761 6.32446,7.72761 1.67511,0 1.38769,-1.79164 -1.42209,-8.86486 -1.39941,-3.52281 -2.37625,-6.84323 -2.17076,-7.37873 0.20549,-0.5355 4.44818,-3.0017 9.4282,-5.48045 8.51712,-4.23931 9.42605,-4.50755 15.31261,-4.5191 8.38652,-0.0164 12.03847,1.93399 17.55746,9.37708 6.81947,9.19694 8.74195,13.78869 8.63359,20.62088 -0.1136,7.1628 -1.97646,11.41694 -7.98097,18.22574 -4.66195,5.28641 -16.94812,15.59478 -18.50209,15.52366 -0.52778,-0.0242 -3.40023,-3.28515 -6.38322,-7.24666 -2.98299,-3.96151 -5.93951,-7.36789 -6.57005,-7.56972 -1.77522,-0.56825 -0.78109,4.24673 2.40338,11.64054 1.51033,3.50673 2.5257,6.9501 2.25639,7.65193 -0.36139,0.94177 -21.94032,13.0775 -27.48,15.45443 -0.35652,0.15297 -0.64822,-1.36394 -0.64822,-3.37091 z"
       id="path4152"
       inkscape:connector-curvature="0" />
    <path
       style="fill:#ff0016;fill-opacity:1;stroke:#000000;stroke-width:1px;stroke-linecap:butt;stroke-linejoin:miter;stroke-opacity:1"
       d="m 271.30023,382.29702 c -10.81837,5.95989 -23.77064,19.66707 -30.34375,31.375 16.87635,6.82405 46.40972,56.75692 40.0625,15.59375 -0.41584,-14.19828 1.18051,-47.94905 -9.71875,-46.96875 z m -60.3125,9.5 c -7.14041,0.0786 -8.73856,25.23171 -6.44392,35.0219 2.04514,32.90585 14.75604,-2.00996 27.85017,-13.1469 -8.10164,-5.28203 -14.88364,-21.30538 -21.40625,-21.875 z"
       id="path3043"
       inkscape:connector-curvature="0"
       sodipodi:nodetypes="cccccccc" />
  </g>
</svg>
