<?xml version="1.0" encoding="UTF-8" standalone="no"?>
<svg
   xmlns:dc="http://purl.org/dc/elements/1.1/"
   xmlns:cc="http://creativecommons.org/ns#"
   xmlns:rdf="http://www.w3.org/1999/02/22-rdf-syntax-ns#"
   xmlns:svg="http://www.w3.org/2000/svg"
   xmlns="http://www.w3.org/2000/svg"
   width="108.93777mm"
   height="208.03279mm"
   viewBox="0 0 385.99996 737.12407"
   id="svg4075"
   version="1.1">
  <defs
     id="defs4077" />
  <metadata
     id="metadata4080">
    <rdf:RDF>
      <cc:Work
         rdf:about="">
        <dc:format>image/svg+xml</dc:format>
        <dc:type
           rdf:resource="http://purl.org/dc/dcmitype/StillImage" />
        <dc:title></dc:title>
      </cc:Work>
    </rdf:RDF>
  </metadata>
  <text
     style="font-size:13.33333302px;font-family:Sans;text-anchor:end;fill:#000000"
     id="text3033"
     y="-17.32196"
     x="387.99997">
    <tspan
       id="tspan3035"
       y="5.1780396"
       x="489.99997" />
  </text>
  <text
     style="font-size:13.33333302px;font-family:Sans;text-anchor:end;fill:#000000"
     id="text3107"
     y="47.641602"
     x="405.99997">
    <tspan
       id="tspan3109"
       y="70.141602"
       x="499.99997" />
  </text>
  <text
     style="font-size:13.33333302px;font-family:Sans;text-anchor:end;fill:#000000"
     id="text3033-0"
     y="66.67804"
     x="387.99997">
    <tspan
       id="tspan3035-1"
       y="89.17804"
       x="489.99997" />
  </text>
  <text
     style="font-size:13.33333302px;font-family:Sans;text-anchor:end;fill:#000000"
     id="text3033-1"
     y="150.67798"
     x="387.99997">
    <tspan
       id="tspan3035-8"
       y="173.17798"
       x="489.99997" />
  </text>
  <text
     style="font-size:13.33333302px;font-family:Sans;text-anchor:end;fill:#000000"
     id="text3033-0-9"
     y="234.67798"
     x="387.99997">
    <tspan
       id="tspan3035-1-5"
       y="257.17798"
       x="489.99997" />
  </text>
  <path
     style="fill:#ffc000;fill-opacity:1;stroke:#c48d00;stroke-width:2;stroke-linecap:round;stroke-opacity:1"
     id="path3660-4-5"
     d="m 0.99996948,29.56205 0,-8 c 0,-4.18879 3.81120982,-8 8.00000002,-8 l 7.9999995,0 10,-12.0000001 10,12.0000001 18,0 60.000001,0 8,0 c 4.18879,0 8,3.81121 8,8 l 0,8 0,8 0,8 c 0,4.18879 -3.81121,8 -8,8 l -8,0 -60.000001,0 -2,0 0,4 -16,0 0,-4 -2,0 -8,0 c -2.617994,0 -5.219867,1.077731 -7.071068,2.928932 -1.851201,1.851201 -2.928932,4.453074 -2.928932,7.071068 l 0,8 0,594.00003 0,8 c 0,2.61799 1.077731,5.21987 2.928932,7.07107 1.851201,1.8512 4.53124,3.56389 7.071068,2.92893 l 8,0 0,4 20,0 0,-4 16,0 0,12 0,12 0,8 c 0,4.18879 -3.936277,9.01593 -8,8 l -8,0 -18,0 -10,12 -10,-12 -7.9999995,0 c -4.1887902,0 -8.00000002,-3.81121 -8.00000002,-8 l 0,-8 z" />
  <text
     style="font-size:20px;font-family:Sans;text-anchor:start;fill:#000000"
     id="text3662-8-4"
     x="-3.0517582e-05"
     y="0.56204993">
    <tspan
       id="tspan3664-5-20"
       y="43.56205"
       x="7.9999695">start</tspan>
  </text>
  <path
     style="fill:#e37a00;fill-opacity:1;stroke:#a34600;stroke-width:2;stroke-linecap:round;stroke-opacity:1"
     id="path21"
     d="m 18.99994,71.20373 0,-8 c 0,-4.418278 3.581722,-8 8,-8 l 8,0 0,4 20,0 0,-4 18,0 28,0 8,0 c 4.41828,0 8,3.581722 8,8 l 0,8 0,8 0,8 c 0,4.418278 -3.58172,8 -8,8 l -8,0 -28,0 -2,0 0,4 -16,0 0,-4 -2,0 -8,0 c -5.522847,0 -10,4.477153 -10,10 l 0,8 0,510.00003 0,8 c 0,5.52284 4.477154,10 10,10 l 8,0 0,4 20,0 0,-4 16,0 0,12 0,12 0,8 c 0,4.41827 -3.581722,8 -8,8 l -8,0 -18,0 -2,0 0,4 -16,0 0,-4 -2,0 -8,0 c -4.418278,0 -8,-3.58173 -8,-8 l 0,-8 z" />
  <text
     style="font-size:20px;font-family:Sans;text-anchor:start;fill:#000000"
     id="text23"
     x="17.999941"
     y="54.203732">
    <tspan
       id="tspan25"
       y="84.703728"
       x="25.999941">forever</tspan>
  </text>
  <path
     style="fill:#ffc000;fill-opacity:1;stroke:#c48d00;stroke-width:2;stroke-linecap:round;stroke-opacity:1"
     id="path3051"
     d="m 36.999941,615.20376 0,-8 a 8,8 0 0 1 8,-8 l 8,0 0,4 20,0 0,-4 59.999999,0 8,0 a 8,8 0 0 1 8,8 l 0,8 -8,0 0,-6 -8,0 0,20 8,0 0,-6 8,0 0,8 a 8,8 0 0 1 -8,8 l -8,0 -59.999999,0 -2,0 0,4 -16,0 0,-4 -2,0 -8,0 a 8,8 0 0 1 -8,-8 l 0,-8 0,-8 z" />
  <text
     style="font-size:20px;font-family:Sans;text-anchor:end;fill:#000000"
     id="text3053"
     x="35.999943"
     y="598.20374">
    <tspan
       id="tspan3055"
       y="626.20374"
       x="129.99994">do</tspan>
  </text>
  <text
     style="font-size:13.33333302px;font-family:Sans;text-anchor:end;fill:#000000"
     id="text3057"
     x="35.999943"
     y="598.20374">
    <tspan
       id="tspan3059"
       y="620.70374"
       x="129.99994" />
  </text>
  <path
     style="fill:#e37a00;fill-opacity:1;stroke:#a34600;stroke-width:2;stroke-linecap:round;stroke-opacity:1"
     id="path3035"
     d="m 36.999941,405.56206 0,-8 c 0,-4.41828 3.581722,-8 8,-8 l 8,0 0,4 20,0 0,-4 18,0 8,0 c 4.418279,0 7.999999,3.58172 7.999999,8 l 0,8 0,18 c -8.836555,0 -15.999999,7.16344 -15.999999,16 0,8.83656 7.163444,16 15.999999,16 l 0,8 c 0,4.41828 -3.58172,8 -7.999999,8 l -8,0 -2,0 0,4 -16,0 0,-4 -2,0 -8,0 c -5.522847,0 -10,4.47715 -10,10 l 0,8 0,50 0,8 c 0,5.52285 4.477153,10 10,10 l 8,0 0,4 20,0 0,-4 15.999999,0 0,12 0,12 0,8 c 0,4.41828 -3.58172,8 -7.999999,8 l -8,0 -18,0 -2,0 0,4 -16,0 0,-4 -2,0 -8,0 c -4.418278,0 -8,-3.58172 -8,-8 l 0,-8 z" />
  <text
     style="font-size:20px;font-family:sans-serif;text-anchor:start;fill:#000000"
     id="text3037"
     x="35.999943"
     y="388.56207">
    <tspan
       id="tspan3039"
       y="424.06207"
       x="43.999943">if</tspan>
  </text>
  <text
     style="font-size:13.33333302px;font-family:sans-serif;text-anchor:end;fill:#000000"
     id="text3041"
     x="35.999943"
     y="388.56207">
    <tspan
       id="tspan3043"
       y="466.56207"
       x="99.999939">then</tspan>
  </text>
  <path
     style="fill:#e37a00;fill-opacity:1;stroke:#a34600;stroke-width:2;stroke-linecap:round;stroke-opacity:1"
     id="path3035-0"
     d="m 36.999969,195.56206 0,-8 c 0,-4.41828 3.581722,-8 8,-8 l 8,0 0,4 20,0 0,-4 18,0 8,0 c 4.418281,0 8.000001,3.58172 8.000001,8 l 0,8 0,18 c -8.836557,0 -16.000001,7.16344 -16.000001,16 0,8.83656 7.163444,16 16.000001,16 l 0,8 c 0,4.41828 -3.58172,8 -8.000001,8 l -8,0 -2,0 0,4 -16,0 0,-4 -2,0 -8,0 c -5.522847,0 -10,4.47715 -10,10 l 0,8 0,50 0,8 c 0,5.52285 4.642051,11.33949 10,10 l 8,0 0,4 20,0 0,-4 16.000001,0 0,12 0,12 0,8 c 0,4.41828 -3.71364,9.07159 -8.000001,8 l -8,0 -18,0 -2,0 0,4 -16,0 0,-4 -2,0 -8,0 c -4.418278,0 -8,-3.58172 -8,-8 l 0,-8 z" />
  <text
     style="font-size:20px;font-family:sans-serif;text-anchor:start;fill:#000000"
     id="text3037-8"
     x="35.999969"
     y="178.56206">
    <tspan
       id="tspan3039-9"
       y="214.06206"
       x="43.999969">if</tspan>
  </text>
  <text
     style="font-size:13.33333302px;font-family:sans-serif;text-anchor:end;fill:#000000"
     id="text3041-0"
     x="35.999969"
     y="178.56206">
    <tspan
       id="tspan3043-7"
       y="256.56207"
       x="99.999969">then</tspan>
  </text>
  <path
     style="fill:#EE97A8;fill-opacity:1;stroke:#A75862;stroke-width:2;stroke-linecap:round;stroke-opacity:1"
     id="path21-2"
     d="m 194.99997,221.56206 120,0 0,40 -120,0 0,-16 0,-2 -12,0 0,6 -4,0 0,-16 4,0 0,6 12,0 0,-2 z" />
  <text
     style="font-size:20px;font-family:Sans;text-anchor:start;fill:#000000"
     id="text23-3"
     x="227.99997"
     y="220.56206">
    <tspan
       id="tspan25-0"
       y="246.56206"
       x="247.99997">0</tspan>
  </text>
  <path
     style="fill:#BE6152;fill-opacity:1;stroke:#923111;stroke-width:2;stroke-linecap:round;stroke-opacity:1"
     id="path3052"
     d="m 194.99997,179.56206 178,0 0,40 -178,0 0,-16 0,-2 -12,0 0,6 -4,0 0,-16 4,0 0,6 12,0 0,-2 z" />
  <text
     style="font-size:20px;font-family:Sans;text-anchor:start;fill:#000000"
     id="text3054"
     x="177.99997"
     y="178.56206">
    <tspan
       id="tspan3056"
       y="204.56206"
       x="197.99997">mouse x</tspan>
  </text>
  <path
     d="m 92.999968,229.06206 c 0,-7.33038 6.669617,-13.5 14.000002,-13.5 l 2,0 0,-20 c 0,-8.37758 7.62242,-16 16,-16 l 68,0 0,16 -8,0 0,-6 -8,0 0,20 8,0 0,-6 8,0 0,34 -8,0 0,-6 -8,0 0,20 8,0 0,-6 8,0 0,16 -60,0 -22,0 -2,0 0,-2 0,-16 -2,0 c -7.330385,0 -14.000002,-5.16962 -14.000002,-12.5 z"
     id="path3181-7"
     style="fill:#d8d100;fill-opacity:1;stroke:#a19a00;stroke-width:2;stroke-linecap:round;stroke-opacity:1" />
  <text
     style="font-size:28px;font-family:sans-serif;text-anchor:end;fill:#000000;fill-opacity:1"
     id="text3183-1"
     x="91.999969"
     y="178.56206">
    <tspan
       style="fill:#000000;fill-opacity:1"
       id="tspan3185-0"
       y="227.56206"
       x="173.99997">&gt;</tspan>
  </text>
  <path
     style="fill:#EE97A8;fill-opacity:1;stroke:#A75862;stroke-width:2;stroke-linecap:round;stroke-opacity:1"
     id="path3155"
     d="m 150.99997,615.56206 0,-8 a 8,8 0 0 1 8,-8 l 8,0 20,0 60,0 8,0 a 8,8 0 0 1 8,8 l 0,8 -8,0 0,-6 -8,0 0,20 8,0 0,-6 8,0 0,34 -8,0 0,-6 -8,0 0,20 8,0 0,-6 8,0 0,8 a 8,8 0 0 1 -8,8 l -8,0 -60,0 -20,0 -8,0 a 8,8 0 0 1 -8,-8 l 0,-8 0,-42 0,-2 -12,0 0,6 -4,0 0,-16 4,0 0,6 12,0 0,-2 z" />
  <text
     style="font-size:28px;font-family:Sans;text-anchor:end;fill:#000000"
     id="text3157"
     x="133.99997"
     y="598.56207">
    <tspan
       id="tspan3159"
       y="647.56207"
       x="243.99997">+</tspan>
  </text>
  <text
     style="font-size:18.66666603px;font-family:Sans;text-anchor:end;fill:#000000"
     id="text3161"
     x="133.99997"
     y="598.56207">
    <tspan
       id="tspan3163"
       y="620.06207"
       x="243.99997" />
  </text>
  <text
     style="font-size:18.66666603px;font-family:Sans;text-anchor:end;fill:#000000"
     id="text3165"
     x="133.99997"
     y="598.56207">
    <tspan
       id="tspan3167"
       y="662.06207"
       x="243.99997" />
  </text>
  <path
     style="fill:#5DC1BC;fill-opacity:1;stroke:#5AA4AF;stroke-width:2;stroke-linecap:round;stroke-opacity:1"
     id="path21-6"
     d="m 264.99997,599.56206 120,0 0,40 -120,0 0,-16 0,-2 -12,0 0,6 -4,0 0,-16 4,0 0,6 12,0 0,-2 z" />
  <text
     x="267.99997"
     style="font-size:20px;font-family:Sans;text-anchor:start;fill:#000000"
     id="text23-7"
     y="598.56207">
    <tspan
       id="tspan25-4"
       y="624.56207"
       x="287.99997">chunk</tspan>
  </text>
  <path
     style="fill:#F2740B;fill-opacity:1;stroke:#A86129;stroke-width:2;stroke-linecap:round;stroke-opacity:1"
     id="path3172"
     d="m 264.99997,641.56206 120,0 0,40 -120,0 0,-16 0,-2 -12,0 0,6 -4,0 0,-16 4,0 0,6 12,0 0,-2 z" />
  <text
     style="font-size:20px;font-family:Sans;text-anchor:start;fill:#000000"
     id="text3174"
     x="247.99997"
     y="640.56207">
    <tspan
       id="tspan3176"
       y="666.56207"
       x="267.99997">box</tspan>
  </text>
  <path
     style="fill:#F2740B;fill-opacity:1;stroke:#A86129;stroke-width:2;stroke-linecap:round;stroke-opacity:1"
     id="path3172-5"
     d="m 166.99997,95.56206 120,0 0,40 -120,0 0,-16 0,-2 -12,0 0,6 -4,0 0,-16 4,0 0,6 12,0 0,-2 z" />
  <text
     style="font-size:20px;font-family:Sans;text-anchor:start;fill:#000000"
     id="text3174-1"
     x="149.99997"
     y="94.562057">
    <tspan
       id="tspan3176-8"
       y="120.56206"
       x="169.99997">box</tspan>
  </text>
  <path
     style="fill:#F2740B;fill-opacity:1;stroke:#A86129;stroke-width:2;stroke-linecap:round;stroke-opacity:1"
     id="path21-7"
     d="m 36.999969,111.56206 0,-8 a 8,8 0 0 1 8,-8 l 8,0 0,4 20,0 0,-4 76.000001,0 8,0 a 8,8 0 0 1 8,8 l 0,8 -8,0 0,-6 -8,0 0,20 8,0 0,-6 8,0 0,34 -8,0 0,-6 -8,0 0,20 8,0 0,-6 8,0 0,8 a 8,8 0 0 1 -8,8 l -8,0 -76.000001,0 -2,0 0,4 -16,0 0,-4 -2,0 -8,0 a 8,8 0 0 1 -8,-8 l 0,-8 0,-42 0,-8 z" />
  <text
     style="font-size:20px;font-family:Sans;text-anchor:end;fill:#000000"
     id="text23-8"
     x="35.999969"
     y="94.562057">
    <tspan
       id="tspan25-8"
       y="143.56206"
       x="145.99997">store in</tspan>
  </text>
  <text
     style="font-size:13.33333302px;font-family:Sans;text-anchor:end;fill:#000000"
     id="text27"
     x="35.999969"
     y="96.562057">
    <tspan
       id="tspan29"
       y="119.06206"
       x="145.99997">name</tspan>
  </text>
  <text
     style="font-size:13.33333302px;font-family:Sans;text-anchor:end;fill:#000000"
     id="text31"
     x="35.999969"
     y="98.562057">
    <tspan
       id="tspan33"
       y="163.06206"
       x="145.99997">value</tspan>
  </text>
  <path
     style="fill:#EE97A8;fill-opacity:1;stroke:#A75862;stroke-width:2;stroke-linecap:round;stroke-opacity:1"
     id="path21-8-61"
     d="m 168.99997,515.56206 120,0 0,40 -120,0 0,-16 0,-2 -12,0 0,6 -4,0 0,-16 4,0 0,6 12,0 0,-2 z" />
  <text
     style="font-size:20px;font-family:Sans;text-anchor:start;fill:#000000"
     id="text23-0-4"
     y="516.56207"
     x="198.99997">
    <tspan
       id="tspan25-7-0"
       y="542.56207"
       x="218.99997">2</tspan>
  </text>
  <path
     style="fill:#F2740B;fill-opacity:1;stroke:#A86129;stroke-width:2;stroke-linecap:round;stroke-opacity:1"
     id="path3172-6"
     d="m 168.99997,473.56206 120,0 0,40 -120,0 0,-16 0,-2 -12,0 0,6 -4,0 0,-16 4,0 0,6 12,0 0,-2 z" />
  <text
     style="font-size:20px;font-family:Sans;text-anchor:start;fill:#000000"
     id="text3174-9"
     x="151.99997"
     y="472.56207">
    <tspan
       id="tspan3176-6"
       y="498.56207"
       x="171.99997">box</tspan>
  </text>
  <path
     style="fill:#F2740B;fill-opacity:1;stroke:#A86129;stroke-width:2;stroke-linecap:round;stroke-opacity:1"
     id="path3124"
     d="m 54.99997,489.56206 0,-8 a 8,8 0 0 1 8,-8 l 8,0 0,4 20,0 0,-4 60,0 8,0 a 8,8 0 0 1 8,8 l 0,8 -8,0 0,-6 -8,0 0,20 8,0 0,-6 8,0 0,34 -8,0 0,-6 -8,0 0,20 8,0 0,-6 8,0 0,8 a 8,8 0 0 1 -8,8 l -8,0 -60,0 -2,0 0,4 -16,0 0,-4 -2,0 -8,0 a 8,8 0 0 1 -8,-8 l 0,-8 0,-42 0,-8 z" />
  <text
     style="font-size:20px;font-family:Sans;text-anchor:end;fill:#000000"
     id="text3126"
     x="53.999969"
     y="472.56207">
    <tspan
       id="tspan3128"
       y="521.56207"
       x="147.99997">add</tspan>
  </text>
  <text
     style="font-size:13.33333302px;font-family:Sans;text-anchor:end;fill:#000000"
     id="text3130"
     x="53.999969"
     y="474.56207">
    <tspan
       id="tspan3132"
       y="497.06207"
       x="147.99997">to</tspan>
  </text>
  <text
     style="font-size:13.33333302px;font-family:Sans;text-anchor:end;fill:#000000"
     id="text3134"
     x="53.999969"
     y="476.56207">
    <tspan
       id="tspan3136"
       y="541.06207"
       x="147.99997">value</tspan>
  </text>
  <path
     style="fill:#EE97A8;fill-opacity:1;stroke:#A75862;stroke-width:2;stroke-linecap:round;stroke-opacity:1"
     id="path21-4"
     d="m 168.99997,305.56206 120,0 0,40 -120,0 0,-16 0,-2 -12,0 0,6 -4,0 0,-16 4,0 0,6 12,0 0,-2 z" />
  <text
     style="font-size:20px;font-family:Sans;text-anchor:start;fill:#000000"
     id="text23-1"
     x="201.99997"
     y="304.56207">
    <tspan
       id="tspan25-3"
       y="330.56207"
       x="221.99997">1</tspan>
  </text>
  <path
     style="fill:#F2740B;fill-opacity:1;stroke:#A86129;stroke-width:2;stroke-linecap:round;stroke-opacity:1"
     id="path3172-9"
     d="m 168.99997,263.56206 120,0 0,40 -120,0 0,-16 0,-2 -12,0 0,6 -4,0 0,-16 4,0 0,6 12,0 0,-2 z" />
  <text
     style="font-size:20px;font-family:Sans;text-anchor:start;fill:#000000"
     id="text3174-5"
     x="151.99997"
     y="262.56207">
    <tspan
       id="tspan3176-1"
       y="288.56207"
       x="171.99997">box</tspan>
  </text>
  <path
     style="fill:#F2740B;fill-opacity:1;stroke:#A86129;stroke-width:2;stroke-linecap:round;stroke-opacity:1"
     id="path3124-9"
     d="m 54.99997,279.56206 0,-8 a 8,8 0 0 1 8,-8 l 8,0 0,4 20,0 0,-4 60,0 8,0 a 8,8 0 0 1 8,8 l 0,8 -8,0 0,-6 -8,0 0,20 8,0 0,-6 8,0 0,34 -8,0 0,-6 -8,0 0,20 8,0 0,-6 8,0 0,8 a 8,8 0 0 1 -8,8 l -8,0 -60,0 -2,0 0,4 -16,0 0,-4 -2,0 -8,0 a 8,8 0 0 1 -8,-8 l 0,-8 0,-42 0,-8 z" />
  <text
     style="font-size:20px;font-family:Sans;text-anchor:end;fill:#000000"
     id="text3126-8"
     x="53.999969"
     y="262.56207">
    <tspan
       id="tspan3128-0"
       y="311.56207"
       x="147.99997">add</tspan>
  </text>
  <text
     style="font-size:13.33333302px;font-family:Sans;text-anchor:end;fill:#000000"
     id="text3130-7"
     x="53.999969"
     y="264.56207">
    <tspan
       id="tspan3132-1"
       y="287.06207"
       x="147.99997">to</tspan>
  </text>
  <text
     style="font-size:13.33333302px;font-family:Sans;text-anchor:end;fill:#000000"
     id="text3134-5"
     x="53.999969"
     y="266.56207">
    <tspan
       id="tspan3136-9"
       y="331.06207"
       x="147.99997">value</tspan>
  </text>
  <path
     style="fill:#BE6152;fill-opacity:1;stroke:#923111;stroke-width:2;stroke-linecap:round;stroke-opacity:1"
     id="path3083"
     d="m 194.99997,389.56206 178,0 0,40 -178,0 0,-16 0,-2 -12,0 0,6 -4,0 0,-16 4,0 0,6 12,0 0,-2 z" />
  <text
     style="font-size:20px;font-family:Sans;text-anchor:start;fill:#000000"
     id="text3085"
     x="177.99997"
     y="388.56207">
    <tspan
       id="tspan3087"
       y="414.56207"
       x="197.99997">mouse y</tspan>
  </text>
  <path
     d="m 92.999968,439.06206 c 0,-7.33038 6.669617,-13.5 14.000002,-13.5 l 2,0 0,-20 c 0,-8.37758 7.62242,-16 16,-16 l 68,0 0,16 -8,0 0,-6 -8,0 0,20 8,0 0,-6 8,0 0,34 -8,0 0,-6 -8,0 0,20 8,0 0,-6 8,0 0,16 -60,0 -22,0 -2,0 0,-2 0,-16 -2,0 c -7.330385,0 -14.000002,-5.16962 -14.000002,-12.5 z"
     id="path3181-7-9"
     style="fill:#d8d100;fill-opacity:1;stroke:#a19a00;stroke-width:2;stroke-linecap:round;stroke-opacity:1" />
  <text
     style="font-size:28px;font-family:sans-serif;text-anchor:end;fill:#000000;fill-opacity:1"
     id="text3183-1-2"
     x="91.999969"
     y="388.56207">
    <tspan
       style="fill:#000000;fill-opacity:1"
       id="tspan3185-0-5"
       y="437.56207"
       x="173.99997">&gt;</tspan>
  </text>
  <path
     style="fill:#EE97A8;fill-opacity:1;stroke:#A75862;stroke-width:2;stroke-linecap:round;stroke-opacity:1"
     id="path21-2-7"
     d="m 194.99996,431.20373 120,0 0,40 -120,0 0,-16 0,-2 -12,0 0,6 -4,0 0,-16 4,0 0,6 12,0 0,-2 z" />
  <text
     style="font-size:20px;font-family:Sans;text-anchor:start;fill:#000000"
     id="text23-3-4"
     x="227.99997"
     y="430.20374">
    <tspan
       id="tspan25-0-5"
       y="456.20374"
       x="247.99995">0</tspan>
  </text>
  <path
     style="fill:#ee97a8;fill-opacity:1;stroke:#a75862;stroke-width:2;stroke-linecap:round;stroke-opacity:1"
     id="path21-67"
     d="m 166.99996,137.37406 h 120 v 40 h -120 v -16 -2 h -12 v 6 h -4 v -16 h 4 v 6 h 12 v -2 z" />
  <text
     style="font-size:20px;font-family:Sans;text-anchor:start;fill:#000000"
     id="text23-5"
     x="199.99997"
     y="136.20374">
    <tspan
       id="tspan25-47"
       y="162.20374"
       x="219.99995">0</tspan>
  </text>
  <g
     transform="matrix(1.1111109,0,0,1.1111109,-72.331224,-19.373688)"
     id="g4634">
    <path
       style="fill:#ffc1c1;fill-opacity:1;stroke:#ff0000;stroke-width:0.37087584px;stroke-linecap:butt;stroke-linejoin:miter;stroke-miterlimit:4;stroke-dasharray:none;stroke-opacity:1"
       id="path4725"
       d="m 167.00762,39.539118 c 0,0 -0.46531,-0.370876 -0.74175,-0.370876 -0.55287,0 -1.09256,0.350814 -1.4835,0.741752 -0.58641,0.586406 -0.62773,1.552489 -1.11263,2.225255 -0.30668,0.425495 -0.68713,0.805948 -1.11263,1.112627 -0.67276,0.484903 -1.63885,0.526222 -2.22525,1.112628 -0.39094,0.390937 -0.74175,0.930634 -0.74175,1.483503 0,0.552869 0.43649,1.312961 0.74175,1.483503 0.96247,0.537721 0.31028,0.240518 0.74175,0.741752 0,0 -0.38587,1.22419 -0.37088,1.854379 0.0165,1.238632 0.45294,2.480604 0.74176,2.967007 0.18935,0.318895 1.34328,1.657344 2.22525,2.225255 0.88807,0.571841 1.97446,0.763668 3.02812,0.8376 1.13698,0.07978 2.21652,-0.132168 3.21565,-0.680635 0.61304,-0.336524 1.12013,-0.71383 1.54462,-1.269593 0.60499,-0.792083 1.22769,-1.632821 1.48351,-2.59613 0.15865,-0.597419 0.0755,-1.240885 0,-1.85438 -0.0623,-0.505901 -0.47178,-0.983869 -0.37088,-1.483503 0.12236,-0.605895 0.86033,-0.919212 1.11263,-1.483503 0.2573,-0.575467 0.62589,-1.277899 0.37087,-1.854379 -0.29162,-0.659231 -1.24525,-0.727152 -1.85438,-1.112628 -0.37665,-0.238358 -0.78107,-0.443829 -1.11262,-0.741752 -0.71819,-0.645351 -1.2767,-1.451586 -1.85438,-2.225255 -0.26668,-0.357158 -0.38752,-0.842067 -0.74175,-1.112627 -0.31068,-0.237297 -0.73215,-0.460695 -1.11263,-0.370876 -0.17016,0.04017 -0.37088,0.370876 -0.37088,0.370876" />
    <path
       d="m 172.57866,47.803117 c 0,0 0.54294,2.128427 0.37128,3.183536 -0.18671,1.147562 -0.64302,2.34396 -1.48511,3.183536 -0.76475,0.762463 -1.18949,1.049013 -2.22767,1.414905 -0.47858,0.168668 -1.84456,0.353726 -2.4159,0.353726 -0.57135,0 -1.93733,-0.185059 -2.41591,-0.353727 -1.03818,-0.365892 -1.46292,-0.652441 -2.22766,-1.414904 -0.84209,-0.839576 -1.29841,-2.035975 -1.48512,-3.183536 -0.17166,-1.055109 0.37128,-3.183536 0.37128,-3.183536 m 4.82661,-2.122358 c 0,0 -1.52881,1.745204 -2.59894,2.122358 -0.69643,0.245448 -1.5584,0.30646 -2.22767,0 -0.71423,-0.327051 -1.32906,-1.028431 -1.48511,-1.768631 -0.17743,-0.841581 0.2073,-1.529325 0.91624,-2.050581 0.76674,-0.563756 1.70542,-0.616723 2.42526,-1.132956 0.93281,-0.668963 1.08012,-1.998936 1.85639,-2.829809 0.52688,-0.563939 2.04463,-1.414905 2.04463,-1.414905 0,0 1.51774,0.850966 2.04462,1.414905 0.77627,0.830873 0.92358,2.160847 1.85639,2.82981 0.71984,0.516232 1.68334,0.54353 2.45008,1.085677 0.71847,0.508023 1.06885,1.256279 0.89142,2.097859 -0.15605,0.740201 -0.77087,1.44158 -1.48511,1.768631 -0.66927,0.30646 -1.53123,0.245448 -2.22767,0 -1.07013,-0.377153 -2.59894,-2.122357 -2.59894,-2.122357"
       id="path4505-6"
       style="fill:none;fill-opacity:1;stroke:#ff0000;stroke-width:0.72479171;stroke-linecap:round;stroke-linejoin:miter;stroke-miterlimit:4;stroke-dasharray:none;stroke-opacity:1" />
    <g
       id="g4565"
       transform="matrix(0.37127797,0,0,0.35372622,176.72956,39.358074)"
       style="fill:none;fill-opacity:1;stroke:#ff0000;stroke-width:1.99999976;stroke-miterlimit:4;stroke-dasharray:none;stroke-opacity:1">
      <g
         id="g4553"
         transform="translate(0,-1)"
         style="fill:none;fill-opacity:1;stroke:#ff0000;stroke-opacity:1">
        <path
           d="M -30.228157,8.514322 C -33.422908,9.40349 -38.624018,5.874516 -40.102591,4.585664"
           id="path3411-7"
           style="fill:none;fill-opacity:1;fill-rule:evenodd;stroke:#ff0000;stroke-width:1.93205309;stroke-linecap:butt;stroke-linejoin:miter;stroke-miterlimit:4;stroke-dasharray:none;stroke-opacity:1" />
        <path
           d="M -29.760199,5.904536 C -33.101366,5.473905 -35.931474,3.7361852 -37.633646,2.3416285"
           id="path3413-5"
           style="fill:none;fill-opacity:1;fill-rule:evenodd;stroke:#ff0000;stroke-width:1.93205309;stroke-linecap:butt;stroke-linejoin:miter;stroke-miterlimit:4;stroke-dasharray:none;stroke-opacity:1" />
      </g>
      <g
         id="g4557"
         style="fill:none;fill-opacity:1;stroke:#ff0000;stroke-opacity:1">
        <path
           d="m -23.145912,7.514322 c 3.194751,0.889168 8.395861,-2.639806 9.874434,-3.928658"
           id="path3411-3"
           style="fill:none;fill-opacity:1;fill-rule:evenodd;stroke:#ff0000;stroke-width:1.93205309;stroke-linecap:butt;stroke-linejoin:miter;stroke-miterlimit:4;stroke-dasharray:none;stroke-opacity:1" />
        <path
           d="m -23.61387,4.904536 c 3.341167,-0.430631 6.171275,-2.168351 7.873447,-3.5629075"
           id="path3413-56"
           style="fill:none;fill-opacity:1;fill-rule:evenodd;stroke:#ff0000;stroke-width:1.93205309;stroke-linecap:butt;stroke-linejoin:miter;stroke-miterlimit:4;stroke-dasharray:none;stroke-opacity:1" />
      </g>
    </g>
    <g
       id="g4636"
       transform="matrix(0.37127797,0,0,0.35372622,176.92563,38.650622)"
       style="fill:none;fill-opacity:1;stroke:#ff0000;stroke-width:1.99999976;stroke-miterlimit:4;stroke-dasharray:none;stroke-opacity:1">
      <ellipse
         cx="-30.836912"
         cy="14.612609"
         id="circle3409-2"
         rx="1.8846371"
         ry="2.0666313"
         style="fill:none;fill-opacity:1;fill-rule:evenodd;stroke:#ff0000;stroke-width:1.99999976;stroke-linecap:butt;stroke-linejoin:miter;stroke-miterlimit:4;stroke-dasharray:none;stroke-opacity:1" />
      <ellipse
         cx="-23.593306"
         cy="14.699166"
         id="ellipse4229-9"
         rx="1.8846371"
         ry="2.0666313"
         style="fill:none;fill-opacity:1;fill-rule:evenodd;stroke:#ff0000;stroke-width:1.99999976;stroke-linecap:butt;stroke-linejoin:miter;stroke-miterlimit:4;stroke-dasharray:none;stroke-opacity:1" />
    </g>
    <g
       id="g4632"
       transform="matrix(0.37127797,0,0,0.35372622,176.96142,38.650622)"
       style="fill:none;fill-opacity:1;stroke:#ff0000;stroke-width:1.99999976;stroke-miterlimit:4;stroke-dasharray:none;stroke-opacity:1">
      <path
         d="m -37.186516,14.624518 c -14.340024,2.75008 -4.810404,15.671871 4.375,5.25"
         id="path4303-1"
         style="fill:none;fill-opacity:1;fill-rule:evenodd;stroke:#ff0000;stroke-width:1px;stroke-linecap:butt;stroke-linejoin:miter;stroke-miterlimit:4;stroke-dasharray:none;stroke-opacity:1" />
      <path
         d="m -17.436517,14.624518 c 14.3400245,2.75008 4.810404,15.671872 -4.375,5.25"
         id="path4303-1-2"
         style="fill:none;fill-opacity:1;fill-rule:evenodd;stroke:#ff0000;stroke-width:1px;stroke-linecap:butt;stroke-linejoin:miter;stroke-miterlimit:4;stroke-dasharray:none;stroke-opacity:1" />
    </g>
    <path
       d="m 167.72688,38.606235 c -0.51355,0.487351 -0.73647,0.882428 -0.91229,0.882428 -0.24578,0 -0.47204,-0.395077 -0.91229,-0.882428 -0.36084,-0.399437 0.40844,-0.882428 0.91229,-0.882428 0.50385,0 1.3103,0.504726 0.91229,0.882428 z"
       id="path4227-7"
       style="fill:#ff0000;fill-opacity:1;fill-rule:evenodd;stroke:#ff0000;stroke-width:0.80251253;stroke-linecap:butt;stroke-linejoin:miter;stroke-miterlimit:4;stroke-dasharray:none;stroke-opacity:1" />
    <path
       style="fill:none;fill-opacity:1;stroke:#ff0000;stroke-width:0.72479171;stroke-linecap:round;stroke-linejoin:miter;stroke-miterlimit:4;stroke-dasharray:none;stroke-opacity:1"
       id="path4653"
       d="m 167.04984,55.935948 c 0,0 0.26819,1.158553 2.03989,1.361113 1.77169,0.202559 4.37064,-1.401457 5.48447,-3.523814 1.11384,-2.122358 0.8911,-4.261654 1.11384,-6.720799" />
  </g>
</svg>
